<?xml version="1.0" encoding="UTF-8"?>
<svg width="352px" height="352px" viewBox="0 0 352 352" version="1.1" xmlns="http://www.w3.org/2000/svg" xmlns:xlink="http://www.w3.org/1999/xlink">
    <!-- Generator: Sketch 52.4 (67378) - http://www.bohemiancoding.com/sketch -->
    <title>iconography-usage-sizing-5</title>
    <desc>Created with Sketch.</desc>
    <g id="sizing-5" stroke="none" stroke-width="1" fill="none" fill-rule="evenodd">
        <g id="Sizing-alignment-do">
            <rect id="Rectangle-3" x="0" y="0" width="352" height="352"></rect>
            <g id="Page-1" transform="translate(58.666667, 140.555556)">
                <polygon id="Fill-1" fill="#000000" points="25.7182542 59.9380636 25.7182542 14.1414988 53.2157478 14.1414988 53.2157478 18.996616 31.2706979 18.996616 31.2706979 33.6936253 51.2988283 33.6936253 51.2988283 38.5487426 31.2706979 38.5487426 31.2706979 59.9380636"></polygon>
                <g id="Group-9" transform="translate(61.440358, 0.000000)" fill="#000000">
                    <path d="M0.698412525,59.9379907 L5.9864979,59.9379907 L5.9864979,26.0825525 L0.698412525,26.0825525 L0.698412525,59.9379907 Z M0.103468522,15.1912253 L0.103468522,14.3382747 C0.103468522,12.5668179 1.09504186,11.3857253 3.34236349,11.3857253 C5.58986857,11.3857253 6.5814419,12.5668179 6.5814419,14.3382747 L6.5814419,15.1912253 C6.5814419,16.9626821 5.58986857,18.1437747 3.34236349,18.1437747 C1.09504186,18.1437747 0.103468522,16.9626821 0.103468522,15.1912253 Z" id="Fill-2"></path>
                    <path d="M22.8420889,59.9380636 C19.2065646,59.9380636 17.2236014,57.6417981 17.2236014,54.4924 L17.2236014,11.3857981 L22.5115033,11.3857981 L22.5115033,55.3451685 L27.5350468,55.3451685 L27.5350468,59.9380636 L22.8420889,59.9380636 Z" id="Fill-4"></path>
                    <path d="M38.2426262,39.9265747 L38.2426262,40.3858278 L57.081052,40.3858278 L57.081052,39.6641704 C57.081052,33.693516 53.4455277,29.6913494 48.0253549,29.6913494 C42.2747799,29.6913494 38.2426262,34.021658 38.2426262,39.9265747 M32.6901825,43.0104173 C32.6901825,32.2502012 38.7713431,25.2953031 48.0253549,25.2953031 C57.1470958,25.2953031 62.7655833,32.2502012 62.7655833,41.8293247 L62.7655833,44.322621 L38.2426262,44.322621 L38.2426262,45.897229 C38.2426262,51.7365901 42.010238,56.1326364 48.355757,56.1326364 C52.6522691,56.1326364 55.9573912,54.0330377 57.7420398,50.2932753 L61.5096515,52.9832383 C59.3285571,57.5761333 54.4369176,60.7253494 48.0253549,60.7253494 C38.7713431,60.7253494 32.6901825,53.7704512 32.6901825,43.0104173" id="Fill-5"></path>
                    <path d="M143.566115,66.8108716 L102.253739,66.8108716 L102.253739,5.30027593 L122.909836,5.30027593 L122.909836,20.6777883 C122.909836,23.4972235 125.233658,25.8038685 128.073905,25.8038685 L143.566115,25.8038685 L143.566115,66.8108716 Z M128.073905,6.32530988 L142.533265,20.6777883 L128.073905,20.6777883 L128.073905,6.32530988 Z M147.955639,18.8839333 L129.881302,0.943198765 C129.365061,0.430590741 128.848452,0.174195679 128.073905,0.174195679 L102.253739,0.174195679 C99.4133083,0.174195679 97.089486,2.48084074 97.089486,5.30027593 L97.089486,66.8108716 C97.089486,69.6301247 99.4133083,71.9367698 102.253739,71.9367698 L143.566115,71.9367698 C146.406363,71.9367698 148.730185,69.6301247 148.730185,66.8108716 L148.730185,20.6777883 C148.730185,19.9091494 148.472064,19.3963593 147.955639,18.8839333 Z" id="Fill-6"></path>
                    <polygon id="Fill-7" points="109.999697 56.558966 135.820047 56.558966 135.820047 51.43325 109.999697 51.43325"></polygon>
                    <polygon id="Fill-8" points="109.999697 41.1814537 135.820047 41.1814537 135.820047 36.0555556 109.999697 36.0555556"></polygon>
                </g>
                <g id="Group-28" transform="translate(0.000000, 34.833333)" stroke="#95C0FF" stroke-width="1.22222222">
                    <path d="M117.333333,-116.111111 L117.333333,118.555556" id="Path-3" transform="translate(117.333333, 1.222222) rotate(90.000000) translate(-117.333333, -1.222222) "></path>
                </g>
            </g>
        </g>
    </g>
</svg>