<?xml version="1.0" encoding="UTF-8"?>
<svg width="1120px" height="630px" viewBox="0 0 1120 630" version="1.1" xmlns="http://www.w3.org/2000/svg" xmlns:xlink="http://www.w3.org/1999/xlink">
    <!-- Generator: Sketch 52.4 (67378) - http://www.bohemiancoding.com/sketch -->
    <title>layout-overview-Screen-regions-1</title>
    <desc>Created with Sketch.</desc>
    <defs>
        <path d="M4.5375,0.9075 C5.79049603,0.9075 6.80625,1.92325397 6.80625,3.17625 C6.80625,4.42924603 5.79049603,5.445 4.5375,5.445 C3.28450397,5.445 2.26875,4.42924603 2.26875,3.17625 C2.27017531,1.92384483 3.28509483,0.908925306 4.5375,0.9075 Z M4.5375,0 C2.78330556,0 1.36125,1.42205556 1.36125,3.17625 C1.36125,4.93044444 2.78330556,6.3525 4.5375,6.3525 C6.29169444,6.3525 7.71375,4.93044444 7.71375,3.17625 C7.71375,1.42205556 6.29169444,1.00752739e-15 4.5375,0 Z M9.075,12.705 L8.1675,12.705 L8.1675,10.43625 C8.1660248,9.18386553 7.15113447,8.1689752 5.89875,8.1675 L3.17625,8.1675 C1.92386553,8.1689752 0.908975204,9.18386553 0.9075,10.43625 L0.9075,12.705 L0,12.705 L0,10.43625 C0.00205031721,8.68290553 1.42290553,7.26205032 3.17625,7.26 L5.89875,7.26 C7.65209447,7.26205032 9.07294968,8.68290553 9.075,10.43625 L9.075,12.705 Z" id="path-1"></path>
        <polygon id="path-3" points="4.2716025 3.63 7.26 0.6416025 6.6183975 0 3.63 2.9883975 0.6416025 0 0 0.6416025 2.9883975 3.63 0 6.6183975 0.6416025 7.26 3.63 4.2716025 6.6183975 7.26 7.26 6.6183975"></polygon>
        <path d="M6.3525,0 C2.858625,0 0,2.858625 0,6.3525 C0,9.846375 2.858625,12.705 6.3525,12.705 C9.846375,12.705 12.705,9.846375 12.705,6.3525 C12.705,2.858625 9.846375,0 6.3525,0 Z M6.3525,11.7975 C3.35775,11.7975 0.9075,9.34725 0.9075,6.3525 C0.9075,3.35775 3.35775,0.9075 6.3525,0.9075 C9.34725,0.9075 11.7975,3.35775 11.7975,6.3525 C11.7975,9.34725 9.34725,11.7975 6.3525,11.7975 Z M6.3525,9.9825 C6.72839881,9.9825 7.033125,9.67777381 7.033125,9.301875 C7.033125,8.92597619 6.72839881,8.62125 6.3525,8.62125 C5.97660119,8.62125 5.671875,8.92597619 5.671875,9.301875 C5.671875,9.67777381 5.97660119,9.9825 6.3525,9.9825 Z M6.80625,2.7225 L6.125625,2.7225 C4.99125,2.7225 4.08375,3.63 4.08375,4.764375 L4.08375,4.99125 L4.99125,4.99125 L4.99125,4.764375 C4.99125,4.129125 5.490375,3.63 6.125625,3.63 L6.80625,3.63 C7.4415,3.63 7.940625,4.129125 7.940625,4.764375 C7.940625,5.399625 7.4415,5.89875 6.80625,5.89875 L5.89875,5.89875 L5.89875,7.71375 L6.80625,7.71375 L6.80625,6.80625 C7.940625,6.80625 8.848125,5.89875 8.848125,4.764375 C8.848125,3.63 7.940625,2.7225 6.80625,2.7225 Z" id="path-5"></path>
        <path d="M11.34375,9.52875 C11.0237375,9.53344288 10.7106558,9.62267114 10.43625,9.7873875 L9.0341625,8.3853 C9.70495325,7.44112486 9.70495325,6.17591264 9.0341625,5.2317375 L10.43625,3.8251125 C11.2240499,4.2865229 12.2319771,4.09092968 12.7900184,3.36835219 C13.3480596,2.64577471 13.2825056,1.62113987 12.6369328,0.975567151 C11.9913601,0.329994429 10.9667253,0.264440384 10.2441478,0.822481647 C9.52157032,1.38052291 9.3259771,2.38845007 9.7873875,3.17625 L8.3853,4.5783375 C7.44112486,3.90754675 6.17591264,3.90754675 5.2317375,4.5783375 L3.8251125,3.17625 C4.2865229,2.38845007 4.09092968,1.38052291 3.36835219,0.822481647 C2.64577471,0.264440384 1.62113987,0.329994429 0.975567151,0.975567151 C0.329994429,1.62113987 0.264440384,2.64577471 0.822481647,3.36835219 C1.38052291,4.09092968 2.38845007,4.2865229 3.17625,3.8251125 L4.5783375,5.2272 C3.90754675,6.17137514 3.90754675,7.43658736 4.5783375,8.3807625 L3.17625,9.7873875 C2.38845007,9.3259771 1.38052291,9.52157032 0.822481647,10.2441478 C0.264440384,10.9667253 0.329994429,11.9913601 0.975567151,12.6369328 C1.62113987,13.2825056 2.64577471,13.3480596 3.36835219,12.7900184 C4.09092968,12.2319771 4.2865229,11.2240499 3.8251125,10.43625 L5.2272,9.0341625 C6.17137514,9.70495325 7.43658736,9.70495325 8.3807625,9.0341625 L9.7873875,10.43625 C9.37596052,11.1489318 9.4955004,12.0492372 10.0786488,12.6298623 C10.6617973,13.2104873 11.5626126,13.3261219 12.2735036,12.9116082 C12.9843945,12.4970945 13.32745,11.6561709 13.1093651,10.8626808 C12.8912802,10.0691907 12.166634,9.52171697 11.34375,9.52875 Z M11.34375,1.36125 C11.8449484,1.36125 12.25125,1.76755159 12.25125,2.26875 C12.25125,2.76994841 11.8449484,3.17625 11.34375,3.17625 C10.8425516,3.17625 10.43625,2.76994841 10.43625,2.26875 C10.43625,1.76755159 10.8425516,1.36125 11.34375,1.36125 Z M1.36125,2.26875 C1.36125,1.76755159 1.76755159,1.36125 2.26875,1.36125 C2.76994841,1.36125 3.17625,1.76755159 3.17625,2.26875 C3.17625,2.76994841 2.76994841,3.17625 2.26875,3.17625 C2.02806604,3.17625 1.79723986,3.08063867 1.6270506,2.9104494 C1.45686133,2.74026014 1.36125,2.50943396 1.36125,2.26875 Z M2.26875,12.25125 C1.76755159,12.25125 1.36125,11.8449484 1.36125,11.34375 C1.36125,10.8425516 1.76755159,10.43625 2.26875,10.43625 C2.76994841,10.43625 3.17625,10.8425516 3.17625,11.34375 C3.17625,11.8449484 2.76994841,12.25125 2.26875,12.25125 Z M6.80625,8.62125 C5.80385318,8.62125 4.99125,7.80864682 4.99125,6.80625 C4.99125,5.80385318 5.80385318,4.99125 6.80625,4.99125 C7.80864682,4.99125 8.62125,5.80385318 8.62125,6.80625 C8.62125,7.28761793 8.43002733,7.74927028 8.08964881,8.08964881 C7.74927028,8.43002733 7.28761793,8.62125 6.80625,8.62125 Z M11.34375,12.25125 C10.8425516,12.25125 10.43625,11.8449484 10.43625,11.34375 C10.43625,10.8425516 10.8425516,10.43625 11.34375,10.43625 C11.8449484,10.43625 12.25125,10.8425516 12.25125,11.34375 C12.25125,11.8449484 11.8449484,12.25125 11.34375,12.25125 Z" id="path-7"></path>
        <path d="M7.142025,11.7975 L6.3525,11.34375 L8.1675,8.1675 L10.89,8.1675 C11.3911984,8.1675 11.7975,7.76119841 11.7975,7.26 L11.7975,1.815 C11.7975,1.31380159 11.3911984,0.9075 10.89,0.9075 L1.815,0.9075 C1.31380159,0.9075 0.9075,1.31380159 0.9075,1.815 L0.9075,7.26 C0.9075,7.76119841 1.31380159,8.1675 1.815,8.1675 L5.89875,8.1675 L5.89875,9.075 L1.815,9.075 C0.812603179,9.075 2.01505479e-16,8.26239682 0,7.26 L0,1.815 C-1.00752739e-16,0.812603179 0.812603179,0 1.815,0 L10.89,0 C11.8923968,0 12.705,0.812603179 12.705,1.815 L12.705,7.26 C12.705,8.26239682 11.8923968,9.075 10.89,9.075 L8.69385,9.075 L7.142025,11.7975 Z M2.7225,2.7225 L9.9825,2.7225 L9.9825,3.63 L2.7225,3.63 L2.7225,2.7225 Z M2.7225,5.445 L7.26,5.445 L7.26,6.3525 L2.7225,6.3525 L2.7225,5.445 Z" id="path-9"></path>
        <path d="M5.445,0.9075 C6.44325,0.9075 7.35075,1.452 7.8045,2.314125 L8.122125,2.858625 L8.712,2.767875 C8.848125,2.767875 8.98425,2.7225 9.075,2.7225 C10.572375,2.7225 11.7975,3.947625 11.7975,5.445 C11.7975,6.80625 10.753875,7.986 9.438,8.122125 L9.211125,8.1675 L2.7225,8.1675 C1.72425,8.1675 0.9075,7.35075 0.9075,6.3525 C0.9075,5.581125 1.406625,4.9005 2.132625,4.62825 L2.767875,4.401375 L2.7225,3.766125 L2.7225,3.675375 L2.7225,3.63 C2.7225,2.132625 3.947625,0.9075 5.445,0.9075 Z M5.445,0 C3.4485,0 1.815,1.6335 1.815,3.63 C1.815,3.675375 1.815,3.72075 1.815,3.766125 C0.771375,4.129125 0,5.127375 0,6.3525 C0,7.849875 1.225125,9.075 2.7225,9.075 L9.52875,9.075 L9.52875,9.029625 C11.298375,8.80275 12.705,7.26 12.705,5.445 C12.705,3.4485 11.0715,1.815 9.075,1.815 C8.8935,1.815 8.757375,1.815 8.62125,1.860375 C7.986,0.726 6.80625,0 5.445,0 Z" id="path-11"></path>
        <polygon id="path-13" points="4.2716025 3.63 7.26 0.6416025 6.6183975 0 3.63 2.9883975 0.6416025 0 0 0.6416025 2.9883975 3.63 0 6.6183975 0.6416025 7.26 3.63 4.2716025 6.6183975 7.26 7.26 6.6183975"></polygon>
    </defs>
    <g id="Screen-regions-1" stroke="none" stroke-width="1" fill="none" fill-rule="evenodd">
        <g id="Group" transform="translate(64.000000, 76.000000)">
            <rect id="Rectangle-13-Copy" fill="#FFCFE1" x="216.546341" y="56.8510101" width="775.453659" height="419.729798"></rect>
            <path d="M228.038902,55.1573737 L275.071818,55.1573737 L275.071818,477.306768 L228.038902,477.306768 L228.038902,55.1573737 Z" id="Rectangle-17-Copy-561" stroke="#97C1FF" stroke-width="1.21" fill="#FFFFFF"></path>
            <path d="M274.987293,55.1573737 L322.020209,55.1573737 L322.020209,477.306768 L274.987293,477.306768 L274.987293,55.1573737 Z" id="Rectangle-17-Copy-561" stroke="#97C1FF" stroke-width="1.21" fill="#FFFFFF"></path>
            <path d="M321.935684,55.1573737 L368.9686,55.1573737 L368.9686,477.306768 L321.935684,477.306768 L321.935684,55.1573737 Z" id="Rectangle-17-Copy-561" stroke="#97C1FF" stroke-width="1.21" fill="#FFFFFF"></path>
            <path d="M368.884075,55.1573737 L415.916991,55.1573737 L415.916991,477.306768 L368.884075,477.306768 L368.884075,55.1573737 Z" id="Rectangle-17-Copy-561" stroke="#97C1FF" stroke-width="1.21" fill="#FFFFFF"></path>
            <path d="M415.832466,55.1573737 L462.865382,55.1573737 L462.865382,477.306768 L415.832466,477.306768 L415.832466,55.1573737 Z" id="Rectangle-17-Copy-561" stroke="#97C1FF" stroke-width="1.21" fill="#FFFFFF"></path>
            <path d="M462.780857,55.1573737 L509.813773,55.1573737 L509.813773,477.306768 L462.780857,477.306768 L462.780857,55.1573737 Z" id="Rectangle-17-Copy-561" stroke="#97C1FF" stroke-width="1.21" fill="#FFFFFF"></path>
            <path d="M509.729248,55.1573737 L556.762164,55.1573737 L556.762164,477.306768 L509.729248,477.306768 L509.729248,55.1573737 Z" id="Rectangle-17-Copy-561" stroke="#97C1FF" stroke-width="1.21" fill="#FFFFFF"></path>
            <path d="M556.677639,55.1573737 L603.710555,55.1573737 L603.710555,477.306768 L556.677639,477.306768 L556.677639,55.1573737 Z" id="Rectangle-17-Copy-561" stroke="#97C1FF" stroke-width="1.21" fill="#FFFFFF"></path>
            <path d="M603.62603,55.1573737 L650.658946,55.1573737 L650.658946,477.306768 L603.62603,477.306768 L603.62603,55.1573737 Z" id="Rectangle-17-Copy-561" stroke="#97C1FF" stroke-width="1.21" fill="#FFFFFF"></path>
            <path d="M650.574421,55.1573737 L697.607337,55.1573737 L697.607337,477.306768 L650.574421,477.306768 L650.574421,55.1573737 Z" id="Rectangle-17-Copy-561" stroke="#97C1FF" stroke-width="1.21" fill="#FFFFFF"></path>
            <path d="M697.522812,55.1573737 L744.555728,55.1573737 L744.555728,477.306768 L697.522812,477.306768 L697.522812,55.1573737 Z" id="Rectangle-17-Copy-561" stroke="#97C1FF" stroke-width="1.21" fill="#FFFFFF"></path>
            <path d="M744.471203,55.1573737 L791.504119,55.1573737 L791.504119,477.306768 L744.471203,477.306768 L744.471203,55.1573737 Z" id="Rectangle-17-Copy-561" stroke="#97C1FF" stroke-width="1.21" fill="#FFFFFF"></path>
            <path d="M791.419594,55.1573737 L838.45251,55.1573737 L838.45251,477.306768 L791.419594,477.306768 L791.419594,55.1573737 Z" id="Rectangle-17-Copy-561" stroke="#97C1FF" stroke-width="1.21" fill="#FFFFFF"></path>
            <path d="M838.367985,55.1573737 L885.400901,55.1573737 L885.400901,477.306768 L838.367985,477.306768 L838.367985,55.1573737 Z" id="Rectangle-17-Copy-561" stroke="#97C1FF" stroke-width="1.21" fill="#FFFFFF"></path>
            <path d="M885.316376,55.1573737 L932.349292,55.1573737 L932.349292,477.306768 L885.316376,477.306768 L885.316376,55.1573737 Z" id="Rectangle-17-Copy-561" stroke="#97C1FF" stroke-width="1.21" fill="#FFFFFF"></path>
            <path d="M932.264767,55.1573737 L979.297683,55.1573737 L979.297683,477.306768 L932.264767,477.306768 L932.264767,55.1573737 Z" id="Rectangle-17-Copy-561" stroke="#97C1FF" stroke-width="1.21" fill="#FFFFFF"></path>
            <polygon id="Rectangle-Copy" fill="#FFFFFF" points="35.0829268 22.4934516 990.790244 22.4934516 990.790244 56.6191575 35.0829268 56.6191575"></polygon>
            <rect id="Rectangle-3-Copy-39" fill="#DCDCDC" x="137.912195" y="35.0782828" width="53.2292683" height="9.67676768"></rect>
            <rect id="Rectangle-3-Copy-41" fill="#DCDCDC" x="212.917073" y="35.0782828" width="53.2292683" height="9.67676768"></rect>
            <rect id="Rectangle-3-Copy-42" fill="#DCDCDC" x="287.921951" y="35.0782828" width="53.2292683" height="9.67676768"></rect>
            <g id="icon/user/user/20" transform="translate(933.931707, 32.659091)">
                <g id="Group">
                    <g id="user" transform="translate(2.722500, 0.907500)">
                        <mask id="mask-2" fill="white">
                            <use xlink:href="#path-1"></use>
                        </mask>
                        <use id="Mask" fill="#000000" fill-rule="nonzero" xlink:href="#path-1"></use>
                        <g id="color/gray/100" mask="url(#mask-2)" fill="#171717">
                            <g transform="translate(-2.722500, -0.907500)">
                                <rect x="0" y="0" width="29" height="29"></rect>
                            </g>
                        </g>
                    </g>
                    <rect id="transparent-rectangle" x="0" y="0" width="14.52" height="14.52"></rect>
                </g>
            </g>
            <rect id="Rectangle-Copy-2" fill="#92EEEE" style="mix-blend-mode: multiply;" x="959.336585" y="22.9823232" width="32.6634146" height="33.8686869"></rect>
            <rect id="Rectangle-Copy" fill="#D0B0FF" style="mix-blend-mode: multiply;" x="35.0829268" y="22.9823232" width="924.253659" height="33.8686869"></rect>
            <g id="icon/navigation/close/20" transform="translate(969.014634, 32.659091)">
                <g id="Group">
                    <g id="close" transform="translate(3.630000, 3.630000)">
                        <mask id="mask-4" fill="white">
                            <use xlink:href="#path-3"></use>
                        </mask>
                        <use id="Mask" fill="#000000" fill-rule="nonzero" xlink:href="#path-3"></use>
                        <g id="color/gray/100" mask="url(#mask-4)" fill="#171717">
                            <g transform="translate(-3.630000, -3.630000)">
                                <rect x="0" y="0" width="29" height="29"></rect>
                            </g>
                        </g>
                    </g>
                    <rect id="transparent-rectangle" x="0" y="0" width="14.52" height="14.52"></rect>
                </g>
            </g>
            <rect id="Rectangle-3-Copy-4" fill="#FFFFFF" x="808.117073" y="56.8510101" width="183.882927" height="419.729798"></rect>
            <ellipse id="Oval-3-Copy-3" fill="#171717" cx="509.702439" cy="40.7007576" rx="12.702439" ry="12.7007576"></ellipse>
            <polygon id="1" fill="#FFFFFF" points="513.723083 45.1315758 506.740371 45.1315758 506.740371 43.5784545 509.527649 43.5784545 509.527649 36.3789394 509.396995 36.3789394 507.1904 38.9916667 506 37.9901212 508.511454 35 511.400351 35 511.400351 43.5784545 513.723083 43.5784545"></polygon>
            <polygon id="Rectangle-3-Copy-43" fill="#DCDCDC" points="820.214634 91.9292929 910.946341 91.9292929 910.946341 101.606061 820.214634 101.606061"></polygon>
            <rect id="Rectangle-3-Copy-44" fill="#DCDCDC" x="820.214634" y="137.893939" width="90.7317073" height="9.67676768"></rect>
            <polygon id="Rectangle-3-Copy-3" fill="#FFFFFF" points="0 24.1919192 33.8731707 24.1919192 33.8731707 479 0 479"></polygon>
            <g id="icon/status/help/20" transform="translate(10.887805, 452.388889)">
                <g id="help" stroke-width="1" fill-rule="evenodd" transform="translate(0.907500, 0.907500)">
                    <mask id="mask-6" fill="white">
                        <use xlink:href="#path-5"></use>
                    </mask>
                    <use id="Mask" fill="#000000" fill-rule="nonzero" xlink:href="#path-5"></use>
                    <g id="color/gray/70" mask="url(#mask-6)" fill="#565656">
                        <g transform="translate(-0.907500, -0.907500)">
                            <rect x="0" y="0" width="29" height="29"></rect>
                        </g>
                    </g>
                </g>
                <rect id="transparent-rectangle" x="0" y="0" width="14.52" height="14.52"></rect>
            </g>
            <g id="icon/file/api/20" transform="translate(10.887805, 100.396465)">
                <g id="Group">
                    <g id="api" transform="translate(0.453750, 0.453750)">
                        <mask id="mask-8" fill="white">
                            <use xlink:href="#path-7"></use>
                        </mask>
                        <use id="Mask" fill="#000000" fill-rule="nonzero" xlink:href="#path-7"></use>
                        <g id="color/gray/70" mask="url(#mask-8)" fill="#565656">
                            <g transform="translate(-0.453750, -0.453750)">
                                <rect x="0" y="0" width="29" height="29"></rect>
                            </g>
                        </g>
                    </g>
                    <rect id="transparent-rectangle" x="0" y="0" width="14.52" height="14.52"></rect>
                </g>
            </g>
            <polygon id="Rectangle-3" fill="#171717" points="1.2097561 56.8510101 3.62926829 56.8510101 3.62926829 90.719697 1.2097561 90.719697"></polygon>
            <g id="icon/image/chat/16" transform="translate(10.887805, 134.265152)">
                <g id="chat" stroke-width="1" fill-rule="evenodd" transform="translate(0.907500, 1.815000)">
                    <mask id="mask-10" fill="white">
                        <use xlink:href="#path-9"></use>
                    </mask>
                    <use id="Mask" fill="#000000" fill-rule="nonzero" xlink:href="#path-9"></use>
                    <g id="color/gray/70" mask="url(#mask-10)" fill="#565656">
                        <g transform="translate(-0.907500, -1.815000)">
                            <rect x="0" y="0" width="36" height="36"></rect>
                        </g>
                    </g>
                </g>
                <rect id="transparent-rectangle" x="0" y="0" width="14.52" height="14.52"></rect>
            </g>
            <g id="icon/image/cloud/20" transform="translate(10.887805, 66.527778)">
                <g id="Group">
                    <g id="cloud" transform="translate(0.907500, 2.722500)">
                        <mask id="mask-12" fill="white">
                            <use xlink:href="#path-11"></use>
                        </mask>
                        <use id="Mask" fill="#000000" fill-rule="nonzero" xlink:href="#path-11"></use>
                        <g id="color/gray/70" mask="url(#mask-12)" fill="#565656">
                            <g transform="translate(-0.907500, -2.722500)">
                                <rect x="0" y="0" width="29" height="29"></rect>
                            </g>
                        </g>
                    </g>
                    <rect id="transparent-rectangle" x="0" y="0" width="14.52" height="14.52"></rect>
                </g>
            </g>
            <g id="icon/navigation/close/20" transform="translate(10.887805, 32.659091)">
                <g id="Group">
                    <g id="close" transform="translate(3.630000, 3.630000)">
                        <mask id="mask-14" fill="white">
                            <use xlink:href="#path-13"></use>
                        </mask>
                        <use id="Mask" fill="#000000" fill-rule="nonzero" xlink:href="#path-13"></use>
                        <g id="color/gray/100" mask="url(#mask-14)" fill="#171717">
                            <g transform="translate(-3.630000, -3.630000)">
                                <rect x="0" y="0" width="29" height="29"></rect>
                            </g>
                        </g>
                    </g>
                    <rect id="transparent-rectangle" x="0" y="0" width="14.52" height="14.52"></rect>
                </g>
            </g>
            <rect id="Rectangle-3-Copy-34" fill="#DCDCDC" x="47.1804878" y="68.9469697" width="67.7463415" height="9.67676768"></rect>
            <rect id="Rectangle-3-Copy-37" fill="#8C8C8C" x="47.1804878" y="35.0782828" width="67.7463415" height="9.67676768"></rect>
            <polygon id="Rectangle-3-Copy-25" fill="#DCDCDC" points="47.1804878 114.911616 114.926829 114.911616 114.926829 124.588384 47.1804878 124.588384"></polygon>
            <rect id="Rectangle-3-Copy-27" fill="#DCDCDC" x="47.1804878" y="160.876263" width="67.7463415" height="9.67676768"></rect>
            <polygon id="Rectangle-3-Copy-24" fill="#DCDCDC" points="47.1804878 91.9292929 137.912195 91.9292929 137.912195 101.606061 47.1804878 101.606061"></polygon>
            <rect id="Rectangle-3-Copy-26" fill="#DCDCDC" x="47.1804878" y="137.893939" width="90.7317073" height="9.67676768"></rect>
            <rect id="Rectangle-3-Copy-28" fill="#DCDCDC" x="47.1804878" y="182.64899" width="90.7317073" height="9.67676768"></rect>
            <polygon id="Rectangle-Copy-17" fill="#E6D6FF" opacity="0.6" style="mix-blend-mode: multiply;" points="1.2097561 57.0032945 1.2097561 24.1919192 35.5165015 24.1919192 35.5165015 57.0032945 216.546341 57.0032945 216.546341 476.580808 1.2097561 476.580808"></polygon>
            <polygon id="Rectangle-Copy-19" fill="#F3F3F3" style="mix-blend-mode: multiply;" points="2.4195122 56.8510101 35.0829268 56.8510101 35.0829268 90.719697 2.4195122 90.719697"></polygon>
            <path d="M35.0829268,56.8510101 L35.0829268,478.395202" id="Path-2-Copy" stroke="#DCDCDC" stroke-width="1.21" style="mix-blend-mode: multiply;"></path>
            <path d="M4.2721561,0 L988.9376,-4.4408921e-16 C990.628917,6.23372471e-14 992,1.37108318 992,3.0624 L992,24.1919192 L1.2097561,24.1919192 L1.2097561,3.0624 C1.2097561,1.37108318 2.58083928,1.19886828e-15 4.2721561,8.8817842e-16 Z" id="Rectangle-2-Copy-25" fill="#565656"></path>
            <ellipse id="Oval-5-Copy-18" fill="#FFFFFF" cx="16.9365854" cy="12.0959596" rx="3.62926829" ry="3.62878788"></ellipse>
            <ellipse id="Oval-5-Copy-19" fill="#FFFFFF" cx="31.4536585" cy="12.0959596" rx="3.62926829" ry="3.62878788"></ellipse>
            <rect id="Frame" stroke="#565656" stroke-width="1.21" x="1.8145122" y="23.5869192" width="989.580732" height="453.598889"></rect>
            <ellipse id="Oval-3-Copy-6" fill="#171717" cx="127.629268" cy="278.811869" rx="12.702439" ry="12.7007576"></ellipse>
            <path d="M125.848507,277.636141 L126.850185,277.636141 C128.011551,277.636141 128.548683,277.099081 128.548683,276.373323 L128.548683,276.271717 C128.548683,275.444354 127.968,274.936323 127.053424,274.936323 C126.167883,274.936323 125.471063,275.386293 124.977483,276.155596 L123.758049,275.052444 C124.440351,274.10896 125.398478,273.368687 127.111493,273.368687 C129.1584,273.368687 130.552039,274.384747 130.552039,276.010444 C130.552039,277.316808 129.666498,278.100626 128.606751,278.318354 L128.606751,278.405444 C129.782634,278.623172 130.726244,279.43602 130.726244,280.87302 C130.726244,282.658384 129.230985,283.848626 126.995356,283.848626 C125.021034,283.848626 124.033873,282.948687 123.395122,281.961657 L124.803278,280.887535 C125.253307,281.700384 125.863024,282.28099 126.995356,282.28099 C128.113171,282.28099 128.737405,281.700384 128.737405,280.756899 L128.737405,280.655293 C128.737405,279.726323 128.055102,279.232808 126.850185,279.232808 L125.848507,279.232808 L125.848507,277.636141 Z" id="3" fill="#FFFFFF"></path>
            <rect id="Rectangle-3-Copy-40" fill="#DCDCDC" x="820.214634" y="68.9469697" width="67.7463415" height="9.67676768"></rect>
            <polygon id="Rectangle-3-Copy-35" fill="#DCDCDC" points="820.214634 114.911616 887.960976 114.911616 887.960976 124.588384 820.214634 124.588384"></polygon>
            <rect id="Rectangle-Copy-4" fill="#92EEEE" style="mix-blend-mode: multiply;" x="808.117073" y="56.8510101" width="183.882927" height="419.729798"></rect>
            <ellipse id="Oval-3-Copy-4" fill="#171717" cx="899.702439" cy="278.700758" rx="12.702439" ry="12.7007576"></ellipse>
            <path d="M903.200468,281.694576 L903.200468,283.305758 L896.174205,283.305758 L896.174205,281.534909 L899.353444,278.748 C900.427707,277.804515 900.921288,277.107788 900.921288,276.222364 L900.921288,276.033667 C900.921288,275.148242 900.253502,274.654727 899.426029,274.654727 C898.3808,274.654727 897.88722,275.336939 897.654946,276.164303 L896,275.525636 C896.435512,274.175727 897.524293,273 899.585717,273 C901.719727,273 902.939161,274.277333 902.939161,276.019152 C902.939161,277.702909 901.792312,278.77703 900.384156,279.938242 L898.250146,281.694576 L903.200468,281.694576 Z" id="2" fill="#FFFFFF"></path>
        </g>
    </g>
</svg>