<?xml version="1.0" encoding="UTF-8"?>
<svg width="1120px" height="630px" viewBox="0 0 1120 630" version="1.1" xmlns="http://www.w3.org/2000/svg" xmlns:xlink="http://www.w3.org/1999/xlink">
    <!-- Generator: Sketch 52.4 (67378) - http://www.bohemiancoding.com/sketch -->
    <title>layout-overview-Screen-regions-3</title>
    <desc>Created with Sketch.</desc>
    <defs>
        <path d="M4.5375,0.9075 C5.79049603,0.9075 6.80625,1.92325397 6.80625,3.17625 C6.80625,4.42924603 5.79049603,5.445 4.5375,5.445 C3.28450397,5.445 2.26875,4.42924603 2.26875,3.17625 C2.27017531,1.92384483 3.28509483,0.908925306 4.5375,0.9075 Z M4.5375,0 C2.78330556,0 1.36125,1.42205556 1.36125,3.17625 C1.36125,4.93044444 2.78330556,6.3525 4.5375,6.3525 C6.29169444,6.3525 7.71375,4.93044444 7.71375,3.17625 C7.71375,1.42205556 6.29169444,1.00752739e-15 4.5375,0 Z M9.075,12.705 L8.1675,12.705 L8.1675,10.43625 C8.1660248,9.18386553 7.15113447,8.1689752 5.89875,8.1675 L3.17625,8.1675 C1.92386553,8.1689752 0.908975204,9.18386553 0.9075,10.43625 L0.9075,12.705 L0,12.705 L0,10.43625 C0.00205031721,8.68290553 1.42290553,7.26205032 3.17625,7.26 L5.89875,7.26 C7.65209447,7.26205032 9.07294968,8.68290553 9.075,10.43625 L9.075,12.705 Z" id="path-1"></path>
        <path d="M4.08375,0 L5.89875,0 L5.89875,1.815 L4.08375,1.815 L4.08375,0 Z M0,0 L1.815,0 L1.815,1.815 L0,1.815 L0,0 Z M8.1675,0 L9.9825,0 L9.9825,1.815 L8.1675,1.815 L8.1675,0 Z M4.08375,4.08375 L5.89875,4.08375 L5.89875,5.89875 L4.08375,5.89875 L4.08375,4.08375 Z M0,4.08375 L1.815,4.08375 L1.815,5.89875 L0,5.89875 L0,4.08375 Z M8.1675,4.08375 L9.9825,4.08375 L9.9825,5.89875 L8.1675,5.89875 L8.1675,4.08375 Z M4.08375,8.1675 L5.89875,8.1675 L5.89875,9.9825 L4.08375,9.9825 L4.08375,8.1675 Z M0,8.1675 L1.815,8.1675 L1.815,9.9825 L0,9.9825 L0,8.1675 Z M8.1675,8.1675 L9.9825,8.1675 L9.9825,9.9825 L8.1675,9.9825 L8.1675,8.1675 Z" id="path-3"></path>
        <path d="M6.3525,0 C2.858625,0 0,2.858625 0,6.3525 C0,9.846375 2.858625,12.705 6.3525,12.705 C9.846375,12.705 12.705,9.846375 12.705,6.3525 C12.705,2.858625 9.846375,0 6.3525,0 Z M6.3525,11.7975 C3.35775,11.7975 0.9075,9.34725 0.9075,6.3525 C0.9075,3.35775 3.35775,0.9075 6.3525,0.9075 C9.34725,0.9075 11.7975,3.35775 11.7975,6.3525 C11.7975,9.34725 9.34725,11.7975 6.3525,11.7975 Z M6.3525,9.9825 C6.72839881,9.9825 7.033125,9.67777381 7.033125,9.301875 C7.033125,8.92597619 6.72839881,8.62125 6.3525,8.62125 C5.97660119,8.62125 5.671875,8.92597619 5.671875,9.301875 C5.671875,9.67777381 5.97660119,9.9825 6.3525,9.9825 Z M6.80625,2.7225 L6.125625,2.7225 C4.99125,2.7225 4.08375,3.63 4.08375,4.764375 L4.08375,4.99125 L4.99125,4.99125 L4.99125,4.764375 C4.99125,4.129125 5.490375,3.63 6.125625,3.63 L6.80625,3.63 C7.4415,3.63 7.940625,4.129125 7.940625,4.764375 C7.940625,5.399625 7.4415,5.89875 6.80625,5.89875 L5.89875,5.89875 L5.89875,7.71375 L6.80625,7.71375 L6.80625,6.80625 C7.940625,6.80625 8.848125,5.89875 8.848125,4.764375 C8.848125,3.63 7.940625,2.7225 6.80625,2.7225 Z" id="path-5"></path>
        <path d="M11.34375,9.52875 C11.0237375,9.53344288 10.7106558,9.62267114 10.43625,9.7873875 L9.0341625,8.3853 C9.70495325,7.44112486 9.70495325,6.17591264 9.0341625,5.2317375 L10.43625,3.8251125 C11.2240499,4.2865229 12.2319771,4.09092968 12.7900184,3.36835219 C13.3480596,2.64577471 13.2825056,1.62113987 12.6369328,0.975567151 C11.9913601,0.329994429 10.9667253,0.264440384 10.2441478,0.822481647 C9.52157032,1.38052291 9.3259771,2.38845007 9.7873875,3.17625 L8.3853,4.5783375 C7.44112486,3.90754675 6.17591264,3.90754675 5.2317375,4.5783375 L3.8251125,3.17625 C4.2865229,2.38845007 4.09092968,1.38052291 3.36835219,0.822481647 C2.64577471,0.264440384 1.62113987,0.329994429 0.975567151,0.975567151 C0.329994429,1.62113987 0.264440384,2.64577471 0.822481647,3.36835219 C1.38052291,4.09092968 2.38845007,4.2865229 3.17625,3.8251125 L4.5783375,5.2272 C3.90754675,6.17137514 3.90754675,7.43658736 4.5783375,8.3807625 L3.17625,9.7873875 C2.38845007,9.3259771 1.38052291,9.52157032 0.822481647,10.2441478 C0.264440384,10.9667253 0.329994429,11.9913601 0.975567151,12.6369328 C1.62113987,13.2825056 2.64577471,13.3480596 3.36835219,12.7900184 C4.09092968,12.2319771 4.2865229,11.2240499 3.8251125,10.43625 L5.2272,9.0341625 C6.17137514,9.70495325 7.43658736,9.70495325 8.3807625,9.0341625 L9.7873875,10.43625 C9.37596052,11.1489318 9.4955004,12.0492372 10.0786488,12.6298623 C10.6617973,13.2104873 11.5626126,13.3261219 12.2735036,12.9116082 C12.9843945,12.4970945 13.32745,11.6561709 13.1093651,10.8626808 C12.8912802,10.0691907 12.166634,9.52171697 11.34375,9.52875 Z M11.34375,1.36125 C11.8449484,1.36125 12.25125,1.76755159 12.25125,2.26875 C12.25125,2.76994841 11.8449484,3.17625 11.34375,3.17625 C10.8425516,3.17625 10.43625,2.76994841 10.43625,2.26875 C10.43625,1.76755159 10.8425516,1.36125 11.34375,1.36125 Z M1.36125,2.26875 C1.36125,1.76755159 1.76755159,1.36125 2.26875,1.36125 C2.76994841,1.36125 3.17625,1.76755159 3.17625,2.26875 C3.17625,2.76994841 2.76994841,3.17625 2.26875,3.17625 C2.02806604,3.17625 1.79723986,3.08063867 1.6270506,2.9104494 C1.45686133,2.74026014 1.36125,2.50943396 1.36125,2.26875 Z M2.26875,12.25125 C1.76755159,12.25125 1.36125,11.8449484 1.36125,11.34375 C1.36125,10.8425516 1.76755159,10.43625 2.26875,10.43625 C2.76994841,10.43625 3.17625,10.8425516 3.17625,11.34375 C3.17625,11.8449484 2.76994841,12.25125 2.26875,12.25125 Z M6.80625,8.62125 C5.80385318,8.62125 4.99125,7.80864682 4.99125,6.80625 C4.99125,5.80385318 5.80385318,4.99125 6.80625,4.99125 C7.80864682,4.99125 8.62125,5.80385318 8.62125,6.80625 C8.62125,7.28761793 8.43002733,7.74927028 8.08964881,8.08964881 C7.74927028,8.43002733 7.28761793,8.62125 6.80625,8.62125 Z M11.34375,12.25125 C10.8425516,12.25125 10.43625,11.8449484 10.43625,11.34375 C10.43625,10.8425516 10.8425516,10.43625 11.34375,10.43625 C11.8449484,10.43625 12.25125,10.8425516 12.25125,11.34375 C12.25125,11.8449484 11.8449484,12.25125 11.34375,12.25125 Z" id="path-7"></path>
        <path d="M7.142025,11.7975 L6.3525,11.34375 L8.1675,8.1675 L10.89,8.1675 C11.3911984,8.1675 11.7975,7.76119841 11.7975,7.26 L11.7975,1.815 C11.7975,1.31380159 11.3911984,0.9075 10.89,0.9075 L1.815,0.9075 C1.31380159,0.9075 0.9075,1.31380159 0.9075,1.815 L0.9075,7.26 C0.9075,7.76119841 1.31380159,8.1675 1.815,8.1675 L5.89875,8.1675 L5.89875,9.075 L1.815,9.075 C0.812603179,9.075 2.01505479e-16,8.26239682 0,7.26 L0,1.815 C-1.00752739e-16,0.812603179 0.812603179,0 1.815,0 L10.89,0 C11.8923968,0 12.705,0.812603179 12.705,1.815 L12.705,7.26 C12.705,8.26239682 11.8923968,9.075 10.89,9.075 L8.69385,9.075 L7.142025,11.7975 Z M2.7225,2.7225 L9.9825,2.7225 L9.9825,3.63 L2.7225,3.63 L2.7225,2.7225 Z M2.7225,5.445 L7.26,5.445 L7.26,6.3525 L2.7225,6.3525 L2.7225,5.445 Z" id="path-9"></path>
        <path d="M5.445,0.9075 C6.44325,0.9075 7.35075,1.452 7.8045,2.314125 L8.122125,2.858625 L8.712,2.767875 C8.848125,2.767875 8.98425,2.7225 9.075,2.7225 C10.572375,2.7225 11.7975,3.947625 11.7975,5.445 C11.7975,6.80625 10.753875,7.986 9.438,8.122125 L9.211125,8.1675 L2.7225,8.1675 C1.72425,8.1675 0.9075,7.35075 0.9075,6.3525 C0.9075,5.581125 1.406625,4.9005 2.132625,4.62825 L2.767875,4.401375 L2.7225,3.766125 L2.7225,3.675375 L2.7225,3.63 C2.7225,2.132625 3.947625,0.9075 5.445,0.9075 Z M5.445,0 C3.4485,0 1.815,1.6335 1.815,3.63 C1.815,3.675375 1.815,3.72075 1.815,3.766125 C0.771375,4.129125 0,5.127375 0,6.3525 C0,7.849875 1.225125,9.075 2.7225,9.075 L9.52875,9.075 L9.52875,9.029625 C11.298375,8.80275 12.705,7.26 12.705,5.445 C12.705,3.4485 11.0715,1.815 9.075,1.815 C8.8935,1.815 8.757375,1.815 8.62125,1.860375 C7.986,0.726 6.80625,0 5.445,0 Z" id="path-11"></path>
        <path d="M0,0 L10.89,0 L10.89,0.9075 L0,0.9075 L0,0 Z M0,8.1675 L10.89,8.1675 L10.89,9.075 L0,9.075 L0,8.1675 Z M0,4.08375 L10.89,4.08375 L10.89,4.99125 L0,4.99125 L0,4.08375 Z" id="path-13"></path>
        <polygon id="path-15" points="4.2716025 3.63 7.26 0.6416025 6.6183975 0 3.63 2.9883975 0.6416025 0 0 0.6416025 2.9883975 3.63 0 6.6183975 0.6416025 7.26 3.63 4.2716025 6.6183975 7.26 7.26 6.6183975"></polygon>
    </defs>
    <g id="Screen-regions-3" stroke="none" stroke-width="1" fill="none" fill-rule="evenodd">
        <g id="Group" transform="translate(64.000000, 75.000000)">
            <rect id="Rectangle-13-Copy-6" fill="#FFCFE1" x="35.0546982" y="56.8127867" width="956.147113" height="419.447596"></rect>
            <g id="Group-21-Copy-2" transform="translate(44.724960, 22.966871)" fill="#FFFFFF">
                <g id="1360_16_col_grid-copy-2" transform="translate(2.399204, 32.637133)" stroke="#97C1FF" stroke-width="1.21">
                    <path d="M-0.605,-0.605 L57.4761669,-0.605 L57.4761669,421.261378 L-0.605,421.261378 L-0.605,-0.605 Z" id="Rectangle-17-Copy-561"></path>
                    <path d="M57.6630025,-0.605 L115.744169,-0.605 L115.744169,421.261378 L57.6630025,421.261378 L57.6630025,-0.605 Z" id="Rectangle-17-Copy-561"></path>
                    <path d="M115.931005,-0.605 L174.012172,-0.605 L174.012172,421.261378 L115.931005,421.261378 L115.931005,-0.605 Z" id="Rectangle-17-Copy-561"></path>
                    <path d="M174.199008,-0.605 L232.280174,-0.605 L232.280174,421.261378 L174.199008,421.261378 L174.199008,-0.605 Z" id="Rectangle-17-Copy-561"></path>
                    <path d="M232.46701,-0.605 L290.548177,-0.605 L290.548177,421.261378 L232.46701,421.261378 L232.46701,-0.605 Z" id="Rectangle-17-Copy-561"></path>
                    <path d="M290.735013,-0.605 L348.81618,-0.605 L348.81618,421.261378 L290.735013,421.261378 L290.735013,-0.605 Z" id="Rectangle-17-Copy-561"></path>
                    <path d="M349.003015,-0.605 L407.084182,-0.605 L407.084182,421.261378 L349.003015,421.261378 L349.003015,-0.605 Z" id="Rectangle-17-Copy-561"></path>
                    <path d="M407.271018,-0.605 L465.352185,-0.605 L465.352185,421.261378 L407.271018,421.261378 L407.271018,-0.605 Z" id="Rectangle-17-Copy-561"></path>
                    <path d="M465.53902,-0.605 L523.620187,-0.605 L523.620187,421.261378 L465.53902,421.261378 L465.53902,-0.605 Z" id="Rectangle-17-Copy-561"></path>
                    <path d="M523.807023,-0.605 L581.88819,-0.605 L581.88819,421.261378 L523.807023,421.261378 L523.807023,-0.605 Z" id="Rectangle-17-Copy-561"></path>
                    <path d="M582.075025,-0.605 L640.156192,-0.605 L640.156192,421.261378 L582.075025,421.261378 L582.075025,-0.605 Z" id="Rectangle-17-Copy-561"></path>
                    <path d="M640.343028,-0.605 L698.424195,-0.605 L698.424195,421.261378 L640.343028,421.261378 L640.343028,-0.605 Z" id="Rectangle-17-Copy-561"></path>
                    <path d="M698.61103,-0.605 L756.692197,-0.605 L756.692197,421.261378 L698.61103,421.261378 L698.61103,-0.605 Z" id="Rectangle-17-Copy-561"></path>
                    <path d="M756.879033,-0.605 L814.9602,-0.605 L814.9602,421.261378 L756.879033,421.261378 L756.879033,-0.605 Z" id="Rectangle-17-Copy-561"></path>
                    <path d="M815.147035,-0.605 L873.228202,-0.605 L873.228202,421.261378 L815.147035,421.261378 L815.147035,-0.605 Z" id="Rectangle-17-Copy-561"></path>
                    <path d="M873.415038,-0.605 L931.496205,-0.605 L931.496205,421.261378 L873.415038,421.261378 L873.415038,-0.605 Z" id="Rectangle-17-Copy-561"></path>
                </g>
                <polygon id="Rectangle-Copy" points="0 0 947.685634 0 947.685634 33.8459155 0 33.8459155"></polygon>
            </g>
            <rect id="Rectangle-3-Copy-67" fill="#DCDCDC" x="212.745755" y="35.0546982" width="53.1864386" height="9.67026157"></rect>
            <rect id="Rectangle-3-Copy-68" fill="#DCDCDC" x="287.690282" y="35.0546982" width="53.1864386" height="9.67026157"></rect>
            <g id="icon/user/user/20" transform="translate(933.180241, 32.637133)">
                <g id="Group">
                    <g id="user" transform="translate(2.722500, 0.907500)">
                        <mask id="mask-2" fill="white">
                            <use xlink:href="#path-1"></use>
                        </mask>
                        <use id="Mask" fill="#000000" fill-rule="nonzero" xlink:href="#path-1"></use>
                        <g id="color/gray/100" mask="url(#mask-2)" fill="#171717">
                            <g transform="translate(-2.722500, -0.907500)">
                                <rect x="0" y="0" width="29" height="29"></rect>
                            </g>
                        </g>
                    </g>
                    <rect id="transparent-rectangle" x="0" y="0" width="14.52" height="14.52"></rect>
                </g>
            </g>
            <g id="icon/navigation/app-switcher/16" transform="translate(968.234940, 32.637133)">
                <g id="Group">
                    <g id="grid" transform="translate(2.268750, 2.268750)">
                        <mask id="mask-4" fill="white">
                            <use xlink:href="#path-3"></use>
                        </mask>
                        <use id="Mask" fill="#000000" fill-rule="nonzero" xlink:href="#path-3"></use>
                        <g id="color/gray/100" mask="url(#mask-4)" fill="#171717">
                            <g transform="translate(-2.268750, -2.268750)">
                                <rect x="0" y="0" width="36" height="36"></rect>
                            </g>
                        </g>
                    </g>
                    <rect id="transparent-rectangle" x="0" y="0" width="14.52" height="14.52"></rect>
                </g>
            </g>
            <polygon id="Rectangle-3-Copy-13" fill="#FFFFFF" points="0 24.1756539 33.8459155 24.1756539 33.8459155 478.677948 0 478.677948"></polygon>
            <g id="icon/status/help/20" transform="translate(10.879044, 452.084728)">
                <g id="help" stroke-width="1" fill-rule="evenodd" transform="translate(0.907500, 0.907500)">
                    <mask id="mask-6" fill="white">
                        <use xlink:href="#path-5"></use>
                    </mask>
                    <use id="Mask" fill="#000000" fill-rule="nonzero" xlink:href="#path-5"></use>
                    <g id="color/gray/70" mask="url(#mask-6)" fill="#565656">
                        <g transform="translate(-0.907500, -0.907500)">
                            <rect x="0" y="0" width="29" height="29"></rect>
                        </g>
                    </g>
                </g>
                <rect id="transparent-rectangle" x="0" y="0" width="14.52" height="14.52"></rect>
            </g>
            <g id="icon/file/api/20" transform="translate(10.879044, 100.328964)">
                <g id="Group">
                    <g id="api" transform="translate(0.453750, 0.453750)">
                        <mask id="mask-8" fill="white">
                            <use xlink:href="#path-7"></use>
                        </mask>
                        <use id="Mask" fill="#000000" fill-rule="nonzero" xlink:href="#path-7"></use>
                        <g id="color/gray/70" mask="url(#mask-8)" fill="#565656">
                            <g transform="translate(-0.453750, -0.453750)">
                                <rect x="0" y="0" width="29" height="29"></rect>
                            </g>
                        </g>
                    </g>
                    <rect id="transparent-rectangle" x="0" y="0" width="14.52" height="14.52"></rect>
                </g>
            </g>
            <polygon id="Rectangle-3-Copy-2" fill="#171717" points="1.2087827 56.8127867 3.62634809 56.8127867 3.62634809 90.6587022 1.2087827 90.6587022"></polygon>
            <g id="icon/image/chat/16" transform="translate(10.879044, 134.174879)">
                <g id="chat" stroke-width="1" fill-rule="evenodd" transform="translate(0.907500, 1.815000)">
                    <mask id="mask-10" fill="white">
                        <use xlink:href="#path-9"></use>
                    </mask>
                    <use id="Mask" fill="#000000" fill-rule="nonzero" xlink:href="#path-9"></use>
                    <g id="color/gray/70" mask="url(#mask-10)" fill="#565656">
                        <g transform="translate(-0.907500, -1.815000)">
                            <rect x="0" y="0" width="36" height="36"></rect>
                        </g>
                    </g>
                </g>
                <rect id="transparent-rectangle" x="0" y="0" width="14.52" height="14.52"></rect>
            </g>
            <g id="icon/image/cloud/20" transform="translate(10.879044, 66.483048)">
                <g id="Group">
                    <g id="cloud" transform="translate(0.907500, 2.722500)">
                        <mask id="mask-12" fill="white">
                            <use xlink:href="#path-11"></use>
                        </mask>
                        <use id="Mask" fill="#000000" fill-rule="nonzero" xlink:href="#path-11"></use>
                        <g id="color/gray/70" mask="url(#mask-12)" fill="#565656">
                            <g transform="translate(-0.907500, -2.722500)">
                                <rect x="0" y="0" width="29" height="29"></rect>
                            </g>
                        </g>
                    </g>
                    <rect id="transparent-rectangle" x="0" y="0" width="14.52" height="14.52"></rect>
                </g>
            </g>
            <g id="icon/navigation/menu/20" transform="translate(10.879044, 32.637133)">
                <g id="menu" stroke-width="1" fill-rule="evenodd" transform="translate(1.815000, 2.722500)">
                    <mask id="mask-14" fill="white">
                        <use xlink:href="#path-13"></use>
                    </mask>
                    <use id="Mask" fill="#000000" fill-rule="nonzero" xlink:href="#path-13"></use>
                    <g id="color/gray/100" mask="url(#mask-14)" fill="#171717">
                        <g transform="translate(-1.815000, -2.722500)">
                            <rect x="0" y="0" width="29" height="29"></rect>
                        </g>
                    </g>
                </g>
                <rect id="transparent-rectangle" x="0" y="0" width="14.52" height="14.52"></rect>
            </g>
            <rect id="Rectangle-3-Copy-69" fill="#8C8C8C" x="47.1425252" y="35.0546982" width="67.691831" height="9.67026157"></rect>
            <polygon id="Rectangle-Copy-21" fill="#F3F3F3" style="mix-blend-mode: multiply;" points="2.41756539 56.8127867 35.0546982 56.8127867 35.0546982 90.6587022 2.41756539 90.6587022"></polygon>
            <path d="M35.0546982,23.5712626 L35.0546982,476.864774" id="Path-2-Copy-4" stroke="#DCDCDC" stroke-width="1.21" style="mix-blend-mode: multiply;"></path>
            <path d="M4.2711827,0 L988.139411,0 C989.830728,-6.3402716e-14 991.201811,1.37108318 991.201811,3.0624 L991.201811,24.1756539 L1.2087827,24.1756539 L1.2087827,3.0624 C1.2087827,1.37108318 2.57986588,7.54779069e-16 4.2711827,4.4408921e-16 Z" id="Rectangle-2-Copy-35" fill="#565656"></path>
            <circle id="Oval-5-Copy-28" fill="#FFFFFF" cx="16.9229577" cy="12.087827" r="3.62634809"></circle>
            <circle id="Oval-5-Copy-29" fill="#FFFFFF" cx="31.4283501" cy="12.087827" r="3.62634809"></circle>
            <rect id="Frame-Copy-2" stroke="#565656" stroke-width="1.21" x="1.81256539" y="23.5706539" width="988.785463" height="453.294728"></rect>
            <path d="M35.3568939,57.1149824 L990.59742,57.1149824" id="Path-2-Copy-5" stroke="#DCDCDC" stroke-width="1.21" style="mix-blend-mode: multiply;"></path>
            <rect id="Rectangle-3-Copy-74" fill="#DCDCDC" x="137.801227" y="35.0546982" width="53.1864386" height="9.67026157"></rect>
            <path d="M1.2087827,24.1756539 L991.201811,24.1756539 L991.201811,476.260382 L1.2087827,476.260382 L1.2087827,24.1756539 Z" id="Rectangle-4-Copy-21" fill-opacity="0.8" fill="#6F6F6F" fill-rule="nonzero" style="mix-blend-mode: multiply;"></path>
            <g id="Group-22" transform="translate(334.832807, 163.185664)">
                <path d="M0,0 L323.953763,0 L323.953763,174.064708 L0,174.064708 L0,0 Z" id="Rectangle-4-Copy-15" fill="#FFFFFF" fill-rule="nonzero"></path>
                <g id="Group-19-Copy-3" transform="translate(12.087827, 12.087827)" fill="#DCDCDC">
                    <polygon id="Rectangle-3-Copy-79" points="0 0 125.7134 0 125.7134 9.67026157 0 9.67026157"></polygon>
                    <polygon id="Rectangle-3-Copy-80" points="0 19.3405231 215.16332 19.3405231 215.16332 29.0107847 0 29.0107847"></polygon>
                    <polygon id="Rectangle-3-Copy-81" points="0 38.6810463 192.196449 38.6810463 192.196449 48.3513078 0 48.3513078"></polygon>
                    <polygon id="Rectangle-3-Copy-82" points="0 58.0215694 215.16332 58.0215694 215.16332 67.691831 0 67.691831"></polygon>
                </g>
                <path d="M0,134.174879 L161.976881,134.174879 L161.976881,174.064708 L0,174.064708 L0,134.174879 Z" id="Rectangle-4-Copy-15" fill="#A4A4A4" fill-rule="nonzero"></path>
                <path d="M161.976881,134.174879 L323.953763,134.174879 L323.953763,174.064708 L161.976881,174.064708 L161.976881,134.174879 Z" id="Rectangle-4-Copy-15" fill="#6F6F6F" fill-rule="nonzero"></path>
                <path d="M0,0 L323.953763,0 L323.953763,174.064708 L0,174.064708 L0,0 Z" id="Rectangle-4-Copy-16" fill-opacity="0.6" fill="#E6D6FF" fill-rule="nonzero" style="mix-blend-mode: multiply;"></path>
            </g>
            <g id="Group-20-Copy-4" transform="translate(348.129416, 258.679497)" fill="#171717">
                <circle id="Oval-3-Copy-6" cx="12.6922183" cy="12.6922183" r="12.6922183"></circle>
            </g>
            <g id="icon/navigation/close/20" transform="translate(635.819698, 170.438360)">
                <g id="Group">
                    <g id="close" transform="translate(3.630000, 3.630000)">
                        <mask id="mask-16" fill="white">
                            <use xlink:href="#path-15"></use>
                        </mask>
                        <use id="Mask" fill="#000000" fill-rule="nonzero" xlink:href="#path-15"></use>
                        <g id="color/gray/100" mask="url(#mask-16)" fill="#171717">
                            <g transform="translate(-3.630000, -3.630000)">
                                <rect x="0" y="0" width="29" height="29"></rect>
                            </g>
                        </g>
                    </g>
                    <rect id="transparent-rectangle" x="0" y="0" width="14.52" height="14.52"></rect>
                </g>
            </g>
            <polygon id="7" fill="#FFFFFF" points="361.048535 276.691896 359.044775 276.691896 362.573135 268.110576 359.073815 268.110576 359.073815 269.969136 357.447575 269.969136 357.447575 266.556936 364.475255 266.556936 364.475255 268.197696"></polygon>
        </g>
    </g>
</svg>