<?xml version="1.0" encoding="UTF-8"?>
<svg width="544px" height="544px" viewBox="0 0 544 544" version="1.1" xmlns="http://www.w3.org/2000/svg" xmlns:xlink="http://www.w3.org/1999/xlink">
    <!-- Generator: Sketch 52.4 (67378) - http://www.bohemiancoding.com/sketch -->
    <title>Motion_overview_Curves_productive</title>
    <desc>Created with Sketch.</desc>
    <g id="Curves_productive" stroke="none" stroke-width="1" fill="none" fill-rule="evenodd">
        <rect fill="#FFFFFF" x="0" y="0" width="544" height="544"></rect>
        <g id="Group">
            <polygon id="Rectangle-21" fill="#F3F3F3" points="2.66453526e-14 0 544 0 544 544 2.66453526e-14 544"></polygon>
            <path d="M-4.26325641e-14,542.788419 C56.7266025,432.321429 110.891312,1.21158129 290.131894,1.21158129" id="expressive" stroke="#0530AD" stroke-width="2.42316258"></path>
            <polygon id="Rectangle-21-Copy-3" fill="#BEBEBE" points="-8.8817842e-15 0 1.20888289 0 1.20888289 544 -8.8817842e-15 544"></polygon>
            <path d="M503.03159,529.498886 L501.335376,529.498886 C500.402459,529.498886 499.893595,528.905212 499.893595,528.057105 L499.893595,521.933773 L498.451813,521.933773 L498.451813,520.746423 L499.265996,520.746423 C499.842708,520.746423 500.029292,520.542878 500.029292,519.949203 L500.029292,518.320837 L501.250566,518.320837 L501.250566,520.746423 L503.167287,520.746423 L503.167287,521.933773 L501.250566,521.933773 L501.250566,528.311537 L503.03159,528.311537 L503.03159,529.498886 Z M506.033889,518.694004 C505.457176,518.694004 505.202744,518.388686 505.202744,517.930708 L505.202744,517.7102 C505.202744,517.252223 505.457176,516.946904 506.033889,516.946904 C506.610601,516.946904 506.865033,517.252223 506.865033,517.7102 L506.865033,517.930708 C506.865033,518.388686 506.610601,518.694004 506.033889,518.694004 Z M505.355403,529.498886 L505.355403,520.746423 L506.712374,520.746423 L506.712374,529.498886 L505.355403,529.498886 Z M510.952909,529.498886 L509.595938,529.498886 L509.595938,520.746423 L510.952909,520.746423 L510.952909,522.171243 L511.020757,522.171243 C511.410886,521.272249 512.021523,520.542878 513.378494,520.542878 C514.53192,520.542878 515.583572,521.068704 516.058512,522.323902 L516.092437,522.323902 C516.414717,521.374022 517.262824,520.542878 518.755492,520.542878 C520.536517,520.542878 521.605131,521.764151 521.605131,523.884419 L521.605131,529.498886 L520.24816,529.498886 L520.24816,524.121889 C520.24816,522.578334 519.654486,521.764151 518.331439,521.764151 C517.262824,521.764151 516.27902,522.30694 516.27902,523.426441 L516.27902,529.498886 L514.922049,529.498886 L514.922049,524.121889 C514.922049,522.561372 514.328374,521.764151 513.039252,521.764151 C511.970637,521.764151 510.952909,522.30694 510.952909,523.426441 L510.952909,529.498886 Z M527.694539,529.702432 C525.31984,529.702432 523.759323,527.904445 523.759323,525.122655 C523.759323,522.340864 525.31984,520.542878 527.694539,520.542878 C530.035314,520.542878 531.477096,522.340864 531.477096,524.817336 L531.477096,525.461898 L525.184143,525.461898 L525.184143,525.868989 C525.184143,527.378619 526.150984,528.515082 527.77935,528.515082 C528.881889,528.515082 529.729996,527.972294 530.187973,527.005452 L531.154815,527.7009 C530.595065,528.888249 529.339866,529.702432 527.694539,529.702432 Z M527.694539,521.679341 C526.218833,521.679341 525.184143,522.798842 525.184143,524.325434 L525.184143,524.444169 L530.018352,524.444169 L530.018352,524.257586 C530.018352,522.714031 529.085434,521.679341 527.694539,521.679341 Z" id="time-copy" fill="#6F6F6F"></path>
            <path d="M-4.95959911,48.1926503 L-4.95959911,46.7678307 L-5.02744766,46.7678307 C-5.55327394,47.8534076 -6.38441871,48.396196 -7.58873051,48.396196 C-9.77684633,48.396196 -11.1507795,46.6151715 -11.1507795,43.8164187 C-11.1507795,41.0176659 -9.77684633,39.2366414 -7.58873051,39.2366414 C-6.38441871,39.2366414 -5.48542539,39.7624677 -5.02744766,40.8650067 L-4.95959911,40.8650067 L-4.95959911,35.6406682 L-3.60262806,35.6406682 L-3.60262806,48.1926503 L-4.95959911,48.1926503 Z M-7.21556347,47.174922 C-5.97732739,47.174922 -4.95959911,46.5303608 -4.95959911,45.3938976 L-4.95959911,42.137167 C-4.95959911,41.1703252 -5.97732739,40.4579154 -7.21556347,40.4579154 C-8.7421559,40.4579154 -9.69203563,41.5095679 -9.69203563,43.0700846 L-9.69203563,44.5627528 C-9.69203563,46.1232695 -8.7421559,47.174922 -7.21556347,47.174922 Z M-0.0405790646,37.3877684 C-0.617291759,37.3877684 -0.871723831,37.0824499 -0.871723831,36.6244722 L-0.871723831,36.4039644 C-0.871723831,35.9459866 -0.617291759,35.6406682 -0.0405790646,35.6406682 C0.53613363,35.6406682 0.790565702,35.9459866 0.790565702,36.4039644 L0.790565702,36.6244722 C0.790565702,37.0824499 0.53613363,37.3877684 -0.0405790646,37.3877684 Z M-0.719064588,48.1926503 L-0.719064588,39.4401871 L0.637906459,39.4401871 L0.637906459,48.1926503 L-0.719064588,48.1926503 Z M6.15060134,48.396196 C4.53919822,48.396196 3.47058352,47.7177105 2.69032517,46.68302 L3.65716704,45.9027617 C4.33565256,46.7508686 5.14983519,47.2427706 6.25237416,47.2427706 C7.40579955,47.2427706 8.08428508,46.7169443 8.08428508,45.817951 C8.08428508,45.1394655 7.71111804,44.6136392 6.55769265,44.4440178 L5.86224499,44.342245 C4.25084187,44.1047751 3.04653007,43.4432517 3.04653007,41.8148864 C3.04653007,40.0847483 4.38653898,39.2366414 6.16756347,39.2366414 C7.57542094,39.2366414 8.50833853,39.7624677 9.22074833,40.6444989 L8.32175501,41.4586815 C7.93162584,40.9158931 7.18529176,40.3900668 6.06579065,40.3900668 C4.94628953,40.3900668 4.3526147,40.9158931 4.3526147,41.7470379 C4.3526147,42.5951448 4.94628953,42.9343875 6.03186637,43.1040089 L6.71035189,43.2057817 C8.64403563,43.4941381 9.39036971,44.342245 9.39036971,45.6652918 C9.39036971,47.3615056 8.15213363,48.396196 6.15060134,48.396196 Z M15.2931938,48.1926503 L13.59698,48.1926503 C12.6640624,48.1926503 12.1551982,47.5989755 12.1551982,46.7508686 L12.1551982,40.6275367 L10.7134165,40.6275367 L10.7134165,39.4401871 L11.5275991,39.4401871 C12.1043118,39.4401871 12.2908953,39.2366414 12.2908953,38.6429666 L12.2908953,37.0146013 L13.5121693,37.0146013 L13.5121693,39.4401871 L15.4288909,39.4401871 L15.4288909,40.6275367 L13.5121693,40.6275367 L13.5121693,47.0053007 L15.2931938,47.0053007 L15.2931938,48.1926503 Z M24.7411047,48.1926503 L23.9778085,48.1926503 C22.9770423,48.1926503 22.569951,47.5820134 22.4681782,46.7678307 L22.3833675,46.7678307 C22.0102004,47.8364454 21.0772829,48.396196 19.8560089,48.396196 C18.0071359,48.396196 16.921559,47.3784677 16.921559,45.7501024 C16.921559,44.1047751 18.1089087,43.1888196 20.6532294,43.1888196 L22.3833675,43.1888196 L22.3833675,42.3237506 C22.3833675,41.0855145 21.704882,40.407029 20.3139866,40.407029 C19.2623341,40.407029 18.5668864,40.9158931 18.0919465,41.7131136 L17.2777639,40.9498174 C17.7527038,40.0168998 18.8043563,39.2366414 20.3818352,39.2366414 C22.4851403,39.2366414 23.7403385,40.3391804 23.7403385,42.1880535 L23.7403385,47.0053007 L24.7411047,47.0053007 L24.7411047,48.1926503 Z M20.0765167,47.2427706 C21.4165256,47.2427706 22.3833675,46.5473229 22.3833675,45.6483296 L22.3833675,44.2065479 L20.5853808,44.2065479 C19.0418263,44.2065479 18.3463786,44.6814878 18.3463786,45.5295947 L18.3463786,45.8857996 C18.3463786,46.7508686 19.0248641,47.2427706 20.0765167,47.2427706 Z M28.0317595,48.1926503 L26.6747884,48.1926503 L26.6747884,39.4401871 L28.0317595,39.4401871 L28.0317595,40.8650067 L28.099608,40.8650067 C28.5236615,39.8812027 29.2699955,39.2366414 30.5760802,39.2366414 C32.3740668,39.2366414 33.5105301,40.4579154 33.5105301,42.5781826 L33.5105301,48.1926503 L32.153559,48.1926503 L32.153559,42.8156526 C32.153559,41.2551359 31.4750735,40.4579154 30.1689889,40.4579154 C29.083412,40.4579154 28.0317595,41.0007038 28.0317595,42.1202049 L28.0317595,48.1926503 Z M39.5660134,48.396196 C37.1065033,48.396196 35.6647216,46.6151715 35.6647216,43.8164187 C35.6647216,41.0176659 37.1065033,39.2366414 39.5660134,39.2366414 C41.2961514,39.2366414 42.3308419,40.0847483 42.839706,41.2890601 L41.7032428,41.8657728 C41.3809621,40.9667795 40.6346281,40.4409532 39.5660134,40.4409532 C37.9546102,40.4409532 37.1234655,41.5434922 37.1234655,43.0700846 L37.1234655,44.5627528 C37.1234655,46.0893452 37.9546102,47.1918842 39.5660134,47.1918842 C40.6685523,47.1918842 41.4657728,46.6660579 41.9407127,45.6652918 L42.9245167,46.3268151 C42.3647661,47.5820134 41.2283029,48.396196 39.5660134,48.396196 Z M48.0301203,48.396196 C45.6554209,48.396196 44.0949042,46.5982094 44.0949042,43.8164187 C44.0949042,41.0346281 45.6554209,39.2366414 48.0301203,39.2366414 C50.3708953,39.2366414 51.8126771,41.0346281 51.8126771,43.5111002 L51.8126771,44.1556615 L45.5197238,44.1556615 L45.5197238,44.5627528 C45.5197238,46.0723831 46.4865657,47.2088463 48.114931,47.2088463 C49.2174699,47.2088463 50.0655768,46.6660579 50.5235546,45.699216 L51.4903964,46.3946637 C50.9306459,47.5820134 49.6754477,48.396196 48.0301203,48.396196 Z M48.0301203,40.3731047 C46.5544143,40.3731047 45.5197238,41.4926058 45.5197238,43.0191982 L45.5197238,43.1379332 L50.3539332,43.1379332 L50.3539332,42.9513497 C50.3539332,41.4077951 49.4210156,40.3731047 48.0301203,40.3731047 Z" id="distance-copy" fill="#6F6F6F" transform="translate(20.330949, 42.018432) rotate(90.000000) translate(-20.330949, -42.018432) "></path>
            <polygon id="Rectangle-21-Copy" fill="#BEBEBE" points="1.20348609 543 545.203486 543 545.203486 544.211581 1.20348609 544.211581"></polygon>
        </g>
    </g>
</svg>