<?xml version="1.0" encoding="utf-8"?>
<!-- Generator: Adobe Illustrator 23.0.1, SVG Export Plug-In . SVG Version: 6.00 Build 0)  -->
<svg version="1.1" id="icon" xmlns="http://www.w3.org/2000/svg" xmlns:xlink="http://www.w3.org/1999/xlink" x="0px" y="0px"
	 width="16px" height="16px" viewBox="0 0 16 16" style="enable-background:new 0 0 16 16;" xml:space="preserve">
<style type="text/css">
	.st0{fill:none;}
</style>
<title>attachment</title>
<path d="M14.1,9L7,1.9C5.6,0.6,3.3,0.7,2,2.1S0.7,5.6,1.9,7l1.6,1.6l0.8-0.8L2.7,6.2c-1-0.9-1-2.5-0.1-3.5s2.5-1,3.5-0.1l0.1,0.1
	l7.1,7.1c1,0.9,1,2.5,0.1,3.5s-2.5,1-3.5,0.1l-0.1-0.1L6.5,9.9C5.9,9.4,5.9,8.5,6.5,8s1.4-0.5,1.9,0l0,0l1.7,1.7L10.9,9L9.1,7.2
	c-1-0.9-2.5-0.9-3.5,0.1c-0.9,0.9-0.9,2.4,0,3.3L9,14.1c1.4,1.3,3.7,1.2,5-0.2S15.3,10.4,14.1,9z"/>
<rect id="_Transparent_Rectangle_" class="st0" width="16" height="16"/>
</svg>
