<?xml version="1.0" encoding="UTF-8"?>
<svg width="11px" height="16px" viewBox="0 0 11 16" version="1.1" xmlns="http://www.w3.org/2000/svg" xmlns:xlink="http://www.w3.org/1999/xlink">
    <!-- Generator: Sketch 55.2 (78181) - https://sketchapp.com -->
    <title>Bookmark</title>
    <desc>Created with Sketch.</desc>
    <g id="Bookmark" stroke="none" stroke-width="1" fill="none" fill-rule="evenodd">
        <rect fill="#FFFFFF" opacity="0" x="0" y="0" width="11" height="16"></rect>
        <path d="M10.3163328,14.7201559 C10.4353284,14.5031166 10.5,14.2569512 10.5,14 L10.5,2.5638852 C10.5,1.82655093 10.44602,1.54701959 10.2919607,1.25895373 C10.1642535,1.02016204 9.97983796,0.835746496 9.74104627,0.708039303 C9.45298041,0.553979991 9.17344907,0.5 8.4361148,0.5 L2.5638852,0.5 C1.82655093,0.5 1.54701959,0.553979991 1.25895373,0.708039303 C1.02016204,0.835746496 0.835746496,1.02016204 0.708039303,1.25895373 C0.553979991,1.54701959 0.5,1.82655093 0.5,2.5638852 L0.5,14 C0.5,14.2569512 0.564671634,14.5031166 0.68366716,14.7201559 L5.5,10.4239818 L10.3163328,14.7201559 Z M9,15.5 L9,16.5 L2,16.5 L2,15.5 L9,15.5 Z" id="Combined-Shape" stroke="#000000"></path>
    </g>
</svg>