<?xml version="1.0" encoding="utf-8"?>
<!-- Generator: Adobe Illustrator 23.0.1, SVG Export Plug-In . SVG Version: 6.00 Build 0)  -->
<svg version="1.1" id="icon" xmlns="http://www.w3.org/2000/svg" xmlns:xlink="http://www.w3.org/1999/xlink" x="0px" y="0px"
	 width="16px" height="16px" viewBox="0 0 16 16" style="enable-background:new 0 0 16 16;" xml:space="preserve">
<style type="text/css">
	.st0{fill:none;}
</style>
<title>checkmark</title>
<path d="M8,1C4.1,1,1,4.1,1,8s3.1,7,7,7s7-3.1,7-7S11.9,1,8,1z M8,14c-3.3,0-6-2.7-6-6s2.7-6,6-6s6,2.7,6,6S11.3,14,8,14z"/>
<rect id="_Transparent_Rectangle_" class="st0" width="16" height="16"/>
<polygon points="10.7,11.5 8,8.8 5.3,11.5 4.5,10.7 7.2,8 4.5,5.3 5.3,4.5 8,7.2 10.7,4.5 11.5,5.3 8.8,8 11.5,10.7 "/>
</svg>
