<?xml version="1.0" encoding="utf-8"?>
<!-- Generator: Adobe Illustrator 23.0.3, SVG Export Plug-In . SVG Version: 6.00 Build 0)  -->
<svg version="1.1" id="Layer_1" xmlns="http://www.w3.org/2000/svg" xmlns:xlink="http://www.w3.org/1999/xlink" x="0px" y="0px"
	 width="16px" height="16px" viewBox="0 0 16 16" style="enable-background:new 0 0 16 16;" xml:space="preserve">
<style type="text/css">
	.st0{fill:none;}
</style>
<rect class="st0" width="16" height="16"/>
<path d="M15,14.3L1.7,1L1,1.7l5,5l-4,4V14h3.2l4-4l5,5L15,14.3z M4.8,13H3v-1.8l3.8-3.8l1.8,1.8L4.8,13z"/>
<path d="M14.7,3.1L14.7,3.1l-1.8-1.8c-0.4-0.4-1-0.4-1.4,0c0,0,0,0,0,0l0,0l-4,4L8.2,6L10,4.2L11.8,6L10,7.8l0.7,0.7l4-4
	C15.1,4.1,15.1,3.5,14.7,3.1C14.7,3.1,14.7,3.1,14.7,3.1z M12.5,5.3l-1.8-1.8L12.2,2L14,3.8L12.5,5.3z"/>
</svg>
