<?xml version="1.0" encoding="utf-8"?>
<!-- Generator: Adobe Illustrator 23.0.1, SVG Export Plug-In . SVG Version: 6.00 Build 0)  -->
<svg version="1.1" id="icon" xmlns="http://www.w3.org/2000/svg" xmlns:xlink="http://www.w3.org/1999/xlink" x="0px" y="0px"
	 width="16px" height="16px" viewBox="0 0 16 16" style="enable-background:new 0 0 16 16;" xml:space="preserve">
<style type="text/css">
	.st0{fill:none;}
</style>
<title>favorite</title>
<path d="M11.2,3c0.7,0,1.4,0.3,2,0.8c1.1,1.1,1.1,2.9,0,4L8,13.1L2.8,7.8c-1.1-1.1-1.1-2.9,0-4c1.1-1.1,2.8-1.1,3.9,0c0,0,0,0,0,0
	L8,5.1l1.3-1.3C9.8,3.3,10.5,3,11.2,3 M11.2,2c-1,0-2,0.4-2.7,1.1L8,3.7L7.4,3.1C6,1.6,3.6,1.6,2.1,3.1c0,0,0,0,0,0
	C0.6,4.6,0.6,7,2.1,8.5l5.9,6l5.9-6c1.5-1.5,1.5-3.9,0-5.4C13.2,2.4,12.2,2,11.2,2z"/>
<rect id="_Transparent_Rectangle_" class="st0" width="16" height="16"/>
</svg>
