<?xml version="1.0" encoding="utf-8"?>
<!-- Generator: Adobe Illustrator 23.0.1, SVG Export Plug-In . SVG Version: 6.00 Build 0)  -->
<svg version="1.1" id="Layer_2" xmlns="http://www.w3.org/2000/svg" xmlns:xlink="http://www.w3.org/1999/xlink" x="0px" y="0px"
	 width="16px" height="16px" viewBox="0 0 16 16" style="enable-background:new 0 0 16 16;" xml:space="preserve">
<path d="M15,4h-2.1c-0.2-1.1-1.2-2-2.4-2S8.3,2.9,8.1,4H1v1h7.1c0.2,1.1,1.2,2,2.4,2s2.2-0.9,2.4-2H15V4z M10.5,6C9.7,6,9,5.3,9,4.5
	S9.7,3,10.5,3S12,3.7,12,4.5S11.3,6,10.5,6z"/>
<path d="M1,12h2.1c0.2,1.1,1.2,2,2.4,2s2.2-0.9,2.4-2H15v-1H7.9C7.7,9.9,6.7,9,5.5,9s-2.2,0.9-2.4,2H1V12z M5.5,10
	C6.3,10,7,10.7,7,11.5S6.3,13,5.5,13S4,12.3,4,11.5S4.7,10,5.5,10z"/>
</svg>
