<?xml version="1.0" encoding="utf-8"?>
<!-- Generator: Adobe Illustrator 23.0.1, SVG Export Plug-In . SVG Version: 6.00 Build 0)  -->
<svg version="1.1" id="icon" xmlns="http://www.w3.org/2000/svg" xmlns:xlink="http://www.w3.org/1999/xlink" x="0px" y="0px"
	 width="16px" height="16px" viewBox="0 0 16 16" style="enable-background:new 0 0 16 16;" xml:space="preserve">
<style type="text/css">
	.st0{fill:none;}
</style>
<title>folder--add</title>
<polygon points="13,10 12,10 12,12 10,12 10,13 12,13 12,15 13,15 13,13 15,13 15,12 13,12 "/>
<path d="M14,4H8L6.3,2.3C6.1,2.1,5.9,2,5.6,2H2C1.4,2,1,2.4,1,3v10c0,0.6,0.4,1,1,1h6v-1H2V3h3.6l1.7,1.7L7.6,5H14v4h1V5
	C15,4.4,14.6,4,14,4z"/>
<rect id="_Transparent_Rectangle_" class="st0" width="16" height="16"/>
</svg>
