<?xml version="1.0" encoding="UTF-8"?>
<svg width="16px" height="16px" viewBox="0 0 16 16" version="1.1" xmlns="http://www.w3.org/2000/svg" xmlns:xlink="http://www.w3.org/1999/xlink">
    <!-- Generator: Sketch 61 (89581) - https://sketch.com -->
    <title>Ordinal 16</title>
    <desc>Created with Sketch.</desc>
    <g id="Ordinal-16" stroke="none" stroke-width="1" fill="none" fill-rule="evenodd">
        <path d="M1,13 L1,12 L3,12 L3,9 L5.999,9 L6,6 L9,6 L9,3 L13,3 L13,12 L15,12 L15,13 L1,13 Z M5.999,10 L4,10 L4,12 L5.999,12 L5.999,10 Z M8.999,7 L6.999,7 L6.999,9 L7,9 L7,12 L8.999,12 L8.999,7 Z M12,4 L10,4 L10,12 L12,12 L12,4 Z" id="Combined-Shape" fill="#000000" fill-rule="nonzero"></path>
    </g>
</svg>