<svg id="icon" xmlns="http://www.w3.org/2000/svg" viewBox="0 0 32 32"><defs><style>.cls-1{fill:none;}</style></defs><title>research--hinton-plot</title><rect x="2" y="2" width="4" height="4"/><rect x="10" y="2" width="4" height="4"/><rect x="18" y="2" width="4" height="4"/><rect x="26" y="2" width="4" height="4"/><rect x="2" y="10" width="4" height="4"/><rect x="10" y="10" width="4" height="4"/><rect x="18" y="10" width="4" height="4"/><rect x="26" y="10" width="4" height="4"/><rect x="2" y="18" width="4" height="4"/><rect x="10" y="18" width="4" height="4"/><rect x="18" y="18" width="4" height="4"/><rect x="26" y="18" width="4" height="4"/><rect x="2" y="26" width="4" height="4"/><rect x="10" y="26" width="4" height="4"/><rect x="18" y="26" width="4" height="4"/><rect x="26" y="26" width="4" height="4"/><rect id="_Transparent_Rectangle_" data-name="&lt;Transparent Rectangle&gt;" class="cls-1" width="32" height="32"/></svg>