<svg id="icon" xmlns="http://www.w3.org/2000/svg" viewBox="0 0 32 32"><defs><style>.cls-1{fill:none;}</style></defs><title>Q-research--operation--gauge</title><polygon points="30 4 24 4 24 6 27.75 6 24 10 24 12 30 12 30 10 26.38 10 30 6 30 4"/><path d="M20,17.62,22.08,14l-1.73-1-2.18,3.76A12,12,0,0,0,2,28H4a10,10,0,0,1,13.16-9.48L14,24a2,2,0,1,0,2,2,2,2,0,0,0-.27-1L19,19.35A10,10,0,0,1,24,28h2A12,12,0,0,0,20,17.62Z"/><rect id="_Transparent_Rectangle_" data-name="&lt;Transparent Rectangle&gt;" class="cls-1" width="32" height="32"/></svg>