<?xml version="1.0" encoding="UTF-8"?>
<svg width="99px" height="208px" viewBox="0 0 99 208" version="1.1" xmlns="http://www.w3.org/2000/svg" xmlns:xlink="http://www.w3.org/1999/xlink">
    <!-- Generator: Sketch 50.2 (55047) - http://www.bohemiancoding.com/sketch -->
    <title>ui-02</title>
    <desc>Created with Sketch.</desc>
    <defs></defs>
    <g id="Page-1" stroke="none" stroke-width="1" fill="none" fill-rule="evenodd">
        <g id="UI-color-contrast" transform="translate(-328.000000, -245.000000)">
            <g id="Table" transform="translate(0.000000, 177.000000)">
                <g id="ui-02" transform="translate(328.000000, 68.000000)">
                    <rect id="Rectangle-96" fill="#F4F7FB" x="0" y="0" width="99" height="208"></rect>
                    <g id="4.5:1-contrast" transform="translate(58.000000, 73.000000)">
                        <rect id="Rectangle-4" stroke="#5A6872" stroke-width="2" x="1" y="1" width="22" height="22"></rect>
                        <rect id="Rectangle-5" fill="#5A6872" x="2" y="2" width="20" height="10"></rect>
                    </g>
                    <g id="4.5:1-contrast-copy-2" transform="translate(58.000000, 25.000000)">
                        <rect id="Rectangle-4" stroke="#3D70B2" stroke-width="2" x="1" y="1" width="22" height="22"></rect>
                        <rect id="Rectangle-5" fill="#3D70B2" x="2" y="2" width="20" height="10"></rect>
                    </g>
                    <g id="3:1-contrast" transform="translate(16.000000, 73.000000)">
                        <path d="M0.041073777,12 L23.9589262,12 C23.9861287,12.3297334 24,12.6632468 24,13 C24,19.627417 18.627417,25 12,25 C5.372583,25 0,19.627417 0,13 C0,12.6632468 0.0138713289,12.3297334 0.041073777,12 Z" id="Combined-Shape" fill="#5A6872"></path>
                        <circle id="Oval" stroke="#5A6872" stroke-width="2" cx="12" cy="12" r="12"></circle>
                    </g>
                    <g id="3:1-contrast-copy-2" transform="translate(16.000000, 24.000000)">
                        <path d="M0.041073777,12 L23.9589262,12 C23.9861287,12.3297334 24,12.6632468 24,13 C24,19.627417 18.627417,25 12,25 C5.372583,25 0,19.627417 0,13 C0,12.6632468 0.0138713289,12.3297334 0.041073777,12 Z" id="Combined-Shape" fill="#3D70B2"></path>
                        <circle id="Oval" stroke="#3D70B2" stroke-width="2" cx="12" cy="12" r="12"></circle>
                    </g>
                </g>
            </g>
        </g>
    </g>
</svg>