<?xml version="1.0" encoding="iso-8859-1"?>
<!-- Generator: Adobe Illustrator 22.0.0, SVG Export Plug-In . SVG Version: 6.00 Build 0)  -->
<svg version="1.1" xmlns="http://www.w3.org/2000/svg" xmlns:xlink="http://www.w3.org/1999/xlink" x="0px" y="0px"
	 viewBox="0 0 48 48" style="enable-background:new 0 0 48 48;" xml:space="preserve">
<g id="austin">
	<rect style="fill:#FFFFFF;" width="48" height="48"/>
	<g id="austin_1_">
		<line style="fill:none;stroke:#000000;stroke-width:0.72;stroke-miterlimit:10;" x1="9" y1="22" x2="39" y2="22"/>
		<line style="fill:none;stroke:#000000;stroke-width:0.72;stroke-miterlimit:10;" x1="9" y1="26" x2="39" y2="26"/>
		<line style="fill:none;stroke:#000000;stroke-width:0.72;stroke-miterlimit:10;" x1="9" y1="28" x2="39" y2="28"/>
		<path style="fill:none;stroke:#000000;stroke-width:0.72;stroke-miterlimit:10;" d="M16,32c0-2.209,1.791-4,4-4s4,1.791,4,4"/>
		<path style="fill:none;stroke:#000000;stroke-width:0.72;stroke-miterlimit:10;" d="M24,32c0-2.209,1.791-4,4-4s4,1.791,4,4"/>
		<path style="fill:none;stroke:#000000;stroke-width:0.72;stroke-linecap:round;stroke-linejoin:round;stroke-miterlimit:10;" d="
			M32,32c0-2.209,1.791-4,4-4"/>
		<path style="fill:none;stroke:#000000;stroke-width:0.72;stroke-miterlimit:10;" d="M12,28c2.209,0,4,1.791,4,4"/>
		
			<line style="fill:none;stroke:#000000;stroke-width:0.72;stroke-linecap:round;stroke-linejoin:round;stroke-miterlimit:10;" x1="22" y1="34" x2="26" y2="34"/>
		
			<line style="fill:none;stroke:#000000;stroke-width:0.72;stroke-linecap:round;stroke-linejoin:round;stroke-miterlimit:10;" x1="18" y1="38" x2="22" y2="38"/>
		
			<line style="fill:none;stroke:#000000;stroke-width:0.72;stroke-linecap:round;stroke-linejoin:round;stroke-miterlimit:10;" x1="26" y1="38" x2="30" y2="38"/>
		
			<line style="fill:none;stroke:#000000;stroke-width:0.72;stroke-linecap:round;stroke-linejoin:round;stroke-miterlimit:10;" x1="30" y1="34" x2="36" y2="34"/>
		
			<line style="fill:none;stroke:#000000;stroke-width:0.72;stroke-linecap:round;stroke-linejoin:round;stroke-miterlimit:10;" x1="12" y1="34" x2="18" y2="34"/>
		
			<line style="fill:none;stroke:#000000;stroke-width:0.72;stroke-linecap:round;stroke-linejoin:round;stroke-miterlimit:10;" x1="14" y1="36" x2="34" y2="36"/>
		
			<line style="fill:none;stroke:#000000;stroke-width:0.72;stroke-linecap:round;stroke-linejoin:round;stroke-miterlimit:10;" x1="16" y1="32" x2="16" y2="34"/>
		
			<line style="fill:none;stroke:#000000;stroke-width:0.72;stroke-linecap:round;stroke-linejoin:round;stroke-miterlimit:10;" x1="24" y1="32" x2="24" y2="34"/>
		
			<line style="fill:none;stroke:#000000;stroke-width:0.72;stroke-linecap:round;stroke-linejoin:round;stroke-miterlimit:10;" x1="32" y1="32" x2="32" y2="34"/>
		
			<line style="fill:none;stroke:#000000;stroke-width:0.72;stroke-linecap:round;stroke-linejoin:round;stroke-miterlimit:10;" x1="12" y1="22" x2="12" y2="26"/>
		
			<line style="fill:none;stroke:#000000;stroke-width:0.72;stroke-linecap:round;stroke-linejoin:round;stroke-miterlimit:10;" x1="16" y1="22" x2="16" y2="26"/>
		
			<line style="fill:none;stroke:#000000;stroke-width:0.72;stroke-linecap:round;stroke-linejoin:round;stroke-miterlimit:10;" x1="20" y1="22" x2="20" y2="26"/>
		
			<line style="fill:none;stroke:#000000;stroke-width:0.72;stroke-linecap:round;stroke-linejoin:round;stroke-miterlimit:10;" x1="24" y1="22" x2="24" y2="26"/>
		
			<line style="fill:none;stroke:#000000;stroke-width:0.72;stroke-linecap:round;stroke-linejoin:round;stroke-miterlimit:10;" x1="28" y1="22" x2="28" y2="26"/>
		
			<line style="fill:none;stroke:#000000;stroke-width:0.72;stroke-linecap:round;stroke-linejoin:round;stroke-miterlimit:10;" x1="32" y1="22" x2="32" y2="26"/>
		
			<line style="fill:none;stroke:#000000;stroke-width:0.72;stroke-linecap:round;stroke-linejoin:round;stroke-miterlimit:10;" x1="36" y1="22" x2="36" y2="26"/>
		<g>
			<path style="fill:none;stroke:#000000;stroke-width:0.72;stroke-miterlimit:10;" d="M28,30c-0.123,0.123-0.229,0.263-0.317,0.415
				c-0.087,0.15-0.154,0.311-0.199,0.482c-0.044,0.165-0.07,0.338-0.07,0.517c-0.174,0-0.348,0.024-0.517,0.07
				c-0.167,0.045-0.329,0.111-0.482,0.2C26.267,31.769,26.127,31.873,26,32"/>
		</g>
		<g>
			<path style="fill:none;stroke:#000000;stroke-width:0.72;stroke-miterlimit:10;" d="M29,19c-0.123,0.123-0.229,0.263-0.317,0.415
				c-0.087,0.15-0.154,0.311-0.199,0.482c-0.044,0.165-0.07,0.338-0.07,0.517c-0.174,0-0.348,0.024-0.517,0.07
				c-0.167,0.045-0.329,0.111-0.482,0.2C27.267,20.769,27.127,20.873,27,21"/>
		</g>
		<g>
			<path style="fill:none;stroke:#000000;stroke-width:0.72;stroke-miterlimit:10;" d="M24,14c-0.123,0.123-0.229,0.263-0.317,0.415
				c-0.087,0.15-0.154,0.311-0.199,0.482c-0.044,0.165-0.07,0.338-0.07,0.517c-0.174,0-0.348,0.024-0.517,0.07
				c-0.167,0.045-0.329,0.111-0.482,0.2C22.267,15.769,22.127,15.873,22,16"/>
		</g>
		<g>
			<path style="fill:none;stroke:#000000;stroke-width:0.72;stroke-miterlimit:10;" d="M25,17c-0.123,0.123-0.229,0.263-0.317,0.415
				c-0.087,0.15-0.154,0.311-0.199,0.482c-0.044,0.165-0.07,0.338-0.07,0.517c-0.174,0-0.348,0.024-0.517,0.07
				c-0.167,0.045-0.329,0.111-0.482,0.2C23.267,18.769,23.127,18.873,23,19"/>
		</g>
		<g>
			<path style="fill:none;stroke:#000000;stroke-width:0.72;stroke-miterlimit:10;" d="M30,9c0.123,0.123,0.229,0.263,0.317,0.415
				c0.087,0.15,0.154,0.311,0.199,0.482c0.044,0.165,0.07,0.338,0.07,0.517c0.174,0,0.348,0.024,0.517,0.07
				c0.167,0.045,0.329,0.111,0.482,0.2C31.733,10.769,31.873,10.873,32,11"/>
		</g>
		<g>
			<path style="fill:none;stroke:#000000;stroke-width:0.72;stroke-miterlimit:10;" d="M24,11c0.123,0.123,0.229,0.263,0.317,0.415
				c0.087,0.15,0.154,0.311,0.199,0.482c0.044,0.165,0.07,0.338,0.07,0.517c0.174,0,0.348,0.024,0.517,0.07
				c0.167,0.045,0.329,0.111,0.482,0.2C25.733,12.769,25.873,12.873,26,13"/>
		</g>
		<g>
			<path style="fill:none;stroke:#000000;stroke-width:0.72;stroke-miterlimit:10;" d="M19,12c0.123,0.123,0.229,0.263,0.317,0.415
				c0.087,0.15,0.154,0.311,0.199,0.482c0.044,0.165,0.07,0.338,0.07,0.517c0.174,0,0.348,0.024,0.517,0.07
				c0.167,0.045,0.329,0.111,0.482,0.2C20.733,13.769,20.873,13.873,21,14"/>
		</g>
		<g>
			<path style="fill:none;stroke:#000000;stroke-width:0.72;stroke-miterlimit:10;" d="M20,16c0.123,0.123,0.229,0.263,0.317,0.415
				c0.087,0.15,0.154,0.311,0.199,0.482c0.044,0.165,0.07,0.338,0.07,0.517c0.174,0,0.348,0.024,0.517,0.07
				c0.167,0.045,0.329,0.111,0.482,0.2C21.733,17.769,21.873,17.873,22,18"/>
		</g>
	</g>
</g>
<g id="Layer_1">
</g>
</svg>
