<?xml version="1.0" encoding="iso-8859-1"?>
<!-- Generator: Adobe Illustrator 22.0.0, SVG Export Plug-In . SVG Version: 6.00 Build 0)  -->
<svg version="1.1" xmlns="http://www.w3.org/2000/svg" xmlns:xlink="http://www.w3.org/1999/xlink" x="0px" y="0px"
	 viewBox="0 0 48 48" style="enable-background:new 0 0 48 48;" xml:space="preserve">
<g id="automobile">
	<g id="automobile_1_">
		
			<path id="Automotive_x2F_Transportation_01_1_" style="fill:none;stroke:#000000;stroke-width:0.72;stroke-linecap:round;stroke-linejoin:round;stroke-miterlimit:10;" d="
			M36,34H12c-1.105,0-2-0.895-2-2v-8c0-1.105,0.895-2,2-2h24c1.105,0,2,0.895,2,2v8C38,33.105,37.105,34,36,34z M11,34v4h3v-4
			 M34,34v4h3v-4 M15,25c-1.105,0-2,0.895-2,2s0.895,2,2,2s2-0.895,2-2S16.105,25,15,25z M33,25c-1.105,0-2,0.895-2,2s0.895,2,2,2
			c1.105,0,2-0.895,2-2S34.105,25,33,25z M36,22l-2.786-9.287C33.087,12.29,32.698,12,32.256,12H15.744
			c-0.442,0-0.831,0.29-0.958,0.713L12,22 M14.5,14h19 M30,20l-3-3.964 M31,18.18l-2-2.68"/>
		<path style="fill:none;stroke:#000000;stroke-width:0.72;stroke-linejoin:round;stroke-miterlimit:10;" d="M19,26h10 M19,28h10
			 M10,32h28 M11,20v-3 M37,20v-3"/>
	</g>
</g>
<g id="Layer_1">
</g>
</svg>
