<?xml version="1.0" encoding="iso-8859-1"?>
<!-- Generator: Adobe Illustrator 22.0.0, SVG Export Plug-In . SVG Version: 6.00 Build 0)  -->
<svg version="1.1" xmlns="http://www.w3.org/2000/svg" xmlns:xlink="http://www.w3.org/1999/xlink" x="0px" y="0px"
	 viewBox="0 0 48 48" style="enable-background:new 0 0 48 48;" xml:space="preserve">
<g id="block_chain">
	
		<path id="block_chain_1_" style="fill:none;stroke:#000000;stroke-width:0.72;stroke-linecap:round;stroke-linejoin:round;stroke-miterlimit:10;" d="
		M16,16h-6v-6h6V16z M38,10h-6v6h6V10z M27,10h-6v6h6V10z M16,32h-6v6h6V32z M38,32h-6v6h6V32z M27,32h-6v6h6V32z M16,21h-6v6h6V21z
		 M38,21h-6v6h6V21z M27,21h-6v6h6V21z M16,13h5 M16,24h5 M16,35h5 M27,13h5 M27,24h5 M27,35h5 M13,32v-5 M24,32v-5 M35,32v-5
		 M13,21v-5 M24,21v-5 M35,21v-5"/>
</g>
<g id="Layer_1">
</g>
</svg>
