<?xml version="1.0" encoding="iso-8859-1"?>
<!-- Generator: Adobe Illustrator 22.0.0, SVG Export Plug-In . SVG Version: 6.00 Build 0)  -->
<svg version="1.1" xmlns="http://www.w3.org/2000/svg" xmlns:xlink="http://www.w3.org/1999/xlink" x="0px" y="0px"
	 viewBox="0 0 48 48" style="enable-background:new 0 0 48 48;" xml:space="preserve">
<g id="bubble_chart">
	<path id="bubble_chart_1_" style="fill:none;stroke:#000000;stroke-width:0.72;stroke-linejoin:round;stroke-miterlimit:10;" d="
		M25,27c0,3.866-3.134,7-7,7c-3.866,0-7-3.134-7-7c0-3.866,3.134-7,7-7C21.866,20,25,23.134,25,27z M33,20c-2.761,0-5,2.239-5,5
		c0,2.761,2.239,5,5,5c2.761,0,5-2.239,5-5C38,22.239,35.761,20,33,20z M28,32c-1.657,0-3,1.343-3,3c0,1.657,1.343,3,3,3
		c1.657,0,3-1.343,3-3C31,33.343,29.657,32,28,32z M26,9c-2.761,0-5,2.239-5,5c0,2.761,2.239,5,5,5c2.761,0,5-2.239,5-5
		C31,11.239,28.761,9,26,9z M15,12c-1.657,0-3,1.343-3,3c0,1.657,1.343,3,3,3c1.657,0,3-1.343,3-3C18,13.343,16.657,12,15,12z
		 M12,35c-1.104,0-2,0.896-2,2c0,1.104,0.896,2,2,2c1.104,0,2-0.896,2-2C14,35.896,13.104,35,12,35z"/>
</g>
<g id="Layer_1">
</g>
</svg>
