<?xml version="1.0" encoding="iso-8859-1"?>
<!-- Generator: Adobe Illustrator 22.0.0, SVG Export Plug-In . SVG Version: 6.00 Build 0)  -->
<svg version="1.1" xmlns="http://www.w3.org/2000/svg" xmlns:xlink="http://www.w3.org/1999/xlink" x="0px" y="0px"
	 viewBox="0 0 48 48" style="enable-background:new 0 0 48 48;" xml:space="preserve">
<g id="cherries">
	
		<path id="cherries_1_" style="fill:none;stroke:#000000;stroke-width:0.72;stroke-linecap:round;stroke-linejoin:round;stroke-miterlimit:10;" d="
		M32,27.999c2.294,1,2.771,3.729,2,5.917 M18.5,26.499c2.5-4.5,4.5-7.5,6.5-14.5 M25,11.999c1,7,2.5,11,4.5,15.599 M24.396,28.597
		 M23.599,32.049c0,3.45,2.401,6.95,6.95,6.95c4.45,0,7.45-3,7.45-6.95c0-3.451-2-6.05-5.5-6.05c-1.205,0-2.326,0.508-3,1.599
		c-0.587-0.34-1-0.599-2.023-0.599C25,26.999,23.599,29.499,23.599,32.049z M20,33.999c0.708-0.771,1-1.986,1-3c0-1-0.289-2.272-1-3
		 M17.5,9C15,9,12,9.999,10,11.999c2,2,5,3,7.5,3c3.5,0,5.5-1,7.5-3C23,9.999,21,9,17.5,9z M24.394,28.598
		c-0.795-2.099-3.618-3.549-5.894-2.099c0,0-0.961-1.038-2.5-1.038c-3,0-5,2.038-5,6.038c0,4.501,2.5,7.5,7,7.5c3,0,5-1.499,6-4"/>
</g>
<g id="Layer_1">
</g>
</svg>
