<?xml version="1.0" encoding="iso-8859-1"?>
<!-- Generator: Adobe Illustrator 22.0.0, SVG Export Plug-In . SVG Version: 6.00 Build 0)  -->
<svg version="1.1" xmlns="http://www.w3.org/2000/svg" xmlns:xlink="http://www.w3.org/1999/xlink" x="0px" y="0px"
	 viewBox="0 0 48 48" style="enable-background:new 0 0 48 48;" xml:space="preserve">
<g id="chip_circuit">
	<path id="chip_circuit_1_" style="fill:none;stroke:#000000;stroke-width:0.8509;stroke-linejoin:round;stroke-miterlimit:10;" d="
		M35,35H13V13h22V35z M29,19H19v10h10V19z M32,11V9 M28,11V9 M24,11V9 M16,11V9 M20,11V9 M32,39v-2 M28,39v-2 M24,39v-2 M16,39v-2
		 M20,39v-2 M11,16H9 M11,20H9 M11,24H9 M11,32H9 M11,28H9 M39,16h-2 M39,20h-2 M39,24h-2 M39,32h-2 M39,28h-2"/>
</g>
<g id="Layer_1">
</g>
</svg>
