<?xml version="1.0" encoding="iso-8859-1"?>
<!-- Generator: Adobe Illustrator 22.0.0, SVG Export Plug-In . SVG Version: 6.00 Build 0)  -->
<svg version="1.1" xmlns="http://www.w3.org/2000/svg" xmlns:xlink="http://www.w3.org/1999/xlink" x="0px" y="0px"
	 viewBox="0 0 48 48" style="enable-background:new 0 0 48 48;" xml:space="preserve">
<g id="cloudy_humid">
	<path id="cloudy_humid_1_" style="fill:none;stroke:#000000;stroke-width:0.72;stroke-linejoin:round;stroke-miterlimit:10;" d="
		M38.5,31.5c-0.951,0-1.357-0.474-2.031-1s-1.049-1-2-1s-1.326,0.474-2,1s-1.017,1-1.969,1s-1.357-0.474-2.031-1s-1.049-1-2-1
		c-0.951,0-1.326,0.474-2,1s-1.017,1-1.969,1s-1.357-0.474-2.031-1s-1.049-1-2-1c-0.951,0-1.326,0.474-2,1s-1.017,1-1.969,1
		s-1.357-0.474-2.031-1s-1.049-1-2-1 M10.469,35.5c0.951,0,1.326,0.474,2,1s1.08,1,2.031,1s1.294-0.474,1.969-1s1.049-1,2-1
		c0.951,0,1.326,0.474,2,1s1.08,1,2.031,1s1.294-0.474,1.969-1s1.049-1,2-1c0.951,0,1.326,0.474,2,1s1.08,1,2.031,1
		s1.294-0.474,1.969-1s1.049-1,2-1s1.326,0.474,2,1s1.08,1,2.031,1 M39.5,21.074c0,3.078-2.495,5.393-5.574,5.426H14.131
		C11.558,26.467,9.5,24.731,9.5,22.158c0-2.573,2.058-4.658,4.631-4.658c0.839,0,1.624,0.225,2.303,0.613
		c0.386-4.076,3.815-7.613,7.992-7.613c3.408,0,6.313,2.304,7.479,5.299c0.563-0.191,1.393-0.299,2.02-0.299
		C37.004,15.5,39.5,17.995,39.5,21.074z"/>
</g>
<g id="Layer_1">
</g>
</svg>
