<?xml version="1.0" encoding="iso-8859-1"?>
<!-- Generator: Adobe Illustrator 22.0.0, SVG Export Plug-In . SVG Version: 6.00 Build 0)  -->
<svg version="1.1" xmlns="http://www.w3.org/2000/svg" xmlns:xlink="http://www.w3.org/1999/xlink" x="0px" y="0px"
	 viewBox="0 0 48 48" style="enable-background:new 0 0 48 48;" xml:space="preserve">
<g id="cloudy_partial">
	
		<path id="cloudy_partial_1_" style="fill:none;stroke:#000000;stroke-width:0.72;stroke-linecap:round;stroke-linejoin:round;stroke-miterlimit:10;" d="
		M12.421,21.671c0-2.899,2.35-5.25,5.25-5.25c0.657,0,1.171,0.029,1.75,0.25 M17.671,14.545V13 M14.108,15.5l-0.773-1.338
		 M11.5,18.108l-1.338-0.773 M21.233,15.5l0.773-1.338 M10.545,21.671H9 M33.758,21.516c-0.59,0-1.155,0.102-1.684,0.282
		C30.977,18.98,28.244,17,25.039,17c-3.928,0-7.154,2.98-7.517,6.813c-0.639-0.365-1.378-0.576-2.166-0.576
		c-2.42,0-4.356,1.962-4.356,4.381C11,30.038,12.936,32,15.356,32h18.402C36.653,32,39,29.653,39,26.758
		S36.653,21.516,33.758,21.516z"/>
</g>
<g id="Layer_1">
</g>
</svg>
