<?xml version="1.0" encoding="iso-8859-1"?>
<!-- Generator: Adobe Illustrator 22.0.0, SVG Export Plug-In . SVG Version: 6.00 Build 0)  -->
<svg version="1.1" xmlns="http://www.w3.org/2000/svg" xmlns:xlink="http://www.w3.org/1999/xlink" x="0px" y="0px"
	 viewBox="0 0 48 48" style="enable-background:new 0 0 48 48;" xml:space="preserve">
<g id="cloud_services">
	<path id="cloud_services_1_" style="fill:none;stroke:#000000;stroke-width:0.72;stroke-linejoin:round;stroke-miterlimit:10;" d="
		M39,34.385C39,36.934,36.999,39,34.384,39c-0.129,0-18.462,0-18.462,0C12.099,39,9,35.901,9,32.077S12.099,25,15.923,25
		c0.402,0,0.796,0.036,1.179,0.102C18.683,22.287,21,20,25.154,20c5.346,0,9.231,4.902,9.231,10C36.999,30,39,31.836,39,34.385z
		 M12,15H9v3h3V15z M32,15h-3v3h3V15z M20,9h-3v3h3V9z M20.5,36h-3v3h3V36z M20.5,29h-3v3h3V29z M26,29h-3v3h3V29z M32.5,36h-3v3h3
		V36z M39,9h-3v3h3V9z M39,21h-3v3h3V21z"/>
</g>
<g id="Layer_1">
</g>
</svg>
