<?xml version="1.0" encoding="iso-8859-1"?>
<!-- Generator: Adobe Illustrator 22.0.0, SVG Export Plug-In . SVG Version: 6.00 Build 0)  -->
<svg version="1.1" id="Layer_1" xmlns="http://www.w3.org/2000/svg" xmlns:xlink="http://www.w3.org/1999/xlink" x="0px" y="0px"
	 viewBox="0 0 48 48" style="enable-background:new 0 0 48 48;" xml:space="preserve">
<g id="cloudy_dewy">
	<path id="cloudy_dewy_1_" style="fill:none;stroke:#000000;stroke-width:0.72;stroke-linejoin:round;stroke-miterlimit:10;" d="
		M22.999,17.5l2.598,3.501l0,0c0.255,0.441,0.403,0.953,0.403,1.5c0,1.656-1.345,2.999-3.001,2.999S20,24.157,20,22.501
		c0-0.546,0.146-1.059,0.401-1.5l0,0L22.999,17.5z M22.402,34.001L22.402,34.001C22.146,34.442,22,34.955,22,35.501
		c0,1.656,1.343,2.999,2.999,2.999S28,37.157,28,35.501c0-0.546-0.148-1.059-0.403-1.5l0,0L24.999,30.5L22.402,34.001z
		 M31.402,26.001L31.402,26.001C31.146,26.442,31,26.955,31,27.501c0,1.656,1.343,2.999,2.999,2.999
		c1.656,0,3.001-1.343,3.001-2.999c0-0.546-0.148-1.059-0.403-1.5l0,0L33.999,22.5L31.402,26.001z M39,20.074
		c0-3.078-2.495-5.574-5.574-5.574c-0.627,0-1.458,0.108-2.02,0.299C30.24,11.804,27.335,9.5,23.927,9.5
		c-4.177,0-7.606,3.537-7.992,7.613c-0.68-0.388-1.465-0.613-2.303-0.613C11.058,16.5,9,18.586,9,21.158
		c0,2.573,2.058,4.309,4.631,4.342H17"/>
</g>
<g id="Layer_1_1_">
</g>
</svg>
