<?xml version="1.0" encoding="iso-8859-1"?>
<!-- Generator: Adobe Illustrator 22.0.0, SVG Export Plug-In . SVG Version: 6.00 Build 0)  -->
<svg version="1.1" xmlns="http://www.w3.org/2000/svg" xmlns:xlink="http://www.w3.org/1999/xlink" x="0px" y="0px"
	 viewBox="0 0 48 48" style="enable-background:new 0 0 48 48;" xml:space="preserve">
<g id="cloud_vmware">
	<path id="cloud_vmware_1_" style="fill:none;stroke:#000000;stroke-width:0.72;stroke-linejoin:round;stroke-miterlimit:10;" d="
		M39,39h-8l8-8V39z M31,31l-8,8h8V31z M39,23l-8,8h8V23z M39,15l-8,8h8V15z M31,23l-8,8h8V23z M23,31l-8,8h8V31z M10.999,17.725v-6
		 M17,9c-4.418,0-8,3.582-8,8s3.582,8,8,8s8-3.582,8-8S21.418,9,17,9z M14.627,22.559l-5.196-3 M20.628,21.834l-5.196,3
		 M23.001,16.275v6 M19.373,11.441l5.196,3 M13.372,12.166l5.196-3"/>
</g>
<g id="Layer_1">
</g>
</svg>
