<?xml version="1.0" encoding="iso-8859-1"?>
<!-- Generator: Adobe Illustrator 22.0.0, SVG Export Plug-In . SVG Version: 6.00 Build 0)  -->
<svg version="1.1" xmlns="http://www.w3.org/2000/svg" xmlns:xlink="http://www.w3.org/1999/xlink" x="0px" y="0px"
	 viewBox="0 0 48 48" style="enable-background:new 0 0 48 48;" xml:space="preserve">
<g id="cognos_analytics">
	<path id="cognos_analytics_1_" style="fill:none;stroke:#000000;stroke-width:0.72;stroke-miterlimit:10;" d="M35,12
		c0,1.105-0.895,2-2,2c-1.105,0-2-0.895-2-2s0.895-2,2-2C34.105,10,35,10.895,35,12z M16,16c-1.105,0-2,0.895-2,2s0.895,2,2,2
		s2-0.895,2-2S17.105,16,16,16z M24,22c-1.105,0-2,0.895-2,2s0.895,2,2,2s2-0.895,2-2S25.105,22,24,22z M16,28c-1.105,0-2,0.895-2,2
		s0.895,2,2,2s2-0.895,2-2S17.105,28,16,28z M33,34c-1.105,0-2,0.895-2,2s0.895,2,2,2c1.105,0,2-0.895,2-2S34.105,34,33,34z M20,12
		h9 M20,18h9 M11,24h9 M20,30h9 M20,36h9"/>
</g>
<g id="Layer_1">
</g>
</svg>
