<?xml version="1.0" encoding="iso-8859-1"?>
<!-- Generator: Adobe Illustrator 22.0.0, SVG Export Plug-In . SVG Version: 6.00 Build 0)  -->
<svg version="1.1" xmlns="http://www.w3.org/2000/svg" xmlns:xlink="http://www.w3.org/1999/xlink" x="0px" y="0px"
	 viewBox="0 0 48 48" style="enable-background:new 0 0 48 48;" xml:space="preserve">
<g id="console_wireless">
	<g id="console_wireless_1_">
		<path style="fill:none;stroke:#000000;stroke-width:0.72;stroke-linejoin:round;stroke-miterlimit:10;" d="M13.202,13.195
			C16.048,10.591,19.839,9,24,9c4.163,0,7.955,1.592,10.801,4.198 M31.969,16.03C29.85,14.146,27.058,13,23.999,13
			c-3.057,0-5.847,1.144-7.966,3.026 M29.133,18.866C27.744,17.702,25.954,17,24,17c-1.952,0-3.741,0.701-5.13,1.863"/>
		<path style="fill:none;stroke:#000000;stroke-width:0.72;stroke-linecap:round;stroke-linejoin:round;stroke-miterlimit:10;" d="
			M37.321,38.373C36.7,38.771,35.961,39,35.168,39c0,0-0.136,0-0.338,0c-1.062,0.001-2.084-0.42-2.834-1.17L29,34.997H19
			l-3.029,2.843C15.222,38.584,14.208,39,13.153,39h-0.321c-0.793,0-1.532-0.229-2.153-0.627c-1.477-0.946-2.02-2.853-1.465-4.517
			l3.162-9.487C12.647,23.552,13.411,23,14.272,23h19.455c0.861,0,1.625,0.552,1.897,1.369l3.163,9.487
			C39.342,35.519,38.799,37.427,37.321,38.373z M13.998,29.5h6 M16.998,26.502v6"/>
		<path d="M32,27.002c0,0.552-0.448,1-1,1s-1-0.448-1-1c0-0.552,0.448-1,1-1S32,26.449,32,27.002z M31,31.001c-0.552,0-1,0.448-1,1
			s0.448,1,1,1s1-0.448,1-1S31.552,31.001,31,31.001z M28.5,28.502c-0.552,0-1,0.448-1,1c0,0.552,0.448,1,1,1c0.552,0,1-0.448,1-1
			C29.5,28.949,29.052,28.502,28.5,28.502z M33.5,28.502c-0.552,0-1,0.448-1,1c0,0.552,0.448,1,1,1s1-0.448,1-1
			C34.5,28.949,34.053,28.502,33.5,28.502z"/>
	</g>
</g>
<g id="Layer_1">
</g>
</svg>
