<?xml version="1.0" encoding="iso-8859-1"?>
<!-- Generator: Adobe Illustrator 22.0.0, SVG Export Plug-In . SVG Version: 6.00 Build 0)  -->
<svg version="1.1" xmlns="http://www.w3.org/2000/svg" xmlns:xlink="http://www.w3.org/1999/xlink" x="0px" y="0px"
	 viewBox="0 0 48 48" style="enable-background:new 0 0 48 48;" xml:space="preserve">
<g id="customer_service">
	<g id="customer_service_1_">
		<path style="fill:none;stroke:#000000;stroke-width:0.72;stroke-linejoin:round;stroke-miterlimit:10;" d="M19.149,25H14v-6
			c0-5.523,4.477-10,10-10s10,4.477,10,10v6l-5.149,0 M39.001,39C39,31,33.77,27.376,27.364,25.857
			c2.899-1.291,4.924-4.192,4.924-7.57v-0.4l0,0.001c-2.811-0.37-5.34-1.638-7.287-3.507l0,0C22.664,16.622,19.493,18,16,18
			c-0.096,0-0.192-0.001-0.288-0.003l0,0v0.29c0,3.379,2.024,6.28,4.924,7.57C14.23,27.376,9,31,9,39 M24,22c-0.552,0-1,0.448-1,1
			s0.448,1,1,1s1-0.448,1-1S24.553,22,24,22z M25,23c3,0,7.288-1.477,7.288-5.113"/>
		<polyline style="fill:none;stroke:#000000;stroke-width:0.72;stroke-linejoin:round;stroke-miterlimit:10;" points="
			17.159,27.151 24,38 30.841,27.151 		"/>
		
			<line style="fill:none;stroke:#000000;stroke-width:0.72;stroke-linejoin:round;stroke-miterlimit:10;" x1="30" y1="36" x2="36" y2="36"/>
	</g>
</g>
<g id="Layer_1">
</g>
</svg>
