<?xml version="1.0" encoding="iso-8859-1"?>
<!-- Generator: Adobe Illustrator 22.0.0, SVG Export Plug-In . SVG Version: 6.00 Build 0)  -->
<svg version="1.1" xmlns="http://www.w3.org/2000/svg" xmlns:xlink="http://www.w3.org/1999/xlink" x="0px" y="0px"
	 viewBox="0 0 48 48" style="enable-background:new 0 0 48 48;" xml:space="preserve">
<g id="delete">
	
		<path id="delete_1_" style="fill:none;stroke:#000000;stroke-width:0.72;stroke-linecap:round;stroke-linejoin:round;stroke-miterlimit:10;" d="
		M29.811,24l7.99,7.99c1.598,1.598,1.598,4.213,0,5.811l0,0c-1.598,1.598-4.213,1.598-5.811,0L24,29.811l-7.99,7.99
		c-1.598,1.598-4.213,1.598-5.811,0l0,0c-1.598-1.598-1.598-4.213,0-5.811l7.99-7.99l-0.005-0.005l-7.985-7.985
		c-1.598-1.598-1.598-4.213,0-5.811l0,0c1.598-1.598,4.213-1.598,5.811,0l7.99,7.99l7.99-7.99c1.598-1.598,4.213-1.598,5.811,0l0,0
		c1.598,1.598,1.598,4.213,0,5.811L29.811,24L29.811,24z"/>
</g>
<g id="Layer_1">
</g>
</svg>
