<?xml version="1.0" encoding="iso-8859-1"?>
<!-- Generator: Adobe Illustrator 22.0.0, SVG Export Plug-In . SVG Version: 6.00 Build 0)  -->
<svg version="1.1" xmlns="http://www.w3.org/2000/svg" xmlns:xlink="http://www.w3.org/1999/xlink" x="0px" y="0px"
	 viewBox="0 0 48 48" style="enable-background:new 0 0 48 48;" xml:space="preserve">
<g id="delivery_truck">
	<path id="delivery_truck_1_" style="fill:none;stroke:#000000;stroke-width:0.72;stroke-linejoin:round;stroke-miterlimit:10;" d="
		M12,33h-1c-1.105,0-2-0.895-2-2v-7h12 M37,15H23 M37,18H25 M37,21H27 M37,24h-8 M37,33h2V12H21v21h10 M18,17v7 M15,30
		c-1.657,0-3,1.343-3,3c0,1.657,1.343,3,3,3s3-1.343,3-3C18,31.343,16.657,30,15,30z M34,30c-1.657,0-3,1.343-3,3
		c0,1.657,1.343,3,3,3s3-1.343,3-3C37,31.343,35.657,30,34,30z M9,24l4.041-7H21v16h-3 M17,26h2"/>
</g>
<g id="Layer_1">
</g>
</svg>
