<?xml version="1.0" encoding="iso-8859-1"?>
<!-- Generator: Adobe Illustrator 22.0.0, SVG Export Plug-In . SVG Version: 6.00 Build 0)  -->
<svg version="1.1" xmlns="http://www.w3.org/2000/svg" xmlns:xlink="http://www.w3.org/1999/xlink" x="0px" y="0px"
	 viewBox="0 0 48 48" style="enable-background:new 0 0 48 48;" xml:space="preserve">
<g id="escalator_down">
	<g id="escalator_down_1_">
		<path style="fill:none;stroke:#000000;stroke-width:0.7169;stroke-miterlimit:10;" d="M32,12c1.105,0,2,0.895,2,2s-0.895,2-2,2
			c-1.105,0-2-0.895-2-2S30.895,12,32,12z M11,37h6v-6 M17,37l-8-8 M35,26v-5c0-1.657-1.343-3-3-3c-1.657,0-3,1.343-3,3"/>
		<path style="fill:none;stroke:#000000;stroke-width:0.72;stroke-linecap:round;stroke-linejoin:round;stroke-miterlimit:10;" d="
			M33.44,28.998L18.028,13.586C17.653,13.211,17.144,13,16.614,13H13c-2.209,0-4,1.791-4,4v0.004c0,2.208,1.79,3.997,3.997,3.997
			h1.532l15.414,15.413C30.318,36.789,30.827,37,31.357,37h3.647C37.211,37,39,35.211,39,33.004V33c0-2.209-1.791-4.001-4.001-4.001
			H33.44"/>
	</g>
</g>
<g id="Layer_1">
</g>
</svg>
