<?xml version="1.0" encoding="iso-8859-1"?>
<!-- Generator: Adobe Illustrator 22.0.0, SVG Export Plug-In . SVG Version: 6.00 Build 0)  -->
<svg version="1.1" xmlns="http://www.w3.org/2000/svg" xmlns:xlink="http://www.w3.org/1999/xlink" x="0px" y="0px"
	 viewBox="0 0 48 48" style="enable-background:new 0 0 48 48;" xml:space="preserve">
<g id="escalator_up">
	<g id="escalator_up_1_">
		<path style="fill:none;stroke:#000000;stroke-width:0.72;stroke-linecap:round;stroke-linejoin:round;stroke-miterlimit:10;" d="
			M14.56,28.998l15.412-15.412C30.347,13.211,30.856,13,31.386,13H35c2.209,0,4,1.791,4,4v0.004c0,2.208-1.79,3.997-3.997,3.997
			h-1.532L18.057,36.414C17.682,36.789,17.173,37,16.643,37H13c-2.209,0-4-1.791-4-4v0c0-2.209,1.791-4.001,4.001-4.001h1.559"/>
		<path style="fill:none;stroke:#000000;stroke-width:0.72;stroke-miterlimit:10;" d="M18,14c0,1.105-0.895,2-2,2s-2-0.895-2-2
			s0.895-2,2-2S18,12.895,18,14z M39,35v-6h-6 M39,29l-8,8 M18.992,21.012C18.992,19.355,17.657,18,16,18s-3,1.343-3,3v5"/>
	</g>
</g>
<g id="Layer_1">
</g>
</svg>
