<?xml version="1.0" encoding="iso-8859-1"?>
<!-- Generator: Adobe Illustrator 22.0.0, SVG Export Plug-In . SVG Version: 6.00 Build 0)  -->
<svg version="1.1" xmlns="http://www.w3.org/2000/svg" xmlns:xlink="http://www.w3.org/1999/xlink" x="0px" y="0px"
	 viewBox="0 0 48 48" style="enable-background:new 0 0 48 48;" xml:space="preserve">
<g id="flow_chart">
	
		<path id="flow_chart_1_" style="fill:none;stroke:#000000;stroke-width:0.72;stroke-linecap:round;stroke-linejoin:round;stroke-miterlimit:10;" d="
		M13,37c0,1.105-0.895,2-2,2s-2-0.895-2-2s0.895-2,2-2S13,35.895,13,37z M19,35c-1.105,0-2,0.895-2,2s0.895,2,2,2
		c1.105,0,2-0.895,2-2S20.104,35,19,35z M29,35c-1.105,0-2,0.895-2,2s0.895,2,2,2s2-0.895,2-2S30.105,35,29,35z M37,35
		c-1.105,0-2,0.895-2,2s0.895,2,2,2s2-0.895,2-2S38.105,35,37,35z M24,13v3.999 M15,25.999v5 M32.993,25.999v5 M33,22v-5H15v5
		 M19,35v-4h-8v4 M37,35v-4h-8v4 M39,9H9v4h30V9z M21,22H9v4h12V22z M39,22H27v4h12V22z"/>
</g>
<g id="Layer_1">
</g>
</svg>
