<?xml version="1.0" encoding="iso-8859-1"?>
<!-- Generator: Adobe Illustrator 22.0.0, SVG Export Plug-In . SVG Version: 6.00 Build 0)  -->
<svg version="1.1" xmlns="http://www.w3.org/2000/svg" xmlns:xlink="http://www.w3.org/1999/xlink" x="0px" y="0px"
	 viewBox="0 0 48 48" style="enable-background:new 0 0 48 48;" xml:space="preserve">
<g id="hail">
	<g id="hail_1_">
		<path d="M18,31c0,0.552-0.448,1-1,1c-0.552,0-1-0.448-1-1s0.448-1,1-1C17.553,30,18,30.448,18,31z M20,35c-0.552,0-1,0.448-1,1
			s0.448,1,1,1c0.552,0,1-0.448,1-1S20.553,35,20,35z M27,35c-0.552,0-1,0.448-1,1s0.448,1,1,1c0.552,0,1-0.448,1-1S27.553,35,27,35
			z M24,30c-0.552,0-1,0.448-1,1s0.448,1,1,1c0.552,0,1-0.448,1-1S24.553,30,24,30z M31,30c-0.552,0-1,0.448-1,1s0.448,1,1,1
			c0.552,0,1-0.448,1-1S31.553,30,31,30z"/>
		<path style="fill:none;stroke:#000000;stroke-width:0.72;stroke-linecap:round;stroke-linejoin:round;stroke-miterlimit:10;" d="
			M39,21.574c0,3.078-2.495,5.393-5.574,5.426H13.631C11.058,26.967,9,25.231,9,22.658C9,20.086,11.058,18,13.631,18
			c0.839,0,1.624,0.225,2.303,0.613C16.32,14.537,19.75,11,23.927,11c3.408,0,6.313,2.304,7.479,5.299
			C31.969,16.108,32.799,16,33.426,16C36.504,16,39,18.495,39,21.574z"/>
	</g>
</g>
<g id="Layer_1">
</g>
</svg>
