<?xml version="1.0" encoding="iso-8859-1"?>
<!-- Generator: Adobe Illustrator 22.0.0, SVG Export Plug-In . SVG Version: 6.00 Build 0)  -->
<svg version="1.1" xmlns="http://www.w3.org/2000/svg" xmlns:xlink="http://www.w3.org/1999/xlink" x="0px" y="0px"
	 viewBox="0 0 48 48" style="enable-background:new 0 0 48 48;" xml:space="preserve">
<g id="headphones">
	<path id="headphones_1_" style="fill:none;stroke:#000000;stroke-width:0.72;stroke-linejoin:round;stroke-miterlimit:10;" d="
		M9,33v-9c0-8.284,6.716-15,15-15s15,6.716,15,15v9 M15,37v-8c0-1.105-0.895-2-2-2h0c-1.105,0-2,0.895-2,2v8c0,1.105,0.895,2,2,2h0
		C14.105,39,15,38.105,15,37z M37,37v-8c0-1.105-0.895-2-2-2h0c-1.105,0-2,0.895-2,2v8c0,1.105,0.895,2,2,2h0
		C36.105,39,37,38.105,37,37z"/>
</g>
<g id="Layer_1">
</g>
</svg>
