<?xml version="1.0" encoding="iso-8859-1"?>
<!-- Generator: Adobe Illustrator 22.0.0, SVG Export Plug-In . SVG Version: 6.00 Build 0)  -->
<svg version="1.1" xmlns="http://www.w3.org/2000/svg" xmlns:xlink="http://www.w3.org/1999/xlink" x="0px" y="0px"
	 viewBox="0 0 48 48" style="enable-background:new 0 0 48 48;" xml:space="preserve">
<g id="justice">
	<path id="justice_2_" style="fill:none;stroke:#000000;stroke-width:0.72;stroke-linejoin:round;stroke-miterlimit:10;" d="M26,19
		c0,1.105-0.895,2-2,2s-2-0.895-2-2s0.895-2,2-2S26,17.895,26,19z M24,36c-1.66,0-3,1.34-3,3h6C27,37.34,25.66,36,24,36z
		 M13.5,15.649L9,23.524c0,2.485,2.015,4.5,4.5,4.5s4.5-2.015,4.5-4.5L13.5,15.649z M9,23.649h9 M34.5,10L30,17.875
		c0,2.485,2.015,4.5,4.5,4.5s4.5-2.015,4.5-4.5L34.5,10z M30,18h9 M34,39h-7h-6h-7 M13.5,15.62l21-5.62 M24,36l0-15 M24,13l0,4"/>
</g>
<g id="Layer_1">
</g>
</svg>
