<?xml version="1.0" encoding="iso-8859-1"?>
<!-- Generator: Adobe Illustrator 22.0.0, SVG Export Plug-In . SVG Version: 6.00 Build 0)  -->
<svg version="1.1" xmlns="http://www.w3.org/2000/svg" xmlns:xlink="http://www.w3.org/1999/xlink" x="0px" y="0px"
	 viewBox="0 0 48 48" style="enable-background:new 0 0 48 48;" xml:space="preserve">
<g id="language">
	<path id="language_1_" style="fill:none;stroke:#000000;stroke-width:0.72;stroke-linejoin:round;stroke-miterlimit:10;" d="
		M32.536,23.028c-0.341-0.342-0.519-0.788-0.519-1.235c0-0.452,0.168-0.922,0.519-1.273c0.34-0.34,0.782-0.513,1.227-0.519
		c0.463-0.007,0.928,0.166,1.281,0.519l0.465,0.464l0.465-0.464c0.345-0.345,0.797-0.518,1.249-0.52
		c0.456-0.001,0.912,0.172,1.259,0.52c0.35,0.35,0.519,0.817,0.519,1.269c0,0.449-0.177,0.897-0.519,1.239L35.508,26L32.536,23.028z
		 M13.994,21.5V20H9l2.335,2.998L9,26h4.994v-1.5 M27.504,12h5 M33.004,9.992c-0.5-0.5-1.271-0.993-2-0.993
		c-1.198,0-2.168,0.744-2.168,2.069c0,1.004,0.883,0.933,0.883,1.931c0,0.899-0.694,1.418-1.715,2h5 M34,39
		c0-4.625-3.145-8.505-7.409-9.648c1.731-0.926,2.91-2.751,2.91-4.852C29.501,21.463,27.038,19,24,19s-5.501,2.463-5.501,5.501
		c0,2.101,1.179,3.925,2.91,4.852C17.156,30.425,14,34.375,14,39 M15.004,10h6 M18.004,8.5V10 M15.004,15c4.709,0,4.498-4,4.498-5
		 M16.539,12c0.348,1.219,1.826,3,4.466,3"/>
</g>
<g id="Layer_1">
</g>
</svg>
