<?xml version="1.0" encoding="iso-8859-1"?>
<!-- Generator: Adobe Illustrator 22.0.0, SVG Export Plug-In . SVG Version: 6.00 Build 0)  -->
<svg version="1.1" xmlns="http://www.w3.org/2000/svg" xmlns:xlink="http://www.w3.org/1999/xlink" x="0px" y="0px"
	 viewBox="0 0 48 48" style="enable-background:new 0 0 48 48;" xml:space="preserve">
<g id="language_translation_alphabet_a_expanded">
	<g id="language_translation_alphabet_a_expanded_1_">
		<path d="M34.986,18l0.774-0.001l-2.437-6.133h-0.669L30.216,18h0.775l0.653-1.641h2.691L34.986,18z M31.929,15.639l1.06-2.666
			l1.059,2.666H31.929z"/>
		
			<rect x="9" y="27" style="fill:none;stroke:#000000;stroke-width:0.72;stroke-linejoin:round;stroke-miterlimit:10;" width="12" height="12"/>
		<path style="fill:none;stroke:#000000;stroke-width:0.72;stroke-miterlimit:10;" d="M39,15c0,3.314-2.686,6-6,6s-6-2.686-6-6
			s2.686-6,6-6S39,11.686,39,15z M24.5,15L17,15c-1.105,0-2,0.897-2,2.002V25 M21.67,12.173l2.828,2.828L21.67,17.83 M33,23.002v8
			C33,32.107,32.105,33,31,33h-7.502 M26.327,35.83l-2.828-2.828l2.828-2.828 M12,31h6 M15,29.5V31 M16.349,31.002
			c0,0,0.358,5-4.351,5 M17.998,36.002c-2.639,0-4.262-2.014-4.582-3.501"/>
	</g>
</g>
<g id="Layer_1">
</g>
</svg>
