<?xml version="1.0" encoding="iso-8859-1"?>
<!-- Generator: Adobe Illustrator 22.0.0, SVG Export Plug-In . SVG Version: 6.00 Build 0)  -->
<svg version="1.1" xmlns="http://www.w3.org/2000/svg" xmlns:xlink="http://www.w3.org/1999/xlink" x="0px" y="0px"
	 viewBox="0 0 48 48" style="enable-background:new 0 0 48 48;" xml:space="preserve">
<g id="locked_network">
	<g id="locked_network_2_">
		<g>
			<path style="fill:none;stroke:#000000;stroke-width:0.72;stroke-linejoin:round;stroke-miterlimit:10;" d="M29,20
				c0,2.761-2.239,5-5,5s-5-2.239-5-5s2.239-5,5-5S29,17.239,29,20z M27,12c0-1.657-1.343-3-3-3s-3,1.343-3,3 M21,12v4 M27,12v4
				 M37,35v-4H11v4 M37,35c-1.105,0-2,0.895-2,2s0.895,2,2,2s2-0.895,2-2S38.105,35,37,35z M24,27v8"/>
			
				<circle style="fill:none;stroke:#000000;stroke-width:0.72;stroke-linejoin:round;stroke-miterlimit:10;" cx="24" cy="37" r="2"/>
			
				<circle style="fill:none;stroke:#000000;stroke-width:0.72;stroke-linejoin:round;stroke-miterlimit:10;" cx="11" cy="37" r="2"/>
			
				<line style="fill:none;stroke:#000000;stroke-width:0.72;stroke-linecap:round;stroke-linejoin:round;stroke-miterlimit:10;" x1="24" y1="19" x2="24" y2="21"/>
			<circle cx="24" cy="19" r="1"/>
		</g>
	</g>
</g>
<g id="Layer_1">
</g>
</svg>
