<?xml version="1.0" encoding="iso-8859-1"?>
<!-- Generator: Adobe Illustrator 22.0.0, SVG Export Plug-In . SVG Version: 6.00 Build 0)  -->
<svg version="1.1" xmlns="http://www.w3.org/2000/svg" xmlns:xlink="http://www.w3.org/1999/xlink" x="0px" y="0px"
	 viewBox="0 0 48 48" style="enable-background:new 0 0 48 48;" xml:space="preserve">
<g id="lungs">
	<g id="lungs_1_">
		<path style="fill:none;stroke:#000000;stroke-width:0.72;stroke-miterlimit:10;" d="M22,9c0,0,0,4.08,0,5.504
			s-0.612,2.866-2,2.866 M26,9c0,0,0,4.08,0,5.504s0.615,2.866,2.003,2.866"/>
		
			<path id="Life_Science_12_4_" style="fill:none;stroke:#000000;stroke-width:0.72;stroke-linecap:round;stroke-miterlimit:10;" d="
			M23.999,19.252c-1.461,0-2.938,0.511-3.997,1.023 M28.003,20.274c-1.059-0.511-2.542-1.023-4.003-1.023 M18.374,13.627
			C14.845,13.627,9,20.823,9,27.653c0,0,0,6.635,0,8.535C9,38.306,9.84,39,11.812,39h7.499C21.357,39,22,38.306,22,36.188
			c0,0,0-6.6,0-8.499c0-1.899-1.999-4.054-1.999-5.624v-6.562C20.001,14.151,19.799,13.627,18.374,13.627z M27.999,15.502v6.562
			c0,1.571-1.999,3.725-1.999,5.624c0,1.899,0,8.499,0,8.499C26,38.306,26.643,39,28.688,39h7.499C38.16,39,39,38.306,39,36.188
			c0-1.899,0-8.535,0-8.535c0-6.83-5.845-14.026-9.374-14.026C28.201,13.627,27.999,14.151,27.999,15.502z M11.003,30.501
			c1.544,0,3.623-1.905,3.623-4.497v-1.769c0-3.47,1.243-7.037,3.75-8.732 M14.625,24.234c0,2.221,0,5.291,0,5.291
			c0,4.638,0.409,7.474,3.751,7.474 M20.003,30.501v-1.875c0-3.427-5.375-1.105-5.375-4.762 M29.624,15.502
			c2.506,1.695,3.75,5.262,3.75,8.732v1.769c0,2.592,2.084,4.497,3.628,4.497 M29.624,36.999c3.341,0,3.751-2.836,3.751-7.474
			c0,0,0-3.07,0-5.291 M33.373,23.864c0,3.657-5.37,1.336-5.37,4.762v1.875"/>
	</g>
</g>
<g id="Layer_1">
</g>
</svg>
