<?xml version="1.0" encoding="iso-8859-1"?>
<!-- Generator: Adobe Illustrator 22.0.0, SVG Export Plug-In . SVG Version: 6.00 Build 0)  -->
<svg version="1.1" id="Layer_1" xmlns="http://www.w3.org/2000/svg" xmlns:xlink="http://www.w3.org/1999/xlink" x="0px" y="0px"
	 viewBox="0 0 48 48" style="enable-background:new 0 0 48 48;" xml:space="preserve">
<g id="machine_learning_05">
	<g id="machine_learning_5_1_">
		
			<rect x="15" y="15" style="fill:none;stroke:#000000;stroke-width:0.72;stroke-linejoin:round;stroke-miterlimit:10;" width="18" height="18"/>
		
			<line style="fill:none;stroke:#000000;stroke-width:0.72;stroke-linejoin:round;stroke-miterlimit:10;" x1="20" y1="15" x2="20" y2="12"/>
		
			<circle style="fill:none;stroke:#000000;stroke-width:0.72;stroke-linejoin:round;stroke-miterlimit:10;" cx="20" cy="10.5" r="1.5"/>
		
			<line style="fill:none;stroke:#000000;stroke-width:0.72;stroke-linejoin:round;stroke-miterlimit:10;" x1="28" y1="15" x2="28" y2="12"/>
		
			<circle style="fill:none;stroke:#000000;stroke-width:0.72;stroke-linejoin:round;stroke-miterlimit:10;" cx="28" cy="10.5" r="1.5"/>
		<circle style="fill:none;stroke:#000000;stroke-width:0.72;stroke-linejoin:round;stroke-miterlimit:10;" cx="24" cy="24" r="7"/>
		
			<line style="fill:none;stroke:#000000;stroke-width:0.72;stroke-linejoin:round;stroke-miterlimit:10;" x1="28" y1="33" x2="28" y2="36"/>
		
			<circle style="fill:none;stroke:#000000;stroke-width:0.72;stroke-linejoin:round;stroke-miterlimit:10;" cx="28" cy="37.5" r="1.5"/>
		
			<line style="fill:none;stroke:#000000;stroke-width:0.72;stroke-linejoin:round;stroke-miterlimit:10;" x1="20" y1="33" x2="20" y2="36"/>
		
			<circle style="fill:none;stroke:#000000;stroke-width:0.72;stroke-linejoin:round;stroke-miterlimit:10;" cx="20" cy="37.5" r="1.5"/>
		
			<line style="fill:none;stroke:#000000;stroke-width:0.72;stroke-linejoin:round;stroke-miterlimit:10;" x1="33" y1="20" x2="36" y2="20"/>
		
			<circle style="fill:none;stroke:#000000;stroke-width:0.72;stroke-linejoin:round;stroke-miterlimit:10;" cx="37.5" cy="20" r="1.5"/>
		
			<line style="fill:none;stroke:#000000;stroke-width:0.72;stroke-linejoin:round;stroke-miterlimit:10;" x1="33" y1="28" x2="36" y2="28"/>
		
			<circle style="fill:none;stroke:#000000;stroke-width:0.72;stroke-linejoin:round;stroke-miterlimit:10;" cx="37.5" cy="28" r="1.5"/>
		
			<line style="fill:none;stroke:#000000;stroke-width:0.72;stroke-linejoin:round;stroke-miterlimit:10;" x1="15" y1="28" x2="12" y2="28"/>
		
			<circle style="fill:none;stroke:#000000;stroke-width:0.72;stroke-linejoin:round;stroke-miterlimit:10;" cx="10.5" cy="28" r="1.5"/>
		
			<line style="fill:none;stroke:#000000;stroke-width:0.72;stroke-linejoin:round;stroke-miterlimit:10;" x1="15" y1="20" x2="12" y2="20"/>
		
			<circle style="fill:none;stroke:#000000;stroke-width:0.72;stroke-linejoin:round;stroke-miterlimit:10;" cx="10.5" cy="20" r="1.5"/>
		<path style="fill:none;stroke:#000000;stroke-width:0.72;stroke-linejoin:round;stroke-miterlimit:10;" d="M28,29.5v-1
			c0-1.798-1.194-3.301-2.827-3.805c0.786-0.421,1.327-1.241,1.327-2.195c0-1.381-1.119-2.5-2.5-2.5s-2.5,1.119-2.5,2.5
			c0,0.954,0.541,1.774,1.327,2.195C21.194,25.199,20,26.702,20,28.5V30"/>
	</g>
</g>
<g id="Layer_1_1_">
</g>
</svg>
