<?xml version="1.0" encoding="iso-8859-1"?>
<!-- Generator: Adobe Illustrator 22.0.0, SVG Export Plug-In . SVG Version: 6.00 Build 0)  -->
<svg version="1.1" id="Layer_1" xmlns="http://www.w3.org/2000/svg" xmlns:xlink="http://www.w3.org/1999/xlink" x="0px" y="0px"
	 viewBox="0 0 48 48" style="enable-background:new 0 0 48 48;" xml:space="preserve">
<g id="machine_learning_01">
	<g id="machine_learning_1_1_">
		<path style="fill:none;stroke:#231F20;stroke-width:0.72;stroke-linejoin:round;stroke-miterlimit:10;" d="M9.001,23.31
			c-0.038,2.182,1.487,4.318,3.695,4.925c-0.549,0.53-1.106,1.494-1.125,2.587c-0.042,2.386,1.866,3.907,4.252,3.949l0.724,0.013
			c0.423,1.266,1.607,2.188,3.017,2.213c1.789,0.031,3.265-1.394,3.296-3.183l0.358-20.517c0.031-1.789-1.394-3.265-3.183-3.296
			c-1.41-0.025-2.626,0.856-3.093,2.106l-0.724-0.012c-2.386-0.042-4.345,1.412-4.387,3.798c-0.019,1.092,0.504,2.075,1.034,2.624
			C10.638,19.046,9.039,21.128,9.001,23.31z"/>
		<circle style="fill:none;stroke:#231F20;stroke-width:0.72;stroke-miterlimit:10;" cx="19.959" cy="14.32" r="1.08"/>
		<circle style="fill:none;stroke:#231F20;stroke-width:0.72;stroke-miterlimit:10;" cx="16.644" cy="18.583" r="1.08"/>
		<circle style="fill:none;stroke:#231F20;stroke-width:0.72;stroke-miterlimit:10;" cx="19.752" cy="26.198" r="1.08"/>
		<circle style="fill:none;stroke:#231F20;stroke-width:0.72;stroke-miterlimit:10;" cx="13.311" cy="23.925" r="1.08"/>
		<circle style="fill:none;stroke:#231F20;stroke-width:0.72;stroke-miterlimit:10;" cx="16.418" cy="31.541" r="1.08"/>
		<line style="fill:none;stroke:#231F20;stroke-width:0.72;stroke-miterlimit:10;" x1="19.94" y1="15.4" x2="19.827" y2="21.879"/>
		
			<line style="fill:none;stroke:#231F20;stroke-width:0.72;stroke-miterlimit:10;" x1="19.733" y1="27.278" x2="19.563" y2="36.996"/>
		<path style="fill:none;stroke:#231F20;stroke-width:0.72;stroke-linejoin:round;stroke-miterlimit:10;" d="M23.067,21.935
			l-5.399-0.094c-0.596-0.01-1.088,0.465-1.099,1.061l-0.132,7.559"/>
		
			<line style="fill:none;stroke:#231F20;stroke-width:0.72;stroke-miterlimit:10;" x1="15.565" y1="18.564" x2="12.514" y2="18.511"/>
		<line style="fill:none;stroke:#231F20;stroke-width:0.72;stroke-miterlimit:10;" x1="16.55" y1="23.982" x2="14.39" y2="23.944"/>
		<path style="fill:none;stroke:#231F20;stroke-width:0.72;stroke-linejoin:round;stroke-miterlimit:10;" d="M39.236,23.838
			c0.038-2.182-1.487-4.318-3.695-4.925c0.549-0.53,1.106-1.494,1.125-2.587c0.042-2.386-1.866-3.907-4.252-3.949l-0.724-0.013
			c-0.423-1.266-1.607-2.188-3.017-2.213c-1.789-0.031-3.265,1.394-3.296,3.183l-0.358,20.517c-0.031,1.789,1.394,3.265,3.183,3.296
			c1.41,0.025,2.626-0.856,3.093-2.106l0.724,0.012c2.386,0.042,4.345-1.412,4.387-3.798c0.019-1.092-0.504-2.075-1.034-2.624
			C37.599,28.101,39.198,26.02,39.236,23.838z"/>
		<circle style="fill:none;stroke:#231F20;stroke-width:0.72;stroke-miterlimit:10;" cx="28.278" cy="32.828" r="1.08"/>
		<circle style="fill:none;stroke:#231F20;stroke-width:0.72;stroke-miterlimit:10;" cx="31.592" cy="28.565" r="1.08"/>
		<circle style="fill:none;stroke:#231F20;stroke-width:0.72;stroke-miterlimit:10;" cx="28.485" cy="20.95" r="1.08"/>
		<circle style="fill:none;stroke:#231F20;stroke-width:0.72;stroke-miterlimit:10;" cx="34.926" cy="23.222" r="1.08"/>
		<circle style="fill:none;stroke:#231F20;stroke-width:0.72;stroke-miterlimit:10;" cx="31.819" cy="15.607" r="1.08"/>
		
			<line style="fill:none;stroke:#231F20;stroke-width:0.72;stroke-miterlimit:10;" x1="28.296" y1="31.748" x2="28.409" y2="25.269"/>
		
			<line style="fill:none;stroke:#231F20;stroke-width:0.72;stroke-miterlimit:10;" x1="28.504" y1="19.87" x2="28.673" y2="10.151"/>
		<path style="fill:none;stroke:#231F20;stroke-width:0.72;stroke-linejoin:round;stroke-miterlimit:10;" d="M25.17,25.212
			l5.399,0.094c0.596,0.01,1.088-0.465,1.099-1.061l0.132-7.559"/>
		
			<line style="fill:none;stroke:#231F20;stroke-width:0.72;stroke-miterlimit:10;" x1="32.672" y1="28.584" x2="35.723" y2="28.637"/>
		
			<line style="fill:none;stroke:#231F20;stroke-width:0.72;stroke-miterlimit:10;" x1="31.687" y1="23.166" x2="33.846" y2="23.204"/>
	</g>
</g>
<g id="Layer_1_1_">
</g>
</svg>
