<?xml version="1.0" encoding="iso-8859-1"?>
<!-- Generator: Adobe Illustrator 22.0.0, SVG Export Plug-In . SVG Version: 6.00 Build 0)  -->
<svg version="1.1" xmlns="http://www.w3.org/2000/svg" xmlns:xlink="http://www.w3.org/1999/xlink" x="0px" y="0px"
	 viewBox="0 0 48 48" style="enable-background:new 0 0 48 48;" xml:space="preserve">
<g id="madrid_cathedral">
	<rect style="fill:#FFFFFF;" width="48" height="48"/>
	<g id="madrid_cathedral_1_">
		<g>
			<polyline style="fill:none;stroke:#000000;stroke-width:0.72;stroke-linejoin:round;stroke-miterlimit:10;" points="39,39 39,30 
				9,30 9,39 			"/>
			
				<line style="fill:none;stroke:#000000;stroke-width:0.72;stroke-linecap:round;stroke-linejoin:round;stroke-miterlimit:10;" x1="32" y1="22" x2="32" y2="24"/>
			
				<line style="fill:none;stroke:#000000;stroke-width:0.72;stroke-linecap:round;stroke-linejoin:round;stroke-miterlimit:10;" x1="34" y1="22" x2="34" y2="24"/>
			
				<line style="fill:none;stroke:#000000;stroke-width:0.72;stroke-linejoin:round;stroke-miterlimit:10;" x1="36" y1="20" x2="36" y2="30"/>
			
				<line style="fill:none;stroke:#000000;stroke-width:0.72;stroke-linejoin:round;stroke-miterlimit:10;" x1="30" y1="22" x2="37" y2="22"/>
			
				<line style="fill:none;stroke:#000000;stroke-width:0.72;stroke-linejoin:round;stroke-miterlimit:10;" x1="37" y1="24" x2="30" y2="24"/>
			
				<line style="fill:none;stroke:#000000;stroke-width:0.72;stroke-linejoin:round;stroke-miterlimit:10;" x1="36" y1="26" x2="32" y2="26"/>
			
				<line style="fill:none;stroke:#000000;stroke-width:0.72;stroke-linecap:round;stroke-linejoin:round;stroke-miterlimit:10;" x1="30" y1="20" x2="30" y2="30"/>
			
				<line style="fill:none;stroke:#000000;stroke-width:0.72;stroke-linecap:round;stroke-linejoin:round;stroke-miterlimit:10;" x1="26" y1="20" x2="26" y2="30"/>
			
				<line style="fill:none;stroke:#000000;stroke-width:0.72;stroke-linecap:round;stroke-linejoin:round;stroke-miterlimit:10;" x1="28" y1="12" x2="28" y2="14"/>
			
				<line style="fill:none;stroke:#000000;stroke-width:0.72;stroke-linecap:round;stroke-linejoin:round;stroke-miterlimit:10;" x1="28" y1="26" x2="28" y2="30"/>
			
				<line style="fill:none;stroke:#000000;stroke-width:0.72;stroke-linecap:round;stroke-linejoin:round;stroke-miterlimit:10;" x1="23" y1="26" x2="23" y2="30"/>
			
				<line style="fill:none;stroke:#000000;stroke-width:0.72;stroke-linecap:round;stroke-linejoin:round;stroke-miterlimit:10;" x1="26" y1="24" x2="30" y2="24"/>
			<polygon style="fill:none;stroke:#000000;stroke-width:0.72;stroke-linejoin:round;stroke-miterlimit:10;" points="28,14 26,20 
				30,20 			"/>
			
				<line style="fill:none;stroke:#000000;stroke-width:0.72;stroke-linecap:round;stroke-linejoin:round;stroke-miterlimit:10;" x1="20" y1="20" x2="20" y2="30"/>
			
				<line style="fill:none;stroke:#000000;stroke-width:0.72;stroke-linecap:round;stroke-linejoin:round;stroke-miterlimit:10;" x1="16" y1="20" x2="16" y2="30"/>
			
				<line style="fill:none;stroke:#000000;stroke-width:0.72;stroke-linecap:round;stroke-linejoin:round;stroke-miterlimit:10;" x1="18" y1="22" x2="18" y2="24"/>
			
				<line style="fill:none;stroke:#000000;stroke-width:0.72;stroke-linecap:round;stroke-linejoin:round;stroke-miterlimit:10;" x1="28" y1="22" x2="28" y2="24"/>
			
				<line style="fill:none;stroke:#000000;stroke-width:0.72;stroke-linecap:round;stroke-linejoin:round;stroke-miterlimit:10;" x1="18" y1="12" x2="18" y2="14"/>
			
				<line style="fill:none;stroke:#000000;stroke-width:0.72;stroke-linecap:round;stroke-linejoin:round;stroke-miterlimit:10;" x1="18" y1="26" x2="18" y2="30"/>
			
				<line style="fill:none;stroke:#000000;stroke-width:0.72;stroke-linecap:round;stroke-linejoin:round;stroke-miterlimit:10;" x1="16" y1="24" x2="20" y2="24"/>
			<polygon style="fill:none;stroke:#000000;stroke-width:0.72;stroke-linejoin:round;stroke-miterlimit:10;" points="18,14 16,20 
				20,20 			"/>
			<path style="fill:none;stroke:#000000;stroke-width:0.72;stroke-linecap:round;stroke-miterlimit:10;" d="M26,24h-2v-1
				c0-0.552-0.448-1-1-1s-1,0.448-1,1v1h-2"/>
			
				<line style="fill:none;stroke:#000000;stroke-width:0.72;stroke-linejoin:round;stroke-miterlimit:10;" x1="12" y1="37" x2="12" y2="39"/>
			
				<line style="fill:none;stroke:#000000;stroke-width:0.72;stroke-linejoin:round;stroke-miterlimit:10;" x1="14" y1="37" x2="14" y2="39"/>
			
				<line style="fill:none;stroke:#000000;stroke-width:0.72;stroke-linejoin:round;stroke-miterlimit:10;" x1="18" y1="37" x2="18" y2="39"/>
			
				<line style="fill:none;stroke:#000000;stroke-width:0.72;stroke-linejoin:round;stroke-miterlimit:10;" x1="20" y1="37" x2="20" y2="39"/>
			
				<line style="fill:none;stroke:#000000;stroke-width:0.72;stroke-linejoin:round;stroke-miterlimit:10;" x1="22" y1="37" x2="22" y2="39"/>
			
				<line style="fill:none;stroke:#000000;stroke-width:0.72;stroke-linejoin:round;stroke-miterlimit:10;" x1="24" y1="37" x2="24" y2="39"/>
			
				<line style="fill:none;stroke:#000000;stroke-width:0.72;stroke-linejoin:round;stroke-miterlimit:10;" x1="26" y1="37" x2="26" y2="39"/>
			
				<line style="fill:none;stroke:#000000;stroke-width:0.72;stroke-linejoin:round;stroke-miterlimit:10;" x1="28" y1="37" x2="28" y2="39"/>
			
				<line style="fill:none;stroke:#000000;stroke-width:0.72;stroke-linejoin:round;stroke-miterlimit:10;" x1="30" y1="37" x2="30" y2="39"/>
			
				<line style="fill:none;stroke:#000000;stroke-width:0.72;stroke-linejoin:round;stroke-miterlimit:10;" x1="32" y1="37" x2="32" y2="39"/>
			
				<line style="fill:none;stroke:#000000;stroke-width:0.72;stroke-linejoin:round;stroke-miterlimit:10;" x1="34" y1="37" x2="34" y2="39"/>
			
				<line style="fill:none;stroke:#000000;stroke-width:0.72;stroke-linejoin:round;stroke-miterlimit:10;" x1="36" y1="37" x2="36" y2="39"/>
			
				<line style="fill:none;stroke:#000000;stroke-width:0.72;stroke-linejoin:round;stroke-miterlimit:10;" x1="16" y1="37" x2="16" y2="39"/>
			<path style="fill:none;stroke:#000000;stroke-width:0.72;stroke-linecap:round;stroke-miterlimit:10;" d="M13,33
				c0-0.552-0.448-1-1-1s-1,0.448-1,1v2h2V33z"/>
			<path style="fill:none;stroke:#000000;stroke-width:0.72;stroke-linecap:round;stroke-miterlimit:10;" d="M17,33
				c0-0.552-0.448-1-1-1c-0.552,0-1,0.448-1,1v2h2V33z"/>
			<path style="fill:none;stroke:#000000;stroke-width:0.72;stroke-linecap:round;stroke-miterlimit:10;" d="M21,33
				c0-0.552-0.448-1-1-1s-1,0.448-1,1v2h2V33z"/>
			<path style="fill:none;stroke:#000000;stroke-width:0.72;stroke-linecap:round;stroke-miterlimit:10;" d="M25,33
				c0-0.552-0.448-1-1-1s-1,0.448-1,1v2h2V33z"/>
			<path style="fill:none;stroke:#000000;stroke-width:0.72;stroke-linecap:round;stroke-miterlimit:10;" d="M29,33
				c0-0.552-0.448-1-1-1s-1,0.448-1,1v2h2V33z"/>
			<path style="fill:none;stroke:#000000;stroke-width:0.72;stroke-linecap:round;stroke-miterlimit:10;" d="M33,33
				c0-0.552-0.448-1-1-1s-1,0.448-1,1v2h2V33z"/>
			<path style="fill:none;stroke:#000000;stroke-width:0.72;stroke-linecap:round;stroke-miterlimit:10;" d="M37,33
				c0-0.552-0.448-1-1-1s-1,0.448-1,1v2h2V33z"/>
			<path style="fill:none;stroke:#000000;stroke-width:0.72;stroke-linecap:round;stroke-linejoin:round;stroke-miterlimit:10;" d="
				M10,27c0-1.105,0.895-2,2-2s2,0.895,2,2"/>
			<path style="fill:none;stroke:#000000;stroke-width:0.72;stroke-linecap:round;stroke-linejoin:round;stroke-miterlimit:10;" d="
				M11,24c0-0.552,0.448-1,1-1s1,0.448,1,1"/>
			
				<line style="fill:none;stroke:#000000;stroke-width:0.72;stroke-linecap:round;stroke-linejoin:round;stroke-miterlimit:10;" x1="10" y1="27" x2="14" y2="27"/>
			
				<line style="fill:none;stroke:#000000;stroke-width:0.72;stroke-linecap:round;stroke-linejoin:round;stroke-miterlimit:10;" x1="11" y1="24" x2="11" y2="25"/>
			
				<line style="fill:none;stroke:#000000;stroke-width:0.72;stroke-linecap:round;stroke-linejoin:round;stroke-miterlimit:10;" x1="13" y1="24" x2="13" y2="25"/>
			
				<line style="fill:none;stroke:#000000;stroke-width:0.72;stroke-linecap:round;stroke-linejoin:round;stroke-miterlimit:10;" x1="12" y1="21" x2="12" y2="23"/>
			
				<line style="fill:none;stroke:#000000;stroke-width:0.72;stroke-linecap:round;stroke-linejoin:round;stroke-miterlimit:10;" x1="10" y1="27" x2="10" y2="30"/>
			
				<line style="fill:none;stroke:#000000;stroke-width:0.72;stroke-linecap:round;stroke-linejoin:round;stroke-miterlimit:10;" x1="14" y1="27" x2="14" y2="30"/>
			<path style="fill:none;stroke:#000000;stroke-width:0.72;stroke-linecap:round;stroke-linejoin:round;stroke-miterlimit:10;" d="
				M31,12c0-0.552,0.448-1,1-1s1,0.448,1,1"/>
			
				<line style="fill:none;stroke:#000000;stroke-width:0.72;stroke-linecap:round;stroke-linejoin:round;stroke-miterlimit:10;" x1="31" y1="12" x2="31" y2="16"/>
			
				<line style="fill:none;stroke:#000000;stroke-width:0.72;stroke-linecap:round;stroke-linejoin:round;stroke-miterlimit:10;" x1="33" y1="12" x2="33" y2="16"/>
			
				<line style="fill:none;stroke:#000000;stroke-width:0.72;stroke-linecap:round;stroke-linejoin:round;stroke-miterlimit:10;" x1="32" y1="9" x2="32" y2="11"/>
			
				<line style="fill:none;stroke:#000000;stroke-width:0.72;stroke-linecap:round;stroke-linejoin:round;stroke-miterlimit:10;" x1="31" y1="13" x2="33" y2="13"/>
			<path style="fill:none;stroke:#000000;stroke-width:0.72;stroke-linejoin:round;stroke-miterlimit:10;" d="M29,17.354
				C29.733,16.524,30.805,16,32,16c2.209,0,4,1.791,4,4"/>
		</g>
		<g>
			<circle cx="34.5" cy="28.5" r="0.5"/>
			<circle cx="32.5" cy="28.5" r="0.5"/>
		</g>
	</g>
</g>
<g id="Layer_1">
</g>
</svg>
