<?xml version="1.0" encoding="iso-8859-1"?>
<!-- Generator: Adobe Illustrator 22.0.0, SVG Export Plug-In . SVG Version: 6.00 Build 0)  -->
<svg version="1.1" xmlns="http://www.w3.org/2000/svg" xmlns:xlink="http://www.w3.org/1999/xlink" x="0px" y="0px"
	 viewBox="0 0 48 48" style="enable-background:new 0 0 48 48;" xml:space="preserve">
<g id="magnify">
	<g id="magnify_1_">
		<path style="fill:none;stroke:#000000;stroke-width:0.72;stroke-miterlimit:10;" d="M37,20c0,6.075-4.925,11-11,11
			s-11-4.925-11-11S19.925,9,26,9S37,13.925,37,20z M39,33l-5.215-5.215 M26,14c-1.657,0-3,1.343-3,3s1.343,3,3,3s3-1.343,3-3
			S27.657,14,26,14z M29,22c-1.657,0-3,1.343-3,3s1.343,3,3,3s3-1.343,3-3S30.657,22,29,22z M15.287,22.462
			C15.772,22.801,16.363,23,17,23c1.657,0,3-1.343,3-3s-1.343-3-3-3c-0.642,0-1.237,0.202-1.725,0.545 M23.028,9.406
			C23.226,10.871,24.481,12,26,12c1.519,0,2.774-1.129,2.973-2.593 M32.6,11.199C32.224,11.701,32,12.324,32,13c0,1.657,1.343,3,3,3
			c0.414,0,0.809-0.084,1.168-0.236"/>
		<path d="M9.5,11c0,0.276-0.224,0.5-0.5,0.5S8.5,11.276,8.5,11s0.224-0.5,0.5-0.5S9.5,10.723,9.5,11z M15,12.5
			c-0.276,0-0.5,0.224-0.5,0.5s0.224,0.5,0.5,0.5s0.5-0.224,0.5-0.5S15.276,12.5,15,12.5z M12,14.5c-0.276,0-0.5,0.224-0.5,0.5
			s0.224,0.5,0.5,0.5s0.5-0.224,0.5-0.5S12.276,14.5,12,14.5z M13,16.5c-0.276,0-0.5,0.224-0.5,0.5s0.224,0.5,0.5,0.5
			s0.5-0.224,0.5-0.5S13.276,16.5,13,16.5z M10,15.5c-0.276,0-0.5,0.224-0.5,0.5s0.224,0.5,0.5,0.5s0.5-0.224,0.5-0.5
			S10.276,15.5,10,15.5z M11,17.5c-0.276,0-0.5,0.224-0.5,0.5s0.224,0.5,0.5,0.5s0.5-0.224,0.5-0.5S11.276,17.5,11,17.5z M9,19.5
			c-0.276,0-0.5,0.224-0.5,0.5s0.224,0.5,0.5,0.5s0.5-0.224,0.5-0.5S9.276,19.5,9,19.5z M12,21.5c-0.276,0-0.5,0.224-0.5,0.5
			s0.224,0.5,0.5,0.5s0.5-0.224,0.5-0.5S12.276,21.5,12,21.5z M10,22.5c-0.276,0-0.5,0.224-0.5,0.5s0.224,0.5,0.5,0.5
			s0.5-0.224,0.5-0.5S10.276,22.5,10,22.5z M15,23.5c-0.276,0-0.5,0.224-0.5,0.5s0.224,0.5,0.5,0.5s0.5-0.224,0.5-0.5
			S15.276,23.5,15,23.5z M12,24.5c-0.276,0-0.5,0.224-0.5,0.5s0.224,0.5,0.5,0.5s0.5-0.224,0.5-0.5S12.276,24.5,12,24.5z M17,28.5
			c-0.276,0-0.5,0.224-0.5,0.5s0.224,0.5,0.5,0.5s0.5-0.224,0.5-0.5S17.276,28.5,17,28.5z M20,30.5c-0.276,0-0.5,0.224-0.5,0.5
			s0.224,0.5,0.5,0.5s0.5-0.224,0.5-0.5S20.276,30.5,20,30.5z M14,29.5c-0.276,0-0.5,0.224-0.5,0.5s0.224,0.5,0.5,0.5
			s0.5-0.224,0.5-0.5S14.276,29.5,14,29.5z M12,30.5c-0.276,0-0.5,0.224-0.5,0.5s0.224,0.5,0.5,0.5s0.5-0.224,0.5-0.5
			S12.276,30.5,12,30.5z M10,31.5c-0.276,0-0.5,0.224-0.5,0.5s0.224,0.5,0.5,0.5s0.5-0.224,0.5-0.5S10.276,31.5,10,31.5z M13,33.5
			c-0.276,0-0.5,0.224-0.5,0.5c0,0.276,0.224,0.5,0.5,0.5s0.5-0.224,0.5-0.5C13.5,33.723,13.276,33.5,13,33.5z M12,35.5
			c-0.276,0-0.5,0.224-0.5,0.5c0,0.276,0.224,0.5,0.5,0.5s0.5-0.224,0.5-0.5C12.5,35.723,12.276,35.5,12,35.5z M16,32.5
			c-0.276,0-0.5,0.224-0.5,0.5s0.224,0.5,0.5,0.5s0.5-0.224,0.5-0.5S16.276,32.5,16,32.5z M19,34.5c-0.276,0-0.5,0.224-0.5,0.5
			s0.224,0.5,0.5,0.5s0.5-0.224,0.5-0.5S19.276,34.5,19,34.5z M29,32.5c-0.276,0-0.5,0.224-0.5,0.5s0.224,0.5,0.5,0.5
			s0.5-0.224,0.5-0.5S29.276,32.5,29,32.5z M22,38.5c-0.276,0-0.5,0.224-0.5,0.5c0,0.276,0.224,0.5,0.5,0.5s0.5-0.224,0.5-0.5
			C22.5,38.723,22.276,38.5,22,38.5z M13,9c-0.276,0-0.5,0.224-0.5,0.5S12.724,10,13,10s0.5-0.224,0.5-0.5S13.276,9,13,9z M17,9.5
			c-0.276,0-0.5,0.224-0.5,0.5s0.224,0.5,0.5,0.5s0.5-0.224,0.5-0.5S17.276,9.5,17,9.5z"/>
	</g>
</g>
<g id="Layer_1">
</g>
</svg>
