<?xml version="1.0" encoding="iso-8859-1"?>
<!-- Generator: Adobe Illustrator 22.0.0, SVG Export Plug-In . SVG Version: 6.00 Build 0)  -->
<svg version="1.1" xmlns="http://www.w3.org/2000/svg" xmlns:xlink="http://www.w3.org/1999/xlink" x="0px" y="0px"
	 viewBox="0 0 48 48" style="enable-background:new 0 0 48 48;" xml:space="preserve">
<g id="mexico_city_x0D_museo_soumaya">
	<rect style="fill:#FFFFFF;" width="48" height="48"/>
	
		<path id="mexico_city_museo_soumaya_2_" style="fill:none;stroke:#000000;stroke-width:0.72;stroke-linejoin:round;stroke-miterlimit:10;" d="
		M23,14v1 M25,14v1 M26,16v1 M24,16v1 M28,16v1 M30,16v1 M25,18v1 M27,18v1 M29,18v1 M28,20v1 M27,22v1 M25,22v1 M29,22v1 M26,24v1
		 M26,20v1 M11.625,34H21 M10.134,36H26 M17,32l2-3h2v3c0,0,18,4,18,4v-4l0,0c-5.144-0.806-8.676-5.629-7.87-10.772
		C31.539,18.614,33.001,16.42,35,15l-13.725-3.851c-0.828-0.232-1.709-0.192-2.512,0.115C18.763,11.265,9,15,9,15
		c5.144,0.806,8.661,5.629,7.855,10.772c-0.249,1.592-0.89,3.009-1.792,4.228C12.842,33,11,34,9,38h22 M39,32H13.418"/>
</g>
<g id="Layer_1">
</g>
</svg>
