<?xml version="1.0" encoding="iso-8859-1"?>
<!-- Generator: Adobe Illustrator 22.0.0, SVG Export Plug-In . SVG Version: 6.00 Build 0)  -->
<svg version="1.1" xmlns="http://www.w3.org/2000/svg" xmlns:xlink="http://www.w3.org/1999/xlink" x="0px" y="0px"
	 viewBox="0 0 48 48" style="enable-background:new 0 0 48 48;" xml:space="preserve">
<g id="network_services">
	
		<path id="network_services_2_" style="fill:none;stroke:#000000;stroke-width:0.72;stroke-linejoin:round;stroke-miterlimit:10;" d="
		M26.5,36.5c0,1.381-1.119,2.5-2.5,2.5s-2.5-1.119-2.5-2.5S22.619,34,24,34S26.5,35.119,26.5,36.5z M28,20
		c-1.381,0-2.5,1.119-2.5,2.5S26.619,25,28,25s2.5-1.119,2.5-2.5S29.381,20,28,20z M28,25v6c0,1.105,0.895,2,2,2h4 M14,33h4
		c1.105,0,2-0.895,2-2v-2 M14,30.5H9v5h5V30.5z M34,30v6l5-3L34,30z M32,27.014L34.5,27c2.485,0,4.5-2.015,4.5-4.5
		S36.985,18,34.5,18C34,18,34,18,34,18c0-4.971-4.029-9-9-9c-3.529,0-6.567,2.042-8.041,5H15.5C11.91,14,9,16.91,9,20.5
		s2.91,6.5,6.5,6.5h6.486c1.105,0,2,0.895,2,2L24,34"/>
</g>
<g id="Layer_1">
</g>
</svg>
