<?xml version="1.0" encoding="iso-8859-1"?>
<!-- Generator: Adobe Illustrator 22.0.0, SVG Export Plug-In . SVG Version: 6.00 Build 0)  -->
<svg version="1.1" xmlns="http://www.w3.org/2000/svg" xmlns:xlink="http://www.w3.org/1999/xlink" x="0px" y="0px"
	 viewBox="0 0 48 48" style="enable-background:new 0 0 48 48;" xml:space="preserve">
<g id="nyc_manhattan_alt">
	<rect style="fill:#FFFFFF;" width="48" height="48"/>
	
		<path id="nyc_manhattan_alt_1_" style="fill:none;stroke:#000000;stroke-width:0.72;stroke-linejoin:round;stroke-miterlimit:10;" d="
		M18,15.998h-6v-5l3-2l3,2V15.998z M13,15.998v4 M17,15.998v4 M24,38.998v-19H9 M24,26.998h8 M39,15.998h-7v23 M11,24.998v-2
		 M15,24.998v-2 M19,24.998v-2 M11,30.998v-2 M15,30.998v-2 M19,30.998v-2 M26.5,30.998v-2 M29.5,30.998v-2 M26.5,34.998v-2
		 M29.5,34.998v-2 M34.5,20.998v-2 M37.5,20.998v-2 M34.5,24.998v-2 M37.5,24.998v-2"/>
</g>
<g id="Layer_1">
</g>
</svg>
