<?xml version="1.0" encoding="iso-8859-1"?>
<!-- Generator: Adobe Illustrator 22.0.0, SVG Export Plug-In . SVG Version: 6.00 Build 0)  -->
<svg version="1.1" xmlns="http://www.w3.org/2000/svg" xmlns:xlink="http://www.w3.org/1999/xlink" x="0px" y="0px"
	 viewBox="0 0 48 48" style="enable-background:new 0 0 48 48;" xml:space="preserve">
<g id="petri_cultures">
	<g id="petri_culture">
		<path d="M24.5,24.001c0,0.276-0.224,0.5-0.5,0.5s-0.5-0.224-0.5-0.5s0.224-0.5,0.5-0.5S24.5,23.725,24.5,24.001z M28.5,13.5
			c-0.552,0-1,0.448-1,1s0.448,1,1,1s1-0.448,1-1S29.052,13.5,28.5,13.5z M16.5,28.5c-0.552,0-1,0.448-1,1s0.448,1,1,1
			c0.552,0,1-0.448,1-1S17.052,28.5,16.5,28.5z M20.501,15c-0.276,0-0.5,0.224-0.5,0.5s0.224,0.5,0.5,0.5s0.5-0.224,0.5-0.5
			S20.777,15,20.501,15z M31,28.5c-0.276,0-0.5,0.224-0.5,0.5s0.224,0.5,0.5,0.5s0.5-0.224,0.5-0.5S31.276,28.5,31,28.5z"/>
		<path style="fill:none;stroke:#000000;stroke-width:0.72;stroke-linecap:round;stroke-linejoin:round;stroke-miterlimit:10;" d="
			M39,24c0,8.284-6.716,15-15,15S9,32.284,9,24S15.716,9,24,9S39,15.716,39,24z M20.5,13c-1.381,0-2.5,1.119-2.5,2.5
			s1.119,2.5,2.5,2.5s2.5-1.119,2.5-2.5S21.881,13,20.5,13z M33,18c-1.381,0-2.5,1.119-2.5,2.5S31.619,23,33,23
			c1.381,0,2.5-1.119,2.5-2.5S34.381,18,33,18z M24.5,30c-1.381,0-2.5,1.119-2.5,2.5c0,1.381,1.119,2.5,2.5,2.5s2.5-1.119,2.5-2.5
			C27,31.119,25.881,30,24.5,30z M14,23c-1.105,0-2,0.895-2,2s0.895,2,2,2s2-0.895,2-2S15.105,23,14,23z"/>
	</g>
</g>
<g id="Layer_1">
</g>
</svg>
