<?xml version="1.0" encoding="iso-8859-1"?>
<!-- Generator: Adobe Illustrator 22.0.0, SVG Export Plug-In . SVG Version: 6.00 Build 0)  -->
<svg version="1.1" xmlns="http://www.w3.org/2000/svg" xmlns:xlink="http://www.w3.org/1999/xlink" x="0px" y="0px"
	 viewBox="0 0 48 48" style="enable-background:new 0 0 48 48;" xml:space="preserve">
<g id="podcast">
	<path id="podcast_1_" style="fill:none;stroke:#000000;stroke-width:0.72;stroke-linejoin:round;stroke-miterlimit:10;" d="
		M13.393,34.607C10.679,31.892,9,28.142,9,24c0-8.284,6.716-15,15-15s15,6.716,15,15c0,4.142-1.679,7.892-4.393,10.607
		 M31.778,31.778C33.769,29.788,35,27.038,35,24c0-6.075-4.925-11-11-11s-11,4.925-11,11c0,3.038,1.231,5.788,3.222,7.778 M24,21
		c-1.657,0-3,1.343-3,3s1.343,3,3,3s3-1.343,3-3S25.657,21,24,21z M24,29v10"/>
</g>
<g id="Layer_1">
</g>
</svg>
