<?xml version="1.0" encoding="iso-8859-1"?>
<!-- Generator: Adobe Illustrator 22.0.0, SVG Export Plug-In . SVG Version: 6.00 Build 0)  -->
<svg version="1.1" xmlns="http://www.w3.org/2000/svg" xmlns:xlink="http://www.w3.org/1999/xlink" x="0px" y="0px"
	 viewBox="0 0 48 48" style="enable-background:new 0 0 48 48;" xml:space="preserve">
<g id="presenter">
	<g id="presenter_1_">
		<path style="fill:none;stroke:#000000;stroke-width:0.72;stroke-linejoin:round;stroke-miterlimit:10;" d="M15,25
			c1.56-2.16,3.905-3.75,6.525-4.37c-2.12-0.95-3.61-3.08-3.61-5.55c0-3.36,2.72-6.08,6.08-6.08s6.08,2.72,6.08,6.08
			c0,2.47-1.49,4.6-3.61,5.55C29.085,21.25,31.44,22.84,33,25 M27.182,35.182c1.757-1.757,1.757-4.607,0-6.364
			c-1.757-1.757-4.607-1.757-6.364,0c-1.757,1.757-1.757,4.607,0,6.364C22.576,36.939,25.425,36.939,27.182,35.182z M22.877,36.328
			L24,32 M27.19,28.831L24,32 M24,32l-3.857-2.262 M35,29.47V25H13v4.47 M13,34.47V39h22v-4.53"/>
		<path style="fill:none;stroke:#000000;stroke-width:0.72;stroke-linejoin:round;stroke-miterlimit:10;" d="M15.5,32
			c0,1.381-1.119,2.5-2.5,2.5s-2.5-1.119-2.5-2.5c0-1.381,1.119-2.5,2.5-2.5S15.5,30.619,15.5,32z M35,29.5
			c-1.381,0-2.5,1.119-2.5,2.5c0,1.381,1.119,2.5,2.5,2.5s2.5-1.119,2.5-2.5C37.5,30.619,36.381,29.5,35,29.5z"/>
	</g>
</g>
<g id="Layer_1">
</g>
</svg>
