<?xml version="1.0" encoding="iso-8859-1"?>
<!-- Generator: Adobe Illustrator 22.0.0, SVG Export Plug-In . SVG Version: 6.00 Build 0)  -->
<svg version="1.1" xmlns="http://www.w3.org/2000/svg" xmlns:xlink="http://www.w3.org/1999/xlink" x="0px" y="0px"
	 viewBox="0 0 48 48" style="enable-background:new 0 0 48 48;" xml:space="preserve">
<g id="private_network_alt_01">
	<g id="private_network_alt_01_1_">
		<path style="fill:none;stroke:#000000;stroke-width:0.72;stroke-linejoin:round;stroke-miterlimit:10;" d="M18,12h15
			c3.313,0,6,2.687,6,6c0,3.314-2.687,6-6,6h-3 M18,24h-3c-3.313,0-6,2.686-6,6c0,3.313,2.687,6,6,6h15"/>
		<circle id="XMLID_563_" cx="24" cy="24" r="0.75"/>
		<path style="fill:none;stroke:#000000;stroke-width:0.72;stroke-linecap:round;stroke-linejoin:round;stroke-miterlimit:10;" d="
			M15,15H9V9h6V15z M39,33h-6v6h6V33z M25.995,21.022v-2.527c0-1.102-0.893-1.995-1.995-1.995c-1.101,0-1.995,0.893-1.995,1.995
			v2.527 M24,24.25v1.5 M28,21h-8v7h8V21z"/>
	</g>
</g>
<g id="Layer_1">
</g>
</svg>
