<?xml version="1.0" encoding="iso-8859-1"?>
<!-- Generator: Adobe Illustrator 22.0.0, SVG Export Plug-In . SVG Version: 6.00 Build 0)  -->
<svg version="1.1" xmlns="http://www.w3.org/2000/svg" xmlns:xlink="http://www.w3.org/1999/xlink" x="0px" y="0px"
	 viewBox="0 0 48 48" style="enable-background:new 0 0 48 48;" xml:space="preserve">
<g id="progress">
	<path id="progress_1_" style="fill:none;stroke:#000000;stroke-width:0.72;stroke-linejoin:round;stroke-miterlimit:10;" d="M17,35
		c0,2.209-1.791,4-4,4s-4-1.791-4-4s1.791-4,4-4S17,32.791,17,35z M39,31h-8v8h8V31z M31,28h8v-8h-8 M39,17V9h-8 M20,39h8l-4-8
		L20,39z M23.994,9.004 M27.994,17.004 M9,24c0,2.209,1.791,4,4,4s4-1.791,4-4s-1.791-4-4-4 M13,17c2.209,0,4-1.791,4-4
		s-1.791-4-4-4 M20,28h8l-4-8 M28,17l-4-8"/>
</g>
<g id="Layer_1">
</g>
</svg>
