<?xml version="1.0" encoding="iso-8859-1"?>
<!-- Generator: Adobe Illustrator 22.0.0, SVG Export Plug-In . SVG Version: 6.00 Build 0)  -->
<svg version="1.1" xmlns="http://www.w3.org/2000/svg" xmlns:xlink="http://www.w3.org/1999/xlink" x="0px" y="0px"
	 viewBox="0 0 48 48" style="enable-background:new 0 0 48 48;" xml:space="preserve">
<g id="puzzle">
	<path id="puzzle_2_" style="fill:none;stroke:#000000;stroke-width:0.72;stroke-linejoin:round;stroke-miterlimit:10;" d="M13,24H9
		V13h4v-0.3c-0.57-0.35-0.96-0.98-0.96-1.7c0-1.11,0.9-2,2-2s2,0.89,2,2c0,0.75-0.42,1.4-1.04,1.74V13h7v5h0.24
		c0.34-0.62,1-1,1.75-1C25.1,17,26,17.9,26,19c0,1.1-0.9,2-2.01,2c-0.72,0-1.35-0.43-1.7-1H22v4h-7 M23.993,28
		c-0.757,0-1.408,0.383-1.75,1H22v-5h-7v-0.256c0.617-0.341,1.04-0.99,1.04-1.744c0-1.104-0.896-2-2-2s-2,0.896-2,2
		c0,0.722,0.386,1.35,0.96,1.701V24H9v11h4v-0.299c-0.574-0.352-0.96-0.979-0.96-1.701c0-1.104,0.896-2,2-2s2,0.896,2,2
		c0,0.754-0.423,1.403-1.04,1.744V35h7v-4h0.285c0.353,0.574,0.983,1,1.708,1C25.101,32,26,31.105,26,30S25.101,28,23.993,28z
		 M22,31v4h4v0.27c-0.57,0.35-0.96,0.98-0.96,1.7c0,1.1,0.86,2.03,1.96,2.03s2.04-0.93,2.04-2.03c0-0.75-0.42-1.4-1.04-1.74V35h7v-4
		h0.29c0.35,0.57,0.98,1,1.7,1C38.1,32,39,31.1,39,30c0-1.1-0.9-2-2.01-2c-0.75,0-1.41,0.38-1.75,1H35v-5H22v5 M22,20v4h13v-4h-0.28
		c-0.36,0.57-0.99,1-1.71,1C31.9,21,31,20.1,31,19c0-1.1,0.9-2,2.01-2c0.75,0,1.41,0.38,1.75,1H35v-5h-7v-0.26
		c0.62-0.34,1.04-0.99,1.04-1.74c0-1.11-0.9-2-2-2c-1.1,0-2,0.89-2,2c0,0.72,0.39,1.35,0.96,1.7V13h-4v5"/>
</g>
<g id="Layer_1">
</g>
</svg>
