<?xml version="1.0" encoding="iso-8859-1"?>
<!-- Generator: Adobe Illustrator 22.0.0, SVG Export Plug-In . SVG Version: 6.00 Build 0)  -->
<svg version="1.1" xmlns="http://www.w3.org/2000/svg" xmlns:xlink="http://www.w3.org/1999/xlink" x="0px" y="0px"
	 viewBox="0 0 48 48" style="enable-background:new 0 0 48 48;" xml:space="preserve">
<g id="rainy_heavy">
	
		<path id="rainy_heavy_1_" style="fill:none;stroke:#000000;stroke-width:0.72;stroke-linecap:round;stroke-linejoin:round;stroke-miterlimit:10;" d="
		M19.861,34.366l1-1.732 M17.361,30.866l1-1.732 M13.361,37.866l1-1.732 M28.361,34.366l1-1.732 M15.361,34.366l1-1.732
		 M23.861,34.366l1-1.732 M25.861,30.866l1-1.732 M21.861,30.866l1-1.732 M30.361,30.866l1-1.732 M21.861,37.866l1-1.732
		 M17.861,37.866l1-1.732 M26.361,37.866l1-1.732 M33.426,15c-0.627,0-1.458,0.108-2.02,0.299C30.24,12.304,27.335,10,23.927,10
		c-4.177,0-7.606,3.537-7.992,7.613C15.254,17.225,14.469,17,13.631,17C11.058,17,9,19.086,9,21.658
		c0,2.573,2.058,4.309,4.631,4.342h19.795C36.504,25.967,39,23.652,39,20.574S36.504,15,33.426,15z"/>
</g>
<g id="Layer_1">
</g>
</svg>
