<?xml version="1.0" encoding="iso-8859-1"?>
<!-- Generator: Adobe Illustrator 22.0.0, SVG Export Plug-In . SVG Version: 6.00 Build 0)  -->
<svg version="1.1" xmlns="http://www.w3.org/2000/svg" xmlns:xlink="http://www.w3.org/1999/xlink" x="0px" y="0px"
	 viewBox="0 0 48 48" style="enable-background:new 0 0 48 48;" xml:space="preserve">
<g id="refinery">
	<g id="refinery_2_">
		
			<line style="fill:none;stroke:#000000;stroke-width:0.72;stroke-linejoin:round;stroke-miterlimit:10;" x1="40" y1="39" x2="8" y2="39"/>
		<path style="fill:none;stroke:#000000;stroke-width:0.72;stroke-linecap:round;stroke-linejoin:round;stroke-miterlimit:10;" d="
			M10,9c0,1.311,0.945,2,1.999,2l0,0c1.311,0,1.999,0.946,1.999,2 M16,12c0-2-1-3-3-3 M16,25.171V20h-4v12 M28,39V17h-4v22 M39,39
			V25h-9v14 M10.5,17c0,1.063,0.739,2.374,1.5,3l4,0c0.761-0.626,1.5-1.937,1.5-3c0-1.063-0.739-2.374-1.5-3l-4,0
			C11.238,14.626,10.5,15.937,10.5,17z M14,28 M16,39v-3h-4v3 M9,34c0,0.805,0.442,1.526,1,2h8c0.558-0.474,1-1.195,1-2
			c0-0.805-0.442-1.526-1-2h-8C9.441,32.474,9,33.195,9,34z M30,36h9 M21,24.001 M27,17v-2c0-1.657-1.343-3-3-3h-2
			c-1.657,0-3,1.343-3,3v9c0,0.552-0.448,1-1,1h-1c-1.657,0-3,1.343-3,3l0,4 M25,17v-2c0-0.552-0.448-1-1-1h-2c-0.552,0-1,0.448-1,1
			c0,0.691,0,9,0,9c0,1.657-1.343,3-3,3h-1c-0.552,0-1,0.448-1,1v4"/>
	</g>
</g>
<g id="Layer_1">
</g>
</svg>
