<?xml version="1.0" encoding="iso-8859-1"?>
<!-- Generator: Adobe Illustrator 22.0.0, SVG Export Plug-In . SVG Version: 6.00 Build 0)  -->
<svg version="1.1" xmlns="http://www.w3.org/2000/svg" xmlns:xlink="http://www.w3.org/1999/xlink" x="0px" y="0px"
	 viewBox="0 0 48 48" style="enable-background:new 0 0 48 48;" xml:space="preserve">
<g id="reset_settings">
	<path id="reset_settings_1_" style="fill:none;stroke:#000000;stroke-width:0.72;stroke-miterlimit:10;" d="M37,35.232H24
		c-7.18,0-13-5.82-13-13s5.82-13,13-13s13,5.82,13,13 M33.464,38.768L37,35.232l-3.536-3.536 M31.5,23.979v-2.957h-1.942
		l-0.578-1.41l1.369-1.369l-2.091-2.091l-1.373,1.373l-1.406-0.588V15h-2.957v1.942l-1.41,0.578l-1.369-1.369l-2.091,2.091
		l1.373,1.373l-0.588,1.406H16.5v2.957h1.942l0.578,1.41l-1.369,1.369l2.091,2.091l1.373-1.373l1.406,0.588V30h2.957v-1.942
		l1.41-0.578l1.369,1.369l2.091-2.091l-1.373-1.373l0.588-1.406H31.5z"/>
</g>
<g id="Layer_1">
</g>
</svg>
