<?xml version="1.0" encoding="iso-8859-1"?>
<!-- Generator: Adobe Illustrator 22.0.0, SVG Export Plug-In . SVG Version: 6.00 Build 0)  -->
<svg version="1.1" xmlns="http://www.w3.org/2000/svg" xmlns:xlink="http://www.w3.org/1999/xlink" x="0px" y="0px"
	 viewBox="0 0 48 48" style="enable-background:new 0 0 48 48;" xml:space="preserve">
<g id="retrieve_and_rank">
	
		<path id="retrieve_and_rank_1_" style="fill:none;stroke:#000000;stroke-width:0.72;stroke-linejoin:round;stroke-miterlimit:10;" d="
		M21,15h-6v-3h6V15z M27.55,12h-3.078v3H29.8 M29.8,25.001h-5.328v3h3.077 M20,18.5h-8v3h8V18.5z M30.882,18.5H23v3h7.883
		 M21,25.001h-6v3h6V25.001z M39,19.999h-8 M39,22.999h-8.414 M39,13.999h-9.779 M39,16.999h-8.414 M20,9C13.925,9,9,13.925,9,20
		s4.925,11,11,11s11-4.925,11-11S26.075,9,20,9z M27.785,27.784L39,39"/>
</g>
<g id="Layer_1">
</g>
</svg>
