<?xml version="1.0" encoding="iso-8859-1"?>
<!-- Generator: Adobe Illustrator 22.0.0, SVG Export Plug-In . SVG Version: 6.00 Build 0)  -->
<svg version="1.1" xmlns="http://www.w3.org/2000/svg" xmlns:xlink="http://www.w3.org/1999/xlink" x="0px" y="0px"
	 viewBox="0 0 48 48" style="enable-background:new 0 0 48 48;" xml:space="preserve">
<g id="saas_enablement">
	<g id="saas_enablement_1_">
		<path style="fill:none;stroke:#000000;stroke-width:0.72;stroke-linejoin:round;stroke-miterlimit:10;" d="M14,11.5
			c0,1.381-1.119,2.5-2.5,2.5S9,12.881,9,11.5S10.119,9,11.5,9S14,10.119,14,11.5z M11.5,21.5C10.119,21.5,9,22.619,9,24
			s1.119,2.5,2.5,2.5S14,25.381,14,24S12.881,21.5,11.5,21.5z M36.5,9c-1.381,0-2.5,1.119-2.5,2.5s1.119,2.5,2.5,2.5
			s2.5-1.119,2.5-2.5S37.881,9,36.5,9z M36.5,21.5c-1.381,0-2.5,1.119-2.5,2.5s1.119,2.5,2.5,2.5S39,25.381,39,24
			S37.881,21.5,36.5,21.5z M24,9c-1.381,0-2.5,1.119-2.5,2.5S22.619,14,24,14s2.5-1.119,2.5-2.5S25.381,9,24,9z M11.5,34
			C10.119,34,9,35.119,9,36.5s1.119,2.5,2.5,2.5s2.5-1.119,2.5-2.5S12.881,34,11.5,34z M36.5,34c-1.381,0-2.5,1.119-2.5,2.5
			s1.119,2.5,2.5,2.5s2.5-1.119,2.5-2.5S37.881,34,36.5,34z M24,34c-1.381,0-2.5,1.119-2.5,2.5S22.619,39,24,39s2.5-1.119,2.5-2.5
			S25.381,34,24,34z M30,18H18v12h12V18z M18,22h12 M20,26h8"/>
		<circle cx="28" cy="20" r="0.5"/>
	</g>
</g>
<g id="Layer_1">
</g>
</svg>
