<?xml version="1.0" encoding="iso-8859-1"?>
<!-- Generator: Adobe Illustrator 22.0.0, SVG Export Plug-In . SVG Version: 6.00 Build 0)  -->
<svg version="1.1" xmlns="http://www.w3.org/2000/svg" xmlns:xlink="http://www.w3.org/1999/xlink" x="0px" y="0px"
	 viewBox="0 0 48 48" style="enable-background:new 0 0 48 48;" xml:space="preserve">
<g id="san_francisco">
	<rect style="fill:#FFFFFF;" width="48" height="48"/>
	<g id="san_francisco_1_">
		<g>
			<line style="fill:none;stroke:#000000;stroke-width:0.72;stroke-miterlimit:10;" x1="28" y1="39" x2="28" y2="9"/>
			<line style="fill:none;stroke:#000000;stroke-width:0.72;stroke-miterlimit:10;" x1="20" y1="39" x2="20" y2="9"/>
			<line style="fill:none;stroke:#000000;stroke-width:0.72;stroke-miterlimit:10;" x1="9" y1="28" x2="39" y2="28"/>
			<line style="fill:none;stroke:#000000;stroke-width:0.72;stroke-miterlimit:10;" x1="9" y1="30" x2="39" y2="30"/>
			<line style="fill:none;stroke:#000000;stroke-width:0.72;stroke-miterlimit:10;" x1="20.028" y1="14" x2="28.028" y2="14"/>
			<line style="fill:none;stroke:#000000;stroke-width:0.72;stroke-miterlimit:10;" x1="20.028" y1="12" x2="28.028" y2="12"/>
			<line style="fill:none;stroke:#000000;stroke-width:0.72;stroke-miterlimit:10;" x1="20.028" y1="22" x2="28.028" y2="22"/>
			<line style="fill:none;stroke:#000000;stroke-width:0.72;stroke-miterlimit:10;" x1="20.028" y1="20" x2="28.028" y2="20"/>
			<line style="fill:none;stroke:#000000;stroke-width:0.72;stroke-miterlimit:10;" x1="20.028" y1="34" x2="28.028" y2="34"/>
			<line style="fill:none;stroke:#000000;stroke-width:0.72;stroke-miterlimit:10;" x1="20.028" y1="36" x2="28.028" y2="36"/>
			<line style="fill:none;stroke:#000000;stroke-width:0.72;stroke-miterlimit:10;" x1="32.028" y1="20.943" x2="32.028" y2="28"/>
			<line style="fill:none;stroke:#000000;stroke-width:0.72;stroke-miterlimit:10;" x1="36.028" y1="23.316" x2="36.028" y2="28"/>
			<line style="fill:none;stroke:#000000;stroke-width:0.72;stroke-miterlimit:10;" x1="16.028" y1="20.943" x2="16.028" y2="28"/>
			<line style="fill:none;stroke:#000000;stroke-width:0.72;stroke-miterlimit:10;" x1="12.028" y1="23.316" x2="12.028" y2="28"/>
			<line style="fill:none;stroke:#000000;stroke-width:0.72;stroke-miterlimit:10;" x1="22" y1="12" x2="22" y2="14"/>
			<line style="fill:none;stroke:#000000;stroke-width:0.72;stroke-miterlimit:10;" x1="24" y1="12" x2="24" y2="14"/>
			<line style="fill:none;stroke:#000000;stroke-width:0.72;stroke-miterlimit:10;" x1="26" y1="12" x2="26" y2="14"/>
			<line style="fill:none;stroke:#000000;stroke-width:0.72;stroke-miterlimit:10;" x1="22" y1="20" x2="22" y2="22"/>
			<line style="fill:none;stroke:#000000;stroke-width:0.72;stroke-miterlimit:10;" x1="24" y1="20" x2="24" y2="22"/>
			<line style="fill:none;stroke:#000000;stroke-width:0.72;stroke-miterlimit:10;" x1="26" y1="20" x2="26" y2="22"/>
			<line style="fill:none;stroke:#000000;stroke-width:0.72;stroke-miterlimit:10;" x1="22" y1="34" x2="22" y2="36"/>
			<line style="fill:none;stroke:#000000;stroke-width:0.72;stroke-miterlimit:10;" x1="24" y1="34" x2="24" y2="36"/>
			<line style="fill:none;stroke:#000000;stroke-width:0.72;stroke-miterlimit:10;" x1="26" y1="34" x2="26" y2="36"/>
		</g>
		<g>
			<path d="M36.12,22.977c-1.436-0.508-2.741-1.282-3.88-2.302c-2.466-2.207-3.88-5.368-3.88-8.675H27.64
				c0,3.511,1.502,6.868,4.12,9.212c1.209,1.082,2.596,1.904,4.12,2.444c1.008,0.356,2.054,0.576,3.12,0.662v-0.721
				C38.016,23.513,37.051,23.306,36.12,22.977z"/>
		</g>
		<g>
			<path d="M19.64,12c0,3.307-1.414,6.468-3.88,8.675c-1.139,1.02-2.444,1.794-3.88,2.302c-0.931,0.329-1.896,0.537-2.88,0.62v0.721
				c1.066-0.086,2.112-0.306,3.12-0.662c1.524-0.54,2.911-1.362,4.12-2.444c2.618-2.344,4.12-5.701,4.12-9.212H19.64z"/>
		</g>
	</g>
</g>
<g id="Layer_1">
</g>
</svg>
