<?xml version="1.0" encoding="iso-8859-1"?>
<!-- Generator: Adobe Illustrator 22.0.0, SVG Export Plug-In . SVG Version: 6.00 Build 0)  -->
<svg version="1.1" xmlns="http://www.w3.org/2000/svg" xmlns:xlink="http://www.w3.org/1999/xlink" x="0px" y="0px"
	 viewBox="0 0 48 48" style="enable-background:new 0 0 48 48;" xml:space="preserve">
<g id="secure_profile">
	<g id="secure_profile_2_">
		
			<line id="XMLID_462_" style="fill:none;stroke:#000000;stroke-width:0.72;stroke-linecap:round;stroke-linejoin:round;stroke-miterlimit:10;" x1="31.5" y1="30.499" x2="31.5" y2="33.415"/>
		<circle cx="31.5" cy="30.5" r="1"/>
		<path style="fill:none;stroke:#000000;stroke-width:0.72;stroke-linejoin:round;stroke-miterlimit:10;" d="M24,27v12h15V24H9V9h15
			v12.013 M34.999,24L35,19.5c0-1.925-1.575-3.5-3.5-3.5h-0.001C29.575,16,28,17.575,28,19.5V24 M21,24v-2.999
			c0-2.059-1.409-3.787-3.304-4.317c0.775-0.425,1.307-1.238,1.307-2.184c0-1.381-1.119-2.5-2.5-2.5c-1.381,0-2.5,1.119-2.5,2.5
			c0,0.945,0.531,1.758,1.305,2.183C13.41,17.212,12,18.941,12,21.001V24"/>
	</g>
</g>
<g id="Layer_1">
</g>
</svg>
