<?xml version="1.0" encoding="iso-8859-1"?>
<!-- Generator: Adobe Illustrator 22.0.0, SVG Export Plug-In . SVG Version: 6.00 Build 0)  -->
<svg version="1.1" xmlns="http://www.w3.org/2000/svg" xmlns:xlink="http://www.w3.org/1999/xlink" x="0px" y="0px"
	 viewBox="0 0 48 48" style="enable-background:new 0 0 48 48;" xml:space="preserve">
<g id="sneaker">
	<path id="sneaker_1_" style="fill:none;stroke:#000000;stroke-width:0.72;stroke-linejoin:round;stroke-miterlimit:10;" d="
		M9,33.205h30 M26.308,24.749l-1.485,2.449 M26.839,28.315l1.47-2.424 M30.309,27.033l-1.455,2.399 M16,21c-1.657,0-3,1.343-3,3
		s1.343,3,3,3s3-1.343,3-3S17.657,21,16,21z M9,35h28.501l0-0.002C38.332,34.989,39,34.168,39,33.154
		c0-0.646-0.27-1.213-0.683-1.543l0.001-0.004L22,22.29v-2.378V13.5L11,20l-2,7V35z"/>
</g>
<g id="Layer_1">
</g>
</svg>
