<?xml version="1.0" encoding="iso-8859-1"?>
<!-- Generator: Adobe Illustrator 22.0.0, SVG Export Plug-In . SVG Version: 6.00 Build 0)  -->
<svg version="1.1" xmlns="http://www.w3.org/2000/svg" xmlns:xlink="http://www.w3.org/1999/xlink" x="0px" y="0px"
	 viewBox="0 0 48 48" style="enable-background:new 0 0 48 48;" xml:space="preserve">
<g id="soft_ice_cream">
	
		<path id="soft_ice_cream_1_" style="fill:none;stroke:#000000;stroke-width:0.72;stroke-linecap:round;stroke-linejoin:round;stroke-miterlimit:10;" d="
		M28,16c1.875,0,3.125,1.113,3.125,2.5c0,1.25-0.531,2.041-1.825,2.5 M18.353,21.176 M23,16h-3.25 M20,32l1,7h6l1-7H20z M18,28l1,4
		h10l1-4 M25,9c-3.562,1-5,2.5-5,4.5c0,0.688,0.367,2.013,1,2.5 M28,16c0.542-0.393,1-1.143,1-2c0-1.46-1.266-1.785-2.5-2.18
		C25.5,11.5,25,10.663,25,9 M20,21h-0.994C16.79,21,15,22.194,15,24.41S16.79,28,19.006,28h10.082C31.281,28,33,26.49,33,24.41
		C33,22.69,31.75,21,29.132,21h-3.913 M19.5,16c-1.381,0-2.5,1.119-2.5,2.5s1.119,2.5,2.5,2.5"/>
</g>
<g id="Layer_1">
</g>
</svg>
