<?xml version="1.0" encoding="iso-8859-1"?>
<!-- Generator: Adobe Illustrator 22.0.0, SVG Export Plug-In . SVG Version: 6.00 Build 0)  -->
<svg version="1.1" xmlns="http://www.w3.org/2000/svg" xmlns:xlink="http://www.w3.org/1999/xlink" x="0px" y="0px"
	 viewBox="0 0 48 48" style="enable-background:new 0 0 48 48;" xml:space="preserve">
<g id="solve">
	<g id="solve_1_">
		<g>
			
				<circle style="fill:none;stroke:#000000;stroke-width:0.72;stroke-linecap:round;stroke-linejoin:round;stroke-dasharray:0.0198,1.9765;" cx="35.495" cy="35.495" r="3.5"/>
		</g>
		<path style="fill:none;stroke:#000000;stroke-width:0.72;stroke-linecap:round;stroke-linejoin:round;stroke-miterlimit:10;" d="
			M27.5,16h-7V9h7V16z M16,32H9v7h7V32z M39,20.5h-7v7h7V20.5z M24,20.5c-1.933,0-3.5,1.567-3.5,3.5s1.567,3.5,3.5,3.5
			s3.5-1.567,3.5-3.5S25.933,20.5,24,20.5z M12.5,9C10.567,9,9,10.567,9,12.5s1.567,3.5,3.5,3.5s3.5-1.567,3.5-3.5S14.433,9,12.5,9z
			 M24,33l-3.5,6h7L24,33z M12.5,21L9,27h7L12.5,21z M35.5,9L32,15h7L35.5,9z"/>
	</g>
</g>
<g id="Layer_1">
</g>
</svg>
