<?xml version="1.0" encoding="iso-8859-1"?>
<!-- Generator: Adobe Illustrator 22.0.0, SVG Export Plug-In . SVG Version: 6.00 Build 0)  -->
<svg version="1.1" xmlns="http://www.w3.org/2000/svg" xmlns:xlink="http://www.w3.org/1999/xlink" x="0px" y="0px"
	 viewBox="0 0 48 48" style="enable-background:new 0 0 48 48;" xml:space="preserve">
<g id="speech">
	<path id="speech_2_" style="fill:none;stroke:#000000;stroke-width:0.72;stroke-linejoin:round;stroke-miterlimit:10;" d="
		M29.006,12h6 M32.006,10.498V12 M29.006,17c4.709,0,4.351-5,4.351-5 M30.424,13.5C30.744,14.987,32.367,17,35.006,17 M33.994,39
		c0-4.625-3.145-8.505-7.409-9.648c1.731-0.926,2.91-2.751,2.91-4.852c0-3.038-2.463-5.501-5.501-5.501s-5.501,2.463-5.501,5.501
		c0,2.101,1.179,3.925,2.91,4.852c-4.265,1.143-7.409,5.023-7.409,9.648 M18.391,19l-2.385-6l-2.385,6 M14.36,17h3.271 M23,17v-4
		c0-1.105-0.895-2-2-2H11c-1.105,0-2,0.895-2,2v7c0,1.105,0.895,2,2,2h3l2,4 M32,24l2-4h3c1.1,0,2-0.9,2-2v-7c0-1.1-0.9-2-2-2H27
		c-1.1,0-2,0.9-2,2v4"/>
</g>
<g id="Layer_1">
</g>
</svg>
