<?xml version="1.0" encoding="iso-8859-1"?>
<!-- Generator: Adobe Illustrator 22.0.0, SVG Export Plug-In . SVG Version: 6.00 Build 0)  -->
<svg version="1.1" xmlns="http://www.w3.org/2000/svg" xmlns:xlink="http://www.w3.org/1999/xlink" x="0px" y="0px"
	 viewBox="0 0 48 48" style="enable-background:new 0 0 48 48;" xml:space="preserve">
<g id="support_services">
	<g id="support_services_1_">
		
			<path id="technology-support-services_1_" style="fill:none;stroke:#000000;stroke-width:0.72;stroke-linejoin:round;stroke-miterlimit:10;" d="
			M27,27h-6v-6h6V27z M17,17v-0.501c0-1.827-1.232-3.35-2.905-3.829C14.639,12.313,15,11.699,15,11c0-1.104-0.895-2-2-2
			s-2,0.895-2,2c0,0.699,0.36,1.313,0.904,1.671C10.232,13.149,9,14.673,9,16.499V17 M29,24h4.5c3.038,0,5.5-2.462,5.5-5.5
			S36.538,13,33.5,13H19 M19,24h-4.5C11.462,24,9,26.462,9,29.5s2.462,5.5,5.5,5.5H29 M39,39v-0.501c0-1.827-1.232-3.35-2.905-3.829
			C36.639,34.313,37,33.699,37,33c0-1.104-0.895-2-2-2s-2,0.895-2,2c0,0.699,0.36,1.313,0.904,1.671
			C32.232,35.149,31,36.673,31,38.499V39"/>
		<polyline style="fill:none;stroke:#000000;stroke-width:0.72;stroke-miterlimit:10;" points="26,38 29,34.99 26,32 		"/>
	</g>
</g>
<g id="Layer_1">
</g>
</svg>
