<?xml version="1.0" encoding="iso-8859-1"?>
<!-- Generator: Adobe Illustrator 22.0.0, SVG Export Plug-In . SVG Version: 6.00 Build 0)  -->
<svg version="1.1" xmlns="http://www.w3.org/2000/svg" xmlns:xlink="http://www.w3.org/1999/xlink" x="0px" y="0px"
	 viewBox="0 0 48 48" style="enable-background:new 0 0 48 48;" xml:space="preserve">
<g id="swipe_left">
	<g id="swipe_left_1_">
		<path style="fill:none;stroke:#000000;stroke-width:0.72;stroke-miterlimit:10;" d="M20,15L9,15 M12,12l-3,3l3,3"/>
		
			<path id="_x3C_Compound_Path_x3E__4_" style="fill:none;stroke:#000000;stroke-width:0.72;stroke-linejoin:round;stroke-miterlimit:10;" d="
			M24,15c0-1.186,0.821-2,2-2h-0.003C27.176,13,28,13.814,28,15v8c0,0,4.663,0,6.913,0S39,24.541,39,26.776c0,0,0,2.758,0,4.01
			C39,35.478,37.706,39,30.769,39c-4.829,0-7.104-2.056-10.134-5.48c-0.845-0.955-3.439-3.765-3.439-3.765
			C16.365,28.819,15,27.415,15,26.985c0-1.299,3.219-2.011,4.792-0.803C21.008,27.116,24,30.5,24,30.5V15z M30.006,19.46
			c1.23-1.09,2-2.69,2-4.46c0-3.31-2.69-6-6-6s-6,2.69-6,6c0,1.77,0.77,3.37,2,4.46"/>
	</g>
</g>
<g id="Layer_1">
</g>
</svg>
