<?xml version="1.0" encoding="iso-8859-1"?>
<!-- Generator: Adobe Illustrator 22.0.0, SVG Export Plug-In . SVG Version: 6.00 Build 0)  -->
<svg version="1.1" xmlns="http://www.w3.org/2000/svg" xmlns:xlink="http://www.w3.org/1999/xlink" x="0px" y="0px"
	 viewBox="0 0 48 48" style="enable-background:new 0 0 48 48;" xml:space="preserve">
<g id="t-SNE_chart">
	<g id="t-SNE_chart_1_">
		<path style="fill:none;stroke:#000000;stroke-width:0.72;stroke-linejoin:round;stroke-miterlimit:10;" d="M21,35.5
			c0,0.829-0.671,1.5-1.5,1.5c-0.829,0-1.5-0.671-1.5-1.5c0-0.829,0.671-1.5,1.5-1.5C20.329,34,21,34.671,21,35.5z M32.5,26
			c-0.829,0-1.5,0.671-1.5,1.5c0,0.829,0.671,1.5,1.5,1.5c0.829,0,1.5-0.671,1.5-1.5C34,26.671,33.329,26,32.5,26z M35.5,22
			c-0.829,0-1.5,0.671-1.5,1.5c0,0.829,0.671,1.5,1.5,1.5c0.829,0,1.5-0.671,1.5-1.5C37,22.671,36.329,22,35.5,22z M15.5,31
			c-0.829,0-1.5,0.671-1.5,1.5c0,0.829,0.671,1.5,1.5,1.5c0.829,0,1.5-0.671,1.5-1.5C17,31.671,16.329,31,15.5,31z M17.5,15
			c-0.829,0-1.5,0.671-1.5,1.5c0,0.829,0.671,1.5,1.5,1.5c0.829,0,1.5-0.671,1.5-1.5C19,15.671,18.329,15,17.5,15z M22.5,10
			c-0.829,0-1.5,0.671-1.5,1.5c0,0.829,0.671,1.5,1.5,1.5c0.829,0,1.5-0.671,1.5-1.5C24,10.671,23.329,10,22.5,10z"/>
		<path d="M38,28c0,0.552-0.448,1-1,1c-0.552,0-1-0.448-1-1c0-0.552,0.448-1,1-1C37.552,27,38,27.448,38,28 M32,23
			c0-0.552-0.448-1-1-1c-0.552,0-1,0.448-1,1c0,0.552,0.448,1,1,1C31.552,24,32,23.552,32,23 M14,36c0-0.552-0.448-1-1-1
			c-0.552,0-1,0.448-1,1c0,0.552,0.448,1,1,1C13.552,37,14,36.552,14,36 M29,27c0-0.552-0.448-1-1-1c-0.552,0-1,0.448-1,1
			c0,0.552,0.448,1,1,1C28.552,28,29,27.552,29,27 M30.5,31c0-0.552-0.448-1-1-1c-0.552,0-1,0.448-1,1c0,0.552,0.448,1,1,1
			C30.052,32,30.5,31.552,30.5,31 M12,31c0-0.552-0.448-1-1-1c-0.552,0-1,0.448-1,1c0,0.552,0.448,1,1,1C11.552,32,12,31.552,12,31
			 M16.5,28c0-0.552-0.448-1-1-1c-0.552,0-1,0.448-1,1c0,0.552,0.448,1,1,1C16.052,29,16.5,28.552,16.5,28 M20.5,30
			c0-0.552-0.448-1-1-1c-0.552,0-1,0.448-1,1c0,0.552,0.448,1,1,1C20.052,31,20.5,30.552,20.5,30 M19,12.5c0-0.552-0.448-1-1-1
			c-0.552,0-1,0.448-1,1c0,0.552,0.448,1,1,1C18.552,13.5,19,13.052,19,12.5 M21,20c0-0.552-0.448-1-1-1c-0.552,0-1,0.448-1,1
			c0,0.552,0.448,1,1,1C20.552,21,21,20.552,21,20 M25,19c0-0.552-0.448-1-1-1c-0.552,0-1,0.448-1,1c0,0.552,0.448,1,1,1
			C24.552,20,25,19.552,25,19 M23,16c0-0.552-0.448-1-1-1c-0.552,0-1,0.448-1,1c0,0.552,0.448,1,1,1C22.552,17,23,16.552,23,16"/>
	</g>
</g>
<g id="Layer_1">
</g>
</svg>
