<?xml version="1.0" encoding="iso-8859-1"?>
<!-- Generator: Adobe Illustrator 22.0.0, SVG Export Plug-In . SVG Version: 6.00 Build 0)  -->
<svg version="1.1" xmlns="http://www.w3.org/2000/svg" xmlns:xlink="http://www.w3.org/1999/xlink" x="0px" y="0px"
	 viewBox="0 0 48 48" style="enable-background:new 0 0 48 48;" xml:space="preserve">
<g id="television">
	<path id="television_1_" style="fill:none;stroke:#000000;stroke-width:0.72;stroke-linejoin:round;stroke-miterlimit:10;" d="
		M39,39H9V17h30V39z M33,19H11v18h22V19z M36,19c-0.552,0-1,0.448-1,1s0.448,1,1,1s1-0.448,1-1S36.552,19,36,19z M36,23
		c-0.552,0-1,0.448-1,1s0.448,1,1,1s1-0.448,1-1S36.552,23,36,23z M23,17l-7-4 M23,17l7-7"/>
</g>
<g id="Layer_1">
</g>
</svg>
