<?xml version="1.0" encoding="iso-8859-1"?>
<!-- Generator: Adobe Illustrator 22.0.0, SVG Export Plug-In . SVG Version: 6.00 Build 0)  -->
<svg version="1.1" xmlns="http://www.w3.org/2000/svg" xmlns:xlink="http://www.w3.org/1999/xlink" x="0px" y="0px"
	 viewBox="0 0 48 48" style="enable-background:new 0 0 48 48;" xml:space="preserve">
<g id="text_to_speech">
	<g id="text_to_speech_1_">
		<path d="M20,25.5c0,0.552-0.448,1-1,1s-1-0.448-1-1s0.448-1,1-1S20,24.948,20,25.5z M23,24.5c-0.552,0-1,0.448-1,1s0.448,1,1,1
			s1-0.448,1-1S23.552,24.5,23,24.5z M15,24.5c-0.552,0-1,0.448-1,1s0.448,1,1,1c0.552,0,1-0.448,1-1S15.552,24.5,15,24.5z"/>
		<path style="fill:none;stroke:#000000;stroke-width:0.72;stroke-linejoin:round;stroke-miterlimit:10;" d="M29,16h8 M29,13h8
			 M37,19.003L29,19 M21,33h6c1.1,0,2-0.9,2-2V20c0-1.1-0.9-2-2-2H11c-1.1,0-2,0.9-2,2v11c0,1.1,0.9,2,2,2h6l4,6 M29,23h10V9H27v9
			 M31,33h4.001C36.105,33,37,32.105,37,31v-4 M33.828,30.171L31,33l2.828,2.828"/>
	</g>
</g>
<g id="Layer_1">
</g>
</svg>
