<?xml version="1.0" encoding="iso-8859-1"?>
<!-- Generator: Adobe Illustrator 22.0.0, SVG Export Plug-In . SVG Version: 6.00 Build 0)  -->
<svg version="1.1" xmlns="http://www.w3.org/2000/svg" xmlns:xlink="http://www.w3.org/1999/xlink" x="0px" y="0px"
	 viewBox="0 0 48 48" style="enable-background:new 0 0 48 48;" xml:space="preserve">
<g id="toronto">
	<rect style="fill:#FFFFFF;" width="48" height="48"/>
	<g id="toronto_2_">
		<g>
			<path style="fill:none;stroke:#000000;stroke-width:0.72;stroke-linecap:round;stroke-linejoin:round;stroke-miterlimit:10;" d="
				M34,38c-0.724,0-1.448-0.333-2-1c-0.552,0.667-1.276,1-2,1c-0.724,0-1.448-0.333-2-1c-0.552,0.667-1.276,1-2,1
				c-0.724,0-1.448-0.333-2-1c-0.552,0.667-1.276,1-2,1c-0.724,0-1.448-0.333-2-1c-0.552,0.667-1.276,1-2,1
				c-0.724,0-1.448-0.333-2-1c-0.552,0.667-1.276,1-2,1"/>
		</g>
		
			<polygon style="fill:none;stroke:#000000;stroke-width:0.72;stroke-linecap:round;stroke-linejoin:round;stroke-miterlimit:10;" points="
			21,20 27,20 26,18 22,18 		"/>
		
			<polygon style="fill:none;stroke:#000000;stroke-width:0.72;stroke-linecap:round;stroke-linejoin:round;stroke-miterlimit:10;" points="
			21,20 27,20 26,22 22,22 		"/>
		
			<line style="fill:none;stroke:#000000;stroke-width:0.72;stroke-linecap:round;stroke-linejoin:round;stroke-miterlimit:10;" x1="22" y1="38" x2="23" y2="24"/>
		
			<line style="fill:none;stroke:#000000;stroke-width:0.72;stroke-linecap:round;stroke-linejoin:round;stroke-miterlimit:10;" x1="25" y1="24" x2="26" y2="38"/>
		<path style="fill:none;stroke:#000000;stroke-width:0.72;stroke-linecap:round;stroke-linejoin:round;stroke-miterlimit:10;" d="
			M26,22c0.552,0,1,0.448,1,1s-0.448,1-1,1h-4c-0.552,0-1-0.448-1-1s0.448-1,1-1"/>
		
			<rect x="23" y="14" style="fill:none;stroke:#000000;stroke-width:0.72;stroke-linecap:round;stroke-linejoin:round;stroke-miterlimit:10;" width="2" height="4"/>
		
			<line style="fill:none;stroke:#000000;stroke-width:0.72;stroke-linecap:round;stroke-linejoin:round;stroke-miterlimit:10;" x1="24" y1="10" x2="24" y2="14"/>
		<g>
			
				<line style="fill:none;stroke:#000000;stroke-width:0.72;stroke-linecap:round;stroke-linejoin:round;stroke-miterlimit:10;" x1="18.5" y1="12.5" x2="19.5" y2="13.5"/>
			
				<line style="fill:none;stroke:#000000;stroke-width:0.72;stroke-linecap:round;stroke-linejoin:round;stroke-miterlimit:10;" x1="19.5" y1="12.5" x2="18.5" y2="13.5"/>
		</g>
		<g>
			
				<line style="fill:none;stroke:#000000;stroke-width:0.72;stroke-linecap:round;stroke-linejoin:round;stroke-miterlimit:10;" x1="13" y1="18" x2="14" y2="19"/>
			
				<line style="fill:none;stroke:#000000;stroke-width:0.72;stroke-linecap:round;stroke-linejoin:round;stroke-miterlimit:10;" x1="14" y1="18" x2="13" y2="19"/>
		</g>
		<g>
			
				<line style="fill:none;stroke:#000000;stroke-width:0.72;stroke-linecap:round;stroke-linejoin:round;stroke-miterlimit:10;" x1="34" y1="18" x2="35" y2="19"/>
			
				<line style="fill:none;stroke:#000000;stroke-width:0.72;stroke-linecap:round;stroke-linejoin:round;stroke-miterlimit:10;" x1="35" y1="18" x2="34" y2="19"/>
		</g>
	</g>
</g>
<g id="Layer_1">
</g>
</svg>
