<?xml version="1.0" encoding="iso-8859-1"?>
<!-- Generator: Adobe Illustrator 22.0.0, SVG Export Plug-In . SVG Version: 6.00 Build 0)  -->
<svg version="1.1" xmlns="http://www.w3.org/2000/svg" xmlns:xlink="http://www.w3.org/1999/xlink" x="0px" y="0px"
	 viewBox="0 0 48 48" style="enable-background:new 0 0 48 48;" xml:space="preserve">
<g id="user_search">
	<path id="user_search_1_" style="fill:none;stroke:#000000;stroke-width:0.7199;stroke-linejoin:round;stroke-miterlimit:10;" d="
		M26.999,13.609c5.739,3.313,7.705,10.651,4.392,16.39s-10.651,7.705-16.39,4.392s-7.705-10.651-4.392-16.39
		S21.26,10.296,26.999,13.609z M39,34.391L31.394,30 M28,33.752l0-1.289c0-3.3-2.287-6.06-5.36-6.799
		c1.4-0.628,2.378-2.028,2.378-3.662c0-2.219-1.799-4.019-4.019-4.019s-4.019,1.799-4.019,4.019c0,1.634,0.979,3.033,2.379,3.662
		C16.286,26.403,14,29.163,14,32.463l0,1.283"/>
</g>
<g id="Layer_1">
</g>
</svg>
