<?xml version="1.0" encoding="iso-8859-1"?>
<!-- Generator: Adobe Illustrator 22.0.0, SVG Export Plug-In . SVG Version: 6.00 Build 0)  -->
<svg version="1.1" xmlns="http://www.w3.org/2000/svg" xmlns:xlink="http://www.w3.org/1999/xlink" x="0px" y="0px"
	 viewBox="0 0 48 48" style="enable-background:new 0 0 48 48;" xml:space="preserve">
<g id="video_chat">
	<g id="video_chat_1_">
		<path d="M37,10.5c0,0.276-0.224,0.5-0.5,0.5S36,10.776,36,10.5s0.224-0.5,0.5-0.5S37,10.224,37,10.5z M34.5,10
			c-0.276,0-0.5,0.224-0.5,0.5s0.224,0.5,0.5,0.5s0.5-0.224,0.5-0.5S34.776,10,34.5,10z M32.5,10c-0.276,0-0.5,0.224-0.5,0.5
			s0.224,0.5,0.5,0.5s0.5-0.224,0.5-0.5S32.776,10,32.5,10z"/>
		<path style="fill:none;stroke:#000000;stroke-width:0.72;stroke-linejoin:round;stroke-miterlimit:10;" d="M39,39H9V9h30V39z
			 M9,12h30 M35,39v-1c0-5.038-3.837-9.259-8.534-10.372c2.126-0.946,3.611-3.074,3.611-5.551c0-3.356-2.721-6.077-6.077-6.077
			s-6.077,2.721-6.077,6.077c0,2.477,1.484,4.605,3.611,5.551C16.835,28.741,13,32.962,13,38v1"/>
	</g>
</g>
<g id="Layer_1">
</g>
</svg>
