<?xml version="1.0" encoding="iso-8859-1"?>
<!-- Generator: Adobe Illustrator 22.0.0, SVG Export Plug-In . SVG Version: 6.00 Build 0)  -->
<svg version="1.1" xmlns="http://www.w3.org/2000/svg" xmlns:xlink="http://www.w3.org/1999/xlink" x="0px" y="0px"
	 viewBox="0 0 48 48" style="enable-background:new 0 0 48 48;" xml:space="preserve">
<g id="visual_insights">
	
		<path id="visual_insights_1_" style="fill:none;stroke:#000000;stroke-width:0.72;stroke-linecap:round;stroke-linejoin:round;stroke-miterlimit:10;" d="
		M39.464,15l-6.928,0L36,9L39.464,15z M39,33h-6v6h6V33z M36,21c-1.657,0-3,1.343-3,3s1.343,3,3,3s3-1.343,3-3S37.656,21,36,21z
		 M25,23.992h8 M34.268,11.992H29v24h4 M24.956,29.004L21.011,25l-1.906,1.993l-5.101-4.996L9,27.002 M25,16H9v16h16V16z
		 M19.5,18.999c-0.828,0-1.5,0.672-1.5,1.5c0,0.828,0.672,1.5,1.5,1.5c0.828,0,1.5-0.672,1.5-1.5
		C21,19.671,20.328,18.999,19.5,18.999z"/>
</g>
<g id="Layer_1">
</g>
</svg>
