<?xml version="1.0" encoding="iso-8859-1"?>
<!-- Generator: Adobe Illustrator 22.0.0, SVG Export Plug-In . SVG Version: 6.00 Build 0)  -->
<svg version="1.1" xmlns="http://www.w3.org/2000/svg" xmlns:xlink="http://www.w3.org/1999/xlink" x="0px" y="0px"
	 viewBox="0 0 48 48" style="enable-background:new 0 0 48 48;" xml:space="preserve">
<g id="visual_recognition">
	
		<path id="visual_recognition_1_" style="fill:none;stroke:#000000;stroke-width:0.72;stroke-linejoin:round;stroke-miterlimit:10;" d="
		M25,17c0,4.418-3.582,8-8,8s-8-3.582-8-8s3.582-8,8-8S25,12.582,25,17z M23.927,13H18v3.24h6.963 M24.746,19H14v3h9.244 M16,24.937
		V39h23V16H24.936 M33,20c-1.105,0-2,0.895-2,2c0,1.105,0.895,2,2,2c1.105,0,2-0.895,2-2C35,20.896,34.104,20,33,20z M39,35l-5-5
		l-3,3l-7-7l-8,8"/>
</g>
<g id="Layer_1">
</g>
</svg>
