<?xml version="1.0" encoding="iso-8859-1"?>
<!-- Generator: Adobe Illustrator 22.0.0, SVG Export Plug-In . SVG Version: 6.00 Build 0)  -->
<svg version="1.1" xmlns="http://www.w3.org/2000/svg" xmlns:xlink="http://www.w3.org/1999/xlink" x="0px" y="0px"
	 viewBox="0 0 48 48" style="enable-background:new 0 0 48 48;" xml:space="preserve">
<g id="wheat">
	<g id="wheat_1_">
		<path style="fill:none;stroke:#000000;stroke-width:0.72;stroke-miterlimit:10;" d="M22,11v20c0,2.761-2.239,5-5,5s-5-2.239-5-5
			V11 M17,9v30 M12,29.113L17,32l5-2.887 M12,24.193l5,2.887l5-2.887 M12,19.113L17,22l5-2.887 M12,14.139l5,2.887l5-2.887 M14.5,10
			v5.583 M19.5,10v5.583"/>
		<path style="fill:none;stroke:#000000;stroke-width:0.72;stroke-miterlimit:10;" d="M36,11v20c0,2.761-2.239,5-5,5s-5-2.239-5-5
			V11 M31,9v30 M26,29.113L31,32l5-2.887 M26,24.193l5,2.887l5-2.887 M26,19.113L31,22l5-2.887 M26,14.139l5,2.887l5-2.887 M28.5,10
			v5.583 M33.5,10v5.583"/>
	</g>
</g>
<g id="Layer_1">
</g>
</svg>
