<?xml version="1.0" encoding="iso-8859-1"?>
<!-- Generator: Adobe Illustrator 22.0.0, SVG Export Plug-In . SVG Version: 6.00 Build 0)  -->
<svg version="1.1" xmlns="http://www.w3.org/2000/svg" xmlns:xlink="http://www.w3.org/1999/xlink" x="0px" y="0px"
	 viewBox="0 0 48 48" style="enable-background:new 0 0 48 48;" xml:space="preserve">
<g id="wrecking_ball">
	<g id="wrecking_ball_1_">
		<polyline style="fill:none;stroke:#000000;stroke-width:0.72;stroke-linejoin:round;stroke-miterlimit:10;" points="18,20.986 
			18,17 15.999,17 		"/>
		<path d="M13,36c0,0.552-0.448,1-1,1s-1-0.448-1-1s0.448-1,1-1S13,35.448,13,36z M16,35c-0.552,0-1,0.448-1,1s0.448,1,1,1
			c0.552,0,1-0.448,1-1S16.553,35,16,35z M20,35c-0.552,0-1,0.448-1,1s0.448,1,1,1c0.552,0,1-0.448,1-1S20.552,35,20,35z M24,35
			c-0.552,0-1,0.448-1,1s0.448,1,1,1s1-0.448,1-1S24.553,35,24,35z"/>
		<path style="fill:none;stroke:#000000;stroke-width:0.72;stroke-linecap:round;stroke-linejoin:round;stroke-miterlimit:10;" d="
			M12,33l0-2H9V21h10v8h5l0,4 M35.001,28l-0.002-13 M16.999,23H11v4h5.998V23z M15,17c-1.055,0-2-0.688-2-2v-2
			c0-1.055-0.548-1.994-1.86-1.994L11,11c-1.055,0-2-0.688-2-2 M15,14v-2.458C15,10.486,14.5,9,13,9 M9.5,13v1.11
			C9.5,15.165,9.688,16,11,16 M27,36L27,36c0-1.65-1.35-3-3-3H12c-1.65,0-3,1.35-3,3v0c0,1.65,1.35,3,3,3h12
			C25.65,39,27,37.65,27,36z M35,28c-2.209,0-4,1.791-4,4s1.791,4,4,4s4-1.791,4-4S37.209,28,35,28z M37.254,30.916
			c-0.263-0.546-0.72-0.982-1.28-1.22 M24,31h1.762L35,15 M21.389,29l10.899-15.565 M24.412,19.553L29,13 M21.412,19.553L26,13
			 M34.999,15l-2.711-1.565 M29.641,17.215l3.06,1.767 M30.469,22.848l-3.371-1.946 M24.212,24.968l3.775,2.179"/>
	</g>
</g>
<g id="Layer_1">
</g>
</svg>
