<svg width="320" height="180" viewBox="0 0 320 180" fill="none" xmlns="http://www.w3.org/2000/svg">
<rect x="60" y="63" width="200" height="13" fill="#171717"/>
<rect opacity="0.844385" x="94" y="68.5" width="22" height="3" fill="#C6C6C6"/>
<rect opacity="0.844385" x="67" y="68.5" width="22" height="3" fill="#C6C6C6"/>
<rect opacity="0.844385" x="121" y="68.5" width="22" height="3" fill="#C6C6C6"/>
<rect opacity="0.844385" x="239" y="67" width="5" height="5" fill="#C6C6C6"/>
<rect opacity="0.844385" x="249" y="67" width="5" height="5" fill="#C6C6C6"/>
<g style="mix-blend-mode:multiply">
<rect x="60.5" y="75.5" width="199" height="41" stroke="#C6C6C6"/>
</g>
<path fill-rule="evenodd" clip-rule="evenodd" d="M61 76H259V100.49V116H61V76Z" fill="white"/>
<rect opacity="0.891745" x="65" y="81" width="16" height="2" fill="#78A9FF"/>
<rect opacity="0.891745" x="86" y="81" width="16" height="2" fill="#78A9FF"/>
<rect x="65" y="95" width="54" height="3" fill="#A8A8A8"/>
<rect x="61" y="87" width="198" height="0.5" fill="#C6C6C6"/>
<rect x="224" y="93" width="31" height="7" fill="#0F62FE"/>
<path fill-rule="evenodd" clip-rule="evenodd" d="M250.54 84.545C250.448 84.5061 250.394 84.4098 250.408 84.3109L250.807 81.7188H249.75C249.682 81.7206 249.617 81.6908 249.574 81.6381C249.532 81.5854 249.516 81.5158 249.531 81.4497L250.188 78.6059C250.211 78.5051 250.303 78.4347 250.406 78.4375H252.594C252.66 78.4373 252.723 78.467 252.764 78.5184C252.807 78.5704 252.823 78.639 252.808 78.7044L252.43 80.4063H253.469C253.552 80.4061 253.629 80.4536 253.666 80.5288C253.698 80.6007 253.688 80.6842 253.642 80.7475L250.798 84.4663C250.759 84.524 250.695 84.5598 250.625 84.5625C250.596 84.562 250.567 84.556 250.54 84.545ZM251.883 80.8438L252.32 78.875H250.581L250.026 81.2813H251.318L250.971 83.53L253.031 80.8438H251.883Z" fill="black"/>
<path fill-rule="evenodd" clip-rule="evenodd" d="M240.54 84.545C240.448 84.5061 240.394 84.4098 240.408 84.3109L240.807 81.7188H239.75C239.682 81.7206 239.617 81.6908 239.574 81.6381C239.532 81.5854 239.516 81.5158 239.531 81.4497L240.188 78.6059C240.211 78.5051 240.303 78.4347 240.406 78.4375H242.594C242.66 78.4373 242.723 78.467 242.764 78.5184C242.807 78.5704 242.823 78.639 242.808 78.7044L242.43 80.4063H243.469C243.552 80.4061 243.629 80.4536 243.666 80.5288C243.698 80.6007 243.688 80.6842 243.642 80.7475L240.798 84.4663C240.759 84.524 240.695 84.5598 240.625 84.5625C240.596 84.562 240.567 84.556 240.54 84.545ZM241.883 80.8438L242.32 78.875H240.581L240.026 81.2813H241.318L240.971 83.53L243.031 80.8438H241.883Z" fill="black"/>
<path fill-rule="evenodd" clip-rule="evenodd" d="M230.54 84.545C230.448 84.5061 230.394 84.4098 230.408 84.3109L230.807 81.7188H229.75C229.682 81.7206 229.617 81.6908 229.574 81.6381C229.532 81.5854 229.516 81.5158 229.531 81.4497L230.188 78.6059C230.211 78.5051 230.303 78.4347 230.406 78.4375H232.594C232.66 78.4373 232.723 78.467 232.764 78.5184C232.807 78.5704 232.823 78.639 232.808 78.7044L232.43 80.4063H233.469C233.552 80.4061 233.629 80.4536 233.666 80.5288C233.698 80.6007 233.688 80.6842 233.642 80.7475L230.798 84.4663C230.759 84.524 230.695 84.5598 230.625 84.5625C230.596 84.562 230.567 84.556 230.54 84.545ZM231.883 80.8438L232.32 78.875H230.581L230.026 81.2813H231.318L230.971 83.53L233.031 80.8438H231.883Z" fill="black"/>
<path fill-rule="evenodd" clip-rule="evenodd" d="M220.54 84.545C220.448 84.5061 220.394 84.4098 220.408 84.3109L220.807 81.7188H219.75C219.682 81.7206 219.617 81.6908 219.574 81.6381C219.532 81.5854 219.516 81.5158 219.531 81.4497L220.188 78.6059C220.211 78.5051 220.303 78.4347 220.406 78.4375H222.594C222.66 78.4373 222.723 78.467 222.764 78.5184C222.807 78.5704 222.823 78.639 222.808 78.7044L222.43 80.4063H223.469C223.552 80.4061 223.629 80.4536 223.666 80.5288C223.698 80.6007 223.688 80.6842 223.642 80.7475L220.798 84.4663C220.759 84.524 220.695 84.5598 220.625 84.5625C220.596 84.562 220.567 84.556 220.54 84.545ZM221.883 80.8438L222.32 78.875H220.581L220.026 81.2813H221.318L220.971 83.53L223.031 80.8438H221.883Z" fill="black"/>
<path fill-rule="evenodd" clip-rule="evenodd" d="M210.54 84.545C210.448 84.5061 210.394 84.4098 210.408 84.3109L210.807 81.7188H209.75C209.682 81.7206 209.617 81.6908 209.574 81.6381C209.532 81.5854 209.516 81.5158 209.531 81.4497L210.188 78.6059C210.211 78.5051 210.303 78.4347 210.406 78.4375H212.594C212.66 78.4373 212.723 78.467 212.764 78.5184C212.807 78.5704 212.823 78.639 212.808 78.7044L212.43 80.4063H213.469C213.552 80.4061 213.629 80.4536 213.666 80.5288C213.698 80.6007 213.688 80.6842 213.642 80.7475L210.798 84.4663C210.759 84.524 210.695 84.5598 210.625 84.5625C210.596 84.562 210.567 84.556 210.54 84.545ZM211.883 80.8438L212.32 78.875H210.581L210.026 81.2813H211.318L210.971 83.53L213.031 80.8438H211.883Z" fill="black"/>
</svg>
