<svg width="320" height="180" viewBox="0 0 320 180" fill="none" xmlns="http://www.w3.org/2000/svg">
<path d="M154.372 94.024C153.308 94.024 152.48 93.662 151.888 92.938C151.296 92.214 151 91.148 151 89.74C151 88.332 151.296 87.25 151.888 86.494C152.48 85.738 153.308 85.36 154.372 85.36C155.076 85.36 155.666 85.52 156.142 85.84C156.618 86.16 156.988 86.612 157.252 87.196L156.436 87.688C156.268 87.256 156.012 86.91 155.668 86.65C155.324 86.39 154.892 86.26 154.372 86.26C154.012 86.26 153.69 86.328 153.406 86.464C153.122 86.6 152.882 86.794 152.686 87.046C152.49 87.298 152.34 87.598 152.236 87.946C152.132 88.294 152.08 88.684 152.08 89.116V90.364C152.08 91.228 152.28 91.904 152.68 92.392C153.08 92.88 153.644 93.124 154.372 93.124C154.908 93.124 155.356 92.986 155.716 92.71C156.076 92.434 156.34 92.068 156.508 91.612L157.312 92.116C157.048 92.708 156.668 93.174 156.172 93.514C155.676 93.854 155.076 94.024 154.372 94.024Z" fill="#0F62FE"/>
<path d="M158.776 93.88V87.688H159.736V88.828H159.796C159.908 88.532 160.108 88.268 160.396 88.036C160.684 87.804 161.08 87.688 161.584 87.688H161.956V88.648H161.392C160.872 88.648 160.466 88.746 160.174 88.942C159.882 89.138 159.736 89.384 159.736 89.68V93.88H158.776Z" fill="#0F62FE"/>
<path d="M166.996 92.872H166.948C166.884 93.016 166.806 93.158 166.714 93.298C166.622 93.438 166.508 93.562 166.372 93.67C166.236 93.778 166.072 93.864 165.88 93.928C165.688 93.992 165.464 94.024 165.208 94.024C164.568 94.024 164.06 93.818 163.684 93.406C163.308 92.994 163.12 92.412 163.12 91.66V87.688H164.08V91.492C164.08 92.604 164.552 93.16 165.496 93.16C165.688 93.16 165.874 93.136 166.054 93.088C166.234 93.04 166.394 92.968 166.534 92.872C166.674 92.776 166.786 92.654 166.87 92.506C166.954 92.358 166.996 92.18 166.996 91.972V87.688H167.956V93.88H166.996V92.872Z" fill="#0F62FE"/>
<path d="M169.996 93.88V87.688H170.956V88.696H171.004C171.076 88.536 171.158 88.386 171.25 88.246C171.342 88.106 171.454 87.984 171.586 87.88C171.718 87.776 171.872 87.694 172.048 87.634C172.224 87.574 172.432 87.544 172.672 87.544C173.08 87.544 173.456 87.642 173.8 87.838C174.144 88.034 174.4 88.356 174.568 88.804H174.592C174.704 88.468 174.914 88.174 175.222 87.922C175.53 87.67 175.948 87.544 176.476 87.544C177.108 87.544 177.602 87.75 177.958 88.162C178.314 88.574 178.492 89.156 178.492 89.908V93.88H177.532V90.076C177.532 89.524 177.424 89.108 177.208 88.828C176.992 88.548 176.648 88.408 176.176 88.408C175.984 88.408 175.802 88.432 175.63 88.48C175.458 88.528 175.304 88.6 175.168 88.696C175.032 88.792 174.924 88.914 174.844 89.062C174.764 89.21 174.724 89.384 174.724 89.584V93.88H173.764V90.076C173.764 89.524 173.656 89.108 173.44 88.828C173.224 88.548 172.888 88.408 172.432 88.408C172.24 88.408 172.056 88.432 171.88 88.48C171.704 88.528 171.548 88.6 171.412 88.696C171.276 88.792 171.166 88.914 171.082 89.062C170.998 89.21 170.956 89.384 170.956 89.584V93.88H169.996Z" fill="#0F62FE"/>
<path fill-rule="evenodd" clip-rule="evenodd" d="M181.432 85H180.472V93.88H181.432V92.872H181.48C181.848 93.64 182.452 94.024 183.292 94.024C183.676 94.024 184.024 93.948 184.336 93.796C184.648 93.644 184.914 93.428 185.134 93.148C185.354 92.868 185.522 92.528 185.638 92.128C185.754 91.728 185.812 91.28 185.812 90.784C185.812 90.288 185.754 89.84 185.638 89.44C185.522 89.04 185.354 88.7 185.134 88.42C184.914 88.14 184.648 87.924 184.336 87.772C184.024 87.62 183.676 87.544 183.292 87.544C182.86 87.544 182.49 87.638 182.182 87.826C181.874 88.014 181.64 88.304 181.48 88.696H181.432V85ZM184.312 92.65C184 92.99 183.572 93.16 183.028 93.16C182.812 93.16 182.606 93.132 182.41 93.076C182.214 93.02 182.044 92.938 181.9 92.83C181.756 92.722 181.642 92.59 181.558 92.434C181.474 92.278 181.432 92.1 181.432 91.9V89.596C181.432 89.428 181.474 89.27 181.558 89.122C181.642 88.974 181.756 88.848 181.9 88.744C182.044 88.64 182.214 88.558 182.41 88.498C182.606 88.438 182.812 88.408 183.028 88.408C183.572 88.408 184 88.578 184.312 88.918C184.624 89.258 184.78 89.704 184.78 90.256V91.312C184.78 91.864 184.624 92.31 184.312 92.65Z" fill="#0F62FE"/>
<path d="M192.376 89.056C192.944 89.056 193.37 88.926 193.654 88.666C193.938 88.406 194.08 88.072 194.08 87.664V87.58C194.08 87.14 193.942 86.81 193.666 86.59C193.39 86.37 193.028 86.26 192.58 86.26C192.148 86.26 191.796 86.354 191.524 86.542C191.252 86.73 191.028 86.984 190.852 87.304L190.108 86.728C190.212 86.56 190.338 86.394 190.486 86.23C190.634 86.066 190.808 85.92 191.008 85.792C191.208 85.664 191.44 85.56 191.704 85.48C191.968 85.4 192.268 85.36 192.604 85.36C192.956 85.36 193.288 85.406 193.6 85.498C193.912 85.59 194.182 85.726 194.41 85.906C194.638 86.086 194.818 86.308 194.95 86.572C195.082 86.836 195.148 87.136 195.148 87.472C195.148 87.744 195.106 87.988 195.022 88.204C194.938 88.42 194.824 88.608 194.68 88.768C194.536 88.928 194.366 89.064 194.17 89.176C193.974 89.288 193.764 89.372 193.54 89.428V89.476C193.764 89.524 193.982 89.602 194.194 89.71C194.406 89.818 194.594 89.958 194.758 90.13C194.922 90.302 195.054 90.51 195.154 90.754C195.254 90.998 195.304 91.276 195.304 91.588C195.304 91.948 195.236 92.278 195.1 92.578C194.964 92.878 194.772 93.134 194.524 93.346C194.276 93.558 193.976 93.724 193.624 93.844C193.272 93.964 192.884 94.024 192.46 94.024C192.1 94.024 191.78 93.984 191.5 93.904C191.22 93.824 190.972 93.716 190.756 93.58C190.54 93.444 190.35 93.292 190.186 93.124C190.022 92.956 189.876 92.78 189.748 92.596L190.504 92.02C190.608 92.188 190.722 92.34 190.846 92.476C190.97 92.612 191.108 92.728 191.26 92.824C191.412 92.92 191.584 92.994 191.776 93.046C191.968 93.098 192.192 93.124 192.448 93.124C193.04 93.124 193.488 92.99 193.792 92.722C194.096 92.454 194.248 92.072 194.248 91.576V91.48C194.248 90.984 194.096 90.602 193.792 90.334C193.488 90.066 193.04 89.932 192.448 89.932H191.464V89.056H192.376Z" fill="#0F62FE"/>
<path d="M61.372 94.144C60.308 94.144 59.48 93.782 58.888 93.058C58.296 92.334 58 91.268 58 89.86C58 88.452 58.296 87.37 58.888 86.614C59.48 85.858 60.308 85.48 61.372 85.48C62.076 85.48 62.666 85.64 63.142 85.96C63.618 86.28 63.988 86.732 64.252 87.316L63.436 87.808C63.268 87.376 63.012 87.03 62.668 86.77C62.324 86.51 61.892 86.38 61.372 86.38C61.012 86.38 60.69 86.448 60.406 86.584C60.122 86.72 59.882 86.914 59.686 87.166C59.49 87.418 59.34 87.718 59.236 88.066C59.132 88.414 59.08 88.804 59.08 89.236V90.484C59.08 91.348 59.28 92.024 59.68 92.512C60.08 93 60.644 93.244 61.372 93.244C61.908 93.244 62.356 93.106 62.716 92.83C63.076 92.554 63.34 92.188 63.508 91.732L64.312 92.236C64.048 92.828 63.668 93.294 63.172 93.634C62.676 93.974 62.076 94.144 61.372 94.144Z" fill="#0062FF"/>
<path d="M65.776 94V87.808H66.736V88.948H66.796C66.908 88.652 67.108 88.388 67.396 88.156C67.684 87.924 68.08 87.808 68.584 87.808H68.956V88.768H68.392C67.872 88.768 67.466 88.866 67.174 89.062C66.882 89.258 66.736 89.504 66.736 89.8V94H65.776Z" fill="#0062FF"/>
<path d="M73.996 92.992H73.948C73.884 93.136 73.806 93.278 73.714 93.418C73.622 93.558 73.508 93.682 73.372 93.79C73.236 93.898 73.072 93.984 72.88 94.048C72.688 94.112 72.464 94.144 72.208 94.144C71.568 94.144 71.06 93.938 70.684 93.526C70.308 93.114 70.12 92.532 70.12 91.78V87.808H71.08V91.612C71.08 92.724 71.552 93.28 72.496 93.28C72.688 93.28 72.874 93.256 73.054 93.208C73.234 93.16 73.394 93.088 73.534 92.992C73.674 92.896 73.786 92.774 73.87 92.626C73.954 92.478 73.996 92.3 73.996 92.092V87.808H74.956V94H73.996V92.992Z" fill="#0062FF"/>
<path d="M76.996 94V87.808H77.956V88.816H78.004C78.076 88.656 78.158 88.506 78.25 88.366C78.342 88.226 78.454 88.104 78.586 88C78.718 87.896 78.872 87.814 79.048 87.754C79.224 87.694 79.432 87.664 79.672 87.664C80.08 87.664 80.456 87.762 80.8 87.958C81.144 88.154 81.4 88.476 81.568 88.924H81.592C81.704 88.588 81.914 88.294 82.222 88.042C82.53 87.79 82.948 87.664 83.476 87.664C84.108 87.664 84.602 87.87 84.958 88.282C85.314 88.694 85.492 89.276 85.492 90.028V94H84.532V90.196C84.532 89.644 84.424 89.228 84.208 88.948C83.992 88.668 83.648 88.528 83.176 88.528C82.984 88.528 82.802 88.552 82.63 88.6C82.458 88.648 82.304 88.72 82.168 88.816C82.032 88.912 81.924 89.034 81.844 89.182C81.764 89.33 81.724 89.504 81.724 89.704V94H80.764V90.196C80.764 89.644 80.656 89.228 80.44 88.948C80.224 88.668 79.888 88.528 79.432 88.528C79.24 88.528 79.056 88.552 78.88 88.6C78.704 88.648 78.548 88.72 78.412 88.816C78.276 88.912 78.166 89.034 78.082 89.182C77.998 89.33 77.956 89.504 77.956 89.704V94H76.996Z" fill="#0062FF"/>
<path fill-rule="evenodd" clip-rule="evenodd" d="M88.432 85.12H87.472V94H88.432V92.992H88.48C88.848 93.76 89.452 94.144 90.292 94.144C90.676 94.144 91.024 94.068 91.336 93.916C91.648 93.764 91.914 93.548 92.134 93.268C92.354 92.988 92.522 92.648 92.638 92.248C92.754 91.848 92.812 91.4 92.812 90.904C92.812 90.408 92.754 89.96 92.638 89.56C92.522 89.16 92.354 88.82 92.134 88.54C91.914 88.26 91.648 88.044 91.336 87.892C91.024 87.74 90.676 87.664 90.292 87.664C89.86 87.664 89.49 87.758 89.182 87.946C88.874 88.134 88.64 88.424 88.48 88.816H88.432V85.12ZM91.312 92.77C91 93.11 90.572 93.28 90.028 93.28C89.812 93.28 89.606 93.252 89.41 93.196C89.214 93.14 89.044 93.058 88.9 92.95C88.756 92.842 88.642 92.71 88.558 92.554C88.474 92.398 88.432 92.22 88.432 92.02V89.716C88.432 89.548 88.474 89.39 88.558 89.242C88.642 89.094 88.756 88.968 88.9 88.864C89.044 88.76 89.214 88.678 89.41 88.618C89.606 88.558 89.812 88.528 90.028 88.528C90.572 88.528 91 88.698 91.312 89.038C91.624 89.378 91.78 89.824 91.78 90.376V91.432C91.78 91.984 91.624 92.43 91.312 92.77Z" fill="#0062FF"/>
<path d="M97.3 94V93.112H99.64V86.368H99.556L97.444 88.336L96.856 87.7L99.076 85.624H100.648V93.112H102.808V94H97.3Z" fill="#0062FF"/>
<path d="M204.277 95.812L207.409 85.12H206.545L203.413 95.812H204.277Z" fill="black"/>
<path d="M112.277 95.812L115.409 85.12H114.545L111.413 95.812H112.277Z" fill="black"/>
<path d="M138.277 95.812L141.409 85.12H140.545L137.413 95.812H138.277Z" fill="black"/>
<path d="M220.373 94.144C221.765 94.144 222.785 93.412 223.313 92.236L222.509 91.732C222.173 92.644 221.441 93.244 220.373 93.244C218.933 93.244 218.081 92.2 218.081 90.484V89.236C218.081 87.52 218.933 86.38 220.373 86.38C221.405 86.38 222.101 86.944 222.437 87.808L223.253 87.316C222.725 86.152 221.765 85.48 220.373 85.48C218.261 85.48 217.001 87.064 217.001 89.86C217.001 92.656 218.261 94.144 220.373 94.144Z" fill="#0F62FE"/>
<path d="M225.738 94V89.8C225.738 89.212 226.362 88.768 227.394 88.768H227.958V87.808H227.586C226.578 87.808 226.014 88.36 225.798 88.948H225.738V87.808H224.778V94H225.738Z" fill="#0F62FE"/>
<path d="M233 94H233.96V87.808H233V92.092C233 92.908 232.256 93.28 231.5 93.28C230.576 93.28 230.084 92.716 230.084 91.612V87.808H229.124V91.78C229.124 93.28 229.94 94.144 231.212 94.144C232.244 94.144 232.712 93.58 232.952 92.992H233V94Z" fill="#0F62FE"/>
<path d="M236.964 94V89.704C236.964 88.912 237.684 88.528 238.44 88.528C239.352 88.528 239.772 89.092 239.772 90.196V94H240.732V89.704C240.732 88.912 241.428 88.528 242.184 88.528C243.12 88.528 243.54 89.104 243.54 90.196V94H244.5V90.028C244.5 88.528 243.744 87.664 242.484 87.664C241.428 87.664 240.828 88.252 240.6 88.924H240.576C240.24 88.036 239.496 87.664 238.68 87.664C237.72 87.664 237.288 88.18 237.012 88.816H236.964V87.808H236.004V94H236.964Z" fill="#0F62FE"/>
<path d="M246.481 94H247.441V92.992H247.489C247.861 93.76 248.449 94.144 249.301 94.144C250.849 94.144 251.821 92.884 251.821 90.904C251.821 88.924 250.849 87.664 249.301 87.664C248.449 87.664 247.813 88.036 247.489 88.816H247.441V85.12H246.481V94ZM249.037 93.28C248.161 93.28 247.441 92.824 247.441 92.02V89.716C247.441 89.032 248.161 88.528 249.037 88.528C250.117 88.528 250.789 89.272 250.789 90.376V91.432C250.789 92.536 250.117 93.28 249.037 93.28Z" fill="#0F62FE"/>
<path d="M260.718 94V92.356H261.93V91.516H260.718V85.624H259.218L255.714 91.468V92.356H259.758V94H260.718ZM259.698 86.404H259.758V91.516H256.662L259.698 86.404Z" fill="#0F62FE"/>
<path d="M121.937 94.144C122.441 94.144 122.669 93.856 122.669 93.448V93.292C122.669 92.884 122.441 92.596 121.937 92.596C121.433 92.596 121.205 92.884 121.205 93.292V93.448C121.205 93.856 121.433 94.144 121.937 94.144Z" fill="#0F62FE"/>
<path d="M125.206 94.144C125.71 94.144 125.938 93.856 125.938 93.448V93.292C125.938 92.884 125.71 92.596 125.206 92.596C124.702 92.596 124.474 92.884 124.474 93.292V93.448C124.474 93.856 124.702 94.144 125.206 94.144Z" fill="#0F62FE"/>
<path d="M128.476 94.144C128.98 94.144 129.208 93.856 129.208 93.448V93.292C129.208 92.884 128.98 92.596 128.476 92.596C127.972 92.596 127.744 92.884 127.744 93.292V93.448C127.744 93.856 127.972 94.144 128.476 94.144Z" fill="#0F62FE"/>
</svg>
