<svg width="320" height="180" viewBox="0 0 320 180" fill="none" xmlns="http://www.w3.org/2000/svg">
<rect x="132" y="32" width="56" height="56" fill="url(#paint0_linear_7_2950)"/>
<rect x="132" y="93" width="56" height="56" fill="url(#paint1_linear_7_2950)"/>
<rect x="71" y="32" width="56" height="56" fill="url(#paint2_linear_7_2950)"/>
<rect x="71" y="93" width="56" height="56" fill="url(#paint3_linear_7_2950)"/>
<rect x="193" y="32" width="56" height="56" fill="url(#paint4_linear_7_2950)"/>
<rect x="193" y="93" width="56" height="56" fill="url(#paint5_linear_7_2950)"/>
<path fill-rule="evenodd" clip-rule="evenodd" d="M100.281 60.3125C99.2975 60.3125 98.5 59.515 98.5 58.5312C98.5 57.5475 99.2975 56.75 100.281 56.75C101.265 56.75 102.062 57.5475 102.062 58.5312C102.062 59.0037 101.875 59.4567 101.541 59.7908C101.207 60.1248 100.754 60.3125 100.281 60.3125ZM100.281 57.9375C99.9533 57.9375 99.6875 58.2033 99.6875 58.5312C99.6875 58.8592 99.9533 59.125 100.281 59.125C100.609 59.125 100.875 58.8592 100.875 58.5312C100.875 58.2033 100.609 57.9375 100.281 57.9375ZM104.527 54.375H92.4734C91.8668 54.375 91.375 54.8668 91.375 55.4734V67.5266C91.375 67.8179 91.4907 68.0973 91.6967 68.3033C91.9027 68.5093 92.1821 68.625 92.4734 68.625H104.527C104.818 68.625 105.097 68.5093 105.303 68.3033C105.509 68.0973 105.625 67.8179 105.625 67.5266V55.4734C105.625 54.8668 105.133 54.375 104.527 54.375ZM104.438 55.5625V64.6647L102.217 62.4441C101.994 62.2211 101.692 62.0958 101.377 62.0958C101.062 62.0958 100.759 62.2211 100.537 62.4441L99.6875 63.3109L96.4219 60.0691C96.1991 59.8461 95.8969 59.7208 95.5817 59.7208C95.2665 59.7208 94.9643 59.8461 94.7416 60.0691L92.5625 62.2481V55.5625H104.438ZM92.5625 67.4375V63.9225L95.5787 60.9062L98.8266 64.1541C99.0493 64.377 99.3515 64.5023 99.6667 64.5023C99.9819 64.5023 100.284 64.377 100.507 64.1541L101.374 63.2812L104.438 66.345V67.4375H92.5625Z" fill="#6F6F6F"/>
<mask id="mask0_7_2950" style="mask-type:alpha" maskUnits="userSpaceOnUse" x="91" y="54" width="15" height="15">
<path fill-rule="evenodd" clip-rule="evenodd" d="M100.281 60.3125C99.2975 60.3125 98.5 59.515 98.5 58.5312C98.5 57.5475 99.2975 56.75 100.281 56.75C101.265 56.75 102.062 57.5475 102.062 58.5312C102.062 59.0037 101.875 59.4567 101.541 59.7908C101.207 60.1248 100.754 60.3125 100.281 60.3125ZM100.281 57.9375C99.9533 57.9375 99.6875 58.2033 99.6875 58.5312C99.6875 58.8592 99.9533 59.125 100.281 59.125C100.609 59.125 100.875 58.8592 100.875 58.5312C100.875 58.2033 100.609 57.9375 100.281 57.9375ZM104.527 54.375H92.4734C91.8668 54.375 91.375 54.8668 91.375 55.4734V67.5266C91.375 67.8179 91.4907 68.0973 91.6967 68.3033C91.9027 68.5093 92.1821 68.625 92.4734 68.625H104.527C104.818 68.625 105.097 68.5093 105.303 68.3033C105.509 68.0973 105.625 67.8179 105.625 67.5266V55.4734C105.625 54.8668 105.133 54.375 104.527 54.375ZM104.438 55.5625V64.6647L102.217 62.4441C101.994 62.2211 101.692 62.0958 101.377 62.0958C101.062 62.0958 100.759 62.2211 100.537 62.4441L99.6875 63.3109L96.4219 60.0691C96.1991 59.8461 95.8969 59.7208 95.5817 59.7208C95.2665 59.7208 94.9643 59.8461 94.7416 60.0691L92.5625 62.2481V55.5625H104.438ZM92.5625 67.4375V63.9225L95.5787 60.9062L98.8266 64.1541C99.0493 64.377 99.3515 64.5023 99.6667 64.5023C99.9819 64.5023 100.284 64.377 100.507 64.1541L101.374 63.2812L104.438 66.345V67.4375H92.5625Z" fill="white"/>
</mask>
<g mask="url(#mask0_7_2950)">
</g>
<path fill-rule="evenodd" clip-rule="evenodd" d="M100.281 121.312C99.2975 121.312 98.5 120.515 98.5 119.531C98.5 118.547 99.2975 117.75 100.281 117.75C101.265 117.75 102.062 118.547 102.062 119.531C102.062 120.004 101.875 120.457 101.541 120.791C101.207 121.125 100.754 121.312 100.281 121.312V121.312ZM100.281 118.938C99.9533 118.938 99.6875 119.203 99.6875 119.531C99.6875 119.859 99.9533 120.125 100.281 120.125C100.609 120.125 100.875 119.859 100.875 119.531C100.875 119.203 100.609 118.938 100.281 118.938ZM104.527 115.375H92.4734C91.8668 115.375 91.375 115.867 91.375 116.473V128.527C91.375 128.818 91.4907 129.097 91.6967 129.303C91.9027 129.509 92.1821 129.625 92.4734 129.625H104.527C104.818 129.625 105.097 129.509 105.303 129.303C105.509 129.097 105.625 128.818 105.625 128.527V116.473C105.625 115.867 105.133 115.375 104.527 115.375ZM104.438 116.562V125.665L102.217 123.444C101.994 123.221 101.692 123.096 101.377 123.096C101.062 123.096 100.759 123.221 100.537 123.444L99.6875 124.311L96.4219 121.069C96.1991 120.846 95.8969 120.721 95.5817 120.721C95.2665 120.721 94.9643 120.846 94.7416 121.069L92.5625 123.248V116.562H104.438ZM92.5625 128.438V124.922L95.5787 121.906V121.906L98.8266 125.154C99.0493 125.377 99.3515 125.502 99.6667 125.502C99.9819 125.502 100.284 125.377 100.507 125.154L101.374 124.281V124.281L104.438 127.345V128.438H92.5625Z" fill="#6F6F6F"/>
<mask id="mask1_7_2950" style="mask-type:alpha" maskUnits="userSpaceOnUse" x="91" y="115" width="15" height="15">
<path fill-rule="evenodd" clip-rule="evenodd" d="M100.281 121.312C99.2975 121.312 98.5 120.515 98.5 119.531C98.5 118.547 99.2975 117.75 100.281 117.75C101.265 117.75 102.062 118.547 102.062 119.531C102.062 120.004 101.875 120.457 101.541 120.791C101.207 121.125 100.754 121.312 100.281 121.312V121.312ZM100.281 118.938C99.9533 118.938 99.6875 119.203 99.6875 119.531C99.6875 119.859 99.9533 120.125 100.281 120.125C100.609 120.125 100.875 119.859 100.875 119.531C100.875 119.203 100.609 118.938 100.281 118.938ZM104.527 115.375H92.4734C91.8668 115.375 91.375 115.867 91.375 116.473V128.527C91.375 128.818 91.4907 129.097 91.6967 129.303C91.9027 129.509 92.1821 129.625 92.4734 129.625H104.527C104.818 129.625 105.097 129.509 105.303 129.303C105.509 129.097 105.625 128.818 105.625 128.527V116.473C105.625 115.867 105.133 115.375 104.527 115.375ZM104.438 116.562V125.665L102.217 123.444C101.994 123.221 101.692 123.096 101.377 123.096C101.062 123.096 100.759 123.221 100.537 123.444L99.6875 124.311L96.4219 121.069C96.1991 120.846 95.8969 120.721 95.5817 120.721C95.2665 120.721 94.9643 120.846 94.7416 121.069L92.5625 123.248V116.562H104.438ZM92.5625 128.438V124.922L95.5787 121.906V121.906L98.8266 125.154C99.0493 125.377 99.3515 125.502 99.6667 125.502C99.9819 125.502 100.284 125.377 100.507 125.154L101.374 124.281V124.281L104.438 127.345V128.438H92.5625Z" fill="white"/>
</mask>
<g mask="url(#mask1_7_2950)">
</g>
<path fill-rule="evenodd" clip-rule="evenodd" d="M161.281 60.3125C160.297 60.3125 159.5 59.515 159.5 58.5312C159.5 57.5475 160.297 56.75 161.281 56.75C162.265 56.75 163.062 57.5475 163.062 58.5312C163.062 59.0037 162.875 59.4567 162.541 59.7908C162.207 60.1248 161.754 60.3125 161.281 60.3125ZM161.281 57.9375C160.953 57.9375 160.688 58.2033 160.688 58.5312C160.688 58.8592 160.953 59.125 161.281 59.125C161.609 59.125 161.875 58.8592 161.875 58.5312C161.875 58.2033 161.609 57.9375 161.281 57.9375ZM165.527 54.375H153.473C152.867 54.375 152.375 54.8668 152.375 55.4734V67.5266C152.375 67.8179 152.491 68.0973 152.697 68.3033C152.903 68.5093 153.182 68.625 153.473 68.625H165.527C165.818 68.625 166.097 68.5093 166.303 68.3033C166.509 68.0973 166.625 67.8179 166.625 67.5266V55.4734C166.625 54.8668 166.133 54.375 165.527 54.375ZM165.438 55.5625V64.6647L163.217 62.4441C162.994 62.2211 162.692 62.0958 162.377 62.0958C162.062 62.0958 161.759 62.2211 161.537 62.4441L160.688 63.3109L157.422 60.0691C157.199 59.8461 156.897 59.7208 156.582 59.7208C156.267 59.7208 155.964 59.8461 155.742 60.0691L153.562 62.2481V55.5625H165.438ZM153.562 67.4375V63.9225L156.579 60.9062L159.827 64.1541C160.049 64.377 160.352 64.5023 160.667 64.5023C160.982 64.5023 161.284 64.377 161.507 64.1541L162.374 63.2812L165.438 66.345V67.4375H153.562Z" fill="#6F6F6F"/>
<mask id="mask2_7_2950" style="mask-type:alpha" maskUnits="userSpaceOnUse" x="152" y="54" width="15" height="15">
<path fill-rule="evenodd" clip-rule="evenodd" d="M161.281 60.3125C160.297 60.3125 159.5 59.515 159.5 58.5312C159.5 57.5475 160.297 56.75 161.281 56.75C162.265 56.75 163.062 57.5475 163.062 58.5312C163.062 59.0037 162.875 59.4567 162.541 59.7908C162.207 60.1248 161.754 60.3125 161.281 60.3125ZM161.281 57.9375C160.953 57.9375 160.688 58.2033 160.688 58.5312C160.688 58.8592 160.953 59.125 161.281 59.125C161.609 59.125 161.875 58.8592 161.875 58.5312C161.875 58.2033 161.609 57.9375 161.281 57.9375ZM165.527 54.375H153.473C152.867 54.375 152.375 54.8668 152.375 55.4734V67.5266C152.375 67.8179 152.491 68.0973 152.697 68.3033C152.903 68.5093 153.182 68.625 153.473 68.625H165.527C165.818 68.625 166.097 68.5093 166.303 68.3033C166.509 68.0973 166.625 67.8179 166.625 67.5266V55.4734C166.625 54.8668 166.133 54.375 165.527 54.375ZM165.438 55.5625V64.6647L163.217 62.4441C162.994 62.2211 162.692 62.0958 162.377 62.0958C162.062 62.0958 161.759 62.2211 161.537 62.4441L160.688 63.3109L157.422 60.0691C157.199 59.8461 156.897 59.7208 156.582 59.7208C156.267 59.7208 155.964 59.8461 155.742 60.0691L153.562 62.2481V55.5625H165.438ZM153.562 67.4375V63.9225L156.579 60.9062L159.827 64.1541C160.049 64.377 160.352 64.5023 160.667 64.5023C160.982 64.5023 161.284 64.377 161.507 64.1541L162.374 63.2812L165.438 66.345V67.4375H153.562Z" fill="white"/>
</mask>
<g mask="url(#mask2_7_2950)">
</g>
<path fill-rule="evenodd" clip-rule="evenodd" d="M161.281 121.312C160.297 121.312 159.5 120.515 159.5 119.531C159.5 118.547 160.297 117.75 161.281 117.75C162.265 117.75 163.062 118.547 163.062 119.531C163.062 120.004 162.875 120.457 162.541 120.791C162.207 121.125 161.754 121.312 161.281 121.312V121.312ZM161.281 118.938C160.953 118.938 160.688 119.203 160.688 119.531C160.688 119.859 160.953 120.125 161.281 120.125C161.609 120.125 161.875 119.859 161.875 119.531C161.875 119.203 161.609 118.938 161.281 118.938ZM165.527 115.375H153.473C152.867 115.375 152.375 115.867 152.375 116.473V128.527C152.375 128.818 152.491 129.097 152.697 129.303C152.903 129.509 153.182 129.625 153.473 129.625H165.527C165.818 129.625 166.097 129.509 166.303 129.303C166.509 129.097 166.625 128.818 166.625 128.527V116.473C166.625 115.867 166.133 115.375 165.527 115.375ZM165.438 116.562V125.665L163.217 123.444C162.994 123.221 162.692 123.096 162.377 123.096C162.062 123.096 161.759 123.221 161.537 123.444L160.688 124.311L157.422 121.069C157.199 120.846 156.897 120.721 156.582 120.721C156.267 120.721 155.964 120.846 155.742 121.069L153.562 123.248V116.562H165.438ZM153.562 128.438V124.922L156.579 121.906V121.906L159.827 125.154C160.049 125.377 160.352 125.502 160.667 125.502C160.982 125.502 161.284 125.377 161.507 125.154L162.374 124.281V124.281L165.438 127.345V128.438H153.562Z" fill="#6F6F6F"/>
<mask id="mask3_7_2950" style="mask-type:alpha" maskUnits="userSpaceOnUse" x="152" y="115" width="15" height="15">
<path fill-rule="evenodd" clip-rule="evenodd" d="M161.281 121.312C160.297 121.312 159.5 120.515 159.5 119.531C159.5 118.547 160.297 117.75 161.281 117.75C162.265 117.75 163.062 118.547 163.062 119.531C163.062 120.004 162.875 120.457 162.541 120.791C162.207 121.125 161.754 121.312 161.281 121.312V121.312ZM161.281 118.938C160.953 118.938 160.688 119.203 160.688 119.531C160.688 119.859 160.953 120.125 161.281 120.125C161.609 120.125 161.875 119.859 161.875 119.531C161.875 119.203 161.609 118.938 161.281 118.938ZM165.527 115.375H153.473C152.867 115.375 152.375 115.867 152.375 116.473V128.527C152.375 128.818 152.491 129.097 152.697 129.303C152.903 129.509 153.182 129.625 153.473 129.625H165.527C165.818 129.625 166.097 129.509 166.303 129.303C166.509 129.097 166.625 128.818 166.625 128.527V116.473C166.625 115.867 166.133 115.375 165.527 115.375ZM165.438 116.562V125.665L163.217 123.444C162.994 123.221 162.692 123.096 162.377 123.096C162.062 123.096 161.759 123.221 161.537 123.444L160.688 124.311L157.422 121.069C157.199 120.846 156.897 120.721 156.582 120.721C156.267 120.721 155.964 120.846 155.742 121.069L153.562 123.248V116.562H165.438ZM153.562 128.438V124.922L156.579 121.906V121.906L159.827 125.154C160.049 125.377 160.352 125.502 160.667 125.502C160.982 125.502 161.284 125.377 161.507 125.154L162.374 124.281V124.281L165.438 127.345V128.438H153.562Z" fill="white"/>
</mask>
<g mask="url(#mask3_7_2950)">
</g>
<path fill-rule="evenodd" clip-rule="evenodd" d="M222.281 60.3125C221.297 60.3125 220.5 59.515 220.5 58.5312C220.5 57.5475 221.297 56.75 222.281 56.75C223.265 56.75 224.062 57.5475 224.062 58.5312C224.062 59.0037 223.875 59.4567 223.541 59.7908C223.207 60.1248 222.754 60.3125 222.281 60.3125V60.3125ZM222.281 57.9375C221.953 57.9375 221.688 58.2033 221.688 58.5312C221.688 58.8592 221.953 59.125 222.281 59.125C222.609 59.125 222.875 58.8592 222.875 58.5312C222.875 58.2033 222.609 57.9375 222.281 57.9375ZM226.527 54.375H214.473C213.867 54.375 213.375 54.8668 213.375 55.4734V67.5266C213.375 67.8179 213.491 68.0973 213.697 68.3033C213.903 68.5093 214.182 68.625 214.473 68.625H226.527C226.818 68.625 227.097 68.5093 227.303 68.3033C227.509 68.0973 227.625 67.8179 227.625 67.5266V55.4734C227.625 54.8668 227.133 54.375 226.527 54.375ZM226.438 55.5625V64.6647L224.217 62.4441C223.994 62.2211 223.692 62.0958 223.377 62.0958C223.062 62.0958 222.759 62.2211 222.537 62.4441L221.688 63.3109L218.422 60.0691C218.199 59.8461 217.897 59.7208 217.582 59.7208C217.267 59.7208 216.964 59.8461 216.742 60.0691L214.562 62.2481V55.5625H226.438ZM214.562 67.4375V63.9225L217.579 60.9062V60.9062L220.827 64.1541C221.049 64.377 221.352 64.5023 221.667 64.5023C221.982 64.5023 222.284 64.377 222.507 64.1541L223.374 63.2812V63.2812L226.438 66.345V67.4375H214.562Z" fill="#6F6F6F"/>
<mask id="mask4_7_2950" style="mask-type:alpha" maskUnits="userSpaceOnUse" x="213" y="54" width="15" height="15">
<path fill-rule="evenodd" clip-rule="evenodd" d="M222.281 60.3125C221.297 60.3125 220.5 59.515 220.5 58.5312C220.5 57.5475 221.297 56.75 222.281 56.75C223.265 56.75 224.062 57.5475 224.062 58.5312C224.062 59.0037 223.875 59.4567 223.541 59.7908C223.207 60.1248 222.754 60.3125 222.281 60.3125V60.3125ZM222.281 57.9375C221.953 57.9375 221.688 58.2033 221.688 58.5312C221.688 58.8592 221.953 59.125 222.281 59.125C222.609 59.125 222.875 58.8592 222.875 58.5312C222.875 58.2033 222.609 57.9375 222.281 57.9375ZM226.527 54.375H214.473C213.867 54.375 213.375 54.8668 213.375 55.4734V67.5266C213.375 67.8179 213.491 68.0973 213.697 68.3033C213.903 68.5093 214.182 68.625 214.473 68.625H226.527C226.818 68.625 227.097 68.5093 227.303 68.3033C227.509 68.0973 227.625 67.8179 227.625 67.5266V55.4734C227.625 54.8668 227.133 54.375 226.527 54.375ZM226.438 55.5625V64.6647L224.217 62.4441C223.994 62.2211 223.692 62.0958 223.377 62.0958C223.062 62.0958 222.759 62.2211 222.537 62.4441L221.688 63.3109L218.422 60.0691C218.199 59.8461 217.897 59.7208 217.582 59.7208C217.267 59.7208 216.964 59.8461 216.742 60.0691L214.562 62.2481V55.5625H226.438ZM214.562 67.4375V63.9225L217.579 60.9062V60.9062L220.827 64.1541C221.049 64.377 221.352 64.5023 221.667 64.5023C221.982 64.5023 222.284 64.377 222.507 64.1541L223.374 63.2812V63.2812L226.438 66.345V67.4375H214.562Z" fill="white"/>
</mask>
<g mask="url(#mask4_7_2950)">
</g>
<path fill-rule="evenodd" clip-rule="evenodd" d="M222.281 121.312C221.297 121.312 220.5 120.515 220.5 119.531C220.5 118.547 221.297 117.75 222.281 117.75C223.265 117.75 224.062 118.547 224.062 119.531C224.062 120.004 223.875 120.457 223.541 120.791C223.207 121.125 222.754 121.312 222.281 121.312V121.312ZM222.281 118.938C221.953 118.938 221.688 119.203 221.688 119.531C221.688 119.859 221.953 120.125 222.281 120.125C222.609 120.125 222.875 119.859 222.875 119.531C222.875 119.203 222.609 118.938 222.281 118.938ZM226.527 115.375H214.473C213.867 115.375 213.375 115.867 213.375 116.473V128.527C213.375 128.818 213.491 129.097 213.697 129.303C213.903 129.509 214.182 129.625 214.473 129.625H226.527C226.818 129.625 227.097 129.509 227.303 129.303C227.509 129.097 227.625 128.818 227.625 128.527V116.473C227.625 115.867 227.133 115.375 226.527 115.375ZM226.438 116.562V125.665L224.217 123.444C223.994 123.221 223.692 123.096 223.377 123.096C223.062 123.096 222.759 123.221 222.537 123.444L221.688 124.311L218.422 121.069C218.199 120.846 217.897 120.721 217.582 120.721C217.267 120.721 216.964 120.846 216.742 121.069L214.562 123.248V116.562H226.438ZM214.562 128.438V124.922L217.579 121.906V121.906L220.827 125.154C221.049 125.377 221.352 125.502 221.667 125.502C221.982 125.502 222.284 125.377 222.507 125.154L223.374 124.281V124.281L226.438 127.345V128.438H214.562Z" fill="#6F6F6F"/>
<mask id="mask5_7_2950" style="mask-type:alpha" maskUnits="userSpaceOnUse" x="213" y="115" width="15" height="15">
<path fill-rule="evenodd" clip-rule="evenodd" d="M222.281 121.312C221.297 121.312 220.5 120.515 220.5 119.531C220.5 118.547 221.297 117.75 222.281 117.75C223.265 117.75 224.062 118.547 224.062 119.531C224.062 120.004 223.875 120.457 223.541 120.791C223.207 121.125 222.754 121.312 222.281 121.312V121.312ZM222.281 118.938C221.953 118.938 221.688 119.203 221.688 119.531C221.688 119.859 221.953 120.125 222.281 120.125C222.609 120.125 222.875 119.859 222.875 119.531C222.875 119.203 222.609 118.938 222.281 118.938ZM226.527 115.375H214.473C213.867 115.375 213.375 115.867 213.375 116.473V128.527C213.375 128.818 213.491 129.097 213.697 129.303C213.903 129.509 214.182 129.625 214.473 129.625H226.527C226.818 129.625 227.097 129.509 227.303 129.303C227.509 129.097 227.625 128.818 227.625 128.527V116.473C227.625 115.867 227.133 115.375 226.527 115.375ZM226.438 116.562V125.665L224.217 123.444C223.994 123.221 223.692 123.096 223.377 123.096C223.062 123.096 222.759 123.221 222.537 123.444L221.688 124.311L218.422 121.069C218.199 120.846 217.897 120.721 217.582 120.721C217.267 120.721 216.964 120.846 216.742 121.069L214.562 123.248V116.562H226.438ZM214.562 128.438V124.922L217.579 121.906V121.906L220.827 125.154C221.049 125.377 221.352 125.502 221.667 125.502C221.982 125.502 222.284 125.377 222.507 125.154L223.374 124.281V124.281L226.438 127.345V128.438H214.562Z" fill="white"/>
</mask>
<g mask="url(#mask5_7_2950)">
</g>
<defs>
<linearGradient id="paint0_linear_7_2950" x1="160" y1="68.5" x2="160" y2="85.5" gradientUnits="userSpaceOnUse">
<stop stop-color="#C6C6C6"/>
<stop offset="1" stop-color="#C6C6C6" stop-opacity="0"/>
</linearGradient>
<linearGradient id="paint1_linear_7_2950" x1="160" y1="129.5" x2="160" y2="146.5" gradientUnits="userSpaceOnUse">
<stop stop-color="#C6C6C6"/>
<stop offset="1" stop-color="#C6C6C6" stop-opacity="0"/>
</linearGradient>
<linearGradient id="paint2_linear_7_2950" x1="99" y1="68.5" x2="99" y2="85.5" gradientUnits="userSpaceOnUse">
<stop stop-color="#C6C6C6"/>
<stop offset="1" stop-color="#C6C6C6" stop-opacity="0"/>
</linearGradient>
<linearGradient id="paint3_linear_7_2950" x1="99" y1="129.5" x2="99" y2="146.5" gradientUnits="userSpaceOnUse">
<stop stop-color="#C6C6C6"/>
<stop offset="1" stop-color="#C6C6C6" stop-opacity="0"/>
</linearGradient>
<linearGradient id="paint4_linear_7_2950" x1="221" y1="68.5" x2="221" y2="85.5" gradientUnits="userSpaceOnUse">
<stop stop-color="#C6C6C6"/>
<stop offset="1" stop-color="#C6C6C6" stop-opacity="0"/>
</linearGradient>
<linearGradient id="paint5_linear_7_2950" x1="221" y1="129.5" x2="221" y2="146.5" gradientUnits="userSpaceOnUse">
<stop stop-color="#C6C6C6"/>
<stop offset="1" stop-color="#C6C6C6" stop-opacity="0"/>
</linearGradient>
</defs>
</svg>
