<svg width="320" height="180" viewBox="0 0 320 180" fill="none" xmlns="http://www.w3.org/2000/svg">
<rect x="56" y="37" width="208" height="106" fill="#F3F3F3"/>
<rect x="56" y="37" width="208" height="11" fill="#E0E0E0"/>
<rect x="56" y="37" width="15" height="106" fill="#E0E0E0"/>
<g style="mix-blend-mode:multiply">
<rect x="56" y="59" width="208" height="1" fill="#C6C6C6" fill-opacity="0.8"/>
</g>
<g style="mix-blend-mode:multiply">
<rect x="56" y="47" width="208" height="1" fill="#C6C6C6" fill-opacity="0.8"/>
</g>
<g style="mix-blend-mode:multiply">
<rect x="56" y="71" width="208" height="1" fill="#C6C6C6" fill-opacity="0.8"/>
</g>
<g style="mix-blend-mode:multiply">
<rect x="56" y="83" width="208" height="1" fill="#C6C6C6" fill-opacity="0.8"/>
</g>
<g style="mix-blend-mode:multiply">
<rect x="56" y="95" width="208" height="1" fill="#C6C6C6" fill-opacity="0.8"/>
</g>
<g style="mix-blend-mode:multiply">
<rect x="56" y="107" width="208" height="1" fill="#C6C6C6" fill-opacity="0.8"/>
</g>
<g style="mix-blend-mode:multiply">
<rect x="56" y="119" width="208" height="1" fill="#C6C6C6" fill-opacity="0.8"/>
</g>
<g style="mix-blend-mode:multiply">
<rect x="56" y="131" width="208" height="1" fill="#C6C6C6" fill-opacity="0.8"/>
</g>
<g style="mix-blend-mode:multiply">
<rect x="167" y="37" width="1" height="106" fill="#C6C6C6" fill-opacity="0.8"/>
</g>
<g style="mix-blend-mode:multiply">
<rect x="118" y="37" width="1" height="106" fill="#C6C6C6" fill-opacity="0.8"/>
</g>
<g style="mix-blend-mode:multiply">
<rect x="70" y="37" width="1" height="106" fill="#C6C6C6" fill-opacity="0.8"/>
</g>
<g style="mix-blend-mode:multiply">
<rect x="216" y="37" width="1" height="106" fill="#C6C6C6" fill-opacity="0.8"/>
</g>
</svg>
