<svg width="320" height="180" viewBox="0 0 320 180" fill="none" xmlns="http://www.w3.org/2000/svg">
<rect x="60" y="41" width="200" height="109" fill="white"/>
<rect x="60" y="29" width="200" height="13" fill="#171717"/>
<rect opacity="0.844385" x="94" y="34.5" width="22" height="3" fill="#C6C6C6"/>
<rect opacity="0.844385" x="67" y="34.5" width="22" height="3" fill="#C6C6C6"/>
<rect opacity="0.844385" x="121" y="34.5" width="22" height="3" fill="#C6C6C6"/>
<rect opacity="0.844385" x="239" y="33" width="5" height="5" fill="#C6C6C6"/>
<rect opacity="0.844385" x="249" y="33" width="5" height="5" fill="#C6C6C6"/>
<g style="mix-blend-mode:multiply">
<rect x="60.5" y="41.5" width="199" height="109" fill="#F4F4F4"/>
<rect x="60.5" y="41.5" width="199" height="109" stroke="#C6C6C6"/>
</g>
<path d="M125.536 119.649L113 112.534V99.9141L125.536 107.029V119.649Z" fill="url(#paint0_linear_8_2967)"/>
<path d="M130.001 116.762L125.537 119.515V106.895L130.001 104.144V116.762Z" fill="#A2A9B0"/>
<path d="M130.001 104.043L125.537 106.796L113.121 99.7945L117.583 97.0433L130.001 104.043Z" fill="url(#paint1_linear_8_2967)"/>
<path opacity="0.49" d="M130.001 120.387L125.537 123.138L113.121 116.139L117.583 113.388L130.001 120.387Z" fill="url(#paint2_linear_8_2967)"/>
<path d="M125.788 104.716H124.34V99.411C124.34 95.8483 121.974 93.574 120.347 93.574C119.88 93.574 119.501 93.7627 119.222 94.1319C118.853 94.6188 118.658 95.404 118.658 96.4022V100.726H117.209V96.4022C117.209 95.0692 117.496 94.0122 118.065 93.2636C118.619 92.5332 119.428 92.1315 120.347 92.1315C121.622 92.1315 123.005 92.9045 124.046 94.2009C125.169 95.5988 125.788 97.4491 125.788 99.411V104.716Z" fill="url(#paint3_linear_8_2967)"/>
<path d="M120.117 111.949L119.875 109.47L120.333 108.799C120.333 108.261 120.213 107.522 119.337 107.255C118.693 107.058 118.446 107.496 118.446 107.898C118.446 108.299 118.73 108.799 118.73 108.799L118.326 110.919L120.119 111.949H120.117Z" fill="#929393"/>
<path d="M165.525 136.412L165.239 137.094H164.891V136.412H165.525Z" fill="#958DFE"/>
<path d="M165.238 137.094L165.524 136.412H166.071V137.094H165.238Z" fill="#968DFE"/>
<path d="M165.482 137.16C165.328 137.16 165.175 137.126 165.054 137.056C164.923 136.981 164.85 136.873 164.85 136.756C164.85 136.637 164.923 136.529 165.056 136.453C165.296 136.315 165.673 136.315 165.911 136.453C166.042 136.529 166.116 136.637 166.116 136.754C166.116 136.873 166.042 136.979 165.909 137.056C165.788 137.126 165.635 137.16 165.482 137.16ZM165.152 136.616C165.082 136.657 165.041 136.707 165.041 136.756C165.041 136.803 165.08 136.852 165.151 136.894C165.33 136.998 165.635 136.998 165.817 136.894C165.887 136.852 165.928 136.803 165.928 136.754C165.928 136.705 165.889 136.657 165.819 136.616C165.639 136.512 165.334 136.512 165.152 136.616Z" fill="#E0E0E0"/>
<path d="M162.908 135.193L162.781 135.491V135.193H162.908Z" fill="#928DFE"/>
<path d="M163.951 135.193L163.665 135.875H162.781V135.491L162.908 135.193H163.951Z" fill="#938DFE"/>
<path d="M163.664 135.875L163.95 135.193H163.963V135.875H163.664Z" fill="#948DFE"/>
<path d="M163.37 135.939C163.217 135.939 163.064 135.905 162.943 135.835C162.812 135.76 162.738 135.652 162.738 135.535C162.738 135.416 162.812 135.31 162.945 135.232C163.185 135.094 163.561 135.094 163.8 135.232C163.93 135.308 164.004 135.416 164.004 135.533C164.004 135.652 163.93 135.76 163.798 135.835C163.679 135.905 163.524 135.939 163.37 135.939ZM163.041 135.395C162.971 135.436 162.929 135.486 162.929 135.535C162.929 135.582 162.969 135.631 163.039 135.673C163.219 135.777 163.524 135.777 163.705 135.673C163.775 135.631 163.817 135.582 163.817 135.533C163.817 135.486 163.777 135.436 163.707 135.395C163.527 135.291 163.223 135.291 163.041 135.395Z" fill="#E0E0E0"/>
<path d="M161.327 133.983L161.042 134.666H160.697V133.983H161.327Z" fill="#908DFE"/>
<path d="M161.041 134.666L161.327 133.983H161.877V134.666H161.041Z" fill="#918DFE"/>
<path d="M161.286 134.73C161.133 134.73 160.978 134.696 160.859 134.626C160.726 134.55 160.654 134.442 160.654 134.325C160.654 134.206 160.728 134.1 160.861 134.023C161.101 133.885 161.477 133.885 161.716 134.023C161.846 134.099 161.918 134.206 161.918 134.323C161.918 134.441 161.843 134.55 161.712 134.626C161.593 134.696 161.438 134.73 161.284 134.73H161.286ZM161.29 134.108C161.169 134.108 161.048 134.134 160.957 134.185C160.885 134.227 160.845 134.278 160.845 134.325C160.845 134.373 160.885 134.422 160.955 134.463C161.135 134.567 161.44 134.567 161.621 134.463C161.691 134.424 161.733 134.373 161.733 134.323C161.733 134.276 161.693 134.227 161.625 134.185C161.536 134.133 161.415 134.108 161.294 134.108H161.29Z" fill="#E0E0E0"/>
<path d="M158.704 132.774L158.613 132.991V132.774H158.704Z" fill="#8D8DFE"/>
<path d="M159.747 132.774L159.461 133.456H158.613V132.991L158.704 132.774H159.747Z" fill="#8E8DFE"/>
<path d="M159.461 133.456L159.747 132.774H159.794V133.456H159.461Z" fill="#8F8DFE"/>
<path d="M159.202 133.52C159.049 133.52 158.896 133.486 158.775 133.416C158.644 133.341 158.57 133.233 158.57 133.116C158.57 132.997 158.644 132.889 158.777 132.813C159.017 132.675 159.393 132.675 159.632 132.813C159.763 132.889 159.836 132.997 159.834 133.114C159.834 133.233 159.761 133.341 159.628 133.416C159.509 133.486 159.354 133.52 159.2 133.52H159.202ZM158.873 132.976C158.803 133.017 158.761 133.067 158.761 133.116C158.761 133.165 158.801 133.212 158.871 133.254C159.051 133.358 159.356 133.358 159.537 133.254C159.607 133.212 159.649 133.163 159.649 133.114C159.649 133.067 159.609 133.017 159.539 132.976C159.359 132.872 159.055 132.872 158.873 132.976Z" fill="#E0E0E0"/>
<path d="M157.123 131.564L156.838 132.246H156.527V131.564H157.123Z" fill="#8B8DFE"/>
<path d="M156.838 132.246L157.124 131.564H157.71V132.246H156.838Z" fill="#8C8DFE"/>
<path d="M157.118 132.311C156.965 132.311 156.81 132.277 156.691 132.207C156.56 132.131 156.486 132.023 156.486 131.906C156.486 131.787 156.56 131.681 156.693 131.604C156.933 131.466 157.308 131.466 157.548 131.604C157.679 131.679 157.75 131.787 157.75 131.904C157.75 132.023 157.677 132.131 157.544 132.207C157.423 132.277 157.27 132.311 157.116 132.311H157.118ZM156.789 131.766C156.717 131.808 156.677 131.859 156.677 131.906C156.677 131.953 156.717 132.003 156.787 132.044C156.967 132.148 157.272 132.148 157.453 132.044C157.523 132.004 157.565 131.953 157.565 131.904C157.565 131.857 157.525 131.808 157.455 131.766C157.275 131.662 156.971 131.662 156.789 131.766Z" fill="#E0E0E0"/>
<path d="M154.501 130.355L154.443 130.491V130.355H154.501Z" fill="#888DFE"/>
<path d="M155.545 130.355L155.257 131.037H154.443V130.491L154.5 130.355H155.545Z" fill="#898DFE"/>
<path d="M155.258 131.037L155.545 130.355H155.627V131.037H155.258Z" fill="#8A8DFE"/>
<path d="M155.033 131.101C154.879 131.101 154.724 131.067 154.605 130.997C154.474 130.922 154.4 130.814 154.402 130.697C154.402 130.578 154.476 130.47 154.609 130.394C154.849 130.256 155.226 130.256 155.464 130.394C155.595 130.47 155.668 130.578 155.666 130.695C155.666 130.814 155.593 130.922 155.46 130.997C155.341 131.067 155.186 131.101 155.033 131.101ZM154.703 130.557C154.633 130.598 154.592 130.647 154.592 130.697C154.592 130.746 154.631 130.793 154.701 130.835C154.881 130.939 155.186 130.939 155.367 130.835C155.438 130.793 155.479 130.744 155.479 130.695C155.479 130.646 155.439 130.598 155.369 130.557C155.19 130.453 154.885 130.453 154.703 130.557Z" fill="#E0E0E0"/>
<path d="M152.923 129.145L152.636 129.827H152.361V129.145H152.923Z" fill="#868DFE"/>
<path d="M152.635 129.827L152.922 129.145H153.541V129.827H152.635Z" fill="#878DFE"/>
<path d="M152.95 129.892C152.797 129.892 152.644 129.858 152.523 129.788C152.39 129.712 152.318 129.604 152.318 129.487C152.318 129.368 152.392 129.262 152.525 129.185C152.765 129.047 153.142 129.047 153.38 129.185C153.511 129.26 153.582 129.368 153.582 129.485C153.582 129.602 153.507 129.712 153.376 129.788C153.257 129.858 153.102 129.892 152.949 129.892H152.95ZM152.621 129.347C152.549 129.389 152.509 129.44 152.509 129.487C152.509 129.534 152.549 129.584 152.619 129.625C152.799 129.729 153.104 129.729 153.285 129.625C153.355 129.585 153.397 129.534 153.397 129.485C153.397 129.436 153.357 129.389 153.289 129.347C153.109 129.243 152.805 129.243 152.623 129.347H152.621Z" fill="#E0E0E0"/>
<path d="M150.3 127.936L150.277 127.988V127.936H150.3Z" fill="#828DFE"/>
<path d="M151.343 127.936L151.057 128.618H150.277V127.988L150.3 127.936H151.343Z" fill="#838DFE"/>
<path d="M151.057 128.618L151.342 127.936H151.458V128.618H151.057Z" fill="#848DFE"/>
<path d="M150.867 128.682C150.713 128.682 150.558 128.648 150.439 128.578C150.308 128.502 150.234 128.395 150.236 128.278C150.236 128.158 150.31 128.051 150.443 127.975C150.683 127.837 151.06 127.837 151.298 127.975C151.429 128.051 151.502 128.158 151.502 128.276C151.502 128.395 151.429 128.502 151.296 128.578C151.177 128.648 151.022 128.682 150.868 128.682H150.867ZM150.537 128.138C150.467 128.179 150.426 128.228 150.426 128.278C150.426 128.327 150.465 128.374 150.535 128.416C150.715 128.519 151.02 128.519 151.201 128.416C151.271 128.374 151.313 128.325 151.313 128.276C151.313 128.227 151.273 128.179 151.203 128.138C151.024 128.034 150.719 128.034 150.537 128.138Z" fill="#E0E0E0"/>
<path d="M148.719 126.726L148.434 127.408H148.191V126.726H148.719Z" fill="#808DFE"/>
<path d="M148.434 127.408L148.719 126.726H149.374V127.408H148.434Z" fill="#818DFE"/>
<path d="M148.782 127.473C148.629 127.473 148.474 127.439 148.355 127.369C148.224 127.293 148.15 127.185 148.15 127.068C148.15 126.949 148.224 126.843 148.357 126.766C148.597 126.628 148.974 126.628 149.212 126.766C149.343 126.841 149.414 126.949 149.414 127.066C149.414 127.185 149.341 127.293 149.208 127.369C149.087 127.439 148.934 127.473 148.781 127.473H148.782ZM148.453 126.928C148.381 126.97 148.342 127.021 148.342 127.068C148.342 127.115 148.381 127.164 148.451 127.206C148.631 127.31 148.936 127.31 149.117 127.206C149.187 127.166 149.227 127.115 149.229 127.066C149.229 127.019 149.189 126.97 149.119 126.928C148.94 126.824 148.635 126.824 148.453 126.928Z" fill="#E0E0E0"/>
<path d="M147.141 125.516L146.855 126.199H146.109V125.516H147.141Z" fill="#7E8DFE"/>
<path d="M146.855 126.199L147.141 125.516H147.293V126.199H146.855Z" fill="#7F8DFE"/>
<path d="M146.698 126.263C146.545 126.263 146.392 126.229 146.271 126.159C146.14 126.083 146.066 125.976 146.066 125.858C146.066 125.739 146.14 125.634 146.273 125.556C146.513 125.418 146.89 125.418 147.128 125.556C147.259 125.632 147.332 125.739 147.332 125.857C147.332 125.976 147.259 126.083 147.126 126.159C147.007 126.229 146.852 126.263 146.698 126.263ZM146.369 125.719C146.299 125.76 146.258 125.809 146.258 125.858C146.258 125.906 146.297 125.955 146.367 125.996C146.547 126.1 146.852 126.1 147.033 125.996C147.103 125.955 147.145 125.906 147.145 125.857C147.145 125.809 147.105 125.76 147.035 125.719C146.856 125.615 146.551 125.615 146.369 125.719Z" fill="#E0E0E0"/>
<path d="M144.517 124.307L144.232 124.991H144.025V124.307H144.517Z" fill="#7A8CFD"/>
<path d="M144.232 124.991L144.518 124.307H145.207V124.991H144.232Z" fill="#7B8CFD"/>
<path d="M144.614 125.053C144.461 125.053 144.306 125.019 144.187 124.95C144.054 124.874 143.982 124.766 143.982 124.649C143.982 124.53 144.056 124.424 144.189 124.347C144.429 124.209 144.806 124.209 145.044 124.347C145.175 124.422 145.247 124.53 145.247 124.647C145.247 124.764 145.171 124.874 145.04 124.95C144.921 125.019 144.766 125.053 144.613 125.053H144.614ZM144.618 124.432C144.497 124.432 144.376 124.458 144.285 124.509C144.213 124.551 144.174 124.602 144.174 124.649C144.174 124.696 144.213 124.745 144.283 124.787C144.463 124.891 144.768 124.891 144.949 124.787C145.019 124.747 145.061 124.696 145.061 124.647C145.061 124.6 145.021 124.551 144.953 124.509C144.864 124.456 144.743 124.432 144.622 124.432H144.618Z" fill="#E0E0E0"/>
<path d="M142.939 123.097L142.651 123.78H141.941V123.097H142.939Z" fill="#788CFD"/>
<path d="M142.65 123.78L142.938 123.097H143.122V123.78H142.65Z" fill="#798CFD"/>
<path d="M142.53 123.844C142.377 123.844 142.224 123.81 142.103 123.74C141.972 123.664 141.898 123.557 141.898 123.439C141.898 123.32 141.972 123.213 142.105 123.137C142.345 122.999 142.722 122.999 142.96 123.137C143.091 123.213 143.164 123.32 143.164 123.438C143.164 123.557 143.091 123.664 142.958 123.74C142.839 123.81 142.684 123.844 142.53 123.844ZM142.201 123.3C142.131 123.341 142.09 123.39 142.09 123.439C142.09 123.489 142.129 123.536 142.199 123.577C142.379 123.681 142.684 123.681 142.865 123.577C142.935 123.536 142.977 123.487 142.977 123.438C142.977 123.39 142.937 123.341 142.867 123.3C142.688 123.196 142.383 123.196 142.201 123.3Z" fill="#E0E0E0"/>
<path d="M140.315 121.888L140.028 122.572H139.855V121.888H140.315Z" fill="#748CFD"/>
<path d="M140.027 122.572L140.315 121.888H141.038V122.572H140.027Z" fill="#768CFD"/>
<path d="M140.447 122.634C140.293 122.634 140.138 122.6 140.019 122.53C139.888 122.455 139.814 122.347 139.814 122.23C139.814 122.111 139.888 122.005 140.021 121.927C140.261 121.789 140.636 121.789 140.876 121.927C141.007 122.003 141.079 122.111 141.079 122.228C141.079 122.347 141.005 122.455 140.872 122.53C140.751 122.6 140.598 122.634 140.445 122.634H140.447ZM140.45 122.012C140.329 122.012 140.208 122.039 140.117 122.09C140.045 122.132 140.006 122.183 140.006 122.23C140.006 122.277 140.045 122.326 140.115 122.368C140.295 122.472 140.6 122.472 140.781 122.368C140.851 122.328 140.893 122.277 140.893 122.228C140.893 122.181 140.853 122.132 140.783 122.09C140.694 122.037 140.573 122.012 140.452 122.012H140.45Z" fill="#E0E0E0"/>
<path d="M138.737 120.678L138.451 121.36H137.775V120.678H138.737Z" fill="#728CFD"/>
<path d="M138.451 121.36L138.737 120.678H138.956V121.36H138.451Z" fill="#738CFD"/>
<path d="M138.363 121.425C138.209 121.425 138.054 121.391 137.935 121.321C137.804 121.245 137.731 121.138 137.732 121.02C137.732 120.901 137.806 120.794 137.939 120.718C138.179 120.58 138.554 120.578 138.794 120.718C138.925 120.794 138.998 120.901 138.997 121.018C138.997 121.138 138.923 121.245 138.79 121.321C138.671 121.391 138.516 121.425 138.363 121.425ZM138.033 120.88C137.963 120.922 137.922 120.971 137.922 121.02C137.922 121.069 137.961 121.117 138.031 121.158C138.211 121.262 138.516 121.262 138.698 121.158C138.768 121.117 138.809 121.068 138.809 121.018C138.809 120.969 138.769 120.922 138.699 120.88C138.52 120.777 138.215 120.777 138.033 120.88Z" fill="#E0E0E0"/>
<path d="M136.113 119.469L135.828 120.153H135.689V119.469H136.113Z" fill="#6E8CFD"/>
<path d="M136.871 120.151V120.153H135.828L136.114 119.469H136.871V120.151Z" fill="#708CFD"/>
<path d="M136.28 120.217C136.127 120.217 135.972 120.183 135.853 120.113C135.72 120.038 135.648 119.93 135.648 119.813C135.648 119.694 135.722 119.588 135.855 119.51C136.095 119.372 136.472 119.372 136.71 119.51C136.841 119.586 136.913 119.694 136.913 119.811C136.913 119.928 136.837 120.038 136.706 120.113C136.587 120.183 136.432 120.217 136.279 120.217H136.28ZM135.951 119.673C135.879 119.714 135.84 119.765 135.84 119.813C135.84 119.86 135.879 119.909 135.949 119.951C136.129 120.055 136.434 120.055 136.615 119.951C136.685 119.911 136.727 119.86 136.727 119.811C136.727 119.764 136.687 119.714 136.617 119.673C136.438 119.569 136.133 119.569 135.951 119.673Z" fill="#E0E0E0"/>
<path d="M134.533 118.259L134.247 118.943H133.605V118.259H134.533Z" fill="#6C8CFD"/>
<path d="M134.246 118.943L134.532 118.259H134.785V118.943H134.246Z" fill="#6D8CFD"/>
<path d="M134.195 119.006C134.041 119.006 133.886 118.972 133.767 118.902C133.636 118.826 133.563 118.718 133.564 118.601C133.564 118.482 133.638 118.375 133.771 118.299C134.011 118.161 134.388 118.161 134.626 118.299C134.757 118.375 134.83 118.482 134.829 118.599C134.829 118.718 134.755 118.826 134.622 118.902C134.503 118.972 134.348 119.006 134.195 119.006ZM133.865 118.461C133.795 118.503 133.754 118.552 133.754 118.601C133.754 118.65 133.793 118.698 133.863 118.739C134.043 118.843 134.348 118.843 134.53 118.739C134.6 118.698 134.641 118.649 134.641 118.599C134.641 118.55 134.602 118.503 134.531 118.461C134.352 118.357 134.047 118.357 133.865 118.461Z" fill="#E0E0E0"/>
<path d="M131.911 117.05L131.624 117.734H131.521V117.05H131.911Z" fill="#688CFD"/>
<path d="M132.702 117.651L132.666 117.734H131.623L131.911 117.05H132.702V117.651Z" fill="#6A8CFD"/>
<path d="M132.666 117.734L132.702 117.651V117.734H132.666Z" fill="#6B8CFD"/>
<path d="M132.111 117.798C131.957 117.798 131.802 117.764 131.683 117.694C131.552 117.619 131.479 117.511 131.479 117.394C131.479 117.275 131.552 117.169 131.685 117.091C131.925 116.953 132.3 116.953 132.54 117.091C132.671 117.167 132.743 117.275 132.743 117.392C132.743 117.511 132.669 117.619 132.536 117.694C132.415 117.764 132.262 117.798 132.109 117.798H132.111ZM131.781 117.254C131.709 117.295 131.67 117.346 131.67 117.394C131.67 117.441 131.709 117.49 131.779 117.532C131.959 117.636 132.264 117.636 132.446 117.532C132.516 117.492 132.555 117.441 132.557 117.392C132.557 117.345 132.517 117.295 132.447 117.254C132.268 117.15 131.963 117.15 131.781 117.254Z" fill="#E0E0E0"/>
<path d="M130.333 115.84L130.047 116.524H129.439V115.84H130.333Z" fill="#668CFD"/>
<path d="M130.047 116.524L130.333 115.84H130.62V116.524H130.047Z" fill="#678CFD"/>
<path d="M127.709 114.631L127.422 115.315H127.354V114.631H127.709Z" fill="#628CFD"/>
<path d="M128.467 115.315L128.536 115.15V115.315H128.467Z" fill="#658CFD"/>
<path d="M124.264 112.896L124.368 112.648V112.896H124.264Z" fill="#5E8CFD"/>
<path d="M104.985 120.69L104.699 121.372H104.16V120.69H104.985Z" fill="#598CFD"/>
<path d="M104.699 121.372L104.985 120.69H105.341V121.372H104.699Z" fill="#5B8CFD"/>
<path d="M104.749 121.436C104.596 121.436 104.443 121.402 104.322 121.332C104.191 121.257 104.117 121.149 104.117 121.032C104.117 120.913 104.191 120.805 104.323 120.729C104.564 120.591 104.94 120.591 105.179 120.729C105.309 120.805 105.383 120.913 105.383 121.03C105.383 121.149 105.309 121.257 105.177 121.332C105.058 121.402 104.903 121.436 104.749 121.436V121.436ZM104.42 120.892C104.35 120.933 104.308 120.983 104.308 121.032C104.308 121.081 104.348 121.128 104.418 121.17C104.598 121.274 104.903 121.274 105.084 121.17C105.154 121.128 105.196 121.079 105.196 121.03C105.196 120.983 105.156 120.933 105.086 120.892C104.906 120.788 104.602 120.788 104.42 120.892Z" fill="url(#paint4_linear_8_2967)"/>
<path d="M165.529 136.402L165.242 137.085H164.863V136.402H165.529Z" fill="#958DFE"/>
<path d="M165.242 137.085L165.53 136.402H166.045V137.085H165.242Z" fill="#968DFE"/>
<path d="M165.454 137.149C165.301 137.149 165.146 137.115 165.027 137.045C164.896 136.969 164.822 136.862 164.822 136.744C164.822 136.625 164.896 136.519 165.029 136.442C165.269 136.304 165.645 136.304 165.884 136.442C166.014 136.518 166.086 136.625 166.086 136.742C166.086 136.862 166.013 136.969 165.88 137.045C165.759 137.115 165.606 137.149 165.452 137.149H165.454ZM165.125 136.605C165.053 136.646 165.013 136.697 165.013 136.744C165.013 136.792 165.053 136.841 165.123 136.882C165.303 136.986 165.608 136.986 165.789 136.882C165.859 136.843 165.899 136.792 165.901 136.742C165.901 136.695 165.861 136.646 165.791 136.605C165.611 136.501 165.307 136.501 165.125 136.605Z" fill="#E0E0E0"/>
<path d="M189.779 150.73L189.744 150.813V150.73H189.779Z" fill="#AF8EFF"/>
<path d="M188.198 149.52L187.91 150.202H187.658V149.52H188.198Z" fill="#AD8EFF"/>
<path d="M187.91 150.202L188.198 149.52H188.839V150.202H187.91Z" fill="#AE8EFF"/>
<path d="M188.247 150.267C188.094 150.267 187.939 150.233 187.82 150.163C187.689 150.087 187.615 149.979 187.617 149.862C187.617 149.743 187.691 149.637 187.823 149.56C188.064 149.422 188.439 149.422 188.679 149.56C188.809 149.635 188.881 149.743 188.881 149.86C188.881 149.979 188.808 150.087 188.675 150.163C188.556 150.233 188.401 150.267 188.247 150.267ZM188.251 149.645C188.13 149.645 188.009 149.671 187.918 149.724C187.848 149.766 187.806 149.815 187.806 149.862C187.806 149.909 187.846 149.959 187.916 150C188.096 150.104 188.401 150.104 188.582 150C188.652 149.959 188.694 149.909 188.694 149.86C188.694 149.811 188.654 149.764 188.584 149.724C188.495 149.671 188.374 149.645 188.253 149.645H188.251Z" fill="#E0E0E0"/>
<path d="M185.577 148.311L185.574 148.313V148.311H185.577Z" fill="#AB8EFF"/>
<path d="M186.619 148.311L186.333 148.993H185.574V148.313L185.576 148.311H186.619Z" fill="#AC8EFF"/>
<path d="M186.334 148.993L186.62 148.311H186.758V148.993H186.334Z" fill="#AD8EFF"/>
<path d="M186.165 149.057C186.012 149.057 185.857 149.023 185.738 148.953C185.605 148.878 185.533 148.77 185.533 148.653C185.533 148.534 185.607 148.428 185.739 148.35C185.98 148.212 186.356 148.212 186.595 148.35C186.725 148.426 186.797 148.534 186.797 148.651C186.797 148.768 186.722 148.878 186.591 148.953C186.472 149.023 186.317 149.057 186.163 149.057H186.165ZM185.836 148.513C185.764 148.554 185.724 148.605 185.724 148.653C185.724 148.7 185.764 148.749 185.834 148.791C186.014 148.895 186.319 148.895 186.5 148.791C186.57 148.751 186.612 148.7 186.612 148.651C186.612 148.604 186.572 148.554 186.502 148.513C186.322 148.409 186.018 148.409 185.836 148.513Z" fill="#E0E0E0"/>
<path d="M183.995 147.101L183.71 147.783H183.49V147.101H183.995Z" fill="#A98EFF"/>
<path d="M183.709 147.783L183.995 147.101H184.672V147.783H183.709Z" fill="#AA8EFF"/>
<path d="M184.079 147.848C183.926 147.848 183.771 147.814 183.652 147.744C183.521 147.668 183.447 147.56 183.449 147.443C183.449 147.324 183.523 147.216 183.656 147.141C183.896 147.003 184.272 147.003 184.511 147.141C184.641 147.216 184.715 147.324 184.713 147.441C184.713 147.56 184.64 147.668 184.507 147.744C184.388 147.814 184.233 147.848 184.079 147.848ZM183.75 147.303C183.68 147.345 183.638 147.394 183.638 147.443C183.638 147.492 183.678 147.539 183.748 147.581C183.928 147.685 184.233 147.685 184.414 147.581C184.484 147.539 184.526 147.49 184.526 147.441C184.526 147.392 184.486 147.345 184.416 147.303C184.236 147.199 183.932 147.199 183.75 147.303Z" fill="#E0E0E0"/>
<path d="M182.415 145.891L182.129 146.576H181.406V145.891H182.415Z" fill="#A88EFF"/>
<path d="M182.129 146.576L182.415 145.891H182.587V146.576H182.129Z" fill="#A98EFF"/>
<path d="M181.995 146.638C181.842 146.638 181.687 146.604 181.568 146.534C181.435 146.458 181.363 146.351 181.363 146.234C181.363 146.115 181.437 146.009 181.57 145.931C181.81 145.793 182.185 145.791 182.425 145.931C182.555 146.007 182.627 146.115 182.627 146.232C182.627 146.351 182.554 146.458 182.421 146.534C182.3 146.604 182.147 146.638 181.993 146.638H181.995ZM181.999 146.016C181.878 146.016 181.757 146.043 181.666 146.094C181.594 146.135 181.554 146.184 181.554 146.234C181.554 146.281 181.594 146.33 181.664 146.372C181.844 146.476 182.149 146.476 182.33 146.372C182.4 146.332 182.442 146.281 182.442 146.232C182.442 146.183 182.402 146.135 182.334 146.094C182.245 146.041 182.124 146.016 182.003 146.016H181.999Z" fill="#E0E0E0"/>
<path d="M179.794 144.682L179.508 145.364H179.324V144.682H179.794Z" fill="#A58DFE"/>
<path d="M179.508 145.364L179.794 144.682H180.505V145.364H179.508Z" fill="#A68DFE"/>
<path d="M179.913 145.428C179.76 145.428 179.605 145.394 179.486 145.325C179.355 145.249 179.281 145.141 179.281 145.024C179.281 144.905 179.355 144.799 179.488 144.722C179.728 144.584 180.104 144.584 180.343 144.722C180.473 144.797 180.545 144.905 180.545 145.022C180.545 145.141 180.472 145.249 180.339 145.325C180.22 145.394 180.065 145.428 179.911 145.428H179.913ZM179.917 144.807C179.796 144.807 179.675 144.833 179.584 144.884C179.514 144.926 179.472 144.975 179.472 145.022C179.472 145.069 179.512 145.119 179.582 145.16C179.762 145.264 180.067 145.264 180.248 145.16C180.318 145.119 180.36 145.069 180.36 145.02C180.36 144.971 180.32 144.924 180.25 144.882C180.161 144.829 180.04 144.805 179.919 144.805L179.917 144.807Z" fill="#E0E0E0"/>
<path d="M178.215 143.473L177.927 144.157H177.238V143.473H178.215Z" fill="#A48DFE"/>
<path d="M177.928 144.157L178.215 143.473H178.422V144.157H177.928Z" fill="#A48DFE"/>
<path d="M177.829 144.219C177.676 144.219 177.523 144.185 177.402 144.115C177.269 144.039 177.197 143.932 177.197 143.815C177.197 143.695 177.271 143.59 177.404 143.512C177.644 143.374 178.02 143.374 178.259 143.512C178.389 143.588 178.461 143.695 178.461 143.813C178.461 143.93 178.386 144.039 178.255 144.115C178.136 144.185 177.981 144.219 177.827 144.219H177.829ZM177.833 143.597C177.712 143.597 177.591 143.624 177.5 143.675C177.428 143.716 177.388 143.767 177.388 143.815C177.388 143.862 177.428 143.911 177.498 143.953C177.678 144.056 177.983 144.056 178.164 143.953C178.234 143.913 178.276 143.862 178.276 143.813C178.276 143.765 178.236 143.716 178.168 143.675C178.079 143.622 177.958 143.597 177.837 143.597H177.833Z" fill="#E0E0E0"/>
<path d="M175.591 142.263L175.304 142.945H175.154V142.263H175.591Z" fill="#A18DFE"/>
<path d="M175.305 142.945L175.592 142.263H176.338V142.945H175.305Z" fill="#A28DFE"/>
<path d="M175.743 143.009C175.59 143.009 175.437 142.975 175.316 142.905C175.185 142.83 175.111 142.722 175.111 142.605C175.111 142.486 175.185 142.378 175.318 142.303C175.558 142.165 175.935 142.165 176.173 142.303C176.304 142.378 176.377 142.486 176.377 142.603C176.377 142.722 176.304 142.83 176.171 142.905C176.052 142.975 175.897 143.009 175.743 143.009ZM175.414 142.465C175.344 142.507 175.302 142.556 175.302 142.605C175.302 142.654 175.342 142.701 175.412 142.743C175.592 142.847 175.897 142.847 176.078 142.743C176.148 142.701 176.19 142.652 176.19 142.603C176.19 142.556 176.15 142.507 176.08 142.465C175.9 142.361 175.596 142.361 175.414 142.465Z" fill="#E0E0E0"/>
<path d="M174.011 141.053L173.725 141.738H173.07V141.053H174.011Z" fill="#9F8DFE"/>
<path d="M173.725 141.738L174.01 141.053H174.251V141.738H173.725Z" fill="#A08DFE"/>
<path d="M173.659 141.8C173.506 141.8 173.351 141.766 173.232 141.696C173.099 141.62 173.027 141.513 173.027 141.395C173.027 141.276 173.101 141.171 173.234 141.093C173.474 140.955 173.851 140.955 174.089 141.093C174.22 141.169 174.291 141.276 174.291 141.394C174.291 141.513 174.218 141.62 174.085 141.696C173.964 141.766 173.811 141.8 173.657 141.8H173.659ZM173.663 141.178C173.542 141.178 173.421 141.205 173.33 141.256C173.258 141.297 173.218 141.346 173.218 141.395C173.218 141.443 173.258 141.492 173.328 141.533C173.508 141.637 173.813 141.637 173.994 141.533C174.064 141.494 174.106 141.443 174.106 141.394C174.106 141.346 174.066 141.297 173.998 141.256C173.907 141.203 173.786 141.178 173.665 141.178H173.663Z" fill="#E0E0E0"/>
<path d="M171.388 139.844L171.102 140.528H170.986V139.844H171.388Z" fill="#9C8DFE"/>
<path d="M172.167 140.473L172.144 140.528H171.102L171.387 139.844H172.167V140.473Z" fill="#9D8DFE"/>
<path d="M172.145 140.528L172.168 140.473V140.528H172.145Z" fill="#9E8DFE"/>
<path d="M171.576 140.59C171.422 140.59 171.267 140.556 171.148 140.486C171.017 140.411 170.943 140.303 170.945 140.186C170.945 140.067 171.019 139.959 171.152 139.884C171.392 139.746 171.767 139.746 172.007 139.884C172.138 139.959 172.209 140.067 172.209 140.184C172.209 140.303 172.136 140.411 172.003 140.486C171.884 140.556 171.729 140.59 171.576 140.59ZM171.246 140.046C171.176 140.088 171.135 140.137 171.135 140.186C171.135 140.235 171.174 140.282 171.244 140.324C171.424 140.428 171.729 140.428 171.91 140.324C171.98 140.282 172.022 140.231 172.022 140.184C172.022 140.137 171.982 140.088 171.912 140.048C171.733 139.944 171.428 139.944 171.246 140.048V140.046Z" fill="#E0E0E0"/>
<path d="M169.811 138.634L169.523 139.318H168.902V138.634H169.811Z" fill="#9A8DFE"/>
<path d="M169.523 139.318L169.811 138.634H170.085V139.318H169.523Z" fill="#9B8DFE"/>
<path d="M169.493 139.383C169.34 139.383 169.185 139.349 169.066 139.279C168.933 139.203 168.861 139.095 168.861 138.978C168.861 138.859 168.935 138.753 169.068 138.676C169.308 138.538 169.685 138.538 169.923 138.676C170.054 138.751 170.125 138.859 170.125 138.976C170.125 139.094 170.05 139.203 169.919 139.279C169.8 139.349 169.645 139.383 169.491 139.383H169.493ZM169.164 138.838C169.092 138.88 169.052 138.931 169.052 138.978C169.052 139.025 169.092 139.075 169.162 139.116C169.342 139.22 169.647 139.22 169.828 139.116C169.898 139.077 169.94 139.025 169.94 138.976C169.94 138.929 169.9 138.88 169.83 138.838C169.65 138.734 169.346 138.734 169.164 138.838Z" fill="#E0E0E0"/>
<path d="M167.186 137.425L166.9 138.109H166.82V137.425H167.186Z" fill="#978DFE"/>
<path d="M168.002 137.971L167.945 138.109H166.9L167.186 137.425H168.002V137.971Z" fill="#988DFE"/>
<path d="M167.945 138.109L168.003 137.971V138.109H167.945Z" fill="#998DFE"/>
<path d="M167.408 138.171C167.254 138.171 167.099 138.137 166.98 138.067C166.849 137.992 166.775 137.884 166.777 137.767C166.777 137.648 166.851 137.54 166.984 137.464C167.224 137.326 167.601 137.326 167.839 137.464C167.97 137.54 168.043 137.648 168.041 137.765C168.041 137.884 167.968 137.992 167.835 138.067C167.716 138.137 167.561 138.171 167.408 138.171ZM167.078 137.627C167.008 137.669 166.967 137.718 166.967 137.767C166.967 137.816 167.006 137.863 167.076 137.905C167.256 138.009 167.561 138.009 167.742 137.905C167.813 137.863 167.854 137.814 167.854 137.765C167.854 137.716 167.814 137.669 167.744 137.627C167.565 137.523 167.26 137.523 167.078 137.627Z" fill="#E0E0E0"/>
<path d="M91.5514 127.845L91.4492 128.089V127.845H91.5514Z" fill="#4C8BFC"/>
<path d="M92.5941 127.845L92.3084 128.529H91.4492V128.089L91.5514 127.845H92.5941Z" fill="#4D8BFC"/>
<path d="M92.3086 128.529L92.5943 127.845H92.6303V128.529H92.3086Z" fill="#4F8BFC"/>
<path d="M92.0383 128.593C91.885 128.593 91.7298 128.559 91.6106 128.489C91.4782 128.414 91.4062 128.306 91.4062 128.189C91.4062 128.07 91.4801 127.964 91.6125 127.886C91.8529 127.748 92.2294 127.748 92.4679 127.886C92.5984 127.962 92.6704 128.07 92.6704 128.187C92.6704 128.304 92.5947 128.414 92.4641 128.489C92.3449 128.559 92.1897 128.593 92.0364 128.593H92.0383ZM91.709 128.049C91.6371 128.09 91.5974 128.141 91.5974 128.189C91.5974 128.236 91.6371 128.285 91.7071 128.327C91.8869 128.431 92.1916 128.431 92.3733 128.327C92.4433 128.287 92.4849 128.236 92.4849 128.187C92.4849 128.14 92.4452 128.09 92.3751 128.049C92.1954 127.945 91.8907 127.945 91.709 128.049Z" fill="url(#paint5_linear_8_2967)"/>
<path d="M94.1429 126.637L93.8572 127.319H93.5449V126.637H94.1429Z" fill="#4F8BFC"/>
<path d="M93.8574 127.319L94.1432 126.637H94.726V127.319H93.8574Z" fill="#508BFC"/>
<path d="M94.1341 127.384C93.9808 127.384 93.8275 127.35 93.7064 127.28C93.5759 127.204 93.502 127.096 93.5039 126.979C93.5039 126.86 93.5777 126.752 93.7102 126.677C93.9505 126.539 94.3252 126.537 94.5656 126.677C94.6961 126.752 94.7699 126.86 94.768 126.977C94.768 127.096 94.6942 127.204 94.5618 127.28C94.4426 127.35 94.2874 127.384 94.1341 127.384V127.384ZM94.1379 126.762C94.0168 126.762 93.8957 126.788 93.8048 126.839C93.7348 126.881 93.6932 126.93 93.6932 126.979C93.6932 127.028 93.7329 127.076 93.8029 127.117C93.9827 127.221 94.2874 127.221 94.4691 127.117C94.5391 127.076 94.5807 127.026 94.5807 126.977C94.5807 126.928 94.541 126.881 94.4709 126.839C94.382 126.786 94.2609 126.762 94.1398 126.762H94.1379Z" fill="url(#paint6_linear_8_2967)"/>
<path d="M95.6963 125.426L95.6445 125.549V125.426H95.6963Z" fill="#508BFC"/>
<path d="M96.7383 125.426L96.4526 126.11H95.6445V125.549L95.6956 125.426H96.7383Z" fill="#518BFC"/>
<path d="M96.4531 126.11L96.7389 125.426H96.8259V126.11H96.4531Z" fill="#538BFC"/>
<path d="M96.2336 126.174C96.0803 126.174 95.9252 126.14 95.8059 126.07C95.6735 125.995 95.6016 125.887 95.6016 125.77C95.6016 125.651 95.6754 125.545 95.8078 125.467C96.0482 125.329 96.4229 125.329 96.6632 125.467C96.7938 125.543 96.8657 125.651 96.8657 125.768C96.8657 125.887 96.7919 125.995 96.6594 126.07C96.5383 126.14 96.385 126.174 96.2317 126.174H96.2336ZM96.2374 125.552C96.1163 125.552 95.9952 125.579 95.9043 125.63C95.8324 125.671 95.7927 125.72 95.7927 125.77C95.7927 125.817 95.8324 125.866 95.9024 125.908C96.0822 126.012 96.3869 126.012 96.5686 125.908C96.6386 125.868 96.6802 125.817 96.6802 125.768C96.6802 125.719 96.6405 125.671 96.5724 125.63C96.4834 125.577 96.3623 125.552 96.2412 125.552H96.2374Z" fill="url(#paint7_linear_8_2967)"/>
<path d="M98.2871 124.218L98.0014 124.9H97.7402V124.218H98.2871Z" fill="#538BFC"/>
<path d="M98.002 124.9L98.2877 124.218H98.9216V124.9H98.002Z" fill="#548BFC"/>
<path d="M98.3293 124.964C98.176 124.964 98.0228 124.93 97.9016 124.861C97.7711 124.785 97.6973 124.677 97.6973 124.56C97.6973 124.441 97.7711 124.333 97.9035 124.258C98.1439 124.12 98.5204 124.12 98.7589 124.258C98.8895 124.333 98.9633 124.441 98.9633 124.558C98.9633 124.677 98.8895 124.785 98.757 124.861C98.6359 124.93 98.4826 124.964 98.3293 124.964V124.964ZM98 124.42C97.93 124.462 97.8884 124.511 97.8884 124.56C97.8884 124.607 97.9281 124.656 97.9982 124.698C98.1779 124.802 98.4826 124.802 98.6643 124.698C98.7343 124.656 98.7759 124.607 98.7759 124.558C98.7759 124.509 98.7362 124.462 98.6662 124.42C98.4864 124.316 98.1817 124.316 98 124.42Z" fill="url(#paint8_linear_8_2967)"/>
<path d="M99.8402 123.007L99.8379 123.009V123.007H99.8402Z" fill="#548BFC"/>
<path d="M100.882 123.007L100.597 123.691H99.8379V123.008L99.8398 123.007H100.882Z" fill="#558CFD"/>
<path d="M100.598 123.691L100.883 123.007H101.022V123.691H100.598Z" fill="#578CFD"/>
<path d="M100.429 123.755C100.276 123.755 100.12 123.721 100.001 123.651C99.8688 123.575 99.7969 123.468 99.7969 123.351C99.7969 123.231 99.8707 123.126 100.003 123.048C100.243 122.91 100.62 122.91 100.858 123.048C100.989 123.124 101.061 123.231 101.061 123.349C101.061 123.468 100.987 123.575 100.855 123.651C100.734 123.721 100.58 123.755 100.427 123.755H100.429ZM100.1 123.211C100.028 123.252 99.988 123.303 99.988 123.351C99.988 123.398 100.028 123.447 100.098 123.489C100.278 123.592 100.582 123.592 100.764 123.489C100.834 123.449 100.874 123.398 100.876 123.349C100.876 123.301 100.836 123.252 100.766 123.211C100.586 123.107 100.281 123.107 100.1 123.211Z" fill="url(#paint9_linear_8_2967)"/>
<path d="M102.431 121.799L102.146 122.481H101.936V121.799H102.431Z" fill="#578CFD"/>
<path d="M102.146 122.481L102.432 121.799H103.117V122.481H102.146Z" fill="#588CFD"/>
<path d="M102.525 122.545C102.371 122.545 102.218 122.511 102.097 122.441C101.966 122.366 101.893 122.258 101.893 122.141C101.893 122.022 101.966 121.914 102.099 121.839C102.339 121.701 102.716 121.701 102.954 121.839C103.085 121.914 103.159 122.022 103.159 122.139C103.159 122.258 103.085 122.364 102.952 122.441C102.831 122.511 102.678 122.545 102.525 122.545V122.545ZM102.528 121.924C102.407 121.924 102.286 121.95 102.195 122.001C102.125 122.043 102.084 122.092 102.084 122.141C102.084 122.19 102.123 122.237 102.193 122.279C102.373 122.383 102.678 122.383 102.86 122.279C102.93 122.237 102.971 122.188 102.971 122.139C102.971 122.092 102.931 122.043 102.861 122.001C102.773 121.948 102.651 121.924 102.53 121.924H102.528Z" fill="url(#paint10_linear_8_2967)"/>
<path d="M89.9987 129.054L89.7129 129.738H89.3496V129.054H89.9987Z" fill="#4B8BFC"/>
<path d="M89.7129 129.738L89.9986 129.054H90.5304V129.738H89.7129Z" fill="#4C8BFC"/>
<path d="M89.9388 129.803C89.7855 129.803 89.6303 129.769 89.5111 129.699C89.3805 129.623 89.3067 129.515 89.3086 129.398C89.3086 129.279 89.3824 129.171 89.5149 129.096C89.7552 128.958 90.1299 128.956 90.3703 129.096C90.5008 129.171 90.5746 129.279 90.5727 129.396C90.5727 129.515 90.4989 129.623 90.3665 129.699C90.2472 129.769 90.0921 129.803 89.9388 129.803V129.803ZM89.9426 129.181C89.8215 129.181 89.7004 129.207 89.6095 129.258C89.5395 129.3 89.4979 129.349 89.4979 129.398C89.4979 129.447 89.5376 129.495 89.6076 129.536C89.7874 129.64 90.0921 129.64 90.2737 129.536C90.3438 129.495 90.3854 129.446 90.3854 129.396C90.3854 129.347 90.3457 129.3 90.2756 129.258C90.1867 129.205 90.0656 129.181 89.9445 129.181H89.9426Z" fill="url(#paint11_linear_8_2967)"/>
<path d="M61.2228 116.776H60.042V117.458H61.2228V116.776Z" fill="#408BFC"/>
<path d="M60.6302 117.524C60.4769 117.524 60.3236 117.49 60.2025 117.42C60.0719 117.343 60 117.237 60 117.118C60 116.999 60.0738 116.891 60.2063 116.815C60.4466 116.677 60.8213 116.675 61.0616 116.815C61.1922 116.891 61.266 116.999 61.2641 117.116C61.2641 117.235 61.1903 117.343 61.0578 117.418C60.9367 117.488 60.7834 117.522 60.6302 117.522V117.524ZM60.6339 116.902C60.5128 116.902 60.3917 116.929 60.3009 116.98C60.2309 117.021 60.1892 117.07 60.1892 117.12C60.1892 117.169 60.229 117.216 60.299 117.257C60.4788 117.361 60.7834 117.361 60.9651 117.257C61.0351 117.216 61.0768 117.167 61.0768 117.118C61.0768 117.068 61.037 117.021 60.967 116.98C60.8781 116.927 60.757 116.902 60.6358 116.902H60.6339Z" fill="url(#paint12_linear_8_2967)"/>
<path d="M63.3068 117.985H62.126V118.669H63.3068V117.985Z" fill="#408BFC"/>
<path d="M62.7141 118.733C62.5609 118.733 62.4076 118.699 62.2865 118.63C62.1559 118.554 62.084 118.446 62.084 118.329C62.084 118.21 62.1578 118.102 62.2903 118.027C62.5306 117.889 62.9053 117.887 63.1456 118.027C63.2781 118.102 63.35 118.21 63.35 118.327C63.35 118.446 63.2762 118.552 63.1437 118.63C63.0245 118.699 62.8693 118.733 62.716 118.733H62.7141ZM62.3849 118.189C62.3149 118.231 62.2732 118.28 62.2732 118.329C62.2732 118.376 62.313 118.425 62.383 118.467C62.5628 118.571 62.8674 118.571 63.0491 118.467C63.121 118.425 63.1607 118.374 63.1607 118.327C63.1607 118.28 63.121 118.231 63.051 118.189C62.8712 118.085 62.5665 118.085 62.3849 118.189V118.189Z" fill="url(#paint13_linear_8_2967)"/>
<path d="M65.3898 119.195H64.209V119.877H65.3898V119.195Z" fill="#408BFC"/>
<path d="M64.7991 119.943C64.6459 119.943 64.4907 119.909 64.3715 119.839C64.2409 119.763 64.1671 119.656 64.169 119.539C64.169 119.419 64.2428 119.312 64.3752 119.236C64.6156 119.098 64.9903 119.098 65.2306 119.236C65.3612 119.312 65.435 119.419 65.4331 119.537C65.4331 119.656 65.3593 119.762 65.2268 119.839C65.1076 119.909 64.9524 119.943 64.7991 119.943ZM64.4699 119.399C64.3999 119.44 64.3582 119.489 64.3582 119.539C64.3582 119.588 64.398 119.635 64.468 119.677C64.6478 119.78 64.9524 119.78 65.1341 119.677C65.2041 119.635 65.2457 119.586 65.2457 119.539C65.2457 119.491 65.206 119.442 65.136 119.401C64.9562 119.297 64.6515 119.297 64.4699 119.401V119.399Z" fill="url(#paint14_linear_8_2967)"/>
<path d="M67.4748 120.404H66.2939V121.088H67.4748V120.404Z" fill="#408BFC"/>
<path d="M66.8821 121.153C66.7288 121.153 66.5737 121.119 66.4544 121.049C66.3239 120.973 66.252 120.865 66.252 120.748C66.252 120.631 66.3276 120.521 66.4582 120.446C66.6986 120.308 67.0732 120.306 67.3136 120.446C67.446 120.521 67.518 120.629 67.518 120.746C67.518 120.865 67.4442 120.971 67.3117 121.049C67.1906 121.119 67.0373 121.153 66.884 121.153H66.8821ZM66.5528 120.608C66.4828 120.648 66.4412 120.699 66.4412 120.748C66.4412 120.797 66.4809 120.845 66.5491 120.886C66.7288 120.99 67.0335 120.99 67.2152 120.886C67.2871 120.845 67.3268 120.793 67.3268 120.746C67.3268 120.699 67.2871 120.65 67.2171 120.608C67.0373 120.504 66.7326 120.504 66.5509 120.608H66.5528Z" fill="url(#paint15_linear_8_2967)"/>
<path d="M69.5588 121.614H68.3779V122.296H69.5588V121.614Z" fill="#408BFC"/>
<path d="M68.966 122.362C68.8128 122.362 68.6595 122.328 68.5384 122.258C68.4078 122.183 68.334 122.075 68.334 121.958C68.334 121.839 68.4078 121.731 68.5403 121.655C68.7806 121.517 69.1553 121.515 69.3956 121.655C69.5262 121.731 69.6 121.839 69.6 121.956C69.6 122.075 69.5262 122.181 69.3937 122.258C69.2726 122.328 69.1193 122.362 68.966 122.362ZM68.9698 121.74C68.8487 121.74 68.7276 121.767 68.6368 121.818C68.5667 121.859 68.5251 121.909 68.5251 121.958C68.5251 122.007 68.5649 122.054 68.6349 122.096C68.8146 122.2 69.1193 122.2 69.301 122.096C69.371 122.054 69.4126 122.005 69.4126 121.956C69.4126 121.909 69.3729 121.859 69.3029 121.818C69.2139 121.765 69.0928 121.74 68.9717 121.74H68.9698Z" fill="url(#paint16_linear_8_2967)"/>
<path d="M71.6418 122.823H70.4609V123.507H71.6418V122.823Z" fill="#408BFC"/>
<path d="M71.0491 123.57C70.8958 123.57 70.7406 123.536 70.6214 123.466C70.4909 123.39 70.4189 123.283 70.4189 123.165C70.4189 123.046 70.4927 122.939 70.6252 122.863C70.8655 122.725 71.2402 122.723 71.4806 122.863C71.613 122.939 71.6849 123.046 71.6849 123.163C71.6849 123.283 71.6111 123.388 71.4787 123.466C71.3595 123.536 71.2043 123.57 71.051 123.57H71.0491ZM70.7198 123.026C70.6498 123.067 70.6082 123.116 70.6082 123.165C70.6082 123.214 70.6479 123.262 70.716 123.303C70.8958 123.407 71.2005 123.407 71.3822 123.303C71.4541 123.262 71.4938 123.211 71.4938 123.163C71.4938 123.116 71.4541 123.067 71.3841 123.026C71.2043 122.922 70.8996 122.922 70.7179 123.026H70.7198Z" fill="url(#paint17_linear_8_2967)"/>
<path d="M73.7258 124.033H72.5449V124.715H73.7258V124.033Z" fill="#408BFC"/>
<path d="M73.135 124.781C72.9818 124.781 72.8266 124.747 72.7074 124.677C72.5768 124.602 72.5049 124.494 72.5049 124.377C72.5049 124.258 72.5787 124.15 72.7112 124.074C72.9515 123.936 73.3281 123.936 73.5665 124.074C73.6971 124.15 73.7709 124.258 73.7709 124.375C73.7709 124.494 73.6971 124.6 73.5646 124.677C73.4435 124.747 73.2902 124.781 73.1369 124.781H73.135ZM72.8058 124.237C72.7358 124.279 72.6941 124.328 72.6941 124.377C72.6941 124.424 72.7339 124.473 72.8039 124.515C72.9837 124.619 73.2883 124.619 73.47 124.515C73.54 124.473 73.5816 124.424 73.5816 124.377C73.5816 124.33 73.5419 124.28 73.4719 124.239C73.2921 124.135 72.9874 124.135 72.8058 124.239V124.237Z" fill="url(#paint18_linear_8_2967)"/>
<path d="M75.8107 125.242H74.6299V125.927H75.8107V125.242Z" fill="#408BFC"/>
<path d="M75.2181 125.989C75.0648 125.989 74.9096 125.955 74.7904 125.885C74.6598 125.809 74.5879 125.702 74.5879 125.584C74.5879 125.467 74.6636 125.358 74.7942 125.282C75.0345 125.144 75.4111 125.144 75.6495 125.282C75.782 125.358 75.8539 125.465 75.8539 125.583C75.8539 125.702 75.7801 125.807 75.6476 125.885C75.5284 125.955 75.3732 125.989 75.2199 125.989H75.2181ZM75.2218 125.367C75.1007 125.367 74.9796 125.394 74.8888 125.445C74.8188 125.484 74.7771 125.535 74.7771 125.584C74.7771 125.632 74.8169 125.681 74.885 125.722C75.0648 125.826 75.3694 125.826 75.5511 125.722C75.623 125.681 75.6628 125.63 75.6628 125.583C75.6628 125.535 75.623 125.486 75.553 125.445C75.4622 125.392 75.3411 125.367 75.2218 125.367V125.367Z" fill="url(#paint19_linear_8_2967)"/>
<path d="M77.8928 126.452H76.7119V127.134H77.8928V126.452Z" fill="#408BFC"/>
<path d="M77.302 127.198C77.1487 127.198 76.9954 127.164 76.8743 127.094C76.7437 127.019 76.6699 126.911 76.6699 126.794C76.6699 126.675 76.7437 126.567 76.8762 126.492C77.1165 126.354 77.4931 126.354 77.7315 126.492C77.8621 126.567 77.9359 126.675 77.9359 126.792C77.9359 126.911 77.8621 127.019 77.7297 127.094C77.6085 127.164 77.4553 127.198 77.302 127.198V127.198ZM76.9727 126.654C76.9027 126.696 76.8611 126.745 76.8611 126.794C76.8611 126.841 76.9008 126.89 76.9708 126.932C77.1506 127.036 77.4553 127.036 77.6369 126.932C77.7069 126.89 77.7486 126.841 77.7486 126.792C77.7486 126.743 77.7088 126.696 77.6388 126.654C77.459 126.55 77.1544 126.55 76.9727 126.654Z" fill="url(#paint20_linear_8_2967)"/>
<path d="M79.9777 127.661H78.7969V128.346H79.9777V127.661Z" fill="#408BFC"/>
<path d="M79.385 128.408C79.2318 128.408 79.0766 128.374 78.9574 128.304C78.8268 128.228 78.7549 128.121 78.7549 128.004C78.7549 127.884 78.8287 127.777 78.9612 127.701C79.2015 127.563 79.5762 127.563 79.8165 127.701C79.949 127.777 80.0209 127.884 80.0209 128.002C80.0209 128.121 79.9471 128.227 79.8146 128.304C79.6954 128.374 79.5402 128.408 79.3869 128.408H79.385ZM79.0558 127.864C78.9858 127.905 78.9441 127.954 78.9441 128.004C78.9441 128.051 78.9839 128.1 79.052 128.141C79.2318 128.245 79.5364 128.245 79.7181 128.141C79.79 128.1 79.8298 128.051 79.8298 128.002C79.8298 127.954 79.79 127.905 79.72 127.864C79.5402 127.76 79.2355 127.76 79.0539 127.864H79.0558Z" fill="url(#paint21_linear_8_2967)"/>
<path d="M81.7324 128.871L81.4448 129.553H80.8809V128.871H81.7324Z" fill="#408BFC"/>
<path d="M81.4443 129.553L81.732 128.871H82.0613V129.553H81.4443Z" fill="#418BFC"/>
<path d="M81.471 129.617C81.3177 129.617 81.1626 129.583 81.0433 129.513C80.9128 129.438 80.839 129.33 80.8409 129.213C80.8409 129.094 80.9147 128.986 81.0471 128.911C81.2875 128.773 81.6621 128.773 81.9025 128.911C82.0331 128.986 82.1069 129.094 82.105 129.211C82.105 129.33 82.0312 129.436 81.8987 129.513C81.7795 129.583 81.6243 129.617 81.471 129.617V129.617ZM81.1417 129.073C81.0717 129.115 81.0301 129.164 81.0301 129.213C81.0301 129.262 81.0698 129.309 81.1399 129.349C81.3196 129.453 81.6243 129.453 81.806 129.349C81.876 129.307 81.9176 129.258 81.9176 129.211C81.9176 129.164 81.8779 129.115 81.8079 129.073C81.6281 128.969 81.3234 128.969 81.1417 129.073V129.073Z" fill="url(#paint22_linear_8_2967)"/>
<path d="M83.3111 130.081L83.0254 130.763H82.9648V130.081H83.3111Z" fill="#438BFC"/>
<path d="M84.1476 130.576L84.0681 130.763H83.0254L83.3111 130.081H84.1476V130.576Z" fill="#448BFC"/>
<path d="M84.0684 130.763L84.1478 130.576V130.763H84.0684Z" fill="#458BFC"/>
<path d="M83.553 130.827C83.3997 130.827 83.2446 130.793 83.1253 130.723C82.9948 130.647 82.9229 130.54 82.9229 130.423C82.9229 130.305 82.9985 130.196 83.1291 130.12C83.3695 129.982 83.7441 129.982 83.9845 130.12C84.1169 130.196 84.1889 130.304 84.1889 130.421C84.1889 130.54 84.1151 130.646 83.9826 130.723C83.8615 130.793 83.7082 130.827 83.5549 130.827H83.553ZM83.5568 130.205C83.4357 130.205 83.3146 130.232 83.2237 130.283C83.1537 130.322 83.1121 130.373 83.1121 130.423C83.1121 130.47 83.1518 130.519 83.2218 130.561C83.4016 130.664 83.7063 130.664 83.888 130.561C83.9599 130.519 83.9996 130.468 83.9996 130.421C83.9996 130.373 83.9599 130.324 83.8899 130.283C83.8009 130.23 83.6798 130.205 83.5587 130.205H83.5568Z" fill="url(#paint23_linear_8_2967)"/>
<path d="M87.4852 130.081L87.1976 130.763H87.1465V130.081H87.4852Z" fill="#488BFC"/>
<path d="M88.327 130.557L88.2419 130.763H87.1973L87.4849 130.081H88.327V130.557Z" fill="#498BFC"/>
<path d="M88.2422 130.763L88.3273 130.557V130.763H88.2422Z" fill="#4B8BFC"/>
<path d="M87.7365 130.827C87.5833 130.827 87.4281 130.793 87.3089 130.723C87.1764 130.647 87.1045 130.54 87.1045 130.423C87.1045 130.304 87.1783 130.198 87.3108 130.12C87.5511 129.982 87.9277 129.982 88.1661 130.12C88.2967 130.196 88.3686 130.304 88.3686 130.421C88.3686 130.538 88.2929 130.647 88.1623 130.723C88.0431 130.793 87.8879 130.827 87.7347 130.827H87.7365ZM87.4073 130.283C87.3354 130.324 87.2956 130.373 87.2956 130.423C87.2956 130.47 87.3354 130.519 87.4054 130.561C87.5852 130.664 87.8898 130.664 88.0715 130.561C88.1415 130.521 88.1831 130.47 88.1831 130.421C88.1831 130.373 88.1434 130.324 88.0734 130.283C87.8936 130.179 87.5889 130.179 87.4073 130.283Z" fill="url(#paint24_linear_8_2967)"/>
<path d="M110.672 117.11L110.57 117.356V117.11H110.672Z" fill="#4C8BFC"/>
<path d="M111.717 117.11L111.429 117.794H110.57V117.356L110.672 117.11H111.717Z" fill="#4D8BFC"/>
<path d="M111.43 117.794L111.717 117.11H111.753V117.794H111.43Z" fill="#4F8BFC"/>
<path d="M111.161 117.859C111.008 117.859 110.853 117.824 110.734 117.755C110.603 117.679 110.529 117.571 110.529 117.454C110.529 117.335 110.603 117.229 110.736 117.152C110.976 117.014 111.352 117.014 111.591 117.152C111.721 117.227 111.793 117.335 111.793 117.452C111.793 117.571 111.72 117.679 111.587 117.755C111.466 117.824 111.313 117.859 111.159 117.859H111.161ZM110.832 117.314C110.76 117.356 110.72 117.407 110.72 117.454C110.72 117.501 110.76 117.55 110.83 117.592C111.01 117.696 111.315 117.696 111.496 117.592C111.566 117.552 111.608 117.501 111.608 117.452C111.608 117.405 111.568 117.356 111.498 117.314C111.318 117.21 111.014 117.21 110.832 117.314Z" fill="url(#paint25_linear_8_2967)"/>
<path d="M113.266 115.902L112.98 116.585H112.666V115.902H113.266Z" fill="#4F8BFC"/>
<path d="M112.98 116.585L113.266 115.902H113.849V116.585H112.98Z" fill="#508BFC"/>
<path d="M113.257 116.649C113.104 116.649 112.951 116.615 112.829 116.545C112.699 116.469 112.625 116.362 112.627 116.244C112.627 116.125 112.701 116.018 112.833 115.942C113.074 115.804 113.448 115.804 113.689 115.942C113.819 116.018 113.893 116.125 113.891 116.243C113.891 116.362 113.817 116.469 113.685 116.545C113.566 116.615 113.41 116.649 113.257 116.649ZM113.261 116.027C113.14 116.027 113.019 116.054 112.928 116.105C112.858 116.146 112.816 116.195 112.816 116.244C112.816 116.294 112.856 116.341 112.926 116.382C113.106 116.486 113.41 116.486 113.592 116.382C113.662 116.341 113.704 116.292 113.704 116.243C113.704 116.193 113.664 116.146 113.594 116.105C113.505 116.052 113.384 116.027 113.263 116.027H113.261Z" fill="url(#paint26_linear_8_2967)"/>
<path d="M114.817 114.693L114.766 114.816V114.693H114.817Z" fill="#508BFC"/>
<path d="M115.861 114.693L115.574 115.375H114.766V114.816L114.817 114.693H115.861Z" fill="#518BFC"/>
<path d="M115.574 115.375L115.862 114.693H115.947V115.375H115.574Z" fill="#538BFC"/>
<path d="M115.357 115.439C115.203 115.439 115.05 115.405 114.929 115.335C114.797 115.26 114.725 115.152 114.725 115.035C114.725 114.916 114.798 114.81 114.931 114.733C115.171 114.595 115.548 114.595 115.786 114.733C115.917 114.808 115.989 114.916 115.989 115.033C115.989 115.15 115.913 115.26 115.782 115.335C115.663 115.405 115.508 115.439 115.355 115.439H115.357ZM115.027 114.895C114.955 114.937 114.916 114.988 114.916 115.035C114.916 115.082 114.955 115.131 115.025 115.173C115.205 115.277 115.51 115.277 115.692 115.173C115.762 115.133 115.803 115.082 115.803 115.033C115.803 114.984 115.764 114.937 115.695 114.895C115.516 114.791 115.211 114.791 115.029 114.895H115.027Z" fill="url(#paint27_linear_8_2967)"/>
<path d="M121.554 111.064L121.269 111.746H121.057V111.064H121.554Z" fill="#578CFD"/>
<path d="M109.122 118.322L108.836 119.004H108.473V118.322H109.122Z" fill="#4B8BFC"/>
<path d="M108.836 119.004L109.122 118.322H109.653V119.004H108.836Z" fill="#4C8BFC"/>
<path d="M106.604 119.346L106.319 120.028H106.268V119.346H106.604Z" fill="#488BFC"/>
<path d="M107.448 119.822L107.361 120.028H106.318L106.604 119.346H107.448V119.822Z" fill="#498BFC"/>
<path d="M107.361 120.028L107.448 119.822V120.028H107.361Z" fill="#4B8BFC"/>
<path d="M106.857 120.092C106.703 120.092 106.548 120.058 106.429 119.988C106.298 119.913 106.225 119.805 106.225 119.688C106.225 119.569 106.298 119.463 106.431 119.385C106.671 119.247 107.048 119.247 107.286 119.385C107.417 119.461 107.489 119.569 107.489 119.686C107.489 119.805 107.415 119.913 107.282 119.988C107.161 120.058 107.008 120.092 106.855 120.092H106.857ZM106.527 119.548C106.455 119.59 106.416 119.639 106.416 119.688C106.416 119.735 106.455 119.784 106.525 119.826C106.705 119.93 107.01 119.93 107.192 119.826C107.262 119.786 107.303 119.735 107.303 119.686C107.303 119.639 107.264 119.59 107.194 119.548C107.014 119.444 106.709 119.444 106.527 119.548Z" fill="url(#paint28_linear_8_2967)"/>
<path d="M85.9335 131.29L85.6477 131.972H85.0479V131.29H85.9335Z" fill="#478BFC"/>
<path d="M85.6475 131.972L85.9332 131.29H86.2303V131.972H85.6475Z" fill="#488BFC"/>
<path d="M85.638 132.036C85.4847 132.036 85.3296 132.002 85.2103 131.933C85.0798 131.857 85.006 131.749 85.0078 131.632C85.0078 131.513 85.0817 131.405 85.2141 131.33C85.4545 131.192 85.8291 131.192 86.0695 131.33C86.2 131.405 86.2738 131.513 86.2738 131.63C86.2738 131.749 86.2 131.855 86.0676 131.933C85.9484 132.002 85.7932 132.036 85.6399 132.036H85.638ZM85.6418 131.415C85.5207 131.415 85.3996 131.441 85.3087 131.492C85.2387 131.534 85.1971 131.583 85.1971 131.632C85.1971 131.681 85.2368 131.728 85.3068 131.77C85.4866 131.874 85.7913 131.874 85.973 131.77C86.043 131.728 86.0846 131.679 86.0846 131.63C86.0846 131.583 86.0449 131.534 85.9749 131.492C85.8859 131.439 85.7648 131.415 85.6437 131.415H85.6418Z" fill="url(#paint29_linear_8_2967)"/>
<rect x="150" y="86" width="56" height="4" fill="#A8A8A8"/>
<rect x="150" y="80" width="23" height="2" fill="#8D8D8D"/>
<rect x="150" y="110" width="16" height="2" fill="#78A9FF"/>
<rect x="170" y="110" width="16" height="2" fill="#78A9FF"/>
<rect x="150" y="100" width="56" height="4" fill="#A8A8A8"/>
<rect x="150" y="93" width="67" height="4" fill="#A8A8A8"/>
<path d="M92.8789 64.3555C92.5062 64.3555 92.2351 64.2632 92.0657 64.0767C91.8963 63.892 91.8125 63.647 91.8125 63.3451V63.1196C91.8125 62.8177 91.8963 62.5744 92.0657 62.388C92.2351 62.2033 92.5044 62.1092 92.8789 62.1092C93.2533 62.1092 93.5226 62.2015 93.692 62.388C93.8614 62.5744 93.9452 62.8177 93.9452 63.1196V63.3451C93.9452 63.647 93.8614 63.8903 93.692 64.0767C93.5226 64.2614 93.2515 64.3555 92.8789 64.3555ZM92.5293 60.9266L92.1103 55.5319V52H93.6474V55.5319L93.2284 60.9266H92.5293V60.9266Z" fill="#0F62FE"/>
<path d="M99.0689 90.7676C99.0457 90.7783 99.265 91.5401 99.2936 91.6164C99.4648 92.0675 99.7269 92.7476 99.7572 93.2696C99.6466 93.4188 99.5236 93.5538 99.397 93.6834C99.2936 93.7899 99.1884 93.8894 99.0796 93.9888C99.0635 93.9888 98.9155 94.1042 98.8585 94.1557C98.7747 94.2232 98.6017 94.3138 98.4715 94.3866C98.4305 94.4097 98.4037 94.4398 98.4234 94.4363C98.3895 94.47 98.3574 94.5038 98.3235 94.5375C98.2736 94.5961 98.2201 94.6671 98.1612 94.7328L98.0079 94.6813C97.9829 94.6405 97.99 94.5908 97.9829 94.5357C97.9829 94.5233 97.9865 94.5126 97.99 94.5002L97.9811 94.4967C97.7368 94.3457 97.7671 94.2125 97.8955 93.9799C97.9597 93.8681 97.9758 93.742 98.0239 93.623C98.015 93.6621 98.0685 93.4881 98.1042 93.346C98.0953 93.3566 98.0846 93.3691 98.0756 93.3797C97.9615 93.5253 97.8242 93.6603 97.6976 93.7953L97.4908 93.9835C97.4908 93.9835 97.4622 93.9977 97.4248 94.0296C97.3909 93.971 97.3641 93.916 97.3481 93.8627C97.3106 93.7438 97.3196 93.6337 97.3873 93.4863C97.4765 93.3975 97.5496 93.2909 97.6138 93.1826C97.6138 93.1826 97.6905 93.0512 97.7457 92.9305C97.7903 92.8381 97.8313 92.7476 97.8724 92.6623C97.8367 92.3392 97.6548 92.0533 97.5924 91.7319C97.5906 91.723 97.5888 91.7159 97.5888 91.7088C97.5478 91.4868 97.7992 90.496 97.867 90.274C98.2914 90.1852 98.7729 90.3184 99.0689 90.7659V90.7676Z" fill="#50565B"/>
<path d="M100.046 86.1933L99.9251 86.2981L98.832 86.3815C98.832 86.3815 98.923 85.5203 99.03 85.3552C99.4116 84.7674 99.7896 84.7053 100.082 84.604C100.733 84.3803 100.674 83.9257 100.674 83.9257C100.674 83.9257 101.016 83.7481 100.826 84.1796L100.171 84.9787L100.1 85.444" fill="#50565B"/>
<path d="M99.3045 92.1722C99.1672 91.4885 98.1258 86.1365 98.1258 86.1365C98.1098 85.76 98.1811 81.6173 98.2524 79.5681C98.256 79.4686 98.1508 79.0016 97.7157 78.4778C97.5998 80.1363 96.6583 77.8474 96.0038 79.3994C95.9913 79.4171 95.7221 82.9846 95.7221 82.9846C95.7221 82.9846 95.5848 85.2628 95.6507 86.1791C95.7025 86.6426 97.787 93.2128 97.5784 92.6836C98.2114 92.6729 98.6233 92.2681 99.3063 92.174" fill="#50565B"/>
<path d="M96.7651 82.9135C97.3107 81.342 97.5461 78.666 97.0753 77.0838C97.0236 76.9045 96.8845 76.7109 96.8756 76.6896C96.6313 76.4215 95.6131 76.0717 94.948 76.2972C94.9551 76.6754 92.9276 78.7512 91.6027 77.4035C90.7164 78.2238 89.2292 79.8327 88.4785 80.7294C88.4785 80.7294 88.491 80.7436 88.7228 80.7702C88.7335 80.7685 88.746 80.7667 88.7603 80.7667C89.3344 80.717 89.8141 81.0934 90.1405 81.5373C90.2706 81.7096 90.3741 81.8925 90.4543 82.0647C90.9643 83.2527 91.4565 84.9627 91.9094 86.3389C92.0253 86.6905 96.601 87.5766 96.601 87.5766C96.5903 85.966 96.5225 85.4013 96.708 83.8671L96.7668 82.9135H96.7651Z" fill="#A6C8FF"/>
<path d="M91.6035 73.101V77.5314C91.6035 78.073 92.258 78.5134 93.064 78.5134C93.87 78.5134 94.5244 78.073 94.5244 77.5314V73.101H91.6035Z" fill="#50565B"/>
<path opacity="0.5" d="M93.1289 83.5564C93.186 83.528 93.2412 83.4978 93.2965 83.4677C93.2412 83.4978 93.186 83.5263 93.1289 83.5564Z" fill="url(#paint30_linear_8_2967)"/>
<path d="M98.2533 79.5681C98.305 79.094 97.9502 78.1724 97.8913 78.0285C97.524 77.1531 96.9177 76.6079 96.4737 76.4446C96.2383 77.5118 96.6145 78.7193 96.4968 80.2073C97.5258 80.0848 98.0447 79.7581 98.2551 79.5681H98.2533Z" fill="#A6C8FF"/>
<path opacity="0.5" d="M90.1055 81.6546C90.1643 81.6244 90.2232 81.5942 90.2802 81.5623C90.2232 81.5924 90.1643 81.6244 90.1055 81.6546Z" fill="url(#paint31_linear_8_2967)"/>
<path d="M90.1055 81.6546C90.1643 81.6244 90.2232 81.5942 90.2802 81.5623C90.2232 81.5924 90.1643 81.6244 90.1055 81.6546Z" fill="#50565B"/>
<path d="M97.0129 80.2979L97.423 81.4379C97.7529 82.356 97.423 83.3805 96.6152 83.9328L94.7001 84.0269L93.3359 79.8682L97.0129 80.2979V80.2979Z" fill="#A6C8FF"/>
<path d="M92.082 78.2576L94.5999 79.6338L94.5232 77.5331L92.082 78.2576Z" fill="#50565B"/>
<path d="M94.5239 77.5332V76.1179L92.377 76.5388L93.4968 78.4708C94.0924 78.3465 94.5239 77.9736 94.5239 77.5332Z" fill="url(#paint32_linear_8_2967)"/>
<path d="M93.5614 75.0558L91.2031 77.1741L93.341 79.5343L95.6993 77.4161L93.5614 75.0558Z" fill="url(#paint33_linear_8_2967)"/>
<path d="M92.0811 75.1182C92.0811 75.1182 92.0436 74.3031 91.6156 74.1149C91.4926 74.0598 91.3179 74.1664 91.2394 74.2498C91.004 74.5002 90.9612 74.8997 91.0147 75.2247C91.0397 75.381 91.0967 75.5319 91.1698 75.6722C91.1912 75.713 91.514 76.1357 91.5372 76.0948L92.0811 75.1199" fill="#50565B"/>
<path d="M93.269 77.0057C93.5168 77.1424 93.8343 77.2241 94.1784 77.2241C94.9737 77.2241 95.1841 76.9027 95.3232 76.4339C95.3232 76.4339 95.7191 75.5461 95.7619 75.1483C95.8011 74.7861 95.8832 74.2089 95.7815 73.4844L95.6175 72.3231H92.3203V76.4623L93.2636 77.0057H93.269Z" fill="#50565B"/>
<path d="M96.78 87.7614L90.2071 88.7646L90.0467 89.15C89.5099 90.4356 89.0409 92.3143 89.1301 94.0847C90.4407 94.2001 95.8599 93.4277 98.0532 93.2821C98.0532 91.5703 96.78 87.7614 96.78 87.7614V87.7614Z" fill="#002D9C"/>
<path d="M89.3387 81.1378L89.2246 84.1086L89.7275 86.3318C89.9094 87.1344 89.9236 87.9655 89.7738 88.7752C89.7061 89.1392 89.6294 89.553 89.5634 89.9436C89.485 90.4018 89.4225 90.8262 89.4047 91.089C89.4011 91.5205 91.3894 92.1438 92.495 92.1917C95.6334 92.3267 97.3293 91.018 97.6074 90.6291L96.484 86.2164L89.3387 81.1396V81.1378Z" fill="#A6C8FF"/>
<path d="M92.0223 71.0322C92.0223 71.0322 92.0794 70.4906 91.8369 70.3201C91.5944 70.1497 90.1642 69.9934 89.9217 70.3201C89.6792 70.6469 88.192 73.9763 90.5084 73.7064L92.0223 71.0322Z" fill="#21272A"/>
<path d="M91.5956 74.2267C91.5956 74.2267 91.872 74.7345 92.0271 74.7345C92.1823 74.7345 91.979 73.9994 92.7065 73.8183L93.2433 73.8893C94.2757 74.026 95.3243 73.9692 96.3335 73.7206C96.3335 73.7206 96.4298 72.5682 96.1713 72.0763C95.7897 71.3447 94.5379 70.6308 93.7657 70.4906C93.3289 70.4107 92.8688 70.3911 92.4301 70.4728C92.3641 70.4852 92.2982 70.4994 92.234 70.5172C92.1858 70.5314 92.1359 70.5456 92.0877 70.5616C90.251 71.1778 88.9743 73.1595 91.5974 76.3806C91.5974 76.3806 91.7133 76.029 91.5064 75.491C91.5064 75.491 90.7985 74.1184 91.5902 74.2267" fill="#21272A"/>
<path d="M88.5835 82.1375L88.5639 82.1446C88.612 82.1304 88.6602 82.118 88.7083 82.1073C89.0953 82.0274 89.509 82.0594 89.871 82.221C90.0582 82.3044 90.4309 82.2707 90.5789 82.3684C91.5632 83.0591 93.9759 85.8222 94.2059 85.9997C94.641 85.998 98.2681 85.9038 98.7513 85.8452C98.803 85.8399 98.9029 86.9107 99.2667 87.4203C99.3041 87.4718 95.7466 88.3561 94.9692 88.42C94.905 88.4254 94.8425 88.4307 94.7783 88.436C94.4627 88.4591 94.1435 88.5284 93.8386 88.4041C93.6514 88.3277 93.2591 88.1342 93.0807 88.0187C92.8828 87.8909 92.6777 87.7755 92.4887 87.6352C92.0679 87.3226 91.656 86.9995 91.2476 86.671C90.4327 86.0157 89.4965 85.0941 88.7886 84.3217C88.2821 83.7694 88.1716 82.3364 88.2679 82.276C88.366 82.2157 88.4783 82.173 88.5835 82.1375V82.1375ZM89.7479 82.4128C89.7818 82.3613 89.8139 82.3115 89.8442 82.2601C89.8121 82.3098 89.78 82.3613 89.7479 82.4128Z" fill="#50565B"/>
<path d="M100.342 81.7239L101.856 80.8662L101.889 80.8857L101.856 80.8662C101.913 80.8325 101.964 80.8307 102.002 80.852L102.125 80.9053C102.087 80.884 102.066 80.8928 102.009 80.9248L100.479 81.8038C100.365 81.8695 100.272 82.0275 100.274 82.1589L100.283 85.6962C100.283 85.7601 100.27 85.7974 100.308 85.8187L100.204 85.7477C100.167 85.7264 100.144 85.6802 100.144 85.6163L100.135 82.079C100.135 81.9494 100.226 81.7896 100.34 81.7239" fill="#B9BFC7"/>
<path d="M102.14 80.5961L99.6328 80.8312L100.123 86.0147L102.63 85.7796L102.14 80.5961Z" fill="#B9BFC7"/>
<path d="M101.973 80.914C102.087 80.8483 102.18 80.9016 102.18 81.0312L102.189 84.5685C102.189 84.6981 102.098 84.8579 101.984 84.9236L100.454 85.8026C100.34 85.8683 100.247 85.815 100.247 85.6854L100.238 82.1482C100.238 82.0185 100.329 81.8587 100.443 81.793L101.973 80.914V80.914Z" fill="#A6C8FF"/>
<path d="M99.6432 87.2783C99.6432 87.2783 99.3276 87.4026 99.2063 87.431C99.0851 87.4594 98.5448 86.2466 98.543 85.863C98.9388 85.8169 98.946 85.4013 99.1778 85.2806C99.1814 85.277 99.3258 85.1971 99.5095 85.2202C99.6824 85.2415 100.166 85.1634 100.171 85.1616C100.51 84.9911 100.449 84.9219 100.77 84.723C100.818 84.6253 100.874 84.5224 100.925 84.4158C100.998 84.2809 101.063 84.1175 101.063 84.1175C101.116 83.9825 101.161 83.8387 101.179 83.6949C101.264 83.5279 101.36 83.4409 101.496 83.3912C101.557 83.3699 101.708 83.4356 101.708 83.4356L101.683 83.757C101.648 83.9666 101.573 84.43 101.569 84.446C101.672 84.3128 101.847 83.9204 101.904 83.7837C102.026 83.5013 102.125 83.3806 102.437 83.4942L102.446 83.4995C102.455 83.4871 102.461 83.4765 102.473 83.4693C102.528 83.4356 102.569 83.3948 102.625 83.3877L102.78 83.4924C102.76 83.5919 102.733 83.6913 102.716 83.7783C102.709 83.8334 102.675 83.9666 102.682 84.0198C102.707 84.1885 102.748 84.4105 102.746 84.5348C102.741 84.6253 102.739 84.8402 102.75 84.8544C102.735 85.0231 101.649 86.4455 101.114 86.6088C101.114 86.6088 99.7627 87.2357 99.6414 87.2765L99.6432 87.2783Z" fill="#50565B"/>
<path d="M90.0308 80.3424C90.0219 80.337 89.9221 80.543 89.9131 80.5395C89.9756 80.575 90.186 80.5448 90.2466 80.5839C90.7263 80.9017 91.288 81.3137 91.4877 81.8517C91.5911 82.1305 91.5537 83.0646 91.6036 83.3167C90.844 83.94 89.7366 84.613 89.0501 84.6023C88.8682 84.4851 88.7041 84.2223 88.5401 84.027C88.0372 83.386 87.743 80.8218 88.9538 80.3637C89.1143 80.3033 89.38 80.1612 89.5422 80.2021C89.7045 80.2429 89.8864 80.2713 90.0326 80.3424H90.0308Z" fill="#A6C8FF"/>
<path d="M98.0192 92.7316L98.3383 98.8898L97.8408 111.639L95.6011 111.881L95.6725 110.263C95.2088 107.704 94.4581 104.94 94.7505 102.354L93.752 93.0974L98.0192 92.7316V92.7316Z" fill="#002D9C"/>
<path d="M93.8369 95.4964L93.5034 100.506L93.5819 113.632L91.1318 113.456L91.2477 111.824C90.8607 109.253 89.7569 105.813 90.1278 103.24L89.1328 94.0829L96.4279 92.5007L96.1533 94.6405L95.7217 94.4309C95.2849 94.2179 94.9621 95.1981 94.5252 95.4147L93.8369 95.4964V95.4964Z" fill="#002D9C"/>
<path d="M95.0076 115.15L93.1745 113.145L91.1452 113.245L90.9883 114.869C91.0222 115.203 91.2326 115.493 91.5411 115.628L93.8842 117.201C94.3674 117.526 94.9666 117.664 95.5337 117.533C95.9812 117.428 96.4146 117.171 96.5091 116.58L96.4859 116.501C96.3343 115.974 95.4267 115.502 95.0041 115.152" fill="#202529"/>
<path d="M99.5575 113.23L97.7101 111.21L95.6273 111.277L95.5078 112.946C95.5417 113.282 95.7539 113.575 96.066 113.71L98.4269 115.296C98.9137 115.622 99.5165 115.763 100.089 115.629C100.54 115.525 100.977 115.265 101.071 114.669L101.048 114.589C100.895 114.058 99.9819 113.58 99.5557 113.229" fill="#202529"/>
<defs>
<linearGradient id="paint0_linear_8_2967" x1="110.791" y1="104.909" x2="128.738" y2="115.313" gradientUnits="userSpaceOnUse">
<stop offset="0.37" stop-color="#DDE1E6"/>
<stop offset="1" stop-color="#A2A9B0"/>
</linearGradient>
<linearGradient id="paint1_linear_8_2967" x1="116.9" y1="105.169" x2="126.196" y2="98.6317" gradientUnits="userSpaceOnUse">
<stop offset="0.37" stop-color="#F2F4F8"/>
<stop offset="1" stop-color="#E0E0E0"/>
</linearGradient>
<linearGradient id="paint2_linear_8_2967" x1="116.9" y1="121.513" x2="126.196" y2="114.976" gradientUnits="userSpaceOnUse">
<stop offset="0.37" stop-color="#DDE1E6"/>
<stop offset="1" stop-color="#A2A9B0"/>
</linearGradient>
<linearGradient id="paint3_linear_8_2967" x1="122.861" y1="92.523" x2="120.828" y2="104.101" gradientUnits="userSpaceOnUse">
<stop offset="0.37" stop-color="#C1C7CD"/>
<stop offset="0.99" stop-color="#A2A9B0"/>
<stop offset="1" stop-color="#A2A9B0"/>
</linearGradient>
<linearGradient id="paint4_linear_8_2967" x1="104.119" y1="121.03" x2="105.383" y2="121.03" gradientUnits="userSpaceOnUse">
<stop stop-color="#0F62FE"/>
<stop offset="1" stop-color="#08BDBA"/>
</linearGradient>
<linearGradient id="paint5_linear_8_2967" x1="91.4081" y1="128.187" x2="92.6722" y2="128.187" gradientUnits="userSpaceOnUse">
<stop stop-color="#0F62FE"/>
<stop offset="1" stop-color="#08BDBA"/>
</linearGradient>
<linearGradient id="paint6_linear_8_2967" x1="93.5039" y1="126.977" x2="94.768" y2="126.977" gradientUnits="userSpaceOnUse">
<stop stop-color="#0F62FE"/>
<stop offset="1" stop-color="#08BDBA"/>
</linearGradient>
<linearGradient id="paint7_linear_8_2967" x1="95.6035" y1="125.768" x2="96.8676" y2="125.768" gradientUnits="userSpaceOnUse">
<stop stop-color="#0F62FE"/>
<stop offset="1" stop-color="#08BDBA"/>
</linearGradient>
<linearGradient id="paint8_linear_8_2967" x1="97.6992" y1="124.558" x2="98.9633" y2="124.558" gradientUnits="userSpaceOnUse">
<stop stop-color="#0F62FE"/>
<stop offset="1" stop-color="#08BDBA"/>
</linearGradient>
<linearGradient id="paint9_linear_8_2967" x1="99.7988" y1="123.349" x2="101.063" y2="123.349" gradientUnits="userSpaceOnUse">
<stop stop-color="#0F62FE"/>
<stop offset="1" stop-color="#08BDBA"/>
</linearGradient>
<linearGradient id="paint10_linear_8_2967" x1="101.894" y1="122.139" x2="103.159" y2="122.139" gradientUnits="userSpaceOnUse">
<stop stop-color="#0F62FE"/>
<stop offset="1" stop-color="#08BDBA"/>
</linearGradient>
<linearGradient id="paint11_linear_8_2967" x1="89.3086" y1="129.396" x2="90.5727" y2="129.396" gradientUnits="userSpaceOnUse">
<stop stop-color="#0F62FE"/>
<stop offset="1" stop-color="#08BDBA"/>
</linearGradient>
<linearGradient id="paint12_linear_8_2967" x1="60" y1="117.118" x2="61.2641" y2="117.118" gradientUnits="userSpaceOnUse">
<stop stop-color="#0F62FE"/>
<stop offset="1" stop-color="#08BDBA"/>
</linearGradient>
<linearGradient id="paint13_linear_8_2967" x1="62.084" y1="118.327" x2="63.3481" y2="118.327" gradientUnits="userSpaceOnUse">
<stop stop-color="#0F62FE"/>
<stop offset="1" stop-color="#08BDBA"/>
</linearGradient>
<linearGradient id="paint14_linear_8_2967" x1="64.1671" y1="119.537" x2="65.4331" y2="119.537" gradientUnits="userSpaceOnUse">
<stop stop-color="#0F62FE"/>
<stop offset="1" stop-color="#08BDBA"/>
</linearGradient>
<linearGradient id="paint15_linear_8_2967" x1="66.252" y1="120.746" x2="67.5161" y2="120.746" gradientUnits="userSpaceOnUse">
<stop stop-color="#0F62FE"/>
<stop offset="1" stop-color="#08BDBA"/>
</linearGradient>
<linearGradient id="paint16_linear_8_2967" x1="68.3359" y1="121.956" x2="69.6" y2="121.956" gradientUnits="userSpaceOnUse">
<stop stop-color="#0F62FE"/>
<stop offset="1" stop-color="#08BDBA"/>
</linearGradient>
<linearGradient id="paint17_linear_8_2967" x1="70.4189" y1="123.165" x2="71.6831" y2="123.165" gradientUnits="userSpaceOnUse">
<stop stop-color="#0F62FE"/>
<stop offset="1" stop-color="#08BDBA"/>
</linearGradient>
<linearGradient id="paint18_linear_8_2967" x1="72.503" y1="124.375" x2="73.769" y2="124.375" gradientUnits="userSpaceOnUse">
<stop stop-color="#0F62FE"/>
<stop offset="1" stop-color="#08BDBA"/>
</linearGradient>
<linearGradient id="paint19_linear_8_2967" x1="74.586" y1="125.584" x2="75.852" y2="125.584" gradientUnits="userSpaceOnUse">
<stop stop-color="#0F62FE"/>
<stop offset="1" stop-color="#08BDBA"/>
</linearGradient>
<linearGradient id="paint20_linear_8_2967" x1="76.6718" y1="126.794" x2="77.9359" y2="126.794" gradientUnits="userSpaceOnUse">
<stop stop-color="#0F62FE"/>
<stop offset="1" stop-color="#08BDBA"/>
</linearGradient>
<linearGradient id="paint21_linear_8_2967" x1="78.7549" y1="128.004" x2="80.019" y2="128.004" gradientUnits="userSpaceOnUse">
<stop stop-color="#0F62FE"/>
<stop offset="1" stop-color="#08BDBA"/>
</linearGradient>
<linearGradient id="paint22_linear_8_2967" x1="80.839" y1="129.213" x2="82.1031" y2="129.213" gradientUnits="userSpaceOnUse">
<stop stop-color="#0F62FE"/>
<stop offset="1" stop-color="#08BDBA"/>
</linearGradient>
<linearGradient id="paint23_linear_8_2967" x1="82.9229" y1="130.423" x2="84.1889" y2="130.423" gradientUnits="userSpaceOnUse">
<stop stop-color="#0F62FE"/>
<stop offset="1" stop-color="#08BDBA"/>
</linearGradient>
<linearGradient id="paint24_linear_8_2967" x1="87.1045" y1="130.423" x2="88.3705" y2="130.423" gradientUnits="userSpaceOnUse">
<stop stop-color="#0F62FE"/>
<stop offset="1" stop-color="#08BDBA"/>
</linearGradient>
<linearGradient id="paint25_linear_8_2967" x1="110.529" y1="117.452" x2="111.795" y2="117.452" gradientUnits="userSpaceOnUse">
<stop stop-color="#0F62FE"/>
<stop offset="1" stop-color="#08BDBA"/>
</linearGradient>
<linearGradient id="paint26_linear_8_2967" x1="112.627" y1="116.243" x2="113.891" y2="116.243" gradientUnits="userSpaceOnUse">
<stop stop-color="#0F62FE"/>
<stop offset="1" stop-color="#08BDBA"/>
</linearGradient>
<linearGradient id="paint27_linear_8_2967" x1="114.725" y1="115.033" x2="115.989" y2="115.033" gradientUnits="userSpaceOnUse">
<stop stop-color="#0F62FE"/>
<stop offset="1" stop-color="#08BDBA"/>
</linearGradient>
<linearGradient id="paint28_linear_8_2967" x1="106.227" y1="119.688" x2="107.491" y2="119.688" gradientUnits="userSpaceOnUse">
<stop stop-color="#0F62FE"/>
<stop offset="1" stop-color="#08BDBA"/>
</linearGradient>
<linearGradient id="paint29_linear_8_2967" x1="85.0078" y1="131.632" x2="86.272" y2="131.632" gradientUnits="userSpaceOnUse">
<stop stop-color="#0F62FE"/>
<stop offset="1" stop-color="#08BDBA"/>
</linearGradient>
<linearGradient id="paint30_linear_8_2967" x1="93.1307" y1="83.56" x2="93.2944" y2="83.4653" gradientUnits="userSpaceOnUse">
<stop stop-color="#BB8EFF"/>
<stop offset="0.02" stop-color="#C198FF" stop-opacity="0.93"/>
<stop offset="0.07" stop-color="#D3B7FF" stop-opacity="0.71"/>
<stop offset="0.12" stop-color="#E3D0FF" stop-opacity="0.53"/>
<stop offset="0.17" stop-color="#EFE4FF" stop-opacity="0.38"/>
<stop offset="0.22" stop-color="#F7F3FF" stop-opacity="0.28"/>
<stop offset="0.26" stop-color="#FDFBFF" stop-opacity="0.22"/>
<stop offset="0.29" stop-color="white" stop-opacity="0.2"/>
</linearGradient>
<linearGradient id="paint31_linear_8_2967" x1="90.1073" y1="81.6581" x2="90.2781" y2="81.5599" gradientUnits="userSpaceOnUse">
<stop stop-color="#BB8EFF"/>
<stop offset="0.02" stop-color="#C198FF" stop-opacity="0.93"/>
<stop offset="0.07" stop-color="#D3B7FF" stop-opacity="0.71"/>
<stop offset="0.12" stop-color="#E3D0FF" stop-opacity="0.53"/>
<stop offset="0.17" stop-color="#EFE4FF" stop-opacity="0.38"/>
<stop offset="0.22" stop-color="#F7F3FF" stop-opacity="0.28"/>
<stop offset="0.26" stop-color="#FDFBFF" stop-opacity="0.22"/>
<stop offset="0.29" stop-color="white" stop-opacity="0.2"/>
</linearGradient>
<linearGradient id="paint32_linear_8_2967" x1="93.035" y1="78.5009" x2="94.7336" y2="72.6496" gradientUnits="userSpaceOnUse">
<stop offset="0.09" stop-color="#171717" stop-opacity="0"/>
<stop offset="1" stop-color="#171717"/>
</linearGradient>
<linearGradient id="paint33_linear_8_2967" x1="-5844.44" y1="2934.49" x2="-5994.18" y2="3007.22" gradientUnits="userSpaceOnUse">
<stop offset="0.09" stop-color="#171717" stop-opacity="0"/>
<stop offset="1" stop-color="#171717"/>
</linearGradient>
</defs>
</svg>
