<svg width="320" height="180" viewBox="0 0 320 180" fill="none" xmlns="http://www.w3.org/2000/svg">
<g clip-path="url(#clip0_36_3801)">
<g clip-path="url(#clip1_36_3801)">
<rect x="161" y="74" width="104" height="32" fill="#0F62FE"/>
</g>
<path fill-rule="evenodd" clip-rule="evenodd" d="M247.781 87.8125L247.125 87.1562L243.562 90.7188L241.875 89.0313L241.219 89.6875L243.562 92.0313L247.781 87.8125ZM244.5 82.9375C240.891 82.9375 237.938 85.8906 237.938 89.5C237.938 93.1094 240.891 96.0625 244.5 96.0625C248.109 96.0625 251.062 93.1094 251.062 89.5C251.062 85.8906 248.109 82.9375 244.5 82.9375ZM244.5 95.125C241.406 95.125 238.875 92.5937 238.875 89.5C238.875 86.4063 241.406 83.875 244.5 83.875C247.594 83.875 250.125 86.4063 250.125 89.5C250.125 92.5937 247.594 95.125 244.5 95.125Z" fill="white"/>
<rect x="56" y="74" width="104" height="32" fill="#C6C6C6"/>
<path d="M72.068 94.144C73.46 94.144 74.48 93.412 75.008 92.236L74.204 91.732C73.868 92.644 73.136 93.244 72.068 93.244C70.628 93.244 69.776 92.2 69.776 90.484V89.236C69.776 87.52 70.628 86.38 72.068 86.38C73.1 86.38 73.796 86.944 74.132 87.808L74.948 87.316C74.42 86.152 73.46 85.48 72.068 85.48C69.956 85.48 68.696 87.064 68.696 89.86C68.696 92.656 69.956 94.144 72.068 94.144ZM81.5131 94V93.16H80.8051V89.752C80.8051 88.444 79.9171 87.664 78.4291 87.664C77.3131 87.664 76.5691 88.216 76.2331 88.876L76.8091 89.416C77.1451 88.852 77.6371 88.492 78.3811 88.492C79.3651 88.492 79.8451 88.972 79.8451 89.848V90.46H78.6211C76.8211 90.46 75.9811 91.108 75.9811 92.272C75.9811 93.424 76.7491 94.144 78.0571 94.144C78.9211 94.144 79.5811 93.748 79.8451 92.992H79.9051C79.9771 93.568 80.2651 94 80.9731 94H81.5131ZM78.2131 93.328C77.4691 93.328 76.9891 92.98 76.9891 92.368V92.116C76.9891 91.516 77.4811 91.18 78.5731 91.18H79.8451V92.2C79.8451 92.836 79.1611 93.328 78.2131 93.328ZM83.8433 94V89.704C83.8433 88.912 84.5873 88.528 85.3553 88.528C86.2793 88.528 86.7593 89.092 86.7593 90.196V94H87.7193V90.028C87.7193 88.528 86.9153 87.664 85.6433 87.664C84.7193 87.664 84.1913 88.12 83.8913 88.816H83.8433V87.808H82.8833V94H83.8433ZM92.0076 94.144C93.1836 94.144 93.9876 93.568 94.3836 92.68L93.6876 92.212C93.3516 92.92 92.7876 93.292 92.0076 93.292C90.8676 93.292 90.2796 92.512 90.2796 91.432V90.376C90.2796 89.296 90.8676 88.516 92.0076 88.516C92.7636 88.516 93.2916 88.888 93.5196 89.524L94.3236 89.116C93.9636 88.264 93.2316 87.664 92.0076 87.664C90.2676 87.664 89.2476 88.924 89.2476 90.904C89.2476 92.884 90.2676 94.144 92.0076 94.144ZM97.9964 94.144C99.1604 94.144 100.048 93.568 100.444 92.728L99.7604 92.236C99.4364 92.92 98.8364 93.304 98.0564 93.304C96.9044 93.304 96.2204 92.5 96.2204 91.432V91.144H100.672V90.688C100.672 88.936 99.6524 87.664 97.9964 87.664C96.3164 87.664 95.2124 88.936 95.2124 90.904C95.2124 92.872 96.3164 94.144 97.9964 94.144ZM97.9964 88.468C98.9804 88.468 99.6404 89.2 99.6404 90.292V90.424H96.2204V90.34C96.2204 89.26 96.9524 88.468 97.9964 88.468ZM104.126 94V93.16H103.214V85.12H102.254V93.004C102.254 93.58 102.614 94 103.274 94H104.126Z" fill="#8D8D8D"/>
<path d="M177.964 94.144C179.764 94.144 180.844 93.16 180.844 91.624C180.844 90.376 180.136 89.656 178.504 89.284L177.82 89.128C176.764 88.888 176.248 88.528 176.248 87.736C176.248 86.836 176.908 86.368 177.976 86.368C178.948 86.368 179.584 86.764 180.04 87.4L180.796 86.848C180.172 85.96 179.284 85.48 178.024 85.48C176.38 85.48 175.252 86.284 175.252 87.772C175.252 89.056 176.092 89.728 177.616 90.076L178.3 90.232C179.404 90.484 179.848 90.88 179.848 91.672C179.848 92.632 179.2 93.256 178 93.256C177.028 93.256 176.332 92.836 175.744 92.056L175 92.68C175.672 93.592 176.62 94.144 177.964 94.144Z" fill="white"/>
<path d="M187.529 94V93.16H186.821V89.752C186.821 88.444 185.933 87.664 184.445 87.664C183.329 87.664 182.585 88.216 182.249 88.876L182.825 89.416C183.161 88.852 183.653 88.492 184.397 88.492C185.381 88.492 185.861 88.972 185.861 89.848V90.46H184.637C182.837 90.46 181.997 91.108 181.997 92.272C181.997 93.424 182.765 94.144 184.073 94.144C184.937 94.144 185.597 93.748 185.861 92.992H185.921C185.993 93.568 186.281 94 186.989 94H187.529ZM184.229 93.328C183.485 93.328 183.005 92.98 183.005 92.368V92.116C183.005 91.516 183.497 91.18 184.589 91.18H185.861V92.2C185.861 92.836 185.177 93.328 184.229 93.328Z" fill="white"/>
<path d="M191.289 94L193.473 87.808H192.549L191.445 90.88L190.773 92.992H190.713L190.041 90.88L188.961 87.808H188.001L190.173 94H191.289Z" fill="white"/>
<path d="M196.946 94.144C198.11 94.144 198.998 93.568 199.394 92.728L198.71 92.236C198.386 92.92 197.786 93.304 197.006 93.304C195.854 93.304 195.17 92.5 195.17 91.432V91.144H199.622V90.688C199.622 88.936 198.602 87.664 196.946 87.664C195.266 87.664 194.162 88.936 194.162 90.904C194.162 92.872 195.266 94.144 196.946 94.144ZM196.946 88.468C197.93 88.468 198.59 89.2 198.59 90.292V90.424H195.17V90.34C195.17 89.26 195.902 88.468 196.946 88.468Z" fill="white"/>
<path d="M205.163 94H206.124V85.12H205.163V88.816H205.115C204.791 88.036 204.156 87.664 203.304 87.664C201.756 87.664 200.784 88.924 200.784 90.904C200.784 92.884 201.756 94.144 203.304 94.144C204.156 94.144 204.743 93.76 205.115 92.992H205.163V94ZM203.567 93.28C202.487 93.28 201.816 92.536 201.816 91.432V90.376C201.816 89.272 202.487 88.528 203.567 88.528C204.443 88.528 205.163 89.032 205.163 89.716V92.02C205.163 92.824 204.443 93.28 203.567 93.28Z" fill="white"/>
</g>
<defs>
<clipPath id="clip0_36_3801">
<rect width="320" height="180" fill="white"/>
</clipPath>
<clipPath id="clip1_36_3801">
<rect width="176" height="32" fill="white" transform="translate(88 74)"/>
</clipPath>
</defs>
</svg>
