<svg width="320" height="180" viewBox="0 0 320 180" fill="none" xmlns="http://www.w3.org/2000/svg">
<rect x="60" y="41" width="200" height="109" fill="white"/>
<rect x="60" y="29" width="200" height="13" fill="#171717"/>
<rect opacity="0.844385" x="94" y="34.5" width="22" height="3" fill="#C6C6C6"/>
<rect opacity="0.844385" x="67" y="34.5" width="22" height="3" fill="#C6C6C6"/>
<rect opacity="0.844385" x="121" y="34.5" width="22" height="3" fill="#C6C6C6"/>
<rect opacity="0.844385" x="239" y="33" width="5" height="5" fill="#C6C6C6"/>
<rect opacity="0.844385" x="249" y="33" width="5" height="5" fill="#C6C6C6"/>
<g style="mix-blend-mode:multiply">
<rect x="60" y="29" width="200" height="122" fill="#8D8D8D"/>
</g>
<rect x="125" y="51" width="69" height="90" fill="white"/>
<rect x="130" y="62" width="45" height="2" fill="#A8A8A8"/>
<rect x="138" y="103" width="22" height="2" fill="#A8A8A8"/>
<rect x="138" y="116" width="22" height="2" fill="#A8A8A8"/>
<rect x="138" y="128" width="22" height="2" fill="#A8A8A8"/>
<rect x="130" y="89" width="15" height="2" fill="#A8A8A8"/>
<rect x="130" y="56" width="30" height="3" fill="#8D8D8D"/>
<rect x="125" y="140" width="69" height="11" fill="#0F62FE"/>
<path d="M125 140H160V151H125V140Z" fill="#393939"/>
<rect x="159" y="140" width="1" height="11" fill="#F4F4F4"/>
<rect x="130" y="76" width="59" height="7" fill="#F4F4F4"/>
<rect x="125" y="70" width="69" height="0.5" fill="#C6C6C6"/>
<rect x="125" y="97" width="69" height="0.5" fill="#C6C6C6"/>
<rect x="125" y="123" width="69" height="0.5" fill="#C6C6C6"/>
<rect x="125" y="110" width="69" height="0.5" fill="#C6C6C6"/>
<rect x="125" y="135" width="69" height="0.5" fill="#C6C6C6"/>
<rect x="130" y="83" width="59" height="1" fill="#C6C6C6"/>
<circle cx="131.5" cy="103.5" r="2.25" stroke="black" stroke-width="0.5"/>
<circle cx="131.5" cy="129.5" r="2.25" stroke="black" stroke-width="0.5"/>
<circle cx="131.5" cy="116.5" r="2.25" stroke="black" stroke-width="0.5"/>
<path fill-rule="evenodd" clip-rule="evenodd" d="M129 116.5C129 115.119 130.119 114 131.5 114C132.163 114 132.799 114.263 133.268 114.732C133.737 115.201 134 115.837 134 116.5C134 117.881 132.881 119 131.5 119C130.119 119 129 117.881 129 116.5ZM129.356 116.5C129.356 117.683 130.316 118.643 131.499 118.643C132.068 118.643 132.613 118.417 133.015 118.015C133.416 117.613 133.642 117.068 133.642 116.5C133.642 115.316 132.683 114.357 131.499 114.357C130.316 114.357 129.356 115.316 129.356 116.5Z" fill="#252525"/>
<circle cx="131.501" cy="116.5" r="1.07143" fill="#171717"/>
<rect x="149" y="88" width="11" height="5" rx="2.5" fill="#D9D9D9"/>
</svg>
