<svg width="320" height="180" viewBox="0 0 320 180" fill="none" xmlns="http://www.w3.org/2000/svg">
<rect x="63" y="83" width="45" height="18" rx="9" fill="#D0E2FF"/>
<rect x="117" y="83" width="45" height="18" rx="9" fill="#A7F0BA"/>
<path d="M77.336 88.888V88H71V88.888H73.664V96.376H74.672V88.888H77.336Z" fill="#0043CE"/>
<path d="M83.1394 96.376V95.536H82.4314V92.128C82.4314 90.82 81.5434 90.04 80.0554 90.04C78.9394 90.04 78.1954 90.592 77.8594 91.252L78.4354 91.792C78.7714 91.228 79.2634 90.868 80.0074 90.868C80.9914 90.868 81.4714 91.348 81.4714 92.224V92.836H80.2474C78.4474 92.836 77.6074 93.484 77.6074 94.648C77.6074 95.8 78.3754 96.52 79.6834 96.52C80.5474 96.52 81.2074 96.124 81.4714 95.368H81.5314C81.6034 95.944 81.8914 96.376 82.5994 96.376H83.1394ZM79.8394 95.704C79.0954 95.704 78.6154 95.356 78.6154 94.744V94.492C78.6154 93.892 79.1074 93.556 80.1994 93.556H81.4714V94.576C81.4714 95.212 80.7874 95.704 79.8394 95.704Z" fill="#0043CE"/>
<path d="M90.0496 97.06C90.0496 96.04 89.3896 95.416 87.8536 95.416H86.5336C85.9696 95.416 85.5856 95.32 85.5856 94.948C85.5856 94.564 85.9936 94.36 86.4016 94.252C86.5816 94.288 86.7976 94.312 87.0016 94.312C88.4176 94.312 89.3416 93.436 89.3416 92.176C89.3416 91.516 89.0776 90.964 88.6336 90.58V90.184H89.8096V89.344H88.8856C88.3696 89.344 88.1656 89.692 88.1656 90.172V90.28C87.8296 90.124 87.4336 90.04 86.9896 90.04C85.5856 90.04 84.6616 90.916 84.6616 92.176C84.6616 93.04 85.0936 93.724 85.8256 94.072V94.12C85.2016 94.276 84.7576 94.576 84.7576 95.2C84.7576 95.62 84.9616 95.896 85.3096 96.064V96.196C84.6976 96.364 84.3256 96.724 84.3256 97.396C84.3256 98.368 85.1176 98.92 87.0496 98.92C89.0416 98.92 90.0496 98.332 90.0496 97.06ZM89.1496 97.132C89.1496 97.804 88.5256 98.14 87.4576 98.14H86.5696C85.5976 98.14 85.2256 97.696 85.2256 97.156C85.2256 96.772 85.4056 96.496 85.8016 96.316H87.8656C88.8256 96.316 89.1496 96.64 89.1496 97.132ZM87.0016 93.544C86.1856 93.544 85.6696 93.16 85.6696 92.344V92.008C85.6696 91.192 86.1856 90.808 87.0016 90.808C87.8176 90.808 88.3336 91.192 88.3336 92.008V92.344C88.3336 93.16 87.8176 93.544 87.0016 93.544Z" fill="#0043CE"/>
<path d="M100.189 96.376V95.488H98.0294V88H96.4574L94.2374 90.076L94.8254 90.712L96.9374 88.744H97.0214V95.488H94.6814V96.376H100.189Z" fill="#0043CE"/>
<rect x="171" y="83" width="45" height="18" rx="9" fill="#E8DAFF"/>
<rect x="225" y="83" width="30" height="18" rx="9" fill="#E0E0E0"/>
<path d="M236.252 95.776V93.268H238.592V92.452H236.252V89.944H235.34V92.452H233V93.268H235.34V95.776H236.252Z" fill="#161616"/>
<path d="M241.931 91.696V92.572H242.915C244.091 92.572 244.715 93.136 244.715 94.12V94.216C244.715 95.2 244.091 95.764 242.915 95.764C241.895 95.764 241.403 95.32 240.971 94.66L240.215 95.236C240.731 95.956 241.475 96.664 242.927 96.664C244.631 96.664 245.771 95.668 245.771 94.228C245.771 92.968 244.907 92.296 244.007 92.116V92.068C244.895 91.84 245.615 91.192 245.615 90.112C245.615 88.756 244.487 88 243.071 88C241.727 88 240.995 88.696 240.575 89.368L241.319 89.944C241.667 89.308 242.183 88.9 243.047 88.9C243.935 88.9 244.547 89.344 244.547 90.22V90.304C244.547 91.108 243.971 91.696 242.843 91.696H241.931Z" fill="#161616"/>
<path d="M65 65V72L72 65H65Z" fill="#D12771"/>
<path d="M257 65V72L250 65H257Z" fill="#D12771"/>
<line x1="65" y1="65.5" x2="255" y2="65.5" stroke="#D12771" stroke-dasharray="2 2"/>
<path d="M131.336 88.5V87.612H125V88.5H127.664V95.988H128.672V88.5H131.336Z" fill="#0E6027"/>
<path d="M137.139 95.988V95.148H136.431V91.74C136.431 90.432 135.543 89.652 134.055 89.652C132.939 89.652 132.195 90.204 131.859 90.864L132.435 91.404C132.771 90.84 133.263 90.48 134.007 90.48C134.991 90.48 135.471 90.96 135.471 91.836V92.448H134.247C132.447 92.448 131.607 93.096 131.607 94.26C131.607 95.412 132.375 96.132 133.683 96.132C134.547 96.132 135.207 95.736 135.471 94.98H135.531C135.603 95.556 135.891 95.988 136.599 95.988H137.139ZM133.839 95.316C133.095 95.316 132.615 94.968 132.615 94.356V94.104C132.615 93.504 133.107 93.168 134.199 93.168H135.471V94.188C135.471 94.824 134.787 95.316 133.839 95.316Z" fill="#0E6027"/>
<path d="M144.05 96.672C144.05 95.652 143.39 95.028 141.854 95.028H140.534C139.97 95.028 139.586 94.932 139.586 94.56C139.586 94.176 139.994 93.972 140.402 93.864C140.582 93.9 140.798 93.924 141.002 93.924C142.418 93.924 143.342 93.048 143.342 91.788C143.342 91.128 143.078 90.576 142.634 90.192V89.796H143.81V88.956H142.886C142.37 88.956 142.166 89.304 142.166 89.784V89.892C141.83 89.736 141.434 89.652 140.99 89.652C139.586 89.652 138.662 90.528 138.662 91.788C138.662 92.652 139.094 93.336 139.826 93.684V93.732C139.202 93.888 138.758 94.188 138.758 94.812C138.758 95.232 138.962 95.508 139.31 95.676V95.808C138.698 95.976 138.326 96.336 138.326 97.008C138.326 97.98 139.118 98.532 141.05 98.532C143.042 98.532 144.05 97.944 144.05 96.672ZM143.15 96.744C143.15 97.416 142.526 97.752 141.458 97.752H140.57C139.598 97.752 139.226 97.308 139.226 96.768C139.226 96.384 139.406 96.108 139.802 95.928H141.866C142.826 95.928 143.15 96.252 143.15 96.744ZM141.002 93.156C140.186 93.156 139.67 92.772 139.67 91.956V91.62C139.67 90.804 140.186 90.42 141.002 90.42C141.818 90.42 142.334 90.804 142.334 91.62V91.956C142.334 92.772 141.818 93.156 141.002 93.156Z" fill="#0E6027"/>
<path d="M154.021 95.1H149.617L151.873 93.072C152.941 92.112 153.709 91.2 153.709 89.904C153.709 88.476 152.773 87.468 151.141 87.468C149.521 87.468 148.777 88.452 148.453 89.436L149.353 89.784C149.581 88.992 150.061 88.368 151.093 88.368C152.125 88.368 152.641 89.004 152.641 89.928V90.072C152.641 90.876 152.041 91.716 151.261 92.436L148.525 94.956V95.988H154.021V95.1Z" fill="#0E6027"/>
<path d="M185.336 88.5V87.612H179V88.5H181.664V95.988H182.672V88.5H185.336Z" fill="#6929C4"/>
<path d="M191.139 95.988V95.148H190.431V91.74C190.431 90.432 189.543 89.652 188.055 89.652C186.939 89.652 186.195 90.204 185.859 90.864L186.435 91.404C186.771 90.84 187.263 90.48 188.007 90.48C188.991 90.48 189.471 90.96 189.471 91.836V92.448H188.247C186.447 92.448 185.607 93.096 185.607 94.26C185.607 95.412 186.375 96.132 187.683 96.132C188.547 96.132 189.207 95.736 189.471 94.98H189.531C189.603 95.556 189.891 95.988 190.599 95.988H191.139ZM187.839 95.316C187.095 95.316 186.615 94.968 186.615 94.356V94.104C186.615 93.504 187.107 93.168 188.199 93.168H189.471V94.188C189.471 94.824 188.787 95.316 187.839 95.316Z" fill="#6929C4"/>
<path d="M198.05 96.672C198.05 95.652 197.39 95.028 195.854 95.028H194.534C193.97 95.028 193.586 94.932 193.586 94.56C193.586 94.176 193.994 93.972 194.402 93.864C194.582 93.9 194.798 93.924 195.002 93.924C196.418 93.924 197.342 93.048 197.342 91.788C197.342 91.128 197.078 90.576 196.634 90.192V89.796H197.81V88.956H196.886C196.37 88.956 196.166 89.304 196.166 89.784V89.892C195.83 89.736 195.434 89.652 194.99 89.652C193.586 89.652 192.662 90.528 192.662 91.788C192.662 92.652 193.094 93.336 193.826 93.684V93.732C193.202 93.888 192.758 94.188 192.758 94.812C192.758 95.232 192.962 95.508 193.31 95.676V95.808C192.698 95.976 192.326 96.336 192.326 97.008C192.326 97.98 193.118 98.532 195.05 98.532C197.042 98.532 198.05 97.944 198.05 96.672ZM197.15 96.744C197.15 97.416 196.526 97.752 195.458 97.752H194.57C193.598 97.752 193.226 97.308 193.226 96.768C193.226 96.384 193.406 96.108 193.802 95.928H195.866C196.826 95.928 197.15 96.252 197.15 96.744ZM195.002 93.156C194.186 93.156 193.67 92.772 193.67 91.956V91.62C193.67 90.804 194.186 90.42 195.002 90.42C195.818 90.42 196.334 90.804 196.334 91.62V91.956C196.334 92.772 195.818 93.156 195.002 93.156Z" fill="#6929C4"/>
<path d="M203.845 91.164V92.04H204.829C206.005 92.04 206.629 92.604 206.629 93.588V93.684C206.629 94.668 206.005 95.232 204.829 95.232C203.809 95.232 203.317 94.788 202.885 94.128L202.129 94.704C202.645 95.424 203.389 96.132 204.841 96.132C206.545 96.132 207.685 95.136 207.685 93.696C207.685 92.436 206.821 91.764 205.921 91.584V91.536C206.809 91.308 207.529 90.66 207.529 89.58C207.529 88.224 206.401 87.468 204.985 87.468C203.641 87.468 202.909 88.164 202.489 88.836L203.233 89.412C203.581 88.776 204.097 88.368 204.961 88.368C205.849 88.368 206.461 88.812 206.461 89.688V89.772C206.461 90.576 205.885 91.164 204.757 91.164H203.845Z" fill="#6929C4"/>
</svg>
