<svg width="320" height="180" viewBox="0 0 320 180" fill="none" xmlns="http://www.w3.org/2000/svg">
<rect x="61.5" y="80.5" width="198" height="19" fill="white" stroke="#E4E4E4"/>
<rect width="10" height="10" transform="translate(165 85)" fill="white" style="mix-blend-mode:multiply"/>
<path d="M168.75 88.125H172.558L171.437 87.0044L171.875 86.5625L173.75 88.4375L171.875 90.3125L171.437 89.8704L172.557 88.75H168.75C168.253 88.75 167.776 88.9475 167.424 89.2992C167.073 89.6508 166.875 90.1277 166.875 90.625C166.875 91.1223 167.073 91.5992 167.424 91.9508C167.776 92.3025 168.253 92.5 168.75 92.5H171.25V93.125H168.75C168.087 93.125 167.451 92.8616 166.982 92.3928C166.513 91.9239 166.25 91.288 166.25 90.625C166.25 89.962 166.513 89.3261 166.982 88.8572C167.451 88.3884 168.087 88.125 168.75 88.125V88.125Z" fill="black" style="mix-blend-mode:multiply"/>
<rect width="10" height="10" transform="translate(185 85)" fill="white" style="mix-blend-mode:multiply"/>
<path d="M190.625 88.75H189.375V87.5H188.75V88.75H187.5V89.375H188.75V90.625H189.375V89.375H190.625V88.75Z" fill="black" style="mix-blend-mode:multiply"/>
<path d="M191.702 91.25C192.218 90.6378 192.501 89.8629 192.5 89.0625C192.5 88.3826 192.298 87.718 191.921 87.1527C191.543 86.5874 191.006 86.1468 190.378 85.8867C189.75 85.6265 189.059 85.5584 188.392 85.6911C187.725 85.8237 187.113 86.1511 186.632 86.6318C186.151 87.1126 185.824 87.7251 185.691 88.3919C185.558 89.0587 185.626 89.7499 185.887 90.378C186.147 91.0061 186.587 91.543 187.153 91.9207C187.718 92.2984 188.383 92.5 189.063 92.5C189.863 92.5005 190.638 92.218 191.25 91.7025L193.621 94.0625L194.063 93.6206L191.702 91.25ZM189.063 91.875C188.506 91.875 187.962 91.7101 187.5 91.401C187.037 91.092 186.677 90.6527 186.464 90.1388C186.251 89.6249 186.196 89.0594 186.304 88.5138C186.413 87.9682 186.68 87.4671 187.074 87.0738C187.467 86.6804 187.968 86.4126 188.514 86.304C189.059 86.1955 189.625 86.2512 190.139 86.4641C190.653 86.677 191.092 87.0374 191.401 87.5C191.71 87.9625 191.875 88.5062 191.875 89.0625C191.874 89.8082 191.578 90.5231 191.05 91.0503C190.523 91.5776 189.808 91.8742 189.063 91.875Z" fill="black" style="mix-blend-mode:multiply"/>
<rect width="10" height="10" transform="translate(205 85)" fill="white" style="mix-blend-mode:multiply"/>
<path d="M210.625 88.75H207.5V89.375H210.625V88.75Z" fill="black" style="mix-blend-mode:multiply"/>
<path d="M211.702 91.25C212.218 90.6378 212.501 89.8629 212.5 89.0625C212.5 88.3826 212.298 87.718 211.921 87.1527C211.543 86.5874 211.006 86.1468 210.378 85.8867C209.75 85.6265 209.059 85.5584 208.392 85.6911C207.725 85.8237 207.113 86.1511 206.632 86.6318C206.151 87.1126 205.824 87.7251 205.691 88.3919C205.558 89.0587 205.626 89.7499 205.887 90.378C206.147 91.0061 206.587 91.543 207.153 91.9207C207.718 92.2984 208.383 92.5 209.063 92.5C209.863 92.5005 210.638 92.218 211.25 91.7025L213.621 94.0625L214.063 93.6206L211.702 91.25ZM209.063 91.875C208.506 91.875 207.962 91.7101 207.5 91.401C207.037 91.092 206.677 90.6527 206.464 90.1388C206.251 89.6249 206.196 89.0594 206.304 88.5138C206.413 87.9682 206.68 87.4671 207.074 87.0738C207.467 86.6804 207.968 86.4126 208.514 86.304C209.059 86.1955 209.625 86.2512 210.139 86.4641C210.653 86.677 211.092 87.0374 211.401 87.5C211.71 87.9625 211.875 88.5062 211.875 89.0625C211.874 89.8082 211.578 90.5231 211.05 91.0503C210.523 91.5776 209.808 91.8742 209.063 91.875Z" fill="black" style="mix-blend-mode:multiply"/>
<rect width="10" height="10" transform="translate(225 85)" fill="white" style="mix-blend-mode:multiply"/>
<path d="M226.25 90.625V91.25H228.308L225.625 93.9319L226.067 94.375L228.75 91.6919V93.75H229.375V90.625H226.25Z" fill="black" style="mix-blend-mode:multiply"/>
<path d="M234.375 86.0675L233.935 85.625L231.25 88.3081V86.25H230.625V89.375H233.75V88.75H231.692L234.375 86.0675Z" fill="black" style="mix-blend-mode:multiply"/>
<rect width="10" height="10" transform="translate(245 85)" fill="white" style="mix-blend-mode:multiply"/>
<path d="M252.5 90.625H250.312V89.375H251.25C251.416 89.3748 251.575 89.3089 251.692 89.1917C251.809 89.0745 251.875 88.9157 251.875 88.75V87.5C251.875 87.3343 251.809 87.1755 251.692 87.0583C251.575 86.9411 251.416 86.8752 251.25 86.875H250.312V85.625H249.688V86.875H248.75C248.584 86.8752 248.425 86.9411 248.308 87.0583C248.191 87.1755 248.125 87.3343 248.125 87.5V88.75C248.125 88.9157 248.191 89.0745 248.308 89.1917C248.425 89.3089 248.584 89.3748 248.75 89.375H249.688V90.625H247.5C247.334 90.6252 247.175 90.6911 247.058 90.8083C246.941 90.9255 246.875 91.0843 246.875 91.25V92.5C246.875 92.6657 246.941 92.8245 247.058 92.9417C247.175 93.0589 247.334 93.1248 247.5 93.125H249.688V94.375H250.312V93.125H252.5C252.666 93.1248 252.825 93.0589 252.942 92.9417C253.059 92.8245 253.125 92.6657 253.125 92.5V91.25C253.125 91.0843 253.059 90.9255 252.942 90.8083C252.825 90.6911 252.666 90.6252 252.5 90.625ZM248.75 87.5H251.25V88.75H248.75V87.5ZM252.5 92.5H247.5V91.25H252.5V92.5Z" fill="black" style="mix-blend-mode:multiply"/>
<rect width="10" height="10" transform="translate(145 85)" fill="white" style="mix-blend-mode:multiply"/>
<path d="M151.25 88.125H147.442L148.563 87.0044L148.125 86.5625L146.25 88.4375L148.125 90.3125L148.563 89.8704L147.443 88.75H151.25C151.747 88.75 152.224 88.9475 152.576 89.2992C152.927 89.6508 153.125 90.1277 153.125 90.625C153.125 91.1223 152.927 91.5992 152.576 91.9508C152.224 92.3025 151.747 92.5 151.25 92.5H148.75V93.125H151.25C151.913 93.125 152.549 92.8616 153.018 92.3928C153.487 91.9239 153.75 91.288 153.75 90.625C153.75 89.962 153.487 89.3261 153.018 88.8572C152.549 88.3884 151.913 88.125 151.25 88.125Z" fill="black" style="mix-blend-mode:multiply"/>
<rect width="10" height="10" transform="translate(106 85)" fill="white" style="mix-blend-mode:multiply"/>
<path d="M107.875 90.625L108.316 91.0656L110.688 88.6969V94.375H111.312V88.6969L113.684 91.0656L114.125 90.625L111 87.5L107.875 90.625Z" fill="black" style="mix-blend-mode:multiply"/>
<path d="M107.875 87.5V86.25H114.125V87.5H114.75V86.25C114.75 86.0842 114.684 85.9253 114.567 85.8081C114.45 85.6908 114.291 85.625 114.125 85.625H107.875C107.709 85.625 107.55 85.6908 107.433 85.8081C107.316 85.9253 107.25 86.0842 107.25 86.25V87.5H107.875Z" fill="black" style="mix-blend-mode:multiply"/>
<rect width="10" height="10" transform="translate(86 85)" fill="white" style="mix-blend-mode:multiply"/>
<path d="M93.1875 91.2501C92.9536 91.2512 92.723 91.3049 92.5126 91.4071C92.3022 91.5094 92.1174 91.6575 91.9719 91.8407L89.6875 90.4126C89.7708 90.1439 89.7708 89.8563 89.6875 89.5876L91.9719 88.1594C92.2038 88.4465 92.5298 88.6423 92.8921 88.7121C93.2545 88.7818 93.6299 88.7211 93.9518 88.5406C94.2736 88.3601 94.5212 88.0715 94.6507 87.7259C94.7802 87.3803 94.7831 87.0001 94.6591 86.6525C94.535 86.305 94.292 86.0125 93.973 85.827C93.6539 85.6415 93.2796 85.5749 92.9161 85.639C92.5527 85.7031 92.2237 85.8937 91.9874 86.1772C91.7511 86.4606 91.6227 86.8185 91.625 87.1876C91.6265 87.3273 91.6475 87.4662 91.6875 87.6001L89.4032 89.0282C89.2015 88.7743 88.9258 88.5895 88.6144 88.4992C88.303 88.409 87.9712 88.418 87.665 88.5248C87.3589 88.6316 87.0936 88.8309 86.9058 89.0953C86.7181 89.3596 86.6172 89.6758 86.6172 90.0001C86.6172 90.3243 86.7181 90.6405 86.9058 90.9048C87.0936 91.1692 87.3589 91.3686 87.665 91.4754C87.9712 91.5822 88.303 91.5911 88.6144 91.5009C88.9258 91.4107 89.2015 91.2258 89.4032 90.9719L91.6875 92.4001C91.6475 92.534 91.6265 92.6728 91.625 92.8126C91.625 93.1216 91.7167 93.4237 91.8884 93.6806C92.06 93.9376 92.3041 94.1379 92.5896 94.2561C92.8751 94.3744 93.1893 94.4053 93.4924 94.345C93.7955 94.2848 94.0739 94.1359 94.2924 93.9174C94.5109 93.6989 94.6597 93.4205 94.72 93.1174C94.7803 92.8143 94.7494 92.5001 94.6311 92.2146C94.5128 91.9291 94.3126 91.6851 94.0556 91.5134C93.7987 91.3417 93.4966 91.2501 93.1875 91.2501ZM93.1875 86.2501C93.3729 86.2501 93.5542 86.305 93.7084 86.4081C93.8625 86.5111 93.9827 86.6575 94.0537 86.8288C94.1246 87.0001 94.1432 87.1886 94.107 87.3705C94.0708 87.5523 93.9816 87.7194 93.8504 87.8505C93.7193 87.9816 93.5523 88.0709 93.3704 88.1071C93.1886 88.1432 93.0001 88.1247 92.8288 88.0537C92.6575 87.9827 92.511 87.8626 92.408 87.7084C92.305 87.5542 92.25 87.373 92.25 87.1876C92.25 86.9389 92.3488 86.7005 92.5246 86.5247C92.7004 86.3488 92.9389 86.2501 93.1875 86.2501ZM88.1875 90.9376C88.0021 90.9376 87.8209 90.8826 87.6667 90.7796C87.5125 90.6766 87.3923 90.5301 87.3214 90.3588C87.2504 90.1875 87.2319 89.999 87.268 89.8172C87.3042 89.6353 87.3935 89.4683 87.5246 89.3372C87.6557 89.206 87.8228 89.1168 88.0046 89.0806C88.1865 89.0444 88.375 89.063 88.5463 89.1339C88.7176 89.2049 88.864 89.325 88.967 89.4792C89.07 89.6334 89.125 89.8146 89.125 90.0001C89.125 90.2487 89.0263 90.4872 88.8504 90.663C88.6746 90.8388 88.4362 90.9376 88.1875 90.9376ZM93.1875 93.7501C93.0021 93.7501 92.8209 93.6951 92.6667 93.5921C92.5125 93.4891 92.3923 93.3426 92.3214 93.1713C92.2504 93 92.2319 92.8115 92.268 92.6297C92.3042 92.4478 92.3935 92.2808 92.5246 92.1497C92.6557 92.0185 92.8228 91.9293 93.0046 91.8931C93.1865 91.8569 93.375 91.8755 93.5463 91.9464C93.7176 92.0174 93.864 92.1375 93.967 92.2917C94.07 92.4459 94.125 92.6271 94.125 92.8126C94.125 93.0612 94.0263 93.2997 93.8504 93.4755C93.6746 93.6513 93.4362 93.7501 93.1875 93.7501Z" fill="black" style="mix-blend-mode:multiply"/>
<rect width="10" height="10" transform="translate(125 85)" fill="white" style="mix-blend-mode:multiply"/>
<path d="M133.75 87.8125H132.812V85.9375H127.188V87.8125H126.25C126.084 87.8125 125.925 87.8783 125.808 87.9956C125.691 88.1128 125.625 88.2717 125.625 88.4375V91.5625C125.625 91.7283 125.691 91.8872 125.808 92.0044C125.925 92.1217 126.084 92.1875 126.25 92.1875H127.188V94.0625H132.812V92.1875H133.75C133.916 92.1875 134.075 92.1217 134.192 92.0044C134.309 91.8872 134.375 91.7283 134.375 91.5625V88.4375C134.375 88.2717 134.309 88.1128 134.192 87.9956C134.075 87.8783 133.916 87.8125 133.75 87.8125ZM127.812 86.5625H132.188V87.8125H127.812V86.5625ZM132.188 93.4375H127.812V90.3125H132.188V93.4375ZM133.75 91.5625H132.812V89.6875H127.188V91.5625H126.25V88.4375H133.75V91.5625Z" fill="black" style="mix-blend-mode:multiply"/>
<rect x="139" y="80" width="1" height="20" fill="#E4E4E4"/>
<rect width="10" height="10" transform="translate(66 85)" fill="white" style="mix-blend-mode:multiply"/>
<path d="M74.6594 87.9031L73.0969 86.3406C73.0677 86.3117 73.033 86.2888 72.995 86.2732C72.9569 86.2577 72.9161 86.2498 72.875 86.25H67.875C67.7092 86.25 67.5503 86.3159 67.4331 86.4331C67.3158 86.5503 67.25 86.7092 67.25 86.875V93.125C67.25 93.2908 67.3158 93.4497 67.4331 93.5669C67.5503 93.6842 67.7092 93.75 67.875 93.75H74.125C74.2908 93.75 74.4497 93.6842 74.5669 93.5669C74.6842 93.4497 74.75 93.2908 74.75 93.125V88.125C74.7502 88.0839 74.7424 88.0431 74.7268 88.005C74.7113 87.967 74.6883 87.9323 74.6594 87.9031ZM69.75 86.875H72.25V88.125H69.75V86.875ZM72.25 93.125H69.75V90.625H72.25V93.125ZM72.875 93.125V90.625C72.875 90.4592 72.8092 90.3003 72.6919 90.1831C72.5747 90.0659 72.4158 90 72.25 90H69.75C69.5842 90 69.4253 90.0659 69.3081 90.1831C69.1908 90.3003 69.125 90.4592 69.125 90.625V93.125H67.875V86.875H69.125V88.125C69.125 88.2908 69.1908 88.4497 69.3081 88.5669C69.4253 88.6842 69.5842 88.75 69.75 88.75H72.25C72.4158 88.75 72.5747 88.6842 72.6919 88.5669C72.8092 88.4497 72.875 88.2908 72.875 88.125V87.0031L74.125 88.2531V93.125H72.875Z" fill="black" style="mix-blend-mode:multiply"/>
</svg>
