<svg id="Layer_1" data-name="Layer 1" xmlns="http://www.w3.org/2000/svg" viewBox="0 0 32 32"><defs><style>.cls-1{fill:none;}</style></defs><title>api</title><path d="M26,22a4,4,0,0,0-2,.57l-3.09-3.09a6,6,0,0,0,0-6.95L24,9.43A4,4,0,1,0,22.57,8l-3.09,3.09a6,6,0,0,0-6.95,0L9.43,8A4,4,0,1,0,8,9.43l3.09,3.09a6,6,0,0,0,0,6.95L8,22.57A4,4,0,1,0,9.43,24l3.09-3.09a6,6,0,0,0,6.95,0L22.57,24A4,4,0,1,0,26,22ZM26,4a2,2,0,1,1-2,2A2,2,0,0,1,26,4ZM4,6A2,2,0,1,1,6,8,2,2,0,0,1,4,6ZM6,28a2,2,0,1,1,2-2A2,2,0,0,1,6,28Zm10-8a4,4,0,1,1,4-4A4,4,0,0,1,16,20Zm10,8a2,2,0,1,1,2-2A2,2,0,0,1,26,28Z"/><rect class="cls-1" width="32" height="32"/></svg>