<svg id="Layer_1" data-name="Layer 1" xmlns="http://www.w3.org/2000/svg" viewBox="0 0 32 32"><defs><style>.cls-1{fill:none;}</style></defs><title>asleep</title><rect class="cls-1" width="32" height="32"/><g id="Transparent_Rectangle" data-name="Transparent Rectangle"><rect class="cls-1" width="32" height="32"/></g><g id="Transparent_Rectangle-2" data-name="Transparent Rectangle"><rect class="cls-1" width="32" height="32"/></g><g id="Transparent_Rectangle-3" data-name="Transparent Rectangle"><rect class="cls-1" width="32" height="32"/></g><path d="M13.49,5.41a15.08,15.08,0,0,0,11.6,18.2,11.12,11.12,0,0,1-8,3.39h-.42a11.09,11.09,0,0,1-3.2-21.58M15,3,14.8,3a13.09,13.09,0,0,0,1.83,26h.49a13.08,13.08,0,0,0,10.71-5.56A1,1,0,0,0,27,21.88,13.08,13.08,0,0,1,15.88,4.38,1,1,0,0,0,15,3Z"/></svg>