<svg id="Layer_1" data-name="Layer 1" xmlns="http://www.w3.org/2000/svg" viewBox="0 0 32 32"><defs><style>.cls-1{fill:none;}</style></defs><title>chart--line</title><rect class="cls-1" width="32" height="32"/><path d="M10.06,17.88a3.89,3.89,0,0,0,3.16-.56l3.23,2.87A4,4,0,0,0,16,22a4,4,0,1,0,6.62-3l2.55-5.09A4.06,4.06,0,1,0,23.38,13l-2.55,5.09a4,4,0,0,0-3.07.59l-3.23-2.87A4,4,0,0,0,15,14a4,4,0,1,0-6.7,2.93L4,25V2H2V29a1,1,0,0,0,1,1H30V28H4.67ZM26,8a2,2,0,1,1-2,2A2,2,0,0,1,26,8ZM22,22a2,2,0,1,1-2-2A2,2,0,0,1,22,22ZM11,12a2,2,0,1,1-2,2A2,2,0,0,1,11,12Z"/></svg>