<svg id="Layer_1" data-name="Layer 1" xmlns="http://www.w3.org/2000/svg" viewBox="0 0 32 32"><defs><style>.cls-1{fill:none;}</style></defs><title>chart--bubble</title><path d="M30,30H3a1,1,0,0,1-1-1V2H4V28H30Z" transform="translate(0 0)"/><path d="M10,16a2,2,0,1,1-2,2,2,2,0,0,1,2-2m0-2a4,4,0,1,0,4,4,4,4,0,0,0-4-4Z" transform="translate(0 0)"/><path d="M21,6a4,4,0,1,1-4,4,4,4,0,0,1,4-4m0-2a6,6,0,1,0,6,6,6,6,0,0,0-6-6Z" transform="translate(0 0)"/><path d="M24.5,21A1.5,1.5,0,1,1,23,22.5,1.5,1.5,0,0,1,24.5,21m0-2A3.5,3.5,0,1,0,28,22.5,3.5,3.5,0,0,0,24.5,19Z" transform="translate(0 0)"/><rect class="cls-1" width="32" height="32"/></svg>