<svg xmlns="http://www.w3.org/2000/svg" viewBox="0 0 32 32"><defs><style>.cls-1{fill:none;}</style></defs><title>icons</title><g id="Icon"><path d="M17.7358,30,16,29.0078,20.0028,22l5.9905.0078A2.0094,2.0094,0,0,0,28.0006,20V8.0088A2.01,2.01,0,0,0,25.9933,6H6.0067A2.01,2.01,0,0,0,3.9994,8.0088V20a2.0094,2.0094,0,0,0,2.0073,2.0078h9v2h-9A4.0117,4.0117,0,0,1,2,20V8.0088A4.0119,4.0119,0,0,1,6.0067,4H25.9933A4.0119,4.0119,0,0,1,30,8.0088V20a4.0117,4.0117,0,0,1-4.0067,4.0078L21.1646,24Z"/><rect x="8.0029" y="10" width="16" height="2"/><rect x="8.0029" y="16" width="10" height="2"/></g><g id="Transparent_Rectangle" data-name="Transparent Rectangle"><rect class="cls-1" width="32" height="32"/></g></svg>