<svg id="Layer_1" data-name="Layer 1" xmlns="http://www.w3.org/2000/svg" viewBox="0 0 32 32"><defs><style>.cls-1{fill:none;}</style></defs><title>cloud-rain</title><rect class="cls-1" width="32" height="32"/><rect class="cls-1" width="32" height="32"/><path d="M23.5,22H8.5A6.49728,6.49728,0,0,1,7.2002,9.13623a8.99431,8.99431,0,0,1,17.60059,0A6.49739,6.49739,0,0,1,23.5,22ZM16,4a6.99874,6.99874,0,0,0-6.94141,6.14307l-.09912.812-.81543.064A4.49743,4.49743,0,0,0,8.5,20h15a4.49745,4.49745,0,0,0,.35645-8.981l-.81543-.064-.09863-.812A7.00116,7.00116,0,0,0,16,4Z"/><path d="M13.99921,30a.99992.99992,0,0,1-.89339-1.44742l1.99962-4.00044a1,1,0,1,1,1.78873.89463l-1.99962,4.00044A.99934.99934,0,0,1,13.99921,30Z"/><path d="M19.99931,30a.99988.99988,0,0,1-.89347-1.44728l1.99981-4a1,1,0,1,1,1.78889.89454l-1.99981,4A1,1,0,0,1,19.99931,30Z"/><path d="M7.99921,30a.99992.99992,0,0,1-.89339-1.44742l1.99962-4.00044a1,1,0,1,1,1.78873.89463L8.89455,29.44721A.99934.99934,0,0,1,7.99921,30Z"/></svg>