<svg id="Layer_1" data-name="Layer 1" xmlns="http://www.w3.org/2000/svg" viewBox="0 0 32 32"><defs><style>.cls-1{fill:none;}</style></defs><title>cloud--download</title><rect class="cls-1" width="32" height="32"/><rect class="cls-1" width="32" height="32"/><rect class="cls-1" width="32" height="32"/><polygon points="17 26.17 17 14 15 14 15 26.17 12.41 23.59 11 25 16 30 21 25 19.59 23.59 17 26.17"/><path d="M23.5,22H23V20h.5a4.49745,4.49745,0,0,0,.35645-8.981l-.81543-.064-.09863-.812a6.99383,6.99383,0,0,0-13.88379,0l-.09912.812-.81543.064A4.49743,4.49743,0,0,0,8.5,20H9v2H8.5A6.49728,6.49728,0,0,1,7.2002,9.13623a8.99431,8.99431,0,0,1,17.60059,0A6.49739,6.49739,0,0,1,23.5,22Z"/></svg>