<svg id="Layer_1" data-name="Layer 1" xmlns="http://www.w3.org/2000/svg" viewBox="0 0 32 32"><defs><style>.cls-1{fill:none;}</style></defs><title>cut</title><rect class="cls-1" width="32" height="32"/><path d="M26.5,19.63,20.24,16l6.26-3.63A5,5,0,0,0,24,3a5,5,0,0,0-2.49.67,5,5,0,0,0-1.83,6.86,5,5,0,0,0,2.39,2.09l-3.82,2.21L4,6.6,3,8.34,16.24,16,3,23.68l1,1.74,14.24-8.26,3.82,2.21a5,5,0,0,0-2.39,2.09,5,5,0,0,0,1.83,6.86A5,5,0,0,0,24,29a5,5,0,0,0,2.51-9.37ZM21.4,9.53a3,3,0,0,1,1.1-4.12,3,3,0,0,1,4.1,1.1,3,3,0,0,1-1.1,4.11h0A3,3,0,0,1,21.4,9.53Zm5.19,16a3,3,0,0,1-4.1,1.1,3,3,0,0,1,3-5.22h0A3,3,0,0,1,26.6,25.48Z"/></svg>