<svg id="Layer_1" data-name="Layer 1" xmlns="http://www.w3.org/2000/svg" viewBox="0 0 32 32"><defs><style>.cls-1{fill:none;}</style></defs><title>data--error</title><rect class="cls-1" width="32" height="32"/><path class="cls-1" d="M8,19H24V13H8Zm3-4a1,1,0,1,1-1,1A1,1,0,0,1,11,15Z"/><path class="cls-1" d="M8,11H24V5H8Zm3-4a1,1,0,1,1-1,1A1,1,0,0,1,11,7Z"/><path class="cls-1" d="M11,25a1,1,0,1,1,1-1A1,1,0,0,1,11,25Z"/><path d="M24,3H8A2,2,0,0,0,6,5V27a2,2,0,0,0,2,2h8V27H8V21H26V5A2,2,0,0,0,24,3Zm0,16H8V13H24Zm0-8H8V5H24Z"/><circle cx="11" cy="8" r="1"/><circle cx="11" cy="16" r="1"/><circle cx="11" cy="24" r="1"/><polygon points="29 29.59 26.17 26.76 29 23.93 27.59 22.52 24.76 25.34 21.93 22.52 20.52 23.93 23.34 26.76 20.52 29.59 21.93 31 24.76 28.17 27.59 31 29 29.59"/></svg>