<svg id="Layer_1" data-name="Layer 1" xmlns="http://www.w3.org/2000/svg" viewBox="0 0 32 32"><defs><style>.cls-1{fill:none;}</style></defs><title>unknow--01</title><rect class="cls-1" width="32" height="32"/><path d="M7,11a4,4,0,1,1,4-4A4,4,0,0,1,7,11ZM7,5A2,2,0,1,0,9,7,2,2,0,0,0,7,5Z"/><path d="M7,29a4,4,0,1,1,4-4A4,4,0,0,1,7,29Zm0-6a2,2,0,1,0,2,2A2,2,0,0,0,7,23Z"/><rect x="15" y="6" width="13" height="2"/><rect x="15" y="24.03" width="13" height="2"/><path d="M24,20a4,4,0,1,1,4-4A4,4,0,0,1,24,20Zm0-6a2,2,0,1,0,2,2A2,2,0,0,0,24,14Z"/><rect x="4" y="14.98" width="13" height="2"/></svg>