<svg id="Layer_1" data-name="Layer 1" xmlns="http://www.w3.org/2000/svg" viewBox="0 0 32 32"><defs><style>.cls-1{fill:none;}</style></defs><title>debug</title><rect class="cls-1" width="32" height="32"/><rect class="cls-1" width="32" height="32"/><path d="M29.83,20l.33-2L25,17.15V13c0-.08,0-.15,0-.23l5.07-1.36-.52-1.93-4.83,1.29A9,9,0,0,0,20,4.95V2H18V4.23a8.75,8.75,0,0,0-4,0V2H12V4.95a9,9,0,0,0-4.71,5.82L2.46,9.48l-.52,1.93L7,12.77c0,.08,0,.15,0,.23v4.15L1.84,18l.33,2L7,19.18a8.93,8.93,0,0,0,.82,3.58L3.29,27.29l1.41,1.41L8.9,24.51a9,9,0,0,0,14.2,0l4.19,4.19,1.41-1.41-4.54-4.54A8.93,8.93,0,0,0,25,19.18ZM15,25.92A7,7,0,0,1,9,19V13h6ZM9.29,11a7,7,0,0,1,13.41,0ZM23,19a7,7,0,0,1-6,6.92V13h6Z"/></svg>