<?xml version="1.0" encoding="utf-8"?>
<!-- Generator: Adobe Illustrator 22.0.1, SVG Export Plug-In . SVG Version: 6.00 Build 0)  -->
<svg version="1.1" id="Layer_1" xmlns="http://www.w3.org/2000/svg" xmlns:xlink="http://www.w3.org/1999/xlink" x="0px" y="0px"
	 viewBox="0 0 32 32" style="enable-background:new 0 0 32 32;" xml:space="preserve">
<style type="text/css">
	.st0{display:none;}
	.st1{display:inline;}
	.st2{fill:#EAEAEA;}
	.st3{fill:none;}
</style>
<g id="Padding" class="st0">
	<g class="st1">
		<path class="st2" d="M0,0v32h32V0H0z M30,30H2V2h28V30z"/>
	</g>
</g>
<g id="Icon">
	<rect x="2" y="28" width="28" height="2"/>
	<g>
		<path d="M11.1,4.2l7.6,6.4l1.1,0.9l1.2-0.7l4-2.3c0.3-0.2,0.7-0.3,1.1-0.3c0.6,0,1.2,0.3,1.5,0.7s0.4,1,0.3,1.5s-0.4,1-0.9,1.2
			l-16.8,9.7c-0.3,0.2-0.6,0.3-0.9,0.3c-0.7,0-1.3-0.4-1.6-0.9l-0.5-0.8l-1.5-2.5l-1.4-2.5l1.3-0.7l3,2.4l1.1,0.8l1.2-0.7l2.5-1.5
			l1.7-1l-1-1.7L9.9,4.9L11.1,4.2 M11.2,2c-0.2,0-0.3,0-0.5,0.1L8,3.7C7.5,4,7.3,4.6,7.6,5.1l4.8,8.4L9.9,15l-3.6-2.8
			C6.1,12.1,5.9,12,5.7,12s-0.3,0-0.5,0.1l-2.8,1.6C1.9,14,1.8,14.6,2,15l1.9,3.4l1.5,2.5L6,21.6c0.7,1.2,2,1.9,3.4,1.9
			c0.7,0,1.3-0.2,1.9-0.5l16.8-9.7c2-1.1,2.6-3.7,1.2-5.6c-0.7-1-1.9-1.6-3.1-1.6c-0.7,0-1.4,0.2-2.1,0.6l-4,2.3l-8.2-6.9
			C11.7,2.1,11.4,2,11.2,2L11.2,2z"/>
	</g>
</g>
<g id="Grid" class="st0">
</g>
<g id="Transparent_Rectangle">
	<rect class="st3" width="32" height="32"/>
</g>
</svg>
