<svg xmlns="http://www.w3.org/2000/svg" viewBox="0 0 32 32"><defs><style>.cls-1{fill:none;}</style></defs><title>iconsmore</title><g id="Icon"><path d="M13,30A11,11,0,0,1,13,8a1,1,0,0,1,1,1v9h9a1,1,0,0,1,1,1A11.0124,11.0124,0,0,1,13,30ZM12,10.0552A9,9,0,1,0,21.9448,20H13a1,1,0,0,1-1-1Z"/><path d="M28,14H18a1,1,0,0,1-1-1V3a1,1,0,0,1,1-1A11.0124,11.0124,0,0,1,29,13,1,1,0,0,1,28,14Zm-9-2h7.9448A9.018,9.018,0,0,0,19,4.0552Z"/></g><g id="Transparent_Rectangle" data-name="Transparent Rectangle"><rect class="cls-1" width="32" height="32"/></g></svg>