<?xml version="1.0" encoding="utf-8"?>
<!-- Generator: Adobe Illustrator 22.1.0, SVG Export Plug-In . SVG Version: 6.00 Build 0)  -->
<svg version="1.1" xmlns="http://www.w3.org/2000/svg" xmlns:xlink="http://www.w3.org/1999/xlink" x="0px" y="0px"
	 viewBox="0 0 32 32" style="enable-background:new 0 0 32 32;" xml:space="preserve">
<style type="text/css">
	.st0{display:none;}
	.st1{display:inline;opacity:0.1;}
	.st2{fill:#0F6DFF;}
	.st3{display:inline;}
	.st4{fill:#EAEAEA;}
	.st5{fill:none;}
	.st6{fill:none;stroke:#000000;stroke-width:2;stroke-linejoin:round;}
	.st7{fill:#FFFFFF;}
	.st8{fill:#231F20;}
	.st9{fill:#181616;}
	.st10{fill:none;stroke:#231F20;stroke-width:2;stroke-miterlimit:10;}
	.st11{fill:none;stroke:#000000;stroke-miterlimit:10;}
	.st12{fill:#E900C9;}
</style>
<g id="icon_placement" class="st0">
</g>
<g id="padding" class="st0">
	<g class="st3">
		<path class="st4" d="M0,0v32h32V0H0z M30,30H2V2h28V30z"/>
	</g>
</g>
<g id="grid" class="st0">
</g>
<g id="icon">
	<path d="M26,24v4H6v-4H4v4l0,0c0,1.1,0.9,2,2,2h20c1.1,0,2-0.9,2-2l0,0v-4H26z"/>
	<polygon points="6,12 7.4,13.4 15,5.8 15,25 17,25 17,5.8 24.6,13.4 26,12 16,2 	"/>
	<rect class="st5" width="32" height="32"/>
</g>
</svg>
