<svg id="Layer_1" data-name="Layer 1" xmlns="http://www.w3.org/2000/svg" viewBox="0 0 32 32"><defs><style>.cls-1{fill:none;}</style></defs><title>facebook</title><g id="Transparent_Rectangle" data-name="Transparent Rectangle"><rect class="cls-1" width="32" height="32"/></g><g id="_Group_" data-name="&lt;Group&gt;"><path id="_Path_" data-name="&lt;Path&gt;" d="M26.7,4H5.3A1.32,1.32,0,0,0,4,5.3V26.7A1.32,1.32,0,0,0,5.3,28H16.8V18.7H13.7V15.1h3.1V12.4c0-3.1,1.9-4.8,4.7-4.8,1.3,0,2.5.1,2.8.1V11H22.4c-1.5,0-1.8.7-1.8,1.8v2.3h3.6l-.5,3.6H20.6V28h6.1A1.32,1.32,0,0,0,28,26.7V5.3A1.32,1.32,0,0,0,26.7,4Z"/></g></svg>