<?xml version="1.0" encoding="utf-8"?>
<!-- Generator: Adobe Illustrator 21.0.0, SVG Export Plug-In . SVG Version: 6.00 Build 0)  -->
<svg version="1.1" id="Layer_1" xmlns="http://www.w3.org/2000/svg" xmlns:xlink="http://www.w3.org/1999/xlink" x="0px" y="0px"
	 viewBox="0 0 32 32" style="enable-background:new 0 0 32 32;" xml:space="preserve">
<style type="text/css">
	.st0{fill:none;}
</style>
<title>sentiment-satisfiedsvg</title>
<path d="M16,2C8.3,2,2,8.3,2,16s6.3,14,14,14s14-6.3,14-14S23.7,2,16,2z M16,28C9.4,28,4,22.6,4,16S9.4,4,16,4s12,5.4,12,12
	S22.6,28,16,28z"/>
<path d="M11.5,11C10.1,11,9,12.1,9,13.5s1.1,2.5,2.5,2.5s2.5-1.1,2.5-2.5S12.9,11,11.5,11z"/>
<path d="M20.5,11c-1.4,0-2.5,1.1-2.5,2.5s1.1,2.5,2.5,2.5s2.5-1.1,2.5-2.5S21.9,11,20.5,11z"/>
<rect class="st0" width="32" height="32"/>
<path d="M16,24c2.9,0,5.5-1.6,6.9-3.9l-1.7-1c-1.1,1.7-3,2.9-5.1,2.9s-4.1-1.2-5.1-2.9l-1.7,1C10.5,22.4,13.1,24,16,24z"/>
</svg>
