<?xml version="1.0" encoding="utf-8"?>
<!-- Generator: Adobe Illustrator 21.0.0, SVG Export Plug-In . SVG Version: 6.00 Build 0)  -->
<svg version="1.1" id="Layer_1" xmlns="http://www.w3.org/2000/svg" xmlns:xlink="http://www.w3.org/1999/xlink" x="0px" y="0px"
	 viewBox="0 0 32 32" style="enable-background:new 0 0 32 32;" xml:space="preserve">
<style type="text/css">
	.st0{fill:none;}
</style>
<title>sentiment-alt1</title>
<path d="M16,2C8.3,2,2,8.3,2,16s6.3,14,14,14s14-6.3,14-14S23.7,2,16,2z M16,28C9.4,28,4,22.6,4,16S9.4,4,16,4s12,5.4,12,12
	S22.6,28,16,28z"/>
<rect class="st0" width="32" height="32"/>
<polygon points="24.4,11 23,9.6 21,11.6 19,9.6 17.6,11 19.6,13 17.6,15 19,16.4 21,14.4 23,16.4 24.4,15 22.4,13 "/>
<polygon points="14.4,11 13,9.6 11,11.6 9,9.6 7.6,11 9.6,13 7.6,15 9,16.4 11,14.4 13,16.4 14.4,15 12.4,13 "/>
<g>
	<path d="M16,19c-1.7,0-3,1.3-3,3s1.3,3,3,3s3-1.3,3-3S17.7,19,16,19L16,19z"/>
</g>
</svg>
