<svg id="Layer_1" data-name="Layer 1" xmlns="http://www.w3.org/2000/svg" viewBox="0 0 32 32"><defs><style>.cls-1{fill:none;}</style></defs><title>fade</title><g id="Transparent_Rectangle" data-name="Transparent Rectangle"><rect class="cls-1" width="32" height="32"/></g><path d="M8.24,25.14,7,26.67a14,14,0,0,0,4.18,2.44l.68-1.88A12,12,0,0,1,8.24,25.14Z" transform="translate(0)"/><path d="M4.19,18.07l-2,.35A13.89,13.89,0,0,0,3.86,23l1.73-1A11.9,11.9,0,0,1,4.19,18.07Z" transform="translate(0)"/><path d="M11.82,4.76l-.68-1.88A14,14,0,0,0,7,5.33L8.24,6.86A12,12,0,0,1,11.82,4.76Z" transform="translate(0)"/><path d="M5.59,10,3.86,9a13.89,13.89,0,0,0-1.64,4.54l2,.35A11.9,11.9,0,0,1,5.59,10Z" transform="translate(0)"/><path d="M16,2V4a12,12,0,0,1,0,24v2A14,14,0,0,0,16,2Z" transform="translate(0)"/></svg>