<svg xmlns="http://www.w3.org/2000/svg" viewBox="0 0 32 32"><defs><style>.cls-1{fill:none;}</style></defs><title>icons</title><g id="Icon"><path d="M10.4766,6a1.0033,1.0033,0,0,1,.8074.41l2.0243,2.77.5992.82H27.8462A.1719.1719,0,0,1,28,10.1818V25.8182A.1719.1719,0,0,1,27.8462,26H4.1538A.1719.1719,0,0,1,4,25.8182V6.1818A.1719.1719,0,0,1,4.1538,6h6.3228m0-2H4.1538A2.168,2.168,0,0,0,2,6.1818V25.8182A2.168,2.168,0,0,0,4.1538,28H27.8462A2.168,2.168,0,0,0,30,25.8182V10.1818A2.168,2.168,0,0,0,27.8462,8H14.9231L12.8988,5.23A3,3,0,0,0,10.4766,4Z"/></g><g id="Transparent_Rectangle" data-name="Transparent Rectangle"><rect class="cls-1" width="32" height="32"/></g></svg>