<svg xmlns="http://www.w3.org/2000/svg" viewBox="0 0 32 32"><defs><style>.cls-1{fill:none;}</style></defs><title>icons</title><g id="Icon"><path d="M2,12v8a3.0033,3.0033,0,0,0,3,3h5V15H6v2H8v4H5a1.0007,1.0007,0,0,1-1-1V12a1.0007,1.0007,0,0,1,1-1h5V9H5A3.0033,3.0033,0,0,0,2,12Z"/><polygon points="30 11 30 9 22 9 22 23 24 23 24 17 29 17 29 15 24 15 24 11 30 11"/><polygon points="12 9 12 11 15 11 15 21 12 21 12 23 20 23 20 21 17 21 17 11 20 11 20 9 12 9"/></g><g id="Transparent_Rectangle" data-name="Transparent Rectangle"><rect class="cls-1" width="32" height="32"/></g></svg>