<svg id="Layer_1" data-name="Layer 1" xmlns="http://www.w3.org/2000/svg" viewBox="0 0 32 32"><defs><style>.cls-1{fill:none;}.cls-2{fill:#181616;}</style></defs><title>github</title><rect class="cls-1" width="32" height="32"/><path id="_Path_" data-name="&lt;Path&gt;" class="cls-2" d="M16,2.34a14,14,0,0,0-4.4,27.3c.7.1,1-.3,1-.7v-2.4c-3.9.8-4.7-1.9-4.7-1.9a3.34,3.34,0,0,0-1.6-2c-1.3-.9.1-.9.1-.9a2.83,2.83,0,0,1,2.1,1.4,3.12,3.12,0,0,0,4.1,1.2,3.09,3.09,0,0,1,.9-1.9c-3.1-.4-6.4-1.6-6.4-6.9a5.56,5.56,0,0,1,1.4-3.8A5.62,5.62,0,0,1,8.6,8s1.2-.4,3.8,1.4a13.45,13.45,0,0,1,3.5-.5,13.45,13.45,0,0,1,3.5.5C22.1,7.64,23.2,8,23.2,8a4.48,4.48,0,0,1,.1,3.7,5.38,5.38,0,0,1,1.4,3.8c0,5.4-3.3,6.6-6.4,6.9a3.33,3.33,0,0,1,1,2.6v3.8c0,.4.3.8,1,.7A13.68,13.68,0,0,0,30,16.34,14,14,0,0,0,16,2.34Z"/></svg>