<svg id="Layer_1" data-name="Layer 1" xmlns="http://www.w3.org/2000/svg" viewBox="0 0 32 32"><defs><style>.cls-1{fill:none;}</style></defs><title>googleplus</title><rect class="cls-1" width="32" height="32"/><g id="Transparent_Rectangle" data-name="Transparent Rectangle"><rect class="cls-1" width="32" height="32"/></g><g id="_Group_" data-name="&lt;Group&gt;"><g id="_Group_2" data-name="&lt;Group&gt;"><path id="_Path_" data-name="&lt;Path&gt;" d="M0,15.44a10.11,10.11,0,0,1,10.2-9.63A10.28,10.28,0,0,1,17,8.34,28.61,28.61,0,0,1,14.35,11c-2.29-1.6-5.62-2.06-7.91-.23a6.53,6.53,0,0,0-.23,10.2c3.09,2.86,8.94,1.38,9.86-2.86-1.95,0-3.9,0-5.84-.11V14.53H20a11.35,11.35,0,0,1-1.83,7.91C15.61,26,10.46,27,6.56,25.53A10.41,10.41,0,0,1,0,15.44Z"/><path id="_Path_2" data-name="&lt;Path&gt;" d="M26.27,11.55h2.86v2.86H32v2.86H29.14v2.86H26.27V17.28H23.41V14.41h2.86Z"/></g></g></svg>