<?xml version="1.0" encoding="utf-8"?>
<!-- Generator: Adobe Illustrator 22.0.1, SVG Export Plug-In . SVG Version: 6.00 Build 0)  -->
<svg version="1.1" xmlns="http://www.w3.org/2000/svg" xmlns:xlink="http://www.w3.org/1999/xlink" x="0px" y="0px"
	 viewBox="0 0 32 32" style="enable-background:new 0 0 32 32;" xml:space="preserve">
<style type="text/css">
	.st0{display:none;}
	.st1{display:inline;}
	.st2{fill:#EAEAEA;}
	.st3{fill:none;}
</style>
<g id="Padding" class="st0">
	<g class="st1">
		<path class="st2" d="M0,0v32h32V0H0z M30,30H2V2h28V30z"/>
	</g>
</g>
<g id="Icon">
	<path d="M17,23h-5V9h5c1.7,0,3,1.3,3,3v8C20,21.7,18.7,23,17,23z M14,21h3c0.6,0,1-0.4,1-1v-8c0-0.6-0.4-1-1-1h-3V21z"/>
	<path d="M30,23l-2.5-6H28c1.1,0,2-0.9,2-2v-4c0-1.1-0.9-2-2-2h-6v14h2v-6h1.5l2.5,6H30z M24,11h4v4h-4V11z"/>
	<polygon points="8,9 8,15 4,15 4,9 2,9 2,23 4,23 4,17 8,17 8,23 10,23 10,9 	"/>
</g>
<g id="Grid">
</g>
<g id="Transparent_Rectangle">
	<rect class="st3" width="32" height="32"/>
</g>
</svg>
