<?xml version="1.0" encoding="utf-8"?>
<!-- Generator: Adobe Illustrator 22.0.1, SVG Export Plug-In . SVG Version: 6.00 Build 0)  -->
<svg version="1.1" id="Layer_1" xmlns="http://www.w3.org/2000/svg" xmlns:xlink="http://www.w3.org/1999/xlink" x="0px" y="0px"
	 viewBox="0 0 32 32" style="enable-background:new 0 0 32 32;" xml:space="preserve">
<style type="text/css">
	.st0{display:none;}
	.st1{display:inline;}
	.st2{fill:#EAEAEA;}
	.st3{fill:#231F20;}
	.st4{fill:none;}
</style>
<g id="Padding" class="st0">
	<g class="st1">
		<path class="st2" d="M0,0v32h32V0H0z M30,30H2V2h28V30z"/>
	</g>
</g>
<g>
	<path class="st3" d="M6,17c0,1.7,1.3,3,3,3s3-1.3,3-3s-1.3-3-3-3S6,15.3,6,17z M10,17c0,0.6-0.4,1-1,1s-1-0.4-1-1s0.4-1,1-1
		S10,16.4,10,17z"/>
	<path class="st3" d="M25,14h-9c-1.2,0-2,0.8-2,2v6H4V10.6l12-6.5l12.5,6.7l0.9-1.8l-13-7c-0.3-0.2-0.7-0.2-0.9,0l-13,7
		C2.2,9.3,2,9.6,2,10v20h2v-6h24v6h2v-7v-4C30,16.2,27.8,14,25,14z M16,22v-6h9c1.7,0,3,1.3,3,3v3H16z"/>
</g>
<g id="Grid">
</g>
<g id="Transparent_Rectangle">
	<rect class="st4" width="32" height="32"/>
</g>
</svg>
