<svg xmlns="http://www.w3.org/2000/svg" viewBox="0 0 32 32"><defs><style>.cls-1{fill:none;}</style></defs><title>iconsmore</title><g id="Icon"><rect x="11" y="24" width="10" height="2"/><rect x="13" y="28" width="6" height="2"/><path d="M16.0088,2A10.0167,10.0167,0,0,0,6.0176,12.0191H6a9.1374,9.1374,0,0,0,3.4595,7.5973C10.4717,20.5507,11,21.0814,11,22h2c0-1.84-1.1108-2.8664-2.1855-3.8594A7.1455,7.1455,0,0,1,8,12.0191h.0176a7.9912,7.9912,0,1,1,15.9824,0h-.0176a7.1571,7.1571,0,0,1-2.8047,6.1235C20.1069,19.1346,19,20.1609,19,22h2c0-.92.5264-1.45,1.5352-2.3855a9.1465,9.1465,0,0,0,3.4473-7.5954H26A10.0167,10.0167,0,0,0,16.0088,2Z"/></g><g id="Transparent_Rectangle" data-name="Transparent Rectangle"><rect class="cls-1" width="32" height="32"/></g></svg>