<svg xmlns="http://www.w3.org/2000/svg" viewBox="0 0 32 32"><defs><style>.cls-1{fill:none;}</style></defs><title>icons</title><g id="Icon"><path d="M19,14a3,3,0,1,1,3-3A3.0036,3.0036,0,0,1,19,14Zm0-4.0254A1.0254,1.0254,0,1,0,20.0254,11,1.0262,1.0262,0,0,0,19,9.9746Z"/><path d="M26.1543,4H5.8457A1.848,1.848,0,0,0,4,5.8457V26.1543A1.848,1.848,0,0,0,5.8457,28H26.1543A1.848,1.848,0,0,0,28,26.1543V5.8457A1.848,1.848,0,0,0,26.1543,4ZM26,6V21.33l-3.7423-3.7421a2,2,0,0,0-2.8284,0l-1.4645,1.4645-5.4664-5.4669a2,2,0,0,0-2.8284,0L6,17.2557V6ZM6,26V20.0831L11.0822,15l.0019,0h0L16.55,20.4662a2,2,0,0,0,2.8286,0l1.4631-1.4634h.0021L26,24.1586V26Z"/></g><g id="Transparent_Rectangle" data-name="Transparent Rectangle"><rect class="cls-1" width="32" height="32"/></g></svg>