<svg id="Layer_1" data-name="Layer 1" xmlns="http://www.w3.org/2000/svg" viewBox="0 0 32 32"><defs><style>.cls-1{fill:none;}</style></defs><title>livestream</title><rect class="cls-1" width="32" height="32"/><g id="Transparent_Rectangle" data-name="Transparent Rectangle"><rect class="cls-1" width="32" height="32"/></g><g id="Transparent_Rectangle-2" data-name="Transparent Rectangle"><rect class="cls-1" width="32" height="32"/></g><g id="Transparent_Rectangle-3" data-name="Transparent Rectangle"><rect class="cls-1" width="32" height="32"/></g><g id="_Group_" data-name="&lt;Group&gt;"><g id="_Group_2" data-name="&lt;Group&gt;"><path id="_Path_" data-name="&lt;Path&gt;" d="M30.84,24.21c-.53,0-1.07,0-1.39-.43a2.68,2.68,0,0,1-.21-1.6V18.88a46,46,0,0,0-.43-6.62,8.51,8.51,0,0,0-.32-1.6A3.73,3.73,0,0,0,28,9.26c-.32-.43-.75-.32-1.17-.32H24.22c.53,0,.75.64.85,1.07a3.77,3.77,0,0,1,.32,1.5,16.3,16.3,0,0,1,.32,3.2c.11,2.24.21,4.38.21,6.62a11.53,11.53,0,0,0,.21,3.31,4.19,4.19,0,0,0,.85,1.5,2.81,2.81,0,0,0,1.6.75,5.8,5.8,0,0,0,2.35,0V24.11A.1.1,0,0,1,30.84,24.21Z" transform="translate(0 0)"/><path id="_Path_2" data-name="&lt;Path&gt;" d="M23.15,24.11c-.32-.11-.43-.64-.53-.85a6.12,6.12,0,0,1-.43-1.5c-.21-1-.53-2-.75-3a60.73,60.73,0,0,0-1.71-6.3C19,10.44,17.92,8.2,16,7A13.88,13.88,0,0,0,9.49,5.21C7.14,5,4.89,5,2.54,5H1A5.86,5.86,0,0,1,3.4,6.91,22.73,22.73,0,0,1,5.11,9.58a57.23,57.23,0,0,1,2.78,5.77,59,59,0,0,0,3,5.77,10.87,10.87,0,0,0,1.92,2.46,2.55,2.55,0,0,0,1.17.64,3,3,0,0,0,1,.11c2.78-.21,5.55-.21,8.22-.21Z" transform="translate(0 0)"/></g></g></svg>