<svg xmlns="http://www.w3.org/2000/svg" viewBox="0 0 32 32"><defs><style>.cls-1{fill:#231f20;}.cls-2{fill:none;}</style></defs><title>iconsmore</title><g id="Icon"><path d="M16,10.0006a3,3,0,1,1-3,3,3,3,0,0,1,3-3m0-2a5,5,0,1,0,5,5A5,5,0,0,0,16,8.0007Z"/><path class="cls-1" d="M16,4.0008a8.87,8.87,0,0,1,9,8.714,8.4869,8.4869,0,0,1-1.7859,5.21l-.0335.0436-.0311.0454L16,28.4591,8.85,18.0136l-.0311-.0454-.0335-.0436A8.4869,8.4869,0,0,1,7,12.7149a8.87,8.87,0,0,1,9-8.714m0-2A10.8638,10.8638,0,0,0,5,12.7149a10.5235,10.5235,0,0,0,2.2,6.4284L16,32l8.8-12.8567A10.5235,10.5235,0,0,0,27,12.7149,10.8638,10.8638,0,0,0,16,2.0009Z"/></g><g id="Transparent_Rectangle" data-name="Transparent Rectangle"><rect class="cls-2" width="32" height="32" transform="translate(0 32) rotate(-90)"/><rect class="cls-2" width="32" height="32"/></g></svg>