<svg id="icon" xmlns="http://www.w3.org/2000/svg" viewBox="0 0 32 32"><defs><style>.cls-1{fill:none;}</style></defs><title>logo--skype</title><path d="M27,17.74A11.12,11.12,0,0,0,14.26,5,6.73,6.73,0,0,0,5,14.26,11.17,11.17,0,0,0,17.74,27,6.73,6.73,0,0,0,27,17.74Zm-5.71,3.32a4.57,4.57,0,0,1-2.07,1.59,8.22,8.22,0,0,1-3.21.57,7.63,7.63,0,0,1-3.68-.78,4.82,4.82,0,0,1-1.67-1.5A3.3,3.3,0,0,1,10,19.09a1.24,1.24,0,0,1,.4-.91,1.42,1.42,0,0,1,1-.38,1.24,1.24,0,0,1,.84.3,2.28,2.28,0,0,1,.58.86,6.16,6.16,0,0,0,.61,1.1,2.43,2.43,0,0,0,.92.72,3.75,3.75,0,0,0,1.56.28,3.73,3.73,0,0,0,2.16-.57,1.68,1.68,0,0,0,.82-1.42A1.42,1.42,0,0,0,18.47,18a3,3,0,0,0-1.15-.65q-.72-.22-1.92-.48A15,15,0,0,1,12.69,16a4.57,4.57,0,0,1-1.75-1.29,3.24,3.24,0,0,1-.64-2.05A3.29,3.29,0,0,1,11,10.64a4.28,4.28,0,0,1,2-1.38,8.43,8.43,0,0,1,3-.49,8.16,8.16,0,0,1,2.4.32,5.51,5.51,0,0,1,1.68.85,3.57,3.57,0,0,1,1,1.12,2.44,2.44,0,0,1,.32,1.15,1.34,1.34,0,0,1-.4.94,1.31,1.31,0,0,1-1,.42,1.18,1.18,0,0,1-.83-.26,3.23,3.23,0,0,1-.59-.8,3.52,3.52,0,0,0-1-1.21,3,3,0,0,0-1.81-.43,3.33,3.33,0,0,0-1.86.47,1.33,1.33,0,0,0-.7,1.11,1.05,1.05,0,0,0,.24.69,1.9,1.9,0,0,0,.65.5A4.39,4.39,0,0,0,15,14l1.45.36a23.41,23.41,0,0,1,2.29.61,7,7,0,0,1,1.76.81A3.38,3.38,0,0,1,21.59,17a3.68,3.68,0,0,1,.41,1.8A3.91,3.91,0,0,1,21.29,21.06Z"/><rect id="_Transparent_Rectangle_" data-name="&lt;Transparent Rectangle&gt;" class="cls-1" width="32" height="32"/></svg>