<svg xmlns="http://www.w3.org/2000/svg" viewBox="0 0 32 32"><defs><style>.cls-1{fill:none;}</style></defs><title>iconsmore</title><g id="Icon"><path d="M24,2H8A2.0059,2.0059,0,0,0,6,4V28a2.0059,2.0059,0,0,0,2,2H24a2.0059,2.0059,0,0,0,2-2V4A2.0059,2.0059,0,0,0,24,2Zm0,2V6H8V4Zm0,4V24H8V8ZM8,28V26H24v2Z"/><polygon points="21 15 17 15 17 11 15 11 15 15 11 15 11 17 15 17 15 21 17 21 17 17 21 17 21 15"/></g><g id="Transparent_Rectangle" data-name="Transparent Rectangle"><rect class="cls-1" width="32" height="32"/></g></svg>