<?xml version="1.0" encoding="utf-8"?>
<!-- Generator: Adobe Illustrator 21.0.0, SVG Export Plug-In . SVG Version: 6.00 Build 0)  -->
<svg version="1.1" id="Layer_1" xmlns="http://www.w3.org/2000/svg" xmlns:xlink="http://www.w3.org/1999/xlink" x="0px" y="0px"
	 viewBox="0 0 32 32" style="enable-background:new 0 0 32 32;" xml:space="preserve">
<style type="text/css">
	.st0{fill:none;}
</style>
<title>move</title>
<polygon points="25,11 23.6,12.4 26.2,15 17,15 17,5.8 19.6,8.4 21,7 16,2 11,7 12.4,8.4 15,5.8 15,15 5.8,15 8.4,12.4 7,11 2,16 
	7,21 8.4,19.6 5.8,17 15,17 15,26.2 12.4,23.6 11,25 16,30 21,25 19.6,23.6 17,26.2 17,17 26.2,17 23.6,19.6 25,21 30,16 "/>
<rect class="st0" width="32" height="32"/>
</svg>
