<svg xmlns="http://www.w3.org/2000/svg" viewBox="0 0 32 32"><defs><style>.cls-1{fill:none;}</style></defs><title></title><g id="Icon"><path d="M7.71,18.71A1,1,0,0,0,8,18V13A8,8,0,0,1,20.44,6.35l1.11-1.66A9.92,9.92,0,0,0,17,3.07V1H15V3.05A10,10,0,0,0,6,13v4.59L3.29,20.29l1.41,1.41Z"/><path d="M26,17.59V13a10,10,0,0,0-1.09-4.5L30,3.41,28.59,2,2,28.59,3.41,30l5-5H11a5,5,0,0,0,10,0h7a1,1,0,0,0,1-1V21a1,1,0,0,0-.29-.71ZM16,28a3,3,0,0,1-3-3h6A3,3,0,0,1,16,28Zm11-5H10.41l13-13a8,8,0,0,1,.6,3v5a1,1,0,0,0,.29.71L27,21.41Z"/></g><g id="Transparent_Rectangle" data-name="Transparent Rectangle"><rect class="cls-1" width="32" height="32"/></g></svg>