<svg xmlns="http://www.w3.org/2000/svg" viewBox="0 0 32 32"><defs><style>.cls-1{fill:none;}</style></defs><title>icons</title><g id="Icon"><polygon points="30 11 30 9 22 9 22 23 24 23 24 17 29 17 29 15 24 15 24 11 30 11"/><path d="M8,9H2V23H4V18H8a2.0026,2.0026,0,0,0,2-2V11A2.0026,2.0026,0,0,0,8,9Zm0,7H4V11H8Z"/><path d="M17,9H12V23h5a3.0033,3.0033,0,0,0,3-3V12A3.0033,3.0033,0,0,0,17,9Zm1,11a1.0007,1.0007,0,0,1-1,1H14V11h3a1.0007,1.0007,0,0,1,1,1Z"/></g><g id="Transparent_Rectangle" data-name="Transparent Rectangle"><rect class="cls-1" width="32" height="32"/></g></svg>