<svg id="Layer_1" data-name="Layer 1" xmlns="http://www.w3.org/2000/svg" viewBox="0 0 32 32"><defs><style>.cls-1{fill:none;}</style></defs><title>phone--off</title><g id="Transparent_Rectangle" data-name="Transparent Rectangle"><rect class="cls-1" width="32" height="32"/></g><rect x="-2.8" y="15" width="37.6" height="2" transform="translate(-6.63 16) rotate(-45)"/><path d="M27.74,18.86,24,17.35a2,2,0,0,0-2.16.44l-2.17,2.15a9.41,9.41,0,0,1-2.53-.8l-1.48,1.48A11.3,11.3,0,0,0,19.88,22l.48.06,2.87-2.85L27,20.72V26a1,1,0,0,1-1.06,1,22.83,22.83,0,0,1-12.56-4.12L12,24.28c3.28,2.52,7.75,4.36,13.85,4.71H26a3,3,0,0,0,3-3V20.72A2,2,0,0,0,27.74,18.86Z"/><path d="M5,6.08A1,1,0,0,1,6,5h5.28l1.5,3.77L9.95,11.64l.06.48a13.38,13.38,0,0,0,1.46,4.16l1.46-1.46a11.23,11.23,0,0,1-.85-2.49l2.13-2.15A2,2,0,0,0,14.65,8L13.14,4.26A2,2,0,0,0,11.28,3H6A3,3,0,0,0,3,6.23,27.84,27.84,0,0,0,7.79,20l1.4-1.4A25.56,25.56,0,0,1,5,6.08Z"/></svg>