<?xml version="1.0" encoding="utf-8"?>
<!-- Generator: Adobe Illustrator 22.0.1, SVG Export Plug-In . SVG Version: 6.00 Build 0)  -->
<svg version="1.1" xmlns="http://www.w3.org/2000/svg" xmlns:xlink="http://www.w3.org/1999/xlink" x="0px" y="0px"
	 viewBox="0 0 32 32" style="enable-background:new 0 0 32 32;" xml:space="preserve">
<style type="text/css">
	.st0{display:none;}
	.st1{display:inline;}
	.st2{fill:#EAEAEA;}
	.st3{fill:none;}
	.st4{fill:none;stroke:#000000;stroke-width:2;stroke-miterlimit:10;}
</style>
<g id="Padding" class="st0">
	<g class="st1">
		<path class="st2" d="M0,0v32h32V0H0z M30,30H2V2h28V30z"/>
	</g>
</g>
<g id="Icon">
	<path d="M28.6,13.3l1.4-1.4L20.1,2l-1.4,1.4l1.2,1.2L8.4,14.3l-1.7-1.7L5.2,14l5.7,5.7L2,28.6L3.4,30l8.9-8.9l5.7,5.7l1.4-1.4
		l-1.7-1.7l9.7-11.5L28.6,13.3z M16.3,22.2l-6.5-6.5L21.3,6l4.7,4.7L16.3,22.2z"/>
</g>
<g id="Grid">
</g>
<g id="Transparent_Rectangle">
	<rect class="st3" width="32" height="32"/>
</g>
</svg>
