<svg id="Layer_1" data-name="Layer 1" xmlns="http://www.w3.org/2000/svg" viewBox="0 0 32 32"><defs><style>.cls-1{fill:none;}</style></defs><title>pinterest</title><g id="Transparent_Rectangle" data-name="Transparent Rectangle"><rect class="cls-1" width="32" height="32"/></g><g id="Layer_1-2" data-name="Layer 1"><g id="_Group_" data-name="&lt;Group&gt;"><path id="_Path_" data-name="&lt;Path&gt;" d="M14.1,21.3a4.82,4.82,0,0,0,4.1,2c5.3,0,9.2-4.9,9.2-11,0-5.9-4.8-10.2-11-10.2C8.7,2,4.7,7.1,4.7,12.7c0,2.6,1.4,5.8,3.6,6.9.4.2.5.1.6-.2s.4-1.5.5-2a.75.75,0,0,0-.1-.5A6.48,6.48,0,0,1,8,12.8a7.71,7.71,0,0,1,8-7.7c4.4,0,7.4,3,7.4,7.2,0,4.8-2.4,8.1-5.6,8.1a2.6,2.6,0,0,1-2.6-3.2c.5-2.1,1.5-4.4,1.5-5.9a2.26,2.26,0,0,0-2.3-2.5c-1.8,0-3.2,1.9-3.2,4.3a6.29,6.29,0,0,0,.5,2.6s-1.8,7.4-2.1,8.8a16.17,16.17,0,0,0-.1,4.9c.4.2.9.3,1.3.5a20.68,20.68,0,0,0,2.1-4.5C13.2,24.6,14.1,21.3,14.1,21.3Z"/></g></g></svg>