<?xml version="1.0" encoding="utf-8"?>
<!-- Generator: Adobe Illustrator 22.0.1, SVG Export Plug-In . SVG Version: 6.00 Build 0)  -->
<svg version="1.1" xmlns="http://www.w3.org/2000/svg" xmlns:xlink="http://www.w3.org/1999/xlink" x="0px" y="0px"
	 viewBox="0 0 32 32" style="enable-background:new 0 0 32 32;" xml:space="preserve">
<style type="text/css">
	.st0{display:none;}
	.st1{display:inline;}
	.st2{fill:#EAEAEA;}
	.st3{fill:none;}
	.st4{fill:none;stroke:#000000;stroke-width:2;stroke-linejoin:round;stroke-miterlimit:10;}
</style>
<g id="Padding" class="st0">
	<g class="st1">
		<path class="st2" d="M0,0v32h32V0H0z M30,30H2V2h28V30z"/>
	</g>
</g>
<g id="Icon">
	<g>
		<path d="M16,4c0.1,0,0.1,0,0.2,0c1,0.1,1.8,1,1.8,2.2l0,3.8v1.2l1.1,0.6l8.9,4.5v2.9l-7.2-3L18,15v3v5v1.2l1.1,0.6l2.9,1.4v1.4
			l-5.4-1.6L16,25.9l-0.6,0.2L10,27.7v-1.4l2.9-1.4l1.1-0.6V23v-5v-3l-2.8,1.1l-7.2,3v-2.9l8.9-4.5l1.1-0.6V10V6
			c0-0.5,0.2-1,0.6-1.4C15,4.2,15.5,4,16,4L16,4 M16,2c-2.2,0-4,1.8-4,4v4l-9.4,4.7C2.2,14.9,2,15.3,2,15.7v5c0,0.6,0.5,1,1,1
			c0.1,0,0.2,0,0.3,0L12,18v5l-3.4,1.7C8.2,24.9,8,25.2,8,25.6V29c0,0.6,0.5,1,1,1c0.1,0,0.2,0,0.3,0l6.7-2l6.7,2c0.1,0,0.2,0,0.3,0
			c0.5,0,1-0.4,1-1v-3.4c0-0.4-0.2-0.7-0.6-0.9L20,23v-5l8.7,3.6c0.1,0,0.2,0,0.3,0c0.5,0,1-0.4,1-1v-5c0-0.4-0.2-0.8-0.6-0.9L20,10
			l0-3.8c0-2.1-1.5-4-3.6-4.2C16.3,2,16.1,2,16,2L16,2z"/>
	</g>
</g>
<g id="Grid">
</g>
<g id="Transparent_Rectangle">
	<rect class="st3" width="32" height="32"/>
</g>
</svg>
