<svg xmlns="http://www.w3.org/2000/svg" viewBox="0 0 32 32"><defs><style>.cls-1{fill:none;}</style></defs><title></title><g id="Icon"><path d="M16,4A12,12,0,1,1,4,16,12.0136,12.0136,0,0,1,16,4m0-2A14,14,0,1,0,30,16,14,14,0,0,0,16,2Z"/><path d="M12.5,22.6592a1.5042,1.5042,0,0,1-1.5-1.501V10.8418a1.5,1.5,0,0,1,2.2183-1.3164h0l9.4561,5.1582a1.5,1.5,0,0,1,0,2.6328l-9.4561,5.1582A1.5029,1.5029,0,0,1,12.5,22.6592ZM13,11.6846v8.6309L20.9111,16Zm-.74-.4033.0024.001Z"/></g><g id="Transparent_Rectangle" data-name="Transparent Rectangle"><rect class="cls-1" width="32" height="32"/></g></svg>