<?xml version="1.0" encoding="utf-8"?>
<!-- Generator: Adobe Illustrator 21.0.0, SVG Export Plug-In . SVG Version: 6.00 Build 0)  -->
<svg version="1.1" id="Layer_1" xmlns="http://www.w3.org/2000/svg" xmlns:xlink="http://www.w3.org/1999/xlink" x="0px" y="0px"
	 viewBox="0 0 32 32" style="enable-background:new 0 0 32 32;" xml:space="preserve">
<style type="text/css">
	.st0{fill:none;}
</style>
<title>iconsmore</title>
<g id="Icon">
	<g>
		<path d="M28,4H10C8.9,4,8,4.9,8,6v14c0,1.1,0.9,2,2,2h18c1.1,0,2-0.9,2-2V6C30,4.9,29.1,4,28,4z M28,20H10V6h18V20z"/>
		<path d="M16,26H4V16h2v-2H4c-1.1,0-2,0.9-2,2v10c0,1.1,0.9,2,2,2h12c1.1,0,2-0.9,2-2v-2h-2V26z"/>
	</g>
</g>
<g id="Transparent_Rectangle">
	<rect class="st0" width="32" height="32"/>
</g>
</svg>
