<svg id="Layer_1" data-name="Layer 1" xmlns="http://www.w3.org/2000/svg" viewBox="0 0 32 32"><defs><style>.cls-1{fill:none;}</style></defs><title>presentation--file</title><path d="M25.1,4H17V2H15V4H6.9A1.74,1.74,0,0,0,5,5.57V20.43A1.74,1.74,0,0,0,6.9,22H15v6H11v2H21V28H17V22h8.1A1.74,1.74,0,0,0,27,20.43V5.57A1.74,1.74,0,0,0,25.1,4ZM25,20H7V6H25Z"/><rect x="15" y="10" width="2" height="8"/><rect x="20" y="14" width="2" height="4"/><rect x="10" y="12" width="2" height="6"/><rect class="cls-1" width="32" height="32"/></svg>