<?xml version="1.0" encoding="utf-8"?>
<!-- Generator: Adobe Illustrator 21.0.0, SVG Export Plug-In . SVG Version: 6.00 Build 0)  -->
<svg version="1.1" id="Layer_1" xmlns="http://www.w3.org/2000/svg" xmlns:xlink="http://www.w3.org/1999/xlink" x="0px" y="0px"
	 viewBox="0 0 32 32" style="enable-background:new 0 0 32 32;" xml:space="preserve">
<style type="text/css">
	.st0{fill:none;}
</style>
<title>iconsmore</title>
<g id="Icon">
	<g id="Icon-2">
		<path d="M28,9h-3V3H7v6H4c-1.1,0-2,0.9-2,2v10c0,1.1,0.9,2,2,2h3v6h18v-6h3c1.1,0,2-0.9,2-2V11C30,9.9,29.1,9,28,9z M9,5h14v4H9V5
			z M23,27H9V17h14V27z M28,21h-3v-6H7v6H4V11h24V21z"/>
	</g>
</g>
<g id="Transparent_Rectangle">
	<rect class="st0" width="32" height="32"/>
</g>
</svg>
