<?xml version="1.0" encoding="utf-8"?>
<!-- Generator: Adobe Illustrator 22.0.1, SVG Export Plug-In . SVG Version: 6.00 Build 0)  -->
<svg version="1.1" xmlns="http://www.w3.org/2000/svg" xmlns:xlink="http://www.w3.org/1999/xlink" x="0px" y="0px"
	 viewBox="0 0 32 32" style="enable-background:new 0 0 32 32;" xml:space="preserve">
<style type="text/css">
	.st0{display:none;}
	.st1{display:inline;}
	.st2{fill:#EAEAEA;}
	.st3{fill:#3DBB61;}
	.st4{fill:none;}
	.st5{fill:#231F20;}
</style>
<g id="Padding" class="st0">
	<g class="st1">
		<path class="st2" d="M0,0v32h32V0H0z M30,30H2V2h28V30z"/>
	</g>
</g>
<g id="Icon">
	<g>
		<path class="st5" d="M16,4c6.6,0,12,5.4,12,12s-5.4,12-12,12S4,22.6,4,16S9.4,4,16,4 M16,2C8.3,2,2,8.3,2,16s6.3,14,14,14
			s14-6.3,14-14S23.7,2,16,2L16,2z"/>
	</g>
	<g>
		<path class="st5" d="M16,12c2.2,0,4,1.8,4,4s-1.8,4-4,4s-4-1.8-4-4S13.8,12,16,12 M16,10c-3.3,0-6,2.7-6,6s2.7,6,6,6s6-2.7,6-6
			S19.3,10,16,10L16,10z"/>
	</g>
</g>
<g id="Grid">
</g>
<g id="Transparent_Rectangle">
	<rect class="st4" width="32" height="32"/>
</g>
</svg>
