<svg id="Layer_1" data-name="Layer 1" xmlns="http://www.w3.org/2000/svg" viewBox="0 0 32 32"><defs><style>.cls-1{fill:none;}</style></defs><title>report</title><path d="M25.11,5H22V3.89A1.89,1.89,0,0,0,20.11,2H11.89A1.89,1.89,0,0,0,10,3.89h0V5H6.89A1.89,1.89,0,0,0,5,6.89V28.11A1.89,1.89,0,0,0,6.89,30H25.11A1.89,1.89,0,0,0,27,28.11V6.89A1.89,1.89,0,0,0,25.11,5ZM12,4h8V8H12ZM25,28H7V7h3v3H22V7h3Z"/><rect x="15" y="20" width="2" height="4"/><rect x="20" y="18" width="2" height="6"/><rect x="10" y="14" width="2" height="10"/><rect class="cls-1" width="32" height="32"/></svg>