<svg xmlns="http://www.w3.org/2000/svg" viewBox="0 0 32 32"><defs><style>.cls-1{fill:none;}</style></defs><title>rss</title><g id="Icon"><path d="M8,18a6,6,0,1,0,6,6A6.0066,6.0066,0,0,0,8,18ZM8,28a4,4,0,1,1,4-4A4.0043,4.0043,0,0,1,8,28Z"/><path d="M30,24H28A20.0226,20.0226,0,0,0,8,4V2A22.0249,22.0249,0,0,1,30,24Z"/><path d="M22,24H20A12.0134,12.0134,0,0,0,8,12V10A14.0157,14.0157,0,0,1,22,24Z"/></g><g id="Transparent_Rectangle" data-name="Transparent Rectangle"><rect class="cls-1" width="32" height="32"/></g></svg>