<?xml version="1.0" encoding="utf-8"?>
<!-- Generator: Adobe Illustrator 22.0.1, SVG Export Plug-In . SVG Version: 6.00 Build 0)  -->
<svg version="1.1" id="Layer_1" xmlns="http://www.w3.org/2000/svg" xmlns:xlink="http://www.w3.org/1999/xlink" x="0px" y="0px"
	 viewBox="0 0 32 32" style="enable-background:new 0 0 32 32;" xml:space="preserve">
<style type="text/css">
	.st0{display:none;}
	.st1{display:inline;}
	.st2{fill:#EAEAEA;}
	.st3{fill:none;}
</style>
<g id="Padding" class="st0">
	<g class="st1">
		<path class="st2" d="M0,0v32h32V0H0z M30,30H2V2h28V30z"/>
	</g>
</g>
<g>
	<path d="M21,16c3.3,0,6,2.7,6,6s-2.7,6-6,6s-6-2.7-6-6S17.7,16,21,16 M21,14c-4.4,0-8,3.6-8,8s3.6,8,8,8s8-3.6,8-8S25.4,14,21,14
		L21,14z"/>
</g>
<path d="M26,4H6C4.8,4,4,4.8,4,6v20c0,1.2,0.8,2,2,2h4v-2H6V12h22v-1v-1V6C28,4.8,27.2,4,26,4z M6,10V6h20v4H6z"/>
<polygon points="19,19 19,25 24,22 "/>
<g id="Grid">
</g>
<g id="Transparent_Rectangle">
	<rect class="st3" width="32" height="32"/>
</g>
</svg>
