<svg id="Layer_1" data-name="Layer 1" xmlns="http://www.w3.org/2000/svg" viewBox="0 0 32 32"><defs><style>.cls-1{fill:none;}</style></defs><title>skype</title><g id="Transparent_Rectangle" data-name="Transparent Rectangle"><rect class="cls-1" width="32" height="32"/></g><g id="_Group_" data-name="&lt;Group&gt;"><path id="_Compound_Path_" data-name="&lt;Compound Path&gt;" d="M28.13,18.17v-.11c-.11,0-.11.11,0,.11a16.16,16.16,0,0,0,.22-2.28,12.11,12.11,0,0,0-1-4.77,13.32,13.32,0,0,0-2.71-3.9,11.72,11.72,0,0,0-3.9-2.6,12.11,12.11,0,0,0-4.77-1,16.16,16.16,0,0,0-2.28.22h0a.11.11,0,0,1,.11.11h-.11a7.37,7.37,0,0,0-3.36-.87,6.49,6.49,0,0,0-5.2,2.06A7.24,7.24,0,0,0,3,10.26a7.92,7.92,0,0,0,.87,3.58v.11a.11.11,0,0,0-.11-.11A13.34,13.34,0,0,0,3.54,16a12.11,12.11,0,0,0,1,4.77,19.84,19.84,0,0,0,2.82,3.9,11.72,11.72,0,0,0,3.9,2.6,12.11,12.11,0,0,0,4.77,1A14.68,14.68,0,0,0,18.17,28a.11.11,0,0,1-.11-.11h.11a7.06,7.06,0,0,0,8.67-1.19A7.24,7.24,0,0,0,29,21.64,7.82,7.82,0,0,0,28.13,18.17Zm-12,5.31c-4.33,0-6.28-2.17-6.28-3.79a1.37,1.37,0,0,1,1.41-1.41c1.84,0,1.41,2.71,4.88,2.71,1.73,0,2.82-1,2.82-1.95,0-.54-.32-1.3-1.52-1.52l-3.9-1c-3.14-.76-3.68-2.49-3.68-4C9.83,9.29,13,8,15.89,8c2.71,0,5.85,1.52,5.85,3.47,0,.87-.76,1.3-1.62,1.3-1.62,0-1.3-2.17-4.55-2.17-1.62,0-2.49.76-2.49,1.73s1.3,1.41,2.38,1.63l2.92.65c3.14.65,3.9,2.49,3.9,4.22C22.28,21.42,20.22,23.48,16.11,23.48Z"/></g></svg>