<svg xmlns="http://www.w3.org/2000/svg" viewBox="0 0 32 32"><defs><style>.cls-1{fill:none;}</style></defs><title>star</title><g id="Icon"><path d="M16,6.5191l2.7554,5.5831.4653.9429,1.0405.1512,6.1613.8953-4.4583,4.3458-.7529.7339.1777,1.0363,1.0525,6.1364-5.5108-2.8972L16,22.9575l-.9307.4893L9.5585,26.344l1.0525-6.1364.1777-1.0363-.7529-.7339L5.5775,14.0915l6.1613-.8953,1.0405-.1512.4653-.9429L16,6.5191M16,2l-4.5489,9.217L1.28,12.695,8.64,19.87,6.9023,30,16,25.217,25.0977,30,23.36,19.87l7.36-7.1745L20.5489,11.217,16,2Z"/></g><g id="Transparent_Rectangle" data-name="Transparent Rectangle"><rect class="cls-1" width="32" height="32"/></g></svg>