<svg id="Layer_1" data-name="Layer 1" xmlns="http://www.w3.org/2000/svg" viewBox="0 0 32 32"><defs><style>.cls-1{fill:none;}</style></defs><title>stumbleupon</title><g id="Transparent_Rectangle" data-name="Transparent Rectangle"><rect class="cls-1" width="32" height="32"/></g><g id="_Group_" data-name="&lt;Group&gt;"><path id="icon" d="M17.61,13.11l2,1,3.11-1V11A6.8,6.8,0,0,0,16,4.54,6.63,6.63,0,0,0,9.36,11v9.64a1.65,1.65,0,0,1-1.61,1.61,1.65,1.65,0,0,1-1.61-1.61V16.54H1v4.18a6.72,6.72,0,0,0,6.75,6.75,6.84,6.84,0,0,0,6.75-6.64V11.29a1.61,1.61,0,1,1,3.21,0v1.82Zm8.25,3.43v4.29a1.61,1.61,0,0,1-3.21,0V16.64l-3.11,1-2-1v4.18A6.75,6.75,0,0,0,31,20.71V16.54Z"/></g></svg>