<svg id="Layer_1" data-name="Layer 1" xmlns="http://www.w3.org/2000/svg" viewBox="0 0 32 32"><defs><style>.cls-1{fill:none;}</style></defs><title>SVG</title><rect class="cls-1" width="32" height="32" transform="translate(32 32) rotate(-180)"/><path d="M22,12v8a3,3,0,0,0,3,3h5V15H26v2h2v4H25a1,1,0,0,1-1-1V12a1,1,0,0,1,1-1h5V9H25A3,3,0,0,0,22,12Z"/><polygon points="18.22 9 16 21.38 13.78 9 11.74 9 14.41 23 17.59 23 20.26 9 18.22 9"/><path d="M7,23H2V21H7a1,1,0,0,0,1-1V18a1,1,0,0,0-1-1H5a3,3,0,0,1-3-3V12A3,3,0,0,1,5,9h5v2H5a1,1,0,0,0-1,1v2a1,1,0,0,0,1,1H7a3,3,0,0,1,3,3v2A3,3,0,0,1,7,23Z"/></svg>