<?xml version="1.0" encoding="utf-8"?>
<!-- Generator: Adobe Illustrator 22.0.1, SVG Export Plug-In . SVG Version: 6.00 Build 0)  -->
<svg version="1.1" id="Layer_1" xmlns="http://www.w3.org/2000/svg" xmlns:xlink="http://www.w3.org/1999/xlink" x="0px" y="0px"
	 viewBox="0 0 32 32" style="enable-background:new 0 0 32 32;" xml:space="preserve">
<style type="text/css">
	.st0{display:none;}
	.st1{display:inline;}
	.st2{fill:#EAEAEA;}
	.st3{fill:none;}
</style>
<g id="Padding" class="st0">
	<g class="st1">
		<path class="st2" d="M0,0v32h32V0H0z M30,30H2V2h28V30z"/>
	</g>
</g>
<path d="M27,3H5C3.9,3,3,3.9,3,5v22c0,1.1,0.9,2,2,2h22c1.1,0,2-0.9,2-2V5C29,3.9,28.1,3,27,3z M27,5v4H5V5H27z M17,11h10v7H17V11z
	 M15,18H5v-7h10V18z M5,20h10v7H5V20z M17,27v-7h10v7H17z"/>
<g id="Grid">
</g>
<g id="Transparent_Rectangle">
	<rect class="st3" width="32" height="32"/>
</g>
</svg>
