<svg xmlns="http://www.w3.org/2000/svg" viewBox="0 0 32 32"><defs><style>.cls-1{fill:none;}</style></defs><title>iconsmore</title><g id="Icon"><path d="M18.5181,29.9956a2.99,2.99,0,0,1-2.1211-.8774L2.8843,15.6055a2.9823,2.9823,0,0,1-.8789-2.1191L2,5.0073a3.0044,3.0044,0,0,1,2.9976-3.002h0L13.49,2h.0029a2.9789,2.9789,0,0,1,2.12.8789L29.1245,16.39a3.003,3.003,0,0,1,0,4.2427l-8.4854,8.4854A2.99,2.99,0,0,1,18.5181,29.9956ZM5,4.0054a1.002,1.002,0,0,0-1,1.001l.0054,8.4785a.9969.9969,0,0,0,.293.7065L17.811,27.7041a1.0014,1.0014,0,0,0,1.4141,0L27.71,19.2188a1.002,1.002,0,0,0,0-1.4146L14.1992,4.293A1.0078,1.0078,0,0,0,13.4927,4h0L4.999,4.0054Z"/><path d="M10,14a4,4,0,1,1,4-4A4.0046,4.0046,0,0,1,10,14Zm0-6a2,2,0,1,0,2,2A2.002,2.002,0,0,0,10,8Z"/></g><g id="Transparent_Rectangle" data-name="Transparent Rectangle"><rect class="cls-1" width="32" height="32"/></g></svg>