<svg xmlns="http://www.w3.org/2000/svg" viewBox="0 0 32 32"><defs><style>.cls-1{fill:none;}</style></defs><title></title><g id="Icon"><g id="Icon-2" data-name="Icon"><polygon points="14 20.18 10.41 16.59 9 18 14 23 23 13.991 21.59 12.581 14 20.18"/><path d="M25.1113,5H22V3.8887A1.8907,1.8907,0,0,0,20.1113,2H11.8887A1.8907,1.8907,0,0,0,10,3.8887V5H6.8887A1.8907,1.8907,0,0,0,5,6.8887V28.1113A1.8907,1.8907,0,0,0,6.8887,30H25.1113A1.8907,1.8907,0,0,0,27,28.1113V6.8887A1.8907,1.8907,0,0,0,25.1113,5ZM12,4h8V8H12ZM25,28H7V7h3v3H22V7h3Z"/></g></g><g id="Transparent_Rectangle" data-name="Transparent Rectangle"><rect class="cls-1" width="32" height="32"/></g></svg>