<svg id="Layer_1" data-name="Layer 1" xmlns="http://www.w3.org/2000/svg" viewBox="0 0 32 32"><defs><style>.cls-1{fill:none;}</style></defs><title>thumbsup</title><rect class="cls-1" width="32" height="32"/><path d="M26,11H20V6a3.6412,3.6412,0,0,0-4-4H14.42725a1.49942,1.49942,0,0,0-1.4624,1.17438l-.0166.116L12.042,9.63379,8.46484,15H2V29H21c7.43848,0,9-4.35059,9-8V15A3.6412,3.6412,0,0,0,26,11ZM8,27H4V17H8Zm20-6c0,4.09326-2.22461,6-7,6H10V16.30273l3.958-5.93652.77051-5.39661L14.86719,4H16c1.43945,0,2,.56055,2,2v7h8c1.43945,0,2,.56055,2,2Z"/></svg>