<svg xmlns="http://www.w3.org/2000/svg" viewBox="0 0 32 32"><defs><style>.cls-1{fill:none;}</style></defs><title>refined_icons_IB</title><g id="Icon"><rect x="19" y="13" width="2" height="6"/><path d="M29,14a.9994.9994,0,0,0,1-1V7.8887A1.8913,1.8913,0,0,0,28.1113,6H3.8887A1.8913,1.8913,0,0,0,2,7.8887V13a.9994.9994,0,0,0,1,1,2,2,0,0,1,0,4,.9994.9994,0,0,0-1,1v5.1113A1.8913,1.8913,0,0,0,3.8887,26H28.1113A1.8913,1.8913,0,0,0,30,24.1113V19a.9994.9994,0,0,0-1-1,2,2,0,0,1,0-4Zm-1,5.873V24H21V21H19v3H4V19.873A4,4,0,0,0,4,12.127V8H19v3h2V8h7v4.127a4,4,0,0,0,0,7.7461Z"/></g><g id="Transparent_Rectangle" data-name="Transparent Rectangle"><rect class="cls-1" width="32" height="32"/></g></svg>