<?xml version="1.0" encoding="utf-8"?>
<!-- Generator: Adobe Illustrator 21.0.0, SVG Export Plug-In . SVG Version: 6.00 Build 0)  -->
<svg version="1.1" id="Layer_1" xmlns="http://www.w3.org/2000/svg" xmlns:xlink="http://www.w3.org/1999/xlink" x="0px" y="0px"
	 viewBox="0 0 32 32" style="enable-background:new 0 0 32 32;" xml:space="preserve">
<style type="text/css">
	.st0{fill:none;}
</style>
<title>iconsmore</title>
<g id="Transparent_Rectangle">
	<rect class="st0" width="32" height="32"/>
</g>
<path d="M12.1,2c-2,0-3.9,0.6-5.4,1.6l1.5,1.5l0.2,0.2l4.7,4.7c0.9,0.9,1,2.3,0.2,3c-0.8,0.8-2.1,0.7-3-0.2L5.4,8.1L5.1,7.9L3.7,6.4
	C2.6,8,2,9.9,2,12.1c0,5.5,4.5,10.1,10.1,10.1c0.9,0,1.8-0.1,2.6-0.3l6.7,6.7c1.9,1.9,5.1,1.9,7.1,0c1.9-1.9,1.9-5.1,0-7.1l-6.7-6.7
	c0.2-0.8,0.3-1.7,0.3-2.6C22.2,6.5,17.6,2,12.1,2z M20.1,12.1c0,0.7-0.1,1.4-0.3,2.1l-0.3,1.1l0.8,0.8l6.7,6.7
	c0.6,0.6,0.9,1.3,0.9,2.1c0,0.8-0.3,1.6-0.9,2.1c-1.2,1.2-3.1,1.2-4.2,0l-6.7-6.7l-0.8-0.8l-1.1,0.3c-0.7,0.2-1.4,0.3-2.1,0.3
	c-2.1,0-4.1-0.8-5.7-2.3C4.8,16.3,4,14.3,4,12.1c0-0.7,0.1-1.5,0.3-2.2l4.4,4.4c1.7,1.7,4.3,1.8,5.9,0.2c1.6-1.6,1.5-4.2-0.2-5.9
	L10,4.2c0.6-0.2,1.3-0.3,2-0.3c2.1,0,4.1,0.8,5.7,2.3C19.2,7.8,20.1,9.8,20.1,12.1z"/>
</svg>
