<svg id="Layer_1" data-name="Layer 1" xmlns="http://www.w3.org/2000/svg" viewBox="0 0 32 32"><defs><style>.cls-1{fill:#fff;}</style></defs><title>translate</title><rect class="cls-1" width="32" height="32"/><path d="M27.85,29H30L24,14H21.65l-6,15H17.8l1.6-4h6.85ZM20.2,23l2.62-6.56L25.45,23Z"/><path d="M18,7V5H11V3H9V5H2V7H12.7a14.43,14.43,0,0,1-3.15,6.18A13.51,13.51,0,0,1,7.26,9H5.16a16.36,16.36,0,0,0,3,5.58A17.48,17.48,0,0,1,2.85,17.9l.75,1.86A19,19,0,0,0,9.53,16a17.7,17.7,0,0,0,6,3.79l.71-1.87a15.81,15.81,0,0,1-5.37-3.31A17.92,17.92,0,0,0,14.76,7Z"/></svg>