<?xml version="1.0" encoding="utf-8"?>
<!-- Generator: Adobe Illustrator 22.0.1, SVG Export Plug-In . SVG Version: 6.00 Build 0)  -->
<svg version="1.1" id="Layer_1" xmlns="http://www.w3.org/2000/svg" xmlns:xlink="http://www.w3.org/1999/xlink" x="0px" y="0px"
	 viewBox="0 0 32 32" style="enable-background:new 0 0 32 32;" xml:space="preserve">
<style type="text/css">
	.st0{display:none;}
	.st1{display:inline;}
	.st2{fill:#EAEAEA;}
	.st3{fill:none;}
</style>
<g id="Padding" class="st0">
	<g class="st1">
		<path class="st2" d="M0,0v32h32V0H0z M30,30H2V2h28V30z"/>
	</g>
</g>
<path d="M29.8,16l-7-9.6C22.6,6.2,22.3,6,22,6H3C2.4,6,2,6.4,2,7v17c0,0.6,0.4,1,1,1h2.1c0.4,1.7,2,3,3.9,3s3.4-1.3,3.9-3h5.3
	c0.4,1.7,2,3,3.9,3s3.4-1.3,3.9-3H29c0.6,0,1-0.4,1-1v-7.4C30,16.4,29.9,16.2,29.8,16z M26.6,15H20V8h1.5L26.6,15z M9,26
	c-1.1,0-2-0.9-2-2s0.9-2,2-2s2,0.9,2,2S10.1,26,9,26z M22,26c-1.1,0-2-0.9-2-2s0.9-2,2-2s2,0.9,2,2S23.1,26,22,26z M25.9,23
	c-0.4-1.7-2-3-3.9-3s-3.4,1.3-3.9,3h-5.3c-0.4-1.7-2-3-3.9-3s-3.4,1.3-3.9,3H4V8h14v9h10v6H25.9z"/>
<g id="Grid">
</g>
<g id="Transparent_Rectangle">
	<rect class="st3" width="32" height="32"/>
</g>
</svg>
