<svg id="Layer_1" data-name="Layer 1" xmlns="http://www.w3.org/2000/svg" viewBox="0 0 32 32"><defs><style>.cls-1{fill:none;}</style></defs><title>video--off</title><path d="M17,7"/><polyline class="cls-1" points="32 32 0 32 0 0 32 0"/><path d="M29.502,8.13483a1.00061,1.00061,0,0,0-.998-.00293L23,11.27643V7.45l3-3L24.56,3,4,23.56V8H16V6H4A2,2,0,0,0,2,8V25.56l-2,2L1.45,29,21,9.45V13a1,1,0,0,0,1.49609.86823L28,10.72357V21.30573l-5.5-3.17194a1.0047,1.0047,0,0,0-1,.01862,1.03013,1.03013,0,0,0-.5.88477V24H10v2H21a2.00253,2.00253,0,0,0,2-2V20.73138l5.5,3.17194a1.005,1.005,0,0,0,1-.01862A1.03,1.03,0,0,0,30,23V9A1.0008,1.0008,0,0,0,29.502,8.13483Z"/></svg>