<svg id="Layer_1" data-name="Layer 1" xmlns="http://www.w3.org/2000/svg" viewBox="0 0 32 32"><defs><style>.cls-1{fill:none;}</style></defs><title>video--add</title><g id="Icon"><polygon points="14 11 12 11 12 15 8 15 8 17 12 17 12 21 14 21 14 17 18 17 18 15 14 15 14 11"/></g><g id="Transparent_Rectangle" data-name="Transparent Rectangle"><rect class="cls-1" width="32" height="32"/></g><g id="Icon-2" data-name="Icon"><path d="M29.502,8.1348a1.0007,1.0007,0,0,0-.998-.0029L23,11.2764V8a2.0026,2.0026,0,0,0-2-2H4A2.0026,2.0026,0,0,0,2,8V24a2.0026,2.0026,0,0,0,2,2H21a2.0026,2.0026,0,0,0,2-2V20.7314l5.5,3.1719a1.0048,1.0048,0,0,0,1-.0186A1.03,1.03,0,0,0,30,23V9A1.0009,1.0009,0,0,0,29.502,8.1348ZM28,21.3057l-5.5-3.1719a1.0048,1.0048,0,0,0-1,.0186,1.03,1.03,0,0,0-.5.8848V24H4V8H21v5a1,1,0,0,0,1.4961.8682L28,10.7236Z"/></g></svg>