<svg xmlns="http://www.w3.org/2000/svg" viewBox="0 0 32 32"><defs><style>.cls-1{fill:none;}</style></defs><title>icons</title><g id="Icon"><path d="M30.9395,15.6582A16.6961,16.6961,0,0,0,16,5,16.6961,16.6961,0,0,0,1.0605,15.6582a.9913.9913,0,0,0,0,.6836A16.6961,16.6961,0,0,0,16,27,16.6961,16.6961,0,0,0,30.9395,16.3418.9913.9913,0,0,0,30.9395,15.6582ZM16,25c-5.3,0-10.9043-3.9258-12.93-9C5.0957,10.9258,10.7,7,16,7s10.9043,3.9258,12.93,9C26.9043,21.0742,21.3,25,16,25Z"/><path d="M16,10a6,6,0,1,0,6,6A6.0066,6.0066,0,0,0,16,10Zm0,10a4,4,0,1,1,4-4A4.0043,4.0043,0,0,1,16,20Z"/></g><g id="Transparent_Rectangle" data-name="Transparent Rectangle"><rect class="cls-1" width="32" height="32"/></g></svg>