<svg xmlns="http://www.w3.org/2000/svg" viewBox="0 0 32 32"><defs><style>.cls-1{fill:none;}</style></defs><title>iconsmore</title><g id="Icon"><rect x="4" y="26" width="24" height="2"/><rect x="4" y="19" width="24" height="2"/><path d="M12.1113,14H5.8887A1.8907,1.8907,0,0,1,4,12.1113V5.8887A1.8907,1.8907,0,0,1,5.8887,4h6.2227A1.8907,1.8907,0,0,1,14,5.8887v6.2227A1.8907,1.8907,0,0,1,12.1113,14ZM6,12h6V6H6Z"/><path d="M26.1113,14H19.8887A1.8907,1.8907,0,0,1,18,12.1113V5.8887A1.8907,1.8907,0,0,1,19.8887,4h6.2227A1.8907,1.8907,0,0,1,28,5.8887v6.2227A1.8907,1.8907,0,0,1,26.1113,14ZM20,12h6V6H20Z"/></g><g id="Transparent_Rectangle" data-name="Transparent Rectangle"><rect class="cls-1" width="32" height="32"/></g></svg>