<?xml version="1.0" encoding="utf-8"?>
<!-- Generator: Adobe Illustrator 21.0.0, SVG Export Plug-In . SVG Version: 6.00 Build 0)  -->
<svg version="1.1" id="Layer_1" xmlns="http://www.w3.org/2000/svg" xmlns:xlink="http://www.w3.org/1999/xlink" x="0px" y="0px"
	 viewBox="0 0 32 32" style="enable-background:new 0 0 32 32;" xml:space="preserve">
<style type="text/css">
	.st0{fill:none;}
</style>
<title>icons</title>
<g id="Icon">
	<path d="M25.1,10.7L23.6,12c2,2.3,1.9,5.7-0.2,7.9l1.5,1.4C27.6,18.3,27.7,13.7,25.1,10.7L25.1,10.7z"/>
	<path d="M20,30c-0.3,0-0.5-0.1-0.7-0.3L11.7,22H5c-0.6,0-1-0.4-1-1c0,0,0,0,0,0V11c0-0.6,0.4-1,1-1c0,0,0,0,0,0h6.7l7.6-7.7
		c0.4-0.4,1-0.4,1.4,0C20.9,2.5,21,2.7,21,3v26C21,29.6,20.6,30,20,30z M6,20h6.1c0.3,0,0.5,0.1,0.7,0.3l6.2,6.3V5.4l-6.2,6.3
		c-0.2,0.2-0.4,0.3-0.7,0.3H6V20z"/>
</g>
<g id="Transparent_Rectangle">
	<rect class="st0" width="32" height="32"/>
</g>
</svg>
