<svg id="Layer_1" data-name="Layer 1" xmlns="http://www.w3.org/2000/svg" viewBox="0 0 32 32"><defs><style>.cls-1{fill:none;}</style></defs><title>watson</title><rect class="cls-1" width="32" height="32"/><path d="M21.74,9.49h0A11.47,11.47,0,0,0,16,7.95h0a.76.76,0,0,0,0,1.52,9.86,9.86,0,0,1,1.91.21c-2.26,1.07-4.76,3.57-6.73,7a22.71,22.71,0,0,0-2,4.44A9.65,9.65,0,0,1,7,17.22a3.47,3.47,0,0,1,.28-2.67v0h0c.79-1.37,2.43-2.15,4.63-2.2a.76.76,0,0,0,.74-.78.75.75,0,0,0-.78-.74C9.19,10.88,7.1,11.92,6,13.74H6v0a4.87,4.87,0,0,0-.44,3.79,11.92,11.92,0,0,0,3.2,5.23A11.27,11.27,0,0,0,8.52,26a9.94,9.94,0,0,1-2-3.48A.76.76,0,1,0,5.08,23a11.47,11.47,0,0,0,5.18,6.38h0A11.41,11.41,0,0,0,16,30.92a11.57,11.57,0,0,0,3-.4,11.49,11.49,0,0,0,2.77-21ZM18.58,29.06a9.9,9.9,0,0,1-7.56-1h0c-.86-.5-1.21-2-.93-4a18.18,18.18,0,0,0,2.48,1.72,13.91,13.91,0,0,0,6.93,2,10.67,10.67,0,0,0,2.42-.28A10,10,0,0,1,18.58,29.06Zm6.06-4.67c-2,2-6.66,2.74-11.32.05a16.74,16.74,0,0,1-2.89-2.12,20.61,20.61,0,0,1,2.08-4.9c2.94-5.09,6.82-7.57,8.47-6.62h0A10,10,0,0,1,24.64,24.4Z"/><path d="M4.16,11.72,1.14,10a.76.76,0,1,0-.76,1.31L3.4,13a.76.76,0,1,0,.76-1.31Z"/><path d="M8.29,7.59A.76.76,0,1,0,9.6,6.83l-1.74-3a.76.76,0,0,0-1.31.76Z"/><path d="M16,6.08a.76.76,0,0,0,.76-.76V1.83a.76.76,0,0,0-1.52,0V5.32A.76.76,0,0,0,16,6.08Z"/><path d="M22.68,7.87a.76.76,0,0,0,1-.28l1.74-3a.76.76,0,1,0-1.31-.76l-1.74,3A.76.76,0,0,0,22.68,7.87Z"/><path d="M31.9,10.25a.76.76,0,0,0-1-.28l-3,1.74A.76.76,0,1,0,28.6,13l3-1.74A.76.76,0,0,0,31.9,10.25Z"/></svg>