<svg xmlns="http://www.w3.org/2000/svg" viewBox="0 0 32 32"><defs><style>.cls-1{fill:none;}</style></defs><title>iconsmore</title><g id="Icon"><g id="Transparent_Rectangle" data-name="Transparent Rectangle"><path d="M16,2A14,14,0,1,0,30,16,14,14,0,0,0,16,2ZM27.9493,15H21.9631A24.3256,24.3256,0,0,0,19.21,4.4492,12.0126,12.0126,0,0,1,27.9493,15ZM16,28a5.3263,5.3263,0,0,1-.6715-.0437A21.7865,21.7865,0,0,1,12.0332,17h7.9336a21.7865,21.7865,0,0,1-3.2953,10.9563A5.326,5.326,0,0,1,16,28ZM12.0332,15A21.7865,21.7865,0,0,1,15.3285,4.0437a5.181,5.181,0,0,1,1.343,0A21.7865,21.7865,0,0,1,19.9668,15ZM12.79,4.4492A24.3256,24.3256,0,0,0,10.0369,15H4.0507A12.0126,12.0126,0,0,1,12.79,4.4492ZM4.0507,17h5.9862A24.3256,24.3256,0,0,0,12.79,27.5508,12.0126,12.0126,0,0,1,4.0507,17ZM19.21,27.5508A24.3256,24.3256,0,0,0,21.9631,17h5.9862A12.0126,12.0126,0,0,1,19.21,27.5508Z"/></g></g><g id="Transparent_Rectangle-2" data-name="Transparent Rectangle"><rect class="cls-1" width="32" height="32" transform="translate(32) rotate(90)"/></g></svg>