<svg id="Layer_1" data-name="Layer 1" xmlns="http://www.w3.org/2000/svg" viewBox="0 0 32 32"><defs><style>.cls-1{fill:none;}</style></defs><title>wykop</title><g id="Transparent_Rectangle" data-name="Transparent Rectangle"><rect class="cls-1" width="32" height="32"/></g><path id="_Path_" data-name="&lt;Path&gt;" d="M16.8,9.4c1.3,2.7,2.7,5.4,4,8.1-.5.3-1,.5-1.6.8-1.3-2.7-2.7-5.4-4-8.1-1.1.6-2.2,1.1-3.3,1.6,1.3,2.7,2.7,5.4,4,8.1l-1.6.8c-1.3-2.7-2.7-5.4-4-8.1-1.1.6-2.2,1.1-3.3,1.6,1.6,3.3,3.2,6.5,4.8,9.8,4.4-2.1,8.7-4.3,13-6.4-1.6-3.3-3.2-6.5-4.8-9.8A31.82,31.82,0,0,1,16.8,9.4Z"/><path d="M30.3,11.4a8.54,8.54,0,0,0-1.7-4.9,6.63,6.63,0,0,0-4.1-2.3A34.19,34.19,0,0,0,20,3.8H12.4a34.19,34.19,0,0,0-4.5.4A6.63,6.63,0,0,0,3.8,6.5a8.54,8.54,0,0,0-1.7,4.9C2,12.9,2,14.5,2,16a35.4,35.4,0,0,0,.2,4.6,7.33,7.33,0,0,0,1.7,4.9,7,7,0,0,0,4.4,2.3c1.5.2,3,.3,4.5.4h6.8c1.5-.1,3-.2,4.5-.4a7,7,0,0,0,4.4-2.3,7.33,7.33,0,0,0,1.7-4.9,35.4,35.4,0,0,0,.2-4.6C30.4,14.5,30.4,12.9,30.3,11.4Zm-3.4,9.5c-.4,2.7-1.5,3.7-4.2,3.8H9.7c-2.7-.1-3.8-1.1-4.2-3.8A20.39,20.39,0,0,1,5,16a27,27,0,0,1,.4-4.9C5.8,8.4,7,7.3,9.6,7.3c2.1,0,4.3-.1,6.4,0h.4c2.1-.1,4.3,0,6.4,0,2.6,0,3.8,1.1,4.2,3.8a27,27,0,0,1,.4,4.9A20.39,20.39,0,0,1,26.9,20.9Z"/></svg>