<svg id="Layer_1" data-name="Layer 1" xmlns="http://www.w3.org/2000/svg" viewBox="0 0 32 32"><defs><style>.cls-1{fill:none;}</style></defs><title>xing</title><g id="Transparent_Rectangle" data-name="Transparent Rectangle"><rect class="cls-1" width="32" height="32"/></g><g id="_Group_" data-name="&lt;Group&gt;"><g id="_Group_2" data-name="&lt;Group&gt;"><path id="_Path_" data-name="&lt;Path&gt;" d="M6.3,7.5a.6.6,0,0,0-.6.3.64.64,0,0,0,0,.6l2.7,4.7h0L4.1,20.7a.64.64,0,0,0,0,.6.55.55,0,0,0,.5.3h4a1.21,1.21,0,0,0,1.1-.8s4.2-7.4,4.4-7.7L11.3,8.3a1.21,1.21,0,0,0-1.1-.8Z" transform="translate(0)"/><path id="path19375" d="M23.2,2a1.21,1.21,0,0,0-1.1.8s-8.7,15.4-9,15.9l5.7,10.5a1.21,1.21,0,0,0,1.1.8h4a.55.55,0,0,0,.5-.3.64.64,0,0,0,0-.6L18.7,18.7h0L27.6,2.9a.63.63,0,0,0,0-.6c.1-.2-.1-.3-.3-.3Z" transform="translate(0)"/></g></g></svg>