<svg width="320" height="180" viewBox="0 0 320 180" fill="none" xmlns="http://www.w3.org/2000/svg">
<path d="M115.126 94.144C116.362 94.144 117.142 93.532 117.502 92.704L116.818 92.236C116.506 92.908 115.966 93.316 115.138 93.316C113.974 93.316 113.35 92.524 113.35 91.432V90.376C113.35 89.284 113.986 88.492 115.114 88.492C115.882 88.492 116.41 88.864 116.638 89.5L117.406 89.092C117.058 88.252 116.314 87.664 115.114 87.664C113.362 87.664 112.318 88.936 112.318 90.904C112.318 92.86 113.35 94.144 115.126 94.144Z" fill="black"/>
<path d="M119.786 94H125.066V93.184H122.906V85.12H119.786V85.936H121.946V93.184H119.786V94Z" fill="black"/>
<path d="M132.941 94V93.16H132.077V89.752C132.077 88.444 131.153 87.664 129.701 87.664C128.441 87.664 127.649 88.264 127.337 88.912L127.985 89.392C128.309 88.828 128.813 88.48 129.641 88.48C130.577 88.48 131.117 88.948 131.117 89.848V90.46H129.797C127.937 90.46 127.133 91.12 127.133 92.26C127.133 93.424 127.961 94.144 129.257 94.144C130.265 94.144 130.853 93.7 131.117 92.992H131.177C131.249 93.568 131.537 94 132.281 94H132.941ZM129.425 93.34C128.633 93.34 128.141 93.004 128.141 92.368V92.116C128.141 91.516 128.657 91.18 129.797 91.18H131.117V92.2C131.117 92.836 130.409 93.34 129.425 93.34Z" fill="black"/>
<path d="M137.528 94.144C139.112 94.144 140.144 93.436 140.144 92.212C140.144 90.868 138.908 90.628 138.02 90.496L137.048 90.352C136.496 90.268 135.956 90.1 135.956 89.452C135.956 88.816 136.496 88.468 137.468 88.468C138.56 88.468 139.112 88.9 139.4 89.248L140.024 88.66C139.436 88.036 138.62 87.664 137.504 87.664C136.064 87.664 135.008 88.276 135.008 89.512C135.008 90.856 136.256 91.096 137.132 91.228L138.104 91.372C138.668 91.456 139.196 91.624 139.196 92.272C139.196 93.004 138.512 93.34 137.552 93.34C136.568 93.34 135.896 92.992 135.308 92.368L134.66 92.932C135.308 93.664 136.232 94.144 137.528 94.144Z" fill="black"/>
<path d="M145.044 94.144C146.628 94.144 147.66 93.436 147.66 92.212C147.66 90.868 146.424 90.628 145.536 90.496L144.564 90.352C144.012 90.268 143.472 90.1 143.472 89.452C143.472 88.816 144.012 88.468 144.984 88.468C146.076 88.468 146.628 88.9 146.916 89.248L147.54 88.66C146.952 88.036 146.136 87.664 145.02 87.664C143.58 87.664 142.524 88.276 142.524 89.512C142.524 90.856 143.772 91.096 144.648 91.228L145.62 91.372C146.184 91.456 146.712 91.624 146.712 92.272C146.712 93.004 146.028 93.34 145.068 93.34C144.084 93.34 143.412 92.992 142.824 92.368L142.176 92.932C142.824 93.664 143.748 94.144 145.044 94.144Z" fill="black"/>
<path d="M155.343 89.536V88.72H149.631V89.536H155.343ZM155.343 91.936V91.12H149.631V91.936H155.343Z" fill="black"/>
<path d="M159.39 88.444V85.12H158.478V88.444H159.39ZM161.526 88.444V85.12H160.614V88.444H161.526Z" fill="black"/>
<path d="M167.734 94.144C168.97 94.144 169.75 93.532 170.11 92.704L169.426 92.236C169.114 92.908 168.574 93.316 167.746 93.316C166.582 93.316 165.958 92.524 165.958 91.432V90.376C165.958 89.284 166.594 88.492 167.722 88.492C168.49 88.492 169.018 88.864 169.246 89.5L170.014 89.092C169.666 88.252 168.922 87.664 167.722 87.664C165.97 87.664 164.926 88.936 164.926 90.904C164.926 92.86 165.958 94.144 167.734 94.144Z" fill="black"/>
<path d="M176.533 94H177.493V85.12H176.533V88.816H176.485C176.089 88.06 175.441 87.664 174.577 87.664C173.065 87.664 172.153 88.876 172.153 90.904C172.153 92.932 173.065 94.144 174.577 94.144C175.441 94.144 176.089 93.748 176.485 92.992H176.533V94ZM174.949 93.292C173.833 93.292 173.185 92.548 173.185 91.432V90.376C173.185 89.26 173.833 88.516 174.949 88.516C175.801 88.516 176.533 88.96 176.533 89.788V92.02C176.533 92.848 175.801 93.292 174.949 93.292Z" fill="black"/>
<path d="M182.62 94.144C184.204 94.144 185.236 93.436 185.236 92.212C185.236 90.868 184 90.628 183.112 90.496L182.14 90.352C181.588 90.268 181.048 90.1 181.048 89.452C181.048 88.816 181.588 88.468 182.56 88.468C183.652 88.468 184.204 88.9 184.492 89.248L185.116 88.66C184.528 88.036 183.712 87.664 182.596 87.664C181.156 87.664 180.1 88.276 180.1 89.512C180.1 90.856 181.348 91.096 182.224 91.228L183.196 91.372C183.76 91.456 184.288 91.624 184.288 92.272C184.288 93.004 183.604 93.34 182.644 93.34C181.66 93.34 180.988 92.992 180.4 92.368L179.752 92.932C180.4 93.664 181.324 94.144 182.62 94.144Z" fill="black"/>
<path d="M191.803 90.856V89.848H188.323V90.856H191.803Z" fill="black"/>
<path d="M199.319 90.856V89.848H195.839V90.856H199.319Z" fill="black"/>
<path d="M204.482 88.444V85.12H203.57V88.444H204.482ZM206.618 88.444V85.12H205.706V88.444H206.618Z" fill="black"/>
</svg>
