<?xml version="1.0" encoding="UTF-8"?>
<svg width="320px" height="180px" viewBox="0 0 320 180" version="1.1" xmlns="http://www.w3.org/2000/svg" xmlns:xlink="http://www.w3.org/1999/xlink">
    <title>error-boundary</title>
    <defs>
        <polygon id="path-1" points="7.96875 7.03125 7.96875 3.28125 7.03125 3.28125 7.03125 7.03125 3.28125 7.03125 3.28125 7.96875 7.03125 7.96875 7.03125 11.71875 7.96875 11.71875 7.96875 7.96875 11.71875 7.96875 11.71875 7.03125"></polygon>
    </defs>
    <g id="error-boundary" stroke="none" stroke-width="1" fill="none" fill-rule="evenodd">
        <g id="button-/-01-primary-/-field-/-02-text-and-icon-/-01-enabled" transform="translate(72.000000, 74.000000)">
            <g id="Button">
                <rect id="Background" fill="#0F62FE" x="0" y="0" width="176" height="32"></rect>
                <g id="Label" transform="translate(17.116000, 11.120000)" fill="#FFFFFF" fill-rule="nonzero">
                    <path d="M0,8.88 L0,0.504 L3.336,0.504 C4.088,0.504 4.666,0.718 5.07,1.146 C5.474,1.574 5.676,2.16 5.676,2.904 C5.676,3.648 5.474,4.234 5.07,4.662 C4.666,5.09 4.088,5.304 3.336,5.304 L1.008,5.304 L1.008,8.88 L0,8.88 Z M1.008,4.416 L3.336,4.416 C3.736,4.416 4.046,4.312 4.266,4.104 C4.486,3.896 4.596,3.6 4.596,3.216 L4.596,2.592 C4.596,2.208 4.486,1.912 4.266,1.704 C4.046,1.496 3.736,1.392 3.336,1.392 L1.008,1.392 L1.008,4.416 Z" id="Shape"></path>
                    <path d="M7.19314285,8.88 L7.19314285,2.688 L8.15314285,2.688 L8.15314285,3.828 L8.21314285,3.828 C8.32514285,3.532 8.52514285,3.268 8.81314285,3.036 C9.10114285,2.804 9.49714285,2.688 10.0011429,2.688 L10.3731429,2.688 L10.3731429,3.648 L9.80914285,3.648 C9.28914285,3.648 8.88314285,3.746 8.59114285,3.942 C8.29914285,4.138 8.15314285,4.384 8.15314285,4.68 L8.15314285,8.88 L7.19314285,8.88 Z" id="Path"></path>
                    <path d="M12.2142857,1.236 C12.0062857,1.236 11.8562857,1.186 11.7642857,1.086 C11.6722857,0.986 11.6262857,0.856 11.6262857,0.696 L11.6262857,0.54 C11.6262857,0.38 11.6722857,0.25 11.7642857,0.15 C11.8562857,0.05 12.0062857,0 12.2142857,0 C12.4222857,0 12.5722857,0.05 12.6642857,0.15 C12.7562857,0.25 12.8022857,0.38 12.8022857,0.54 L12.8022857,0.696 C12.8022857,0.856 12.7562857,0.986 12.6642857,1.086 C12.5722857,1.186 12.4222857,1.236 12.2142857,1.236 Z M11.7342857,2.688 L12.6942857,2.688 L12.6942857,8.88 L11.7342857,8.88 L11.7342857,2.688 Z" id="Shape"></path>
                    <path d="M14.8714286,8.88 L14.8714286,2.688 L15.8314286,2.688 L15.8314286,3.696 L15.8794286,3.696 C15.9514286,3.536 16.0334286,3.386 16.1254286,3.246 C16.2174286,3.106 16.3294286,2.984 16.4614286,2.88 C16.5934286,2.776 16.7474286,2.694 16.9234286,2.634 C17.0994286,2.574 17.3074286,2.544 17.5474286,2.544 C17.9554286,2.544 18.3314286,2.642 18.6754286,2.838 C19.0194286,3.034 19.2754286,3.356 19.4434286,3.804 L19.4674286,3.804 C19.5794286,3.468 19.7894286,3.174 20.0974286,2.922 C20.4054286,2.67 20.8234286,2.544 21.3514286,2.544 C21.9834286,2.544 22.4774286,2.75 22.8334286,3.162 C23.1894286,3.574 23.3674286,4.156 23.3674286,4.908 L23.3674286,8.88 L22.4074286,8.88 L22.4074286,5.076 C22.4074286,4.524 22.2994286,4.108 22.0834286,3.828 C21.8674286,3.548 21.5234286,3.408 21.0514286,3.408 C20.8594286,3.408 20.6774286,3.432 20.5054286,3.48 C20.3334286,3.528 20.1794286,3.6 20.0434286,3.696 C19.9074286,3.792 19.7994286,3.914 19.7194286,4.062 C19.6394286,4.21 19.5994286,4.384 19.5994286,4.584 L19.5994286,8.88 L18.6394286,8.88 L18.6394286,5.076 C18.6394286,4.524 18.5314286,4.108 18.3154286,3.828 C18.0994286,3.548 17.7634286,3.408 17.3074286,3.408 C17.1154286,3.408 16.9314286,3.432 16.7554286,3.48 C16.5794286,3.528 16.4234286,3.6 16.2874286,3.696 C16.1514286,3.792 16.0414286,3.914 15.9574286,4.062 C15.8734286,4.21 15.8314286,4.384 15.8314286,4.584 L15.8314286,8.88 L14.8714286,8.88 Z" id="Path"></path>
                    <path d="M29.9845714,8.88 C29.6245714,8.88 29.3665714,8.784 29.2105714,8.592 C29.0545714,8.4 28.9565714,8.16 28.9165714,7.872 L28.8565714,7.872 C28.7205714,8.256 28.4965714,8.544 28.1845714,8.736 C27.8725714,8.928 27.5005714,9.024 27.0685714,9.024 C26.4125714,9.024 25.9025714,8.856 25.5385714,8.52 C25.1745714,8.184 24.9925714,7.728 24.9925714,7.152 C24.9925714,6.568 25.2065714,6.12 25.6345714,5.808 C26.0625714,5.496 26.7285714,5.34 27.6325714,5.34 L28.8565714,5.34 L28.8565714,4.728 C28.8565714,4.288 28.7365714,3.952 28.4965714,3.72 C28.2565714,3.488 27.8885714,3.372 27.3925714,3.372 C27.0165714,3.372 26.7025714,3.456 26.4505714,3.624 C26.1985714,3.792 25.9885714,4.016 25.8205714,4.296 L25.2445714,3.756 C25.4125714,3.42 25.6805714,3.134 26.0485714,2.898 C26.4165714,2.662 26.8805714,2.544 27.4405714,2.544 C28.1925714,2.544 28.7765714,2.728 29.1925714,3.096 C29.6085714,3.464 29.8165714,3.976 29.8165714,4.632 L29.8165714,8.04 L30.5245714,8.04 L30.5245714,8.88 L29.9845714,8.88 Z M27.2245714,8.208 C27.4645714,8.208 27.6845714,8.18 27.8845714,8.124 C28.0845714,8.068 28.2565714,7.988 28.4005714,7.884 C28.5445714,7.78 28.6565714,7.66 28.7365714,7.524 C28.8165714,7.388 28.8565714,7.24 28.8565714,7.08 L28.8565714,6.06 L27.5845714,6.06 C27.0325714,6.06 26.6305714,6.14 26.3785714,6.3 C26.1265714,6.46 26.0005714,6.692 26.0005714,6.996 L26.0005714,7.248 C26.0005714,7.552 26.1105714,7.788 26.3305714,7.956 C26.5505714,8.124 26.8485714,8.208 27.2245714,8.208 Z" id="Shape"></path>
                    <path d="M32.0297143,8.88 L32.0297143,2.688 L32.9897143,2.688 L32.9897143,3.828 L33.0497143,3.828 C33.1617143,3.532 33.3617143,3.268 33.6497143,3.036 C33.9377143,2.804 34.3337143,2.688 34.8377143,2.688 L35.2097143,2.688 L35.2097143,3.648 L34.6457143,3.648 C34.1257143,3.648 33.7197143,3.746 33.4277143,3.942 C33.1357143,4.138 32.9897143,4.384 32.9897143,4.68 L32.9897143,8.88 L32.0297143,8.88 Z" id="Path"></path>
                    <path d="M40.5068571,2.688 L41.4548571,2.688 L38.6828571,10.32 C38.6108571,10.504 38.5388571,10.658 38.4668571,10.782 C38.3948571,10.906 38.3068571,11.004 38.2028571,11.076 C38.0988571,11.148 37.9688571,11.2 37.8128571,11.232 C37.6568571,11.264 37.4668571,11.28 37.2428571,11.28 L36.7508571,11.28 L36.7508571,10.44 L37.7228571,10.44 L38.1908571,9.12 L35.8748571,2.688 L36.8348571,2.688 L38.3228571,6.9 L38.6108571,7.908 L38.6708571,7.908 L39.0068571,6.9 L40.5068571,2.688 Z" id="Path"></path>
                    <path d="M45.7851428,0 L46.7451428,0 L46.7451428,3.696 L46.7931428,3.696 C46.9531428,3.304 47.1871428,3.014 47.4951428,2.826 C47.8031428,2.638 48.1731428,2.544 48.6051428,2.544 C48.9891428,2.544 49.3371428,2.62 49.6491428,2.772 C49.9611428,2.924 50.2271428,3.14 50.4471428,3.42 C50.6671428,3.7 50.8351428,4.04 50.9511428,4.44 C51.0671428,4.84 51.1251428,5.288 51.1251428,5.784 C51.1251428,6.28 51.0671428,6.728 50.9511428,7.128 C50.8351428,7.528 50.6671428,7.868 50.4471428,8.148 C50.2271428,8.428 49.9611428,8.644 49.6491428,8.796 C49.3371428,8.948 48.9891428,9.024 48.6051428,9.024 C47.7651428,9.024 47.1611428,8.64 46.7931428,7.872 L46.7451428,7.872 L46.7451428,8.88 L45.7851428,8.88 L45.7851428,0 Z M48.3411428,8.16 C48.8851428,8.16 49.3131428,7.99 49.6251428,7.65 C49.9371428,7.31 50.0931428,6.864 50.0931428,6.312 L50.0931428,5.256 C50.0931428,4.704 49.9371428,4.258 49.6251428,3.918 C49.3131428,3.578 48.8851428,3.408 48.3411428,3.408 C48.1251428,3.408 47.9191428,3.438 47.7231428,3.498 C47.5271428,3.558 47.3571428,3.64 47.2131428,3.744 C47.0691428,3.848 46.9551428,3.974 46.8711428,4.122 C46.7871428,4.27 46.7451428,4.428 46.7451428,4.596 L46.7451428,6.9 C46.7451428,7.1 46.7871428,7.278 46.8711428,7.434 C46.9551428,7.59 47.0691428,7.722 47.2131428,7.83 C47.3571428,7.938 47.5271428,8.02 47.7231428,8.076 C47.9191428,8.132 48.1251428,8.16 48.3411428,8.16 Z" id="Shape"></path>
                    <path d="M56.6982857,7.872 L56.6502857,7.872 C56.5862857,8.016 56.5082857,8.158 56.4162857,8.298 C56.3242857,8.438 56.2102857,8.562 56.0742857,8.67 C55.9382857,8.778 55.7742857,8.864 55.5822857,8.928 C55.3902857,8.992 55.1662857,9.024 54.9102857,9.024 C54.2702857,9.024 53.7622857,8.818 53.3862857,8.406 C53.0102857,7.994 52.8222857,7.412 52.8222857,6.66 L52.8222857,2.688 L53.7822857,2.688 L53.7822857,6.492 C53.7822857,7.604 54.2542857,8.16 55.1982857,8.16 C55.3902857,8.16 55.5762857,8.136 55.7562857,8.088 C55.9362857,8.04 56.0962857,7.968 56.2362857,7.872 C56.3762857,7.776 56.4882857,7.654 56.5722857,7.506 C56.6562857,7.358 56.6982857,7.18 56.6982857,6.972 L56.6982857,2.688 L57.6582857,2.688 L57.6582857,8.88 L56.6982857,8.88 L56.6982857,7.872 Z" id="Path"></path>
                    <path d="M61.2034285,8.88 C60.8674285,8.88 60.6134285,8.786 60.4414285,8.598 C60.2694285,8.41 60.1834285,8.164 60.1834285,7.86 L60.1834285,3.528 L59.1634285,3.528 L59.1634285,2.688 L59.7394285,2.688 C59.9474285,2.688 60.0894285,2.646 60.1654285,2.562 C60.2414285,2.478 60.2794285,2.332 60.2794285,2.124 L60.2794285,0.972 L61.1434285,0.972 L61.1434285,2.688 L62.4994285,2.688 L62.4994285,3.528 L61.1434285,3.528 L61.1434285,8.04 L62.4034285,8.04 L62.4034285,8.88 L61.2034285,8.88 Z" id="Path"></path>
                    <path d="M65.4445714,8.88 C65.1085714,8.88 64.8545714,8.786 64.6825714,8.598 C64.5105714,8.41 64.4245714,8.164 64.4245714,7.86 L64.4245714,3.528 L63.4045714,3.528 L63.4045714,2.688 L63.9805714,2.688 C64.1885714,2.688 64.3305714,2.646 64.4065714,2.562 C64.4825714,2.478 64.5205714,2.332 64.5205714,2.124 L64.5205714,0.972 L65.3845714,0.972 L65.3845714,2.688 L66.7405714,2.688 L66.7405714,3.528 L65.3845714,3.528 L65.3845714,8.04 L66.6445714,8.04 L66.6445714,8.88 L65.4445714,8.88 Z" id="Path"></path>
                    <path d="M70.7177142,9.024 C70.3017142,9.024 69.9217142,8.948 69.5777142,8.796 C69.2337142,8.644 68.9397142,8.426 68.6957142,8.142 C68.4517142,7.858 68.2617142,7.518 68.1257142,7.122 C67.9897142,6.726 67.9217142,6.28 67.9217142,5.784 C67.9217142,5.296 67.9897142,4.852 68.1257142,4.452 C68.2617142,4.052 68.4517142,3.71 68.6957142,3.426 C68.9397142,3.142 69.2337142,2.924 69.5777142,2.772 C69.9217142,2.62 70.3017142,2.544 70.7177142,2.544 C71.1337142,2.544 71.5117142,2.62 71.8517142,2.772 C72.1917142,2.924 72.4857142,3.142 72.7337142,3.426 C72.9817142,3.71 73.1737142,4.052 73.3097142,4.452 C73.4457142,4.852 73.5137142,5.296 73.5137142,5.784 C73.5137142,6.28 73.4457142,6.726 73.3097142,7.122 C73.1737142,7.518 72.9817142,7.858 72.7337142,8.142 C72.4857142,8.426 72.1917142,8.644 71.8517142,8.796 C71.5117142,8.948 71.1337142,9.024 70.7177142,9.024 Z M70.7177142,8.172 C71.2377142,8.172 71.6617142,8.012 71.9897142,7.692 C72.3177142,7.372 72.4817142,6.884 72.4817142,6.228 L72.4817142,5.34 C72.4817142,4.684 72.3177142,4.196 71.9897142,3.876 C71.6617142,3.556 71.2377142,3.396 70.7177142,3.396 C70.1977142,3.396 69.7737142,3.556 69.4457142,3.876 C69.1177142,4.196 68.9537142,4.684 68.9537142,5.34 L68.9537142,6.228 C68.9537142,6.884 69.1177142,7.372 69.4457142,7.692 C69.7737142,8.012 70.1977142,8.172 70.7177142,8.172 Z" id="Shape"></path>
                    <path d="M75.2348571,8.88 L75.2348571,2.688 L76.1948571,2.688 L76.1948571,3.696 L76.2428571,3.696 C76.3948571,3.344 76.6088571,3.064 76.8848571,2.856 C77.1608571,2.648 77.5308571,2.544 77.9948571,2.544 C78.6348571,2.544 79.1408571,2.75 79.5128571,3.162 C79.8848571,3.574 80.0708571,4.156 80.0708571,4.908 L80.0708571,8.88 L79.1108571,8.88 L79.1108571,5.076 C79.1108571,3.964 78.6428571,3.408 77.7068571,3.408 C77.5148571,3.408 77.3288571,3.432 77.1488571,3.48 C76.9688571,3.528 76.8068571,3.6 76.6628571,3.696 C76.5188571,3.792 76.4048571,3.914 76.3208571,4.062 C76.2368571,4.21 76.1948571,4.384 76.1948571,4.584 L76.1948571,8.88 L75.2348571,8.88 Z" id="Path"></path>
                </g>
            </g>
            <g id="Icon" transform="translate(146.000000, 9.000000)">
                <mask id="mask-2" fill="white">
                    <use xlink:href="#path-1"></use>
                </mask>
                <use id="icon-color" fill="#FFFFFF" xlink:href="#path-1"></use>
            </g>
        </g>
        <rect id="Rectangle" stroke="#DA1E28" x="56" y="48" width="208" height="84"></rect>
    </g>
</svg>