<svg width="320" height="180" viewBox="0 0 320 180" fill="none" xmlns="http://www.w3.org/2000/svg">
<path d="M132.02 94.0001V90.2081H135.656V89.3201H132.02V86.5121H136.004V85.6241H131.012V94.0001H132.02Z" fill="#525252"/>
<path d="M139.974 94.1441C141.63 94.1441 142.77 92.8721 142.77 90.9041C142.77 88.9361 141.63 87.6641 139.974 87.6641C138.318 87.6641 137.178 88.9361 137.178 90.9041C137.178 92.8721 138.318 94.1441 139.974 94.1441ZM139.974 93.2921C138.942 93.2921 138.21 92.6561 138.21 91.3481V90.4601C138.21 89.1521 138.942 88.5161 139.974 88.5161C141.006 88.5161 141.738 89.1521 141.738 90.4601V91.3481C141.738 92.6561 141.006 93.2921 139.974 93.2921Z" fill="#525252"/>
<path d="M145.629 94.0001V89.8001C145.629 89.2121 146.253 88.7681 147.285 88.7681H147.849V87.8081H147.477C146.469 87.8081 145.905 88.3601 145.689 88.9481H145.629V87.8081H144.669V94.0001H145.629Z" fill="#525252"/>
<path d="M150.355 94.0001V89.7041C150.355 88.9121 151.075 88.5281 151.831 88.5281C152.743 88.5281 153.163 89.0921 153.163 90.1961V94.0001H154.123V89.7041C154.123 88.9121 154.819 88.5281 155.575 88.5281C156.511 88.5281 156.931 89.1041 156.931 90.1961V94.0001H157.891V90.0281C157.891 88.5281 157.135 87.6641 155.875 87.6641C154.819 87.6641 154.219 88.2521 153.991 88.9241H153.967C153.631 88.0361 152.887 87.6641 152.071 87.6641C151.111 87.6641 150.679 88.1801 150.403 88.8161H150.355V87.8081H149.395V94.0001H150.355Z" fill="#525252"/>
<path d="M165.22 94.0001V93.1601H164.308V85.1201H163.348V93.0041C163.348 93.5801 163.708 94.0001 164.368 94.0001H165.22Z" fill="#525252"/>
<path d="M171.977 94.0001V93.1601H171.269V89.7521C171.269 88.4441 170.381 87.6641 168.893 87.6641C167.777 87.6641 167.033 88.2161 166.697 88.8761L167.273 89.4161C167.609 88.8521 168.101 88.4921 168.845 88.4921C169.829 88.4921 170.309 88.9721 170.309 89.8481V90.4601H169.085C167.285 90.4601 166.445 91.1081 166.445 92.2721C166.445 93.4241 167.213 94.1441 168.521 94.1441C169.385 94.1441 170.045 93.7481 170.309 92.9921H170.369C170.441 93.5681 170.729 94.0001 171.437 94.0001H171.977ZM168.677 93.3281C167.933 93.3281 167.453 92.9801 167.453 92.3681V92.1161C167.453 91.5161 167.945 91.1801 169.037 91.1801H170.309V92.2001C170.309 92.8361 169.625 93.3281 168.677 93.3281Z" fill="#525252"/>
<path d="M173.667 94.0001H174.627V92.9921H174.675C175.047 93.7601 175.635 94.1441 176.487 94.1441C178.035 94.1441 179.007 92.8841 179.007 90.9041C179.007 88.9241 178.035 87.6641 176.487 87.6641C175.635 87.6641 174.999 88.0361 174.675 88.8161H174.627V85.1201H173.667V94.0001ZM176.223 93.2801C175.347 93.2801 174.627 92.8241 174.627 92.0201V89.7161C174.627 89.0321 175.347 88.5281 176.223 88.5281C177.303 88.5281 177.975 89.2721 177.975 90.3761V91.4321C177.975 92.5361 177.303 93.2801 176.223 93.2801Z" fill="#525252"/>
<path d="M183.276 94.1441C184.44 94.1441 185.328 93.5681 185.724 92.7281L185.04 92.2361C184.716 92.9201 184.116 93.3041 183.336 93.3041C182.184 93.3041 181.5 92.5001 181.5 91.4321V91.1441H185.952V90.6881C185.952 88.9361 184.932 87.6641 183.276 87.6641C181.596 87.6641 180.492 88.9361 180.492 90.9041C180.492 92.8721 181.596 94.1441 183.276 94.1441ZM183.276 88.4681C184.26 88.4681 184.92 89.2001 184.92 90.2921V90.4241H181.5V90.3401C181.5 89.2601 182.232 88.4681 183.276 88.4681Z" fill="#525252"/>
<path d="M189.726 94.0001V93.1601H188.814V85.1201H187.854V93.0041C187.854 93.5801 188.214 94.0001 188.874 94.0001H189.726Z" fill="#525252"/>
</svg>
