<?xml version="1.0" encoding="UTF-8"?>
<svg width="320px" height="180px" viewBox="0 0 320 180" version="1.1" xmlns="http://www.w3.org/2000/svg" xmlns:xlink="http://www.w3.org/1999/xlink">
    <title>ordered-list</title>
    <g id="ordered-list" stroke="none" stroke-width="1" fill="none" fill-rule="evenodd">
        <g id="1.-Ordered-List-2.-O" transform="translate(113.456000, 61.120000)" fill="#161616" fill-rule="nonzero">
            <polygon id="Path" points="0.6 8.88 0.6 7.992 2.94 7.992 2.94 1.248 2.856 1.248 0.744 3.216 0.156 2.58 2.376 0.504 3.948 0.504 3.948 7.992 6.108 7.992 6.108 8.88"></polygon>
            <path d="M8.51314285,9.024 C8.25714285,9.024 8.07114285,8.96 7.95514285,8.832 C7.83914285,8.704 7.78114285,8.536 7.78114285,8.328 L7.78114285,8.172 C7.78114285,7.964 7.83914285,7.796 7.95514285,7.668 C8.07114285,7.54 8.25714285,7.476 8.51314285,7.476 C8.76914285,7.476 8.95514285,7.54 9.07114285,7.668 C9.18714285,7.796 9.24514285,7.964 9.24514285,8.172 L9.24514285,8.328 C9.24514285,8.536 9.18714285,8.704 9.07114285,8.832 C8.95514285,8.96 8.76914285,9.024 8.51314285,9.024 Z" id="Path"></path>
            <path d="M26.4068571,9.024 C25.8628571,9.024 25.3728571,8.93 24.9368571,8.742 C24.5008571,8.554 24.1288571,8.278 23.8208571,7.914 C23.5128571,7.55 23.2748571,7.098 23.1068571,6.558 C22.9388571,6.018 22.8548571,5.396 22.8548571,4.692 C22.8548571,3.988 22.9388571,3.368 23.1068571,2.832 C23.2748571,2.296 23.5128571,1.844 23.8208571,1.476 C24.1288571,1.108 24.5008571,0.83 24.9368571,0.642 C25.3728571,0.454 25.8628571,0.36 26.4068571,0.36 C26.9428571,0.36 27.4308571,0.454 27.8708571,0.642 C28.3108571,0.83 28.6848571,1.108 28.9928571,1.476 C29.3008571,1.844 29.5388571,2.296 29.7068571,2.832 C29.8748571,3.368 29.9588571,3.988 29.9588571,4.692 C29.9588571,5.396 29.8748571,6.018 29.7068571,6.558 C29.5388571,7.098 29.3008571,7.55 28.9928571,7.914 C28.6848571,8.278 28.3108571,8.554 27.8708571,8.742 C27.4308571,8.93 26.9428571,9.024 26.4068571,9.024 Z M26.4068571,8.124 C26.7668571,8.124 27.0988571,8.06 27.4028571,7.932 C27.7068571,7.804 27.9688571,7.62 28.1888571,7.38 C28.4088571,7.14 28.5788571,6.852 28.6988571,6.516 C28.8188571,6.18 28.8788571,5.804 28.8788571,5.388 L28.8788571,3.996 C28.8788571,3.58 28.8188571,3.204 28.6988571,2.868 C28.5788571,2.532 28.4088571,2.244 28.1888571,2.004 C27.9688571,1.764 27.7068571,1.58 27.4028571,1.452 C27.0988571,1.324 26.7668571,1.26 26.4068571,1.26 C26.0468571,1.26 25.7148571,1.324 25.4108571,1.452 C25.1068571,1.58 24.8448571,1.764 24.6248571,2.004 C24.4048571,2.244 24.2348571,2.532 24.1148571,2.868 C23.9948571,3.204 23.9348571,3.58 23.9348571,3.996 L23.9348571,5.388 C23.9348571,5.804 23.9948571,6.18 24.1148571,6.516 C24.2348571,6.852 24.4048571,7.14 24.6248571,7.38 C24.8448571,7.62 25.1068571,7.804 25.4108571,7.932 C25.7148571,8.06 26.0468571,8.124 26.4068571,8.124 Z" id="Shape"></path>
            <path d="M31.812,8.88 L31.812,2.688 L32.772,2.688 L32.772,3.828 L32.832,3.828 C32.944,3.532 33.144,3.268 33.432,3.036 C33.72,2.804 34.116,2.688 34.62,2.688 L34.992,2.688 L34.992,3.648 L34.428,3.648 C33.908,3.648 33.502,3.746 33.21,3.942 C32.918,4.138 32.772,4.384 32.772,4.68 L32.772,8.88 L31.812,8.88 Z" id="Path"></path>
            <path d="M40.2411428,7.872 L40.1931428,7.872 C39.8171428,8.64 39.2131428,9.024 38.3811428,9.024 C37.9971428,9.024 37.6491428,8.948 37.3371428,8.796 C37.0251428,8.644 36.7591428,8.428 36.5391428,8.148 C36.3191428,7.868 36.1511428,7.528 36.0351428,7.128 C35.9191428,6.728 35.8611428,6.28 35.8611428,5.784 C35.8611428,5.288 35.9191428,4.84 36.0351428,4.44 C36.1511428,4.04 36.3191428,3.7 36.5391428,3.42 C36.7591428,3.14 37.0251428,2.924 37.3371428,2.772 C37.6491428,2.62 37.9971428,2.544 38.3811428,2.544 C38.8131428,2.544 39.1831428,2.638 39.4911428,2.826 C39.7991428,3.014 40.0331428,3.304 40.1931428,3.696 L40.2411428,3.696 L40.2411428,0 L41.2011428,0 L41.2011428,8.88 L40.2411428,8.88 L40.2411428,7.872 Z M38.6451428,8.16 C38.8611428,8.16 39.0671428,8.132 39.2631428,8.076 C39.4591428,8.02 39.6291428,7.938 39.7731428,7.83 C39.9171428,7.722 40.0311428,7.59 40.1151428,7.434 C40.1991428,7.278 40.2411428,7.1 40.2411428,6.9 L40.2411428,4.596 C40.2411428,4.428 40.1991428,4.27 40.1151428,4.122 C40.0311428,3.974 39.9171428,3.848 39.7731428,3.744 C39.6291428,3.64 39.4591428,3.558 39.2631428,3.498 C39.0671428,3.438 38.8611428,3.408 38.6451428,3.408 C38.1011428,3.408 37.6731428,3.578 37.3611428,3.918 C37.0491428,4.258 36.8931428,4.704 36.8931428,5.256 L36.8931428,6.312 C36.8931428,6.864 37.0491428,7.31 37.3611428,7.65 C37.6731428,7.99 38.1011428,8.16 38.6451428,8.16 Z" id="Shape"></path>
            <path d="M45.7062857,9.024 C45.2822857,9.024 44.9002857,8.948 44.5602857,8.796 C44.2202857,8.644 43.9282857,8.426 43.6842857,8.142 C43.4402857,7.858 43.2522857,7.518 43.1202857,7.122 C42.9882857,6.726 42.9222857,6.28 42.9222857,5.784 C42.9222857,5.296 42.9882857,4.852 43.1202857,4.452 C43.2522857,4.052 43.4402857,3.71 43.6842857,3.426 C43.9282857,3.142 44.2202857,2.924 44.5602857,2.772 C44.9002857,2.62 45.2822857,2.544 45.7062857,2.544 C46.1222857,2.544 46.4942857,2.62 46.8222857,2.772 C47.1502857,2.924 47.4302857,3.134 47.6622857,3.402 C47.8942857,3.67 48.0722857,3.988 48.1962857,4.356 C48.3202857,4.724 48.3822857,5.128 48.3822857,5.568 L48.3822857,6.024 L43.9302857,6.024 L43.9302857,6.312 C43.9302857,6.576 43.9722857,6.822 44.0562857,7.05 C44.1402857,7.278 44.2602857,7.476 44.4162857,7.644 C44.5722857,7.812 44.7642857,7.944 44.9922857,8.04 C45.2202857,8.136 45.4782857,8.184 45.7662857,8.184 C46.1582857,8.184 46.5002857,8.092 46.7922857,7.908 C47.0842857,7.724 47.3102857,7.46 47.4702857,7.116 L48.1542857,7.608 C47.9542857,8.032 47.6422857,8.374 47.2182857,8.634 C46.7942857,8.894 46.2902857,9.024 45.7062857,9.024 Z M45.7062857,3.348 C45.4422857,3.348 45.2022857,3.394 44.9862857,3.486 C44.7702857,3.578 44.5842857,3.708 44.4282857,3.876 C44.2722857,4.044 44.1502857,4.242 44.0622857,4.47 C43.9742857,4.698 43.9302857,4.948 43.9302857,5.22 L43.9302857,5.304 L47.3502857,5.304 L47.3502857,5.172 C47.3502857,4.62 47.2002857,4.178 46.9002857,3.846 C46.6002857,3.514 46.2022857,3.348 45.7062857,3.348 Z" id="Shape"></path>
            <path d="M50.1034285,8.88 L50.1034285,2.688 L51.0634285,2.688 L51.0634285,3.828 L51.1234285,3.828 C51.2354285,3.532 51.4354285,3.268 51.7234285,3.036 C52.0114285,2.804 52.4074285,2.688 52.9114285,2.688 L53.2834285,2.688 L53.2834285,3.648 L52.7194285,3.648 C52.1994285,3.648 51.7934285,3.746 51.5014285,3.942 C51.2094285,4.138 51.0634285,4.384 51.0634285,4.68 L51.0634285,8.88 L50.1034285,8.88 Z" id="Path"></path>
            <path d="M56.9125714,9.024 C56.4885714,9.024 56.1065714,8.948 55.7665714,8.796 C55.4265714,8.644 55.1345714,8.426 54.8905714,8.142 C54.6465714,7.858 54.4585714,7.518 54.3265714,7.122 C54.1945714,6.726 54.1285714,6.28 54.1285714,5.784 C54.1285714,5.296 54.1945714,4.852 54.3265714,4.452 C54.4585714,4.052 54.6465714,3.71 54.8905714,3.426 C55.1345714,3.142 55.4265714,2.924 55.7665714,2.772 C56.1065714,2.62 56.4885714,2.544 56.9125714,2.544 C57.3285714,2.544 57.7005714,2.62 58.0285714,2.772 C58.3565714,2.924 58.6365714,3.134 58.8685714,3.402 C59.1005714,3.67 59.2785714,3.988 59.4025714,4.356 C59.5265714,4.724 59.5885714,5.128 59.5885714,5.568 L59.5885714,6.024 L55.1365714,6.024 L55.1365714,6.312 C55.1365714,6.576 55.1785714,6.822 55.2625714,7.05 C55.3465714,7.278 55.4665714,7.476 55.6225714,7.644 C55.7785714,7.812 55.9705714,7.944 56.1985714,8.04 C56.4265714,8.136 56.6845714,8.184 56.9725714,8.184 C57.3645714,8.184 57.7065714,8.092 57.9985714,7.908 C58.2905714,7.724 58.5165714,7.46 58.6765714,7.116 L59.3605714,7.608 C59.1605714,8.032 58.8485714,8.374 58.4245714,8.634 C58.0005714,8.894 57.4965714,9.024 56.9125714,9.024 Z M56.9125714,3.348 C56.6485714,3.348 56.4085714,3.394 56.1925714,3.486 C55.9765714,3.578 55.7905714,3.708 55.6345714,3.876 C55.4785714,4.044 55.3565714,4.242 55.2685714,4.47 C55.1805714,4.698 55.1365714,4.948 55.1365714,5.22 L55.1365714,5.304 L58.5565714,5.304 L58.5565714,5.172 C58.5565714,4.62 58.4065714,4.178 58.1065714,3.846 C57.8065714,3.514 57.4085714,3.348 56.9125714,3.348 Z" id="Shape"></path>
            <path d="M65.2697142,7.872 L65.2217142,7.872 C64.8457142,8.64 64.2417142,9.024 63.4097142,9.024 C63.0257142,9.024 62.6777142,8.948 62.3657142,8.796 C62.0537142,8.644 61.7877142,8.428 61.5677142,8.148 C61.3477142,7.868 61.1797142,7.528 61.0637142,7.128 C60.9477142,6.728 60.8897142,6.28 60.8897142,5.784 C60.8897142,5.288 60.9477142,4.84 61.0637142,4.44 C61.1797142,4.04 61.3477142,3.7 61.5677142,3.42 C61.7877142,3.14 62.0537142,2.924 62.3657142,2.772 C62.6777142,2.62 63.0257142,2.544 63.4097142,2.544 C63.8417142,2.544 64.2117142,2.638 64.5197142,2.826 C64.8277142,3.014 65.0617142,3.304 65.2217142,3.696 L65.2697142,3.696 L65.2697142,0 L66.2297142,0 L66.2297142,8.88 L65.2697142,8.88 L65.2697142,7.872 Z M63.6737142,8.16 C63.8897142,8.16 64.0957142,8.132 64.2917142,8.076 C64.4877142,8.02 64.6577142,7.938 64.8017142,7.83 C64.9457142,7.722 65.0597142,7.59 65.1437142,7.434 C65.2277142,7.278 65.2697142,7.1 65.2697142,6.9 L65.2697142,4.596 C65.2697142,4.428 65.2277142,4.27 65.1437142,4.122 C65.0597142,3.974 64.9457142,3.848 64.8017142,3.744 C64.6577142,3.64 64.4877142,3.558 64.2917142,3.498 C64.0957142,3.438 63.8897142,3.408 63.6737142,3.408 C63.1297142,3.408 62.7017142,3.578 62.3897142,3.918 C62.0777142,4.258 61.9217142,4.704 61.9217142,5.256 L61.9217142,6.312 C61.9217142,6.864 62.0777142,7.31 62.3897142,7.65 C62.7017142,7.99 63.1297142,8.16 63.6737142,8.16 Z" id="Shape"></path>
            <polygon id="Path" points="71.472 8.88 71.472 0.504 72.48 0.504 72.48 7.992 76.044 7.992 76.044 8.88"></polygon>
            <path d="M78.0051428,1.236 C77.7971428,1.236 77.6471428,1.186 77.5551428,1.086 C77.4631428,0.986 77.4171428,0.856 77.4171428,0.696 L77.4171428,0.54 C77.4171428,0.38 77.4631428,0.25 77.5551428,0.15 C77.6471428,0.05 77.7971428,0 78.0051428,0 C78.2131428,0 78.3631428,0.05 78.4551428,0.15 C78.5471428,0.25 78.5931428,0.38 78.5931428,0.54 L78.5931428,0.696 C78.5931428,0.856 78.5471428,0.986 78.4551428,1.086 C78.3631428,1.186 78.2131428,1.236 78.0051428,1.236 Z M77.5251428,2.688 L78.4851428,2.688 L78.4851428,8.88 L77.5251428,8.88 L77.5251428,2.688 Z" id="Shape"></path>
            <path d="M82.5222857,9.024 C81.9462857,9.024 81.4642857,8.914 81.0762857,8.694 C80.6882857,8.474 80.3542857,8.18 80.0742857,7.812 L80.7582857,7.26 C80.9982857,7.564 81.2662857,7.798 81.5622857,7.962 C81.8582857,8.126 82.2022857,8.208 82.5942857,8.208 C83.0022857,8.208 83.3202857,8.12 83.5482857,7.944 C83.7762857,7.768 83.8902857,7.52 83.8902857,7.2 C83.8902857,6.96 83.8122857,6.754 83.6562857,6.582 C83.5002857,6.41 83.2182857,6.292 82.8102857,6.228 L82.3182857,6.156 C82.0302857,6.116 81.7662857,6.054 81.5262857,5.97 C81.2862857,5.886 81.0762857,5.774 80.8962857,5.634 C80.7162857,5.494 80.5762857,5.32 80.4762857,5.112 C80.3762857,4.904 80.3262857,4.656 80.3262857,4.368 C80.3262857,4.064 80.3822857,3.798 80.4942857,3.57 C80.6062857,3.342 80.7602857,3.152 80.9562857,3 C81.1522857,2.848 81.3862857,2.734 81.6582857,2.658 C81.9302857,2.582 82.2222857,2.544 82.5342857,2.544 C83.0382857,2.544 83.4602857,2.632 83.8002857,2.808 C84.1402857,2.984 84.4382857,3.228 84.6942857,3.54 L84.0582857,4.116 C83.9222857,3.924 83.7222857,3.75 83.4582857,3.594 C83.1942857,3.438 82.8622857,3.36 82.4622857,3.36 C82.0622857,3.36 81.7602857,3.446 81.5562857,3.618 C81.3522857,3.79 81.2502857,4.024 81.2502857,4.32 C81.2502857,4.624 81.3522857,4.844 81.5562857,4.98 C81.7602857,5.116 82.0542857,5.216 82.4382857,5.28 L82.9182857,5.352 C83.6062857,5.456 84.0942857,5.654 84.3822857,5.946 C84.6702857,6.238 84.8142857,6.62 84.8142857,7.092 C84.8142857,7.692 84.6102857,8.164 84.2022857,8.508 C83.7942857,8.852 83.2342857,9.024 82.5222857,9.024 Z" id="Path"></path>
            <path d="M87.9274285,8.88 C87.5914285,8.88 87.3374285,8.786 87.1654285,8.598 C86.9934285,8.41 86.9074285,8.164 86.9074285,7.86 L86.9074285,3.528 L85.8874285,3.528 L85.8874285,2.688 L86.4634285,2.688 C86.6714285,2.688 86.8134285,2.646 86.8894285,2.562 C86.9654285,2.478 87.0034285,2.332 87.0034285,2.124 L87.0034285,0.972 L87.8674285,0.972 L87.8674285,2.688 L89.2234285,2.688 L89.2234285,3.528 L87.8674285,3.528 L87.8674285,8.04 L89.1274285,8.04 L89.1274285,8.88 L87.9274285,8.88 Z" id="Path"></path>
            <path d="M5.94,24.88 L0.444,24.88 L0.444,23.848 L3.18,21.328 C3.572,20.968 3.9,20.586 4.164,20.182 C4.428,19.778 4.56,19.372 4.56,18.964 L4.56,18.82 C4.56,18.356 4.432,17.98 4.176,17.692 C3.92,17.404 3.532,17.26 3.012,17.26 C2.756,17.26 2.532,17.296 2.34,17.368 C2.148,17.44 1.982,17.54 1.842,17.668 C1.702,17.796 1.586,17.946 1.494,18.118 C1.402,18.29 1.328,18.476 1.272,18.676 L0.372,18.328 C0.452,18.08 0.562,17.838 0.702,17.602 C0.842,17.366 1.018,17.156 1.23,16.972 C1.442,16.788 1.698,16.64 1.998,16.528 C2.298,16.416 2.652,16.36 3.06,16.36 C3.468,16.36 3.832,16.42 4.152,16.54 C4.472,16.66 4.74,16.828 4.956,17.044 C5.172,17.26 5.338,17.516 5.454,17.812 C5.57,18.108 5.628,18.436 5.628,18.796 C5.628,19.124 5.582,19.428 5.49,19.708 C5.398,19.988 5.272,20.254 5.112,20.506 C4.952,20.758 4.758,21.004 4.53,21.244 C4.302,21.484 4.056,21.724 3.792,21.964 L1.536,23.992 L5.94,23.992 L5.94,24.88 Z" id="Path"></path>
            <path d="M8.51314285,25.024 C8.25714285,25.024 8.07114285,24.96 7.95514285,24.832 C7.83914285,24.704 7.78114285,24.536 7.78114285,24.328 L7.78114285,24.172 C7.78114285,23.964 7.83914285,23.796 7.95514285,23.668 C8.07114285,23.54 8.25714285,23.476 8.51314285,23.476 C8.76914285,23.476 8.95514285,23.54 9.07114285,23.668 C9.18714285,23.796 9.24514285,23.964 9.24514285,24.172 L9.24514285,24.328 C9.24514285,24.536 9.18714285,24.704 9.07114285,24.832 C8.95514285,24.96 8.76914285,25.024 8.51314285,25.024 Z" id="Path"></path>
            <path d="M26.4068571,25.024 C25.8628571,25.024 25.3728571,24.93 24.9368571,24.742 C24.5008571,24.554 24.1288571,24.278 23.8208571,23.914 C23.5128571,23.55 23.2748571,23.098 23.1068571,22.558 C22.9388571,22.018 22.8548571,21.396 22.8548571,20.692 C22.8548571,19.988 22.9388571,19.368 23.1068571,18.832 C23.2748571,18.296 23.5128571,17.844 23.8208571,17.476 C24.1288571,17.108 24.5008571,16.83 24.9368571,16.642 C25.3728571,16.454 25.8628571,16.36 26.4068571,16.36 C26.9428571,16.36 27.4308571,16.454 27.8708571,16.642 C28.3108571,16.83 28.6848571,17.108 28.9928571,17.476 C29.3008571,17.844 29.5388571,18.296 29.7068571,18.832 C29.8748571,19.368 29.9588571,19.988 29.9588571,20.692 C29.9588571,21.396 29.8748571,22.018 29.7068571,22.558 C29.5388571,23.098 29.3008571,23.55 28.9928571,23.914 C28.6848571,24.278 28.3108571,24.554 27.8708571,24.742 C27.4308571,24.93 26.9428571,25.024 26.4068571,25.024 Z M26.4068571,24.124 C26.7668571,24.124 27.0988571,24.06 27.4028571,23.932 C27.7068571,23.804 27.9688571,23.62 28.1888571,23.38 C28.4088571,23.14 28.5788571,22.852 28.6988571,22.516 C28.8188571,22.18 28.8788571,21.804 28.8788571,21.388 L28.8788571,19.996 C28.8788571,19.58 28.8188571,19.204 28.6988571,18.868 C28.5788571,18.532 28.4088571,18.244 28.1888571,18.004 C27.9688571,17.764 27.7068571,17.58 27.4028571,17.452 C27.0988571,17.324 26.7668571,17.26 26.4068571,17.26 C26.0468571,17.26 25.7148571,17.324 25.4108571,17.452 C25.1068571,17.58 24.8448571,17.764 24.6248571,18.004 C24.4048571,18.244 24.2348571,18.532 24.1148571,18.868 C23.9948571,19.204 23.9348571,19.58 23.9348571,19.996 L23.9348571,21.388 C23.9348571,21.804 23.9948571,22.18 24.1148571,22.516 C24.2348571,22.852 24.4048571,23.14 24.6248571,23.38 C24.8448571,23.62 25.1068571,23.804 25.4108571,23.932 C25.7148571,24.06 26.0468571,24.124 26.4068571,24.124 Z" id="Shape"></path>
            <path d="M31.812,24.88 L31.812,18.688 L32.772,18.688 L32.772,19.828 L32.832,19.828 C32.944,19.532 33.144,19.268 33.432,19.036 C33.72,18.804 34.116,18.688 34.62,18.688 L34.992,18.688 L34.992,19.648 L34.428,19.648 C33.908,19.648 33.502,19.746 33.21,19.942 C32.918,20.138 32.772,20.384 32.772,20.68 L32.772,24.88 L31.812,24.88 Z" id="Path"></path>
            <path d="M40.2411428,23.872 L40.1931428,23.872 C39.8171428,24.64 39.2131428,25.024 38.3811428,25.024 C37.9971428,25.024 37.6491428,24.948 37.3371428,24.796 C37.0251428,24.644 36.7591428,24.428 36.5391428,24.148 C36.3191428,23.868 36.1511428,23.528 36.0351428,23.128 C35.9191428,22.728 35.8611428,22.28 35.8611428,21.784 C35.8611428,21.288 35.9191428,20.84 36.0351428,20.44 C36.1511428,20.04 36.3191428,19.7 36.5391428,19.42 C36.7591428,19.14 37.0251428,18.924 37.3371428,18.772 C37.6491428,18.62 37.9971428,18.544 38.3811428,18.544 C38.8131428,18.544 39.1831428,18.638 39.4911428,18.826 C39.7991428,19.014 40.0331428,19.304 40.1931428,19.696 L40.2411428,19.696 L40.2411428,16 L41.2011428,16 L41.2011428,24.88 L40.2411428,24.88 L40.2411428,23.872 Z M38.6451428,24.16 C38.8611428,24.16 39.0671428,24.132 39.2631428,24.076 C39.4591428,24.02 39.6291428,23.938 39.7731428,23.83 C39.9171428,23.722 40.0311428,23.59 40.1151428,23.434 C40.1991428,23.278 40.2411428,23.1 40.2411428,22.9 L40.2411428,20.596 C40.2411428,20.428 40.1991428,20.27 40.1151428,20.122 C40.0311428,19.974 39.9171428,19.848 39.7731428,19.744 C39.6291428,19.64 39.4591428,19.558 39.2631428,19.498 C39.0671428,19.438 38.8611428,19.408 38.6451428,19.408 C38.1011428,19.408 37.6731428,19.578 37.3611428,19.918 C37.0491428,20.258 36.8931428,20.704 36.8931428,21.256 L36.8931428,22.312 C36.8931428,22.864 37.0491428,23.31 37.3611428,23.65 C37.6731428,23.99 38.1011428,24.16 38.6451428,24.16 Z" id="Shape"></path>
            <path d="M45.7062857,25.024 C45.2822857,25.024 44.9002857,24.948 44.5602857,24.796 C44.2202857,24.644 43.9282857,24.426 43.6842857,24.142 C43.4402857,23.858 43.2522857,23.518 43.1202857,23.122 C42.9882857,22.726 42.9222857,22.28 42.9222857,21.784 C42.9222857,21.296 42.9882857,20.852 43.1202857,20.452 C43.2522857,20.052 43.4402857,19.71 43.6842857,19.426 C43.9282857,19.142 44.2202857,18.924 44.5602857,18.772 C44.9002857,18.62 45.2822857,18.544 45.7062857,18.544 C46.1222857,18.544 46.4942857,18.62 46.8222857,18.772 C47.1502857,18.924 47.4302857,19.134 47.6622857,19.402 C47.8942857,19.67 48.0722857,19.988 48.1962857,20.356 C48.3202857,20.724 48.3822857,21.128 48.3822857,21.568 L48.3822857,22.024 L43.9302857,22.024 L43.9302857,22.312 C43.9302857,22.576 43.9722857,22.822 44.0562857,23.05 C44.1402857,23.278 44.2602857,23.476 44.4162857,23.644 C44.5722857,23.812 44.7642857,23.944 44.9922857,24.04 C45.2202857,24.136 45.4782857,24.184 45.7662857,24.184 C46.1582857,24.184 46.5002857,24.092 46.7922857,23.908 C47.0842857,23.724 47.3102857,23.46 47.4702857,23.116 L48.1542857,23.608 C47.9542857,24.032 47.6422857,24.374 47.2182857,24.634 C46.7942857,24.894 46.2902857,25.024 45.7062857,25.024 Z M45.7062857,19.348 C45.4422857,19.348 45.2022857,19.394 44.9862857,19.486 C44.7702857,19.578 44.5842857,19.708 44.4282857,19.876 C44.2722857,20.044 44.1502857,20.242 44.0622857,20.47 C43.9742857,20.698 43.9302857,20.948 43.9302857,21.22 L43.9302857,21.304 L47.3502857,21.304 L47.3502857,21.172 C47.3502857,20.62 47.2002857,20.178 46.9002857,19.846 C46.6002857,19.514 46.2022857,19.348 45.7062857,19.348 Z" id="Shape"></path>
            <path d="M50.1034285,24.88 L50.1034285,18.688 L51.0634285,18.688 L51.0634285,19.828 L51.1234285,19.828 C51.2354285,19.532 51.4354285,19.268 51.7234285,19.036 C52.0114285,18.804 52.4074285,18.688 52.9114285,18.688 L53.2834285,18.688 L53.2834285,19.648 L52.7194285,19.648 C52.1994285,19.648 51.7934285,19.746 51.5014285,19.942 C51.2094285,20.138 51.0634285,20.384 51.0634285,20.68 L51.0634285,24.88 L50.1034285,24.88 Z" id="Path"></path>
            <path d="M56.9125714,25.024 C56.4885714,25.024 56.1065714,24.948 55.7665714,24.796 C55.4265714,24.644 55.1345714,24.426 54.8905714,24.142 C54.6465714,23.858 54.4585714,23.518 54.3265714,23.122 C54.1945714,22.726 54.1285714,22.28 54.1285714,21.784 C54.1285714,21.296 54.1945714,20.852 54.3265714,20.452 C54.4585714,20.052 54.6465714,19.71 54.8905714,19.426 C55.1345714,19.142 55.4265714,18.924 55.7665714,18.772 C56.1065714,18.62 56.4885714,18.544 56.9125714,18.544 C57.3285714,18.544 57.7005714,18.62 58.0285714,18.772 C58.3565714,18.924 58.6365714,19.134 58.8685714,19.402 C59.1005714,19.67 59.2785714,19.988 59.4025714,20.356 C59.5265714,20.724 59.5885714,21.128 59.5885714,21.568 L59.5885714,22.024 L55.1365714,22.024 L55.1365714,22.312 C55.1365714,22.576 55.1785714,22.822 55.2625714,23.05 C55.3465714,23.278 55.4665714,23.476 55.6225714,23.644 C55.7785714,23.812 55.9705714,23.944 56.1985714,24.04 C56.4265714,24.136 56.6845714,24.184 56.9725714,24.184 C57.3645714,24.184 57.7065714,24.092 57.9985714,23.908 C58.2905714,23.724 58.5165714,23.46 58.6765714,23.116 L59.3605714,23.608 C59.1605714,24.032 58.8485714,24.374 58.4245714,24.634 C58.0005714,24.894 57.4965714,25.024 56.9125714,25.024 Z M56.9125714,19.348 C56.6485714,19.348 56.4085714,19.394 56.1925714,19.486 C55.9765714,19.578 55.7905714,19.708 55.6345714,19.876 C55.4785714,20.044 55.3565714,20.242 55.2685714,20.47 C55.1805714,20.698 55.1365714,20.948 55.1365714,21.22 L55.1365714,21.304 L58.5565714,21.304 L58.5565714,21.172 C58.5565714,20.62 58.4065714,20.178 58.1065714,19.846 C57.8065714,19.514 57.4085714,19.348 56.9125714,19.348 Z" id="Shape"></path>
            <path d="M65.2697142,23.872 L65.2217142,23.872 C64.8457142,24.64 64.2417142,25.024 63.4097142,25.024 C63.0257142,25.024 62.6777142,24.948 62.3657142,24.796 C62.0537142,24.644 61.7877142,24.428 61.5677142,24.148 C61.3477142,23.868 61.1797142,23.528 61.0637142,23.128 C60.9477142,22.728 60.8897142,22.28 60.8897142,21.784 C60.8897142,21.288 60.9477142,20.84 61.0637142,20.44 C61.1797142,20.04 61.3477142,19.7 61.5677142,19.42 C61.7877142,19.14 62.0537142,18.924 62.3657142,18.772 C62.6777142,18.62 63.0257142,18.544 63.4097142,18.544 C63.8417142,18.544 64.2117142,18.638 64.5197142,18.826 C64.8277142,19.014 65.0617142,19.304 65.2217142,19.696 L65.2697142,19.696 L65.2697142,16 L66.2297142,16 L66.2297142,24.88 L65.2697142,24.88 L65.2697142,23.872 Z M63.6737142,24.16 C63.8897142,24.16 64.0957142,24.132 64.2917142,24.076 C64.4877142,24.02 64.6577142,23.938 64.8017142,23.83 C64.9457142,23.722 65.0597142,23.59 65.1437142,23.434 C65.2277142,23.278 65.2697142,23.1 65.2697142,22.9 L65.2697142,20.596 C65.2697142,20.428 65.2277142,20.27 65.1437142,20.122 C65.0597142,19.974 64.9457142,19.848 64.8017142,19.744 C64.6577142,19.64 64.4877142,19.558 64.2917142,19.498 C64.0957142,19.438 63.8897142,19.408 63.6737142,19.408 C63.1297142,19.408 62.7017142,19.578 62.3897142,19.918 C62.0777142,20.258 61.9217142,20.704 61.9217142,21.256 L61.9217142,22.312 C61.9217142,22.864 62.0777142,23.31 62.3897142,23.65 C62.7017142,23.99 63.1297142,24.16 63.6737142,24.16 Z" id="Shape"></path>
            <polygon id="Path" points="71.472 24.88 71.472 16.504 72.48 16.504 72.48 23.992 76.044 23.992 76.044 24.88"></polygon>
            <path d="M78.0051428,17.236 C77.7971428,17.236 77.6471428,17.186 77.5551428,17.086 C77.4631428,16.986 77.4171428,16.856 77.4171428,16.696 L77.4171428,16.54 C77.4171428,16.38 77.4631428,16.25 77.5551428,16.15 C77.6471428,16.05 77.7971428,16 78.0051428,16 C78.2131428,16 78.3631428,16.05 78.4551428,16.15 C78.5471428,16.25 78.5931428,16.38 78.5931428,16.54 L78.5931428,16.696 C78.5931428,16.856 78.5471428,16.986 78.4551428,17.086 C78.3631428,17.186 78.2131428,17.236 78.0051428,17.236 Z M77.5251428,18.688 L78.4851428,18.688 L78.4851428,24.88 L77.5251428,24.88 L77.5251428,18.688 Z" id="Shape"></path>
            <path d="M82.5222857,25.024 C81.9462857,25.024 81.4642857,24.914 81.0762857,24.694 C80.6882857,24.474 80.3542857,24.18 80.0742857,23.812 L80.7582857,23.26 C80.9982857,23.564 81.2662857,23.798 81.5622857,23.962 C81.8582857,24.126 82.2022857,24.208 82.5942857,24.208 C83.0022857,24.208 83.3202857,24.12 83.5482857,23.944 C83.7762857,23.768 83.8902857,23.52 83.8902857,23.2 C83.8902857,22.96 83.8122857,22.754 83.6562857,22.582 C83.5002857,22.41 83.2182857,22.292 82.8102857,22.228 L82.3182857,22.156 C82.0302857,22.116 81.7662857,22.054 81.5262857,21.97 C81.2862857,21.886 81.0762857,21.774 80.8962857,21.634 C80.7162857,21.494 80.5762857,21.32 80.4762857,21.112 C80.3762857,20.904 80.3262857,20.656 80.3262857,20.368 C80.3262857,20.064 80.3822857,19.798 80.4942857,19.57 C80.6062857,19.342 80.7602857,19.152 80.9562857,19 C81.1522857,18.848 81.3862857,18.734 81.6582857,18.658 C81.9302857,18.582 82.2222857,18.544 82.5342857,18.544 C83.0382857,18.544 83.4602857,18.632 83.8002857,18.808 C84.1402857,18.984 84.4382857,19.228 84.6942857,19.54 L84.0582857,20.116 C83.9222857,19.924 83.7222857,19.75 83.4582857,19.594 C83.1942857,19.438 82.8622857,19.36 82.4622857,19.36 C82.0622857,19.36 81.7602857,19.446 81.5562857,19.618 C81.3522857,19.79 81.2502857,20.024 81.2502857,20.32 C81.2502857,20.624 81.3522857,20.844 81.5562857,20.98 C81.7602857,21.116 82.0542857,21.216 82.4382857,21.28 L82.9182857,21.352 C83.6062857,21.456 84.0942857,21.654 84.3822857,21.946 C84.6702857,22.238 84.8142857,22.62 84.8142857,23.092 C84.8142857,23.692 84.6102857,24.164 84.2022857,24.508 C83.7942857,24.852 83.2342857,25.024 82.5222857,25.024 Z" id="Path"></path>
            <path d="M87.9274285,24.88 C87.5914285,24.88 87.3374285,24.786 87.1654285,24.598 C86.9934285,24.41 86.9074285,24.164 86.9074285,23.86 L86.9074285,19.528 L85.8874285,19.528 L85.8874285,18.688 L86.4634285,18.688 C86.6714285,18.688 86.8134285,18.646 86.8894285,18.562 C86.9654285,18.478 87.0034285,18.332 87.0034285,18.124 L87.0034285,16.972 L87.8674285,16.972 L87.8674285,18.688 L89.2234285,18.688 L89.2234285,19.528 L87.8674285,19.528 L87.8674285,24.04 L89.1274285,24.04 L89.1274285,24.88 L87.9274285,24.88 Z" id="Path"></path>
            <path d="M2.676,36.056 C3.244,36.056 3.67,35.926 3.954,35.666 C4.238,35.406 4.38,35.072 4.38,34.664 L4.38,34.58 C4.38,34.14 4.242,33.81 3.966,33.59 C3.69,33.37 3.328,33.26 2.88,33.26 C2.448,33.26 2.096,33.354 1.824,33.542 C1.552,33.73 1.328,33.984 1.152,34.304 L0.408,33.728 C0.512,33.56 0.638,33.394 0.786,33.23 C0.934,33.066 1.108,32.92 1.308,32.792 C1.508,32.664 1.74,32.56 2.004,32.48 C2.268,32.4 2.568,32.36 2.904,32.36 C3.256,32.36 3.588,32.406 3.9,32.498 C4.212,32.59 4.482,32.726 4.71,32.906 C4.938,33.086 5.118,33.308 5.25,33.572 C5.382,33.836 5.448,34.136 5.448,34.472 C5.448,34.744 5.406,34.988 5.322,35.204 C5.238,35.42 5.124,35.608 4.98,35.768 C4.836,35.928 4.666,36.064 4.47,36.176 C4.274,36.288 4.064,36.372 3.84,36.428 L3.84,36.476 C4.064,36.524 4.282,36.602 4.494,36.71 C4.706,36.818 4.894,36.958 5.058,37.13 C5.222,37.302 5.354,37.51 5.454,37.754 C5.554,37.998 5.604,38.276 5.604,38.588 C5.604,38.948 5.536,39.278 5.4,39.578 C5.264,39.878 5.072,40.134 4.824,40.346 C4.576,40.558 4.276,40.724 3.924,40.844 C3.572,40.964 3.184,41.024 2.76,41.024 C2.4,41.024 2.08,40.984 1.8,40.904 C1.52,40.824 1.272,40.716 1.056,40.58 C0.84,40.444 0.65,40.292 0.486,40.124 C0.322,39.956 0.176,39.78 0.048,39.596 L0.804,39.02 C0.908,39.188 1.022,39.34 1.146,39.476 C1.27,39.612 1.408,39.728 1.56,39.824 C1.712,39.92 1.884,39.994 2.076,40.046 C2.268,40.098 2.492,40.124 2.748,40.124 C3.34,40.124 3.788,39.99 4.092,39.722 C4.396,39.454 4.548,39.072 4.548,38.576 L4.548,38.48 C4.548,37.984 4.396,37.602 4.092,37.334 C3.788,37.066 3.34,36.932 2.748,36.932 L1.764,36.932 L1.764,36.056 L2.676,36.056 Z" id="Path"></path>
            <path d="M8.51314285,41.024 C8.25714285,41.024 8.07114285,40.96 7.95514285,40.832 C7.83914285,40.704 7.78114285,40.536 7.78114285,40.328 L7.78114285,40.172 C7.78114285,39.964 7.83914285,39.796 7.95514285,39.668 C8.07114285,39.54 8.25714285,39.476 8.51314285,39.476 C8.76914285,39.476 8.95514285,39.54 9.07114285,39.668 C9.18714285,39.796 9.24514285,39.964 9.24514285,40.172 L9.24514285,40.328 C9.24514285,40.536 9.18714285,40.704 9.07114285,40.832 C8.95514285,40.96 8.76914285,41.024 8.51314285,41.024 Z" id="Path"></path>
            <path d="M26.4068571,41.024 C25.8628571,41.024 25.3728571,40.93 24.9368571,40.742 C24.5008571,40.554 24.1288571,40.278 23.8208571,39.914 C23.5128571,39.55 23.2748571,39.098 23.1068571,38.558 C22.9388571,38.018 22.8548571,37.396 22.8548571,36.692 C22.8548571,35.988 22.9388571,35.368 23.1068571,34.832 C23.2748571,34.296 23.5128571,33.844 23.8208571,33.476 C24.1288571,33.108 24.5008571,32.83 24.9368571,32.642 C25.3728571,32.454 25.8628571,32.36 26.4068571,32.36 C26.9428571,32.36 27.4308571,32.454 27.8708571,32.642 C28.3108571,32.83 28.6848571,33.108 28.9928571,33.476 C29.3008571,33.844 29.5388571,34.296 29.7068571,34.832 C29.8748571,35.368 29.9588571,35.988 29.9588571,36.692 C29.9588571,37.396 29.8748571,38.018 29.7068571,38.558 C29.5388571,39.098 29.3008571,39.55 28.9928571,39.914 C28.6848571,40.278 28.3108571,40.554 27.8708571,40.742 C27.4308571,40.93 26.9428571,41.024 26.4068571,41.024 Z M26.4068571,40.124 C26.7668571,40.124 27.0988571,40.06 27.4028571,39.932 C27.7068571,39.804 27.9688571,39.62 28.1888571,39.38 C28.4088571,39.14 28.5788571,38.852 28.6988571,38.516 C28.8188571,38.18 28.8788571,37.804 28.8788571,37.388 L28.8788571,35.996 C28.8788571,35.58 28.8188571,35.204 28.6988571,34.868 C28.5788571,34.532 28.4088571,34.244 28.1888571,34.004 C27.9688571,33.764 27.7068571,33.58 27.4028571,33.452 C27.0988571,33.324 26.7668571,33.26 26.4068571,33.26 C26.0468571,33.26 25.7148571,33.324 25.4108571,33.452 C25.1068571,33.58 24.8448571,33.764 24.6248571,34.004 C24.4048571,34.244 24.2348571,34.532 24.1148571,34.868 C23.9948571,35.204 23.9348571,35.58 23.9348571,35.996 L23.9348571,37.388 C23.9348571,37.804 23.9948571,38.18 24.1148571,38.516 C24.2348571,38.852 24.4048571,39.14 24.6248571,39.38 C24.8448571,39.62 25.1068571,39.804 25.4108571,39.932 C25.7148571,40.06 26.0468571,40.124 26.4068571,40.124 Z" id="Shape"></path>
            <path d="M31.812,40.88 L31.812,34.688 L32.772,34.688 L32.772,35.828 L32.832,35.828 C32.944,35.532 33.144,35.268 33.432,35.036 C33.72,34.804 34.116,34.688 34.62,34.688 L34.992,34.688 L34.992,35.648 L34.428,35.648 C33.908,35.648 33.502,35.746 33.21,35.942 C32.918,36.138 32.772,36.384 32.772,36.68 L32.772,40.88 L31.812,40.88 Z" id="Path"></path>
            <path d="M40.2411428,39.872 L40.1931428,39.872 C39.8171428,40.64 39.2131428,41.024 38.3811428,41.024 C37.9971428,41.024 37.6491428,40.948 37.3371428,40.796 C37.0251428,40.644 36.7591428,40.428 36.5391428,40.148 C36.3191428,39.868 36.1511428,39.528 36.0351428,39.128 C35.9191428,38.728 35.8611428,38.28 35.8611428,37.784 C35.8611428,37.288 35.9191428,36.84 36.0351428,36.44 C36.1511428,36.04 36.3191428,35.7 36.5391428,35.42 C36.7591428,35.14 37.0251428,34.924 37.3371428,34.772 C37.6491428,34.62 37.9971428,34.544 38.3811428,34.544 C38.8131428,34.544 39.1831428,34.638 39.4911428,34.826 C39.7991428,35.014 40.0331428,35.304 40.1931428,35.696 L40.2411428,35.696 L40.2411428,32 L41.2011428,32 L41.2011428,40.88 L40.2411428,40.88 L40.2411428,39.872 Z M38.6451428,40.16 C38.8611428,40.16 39.0671428,40.132 39.2631428,40.076 C39.4591428,40.02 39.6291428,39.938 39.7731428,39.83 C39.9171428,39.722 40.0311428,39.59 40.1151428,39.434 C40.1991428,39.278 40.2411428,39.1 40.2411428,38.9 L40.2411428,36.596 C40.2411428,36.428 40.1991428,36.27 40.1151428,36.122 C40.0311428,35.974 39.9171428,35.848 39.7731428,35.744 C39.6291428,35.64 39.4591428,35.558 39.2631428,35.498 C39.0671428,35.438 38.8611428,35.408 38.6451428,35.408 C38.1011428,35.408 37.6731428,35.578 37.3611428,35.918 C37.0491428,36.258 36.8931428,36.704 36.8931428,37.256 L36.8931428,38.312 C36.8931428,38.864 37.0491428,39.31 37.3611428,39.65 C37.6731428,39.99 38.1011428,40.16 38.6451428,40.16 Z" id="Shape"></path>
            <path d="M45.7062857,41.024 C45.2822857,41.024 44.9002857,40.948 44.5602857,40.796 C44.2202857,40.644 43.9282857,40.426 43.6842857,40.142 C43.4402857,39.858 43.2522857,39.518 43.1202857,39.122 C42.9882857,38.726 42.9222857,38.28 42.9222857,37.784 C42.9222857,37.296 42.9882857,36.852 43.1202857,36.452 C43.2522857,36.052 43.4402857,35.71 43.6842857,35.426 C43.9282857,35.142 44.2202857,34.924 44.5602857,34.772 C44.9002857,34.62 45.2822857,34.544 45.7062857,34.544 C46.1222857,34.544 46.4942857,34.62 46.8222857,34.772 C47.1502857,34.924 47.4302857,35.134 47.6622857,35.402 C47.8942857,35.67 48.0722857,35.988 48.1962857,36.356 C48.3202857,36.724 48.3822857,37.128 48.3822857,37.568 L48.3822857,38.024 L43.9302857,38.024 L43.9302857,38.312 C43.9302857,38.576 43.9722857,38.822 44.0562857,39.05 C44.1402857,39.278 44.2602857,39.476 44.4162857,39.644 C44.5722857,39.812 44.7642857,39.944 44.9922857,40.04 C45.2202857,40.136 45.4782857,40.184 45.7662857,40.184 C46.1582857,40.184 46.5002857,40.092 46.7922857,39.908 C47.0842857,39.724 47.3102857,39.46 47.4702857,39.116 L48.1542857,39.608 C47.9542857,40.032 47.6422857,40.374 47.2182857,40.634 C46.7942857,40.894 46.2902857,41.024 45.7062857,41.024 Z M45.7062857,35.348 C45.4422857,35.348 45.2022857,35.394 44.9862857,35.486 C44.7702857,35.578 44.5842857,35.708 44.4282857,35.876 C44.2722857,36.044 44.1502857,36.242 44.0622857,36.47 C43.9742857,36.698 43.9302857,36.948 43.9302857,37.22 L43.9302857,37.304 L47.3502857,37.304 L47.3502857,37.172 C47.3502857,36.62 47.2002857,36.178 46.9002857,35.846 C46.6002857,35.514 46.2022857,35.348 45.7062857,35.348 Z" id="Shape"></path>
            <path d="M50.1034285,40.88 L50.1034285,34.688 L51.0634285,34.688 L51.0634285,35.828 L51.1234285,35.828 C51.2354285,35.532 51.4354285,35.268 51.7234285,35.036 C52.0114285,34.804 52.4074285,34.688 52.9114285,34.688 L53.2834285,34.688 L53.2834285,35.648 L52.7194285,35.648 C52.1994285,35.648 51.7934285,35.746 51.5014285,35.942 C51.2094285,36.138 51.0634285,36.384 51.0634285,36.68 L51.0634285,40.88 L50.1034285,40.88 Z" id="Path"></path>
            <path d="M56.9125714,41.024 C56.4885714,41.024 56.1065714,40.948 55.7665714,40.796 C55.4265714,40.644 55.1345714,40.426 54.8905714,40.142 C54.6465714,39.858 54.4585714,39.518 54.3265714,39.122 C54.1945714,38.726 54.1285714,38.28 54.1285714,37.784 C54.1285714,37.296 54.1945714,36.852 54.3265714,36.452 C54.4585714,36.052 54.6465714,35.71 54.8905714,35.426 C55.1345714,35.142 55.4265714,34.924 55.7665714,34.772 C56.1065714,34.62 56.4885714,34.544 56.9125714,34.544 C57.3285714,34.544 57.7005714,34.62 58.0285714,34.772 C58.3565714,34.924 58.6365714,35.134 58.8685714,35.402 C59.1005714,35.67 59.2785714,35.988 59.4025714,36.356 C59.5265714,36.724 59.5885714,37.128 59.5885714,37.568 L59.5885714,38.024 L55.1365714,38.024 L55.1365714,38.312 C55.1365714,38.576 55.1785714,38.822 55.2625714,39.05 C55.3465714,39.278 55.4665714,39.476 55.6225714,39.644 C55.7785714,39.812 55.9705714,39.944 56.1985714,40.04 C56.4265714,40.136 56.6845714,40.184 56.9725714,40.184 C57.3645714,40.184 57.7065714,40.092 57.9985714,39.908 C58.2905714,39.724 58.5165714,39.46 58.6765714,39.116 L59.3605714,39.608 C59.1605714,40.032 58.8485714,40.374 58.4245714,40.634 C58.0005714,40.894 57.4965714,41.024 56.9125714,41.024 Z M56.9125714,35.348 C56.6485714,35.348 56.4085714,35.394 56.1925714,35.486 C55.9765714,35.578 55.7905714,35.708 55.6345714,35.876 C55.4785714,36.044 55.3565714,36.242 55.2685714,36.47 C55.1805714,36.698 55.1365714,36.948 55.1365714,37.22 L55.1365714,37.304 L58.5565714,37.304 L58.5565714,37.172 C58.5565714,36.62 58.4065714,36.178 58.1065714,35.846 C57.8065714,35.514 57.4085714,35.348 56.9125714,35.348 Z" id="Shape"></path>
            <path d="M65.2697142,39.872 L65.2217142,39.872 C64.8457142,40.64 64.2417142,41.024 63.4097142,41.024 C63.0257142,41.024 62.6777142,40.948 62.3657142,40.796 C62.0537142,40.644 61.7877142,40.428 61.5677142,40.148 C61.3477142,39.868 61.1797142,39.528 61.0637142,39.128 C60.9477142,38.728 60.8897142,38.28 60.8897142,37.784 C60.8897142,37.288 60.9477142,36.84 61.0637142,36.44 C61.1797142,36.04 61.3477142,35.7 61.5677142,35.42 C61.7877142,35.14 62.0537142,34.924 62.3657142,34.772 C62.6777142,34.62 63.0257142,34.544 63.4097142,34.544 C63.8417142,34.544 64.2117142,34.638 64.5197142,34.826 C64.8277142,35.014 65.0617142,35.304 65.2217142,35.696 L65.2697142,35.696 L65.2697142,32 L66.2297142,32 L66.2297142,40.88 L65.2697142,40.88 L65.2697142,39.872 Z M63.6737142,40.16 C63.8897142,40.16 64.0957142,40.132 64.2917142,40.076 C64.4877142,40.02 64.6577142,39.938 64.8017142,39.83 C64.9457142,39.722 65.0597142,39.59 65.1437142,39.434 C65.2277142,39.278 65.2697142,39.1 65.2697142,38.9 L65.2697142,36.596 C65.2697142,36.428 65.2277142,36.27 65.1437142,36.122 C65.0597142,35.974 64.9457142,35.848 64.8017142,35.744 C64.6577142,35.64 64.4877142,35.558 64.2917142,35.498 C64.0957142,35.438 63.8897142,35.408 63.6737142,35.408 C63.1297142,35.408 62.7017142,35.578 62.3897142,35.918 C62.0777142,36.258 61.9217142,36.704 61.9217142,37.256 L61.9217142,38.312 C61.9217142,38.864 62.0777142,39.31 62.3897142,39.65 C62.7017142,39.99 63.1297142,40.16 63.6737142,40.16 Z" id="Shape"></path>
            <polygon id="Path" points="71.472 40.88 71.472 32.504 72.48 32.504 72.48 39.992 76.044 39.992 76.044 40.88"></polygon>
            <path d="M78.0051428,33.236 C77.7971428,33.236 77.6471428,33.186 77.5551428,33.086 C77.4631428,32.986 77.4171428,32.856 77.4171428,32.696 L77.4171428,32.54 C77.4171428,32.38 77.4631428,32.25 77.5551428,32.15 C77.6471428,32.05 77.7971428,32 78.0051428,32 C78.2131428,32 78.3631428,32.05 78.4551428,32.15 C78.5471428,32.25 78.5931428,32.38 78.5931428,32.54 L78.5931428,32.696 C78.5931428,32.856 78.5471428,32.986 78.4551428,33.086 C78.3631428,33.186 78.2131428,33.236 78.0051428,33.236 Z M77.5251428,34.688 L78.4851428,34.688 L78.4851428,40.88 L77.5251428,40.88 L77.5251428,34.688 Z" id="Shape"></path>
            <path d="M82.5222857,41.024 C81.9462857,41.024 81.4642857,40.914 81.0762857,40.694 C80.6882857,40.474 80.3542857,40.18 80.0742857,39.812 L80.7582857,39.26 C80.9982857,39.564 81.2662857,39.798 81.5622857,39.962 C81.8582857,40.126 82.2022857,40.208 82.5942857,40.208 C83.0022857,40.208 83.3202857,40.12 83.5482857,39.944 C83.7762857,39.768 83.8902857,39.52 83.8902857,39.2 C83.8902857,38.96 83.8122857,38.754 83.6562857,38.582 C83.5002857,38.41 83.2182857,38.292 82.8102857,38.228 L82.3182857,38.156 C82.0302857,38.116 81.7662857,38.054 81.5262857,37.97 C81.2862857,37.886 81.0762857,37.774 80.8962857,37.634 C80.7162857,37.494 80.5762857,37.32 80.4762857,37.112 C80.3762857,36.904 80.3262857,36.656 80.3262857,36.368 C80.3262857,36.064 80.3822857,35.798 80.4942857,35.57 C80.6062857,35.342 80.7602857,35.152 80.9562857,35 C81.1522857,34.848 81.3862857,34.734 81.6582857,34.658 C81.9302857,34.582 82.2222857,34.544 82.5342857,34.544 C83.0382857,34.544 83.4602857,34.632 83.8002857,34.808 C84.1402857,34.984 84.4382857,35.228 84.6942857,35.54 L84.0582857,36.116 C83.9222857,35.924 83.7222857,35.75 83.4582857,35.594 C83.1942857,35.438 82.8622857,35.36 82.4622857,35.36 C82.0622857,35.36 81.7602857,35.446 81.5562857,35.618 C81.3522857,35.79 81.2502857,36.024 81.2502857,36.32 C81.2502857,36.624 81.3522857,36.844 81.5562857,36.98 C81.7602857,37.116 82.0542857,37.216 82.4382857,37.28 L82.9182857,37.352 C83.6062857,37.456 84.0942857,37.654 84.3822857,37.946 C84.6702857,38.238 84.8142857,38.62 84.8142857,39.092 C84.8142857,39.692 84.6102857,40.164 84.2022857,40.508 C83.7942857,40.852 83.2342857,41.024 82.5222857,41.024 Z" id="Path"></path>
            <path d="M87.9274285,40.88 C87.5914285,40.88 87.3374285,40.786 87.1654285,40.598 C86.9934285,40.41 86.9074285,40.164 86.9074285,39.86 L86.9074285,35.528 L85.8874285,35.528 L85.8874285,34.688 L86.4634285,34.688 C86.6714285,34.688 86.8134285,34.646 86.8894285,34.562 C86.9654285,34.478 87.0034285,34.332 87.0034285,34.124 L87.0034285,32.972 L87.8674285,32.972 L87.8674285,34.688 L89.2234285,34.688 L89.2234285,35.528 L87.8674285,35.528 L87.8674285,40.04 L89.1274285,40.04 L89.1274285,40.88 L87.9274285,40.88 Z" id="Path"></path>
            <path d="M4.044,56.88 L4.044,55.236 L0,55.236 L0,54.348 L3.504,48.504 L5.004,48.504 L5.004,54.396 L6.216,54.396 L6.216,55.236 L5.004,55.236 L5.004,56.88 L4.044,56.88 Z M0.948,54.396 L4.044,54.396 L4.044,49.284 L3.984,49.284 L0.948,54.396 Z" id="Shape"></path>
            <path d="M8.51314285,57.024 C8.25714285,57.024 8.07114285,56.96 7.95514285,56.832 C7.83914285,56.704 7.78114285,56.536 7.78114285,56.328 L7.78114285,56.172 C7.78114285,55.964 7.83914285,55.796 7.95514285,55.668 C8.07114285,55.54 8.25714285,55.476 8.51314285,55.476 C8.76914285,55.476 8.95514285,55.54 9.07114285,55.668 C9.18714285,55.796 9.24514285,55.964 9.24514285,56.172 L9.24514285,56.328 C9.24514285,56.536 9.18714285,56.704 9.07114285,56.832 C8.95514285,56.96 8.76914285,57.024 8.51314285,57.024 Z" id="Path"></path>
            <path d="M26.4068571,57.024 C25.8628571,57.024 25.3728571,56.93 24.9368571,56.742 C24.5008571,56.554 24.1288571,56.278 23.8208571,55.914 C23.5128571,55.55 23.2748571,55.098 23.1068571,54.558 C22.9388571,54.018 22.8548571,53.396 22.8548571,52.692 C22.8548571,51.988 22.9388571,51.368 23.1068571,50.832 C23.2748571,50.296 23.5128571,49.844 23.8208571,49.476 C24.1288571,49.108 24.5008571,48.83 24.9368571,48.642 C25.3728571,48.454 25.8628571,48.36 26.4068571,48.36 C26.9428571,48.36 27.4308571,48.454 27.8708571,48.642 C28.3108571,48.83 28.6848571,49.108 28.9928571,49.476 C29.3008571,49.844 29.5388571,50.296 29.7068571,50.832 C29.8748571,51.368 29.9588571,51.988 29.9588571,52.692 C29.9588571,53.396 29.8748571,54.018 29.7068571,54.558 C29.5388571,55.098 29.3008571,55.55 28.9928571,55.914 C28.6848571,56.278 28.3108571,56.554 27.8708571,56.742 C27.4308571,56.93 26.9428571,57.024 26.4068571,57.024 Z M26.4068571,56.124 C26.7668571,56.124 27.0988571,56.06 27.4028571,55.932 C27.7068571,55.804 27.9688571,55.62 28.1888571,55.38 C28.4088571,55.14 28.5788571,54.852 28.6988571,54.516 C28.8188571,54.18 28.8788571,53.804 28.8788571,53.388 L28.8788571,51.996 C28.8788571,51.58 28.8188571,51.204 28.6988571,50.868 C28.5788571,50.532 28.4088571,50.244 28.1888571,50.004 C27.9688571,49.764 27.7068571,49.58 27.4028571,49.452 C27.0988571,49.324 26.7668571,49.26 26.4068571,49.26 C26.0468571,49.26 25.7148571,49.324 25.4108571,49.452 C25.1068571,49.58 24.8448571,49.764 24.6248571,50.004 C24.4048571,50.244 24.2348571,50.532 24.1148571,50.868 C23.9948571,51.204 23.9348571,51.58 23.9348571,51.996 L23.9348571,53.388 C23.9348571,53.804 23.9948571,54.18 24.1148571,54.516 C24.2348571,54.852 24.4048571,55.14 24.6248571,55.38 C24.8448571,55.62 25.1068571,55.804 25.4108571,55.932 C25.7148571,56.06 26.0468571,56.124 26.4068571,56.124 Z" id="Shape"></path>
            <path d="M31.812,56.88 L31.812,50.688 L32.772,50.688 L32.772,51.828 L32.832,51.828 C32.944,51.532 33.144,51.268 33.432,51.036 C33.72,50.804 34.116,50.688 34.62,50.688 L34.992,50.688 L34.992,51.648 L34.428,51.648 C33.908,51.648 33.502,51.746 33.21,51.942 C32.918,52.138 32.772,52.384 32.772,52.68 L32.772,56.88 L31.812,56.88 Z" id="Path"></path>
            <path d="M40.2411428,55.872 L40.1931428,55.872 C39.8171428,56.64 39.2131428,57.024 38.3811428,57.024 C37.9971428,57.024 37.6491428,56.948 37.3371428,56.796 C37.0251428,56.644 36.7591428,56.428 36.5391428,56.148 C36.3191428,55.868 36.1511428,55.528 36.0351428,55.128 C35.9191428,54.728 35.8611428,54.28 35.8611428,53.784 C35.8611428,53.288 35.9191428,52.84 36.0351428,52.44 C36.1511428,52.04 36.3191428,51.7 36.5391428,51.42 C36.7591428,51.14 37.0251428,50.924 37.3371428,50.772 C37.6491428,50.62 37.9971428,50.544 38.3811428,50.544 C38.8131428,50.544 39.1831428,50.638 39.4911428,50.826 C39.7991428,51.014 40.0331428,51.304 40.1931428,51.696 L40.2411428,51.696 L40.2411428,48 L41.2011428,48 L41.2011428,56.88 L40.2411428,56.88 L40.2411428,55.872 Z M38.6451428,56.16 C38.8611428,56.16 39.0671428,56.132 39.2631428,56.076 C39.4591428,56.02 39.6291428,55.938 39.7731428,55.83 C39.9171428,55.722 40.0311428,55.59 40.1151428,55.434 C40.1991428,55.278 40.2411428,55.1 40.2411428,54.9 L40.2411428,52.596 C40.2411428,52.428 40.1991428,52.27 40.1151428,52.122 C40.0311428,51.974 39.9171428,51.848 39.7731428,51.744 C39.6291428,51.64 39.4591428,51.558 39.2631428,51.498 C39.0671428,51.438 38.8611428,51.408 38.6451428,51.408 C38.1011428,51.408 37.6731428,51.578 37.3611428,51.918 C37.0491428,52.258 36.8931428,52.704 36.8931428,53.256 L36.8931428,54.312 C36.8931428,54.864 37.0491428,55.31 37.3611428,55.65 C37.6731428,55.99 38.1011428,56.16 38.6451428,56.16 Z" id="Shape"></path>
            <path d="M45.7062857,57.024 C45.2822857,57.024 44.9002857,56.948 44.5602857,56.796 C44.2202857,56.644 43.9282857,56.426 43.6842857,56.142 C43.4402857,55.858 43.2522857,55.518 43.1202857,55.122 C42.9882857,54.726 42.9222857,54.28 42.9222857,53.784 C42.9222857,53.296 42.9882857,52.852 43.1202857,52.452 C43.2522857,52.052 43.4402857,51.71 43.6842857,51.426 C43.9282857,51.142 44.2202857,50.924 44.5602857,50.772 C44.9002857,50.62 45.2822857,50.544 45.7062857,50.544 C46.1222857,50.544 46.4942857,50.62 46.8222857,50.772 C47.1502857,50.924 47.4302857,51.134 47.6622857,51.402 C47.8942857,51.67 48.0722857,51.988 48.1962857,52.356 C48.3202857,52.724 48.3822857,53.128 48.3822857,53.568 L48.3822857,54.024 L43.9302857,54.024 L43.9302857,54.312 C43.9302857,54.576 43.9722857,54.822 44.0562857,55.05 C44.1402857,55.278 44.2602857,55.476 44.4162857,55.644 C44.5722857,55.812 44.7642857,55.944 44.9922857,56.04 C45.2202857,56.136 45.4782857,56.184 45.7662857,56.184 C46.1582857,56.184 46.5002857,56.092 46.7922857,55.908 C47.0842857,55.724 47.3102857,55.46 47.4702857,55.116 L48.1542857,55.608 C47.9542857,56.032 47.6422857,56.374 47.2182857,56.634 C46.7942857,56.894 46.2902857,57.024 45.7062857,57.024 Z M45.7062857,51.348 C45.4422857,51.348 45.2022857,51.394 44.9862857,51.486 C44.7702857,51.578 44.5842857,51.708 44.4282857,51.876 C44.2722857,52.044 44.1502857,52.242 44.0622857,52.47 C43.9742857,52.698 43.9302857,52.948 43.9302857,53.22 L43.9302857,53.304 L47.3502857,53.304 L47.3502857,53.172 C47.3502857,52.62 47.2002857,52.178 46.9002857,51.846 C46.6002857,51.514 46.2022857,51.348 45.7062857,51.348 Z" id="Shape"></path>
            <path d="M50.1034285,56.88 L50.1034285,50.688 L51.0634285,50.688 L51.0634285,51.828 L51.1234285,51.828 C51.2354285,51.532 51.4354285,51.268 51.7234285,51.036 C52.0114285,50.804 52.4074285,50.688 52.9114285,50.688 L53.2834285,50.688 L53.2834285,51.648 L52.7194285,51.648 C52.1994285,51.648 51.7934285,51.746 51.5014285,51.942 C51.2094285,52.138 51.0634285,52.384 51.0634285,52.68 L51.0634285,56.88 L50.1034285,56.88 Z" id="Path"></path>
            <path d="M56.9125714,57.024 C56.4885714,57.024 56.1065714,56.948 55.7665714,56.796 C55.4265714,56.644 55.1345714,56.426 54.8905714,56.142 C54.6465714,55.858 54.4585714,55.518 54.3265714,55.122 C54.1945714,54.726 54.1285714,54.28 54.1285714,53.784 C54.1285714,53.296 54.1945714,52.852 54.3265714,52.452 C54.4585714,52.052 54.6465714,51.71 54.8905714,51.426 C55.1345714,51.142 55.4265714,50.924 55.7665714,50.772 C56.1065714,50.62 56.4885714,50.544 56.9125714,50.544 C57.3285714,50.544 57.7005714,50.62 58.0285714,50.772 C58.3565714,50.924 58.6365714,51.134 58.8685714,51.402 C59.1005714,51.67 59.2785714,51.988 59.4025714,52.356 C59.5265714,52.724 59.5885714,53.128 59.5885714,53.568 L59.5885714,54.024 L55.1365714,54.024 L55.1365714,54.312 C55.1365714,54.576 55.1785714,54.822 55.2625714,55.05 C55.3465714,55.278 55.4665714,55.476 55.6225714,55.644 C55.7785714,55.812 55.9705714,55.944 56.1985714,56.04 C56.4265714,56.136 56.6845714,56.184 56.9725714,56.184 C57.3645714,56.184 57.7065714,56.092 57.9985714,55.908 C58.2905714,55.724 58.5165714,55.46 58.6765714,55.116 L59.3605714,55.608 C59.1605714,56.032 58.8485714,56.374 58.4245714,56.634 C58.0005714,56.894 57.4965714,57.024 56.9125714,57.024 Z M56.9125714,51.348 C56.6485714,51.348 56.4085714,51.394 56.1925714,51.486 C55.9765714,51.578 55.7905714,51.708 55.6345714,51.876 C55.4785714,52.044 55.3565714,52.242 55.2685714,52.47 C55.1805714,52.698 55.1365714,52.948 55.1365714,53.22 L55.1365714,53.304 L58.5565714,53.304 L58.5565714,53.172 C58.5565714,52.62 58.4065714,52.178 58.1065714,51.846 C57.8065714,51.514 57.4085714,51.348 56.9125714,51.348 Z" id="Shape"></path>
            <path d="M65.2697142,55.872 L65.2217142,55.872 C64.8457142,56.64 64.2417142,57.024 63.4097142,57.024 C63.0257142,57.024 62.6777142,56.948 62.3657142,56.796 C62.0537142,56.644 61.7877142,56.428 61.5677142,56.148 C61.3477142,55.868 61.1797142,55.528 61.0637142,55.128 C60.9477142,54.728 60.8897142,54.28 60.8897142,53.784 C60.8897142,53.288 60.9477142,52.84 61.0637142,52.44 C61.1797142,52.04 61.3477142,51.7 61.5677142,51.42 C61.7877142,51.14 62.0537142,50.924 62.3657142,50.772 C62.6777142,50.62 63.0257142,50.544 63.4097142,50.544 C63.8417142,50.544 64.2117142,50.638 64.5197142,50.826 C64.8277142,51.014 65.0617142,51.304 65.2217142,51.696 L65.2697142,51.696 L65.2697142,48 L66.2297142,48 L66.2297142,56.88 L65.2697142,56.88 L65.2697142,55.872 Z M63.6737142,56.16 C63.8897142,56.16 64.0957142,56.132 64.2917142,56.076 C64.4877142,56.02 64.6577142,55.938 64.8017142,55.83 C64.9457142,55.722 65.0597142,55.59 65.1437142,55.434 C65.2277142,55.278 65.2697142,55.1 65.2697142,54.9 L65.2697142,52.596 C65.2697142,52.428 65.2277142,52.27 65.1437142,52.122 C65.0597142,51.974 64.9457142,51.848 64.8017142,51.744 C64.6577142,51.64 64.4877142,51.558 64.2917142,51.498 C64.0957142,51.438 63.8897142,51.408 63.6737142,51.408 C63.1297142,51.408 62.7017142,51.578 62.3897142,51.918 C62.0777142,52.258 61.9217142,52.704 61.9217142,53.256 L61.9217142,54.312 C61.9217142,54.864 62.0777142,55.31 62.3897142,55.65 C62.7017142,55.99 63.1297142,56.16 63.6737142,56.16 Z" id="Shape"></path>
            <polygon id="Path" points="71.472 56.88 71.472 48.504 72.48 48.504 72.48 55.992 76.044 55.992 76.044 56.88"></polygon>
            <path d="M78.0051428,49.236 C77.7971428,49.236 77.6471428,49.186 77.5551428,49.086 C77.4631428,48.986 77.4171428,48.856 77.4171428,48.696 L77.4171428,48.54 C77.4171428,48.38 77.4631428,48.25 77.5551428,48.15 C77.6471428,48.05 77.7971428,48 78.0051428,48 C78.2131428,48 78.3631428,48.05 78.4551428,48.15 C78.5471428,48.25 78.5931428,48.38 78.5931428,48.54 L78.5931428,48.696 C78.5931428,48.856 78.5471428,48.986 78.4551428,49.086 C78.3631428,49.186 78.2131428,49.236 78.0051428,49.236 Z M77.5251428,50.688 L78.4851428,50.688 L78.4851428,56.88 L77.5251428,56.88 L77.5251428,50.688 Z" id="Shape"></path>
            <path d="M82.5222857,57.024 C81.9462857,57.024 81.4642857,56.914 81.0762857,56.694 C80.6882857,56.474 80.3542857,56.18 80.0742857,55.812 L80.7582857,55.26 C80.9982857,55.564 81.2662857,55.798 81.5622857,55.962 C81.8582857,56.126 82.2022857,56.208 82.5942857,56.208 C83.0022857,56.208 83.3202857,56.12 83.5482857,55.944 C83.7762857,55.768 83.8902857,55.52 83.8902857,55.2 C83.8902857,54.96 83.8122857,54.754 83.6562857,54.582 C83.5002857,54.41 83.2182857,54.292 82.8102857,54.228 L82.3182857,54.156 C82.0302857,54.116 81.7662857,54.054 81.5262857,53.97 C81.2862857,53.886 81.0762857,53.774 80.8962857,53.634 C80.7162857,53.494 80.5762857,53.32 80.4762857,53.112 C80.3762857,52.904 80.3262857,52.656 80.3262857,52.368 C80.3262857,52.064 80.3822857,51.798 80.4942857,51.57 C80.6062857,51.342 80.7602857,51.152 80.9562857,51 C81.1522857,50.848 81.3862857,50.734 81.6582857,50.658 C81.9302857,50.582 82.2222857,50.544 82.5342857,50.544 C83.0382857,50.544 83.4602857,50.632 83.8002857,50.808 C84.1402857,50.984 84.4382857,51.228 84.6942857,51.54 L84.0582857,52.116 C83.9222857,51.924 83.7222857,51.75 83.4582857,51.594 C83.1942857,51.438 82.8622857,51.36 82.4622857,51.36 C82.0622857,51.36 81.7602857,51.446 81.5562857,51.618 C81.3522857,51.79 81.2502857,52.024 81.2502857,52.32 C81.2502857,52.624 81.3522857,52.844 81.5562857,52.98 C81.7602857,53.116 82.0542857,53.216 82.4382857,53.28 L82.9182857,53.352 C83.6062857,53.456 84.0942857,53.654 84.3822857,53.946 C84.6702857,54.238 84.8142857,54.62 84.8142857,55.092 C84.8142857,55.692 84.6102857,56.164 84.2022857,56.508 C83.7942857,56.852 83.2342857,57.024 82.5222857,57.024 Z" id="Path"></path>
            <path d="M87.9274285,56.88 C87.5914285,56.88 87.3374285,56.786 87.1654285,56.598 C86.9934285,56.41 86.9074285,56.164 86.9074285,55.86 L86.9074285,51.528 L85.8874285,51.528 L85.8874285,50.688 L86.4634285,50.688 C86.6714285,50.688 86.8134285,50.646 86.8894285,50.562 C86.9654285,50.478 87.0034285,50.332 87.0034285,50.124 L87.0034285,48.972 L87.8674285,48.972 L87.8674285,50.688 L89.2234285,50.688 L89.2234285,51.528 L87.8674285,51.528 L87.8674285,56.04 L89.1274285,56.04 L89.1274285,56.88 L87.9274285,56.88 Z" id="Path"></path>
        </g>
    </g>
</svg>