<svg width="640" height="360" viewBox="0 0 640 360" fill="none" xmlns="http://www.w3.org/2000/svg">
<g id="text-unstable">
<g id="Group 2">
<mask id="mask0_714_5383" style="mask-type:luminance" maskUnits="userSpaceOnUse" x="180" y="146" width="124" height="28">
<path id="Clip 1" fill-rule="evenodd" clip-rule="evenodd" d="M180 146H304V174H180V146Z" fill="white"/>
</mask>
<g mask="url(#mask0_714_5383)">
<g id="Hello world">
<path id="Path" d="M192.72 158.416H184.248V166H182.232V149.248H184.248V156.64H192.72V149.248H194.736V166H192.72V158.416Z" fill="black"/>
<path id="Shape" fill-rule="evenodd" clip-rule="evenodd" d="M201.372 165.832C202.052 166.136 202.816 166.288 203.664 166.288C204.832 166.288 205.84 166.028 206.688 165.508C207.536 164.988 208.16 164.304 208.56 163.456L207.192 162.472C206.872 163.16 206.42 163.688 205.836 164.056C205.252 164.424 204.568 164.608 203.784 164.608C203.208 164.608 202.692 164.512 202.236 164.32C201.78 164.128 201.396 163.864 201.084 163.528C200.772 163.192 200.532 162.796 200.364 162.34C200.196 161.884 200.112 161.392 200.112 160.864V160.288H209.016V159.376C209.016 158.496 208.892 157.688 208.644 156.952C208.396 156.216 208.04 155.58 207.576 155.044C207.112 154.508 206.552 154.088 205.896 153.784C205.24 153.48 204.496 153.328 203.664 153.328C202.816 153.328 202.052 153.48 201.372 153.784C200.692 154.088 200.108 154.524 199.62 155.092C199.132 155.66 198.756 156.344 198.492 157.144C198.228 157.944 198.096 158.832 198.096 159.808C198.096 160.8 198.228 161.692 198.492 162.484C198.756 163.276 199.132 163.956 199.62 164.524C200.108 165.092 200.692 165.528 201.372 165.832ZM202.224 155.212C202.656 155.028 203.136 154.936 203.664 154.936C204.656 154.936 205.452 155.268 206.052 155.932C206.652 156.596 206.952 157.48 206.952 158.584V158.848H200.112V158.68C200.112 158.136 200.2 157.636 200.376 157.18C200.552 156.724 200.796 156.328 201.108 155.992C201.42 155.656 201.792 155.396 202.224 155.212Z" fill="black"/>
<path id="Path_2" d="M214.224 166C213.552 166 213.044 165.812 212.7 165.436C212.356 165.06 212.184 164.584 212.184 164.008V148.24H214.104V164.32H215.928V166H214.224Z" fill="black"/>
<path id="Path_3" d="M220.513 166C219.841 166 219.333 165.812 218.989 165.436C218.645 165.06 218.473 164.584 218.473 164.008V148.24H220.393V164.32H222.217V166H220.513Z" fill="black"/>
<path id="Shape_2" fill-rule="evenodd" clip-rule="evenodd" d="M227.4 165.832C228.088 166.136 228.848 166.288 229.68 166.288C230.512 166.288 231.268 166.136 231.948 165.832C232.628 165.528 233.216 165.092 233.712 164.524C234.208 163.956 234.592 163.276 234.864 162.484C235.136 161.692 235.272 160.8 235.272 159.808C235.272 158.832 235.136 157.944 234.864 157.144C234.592 156.344 234.208 155.66 233.712 155.092C233.216 154.524 232.628 154.088 231.948 153.784C231.268 153.48 230.512 153.328 229.68 153.328C228.848 153.328 228.088 153.48 227.4 153.784C226.712 154.088 226.124 154.524 225.636 155.092C225.148 155.66 224.768 156.344 224.496 157.144C224.224 157.944 224.088 158.832 224.088 159.808C224.088 160.8 224.224 161.692 224.496 162.484C224.768 163.276 225.148 163.956 225.636 164.524C226.124 165.092 226.712 165.528 227.4 165.832ZM232.224 163.624C231.568 164.264 230.72 164.584 229.68 164.584C228.64 164.584 227.792 164.264 227.136 163.624C226.48 162.984 226.152 162.008 226.152 160.696V158.92C226.152 157.608 226.48 156.632 227.136 155.992C227.792 155.352 228.64 155.032 229.68 155.032C230.72 155.032 231.568 155.352 232.224 155.992C232.88 156.632 233.208 157.608 233.208 158.92V160.696C233.208 162.008 232.88 162.984 232.224 163.624Z" fill="black"/>
<path id="Path_4" d="M242.809 153.616H244.681L246.001 158.968L247.321 164.392H247.369L248.881 158.968L250.441 153.616H252.145L253.753 158.968L255.289 164.392H255.337L256.609 158.968L257.953 153.616H259.753L256.465 166H254.089L252.361 160.048L251.281 156.28H251.233L250.177 160.048L248.449 166H246.121L242.809 153.616Z" fill="black"/>
<path id="Shape_3" fill-rule="evenodd" clip-rule="evenodd" d="M264.699 165.832C265.387 166.136 266.147 166.288 266.979 166.288C267.811 166.288 268.567 166.136 269.247 165.832C269.927 165.528 270.515 165.092 271.011 164.524C271.507 163.956 271.891 163.276 272.163 162.484C272.435 161.692 272.571 160.8 272.571 159.808C272.571 158.832 272.435 157.944 272.163 157.144C271.891 156.344 271.507 155.66 271.011 155.092C270.515 154.524 269.927 154.088 269.247 153.784C268.567 153.48 267.811 153.328 266.979 153.328C266.147 153.328 265.387 153.48 264.699 153.784C264.011 154.088 263.423 154.524 262.935 155.092C262.447 155.66 262.067 156.344 261.795 157.144C261.523 157.944 261.387 158.832 261.387 159.808C261.387 160.8 261.523 161.692 261.795 162.484C262.067 163.276 262.447 163.956 262.935 164.524C263.423 165.092 264.011 165.528 264.699 165.832ZM269.523 163.624C268.867 164.264 268.019 164.584 266.979 164.584C265.939 164.584 265.091 164.264 264.435 163.624C263.779 162.984 263.451 162.008 263.451 160.696V158.92C263.451 157.608 263.779 156.632 264.435 155.992C265.091 155.352 265.939 155.032 266.979 155.032C268.019 155.032 268.867 155.352 269.523 155.992C270.179 156.632 270.507 157.608 270.507 158.92V160.696C270.507 162.008 270.179 162.984 269.523 163.624Z" fill="black"/>
<path id="Path_5" d="M275.738 166V153.616H277.658V155.896H277.778C278.002 155.304 278.402 154.776 278.978 154.312C279.554 153.848 280.346 153.616 281.354 153.616H282.098V155.536H280.97C279.93 155.536 279.118 155.732 278.534 156.124C277.95 156.516 277.658 157.008 277.658 157.6V166H275.738Z" fill="black"/>
<path id="Path_6" d="M286.587 166C285.915 166 285.407 165.812 285.063 165.436C284.719 165.06 284.547 164.584 284.547 164.008V148.24H286.467V164.32H288.291V166H286.587Z" fill="black"/>
<path id="Shape_4" fill-rule="evenodd" clip-rule="evenodd" d="M298.898 163.984H298.994V166H300.914V148.24H298.994V155.632H298.898C298.578 154.848 298.11 154.268 297.494 153.892C296.878 153.516 296.138 153.328 295.274 153.328C294.506 153.328 293.81 153.48 293.186 153.784C292.562 154.088 292.03 154.52 291.59 155.08C291.15 155.64 290.814 156.32 290.582 157.12C290.35 157.92 290.234 158.816 290.234 159.808C290.234 160.8 290.35 161.696 290.582 162.496C290.814 163.296 291.15 163.976 291.59 164.536C292.03 165.096 292.562 165.528 293.186 165.832C293.81 166.136 294.506 166.288 295.274 166.288C296.938 166.288 298.146 165.52 298.898 163.984ZM297.038 164.392C296.646 164.504 296.234 164.56 295.802 164.56C294.714 164.56 293.858 164.22 293.234 163.54C292.61 162.86 292.298 161.968 292.298 160.864V158.752C292.298 157.648 292.61 156.756 293.234 156.076C293.858 155.396 294.714 155.056 295.802 155.056C296.234 155.056 296.646 155.116 297.038 155.236C297.43 155.356 297.77 155.52 298.058 155.728C298.346 155.936 298.574 156.188 298.742 156.484C298.91 156.78 298.994 157.096 298.994 157.432V162.04C298.994 162.44 298.91 162.796 298.742 163.108C298.574 163.42 298.346 163.684 298.058 163.9C297.77 164.116 297.43 164.28 297.038 164.392Z" fill="black"/>
</g>
</g>
</g>
<g id="Group 2 Copy">
<mask id="mask1_714_5383" style="mask-type:luminance" maskUnits="userSpaceOnUse" x="180" y="180" width="282" height="32">
<path id="Clip 1_2" fill-rule="evenodd" clip-rule="evenodd" d="M180 180H462V212H180V180Z" fill="white"/>
</mask>
<g mask="url(#mask1_714_5383)">
<g id="&#217;&#132;&#217;&#131;&#217;&#134; &#217;&#132;&#216;&#167; &#216;&#168;&#216;&#175; &#216;&#163;&#217;&#134; &#216;&#163;&#217;&#136;&#216;&#182;&#216;&#173; &#217;&#132;&#217;&#131;">
<path id="Path_7" d="M426.24 198.416L426.72 197.936H427.416C428.184 197.936 428.74 197.76 429.084 197.408C429.428 197.056 429.6 196.496 429.6 195.728V182.24H431.376V195.728C431.376 197.2 431.06 198.28 430.428 198.968C429.796 199.656 428.792 200 427.416 200H426.24V198.416Z" fill="black"/>
<path id="Path_8" d="M415.393 198.416L415.873 197.936H418.081C418.897 197.936 419.469 197.852 419.797 197.684C420.125 197.516 420.289 197.224 420.289 196.808C420.289 196.68 420.269 196.548 420.229 196.412C420.189 196.276 420.121 196.124 420.025 195.956C419.929 195.788 419.801 195.592 419.641 195.368C419.481 195.144 419.273 194.872 419.017 194.552L416.113 190.928V186.752L426.481 181.976V184.16L416.953 188.576V188.696L422.281 195.32C422.697 195.848 423.077 196.28 423.421 196.616C423.765 196.952 424.101 197.216 424.429 197.408C424.757 197.6 425.105 197.736 425.473 197.816C425.841 197.896 426.257 197.936 426.721 197.936V199.52L426.241 200C425.665 200 425.165 199.96 424.741 199.88C424.317 199.8 423.925 199.656 423.565 199.448C423.205 199.24 422.857 198.952 422.521 198.584C422.185 198.216 421.817 197.752 421.417 197.192L421.009 196.616L420.913 196.664C420.929 196.776 420.941 196.884 420.949 196.988C420.957 197.092 420.961 197.192 420.961 197.288C420.961 198.136 420.701 198.8 420.181 199.28C419.661 199.76 418.961 200 418.081 200H415.393V198.416Z" fill="black"/>
<path id="Shape_5" fill-rule="evenodd" clip-rule="evenodd" d="M405.913 192.236C406.105 192.42 406.361 192.512 406.681 192.512H406.945C407.265 192.512 407.521 192.42 407.713 192.236C407.905 192.052 408.001 191.752 408.001 191.336C408.001 190.92 407.905 190.62 407.713 190.436C407.521 190.252 407.265 190.16 406.945 190.16H406.681C406.361 190.16 406.105 190.252 405.913 190.436C405.721 190.62 405.625 190.92 405.625 191.336C405.625 191.752 405.721 192.052 405.913 192.236ZM401.449 204.176C402.617 205.232 404.249 205.76 406.345 205.76C408.729 205.76 410.505 205.296 411.673 204.368C412.841 203.44 413.481 201.984 413.593 200H415.393L415.873 199.52V197.936H413.521C413.489 197.568 413.437 197.156 413.365 196.7C413.293 196.244 413.201 195.704 413.089 195.08L412.729 193.088L411.049 193.424L411.457 195.416C411.553 195.896 411.637 196.328 411.709 196.712C411.781 197.096 411.837 197.444 411.877 197.756C411.917 198.068 411.945 198.352 411.961 198.608C411.977 198.864 411.985 199.12 411.985 199.376C411.985 200.832 411.589 201.9 410.797 202.58C410.005 203.26 408.761 203.6 407.065 203.6H405.625C404.265 203.6 403.201 203.224 402.433 202.472C401.665 201.72 401.281 200.664 401.281 199.304C401.281 198.696 401.377 198.052 401.569 197.372C401.761 196.692 402.009 196.04 402.313 195.416L400.825 194.96C400.473 195.776 400.197 196.596 399.997 197.42C399.797 198.244 399.697 199.024 399.697 199.76C399.697 201.648 400.281 203.12 401.449 204.176Z" fill="black"/>
<path id="Shape_6" fill-rule="evenodd" clip-rule="evenodd" d="M386.762 193.64L382.25 198.032V200H389.714C390.482 200 391.054 199.788 391.43 199.364C391.806 198.94 391.994 198.464 391.994 197.936C391.994 197.568 391.89 197.192 391.682 196.808C391.474 196.424 391.106 195.928 390.578 195.32L389.114 193.664L389.354 193.424C389.786 192.992 390.142 192.596 390.422 192.236C390.702 191.876 390.922 191.512 391.082 191.144C391.242 190.776 391.354 190.376 391.418 189.944C391.482 189.512 391.514 189.008 391.514 188.432V182.24H389.738V188.432C389.738 188.896 389.714 189.3 389.666 189.644C389.618 189.988 389.534 190.308 389.414 190.604C389.294 190.9 389.13 191.184 388.922 191.456C388.714 191.728 388.45 192.016 388.13 192.32L388.01 192.44L381.89 185.504L380.594 186.632L386.762 193.64ZM384.722 197.84L387.842 194.864L390.578 197.936H384.746L384.722 197.84Z" fill="black"/>
<path id="Shape_7" fill-rule="evenodd" clip-rule="evenodd" d="M368.906 197.936L368.426 198.416V200H369.266C370.77 200 371.918 199.672 372.71 199.016C373.502 198.36 373.898 197.36 373.898 196.016C373.898 195.696 373.874 195.288 373.826 194.792C373.778 194.296 373.698 193.656 373.586 192.872L373.298 190.88L371.618 191.144L371.954 193.136C372.082 193.872 372.166 194.464 372.206 194.912C372.246 195.36 372.266 195.728 372.266 196.016C372.266 196.768 372.03 197.276 371.558 197.54C371.086 197.804 370.322 197.936 369.266 197.936H368.906ZM371.306 204.524C371.498 204.708 371.754 204.8 372.074 204.8H372.338C372.658 204.8 372.914 204.708 373.106 204.524C373.298 204.34 373.394 204.04 373.394 203.624C373.394 203.208 373.298 202.908 373.106 202.724C372.914 202.54 372.658 202.448 372.338 202.448H372.074C371.754 202.448 371.498 202.54 371.306 202.724C371.114 202.908 371.018 203.208 371.018 203.624C371.018 204.04 371.114 204.34 371.306 204.524Z" fill="black"/>
<path id="Path_9" d="M358.873 200C358.297 200 357.821 199.828 357.445 199.484C357.069 199.14 356.881 198.632 356.881 197.96V196.112H358.561V197.936H361.801C362.345 197.936 362.793 197.92 363.145 197.888C363.497 197.856 363.777 197.804 363.985 197.732C364.193 197.66 364.337 197.56 364.417 197.432C364.497 197.304 364.537 197.136 364.537 196.928C364.537 196.736 364.497 196.504 364.417 196.232C364.337 195.96 364.193 195.544 363.985 194.984L361.681 188.648L363.385 188.024L365.833 194.744C366.073 195.384 366.285 195.908 366.469 196.316C366.653 196.724 366.841 197.048 367.033 197.288C367.225 197.528 367.421 197.696 367.621 197.792C367.821 197.888 368.049 197.936 368.305 197.936H368.905V199.52L368.425 200C367.993 200 367.613 199.96 367.285 199.88C366.957 199.8 366.665 199.676 366.409 199.508C366.153 199.34 365.921 199.12 365.713 198.848C365.505 198.576 365.305 198.24 365.113 197.84H364.993C364.897 198.624 364.593 199.18 364.081 199.508C363.569 199.836 362.809 200 361.801 200H358.873Z" fill="black"/>
<path id="Shape_8" fill-rule="evenodd" clip-rule="evenodd" d="M346.225 181.808H345.361V183.248H350.281V181.712H348.745C348.201 181.712 347.777 181.616 347.473 181.424C347.169 181.232 347.017 180.968 347.017 180.632C347.017 180.408 347.113 180.22 347.305 180.068C347.497 179.916 347.737 179.84 348.025 179.84C348.441 179.84 348.809 180.024 349.129 180.392L350.017 179.312C349.825 179.008 349.537 178.764 349.153 178.58C348.769 178.396 348.393 178.304 348.025 178.304C347.385 178.304 346.857 178.512 346.441 178.928C346.025 179.344 345.817 179.864 345.817 180.488C345.817 180.712 345.857 180.932 345.937 181.148C346.017 181.364 346.121 181.552 346.249 181.712L346.225 181.808ZM348.697 185.168H346.921V200H348.697V185.168Z" fill="black"/>
<path id="Shape_9" fill-rule="evenodd" clip-rule="evenodd" d="M336.529 190.34C336.72 190.524 336.977 190.616 337.297 190.616H337.561C337.88 190.616 338.136 190.524 338.328 190.34C338.521 190.156 338.616 189.856 338.616 189.44C338.616 189.024 338.521 188.724 338.328 188.54C338.136 188.356 337.88 188.264 337.561 188.264H337.297C336.977 188.264 336.72 188.356 336.529 188.54C336.337 188.724 336.24 189.024 336.24 189.44C336.24 189.856 336.337 190.156 336.529 190.34ZM332.064 202.256C333.233 203.312 334.865 203.84 336.96 203.84C339.472 203.84 341.312 203.324 342.481 202.292C343.649 201.26 344.233 199.648 344.233 197.456C344.233 197.2 344.224 196.928 344.208 196.64C344.193 196.352 344.161 196.04 344.113 195.704C344.064 195.368 344.009 194.992 343.944 194.576C343.88 194.16 343.8 193.688 343.705 193.16L343.344 191.168L341.665 191.504L342.073 193.496C342.168 193.976 342.253 194.408 342.325 194.792C342.396 195.176 342.453 195.524 342.493 195.836C342.533 196.148 342.561 196.432 342.576 196.688C342.592 196.944 342.601 197.2 342.601 197.456C342.601 198.912 342.205 199.98 341.413 200.66C340.621 201.34 339.377 201.68 337.681 201.68H336.24C334.88 201.68 333.817 201.304 333.049 200.552C332.281 199.8 331.896 198.744 331.896 197.384C331.896 196.776 331.992 196.132 332.184 195.452C332.376 194.772 332.625 194.12 332.928 193.496L331.441 193.04C331.089 193.856 330.812 194.676 330.613 195.5C330.413 196.324 330.312 197.104 330.312 197.84C330.312 199.728 330.896 201.2 332.064 202.256Z" fill="black"/>
<path id="Shape_10" fill-rule="evenodd" clip-rule="evenodd" d="M319.417 181.808H318.553V183.248H323.473V181.712H321.937C321.393 181.712 320.969 181.616 320.665 181.424C320.361 181.232 320.209 180.968 320.209 180.632C320.209 180.408 320.305 180.22 320.497 180.068C320.689 179.916 320.929 179.84 321.217 179.84C321.633 179.84 322.001 180.024 322.321 180.392L323.209 179.312C323.017 179.008 322.729 178.764 322.345 178.58C321.961 178.396 321.585 178.304 321.217 178.304C320.577 178.304 320.049 178.512 319.633 178.928C319.217 179.344 319.009 179.864 319.009 180.488C319.009 180.712 319.049 180.932 319.129 181.148C319.209 181.364 319.313 181.552 319.441 181.712L319.417 181.808ZM321.889 185.168H320.113V200H321.889V185.168Z" fill="black"/>
<path id="Shape_11" fill-rule="evenodd" clip-rule="evenodd" d="M309.865 203.696H308.209V205.76H309.865C312.329 205.76 314.173 205.048 315.397 203.624C316.621 202.2 317.233 200.216 317.233 197.672C317.233 195.528 316.841 193.864 316.057 192.68C315.273 191.496 314.193 190.904 312.817 190.904C312.177 190.904 311.589 191.044 311.053 191.324C310.517 191.604 310.057 191.98 309.673 192.452C309.289 192.924 308.989 193.48 308.773 194.12C308.557 194.76 308.449 195.44 308.449 196.16C308.449 197.392 308.801 198.348 309.505 199.028C310.209 199.708 311.201 200.048 312.481 200.048C313.185 200.048 313.797 199.896 314.317 199.592C314.837 199.288 315.209 198.872 315.433 198.344H315.553V198.872C315.553 200.392 315.089 201.576 314.161 202.424C313.233 203.272 311.801 203.696 309.865 203.696ZM314.605 197.756C314.197 197.876 313.649 197.936 312.961 197.936H312.481C311.665 197.936 311.069 197.776 310.693 197.456C310.317 197.136 310.129 196.624 310.129 195.92C310.129 195.04 310.349 194.328 310.789 193.784C311.229 193.24 311.857 192.968 312.673 192.968C313.569 192.968 314.273 193.348 314.785 194.108C315.297 194.868 315.553 195.896 315.553 197.192C315.329 197.448 315.013 197.636 314.605 197.756Z" fill="black"/>
<path id="Shape_12" fill-rule="evenodd" clip-rule="evenodd" d="M299.785 187.004C299.977 187.188 300.233 187.28 300.553 187.28H300.817C301.137 187.28 301.393 187.188 301.585 187.004C301.777 186.82 301.873 186.52 301.873 186.104C301.873 185.688 301.777 185.388 301.585 185.204C301.393 185.02 301.137 184.928 300.817 184.928H300.553C300.233 184.928 299.977 185.02 299.785 185.204C299.593 185.388 299.497 185.688 299.497 186.104C299.497 186.52 299.593 186.82 299.785 187.004ZM291.433 195.896C291.433 196.856 291.745 197.472 292.369 197.744L293.641 195.608C294.249 194.552 294.865 193.676 295.489 192.98C296.113 192.284 296.745 191.728 297.385 191.312C298.025 190.896 298.677 190.6 299.341 190.424C300.005 190.248 300.697 190.16 301.417 190.16C302.969 190.16 304.177 190.588 305.041 191.444C305.905 192.3 306.337 193.48 306.337 194.984C306.337 196.792 305.881 198.08 304.969 198.848C304.057 199.616 302.713 200 300.937 200H293.833C291.625 200 290.329 199.216 289.945 197.648H289.825C289.649 198.528 289.305 199.14 288.793 199.484C288.281 199.828 287.481 200 286.393 200V198.416L286.873 197.936H287.713C289.073 197.936 289.753 197.256 289.753 195.896V194.024H291.433V195.896ZM300.937 197.936C302.137 197.936 303.057 197.736 303.697 197.336C304.337 196.936 304.657 196.232 304.657 195.224C304.657 194.232 304.405 193.484 303.901 192.98C303.397 192.476 302.689 192.224 301.777 192.224H301.057C300.417 192.224 299.837 192.284 299.317 192.404C298.797 192.524 298.301 192.732 297.829 193.028C297.357 193.324 296.893 193.732 296.437 194.252C295.981 194.772 295.497 195.424 294.985 196.208L293.953 197.816L294.025 197.936H300.937Z" fill="black"/>
<path id="Path_10" d="M279.193 207.296C278.137 207.296 277.181 207.144 276.325 206.84C275.469 206.536 274.745 206.092 274.153 205.508C273.561 204.924 273.105 204.212 272.785 203.372C272.465 202.532 272.305 201.576 272.305 200.504C272.305 199.816 272.405 199.14 272.605 198.476C272.805 197.812 273.149 197.172 273.637 196.556C274.125 195.94 274.777 195.352 275.593 194.792C276.409 194.232 277.425 193.712 278.641 193.232L283.561 191.312V191.216L274.921 190.904V192.776H273.241V190.928C273.241 190.208 273.473 189.684 273.937 189.356C274.401 189.028 275.049 188.888 275.881 188.936L285.025 189.488V192.656L283.873 193.088V195.776C283.873 196.576 284.049 197.136 284.401 197.456C284.753 197.776 285.297 197.936 286.033 197.936H286.873V199.52L286.393 200C285.657 200 285.037 199.928 284.533 199.784C284.029 199.64 283.621 199.412 283.309 199.1C282.997 198.788 282.773 198.38 282.637 197.876C282.501 197.372 282.433 196.752 282.433 196.016V193.64L278.857 194.984C277.209 195.592 276.001 196.288 275.233 197.072C274.465 197.856 274.081 198.824 274.081 199.976V200.552C274.081 202.008 274.541 203.136 275.461 203.936C276.381 204.736 277.625 205.136 279.193 205.136C280.345 205.136 281.369 204.948 282.265 204.572C283.161 204.196 284.017 203.584 284.833 202.736L286.129 204.344C285.633 204.856 285.129 205.3 284.617 205.676C284.105 206.052 283.569 206.36 283.009 206.6C282.449 206.84 281.853 207.016 281.221 207.128C280.589 207.24 279.913 207.296 279.193 207.296Z" fill="black"/>
<path id="Path_11" d="M258.865 198.416L259.345 197.936H260.041C260.809 197.936 261.365 197.76 261.709 197.408C262.053 197.056 262.225 196.496 262.225 195.728V182.24H264.001V195.728C264.001 197.2 263.685 198.28 263.053 198.968C262.421 199.656 261.417 200 260.041 200H258.865V198.416Z" fill="black"/>
<path id="Shape_13" fill-rule="evenodd" clip-rule="evenodd" d="M243.084 200.024C244.228 200.2 245.64 200.288 247.32 200.288C248.712 200.288 249.86 200.248 250.764 200.168C251.668 200.088 252.4 199.944 252.96 199.736C253.52 199.528 253.936 199.248 254.208 198.896C254.48 198.544 254.664 198.096 254.76 197.552H254.88C255.264 199.184 256.592 200 258.864 200L259.344 199.52V197.936H258.504C257.144 197.936 256.464 197.256 256.464 195.896V182.24H254.688V195.896C254.688 196.344 254.604 196.712 254.436 197C254.268 197.288 253.972 197.516 253.548 197.684C253.124 197.852 252.544 197.968 251.808 198.032C251.072 198.096 250.136 198.128 249 198.128H245.64C243.64 198.128 242.176 197.884 241.248 197.396C240.32 196.908 239.856 196.144 239.856 195.104C239.856 194.128 240.184 192.96 240.84 191.6L239.352 191.144C239 191.96 238.74 192.704 238.572 193.376C238.404 194.048 238.32 194.704 238.32 195.344C238.32 196.256 238.476 197.028 238.788 197.66C239.1 198.292 239.608 198.8 240.312 199.184C241.016 199.568 241.94 199.848 243.084 200.024ZM248.64 191.648L245.232 193.352L245.832 194.552L248.28 193.304C248.584 193.144 248.84 192.996 249.048 192.86C249.256 192.724 249.416 192.584 249.528 192.44C249.64 192.296 249.72 192.132 249.768 191.948C249.816 191.764 249.84 191.544 249.84 191.288C249.84 190.872 249.728 190.548 249.504 190.316C249.28 190.084 248.96 189.968 248.544 189.968H246.696L246.672 189.848L249.336 188.24L248.616 187.088L247.152 187.952C246.496 188.336 246.052 188.692 245.82 189.02C245.588 189.348 245.472 189.688 245.472 190.04C245.472 190.552 245.616 190.932 245.904 191.18C246.192 191.428 246.592 191.552 247.104 191.552H248.616L248.64 191.648Z" fill="black"/>
<path id="Shape_14" fill-rule="evenodd" clip-rule="evenodd" d="M227.352 181.808H226.488V183.248H231.408V181.712H229.872C229.328 181.712 228.904 181.616 228.6 181.424C228.296 181.232 228.144 180.968 228.144 180.632C228.144 180.408 228.24 180.22 228.432 180.068C228.624 179.916 228.864 179.84 229.152 179.84C229.568 179.84 229.936 180.024 230.256 180.392L231.144 179.312C230.952 179.008 230.664 178.764 230.28 178.58C229.896 178.396 229.52 178.304 229.152 178.304C228.512 178.304 227.984 178.512 227.568 178.928C227.152 179.344 226.944 179.864 226.944 180.488C226.944 180.712 226.984 180.932 227.064 181.148C227.144 181.364 227.248 181.552 227.376 181.712L227.352 181.808ZM229.824 185.168H228.048V200H229.824V185.168Z" fill="black"/>
<path id="Shape_15" fill-rule="evenodd" clip-rule="evenodd" d="M217.657 190.34C217.849 190.524 218.105 190.616 218.425 190.616H218.689C219.009 190.616 219.265 190.524 219.457 190.34C219.649 190.156 219.745 189.856 219.745 189.44C219.745 189.024 219.649 188.724 219.457 188.54C219.265 188.356 219.009 188.264 218.689 188.264H218.425C218.105 188.264 217.849 188.356 217.657 188.54C217.465 188.724 217.369 189.024 217.369 189.44C217.369 189.856 217.465 190.156 217.657 190.34ZM213.193 202.256C214.361 203.312 215.993 203.84 218.089 203.84C220.601 203.84 222.441 203.324 223.609 202.292C224.777 201.26 225.361 199.648 225.361 197.456C225.361 197.2 225.353 196.928 225.337 196.64C225.321 196.352 225.289 196.04 225.241 195.704C225.193 195.368 225.137 194.992 225.073 194.576C225.009 194.16 224.929 193.688 224.833 193.16L224.473 191.168L222.793 191.504L223.201 193.496C223.297 193.976 223.381 194.408 223.453 194.792C223.525 195.176 223.581 195.524 223.621 195.836C223.661 196.148 223.689 196.432 223.705 196.688C223.721 196.944 223.729 197.2 223.729 197.456C223.729 198.912 223.333 199.98 222.541 200.66C221.749 201.34 220.505 201.68 218.809 201.68H217.369C216.009 201.68 214.945 201.304 214.177 200.552C213.409 199.8 213.025 198.744 213.025 197.384C213.025 196.776 213.121 196.132 213.313 195.452C213.505 194.772 213.753 194.12 214.057 193.496L212.569 193.04C212.217 193.856 211.941 194.676 211.741 195.5C211.541 196.324 211.441 197.104 211.441 197.84C211.441 199.728 212.025 201.2 213.193 202.256Z" fill="black"/>
<path id="Path_12" d="M196.369 198.416L196.849 197.936H199.321C200.089 197.936 200.689 197.796 201.121 197.516C201.553 197.236 201.769 196.8 201.769 196.208C201.769 195.888 201.697 195.592 201.553 195.32C201.409 195.048 201.153 194.728 200.785 194.36L197.089 190.832V186.752L207.457 181.976V184.16L197.929 188.576V188.696L200.761 191.456C201.257 191.936 201.677 192.376 202.021 192.776C202.365 193.176 202.641 193.56 202.849 193.928C203.057 194.296 203.209 194.656 203.305 195.008C203.401 195.36 203.449 195.736 203.449 196.136C203.449 197.352 203.085 198.3 202.357 198.98C201.629 199.66 200.617 200 199.321 200H196.369V198.416Z" fill="black"/>
<path id="Path_13" d="M187.345 205.76C185.329 205.76 183.761 205.232 182.641 204.176C181.521 203.12 180.961 201.648 180.961 199.76C180.961 199.024 181.061 198.244 181.261 197.42C181.461 196.596 181.737 195.776 182.089 194.96L183.577 195.416C183.273 196.088 183.025 196.784 182.833 197.504C182.641 198.224 182.545 198.904 182.545 199.544C182.545 200.84 182.905 201.84 183.625 202.544C184.345 203.248 185.345 203.6 186.625 203.6H188.065C188.817 203.6 189.453 203.516 189.973 203.348C190.493 203.18 190.913 202.9 191.233 202.508C191.553 202.116 191.785 201.604 191.929 200.972C192.073 200.34 192.145 199.568 192.145 198.656V182.24H193.921V197.936H196.849V199.52L196.369 200H193.849C193.673 201.984 193.057 203.44 192.001 204.368C190.945 205.296 189.393 205.76 187.345 205.76Z" fill="black"/>
</g>
</g>
</g>
</g>
</svg>
