<?xml version="1.0" encoding="UTF-8"?>
<svg width="320px" height="180px" viewBox="0 0 320 180" version="1.1" xmlns="http://www.w3.org/2000/svg" xmlns:xlink="http://www.w3.org/1999/xlink">
    <title>unordered-list</title>
    <g id="unordered-list" stroke="none" stroke-width="1" fill="none" fill-rule="evenodd">
        <g id="–-Unordered-List-–-U" transform="translate(113.432000, 61.120000)" fill="#161616" fill-rule="nonzero">
            <polygon id="Path" points="0 5.688 0 4.776 6.192 4.776 6.192 5.688"></polygon>
            <path d="M14.7634286,0.504 L14.7634286,5.688 C14.7634286,6.488 14.9114286,7.094 15.2074286,7.506 C15.5034286,7.918 16.0234286,8.124 16.7674286,8.124 C17.5114286,8.124 18.0314286,7.918 18.3274286,7.506 C18.6234286,7.094 18.7714286,6.488 18.7714286,5.688 L18.7714286,0.504 L19.7794286,0.504 L19.7794286,5.448 C19.7794286,6.056 19.7254286,6.584 19.6174286,7.032 C19.5094286,7.48 19.3354286,7.852 19.0954286,8.148 C18.8554286,8.444 18.5414286,8.664 18.1534286,8.808 C17.7654286,8.952 17.2914286,9.024 16.7314286,9.024 C16.1714286,9.024 15.7014286,8.952 15.3214286,8.808 C14.9414286,8.664 14.6354286,8.444 14.4034286,8.148 C14.1714286,7.852 14.0054286,7.48 13.9054286,7.032 C13.8054286,6.584 13.7554286,6.056 13.7554286,5.448 L13.7554286,0.504 L14.7634286,0.504 Z" id="Path"></path>
            <path d="M21.9925714,8.88 L21.9925714,2.688 L22.9525714,2.688 L22.9525714,3.696 L23.0005714,3.696 C23.1525714,3.344 23.3665714,3.064 23.6425714,2.856 C23.9185714,2.648 24.2885714,2.544 24.7525714,2.544 C25.3925714,2.544 25.8985714,2.75 26.2705714,3.162 C26.6425714,3.574 26.8285714,4.156 26.8285714,4.908 L26.8285714,8.88 L25.8685714,8.88 L25.8685714,5.076 C25.8685714,3.964 25.4005714,3.408 24.4645714,3.408 C24.2725714,3.408 24.0865714,3.432 23.9065714,3.48 C23.7265714,3.528 23.5645714,3.6 23.4205714,3.696 C23.2765714,3.792 23.1625714,3.914 23.0785714,4.062 C22.9945714,4.21 22.9525714,4.384 22.9525714,4.584 L22.9525714,8.88 L21.9925714,8.88 Z" id="Path"></path>
            <path d="M31.2857143,9.024 C30.8697143,9.024 30.4897143,8.948 30.1457143,8.796 C29.8017143,8.644 29.5077143,8.426 29.2637143,8.142 C29.0197143,7.858 28.8297143,7.518 28.6937143,7.122 C28.5577143,6.726 28.4897143,6.28 28.4897143,5.784 C28.4897143,5.296 28.5577143,4.852 28.6937143,4.452 C28.8297143,4.052 29.0197143,3.71 29.2637143,3.426 C29.5077143,3.142 29.8017143,2.924 30.1457143,2.772 C30.4897143,2.62 30.8697143,2.544 31.2857143,2.544 C31.7017143,2.544 32.0797143,2.62 32.4197143,2.772 C32.7597143,2.924 33.0537143,3.142 33.3017143,3.426 C33.5497143,3.71 33.7417143,4.052 33.8777143,4.452 C34.0137143,4.852 34.0817143,5.296 34.0817143,5.784 C34.0817143,6.28 34.0137143,6.726 33.8777143,7.122 C33.7417143,7.518 33.5497143,7.858 33.3017143,8.142 C33.0537143,8.426 32.7597143,8.644 32.4197143,8.796 C32.0797143,8.948 31.7017143,9.024 31.2857143,9.024 Z M31.2857143,8.172 C31.8057143,8.172 32.2297143,8.012 32.5577143,7.692 C32.8857143,7.372 33.0497143,6.884 33.0497143,6.228 L33.0497143,5.34 C33.0497143,4.684 32.8857143,4.196 32.5577143,3.876 C32.2297143,3.556 31.8057143,3.396 31.2857143,3.396 C30.7657143,3.396 30.3417143,3.556 30.0137143,3.876 C29.6857143,4.196 29.5217143,4.684 29.5217143,5.34 L29.5217143,6.228 C29.5217143,6.884 29.6857143,7.372 30.0137143,7.692 C30.3417143,8.012 30.7657143,8.172 31.2857143,8.172 Z" id="Shape"></path>
            <path d="M35.8028571,8.88 L35.8028571,2.688 L36.7628571,2.688 L36.7628571,3.828 L36.8228571,3.828 C36.9348571,3.532 37.1348571,3.268 37.4228571,3.036 C37.7108571,2.804 38.1068571,2.688 38.6108571,2.688 L38.9828571,2.688 L38.9828571,3.648 L38.4188571,3.648 C37.8988571,3.648 37.4928571,3.746 37.2008571,3.942 C36.9088571,4.138 36.7628571,4.384 36.7628571,4.68 L36.7628571,8.88 L35.8028571,8.88 Z" id="Path"></path>
            <path d="M44.232,7.872 L44.184,7.872 C43.808,8.64 43.204,9.024 42.372,9.024 C41.988,9.024 41.64,8.948 41.328,8.796 C41.016,8.644 40.75,8.428 40.53,8.148 C40.31,7.868 40.142,7.528 40.026,7.128 C39.91,6.728 39.852,6.28 39.852,5.784 C39.852,5.288 39.91,4.84 40.026,4.44 C40.142,4.04 40.31,3.7 40.53,3.42 C40.75,3.14 41.016,2.924 41.328,2.772 C41.64,2.62 41.988,2.544 42.372,2.544 C42.804,2.544 43.174,2.638 43.482,2.826 C43.79,3.014 44.024,3.304 44.184,3.696 L44.232,3.696 L44.232,0 L45.192,0 L45.192,8.88 L44.232,8.88 L44.232,7.872 Z M42.636,8.16 C42.852,8.16 43.058,8.132 43.254,8.076 C43.45,8.02 43.62,7.938 43.764,7.83 C43.908,7.722 44.022,7.59 44.106,7.434 C44.19,7.278 44.232,7.1 44.232,6.9 L44.232,4.596 C44.232,4.428 44.19,4.27 44.106,4.122 C44.022,3.974 43.908,3.848 43.764,3.744 C43.62,3.64 43.45,3.558 43.254,3.498 C43.058,3.438 42.852,3.408 42.636,3.408 C42.092,3.408 41.664,3.578 41.352,3.918 C41.04,4.258 40.884,4.704 40.884,5.256 L40.884,6.312 C40.884,6.864 41.04,7.31 41.352,7.65 C41.664,7.99 42.092,8.16 42.636,8.16 Z" id="Shape"></path>
            <path d="M49.6971428,9.024 C49.2731428,9.024 48.8911428,8.948 48.5511428,8.796 C48.2111428,8.644 47.9191428,8.426 47.6751428,8.142 C47.4311428,7.858 47.2431428,7.518 47.1111428,7.122 C46.9791428,6.726 46.9131428,6.28 46.9131428,5.784 C46.9131428,5.296 46.9791428,4.852 47.1111428,4.452 C47.2431428,4.052 47.4311428,3.71 47.6751428,3.426 C47.9191428,3.142 48.2111428,2.924 48.5511428,2.772 C48.8911428,2.62 49.2731428,2.544 49.6971428,2.544 C50.1131428,2.544 50.4851428,2.62 50.8131428,2.772 C51.1411428,2.924 51.4211428,3.134 51.6531428,3.402 C51.8851428,3.67 52.0631428,3.988 52.1871428,4.356 C52.3111428,4.724 52.3731428,5.128 52.3731428,5.568 L52.3731428,6.024 L47.9211428,6.024 L47.9211428,6.312 C47.9211428,6.576 47.9631428,6.822 48.0471428,7.05 C48.1311428,7.278 48.2511428,7.476 48.4071428,7.644 C48.5631428,7.812 48.7551428,7.944 48.9831428,8.04 C49.2111428,8.136 49.4691428,8.184 49.7571428,8.184 C50.1491428,8.184 50.4911428,8.092 50.7831428,7.908 C51.0751428,7.724 51.3011428,7.46 51.4611428,7.116 L52.1451428,7.608 C51.9451428,8.032 51.6331428,8.374 51.2091428,8.634 C50.7851428,8.894 50.2811428,9.024 49.6971428,9.024 Z M49.6971428,3.348 C49.4331428,3.348 49.1931428,3.394 48.9771428,3.486 C48.7611428,3.578 48.5751428,3.708 48.4191428,3.876 C48.2631428,4.044 48.1411428,4.242 48.0531428,4.47 C47.9651428,4.698 47.9211428,4.948 47.9211428,5.22 L47.9211428,5.304 L51.3411428,5.304 L51.3411428,5.172 C51.3411428,4.62 51.1911428,4.178 50.8911428,3.846 C50.5911428,3.514 50.1931428,3.348 49.6971428,3.348 Z" id="Shape"></path>
            <path d="M54.0942857,8.88 L54.0942857,2.688 L55.0542857,2.688 L55.0542857,3.828 L55.1142857,3.828 C55.2262857,3.532 55.4262857,3.268 55.7142857,3.036 C56.0022857,2.804 56.3982857,2.688 56.9022857,2.688 L57.2742857,2.688 L57.2742857,3.648 L56.7102857,3.648 C56.1902857,3.648 55.7842857,3.746 55.4922857,3.942 C55.2002857,4.138 55.0542857,4.384 55.0542857,4.68 L55.0542857,8.88 L54.0942857,8.88 Z" id="Path"></path>
            <path d="M60.9034285,9.024 C60.4794285,9.024 60.0974285,8.948 59.7574285,8.796 C59.4174285,8.644 59.1254285,8.426 58.8814285,8.142 C58.6374285,7.858 58.4494285,7.518 58.3174285,7.122 C58.1854285,6.726 58.1194285,6.28 58.1194285,5.784 C58.1194285,5.296 58.1854285,4.852 58.3174285,4.452 C58.4494285,4.052 58.6374285,3.71 58.8814285,3.426 C59.1254285,3.142 59.4174285,2.924 59.7574285,2.772 C60.0974285,2.62 60.4794285,2.544 60.9034285,2.544 C61.3194285,2.544 61.6914285,2.62 62.0194285,2.772 C62.3474285,2.924 62.6274285,3.134 62.8594285,3.402 C63.0914285,3.67 63.2694285,3.988 63.3934285,4.356 C63.5174285,4.724 63.5794285,5.128 63.5794285,5.568 L63.5794285,6.024 L59.1274285,6.024 L59.1274285,6.312 C59.1274285,6.576 59.1694285,6.822 59.2534285,7.05 C59.3374285,7.278 59.4574285,7.476 59.6134285,7.644 C59.7694285,7.812 59.9614285,7.944 60.1894285,8.04 C60.4174285,8.136 60.6754285,8.184 60.9634285,8.184 C61.3554285,8.184 61.6974285,8.092 61.9894285,7.908 C62.2814285,7.724 62.5074285,7.46 62.6674285,7.116 L63.3514285,7.608 C63.1514285,8.032 62.8394285,8.374 62.4154285,8.634 C61.9914285,8.894 61.4874285,9.024 60.9034285,9.024 Z M60.9034285,3.348 C60.6394285,3.348 60.3994285,3.394 60.1834285,3.486 C59.9674285,3.578 59.7814285,3.708 59.6254285,3.876 C59.4694285,4.044 59.3474285,4.242 59.2594285,4.47 C59.1714285,4.698 59.1274285,4.948 59.1274285,5.22 L59.1274285,5.304 L62.5474285,5.304 L62.5474285,5.172 C62.5474285,4.62 62.3974285,4.178 62.0974285,3.846 C61.7974285,3.514 61.3994285,3.348 60.9034285,3.348 Z" id="Shape"></path>
            <path d="M69.2605714,7.872 L69.2125714,7.872 C68.8365714,8.64 68.2325714,9.024 67.4005714,9.024 C67.0165714,9.024 66.6685714,8.948 66.3565714,8.796 C66.0445714,8.644 65.7785714,8.428 65.5585714,8.148 C65.3385714,7.868 65.1705714,7.528 65.0545714,7.128 C64.9385714,6.728 64.8805714,6.28 64.8805714,5.784 C64.8805714,5.288 64.9385714,4.84 65.0545714,4.44 C65.1705714,4.04 65.3385714,3.7 65.5585714,3.42 C65.7785714,3.14 66.0445714,2.924 66.3565714,2.772 C66.6685714,2.62 67.0165714,2.544 67.4005714,2.544 C67.8325714,2.544 68.2025714,2.638 68.5105714,2.826 C68.8185714,3.014 69.0525714,3.304 69.2125714,3.696 L69.2605714,3.696 L69.2605714,0 L70.2205714,0 L70.2205714,8.88 L69.2605714,8.88 L69.2605714,7.872 Z M67.6645714,8.16 C67.8805714,8.16 68.0865714,8.132 68.2825714,8.076 C68.4785714,8.02 68.6485714,7.938 68.7925714,7.83 C68.9365714,7.722 69.0505714,7.59 69.1345714,7.434 C69.2185714,7.278 69.2605714,7.1 69.2605714,6.9 L69.2605714,4.596 C69.2605714,4.428 69.2185714,4.27 69.1345714,4.122 C69.0505714,3.974 68.9365714,3.848 68.7925714,3.744 C68.6485714,3.64 68.4785714,3.558 68.2825714,3.498 C68.0865714,3.438 67.8805714,3.408 67.6645714,3.408 C67.1205714,3.408 66.6925714,3.578 66.3805714,3.918 C66.0685714,4.258 65.9125714,4.704 65.9125714,5.256 L65.9125714,6.312 C65.9125714,6.864 66.0685714,7.31 66.3805714,7.65 C66.6925714,7.99 67.1205714,8.16 67.6645714,8.16 Z" id="Shape"></path>
            <polygon id="Path" points="75.4628571 8.88 75.4628571 0.504 76.4708571 0.504 76.4708571 7.992 80.0348571 7.992 80.0348571 8.88"></polygon>
            <path d="M81.996,1.236 C81.788,1.236 81.638,1.186 81.546,1.086 C81.454,0.986 81.408,0.856 81.408,0.696 L81.408,0.54 C81.408,0.38 81.454,0.25 81.546,0.15 C81.638,0.05 81.788,0 81.996,0 C82.204,0 82.354,0.05 82.446,0.15 C82.538,0.25 82.584,0.38 82.584,0.54 L82.584,0.696 C82.584,0.856 82.538,0.986 82.446,1.086 C82.354,1.186 82.204,1.236 81.996,1.236 Z M81.516,2.688 L82.476,2.688 L82.476,8.88 L81.516,8.88 L81.516,2.688 Z" id="Shape"></path>
            <path d="M86.5131428,9.024 C85.9371428,9.024 85.4551428,8.914 85.0671428,8.694 C84.6791428,8.474 84.3451428,8.18 84.0651428,7.812 L84.7491428,7.26 C84.9891428,7.564 85.2571428,7.798 85.5531428,7.962 C85.8491428,8.126 86.1931428,8.208 86.5851428,8.208 C86.9931428,8.208 87.3111428,8.12 87.5391428,7.944 C87.7671428,7.768 87.8811428,7.52 87.8811428,7.2 C87.8811428,6.96 87.8031428,6.754 87.6471428,6.582 C87.4911428,6.41 87.2091428,6.292 86.8011428,6.228 L86.3091428,6.156 C86.0211428,6.116 85.7571428,6.054 85.5171428,5.97 C85.2771428,5.886 85.0671428,5.774 84.8871428,5.634 C84.7071428,5.494 84.5671428,5.32 84.4671428,5.112 C84.3671428,4.904 84.3171428,4.656 84.3171428,4.368 C84.3171428,4.064 84.3731428,3.798 84.4851428,3.57 C84.5971428,3.342 84.7511428,3.152 84.9471428,3 C85.1431428,2.848 85.3771428,2.734 85.6491428,2.658 C85.9211428,2.582 86.2131428,2.544 86.5251428,2.544 C87.0291428,2.544 87.4511428,2.632 87.7911428,2.808 C88.1311428,2.984 88.4291428,3.228 88.6851428,3.54 L88.0491428,4.116 C87.9131428,3.924 87.7131428,3.75 87.4491428,3.594 C87.1851428,3.438 86.8531428,3.36 86.4531428,3.36 C86.0531428,3.36 85.7511428,3.446 85.5471428,3.618 C85.3431428,3.79 85.2411428,4.024 85.2411428,4.32 C85.2411428,4.624 85.3431428,4.844 85.5471428,4.98 C85.7511428,5.116 86.0451428,5.216 86.4291428,5.28 L86.9091428,5.352 C87.5971428,5.456 88.0851428,5.654 88.3731428,5.946 C88.6611428,6.238 88.8051428,6.62 88.8051428,7.092 C88.8051428,7.692 88.6011428,8.164 88.1931428,8.508 C87.7851428,8.852 87.2251428,9.024 86.5131428,9.024 Z" id="Path"></path>
            <path d="M91.9182857,8.88 C91.5822857,8.88 91.3282857,8.786 91.1562857,8.598 C90.9842857,8.41 90.8982857,8.164 90.8982857,7.86 L90.8982857,3.528 L89.8782857,3.528 L89.8782857,2.688 L90.4542857,2.688 C90.6622857,2.688 90.8042857,2.646 90.8802857,2.562 C90.9562857,2.478 90.9942857,2.332 90.9942857,2.124 L90.9942857,0.972 L91.8582857,0.972 L91.8582857,2.688 L93.2142857,2.688 L93.2142857,3.528 L91.8582857,3.528 L91.8582857,8.04 L93.1182857,8.04 L93.1182857,8.88 L91.9182857,8.88 Z" id="Path"></path>
            <polygon id="Path" points="0 21.688 0 20.776 6.192 20.776 6.192 21.688"></polygon>
            <path d="M14.7634286,16.504 L14.7634286,21.688 C14.7634286,22.488 14.9114286,23.094 15.2074286,23.506 C15.5034286,23.918 16.0234286,24.124 16.7674286,24.124 C17.5114286,24.124 18.0314286,23.918 18.3274286,23.506 C18.6234286,23.094 18.7714286,22.488 18.7714286,21.688 L18.7714286,16.504 L19.7794286,16.504 L19.7794286,21.448 C19.7794286,22.056 19.7254286,22.584 19.6174286,23.032 C19.5094286,23.48 19.3354286,23.852 19.0954286,24.148 C18.8554286,24.444 18.5414286,24.664 18.1534286,24.808 C17.7654286,24.952 17.2914286,25.024 16.7314286,25.024 C16.1714286,25.024 15.7014286,24.952 15.3214286,24.808 C14.9414286,24.664 14.6354286,24.444 14.4034286,24.148 C14.1714286,23.852 14.0054286,23.48 13.9054286,23.032 C13.8054286,22.584 13.7554286,22.056 13.7554286,21.448 L13.7554286,16.504 L14.7634286,16.504 Z" id="Path"></path>
            <path d="M21.9925714,24.88 L21.9925714,18.688 L22.9525714,18.688 L22.9525714,19.696 L23.0005714,19.696 C23.1525714,19.344 23.3665714,19.064 23.6425714,18.856 C23.9185714,18.648 24.2885714,18.544 24.7525714,18.544 C25.3925714,18.544 25.8985714,18.75 26.2705714,19.162 C26.6425714,19.574 26.8285714,20.156 26.8285714,20.908 L26.8285714,24.88 L25.8685714,24.88 L25.8685714,21.076 C25.8685714,19.964 25.4005714,19.408 24.4645714,19.408 C24.2725714,19.408 24.0865714,19.432 23.9065714,19.48 C23.7265714,19.528 23.5645714,19.6 23.4205714,19.696 C23.2765714,19.792 23.1625714,19.914 23.0785714,20.062 C22.9945714,20.21 22.9525714,20.384 22.9525714,20.584 L22.9525714,24.88 L21.9925714,24.88 Z" id="Path"></path>
            <path d="M31.2857143,25.024 C30.8697143,25.024 30.4897143,24.948 30.1457143,24.796 C29.8017143,24.644 29.5077143,24.426 29.2637143,24.142 C29.0197143,23.858 28.8297143,23.518 28.6937143,23.122 C28.5577143,22.726 28.4897143,22.28 28.4897143,21.784 C28.4897143,21.296 28.5577143,20.852 28.6937143,20.452 C28.8297143,20.052 29.0197143,19.71 29.2637143,19.426 C29.5077143,19.142 29.8017143,18.924 30.1457143,18.772 C30.4897143,18.62 30.8697143,18.544 31.2857143,18.544 C31.7017143,18.544 32.0797143,18.62 32.4197143,18.772 C32.7597143,18.924 33.0537143,19.142 33.3017143,19.426 C33.5497143,19.71 33.7417143,20.052 33.8777143,20.452 C34.0137143,20.852 34.0817143,21.296 34.0817143,21.784 C34.0817143,22.28 34.0137143,22.726 33.8777143,23.122 C33.7417143,23.518 33.5497143,23.858 33.3017143,24.142 C33.0537143,24.426 32.7597143,24.644 32.4197143,24.796 C32.0797143,24.948 31.7017143,25.024 31.2857143,25.024 Z M31.2857143,24.172 C31.8057143,24.172 32.2297143,24.012 32.5577143,23.692 C32.8857143,23.372 33.0497143,22.884 33.0497143,22.228 L33.0497143,21.34 C33.0497143,20.684 32.8857143,20.196 32.5577143,19.876 C32.2297143,19.556 31.8057143,19.396 31.2857143,19.396 C30.7657143,19.396 30.3417143,19.556 30.0137143,19.876 C29.6857143,20.196 29.5217143,20.684 29.5217143,21.34 L29.5217143,22.228 C29.5217143,22.884 29.6857143,23.372 30.0137143,23.692 C30.3417143,24.012 30.7657143,24.172 31.2857143,24.172 Z" id="Shape"></path>
            <path d="M35.8028571,24.88 L35.8028571,18.688 L36.7628571,18.688 L36.7628571,19.828 L36.8228571,19.828 C36.9348571,19.532 37.1348571,19.268 37.4228571,19.036 C37.7108571,18.804 38.1068571,18.688 38.6108571,18.688 L38.9828571,18.688 L38.9828571,19.648 L38.4188571,19.648 C37.8988571,19.648 37.4928571,19.746 37.2008571,19.942 C36.9088571,20.138 36.7628571,20.384 36.7628571,20.68 L36.7628571,24.88 L35.8028571,24.88 Z" id="Path"></path>
            <path d="M44.232,23.872 L44.184,23.872 C43.808,24.64 43.204,25.024 42.372,25.024 C41.988,25.024 41.64,24.948 41.328,24.796 C41.016,24.644 40.75,24.428 40.53,24.148 C40.31,23.868 40.142,23.528 40.026,23.128 C39.91,22.728 39.852,22.28 39.852,21.784 C39.852,21.288 39.91,20.84 40.026,20.44 C40.142,20.04 40.31,19.7 40.53,19.42 C40.75,19.14 41.016,18.924 41.328,18.772 C41.64,18.62 41.988,18.544 42.372,18.544 C42.804,18.544 43.174,18.638 43.482,18.826 C43.79,19.014 44.024,19.304 44.184,19.696 L44.232,19.696 L44.232,16 L45.192,16 L45.192,24.88 L44.232,24.88 L44.232,23.872 Z M42.636,24.16 C42.852,24.16 43.058,24.132 43.254,24.076 C43.45,24.02 43.62,23.938 43.764,23.83 C43.908,23.722 44.022,23.59 44.106,23.434 C44.19,23.278 44.232,23.1 44.232,22.9 L44.232,20.596 C44.232,20.428 44.19,20.27 44.106,20.122 C44.022,19.974 43.908,19.848 43.764,19.744 C43.62,19.64 43.45,19.558 43.254,19.498 C43.058,19.438 42.852,19.408 42.636,19.408 C42.092,19.408 41.664,19.578 41.352,19.918 C41.04,20.258 40.884,20.704 40.884,21.256 L40.884,22.312 C40.884,22.864 41.04,23.31 41.352,23.65 C41.664,23.99 42.092,24.16 42.636,24.16 Z" id="Shape"></path>
            <path d="M49.6971428,25.024 C49.2731428,25.024 48.8911428,24.948 48.5511428,24.796 C48.2111428,24.644 47.9191428,24.426 47.6751428,24.142 C47.4311428,23.858 47.2431428,23.518 47.1111428,23.122 C46.9791428,22.726 46.9131428,22.28 46.9131428,21.784 C46.9131428,21.296 46.9791428,20.852 47.1111428,20.452 C47.2431428,20.052 47.4311428,19.71 47.6751428,19.426 C47.9191428,19.142 48.2111428,18.924 48.5511428,18.772 C48.8911428,18.62 49.2731428,18.544 49.6971428,18.544 C50.1131428,18.544 50.4851428,18.62 50.8131428,18.772 C51.1411428,18.924 51.4211428,19.134 51.6531428,19.402 C51.8851428,19.67 52.0631428,19.988 52.1871428,20.356 C52.3111428,20.724 52.3731428,21.128 52.3731428,21.568 L52.3731428,22.024 L47.9211428,22.024 L47.9211428,22.312 C47.9211428,22.576 47.9631428,22.822 48.0471428,23.05 C48.1311428,23.278 48.2511428,23.476 48.4071428,23.644 C48.5631428,23.812 48.7551428,23.944 48.9831428,24.04 C49.2111428,24.136 49.4691428,24.184 49.7571428,24.184 C50.1491428,24.184 50.4911428,24.092 50.7831428,23.908 C51.0751428,23.724 51.3011428,23.46 51.4611428,23.116 L52.1451428,23.608 C51.9451428,24.032 51.6331428,24.374 51.2091428,24.634 C50.7851428,24.894 50.2811428,25.024 49.6971428,25.024 Z M49.6971428,19.348 C49.4331428,19.348 49.1931428,19.394 48.9771428,19.486 C48.7611428,19.578 48.5751428,19.708 48.4191428,19.876 C48.2631428,20.044 48.1411428,20.242 48.0531428,20.47 C47.9651428,20.698 47.9211428,20.948 47.9211428,21.22 L47.9211428,21.304 L51.3411428,21.304 L51.3411428,21.172 C51.3411428,20.62 51.1911428,20.178 50.8911428,19.846 C50.5911428,19.514 50.1931428,19.348 49.6971428,19.348 Z" id="Shape"></path>
            <path d="M54.0942857,24.88 L54.0942857,18.688 L55.0542857,18.688 L55.0542857,19.828 L55.1142857,19.828 C55.2262857,19.532 55.4262857,19.268 55.7142857,19.036 C56.0022857,18.804 56.3982857,18.688 56.9022857,18.688 L57.2742857,18.688 L57.2742857,19.648 L56.7102857,19.648 C56.1902857,19.648 55.7842857,19.746 55.4922857,19.942 C55.2002857,20.138 55.0542857,20.384 55.0542857,20.68 L55.0542857,24.88 L54.0942857,24.88 Z" id="Path"></path>
            <path d="M60.9034285,25.024 C60.4794285,25.024 60.0974285,24.948 59.7574285,24.796 C59.4174285,24.644 59.1254285,24.426 58.8814285,24.142 C58.6374285,23.858 58.4494285,23.518 58.3174285,23.122 C58.1854285,22.726 58.1194285,22.28 58.1194285,21.784 C58.1194285,21.296 58.1854285,20.852 58.3174285,20.452 C58.4494285,20.052 58.6374285,19.71 58.8814285,19.426 C59.1254285,19.142 59.4174285,18.924 59.7574285,18.772 C60.0974285,18.62 60.4794285,18.544 60.9034285,18.544 C61.3194285,18.544 61.6914285,18.62 62.0194285,18.772 C62.3474285,18.924 62.6274285,19.134 62.8594285,19.402 C63.0914285,19.67 63.2694285,19.988 63.3934285,20.356 C63.5174285,20.724 63.5794285,21.128 63.5794285,21.568 L63.5794285,22.024 L59.1274285,22.024 L59.1274285,22.312 C59.1274285,22.576 59.1694285,22.822 59.2534285,23.05 C59.3374285,23.278 59.4574285,23.476 59.6134285,23.644 C59.7694285,23.812 59.9614285,23.944 60.1894285,24.04 C60.4174285,24.136 60.6754285,24.184 60.9634285,24.184 C61.3554285,24.184 61.6974285,24.092 61.9894285,23.908 C62.2814285,23.724 62.5074285,23.46 62.6674285,23.116 L63.3514285,23.608 C63.1514285,24.032 62.8394285,24.374 62.4154285,24.634 C61.9914285,24.894 61.4874285,25.024 60.9034285,25.024 Z M60.9034285,19.348 C60.6394285,19.348 60.3994285,19.394 60.1834285,19.486 C59.9674285,19.578 59.7814285,19.708 59.6254285,19.876 C59.4694285,20.044 59.3474285,20.242 59.2594285,20.47 C59.1714285,20.698 59.1274285,20.948 59.1274285,21.22 L59.1274285,21.304 L62.5474285,21.304 L62.5474285,21.172 C62.5474285,20.62 62.3974285,20.178 62.0974285,19.846 C61.7974285,19.514 61.3994285,19.348 60.9034285,19.348 Z" id="Shape"></path>
            <path d="M69.2605714,23.872 L69.2125714,23.872 C68.8365714,24.64 68.2325714,25.024 67.4005714,25.024 C67.0165714,25.024 66.6685714,24.948 66.3565714,24.796 C66.0445714,24.644 65.7785714,24.428 65.5585714,24.148 C65.3385714,23.868 65.1705714,23.528 65.0545714,23.128 C64.9385714,22.728 64.8805714,22.28 64.8805714,21.784 C64.8805714,21.288 64.9385714,20.84 65.0545714,20.44 C65.1705714,20.04 65.3385714,19.7 65.5585714,19.42 C65.7785714,19.14 66.0445714,18.924 66.3565714,18.772 C66.6685714,18.62 67.0165714,18.544 67.4005714,18.544 C67.8325714,18.544 68.2025714,18.638 68.5105714,18.826 C68.8185714,19.014 69.0525714,19.304 69.2125714,19.696 L69.2605714,19.696 L69.2605714,16 L70.2205714,16 L70.2205714,24.88 L69.2605714,24.88 L69.2605714,23.872 Z M67.6645714,24.16 C67.8805714,24.16 68.0865714,24.132 68.2825714,24.076 C68.4785714,24.02 68.6485714,23.938 68.7925714,23.83 C68.9365714,23.722 69.0505714,23.59 69.1345714,23.434 C69.2185714,23.278 69.2605714,23.1 69.2605714,22.9 L69.2605714,20.596 C69.2605714,20.428 69.2185714,20.27 69.1345714,20.122 C69.0505714,19.974 68.9365714,19.848 68.7925714,19.744 C68.6485714,19.64 68.4785714,19.558 68.2825714,19.498 C68.0865714,19.438 67.8805714,19.408 67.6645714,19.408 C67.1205714,19.408 66.6925714,19.578 66.3805714,19.918 C66.0685714,20.258 65.9125714,20.704 65.9125714,21.256 L65.9125714,22.312 C65.9125714,22.864 66.0685714,23.31 66.3805714,23.65 C66.6925714,23.99 67.1205714,24.16 67.6645714,24.16 Z" id="Shape"></path>
            <polygon id="Path" points="75.4628571 24.88 75.4628571 16.504 76.4708571 16.504 76.4708571 23.992 80.0348571 23.992 80.0348571 24.88"></polygon>
            <path d="M81.996,17.236 C81.788,17.236 81.638,17.186 81.546,17.086 C81.454,16.986 81.408,16.856 81.408,16.696 L81.408,16.54 C81.408,16.38 81.454,16.25 81.546,16.15 C81.638,16.05 81.788,16 81.996,16 C82.204,16 82.354,16.05 82.446,16.15 C82.538,16.25 82.584,16.38 82.584,16.54 L82.584,16.696 C82.584,16.856 82.538,16.986 82.446,17.086 C82.354,17.186 82.204,17.236 81.996,17.236 Z M81.516,18.688 L82.476,18.688 L82.476,24.88 L81.516,24.88 L81.516,18.688 Z" id="Shape"></path>
            <path d="M86.5131428,25.024 C85.9371428,25.024 85.4551428,24.914 85.0671428,24.694 C84.6791428,24.474 84.3451428,24.18 84.0651428,23.812 L84.7491428,23.26 C84.9891428,23.564 85.2571428,23.798 85.5531428,23.962 C85.8491428,24.126 86.1931428,24.208 86.5851428,24.208 C86.9931428,24.208 87.3111428,24.12 87.5391428,23.944 C87.7671428,23.768 87.8811428,23.52 87.8811428,23.2 C87.8811428,22.96 87.8031428,22.754 87.6471428,22.582 C87.4911428,22.41 87.2091428,22.292 86.8011428,22.228 L86.3091428,22.156 C86.0211428,22.116 85.7571428,22.054 85.5171428,21.97 C85.2771428,21.886 85.0671428,21.774 84.8871428,21.634 C84.7071428,21.494 84.5671428,21.32 84.4671428,21.112 C84.3671428,20.904 84.3171428,20.656 84.3171428,20.368 C84.3171428,20.064 84.3731428,19.798 84.4851428,19.57 C84.5971428,19.342 84.7511428,19.152 84.9471428,19 C85.1431428,18.848 85.3771428,18.734 85.6491428,18.658 C85.9211428,18.582 86.2131428,18.544 86.5251428,18.544 C87.0291428,18.544 87.4511428,18.632 87.7911428,18.808 C88.1311428,18.984 88.4291428,19.228 88.6851428,19.54 L88.0491428,20.116 C87.9131428,19.924 87.7131428,19.75 87.4491428,19.594 C87.1851428,19.438 86.8531428,19.36 86.4531428,19.36 C86.0531428,19.36 85.7511428,19.446 85.5471428,19.618 C85.3431428,19.79 85.2411428,20.024 85.2411428,20.32 C85.2411428,20.624 85.3431428,20.844 85.5471428,20.98 C85.7511428,21.116 86.0451428,21.216 86.4291428,21.28 L86.9091428,21.352 C87.5971428,21.456 88.0851428,21.654 88.3731428,21.946 C88.6611428,22.238 88.8051428,22.62 88.8051428,23.092 C88.8051428,23.692 88.6011428,24.164 88.1931428,24.508 C87.7851428,24.852 87.2251428,25.024 86.5131428,25.024 Z" id="Path"></path>
            <path d="M91.9182857,24.88 C91.5822857,24.88 91.3282857,24.786 91.1562857,24.598 C90.9842857,24.41 90.8982857,24.164 90.8982857,23.86 L90.8982857,19.528 L89.8782857,19.528 L89.8782857,18.688 L90.4542857,18.688 C90.6622857,18.688 90.8042857,18.646 90.8802857,18.562 C90.9562857,18.478 90.9942857,18.332 90.9942857,18.124 L90.9942857,16.972 L91.8582857,16.972 L91.8582857,18.688 L93.2142857,18.688 L93.2142857,19.528 L91.8582857,19.528 L91.8582857,24.04 L93.1182857,24.04 L93.1182857,24.88 L91.9182857,24.88 Z" id="Path"></path>
            <polygon id="Path" points="0 37.688 0 36.776 6.192 36.776 6.192 37.688"></polygon>
            <path d="M14.7634286,32.504 L14.7634286,37.688 C14.7634286,38.488 14.9114286,39.094 15.2074286,39.506 C15.5034286,39.918 16.0234286,40.124 16.7674286,40.124 C17.5114286,40.124 18.0314286,39.918 18.3274286,39.506 C18.6234286,39.094 18.7714286,38.488 18.7714286,37.688 L18.7714286,32.504 L19.7794286,32.504 L19.7794286,37.448 C19.7794286,38.056 19.7254286,38.584 19.6174286,39.032 C19.5094286,39.48 19.3354286,39.852 19.0954286,40.148 C18.8554286,40.444 18.5414286,40.664 18.1534286,40.808 C17.7654286,40.952 17.2914286,41.024 16.7314286,41.024 C16.1714286,41.024 15.7014286,40.952 15.3214286,40.808 C14.9414286,40.664 14.6354286,40.444 14.4034286,40.148 C14.1714286,39.852 14.0054286,39.48 13.9054286,39.032 C13.8054286,38.584 13.7554286,38.056 13.7554286,37.448 L13.7554286,32.504 L14.7634286,32.504 Z" id="Path"></path>
            <path d="M21.9925714,40.88 L21.9925714,34.688 L22.9525714,34.688 L22.9525714,35.696 L23.0005714,35.696 C23.1525714,35.344 23.3665714,35.064 23.6425714,34.856 C23.9185714,34.648 24.2885714,34.544 24.7525714,34.544 C25.3925714,34.544 25.8985714,34.75 26.2705714,35.162 C26.6425714,35.574 26.8285714,36.156 26.8285714,36.908 L26.8285714,40.88 L25.8685714,40.88 L25.8685714,37.076 C25.8685714,35.964 25.4005714,35.408 24.4645714,35.408 C24.2725714,35.408 24.0865714,35.432 23.9065714,35.48 C23.7265714,35.528 23.5645714,35.6 23.4205714,35.696 C23.2765714,35.792 23.1625714,35.914 23.0785714,36.062 C22.9945714,36.21 22.9525714,36.384 22.9525714,36.584 L22.9525714,40.88 L21.9925714,40.88 Z" id="Path"></path>
            <path d="M31.2857143,41.024 C30.8697143,41.024 30.4897143,40.948 30.1457143,40.796 C29.8017143,40.644 29.5077143,40.426 29.2637143,40.142 C29.0197143,39.858 28.8297143,39.518 28.6937143,39.122 C28.5577143,38.726 28.4897143,38.28 28.4897143,37.784 C28.4897143,37.296 28.5577143,36.852 28.6937143,36.452 C28.8297143,36.052 29.0197143,35.71 29.2637143,35.426 C29.5077143,35.142 29.8017143,34.924 30.1457143,34.772 C30.4897143,34.62 30.8697143,34.544 31.2857143,34.544 C31.7017143,34.544 32.0797143,34.62 32.4197143,34.772 C32.7597143,34.924 33.0537143,35.142 33.3017143,35.426 C33.5497143,35.71 33.7417143,36.052 33.8777143,36.452 C34.0137143,36.852 34.0817143,37.296 34.0817143,37.784 C34.0817143,38.28 34.0137143,38.726 33.8777143,39.122 C33.7417143,39.518 33.5497143,39.858 33.3017143,40.142 C33.0537143,40.426 32.7597143,40.644 32.4197143,40.796 C32.0797143,40.948 31.7017143,41.024 31.2857143,41.024 Z M31.2857143,40.172 C31.8057143,40.172 32.2297143,40.012 32.5577143,39.692 C32.8857143,39.372 33.0497143,38.884 33.0497143,38.228 L33.0497143,37.34 C33.0497143,36.684 32.8857143,36.196 32.5577143,35.876 C32.2297143,35.556 31.8057143,35.396 31.2857143,35.396 C30.7657143,35.396 30.3417143,35.556 30.0137143,35.876 C29.6857143,36.196 29.5217143,36.684 29.5217143,37.34 L29.5217143,38.228 C29.5217143,38.884 29.6857143,39.372 30.0137143,39.692 C30.3417143,40.012 30.7657143,40.172 31.2857143,40.172 Z" id="Shape"></path>
            <path d="M35.8028571,40.88 L35.8028571,34.688 L36.7628571,34.688 L36.7628571,35.828 L36.8228571,35.828 C36.9348571,35.532 37.1348571,35.268 37.4228571,35.036 C37.7108571,34.804 38.1068571,34.688 38.6108571,34.688 L38.9828571,34.688 L38.9828571,35.648 L38.4188571,35.648 C37.8988571,35.648 37.4928571,35.746 37.2008571,35.942 C36.9088571,36.138 36.7628571,36.384 36.7628571,36.68 L36.7628571,40.88 L35.8028571,40.88 Z" id="Path"></path>
            <path d="M44.232,39.872 L44.184,39.872 C43.808,40.64 43.204,41.024 42.372,41.024 C41.988,41.024 41.64,40.948 41.328,40.796 C41.016,40.644 40.75,40.428 40.53,40.148 C40.31,39.868 40.142,39.528 40.026,39.128 C39.91,38.728 39.852,38.28 39.852,37.784 C39.852,37.288 39.91,36.84 40.026,36.44 C40.142,36.04 40.31,35.7 40.53,35.42 C40.75,35.14 41.016,34.924 41.328,34.772 C41.64,34.62 41.988,34.544 42.372,34.544 C42.804,34.544 43.174,34.638 43.482,34.826 C43.79,35.014 44.024,35.304 44.184,35.696 L44.232,35.696 L44.232,32 L45.192,32 L45.192,40.88 L44.232,40.88 L44.232,39.872 Z M42.636,40.16 C42.852,40.16 43.058,40.132 43.254,40.076 C43.45,40.02 43.62,39.938 43.764,39.83 C43.908,39.722 44.022,39.59 44.106,39.434 C44.19,39.278 44.232,39.1 44.232,38.9 L44.232,36.596 C44.232,36.428 44.19,36.27 44.106,36.122 C44.022,35.974 43.908,35.848 43.764,35.744 C43.62,35.64 43.45,35.558 43.254,35.498 C43.058,35.438 42.852,35.408 42.636,35.408 C42.092,35.408 41.664,35.578 41.352,35.918 C41.04,36.258 40.884,36.704 40.884,37.256 L40.884,38.312 C40.884,38.864 41.04,39.31 41.352,39.65 C41.664,39.99 42.092,40.16 42.636,40.16 Z" id="Shape"></path>
            <path d="M49.6971428,41.024 C49.2731428,41.024 48.8911428,40.948 48.5511428,40.796 C48.2111428,40.644 47.9191428,40.426 47.6751428,40.142 C47.4311428,39.858 47.2431428,39.518 47.1111428,39.122 C46.9791428,38.726 46.9131428,38.28 46.9131428,37.784 C46.9131428,37.296 46.9791428,36.852 47.1111428,36.452 C47.2431428,36.052 47.4311428,35.71 47.6751428,35.426 C47.9191428,35.142 48.2111428,34.924 48.5511428,34.772 C48.8911428,34.62 49.2731428,34.544 49.6971428,34.544 C50.1131428,34.544 50.4851428,34.62 50.8131428,34.772 C51.1411428,34.924 51.4211428,35.134 51.6531428,35.402 C51.8851428,35.67 52.0631428,35.988 52.1871428,36.356 C52.3111428,36.724 52.3731428,37.128 52.3731428,37.568 L52.3731428,38.024 L47.9211428,38.024 L47.9211428,38.312 C47.9211428,38.576 47.9631428,38.822 48.0471428,39.05 C48.1311428,39.278 48.2511428,39.476 48.4071428,39.644 C48.5631428,39.812 48.7551428,39.944 48.9831428,40.04 C49.2111428,40.136 49.4691428,40.184 49.7571428,40.184 C50.1491428,40.184 50.4911428,40.092 50.7831428,39.908 C51.0751428,39.724 51.3011428,39.46 51.4611428,39.116 L52.1451428,39.608 C51.9451428,40.032 51.6331428,40.374 51.2091428,40.634 C50.7851428,40.894 50.2811428,41.024 49.6971428,41.024 Z M49.6971428,35.348 C49.4331428,35.348 49.1931428,35.394 48.9771428,35.486 C48.7611428,35.578 48.5751428,35.708 48.4191428,35.876 C48.2631428,36.044 48.1411428,36.242 48.0531428,36.47 C47.9651428,36.698 47.9211428,36.948 47.9211428,37.22 L47.9211428,37.304 L51.3411428,37.304 L51.3411428,37.172 C51.3411428,36.62 51.1911428,36.178 50.8911428,35.846 C50.5911428,35.514 50.1931428,35.348 49.6971428,35.348 Z" id="Shape"></path>
            <path d="M54.0942857,40.88 L54.0942857,34.688 L55.0542857,34.688 L55.0542857,35.828 L55.1142857,35.828 C55.2262857,35.532 55.4262857,35.268 55.7142857,35.036 C56.0022857,34.804 56.3982857,34.688 56.9022857,34.688 L57.2742857,34.688 L57.2742857,35.648 L56.7102857,35.648 C56.1902857,35.648 55.7842857,35.746 55.4922857,35.942 C55.2002857,36.138 55.0542857,36.384 55.0542857,36.68 L55.0542857,40.88 L54.0942857,40.88 Z" id="Path"></path>
            <path d="M60.9034285,41.024 C60.4794285,41.024 60.0974285,40.948 59.7574285,40.796 C59.4174285,40.644 59.1254285,40.426 58.8814285,40.142 C58.6374285,39.858 58.4494285,39.518 58.3174285,39.122 C58.1854285,38.726 58.1194285,38.28 58.1194285,37.784 C58.1194285,37.296 58.1854285,36.852 58.3174285,36.452 C58.4494285,36.052 58.6374285,35.71 58.8814285,35.426 C59.1254285,35.142 59.4174285,34.924 59.7574285,34.772 C60.0974285,34.62 60.4794285,34.544 60.9034285,34.544 C61.3194285,34.544 61.6914285,34.62 62.0194285,34.772 C62.3474285,34.924 62.6274285,35.134 62.8594285,35.402 C63.0914285,35.67 63.2694285,35.988 63.3934285,36.356 C63.5174285,36.724 63.5794285,37.128 63.5794285,37.568 L63.5794285,38.024 L59.1274285,38.024 L59.1274285,38.312 C59.1274285,38.576 59.1694285,38.822 59.2534285,39.05 C59.3374285,39.278 59.4574285,39.476 59.6134285,39.644 C59.7694285,39.812 59.9614285,39.944 60.1894285,40.04 C60.4174285,40.136 60.6754285,40.184 60.9634285,40.184 C61.3554285,40.184 61.6974285,40.092 61.9894285,39.908 C62.2814285,39.724 62.5074285,39.46 62.6674285,39.116 L63.3514285,39.608 C63.1514285,40.032 62.8394285,40.374 62.4154285,40.634 C61.9914285,40.894 61.4874285,41.024 60.9034285,41.024 Z M60.9034285,35.348 C60.6394285,35.348 60.3994285,35.394 60.1834285,35.486 C59.9674285,35.578 59.7814285,35.708 59.6254285,35.876 C59.4694285,36.044 59.3474285,36.242 59.2594285,36.47 C59.1714285,36.698 59.1274285,36.948 59.1274285,37.22 L59.1274285,37.304 L62.5474285,37.304 L62.5474285,37.172 C62.5474285,36.62 62.3974285,36.178 62.0974285,35.846 C61.7974285,35.514 61.3994285,35.348 60.9034285,35.348 Z" id="Shape"></path>
            <path d="M69.2605714,39.872 L69.2125714,39.872 C68.8365714,40.64 68.2325714,41.024 67.4005714,41.024 C67.0165714,41.024 66.6685714,40.948 66.3565714,40.796 C66.0445714,40.644 65.7785714,40.428 65.5585714,40.148 C65.3385714,39.868 65.1705714,39.528 65.0545714,39.128 C64.9385714,38.728 64.8805714,38.28 64.8805714,37.784 C64.8805714,37.288 64.9385714,36.84 65.0545714,36.44 C65.1705714,36.04 65.3385714,35.7 65.5585714,35.42 C65.7785714,35.14 66.0445714,34.924 66.3565714,34.772 C66.6685714,34.62 67.0165714,34.544 67.4005714,34.544 C67.8325714,34.544 68.2025714,34.638 68.5105714,34.826 C68.8185714,35.014 69.0525714,35.304 69.2125714,35.696 L69.2605714,35.696 L69.2605714,32 L70.2205714,32 L70.2205714,40.88 L69.2605714,40.88 L69.2605714,39.872 Z M67.6645714,40.16 C67.8805714,40.16 68.0865714,40.132 68.2825714,40.076 C68.4785714,40.02 68.6485714,39.938 68.7925714,39.83 C68.9365714,39.722 69.0505714,39.59 69.1345714,39.434 C69.2185714,39.278 69.2605714,39.1 69.2605714,38.9 L69.2605714,36.596 C69.2605714,36.428 69.2185714,36.27 69.1345714,36.122 C69.0505714,35.974 68.9365714,35.848 68.7925714,35.744 C68.6485714,35.64 68.4785714,35.558 68.2825714,35.498 C68.0865714,35.438 67.8805714,35.408 67.6645714,35.408 C67.1205714,35.408 66.6925714,35.578 66.3805714,35.918 C66.0685714,36.258 65.9125714,36.704 65.9125714,37.256 L65.9125714,38.312 C65.9125714,38.864 66.0685714,39.31 66.3805714,39.65 C66.6925714,39.99 67.1205714,40.16 67.6645714,40.16 Z" id="Shape"></path>
            <polygon id="Path" points="75.4628571 40.88 75.4628571 32.504 76.4708571 32.504 76.4708571 39.992 80.0348571 39.992 80.0348571 40.88"></polygon>
            <path d="M81.996,33.236 C81.788,33.236 81.638,33.186 81.546,33.086 C81.454,32.986 81.408,32.856 81.408,32.696 L81.408,32.54 C81.408,32.38 81.454,32.25 81.546,32.15 C81.638,32.05 81.788,32 81.996,32 C82.204,32 82.354,32.05 82.446,32.15 C82.538,32.25 82.584,32.38 82.584,32.54 L82.584,32.696 C82.584,32.856 82.538,32.986 82.446,33.086 C82.354,33.186 82.204,33.236 81.996,33.236 Z M81.516,34.688 L82.476,34.688 L82.476,40.88 L81.516,40.88 L81.516,34.688 Z" id="Shape"></path>
            <path d="M86.5131428,41.024 C85.9371428,41.024 85.4551428,40.914 85.0671428,40.694 C84.6791428,40.474 84.3451428,40.18 84.0651428,39.812 L84.7491428,39.26 C84.9891428,39.564 85.2571428,39.798 85.5531428,39.962 C85.8491428,40.126 86.1931428,40.208 86.5851428,40.208 C86.9931428,40.208 87.3111428,40.12 87.5391428,39.944 C87.7671428,39.768 87.8811428,39.52 87.8811428,39.2 C87.8811428,38.96 87.8031428,38.754 87.6471428,38.582 C87.4911428,38.41 87.2091428,38.292 86.8011428,38.228 L86.3091428,38.156 C86.0211428,38.116 85.7571428,38.054 85.5171428,37.97 C85.2771428,37.886 85.0671428,37.774 84.8871428,37.634 C84.7071428,37.494 84.5671428,37.32 84.4671428,37.112 C84.3671428,36.904 84.3171428,36.656 84.3171428,36.368 C84.3171428,36.064 84.3731428,35.798 84.4851428,35.57 C84.5971428,35.342 84.7511428,35.152 84.9471428,35 C85.1431428,34.848 85.3771428,34.734 85.6491428,34.658 C85.9211428,34.582 86.2131428,34.544 86.5251428,34.544 C87.0291428,34.544 87.4511428,34.632 87.7911428,34.808 C88.1311428,34.984 88.4291428,35.228 88.6851428,35.54 L88.0491428,36.116 C87.9131428,35.924 87.7131428,35.75 87.4491428,35.594 C87.1851428,35.438 86.8531428,35.36 86.4531428,35.36 C86.0531428,35.36 85.7511428,35.446 85.5471428,35.618 C85.3431428,35.79 85.2411428,36.024 85.2411428,36.32 C85.2411428,36.624 85.3431428,36.844 85.5471428,36.98 C85.7511428,37.116 86.0451428,37.216 86.4291428,37.28 L86.9091428,37.352 C87.5971428,37.456 88.0851428,37.654 88.3731428,37.946 C88.6611428,38.238 88.8051428,38.62 88.8051428,39.092 C88.8051428,39.692 88.6011428,40.164 88.1931428,40.508 C87.7851428,40.852 87.2251428,41.024 86.5131428,41.024 Z" id="Path"></path>
            <path d="M91.9182857,40.88 C91.5822857,40.88 91.3282857,40.786 91.1562857,40.598 C90.9842857,40.41 90.8982857,40.164 90.8982857,39.86 L90.8982857,35.528 L89.8782857,35.528 L89.8782857,34.688 L90.4542857,34.688 C90.6622857,34.688 90.8042857,34.646 90.8802857,34.562 C90.9562857,34.478 90.9942857,34.332 90.9942857,34.124 L90.9942857,32.972 L91.8582857,32.972 L91.8582857,34.688 L93.2142857,34.688 L93.2142857,35.528 L91.8582857,35.528 L91.8582857,40.04 L93.1182857,40.04 L93.1182857,40.88 L91.9182857,40.88 Z" id="Path"></path>
            <polygon id="Path" points="0 53.688 0 52.776 6.192 52.776 6.192 53.688"></polygon>
            <path d="M14.7634286,48.504 L14.7634286,53.688 C14.7634286,54.488 14.9114286,55.094 15.2074286,55.506 C15.5034286,55.918 16.0234286,56.124 16.7674286,56.124 C17.5114286,56.124 18.0314286,55.918 18.3274286,55.506 C18.6234286,55.094 18.7714286,54.488 18.7714286,53.688 L18.7714286,48.504 L19.7794286,48.504 L19.7794286,53.448 C19.7794286,54.056 19.7254286,54.584 19.6174286,55.032 C19.5094286,55.48 19.3354286,55.852 19.0954286,56.148 C18.8554286,56.444 18.5414286,56.664 18.1534286,56.808 C17.7654286,56.952 17.2914286,57.024 16.7314286,57.024 C16.1714286,57.024 15.7014286,56.952 15.3214286,56.808 C14.9414286,56.664 14.6354286,56.444 14.4034286,56.148 C14.1714286,55.852 14.0054286,55.48 13.9054286,55.032 C13.8054286,54.584 13.7554286,54.056 13.7554286,53.448 L13.7554286,48.504 L14.7634286,48.504 Z" id="Path"></path>
            <path d="M21.9925714,56.88 L21.9925714,50.688 L22.9525714,50.688 L22.9525714,51.696 L23.0005714,51.696 C23.1525714,51.344 23.3665714,51.064 23.6425714,50.856 C23.9185714,50.648 24.2885714,50.544 24.7525714,50.544 C25.3925714,50.544 25.8985714,50.75 26.2705714,51.162 C26.6425714,51.574 26.8285714,52.156 26.8285714,52.908 L26.8285714,56.88 L25.8685714,56.88 L25.8685714,53.076 C25.8685714,51.964 25.4005714,51.408 24.4645714,51.408 C24.2725714,51.408 24.0865714,51.432 23.9065714,51.48 C23.7265714,51.528 23.5645714,51.6 23.4205714,51.696 C23.2765714,51.792 23.1625714,51.914 23.0785714,52.062 C22.9945714,52.21 22.9525714,52.384 22.9525714,52.584 L22.9525714,56.88 L21.9925714,56.88 Z" id="Path"></path>
            <path d="M31.2857143,57.024 C30.8697143,57.024 30.4897143,56.948 30.1457143,56.796 C29.8017143,56.644 29.5077143,56.426 29.2637143,56.142 C29.0197143,55.858 28.8297143,55.518 28.6937143,55.122 C28.5577143,54.726 28.4897143,54.28 28.4897143,53.784 C28.4897143,53.296 28.5577143,52.852 28.6937143,52.452 C28.8297143,52.052 29.0197143,51.71 29.2637143,51.426 C29.5077143,51.142 29.8017143,50.924 30.1457143,50.772 C30.4897143,50.62 30.8697143,50.544 31.2857143,50.544 C31.7017143,50.544 32.0797143,50.62 32.4197143,50.772 C32.7597143,50.924 33.0537143,51.142 33.3017143,51.426 C33.5497143,51.71 33.7417143,52.052 33.8777143,52.452 C34.0137143,52.852 34.0817143,53.296 34.0817143,53.784 C34.0817143,54.28 34.0137143,54.726 33.8777143,55.122 C33.7417143,55.518 33.5497143,55.858 33.3017143,56.142 C33.0537143,56.426 32.7597143,56.644 32.4197143,56.796 C32.0797143,56.948 31.7017143,57.024 31.2857143,57.024 Z M31.2857143,56.172 C31.8057143,56.172 32.2297143,56.012 32.5577143,55.692 C32.8857143,55.372 33.0497143,54.884 33.0497143,54.228 L33.0497143,53.34 C33.0497143,52.684 32.8857143,52.196 32.5577143,51.876 C32.2297143,51.556 31.8057143,51.396 31.2857143,51.396 C30.7657143,51.396 30.3417143,51.556 30.0137143,51.876 C29.6857143,52.196 29.5217143,52.684 29.5217143,53.34 L29.5217143,54.228 C29.5217143,54.884 29.6857143,55.372 30.0137143,55.692 C30.3417143,56.012 30.7657143,56.172 31.2857143,56.172 Z" id="Shape"></path>
            <path d="M35.8028571,56.88 L35.8028571,50.688 L36.7628571,50.688 L36.7628571,51.828 L36.8228571,51.828 C36.9348571,51.532 37.1348571,51.268 37.4228571,51.036 C37.7108571,50.804 38.1068571,50.688 38.6108571,50.688 L38.9828571,50.688 L38.9828571,51.648 L38.4188571,51.648 C37.8988571,51.648 37.4928571,51.746 37.2008571,51.942 C36.9088571,52.138 36.7628571,52.384 36.7628571,52.68 L36.7628571,56.88 L35.8028571,56.88 Z" id="Path"></path>
            <path d="M44.232,55.872 L44.184,55.872 C43.808,56.64 43.204,57.024 42.372,57.024 C41.988,57.024 41.64,56.948 41.328,56.796 C41.016,56.644 40.75,56.428 40.53,56.148 C40.31,55.868 40.142,55.528 40.026,55.128 C39.91,54.728 39.852,54.28 39.852,53.784 C39.852,53.288 39.91,52.84 40.026,52.44 C40.142,52.04 40.31,51.7 40.53,51.42 C40.75,51.14 41.016,50.924 41.328,50.772 C41.64,50.62 41.988,50.544 42.372,50.544 C42.804,50.544 43.174,50.638 43.482,50.826 C43.79,51.014 44.024,51.304 44.184,51.696 L44.232,51.696 L44.232,48 L45.192,48 L45.192,56.88 L44.232,56.88 L44.232,55.872 Z M42.636,56.16 C42.852,56.16 43.058,56.132 43.254,56.076 C43.45,56.02 43.62,55.938 43.764,55.83 C43.908,55.722 44.022,55.59 44.106,55.434 C44.19,55.278 44.232,55.1 44.232,54.9 L44.232,52.596 C44.232,52.428 44.19,52.27 44.106,52.122 C44.022,51.974 43.908,51.848 43.764,51.744 C43.62,51.64 43.45,51.558 43.254,51.498 C43.058,51.438 42.852,51.408 42.636,51.408 C42.092,51.408 41.664,51.578 41.352,51.918 C41.04,52.258 40.884,52.704 40.884,53.256 L40.884,54.312 C40.884,54.864 41.04,55.31 41.352,55.65 C41.664,55.99 42.092,56.16 42.636,56.16 Z" id="Shape"></path>
            <path d="M49.6971428,57.024 C49.2731428,57.024 48.8911428,56.948 48.5511428,56.796 C48.2111428,56.644 47.9191428,56.426 47.6751428,56.142 C47.4311428,55.858 47.2431428,55.518 47.1111428,55.122 C46.9791428,54.726 46.9131428,54.28 46.9131428,53.784 C46.9131428,53.296 46.9791428,52.852 47.1111428,52.452 C47.2431428,52.052 47.4311428,51.71 47.6751428,51.426 C47.9191428,51.142 48.2111428,50.924 48.5511428,50.772 C48.8911428,50.62 49.2731428,50.544 49.6971428,50.544 C50.1131428,50.544 50.4851428,50.62 50.8131428,50.772 C51.1411428,50.924 51.4211428,51.134 51.6531428,51.402 C51.8851428,51.67 52.0631428,51.988 52.1871428,52.356 C52.3111428,52.724 52.3731428,53.128 52.3731428,53.568 L52.3731428,54.024 L47.9211428,54.024 L47.9211428,54.312 C47.9211428,54.576 47.9631428,54.822 48.0471428,55.05 C48.1311428,55.278 48.2511428,55.476 48.4071428,55.644 C48.5631428,55.812 48.7551428,55.944 48.9831428,56.04 C49.2111428,56.136 49.4691428,56.184 49.7571428,56.184 C50.1491428,56.184 50.4911428,56.092 50.7831428,55.908 C51.0751428,55.724 51.3011428,55.46 51.4611428,55.116 L52.1451428,55.608 C51.9451428,56.032 51.6331428,56.374 51.2091428,56.634 C50.7851428,56.894 50.2811428,57.024 49.6971428,57.024 Z M49.6971428,51.348 C49.4331428,51.348 49.1931428,51.394 48.9771428,51.486 C48.7611428,51.578 48.5751428,51.708 48.4191428,51.876 C48.2631428,52.044 48.1411428,52.242 48.0531428,52.47 C47.9651428,52.698 47.9211428,52.948 47.9211428,53.22 L47.9211428,53.304 L51.3411428,53.304 L51.3411428,53.172 C51.3411428,52.62 51.1911428,52.178 50.8911428,51.846 C50.5911428,51.514 50.1931428,51.348 49.6971428,51.348 Z" id="Shape"></path>
            <path d="M54.0942857,56.88 L54.0942857,50.688 L55.0542857,50.688 L55.0542857,51.828 L55.1142857,51.828 C55.2262857,51.532 55.4262857,51.268 55.7142857,51.036 C56.0022857,50.804 56.3982857,50.688 56.9022857,50.688 L57.2742857,50.688 L57.2742857,51.648 L56.7102857,51.648 C56.1902857,51.648 55.7842857,51.746 55.4922857,51.942 C55.2002857,52.138 55.0542857,52.384 55.0542857,52.68 L55.0542857,56.88 L54.0942857,56.88 Z" id="Path"></path>
            <path d="M60.9034285,57.024 C60.4794285,57.024 60.0974285,56.948 59.7574285,56.796 C59.4174285,56.644 59.1254285,56.426 58.8814285,56.142 C58.6374285,55.858 58.4494285,55.518 58.3174285,55.122 C58.1854285,54.726 58.1194285,54.28 58.1194285,53.784 C58.1194285,53.296 58.1854285,52.852 58.3174285,52.452 C58.4494285,52.052 58.6374285,51.71 58.8814285,51.426 C59.1254285,51.142 59.4174285,50.924 59.7574285,50.772 C60.0974285,50.62 60.4794285,50.544 60.9034285,50.544 C61.3194285,50.544 61.6914285,50.62 62.0194285,50.772 C62.3474285,50.924 62.6274285,51.134 62.8594285,51.402 C63.0914285,51.67 63.2694285,51.988 63.3934285,52.356 C63.5174285,52.724 63.5794285,53.128 63.5794285,53.568 L63.5794285,54.024 L59.1274285,54.024 L59.1274285,54.312 C59.1274285,54.576 59.1694285,54.822 59.2534285,55.05 C59.3374285,55.278 59.4574285,55.476 59.6134285,55.644 C59.7694285,55.812 59.9614285,55.944 60.1894285,56.04 C60.4174285,56.136 60.6754285,56.184 60.9634285,56.184 C61.3554285,56.184 61.6974285,56.092 61.9894285,55.908 C62.2814285,55.724 62.5074285,55.46 62.6674285,55.116 L63.3514285,55.608 C63.1514285,56.032 62.8394285,56.374 62.4154285,56.634 C61.9914285,56.894 61.4874285,57.024 60.9034285,57.024 Z M60.9034285,51.348 C60.6394285,51.348 60.3994285,51.394 60.1834285,51.486 C59.9674285,51.578 59.7814285,51.708 59.6254285,51.876 C59.4694285,52.044 59.3474285,52.242 59.2594285,52.47 C59.1714285,52.698 59.1274285,52.948 59.1274285,53.22 L59.1274285,53.304 L62.5474285,53.304 L62.5474285,53.172 C62.5474285,52.62 62.3974285,52.178 62.0974285,51.846 C61.7974285,51.514 61.3994285,51.348 60.9034285,51.348 Z" id="Shape"></path>
            <path d="M69.2605714,55.872 L69.2125714,55.872 C68.8365714,56.64 68.2325714,57.024 67.4005714,57.024 C67.0165714,57.024 66.6685714,56.948 66.3565714,56.796 C66.0445714,56.644 65.7785714,56.428 65.5585714,56.148 C65.3385714,55.868 65.1705714,55.528 65.0545714,55.128 C64.9385714,54.728 64.8805714,54.28 64.8805714,53.784 C64.8805714,53.288 64.9385714,52.84 65.0545714,52.44 C65.1705714,52.04 65.3385714,51.7 65.5585714,51.42 C65.7785714,51.14 66.0445714,50.924 66.3565714,50.772 C66.6685714,50.62 67.0165714,50.544 67.4005714,50.544 C67.8325714,50.544 68.2025714,50.638 68.5105714,50.826 C68.8185714,51.014 69.0525714,51.304 69.2125714,51.696 L69.2605714,51.696 L69.2605714,48 L70.2205714,48 L70.2205714,56.88 L69.2605714,56.88 L69.2605714,55.872 Z M67.6645714,56.16 C67.8805714,56.16 68.0865714,56.132 68.2825714,56.076 C68.4785714,56.02 68.6485714,55.938 68.7925714,55.83 C68.9365714,55.722 69.0505714,55.59 69.1345714,55.434 C69.2185714,55.278 69.2605714,55.1 69.2605714,54.9 L69.2605714,52.596 C69.2605714,52.428 69.2185714,52.27 69.1345714,52.122 C69.0505714,51.974 68.9365714,51.848 68.7925714,51.744 C68.6485714,51.64 68.4785714,51.558 68.2825714,51.498 C68.0865714,51.438 67.8805714,51.408 67.6645714,51.408 C67.1205714,51.408 66.6925714,51.578 66.3805714,51.918 C66.0685714,52.258 65.9125714,52.704 65.9125714,53.256 L65.9125714,54.312 C65.9125714,54.864 66.0685714,55.31 66.3805714,55.65 C66.6925714,55.99 67.1205714,56.16 67.6645714,56.16 Z" id="Shape"></path>
            <polygon id="Path" points="75.4628571 56.88 75.4628571 48.504 76.4708571 48.504 76.4708571 55.992 80.0348571 55.992 80.0348571 56.88"></polygon>
            <path d="M81.996,49.236 C81.788,49.236 81.638,49.186 81.546,49.086 C81.454,48.986 81.408,48.856 81.408,48.696 L81.408,48.54 C81.408,48.38 81.454,48.25 81.546,48.15 C81.638,48.05 81.788,48 81.996,48 C82.204,48 82.354,48.05 82.446,48.15 C82.538,48.25 82.584,48.38 82.584,48.54 L82.584,48.696 C82.584,48.856 82.538,48.986 82.446,49.086 C82.354,49.186 82.204,49.236 81.996,49.236 Z M81.516,50.688 L82.476,50.688 L82.476,56.88 L81.516,56.88 L81.516,50.688 Z" id="Shape"></path>
            <path d="M86.5131428,57.024 C85.9371428,57.024 85.4551428,56.914 85.0671428,56.694 C84.6791428,56.474 84.3451428,56.18 84.0651428,55.812 L84.7491428,55.26 C84.9891428,55.564 85.2571428,55.798 85.5531428,55.962 C85.8491428,56.126 86.1931428,56.208 86.5851428,56.208 C86.9931428,56.208 87.3111428,56.12 87.5391428,55.944 C87.7671428,55.768 87.8811428,55.52 87.8811428,55.2 C87.8811428,54.96 87.8031428,54.754 87.6471428,54.582 C87.4911428,54.41 87.2091428,54.292 86.8011428,54.228 L86.3091428,54.156 C86.0211428,54.116 85.7571428,54.054 85.5171428,53.97 C85.2771428,53.886 85.0671428,53.774 84.8871428,53.634 C84.7071428,53.494 84.5671428,53.32 84.4671428,53.112 C84.3671428,52.904 84.3171428,52.656 84.3171428,52.368 C84.3171428,52.064 84.3731428,51.798 84.4851428,51.57 C84.5971428,51.342 84.7511428,51.152 84.9471428,51 C85.1431428,50.848 85.3771428,50.734 85.6491428,50.658 C85.9211428,50.582 86.2131428,50.544 86.5251428,50.544 C87.0291428,50.544 87.4511428,50.632 87.7911428,50.808 C88.1311428,50.984 88.4291428,51.228 88.6851428,51.54 L88.0491428,52.116 C87.9131428,51.924 87.7131428,51.75 87.4491428,51.594 C87.1851428,51.438 86.8531428,51.36 86.4531428,51.36 C86.0531428,51.36 85.7511428,51.446 85.5471428,51.618 C85.3431428,51.79 85.2411428,52.024 85.2411428,52.32 C85.2411428,52.624 85.3431428,52.844 85.5471428,52.98 C85.7511428,53.116 86.0451428,53.216 86.4291428,53.28 L86.9091428,53.352 C87.5971428,53.456 88.0851428,53.654 88.3731428,53.946 C88.6611428,54.238 88.8051428,54.62 88.8051428,55.092 C88.8051428,55.692 88.6011428,56.164 88.1931428,56.508 C87.7851428,56.852 87.2251428,57.024 86.5131428,57.024 Z" id="Path"></path>
            <path d="M91.9182857,56.88 C91.5822857,56.88 91.3282857,56.786 91.1562857,56.598 C90.9842857,56.41 90.8982857,56.164 90.8982857,55.86 L90.8982857,51.528 L89.8782857,51.528 L89.8782857,50.688 L90.4542857,50.688 C90.6622857,50.688 90.8042857,50.646 90.8802857,50.562 C90.9562857,50.478 90.9942857,50.332 90.9942857,50.124 L90.9942857,48.972 L91.8582857,48.972 L91.8582857,50.688 L93.2142857,50.688 L93.2142857,51.528 L91.8582857,51.528 L91.8582857,56.04 L93.1182857,56.04 L93.1182857,56.88 L91.9182857,56.88 Z" id="Path"></path>
        </g>
    </g>
</svg>