<?xml version="1.0" encoding="UTF-8"?>
<svg width="320px" height="180px" viewBox="0 0 320 180" version="1.1" xmlns="http://www.w3.org/2000/svg" xmlns:xlink="http://www.w3.org/1999/xlink">
    <title>text-unstable</title>
    <defs>
        <polygon id="path-1" points="0 0 62 0 62 14 0 14"></polygon>
        <polygon id="path-3" points="0 0 141 0 141 16 0 16"></polygon>
    </defs>
    <g id="text-unstable" stroke="none" stroke-width="1" fill="none" fill-rule="evenodd">
        <g id="Group-2" transform="translate(90.000000, 73.000000)">
            <mask id="mask-2" fill="white">
                <use xlink:href="#path-1"></use>
            </mask>
            <g id="Clip-1"></g>
            <g id="Hello-world" mask="url(#mask-2)" fill="#000000" fill-rule="nonzero">
                <g transform="translate(1.116000, 1.120000)">
                    <polygon id="Path" points="5.244 5.088 1.008 5.088 1.008 8.88 0 8.88 0 0.504 1.008 0.504 1.008 4.2 5.244 4.2 5.244 0.504 6.252 0.504 6.252 8.88 5.244 8.88"></polygon>
                    <path d="M10.716,9.024 C10.292,9.024 9.91,8.948 9.57,8.796 C9.23,8.644 8.938,8.426 8.694,8.142 C8.45,7.858 8.262,7.518 8.13,7.122 C7.998,6.726 7.932,6.28 7.932,5.784 C7.932,5.296 7.998,4.852 8.13,4.452 C8.262,4.052 8.45,3.71 8.694,3.426 C8.938,3.142 9.23,2.924 9.57,2.772 C9.91,2.62 10.292,2.544 10.716,2.544 C11.132,2.544 11.504,2.62 11.832,2.772 C12.16,2.924 12.44,3.134 12.672,3.402 C12.904,3.67 13.082,3.988 13.206,4.356 C13.33,4.724 13.392,5.128 13.392,5.568 L13.392,6.024 L8.94,6.024 L8.94,6.312 C8.94,6.576 8.982,6.822 9.066,7.05 C9.15,7.278 9.27,7.476 9.426,7.644 C9.582,7.812 9.774,7.944 10.002,8.04 C10.23,8.136 10.488,8.184 10.776,8.184 C11.168,8.184 11.51,8.092 11.802,7.908 C12.094,7.724 12.32,7.46 12.48,7.116 L13.164,7.608 C12.964,8.032 12.652,8.374 12.228,8.634 C11.804,8.894 11.3,9.024 10.716,9.024 Z M10.716,3.348 C10.452,3.348 10.212,3.394 9.996,3.486 C9.78,3.578 9.594,3.708 9.438,3.876 C9.282,4.044 9.16,4.242 9.072,4.47 C8.984,4.698 8.94,4.948 8.94,5.22 L8.94,5.304 L12.36,5.304 L12.36,5.172 C12.36,4.62 12.21,4.178 11.91,3.846 C11.61,3.514 11.212,3.348 10.716,3.348 Z" id="Shape"></path>
                    <path d="M15.996,8.88 C15.66,8.88 15.406,8.786 15.234,8.598 C15.062,8.41 14.976,8.172 14.976,7.884 L14.976,0 L15.936,0 L15.936,8.04 L16.848,8.04 L16.848,8.88 L15.996,8.88 Z" id="Path"></path>
                    <path d="M19.14,8.88 C18.804,8.88 18.55,8.786 18.378,8.598 C18.206,8.41 18.12,8.172 18.12,7.884 L18.12,0 L19.08,0 L19.08,8.04 L19.992,8.04 L19.992,8.88 L19.14,8.88 Z" id="Path"></path>
                    <path d="M23.724,9.024 C23.308,9.024 22.928,8.948 22.584,8.796 C22.24,8.644 21.946,8.426 21.702,8.142 C21.458,7.858 21.268,7.518 21.132,7.122 C20.996,6.726 20.928,6.28 20.928,5.784 C20.928,5.296 20.996,4.852 21.132,4.452 C21.268,4.052 21.458,3.71 21.702,3.426 C21.946,3.142 22.24,2.924 22.584,2.772 C22.928,2.62 23.308,2.544 23.724,2.544 C24.14,2.544 24.518,2.62 24.858,2.772 C25.198,2.924 25.492,3.142 25.74,3.426 C25.988,3.71 26.18,4.052 26.316,4.452 C26.452,4.852 26.52,5.296 26.52,5.784 C26.52,6.28 26.452,6.726 26.316,7.122 C26.18,7.518 25.988,7.858 25.74,8.142 C25.492,8.426 25.198,8.644 24.858,8.796 C24.518,8.948 24.14,9.024 23.724,9.024 Z M23.724,8.172 C24.244,8.172 24.668,8.012 24.996,7.692 C25.324,7.372 25.488,6.884 25.488,6.228 L25.488,5.34 C25.488,4.684 25.324,4.196 24.996,3.876 C24.668,3.556 24.244,3.396 23.724,3.396 C23.204,3.396 22.78,3.556 22.452,3.876 C22.124,4.196 21.96,4.684 21.96,5.34 L21.96,6.228 C21.96,6.884 22.124,7.372 22.452,7.692 C22.78,8.012 23.204,8.172 23.724,8.172 Z" id="Shape"></path>
                    <polygon id="Path" points="30.288 2.688 31.224 2.688 31.884 5.364 32.544 8.076 32.568 8.076 33.324 5.364 34.104 2.688 34.956 2.688 35.76 5.364 36.528 8.076 36.552 8.076 37.188 5.364 37.86 2.688 38.76 2.688 37.116 8.88 35.928 8.88 35.064 5.904 34.524 4.02 34.5 4.02 33.972 5.904 33.108 8.88 31.944 8.88"></polygon>
                    <path d="M42.3732,9.024 C41.9572,9.024 41.5772,8.948 41.2332,8.796 C40.8892,8.644 40.5952,8.426 40.3512,8.142 C40.1072,7.858 39.9172,7.518 39.7812,7.122 C39.6452,6.726 39.5772,6.28 39.5772,5.784 C39.5772,5.296 39.6452,4.852 39.7812,4.452 C39.9172,4.052 40.1072,3.71 40.3512,3.426 C40.5952,3.142 40.8892,2.924 41.2332,2.772 C41.5772,2.62 41.9572,2.544 42.3732,2.544 C42.7892,2.544 43.1672,2.62 43.5072,2.772 C43.8472,2.924 44.1412,3.142 44.3892,3.426 C44.6372,3.71 44.8292,4.052 44.9652,4.452 C45.1012,4.852 45.1692,5.296 45.1692,5.784 C45.1692,6.28 45.1012,6.726 44.9652,7.122 C44.8292,7.518 44.6372,7.858 44.3892,8.142 C44.1412,8.426 43.8472,8.644 43.5072,8.796 C43.1672,8.948 42.7892,9.024 42.3732,9.024 Z M42.3732,8.172 C42.8932,8.172 43.3172,8.012 43.6452,7.692 C43.9732,7.372 44.1372,6.884 44.1372,6.228 L44.1372,5.34 C44.1372,4.684 43.9732,4.196 43.6452,3.876 C43.3172,3.556 42.8932,3.396 42.3732,3.396 C41.8532,3.396 41.4292,3.556 41.1012,3.876 C40.7732,4.196 40.6092,4.684 40.6092,5.34 L40.6092,6.228 C40.6092,6.884 40.7732,7.372 41.1012,7.692 C41.4292,8.012 41.8532,8.172 42.3732,8.172 Z" id="Shape"></path>
                    <path d="M46.7532,8.88 L46.7532,2.688 L47.7132,2.688 L47.7132,3.828 L47.7732,3.828 C47.8852,3.532 48.0852,3.268 48.3732,3.036 C48.6612,2.804 49.0572,2.688 49.5612,2.688 L49.9332,2.688 L49.9332,3.648 L49.3692,3.648 C48.8492,3.648 48.4432,3.746 48.1512,3.942 C47.8592,4.138 47.7132,4.384 47.7132,4.68 L47.7132,8.88 L46.7532,8.88 Z" id="Path"></path>
                    <path d="M52.1772,8.88 C51.8412,8.88 51.5872,8.786 51.4152,8.598 C51.2432,8.41 51.1572,8.172 51.1572,7.884 L51.1572,0 L52.1172,0 L52.1172,8.04 L53.0292,8.04 L53.0292,8.88 L52.1772,8.88 Z" id="Path"></path>
                    <path d="M58.3812,7.872 L58.3332,7.872 C57.9572,8.64 57.3532,9.024 56.5212,9.024 C56.1372,9.024 55.7892,8.948 55.4772,8.796 C55.1652,8.644 54.8992,8.428 54.6792,8.148 C54.4592,7.868 54.2912,7.528 54.1752,7.128 C54.0592,6.728 54.0012,6.28 54.0012,5.784 C54.0012,5.288 54.0592,4.84 54.1752,4.44 C54.2912,4.04 54.4592,3.7 54.6792,3.42 C54.8992,3.14 55.1652,2.924 55.4772,2.772 C55.7892,2.62 56.1372,2.544 56.5212,2.544 C56.9532,2.544 57.3232,2.638 57.6312,2.826 C57.9392,3.014 58.1732,3.304 58.3332,3.696 L58.3812,3.696 L58.3812,0 L59.3412,0 L59.3412,8.88 L58.3812,8.88 L58.3812,7.872 Z M56.7852,8.16 C57.0012,8.16 57.2072,8.132 57.4032,8.076 C57.5992,8.02 57.7692,7.938 57.9132,7.83 C58.0572,7.722 58.1712,7.59 58.2552,7.434 C58.3392,7.278 58.3812,7.1 58.3812,6.9 L58.3812,4.596 C58.3812,4.428 58.3392,4.27 58.2552,4.122 C58.1712,3.974 58.0572,3.848 57.9132,3.744 C57.7692,3.64 57.5992,3.558 57.4032,3.498 C57.2072,3.438 57.0012,3.408 56.7852,3.408 C56.2412,3.408 55.8132,3.578 55.5012,3.918 C55.1892,4.258 55.0332,4.704 55.0332,5.256 L55.0332,6.312 C55.0332,6.864 55.1892,7.31 55.5012,7.65 C55.8132,7.99 56.2412,8.16 56.7852,8.16 Z" id="Shape"></path>
                </g>
            </g>
            <text id="-" mask="url(#mask-2)" font-family="IBMPlexArabic-Text, IBM Plex Arabic" font-size="12" font-weight="normal"></text>
        </g>
        <g id="Group-2-Copy" transform="translate(90.000000, 90.000000)">
            <mask id="mask-4" fill="white">
                <use xlink:href="#path-3"></use>
            </mask>
            <g id="Clip-1"></g>
            <g id="لكن-لا-بد-أن-أوضح-لك" mask="url(#mask-4)" fill="#000000" fill-rule="nonzero">
                <g transform="translate(0.480000, -0.848000)">
                    <path d="M122.64,10.056 L122.88,9.816 L123.228,9.816 C123.612,9.816 123.89,9.728 124.062,9.552 C124.234,9.376 124.32,9.096 124.32,8.712 L124.32,1.968 L125.208,1.968 L125.208,8.712 C125.208,9.448 125.05,9.988 124.734,10.332 C124.418,10.676 123.916,10.848 123.228,10.848 L122.64,10.848 L122.64,10.056 Z" id="Path"></path>
                    <path d="M117.216,10.056 L117.456,9.816 L118.56,9.816 C118.968,9.816 119.254,9.774 119.418,9.69 C119.582,9.606 119.664,9.46 119.664,9.252 C119.664,9.188 119.654,9.122 119.634,9.054 C119.614,8.986 119.58,8.91 119.532,8.826 C119.484,8.742 119.42,8.644 119.34,8.532 C119.26,8.42 119.156,8.284 119.028,8.124 L117.576,6.312 L117.576,4.224 L122.76,1.836 L122.76,2.928 L117.996,5.136 L117.996,5.196 L120.66,8.508 C120.868,8.772 121.058,8.988 121.23,9.156 C121.402,9.324 121.57,9.456 121.734,9.552 C121.898,9.648 122.072,9.716 122.256,9.756 C122.44,9.796 122.648,9.816 122.88,9.816 L122.88,10.608 L122.64,10.848 C122.352,10.848 122.102,10.828 121.89,10.788 C121.678,10.748 121.482,10.676 121.302,10.572 C121.122,10.468 120.948,10.324 120.78,10.14 C120.612,9.956 120.428,9.724 120.228,9.444 L120.024,9.156 L119.976,9.18 C119.984,9.236 119.99,9.29 119.994,9.342 C119.998,9.394 120,9.444 120,9.492 C120,9.916 119.87,10.248 119.61,10.488 C119.35,10.728 119,10.848 118.56,10.848 L117.216,10.848 L117.216,10.056 Z" id="Path"></path>
                    <path d="M112.692,13.728 C111.644,13.728 110.828,13.464 110.244,12.936 C109.66,12.408 109.368,11.672 109.368,10.728 C109.368,10.36 109.418,9.97 109.518,9.558 C109.618,9.146 109.756,8.736 109.932,8.328 L110.676,8.556 C110.524,8.868 110.4,9.194 110.304,9.534 C110.208,9.874 110.16,10.196 110.16,10.5 C110.16,11.18 110.352,11.708 110.736,12.084 C111.12,12.46 111.652,12.648 112.332,12.648 L113.052,12.648 C113.9,12.648 114.522,12.478 114.918,12.138 C115.314,11.798 115.512,11.264 115.512,10.536 C115.512,10.408 115.508,10.28 115.5,10.152 C115.492,10.024 115.478,9.882 115.458,9.726 C115.438,9.57 115.41,9.396 115.374,9.204 C115.338,9.012 115.296,8.796 115.248,8.556 L115.044,7.56 L115.884,7.392 L116.064,8.388 C116.12,8.7 116.166,8.97 116.202,9.198 C116.238,9.426 116.264,9.632 116.28,9.816 L117.456,9.816 L117.456,10.608 L117.216,10.848 L116.316,10.848 C116.26,11.84 115.94,12.568 115.356,13.032 C114.772,13.496 113.884,13.728 112.692,13.728 Z M112.86,7.104 C112.7,7.104 112.572,7.058 112.476,6.966 C112.38,6.874 112.332,6.724 112.332,6.516 C112.332,6.308 112.38,6.158 112.476,6.066 C112.572,5.974 112.7,5.928 112.86,5.928 L112.992,5.928 C113.152,5.928 113.28,5.974 113.376,6.066 C113.472,6.158 113.52,6.308 113.52,6.516 C113.52,6.724 113.472,6.874 113.376,6.966 C113.28,7.058 113.152,7.104 112.992,7.104 L112.86,7.104 Z" id="Shape"></path>
                    <path d="M100.644,9.864 L102.9,7.668 L99.816,4.164 L100.464,3.6 L103.524,7.068 L103.584,7.008 C103.744,6.856 103.876,6.712 103.98,6.576 C104.084,6.44 104.166,6.298 104.226,6.15 C104.286,6.002 104.328,5.842 104.352,5.67 C104.376,5.498 104.388,5.296 104.388,5.064 L104.388,1.968 L105.276,1.968 L105.276,5.064 C105.276,5.352 105.26,5.604 105.228,5.82 C105.196,6.036 105.14,6.236 105.06,6.42 C104.98,6.604 104.87,6.786 104.73,6.966 C104.59,7.146 104.412,7.344 104.196,7.56 L104.076,7.68 L104.808,8.508 C105.072,8.812 105.256,9.06 105.36,9.252 C105.464,9.444 105.516,9.632 105.516,9.816 C105.516,10.08 105.422,10.318 105.234,10.53 C105.046,10.742 104.76,10.848 104.376,10.848 L100.644,10.848 L100.644,9.864 Z M103.44,8.28 L101.88,9.768 L101.892,9.816 L104.808,9.816 L103.44,8.28 Z" id="Shape"></path>
                    <path d="M93.732,10.056 L93.972,9.816 L94.152,9.816 C94.68,9.816 95.062,9.75 95.298,9.618 C95.534,9.486 95.652,9.232 95.652,8.856 C95.652,8.712 95.642,8.528 95.622,8.304 C95.602,8.08 95.56,7.784 95.496,7.416 L95.328,6.42 L96.168,6.288 L96.312,7.284 C96.368,7.676 96.408,7.996 96.432,8.244 C96.456,8.492 96.468,8.696 96.468,8.856 C96.468,9.528 96.27,10.028 95.874,10.356 C95.478,10.684 94.904,10.848 94.152,10.848 L93.732,10.848 L93.732,10.056 Z M95.556,13.248 C95.396,13.248 95.268,13.202 95.172,13.11 C95.076,13.018 95.028,12.868 95.028,12.66 C95.028,12.452 95.076,12.302 95.172,12.21 C95.268,12.118 95.396,12.072 95.556,12.072 L95.688,12.072 C95.848,12.072 95.976,12.118 96.072,12.21 C96.168,12.302 96.216,12.452 96.216,12.66 C96.216,12.868 96.168,13.018 96.072,13.11 C95.976,13.202 95.848,13.248 95.688,13.248 L95.556,13.248 Z" id="Shape"></path>
                    <path d="M88.956,10.848 C88.668,10.848 88.43,10.762 88.242,10.59 C88.054,10.418 87.96,10.164 87.96,9.828 L87.96,8.904 L88.8,8.904 L88.8,9.816 L90.42,9.816 C90.692,9.816 90.916,9.808 91.092,9.792 C91.268,9.776 91.408,9.75 91.512,9.714 C91.616,9.678 91.688,9.628 91.728,9.564 C91.768,9.5 91.788,9.416 91.788,9.312 C91.788,9.216 91.768,9.1 91.728,8.964 C91.688,8.828 91.616,8.62 91.512,8.34 L90.36,5.172 L91.212,4.86 L92.436,8.22 C92.556,8.54 92.662,8.802 92.754,9.006 C92.846,9.21 92.94,9.372 93.036,9.492 C93.132,9.612 93.23,9.696 93.33,9.744 C93.43,9.792 93.544,9.816 93.672,9.816 L93.972,9.816 L93.972,10.608 L93.732,10.848 C93.516,10.848 93.326,10.828 93.162,10.788 C92.998,10.748 92.852,10.686 92.724,10.602 C92.596,10.518 92.48,10.408 92.376,10.272 C92.272,10.136 92.172,9.968 92.076,9.768 L92.016,9.768 C91.968,10.16 91.816,10.438 91.56,10.602 C91.304,10.766 90.924,10.848 90.42,10.848 L88.956,10.848 Z" id="Path"></path>
                    <path d="M82.98,3.432 L83.868,3.432 L83.868,10.848 L82.98,10.848 L82.98,3.432 Z M82.2,1.752 L82.632,1.752 L82.644,1.704 C82.58,1.624 82.528,1.53 82.488,1.422 C82.448,1.314 82.428,1.204 82.428,1.092 C82.428,0.78 82.532,0.52 82.74,0.312 C82.948,0.104 83.212,0 83.532,0 C83.716,0 83.904,0.046 84.096,0.138 C84.288,0.23 84.432,0.352 84.528,0.504 L84.084,1.044 C83.924,0.86 83.74,0.768 83.532,0.768 C83.388,0.768 83.268,0.806 83.172,0.882 C83.076,0.958 83.028,1.052 83.028,1.164 C83.028,1.332 83.104,1.464 83.256,1.56 C83.408,1.656 83.62,1.704 83.892,1.704 L84.66,1.704 L84.66,2.472 L82.2,2.472 L82.2,1.752 Z" id="Shape"></path>
                    <path d="M78,12.768 C76.952,12.768 76.136,12.504 75.552,11.976 C74.968,11.448 74.676,10.712 74.676,9.768 C74.676,9.4 74.726,9.01 74.826,8.598 C74.926,8.186 75.064,7.776 75.24,7.368 L75.984,7.596 C75.832,7.908 75.708,8.234 75.612,8.574 C75.516,8.914 75.468,9.236 75.468,9.54 C75.468,10.22 75.66,10.748 76.044,11.124 C76.428,11.5 76.96,11.688 77.64,11.688 L78.36,11.688 C79.208,11.688 79.83,11.518 80.226,11.178 C80.622,10.838 80.82,10.304 80.82,9.576 C80.82,9.448 80.816,9.32 80.808,9.192 C80.8,9.064 80.786,8.922 80.766,8.766 C80.746,8.61 80.718,8.436 80.682,8.244 C80.646,8.052 80.604,7.836 80.556,7.596 L80.352,6.6 L81.192,6.432 L81.372,7.428 C81.42,7.692 81.46,7.928 81.492,8.136 C81.524,8.344 81.552,8.532 81.576,8.7 C81.6,8.868 81.616,9.024 81.624,9.168 C81.632,9.312 81.636,9.448 81.636,9.576 C81.636,10.672 81.344,11.478 80.76,11.994 C80.176,12.51 79.256,12.768 78,12.768 Z M78.168,6.156 C78.008,6.156 77.88,6.11 77.784,6.018 C77.688,5.926 77.64,5.776 77.64,5.568 C77.64,5.36 77.688,5.21 77.784,5.118 C77.88,5.026 78.008,4.98 78.168,4.98 L78.3,4.98 C78.46,4.98 78.588,5.026 78.684,5.118 C78.78,5.21 78.828,5.36 78.828,5.568 C78.828,5.776 78.78,5.926 78.684,6.018 C78.588,6.11 78.46,6.156 78.3,6.156 L78.168,6.156 Z" id="Shape"></path>
                    <path d="M69.576,3.432 L70.464,3.432 L70.464,10.848 L69.576,10.848 L69.576,3.432 Z M68.796,1.752 L69.228,1.752 L69.24,1.704 C69.176,1.624 69.124,1.53 69.084,1.422 C69.044,1.314 69.024,1.204 69.024,1.092 C69.024,0.78 69.128,0.52 69.336,0.312 C69.544,0.104 69.808,0 70.128,0 C70.312,0 70.5,0.046 70.692,0.138 C70.884,0.23 71.028,0.352 71.124,0.504 L70.68,1.044 C70.52,0.86 70.336,0.768 70.128,0.768 C69.984,0.768 69.864,0.806 69.768,0.882 C69.672,0.958 69.624,1.052 69.624,1.164 C69.624,1.332 69.7,1.464 69.852,1.56 C70.004,1.656 70.216,1.704 70.488,1.704 L71.256,1.704 L71.256,2.472 L68.796,2.472 L68.796,1.752 Z" id="Shape"></path>
                    <path d="M63.624,12.696 L64.452,12.696 C65.42,12.696 66.136,12.484 66.6,12.06 C67.064,11.636 67.296,11.044 67.296,10.284 L67.296,10.02 L67.236,10.02 C67.124,10.284 66.938,10.492 66.678,10.644 C66.418,10.796 66.112,10.872 65.76,10.872 C65.12,10.872 64.624,10.702 64.272,10.362 C63.92,10.022 63.744,9.544 63.744,8.928 C63.744,8.568 63.798,8.228 63.906,7.908 C64.014,7.588 64.164,7.31 64.356,7.074 C64.548,6.838 64.778,6.65 65.046,6.51 C65.314,6.37 65.608,6.3 65.928,6.3 C66.616,6.3 67.156,6.596 67.548,7.188 C67.94,7.78 68.136,8.612 68.136,9.684 C68.136,10.956 67.83,11.948 67.218,12.66 C66.606,13.372 65.684,13.728 64.452,13.728 L63.624,13.728 L63.624,12.696 Z M66,9.816 C66.344,9.816 66.618,9.786 66.822,9.726 C67.026,9.666 67.184,9.572 67.296,9.444 C67.296,8.796 67.168,8.282 66.912,7.902 C66.656,7.522 66.304,7.332 65.856,7.332 C65.448,7.332 65.134,7.468 64.914,7.74 C64.694,8.012 64.584,8.368 64.584,8.808 C64.584,9.16 64.678,9.416 64.866,9.576 C65.054,9.736 65.352,9.816 65.76,9.816 L66,9.816 Z" id="Shape"></path>
                    <path d="M55.236,8.796 C55.236,9.276 55.392,9.584 55.704,9.72 L56.34,8.652 C56.644,8.124 56.952,7.686 57.264,7.338 C57.576,6.99 57.892,6.712 58.212,6.504 C58.532,6.296 58.858,6.148 59.19,6.06 C59.522,5.972 59.868,5.928 60.228,5.928 C61.004,5.928 61.608,6.142 62.04,6.57 C62.472,6.998 62.688,7.588 62.688,8.34 C62.688,9.244 62.46,9.888 62.004,10.272 C61.548,10.656 60.876,10.848 59.988,10.848 L56.436,10.848 C55.332,10.848 54.684,10.456 54.492,9.672 L54.432,9.672 C54.344,10.112 54.172,10.418 53.916,10.59 C53.66,10.762 53.26,10.848 52.716,10.848 L52.716,10.056 L52.956,9.816 L53.376,9.816 C54.056,9.816 54.396,9.476 54.396,8.796 L54.396,7.86 L55.236,7.86 L55.236,8.796 Z M59.988,9.816 C60.588,9.816 61.048,9.716 61.368,9.516 C61.688,9.316 61.848,8.964 61.848,8.46 C61.848,7.964 61.722,7.59 61.47,7.338 C61.218,7.086 60.864,6.96 60.408,6.96 L60.048,6.96 C59.728,6.96 59.438,6.99 59.178,7.05 C58.918,7.11 58.67,7.214 58.434,7.362 C58.198,7.51 57.966,7.714 57.738,7.974 C57.51,8.234 57.268,8.56 57.012,8.952 L56.496,9.756 L56.532,9.816 L59.988,9.816 Z M59.796,4.488 C59.636,4.488 59.508,4.442 59.412,4.35 C59.316,4.258 59.268,4.108 59.268,3.9 C59.268,3.692 59.316,3.542 59.412,3.45 C59.508,3.358 59.636,3.312 59.796,3.312 L59.928,3.312 C60.088,3.312 60.216,3.358 60.312,3.45 C60.408,3.542 60.456,3.692 60.456,3.9 C60.456,4.108 60.408,4.258 60.312,4.35 C60.216,4.442 60.088,4.488 59.928,4.488 L59.796,4.488 Z" id="Shape"></path>
                    <path d="M49.116,14.496 C48.588,14.496 48.11,14.42 47.682,14.268 C47.254,14.116 46.892,13.894 46.596,13.602 C46.3,13.31 46.072,12.954 45.912,12.534 C45.752,12.114 45.672,11.636 45.672,11.1 C45.672,10.756 45.722,10.418 45.822,10.086 C45.922,9.754 46.094,9.434 46.338,9.126 C46.582,8.818 46.908,8.524 47.316,8.244 C47.724,7.964 48.232,7.704 48.84,7.464 L51.3,6.504 L51.3,6.456 L46.98,6.3 L46.98,7.236 L46.14,7.236 L46.14,6.312 C46.14,5.952 46.256,5.69 46.488,5.526 C46.72,5.362 47.044,5.292 47.46,5.316 L52.032,5.592 L52.032,7.176 L51.456,7.392 L51.456,8.736 C51.456,9.136 51.544,9.416 51.72,9.576 C51.896,9.736 52.168,9.816 52.536,9.816 L52.956,9.816 L52.956,10.608 L52.716,10.848 C52.348,10.848 52.038,10.812 51.786,10.74 C51.534,10.668 51.33,10.554 51.174,10.398 C51.018,10.242 50.906,10.038 50.838,9.786 C50.77,9.534 50.736,9.224 50.736,8.856 L50.736,7.668 L48.948,8.34 C48.124,8.644 47.52,8.992 47.136,9.384 C46.752,9.776 46.56,10.26 46.56,10.836 L46.56,11.124 C46.56,11.852 46.79,12.416 47.25,12.816 C47.71,13.216 48.332,13.416 49.116,13.416 C49.692,13.416 50.204,13.322 50.652,13.134 C51.1,12.946 51.528,12.64 51.936,12.216 L52.584,13.02 C52.336,13.276 52.084,13.498 51.828,13.686 C51.572,13.874 51.304,14.028 51.024,14.148 C50.744,14.268 50.446,14.356 50.13,14.412 C49.814,14.468 49.476,14.496 49.116,14.496 Z" id="Path"></path>
                    <path d="M38.952,10.056 L39.192,9.816 L39.54,9.816 C39.924,9.816 40.202,9.728 40.374,9.552 C40.546,9.376 40.632,9.096 40.632,8.712 L40.632,1.968 L41.52,1.968 L41.52,8.712 C41.52,9.448 41.362,9.988 41.046,10.332 C40.73,10.676 40.228,10.848 39.54,10.848 L38.952,10.848 L38.952,10.056 Z" id="Path"></path>
                    <path d="M33.18,10.992 C32.34,10.992 31.634,10.948 31.062,10.86 C30.49,10.772 30.028,10.632 29.676,10.44 C29.324,10.248 29.07,9.994 28.914,9.678 C28.758,9.362 28.68,8.976 28.68,8.52 C28.68,8.2 28.722,7.872 28.806,7.536 C28.89,7.2 29.02,6.828 29.196,6.42 L29.94,6.648 C29.612,7.328 29.448,7.912 29.448,8.4 C29.448,8.92 29.68,9.302 30.144,9.546 C30.608,9.79 31.34,9.912 32.34,9.912 L34.02,9.912 C34.588,9.912 35.056,9.896 35.424,9.864 C35.792,9.832 36.082,9.774 36.294,9.69 C36.506,9.606 36.654,9.492 36.738,9.348 C36.822,9.204 36.864,9.02 36.864,8.796 L36.864,1.968 L37.752,1.968 L37.752,8.796 C37.752,9.476 38.092,9.816 38.772,9.816 L39.192,9.816 L39.192,10.608 L38.952,10.848 C37.816,10.848 37.152,10.44 36.96,9.624 L36.9,9.624 C36.852,9.896 36.76,10.12 36.624,10.296 C36.488,10.472 36.28,10.612 36,10.716 C35.72,10.82 35.354,10.892 34.902,10.932 C34.45,10.972 33.876,10.992 33.18,10.992 Z M32.136,7.524 L33.84,6.672 L33.828,6.624 L33.072,6.624 C32.816,6.624 32.616,6.562 32.472,6.438 C32.328,6.314 32.256,6.124 32.256,5.868 C32.256,5.692 32.314,5.522 32.43,5.358 C32.546,5.194 32.768,5.016 33.096,4.824 L33.828,4.392 L34.188,4.968 L32.856,5.772 L32.868,5.832 L33.792,5.832 C34,5.832 34.16,5.89 34.272,6.006 C34.384,6.122 34.44,6.284 34.44,6.492 C34.44,6.62 34.428,6.73 34.404,6.822 C34.38,6.914 34.34,6.996 34.284,7.068 C34.228,7.14 34.148,7.21 34.044,7.278 C33.94,7.346 33.812,7.42 33.66,7.5 L32.436,8.124 L32.136,7.524 Z" id="Shape"></path>
                    <path d="M23.544,3.432 L24.432,3.432 L24.432,10.848 L23.544,10.848 L23.544,3.432 Z M22.764,1.752 L23.196,1.752 L23.208,1.704 C23.144,1.624 23.092,1.53 23.052,1.422 C23.012,1.314 22.992,1.204 22.992,1.092 C22.992,0.78 23.096,0.52 23.304,0.312 C23.512,0.104 23.776,0 24.096,0 C24.28,0 24.468,0.046 24.66,0.138 C24.852,0.23 24.996,0.352 25.092,0.504 L24.648,1.044 C24.488,0.86 24.304,0.768 24.096,0.768 C23.952,0.768 23.832,0.806 23.736,0.882 C23.64,0.958 23.592,1.052 23.592,1.164 C23.592,1.332 23.668,1.464 23.82,1.56 C23.972,1.656 24.184,1.704 24.456,1.704 L25.224,1.704 L25.224,2.472 L22.764,2.472 L22.764,1.752 Z" id="Shape"></path>
                    <path d="M18.564,12.768 C17.516,12.768 16.7,12.504 16.116,11.976 C15.532,11.448 15.24,10.712 15.24,9.768 C15.24,9.4 15.29,9.01 15.39,8.598 C15.49,8.186 15.628,7.776 15.804,7.368 L16.548,7.596 C16.396,7.908 16.272,8.234 16.176,8.574 C16.08,8.914 16.032,9.236 16.032,9.54 C16.032,10.22 16.224,10.748 16.608,11.124 C16.992,11.5 17.524,11.688 18.204,11.688 L18.924,11.688 C19.772,11.688 20.394,11.518 20.79,11.178 C21.186,10.838 21.384,10.304 21.384,9.576 C21.384,9.448 21.38,9.32 21.372,9.192 C21.364,9.064 21.35,8.922 21.33,8.766 C21.31,8.61 21.282,8.436 21.246,8.244 C21.21,8.052 21.168,7.836 21.12,7.596 L20.916,6.6 L21.756,6.432 L21.936,7.428 C21.984,7.692 22.024,7.928 22.056,8.136 C22.088,8.344 22.116,8.532 22.14,8.7 C22.164,8.868 22.18,9.024 22.188,9.168 C22.196,9.312 22.2,9.448 22.2,9.576 C22.2,10.672 21.908,11.478 21.324,11.994 C20.74,12.51 19.82,12.768 18.564,12.768 Z M18.732,6.156 C18.572,6.156 18.444,6.11 18.348,6.018 C18.252,5.926 18.204,5.776 18.204,5.568 C18.204,5.36 18.252,5.21 18.348,5.118 C18.444,5.026 18.572,4.98 18.732,4.98 L18.864,4.98 C19.024,4.98 19.152,5.026 19.248,5.118 C19.344,5.21 19.392,5.36 19.392,5.568 C19.392,5.776 19.344,5.926 19.248,6.018 C19.152,6.11 19.024,6.156 18.864,6.156 L18.732,6.156 Z" id="Shape"></path>
                    <path d="M7.704,10.056 L7.944,9.816 L9.18,9.816 C9.564,9.816 9.864,9.746 10.08,9.606 C10.296,9.466 10.404,9.248 10.404,8.952 C10.404,8.792 10.368,8.644 10.296,8.508 C10.224,8.372 10.096,8.212 9.912,8.028 L8.064,6.264 L8.064,4.224 L13.248,1.836 L13.248,2.928 L8.484,5.136 L8.484,5.196 L9.9,6.576 C10.148,6.816 10.358,7.036 10.53,7.236 C10.702,7.436 10.84,7.628 10.944,7.812 C11.048,7.996 11.124,8.176 11.172,8.352 C11.22,8.528 11.244,8.716 11.244,8.916 C11.244,9.524 11.062,9.998 10.698,10.338 C10.334,10.678 9.828,10.848 9.18,10.848 L7.704,10.848 L7.704,10.056 Z" id="Path"></path>
                    <path d="M3.192,13.728 C2.184,13.728 1.4,13.464 0.84,12.936 C0.28,12.408 0,11.672 0,10.728 C0,10.36 0.05,9.97 0.15,9.558 C0.25,9.146 0.388,8.736 0.564,8.328 L1.308,8.556 C1.156,8.892 1.032,9.24 0.936,9.6 C0.84,9.96 0.792,10.3 0.792,10.62 C0.792,11.268 0.972,11.768 1.332,12.12 C1.692,12.472 2.192,12.648 2.832,12.648 L3.552,12.648 C3.928,12.648 4.246,12.606 4.506,12.522 C4.766,12.438 4.976,12.298 5.136,12.102 C5.296,11.906 5.412,11.65 5.484,11.334 C5.556,11.018 5.592,10.632 5.592,10.176 L5.592,1.968 L6.48,1.968 L6.48,9.816 L7.944,9.816 L7.944,10.608 L7.704,10.848 L6.444,10.848 C6.356,11.84 6.048,12.568 5.52,13.032 C4.992,13.496 4.216,13.728 3.192,13.728 Z" id="Path"></path>
                </g>
            </g>
            <text id="-" mask="url(#mask-4)" font-family="IBMPlexArabic-Text, IBM Plex Arabic" font-size="12" font-weight="normal"></text>
        </g>
    </g>
</svg>
