<?xml version="1.0" encoding="UTF-8" standalone="no"?>
<svg width="220px" height="72px" viewBox="0 0 219 72" version="1.1" xmlns="http://www.w3.org/2000/svg" xmlns:xlink="http://www.w3.org/1999/xlink" xmlns:sketch="http://www.bohemiancoding.com/sketch/ns">
    <!-- Generator: Sketch 3.4 (15588) - http://www.bohemiancoding.com/sketch -->
    <title>Group Copy 5</title>
    <desc>Created with Sketch.</desc>
    <defs></defs>
    <g id="Page-1" stroke="none" stroke-width="1" fill="none" fill-rule="evenodd" sketch:type="MSPage">
        <g id="Data-Console" sketch:type="MSArtboardGroup" transform="translate(-1124.000000, -318.000000)" fill="#5AAAFA">
            <g id="Group-Copy-5" sketch:type="MSLayerGroup" transform="translate(1124.000000, 318.000000)">
                <g id="Group-Copy-85" transform="translate(0.474026, 25.578904)" sketch:type="MSShapeGroup">
                    <ellipse id="Oval-17" cx="4.87474697" cy="41.1570162" rx="4.87474697" ry="4.8420019"></ellipse>
                    <ellipse id="Oval-17-Copy" cx="4.87474697" cy="29.0520114" rx="4.87474697" ry="4.8420019"></ellipse>
                    <ellipse id="Oval-17-Copy-2" cx="4.87474697" cy="16.9470067" rx="4.87474697" ry="4.8420019"></ellipse>
                    <ellipse id="Oval-17-Copy-3" cx="4.87474697" cy="4.8420019" rx="4.87474697" ry="4.8420019"></ellipse>
                </g>
                <g id="Group-Copy-86" transform="translate(13.746753, 25.578904)" sketch:type="MSShapeGroup">
                    <ellipse id="Oval-17" cx="4.87474697" cy="41.1570162" rx="4.87474697" ry="4.8420019"></ellipse>
                    <ellipse id="Oval-17-Copy" cx="4.87474697" cy="29.0520114" rx="4.87474697" ry="4.8420019"></ellipse>
                    <ellipse id="Oval-17-Copy-2" cx="4.87474697" cy="16.9470067" rx="4.87474697" ry="4.8420019"></ellipse>
                    <ellipse id="Oval-17-Copy-3" cx="4.87474697" cy="4.8420019" rx="4.87474697" ry="4.8420019"></ellipse>
                </g>
                <g id="Group-Copy-87" transform="translate(27.019481, 36.955527)" sketch:type="MSShapeGroup">
                    <ellipse id="Oval-17" cx="4.87474697" cy="29.0520114" rx="4.87474697" ry="4.8420019"></ellipse>
                    <ellipse id="Oval-17-Copy" cx="4.87474697" cy="16.9470067" rx="4.87474697" ry="4.8420019"></ellipse>
                    <ellipse id="Oval-17-Copy-2" cx="4.87474697" cy="4.8420019" rx="4.87474697" ry="4.8420019"></ellipse>
                </g>
                <g id="Group-Copy-88" transform="translate(40.292208, 25.578904)" sketch:type="MSShapeGroup">
                    <ellipse id="Oval-17" cx="4.87474697" cy="41.1570162" rx="4.87474697" ry="4.8420019"></ellipse>
                    <ellipse id="Oval-17-Copy" cx="4.87474697" cy="29.0520114" rx="4.87474697" ry="4.8420019"></ellipse>
                    <ellipse id="Oval-17-Copy-2" cx="4.87474697" cy="16.9470067" rx="4.87474697" ry="4.8420019"></ellipse>
                    <ellipse id="Oval-17-Copy-3" cx="4.87474697" cy="4.8420019" rx="4.87474697" ry="4.8420019"></ellipse>
                </g>
                <g id="Group-Copy-89" transform="translate(52.616883, 36.955527)" sketch:type="MSShapeGroup">
                    <ellipse id="Oval-17" cx="4.87474697" cy="29.0520114" rx="4.87474697" ry="4.8420019"></ellipse>
                    <ellipse id="Oval-17-Copy" cx="4.87474697" cy="16.9470067" rx="4.87474697" ry="4.8420019"></ellipse>
                    <ellipse id="Oval-17-Copy-2" cx="4.87474697" cy="4.8420019" rx="4.87474697" ry="4.8420019"></ellipse>
                </g>
                <g id="Group-Copy-90" transform="translate(65.889610, 0.929553)" sketch:type="MSShapeGroup">
                    <ellipse id="Oval-17" cx="4.87474697" cy="65.3670257" rx="4.87474697" ry="4.8420019"></ellipse>
                    <ellipse id="Oval-17-Copy" cx="4.87474697" cy="53.2620209" rx="4.87474697" ry="4.8420019"></ellipse>
                    <ellipse id="Oval-17-Copy-2" cx="4.87474697" cy="41.1570162" rx="4.87474697" ry="4.8420019"></ellipse>
                    <ellipse id="Oval-17-Copy-3" cx="4.87474697" cy="29.0520114" rx="4.87474697" ry="4.8420019"></ellipse>
                    <ellipse id="Oval-17-Copy-4" cx="4.87474697" cy="16.9470067" rx="4.87474697" ry="4.8420019"></ellipse>
                    <ellipse id="Oval-17-Copy-5" cx="4.87474697" cy="4.8420019" rx="4.87474697" ry="4.8420019"></ellipse>
                </g>
                <g id="Group-Copy-91" transform="translate(79.162338, 13.254229)" sketch:type="MSShapeGroup">
                    <ellipse id="Oval-17" cx="4.87474697" cy="53.2620209" rx="4.87474697" ry="4.8420019"></ellipse>
                    <ellipse id="Oval-17-Copy" cx="4.87474697" cy="41.1570162" rx="4.87474697" ry="4.8420019"></ellipse>
                    <ellipse id="Oval-17-Copy-2" cx="4.87474697" cy="29.0520114" rx="4.87474697" ry="4.8420019"></ellipse>
                    <ellipse id="Oval-17-Copy-3" cx="4.87474697" cy="16.9470067" rx="4.87474697" ry="4.8420019"></ellipse>
                    <ellipse id="Oval-17-Copy-4" cx="4.87474697" cy="4.8420019" rx="4.87474697" ry="4.8420019"></ellipse>
                </g>
                <g id="Group-Copy-92" transform="translate(91.487013, 61.604878)" sketch:type="MSShapeGroup">
                    <ellipse id="Oval-17" cx="4.87474697" cy="4.8420019" rx="4.87474697" ry="4.8420019"></ellipse>
                </g>
                <g id="Group-Copy-93" transform="translate(104.759740, 36.955527)" sketch:type="MSShapeGroup">
                    <ellipse id="Oval-17" cx="4.87474697" cy="29.0520114" rx="4.87474697" ry="4.8420019"></ellipse>
                    <ellipse id="Oval-17-Copy" cx="4.87474697" cy="16.9470067" rx="4.87474697" ry="4.8420019"></ellipse>
                    <ellipse id="Oval-17-Copy-2" cx="4.87474697" cy="4.8420019" rx="4.87474697" ry="4.8420019"></ellipse>
                </g>
                <g id="Group-Copy-94" transform="translate(118.032468, 49.280203)" sketch:type="MSShapeGroup">
                    <ellipse id="Oval-17" cx="4.87474697" cy="16.9470067" rx="4.87474697" ry="4.8420019"></ellipse>
                    <ellipse id="Oval-17-Copy" cx="4.87474697" cy="4.8420019" rx="4.87474697" ry="4.8420019"></ellipse>
                </g>
                <g id="Group-Copy-95" transform="translate(131.305195, 25.578904)" sketch:type="MSShapeGroup">
                    <ellipse id="Oval-17" cx="4.87474697" cy="41.1570162" rx="4.87474697" ry="4.8420019"></ellipse>
                    <ellipse id="Oval-17-Copy" cx="4.87474697" cy="29.0520114" rx="4.87474697" ry="4.8420019"></ellipse>
                    <ellipse id="Oval-17-Copy-2" cx="4.87474697" cy="16.9470067" rx="4.87474697" ry="4.8420019"></ellipse>
                    <ellipse id="Oval-17-Copy-3" cx="4.87474697" cy="4.8420019" rx="4.87474697" ry="4.8420019"></ellipse>
                </g>
                <g id="Group-Copy-96" transform="translate(143.629870, 25.578904)" sketch:type="MSShapeGroup">
                    <ellipse id="Oval-17" cx="4.87474697" cy="41.1570162" rx="4.87474697" ry="4.8420019"></ellipse>
                    <ellipse id="Oval-17-Copy" cx="4.87474697" cy="29.0520114" rx="4.87474697" ry="4.8420019"></ellipse>
                    <ellipse id="Oval-17-Copy-2" cx="4.87474697" cy="16.9470067" rx="4.87474697" ry="4.8420019"></ellipse>
                    <ellipse id="Oval-17-Copy-3" cx="4.87474697" cy="4.8420019" rx="4.87474697" ry="4.8420019"></ellipse>
                </g>
                <g id="Group-Copy-97" transform="translate(156.902597, 61.604878)" sketch:type="MSShapeGroup">
                    <ellipse id="Oval-17" cx="4.87474697" cy="4.8420019" rx="4.87474697" ry="4.8420019"></ellipse>
                </g>
                <g id="Group-Copy-98" transform="translate(170.175325, 61.604878)" sketch:type="MSShapeGroup">
                    <ellipse id="Oval-17" cx="4.87474697" cy="4.8420019" rx="4.87474697" ry="4.8420019"></ellipse>
                </g>
                <g id="Group-Copy-99" transform="translate(182.500000, 36.955527)" sketch:type="MSShapeGroup">
                    <ellipse id="Oval-17" cx="4.87474697" cy="29.0520114" rx="4.87474697" ry="4.8420019"></ellipse>
                    <ellipse id="Oval-17-Copy" cx="4.87474697" cy="16.9470067" rx="4.87474697" ry="4.8420019"></ellipse>
                    <ellipse id="Oval-17-Copy-2" cx="4.87474697" cy="4.8420019" rx="4.87474697" ry="4.8420019"></ellipse>
                </g>
                <g id="Group-Copy-100" transform="translate(195.772727, 13.254229)" sketch:type="MSShapeGroup">
                    <ellipse id="Oval-17" cx="4.87474697" cy="53.2620209" rx="4.87474697" ry="4.8420019"></ellipse>
                    <ellipse id="Oval-17-Copy" cx="4.87474697" cy="41.1570162" rx="4.87474697" ry="4.8420019"></ellipse>
                    <ellipse id="Oval-17-Copy-2" cx="4.87474697" cy="29.0520114" rx="4.87474697" ry="4.8420019"></ellipse>
                    <ellipse id="Oval-17-Copy-3" cx="4.87474697" cy="16.9470067" rx="4.87474697" ry="4.8420019"></ellipse>
                    <ellipse id="Oval-17-Copy-4" cx="4.87474697" cy="4.8420019" rx="4.87474697" ry="4.8420019"></ellipse>
                </g>
                <g id="Group-Copy-101" transform="translate(209.045455, 25.578904)" sketch:type="MSShapeGroup">
                    <ellipse id="Oval-17" cx="4.87474697" cy="41.1570162" rx="4.87474697" ry="4.8420019"></ellipse>
                    <ellipse id="Oval-17-Copy" cx="4.87474697" cy="29.0520114" rx="4.87474697" ry="4.8420019"></ellipse>
                    <ellipse id="Oval-17-Copy-2" cx="4.87474697" cy="16.9470067" rx="4.87474697" ry="4.8420019"></ellipse>
                    <ellipse id="Oval-17-Copy-3" cx="4.87474697" cy="4.8420019" rx="4.87474697" ry="4.8420019"></ellipse>
                </g>
            </g>
        </g>
    </g>
</svg>