<svg id="icon" xmlns="http://www.w3.org/2000/svg" viewBox="0 0 32 32"><defs><style>.cls-1{fill:none;}</style></defs><title>4K</title><polygon points="12 11.03 12 15.03 10 15.03 10 11.03 8 11.03 8 17.03 12 17.03 12 21.03 14 21.03 14 11.03 12 11.03"/><polygon points="24.19 11.03 22 11.03 19 15.42 19 11.03 17 11.03 17 21.03 19 21.03 19 18.3 19.91 16.97 22 21.03 24.19 21.03 21.2 15.41 24.19 11.03"/><path d="M28,26H4a2,2,0,0,1-2-2V8A2,2,0,0,1,4,6H28a2,2,0,0,1,2,2V24A2,2,0,0,1,28,26ZM4,8V24H28V8Z"/><rect id="_Transparent_Rectangle_" data-name="&lt;Transparent Rectangle&gt;" class="cls-1" width="32" height="32"/></svg>