<svg id="Layer_1" data-name="Layer 1" xmlns="http://www.w3.org/2000/svg" width="32" height="32" viewBox="0 0 32 32">
  <defs>
    <style>
      .cls-1 {
        fill: none;
      }
    </style>
  </defs>
  <rect x="16" y="16" width="2" height="2"/>
  <rect x="18" y="18" width="2" height="2"/>
  <rect x="20" y="20" width="2" height="2"/>
  <rect x="20" y="16" width="2" height="2"/>
  <rect x="16" y="20" width="2" height="2"/>
  <path d="M20,12a3.8978,3.8978,0,0,1-4-3.777,3.9017,3.9017,0,0,1,.6533-2.0639L19.17,2.4141a1.0381,1.0381,0,0,1,1.6592,0L23.3154,6.11A3.9693,3.9693,0,0,1,24,8.223,3.8978,3.8978,0,0,1,20,12Zm0-7.2368L18.3438,7.2257A1.89,1.89,0,0,0,18,8.223,1.9,1.9,0,0,0,20,10a1.9,1.9,0,0,0,2-1.777,1.98,1.98,0,0,0-.375-1.0466Z" transform="translate(0 0)"/>
  <path d="M28,4a2.0023,2.0023,0,0,0-2,2V26H6V10H8v8l1,2,1-2V10h2v4l1,2,1-2V8H6V6A2.0023,2.0023,0,0,0,4,4H2V6H4V26a2.0023,2.0023,0,0,0,2,2H26a2.0023,2.0023,0,0,0,2-2V6h2V4Z" transform="translate(0 0)"/>
  <rect id="_Transparent_Rectangle_" data-name="&lt;Transparent Rectangle&gt;" class="cls-1" width="32" height="32"/>
</svg>
