<svg id="Layer_1" data-name="Layer 1" xmlns="http://www.w3.org/2000/svg" width="32" height="32" viewBox="0 0 32 32">
  <defs>
    <style>
      .cls-1 {
        fill: none;
      }
    </style>
  </defs>
  <rect x="12" y="2" width="2" height="2"/>
  <rect x="14" y="4" width="2" height="2"/>
  <rect x="16" y="6" width="2" height="2"/>
  <rect x="16" y="2" width="2" height="2"/>
  <rect x="12" y="6" width="2" height="2"/>
  <rect x="14" y="18" width="2" height="2"/>
  <rect x="16" y="20" width="2" height="2"/>
  <rect x="18" y="22" width="2" height="2"/>
  <rect x="18" y="18" width="2" height="2"/>
  <rect x="14" y="22" width="2" height="2"/>
  <rect x="18" y="10" width="2" height="2"/>
  <rect x="20" y="12" width="2" height="2"/>
  <rect x="22" y="14" width="2" height="2"/>
  <rect x="22" y="10" width="2" height="2"/>
  <rect x="18" y="14" width="2" height="2"/>
  <path d="M28,4a2.0023,2.0023,0,0,0-2,2V26H6V22h4V20H6V16h4V14H6V10h4V8H6V6A2.0023,2.0023,0,0,0,4,4H2V6H4V26a2.0023,2.0023,0,0,0,2,2H26a2.0023,2.0023,0,0,0,2-2V6h2V4Z" transform="translate(0 0)"/>
  <rect id="_Transparent_Rectangle_" data-name="&lt;Transparent Rectangle&gt;" class="cls-1" width="32" height="32"/>
</svg>
