<svg id="Layer_1" data-name="Layer 1" xmlns="http://www.w3.org/2000/svg" width="32" height="32" viewBox="0 0 32 32">
  <defs>
    <style>
      .cls-1 {
        fill: none;
      }
    </style>
  </defs>
  <polygon points="22 8 22 16 23 18 24 16 24 8 22 8"/>
  <polygon points="18 8 18 18 19 20 20 18 20 8 18 8"/>
  <path d="M28,4a2.0023,2.0023,0,0,0-2,2V26H6V22h4V20H6V16h4V14H6V10h8v4l1,2,1-2V8H6V6A2.0023,2.0023,0,0,0,4,4H2V6H4V26a2.0023,2.0023,0,0,0,2,2H26a2.0023,2.0023,0,0,0,2-2V6h2V4Z" transform="translate(0 0)"/>
  <rect id="_Transparent_Rectangle_" data-name="&lt;Transparent Rectangle&gt;" class="cls-1" width="32" height="32"/>
</svg>
