<?xml version="1.0" encoding="UTF-8"?>
<svg id="icon" xmlns="http://www.w3.org/2000/svg" width="32" height="32" viewBox="0 0 32 32">
  <defs>
    <style>
      .cls-1 {
        fill: none;
      }

      .cls-1, .cls-2 {
        stroke-width: 0px;
      }
    </style>
  </defs>
  <path class="cls-2" d="m17.98,17.4921c0-2.8734,1.4971-4.68,4.1466-4.68,1.8067,0,2.9939.8603,3.5272,2.2712l-1.8067.8087c-.2065-.7571-.7743-1.3076-1.7206-1.3076-1.2215,0-1.841.8602-1.841,2.1162v1.6345c0,1.2561.6194,2.0992,1.841,2.0992,1.0496,0,1.5657-.6023,1.8927-1.411l1.686.8087c-.5849,1.5829-1.841,2.3744-3.5788,2.3744-2.6496,0-4.1466-1.8238-4.1466-4.7144Z"/>
  <path class="cls-2" d="m14.623,22l-.9635-3.0626h-4.267l-.9465,3.0626h-2.3055l4.026-12.0096h2.8217l3.9917,12.0096h-2.357Zm-3.0627-9.9449h-.0861l-1.5311,4.9381h3.1659l-1.5486-4.9381Z"/>
  <path class="cls-2" d="m21,30h-10c-4.9626,0-9-4.0374-9-9v-10C2,6.0374,6.0374,2,11,2h10c4.9626,0,9,4.0374,9,9v10c0,4.9626-4.0374,9-9,9ZM11,4c-3.8599,0-7,3.1401-7,7v10c0,3.8599,3.1401,7,7,7h10c3.8599,0,7-3.1401,7-7v-10c0-3.8599-3.1401-7-7-7h-10Z"/>
  <rect id="_Transparent_Rectangle_" data-name="&amp;lt;Transparent Rectangle&amp;gt;" class="cls-1" width="32" height="32"/>
</svg>