<?xml version="1.0" encoding="UTF-8"?>
<svg id="icon" xmlns="http://www.w3.org/2000/svg" version="1.1" viewBox="0 0 32 32">
  <!-- Generator: Adobe Illustrator 30.0.0, SVG Export Plug-In . SVG Version: 2.1.1 Build 123)  -->
  <defs>
    <style>
      .st0 {
        fill: none;
      }
    </style>
  </defs>
  <path d="M23,30l-1.8-1,2.8-4h4v-7h-12v7h4v2h-4.8c-.6,0-1.2-.5-1.2-1.2v-8.7c0-.6.5-1.2,1.2-1.2h13.7c.6,0,1.2.5,1.2,1.2v8.7c0,.6-.5,1.2-1.2,1.2h-3.8l-2,3ZM16,8h-1V2h-2v6h-6V2h-2v6h-1c-1.1,0-2,.9-2,2v6c0,4.1,3.1,7.4,7,7.9v6.1h2v-8c-.2,0-.7,0-1,0-3.3,0-6-2.7-6-6v-6h12v3h2v-3c0-1.1-.9-2-2-2Z"/>
  <rect id="_x3C_Transparent_Rectangle_x3E_" class="st0" x="0" width="32" height="32"/>
</svg>