<?xml version="1.0" encoding="UTF-8"?>
<svg id="icon" xmlns="http://www.w3.org/2000/svg" width="32" height="32" viewBox="0 0 32 32">
  <defs>
    <style>
      .cls-1 {
        fill: none;
      }
    </style>
  </defs>
  <path d="M8,8h-4v-2h4V2h2v4h4v2h-4v4h-2v-4ZM28,25c0,2.76-2.24,5-5,5-2.42,0-4.44-1.72-4.9-4h-4.1c-3.31,0-6-2.69-6-6v-5h2v5c0,2.21,1.79,4,4,4h4.1c.47-2.28,2.49-4,4.9-4,2.76,0,5,2.24,5,5ZM26,25c0-1.65-1.35-3-3-3s-3,1.35-3,3,1.35,3,3,3,3-1.35,3-3Z"/>
  <rect id="_Transparent_Rectangle_" data-name="&amp;lt;Transparent Rectangle&amp;gt;" class="cls-1" width="32" height="32"/>
</svg>