<?xml version="1.0" encoding="utf-8"?>
<!-- Generator: Adobe Illustrator 24.0.3, SVG Export Plug-In . SVG Version: 6.00 Build 0)  -->
<svg version="1.1" id="Layer_1" xmlns="http://www.w3.org/2000/svg" xmlns:xlink="http://www.w3.org/1999/xlink" x="0px" y="0px"
	 width="32px" height="32px" viewBox="0 0 32 32" style="enable-background:new 0 0 32 32;" xml:space="preserve">
<style type="text/css">
	.st0{fill:#FFFFFF;fill-opacity:0;}
</style>
<path d="M16,2C8.4,2,2,8.4,2,16s6.4,14,14,14s14-6.4,14-14S23.6,2,16,2z M24,17h-7v7h-2v-7H8v-2h7V8h2v7h7V17z"/>
<polygon id="inner-path" class="st0" points="24,17 17,17 17,24 15,24 15,17 8,17 8,15 15,15 15,8 17,8 17,15 24,15 "/>
</svg>
