<?xml version="1.0" encoding="UTF-8"?>
<svg id="icon" xmlns="http://www.w3.org/2000/svg" version="1.1" viewBox="0 0 32 32">
  <!-- Generator: Adobe Illustrator 29.5.1, SVG Export Plug-In . SVG Version: 2.1.0 Build 141)  -->
  <defs>
    <style>
      .st0 {
        fill: none;
      }
    </style>
  </defs>
  <path d="M3.4,22h10.6v2H1v-2.4l8.6-8.6L1,4.4v-2.4h17v2H3.4l9,9L3.4,22ZM29,24h-9.2l2.6-2.6-1.4-1.4-5,5,5,5,1.4-1.4-2.6-2.6h9.2s0-2,0-2ZM16,14v2h9.2l-2.6,2.6,1.4,1.4,5-5-5-5-1.4,1.4,2.6,2.6s-9.2,0-9.2,0Z"/>
  <rect id="__x3C_Transparent_Rectangle_x3E_" class="st0" width="32" height="32"/>
</svg>