<svg id="Layer_1" data-name="Layer 1" xmlns="http://www.w3.org/2000/svg" width="32" height="32" viewBox="0 0 32 32">
  <defs>
    <style>
      .cls-1 {
        fill: none;
      }
    </style>
  </defs>
  <path d="M23,17H19.4141L16,13H14l2.5859,4H10.7207L9.5,15H8l1.0569,3.3046A1,1,0,0,0,10.0094,19H23a1,1,0,0,0,0-2Z" transform="translate(0 0)"/>
  <path d="M16,30A14,14,0,1,1,30,16,14.0158,14.0158,0,0,1,16,30ZM16,4A12,12,0,1,0,28,16,12.0137,12.0137,0,0,0,16,4Z" transform="translate(0 0)"/>
  <rect id="_Transparent_Rectangle_" data-name="&lt;Transparent Rectangle&gt;" class="cls-1" width="32" height="32"/>
</svg>
