<svg id="icon" xmlns="http://www.w3.org/2000/svg" viewBox="0 0 32 32"><defs><style>.cls-1{fill:#000000;}.cls-2{fill:none;}</style></defs><title>alarm--add</title><path d="M16,28A11,11,0,1,1,27,17,11,11,0,0,1,16,28ZM16,8a9,9,0,1,0,9,9A9,9,0,0,0,16,8Z"/><rect class="cls-1" x="3.96" y="5.5" width="5.07" height="2" transform="translate(-2.69 6.51) rotate(-45.06)"/><rect class="cls-1" x="24.5" y="3.96" width="2" height="5.07" transform="translate(2.86 19.91) rotate(-44.94)"/><polygon points="21 16 17 16 17 12 15 12 15 16 11 16 11 18 15 18 15 22 17 22 17 18 21 18 21 16"/><rect id="_Transparent_Rectangle_" data-name="&lt;Transparent Rectangle&gt;" class="cls-2" width="32" height="32"/></svg>