<svg id="icon" xmlns="http://www.w3.org/2000/svg" width="32" height="32" viewBox="0 0 32 32"><defs><style>.cls-1{fill:none;}</style></defs><title>align--vertical-top</title><path d="M24,20H20a2.0023,2.0023,0,0,1-2-2V11a2.0023,2.0023,0,0,1,2-2h4a2.0023,2.0023,0,0,1,2,2v7A2.0023,2.0023,0,0,1,24,20Zm-4-9v7h4.0012L24,11Z"/><path d="M12,28H8a2.0023,2.0023,0,0,1-2-2V11A2.0023,2.0023,0,0,1,8,9h4a2.0023,2.0023,0,0,1,2,2V26A2.0023,2.0023,0,0,1,12,28ZM8,11V26h4.0012L12,11Z"/><rect x="2" y="4" width="28" height="2"/><rect id="_Transparent_Rectangle_" data-name="&lt;Transparent Rectangle&gt;" class="cls-1" width="32" height="32"/></svg>