<svg id="icon" xmlns="http://www.w3.org/2000/svg" width="32" height="32" viewBox="0 0 32 32"><defs><style>.cls-1{fill:none;}</style></defs><title>align--center-vertical</title><path d="M30,15H26V12a2.0025,2.0025,0,0,0-2-2H20a2.0025,2.0025,0,0,0-2,2v3H14V8a2.0025,2.0025,0,0,0-2-2H8A2.0025,2.0025,0,0,0,6,8v7H2v2H6v7a2.0025,2.0025,0,0,0,2,2h4a2.0025,2.0025,0,0,0,2-2V17h4v3a2.0025,2.0025,0,0,0,2,2h4a2.0025,2.0025,0,0,0,2-2V17h4ZM8,24V8h4l.0012,16Zm12-4V12h4l.0012,8Z"/><rect id="_Transparent_Rectangle_" data-name="&lt;Transparent Rectangle&gt;" class="cls-1" width="32" height="32"/></svg>