<svg id="icon" xmlns="http://www.w3.org/2000/svg" width="32" height="32" viewBox="0 0 32 32"><defs><style>.cls-1{fill:none;}</style></defs><title>align--horizontal-left</title><path d="M26,26H11a2.0023,2.0023,0,0,1-2-2V20a2.0023,2.0023,0,0,1,2-2H26a2.0023,2.0023,0,0,1,2,2v4A2.0023,2.0023,0,0,1,26,26Zm0-6.0012L11,20v4H26Z"/><path d="M18,14H11a2.0023,2.0023,0,0,1-2-2V8a2.0023,2.0023,0,0,1,2-2h7a2.0023,2.0023,0,0,1,2,2v4A2.0023,2.0023,0,0,1,18,14Zm0-6.0012L11,8v4h7Z"/><rect x="4" y="2" width="2" height="28"/><rect id="_Transparent_Rectangle_" data-name="&lt;Transparent Rectangle&gt;" class="cls-1" width="32" height="32"/></svg>