<svg id="icon" xmlns="http://www.w3.org/2000/svg" width="32" height="32" viewBox="0 0 32 32"><defs><style>.cls-1{fill:none;}</style></defs><title>align--bottom-vertical</title><rect x="2" y="26" width="28" height="2"/><path d="M24,23H20a2.0023,2.0023,0,0,1-2-2V14a2.0023,2.0023,0,0,1,2-2h4a2.0023,2.0023,0,0,1,2,2v7A2.0023,2.0023,0,0,1,24,23Zm-4-9v7h4.0012L24,14Z"/><path d="M12,23H8a2.0023,2.0023,0,0,1-2-2V6A2.0023,2.0023,0,0,1,8,4h4a2.0023,2.0023,0,0,1,2,2V21A2.0023,2.0023,0,0,1,12,23ZM8,6V21h4.0012L12,6Z"/><rect id="_Transparent_Rectangle_" data-name="&lt;Transparent Rectangle&gt;" class="cls-1" width="32" height="32"/></svg>