<svg id="icon" xmlns="http://www.w3.org/2000/svg" width="32" height="32" viewBox="0 0 32 32">
  <defs>
    <style>
      .cls-1 {
        fill: none;
      }
    </style>
  </defs>
  <polygon points="4 20 4 22 8.586 22 2 28.586 3.414 30 10 23.414 10 28 12 28 12 20 4 20"/>
  <path d="M30,4H23V6h3.5859L19,13.5859,14.707,9.293a1,1,0,0,0-1.414,0L8,14.5858,9.4142,16,14,11.4141l4.293,4.2929a1,1,0,0,0,1.414,0L28,7.4141V11h2Z"/>
  <rect x="16" y="28" width="14" height="2"/>
  <rect x="2" y="2" width="2" height="14"/>
  <rect id="_Transparent_Rectangle_" data-name="&lt;Transparent Rectangle&gt;" class="cls-1" width="32" height="32"/>
</svg>
