<svg id="Layer_1" data-name="Layer 1" xmlns="http://www.w3.org/2000/svg" width="32" height="32" viewBox="0 0 32 32">
  <defs>
    <style>
      .cls-1 {
        fill: none;
      }
    </style>
  </defs>
  <path d="M27,22.142V9.858A3.9916,3.9916,0,1,0,22.142,5H9.858A3.9916,3.9916,0,1,0,5,9.858V22.142A3.9916,3.9916,0,1,0,9.858,27H22.142A3.9916,3.9916,0,1,0,27,22.142ZM26,4a2,2,0,1,1-2,2A2.0023,2.0023,0,0,1,26,4ZM4,6A2,2,0,1,1,6,8,2.002,2.002,0,0,1,4,6ZM6,28a2,2,0,1,1,2-2A2.0023,2.0023,0,0,1,6,28Zm16.142-3H9.858A3.9937,3.9937,0,0,0,7,22.142V9.858A3.9947,3.9947,0,0,0,9.858,7H22.142A3.9937,3.9937,0,0,0,25,9.858V22.142A3.9931,3.9931,0,0,0,22.142,25ZM26,28a2,2,0,1,1,2-2A2.0027,2.0027,0,0,1,26,28Z" transform="translate(0 0)"/>
  <rect id="_Transparent_Rectangle_" data-name="&lt;Transparent Rectangle&gt;" class="cls-1" width="32" height="32"/>
</svg>
