<?xml version="1.0" encoding="UTF-8"?>
<svg id="icon" xmlns="http://www.w3.org/2000/svg" width="32" height="32" viewBox="0 0 32 32">
  <defs>
    <style>
      .cls-1 {
        fill: none;
      }
    </style>
  </defs>
  <polygon points="24 9 22 9 16 17.5713 10 9 8 9 15 19 8 29 10 29 16 20.4287 22 29 24 29 17 19 24 9"/>
  <path d="m20,7c-1.7771,0-3.2314-.8726-4.5144-1.6425-1.1636-.6981-2.2627-1.3575-3.4856-1.3575-1.3977,0-2.449.8629-3.2927,1.707l-1.4146-1.4141c1.0674-1.0675,2.5669-2.293,4.7073-2.293,1.7771,0,3.2314.8726,4.5144,1.6425,1.1636.6981,2.2627,1.3575,3.4856,1.3575,1.3975,0,2.4487-.8629,3.293-1.7072l1.4141,1.4143c-1.0674,1.0675-2.5671,2.2928-4.707,2.2928Z"/>
  <rect id="_Transparent_Rectangle_" data-name="&amp;lt;Transparent Rectangle&amp;gt;" class="cls-1" width="32" height="32"/>
</svg>