<?xml version="1.0" encoding="UTF-8"?>
<svg id="Icon" xmlns="http://www.w3.org/2000/svg" width="32" height="32" viewBox="0 0 32 32">
  <defs>
    <style>
      .cls-1 {
        fill: none;
      }
    </style>
  </defs>
  <path d="M19.3,20.6999l-4.3-4.3v-6.4h2v5.6l3.7,3.7-1.4,1.4ZM16,8c4.4112,0,8,3.5889,8,8s-3.5888,8-8,8-8-3.5889-8-8,3.5888-8,8-8M16,6c-5.5229,0-10,4.4771-10,10s4.4771,10,10,10,10-4.4771,10-10-4.4771-10-10-10h0ZM4,2h4v2h-4v4h-2v-4c0-1.1046.8954-2,2-2ZM30,4v4h-2v-4h-4v-2h4c1.1046,0,2,.8954,2,2ZM8,28v2h-4c-1.1046,0-2-.8954-2-2v-4h2v4h4ZM30,24v4c0,1.1046-.8954,2-2,2h-4v-2h4v-4h2Z"/>
  <rect class="cls-1" x="0" y="0" width="32" height="32"/>
</svg>