<?xml version="1.0" encoding="UTF-8"?>
<svg id="icon" xmlns="http://www.w3.org/2000/svg" width="32" height="32" viewBox="0 0 32 32">
  <defs>
    <style>
      .cls-1 {
        fill: none;
      }
    </style>
  </defs>
  <path d="M10,7h3v2h-3v4c0,1.2002-.5425,2.2661-1.3823,3,.8398.7339,1.3823,1.7998,1.3823,3v4h3v2h-3c-1.103,0-2-.8975-2-2v-4c0-1.1025-.897-2-2-2v-2c1.103,0,2-.8975,2-2v-4c0-1.1025.897-2,2-2ZM24,13v-4c0-1.1025-.897-2-2-2h-3v2h3v4c0,1.2002.5425,2.2661,1.3823,3-.8398.7339-1.3823,1.7998-1.3823,3v4h-3v2h3c1.103,0,2-.8975,2-2v-4c0-1.1025.897-2,2-2v-2c-1.103,0-2-.8975-2-2ZM2,4v4h2v-4h4v-2h-4c-1.1046,0-2,.8954-2,2ZM28,2h-4v2h4v4h2v-4c0-1.1046-.8954-2-2-2ZM4,28v-4h-2v4c0,1.1046.8954,2,2,2h4v-2h-4ZM28,24v4h-4v2h4c1.1046,0,2-.8954,2-2v-4h-2Z"/>
  <rect id="_x3C_Transparent_Rectangle_x3E_" class="cls-1" width="32" height="32"/>
</svg>