<svg id="icon" xmlns="http://www.w3.org/2000/svg" viewBox="0 0 32 32"><defs><style>.cls-1{fill:none;}</style></defs><title>asleep</title><path d="M13.49,5.41a15.08,15.08,0,0,0,11.6,18.2,11.09,11.09,0,0,1-8,3.39c-.14,0-.28,0-.42,0a11.1,11.1,0,0,1-3.2-21.59M15,3,14.8,3a13.09,13.09,0,0,0,1.82,26c.17,0,.33,0,.49,0a13.08,13.08,0,0,0,10.71-5.56A1,1,0,0,0,27,21.88,13.08,13.08,0,0,1,15.88,4.38,1,1,0,0,0,15,3Z"/><rect id="_Transparent_Rectangle_" data-name="&lt;Transparent Rectangle&gt;" class="cls-1" width="32" height="32"/></svg>