<?xml version="1.0" encoding="UTF-8"?>
<svg id="icon" xmlns="http://www.w3.org/2000/svg" width="32" height="32" viewBox="0 0 32 32">
  <defs>
    <style>
      .cls-1 {
        fill: none;
      }
    </style>
  </defs>
  <path d="M12,13h14.2l-2.6,2.6,1.4,1.4,5-5-5-5-1.4,1.4,2.6,2.6h-14.2s0,2,0,2ZM28,19h-13.2l2.6-2.6-1.4-1.4-5,5,5,5,1.4-1.4-2.6-2.6h13.2v-2ZM22,7v-3c0-1.1-.9-2-2-2H4c-1.1,0-2,.9-2,2v24c0,1.1.9,2,2,2h16c1.1,0,2-.9,2-2v-3h-2v3H4V4h16v3h2Z"/>
  <rect id="_Transparent_Rectangle_" data-name=" &amp;lt;Transparent Rectangle&amp;gt;" class="cls-1" width="32" height="32"/>
</svg>