<svg id="icon" xmlns="http://www.w3.org/2000/svg" width="32" height="32" viewBox="0 0 32 32">
  <defs>
    <style>
      .cls-1 {
        fill: none;
      }
    </style>
  </defs>
  <circle cx="22" cy="24" r="2"/>
  <path d="M29.7769,23.4785A8.64,8.64,0,0,0,22,18a8.64,8.64,0,0,0-7.7769,5.4785L14,24l.2231.5215A8.64,8.64,0,0,0,22,30a8.64,8.64,0,0,0,7.7769-5.4785L30,24ZM22,28a4,4,0,1,1,4-4A4.0045,4.0045,0,0,1,22,28Z"/>
  <path d="M12,24a4,4,0,1,1,2.981-6.667l-1.49,1.334A2,2,0,1,0,12,22Z"/>
  <path d="M26,2a3.86,3.86,0,0,0-1.85.48L7.76,10.96A9.99,9.99,0,0,0,12,30V28a8,8,0,1,1,5.63-13.68l1.4-1.4a10.0059,10.0059,0,0,0-5.39-2.77l8.38-4.34c0,.06-.02.12-.02.19a3.9989,3.9989,0,0,0,4,4c.06,0,.12-.02.19-.02L23.07,16h2.24l4.25-8.21A3.9727,3.9727,0,0,0,26,2Zm0,6a2,2,0,1,1,2-2A2.0058,2.0058,0,0,1,26,8Z"/>
  <rect id="_Transparent_Rectangle_" data-name="&lt;Transparent Rectangle&gt;" class="cls-1" width="32" height="32"/>
</svg>
