<?xml version="1.0" encoding="UTF-8"?>
<svg id="Icon" xmlns="http://www.w3.org/2000/svg" width="32" height="32" viewBox="0 0 32 32">
  <defs>
    <style>
      .cls-1 {
        fill: none;
      }
    </style>
  </defs>
  <path d="M5,11h-2c-1.1,0-2,.9-2,2v8h2v-4h2v4h2v-8c0-1.1-.9-2-2-2ZM5,15h-2v-2h2v2ZM21,11h-4v10h2v-4h.4l1.6,4h2l-1.6-4c.9-.2,1.6-1,1.6-2v-2c0-1.1-.9-2-2-2ZM21,15h-2v-2h2v2ZM12,18l-1-7h-2l2,10h2l2-10h-2l-1,7ZM29,11h-2c-1.1,0-2,.9-2,2v6c0,1.1.9,2,2,2h2c1.1,0,2-.9,2-2v-6c0-1.1-.9-2-2-2ZM29,19h-2v-6h2v6Z"/>
  <polyline id="_Transparent_Rectangle_" data-name="&amp;lt;Transparent Rectangle&amp;gt;" class="cls-1" points="32 32 0 32 0 0 32 0"/>
</svg>