<svg id="icon" xmlns="http://www.w3.org/2000/svg" viewBox="0 0 32 32"><defs><style>.cls-1{fill:#000000;}.cls-2{fill:none;}</style></defs><title>battery--full</title><path class="cls-1" d="M24,24H6a2,2,0,0,1-2-2V10A2,2,0,0,1,6,8H24a2,2,0,0,1,2,2v1h1a2,2,0,0,1,2,2v6a2,2,0,0,1-2,2H26v1A2,2,0,0,1,24,24ZM6,10V22H24V19h3V13H24V10Z"/><rect class="cls-1" x="11" y="9" width="8" height="14" transform="translate(31 1) rotate(90)"/><rect id="_Transparent_Rectangle_" data-name="&lt;Transparent Rectangle&gt;" class="cls-2" width="32" height="32"/></svg>