<svg id="icon" xmlns="http://www.w3.org/2000/svg" width="32" height="32" viewBox="0 0 32 32">
  <defs>
    <style>
      .cls-1 {
        fill: none;
      }
    </style>
  </defs>
  <path d="M28,20H26v2h2v6H4V22H6V20H4a2.0024,2.0024,0,0,0-2,2v6a2.0024,2.0024,0,0,0,2,2H28a2.0024,2.0024,0,0,0,2-2V22A2.0024,2.0024,0,0,0,28,20Z" transform="translate(0 0)"/>
  <circle cx="7" cy="25" r="1"/>
  <path d="M15,20H8V13h7Zm-5-2h3V15H10Z" transform="translate(0 0)"/>
  <path d="M24,20H17V13h7Zm-5-2h3V15H19Z" transform="translate(0 0)"/>
  <path d="M15,11H8V4h7ZM10,9h3V6H10Z" transform="translate(0 0)"/>
  <path d="M24,11H17V4h7ZM19,9h3V6H19Z" transform="translate(0 0)"/>
  <rect id="_Transparent_Rectangle_" data-name="&lt;Transparent Rectangle&gt;" class="cls-1" width="32" height="32"/>
</svg>
