<svg id="icon" xmlns="http://www.w3.org/2000/svg" width="32" height="32" viewBox="0 0 32 32">
  <defs>
    <style>
      .cls-1 {
        fill: none;
      }
    </style>
  </defs>
  <rect x="3" y="27" width="26" height="2" transform="translate(32 56) rotate(180)"/>
  <rect x="27" y="23" width="2" height="2" transform="translate(56 48) rotate(180)"/>
  <rect x="27" y="19" width="2" height="2" transform="translate(56 40) rotate(180)"/>
  <rect x="27" y="15" width="2" height="2" transform="translate(56 32) rotate(180)"/>
  <rect x="27" y="11" width="2" height="2" transform="translate(56 24) rotate(180)"/>
  <rect x="27" y="7" width="2" height="2" transform="translate(56 16) rotate(180)"/>
  <rect x="27" y="3" width="2" height="2" transform="translate(56 8) rotate(180)"/>
  <rect x="23" y="3" width="2" height="2" transform="translate(48 8) rotate(180)"/>
  <rect x="19" y="3" width="2" height="2" transform="translate(40 8) rotate(180)"/>
  <rect x="15" y="3" width="2" height="2" transform="translate(32 8) rotate(180)"/>
  <rect x="7" y="3" width="2" height="2" transform="translate(16 8) rotate(180)"/>
  <rect x="11" y="3" width="2" height="2" transform="translate(24 8) rotate(180)"/>
  <rect x="3" y="23" width="2" height="2" transform="translate(8 48) rotate(180)"/>
  <rect x="3" y="19" width="2" height="2" transform="translate(8 40) rotate(180)"/>
  <rect x="3" y="15" width="2" height="2" transform="translate(8 32) rotate(180)"/>
  <rect x="3" y="11" width="2" height="2" transform="translate(8 24) rotate(180)"/>
  <rect x="3" y="7" width="2" height="2" transform="translate(8 16) rotate(180)"/>
  <rect x="3" y="3" width="2" height="2" transform="translate(8 8) rotate(180)"/>
  <rect x="8" y="10" width="10" height="2"/>
  <rect x="8" y="15" width="6" height="2"/>
  <rect id="_Transparent_Rectangle_" data-name="&lt;Transparent Rectangle&gt;" class="cls-1" width="32" height="32"/>
</svg>
