<svg id="icon" xmlns="http://www.w3.org/2000/svg" width="32" height="32" viewBox="0 0 32 32">
  <defs>
    <style>
      .cls-1 {
        fill: none;
      }
    </style>
  </defs>
  <rect x="3" y="3" width="2" height="2"/>
  <rect x="7" y="3" width="2" height="2"/>
  <rect x="11" y="3" width="2" height="2"/>
  <rect x="15" y="3" width="2" height="2"/>
  <rect x="3" y="7" width="2" height="2"/>
  <rect x="3" y="11" width="2" height="2"/>
  <rect x="3" y="15" width="2" height="2"/>
  <rect x="3" y="19" width="2" height="2"/>
  <rect x="3" y="23" width="2" height="2"/>
  <rect x="3" y="27" width="2" height="2"/>
  <rect x="27" y="3" width="2" height="2"/>
  <rect x="23" y="3" width="2" height="2"/>
  <rect x="19" y="3" width="2" height="2"/>
  <rect x="7" y="27" width="2" height="2"/>
  <rect x="11" y="27" width="2" height="2"/>
  <rect x="15" y="27" width="2" height="2"/>
  <rect x="23" y="27" width="2" height="2"/>
  <rect x="19" y="27" width="2" height="2"/>
  <rect x="27" y="7" width="2" height="2"/>
  <rect x="27" y="11" width="2" height="2"/>
  <rect x="27" y="15" width="2" height="2"/>
  <rect x="27" y="19" width="2" height="2"/>
  <rect x="27" y="23" width="2" height="2"/>
  <rect x="27" y="27" width="2" height="2"/>
  <rect x="8" y="10" width="10" height="2"/>
  <rect x="8" y="15" width="6" height="2"/>
  <rect id="_Transparent_Rectangle_" data-name="&lt;Transparent Rectangle&gt;" class="cls-1" width="32" height="32"/>
</svg>
