<?xml version="1.0" encoding="UTF-8"?>
<svg id="Icon" xmlns="http://www.w3.org/2000/svg" width="32" height="32" viewBox="0 0 32 32">
  <defs>
    <style>
      .cls-1 {
        fill: none;
      }
    </style>
  </defs>
  <rect id="_Transparent_Rectangle_" data-name=" &amp;lt;Transparent Rectangle&amp;gt;" class="cls-1" width="32" height="32"/>
  <path d="M10,17h12v2h-12v-2ZM10,22h12v2h-12v-2ZM10,12h12v2h-12v-2ZM10,7h7v2h-7v-2ZM26,30H6c-.5522,0-1-.4473-1-1V3c0-.5522.4478-1,1-1h20c.5527,0,1,.4478,1,1v26c0,.5527-.4473,1-1,1ZM7,28h18V4H7v24Z"/>
</svg>