<svg id="icon" xmlns="http://www.w3.org/2000/svg" width="32" height="32" viewBox="0 0 32 32"><defs><style>.cls-1{fill:none;}</style></defs><title>building--insights-1</title><path d="M28,2H16a2.002,2.002,0,0,0-2,2V14H4a2.002,2.002,0,0,0-2,2V30H30V4A2.0023,2.0023,0,0,0,28,2ZM9,28V21h4v7Zm19,0H15V20a1,1,0,0,0-1-1H8a1,1,0,0,0-1,1v8H4V16H16V4H28Z"/><rect x="18" y="8" width="2" height="2"/><rect x="24" y="8" width="2" height="2"/><rect x="18" y="14" width="2" height="2"/><rect x="24" y="14" width="2" height="2"/><rect x="18" y="19.9996" width="2" height="2"/><rect x="24" y="19.9996" width="2" height="2"/><path d="M9,12H7a5.0059,5.0059,0,0,1,5-5V9A3.0033,3.0033,0,0,0,9,12Z"/><path d="M4,12H2A10.0114,10.0114,0,0,1,12,2V4A8.0092,8.0092,0,0,0,4,12Z"/><rect id="_Transparent_Rectangle_" data-name="&lt;Transparent Rectangle&gt;" class="cls-1" width="32" height="32"/></svg>