<svg id="icon" xmlns="http://www.w3.org/2000/svg" width="32" height="32" viewBox="0 0 32 32">
  <defs>
    <style>
      .cls-1 {
        fill: none;
      }
    </style>
  </defs>
  <rect x="19" y="13" width="6" height="2"/>
  <polygon points="13 21 11 21 11 19 9 19 9 21 7 21 7 23 9 23 9 25 11 25 11 23 13 23 13 21"/>
  <rect x="7" y="9" width="6" height="2"/>
  <rect x="19" y="17" width="6" height="2"/>
  <path d="M27,3H5A2.0023,2.0023,0,0,0,3,5V27a2.0023,2.0023,0,0,0,2,2H27a2.0023,2.0023,0,0,0,2-2V5A2.0023,2.0023,0,0,0,27,3ZM15,5V15H5V5ZM5,17H15V27H5ZM17,27V5H27V27Z"/>
  <rect id="_Transparent_Rectangle_" data-name="&lt;Transparent Rectangle&gt;" class="cls-1" width="32" height="32"/>
</svg>
