<svg xmlns="http://www.w3.org/2000/svg" viewBox="0 0 32 32"><path d="M26,4V28H6V4H26m0-2H6A2,2,0,0,0,4,4V28a2,2,0,0,0,2,2H26a2,2,0,0,0,2-2V4A2,2,0,0,0,26,2Z"/><rect width="2" height="2" x="9" y="23"/><rect width="2" height="2" x="21" y="23"/><rect width="2" height="2" x="9" y="18"/><rect width="2" height="2" x="21" y="18"/><rect width="2" height="2" x="9" y="13"/><rect width="2" height="2" x="15" y="23"/><rect width="2" height="2" x="15" y="18"/><rect width="2" height="2" x="15" y="13"/><rect width="2" height="2" x="21" y="13"/><rect width="14" height="3" x="9" y="7"/></svg>