<svg id="icon" xmlns="http://www.w3.org/2000/svg" viewBox="0 0 32 32"><defs><style>.cls-1{fill:none;}</style></defs><title>calculator</title><path d="M26,4V28H6V4H26m0-2H6A2,2,0,0,0,4,4V28a2,2,0,0,0,2,2H26a2,2,0,0,0,2-2V4A2,2,0,0,0,26,2Z"/><rect x="9" y="23" width="2" height="2"/><rect x="21" y="23" width="2" height="2"/><rect x="9" y="18" width="2" height="2"/><rect x="21" y="18" width="2" height="2"/><rect x="9" y="13" width="2" height="2"/><rect x="15" y="23" width="2" height="2"/><rect x="15" y="18" width="2" height="2"/><rect x="15" y="13" width="2" height="2"/><rect x="21" y="13" width="2" height="2"/><rect x="9" y="7" width="14" height="3"/><rect id="_Transparent_Rectangle_" data-name="&lt;Transparent Rectangle&gt;" class="cls-1" width="32" height="32"/></svg>