<svg xmlns="http://www.w3.org/2000/svg" viewBox="0 0 32 32"><polygon points="24 26.59 21.41 24 20 25.41 24 29.41 31 22.41 29.59 21 24 26.59"/><rect width="2" height="2" x="15" y="23"/><rect width="2" height="2" x="9" y="23"/><rect width="2" height="2" x="21" y="18"/><rect width="2" height="2" x="15" y="18"/><rect width="2" height="2" x="9" y="18"/><rect width="2" height="2" x="21" y="13"/><rect width="2" height="2" x="15" y="13"/><rect width="2" height="2" x="9" y="13"/><rect width="14" height="3" x="9" y="7"/><path d="M17,30H6.0046A2.007,2.007,0,0,1,4,27.9951V3.9961A1.9984,1.9984,0,0,1,5.9961,2H26.0037A1.9985,1.9985,0,0,1,28,3.9961V18H26V4H6V28H17Z"/></svg>