<svg id="icon" xmlns="http://www.w3.org/2000/svg" viewBox="0 0 32 32"><defs><style>.cls-1{fill:none;}</style></defs><title>camera-action</title><path d="M12,23a6,6,0,1,1,6-6A6,6,0,0,1,12,23Zm0-10a4,4,0,1,0,4,4A4,4,0,0,0,12,13Z" transform="translate(0)"/><path d="M29,27H3a1,1,0,0,1-1-1V6A1,1,0,0,1,3,5H29a1,1,0,0,1,1,1V26A1,1,0,0,1,29,27ZM4,25H28V7H4Z" transform="translate(0)"/><rect x="19" y="9" width="7" height="2"/><circle cx="12" cy="17" r="1"/><rect id="_Transparent_Rectangle_" data-name="&lt;Transparent Rectangle&gt;" class="cls-1" width="32" height="32"/></svg>