<svg xmlns="http://www.w3.org/2000/svg" viewBox="0 0 32 32"><path d="M29.34,15.94l-7.73-2.78L18.37,9.1A3,3,0,0,0,16.05,8h-8A3,3,0,0,0,5.58,9.32l-2.71,4A5,5,0,0,0,2,16.11V24a1,1,0,0,0,1,1H5.14a4,4,0,0,0,7.72,0h6.28a4,4,0,0,0,7.72,0H29a1,1,0,0,0,1-1V16.88A1,1,0,0,0,29.34,15.94ZM9,26a2,2,0,1,1,2-2A2,2,0,0,1,9,26Zm14,0a2,2,0,1,1,2-2A2,2,0,0,1,23,26Zm5-3H26.86a4,4,0,0,0-7.72,0H12.86a4,4,0,0,0-7.72,0H4V16.11a3,3,0,0,1,.52-1.69l2.71-4A1,1,0,0,1,8.06,10h8a1,1,0,0,1,.77.36l3.4,4.27a1.09,1.09,0,0,0,.44.32L28,17.58Z"/></svg>