<svg id="icon" xmlns="http://www.w3.org/2000/svg" viewBox="0 0 32 32"><defs><style>.cls-1{fill:none;}</style></defs><title>car</title><path d="M29.34,15.93l-7.73-2.77L18.37,9.1A3,3,0,0,0,16.05,8h-8A3,3,0,0,0,5.58,9.31l-2.71,4A5,5,0,0,0,2,16.11V24a1,1,0,0,0,1,1H5.14a4,4,0,0,0,7.72,0h5.28a4,4,0,0,0,7.72,0H29a1,1,0,0,0,1-1V16.88A1,1,0,0,0,29.34,15.93ZM9,26a2,2,0,1,1,2-2A2,2,0,0,1,9,26Zm13,0a2,2,0,1,1,2-2A2,2,0,0,1,22,26Zm6-3H25.86a4,4,0,0,0-7.72,0H12.86a4,4,0,0,0-7.72,0H4V16.11a3,3,0,0,1,.52-1.69l2.71-4A1,1,0,0,1,8.06,10h8a1,1,0,0,1,.77.35l3.4,4.27a.93.93,0,0,0,.44.32L28,17.58Z" transform="translate(0 0)"/><rect id="_Transparent_Rectangle_" data-name="&lt;Transparent Rectangle&gt;" class="cls-1" width="32" height="32"/></svg>