<svg id="icon" xmlns="http://www.w3.org/2000/svg" width="32" height="32" viewBox="0 0 32 32"><defs><style>.cls-1{fill:none;}</style></defs><title>center--square</title><polygon points="6 12 4 12 4 4 12 4 12 6 6 6 6 12"/><polygon points="28 12 26 12 26 6 20 6 20 4 28 4 28 12"/><polygon points="12 28 4 28 4 20 6 20 6 26 12 26 12 28"/><polygon points="28 28 20 28 20 26 26 26 26 20 28 20 28 28"/><rect x="15" y="10" width="2" height="4"/><rect x="10" y="15" width="4" height="2"/><rect x="18" y="15" width="4" height="2"/><rect x="15" y="18" width="2" height="4"/><rect id="_Transparent_Rectangle_" data-name="&lt;Transparent Rectangle&gt;" class="cls-1" width="32" height="32"/></svg>