<svg id="icon" xmlns="http://www.w3.org/2000/svg" width="32" height="32" viewBox="0 0 32 32"><defs><style>.cls-1{fill:none;}</style></defs><title>certificate</title><polygon points="24 17 25.912 20.703 30 21.297 27 24 27.771 28 24 25.75 20.229 28 21 24 18 21.297 22.2 20.703 24 17"/><rect x="6" y="16" width="6" height="2"/><rect x="6" y="12" width="10" height="2"/><rect x="6" y="8" width="10" height="2"/><path d="M16,26H4V6H28V16h2V6a2,2,0,0,0-2-2H4A2,2,0,0,0,2,6V26a2,2,0,0,0,2,2H16Z"/><rect id="_Transparent_Rectangle_" data-name="&lt;Transparent Rectangle&gt;" class="cls-1" width="32" height="32"/></svg>