<svg id="icon" xmlns="http://www.w3.org/2000/svg" width="32" height="32" viewBox="0 0 32 32">
  <defs>
    <style>
      .cls-1 {
        fill: none;
      }
    </style>
  </defs>
  <path d="M27,3H5A2.0025,2.0025,0,0,0,3,5V27a2.0025,2.0025,0,0,0,2,2H27a2.0025,2.0025,0,0,0,2-2V5A2.0025,2.0025,0,0,0,27,3Zm0,7H21V5h6ZM19,8H13V5h6Zm0,2v8H13V10ZM11,22H5V12h6Zm2-2h6v7H13Zm8-8h6v4H21ZM11,5v5H5V5ZM5,24h6v3H5Zm16,3V18h6v9Z"/>
  <rect id="_Transparent_Rectangle_" data-name="&lt;Transparent Rectangle&gt;" class="cls-1" width="32" height="32"/>
</svg>
