<svg id="icon" xmlns="http://www.w3.org/2000/svg" width="32" height="32" viewBox="0 0 32 32">
  <defs>
    <style>
      .cls-1 {
        fill: none;
      }
    </style>
  </defs>
  <title>chart--histogram</title>
  <path d="M6,16c2.9727,0,4.2324-2.251,5.3447-4.2373C12.4741,9.7441,13.45,8,16,8s3.5259,1.7441,4.6553,3.7627C21.7676,13.749,23.0273,16,26,16h4V14H26c-1.7129,0-2.4834-1.2207-3.5991-3.2144C21.2075,8.6543,19.7231,6,16,6s-5.2075,2.6543-6.4009,4.7856C8.4834,12.7793,7.7129,14,6,14H4V2H2V28a2,2,0,0,0,2,2H30V28H28V22H26v6H21.9992L22,20H20v8H16V16H14V28H9.9992L10,20H8v8H4V16Z"/>
  <rect id="_Transparent_Rectangle_" data-name="&lt;Transparent Rectangle&gt;" class="cls-1" width="32" height="32"/>
</svg>
