<svg id="icon" xmlns="http://www.w3.org/2000/svg" width="32" height="32" viewBox="0 0 32 32">
  <defs>
    <style>
      .cls-1 {
        fill: none;
      }
    </style>
  </defs>
  <path d="M29,23H24a2.0027,2.0027,0,0,1-2-2V15a2.0023,2.0023,0,0,1,2-2h5v2H24v6h5Z"/>
  <path d="M18,13H14V9H12V23h6a2.0027,2.0027,0,0,0,2-2V15A2.0023,2.0023,0,0,0,18,13Zm-4,8V15h4v6Z"/>
  <path d="M8,9H4a2.002,2.002,0,0,0-2,2V23H4V18H8v5h2V11A2.002,2.002,0,0,0,8,9ZM4,16V11H8v5Z"/>
  <rect id="_Transparent_Rectangle_" data-name="&lt;Transparent Rectangle&gt;" class="cls-1" width="32" height="32"/>
</svg>
