<svg id="icon" xmlns="http://www.w3.org/2000/svg" viewBox="0 0 32 32"><defs><style>.cls-1{fill:none;}</style></defs><title>chart-line</title><path d="M10.06,17.88A4.25,4.25,0,0,0,11,18a4,4,0,0,0,2.23-.68l3.22,2.87A3.91,3.91,0,0,0,16,22a4,4,0,1,0,6.62-3l2.54-5.09A3.86,3.86,0,0,0,26,14a4,4,0,1,0-2.62-1l-2.54,5.09A3.86,3.86,0,0,0,20,18a4,4,0,0,0-2.23.68l-3.22-2.87A3.91,3.91,0,0,0,15,14a4,4,0,1,0-6.7,2.93L4,25V2H2V29a1,1,0,0,0,1,1H30V28H4.67ZM26,8a2,2,0,1,1-2,2A2,2,0,0,1,26,8ZM22,22a2,2,0,1,1-2-2A2,2,0,0,1,22,22ZM11,12a2,2,0,1,1-2,2A2,2,0,0,1,11,12Z" transform="translate(0)"/><rect id="_Transparent_Rectangle_" data-name="&lt;Transparent Rectangle&gt;" class="cls-1" width="32" height="32"/></svg>