<svg id="icon" xmlns="http://www.w3.org/2000/svg" width="32" height="32" viewBox="0 0 32 32">
  <defs>
    <style>
      .cls-1 {
        fill: none;
      }
    </style>
  </defs>
  <polygon points="15.586 10.414 19.166 14 19.166 14 15.584 17.587 17 19 22 14 17 9 15.586 10.414"/>
  <polygon points="20.586 10.414 24.166 14 24.166 14 20.584 17.587 22 19 27 14 22 9 20.586 10.414"/>
  <polygon points="10 9 11.593 12 15 12.414 12.5 14.667 13 18 10 16.125 7 18 7.5 14.667 5 12.414 8.5 12 10 9"/>
  <path d="M17.7358,30,16,29l4-7h6a1.9966,1.9966,0,0,0,2-2V8a1.9966,1.9966,0,0,0-2-2H6A1.9966,1.9966,0,0,0,4,8V20a1.9966,1.9966,0,0,0,2,2h9v2H6a3.9993,3.9993,0,0,1-4-4V8A3.9988,3.9988,0,0,1,6,4H26a3.9988,3.9988,0,0,1,4,4V20a3.9993,3.9993,0,0,1-4,4H21.1646Z" transform="translate(0 0)"/>
  <rect id="_Transparent_Rectangle_" data-name="&lt;Transparent Rectangle&gt;" class="cls-1" width="32" height="32"/>
</svg>
