<svg id="icon" xmlns="http://www.w3.org/2000/svg" width="32" height="32" viewBox="0 0 32 32">
  <defs>
    <style>
      .cls-1 {
        fill: none;
      }
    </style>
  </defs>
  <path d="M14,24A10,10,0,1,1,24,14h2A12,12,0,1,0,14,26Z" transform="translate(0 0)"/>
  <polygon points="12 15.59 9.41 13 8 14.41 12 18.41 19 11.41 17.59 10 12 15.59"/>
  <path d="M27.38,28H20.6178L24,21.2358ZM24,18a1,1,0,0,0-.8947.5527l-5,10A1.0005,1.0005,0,0,0,19,30H29a1,1,0,0,0,.9214-1.3892L24.8946,18.5527A1,1,0,0,0,24,18Z" transform="translate(0 0)"/>
  <rect id="_Transparent_Rectangle_" data-name="&lt;Transparent Rectangle&gt;" class="cls-1" width="32" height="32"/>
</svg>
