<svg id="icon" xmlns="http://www.w3.org/2000/svg" width="32" height="32" viewBox="0 0 32 32"><defs><style>.cls-1{fill:none;}</style></defs><title>chip</title><path d="M11,11V21H21V11Zm8,8H13V13h6Z" transform="translate(0)"/><path d="M30,13V11H26V8a2,2,0,0,0-2-2H21V2H19V6H13V2H11V6H8A2,2,0,0,0,6,8v3H2v2H6v6H2v2H6v3a2,2,0,0,0,2,2h3v4h2V26h6v4h2V26h3a2,2,0,0,0,2-2V21h4V19H26V13ZM24,24H8V8H24Z" transform="translate(0)"/><rect id="_Transparent_Rectangle_" data-name="&lt;Transparent Rectangle&gt;" class="cls-1" width="32" height="32"/></svg>