<?xml version="1.0" encoding="UTF-8"?>
<svg id="icon" xmlns="http://www.w3.org/2000/svg" width="32" height="32" viewBox="0 0 32 32">
  <defs>
    <style>
      .cls-1 {
        fill: none;
      }
    </style>
  </defs>
  <polygon points="20.17 19 17.58 21.59 19 23 23 19 19 15 17.58 16.41 20.17 19"/>
  <polygon points="11.83 19 14.42 16.41 13 15 9 19 13 23 14.42 21.59 11.83 19"/>
  <circle cx="9" cy="8" r="1"/>
  <circle cx="6" cy="8" r="1"/>
  <path d="M28,4H4c-1.1028,0-2,.8975-2,2V26c0,1.1025,.8972,2,2,2H28c1.1028,0,2-.8975,2-2V6c0-1.1025-.8972-2-2-2Zm0,2v4H4V6H28ZM4,26V12H28v14H4Z"/>
  <rect id="_Transparent_Rectangle_" data-name="&amp;lt;Transparent Rectangle&amp;gt;" class="cls-1" width="32" height="32"/>
</svg>