<?xml version="1.0" encoding="UTF-8"?>
<svg id="icon" xmlns="http://www.w3.org/2000/svg" width="32" height="32" viewBox="0 0 32 32">
  <defs>
    <style>
      .cls-1 {
        fill: none;
      }
    </style>
  </defs>
  <path d="M31,13v-2h-4c-1.1028,0-2,.8975-2,2v2c0,1.1025,.8972,2,2,2h2v2h-4v2h4c1.1028,0,2-.8975,2-2v-2c0-1.1025-.8972-2-2-2h-2v-2h4Z"/>
  <path d="M17,13v6c0,1.1025,.8972,2,2,2h4v-2h-4v-6h4v-2h-4c-1.1028,0-2,.8975-2,2Z"/>
  <polygon points="9 13 11 13 11 19 9 19 9 21 15 21 15 19 13 19 13 13 15 13 15 11 9 11 9 13"/>
  <path d="M1,13v6c0,1.1025,.8972,2,2,2H7v-2H3v-6H7v-2H3c-1.1028,0-2,.8975-2,2Z"/>
  <rect id="_Transparent_Rectangle_" data-name="&amp;lt;Transparent Rectangle&amp;gt;" class="cls-1" width="32" height="32"/>
</svg>