<svg id="icon" xmlns="http://www.w3.org/2000/svg" width="32" height="32" viewBox="0 0 32 32">
  <defs>
    <style>
      .cls-1 {
        fill: none;
      }
    </style>
  </defs>
  <polygon points="24 16 19.4 14.6 21.7 10.3 17.4 12.6 16 8 14.6 12.6 10.3 10.3 12.6 14.6 8 16 12.6 17.4 10.3 21.7 14.6 19.4 16 24 17.4 19.4 21.7 21.7 19.4 17.4 24 16"/>
  <path d="M16,30A14,14,0,1,1,30,16,14.0158,14.0158,0,0,1,16,30ZM16,4A12,12,0,1,0,28,16,12.0137,12.0137,0,0,0,16,4Z" transform="translate(0 0)"/>
  <rect id="_Transparent_Rectangle_" data-name="&lt;Transparent Rectangle&gt;" class="cls-1" width="32" height="32"/>
</svg>
