<svg id="icon" xmlns="http://www.w3.org/2000/svg" viewBox="0 0 32 32"><defs><style>.cls-1{fill:none;}</style></defs><title>classifier--language</title><polygon points="20 23.41 18.59 22 16 24.59 13.41 22 12 23.41 14.59 26 12 28.59 13.41 30 16 27.41 18.59 30 20 28.59 17.41 26 20 23.41"/><path d="M7,9.86a4,4,0,1,0-2,0V15H2v2H9V15H7ZM4,6A2,2,0,1,1,6,8,2,2,0,0,1,4,6Z" transform="translate(0 0)"/><polygon points="20 15 12 15 12 17 15 17 15 21 17 21 17 17 20 17 20 15"/><path d="M30,10V2H22v8h3v5H23v2h7V15H27V10ZM24,4h4V8H24Z" transform="translate(0 0)"/><rect id="_Transparent_Rectangle_" data-name="&lt;Transparent Rectangle&gt;" class="cls-1" width="32" height="32"/></svg>