<svg id="icon" xmlns="http://www.w3.org/2000/svg" width="32" height="32" viewBox="0 0 32 32"><defs><style>.cls-1{fill:none;}</style></defs><title>closed-caption--alt</title><rect x="19" y="17" width="6" height="2"/><rect x="11" y="17" width="6" height="2"/><rect x="6" y="17" width="3" height="2"/><rect x="22" y="13" width="4" height="2"/><rect x="13" y="13" width="7" height="2"/><rect x="6" y="13" width="5" height="2"/><path d="M17.7358,30,16,29l4-7h6a1.9966,1.9966,0,0,0,2-2V8a1.9966,1.9966,0,0,0-2-2H6A1.9966,1.9966,0,0,0,4,8V20a1.9966,1.9966,0,0,0,2,2h9v2H6a3.9993,3.9993,0,0,1-4-4V8A3.9988,3.9988,0,0,1,6,4H26a3.9988,3.9988,0,0,1,4,4V20a3.9993,3.9993,0,0,1-4,4H21.1646Z"/><rect id="_Transparent_Rectangle_" data-name="&lt;Transparent Rectangle&gt;" class="cls-1" width="32" height="32"/></svg>