<svg xmlns="http://www.w3.org/2000/svg" viewBox="0 0 32 32"><rect width="6" height="2" x="19" y="17"/><rect width="6" height="2" x="11" y="17"/><rect width="3" height="2" x="6" y="17"/><rect width="4" height="2" x="22" y="13"/><rect width="7" height="2" x="13" y="13"/><rect width="5" height="2" x="6" y="13"/><path d="M17.7358,30,16,29l4-7h6a1.9966,1.9966,0,0,0,2-2V8a1.9966,1.9966,0,0,0-2-2H6A1.9966,1.9966,0,0,0,4,8V20a1.9966,1.9966,0,0,0,2,2h9v2H6a3.9993,3.9993,0,0,1-4-4V8A3.9988,3.9988,0,0,1,6,4H26a3.9988,3.9988,0,0,1,4,4V20a3.9993,3.9993,0,0,1-4,4H21.1646Z"/></svg>