<svg id="icon" xmlns="http://www.w3.org/2000/svg" width="32" height="32" viewBox="0 0 32 32">
  <defs>
    <style>
      .cls-1 {
        fill: none;
      }
    </style>
  </defs>
  <path d="M28,17v5H4V6H14V4H4A2,2,0,0,0,2,6V22a2,2,0,0,0,2,2h8v4H8v2H24V28H20V24h8a2,2,0,0,0,2-2V17ZM18,28H14V24h4Z" transform="translate(0 0)"/>
  <path d="M30,10V8H27.8989a4.9678,4.9678,0,0,0-.7319-1.7529l1.49-1.49-1.414-1.414-1.49,1.49A4.9678,4.9678,0,0,0,24,4.1011V2H22V4.1011a4.9678,4.9678,0,0,0-1.7529.7319l-1.49-1.49-1.414,1.414,1.49,1.49A4.9678,4.9678,0,0,0,18.1011,8H16v2h2.1011a4.9678,4.9678,0,0,0,.7319,1.7529l-1.49,1.49,1.414,1.414,1.49-1.49A4.9678,4.9678,0,0,0,22,13.8989V16h2V13.8989a4.9678,4.9678,0,0,0,1.7529-.7319l1.49,1.49,1.414-1.414-1.49-1.49A4.9678,4.9678,0,0,0,27.8989,10Zm-7,2a3,3,0,1,1,3-3A3.0033,3.0033,0,0,1,23,12Z" transform="translate(0 0)"/>
  <rect id="_Transparent_Rectangle_" data-name="&lt;Transparent Rectangle&gt;" class="cls-1" width="32" height="32"/>
</svg>
