<svg id="icon" xmlns="http://www.w3.org/2000/svg" width="32" height="32" viewBox="0 0 32 32">
  <defs>
    <style>
      .cls-1 {
        fill: none;
      }
    </style>
  </defs>
  <path d="M28,17v5H4V6H15V4H4A2,2,0,0,0,2,6V22a2,2,0,0,0,2,2h8v4H8v2H24V28H20V24h8a2,2,0,0,0,2-2V17ZM18,28H14V24h4Z" transform="translate(0 0)"/>
  <path d="M29,14H17a1,1,0,0,1-.8574-1.5144l6-10a1,1,0,0,1,1.7154,0l6,10A1,1,0,0,1,29,14ZM18.7661,12h8.4678L23,4.9436Z" transform="translate(0 0)"/>
  <rect id="_Transparent_Rectangle_" data-name="&lt;Transparent Rectangle&gt;" class="cls-1" width="32" height="32"/>
</svg>
