<svg id="icon" xmlns="http://www.w3.org/2000/svg" width="32" height="32" viewBox="0 0 32 32">
  <defs>
    <style>
      .cls-1 {
        fill: none;
      }
    </style>
  </defs>
  <rect x="8" y="8" width="2" height="4"/>
  <rect x="8" y="14" width="2" height="4"/>
  <rect x="14" y="8" width="2" height="4"/>
  <rect x="14" y="14" width="2" height="4"/>
  <rect x="8" y="20" width="2" height="4"/>
  <rect x="14" y="20" width="2" height="4"/>
  <polygon points="18 14 26.17 14 23.59 16.59 25 18 30 13 25 8 23.59 9.41 26.17 12 18 12 18 14"/>
  <path d="M28,20v8H22V20H20v8H4V4H20V6h2V4a2,2,0,0,0-2-2H4A2,2,0,0,0,2,4V30H30V20Z"/>
  <rect id="_Transparent_Rectangle_" data-name="&lt;Transparent Rectangle&gt;" class="cls-1" width="32" height="32"/>
</svg>
