<?xml version="1.0" encoding="UTF-8"?>
<svg id="icon" xmlns="http://www.w3.org/2000/svg" width="32" height="32" viewBox="0 0 32 32">
  <defs>
    <style>
      .cls-1 {
        fill: none;
      }

      .cls-1, .cls-2 {
        stroke-width: 0px;
      }
    </style>
  </defs>
  <circle class="cls-2" cx="23" cy="23" r="1"/>
  <path class="cls-2" d="m25.7903,18.8535l-8.9897-6.2378c-.5029-.3809-1.1223-.6157-1.8005-.6157-1.6543,0-3,1.3457-3,3,0,.6553.2173,1.2573.5752,1.7515l6.3408,9.1157c.9055,1.2861,2.395,2.1328,4.084,2.1328,2.7571,0,5-2.2432,5-5,0-1.7246-.8777-3.2476-2.2097-4.1465Zm-7.5203,2.5986l-2.4829-3.5703c1.0181-.2788,1.8145-1.0752,2.0942-2.0928l3.5698,2.4814c-1.5061.4951-2.6863,1.6758-3.1812,3.1816Zm-3.27-7.4521c.5515,0,1,.4487,1,1s-.4485,1-1,1-1-.4487-1-1,.4485-1,1-1Zm8,12c-1.6543,0-3-1.3457-3-3s1.3457-3,3-3,3,1.3457,3,3-1.3457,3-3,3Z"/>
  <path class="cls-2" d="m16,28H6c-1.1028,0-2-.8972-2-2V6c0-1.1028.8972-2,2-2h20c1.1028,0,2,.8972,2,2v10h-2V6H6v20h10v2Z"/>
  <rect id="_Transparent_Rectangle_" data-name="&amp;lt;Transparent Rectangle&amp;gt;" class="cls-1" width="32" height="32"/>
</svg>