<?xml version="1.0" encoding="UTF-8"?>
<svg id="icon" xmlns="http://www.w3.org/2000/svg" width="32" height="32" viewBox="0 0 32 32">
  <defs>
    <style>
      .cls-1 {
        fill: none;
      }

      .cls-1, .cls-2 {
        stroke-width: 0px;
      }
    </style>
  </defs>
  <path class="cls-2" d="m30,24v-2h-2.1c-.1-.6-.4-1.2-.7-1.8l1.5-1.5-1.4-1.4-1.5,1.5c-.5-.3-1.1-.6-1.8-.7v-2.1h-2v2.1c-.6.1-1.2.4-1.8.7l-1.5-1.5-1.4,1.4,1.5,1.5c-.3.5-.6,1.1-.7,1.8h-2.1v2h2.1c.1.6.4,1.2.7,1.8l-1.5,1.5,1.4,1.4,1.5-1.5c.5.3,1.1.6,1.8.7v2.1h2v-2.1c.6-.1,1.2-.4,1.8-.7l1.5,1.5,1.4-1.4-1.5-1.5c.3-.5.6-1.1.7-1.8h2.1Zm-7,2c-1.7,0-3-1.3-3-3s1.3-3,3-3,3,1.3,3,3-1.3,3-3,3Z"/>
  <path class="cls-2" d="m14,28H6c-1.1028,0-2-.8972-2-2V6c0-1.1028.8972-2,2-2h20c1.1028,0,2,.8972,2,2v8h-2V6H6v20h8v2Z"/>
  <rect id="_Transparent_Rectangle_" data-name="&amp;lt;Transparent Rectangle&amp;gt;" class="cls-1" width="32" height="32"/>
</svg>