<svg id="icon" xmlns="http://www.w3.org/2000/svg" viewBox="0 0 32 32"><defs><style>.cls-1{fill:none;}</style></defs><title>copy--file</title><path d="M29.43,14.7,23.38,8.58A2,2,0,0,0,22,8H9.94A2,2,0,0,0,8,10v18.1A2,2,0,0,0,9.94,30H28.06A2,2,0,0,0,30,28.05v-12A2,2,0,0,0,29.43,14.7ZM22,10l5.92,6H22Zm-12,18V10H20v6a2,2,0,0,0,2,2h6V28Z" transform="translate(0 0)"/><path d="M4,18H2V4A2,2,0,0,1,4,2H18V4H4Z" transform="translate(0 0)"/><rect id="_Transparent_Rectangle_" data-name="&lt;Transparent Rectangle&gt;" class="cls-1" width="32" height="32"/></svg>