<?xml version="1.0" encoding="utf-8"?>
<!-- Generator: Adobe Illustrator 23.0.1, SVG Export Plug-In . SVG Version: 6.00 Build 0)  -->
<svg version="1.1" id="icon" xmlns="http://www.w3.org/2000/svg" xmlns:xlink="http://www.w3.org/1999/xlink" x="0px" y="0px"
	 width="32px" height="32px" viewBox="0 0 32 32" style="enable-background:new 0 0 32 32;" xml:space="preserve">
<style type="text/css">
	.st0{fill:none;}
</style>
<title>copy</title>
<path d="M6,18H4V4c0-1.1,0.9-2,2-2h12v2H6V18z"/>
<path d="M26.4,13.7l-6.1-6.1C20,7.2,19.5,7,19,7h-8C9.9,7,9,7.9,9,9v19.1c0.1,1,0.9,1.9,1.9,1.9h14.1c1.1,0,1.9-0.9,1.9-2V15
	C27,14.5,26.8,14.1,26.4,13.7z M19,9l5.9,6H19V9z M11,28V9h6v6c0,1.1,0.9,2,2,2h6v11H11z"/>
<rect id="_Transparent_Rectangle_" class="st0" width="32" height="32"/>
</svg>
