<svg id="icon" xmlns="http://www.w3.org/2000/svg" width="32" height="32" viewBox="0 0 32 32">
  <defs>
    <style>
      .cls-1 {
        fill: none;
      }
    </style>
  </defs>
  <path d="M11.9474,19a4.9476,4.9476,0,0,1-3.4991-8.4465l5.1053-5.1043a4.9482,4.9482,0,0,1,6.9981,6.9976l-.5523.5526-1.4158-1.4129.5577-.5579a2.95,2.95,0,0,0-.0039-4.1653,3.02,3.02,0,0,0-4.17,0l-5.1047,5.104a2.9474,2.9474,0,0,0,0,4.1692,3.02,3.02,0,0,0,4.17,0l1.4143,1.4145A4.9176,4.9176,0,0,1,11.9474,19Z"/>
  <path d="M19.9474,17a4.9476,4.9476,0,0,1-3.4991-8.4465l.5526-.5526,1.4143,1.4146-.5526.5523a2.9476,2.9476,0,0,0,0,4.1689,3.02,3.02,0,0,0,4.17,0c.26-.26,4.7293-4.7293,5.1053-5.1045a2.951,2.951,0,0,0,0-4.1687,3.02,3.02,0,0,0-4.17,0L21.5536,3.449a4.9483,4.9483,0,0,1,6.9981,6.9978c-.3765.376-4.844,4.8428-5.1038,5.1035A4.9193,4.9193,0,0,1,19.9474,17Z"/>
  <path d="M24,30H4a2.0021,2.0021,0,0,1-2-2V8A2.0021,2.0021,0,0,1,4,6H8V8H4V28H24V18h2V28A2.0021,2.0021,0,0,1,24,30Z"/>
  <rect id="_Transparent_Rectangle_" data-name="&lt;Transparent Rectangle&gt;" class="cls-1" width="32" height="32"/>
</svg>
