<svg id="icon" xmlns="http://www.w3.org/2000/svg" width="32" height="32" viewBox="0 0 32 32">
  <defs>
    <style>
      .cls-1 {
        fill: none;
      }
    </style>
  </defs>
  <path d="M19.05,13.7326,18.05,12,7.928,17.8457,6.9312,17.27a2.9524,2.9524,0,0,0,.6672-.769A3,3,0,1,0,3.5,17.5986l2.428,1.4019L3.5,20.4023a3.0342,3.0342,0,1,0,3.4407.3223l.987-.5693L14.5914,24l1-1.7294-5.6634-3.27ZM4.0344,15.26a1,1,0,1,1,.4658.6069A.9929.9929,0,0,1,4.0344,15.26ZM4.9988,22a1,1,0,1,1-.8645,1.5A1,1,0,0,1,4.9988,22Z"/>
  <rect x="17" y="26" width="4" height="2"/>
  <rect x="10" y="26" width="4" height="2"/>
  <path d="M28,28H24V26h4V4H7V8H5V4A2.0023,2.0023,0,0,1,7,2H28a2.0023,2.0023,0,0,1,2,2V26A2.0023,2.0023,0,0,1,28,28Z"/>
  <rect id="_Transparent_Rectangle_" data-name="&lt;Transparent Rectangle&gt;" class="cls-1" width="32" height="32"/>
</svg>
