<svg id="icon" xmlns="http://www.w3.org/2000/svg" width="32" height="32" viewBox="0 0 32 32"><defs><style>.cls-1{fill:none;}</style></defs><title>bike-riding</title><path d="M25,30a6,6,0,1,1,6-6A6.0069,6.0069,0,0,1,25,30Zm0-10a4,4,0,1,0,4,4A4.0045,4.0045,0,0,0,25,20Z"/><path d="M7,30a6,6,0,1,1,6-6A6.0069,6.0069,0,0,1,7,30ZM7,20a4,4,0,1,0,4,4A4.0045,4.0045,0,0,0,7,20Z"/><path d="M17,27H15V20.4139L9.5849,15a2.003,2.003,0,0,1,0-2.8292l4.5859-4.5859a2.0024,2.0024,0,0,1,2.8286,0L21.414,12H27v1.9993L20.5853,14l-5-5L11,13.5849l6,6Z"/><path d="M21.5,8A3.5,3.5,0,1,1,25,4.5,3.5042,3.5042,0,0,1,21.5,8Zm0-5A1.5,1.5,0,1,0,23,4.5,1.5017,1.5017,0,0,0,21.5,3Z"/><rect id="_Transparent_Rectangle_" data-name="&lt;Transparent Rectangle&gt;" class="cls-1" width="32" height="32"/></svg>