<svg id="icon" xmlns="http://www.w3.org/2000/svg" width="32" height="32" viewBox="0 0 32 32">
  <defs>
    <style>
      .cls-1 {
        fill: none;
      }
    </style>
  </defs>
  <rect x="7" y="8" width="5" height="2"/>
  <rect x="7" y="12" width="5" height="2"/>
  <rect x="7" y="16" width="5" height="2"/>
  <rect x="20" y="8" width="5" height="2"/>
  <rect x="20" y="12" width="5" height="2"/>
  <rect x="20" y="16" width="5" height="2"/>
  <path d="M28,4H4A2.0023,2.0023,0,0,0,2,6V28a2.0023,2.0023,0,0,0,2,2H28a2.0023,2.0023,0,0,0,2-2V6A2.0023,2.0023,0,0,0,28,4ZM4,6H15V28H4ZM17,28V6H28V28Z"/>
  <rect id="_Transparent_Rectangle_" data-name="&lt;Transparent Rectangle&gt;" class="cls-1" width="32" height="32"/>
</svg>
