<?xml version="1.0" encoding="UTF-8"?>
<svg id="Layer_1" data-name="Layer 1" xmlns="http://www.w3.org/2000/svg" width="32" height="32" viewBox="0 0 32 32">
  <defs>
    <style>
      .cls-1 {
        fill: none;
      }
    </style>
  </defs>
  <path id="data--add" d="M9,9c-.5523,0-1-.4477-1-1s.4477-1,1-1,1,.4477,1,1-.4477,1-1,1ZM10,16c0-.5523-.4477-1-1-1s-1,.4477-1,1,.4477,1,1,1,1-.4477,1-1ZM10,24c0-.5523-.4477-1-1-1s-1,.4477-1,1,.4477,1,1,1,1-.4477,1-1ZM24,25h4v-2h-4v-4h-2v4h-4v2h4v4h2v-4ZM15,27H6v-6h9v-2H6v-6h16v3h2V5c0-1.103-.8975-2-2-2H6c-1.103,0-2,.897-2,2v22c0,1.1025.897,2,2,2h9v-2ZM6,5h16v6H6v-6Z"/>
  <rect id="Transparent_Rectangle" data-name="Transparent Rectangle" class="cls-1" width="32" height="32"/>
</svg>