<svg id="icon" xmlns="http://www.w3.org/2000/svg" width="32" height="32" viewBox="0 0 32 32">
  <defs>
    <style>
      .cls-1 {
        fill: none;
      }
    </style>
  </defs>
  <title>data--base--alt</title>
  <rect x="19" y="24" width="7" height="2"/>
  <rect x="19" y="20" width="7" height="2"/>
  <rect x="19" y="16" width="7" height="2"/>
  <rect x="6" y="24" width="7" height="2"/>
  <rect x="6" y="20" width="7" height="2"/>
  <path d="M28,4H17a2.0023,2.0023,0,0,0-2,2v6H4a2.0023,2.0023,0,0,0-2,2V28a2.0023,2.0023,0,0,0,2,2H28a2.0023,2.0023,0,0,0,2-2V6A2.0023,2.0023,0,0,0,28,4ZM15,28H4V14H15Zm2,0V6H28V28Z"/>
  <rect id="_Transparent_Rectangle_" data-name="&lt;Transparent Rectangle&gt;" class="cls-1" width="32" height="32"/>
</svg>
