<?xml version="1.0" encoding="UTF-8"?>
<svg id="Layer_1" data-name="Layer 1" xmlns="http://www.w3.org/2000/svg" width="32" height="32" viewBox="0 0 32 32">
  <defs>
    <style>
      .cls-1 {
        fill: none;
      }
    </style>
  </defs>
  <path id="data--alert" d="M11,9c-.5523,0-1-.4477-1-1s.4477-1,1-1,1,.4477,1,1-.4477,1-1,1ZM12,16c0-.5523-.4477-1-1-1s-1,.4477-1,1,.4477,1,1,1,1-.4477,1-1ZM12,24c0-.5523-.4477-1-1-1s-1,.4477-1,1,.4477,1,1,1,1-.4477,1-1ZM21,27h-13v-6h13v-2h-13v-6h16v3h2V5c0-1.103-.8975-2-2-2H8c-1.103,0-2,.897-2,2v22c0,1.1025.897,2,2,2h13v-2ZM8,5h16v6H8v-6ZM26,19h-2v7h2v-7ZM26.5,29.5c0-.8284-.6716-1.5-1.5-1.5s-1.5.6716-1.5,1.5.6716,1.5,1.5,1.5,1.5-.6716,1.5-1.5Z"/>
  <rect id="Transparent_Rectangle" data-name="Transparent Rectangle" class="cls-1" width="32" height="32"/>
</svg>