<svg id="icon" xmlns="http://www.w3.org/2000/svg" width="32" height="32" viewBox="0 0 32 32">
  <defs>
    <style>
      .cls-1 {
        fill: none;
      }
    </style>
  </defs>
  <path d="M28,24v2H15.8164a2.983,2.983,0,0,0-5.6328,0H4V24H2v6H4V28h6.1836a2.983,2.983,0,0,0,5.6328,0H28v2h2V24Z"/>
  <path d="M13,8.811v6.378a.81.81,0,0,0,1.172.7245l6.3816-3.1911a.8077.8077,0,0,0,0-1.4448L14.172,8.0865A.81.81,0,0,0,13,8.811Z"/>
  <path d="M16,22A10,10,0,1,1,26,12,10.0113,10.0113,0,0,1,16,22ZM16,4a8,8,0,1,0,8,8A8.0092,8.0092,0,0,0,16,4Z"/>
  <rect id="_Transparent_Rectangle_" data-name="&lt;Transparent Rectangle&gt;" class="cls-1" width="32" height="32"/>
</svg>
