<?xml version="1.0" encoding="UTF-8"?>
<svg id="icon" xmlns="http://www.w3.org/2000/svg" width="32" height="32" viewBox="0 0 32 32">
  <defs>
    <style>
      .cls-1 {
        fill: none;
      }
    </style>
  </defs>
  <path d="M25,29c-1.6543,0-3-1.3458-3-3s1.3457-3,3-3,3,1.3458,3,3-1.3457,3-3,3Zm0-4c-.5515,0-1,.4486-1,1s.4485,1,1,1,1-.4486,1-1-.4485-1-1-1Z"/>
  <circle cx="20" cy="21" r="2"/>
  <path d="M15,19c-1.6543,0-3-1.3458-3-3s1.3457-3,3-3,3,1.3458,3,3-1.3457,3-3,3Zm0-4c-.5515,0-1,.4486-1,1s.4485,1,1,1,1-.4486,1-1-.4485-1-1-1Z"/>
  <path d="M13,27H4c-1.104-.0013-1.9987-.896-2-2V5c.0013-1.104,.896-1.9987,2-2h7.5857c.5308-.0015,1.0401,.2095,1.4143,.5859l3.4143,3.4141h11.5857c1.104,.0013,1.9987,.896,2,2v7h-2v-7H15.5857l-4-4H4V25H13v2Z"/>
  <rect id="_Transparent_Rectangle_" data-name="&amp;lt;Transparent Rectangle&amp;gt;" class="cls-1" width="32" height="32"/>
</svg>