<svg id="icon" xmlns="http://www.w3.org/2000/svg" width="32" height="32" viewBox="0 0 32 32">
  <defs>
    <style>
      .cls-1 {
        fill: none;
      }
    </style>
  </defs>
  <circle cx="11" cy="8" r="1"/>
  <circle cx="11" cy="16" r="1"/>
  <circle cx="11" cy="24" r="1"/>
  <path d="M24,3H8A2,2,0,0,0,6,5V27a2,2,0,0,0,2,2H18V27H8V21H26V5A2,2,0,0,0,24,3Zm0,16H8V13H24Zm0-8H8V5H24Z"/>
  <polygon points="29 24.415 27.586 23 25 25.587 22.414 23 21 24.415 23.586 27 21 29.586 22.414 31 25 28.414 27.586 31 29 29.586 26.414 27 29 24.415"/>
  <rect id="_Transparent_Rectangle_" data-name="&lt;Transparent Rectangle&gt;" class="cls-1" width="32" height="32"/>
</svg>
