<svg id="icon" xmlns="http://www.w3.org/2000/svg" width="32" height="32" viewBox="0 0 32 32">
  <defs>
    <style>
      .cls-1 {
        fill: none;
      }
    </style>
  </defs>
  <circle cx="14" cy="14" r="2"/>
  <path d="M20,30a.9967.9967,0,0,1-.707-.293L8.5859,19A2.0126,2.0126,0,0,1,8,17.5859V10a2.002,2.002,0,0,1,2-2h7.5859A1.9864,1.9864,0,0,1,19,8.5859L29.707,19.293a.9994.9994,0,0,1,0,1.414l-9,9A.9967.9967,0,0,1,20,30ZM10,10v7.5859l10,10L27.5859,20l-10-10Z"/>
  <path d="M12,30H4a2.0021,2.0021,0,0,1-2-2V4A2.0021,2.0021,0,0,1,4,2H28a2.0021,2.0021,0,0,1,2,2v8H28V4H4V28h8Z"/>
  <rect id="_Transparent_Rectangle_" data-name="&lt;Transparent Rectangle&gt;" class="cls-1" width="32" height="32"/>
</svg>
