<svg id="icon" xmlns="http://www.w3.org/2000/svg" width="32" height="32" viewBox="0 0 32 32">
  <defs>
    <style>
      .cls-1 {
        fill: none;
      }
    </style>
  </defs>
  <circle cx="7" cy="7" r="1"/>
  <circle cx="7" cy="15" r="1"/>
  <circle cx="7" cy="23" r="1"/>
  <path d="M12,26H4V20h8V18H4V12H22V4a2,2,0,0,0-2-2H4A2,2,0,0,0,2,4V26a2,2,0,0,0,2,2h8ZM4,4H20v6H4Z" transform="translate(0 0)"/>
  <path d="M28,17v2.4131A6.996,6.996,0,1,0,22,30V28a5,5,0,1,1,4.5762-7H24v2h6V17Z" transform="translate(0 0)"/>
  <rect id="_Transparent_Rectangle_" data-name="&lt;Transparent Rectangle&gt;" class="cls-1" width="32" height="32"/>
</svg>
