<?xml version="1.0" encoding="UTF-8"?>
<svg id="icon" xmlns="http://www.w3.org/2000/svg" width="32" height="32" viewBox="0 0 32 32">
  <defs>
    <style>
      .cls-1 {
        fill: none;
      }
    </style>
  </defs>
  <polygon points="25 12 25 3 23 3 23 5 20 5 20 7 23 7 23 12 20 12 20 14 28 14 28 12 25 12"/>
  <path d="m8.5,5c1.9299,0,3.5,1.5701,3.5,3.5s-1.5701,3.5-3.5,3.5-3.5-1.5701-3.5-3.5,1.5701-3.5,3.5-3.5m0-2c-3.0376,0-5.5,2.4624-5.5,5.5s2.4624,5.5,5.5,5.5,5.5-2.4624,5.5-5.5-2.4624-5.5-5.5-5.5h0Z"/>
  <path d="m23.5,20c1.9299,0,3.5,1.5701,3.5,3.5s-1.5701,3.5-3.5,3.5-3.5-1.5701-3.5-3.5,1.5701-3.5,3.5-3.5m0-2c-3.0376,0-5.5,2.4624-5.5,5.5s2.4624,5.5,5.5,5.5,5.5-2.4624,5.5-5.5-2.4624-5.5-5.5-5.5h0Z"/>
  <polygon points="6 19 6 21 9.5859 21 4 26.5859 5.4141 28 11 22.4141 11 26 13 26 13 19 6 19"/>
  <rect id="_Transparent_Rectangle_" data-name="&amp;lt;Transparent Rectangle&amp;gt;" class="cls-1" width="32" height="32"/>
</svg>