<?xml version="1.0" encoding="UTF-8"?>
<svg id="icon" xmlns="http://www.w3.org/2000/svg" version="1.1" viewBox="0 0 32 32">
  <!-- Generator: Adobe Illustrator 29.2.1, SVG Export Plug-In . SVG Version: 2.1.0 Build 116)  -->
  <defs>
    <style>
      .st0 {
        fill: none;
      }
    </style>
  </defs>
  <path d="M22,8h-8v2h8v-2ZM14,16h8v-2h-8v2ZM10,14h-2v-4h2v-2h-2v-4h18v12h2V4c0-1.1046-.8954-2-2-2H8c-1.1046,0-2,.8954-2,2v4h-2v2h2v4h-2v2h6v-2ZM4,20H1v10h3c1.6543,0,3-1.3457,3-3v-4c0-1.6543-1.3457-3-3-3ZM5,27c0,.5518-.4487,1-1,1h-1v-6h1c.5513,0,1,.4482,1,1v4ZM17,22v6c0,1.1025.8975,2,2,2h4v-2h-4v-6h4v-2h-4c-1.1025,0-2,.8975-2,2ZM9,22h2v6h-2v2h6v-2h-2v-6h2v-2h-6v2ZM25,20v2h2v8h2v-8h2v-2h-6Z"/>
  <rect id="_Transparent_Rectangle_" class="st0" x="0" width="32" height="32"/>
</svg>