<?xml version="1.0" encoding="UTF-8"?>
<svg id="Layer_1" data-name="Layer 1" xmlns="http://www.w3.org/2000/svg" width="32" height="32" viewBox="0 0 32 32">
  <defs>
    <style>
      .cls-1 {
        fill: none;
      }
    </style>
  </defs>
  <path id="delay" d="M17.62,27.89l.26,1.99c-.62.08-1.26.12-1.88.12-7.72,0-14-6.28-14-14S8.28,2,16,2c.63,0,1.26.04,1.88.12l-.27,1.99c-.53-.07-1.07-.11-1.61-.11-6.62,0-12,5.38-12,12s5.38,12,12,12c.54,0,1.08-.04,1.62-.11ZM24.5508,27.0859l-1.2227-1.584c-.8301.6416-1.7383,1.1709-2.6992,1.5723l.7734,1.8457c1.1201-.4697,2.1797-1.0869,3.1484-1.834ZM28.9404,21.3486l-1.8477-.7637c-.3984.9639-.9238,1.874-1.5596,2.7041l1.5879,1.2168c.7422-.9697,1.3545-2.0312,1.8193-3.1572ZM30,16c0-.605-.0391-1.2153-.1162-1.814l-1.9844.2568c.0674.5137.1006,1.0376.1006,1.5571,0,.5254-.0342,1.0527-.1006,1.5684l1.9824.2578c.0781-.6006.1182-1.2148.1182-1.8262ZM28.9463,10.6621c-.4639-1.1245-1.0762-2.187-1.8174-3.1577l-1.5898,1.2148c.6367.832,1.1611,1.7427,1.5596,2.7065l1.8477-.7637ZM24.5596,4.9209c-.9648-.7466-2.0234-1.3638-3.1455-1.8354l-.7754,1.8438c.9629.4043,1.8701.9336,2.6982,1.5737l1.2227-1.582ZM22.002,20.5879l-5.002-5.002V7h-2v9.4141l5.5879,5.5879,1.4141-1.4141Z"/>
  <rect id="Transparent_Rectangle" data-name="Transparent Rectangle" class="cls-1" width="32" height="32"/>
</svg>