<?xml version="1.0" encoding="UTF-8"?>
<svg id="icon" xmlns="http://www.w3.org/2000/svg" width="32" height="32" viewBox="0 0 32 32">
  <defs>
    <style>
      .cls-1 {
        fill: none;
      }
    </style>
  </defs>
  <path d="m29,26H12c-.2651,0-.5195-.1053-.707-.2928L2.293,16.7072c-.3906-.3906-.3906-1.0237,0-1.4143L11.293,6.2928c.1875-.1875.4419-.2928.707-.2928h17c.5522,0,1,.4478,1,1v18c0,.5522-.4478,1-1,1Zm-16.5857-2h15.5857V8h-15.5857l-8,8,8,8Z"/>
  <polygon points="20.4141 16 25 11.4141 23.5859 10 19 14.5859 14.4143 10 13 11.4141 17.5859 16 13 20.5859 14.4143 22 19 17.4141 23.5859 22 25 20.5859 20.4141 16"/>
  <rect id="_Transparent_Rectangle_" data-name="&amp;lt;Transparent Rectangle&amp;gt;" class="cls-1" width="32" height="32"/>
</svg>