<?xml version="1.0" encoding="UTF-8"?>
<svg id="Icon" xmlns="http://www.w3.org/2000/svg" width="32" height="32" viewBox="0 0 32 32">
  <defs>
    <style>
      .cls-1 {
        fill: none;
      }
    </style>
  </defs>
  <path d="M29.9189,18.6064l-3-7c-.1572-.3682-.5186-.6064-.9189-.6064h-3v-2c0-.5527-.4473-1-1-1h-3v2h2v12.5562c-.9094.5308-1.5869,1.4009-1.858,2.4438h-6.2841c-.447-1.7207-1.9993-3-3.8579-3s-3.4109,1.2793-3.8579,3h-1.1421v-8h-2v9c0,.5527.4473,1,1,1h2.1421c.447,1.7207,1.9993,3,3.8579,3s3.4109-1.2793,3.8579-3h6.2841c.4472,1.7207,1.9997,3,3.858,3s3.4108-1.2793,3.858-3h2.142c.5527,0,1-.4473,1-1v-7c0-.1401-.0293-.2725-.0811-.3936ZM9,28c-1.1025,0-2-.8975-2-2s.8975-2,2-2,2,.8975,2,2-.8975,2-2,2ZM23,13h2.3408l2.1431,5h-4.4839v-5ZM23,28c-1.103,0-2-.8975-2-2s.897-2,2-2,2,.8975,2,2-.897,2-2,2ZM28,25h-1.142c-.4472-1.7207-1.9997-3-3.858-3v-2h5v5ZM4.833,11.7529l-1.49,1.4901,1.414,1.414,1.49-1.4901c.5318.3546,1.127.6031,1.753.7321v2.1011h2v-2.1011c.626-.129,1.2211-.3775,1.7529-.7319l1.49,1.49,1.414-1.414-1.49-1.49c.3545-.5318.603-1.127.732-1.753h2.1011v-2h-2.1011c-.129-.6259-.3774-1.2211-.7319-1.7529l1.4901-1.4901-1.414-1.414-1.4901,1.4901c-.5318-.3546-1.127-.6031-1.753-.7321V2h-2v2.1011c-.6259.129-1.2211.3775-1.7529.7319l-1.49-1.49-1.414,1.414,1.49,1.49c-.3545.5318-.603,1.127-.732,1.753H2v2h2.1011c.1289.6259.3774,1.2211.7319,1.7529ZM9,6c1.6569,0,3,1.3431,3,3-.0018,1.6561-1.3439,2.9982-3,3-1.6569,0-3-1.3431-3-3s1.3431-3,3-3Z"/>
  <rect id="_Transparent_Rectangle_" data-name="&amp;lt;Transparent Rectangle&amp;gt;" class="cls-1" width="32" height="32"/>
</svg>