<svg id="icon" xmlns="http://www.w3.org/2000/svg" viewBox="0 0 32 32"><defs><style>.cls-1{fill:none;}</style></defs><title>departure</title><rect x="2" y="28" width="28" height="2"/><path d="M11.11,4.22l7.6,6.39,1.07.9,1.22-.7,4.05-2.34a2.13,2.13,0,0,1,1.08-.29,1.85,1.85,0,0,1,1.52.73,1.92,1.92,0,0,1,.31,1.5,1.84,1.84,0,0,1-.9,1.22L10.29,21.32a1.87,1.87,0,0,1-2.56-.69l-.48-.84L5.8,17.28,4.38,14.82l1.29-.75,3,2.39,1.06.84,1.18-.68,2.51-1.45,1.73-1-1-1.73L9.86,4.94l1.25-.72M11.22,2a1,1,0,0,0-.49.13L8,3.73a1,1,0,0,0-.35,1.32l4.84,8.39L9.94,14.89,6.35,12.07A1,1,0,0,0,5.27,12L2.48,13.6a1,1,0,0,0-.35,1.32l1.94,3.36,1.45,2.51.48.84a3.87,3.87,0,0,0,5.29,1.42l16.77-9.68a3.88,3.88,0,0,0,1.21-5.62,3.82,3.82,0,0,0-3.14-1.57,4.19,4.19,0,0,0-2.08.56L20,9.08,11.84,2.23A1,1,0,0,0,11.22,2Z" transform="translate(0 0)"/><rect id="_Transparent_Rectangle_" data-name="&lt;Transparent Rectangle&gt;" class="cls-1" width="32" height="32"/></svg>