<svg id="icon" xmlns="http://www.w3.org/2000/svg" viewBox="0 0 32 32"><defs><style>.cls-1{fill:#000000;}.cls-2{fill:none;}</style></defs><title>devices</title><path d="M10,30H4a2,2,0,0,1-2-2V16a2,2,0,0,1,2-2h6a2,2,0,0,1,2,2V28A2,2,0,0,1,10,30ZM4,16V28h6V16Z"/><path class="cls-1" d="M28,4H6A2,2,0,0,0,4,6v6H6V6H28V20H14v2h2v4H14v2h9V26H18V22H28a2,2,0,0,0,2-2V6A2,2,0,0,0,28,4Z"/><rect id="_Transparent_Rectangle_" data-name="&lt;Transparent Rectangle&gt;" class="cls-2" width="32" height="32"/></svg>