<svg id="icon" xmlns="http://www.w3.org/2000/svg" width="32" height="32" viewBox="0 0 32 32">
  <defs>
    <style>
      .cls-1 {
        fill: none;
      }
    </style>
  </defs>
  <title>direction--curve--filled</title>
  <path d="M28,2H4A2,2,0,0,0,2,4V28a2,2,0,0,0,2,2H28a2,2,0,0,0,2-2V4A2,2,0,0,0,28,2ZM22.5859,13.4141,18,8.8281v5.7686a5.0206,5.0206,0,0,1-1.0957,3.124l-2.2471,2.8086A3.01,3.01,0,0,0,14,22.4033V27H12V22.4033a5.0206,5.0206,0,0,1,1.0957-3.124l2.2471-2.8086A3.01,3.01,0,0,0,16,14.5967V8.8281l-4.5859,4.586L10,12l7-7,7,7Z"/>
  <path id="inner-path" class="cls-1" d="M22.5859,13.4141,18,8.8281v5.7686a5.0206,5.0206,0,0,1-1.0957,3.124l-2.2471,2.8086A3.01,3.01,0,0,0,14,22.4033V27H12V22.4033a5.0206,5.0206,0,0,1,1.0957-3.124l2.2471-2.8086A3.01,3.01,0,0,0,16,14.5967V8.8281l-4.5859,4.586L10,12l7-7,7,7Z"/>
  <rect id="_Transparent_Rectangle_" data-name="&lt;Transparent Rectangle&gt;" class="cls-1" width="32" height="32"/>
</svg>
