<svg id="icon" xmlns="http://www.w3.org/2000/svg" width="32" height="32" viewBox="0 0 32 32">
  <defs>
    <style>
      .cls-1 {
        fill: none;
      }
    </style>
  </defs>
  <path id="inner-path" class="cls-1" d="M26.5859,17.5859,22,22.1719V14A8,8,0,0,0,6,14V26H8V14a6,6,0,0,1,12,0v8.1719l-4.5859-4.586L14,19l7,7,7-7Z"/>
  <path d="M28,2H4A2,2,0,0,0,2,4V28a2,2,0,0,0,2,2H28a2,2,0,0,0,2-2V4A2,2,0,0,0,28,2ZM21,26l-7-7,1.4141-1.4141L20,22.1719V14A6,6,0,0,0,8,14V26H6V14a8,8,0,0,1,16,0v8.1719l4.5859-4.586L28,19Z"/>
  <rect id="_Transparent_Rectangle_" data-name="&lt;Transparent Rectangle&gt;" class="cls-1" width="32" height="32"/>
</svg>
