<svg id="icon" xmlns="http://www.w3.org/2000/svg" width="32" height="32" viewBox="0 0 32 32"><defs><style>.cls-1{fill:none;}</style></defs><title>distribute--horizontal-right</title><rect x="28" y="2" width="2" height="28"/><path d="M24,22H20a2.0021,2.0021,0,0,1-2-2V12a2.0021,2.0021,0,0,1,2-2h4a2.0021,2.0021,0,0,1,2,2v8A2.0021,2.0021,0,0,1,24,22ZM20,12h-.0015L20,20h4V12Z"/><rect x="12" y="2" width="2" height="28"/><path d="M8,26H4a2.0021,2.0021,0,0,1-2-2V8A2.0021,2.0021,0,0,1,4,6H8a2.0021,2.0021,0,0,1,2,2V24A2.0021,2.0021,0,0,1,8,26ZM4,8H3.9985L4,24H8V8Z"/><rect id="_Transparent_Rectangle_" data-name="&lt;Transparent Rectangle&gt;" class="cls-1" width="32" height="32"/></svg>