<svg id="icon" xmlns="http://www.w3.org/2000/svg" width="32" height="32" viewBox="0 0 32 32"><defs><style>.cls-1{fill:none;}</style></defs><title>distribute--horizontal-left</title><path d="M28,22H24a2.0021,2.0021,0,0,1-2-2V12a2.0021,2.0021,0,0,1,2-2h4a2.0021,2.0021,0,0,1,2,2v8A2.0021,2.0021,0,0,1,28,22ZM24,12v8h4V12Z"/><rect x="18" y="2" width="2" height="28"/><path d="M12,26H8a2.0021,2.0021,0,0,1-2-2V8A2.0021,2.0021,0,0,1,8,6h4a2.0021,2.0021,0,0,1,2,2V24A2.0021,2.0021,0,0,1,12,26ZM8,8V24h4V8Z"/><rect x="2" y="2" width="2" height="28"/><rect id="_Transparent_Rectangle_" data-name="&lt;Transparent Rectangle&gt;" class="cls-1" width="32" height="32"/></svg>