<?xml version="1.0" encoding="utf-8"?>
<!-- Generator: Adobe Illustrator 27.2.0, SVG Export Plug-In . SVG Version: 6.00 Build 0)  -->
<svg version="1.1" id="icon" xmlns="http://www.w3.org/2000/svg" xmlns:xlink="http://www.w3.org/1999/xlink" x="0px" y="0px"
	 width="32px" height="32px" viewBox="0 0 32 32" style="enable-background:new 0 0 32 32;" xml:space="preserve">
<style type="text/css">
	.st0{fill:none;}
</style>
<path d="M18,31H6c-1.1,0-2-0.9-2-2V12h2v17h12V31z"/>
<path d="M22,27H10c-1.1,0-2-0.9-2-2V8h2v17h12V27z"/>
<rect x="16" y="16" width="8" height="2"/>
<path d="M27.7,9.3l-7-7C20.5,2.1,20.3,2,20,2h-6c-1.1,0-2,0.9-2,2v17c0,1.1,0.9,2,2,2h12c1.1,0,2-0.9,2-2V10
	C28,9.7,27.9,9.5,27.7,9.3z M20,4.4l5.6,5.6H20V4.4z M26,21H14V4h4v6c0,1.1,0.9,2,2,2h6V21z"/>
<rect id="_x3C_Transparent_Rectangle_x3E__155_" class="st0" width="32" height="32"/>
</svg>
