<svg id="icon" xmlns="http://www.w3.org/2000/svg" viewBox="0 0 32 32"><defs><style>.cls-1{fill:none;}</style></defs><title>document--tasks</title><path d="M25.7,9.3l-7-7A.91.91,0,0,0,18,2H8A2,2,0,0,0,6,4V28a2,2,0,0,0,2,2H24a2,2,0,0,0,2-2V10A.91.91,0,0,0,25.7,9.3ZM18,4.4,23.6,10H18ZM24,28H8V4h8v6a2,2,0,0,0,2,2h6Z"/><polygon points="14 22.18 11.41 19.59 10 21 14 25 22 17 20.59 15.59 14 22.18"/><rect id="_Transparent_Rectangle_" data-name="&lt;Transparent Rectangle&gt;" class="cls-1" width="32" height="32"/></svg>