<svg id="icon" xmlns="http://www.w3.org/2000/svg" width="32" height="32" viewBox="0 0 32 32">
  <defs>
    <style>
      .cls-1 {
        fill: none;
      }
    </style>
  </defs>
  <path d="M26,20l1.4272,1.9028L23,26.9629l-4.4272-5.06L20,20h6m1-2H19l-3,4,7,8,7-8-3-4Z"/>
  <path d="M16,28H8V4h8v6a2.0058,2.0058,0,0,0,2,2h6v3l2,0V10a.9092.9092,0,0,0-.3-.7l-7-7A.9087.9087,0,0,0,18,2H8A2.0058,2.0058,0,0,0,6,4V28a2.0058,2.0058,0,0,0,2,2h8ZM18,4.4,23.6,10H18Z"/>
  <rect id="_Transparent_Rectangle_" data-name="&lt;Transparent Rectangle&gt;" class="cls-1" width="32" height="32"/>
</svg>
