<svg id="icon" xmlns="http://www.w3.org/2000/svg" width="32" height="32" viewBox="0 0 32 32">
  <defs>
    <style>
      .cls-1 {
        fill: none;
      }
    </style>
  </defs>
  <path d="M24,30a6,6,0,1,1,6-6A6.0067,6.0067,0,0,1,24,30Zm0-10a4,4,0,1,0,4,4A4.0045,4.0045,0,0,0,24,20Z"/>
  <rect x="8" y="22" width="8" height="2"/>
  <rect x="8" y="16" width="10" height="2"/>
  <path d="M16,28H6V4h8v6a2.0058,2.0058,0,0,0,2,2h6v3h2V10a.9092.9092,0,0,0-.3-.7l-7-7A.9087.9087,0,0,0,16,2H6A2.0058,2.0058,0,0,0,4,4V28a2.0058,2.0058,0,0,0,2,2H16ZM16,4.4,21.6,10H16Z"/>
  <rect id="_Transparent_Rectangle_" data-name="&lt;Transparent Rectangle&gt;" class="cls-1" width="32" height="32"/>
</svg>
