<?xml version="1.0" encoding="UTF-8"?>
<svg id="icon" xmlns="http://www.w3.org/2000/svg" width="32" height="32" viewBox="0 0 32 32">
  <defs>
    <style>
      .cls-1 {
        fill: none;
      }
    </style>
  </defs>
  <path d="M23,10.4141l3-3-1.4141-1.4141-3.293,3.293c-.1875,.1875-.293,.4419-.293,.707v4h-7.0742l1.1436,16h8.8613l1.1436-16h-2.0742v-3.5859Zm-.9307,17.5859h-5.1387l-.8564-12h6.8516l-.8564,12Z"/>
  <path d="M15,1h-5c-.5522,0-1,.4478-1,1v7.3706c-1.0674,.6055-3,2.1777-3,5.6294v14c0,.5527,.4478,1,1,1h5v-2h-4V15c0-3.7536,3-4.2793,3-4.2793V3h3v7h2V2c0-.5522-.4478-1-1-1Z"/>
  <rect id="_Transparent_Rectangle_" data-name="&amp;lt;Transparent Rectangle&amp;gt;" class="cls-1" width="32" height="32"/>
</svg>