<svg id="icon" xmlns="http://www.w3.org/2000/svg" width="32" height="32" viewBox="0 0 32 32">
  <defs>
    <style>
      .cls-1 {
        fill: none;
      }
    </style>
  </defs>
  <rect x="9" y="21" width="14" height="2"/>
  <path d="M11,14a2,2,0,1,0,2,2A1.9806,1.9806,0,0,0,11,14Z"/>
  <path d="M21,14a2,2,0,1,0,2,2A1.9806,1.9806,0,0,0,21,14Z"/>
  <path d="M28,8H18.4141l2.0722-2.0723A2.04,2.04,0,0,0,21,6a2,2,0,1,0-2-2,2.0412,2.0412,0,0,0,.0723.5137L15.5859,8H4a2.0025,2.0025,0,0,0-2,2V26a2.0025,2.0025,0,0,0,2,2H28a2.0025,2.0025,0,0,0,2-2V10A2.0025,2.0025,0,0,0,28,8ZM4,26V10H28V26Z"/>
  <rect id="_Transparent_Rectangle_" data-name="&lt;Transparent Rectangle&gt;" class="cls-1" width="32" height="32"/>
</svg>
