<svg id="icon" xmlns="http://www.w3.org/2000/svg" viewBox="0 0 32 32"><defs><style>.cls-1{fill:none;}</style></defs><title>education</title><path d="M26,30H24V27a5.0059,5.0059,0,0,0-5-5H13a5.0059,5.0059,0,0,0-5,5v3H6V27a7.0082,7.0082,0,0,1,7-7h6a7.0082,7.0082,0,0,1,7,7Z"/><path d="M5,6A1,1,0,0,0,4,7v9H6V7A1,1,0,0,0,5,6Z"/><path d="M4,2V4H9v7a7,7,0,0,0,14,0V4h5V2Zm7,2H21V7H11Zm5,12a5,5,0,0,1-5-5V9H21v2A5,5,0,0,1,16,16Z"/><rect id="_Transparent_Rectangle_" data-name="&lt;Transparent Rectangle&gt;" class="cls-1" width="32" height="32"/></svg>