<?xml version="1.0" encoding="UTF-8"?>
<svg id="Layer_1" data-name="Layer 1" xmlns="http://www.w3.org/2000/svg" width="32" height="32" viewBox="0 0 32 32">
  <defs>
    <style>
      .cls-1 {
        fill: none;
      }
    </style>
  </defs>
  <path id="emissions" d="M30,30H2v-2h2.1108l1.792-15.2334c.1191-1.0073.9731-1.7666,1.9863-1.7666h9.2212c1.0156,0,1.8691.7598,1.9863,1.7676l.2627,2.2324h5.1387c.9941,0,1.8252.7134,1.9766,1.6958l1.7393,11.3042h1.7861v2ZM20.8896,28h5.2998l-1.0762-7h-5.0479l.8242,7ZM6.1245,28h12.7505l-1.2939-11H7.4185l-1.2939,11ZM19.8301,19h4.9756l-.3076-2h-4.9033l.2354,2ZM7.6538,15h9.6919l-.2354-2H7.8892l-.2354,2ZM9.9,10q.0667,0,0,0c.6,0,1-.4,1.1-.9,0,0,.1-1.2,1.6-2.3,2.2-1.6,2.4-3.5,2.4-3.7,0-.5-.4-1-.9-1s-1,.4-1.1.9c0,0-.1,1.2-1.6,2.3-2.2,1.5-2.4,3.4-2.4,3.6,0,.6.4,1,.9,1.1ZM15,10h0c.6,0,1-.4,1.1-.9,0,0,.1-1.2,1.6-2.3,2.2-1.6,2.3-3.5,2.3-3.7,0-.5-.4-1-.9-1s-1,.4-1.1.9c0,0-.1,1.2-1.6,2.3-2.2,1.6-2.4,3.5-2.4,3.8,0,.4.4.8,1,.9ZM21.9,14q.0667,0,0,0c.6,0,1-.4,1.1-.9,0,0,.1-1.2,1.6-2.3,2.2-1.6,2.4-3.5,2.4-3.7,0-.5-.4-1-.9-1s-1,.4-1.1.9c0,0-.1,1.2-1.6,2.3-2.2,1.6-2.4,3.5-2.4,3.8,0,.4.4.8.9.9Z"/>
  <rect id="Transparent_Rectangle" data-name="Transparent Rectangle" class="cls-1" width="32" height="32"/>
</svg>