<?xml version="1.0" encoding="UTF-8"?>
<svg id="Icon" xmlns="http://www.w3.org/2000/svg" width="32" height="32" viewBox="0 0 32 32">
  <defs>
    <style>
      .cls-1 {
        fill: none;
      }
    </style>
  </defs>
  <path d="M4,2h-2v26c0,1.1046.8954,2,2,2h11v-2H4V2ZM23,4v2h3.5859l-7.5859,7.5859-4.293-4.293c-.3905-.3905-1.0236-.3905-1.4141,0l-7.293,7.293,1.4141,1.4141,6.5859-6.5859,4.293,4.293c.3905.3904,1.0236.3904,1.4141,0l8.293-8.293v3.5859h2v-7s-7,0-7,0ZM22.48,20.863c-.682-.54-1.544-.863-2.48-.863h-3v3c0,2.206,1.794,4,4,4h1v3h2v-3h1c2.757,0,5-2.243,5-5v-4h-3c-1.933.0016-3.6925,1.116-4.52,2.863ZM22,25h-1c-1.103,0-2-.897-2-2v-1h1c1.103,0,2,.897,2,2v1ZM28,22c0,1.654-1.346,3-3,3h-1v-2c0-1.654,1.346-3,3-3h1v2Z"/>
  <rect id="_Transparent_Rectangle_" data-name="&amp;lt;Transparent Rectangle&amp;gt;" class="cls-1" width="32" height="32"/>
</svg>