<?xml version="1.0" encoding="UTF-8"?>
<svg id="Layer_1" data-name="Layer 1" xmlns="http://www.w3.org/2000/svg" width="32" height="32" viewBox="0 0 32 32">
  <defs>
    <style>
      .cls-1 {
        fill: none;
      }
    </style>
  </defs>
  <path id="energy--report" d="M25,30H7c-1.103,0-2-.8975-2-2V7c0-1.103.897-2,2-2h3v-1c0-1.103.897-2,2-2h8c1.1025,0,2,.897,2,2v1h3c1.1025,0,2,.897,2,2v21c0,1.1025-.8975,2-2,2ZM7,7v21h18V7h-3v3h-12v-3h-3ZM12,8h8v-4h-8v4ZM16.3574,23.5146l-1.7148-1.0293,2.0913-3.4854h-5l3.9087-6.5146,1.7148,1.0293-2.0913,3.4854h5.0005l-3.9092,6.5146Z"/>
  <rect id="Transparent_Rectangle" data-name="Transparent Rectangle" class="cls-1" width="32" height="32"/>
</svg>