<svg id="icon" xmlns="http://www.w3.org/2000/svg" width="32" height="32" viewBox="0 0 32 32"><defs><style>.cls-1{fill:none;}</style></defs><title>enterprise</title><path d="M28,28V14a2,2,0,0,0-2-2H22V4a2,2,0,0,0-2-2H6A2,2,0,0,0,4,4V28H2v2H30V28ZM6,4H20V28H6ZM22,28V14h4V28Z"/><rect x="10" y="8" width="2" height="4"/><rect x="10" y="14" width="2" height="4"/><rect x="14" y="8" width="2" height="4"/><rect x="14" y="14" width="2" height="4"/><rect x="10" y="20" width="2" height="4"/><rect x="14" y="20" width="2" height="4"/><rect id="_Transparent_Rectangle_" data-name="&lt;Transparent Rectangle&gt;" class="cls-1" width="32" height="32"/></svg>