<svg id="icon" xmlns="http://www.w3.org/2000/svg" width="32" height="32" viewBox="0 0 32 32"><defs><style>.cls-1{fill:none;}</style></defs><title>expand-all</title><path d="M12,10H26a2.0025,2.0025,0,0,0,2-2V4a2.0025,2.0025,0,0,0-2-2H12a2.0025,2.0025,0,0,0-2,2V5H6V2H4V25a2.0025,2.0025,0,0,0,2,2h4v1a2.0025,2.0025,0,0,0,2,2H26a2.0025,2.0025,0,0,0,2-2V24a2.0025,2.0025,0,0,0-2-2H12a2.0025,2.0025,0,0,0-2,2v1H6V17h4v1a2.0025,2.0025,0,0,0,2,2H26a2.0025,2.0025,0,0,0,2-2V14a2.0025,2.0025,0,0,0-2-2H12a2.0025,2.0025,0,0,0-2,2v1H6V7h4V8A2.0025,2.0025,0,0,0,12,10Zm0-6H26l.0012,4H12Zm0,20H26l.0012,4H12Zm0-10H26l.0012,4H12Z"/><rect id="_Transparent_Rectangle_" data-name="&lt;Transparent Rectangle&gt;" class="cls-1" width="32" height="32"/></svg>