<svg id="icon" xmlns="http://www.w3.org/2000/svg" viewBox="0 0 32 32"><defs><style>.cls-1{fill:none;}</style></defs><title>face--add</title><path d="M16,22a6,6,0,0,1-5.14-2.92l-1.71,1a8,8,0,0,0,13.7,0l-1.71-1A6,6,0,0,1,16,22Z"/><polygon points="30 4 26 4 26 0 24 0 24 4 20 4 20 6 24 6 24 10 26 10 26 6 30 6 30 4"/><path d="M11.5,11A2.5,2.5,0,1,0,14,13.5,2.48,2.48,0,0,0,11.5,11Z"/><path d="M20.5,11A2.5,2.5,0,1,0,23,13.5,2.48,2.48,0,0,0,20.5,11Z"/><path d="M27.61,13A12.33,12.33,0,0,1,28,16,12,12,0,1,1,16,4V2A14,14,0,1,0,29.67,13Z"/><rect id="_Transparent_Rectangle_" data-name="&lt;Transparent Rectangle&gt;" class="cls-1" width="32" height="32"/></svg>