<?xml version="1.0" encoding="UTF-8"?>
<svg id="Layer_1" data-name="Layer 1" xmlns="http://www.w3.org/2000/svg" width="32" height="32" viewBox="0 0 32 32">
  <defs>
    <style>
      .cls-1 {
        fill: none;
      }
    </style>
  </defs>
  <path id="facility--groups" d="M28,30h-4v-2h4V4h-4v-2h4c1.1025,0,2,.897,2,2v24c0,1.1025-.8975,2-2,2ZM8,30h-4c-1.103,0-2-.8975-2-2V4c0-1.103.897-2,2-2h4v2h-4v24h4v2ZM16,27.0459l-6.8892-8.1533c-1.1455-1.5078-1.7744-3.3667-1.7715-5.2344,0-4.7734,3.8853-8.6582,8.6606-8.6582s8.6611,3.8853,8.6611,8.6606c.001,1.8672-.6201,3.7144-1.748,5.1987h0s-.2041.2705-.2432.3193l-6.6699,7.8672ZM10.9048,17.9453l5.0952,6.0088,5.3193-6.3018c.8662-1.1411,1.3428-2.5576,1.3418-3.9912,0-3.6733-2.9883-6.6611-6.6611-6.6611s-6.6606,2.9873-6.6606,6.6597c-.002,1.4341.4824,2.8618,1.3638,4.0229l.2017.2627ZM19,16h-2v-4h-2v4h-2v-4c0-1.103.897-2,2-2h2c1.1025,0,2,.897,2,2v4Z"/>
  <rect id="Transparent_Rectangle" data-name="Transparent Rectangle" class="cls-1" width="32" height="32"/>
</svg>