<svg id="icon" xmlns="http://www.w3.org/2000/svg" width="32" height="32" viewBox="0 0 32 32">
  <defs>
    <style>
      .cls-1 {
        fill: none;
      }
    </style>
  </defs>
  <path d="M4.21,17.0615,16,29,27.79,17.0615a7.7313,7.7313,0,0,0,0-10.8232,7.494,7.494,0,0,0-10.6841,0L16,7.3643l-1.1062-1.126a7.494,7.494,0,0,0-10.6841,0A7.7313,7.7313,0,0,0,4.21,17.0615ZM26.3552,15.645,16,26.1255V10.23q1.2708-1.2876,2.5413-2.5742a5.4768,5.4768,0,0,1,7.8139,0A5.708,5.708,0,0,1,26.3552,15.645Z" transform="translate(0)"/>
  <rect id="_Transparent_Rectangle_" data-name="&lt;Transparent Rectangle&gt;" class="cls-1" width="32" height="32"/>
</svg>
