<?xml version="1.0" encoding="UTF-8"?>
<svg id="icon" xmlns="http://www.w3.org/2000/svg" width="32" height="32" viewBox="0 0 32 32">
  <defs>
    <style>
      .cls-1 {
        fill: none;
      }
    </style>
  </defs>
  <path d="M24,18h4c1.1045,0,2-.8955,2-2v-4c0-1.1045-.8955-2-2-2h-4c-1.1045,0-2,.8955-2,2v1h-5v-5c0-1.6543-1.3457-3-3-3h-4v-1c0-1.1045-.8955-2-2-2h-4c-1.1045,0-2,.8955-2,2v4c0,1.1045.8955,2,2,2h4c1.1045,0,2-.8955,2-2v-1h4c.5515,0,1,.4487,1,1v16c0,1.6543,1.3457,3,3,3h4v1c0,1.1045.8955,2,2,2h4c1.1045,0,2-.8955,2-2v-4c0-1.1045-.8955-2-2-2h-4c-1.1045,0-2,.8955-2,2v1h-4c-.5515,0-1-.4487-1-1v-9h5v1c0,1.1045.8955,2,2,2ZM24,12h4v4h-4v-4Z"/>
  <rect id="_Transparent_Rectangle_" data-name="&amp;lt;Transparent Rectangle&amp;gt;" class="cls-1" width="32" height="32"/>
</svg>