<?xml version="1.0" encoding="UTF-8"?>
<svg id="Layer_1" data-name="Layer 1" xmlns="http://www.w3.org/2000/svg" width="32" height="32" viewBox="0 0 32 32">
  <defs>
    <style>
      .cls-1 {
        fill: none;
      }
    </style>
  </defs>
  <path d="M29,30h-8v-2h8v2ZM18,30h-10c-1.103,0-2-.8975-2-2V4c0-1.103.897-2,2-2h10c.2656,0,.5195.1055.707.293l7,7c.1875.1875.293.4419.293.707v6h-2v-4h-6c-1.103,0-2-.897-2-2v-6h-8v24h10v2ZM18,4.4141v5.5859h5.5859l-5.5859-5.5859ZM26,26h-2v-3h-3v-2h3v-3h2v3h3v2h-3v3Z"/>
  <rect id="Transparent_Rectangle" data-name="Transparent Rectangle" class="cls-1" width="32" height="32"/>
</svg>