<?xml version="1.0" encoding="UTF-8"?>
<svg id="Icon" xmlns="http://www.w3.org/2000/svg" width="32" height="32" viewBox="0 0 32 32">
  <defs>
    <style>
      .cls-1 {
        fill: none;
      }
    </style>
  </defs>
  <path d="M27,16h-2v2h-1c-1.1,0-2,.9-2,2v2c0,1.1.9,2,2,2h4v2h-6v2h3v2h2v-2h1c1.1,0,2-.9,2-2v-2c0-1.1-.9-2-2-2h-4v-2h6v-2h-3v-2ZM28,8h-6v-4c0-1.1-.9-2-2-2h-8c-1.1,0-2,.9-2,2v4h-6c-1.1,0-2,.9-2,2v14c0,1.1.9,2,2,2h15v-2H4v-14h24v4h2v-4c0-1.1-.9-2-2-2ZM20,8h-8v-4h8v4Z"/>
  <rect id="_Transparent_Rectangle_" data-name="&amp;lt;Transparent Rectangle&amp;gt;" class="cls-1" width="32" height="32"/>
</svg>