<svg id="icon" xmlns="http://www.w3.org/2000/svg" width="32" height="32" viewBox="0 0 32 32"><defs><style>.cls-1{fill:none;}</style></defs><title>fit-to-screen</title><polygon points="22 16 24 16 24 8 16 8 16 10 22 10 22 16"/><polygon points="8 24 16 24 16 22 10 22 10 16 8 16 8 24"/><path d="M26,28H6a2.0023,2.0023,0,0,1-2-2V6A2.0023,2.0023,0,0,1,6,4H26a2.0023,2.0023,0,0,1,2,2V26A2.0023,2.0023,0,0,1,26,28ZM6,6V26H26.0012L26,6Z"/><rect id="_Transparent_Rectangle_" data-name="&lt;Transparent Rectangle&gt;" class="cls-1" width="32" height="32"/></svg>