<svg id="icon" xmlns="http://www.w3.org/2000/svg" width="32" height="32" viewBox="0 0 32 32">
  <defs>
    <style>
      .cls-1 {
        fill: none;
      }
    </style>
  </defs>
  <polygon points="11 10 12.41 11.41 15 8.83 15 23.17 12.41 20.59 11 22 16 27 21 22 19.59 20.59 17 23.17 17 8.83 19.59 11.41 21 10 16 5 11 10"/>
  <path d="M28,30H4a2.0023,2.0023,0,0,1-2-2V4A2.0023,2.0023,0,0,1,4,2H28a2.0021,2.0021,0,0,1,2,2V28A2.0021,2.0021,0,0,1,28,30ZM4,4V28H28V4Z"/>
  <rect id="_Transparent_Rectangle_" data-name="&lt;Transparent Rectangle&gt;" class="cls-1" width="32" height="32"/>
</svg>
