<svg id="icon" xmlns="http://www.w3.org/2000/svg" width="32" height="32" viewBox="0 0 32 32">
  <defs>
    <style>
      .cls-1 {
        fill: none;
      }
    </style>
  </defs>
  <polygon points="22 11 20.59 12.41 23.17 15 8.83 15 11.41 12.41 10 11 5 16 10 21 11.41 19.59 8.83 17 23.17 17 20.59 19.59 22 21 27 16 22 11"/>
  <path d="M28,30H4a2.0023,2.0023,0,0,1-2-2V4A2.0023,2.0023,0,0,1,4,2H28a2.0021,2.0021,0,0,1,2,2V28A2.0021,2.0021,0,0,1,28,30ZM4,4V28H28V4Z"/>
  <rect id="_Transparent_Rectangle_" data-name="&lt;Transparent Rectangle&gt;" class="cls-1" width="32" height="32"/>
</svg>
