<?xml version="1.0" encoding="utf-8"?>
<!-- Generator: Adobe Illustrator 25.4.1, SVG Export Plug-In . SVG Version: 6.00 Build 0)  -->
<svg version="1.1" id="icon" xmlns="http://www.w3.org/2000/svg" xmlns:xlink="http://www.w3.org/1999/xlink" x="0px" y="0px"
	 width="32px" height="32px" viewBox="0 0 32 32" style="enable-background:new 0 0 32 32;" xml:space="preserve">
<style type="text/css">
	.st0{fill:none;}
</style>
<path d="M28,2H4C2.9,2,2,2.9,2,4v24c0,1.1,0.9,2,2,2h15v-2c0-2.8,2.2-5,5-5v-2c-3.9,0-7,3.1-7,7h-3v-4h-2v4H4V4h8v14h2v-5h4v-2h-4V4
	h14v7h-4v2h4v15h-4v2h4c1.1,0,2-0.9,2-2V4C30,2.9,29.1,2,28,2z"/>
<rect id="_x3C_Transparent_Rectangle_x3E__589_" class="st0" width="32" height="32"/>
</svg>
