<svg id="icon" xmlns="http://www.w3.org/2000/svg" width="32" height="32" viewBox="0 0 32 32"><defs><style>.cls-1{fill:none;}</style></defs><title>folder--off</title><path d="M28,8H25.4141L30,3.4141,28.5859,2,2,28.5859,3.4141,30l2-2H28a2,2,0,0,0,2-2V10A2,2,0,0,0,28,8Zm0,18H7.4141l16-16H28Z"/><path d="M4,6h7.1716l3.4141,3.4141L15.1716,10H18V8H16L12.5859,4.5859A2.0007,2.0007,0,0,0,11.1716,4H4A2,2,0,0,0,2,6V24H4Z"/><rect id="_Transparent_Rectangle_" data-name="&lt;Transparent Rectangle&gt;" class="cls-1" width="32" height="32"/></svg>