<svg id="icon" xmlns="http://www.w3.org/2000/svg" width="32" height="32" viewBox="0 0 32 32">
  <defs>
    <style>
      .cls-1 {
        fill: none;
      }
    </style>
  </defs>
  <path d="M28,8H20.8284L17.4143,4.5859A2,2,0,0,0,16,4H4A2,2,0,0,0,2,6V26a2,2,0,0,0,2,2H28a2,2,0,0,0,2-2V10A2,2,0,0,0,28,8ZM8,26V14h8v6.17l-2.59-2.58L12,19l5,5,5-5-1.41-1.41L18,20.17V14a2.0025,2.0025,0,0,0-2-2H8a2.0025,2.0025,0,0,0-2,2V26H4V6H16l4,4h8v2H22v2h6V26Z"/>
  <rect id="_Transparent_Rectangle_" data-name="&lt;Transparent Rectangle&gt;" class="cls-1" width="32" height="32"/>
</svg>
