<?xml version="1.0" encoding="UTF-8"?>
<svg id="icon" xmlns="http://www.w3.org/2000/svg" width="32" height="32" viewBox="0 0 32 32">
  <defs>
    <style>
      .cls-1 {
        fill: none;
      }

      .cls-1, .cls-2 {
        stroke-width: 0px;
      }
    </style>
  </defs>
  <path class="cls-2" d="m20,6c0,1.8584,1.2798,3.4106,3,3.8579v5.1421h-14v-5.1421c1.7202-.4473,3-1.9995,3-3.8579,0-2.2056-1.7944-4-4-4s-4,1.7944-4,4c0,1.8584,1.2798,3.4106,3,3.8579v5.1421c0,1.103.897,2,2,2h6v5.1421c-1.7202.4473-3,1.9995-3,3.8579,0,2.2056,1.7944,4,4,4s4-1.7944,4-4c0-1.8584-1.2798-3.4106-3-3.8579v-5.1421h6c1.103,0,2-.897,2-2v-5.1421c1.7202-.4473,3-1.9995,3-3.8579,0-2.2056-1.7944-4-4-4s-4,1.7944-4,4Zm-14,0c0-1.103.897-2,2-2s2,.897,2,2c0,1.103-.897,2-2,2s-2-.897-2-2Zm12,20c0,1.103-.897,2-2,2s-2-.897-2-2c0-1.103.897-2,2-2s2,.897,2,2ZM26,6c0,1.103-.897,2-2,2s-2-.897-2-2c0-1.103.897-2,2-2s2,.897,2,2Z"/>
  <rect id="_Transparent_Rectangle_" data-name="&amp;lt;Transparent Rectangle&amp;gt;" class="cls-1" width="32" height="32"/>
</svg>