<svg id="icon" xmlns="http://www.w3.org/2000/svg" viewBox="0 0 32 32"><defs><style>.cls-1{fill:none;}</style></defs><title>forward--30</title><path d="M26,18A10,10,0,1,1,16,8h4v5l6-6L20,1V6H16A12,12,0,1,0,28,18Z"/><path d="M12.61,18.1a1.44,1.44,0,0,0,1-.26.87.87,0,0,0,.32-.69v-.08a1,1,0,0,0-.3-.74,1.22,1.22,0,0,0-.83-.27,1.68,1.68,0,0,0-.9.24,2.2,2.2,0,0,0-.68.68l-.92-.83a3.43,3.43,0,0,1,.43-.5,2.25,2.25,0,0,1,.55-.41,3.1,3.1,0,0,1,.69-.27,3.35,3.35,0,0,1,.87-.1,3.89,3.89,0,0,1,1.06.14,2.46,2.46,0,0,1,.83.4,2,2,0,0,1,.53.63,1.88,1.88,0,0,1,.19.83,1.74,1.74,0,0,1-.12.67,1.62,1.62,0,0,1-.32.52,1.51,1.51,0,0,1-.47.36,2.27,2.27,0,0,1-.57.2v.07a2.34,2.34,0,0,1,.63.21,1.48,1.48,0,0,1,.51.38,1.7,1.7,0,0,1,.34.55,1.86,1.86,0,0,1,.13.73,2,2,0,0,1-.21.92,2,2,0,0,1-.57.72,2.58,2.58,0,0,1-.89.45,3.83,3.83,0,0,1-1.16.16,4.22,4.22,0,0,1-1-.11,2.92,2.92,0,0,1-1.32-.77,3.64,3.64,0,0,1-.42-.55l1.07-.81a3.13,3.13,0,0,0,.29.42,1.88,1.88,0,0,0,.35.34,1.57,1.57,0,0,0,.45.22,2,2,0,0,0,.57.07,1.44,1.44,0,0,0,1-.3,1.09,1.09,0,0,0,.34-.85v-.08a.92.92,0,0,0-.37-.8,1.76,1.76,0,0,0-1.06-.28h-.76V18.1Z"/><path d="M19.63,22.81a2.84,2.84,0,0,1-1.28-.27,2.35,2.35,0,0,1-.89-.77,3.6,3.6,0,0,1-.52-1.24,8.44,8.44,0,0,1,0-3.37,3.51,3.51,0,0,1,.52-1.24,2.38,2.38,0,0,1,.89-.78,2.84,2.84,0,0,1,1.28-.27,2.42,2.42,0,0,1,2.16,1.05,5.17,5.17,0,0,1,.7,2.92,5.2,5.2,0,0,1-.7,2.93A2.44,2.44,0,0,1,19.63,22.81Zm0-1.22a1.07,1.07,0,0,0,1-.55,3.31,3.31,0,0,0,.29-1.5V18.15a3.31,3.31,0,0,0-.29-1.5,1.23,1.23,0,0,0-2.06,0,3.31,3.31,0,0,0-.29,1.5v1.39A3.31,3.31,0,0,0,18.6,21,1.06,1.06,0,0,0,19.63,21.59Z"/><rect id="_Transparent_Rectangle_" data-name="&lt;Transparent Rectangle&gt;" class="cls-1" width="32" height="32"/></svg>