<?xml version="1.0" encoding="UTF-8"?>
<svg id="Layer_1" data-name="Layer 1" xmlns="http://www.w3.org/2000/svg" width="32" height="32" viewBox="0 0 32 32">
  <defs>
    <style>
      .cls-1 {
        fill: none;
      }
    </style>
  </defs>
  <path id="fuel-can" d="M24,30H8c-1.103,0-2-.8975-2-2v-15.3857l-1.4282-1.4287c-.3843-.3838-.5889-.8984-.5752-1.4492.0132-.5312.23-1.0337.6108-1.4146l3.7144-3.7144c.3809-.3809.8833-.5977,1.4146-.6108.5576-.0269,1.0654.1904,1.4497.5757l1.4282,1.4277h4.3857v-2c0-1.103.8975-2,2-2h5c1.1025,0,2,.897,2,2v24c0,1.1025-.8975,2-2,2ZM8,13.4141v14.5859h16V8h-10.5859l-5.4141,5.4141ZM9.7715,5.9858l-3.75,3.75,1.3901,1.438,3.7744-3.7739-1.4146-1.4141ZM19,6h5v-2h-5v2ZM19.5928,24.0068l-3.5928-3.5928-3.5928,3.5928-1.4141-1.4141,3.5928-3.5928-3.5928-3.5928,1.4141-1.4141,3.5928,3.5928,3.5928-3.5928,1.4141,1.4141-3.5928,3.5928,3.5928,3.5928-1.4141,1.4141Z"/>
  <rect id="Transparent_Rectangle" data-name="Transparent Rectangle" class="cls-1" width="32" height="32"/>
</svg>