<svg id="icon" xmlns="http://www.w3.org/2000/svg" viewBox="0 0 32 32"><defs><style>.cls-1{fill:none;}</style></defs><title>function</title><path d="M8.5,30a2.5,2.5,0,0,1,0-5c.63-.07,2.35-1.53,2.49-7.22l-1.78-.45a2.92,2.92,0,0,1,0-5.66L11,11.21C11.55,4,19.32,2,23.5,2a2.5,2.5,0,0,1,0,5c-.08,0-2.23.15-2.48,4.22l1.77.45a2.92,2.92,0,0,1,0,5.66L21,17.79C20.49,29.86,8.62,30,8.5,30Zm15-26C23.07,4,13,4.11,13,12v.78l-3.3.83a.92.92,0,0,0,0,1.78l3.3.83V17c0,9.72-4,10-4.5,10a.5.5,0,0,0,0,1C8.93,28,19,27.83,19,17v-.78l3.3-.83a.92.92,0,0,0,0-1.78L19,12.78V12c0-6.92,4.46-7,4.5-7a.5.5,0,0,0,0-1Z"/><path d="M4.15,23.46A14,14,0,0,1,10.61,3.08l.77,1.84A12,12,0,0,0,5.85,22.4Z"/><path d="M21.39,28.92l-.77-1.84A12,12,0,0,0,26.11,9.54L27.8,8.46a14,14,0,0,1-6.41,20.46Z"/><rect id="_Transparent_Rectangle_" data-name="&lt;Transparent Rectangle&gt;" class="cls-1" width="32" height="32"/></svg>