<svg id="icon" xmlns="http://www.w3.org/2000/svg" width="32" height="32" viewBox="0 0 32 32">
  <defs>
    <style>
      .cls-1 {
        fill: none;
      }
    </style>
  </defs>
  <rect id="inner-path" class="cls-1" x="8" y="10" width="7" height="2"/>
  <path d="M28.4143,8l-5-5L22,4.4141l3,3V12a2.0023,2.0023,0,0,0,2,2V24.5a1.5,1.5,0,0,1-3,0V16a1,1,0,0,0-1-1H19V5a1,1,0,0,0-1-1H5A1,1,0,0,0,4,5V26H2v2H21V26H19V17h3v7.4a3.5645,3.5645,0,0,0,2.7654,3.5249A3.506,3.506,0,0,0,29,24.5V9.4146A2,2,0,0,0,28.4143,8ZM15,12H8V10h7Z"/>
  <rect id="_Transparent_Rectangle_" data-name=" Transparent Rectangle " class="cls-1" width="32" height="32"/>
</svg>
