<svg id="icon" xmlns="http://www.w3.org/2000/svg" viewBox="0 0 32 32"><defs><style>.cls-1{fill:#231f20;}.cls-2{fill:none;}</style></defs><title>globe</title><path class="cls-1" d="M14,4a7,7,0,1,1-7,7,7,7,0,0,1,7-7m0-2a9,9,0,1,0,9,9A9,9,0,0,0,14,2Z"/><path class="cls-1" d="M28,11a13.92,13.92,0,0,0-4.11-9.89L22.48,2.52a12,12,0,0,1-16.92,17l0,0L4.11,20.89A13.92,13.92,0,0,0,14,25v3H10v2H20V28H16V24.84A14,14,0,0,0,28,11Z"/><rect id="_Transparent_Rectangle_" data-name="&lt;Transparent Rectangle&gt;" class="cls-2" width="32" height="32"/></svg>