<svg id="icon" xmlns="http://www.w3.org/2000/svg" width="32" height="32" viewBox="0 0 32 32">
  <defs>
    <style>
      .cls-1 {
        fill: none;
      }
    </style>
  </defs>
  <title>globe</title>
  <path d="M14,4a7,7,0,1,1-7,7,7,7,0,0,1,7-7m0-2a9,9,0,1,0,9,9A9,9,0,0,0,14,2Z"/>
  <path d="M28,11a13.9563,13.9563,0,0,0-4.1051-9.8949L22.4813,2.5187A11.9944,11.9944,0,0,1,5.5568,19.5194l-.0381-.0381L4.1051,20.8949A13.9563,13.9563,0,0,0,14,25v3H10v2H20V28H16V24.84A14.0094,14.0094,0,0,0,28,11Z"/>
  <rect id="_Transparent_Rectangle_" data-name="&lt;Transparent Rectangle&gt;" class="cls-1" width="32" height="32"/>
</svg>
