<?xml version="1.0" encoding="UTF-8"?>
<svg id="icon" xmlns="http://www.w3.org/2000/svg" version="1.1" viewBox="0 0 32 32">
  <!-- Generator: Adobe Illustrator 29.6.1, SVG Export Plug-In . SVG Version: 2.1.1 Build 9)  -->
  <defs>
    <style>
      .st0 {
        fill: none;
      }
    </style>
  </defs>
  <g>
    <rect x="3" y="18" width="2" height="12"/>
    <rect x="9" y="24" width="2" height="6"/>
    <rect x="15" y="16" width="2" height="14"/>
    <rect x="21" y="20" width="2" height="10"/>
    <rect x="27" y="14" width="2" height="16"/>
    <path d="M28,2c-1.1,0-2,.9-2,2s0,.3,0,.5l-3.6,3.6c-.2,0-.3,0-.5,0-.3,0-.6,0-.9.2l-3.1-2.1s0,0,0-.1c0-1.1-.9-2-2-2s-2,.9-2,2,0,.5.2.8l-3.9,5.2c0,0-.2,0-.2,0-.2,0-.3,0-.5,0l-3.6-3.6c0-.2,0-.3,0-.5,0-1.1-.9-2-2-2s-2,.9-2,2,.9,2,2,2,.3,0,.5,0l3.6,3.6c0,.2,0,.3,0,.5,0,1.1.9,2,2,2s2-.9,2-2,0-.5-.2-.8l3.9-5.2c0,0,.2,0,.2,0,.3,0,.6,0,.9-.2l3.1,2.1s0,0,0,.1c0,1.1.9,2,2,2s2-.9,2-2,0-.3,0-.5l3.6-3.6c.2,0,.3,0,.5,0,1.1,0,2-.9,2-2s-.9-2-2-2h0Z"/>
  </g>
  <rect id="__x3C_Transparent_Rectangle_x3E_" class="st0" width="32" height="32"/>
</svg>