<svg id="icon" xmlns="http://www.w3.org/2000/svg" width="32" height="32" viewBox="0 0 32 32">
  <defs>
    <style>
      .cls-1 {
        fill: none;
      }
    </style>
  </defs>
  <path d="M11,21H9V19a3.0033,3.0033,0,0,1,3-3h6v2H12a1.0011,1.0011,0,0,0-1,1Z" transform="translate(0 0)"/>
  <path d="M15,15a4,4,0,1,1,4-4A4.0045,4.0045,0,0,1,15,15Zm0-6a2,2,0,1,0,2,2A2.0021,2.0021,0,0,0,15,9Z" transform="translate(0 0)"/>
  <path d="M24,22a4,4,0,1,1,4-4A4.0045,4.0045,0,0,1,24,22Zm0-6a2,2,0,1,0,2,2A2.0021,2.0021,0,0,0,24,16Z" transform="translate(0 0)"/>
  <path d="M30,28H28V26a1.0011,1.0011,0,0,0-1-1H21a1.0011,1.0011,0,0,0-1,1v2H18V26a3.0033,3.0033,0,0,1,3-3h6a3.0033,3.0033,0,0,1,3,3Z" transform="translate(0 0)"/>
  <path d="M14,27.7334l-5.2344-2.791A8.9858,8.9858,0,0,1,4,17V4H24v6h2V4a2.0023,2.0023,0,0,0-2-2H4A2.0023,2.0023,0,0,0,2,4V17a10.9814,10.9814,0,0,0,5.8242,9.707L14,30Z" transform="translate(0 0)"/>
  <rect id="_Transparent_Rectangle_" data-name="&lt;Transparent Rectangle&gt;" class="cls-1" width="32" height="32"/>
</svg>
