<svg id="icon" xmlns="http://www.w3.org/2000/svg" width="32" height="32" viewBox="0 0 32 32">
  <defs>
    <style>
      .cls-1 {
        fill: none;
      }
    </style>
  </defs>
  <path d="M19,13V9H9V19h4v4H23V13Zm-8-2h6v6H11ZM21,21H15V19h4V15h2Z"/>
  <path d="M30,8V2H24V4H8V2H2V8H4V24H2v6H8V28H24v2h6V24H28V8ZM26,4h2V6H26ZM4,4H6V6H4ZM6,28H4V26H6Zm22,0H26V26h2Zm-2-4H24v2H8V24H6V8H8V6H24V8h2Z"/>
  <rect id="_Transparent_Rectangle_" data-name="&lt;Transparent Rectangle&gt;" class="cls-1" width="32" height="32"/>
</svg>
