<svg id="icon" xmlns="http://www.w3.org/2000/svg" width="32" height="32" viewBox="0 0 32 32">
  <defs>
    <style>
      .cls-1 {
        fill: none;
      }
    </style>
  </defs>
  <path d="M22,24H10a2.0021,2.0021,0,0,1-2-2V10a2.0021,2.0021,0,0,1,2-2H22a2.0021,2.0021,0,0,1,2,2V22A2.0021,2.0021,0,0,1,22,24ZM10,10V22H22V10Z" transform="translate(0 0)"/>
  <path d="M8,30H4a2.0021,2.0021,0,0,1-2-2V4A2.0021,2.0021,0,0,1,4,2H8V4H4V28H8Z" transform="translate(0 0)"/>
  <path d="M28,30H24V28h4V4H24V2h4a2.0021,2.0021,0,0,1,2,2V28A2.0021,2.0021,0,0,1,28,30Z" transform="translate(0 0)"/>
  <rect id="_Transparent_Rectangle_" data-name="&lt;Transparent Rectangle&gt;" class="cls-1" width="32" height="32"/>
</svg>
