<svg id="icon" xmlns="http://www.w3.org/2000/svg" width="32" height="32" viewBox="0 0 32 32">
  <defs>
    <style>
      .cls-1 {
        fill: none;
      }
    </style>
  </defs>
  <title>harbor</title>
  <path d="M26,16a10.0132,10.0132,0,0,1-9,9.9492V16h3V14H17V9.8579a4,4,0,1,0-2,0V14H12v2h3v9.9492A10.0132,10.0132,0,0,1,6,16H4a12,12,0,0,0,24,0ZM14,6a2,2,0,1,1,2,2A2.0023,2.0023,0,0,1,14,6Z"/>
  <rect id="_Transparent_Rectangle_" data-name="&lt;Transparent Rectangle&gt;" class="cls-1" width="32" height="32"/>
</svg>
