<svg xmlns="http://www.w3.org/2000/svg" viewBox="0 0 32 32"><path d="M19,28H3a1,1,0,0,1,0-2H19a1,1,0,0,1,0,2Z"/><path d="M15,20H3a1,1,0,0,1,0-2H15a1,1,0,0,1,0,2Z"/><rect width="4" height="2" x="24.5" y="23.5" transform="rotate(45 26.5 24.5)"/><rect width="4" height="2" x="28" y="15"/><rect width="4" height="2" x="24.5" y="6.5" transform="rotate(-45 26.5 7.5)"/><rect width="2" height="4" x="17" y="2"/><rect width="4" height="2" x="7.5" y="6.5" transform="rotate(-135 9.5 7.5)"/><path d="M18,8a8.0092,8.0092,0,0,0-8,8h2a6,6,0,1,1,6,6H7a1,1,0,0,0,0,2H18A8,8,0,0,0,18,8Z"/></svg>