<svg id="icon" xmlns="http://www.w3.org/2000/svg" viewBox="0 0 32 32"><defs><style>.cls-1{fill:none;}</style></defs><title>HD</title><path d="M28,6H4A2,2,0,0,0,2,8V24a2,2,0,0,0,2,2H28a2,2,0,0,0,2-2V8A2,2,0,0,0,28,6ZM4,24V8H28V24Z"/><path d="M22,11H18V21h4a3,3,0,0,0,3-3V14A3,3,0,0,0,22,11Zm1,7a1,1,0,0,1-1,1H20V13h2a1,1,0,0,1,1,1Z"/><polygon points="13 11 13 15 10 15 10 11 8 11 8 21 10 21 10 17 13 17 13 21 15 21 15 11 13 11"/><rect id="_Transparent_Rectangle_" data-name="&lt;Transparent Rectangle&gt;" class="cls-1" width="32" height="32"/></svg>