<svg id="icon" xmlns="http://www.w3.org/2000/svg" viewBox="0 0 32 32"><defs><style>.cls-1{fill:none;}</style></defs><title>HDR</title><path d="M30,15V11a2,2,0,0,0-2-2H22V23h2V17h1.48l2.34,6H30l-2.33-6H28A2,2,0,0,0,30,15Zm-6-4h4v4H24Z"/><path d="M16,23H12V9h4a4,4,0,0,1,4,4v6A4,4,0,0,1,16,23Zm-2-2h2a2,2,0,0,0,2-2V13a2,2,0,0,0-2-2H14Z"/><polygon points="8 9 8 15 4 15 4 9 2 9 2 23 4 23 4 17 8 17 8 23 10 23 10 9 8 9"/><rect id="_Transparent_Rectangle_" data-name="&lt;Transparent Rectangle&gt;" class="cls-1" width="32" height="32"/></svg>