<svg id="icon" xmlns="http://www.w3.org/2000/svg" width="32" height="32" viewBox="0 0 32 32"><defs><style>.cls-1{fill:none;}</style></defs><title>health-cross</title><path d="M19,28H13a2.0023,2.0023,0,0,1-2-2V21H6a2.0023,2.0023,0,0,1-2-2V13a2.002,2.002,0,0,1,2-2h5V6a2.002,2.002,0,0,1,2-2h6a2.0023,2.0023,0,0,1,2,2v5h5a2.0023,2.0023,0,0,1,2,2v6a2.0027,2.0027,0,0,1-2,2H21v5A2.0027,2.0027,0,0,1,19,28ZM6,13v6h7v7h6V19h7V13H19V6H13v7Z" transform="translate(0 0)"/><rect id="_Transparent_Rectangle_" data-name="&lt;Transparent Rectangle&gt;" class="cls-1" width="32" height="32"/></svg>