<svg id="icon" xmlns="http://www.w3.org/2000/svg" viewBox="0 0 32 32"><defs><style>.cls-1{fill:none;}</style></defs><title>hearing</title><path d="M10,2a9,9,0,0,0-9,9H3a7,7,0,1,1,10.5,6.13l-.5.29V20.5a3,3,0,0,1-.9,2.15,4.19,4.19,0,0,1-4.63,1A4.09,4.09,0,0,1,5,20H3a6.1,6.1,0,0,0,3.67,5.51A5.71,5.71,0,0,0,9,26a6.58,6.58,0,0,0,4.48-1.89A4.93,4.93,0,0,0,15,20.5V18.55A9,9,0,0,0,10,2Z"/><path d="M9.28,8.08A3,3,0,0,1,13,11h2a5,5,0,0,0-1.88-3.91,5.06,5.06,0,0,0-4.29-1,5,5,0,0,0-3.7,3.7,5,5,0,0,0,2.31,5.46A3.08,3.08,0,0,1,9,17.92V20h2V17.92a5.05,5.05,0,0,0-2.54-4.34,3,3,0,0,1,.82-5.5Z"/><path d="M20,22H19V20h1a1,1,0,0,0,1-1V18h2v1A3,3,0,0,1,20,22Z"/><path d="M20,26H19V24h1a5,5,0,0,0,5-5V18h2v1A7,7,0,0,1,20,26Z"/><path d="M20,30H19V28h1a9,9,0,0,0,9-9V18h2v1A11,11,0,0,1,20,30Z"/><rect id="_Transparent_Rectangle_" data-name="&lt;Transparent Rectangle&gt;" class="cls-1" width="32" height="32"/></svg>