<?xml version="1.0" encoding="UTF-8"?>
<svg id="Layer_1" data-name="Layer 1" xmlns="http://www.w3.org/2000/svg" width="32" height="32" viewBox="0 0 32 32">
  <defs>
    <style>
      .cls-1 {
        fill: none;
      }
    </style>
  </defs>
  <path id="helmet" d="M30,24H2v-2h2.041c-.0273-.332-.041-.666-.041-1,0-5.0898,3.2534-9.6387,8-11.3169v-.6831c0-1.103.897-2,2-2h4c1.1025,0,2,.897,2,2v.6831c4.7471,1.6782,8,6.2271,8,11.3169,0,.334-.0137.668-.041,1h2.041v2ZM6.0493,22h19.9009c.0332-.332.0498-.666.0498-1,0-3.999-2.4102-7.5977-6-9.168v7.168h-2v-10h-4v10h-2v-7.168c-3.5903,1.5703-6,5.1689-6,9.168,0,.334.0166.6689.0493,1Z"/>
  <rect id="Transparent_Rectangle" data-name="Transparent Rectangle" class="cls-1" width="32" height="32"/>
</svg>