<?xml version="1.0" encoding="UTF-8"?>
<svg id="Layer_1" data-name="Layer 1" xmlns="http://www.w3.org/2000/svg" width="32" height="32" viewBox="0 0 32 32">
  <defs>
    <style>
      .cls-1 {
        fill: none;
      }
    </style>
  </defs>
  <path id="history" d="M18.3115,29.8096l-.3281-1.9727c5.8037-.9648,10.0166-5.9434,10.0166-11.8369,0-6.6167-5.3828-12-12-12s-12,5.3833-12,12h-2c0-7.7197,6.2803-14,14-14s14,6.2803,14,14c0,6.876-4.916,12.6836-11.6885,13.8096ZM13.5537,29.7861c-1.6157-.2842-3.1558-.8467-4.5767-1.6719l1.0039-1.7305c1.2178.707,2.5361,1.1895,3.9194,1.4336l-.3467,1.9688ZM5.293,25.0205c-1.0537-1.25-1.873-2.6582-2.4351-4.1846l1.877-.6914c.4814,1.3086,1.1836,2.5156,2.0874,3.5869l-1.5293,1.2891ZM20.5586,21.9727l-5.5586-5.5586V7h2v8.5859l4.9727,4.9727-1.4141,1.4141Z"/>
  <rect id="Transparent_Rectangle" data-name="Transparent Rectangle" class="cls-1" width="32" height="32"/>
</svg>