<svg id="icon" xmlns="http://www.w3.org/2000/svg" width="32" height="32" viewBox="0 0 32 32">
  <defs>
    <style>
      .cls-1 {
        fill: none;
      }
    </style>
  </defs>
  <polygon points="28 19 28 11 26 11 26 21 32 21 32 19 28 19"/>
  <polygon points="24 11 22 11 20.5 15 19 11 17 11 17 21 19 21 19 14 20.5 18 22 14 22 21 24 21 24 11"/>
  <polygon points="9 13 11 13 11 21 13 21 13 13 15 13 15 11 9 11 9 13"/>
  <polygon points="5 11 5 15 2 15 2 11 0 11 0 21 2 21 2 17 5 17 5 21 7 21 7 11 5 11"/>
  <rect id="_Transparent_Rectangle_" data-name="&lt;Transparent Rectangle&gt;" class="cls-1" width="32" height="32"/>
</svg>
