<svg id="icon" xmlns="http://www.w3.org/2000/svg" width="32" height="32" viewBox="0 0 32 32">
  <defs>
    <style>
      .cls-1 {
        fill: none;
      }
    </style>
  </defs>
  <title>humidity--alt</title>
  <path d="M26,12a3.8978,3.8978,0,0,1-4-3.777,3.9017,3.9017,0,0,1,.6533-2.0639L25.17,2.4141a1.0381,1.0381,0,0,1,1.6592,0L29.3154,6.11A3.9693,3.9693,0,0,1,30,8.223,3.8978,3.8978,0,0,1,26,12Zm0-7.2368L24.3438,7.2257A1.89,1.89,0,0,0,24,8.223a2.0139,2.0139,0,0,0,4,0,1.98,1.98,0,0,0-.375-1.0466Z" transform="translate(0)"/>
  <path d="M23.5,30H8.5A6.4962,6.4962,0,0,1,7.2,17.1381a8.9938,8.9938,0,0,1,17.6006,0A6.4964,6.4964,0,0,1,23.5,30ZM16,12a7,7,0,0,0-6.9414,6.1452l-.0991.8122-.8155.064A4.4962,4.4962,0,0,0,8.5,28h15a4.4962,4.4962,0,0,0,.3564-8.9786l-.8154-.064-.0986-.8122A7.0022,7.0022,0,0,0,16,12Z" transform="translate(0)"/>
  <rect id="_Transparent_Rectangle_" data-name="&lt;Transparent Rectangle&gt;" class="cls-1" width="32" height="32"/>
</svg>
