<svg xmlns="http://www.w3.org/2000/svg" viewBox="0 0 32 32"><path d="M22.6521,4.1821l-2.177,2.5142L19.0713,8.3174,20.7864,9.605A7.9361,7.9361,0,0,1,23.9963,16l.0008.0576.0017.0415c.018.4317.2412,10.1113-14.6538,11.7222l2.18-2.5176,1.4039-1.6211L11.2139,22.395A7.9361,7.9361,0,0,1,8.0037,16l-.0008-.0576-.0017-.0415C7.9832,15.47,7.7605,5.8071,22.6521,4.1821M24.9978,2c-.0164,0-.0327,0-.0493.001C5.2532,2.9146,6.0037,16,6.0037,16a9.975,9.975,0,0,0,4.0095,7.9946L6.2368,28.3555A1.0044,1.0044,0,0,0,7.0022,30c.0164,0,.0327,0,.0493-.001C26.7468,29.0854,25.9963,16,25.9963,16a9.9756,9.9756,0,0,0-4.0092-7.9946l3.7761-4.3609A1.0044,1.0044,0,0,0,24.9978,2Z"/></svg>