<?xml version="1.0" encoding="UTF-8"?>
<svg id="icon" xmlns="http://www.w3.org/2000/svg" width="32" height="32" viewBox="0 0 32 32">
  <defs>
    <style>
      .cls-1 {
        fill: none;
      }
    </style>
  </defs>
  <path d="M6,20h8v-2H6v-6h18V4c0-1.1045-.8955-2-2-2H6c-1.1045,0-2,.8955-2,2v22c0,1.1047.8955,2,2,2h8v-2H6v-6ZM6,4h16v6H6v-6ZM8,22.9999c0-.5523.4477-1,1-1s1,.4477,1,1-.4477,1-1,1-1-.4477-1-1ZM8,15c0-.5523.4477-1,1-1s1,.4477,1,1-.4477,1-1,1-1-.4477-1-1ZM8,7c0-.5523.4477-1,1-1s1,.4477,1,1-.4477,1-1,1-1-.4477-1-1ZM30,17h-3.4131c2.0405,1.2246,3.4131,3.4521,3.4131,6,0,3.8599-3.1401,7-7,7s-7-3.1401-7-7c0-1.8696.728-3.6274,2.0503-4.9497l1.4141,1.4141c-.9443.9443-1.4644,2.2002-1.4644,3.5356,0,2.7568,2.2432,5,5,5s5-2.2432,5-5c0-2.0449-1.2373-3.8025-3-4.5762v3.5762h-2v-7h7v2ZM8,23c0-.5523.4477-1,1-1s1,.4477,1,1-.4477,1-1,1-1-.4477-1-1ZM8,15c0-.5523.4477-1,1-1s1,.4477,1,1-.4477,1-1,1-1-.4477-1-1ZM8,7c0-.5523.4477-1,1-1s1,.4477,1,1-.4477,1-1,1-1-.4477-1-1ZM30,17h-3.4131c2.0405,1.2246,3.4131,3.4521,3.4131,6,0,3.8599-3.1401,7-7,7s-7-3.1401-7-7c0-1.8696.728-3.6274,2.0503-4.9497l1.4141,1.4141c-.9443.9443-1.4644,2.2002-1.4644,3.5356,0,2.7568,2.2432,5,5,5s5-2.2432,5-5c0-2.0449-1.2373-3.8025-3-4.5762v3.5762h-2v-7h7v2Z"/>
  <rect id="_x3C_Transparent_Rectangle_x3E_" class="cls-1" width="32" height="32"/>
</svg>