<?xml version="1.0" encoding="UTF-8"?>
<svg id="icon" xmlns="http://www.w3.org/2000/svg" width="32" height="32" viewBox="0 0 32 32">
  <defs>
    <style>
      .cls-1 {
        fill: none;
      }
    </style>
  </defs>
  <path d="M22,20v7.923c0,.595-.482,1.077-1.077,1.077h-11.846c-.595,0-1.077-.482-1.077-1.077v-4.923H2v-2h6v-4.923c0-.595.482-1.077,1.077-1.077h3.923v2h-3v10h10v-7h2ZM13,8H2v2h11v-2ZM29,17c.553,0,1-.447,1-1V4c0-.552-.447-1-1-1h-12c-.553,0-1,.448-1,1v12c0,.553.447,1,1,1h12M18,5h10v10h-10V5Z"/>
  <rect id="_x3C_Transparent_Rectangle_x3E_" class="cls-1" width="32" height="32"/>
</svg>