<?xml version="1.0" encoding="UTF-8"?>
<svg id="icon" xmlns="http://www.w3.org/2000/svg" width="32" height="32" viewBox="0 0 32 32">
  <defs>
    <style>
      .cls-1 {
        fill: none;
      }
    </style>
  </defs>
  <path d="M16,30c-7.72,0-14-6.28-14-14S8.28,2,16,2s14,6.28,14,14c0,2.62-.73,5.18-2.11,7.39.05.74,1.05,3.21,2.01,5.17.19.38.11.84-.19,1.14-.3.3-.76.38-1.14.2-1.99-.96-4.5-1.94-5.24-1.97-2.2,1.35-4.73,2.07-7.33,2.07ZM16,4c-6.62,0-12,5.38-12,12s5.38,12,12,12c2.27,0,4.48-.64,6.39-1.84.32-.21,1.01-.63,4.58.84-1.5-3.54-1.07-4.22-.87-4.54,1.23-1.93,1.89-4.16,1.89-6.46,0-6.62-5.38-12-12-12h.01ZM23.83,20.87l-1.67-1.11c-.37.56-.85,1.03-1.4,1.4-2.3,1.53-5.4.9-6.93-1.4l-1.67,1.11c1.3,1.96,3.49,3.13,5.83,3.13,2.35,0,4.54-1.17,5.83-3.13h.01ZM22,13c-1.1,0-2,.9-2,2s.9,2,2,2,2-.9,2-2c.01-1.09-.87-1.99-1.96-2h-.04ZM14,13c-1.1,0-2,.9-2,2s.9,2,2,2,2-.9,2-2c.01-1.09-.87-1.99-1.96-2h-.04Z"/>
  <rect id="_Transparent_Rectangle_" data-name=" &amp;lt;Transparent Rectangle&amp;gt;" class="cls-1" width="32" height="32"/>
</svg>