<?xml version="1.0" encoding="UTF-8"?>
<svg id="icon" xmlns="http://www.w3.org/2000/svg" width="32" height="32" viewBox="0 0 32 32">
  <defs>
    <style>
      .cls-1 {
        fill: none;
      }

      .cls-1, .cls-2 {
        stroke-width: 0px;
      }
    </style>
  </defs>
  <polygon class="cls-2" points="12 18 10 18 10 6 7 6 7 18 5 18 5 4 12 4 12 18"/>
  <polygon class="cls-2" points="21 26 19 26 19 12 16 12 16 21.9946 14 21.9946 14 10 21 10 21 26"/>
  <polygon class="cls-2" points="30 26 28 26 28 18 25 18 25 26 23 26 23 16 30 16 30 26"/>
  <polygon class="cls-2" points="4 20 4 22 8.5859 22 2 28.5859 3.4141 30 10 23.4141 10 28 12 28 12 20 4 20"/>
  <rect id="_Transparent_Rectangle_" data-name="&amp;lt;Transparent Rectangle&amp;gt;" class="cls-1" width="32" height="32"/>
</svg>