<?xml version="1.0" encoding="UTF-8"?>
<svg id="icon" xmlns="http://www.w3.org/2000/svg" width="32" height="32" viewBox="0 0 32 32">
  <defs>
    <style>
      .cls-1 {
        fill: none;
      }
    </style>
  </defs>
  <path d="M28,26h-2c0-1.1885.5767-2.0088,1.0854-2.7324.4907-.6978.9146-1.3003.9146-2.2676,0-1.6543-1.3457-3-3-3s-3,1.3457-3,3c0,.9673.4238,1.5698.9146,2.2676.5088.7236,1.0854,1.5439,1.0854,2.7324h-2c0-.5298-.2607-.9268-.7217-1.582-.5693-.8101-1.2783-1.8179-1.2783-3.418,0-2.7568,2.2432-5,5-5s5,2.2432,5,5c0,1.6001-.709,2.6079-1.2783,3.418-.4609.6553-.7217,1.0522-.7217,1.582ZM28,28h-6v2h6v-2ZM4,24h14v2H4c-1.1045,0-2-.8955-2-2V4c0-1.1045.8955-2,2-2h22c1.1045,0,2,.8955,2,2v10h-2v-5H4v15ZM4,7h22v-3H4v3ZM6,13h5v-2h-5v2ZM13,13h5v-2h-5v2ZM6,17h5v-2h-5v2ZM13,17h5v-2h-5v2ZM6,21h5v-2h-5v2ZM13,21h5v-2h-5v2Z"/>
  <rect id="_Transparent_Rectangle_" data-name="&amp;lt;Transparent Rectangle&amp;gt;" class="cls-1" width="32" height="32"/>
</svg>