<?xml version="1.0" encoding="UTF-8"?>
<svg id="icon" xmlns="http://www.w3.org/2000/svg" width="32" height="32" viewBox="0 0 32 32">
  <defs>
    <style>
      .cls-1 {
        fill: none;
      }
    </style>
  </defs>
  <path d="M18,11h3v2h-3v-2ZM23,13h3v-2h-3v2ZM8.293,10.293l-2.2925,2.2928-.0005-8.5858h3v-2h-3c-1.103,0-2,.897-2,2l.0005,8.5861-2.2935-2.2931-1.4141,1.4141,4.7075,4.707,4.7065-4.707-1.4141-1.4141h.0002ZM28,23l.001,2.999h-8.5856l2.2927-2.292-1.4141-1.4141-4.707,4.7061,4.707,4.708,1.4141-1.4141-2.2933-2.2939,8.5852.001c1.1025,0,2-.8975,2-2v-3h-2ZM14,23.5c0,3.0322-2.4668,5.5-5.4995,5.5-1.1558,0-2.2281-.3602-3.1143-.9716l-2.6786,2.6786-1.4141-1.4141,2.6787-2.6787c-.6115-.8864-.9722-1.9585-.9722-3.1142,0-3.0322,2.4673-5.5,5.5-5.5s5.5005,2.4677,5.5005,5.4999h-.0005ZM12.0005,23.5c0-1.9297-1.5703-3.5-3.5-3.5s-3.5,1.5703-3.5,3.5,1.5703,3.5,3.5,3.5,3.5-1.5703,3.5-3.5ZM30,4v12c0,1.1025-.8975,2-2,2h-12c-1.103,0-2-.8975-2-2V4c0-1.103.897-2,2-2h12c1.1025,0,2,.897,2,2ZM16,4v2h12v-2h-12ZM28,16V8h-12v8l12.001.0009-.001-.0009Z"/>
  <rect id="_Transparent_Rectangle_" data-name="&amp;lt;Transparent Rectangle&amp;gt;" class="cls-1" width="32" height="32"/>
</svg>