<?xml version="1.0" encoding="UTF-8"?>
<svg id="icon" xmlns="http://www.w3.org/2000/svg" width="32" height="32" viewBox="0 0 32 32">
  <defs>
    <style>
      .cls-1 {
        fill: none;
      }
    </style>
  </defs>
  <path d="M28,21.142V10h-5v2h3v2h-3v2h3v5.142c-1.7203,.4471-3,1.9993-3,3.858,0,2.2061,1.7944,4,4,4s4-1.7939,4-4c0-1.8587-1.2797-3.4108-3-3.858Zm-1,5.858c-1.103,0-2-.8975-2-2s.897-2,2-2,2,.8975,2,2-.897,2-2,2Z"/>
  <circle cx="9" cy="24" r="1"/>
  <circle cx="9" cy="8" r="1"/>
  <path d="M26,6v2h2v-2c0-1.1046-.8954-2-2-2H6c-1.1046,0-2,.8954-2,2v4c0,1.1046,.8954,2,2,2h4v8H6c-1.1045,0-2,.8955-2,2v4c0,1.1045,.8955,2,2,2h14v-2H6v-4h14v-2H12V12h8v-2H6V6H26Z"/>
  <rect id="_Transparent_Rectangle_" data-name="&amp;lt;Transparent Rectangle&amp;gt;" class="cls-1" width="32" height="32"/>
</svg>