<?xml version="1.0" encoding="UTF-8"?>
<svg id="icon" xmlns="http://www.w3.org/2000/svg" width="32" height="32" viewBox="0 0 32 32">
  <defs>
    <style>
      .cls-1 {
        fill: none;
      }
    </style>
  </defs>
  <path d="M9,6h-2v10h2V6ZM28.5039,8.1362L16.5039,1.1362c-.1558-.0908-.3298-.1362-.5039-.1362s-.3481.0454-.5039.1362l-4,2.3333c-.3071.1792-.4961.5081-.4961.8638v8.6667h2V4.9076l3-1.7499,11,6.4166v3.4257h2v-4c0-.3557-.189-.6846-.4961-.8638ZM4.9987,22.4315v-13.4315h-1.9987v14.006c0,.3559.1889.6849.4958.8642l10.4971,6.1298,1.0072-1.7282h-.0001s-10.0013-5.8403-10.0013-5.8403ZM22,26.9999h2v-9.9999h-2v9.9999ZM27,27h2v-6h-2v6ZM17,27h2v-8h-2v8Z"/>
  <rect id="_Transparent_Rectangle_" data-name="&amp;lt;Transparent Rectangle&amp;gt;" class="cls-1" width="32" height="32"/>
</svg>