<?xml version="1.0" encoding="UTF-8"?>
<svg id="icon" xmlns="http://www.w3.org/2000/svg" width="11.2889mm" height="11.2889mm" viewBox="0 0 32 32">
  <defs>
    <style>
      .cls-1 {
        fill: none;
      }
    </style>
  </defs>
  <path d="M27,24c-1.302,0-2.4016.8389-2.8157,2h-2.5662l-1.5579-3.1157c2.3552-1.3921,3.9397-3.9502,3.9397-6.8843s-1.5845-5.4922-3.9397-6.8843l1.5576-3.1157h2.5664c.4141,1.1611,1.5137,2,2.8157,2,1.6543,0,3-1.3457,3-3s-1.3457-3-3-3c-1.302,0-2.4016.8389-2.8157,2h-2.5664c-.7622,0-1.4475.4238-1.7888,1.1055l-1.6069,3.2139c-.7063-.2041-1.4502-.3193-2.2222-.3193s-1.5159.1152-2.2222.3193l-1.6072-3.2139c-.3411-.6816-1.0264-1.1055-1.7886-1.1055h-2.5664c-.4141-1.1611-1.5137-2-2.8157-2-1.6543,0-3,1.3457-3,3s1.3457,3,3,3c1.302,0,2.4016-.8389,2.8157-2h2.5662l1.5579,3.1157c-2.3552,1.3921-3.9397,3.9502-3.9397,6.8843s1.5845,5.4922,3.9397,6.8843l-1.5576,3.1157h-2.5664c-.4141-1.1611-1.5137-2-2.8157-2-1.6543,0-3,1.3457-3,3s1.3457,3,3,3c1.302,0,2.4016-.8389,2.8157-2h2.5664c.7622,0,1.4475-.4238,1.7888-1.1055l1.6069-3.2139c.7063.2041,1.4502.3193,2.2222.3193s1.5159-.1152,2.2222-.3193l1.6072,3.2139c.3411.6816,1.0264,1.1055,1.7886,1.1055h2.5664c.4141,1.1611,1.5137,2,2.8157,2,1.6543,0,3-1.3457,3-3s-1.3457-3-3-3ZM27,4c.5515,0,1,.4487,1,1s-.4485,1-1,1-1-.4487-1-1,.4485-1,1-1ZM5,6c-.5515,0-1-.4487-1-1s.4485-1,1-1,1,.4487,1,1-.4485,1-1,1ZM5,28c-.5515,0-1-.4487-1-1s.4485-1,1-1,1,.4487,1,1-.4485,1-1,1ZM10.2856,16c0-3.1509,2.5635-5.7144,5.7144-5.7144s5.7144,2.5635,5.7144,5.7144-2.5635,5.7144-5.7144,5.7144-5.7144-2.5635-5.7144-5.7144ZM27,28c-.5515,0-1-.4487-1-1s.4485-1,1-1,1,.4487,1,1-.4485,1-1,1ZM18.5901,12.5566l1.4099,1.4434-5,5-3-3,1.4441-1.4438,1.5605,1.6221,3.5854-3.6216Z"/>
  <rect id="_x3C_Transparent_Rectangle_x3E_" class="cls-1" width="32" height="32"/>
</svg>