<?xml version="1.0" encoding="utf-8"?>
<!-- Generator: Adobe Illustrator 26.3.1, SVG Export Plug-In . SVG Version: 6.00 Build 0)  -->
<svg version="1.1" id="icon" xmlns="http://www.w3.org/2000/svg" xmlns:xlink="http://www.w3.org/1999/xlink" x="0px" y="0px"
	 width="32px" height="32px" viewBox="0 0 32 32" style="enable-background:new 0 0 32 32;" xml:space="preserve">
<style type="text/css">
	.st0{fill:none;}
</style>
<path d="M28,2H18c-1.1,0-2,0.9-2,2v6c0,1.1,0.9,2,2,2h2.4l1.7,3l1.7-1l-2.3-4H18V4h10v6h-3v2h3c1.1,0,2-0.9,2-2V4
	C30,2.9,29.1,2,28,2z"/>
<path d="M14.7,31L13,30l3.5-6H22c1.1,0,2-0.9,2-2v-5h2v5c0,2.2-1.8,4-4,4h-4.4L14.7,31z"/>
<circle cx="10" cy="17" r="1"/>
<circle cx="14" cy="17" r="1"/>
<circle cx="18" cy="17" r="1"/>
<path d="M12,26H6c-2.2,0-4-1.8-4-4V12c0-2.2,1.8-4,4-4h8v2H6c-1.1,0-2,0.9-2,2v10c0,1.1,0.9,2,2,2h6V26z"/>
<rect id="_x3C_Transparent_Rectangle_x3E__232_" y="0" class="st0" width="32" height="32"/>
</svg>
