<svg id="icon" xmlns="http://www.w3.org/2000/svg" width="32" height="32" viewBox="0 0 32 32"><defs><style>.cls-1{fill:none;}</style></defs><title>ibm-cloud</title><path d="M24.5805,13.65A9.7327,9.7327,0,0,0,6.286,17.5387,6.75,6.75,0,0,0,7,31H23a8.7465,8.7465,0,0,0,1.5805-17.35ZM23,29.5H7a5.2373,5.2373,0,0,1-.6993-10.4293,9.7265,9.7265,0,0,0,1.1036,3.7838.75.75,0,1,0,1.3213-.709A8.25,8.25,0,0,1,22.752,13.5133a8.754,8.754,0,0,0-6.315,2.95.75.75,0,1,0,1.1245.9922A7.25,7.25,0,1,1,23,29.5Z" transform="translate(0)"/><path d="M31.8983,10.2548a.7582.7582,0,0,0-1.0364-.2776l-3.02,1.7438A.7587.7587,0,1,0,28.6,13.035l3.02-1.7438A.7589.7589,0,0,0,31.8983,10.2548Z" transform="translate(0)"/><path d="M22.6764,7.87a.7583.7583,0,0,0,1.0364-.2776l1.7438-3.02a.7587.7587,0,0,0-1.314-.7588l-1.7438,3.02A.7588.7588,0,0,0,22.6764,7.87Z" transform="translate(0)"/><path d="M16,6.0811a.759.759,0,0,0,.7588-.7588V1.8347a.7588.7588,0,1,0-1.5175,0V5.3223A.7589.7589,0,0,0,16,6.0811Z" transform="translate(0)"/><path d="M8.2873,7.5922a.7587.7587,0,0,0,1.314-.7588l-1.7438-3.02a.7587.7587,0,1,0-1.314.7588Z" transform="translate(0)"/><path d="M4.1585,11.721l-3.02-1.7438a.7587.7587,0,1,0-.7588,1.314L3.4,13.035a.7587.7587,0,1,0,.7588-1.314Z" transform="translate(0)"/><rect id="_Transparent_Rectangle_" data-name="&lt;Transparent Rectangle&gt;" class="cls-1" width="32" height="32"/></svg>