<?xml version="1.0" encoding="UTF-8"?>
<svg id="icon" xmlns="http://www.w3.org/2000/svg" width="32" height="32" viewBox="0 0 32 32">
  <defs>
    <style>
      .cls-1 {
        fill: none;
      }
    </style>
  </defs>
  <path d="M22,12c-1.1393,0-2.1624.484-2.8915,1.2505l-3.1586-1.7552c.0272-.162.05-.3257.05-.4954,0-1.6543-1.3457-3-3-3s-3,1.3457-3,3c0,1.0923.5928,2.0405,1.4676,2.5651l-.8963,4.4782c-1.4501.2102-2.5713,1.4492-2.5713,2.9567,0,1.6543,1.3457,3,3,3s3-1.3457,3-3c0-.0867-.0183-.1684-.0256-.2533l4.9317-2.2424c.7339.9048,1.8404,1.4957,3.0939,1.4957,2.2061,0,4-1.7939,4-4s-1.7939-4-4-4ZM12.9989,10.0002c.552,0,1.0004.4482,1.0004,1s-.4484,1-1.0004,1-1.0004-.4482-1.0004-1,.4484-1,1.0004-1ZM10.9982,22.0001c-.552,0-1.0004-.4482-1.0004-1s.4484-1,1.0004-1c.4135,0,.7687.2517.9209.6099l.0009.002c.0504.1194.0785.2505.0785.3881,0,.5518-.4484,1-1.0004,1ZM13.1545,18.9224c-.1838-.1906-.395-.3505-.6233-.4874l.8966-4.4782c.5893-.0854,1.1195-.3394,1.5463-.7159l3.1684,1.7599c-.0835.3213-.1418.6522-.1418.9993,0,.2355.0303.4633.0695.6877l-4.9158,2.2345ZM22.0022,18.0002c-1.1029,0-2.0007-.8975-2.0007-2s.8978-2,2.0007-2,2.0007.8975,2.0007,2-.8978,2-2.0007,2ZM27.0908,11.4079c.6175,1.4903.9125,3.0496.9092,4.5921-.0033,1.5629-.3128,3.1085-.9009,4.5475l1.7934.8965c.7238-1.7181,1.1039-3.5704,1.1075-5.444.0035-1.7996-.3405-3.6188-1.061-5.3572-2.2286-5.3799-7.4473-8.6357-12.939-8.6428-1.7888-.0023-3.6066.3401-5.3595,1.0661l.7655,1.8474c1.5025-.6221,3.0607-.9156,4.594-.9135,4.7072.0063,9.1801,2.7969,11.0908,7.4079ZM20.594,27.0868c-1.5026.6222-3.0607.9152-4.594.9132-4.7075-.0062-9.1802-2.797-11.0908-7.4076-.6175-1.4904-.9125-3.0498-.9092-4.5924.0033-1.5627.3128-3.1082.9009-4.5472l-1.7934-.8965c-.7237,1.718-1.1039,3.5702-1.1075,5.4437-.0035,1.7997.3404,3.619,1.061,5.3576,1.4775,3.5657,4.2683,6.1985,7.582,7.5705,1.6852.6977,3.5055,1.0695,5.357,1.0719,1.7887.0024,3.6064-.3399,5.3594-1.0658l-.7654-1.8474ZM25,23c-1.12,0-2,.88-2,2s.88,2,2,2,2-.88,2-2-.88-2-2-2ZM7,5c-1.12,0-2,.88-2,2s.88,2,2,2,2-.88,2-2-.88-2-2-2Z"/>
  <rect id="_x3C_Transparent_Rectangle_x3E_" class="cls-1" width="32" height="32"/>
</svg>