<?xml version="1.0" encoding="UTF-8"?>
<svg id="icon" xmlns="http://www.w3.org/2000/svg" width="32" height="32" viewBox="0 0 32 32">
  <defs>
    <style>
      .cls-1 {
        fill: none;
      }
    </style>
  </defs>
  <path d="M12,28H4c-1.1046,0-2-.8954-2-2V6c0-1.1046.8954-2,2-2l7.17-.0057c.533-.0004,1.0442.212,1.42.59l3.41,3.4157,12-.0057c1.1046,0,2,.8954,2,2v4.0057h-2v-4l-12.83-.0057-.58-.59-3.42-3.41-7.17.0057v20h8v2ZM16,17l-2.0072-.0057.0072,11.0057h2v-11ZM29.9954,18.9926l-.0039,9.7657c0,.6838-.5676,1.2417-1.2654,1.2417h-9.4679c-.6978,0-1.2654-.5579-1.2654-1.2426v-12.5195c0-.6857.5676-1.2436,1.2654-1.2436l6.7418.0057,4,4-.0046-.0074ZM27.9899,28.0004l.0101-8.0004h-3v-3h-5v11h8l-.0101.0004Z"/>
  <rect id="_Transparent_Rectangle_" data-name="&amp;lt;Transparent Rectangle&amp;gt;" class="cls-1" width="32" height="32"/>
</svg>