<?xml version="1.0" encoding="UTF-8"?>
<svg id="icon" xmlns="http://www.w3.org/2000/svg" width="32" height="32" viewBox="0 0 32 32">
  <defs>
    <style>
      .cls-1 {
        fill: none;
      }

      .cls-1, .cls-2 {
        stroke-width: 0px;
      }
    </style>
  </defs>
  <path class="cls-2" d="m13,27h-3c-3.8599,0-7-3.1401-7-7v-2h2v2c0,2.7568,2.2432,5,5,5h3v2Z"/>
  <path class="cls-2" d="m25,27h-4c-1.1025,0-2-.8975-2-2v-4c0-1.1025.8975-2,2-2h4c1.1025,0,2,.8975,2,2v4c0,1.1025-.8975,2-2,2Zm-4-6h-.002l.002,4h4v-4h-4Z"/>
  <rect class="cls-2" x="25" y="15" width="2" height="2"/>
  <rect class="cls-2" x="29" y="19" width="2" height="2"/>
  <rect class="cls-2" x="29" y="23" width="2" height="2"/>
  <rect class="cls-2" x="15" y="21" width="2" height="2"/>
  <rect class="cls-2" x="15" y="25" width="2" height="2"/>
  <rect class="cls-2" x="15" y="29" width="2" height="2"/>
  <rect class="cls-2" x="19" y="29" width="2" height="2"/>
  <path class="cls-2" d="m27,13v-2c0-3.8599-3.1401-7-7-7h-7v2h7c2.7568,0,5,2.2432,5,5v2h2Z"/>
  <path class="cls-2" d="m10,8V4c0-1.1046-.8954-2-2-2H2v13h2v-5h1.48l2.34,5h2.18l-2.33-5h.33c1.1046,0,2-.8954,2-2ZM4,4h4v4h-4V4Z"/>
  <rect id="_Transparent_Rectangle_" data-name="&amp;lt;Transparent Rectangle&amp;gt;" class="cls-1" width="32" height="32"/>
</svg>