<?xml version="1.0" encoding="UTF-8"?>
<svg id="icon" xmlns="http://www.w3.org/2000/svg" width="32" height="32" viewBox="0 0 32 32">
  <defs>
    <style>
      .cls-1 {
        fill: none;
      }
    </style>
  </defs>
  <path d="M25,21c-.7396,0-1.4241,.2155-2.0191,.5669l-2.0314-2.0314-1.4141,1.4141,2.0314,2.0314c-.3514,.595-.5668,1.2795-.5668,2.019,0,2.2056,1.7944,4,4,4,.3557,0,.6943-.0615,1.0228-.1492l-2.4368-2.4368,.0004-.0005c-.3621-.3621-.5864-.8621-.5864-1.4136,0-1.103,.897-2,2-2,.5515,0,1.0515,.2242,1.4136,.5864l.0004-.0005,2.4368,2.4368c.0875-.3284,.1491-.667,.1491-1.0227,0-2.2056-1.7944-4-4-4Z"/>
  <path d="M20.9495,12.4644l3.7645-3.7645c.3911,.1868,.8237,.3,1.2861,.3,1.6569,0,3-1.3431,3-3s-1.3431-3-3-3-3,1.3431-3,3c0,.4622,.1132,.8948,.2999,1.2859l-3.7645,3.7645,1.4141,1.4141Zm5.0505-7.4644c.5514,0,1,.4486,1,1s-.4486,1-1,1-1-.4486-1-1,.4486-1,1-1Z"/>
  <path d="M16,12c-2.2092,0-4,1.7908-4,4,0,.7405,.215,1.4254,.5657,2.0201l-5.2795,5.2799c-.3911-.1868-.8238-.3-1.2861-.3-1.6569,0-3,1.3431-3,3s1.3431,3,3,3,3-1.3431,3-3c0-.4622-.1132-.8948-.2999-1.2858l5.2799-5.2799c.5948,.3507,1.2795,.5657,2.02,.5657,2.2091,0,4-1.7909,4-4s-1.7909-4-4-4ZM6,27c-.5514,0-1-.4486-1-1s.4486-1,1-1,1,.4486,1,1-.4486,1-1,1Zm10-9c-1.1028,0-2-.8972-2-2s.8972-2,2-2,2,.8972,2,2-.8972,2-2,2Z"/>
  <path d="M7,11c.7396,0,1.4241-.2155,2.0191-.5669l2.0311,2.0311,1.4141-1.4141-2.0311-2.0311c.3514-.595,.5668-1.2795,.5668-2.019,0-2.2056-1.7944-4-4-4-.3557,0-.6943,.0615-1.0228,.1492l2.4368,2.4368-.0004,.0005c.3621,.3621,.5864,.8621,.5864,1.4136,0,1.103-.897,2-2,2-.5515,0-1.0515-.2242-1.4136-.5864l-.0004,.0005-2.4368-2.4368c-.0875,.3284-.1491,.667-.1491,1.0227,0,2.2056,1.7944,4,4,4Z"/>
  <rect id="_Transparent_Rectangle_" data-name="&amp;lt;Transparent Rectangle&amp;gt;" class="cls-1" width="32" height="32"/>
</svg>