<?xml version="1.0" encoding="UTF-8"?>
<svg id="icon" xmlns="http://www.w3.org/2000/svg" width="32" height="32" viewBox="0 0 32 32">
  <defs>
    <style>
      .cls-1 {
        fill: none;
      }
    </style>
  </defs>
  <circle cx="23" cy="26" r="1"/>
  <circle cx="9" cy="6" r="1"/>
  <path d="M12,17h8c2.2056,0,4-1.7944,4-4v-3h2c1.1028,0,2-.8975,2-2V4c0-1.1025-.8972-2-2-2H6c-1.1028,0-2,.8975-2,2v4c0,1.1025,.8972,2,2,2H22v3c0,1.1025-.8972,2-2,2H12c-2.2056,0-4,1.7944-4,4v3h-2c-1.1028,0-2,.8975-2,2v4c0,1.1025,.8972,2,2,2H26c1.1028,0,2-.8975,2-2v-4c0-1.1025-.8972-2-2-2H10v-3c0-1.1025,.8972-2,2-2ZM6,4H26v4H6V4ZM26,28H6v-4H26v4Z"/>
  <rect id="_Transparent_Rectangle_" data-name="&amp;lt;Transparent Rectangle&amp;gt;" class="cls-1" width="32" height="32"/>
</svg>