<?xml version="1.0" encoding="UTF-8"?>
<svg id="icon" xmlns="http://www.w3.org/2000/svg" width="32" height="32" viewBox="0 0 32 32">
  <defs>
    <style>
      .cls-1 {
        fill: none;
      }
    </style>
  </defs>
  <path d="m23.4141,22l-13.4141-13.4141V2H2v8h6.5859l13.4141,13.4141v6.5859h8v-8h-6.5859ZM8,8h-4V4h4v4Zm20,20h-4v-4h4v4Z"/>
  <path d="m30,6c0-2.2056-1.7944-4-4-4-1.8584,0-3.4106,1.2798-3.8579,3h-9.1421v2h9.1421c.3638,1.3989,1.4592,2.4941,2.8579,2.8579v9.1421h2v-9.1421c1.7202-.4473,3-1.9995,3-3.8579Zm-4,2c-1.103,0-2-.8975-2-2s.897-2,2-2,2,.8975,2,2-.897,2-2,2Z"/>
  <path d="m19,25h-9.1421c-.3638-1.3989-1.4592-2.4941-2.8579-2.8579v-9.1421h-2v9.1421c-1.7202.4473-3,1.9995-3,3.8579,0,2.2056,1.7944,4,4,4,1.8584,0,3.4106-1.2798,3.8579-3h9.1421v-2Zm-13,3c-1.103,0-2-.8975-2-2s.897-2,2-2,2,.8975,2,2-.897,2-2,2Z"/>
  <rect id="_Transparent_Rectangle_" data-name="&amp;lt;Transparent Rectangle&amp;gt;" class="cls-1" width="32" height="32"/>
</svg>