<?xml version="1.0" encoding="utf-8"?>
<!-- Generator: Adobe Illustrator 26.3.1, SVG Export Plug-In . SVG Version: 6.00 Build 0)  -->
<svg version="1.1" id="icon" xmlns="http://www.w3.org/2000/svg" xmlns:xlink="http://www.w3.org/1999/xlink" x="0px" y="0px"
	 viewBox="0 0 32 32" style="enable-background:new 0 0 32 32;" xml:space="preserve">
<style type="text/css">
	.st0{fill:none;}
</style>
<path d="M27,29H13c-1.1,0-2-0.9-2-2v-4h2v4h14V13h-4v-2h4c1.1,0,2,0.9,2,2v14C29,28.1,28.1,29,27,29z"/>
<rect x="11" y="19" width="10" height="2"/>
<rect x="11" y="15" width="10" height="2"/>
<rect x="11" y="11" width="10" height="2"/>
<path d="M5,3h14c1.1,0,2,0.9,2,2v4h-2V5H5v14h4v2H5c-1.1,0-2-0.9-2-2V5C3,3.9,3.9,3,5,3z"/>
<rect id="_x3C_Transparent_Rectangle_x3E__589_" class="st0" width="32" height="32"/>
</svg>
