<?xml version="1.0" encoding="UTF-8"?>
<svg id="icon" xmlns="http://www.w3.org/2000/svg" width="32" height="32" viewBox="0 0 32 32">
  <defs>
    <style>
      .cls-1 {
        fill: none;
      }
    </style>
  </defs>
  <path d="M24,25h-3v-3h3v3ZM29,22h-3v3h3v-3ZM24,27h-3v3h3v-3ZM29,27h-3v3h3v-3ZM20,8h-8v2h8v-2ZM17,28H6v-4h2v-2h-2v-5h2v-2h-2v-5h2v-2h-2v-4h18v15h2V4c0-1.1-.9-2-2-2H6c-1.1,0-2,.9-2,2v4h-2v2h2v5h-2v2h2v5h-2v2h2v4c0,1.1.9,2,2,2h11v-2ZM20,15h-8v2h8v-2Z"/>
  <rect id="_x3C_Transparent_Rectangle_x3E_" class="cls-1" width="32" height="32"/>
</svg>