<?xml version="1.0" encoding="UTF-8"?>
<svg id="icon" xmlns="http://www.w3.org/2000/svg" width="32" height="32" viewBox="0 0 32 32">
  <defs>
    <style>
      .cls-1 {
        fill: none;
      }
    </style>
  </defs>
  <path d="m12.5,7.5l-1.4-1.4,3.5-3.5c.8-.8,2.1-.8,2.8,0l3.5,3.5-1.4,1.4-3.5-3.5-3.5,3.5Z"/>
  <path d="m19.5,24.5l1.4,1.4-3.5,3.5c-.8.8-2.1.8-2.8,0l-3.5-3.5,1.4-1.4,3.5,3.5,3.5-3.5Z"/>
  <path d="m24.5,12.5l1.4-1.4,3.5,3.5c.8.8.8,2.1,0,2.8l-3.5,3.5-1.4-1.4,3.5-3.5-3.5-3.5Z"/>
  <path d="m7.5,19.5l-1.4,1.4-3.5-3.5c-.8-.8-.8-2.1,0-2.8l3.5-3.5,1.4,1.4-3.5,3.5,3.5,3.5Z"/>
  <path d="m26,24c-.2,0-.3,0-.5.1l-6.1-6.1c.8-1.2.8-2.8,0-4l6.1-6.1c.2.1.3.1.5.1,1.1,0,2-.9,2-2s-.9-2-2-2-2,.9-2,2c0,.2,0,.3.1.5l-6.1,6.1c-1.2-.8-2.8-.8-4,0l-6.1-6.1c.1-.2.1-.3.1-.5,0-1.1-.9-2-2-2s-2,.9-2,2,.9,2,2,2c.2,0,.3,0,.5-.1l6.1,6.1c-.8,1.2-.8,2.8,0,4l-6.1,6.1c-.2-.1-.3-.1-.5-.1-1.1,0-2,.9-2,2s.9,2,2,2,2-.9,2-2c0-.2,0-.3-.1-.5l6.1-6.1c1.2.8,2.8.8,4,0l6.1,6.1c0,.2-.1.3-.1.5,0,1.1.9,2,2,2s2-.9,2-2-.9-2-2-2Zm-10-6c-1.1,0-2-.9-2-2s.9-2,2-2,2,.9,2,2-.9,2-2,2Z"/>
  <rect id="_Transparent_Rectangle_" data-name="&amp;lt;Transparent Rectangle&amp;gt;" class="cls-1" width="32" height="32"/>
</svg>