<?xml version="1.0" encoding="utf-8"?>
<!-- Generator: Adobe Illustrator 26.3.1, SVG Export Plug-In . SVG Version: 6.00 Build 0)  -->
<svg version="1.1" id="icon" xmlns="http://www.w3.org/2000/svg" xmlns:xlink="http://www.w3.org/1999/xlink" x="0px" y="0px"
	 width="32px" height="32px" viewBox="0 0 32 32" style="enable-background:new 0 0 32 32;" xml:space="preserve">
<style type="text/css">
	.st0{fill:none;}
</style>
<polygon points="19,10 19,19.2 13.5,10 11,10 11,22 13,22 13,12.8 18.5,22 21,22 21,10 "/>
<path d="M16,30C8.3,30,2,23.7,2,16S8.3,2,16,2s14,6.3,14,14S23.7,30,16,30z M16,4C9.4,4,4,9.4,4,16s5.4,12,12,12s12-5.4,12-12
	S22.6,4,16,4z"/>
<rect id="_x3C_Transparent_Rectangle_x3E__232_" y="0" class="st0" width="32" height="32"/>
</svg>
