<?xml version="1.0" encoding="UTF-8"?>
<svg id="icon" xmlns="http://www.w3.org/2000/svg" width="32" height="32" viewBox="0 0 32 32">
  <defs>
    <style>
      .cls-1 {
        fill: none;
      }
    </style>
  </defs>
  <path d="M27,26h-2c0-1.1885.5767-2.0088,1.0854-2.7324.4907-.6978.9146-1.3003.9146-2.2676,0-1.6543-1.3457-3-3-3s-3,1.3457-3,3c0,.9673.4238,1.5698.9146,2.2676.5088.7236,1.0854,1.5439,1.0854,2.7324h-2c0-.5298-.2607-.9268-.7217-1.582-.5693-.8101-1.2783-1.8179-1.2783-3.418,0-2.7568,2.2432-5,5-5s5,2.2432,5,5c0,1.6001-.709,2.6079-1.2783,3.418-.4609.6553-.7217,1.0522-.7217,1.582ZM27,28h-6v2h6v-2ZM27.7236,13h-11.4468l5.7231-10.0156,5.7236,10.0156h0ZM19.7236,11h4.5527l-2.2764-3.9844-2.2764,3.9844h0ZM9,14c-2.7571,0-5-2.2429-5-5s2.2429-5,5-5,5,2.2429,5,5-2.2429,5-5,5ZM9,6c-1.6543,0-3,1.3457-3,3s1.3457,3,3,3,3-1.3457,3-3-1.3457-3-3-3ZM16,27.0007H6v-10.0007h10v10.0007ZM8,25.0007h6v-6.0007h-6v6.0007Z"/>
  <rect id="_Transparent_Rectangle_" data-name="&amp;lt;Transparent Rectangle&amp;gt;" class="cls-1" width="32" height="32"/>
</svg>