<?xml version="1.0" encoding="UTF-8"?>
<svg id="icon" xmlns="http://www.w3.org/2000/svg" width="32" height="32" viewBox="0 0 32 32">
  <defs>
    <style>
      .cls-1 {
        fill: none;
      }
    </style>
  </defs>
  <path d="M22,22l-5-4.96,1.59-1.57,3.41,3.38,7.41-7.35,1.59,1.58s-9,8.92-9,8.92ZM24,2H6c-1.1,0-2,.9-2,2v14.3c0,3.9,2.1,7.5,5.5,9.5l5.5,3.2,5.4-3.2c.92-.52,1.74-1.19,2.46-1.94l-1.36-1.36c-.59.61-1.26,1.14-2,1.6l-4.5,2.7-4.5-2.7c-2.8-1.6-4.5-4.6-4.5-7.8V4h18v5h2v-5c0-1.1-.9-2-2-2Z"/>
  <rect id="_x3C_Transparent_Rectangle_x3E_" class="cls-1" width="32" height="32"/>
</svg>