<?xml version="1.0" encoding="UTF-8"?>
<svg id="icon" xmlns="http://www.w3.org/2000/svg" width="32" height="32" viewBox="0 0 32 32">
  <defs>
    <style>
      .cls-1 {
        fill: none;
      }

      .cls-1, .cls-2 {
        stroke-width: 0px;
      }
    </style>
  </defs>
  <path class="cls-2" d="m20,16c-.0925,0-.1792.021-.27.0273l-.8916-2.6743c.7017-.5493,1.1616-1.3945,1.1616-2.353,0-1.6543-1.3457-3-3-3s-3,1.3457-3,3c0,.3804.0784.7412.208,1.0762l-2.7224,2.333c-.4399-.2529-.9426-.4092-1.4856-.4092-1.6543,0-3,1.3457-3,3s1.3457,3,3,3c.9915,0,1.865-.4893,2.4116-1.2324l3.6038,1.0811c-.002.0513-.0154.0996-.0154.1514,0,2.2056,1.7944,4,4,4s4-1.7944,4-4-1.7944-4-4-4Zm-3-6c.5513,0,1,.4487,1,1s-.4487,1-1,1-1-.4487-1-1,.4487-1,1-1Zm-7,8c-.5513,0-1-.4487-1-1s.4487-1,1-1,1,.4487,1,1-.4487,1-1,1Zm2.9849-1.1484c-.0161-.3257-.0806-.6372-.1929-.9277l2.7224-2.333c.4243.2441.908.3936,1.4294.4033l.885,2.6553c-.5046.3281-.9229.7695-1.2363,1.2842l-3.6077-1.082Zm7.0151,5.1484c-1.103,0-2-.8975-2-2s.897-2,2-2,2,.8975,2,2-.897,2-2,2Z"/>
  <path class="cls-2" d="m27.4961,9.8638l-11.4961-6.7061-8.4961,4.9561-1.0078-1.7275L15.4961,1.1362c.1558-.0908.3298-.1362.5039-.1362s.3481.0454.5039.1362l12,7-1.0078,1.7275Z"/>
  <path class="cls-2" d="m16.5039,30.8638l-1.0078-1.7275,11.5039-6.7106v-10.4257h2v11c0,.3557-.189.6846-.4961.8638l-12,7Z"/>
  <path class="cls-2" d="m12.4961,29.1138l-9-5.25c-.3071-.1792-.4961-.5081-.4961-.8638v-14h2v13.4257l8.5039,4.9606-1.0078,1.7275Z"/>
  <rect id="_Transparent_Rectangle_" data-name="&amp;lt;Transparent Rectangle&amp;gt;" class="cls-1" width="32" height="32"/>
</svg>