<svg id="icon" xmlns="http://www.w3.org/2000/svg" width="32" height="32" viewBox="0 0 32 32">
  <defs>
    <style>
      .cls-1 {
        fill: none;
      }
    </style>
  </defs>
  <polygon points="19 14 19 21 20 23 21 21 21 14 19 14"/>
  <path d="M17,14H13a2,2,0,0,0-2,2v4l1,2,1-2V16h2v7l1,2,1-2Z"/>
  <path d="M4,18A12,12,0,1,0,16,6H12V1L6,7l6,6V8h4A10,10,0,1,1,6,18Z"/>
  <rect id="_Transparent_Rectangle_" data-name="&lt;Transparent Rectangle&gt;" class="cls-1" width="32" height="32"/>
</svg>
