<svg id="icon" xmlns="http://www.w3.org/2000/svg" viewBox="0 0 32 32"><defs><style>.cls-1{fill:none;}</style></defs><title>medical-image</title><path d="M26,6V26H6V6H26m0-2H6A2,2,0,0,0,4,6V26a2,2,0,0,0,2,2H26a2,2,0,0,0,2-2V6a2,2,0,0,0-2-2Z"/><polygon points="22 16 22 14 17 14 17 12 20 12 20 10 17 10 17 8 15 8 15 10 12 10 12 12 15 12 15 14 10 14 10 16 15 16 15 18 10 18 10 20 15 20 15 22 12 22 12 24 20 24 20 22 17 22 17 20 22 20 22 18 17 18 17 16 22 16"/><rect id="_Transparent_Rectangle_" data-name="&lt;Transparent Rectangle&gt;" class="cls-1" width="32" height="32"/></svg>