<svg id="icon" xmlns="http://www.w3.org/2000/svg" viewBox="0 0 32 32"><defs><style>.cls-1{fill:none;}</style></defs><title>image</title><path d="M19,14a3,3,0,1,0-3-3A3,3,0,0,0,19,14Zm0-4a1,1,0,1,1-1,1A1,1,0,0,1,19,10Z"/><path d="M26,4H6A2,2,0,0,0,4,6V26a2,2,0,0,0,2,2H26a2,2,0,0,0,2-2V6A2,2,0,0,0,26,4Zm0,22H6V20l5-5,5.59,5.59a2,2,0,0,0,2.82,0L21,19l5,5Zm0-4.83-3.59-3.59a2,2,0,0,0-2.82,0L18,19.17l-5.59-5.59a2,2,0,0,0-2.82,0L6,17.17V6H26Z"/><rect id="_Transparent_Rectangle_" data-name="&lt;Transparent Rectangle&gt;" class="cls-1" width="32" height="32"/></svg>