<svg id="icon" xmlns="http://www.w3.org/2000/svg" width="32" height="32" viewBox="0 0 32 32"><defs><style>.cls-1{fill:none;}</style></defs><title>improve-relevance</title><polygon points="22 26.59 19.41 24 18 25.41 22 29.41 30 21.41 28.59 20 22 26.59"/><circle cx="16" cy="16" r="2"/><path d="M16,22a6,6,0,1,1,6-6A6.0066,6.0066,0,0,1,16,22Zm0-10a4,4,0,1,0,4,4A4.0045,4.0045,0,0,0,16,12Z"/><path d="M28,16A12,12,0,1,0,16,28V26A10,10,0,1,1,26,16Z"/><rect id="_Transparent_Rectangle_" data-name="&lt;Transparent Rectangle&gt;" class="cls-1" width="32" height="32"/></svg>