<svg id="icon" xmlns="http://www.w3.org/2000/svg" width="32" height="32" viewBox="0 0 32 32">
  <defs>
    <style>
      .cls-1 {
        fill: none;
      }
    </style>
  </defs>
  <path id="inner-path" class="cls-1" d="M16,8a1.5,1.5,0,1,1-1.5,1.5A1.5,1.5,0,0,1,16,8Zm4,13.875H17.125v-8H13v2.25h1.875v5.75H12v2.25h8Z"/>
  <path d="M26,4H6A2,2,0,0,0,4,6V26a2,2,0,0,0,2,2H26a2,2,0,0,0,2-2V6A2,2,0,0,0,26,4ZM16,8a1.5,1.5,0,1,1-1.5,1.5A1.5,1.5,0,0,1,16,8Zm4,16.125H12v-2.25h2.875v-5.75H13v-2.25h4.125v8H20Z"/>
  <rect id="_Transparent_Rectangle_" data-name="&lt;Transparent Rectangle&gt;" class="cls-1" width="32" height="32"/>
</svg>
