<svg id="icon" xmlns="http://www.w3.org/2000/svg" width="32" height="32" viewBox="0 0 32 32">
  <defs>
    <style>
      .cls-1 {
        fill: none;
      }
    </style>
  </defs>
  <title>insert--page</title>
  <path d="M26,30H24V20H12V30H10V20a2.0021,2.0021,0,0,1,2-2H24a2.0021,2.0021,0,0,1,2,2Z"/>
  <polygon points="5.17 16 2 19.17 3.411 20.589 8 16 3.42 11.42 2 12.83 5.17 16"/>
  <path d="M24,14H12a2.0021,2.0021,0,0,1-2-2V2h2V12H24V2h2V12A2.0021,2.0021,0,0,1,24,14Z"/>
  <rect id="_Transparent_Rectangle_" data-name="&lt;Transparent Rectangle&gt;" class="cls-1" width="32" height="32"/>
</svg>
