<?xml version="1.0" encoding="UTF-8"?>
<svg id="icon" xmlns="http://www.w3.org/2000/svg" width="32" height="32" viewBox="0 0 32 32">
  <defs>
    <style>
      .cls-1 {
        fill: none;
      }
    </style>
  </defs>
  <path d="M26,19h-3c-2.2056,0-4,1.7944-4,4h-2v-14c0-1.1025-.8972-2-2-2h-2v-1c0-2.2056-1.7944-4-4-4h-3c-2.2056,0-4,1.7944-4,4v3c0,2.2056,1.7944,4,4,4h3c2.2056,0,4-1.7944,4-4h2v14c0,1.1025.8972,2,2,2h2v1c0,2.2056,1.7944,4,4,4h3c2.2056,0,4-1.7944,4-4v-3c0-2.2056-1.7944-4-4-4ZM11,9c0,1.1025-.8972,2-2,2h-3c-1.1028,0-2-.8975-2-2v-3c0-1.1025.8972-2,2-2h3c1.1028,0,2,.8975,2,2v3ZM28,26c0,1.1025-.8972,2-2,2h-3c-1.1028,0-2-.8975-2-2v-3c0-1.1025.8972-2,2-2h3c1.1028,0,2,.8975,2,2v3Z"/>
  <rect id="_Transparent_Rectangle_" data-name="&amp;lt;Transparent Rectangle&amp;gt;" class="cls-1" width="32" height="32"/>
</svg>