<?xml version="1.0" encoding="UTF-8"?>
<svg id="icon" xmlns="http://www.w3.org/2000/svg" width="32" height="32" viewBox="0 0 32 32">
  <defs>
    <style>
      .cls-1 {
        fill: none;
      }
    </style>
  </defs>
  <path d="M28,30H4c-1.1,0-2-.9-2-2V4c0-1.1.9-2,2-2h24c1.1,0,2,.9,2,2v24c0,1.1-.9,2-2,2ZM4,28h24V4H4v24ZM9,22v-1.8232h1.582v-8.3545h-1.582v-1.8223h5.4512v1.8223h-1.5991v8.3545h1.5991v1.8232h-5.4512ZM16.3301,22v-9h2.2012v1.5195h.0859c.3613-.9629,1.1182-1.7021,2.5107-1.7021,1.8403,0,2.8721,1.2725,2.8721,3.5078v5.6748h-2.2012v-5.4512c0-1.2725-.4302-1.9258-1.479-1.9258-.9116,0-1.7886.4814-1.7886,1.4443v5.9326h-2.2012Z"/>
  <rect id="_Transparent_Rectangle_" data-name="&amp;lt;Transparent Rectangle&amp;gt;" class="cls-1" width="32" height="32"/>
</svg>