<?xml version="1.0" encoding="UTF-8"?>
<svg id="icon" xmlns="http://www.w3.org/2000/svg" width="32" height="32" viewBox="0 0 32 32">
  <defs>
    <style>
      .cls-1 {
        fill: none;
      }
    </style>
  </defs>
  <path d="M12,17h8c1.1,0,2-.9,2-2V4c0-1.1-.9-2-2-2h-8c-1.1,0-2,.9-2,2v11c0,1.1.9,2,2,2ZM12,4h8v11h-8V4ZM8,19h5v2h-5c-1.1,0-2-.9-2-2v-11h2v11ZM4,23h5v2h-5c-1.1,0-2-.9-2-2v-11h2v11ZM27,20c-1.6,0-3.1,1.4-4,2.4-.9-1-2.4-2.4-4-2.4-2.6,0-4,2-4,4s1.4,4,4,4,3.1-1.4,4-2.4c.9,1,2.4,2.4,4,2.4,2.6,0,4-2,4-4s-1.4-4-4-4ZM19,26c-1.5,0-2-1.1-2-2s.5-2,2-2,2,1.1,2.8,2c-.7.9-1.9,2-2.8,2ZM27,26c-.9,0-2-1.1-2.8-2,.7-.9,1.9-2,2.8-2,1.5,0,2,1.1,2,2s-.5,2-2,2Z"/>
  <rect id="_x3C_Transparent_Rectangle_x3E_" class="cls-1" width="32" height="32"/>
</svg>