<svg id="icon" xmlns="http://www.w3.org/2000/svg" width="32" height="32" viewBox="0 0 32 32">
  <defs>
    <style>
      .cls-1 {
        fill: none;
      }
    </style>
  </defs>
  <path id="inner-path" class="cls-1" d="M16,9.0752a7.9941,7.9941,0,0,1,0,13.85,7.9941,7.9941,0,0,1,0-13.85m0-2.2373a9.9953,9.9953,0,0,0,0,18.3242A9.9953,9.9953,0,0,0,16,6.8379Z"/>
  <path d="M10,16a9.9976,9.9976,0,0,1,6-9.1621,10,10,0,1,0,0,18.3242A9.9976,9.9976,0,0,1,10,16Z"/>
  <path d="M16,9.0752a7.9941,7.9941,0,0,0,0,13.85,7.9941,7.9941,0,0,0,0-13.85Z"/>
  <path d="M20,6a9.9539,9.9539,0,0,0-4,.8379,9.9953,9.9953,0,0,1,0,18.3242A9.9988,9.9988,0,1,0,20,6Z"/>
  <rect id="_Transparent_Rectangle_" data-name=" Transparent Rectangle " class="cls-1" width="32" height="32"/>
</svg>
