<svg id="icon" xmlns="http://www.w3.org/2000/svg" width="32" height="32" viewBox="0 0 32 32">
  <defs>
    <style>
      .cls-1 {
        fill: none;
      }
    </style>
  </defs>
  <path d="M25,10a3.8978,3.8978,0,0,1-4-3.777,3.9017,3.9017,0,0,1,.6533-2.0639L24.17.4141a1.0381,1.0381,0,0,1,1.6592,0L28.3154,4.11A3.9693,3.9693,0,0,1,29,6.223,3.8978,3.8978,0,0,1,25,10Zm0-7.2368L23.3438,5.2257A1.89,1.89,0,0,0,23,6.223a2.014,2.014,0,0,0,4,0,1.98,1.98,0,0,0-.375-1.0466Z" transform="translate(0 0)"/>
  <path d="M29.9854,15.83a13.9726,13.9726,0,0,0-1.8147-4.8323L26.4329,12.001a12.092,12.092,0,0,1,1.07,2.2124A5.4079,5.4079,0,0,0,26,14a6.5439,6.5439,0,0,0-3.939,1.333,14.5177,14.5177,0,0,0-3.0456-8.9341A13.8858,13.8858,0,0,0,17,4.4014V2H15V4.0464A14.3808,14.3808,0,0,0,2.0146,15.83,1,1,0,0,0,3.51,16.86,4.8551,4.8551,0,0,1,6,16a4.8653,4.8653,0,0,1,4.1406,2.5107,1.0393,1.0393,0,0,0,1.7188,0A5.02,5.02,0,0,1,15,16.1255V25.5a2.5,2.5,0,0,1-5,0V25H8v.5a4.5,4.5,0,0,0,9,0V16.1255a5.02,5.02,0,0,1,3.1406,2.3852.9994.9994,0,0,0,1.7188,0A4.8653,4.8653,0,0,1,26,16a4.8551,4.8551,0,0,1,2.49.86,1,1,0,0,0,1.4957-1.03ZM9.939,15.333A6.5439,6.5439,0,0,0,6,14a5.4079,5.4079,0,0,0-1.5034.2134,12.4413,12.4413,0,0,1,8.488-7.8145A14.5157,14.5157,0,0,0,9.939,15.333ZM16,14a6.5526,6.5526,0,0,0-4.0564,1.4307c.0378-2.22.6089-6.49,4.0564-9.1763,3.4307,2.6768,4.009,6.9487,4.0522,9.1728A6.552,6.552,0,0,0,16,14Z" transform="translate(0 0)"/>
  <rect id="_Transparent_Rectangle_" data-name="&lt;Transparent Rectangle&gt;" class="cls-1" width="32" height="32"/>
</svg>
