<?xml version="1.0" encoding="UTF-8"?>
<svg id="Layer_1" data-name="Layer 1" xmlns="http://www.w3.org/2000/svg" width="32" height="32" viewBox="0 0 32 32">
  <defs>
    <style>
      .cls-1 {
        fill: none;
      }
    </style>
  </defs>
  <path d="M8,7h-4v-2h4v2ZM25,5h-15v2h15v-2ZM10,10h-6v2h6v-2ZM24,10h-12v2h12v-2ZM7,15h-3v2h3v-2ZM27,15H9v2h18v-2ZM11,20h-7v2h7v-2ZM25,20h-12v2h12v-2ZM8,25h-4v2h4v-2ZM28,25H10v2h18v-2Z"/>
  <rect id="Transparent_Rectangle" data-name="Transparent Rectangle" class="cls-1" width="32" height="32"/>
</svg>