<?xml version="1.0" encoding="UTF-8"?>
<svg id="icon" xmlns="http://www.w3.org/2000/svg" width="32" height="32" viewBox="0 0 32 32">
  <defs>
    <style>
      .cls-1 {
        fill: none;
      }
    </style>
  </defs>
  <path d="M26,19c1.1,0,2-.9,2-2V4c0-1.1-.9-2-2-2H6c-1.1,0-2,.9-2,2v13c0,1.1.9,2,2,2h7v9H4v2h24v-2h-9v-9h7ZM17,28h-2v-9h2v9ZM6,17V4h20v13H6ZM16,13c-.55,0-1,.45-1,1s.45,1,1,1,1-.45,1-1-.45-1-1-1Z"/>
  <rect id="_Transparent_Rectangle_" data-name="&amp;lt;Transparent Rectangle&amp;gt;" class="cls-1" width="32" height="32"/>
</svg>