<?xml version="1.0" encoding="UTF-8"?>
<svg xmlns="http://www.w3.org/2000/svg" width="32" height="32" viewBox="0 0 32 32">
  <defs>
    <style>
      .cls-1 {
        fill: none;
      }

      .cls-1, .cls-2, .cls-3 {
        stroke-width: 0px;
      }

      .cls-2 {
        mix-blend-mode: multiply;
      }

      .cls-4 {
        isolation: isolate;
      }
    </style>
  </defs>
  <g class="cls-4">
    <g id="icon">
      <path class="cls-3" d="m23,18v-2h-2.1c-.1-.6-.4-1.2-.7-1.8l1.5-1.5-1.4-1.4-1.5,1.5c-.5-.3-1.1-.6-1.8-.7v-2.1h-2v2.1c-.6.1-1.2.4-1.8.7l-1.5-1.5-1.4,1.4,1.5,1.5c-.3.5-.6,1.1-.7,1.8h-2.1v2h2.1c.1.6.4,1.2.7,1.8l-1.5,1.5,1.4,1.4,1.5-1.5c.5.3,1.1.6,1.8.7v2.1h2v-2.1c.6-.1,1.2-.4,1.8-.7l1.5,1.5,1.4-1.4-1.5-1.5c.3-.5.6-1.1.7-1.8h2.1Zm-7,2c-1.7,0-3-1.3-3-3s1.3-3,3-3,3,1.3,3,3-1.3,3-3,3Z"/>
      <path class="cls-2" d="m29.9483,18.9897l-2.593-11.1865c-.1406-.6074-.5564-1.1143-1.124-1.3711l-9.407-4.2544c-.262-.1187-.5432-.1777-.8242-.1777s-.5623.0591-.8242.1777L5.7687,6.4321c-.5676.2568-.9834.7637-1.124,1.3711l-2.593,11.1865c-.1387.5981.0051,1.2271.3899,1.7056l6.886,8.5586c.3796.4717.9526.7461,1.5581.7461h10.2286c.6055,0,1.1785-.2744,1.5581-.7461l6.886-8.5586c.3848-.4785.5286-1.1074.3899-1.7056Zm-8.834,9.0103h-10.2283l-6.886-8.5586,2.593-11.187,9.407-4.2544,9.407,4.2549,2.593,11.1865-6.8858,8.5586Z"/>
      <rect id="_Transparent_Rectangle_" data-name="&amp;lt;Transparent Rectangle&amp;gt;" class="cls-1" width="32" height="32"/>
    </g>
  </g>
</svg>