<?xml version="1.0" encoding="UTF-8"?>
<svg xmlns="http://www.w3.org/2000/svg" width="32" height="32" viewBox="0 0 32 32">
  <defs>
    <style>
      .cls-1 {
        fill: none;
      }

      .cls-1, .cls-2, .cls-3 {
        stroke-width: 0px;
      }

      .cls-2 {
        mix-blend-mode: multiply;
      }

      .cls-4 {
        isolation: isolate;
      }
    </style>
  </defs>
  <g class="cls-4">
    <g id="icon">
      <path class="cls-3" d="m22.951,20h-2.1843c-.4141-1.1611-1.5137-2-2.8157-2s-2.4016.8389-2.8157,2h-6.1843v2h6.1843c.4141,1.1611,1.5137,2,2.8157,2s2.4016-.8389,2.8157-2h2.1843v-2Zm-5,2c-.5515,0-1-.4487-1-1s.4485-1,1-1,1,.4487,1,1-.4485,1-1,1Z"/>
      <path class="cls-3" d="m22.951,12h-6.1843c-.4141-1.1611-1.5137-2-2.8157-2s-2.4016.8389-2.8157,2h-2.1843v2h2.1843c.4141,1.1611,1.5137,2,2.8157,2s2.4016-.8389,2.8157-2h6.1843v-2Zm-9,2c-.5515,0-1-.4487-1-1s.4485-1,1-1,1,.4487,1,1-.4485,1-1,1Z"/>
      <path class="cls-2" d="m29.8993,18.9897l-2.593-11.1865c-.1406-.6074-.5564-1.1143-1.124-1.3711l-9.407-4.2544c-.262-.1187-.5432-.1777-.8242-.1777s-.5623.0591-.8242.1777L5.7197,6.4321c-.5676.2568-.9834.7637-1.124,1.3711l-2.593,11.1865c-.1387.5981.0051,1.2271.3899,1.7056l6.886,8.5586c.3796.4717.9526.7461,1.5581.7461h10.2286c.6055,0,1.1785-.2744,1.5581-.7461l6.886-8.5586c.3848-.4785.5286-1.1074.3899-1.7056Zm-8.834,9.0103h-10.2283l-6.886-8.5586,2.593-11.187,9.407-4.2544,9.407,4.2549,2.593,11.1865-6.8858,8.5586Z"/>
      <rect id="_Transparent_Rectangle_" data-name="&amp;lt;Transparent Rectangle&amp;gt;" class="cls-1" width="32" height="32"/>
    </g>
  </g>
</svg>