<svg id="icon" xmlns="http://www.w3.org/2000/svg" width="32" height="32" viewBox="0 0 32 32">
  <defs>
    <style>
      .cls-1 {
        fill: none;
      }
    </style>
  </defs>
  <path d="M23,13H18v2h5v2H19a2,2,0,0,0-2,2v2a2,2,0,0,0,2,2h6V15A2.0023,2.0023,0,0,0,23,13Zm0,8H19V19h4Z"/>
  <path d="M13,9H9a2.002,2.002,0,0,0-2,2V23H9V18h4v5h2V11A2.002,2.002,0,0,0,13,9ZM9,16V11h4v5Z"/>
  <path d="M28,28H4a2.0021,2.0021,0,0,1-2-2V6A2.0021,2.0021,0,0,1,4,4H28a2.0021,2.0021,0,0,1,2,2V26A2.0021,2.0021,0,0,1,28,28ZM4,6V26H28V6Z"/>
  <rect id="_Transparent_Rectangle_" data-name="&lt;Transparent Rectangle&gt;" class="cls-1" width="32" height="32"/>
</svg>
