<svg id="icon" xmlns="http://www.w3.org/2000/svg" width="32" height="32" viewBox="0 0 32 32">
  <defs>
    <style>
      .cls-1 {
        fill: none;
      }
    </style>
  </defs>
  <path d="M29.6245,2.2193a1.0005,1.0005,0,0,0-1.0972-.1006L17.9353,7.8,3.366,2.0694a1,1,0,0,0-1.28,1.3369l6.4353,14.479A3.965,3.965,0,0,0,9.9106,24.83,4.0049,4.0049,0,0,1,6,28H4v2H6a6.0044,6.0044,0,0,0,5.928-5.12,4.0021,4.0021,0,0,0,2.93-2.88H23.24a2,2,0,0,0,1.9273-1.4649L29.9634,3.2676A1,1,0,0,0,29.6245,2.2193ZM11,23a2,2,0,1,1,2-2A2.0025,2.0025,0,0,1,11,23Zm12.24-3H14.8579a3.897,3.897,0,0,0-4.5117-2.9336L4.905,4.8238,18.0647,10,27.41,4.9878Z"/>
  <rect id="_Transparent_Rectangle_" data-name="&lt;Transparent Rectangle&gt;" class="cls-1" width="32" height="32"/>
</svg>
