<?xml version="1.0" encoding="UTF-8"?>
<svg id="icon" xmlns="http://www.w3.org/2000/svg" width="32" height="32" viewBox="0 0 32 32">
  <defs>
    <style>
      .cls-1 {
        fill: none;
      }

      .cls-1, .cls-2 {
        stroke-width: 0px;
      }
    </style>
  </defs>
  <path class="cls-2" d="m16,24c-.1631,0-.3262-.0398-.4741-.1196l-13-7,.9482-1.7607,12.5259,6.7446,12.5259-6.7446.9482,1.7607-13,7c-.1479.0798-.311.1196-.4741.1196Z"/>
  <path class="cls-2" d="m16,30c-.1631,0-.3262-.0398-.4741-.1196l-13-7,.9482-1.7607,12.5259,6.7446,12.5259-6.7446.9482,1.7607-13,7c-.1479.0798-.311.1196-.4741.1196Z"/>
  <path class="cls-2" d="m29.4741,9.1196L16,1.8643v2.2715l10.8906,5.8643-10.8906,5.8643v2.2715l13.4741-7.2554c.324-.1743.5259-.5122.5259-.8804s-.2019-.7061-.5259-.8804Z"/>
  <path class="cls-2" d="m4.4141,9.4141l3.5859-3.586v8.1719s2,0,2,0V5.8281s3.5859,3.5859,3.5859,3.5859l1.4141-1.414L9,2,3,8l1.4141,1.4141Z"/>
  <rect id="_Transparent_Rectangle_" data-name="&amp;lt;Transparent Rectangle&amp;gt;" class="cls-1" width="32" height="32"/>
</svg>