<svg id="icon" xmlns="http://www.w3.org/2000/svg" width="32" height="32" viewBox="0 0 32 32">
  <defs>
    <style>
      .cls-1 {
        fill: none;
      }
    </style>
  </defs>
  <rect x="8" y="6" width="12" height="2"/>
  <rect x="8" y="10" width="12" height="2"/>
  <rect x="8" y="14" width="6" height="2"/>
  <rect x="8" y="24" width="4" height="2"/>
  <path d="M29.707,19.293l-3-3a.9994.9994,0,0,0-1.414,0L16,25.5859V30h4.4141l9.2929-9.293A.9994.9994,0,0,0,29.707,19.293ZM19.5859,28H18V26.4141l5-5L24.5859,23ZM26,21.5859,24.4141,20,26,18.4141,27.5859,20Z"/>
  <path d="M12,30H6a2.0021,2.0021,0,0,1-2-2V4A2.0021,2.0021,0,0,1,6,2H22a2.0021,2.0021,0,0,1,2,2V14H22V4H6V28h6Z"/>
  <rect id="_Transparent_Rectangle_" data-name="&lt;Transparent Rectangle&gt;" class="cls-1" width="32" height="32"/>
</svg>
