<svg id="icon" xmlns="http://www.w3.org/2000/svg" width="32" height="32" viewBox="0 0 32 32">
  <defs>
    <style>
      .cls-1 {
        fill: none;
      }
    </style>
  </defs>
  <rect x="15" y="2" width="2" height="5"/>
  <rect x="21.6675" y="6.8536" width="4.958" height="1.9998" transform="translate(1.5191 19.3744) rotate(-45)"/>
  <rect x="25" y="15" width="5" height="2"/>
  <rect x="23.1466" y="21.6675" width="1.9998" height="4.958" transform="translate(-10.0018 24.1465) rotate(-45)"/>
  <rect x="15" y="25" width="2" height="5"/>
  <rect x="5.3745" y="23.1466" width="4.958" height="1.9998" transform="translate(-14.7739 12.6256) rotate(-45)"/>
  <rect x="2" y="15" width="5" height="2"/>
  <rect x="6.8536" y="5.3745" width="1.9998" height="4.958" transform="translate(-3.253 7.8535) rotate(-45)"/>
  <path d="M16,10a6,6,0,1,0,6,6,6,6,0,0,0-6-6Z"/>
  <rect id="_Transparent_Rectangle_" data-name="&lt;Transparent Rectangle&gt;" class="cls-1" width="32" height="32"/>
</svg>
