<svg id="icon" xmlns="http://www.w3.org/2000/svg" viewBox="0 0 32 32"><defs><style>.cls-1{fill:none;}</style></defs><title>light--filled</title><rect x="15" y="2" width="2" height="4.96"/><rect x="21.67" y="6.85" width="4.96" height="2" transform="translate(1.52 19.37) rotate(-45)"/><rect x="25.04" y="15" width="4.96" height="2"/><rect x="23.15" y="21.67" width="2" height="4.96" transform="translate(-10 24.15) rotate(-45)"/><rect x="15" y="25.04" width="2" height="4.96"/><rect x="5.37" y="23.15" width="4.96" height="2" transform="translate(-14.77 12.63) rotate(-45)"/><rect x="2" y="15" width="4.96" height="2"/><rect x="6.85" y="5.37" width="2" height="4.96" transform="translate(-3.25 7.85) rotate(-45)"/><path d="M16,10a6,6,0,1,0,6,6,6,6,0,0,0-6-6Z"/><rect id="_Transparent_Rectangle_" data-name="&lt;Transparent Rectangle&gt;" class="cls-1" width="32" height="32"/></svg>