<svg id="Layer_1" data-name="Layer 1" xmlns="http://www.w3.org/2000/svg" width="32" height="32" viewBox="0 0 32 32">
  <defs>
    <style>
      .cls-1 {
        fill: none;
      }
    </style>
  </defs>
  <path d="M22.6121,20.5215A6.1582,6.1582,0,0,0,24,16.5254C24,13.4785,21.9812,11,19.5,11A4.2435,4.2435,0,0,0,16,13.06,4.2435,4.2435,0,0,0,12.5,11C10.0188,11,8,13.4785,8,16.5254a6.1593,6.1593,0,0,0,1.3879,3.9961c-.5688.3686-.9389.6416-.988.6787a1,1,0,0,0-.1807,1.4248C8.6592,23.1748,12.6169,28,16,28s7.3408-4.8252,7.7808-5.375A1,1,0,0,0,23.6,21.2C23.551,21.1631,23.1812,20.89,22.6121,20.5215ZM12.5,13c1.3552,0,2.5,1.6143,2.5,3.5254v1.5664a9.1005,9.1005,0,0,0-1.0244.2314A2.6411,2.6411,0,0,0,14,18c0-1.1045-.6716-2-1.5-2s-1.5.8955-1.5,2a2.38,2.38,0,0,0,.4072,1.3623c-.0813.0415-.1687.0806-.248.1221A4.0291,4.0291,0,0,1,10,16.5254C10,14.6143,11.1448,13,12.5,13ZM16,26c-1.5691,0-3.9648-2.084-5.52-3.8057C11.9,21.2788,14.2656,20,16,20s4.1,1.2788,5.52,2.1943C19.9648,23.916,17.5691,26,16,26Zm4.8408-6.5156c-.0793-.0415-.1667-.0806-.248-.1221A2.38,2.38,0,0,0,21,18c0-1.1045-.6716-2-1.5-2s-1.5.8955-1.5,2a2.6411,2.6411,0,0,0,.0244.3232A9.1005,9.1005,0,0,0,17,18.0918V16.5254C17,14.6143,18.1448,13,19.5,13S22,14.6143,22,16.5254A4.0291,4.0291,0,0,1,20.8408,19.4844Z" transform="translate(0 0)"/>
  <path d="M30,30a3.8876,3.8876,0,0,1-4-4V14A10,10,0,0,0,6,14V26a3.8876,3.8876,0,0,1-4,4V28a1.8793,1.8793,0,0,0,2-2V14a12,12,0,0,1,24,0V26a1.8825,1.8825,0,0,0,2,2Z" transform="translate(0 0)"/>
  <rect id="_Transparent_Rectangle_" data-name="&lt;Transparent Rectangle&gt;" class="cls-1" width="32" height="32"/>
</svg>
