<svg id="icon" xmlns="http://www.w3.org/2000/svg" width="32" height="32" viewBox="0 0 32 32"><defs><style>.cls-1{fill:none;}</style></defs><title>list--checked</title><rect x="16" y="8" width="14" height="2"/><rect x="16" y="22" width="14" height="2"/><path d="M10,14H4a2.0023,2.0023,0,0,1-2-2V6A2.0023,2.0023,0,0,1,4,4h6a2.0023,2.0023,0,0,1,2,2v6A2.0023,2.0023,0,0,1,10,14ZM4,6v6h6.0012L10,6Z"/><path d="M10,28H4a2.0023,2.0023,0,0,1-2-2V20a2.0023,2.0023,0,0,1,2-2h6a2.0023,2.0023,0,0,1,2,2v6A2.0023,2.0023,0,0,1,10,28ZM4,20v6h6.0012L10,20Z"/><rect id="_Transparent_Rectangle_" data-name="&lt;Transparent Rectangle&gt;" class="cls-1" width="32" height="32"/></svg>