<svg id="icon" xmlns="http://www.w3.org/2000/svg" viewBox="0 0 32 32"><defs><style>.cls-1{fill:none;}</style></defs><title>list--numbered</title><rect x="16" y="22" width="14" height="2"/><rect x="16" y="8" width="14" height="2"/><polygon points="8 12 8 4 6 4 6 5 4 5 4 7 6 7 6 12 4 12 4 14 6 14 8 14 10 14 10 12 8 12"/><path d="M10,28H4V24a2,2,0,0,1,2-2H8V20H4V18H8a2,2,0,0,1,2,2v2a2,2,0,0,1-2,2H6v2h4Z"/><rect id="_Transparent_Rectangle_" data-name="&lt;Transparent Rectangle&gt;" class="cls-1" width="32" height="32"/></svg>