<?xml version="1.0" encoding="utf-8"?>
<!-- Generator: Adobe Illustrator 26.5.0, SVG Export Plug-In . SVG Version: 6.00 Build 0)  -->
<svg version="1.1" id="icon" xmlns="http://www.w3.org/2000/svg" xmlns:xlink="http://www.w3.org/1999/xlink" x="0px" y="0px"
	 width="32px" height="32px" viewBox="0 0 32 32" style="enable-background:new 0 0 32 32;" xml:space="preserve">
<style type="text/css">
	.st0{fill:none;}
</style>
<path d="M28,28h-6v-4c0-1.1,0.9-2,2-2h2v-2h-4v-2h4c1.1,0,2,0.9,2,2v2c0,1.1-0.9,2-2,2h-2v2h4V28z"/>
<rect x="2" y="22" width="14" height="2"/>
<polygon points="26,12 26,4 24,4 24,5 22,5 22,7 24,7 24,12 22,12 22,14 24,14 26,14 28,14 28,12 "/>
<rect x="2" y="8" width="14" height="2"/>
<rect id="_x3C_Transparent_Rectangle_x3E__363_" class="st0" width="32" height="32"/>
</svg>
