<svg id="icon" xmlns="http://www.w3.org/2000/svg" width="32" height="32" viewBox="0 0 32 32">
  <defs>
    <style>
      .cls-1 {
        fill: none;
      }
    </style>
  </defs>
  <path d="M18,30h2V28a1.0009,1.0009,0,0,1,1-1h6a1.0009,1.0009,0,0,1,1,1v2h2V28a3.0033,3.0033,0,0,0-3-3H21a3.0033,3.0033,0,0,0-3,3Z"/>
  <path d="M24,24a4,4,0,1,1,4-4A4.0042,4.0042,0,0,1,24,24Zm0-6a2,2,0,1,0,2,2A2.0023,2.0023,0,0,0,24,18Z"/>
  <path d="M25.3418,10.06l-22-8A1,1,0,0,0,2.06,3.3415l8,22A1.001,1.001,0,0,0,10.9839,26H11a1,1,0,0,0,.9287-.6289L15.77,15.7692l9.6016-3.8408a1,1,0,0,0-.0293-1.8687ZM14.6284,14.0709v0l-.3979.1591-.1591.3979,0,0-3.0269,7.5678L4.6719,4.6715l17.5244,6.3726Z"/>
  <rect id="_Transparent_Rectangle_" data-name="&lt;Transparent Rectangle&gt;" class="cls-1" width="32" height="32"/>
</svg>
