<?xml version="1.0" encoding="UTF-8"?>
<svg id="Layer_1" data-name="Layer 1" xmlns="http://www.w3.org/2000/svg" width="32" height="32" viewBox="0 0 32 32">
  <defs>
    <style>
      .cls-1 {
        fill: none;
      }
    </style>
  </defs>
  <path id="location--group" d="M16,11c-1.1046,0-2-.8954-2-2s.8954-2,2-2,2,.8954,2,2-.8954,2-2,2ZM27.0742,22.042c.0498-.0615.1787-.2295.2305-.2979,1.0957-1.4434,1.6973-3.2227,1.6953-5.0093,0-3.0977-1.7285-5.9204-4.4492-7.3457-.6084-4.1738-4.2109-7.3892-8.5508-7.3892s-7.9434,3.2163-8.5508,7.3892c-2.7212,1.4253-4.4492,4.248-4.4492,7.3442-.0024,1.7881.6001,3.5684,1.6948,5.0098.0552.0723.1816.2383.2461.3174l6.3506,7.4902,3.3086-3.9023-1.5254-1.293-1.7832,2.1035-4.8096-5.6729-.1934-.251c-.8325-1.0967-1.29-2.4463-1.2886-3.8003,0-1.9688.9204-3.7915,2.4341-4.9673.1978,1.4722.7822,2.8955,1.6982,4.1016.0601.0786.1846.2422.249.3213l6.6187,7.8057,6.6631-7.8599.2354-.3081c.8975-1.1821,1.4727-2.5928,1.668-4.0605,1.5127,1.1763,2.4336,2.999,2.4336,4.9688.002,1.3525-.4561,2.7012-1.292,3.8037-.0449.0596-.1504.1963-.1748.2275l-4.8252,5.6914-1.7832-2.1035-1.5254,1.293,3.3086,3.9023,6.3662-7.5088ZM22.6416,10.6416c.001,1.4282-.4736,2.8408-1.3369,3.9785l-5.3047,6.2842-5.0776-5.9883-.2036-.2651c-.8789-1.1572-1.3618-2.5811-1.3599-4.0107,0-3.6616,2.979-6.6401,6.6411-6.6401s6.6416,2.979,6.6416,6.6416Z"/>
  <rect id="Transparent_Rectangle" data-name="Transparent Rectangle" class="cls-1" width="32" height="32"/>
</svg>