<svg id="icon" xmlns="http://www.w3.org/2000/svg" viewBox="0 0 32 32"><defs><style>.cls-1{fill:#231f20;}.cls-2{fill:none;}</style></defs><title>location</title><path d="M16,10a3,3,0,1,1-3,3,3,3,0,0,1,3-3m0-2a5,5,0,1,0,5,5A5,5,0,0,0,16,8Z"/><path class="cls-1" d="M16,4a8.88,8.88,0,0,1,9,8.71,8.47,8.47,0,0,1-1.79,5.21l0,0,0,0L16,28.46,8.85,18l0,0,0,0A8.47,8.47,0,0,1,7,12.71,8.88,8.88,0,0,1,16,4m0-2A10.86,10.86,0,0,0,5,12.71a10.53,10.53,0,0,0,2.2,6.43L16,32l8.8-12.86A10.53,10.53,0,0,0,27,12.71,10.86,10.86,0,0,0,16,2Z"/><rect id="_Transparent_Rectangle_" data-name="&lt;Transparent Rectangle&gt;" class="cls-2" width="32" height="32" transform="translate(0 32) rotate(-90)"/></svg>