<?xml version="1.0" encoding="UTF-8"?>
<svg id="icon" xmlns="http://www.w3.org/2000/svg" width="32" height="32" viewBox="0 0 32 32">
  <defs>
    <style>
      .cls-1 {
        fill: none;
      }
    </style>
  </defs>
  <circle cx="9" cy="7" r="1"/>
  <path d="M27,22v-4c0-1.1046-.8954-2-2-2h-8v-4h9c1.1046,0,2-.8954,2-2V4c0-1.1046-.8954-2-2-2H6c-1.1046,0-2,.8954-2,2v6c0,1.1046,.8954,2,2,2H15v4H7c-1.1046,0-2,.8954-2,2v4h-1c-1.1046,0-2,.8954-2,2v4c0,1.1046,.8954,2,2,2h4c1.1046,0,2-.8954,2-2v-4c0-1.1046-.8954-2-2-2h-1v-4H15v4h-1c-1.1046,0-2,.8954-2,2v4c0,1.1046,.8954,2,2,2h4c1.1046,0,2-.8954,2-2v-4c0-1.1046-.8954-2-2-2h-1v-4h8v4h-1c-1.1046,0-2,.8954-2,2v4c0,1.1046,.8954,2,2,2h4c1.1046,0,2-.8954,2-2v-4c0-1.1046-.8954-2-2-2h-1Zm-19,6H4v-4h4v4Zm10-4v4h-4v-4h4ZM6,10V4H26v6H6ZM28,28h-4v-4h4v4Z"/>
  <rect id="_Transparent_Rectangle_" data-name="&amp;lt;Transparent Rectangle&amp;gt;" class="cls-1" width="32" height="32"/>
</svg>