<?xml version="1.0" encoding="UTF-8"?>
<svg id="icon" xmlns="http://www.w3.org/2000/svg" width="32" height="32" viewBox="0 0 32 32">
  <defs>
    <style>
      .cls-1 {
        fill: none;
      }

      .cls-2 {
        fill: #100f0d;
      }
    </style>
  </defs>
  <path id="_Compound_Path_" data-name="&amp;lt;Compound Path&amp;gt;" class="cls-2" d="M29.5242,14.8021L17.2022,2.5241c-.7013-.6988-1.8032-.6988-2.5045,0h0l-2.5045,2.4955,3.2057,3.1943c.8014-.2995,1.6029,0,2.2039.4991.6011.5989.8014,1.3975.5009,2.1961l3.1055,3.0945c.8014-.2995,1.6029,0,2.2039.4991.8014.7986.8014,2.1961,0,2.9947h0c-.8014.7986-2.2039.7986-3.0054,0-.6011-.5989-.8014-1.4973-.5009-2.2959l-2.9052-2.8948v7.5865c1.102.4991,1.5027,1.7968,1.0018,2.8948-.1002.1996-.2004.3993-.4007.5989-.8014.7986-2.2039.7986-3.0054,0h0c-.8014-.7986-.8014-2.1961,0-2.9947h0c.2004-.1996.4007-.3993.7013-.4991v-7.6863c-.3005-.0998-.5009-.2995-.7013-.4991-.6011-.5989-.8014-1.4973-.5009-2.2959l-3.2057-3.1943L2.4759,14.7023c-.7013.6988-.7013,1.7968,0,2.5954h0l12.2218,12.1783c.7013.6988,1.8032.6988,2.5045,0l12.2218-12.1783c.7013-.6988.7013-1.7968,0-2.5954"/>
  <rect id="_Transparent_Rectangle_" data-name=" &amp;lt;Transparent Rectangle&amp;gt;" class="cls-1" width="32" height="32"/>
</svg>