<?xml version="1.0" encoding="UTF-8"?>
<svg id="icon" xmlns="http://www.w3.org/2000/svg" version="1.1" viewBox="0 0 32 32">
  <!-- Generator: Adobe Illustrator 29.6.1, SVG Export Plug-In . SVG Version: 2.1.1 Build 9)  -->
  <defs>
    <style>
      .st0 {
        fill: none;
      }
    </style>
  </defs>
  <path id="_x3C_Compound_Path_x3E_" d="M9.2,6.9c2.7,2.1,5.7,6.3,6.8,8.5,1.1-2.2,4-6.4,6.8-8.5,2-1.5,5.2-2.6,5.2,1s-.4,6.2-.7,7c-.9,3.1-4,3.8-6.8,3.4,4.8.8,6.1,3.6,3.4,6.3-5.1,5.2-7.3-1.3-7.8-3,0-.3-.1-.5-.1-.3,0-.1,0,0-.1.3-.6,1.7-2.8,8.2-7.8,3-2.7-2.7-1.4-5.5,3.4-6.3-2.8.5-5.9-.3-6.8-3.4-.2-.9-.7-6.3-.7-7,0-3.7,3.2-2.5,5.2-1,0,0,0,0,0,0Z"/>
  <rect id="_x3C_Transparent_Rectangle_x3E_" class="st0" width="32" height="32"/>
</svg>