<svg xmlns="http://www.w3.org/2000/svg" viewBox="0 0 32 32"><path fill-rule="evenodd" d="M16,2a14,14,0,0,0-4.43,27.28c.7.13,1-.3,1-.67s0-1.21,0-2.38c-3.89.84-4.71-1.88-4.71-1.88A3.71,3.71,0,0,0,6.24,22.3c-1.27-.86.1-.85.1-.85A2.94,2.94,0,0,1,8.48,22.9a3,3,0,0,0,4.08,1.16,2.93,2.93,0,0,1,.88-1.87c-3.1-.36-6.37-1.56-6.37-6.92a5.4,5.4,0,0,1,1.44-3.76,5,5,0,0,1,.14-3.7s1.17-.38,3.85,1.43a13.3,13.3,0,0,1,7,0c2.67-1.81,3.84-1.43,3.84-1.43a5,5,0,0,1,.14,3.7,5.4,5.4,0,0,1,1.44,3.76c0,5.38-3.27,6.56-6.39,6.91a3.33,3.33,0,0,1,.95,2.59c0,1.87,0,3.38,0,3.84s.25.81,1,.67A14,14,0,0,0,16,2Z"/></svg>