<?xml version="1.0" encoding="UTF-8"?>
<svg id="Icon" xmlns="http://www.w3.org/2000/svg" width="32" height="32" viewBox="0 0 32 32">
  <defs>
    <style>
      .cls-1 {
        fill: none;
      }
    </style>
  </defs>
  <path d="M13.2148,13.1793c.2327-.501-.4158-.9337-.9252-.8189-.3831.0863-.8737.7158-1.0126,1.0705.0842.5294,1.6957.2715,1.9378-.2516ZM12.8453,12.7614c.06.5895-.6263.5432-1.0515.5242.2484-.3642.5768-.7484,1.0515-.5242ZM16,21.8211c.9062-.0084,1.2-1.8673.4673-2.0052-.0768-.0137-.2548-.0231-.4673-.0253-.2126.0021-.3906.0116-.4674.0253-.7326.1379-.4389,1.9968.4674,2.0052ZM12.154,19.6017c1.2337-.0746,1.1996-2.8773-.0815-2.8101-1.4228.0746-1.2452,2.8903.0815,2.8101ZM26.8406,9.7584c-.52-.6715-1.2484-2.2767-2.0789-2.4473-1.2431-.2547-2.1147.3842-2.923,1.221-1.6652-1.2252-3.7147-2.3188-5.8387-2.3052-2.1241-.0137-4.1736,1.08-5.8387,2.3052-.8084-.8368-1.68-1.4757-2.9231-1.221-.8305.1705-1.5589,1.7758-2.0789,2.4473-.9073,1.1747-3.1978,3.1746-3.1588,4.7346.0484,1.9073,4.4714,7.2376,6.3776,7.5229.4211.0631.7842-.0421,1.1874-.0842.7214,1.4147,1.8981,2.4644,3.2742,3.1268,1.9797.953,4.3409.953,6.3207,0,1.376-.6624,2.5527-1.7121,3.2742-3.1268.4031.0421.7662.1473,1.1873.0842,1.9062-.2853,6.3292-5.6156,6.3777-7.5229.0389-1.56-2.2515-3.5599-3.1589-4.7346h-.0001ZM11.1285,9.2016c1.6884-1.1799,3.2167-1.8304,4.8715-1.7957,1.6547-.0347,3.183.6158,4.8714,1.7957.3747.261,1.4536,1.0516,1.6978,1.3547.5905.7305.5526,3.2515.5853,4.204h-2.1263c-.9337,0-1.8673.001-2.801,0-.3168,0-.6905.201-.9157.421-.6642.6505-.2316,1.52-.2632,2.3157-.3494-.1453-.6979-.2-1.0483-.2084-.3505.0084-.699.0632-1.0484.2084-.0316-.7958.401-1.6652-.2632-2.3157-.2252-.22-.5989-.421-.9157-.421-.9337.001-1.8673,0-2.801,0h-2.1263c.0327-.9526-.0052-3.4736.5853-4.204.2442-.3032,1.3231-1.0937,1.6978-1.3547ZM8.6855,20.9191c-1.3947-.0516-5.3871-4.9725-5.5187-6.3293-.1126-1.1673,2.2062-3.2589,2.9399-4.1998.3547-.4537,1.14-2.0147,1.641-2.0473.4168-.0263,1.3157.5378,1.5052.9052.3968.7684-.179.8516-.4274,1.4389-.5137,1.2126-.3632,2.7736-.4127,4.062-.782.1769-1.4136.5273-1.361,1.4294.0253.4453.9062,3.3241,1.141,3.7094.3074.5042.8189.7263,1.3894.7684l-.8968.2632h0ZM9.3718,20.2338c-.4716.0221-.7389-.319-.9337-.6968-.2158-.4189-1.0146-3.0568-1.0431-3.4894-.0347-.52.5684-.8505,1.0294-.8652,0,1.7273.481,3.4041.9473,5.0514h0ZM8.8455,15.1814h5.1051c.3379.0674.7642.5432.7852.9.0264.4274-.3221,2.5242-.4452,3.0189-.0569.2274-.1937.6463-.3453.8126-.5737.6305-3.1567.1979-4.0346.3084-.5968-1.6241-.8789-3.3209-1.0652-5.0399ZM16,24.7495c-2.481-.18-4.9062-1.5852-5.7861-4.0946.9337-.0937,2.0989.1274,2.9999,0,1.6063-.2263,1.34-1.7242,1.7368-2.8957.3389-.1053.6926-.1579,1.0494-.1705.3568.0126.7104.0652,1.0494.1705.3968,1.1715.1305,2.6694,1.7368,2.8957.901.1274,2.0662-.0937,2.9999,0-.8799,2.5094-3.3051,3.9146-5.7861,4.0946ZM18.0546,19.9128c-.1516-.1663-.2884-.5853-.3452-.8126-.1232-.4947-.4716-2.5915-.4453-3.0189.0211-.3568.4473-.8326.7852-.9h5.1051c-.1863,1.7189-.4684,3.4157-1.0652,5.0399-.8779-.1105-3.4609.3221-4.0346-.3084ZM23.5755,15.1825c.4611.0147,1.0641.3452,1.0294.8652-.0284.4326-.8273,3.0704-1.0431,3.4894-.1948.3779-.4621.7189-.9337.6968.4663-1.6473.9473-3.3241.9473-5.0514h.0001ZM23.3144,20.9191l-.8968-.2632c.5705-.0421,1.082-.2642,1.3894-.7684.2347-.3853,1.1157-3.2641,1.141-3.7094.0527-.9021-.5789-1.2526-1.361-1.4294-.0495-1.2883.101-2.8494-.4127-4.062-.2484-.5873-.8242-.6705-.4273-1.4389.1895-.3674,1.0884-.9315,1.5052-.9052.501.0326,1.2863,1.5936,1.641,2.0473.7336.941,3.0526,3.0325,2.9399,4.1998-.1315,1.3568-4.124,6.2777-5.5187,6.3293h0ZM20.723,13.4309c-.1389-.3547-.6295-.9842-1.0126-1.0705-.5095-.1147-1.1579.3179-.9252.8189.2421.5231,1.8536.781,1.9378.2516ZM20.2061,13.2857c-.4252.0189-1.1115.0652-1.0515-.5242.4747-.2242.8031.16,1.0515.5242ZM16,22.0274c-.6074,1.041-1.6042.2295-2.3115-.4252.3514,1.0421,1.1141,1.8438,1.985,2.1157.2104.0657.4424.0657.6529,0,.871-.2719,1.6337-1.0736,1.985-2.1157-.7073.6547-1.7042,1.4662-2.3115.4252h.0001ZM16.4631,23.3104c-.2929.1281-.6333.1281-.9262,0-.213-.0932-.4126-.2253-.5853-.3925.3663-.0379.7895-.0547,1.0484-.2895.2589.2347.682.2516,1.0483.2895-.1727.1671-.3723.2993-.5853.3925h.0001ZM19.9274,16.7916c-1.2811-.0672-1.3152,2.7355-.0814,2.8101,1.3266.0803,1.5042-2.7354.0814-2.8101Z"/>
  <rect id="_Transparent_Rectangle_" data-name="&amp;lt;Transparent Rectangle&amp;gt;" class="cls-1" width="32" height="32"/>
</svg>