<svg id="icon" xmlns="http://www.w3.org/2000/svg" width="32" height="32" viewBox="0 0 32 32">
  <defs>
    <style>
      .cls-1 {
        fill: none;
      }
    </style>
  </defs>
  <path d="M13.647,14.907a1.4482,1.4482,0,1,0,1.326,1.443A1.385,1.385,0,0,0,13.647,14.907Zm4.745,0a1.4482,1.4482,0,1,0,1.326,1.443A1.385,1.385,0,0,0,18.392,14.907Z"/>
  <path d="M24.71,4H7.29A2.6714,2.6714,0,0,0,4.625,6.678V24.254A2.6714,2.6714,0,0,0,7.29,26.932H22.032l-.689-2.405,1.664,1.547L24.58,27.53,27.375,30V6.678A2.6714,2.6714,0,0,0,24.71,4ZM19.692,20.978s-.468-.559-.858-1.053a4.1021,4.1021,0,0,0,2.353-1.547,7.4391,7.4391,0,0,1-1.495.767,8.5564,8.5564,0,0,1-1.885.559,9.1068,9.1068,0,0,1-3.367-.013,10.9127,10.9127,0,0,1-1.911-.559,7.6184,7.6184,0,0,1-.949-.442c-.039-.026-.078-.039-.117-.065a.18.18,0,0,1-.052-.039c-.234-.13-.364-.221-.364-.221a4.0432,4.0432,0,0,0,2.275,1.534c-.39.494-.871,1.079-.871,1.079a4.7134,4.7134,0,0,1-3.965-1.976,17.409,17.409,0,0,1,1.872-7.579,6.4285,6.4285,0,0,1,3.653-1.365l.13.156a8.77,8.77,0,0,0-3.419,1.703s.286-.156.767-.377a9.7625,9.7625,0,0,1,2.951-.819,1.2808,1.2808,0,0,1,.221-.026,11,11,0,0,1,2.626-.026A10.5971,10.5971,0,0,1,21.2,11.917a8.6518,8.6518,0,0,0-3.237-1.651l.182-.208a6.4285,6.4285,0,0,1,3.653,1.365,17.409,17.409,0,0,1,1.872,7.579A4.752,4.752,0,0,1,19.692,20.978Z"/>
  <rect id="_Transparent_Rectangle_" data-name="&lt;Transparent Rectangle&gt;" class="cls-1" width="32" height="32"/>
</svg>
