<svg id="icon" xmlns="http://www.w3.org/2000/svg" width="32" height="32" viewBox="0 0 32 32">
  <defs>
    <style>
      .cls-1 {
        fill: none;
      }
    </style>
  </defs>
  <polygon points="15.134 17.189 15.999 17.605 16.862 17.19 17.076 16.259 16.479 15.512 15.518 15.512 14.919 16.257 15.134 17.189"/>
  <path d="M14.2166,13.88l.0024.0019a.5239.5239,0,0,0,.8321-.4013l0-.003.0127-.0063L15.242,10.33c-.2173.0268-.43.0635-.6333.1094a6.2,6.2,0,0,0-2.9727,1.6176l2.5752,1.8257Z"/>
  <path d="M12.8347,16.2622l.003-.001a.5241.5241,0,0,0,.206-.9008l-.0024-.002.0029-.0127-2.3515-2.1035a6.1775,6.1775,0,0,0-.8746,3.9l3.0142-.87Z"/>
  <path d="M13.8645,18.501a.5229.5229,0,0,0-.6059-.3989l-.0034,0-.0049-.0063-3.0908.5249a6.2052,6.2052,0,0,0,2.4863,3.1108l1.1972-2.8935-.0087-.0117.0009-.003A.5184.5184,0,0,0,13.8645,18.501Z"/>
  <path d="M16.4622,19.6431l-.0015-.0025a.53.53,0,0,0-.48-.2759.5269.5269,0,0,0-.4434.2769l-.0015.0029H15.533l-1.52,2.7481a6.2277,6.2277,0,0,0,3.38.1723c.207-.0468.41-.104.6044-.1684l-1.5234-2.7534Z"/>
  <path d="M18.7371,18.09l-.0034,0a.51.51,0,0,0-.1206-.0088.5263.5263,0,0,0-.4546.7319l.001.0024-.004.0054,1.21,2.9234A6.185,6.185,0,0,0,21.86,18.61l-3.1176-.5269Z"/>
  <path d="M21.2893,13.2437,18.951,15.3364l.0014.0064-.0024.0019a.5249.5249,0,0,0,.2055.9014l.0035.0005.0024.0132,3.0293.872a6.2915,6.2915,0,0,0-.9014-3.8881Z"/>
  <path d="M16.9383,13.4673l0,.0029a.5161.5161,0,0,0,.1143.3037.5236.5236,0,0,0,.7192.0967l.0025-.0019.0088.0039,2.5586-1.814a6.2307,6.2307,0,0,0-3.584-1.7285l.1777,3.1357Z"/>
  <path d="M30.3806,19.0376,27.9016,8.2705a1.9057,1.9057,0,0,0-1.038-1.291L16.83,2.1885a1.9332,1.9332,0,0,0-1.6656,0L5.1326,6.9819a1.9072,1.9072,0,0,0-1.0381,1.291L1.6194,19.04A1.89,1.89,0,0,0,1.88,20.499a1.8364,1.8364,0,0,0,.1088.1514l6.9439,8.6338a1.9244,1.9244,0,0,0,1.5.7158l11.1357-.0024a1.9251,1.9251,0,0,0,1.5-.7149L30.01,20.6479A1.8911,1.8911,0,0,0,30.3806,19.0376Zm-3.8115-.13a.6432.6432,0,0,1-.7812.4429l-.0039,0-.0049-.001-.0069-.0019-.0048-.002-.0572-.0117c-.0346-.0068-.07-.0142-.0981-.0215a2.4643,2.4643,0,0,1-.3589-.1328c-.0576-.0249-.1172-.0513-.1807-.0752l-.0175-.0063a5.5192,5.5192,0,0,0-1.0284-.3013.4119.4119,0,0,0-.2954.0981l-.0371.0254-.0019.0015-.002,0c-.0439-.0088-.1748-.0322-.2519-.0444a7.8166,7.8166,0,0,1-3.459,4.351c.0093.022.02.05.0307.0806a.9352.9352,0,0,0,.0669.1567l.002.002-.001.0029-.0166.042a.4148.4148,0,0,0-.03.3091,5.69,5.69,0,0,0,.5322.9517c.0376.0561.0757.1084.1128.1591a2.4,2.4,0,0,1,.2095.32c.0166.0312.0371.0752.0552.1137l.0229.0484a.6083.6083,0,1,1-1.0947.5176l-.0224-.0455c-.0186-.038-.0381-.0776-.0518-.1088a2.5059,2.5059,0,0,1-.1211-.3658c-.0166-.0595-.0337-.1215-.0537-.185l-.0059-.0166a5.5441,5.5441,0,0,0-.4052-.9922.4177.4177,0,0,0-.2627-.1709l-.0415-.0127-.0015,0-.0015-.0019c-.01-.0171-.0337-.0611-.0595-.1075-.0235-.042-.0484-.0874-.0664-.12a7.8868,7.8868,0,0,1-1.0269.3091,7.7588,7.7588,0,0,1-4.51-.3233l-.1352.2442-.002.001a.481.481,0,0,0-.2563.124,2.2827,2.2827,0,0,0-.336.7207c-.04.1172-.08.2383-.1279.3569-.0205.064-.0376.127-.0537.188a2.4747,2.4747,0,0,1-.12.3623c-.0127.03-.0313.0669-.0493.1025l-.0245.0494h0l-.0005.0024-.0019.002a.6773.6773,0,0,1-.5952.3945.5484.5484,0,0,1-.24-.0542.6426.6426,0,0,1-.2578-.86c.0088-.0171.0176-.0371.0274-.0576.0171-.0371.0346-.0757.05-.1045a2.53,2.53,0,0,1,.21-.3222c.0367-.05.0747-.1026.1118-.1578a5.8209,5.8209,0,0,0,.543-.976.5889.5889,0,0,0-.0532-.336l0-.0019,0-.002.1074-.2573a7.8224,7.8224,0,0,1-3.46-4.32l-.2593.0444-.0015-.001-.0264-.0151a.5961.5961,0,0,0-.3159-.106,5.5447,5.5447,0,0,0-1.0283.3013l-.0171.0064c-.062.0239-.1211.0488-.1782.0732a2.4949,2.4949,0,0,1-.3613.1333c-.0308.0083-.0708.0171-.1094.0249l-.0459.01-.0049.0019-.0068.002-.0049.001-.0039,0a.6078.6078,0,1,1-.2695-1.18l.0039-.001.0053-.0015.002,0,.0034-.0009.0469-.0113c.04-.01.081-.02.1133-.0258a2.4132,2.4132,0,0,1,.3808-.0357c.063-.0024.1284-.0054.1958-.0107l.0142-.0015A5.554,5.554,0,0,0,7.77,17.92a.72.72,0,0,0,.231-.227l.0244-.0318.001-.0014.0014,0,.2471-.0718a7.7765,7.7765,0,0,1,1.2246-5.4126l-.19-.17,0-.002-.0044-.0278a.5983.5983,0,0,0-.1153-.3159,5.6171,5.6171,0,0,0-.8916-.6265c-.0585-.0342-.1157-.0649-.1713-.0942a2.4731,2.4731,0,0,1-.3267-.1973c-.0264-.0195-.0586-.0459-.0894-.0713l-.0356-.0288L7.67,10.6387l-.0049-.0039A.7045.7045,0,0,1,7.4041,10.2a.5725.5725,0,0,1,.1128-.4575A.5835.5835,0,0,1,8,9.5288a.7226.7226,0,0,1,.4214.1592l.0361.0283c.0332.0259.07.0552.0972.0781a2.5254,2.5254,0,0,1,.2671.2759c.04.0469.0825.0952.1284.1441l.01.01a5.5221,5.5221,0,0,0,.7989.72.4159.4159,0,0,0,.31.0406l.043-.0069h.0019l.0015.001c.0357.0264.1484.1074.2134.1514a7.7273,7.7273,0,0,1,3.9233-2.24,7.9671,7.9671,0,0,1,1.0816-.1665l.0141-.2515.001-.0014a.6486.6486,0,0,0,.1939-.3076,5.5779,5.5779,0,0,0-.066-1.0791l-.0009-.0088c-.0093-.0664-.021-.13-.0328-.1914a2.5611,2.5611,0,0,1-.0493-.38c-.0009-.03-.0005-.0679,0-.1045l.0005-.05-.0005-.0073,0-.0093a.6088.6088,0,1,1,1.211,0l.0009.0605c.001.0386.0015.0791.0005.11a2.5348,2.5348,0,0,1-.0493.38c-.0117.0615-.0234.125-.0327.1914l-.0039.0317a5.4479,5.4479,0,0,0-.064,1.0567.4132.4132,0,0,0,.1616.2666l.0328.03.0019.0015v.0019c.0015.0435.0083.1836.0137.2637a7.79,7.79,0,0,1,2.7173.7559,7.8812,7.8812,0,0,1,2.2632,1.65l.226-.1612h.002l.0312.002a.5914.5914,0,0,0,.33-.041,5.4885,5.4885,0,0,0,.7871-.71l.0215-.022c.0454-.0478.0869-.0952.1274-.1416a2.57,2.57,0,0,1,.27-.2783c.0263-.0229.062-.05.0967-.0776l.0366-.0288a.6088.6088,0,1,1,.7544.9472l-.0435.0357c-.0307.0254-.063.0517-.0884.0708a2.4733,2.4733,0,0,1-.3266.1968c-.0562.0293-.1143.06-.1734.0947a5.6889,5.6889,0,0,0-.8921.6269.4152.4152,0,0,0-.1079.293l-.0034.044v.0019l-.0014.001c-.0162.0146-.0508.0459-.0914.082s-.0864.0772-.1186.1065a7.7983,7.7983,0,0,1,1.25,5.3994l.24.07.001.001.0171.0254a.6014.6014,0,0,0,.24.2334,5.595,5.595,0,0,0,1.063.1757l.0122.001c.0674.0059.1328.0083.1963.0108a2.4617,2.4617,0,0,1,.38.0356c.0312.0059.0713.0156.11.0254l.0644.0156A.643.643,0,0,1,26.5691,18.9077Z"/>
  <rect id="_Transparent_Rectangle_" data-name="&lt;Transparent Rectangle&gt;" class="cls-1" width="32" height="32"/>
</svg>
