<svg xmlns="http://www.w3.org/2000/svg" viewBox="0 0 32 32"><path d="M27.9774,9.6279a7.33,7.33,0,0,0-.1186-1.2888,5.2458,5.2458,0,0,0-.4872-1.4948,5.1869,5.1869,0,0,0-.9988-1.3324,4.9557,4.9557,0,0,0-2.1805-1.2433,8.8444,8.8444,0,0,0-2.3059-.2458l-.0044-.0119H10.1143l-.0007.0119a12.578,12.578,0,0,0-1.3221.0591A6.2955,6.2955,0,0,0,7.3792,4.4,5.1155,5.1155,0,0,0,4.2538,7.8152a8.8,8.8,0,0,0-.2459,2.2855L4,21.9065a14.9206,14.9206,0,0,0,.1088,1.5992A5.53,5.53,0,0,0,4.6,25.1205a5.17,5.17,0,0,0,1.443,1.744,4.6907,4.6907,0,0,0,1.4442.7822,7.83,7.83,0,0,0,2.3741.3484c.5034.0032,1.0069.0158,1.5106.0137,3.659-.0154,7.3178.0264,10.9767-.0226a8.6316,8.6316,0,0,0,1.44-.1528A4.8765,4.8765,0,0,0,26.2,26.6613a4.9915,4.9915,0,0,0,1.5931-2.6546,9.6646,9.6646,0,0,0,.2074-2.1v-.1407C28,21.7112,27.9793,9.7855,27.9774,9.6279ZM24.7635,20.7326c-.1536.36-.93.6577-2.2433.8606-.1232.019-.1751.2183-.2463.5445-.0293.1348-.0592.2669-.1.4057a.2451.2451,0,0,1-.26.1943h-.0205a2.1011,2.1011,0,0,1-.3738-.0472,4.921,4.921,0,0,0-.9852-.1044,4.37,4.37,0,0,0-.7106.06,3.4048,3.4048,0,0,0-1.3483.6888,3.912,3.912,0,0,1-2.3668.9328c-.05,0-.0973-.0018-.1335-.0035-.0287.0024-.0584.0035-.0881.0035a3.9062,3.9062,0,0,1-2.3651-.9322,3.4118,3.4118,0,0,0-1.35-.69,4.3612,4.3612,0,0,0-.71-.06,4.858,4.858,0,0,0-.9852.1115,2.1872,2.1872,0,0,1-.3737.0536.2574.2574,0,0,1-.2807-.2012c-.0414-.1407-.0711-.277-.1-.4082-.0716-.328-.1237-.5282-.2465-.5472-1.3133-.2026-2.0893-.5011-2.2439-.8626a.3349.3349,0,0,1-.0272-.114.2109.2109,0,0,1,.1764-.22,4.5854,4.5854,0,0,0,2.7564-1.6391,6.1681,6.1681,0,0,0,.94-1.4616l.0048-.01a.943.943,0,0,0,.09-.79c-.1693-.3991-.73-.5769-1.1007-.6946-.0921-.0291-.1794-.0567-.2488-.0844-.3288-.13-.8693-.4041-.7973-.7828a.7333.7333,0,0,1,.7127-.4683.5052.5052,0,0,1,.2158.043,2.1572,2.1572,0,0,0,.8916.2355.7465.7465,0,0,0,.5134-.1569q-.0145-.2629-.0318-.5256a8.8742,8.8742,0,0,1,.2122-3.5447A4.6074,4.6074,0,0,1,15.8173,7.76q.177-.0015.3539-.0033a4.6152,4.6152,0,0,1,4.2853,2.7606,8.884,8.884,0,0,1,.2118,3.5478l-.0036.0574c-.01.1629-.02.317-.0278.4665a.7215.7215,0,0,0,.4656.1558,2.2321,2.2321,0,0,0,.84-.234.6628.6628,0,0,1,.2751-.0545.832.832,0,0,1,.3133.06l.005.0019a.5825.5825,0,0,1,.4409.4781c.0034.1835-.133.4578-.8039.7226-.0687.0272-.1564.0551-.2489.0844-.3712.1178-.9312.2956-1.1005.6944a.9422.9422,0,0,0,.09.7893l.0048.01a5.4311,5.4311,0,0,0,3.6967,3.1005.211.211,0,0,1,.1764.22A.3408.3408,0,0,1,24.7635,20.7326Z"/><path fill="none" d="M24.7635,20.7326c-.1536.36-.93.6577-2.2433.8606-.1232.019-.1751.2183-.2463.5445-.0293.1348-.0592.2669-.1.4057a.2451.2451,0,0,1-.26.1943h-.0205a2.1011,2.1011,0,0,1-.3738-.0472,4.921,4.921,0,0,0-.9852-.1044,4.37,4.37,0,0,0-.7106.06,3.4048,3.4048,0,0,0-1.3483.6888,3.912,3.912,0,0,1-2.3668.9328c-.05,0-.0973-.0018-.1335-.0035-.0287.0024-.0584.0035-.0881.0035a3.9062,3.9062,0,0,1-2.3651-.9322,3.4118,3.4118,0,0,0-1.35-.69,4.3612,4.3612,0,0,0-.71-.06,4.858,4.858,0,0,0-.9852.1115,2.1872,2.1872,0,0,1-.3737.0536.2574.2574,0,0,1-.2807-.2012c-.0414-.1407-.0711-.277-.1-.4082-.0716-.328-.1237-.5282-.2465-.5472-1.3133-.2026-2.0893-.5011-2.2439-.8626a.3349.3349,0,0,1-.0272-.114.2109.2109,0,0,1,.1764-.22,4.5854,4.5854,0,0,0,2.7564-1.6391,6.1681,6.1681,0,0,0,.94-1.4616l.0048-.01a.943.943,0,0,0,.09-.79c-.1693-.3991-.73-.5769-1.1007-.6946-.0921-.0291-.1794-.0567-.2488-.0844-.3288-.13-.8693-.4041-.7973-.7828a.7333.7333,0,0,1,.7127-.4683.5052.5052,0,0,1,.2158.043,2.1572,2.1572,0,0,0,.8916.2355.7465.7465,0,0,0,.5134-.1569q-.0145-.2629-.0318-.5256a8.8742,8.8742,0,0,1,.2122-3.5447A4.6074,4.6074,0,0,1,15.8173,7.76q.177-.0015.3539-.0033a4.6152,4.6152,0,0,1,4.2853,2.7606,8.884,8.884,0,0,1,.2118,3.5478l-.0036.0574c-.01.1629-.02.317-.0278.4665a.7215.7215,0,0,0,.4656.1558,2.2321,2.2321,0,0,0,.84-.234.6628.6628,0,0,1,.2751-.0545.832.832,0,0,1,.3133.06l.005.0019a.5825.5825,0,0,1,.4409.4781c.0034.1835-.133.4578-.8039.7226-.0687.0272-.1564.0551-.2489.0844-.3712.1178-.9312.2956-1.1005.6944a.9422.9422,0,0,0,.09.7893l.0048.01a5.4311,5.4311,0,0,0,3.6967,3.1005.211.211,0,0,1,.1764.22A.3408.3408,0,0,1,24.7635,20.7326Z" data-icon-path="inner-path"/></svg>