<?xml version="1.0" encoding="utf-8"?>
<!-- Generator: Adobe Illustrator 26.3.1, SVG Export Plug-In . SVG Version: 6.00 Build 0)  -->
<svg version="1.1" id="icon" xmlns="http://www.w3.org/2000/svg" xmlns:xlink="http://www.w3.org/1999/xlink" x="0px" y="0px"
	 width="32px" height="32px" viewBox="0 0 32 32" style="enable-background:new 0 0 32 32;" xml:space="preserve">
<style type="text/css">
	.st0{fill:none;}
</style>
<path d="M30,16c0,3.7-0.6,6.7-1.4,6.7c-0.8,0-1.4-3-1.4-6.7s0.6-6.7,1.4-6.7C29.4,9.3,30,12.3,30,16"/>
<path d="M26.5,16c0,4.1-1.8,7.5-3.9,7.5s-3.9-3.4-3.9-7.5s1.8-7.5,3.9-7.5S26.5,11.9,26.5,16"/>
<path d="M17.8,16c0,4.4-3.5,8-7.9,8S2,20.4,2,16s3.5-8,7.9-8S17.8,11.6,17.8,16"/>
<rect id="_x3C_Transparent_Rectangle_x3E__155_" class="st0" width="32" height="32"/>
</svg>
