<?xml version="1.0" encoding="utf-8"?>
<!-- Generator: Adobe Illustrator 26.3.1, SVG Export Plug-In . SVG Version: 6.00 Build 0)  -->
<svg version="1.1" id="icon" xmlns="http://www.w3.org/2000/svg" xmlns:xlink="http://www.w3.org/1999/xlink" x="0px" y="0px"
	 width="32px" height="32px" viewBox="0 0 32 32" style="enable-background:new 0 0 32 32;" xml:space="preserve">
<style type="text/css">
	.st0{fill:none;}
</style>
<path d="M25,11.6c-0.3-0.1-0.6-0.2-0.9-0.3c0-0.2,0.1-0.4,0.1-0.6c0.7-3.3,0.2-6-1.3-6.9c-1.5-0.8-3.9,0-6.3,2.1
	c-0.2,0.2-0.5,0.4-0.7,0.6c-0.2-0.1-0.3-0.3-0.5-0.4C13,3.9,10.5,3,9,3.9c-1.5,0.8-1.9,3.4-1.3,6.5c0.1,0.3,0.1,0.6,0.2,0.9
	c-0.4,0.1-0.7,0.2-1,0.3c-3,1-4.9,2.7-4.9,4.3c0,1.7,2,3.5,5.1,4.5c0.2,0.1,0.5,0.2,0.8,0.2c-0.1,0.3-0.2,0.7-0.2,1
	c-0.6,3.1-0.1,5.5,1.3,6.4c1.5,0.9,4,0,6.5-2.2c0.2-0.2,0.4-0.4,0.6-0.5c0.2,0.2,0.5,0.5,0.8,0.7c2.4,2.1,4.7,2.9,6.2,2
	c1.5-0.9,2-3.5,1.4-6.7c0-0.2-0.1-0.5-0.2-0.8c0.2-0.1,0.4-0.1,0.5-0.2c3.2-1.1,5.3-2.8,5.3-4.5C30,14.3,28,12.7,25,11.6z M17.5,6.9
	c2.1-1.8,4-2.5,4.9-2c0.9,0.5,1.3,2.7,0.7,5.6c0,0.2-0.1,0.4-0.1,0.6c-1.2-0.3-2.5-0.5-3.7-0.6c-0.7-1-1.5-2-2.4-3
	C17.1,7.3,17.3,7.1,17.5,6.9L17.5,6.9z M10.3,17.4c0.3,0.5,0.5,1,0.8,1.5c0.3,0.5,0.6,1,0.9,1.4c-0.9-0.1-1.7-0.2-2.6-0.4
	C9.6,19.1,9.9,18.3,10.3,17.4z M10.3,14.6c-0.4-0.8-0.6-1.6-0.9-2.4c0.8-0.2,1.7-0.3,2.5-0.4c-0.3,0.5-0.6,0.9-0.9,1.4
	C10.8,13.6,10.5,14.1,10.3,14.6L10.3,14.6z M10.9,16c0.4-0.8,0.8-1.5,1.2-2.3c0.4-0.7,0.9-1.5,1.4-2.2c0.8-0.1,1.7-0.1,2.6-0.1
	c0.9,0,1.7,0,2.6,0.1c0.5,0.7,0.9,1.4,1.3,2.2c0.4,0.7,0.8,1.5,1.2,2.3c-0.4,0.8-0.8,1.5-1.2,2.3c-0.4,0.7-0.9,1.5-1.3,2.2
	c-0.8,0.1-1.7,0.1-2.6,0.1c-0.9,0-1.7,0-2.5-0.1c-0.5-0.7-0.9-1.4-1.4-2.2C11.7,17.5,11.3,16.8,10.9,16L10.9,16z M20.9,18.9
	c0.3-0.5,0.6-1,0.8-1.5c0.4,0.8,0.7,1.6,0.9,2.5c-0.9,0.2-1.7,0.3-2.6,0.4C20.4,19.8,20.7,19.3,20.9,18.9z M21.7,14.6
	c-0.3-0.5-0.5-1-0.8-1.5c-0.3-0.5-0.6-0.9-0.8-1.4c0.9,0.1,1.7,0.3,2.6,0.4C22.4,13,22.1,13.8,21.7,14.6z M16,8.3
	c0.6,0.6,1.1,1.3,1.6,2c-1.1-0.1-2.2-0.1-3.3,0C14.9,9.6,15.5,8.9,16,8.3z M9.6,4.9c0.9-0.5,3,0.2,5.2,2.2c0.1,0.1,0.3,0.3,0.4,0.4
	c-0.9,0.9-1.7,1.9-2.4,3c-1.3,0.1-2.5,0.3-3.7,0.6c-0.1-0.3-0.1-0.6-0.2-0.9C8.3,7.5,8.7,5.4,9.6,4.9z M8.2,19.6
	c-0.2-0.1-0.5-0.1-0.7-0.2c-1.4-0.5-2.5-1.1-3.3-1.7c-0.7-0.6-1-1.2-1-1.7c0-1,1.5-2.3,4.1-3.2c0.3-0.1,0.6-0.2,1-0.3
	C8.6,13.7,9,14.9,9.6,16C9,17.2,8.6,18.4,8.2,19.6z M14.7,25.1c-1.1,1-2.2,1.6-3.1,2c-0.9,0.3-1.5,0.3-2,0.1
	c-0.9-0.5-1.3-2.5-0.8-5.1C8.9,21.7,9,21.4,9,21c1.2,0.3,2.5,0.5,3.8,0.5c0.7,1,1.5,2,2.4,3C15,24.7,14.9,24.9,14.7,25.1z M16,23.7
	c-0.6-0.6-1.1-1.3-1.7-2c0.5,0,1.1,0,1.6,0c0.6,0,1.1,0,1.7,0C17.2,22.4,16.6,23.1,16,23.7z M23.3,25.4c-0.2,0.9-0.5,1.5-0.9,1.7
	c-0.9,0.5-2.8-0.2-4.8-1.9c-0.2-0.2-0.5-0.4-0.7-0.6c0.8-0.9,1.6-1.9,2.3-3c1.3-0.1,2.5-0.3,3.8-0.6c0.1,0.2,0.1,0.5,0.2,0.7
	C23.5,23.1,23.5,24.4,23.3,25.4z M24.3,19.4c-0.2,0-0.3,0.1-0.5,0.1c-0.4-1.2-0.9-2.4-1.4-3.6c0.5-1.1,1-2.3,1.4-3.5
	c0.3,0.1,0.6,0.2,0.8,0.3c2.6,0.9,4.2,2.2,4.2,3.2C28.8,17.1,27.1,18.5,24.3,19.4z"/>
<path d="M16,18.5c0.5,0,1-0.1,1.4-0.4c0.4-0.3,0.7-0.7,0.9-1.1c0.2-0.5,0.2-1,0.1-1.5c-0.1-0.5-0.3-0.9-0.7-1.3
	c-0.3-0.4-0.8-0.6-1.3-0.7c-0.5-0.1-1,0-1.5,0.1c-0.5,0.2-0.9,0.5-1.1,0.9c-0.3,0.4-0.4,0.9-0.4,1.4c0,0.3,0.1,0.7,0.2,1
	c0.1,0.3,0.3,0.6,0.5,0.8c0.2,0.2,0.5,0.4,0.8,0.5C15.3,18.4,15.7,18.5,16,18.5z"/>
<rect id="_x3C_Transparent_Rectangle_x3E__363_" class="st0" width="32" height="32"/>
</svg>
