<svg id="icon" xmlns="http://www.w3.org/2000/svg" viewBox="0 0 32 32"><defs><style>.cls-1{fill:none;}</style></defs><title>mac-shift</title><path d="M21,28H11a2,2,0,0,1-2-2V16H4a1,1,0,0,1-.92-.62,1,1,0,0,1,.21-1.09l12-12a1,1,0,0,1,1.42,0l12,12a1,1,0,0,1,.21,1.09A1,1,0,0,1,28,16H23V26A2,2,0,0,1,21,28ZM6.41,14H10a1,1,0,0,1,1,1V26H21V15a1,1,0,0,1,1-1h3.59L16,4.41Z" transform="translate(0)"/><rect id="_Transparent_Rectangle_" data-name="&lt;Transparent Rectangle&gt;" class="cls-1" width="32" height="32"/></svg>