<?xml version="1.0" encoding="UTF-8"?>
<svg id="icon" xmlns="http://www.w3.org/2000/svg" width="32" height="32" viewBox="0 0 32 32">
  <defs>
    <style>
      .cls-1 {
        fill: none;
      }

      .cls-1, .cls-2 {
        stroke-width: 0px;
      }
    </style>
  </defs>
  <path class="cls-2" d="m30,23h-6c-1.103,0-2-.8975-2-2v-10c0-1.103.897-2,2-2h6v2h-6v10h6v2Z"/>
  <path class="cls-2" d="m18,9h-4c-1.103,0-2,.897-2,2v12h2v-5h4v5h2v-12c0-1.103-.897-2-2-2Zm-4,7v-5h4v5h-4Z"/>
  <polygon class="cls-2" points="8 9 6.4849 14 6 15.977 5.535 14 4 9 2 9 2 23 4 23 4 15 3.8415 13.0039 4.4212 15 6 19.6263 7.5788 15 8.1588 13 8 15 8 23 10 23 10 9 8 9"/>
  <rect id="_Transparent_Rectangle_" data-name="&amp;lt;Transparent Rectangle&amp;gt;" class="cls-1" width="32" height="32"/>
</svg>