<svg id="icon" xmlns="http://www.w3.org/2000/svg" width="32" height="32" viewBox="0 0 32 32"><defs><style>.cls-1{fill:none;}</style></defs><title>machine-learning</title><path d="M16,25a6.9908,6.9908,0,0,1-5.833-3.1287l1.666-1.1074a5.0007,5.0007,0,0,0,8.334,0l1.666,1.1074A6.9908,6.9908,0,0,1,16,25Z"/><path d="M20,14a2,2,0,1,0,2,2A1.9806,1.9806,0,0,0,20,14Z"/><path d="M12,14a2,2,0,1,0,2,2A1.9806,1.9806,0,0,0,12,14Z"/><path d="M30,16V14H28V10a4.0045,4.0045,0,0,0-4-4H22V2H20V6H12V2H10V6H8a4.0045,4.0045,0,0,0-4,4v4H2v2H4v5H2v2H4v3a4.0045,4.0045,0,0,0,4,4H24a4.0045,4.0045,0,0,0,4-4V23h2V21H28V16ZM26,26a2.0023,2.0023,0,0,1-2,2H8a2.0023,2.0023,0,0,1-2-2V10A2.0023,2.0023,0,0,1,8,8H24a2.0023,2.0023,0,0,1,2,2Z"/><rect id="_Transparent_Rectangle_" data-name="&lt;Transparent Rectangle&gt;" class="cls-1" width="32" height="32"/></svg>