<svg xmlns="http://www.w3.org/2000/svg" viewBox="0 0 32 32"><path d="M29.4141,24,12,6.5859a2.0476,2.0476,0,0,0-2.8281,0l-2.586,2.586a2.0021,2.0021,0,0,0,0,2.8281L23.999,29.4141a2.0024,2.0024,0,0,0,2.8281,0l2.587-2.5865a1.9993,1.9993,0,0,0,0-2.8281ZM8,10.5859,10.5859,8l5,5-2.5866,2.5869-5-5Z"/><rect width="2.828" height="2.828" x="2.586" y="14.586" transform="rotate(-45 4 16)"/><rect width="2.828" height="2.828" x="14.586" y="2.586" transform="rotate(-45 16 4)"/><rect width="2.828" height="2.828" x="2.586" y="2.586" transform="rotate(-45 4 4)"/></svg>