<?xml version="1.0" encoding="UTF-8"?>
<svg id="icon" xmlns="http://www.w3.org/2000/svg" width="32" height="32" version="1.1" viewBox="0 0 32 32">
  <!-- Generator: Adobe Illustrator 30.2.1, SVG Export Plug-In . SVG Version: 2.1.1 Build 1)  -->
  <defs>
    <style>
      .st0 {
        fill: none;
      }
    </style>
  </defs>
  <path d="M28,2h-4c-1.1001,0-2,.8999-2,2v1h-12v-1c0-1.1001-.8999-2-2-2h-4c-1.1001,0-2,.8999-2,2v4c0,1.1001.8999,2,2,2h4c1.1001,0,2-.8999,2-2v-1h7.8l-5.8,12h-2v-1c0-1.1001-.8999-2-2-2H4c-1.1001,0-2,.8999-2,2v4c0,1.1001.8999,2,2,2h4c1.1001,0,2-.8999,2-2v-1h2c.8,0,1.6001-.5,1.8-1.2002l6.2-12.7998h2v1c0,1.1001.8999,2,2,2h4c1.1001,0,2-.8999,2-2v-4c0-1.1001-.8999-2-2-2ZM8,8h-4v-4h4v4ZM8,22h-4v-4h4v4ZM28,8h-4v-4h4v4ZM15.7871,26.9966c-.6255-.7224-1.1656-1.5436-1.564-2.4752l-.2231-.5215.2231-.5215c1.4231-3.3287,4.4761-5.4785,7.7769-5.4785.8191,0,1.6177.1464,2.3828.4008l-1.6667,1.6669c-.2321-.0436-.4709-.0677-.7161-.0677-2.2056,0-4,1.7944-4,4,0,.2451.0242.484.0676.716l-2.2805,2.2806h0ZM27.8352,20.5789l2.5789-2.5789-1.4141-1.4141-13.3947,13.4205,1.4011,1.4011,2.0272-2.0272c.9393.3888,1.9368.6196,2.9663.6196,3.3008,0,6.354-2.1498,7.7769-5.4785l.2231-.5215-.2231-.5215c-.4773-1.1164-1.1499-2.0851-1.9417-2.8997v.0002ZM22,28c-.4717,0-.918-.0967-1.3386-.2474l5.0913-5.0912c.1506.4206.2473.8669.2473,1.3386,0,2.2056-1.7944,4-4,4Z"/>
  <rect id="__x3C_Transparent_Rectangle_x3E_" class="st0" width="32" height="32"/>
</svg>