<svg id="icon" xmlns="http://www.w3.org/2000/svg" width="32" height="32" viewBox="0 0 32 32">
  <defs>
    <style>
      .cls-1 {
        fill: none;
      }
    </style>
  </defs>
  <title>math-curve</title>
  <path d="M10.3555,23.0581C12.77,24.5918,15.6208,26,17.9514,26a3.8729,3.8729,0,0,0,2.856-1.084c2.2859-2.29.14-6.3979-1.938-10.3721L24.67,8.7427c1.07.686,2.1038,1.4253,3.0117,2.124L29,9.3486c-.7783-.6064-1.772-1.3383-2.8721-2.0634L30,3.4131,28.5859,2,24.3794,6.2061c-3.3164-1.91-7.1079-3.2461-9.2288-1.1216-2.0388,2.0425-.5512,5.5317,1.2683,9.082l-6.3071,6.3066c-1.0322-.7133-1.9985-1.4448-2.8-2.101L6,19.8848c.6145.5058,1.5513,1.2451,2.6653,2.0351L4,26.585V2H2V28a2,2,0,0,0,2,2H30V28H5.4133ZM16.5647,6.501c1.1357-1.1377,3.6931-.2862,6.3372,1.1831l-4.9947,4.9941C16.5942,10.0591,15.5562,7.5112,16.5647,6.501Zm.8215,9.5259c1.58,3.0317,3.1822,6.2959,2.0071,7.4726-1.3125,1.3145-4.5227-.0254-7.572-1.9077Z"/>
  <rect id="_Transparent_Rectangle_" data-name="&lt;Transparent Rectangle&gt;" class="cls-1" width="32" height="32"/>
</svg>
