<?xml version="1.0" encoding="UTF-8"?>
<svg id="icon" xmlns="http://www.w3.org/2000/svg" width="32" height="32" viewBox="0 0 32 32">
  <defs>
    <style>
      .cls-1 {
        fill: none;
      }

      .cls-1, .cls-2 {
        stroke-width: 0px;
      }
    </style>
  </defs>
  <path class="cls-2" d="m24,13c-1.8584,0-3.4106,1.2798-3.8579,3h-6.1421c-2.7571,0-5-2.2432-5-5v-1.1421c1.7202-.4473,3-1.9995,3-3.8579,0-2.2056-1.7944-4-4-4s-4,1.7944-4,4c0,1.8584,1.2798,3.4106,3,3.8579v12.2842c-1.7202.4468-3,1.9995-3,3.8579,0,2.2061,1.7944,4,4,4s4-1.7939,4-4c0-1.8584-1.2798-3.4111-3-3.8579v-6.2524c1.2717,1.3003,3.042,2.1104,5,2.1104h6.1421c.4473,1.7202,1.9995,3,3.8579,3,2.2056,0,4-1.7944,4-4s-1.7944-4-4-4Zm-14,13c0,1.1025-.897,2-2,2s-2-.8975-2-2,.897-2,2-2,2,.8975,2,2ZM6,6c0-1.103.897-2,2-2s2,.897,2,2-.897,2-2,2-2-.897-2-2Zm18,13c-1.1028,0-2-.8975-2-2s.8972-2,2-2,2,.8975,2,2-.8972,2-2,2Z"/>
  <rect id="_Transparent_Rectangle_" data-name="&amp;lt;Transparent Rectangle&amp;gt;" class="cls-1" width="32" height="32"/>
</svg>