<svg id="icon" xmlns="http://www.w3.org/2000/svg" width="32" height="32" viewBox="0 0 32 32"><defs><style>.cls-1{fill:none;}</style></defs><title>meter</title><path d="M26,16a9.9283,9.9283,0,0,0-1.1392-4.6182l-1.4961,1.4961A7.9483,7.9483,0,0,1,24,16Z"/><path d="M23.4141,10,22,8.5859l-4.7147,4.7147A2.9659,2.9659,0,0,0,16,13a3,3,0,1,0,3,3,2.9659,2.9659,0,0,0-.3006-1.2853ZM16,17a1,1,0,1,1,1-1A1.0013,1.0013,0,0,1,16,17Z"/><path d="M16,8a7.9515,7.9515,0,0,1,3.1223.6353l1.4961-1.4961A9.9864,9.9864,0,0,0,6,16H8A8.0092,8.0092,0,0,1,16,8Z"/><path d="M16,30A14,14,0,1,1,30,16,14.0158,14.0158,0,0,1,16,30ZM16,4A12,12,0,1,0,28,16,12.0137,12.0137,0,0,0,16,4Z"/><rect id="_Transparent_Rectangle_" data-name="&lt;Transparent Rectangle&gt;" class="cls-1" width="32" height="32"/></svg>