<svg id="icon" xmlns="http://www.w3.org/2000/svg" viewBox="0 0 32 32"><defs><style>.cls-1{fill:none;}</style></defs><title>microphone--off--filled</title><path d="M23,17a7,7,0,0,1-11.73,5.14l1.42-1.41A5,5,0,0,0,21,17V12.42l9-9L28.59,2,2,28.59,3.41,30l6.44-6.44A8.91,8.91,0,0,0,15,25.94V28H11v2H21V28H17V25.94A9,9,0,0,0,25,17V14H23Z"/><path d="M9,17.32c0-.11,0-.21,0-.32V14H7v3a9,9,0,0,0,.25,2.09Z"/><path d="M20.76,5.58A5,5,0,0,0,11,7v8.34Z"/><rect id="_Transparent_Rectangle_" data-name="&lt;Transparent Rectangle&gt;" class="cls-1" width="32" height="32"/></svg>