<svg xmlns="http://www.w3.org/2000/svg" viewBox="0 0 32 32"><path d="M25.3943,24a7.8772,7.8772,0,0,0-1.6707-8.5684,3.918,3.918,0,0,0-1.0844-4.414l2.7759-2.7759a2.0025,2.0025,0,0,0,0-2.8286L22.5869,2.5849a2.0021,2.0021,0,0,0-2.8286,0L6.5859,15.7573a2.0027,2.0027,0,0,0,0,2.8286l2.8282,2.8282a2.0024,2.0024,0,0,0,2.8286,0l4.7749-4.7754a3.9329,3.9329,0,0,0,5.5139.4326A5.9442,5.9442,0,0,1,23.1775,24H16v4H4v2H28V24ZM10.8281,20,8,17.1714,9.8787,15.293l2.8283,2.8281ZM16,14a3.9811,3.9811,0,0,0,.0762.7524L14.1211,16.707l-2.8284-2.8281,9.88-9.88L24.001,6.8271l-3.2488,3.2491A3.9771,3.9771,0,0,0,16,14Zm4,2a2,2,0,1,1,2-2A2.0023,2.0023,0,0,1,20,16Zm6,12H18V26h8Z"/></svg>