<svg id="icon" xmlns="http://www.w3.org/2000/svg" viewBox="0 0 32 32"><defs><style>.cls-1{fill:none;}</style></defs><title>migrate</title><path d="M26,2H6A2,2,0,0,0,4,4V8a2,2,0,0,0,2,2h9v6.17l-2.59-2.58L11,15l5,5,5-5-1.41-1.41L17,16.17V10h9a2,2,0,0,0,2-2V4A2,2,0,0,0,26,2Zm0,6H6V4H26Z"/><circle cx="9" cy="6" r="1"/><path d="M9,5a1,1,0,1,0,1,1A1,1,0,0,0,9,5Z"/><path d="M26,24v4H6V24H26m0-2H6a2,2,0,0,0-2,2v4a2,2,0,0,0,2,2H26a2,2,0,0,0,2-2V24a2,2,0,0,0-2-2Z"/><circle cx="23" cy="26" r="1"/><path d="M23,25a1,1,0,1,0,1,1,1,1,0,0,0-1-1Z"/><rect id="_Transparent_Rectangle_" data-name="&lt;Transparent Rectangle&gt;" class="cls-1" width="32" height="32"/></svg>