<svg id="icon" xmlns="http://www.w3.org/2000/svg" width="32" height="32" viewBox="0 0 32 32"><defs><style>.cls-1{fill:none;}</style></defs><title>mixed-rain-hail</title><circle cx="24.5" cy="25.5" r="1.5"/><circle cx="21.5" cy="29.5" r="1.5"/><polygon points="15.868 30.496 14.132 29.504 17.276 24 11.277 24 16.132 15.504 17.868 16.496 14.723 22 20.724 22 15.868 30.496"/><path d="M9,32a1,1,0,0,1-.8944-1.4474l2-4.0005a1,1,0,1,1,1.7888.8947l-2,4A.9981.9981,0,0,1,9,32Z"/><path d="M24.8008,9.1362a8.9943,8.9943,0,0,0-17.6006,0,6.4929,6.4929,0,0,0,.23,12.7681L6.106,24.5527a1,1,0,1,0,1.7885.8946l2-4a1,1,0,0,0-.447-1.3418A.9786.9786,0,0,0,9,20.01V20H8.5a4.4975,4.4975,0,0,1-.356-8.981l.8155-.0639.0991-.812a6.9938,6.9938,0,0,1,13.8838,0l.0986.812.8154.0639A4.4975,4.4975,0,0,1,23.5,20H23v2h.5A6.4974,6.4974,0,0,0,24.8008,9.1362Z"/><rect id="_Transparent_Rectangle_" data-name="&lt;Transparent Rectangle&gt;" class="cls-1" width="32" height="32"/></svg>