<?xml version="1.0" encoding="UTF-8"?>
<svg id="icon" xmlns="http://www.w3.org/2000/svg" width="32" height="32" viewBox="0 0 32 32">
  <defs>
    <style>
      .cls-1 {
        fill: none;
      }
    </style>
  </defs>
  <path d="m30,28c0-2.9668-2.167-5.4312-5-5.9097v-1.0903h1v-2h-4v2h1v1.0903c-2.833.4785-5,2.9429-5,5.9097h-1v2h14v-2h-1Zm-10,0c0-2.2056,1.7944-4,4-4s4,1.7944,4,4h-8Z"/>
  <path d="m14,28h-5V8h14v8h2V4c0-1.103-.8975-2-2-2h-14c-1.103,0-2,.897-2,2v24c0,1.1025.897,2,2,2h5v-2ZM9,4h14v2h-14v-2Z"/>
  <rect id="_Transparent_Rectangle_" data-name="&amp;lt;Transparent Rectangle&amp;gt;" class="cls-1" width="32" height="32"/>
</svg>