<?xml version="1.0" encoding="UTF-8"?>
<svg id="icon" xmlns="http://www.w3.org/2000/svg" width="32" height="32" version="1.1" viewBox="0 0 32 32">
  <!-- Generator: Adobe Illustrator 30.2.1, SVG Export Plug-In . SVG Version: 2.1.1 Build 1)  -->
  <defs>
    <style>
      .st0 {
        fill: none;
      }
    </style>
  </defs>
  <g>
    <rect x="6.0179" y="22.0061" width="4.9985" height="2.0003"/>
    <rect x="6.0261" y="17.0055" width="4.9985" height="2.0003"/>
    <path d="M28.0006,24.012c1.1042,0,1.9994-.8956,1.9994-2.0003s-.8952-2.0003-1.9994-2.0003c-.7381,0-1.3757.4046-1.722.9999h-2.7366l3.1825-4.0543c.089.0121.1773.0271.2696.0271,1.1042,0,1.9994-.8955,1.9994-2.0003s-.8952-2.0003-1.9994-2.0003-1.9994.8956-1.9994,2.0003c0,.2654.0542.5174.148.7491l-3.6383,4.6349-3.6474-4.6533c.0893-.2268.1422-.4721.1422-.7307,0-1.1046-.8952-2.0003-1.9994-2.0003s-1.9994.8956-1.9994,2.0003.8952,2.0003,1.9994,2.0003c.0987,0,.1933-.0151.2882-.0291l3.1793,4.0562h-2.7533c-.3463-.5953-.9839-.9999-1.722-.9999-1.1043,0-1.9994.8954-1.9994,2.0003s.8951,2.0003,1.9994,2.0003c.7382,0,1.3759-.4048,1.7222-1.0004h2.7149l-3.1523,4.0157c-.0913-.0127-.1821-.0278-.277-.0278-1.1042,0-1.9994.8955-1.9994,2.0003s.8952,2.0003,1.9994,2.0003,1.9994-.8956,1.9994-2.0003c0-.2627-.0538-.512-.1457-.7418l3.6496-4.6493,3.6378,4.641c-.0924.2303-.1462.4803-.1462.7435,0,1.1046.8951,2.0003,1.9994,2.0003s1.9994-.8956,1.9994-2.0003-.8952-2.0003-1.9994-2.0003c-.0943,0-.1844.0151-.2752.0277l-3.1423-4.009h2.7018c.3463.5955.984,1.0004,1.7222,1.0004h0Z"/>
    <path d="M22.4101,11.0047l-.0107-1.0158c-.0029-.2613-.1079-.5108-.2924-.6959l-6.9858-6.9995c-.1874-.188-.4418-.2935-.7073-.2935H5.2124v.0063h-1.213c-1.1027,0-1.9994.8971-1.9994,2.0012l.0195,24.0057c0,1.1032.8967,2.0003,1.9994,2.0003h6.9949v-2.0003l-6.9949-.001-.0195-24.0057h2.0092v-.0063h5.9893l.0143,5.0075c0,1.1217.8782,2.0003,1.9994,2.0003l6.9881-.0034,1.4119.0003M13.9974,4.0003h.0021l4.9965,5.0067-4.9843-.0021s-.0143-5.0046-.0143-5.0046Z"/>
  </g>
  <rect id="_x3C_Transparent_Rectangle_x3E_" class="st0" width="32" height="32"/>
</svg>