<svg id="icon" xmlns="http://www.w3.org/2000/svg" width="32" height="32" viewBox="0 0 32 32"><defs><style>.cls-1{fill:none;}</style></defs><title>model--reference</title><polygon points="4 21 4 23 7.586 23 2 28.586 3.414 30 9 24.414 9 28 11 28 11 21 4 21"/><path d="M8.2006,17.4736,5.19,14h5.1119L16,29.5269,30.2842,13.0454,23.5,4H8.5L1.7158,13.0454,6.8773,19Zm7.7984,6.2476L12.4318,14H19.568ZM23,6.6667,27,12H23ZM26.81,14,17.9427,24.2314,21.6978,14ZM21,6v5.1133L17.8043,6Zm-1.8043,6H12.8043L16,6.8867ZM11,6h3.1957L11,11.1133ZM9,6.6667V12H5Z"/><rect id="_Transparent_Rectangle_" data-name="&lt;Transparent Rectangle&gt;" class="cls-1" width="32" height="32"/></svg>