<?xml version="1.0" encoding="UTF-8"?>
<svg id="icon" xmlns="http://www.w3.org/2000/svg" width="32" height="32" viewBox="0 0 32 32">
  <defs>
    <style>
      .cls-1 {
        fill: none;
      }

      .cls-1, .cls-2 {
        stroke-width: 0px;
      }
    </style>
  </defs>
  <path class="cls-2" d="m29,24.1841V7.8159c1.1616-.4146,2-1.5142,2-2.8159,0-1.6543-1.3457-3-3-3s-3,1.3457-3,3c0,.3916.0806.7632.2173,1.106l-9.2173,8.0654L6.7827,6.1064c.137-.3433.2173-.7148.2173-1.1064,0-1.6543-1.3457-3-3-3S1,3.3457,1,5c0,1.3018.8384,2.4014,2,2.8154v16.3691c-1.1616.4141-2,1.5137-2,2.8154,0,1.6543,1.3457,3,3,3s3-1.3457,3-3c0-.6665-.2258-1.2769-.5952-1.7754l5.3335-4.667,2.3645,4.1377c-.6677.5508-1.1028,1.3735-1.1028,2.3047,0,1.6543,1.3457,3,3,3s3-1.3457,3-3c0-.9312-.4353-1.7539-1.1028-2.3047l2.3645-4.1377,5.3335,4.667c-.3694.4985-.5952,1.1089-.5952,1.7754,0,1.6543,1.3457,3,3,3s3-1.3457,3-3c0-1.3018-.8384-2.4014-2-2.8159Zm-1-20.1841c.5515,0,1,.4487,1,1s-.4485,1-1,1-1-.4487-1-1,.4485-1,1-1Zm-3.822,5.6729l-4.4397,7.7695-2.2197-1.9424,6.6594-5.8271Zm-9.6965,5.8271l-2.22,1.9424-4.4397-7.7695,6.6597,5.8271ZM4,4c.5515,0,1,.4487,1,1s-.4485,1-1,1-1-.4487-1-1,.4485-1,1-1Zm0,24c-.5515,0-1-.4487-1-1s.4485-1,1-1,1,.4487,1,1-.4485,1-1,1Zm1-4.2036v-15.0308l5.7261,10.0205-5.7261,5.0103Zm11,4.2036c-.5515,0-1-.4487-1-1s.4485-1,1-1,1,.4487,1,1-.4485,1-1,1Zm0-4.0151l-2.7261-4.771,2.7261-2.3853,2.7261,2.3853-2.7261,4.771Zm11-15.2197v15.0312l-5.7261-5.0103,5.7261-10.021Zm1,19.2349c-.5515,0-1-.4487-1-1s.4485-1,1-1,1,.4487,1,1-.4485,1-1,1Z"/>
  <g id="_Transparent_Rectangle_" data-name="&amp;lt;Transparent Rectangle&amp;gt;">
    <rect class="cls-1" width="32" height="32"/>
  </g>
</svg>