<svg id="icon" xmlns="http://www.w3.org/2000/svg" width="32" height="32" viewBox="0 0 32 32">
  <defs>
    <style>
      .cls-1 {
        fill: none;
      }
    </style>
  </defs>
  <title>model--reference</title>
  <polygon points="4 20 4 22 8.586 22 2 28.586 3.414 30 10 23.414 10 28 12 28 12 20 4 20"/>
  <path d="M23.5,4H8.5L1.7158,13.0454,6.01,18l1.5114-1.31L5.19,14h5.2554L16,22.8867,21.5544,14H26.81L15.8125,26.6919,17.3242,28l12.96-14.9546ZM5,12,9.5,6h4.6958l-3.75,6ZM16,6.8867,19.1958,12H12.8042Zm0,12.2266L12.8044,14h6.3912ZM21.5542,12l-3.75-6H22.5L27,12Z" transform="translate(0)"/>
  <rect id="_Transparent_Rectangle_" data-name="&lt;Transparent Rectangle&gt;" class="cls-1" width="32" height="32"/>
</svg>
