<?xml version="1.0" encoding="UTF-8"?>
<svg id="icon" xmlns="http://www.w3.org/2000/svg" width="32" height="32" viewBox="0 0 32 32">
  <defs>
    <style>
      .cls-1 {
        fill: none;
      }

      .cls-1, .cls-2 {
        stroke-width: 0px;
      }
    </style>
  </defs>
  <path class="cls-2" d="m28,31v-2.2773c-.5952-.3464-1-.9841-1-1.7227,0-.7383.4048-1.3762,1-1.7227v-5.2773h2v5.2773c.5952.3464,1,.9844,1,1.7227,0,.7385-.4048,1.3762-1,1.7227v2.2773h-2Z"/>
  <path class="cls-2" d="m22,31v-5.2773c-.5952-.3464-1-.9841-1-1.7227,0-.7383.4048-1.3762,1-1.7227v-2.2773h2v2.2773c.5952.3464,1,.9844,1,1.7227,0,.7385-.4048,1.3762-1,1.7227v5.2773h-2Z"/>
  <path class="cls-2" d="m9.8579,17h3.728s-5.5669,5.5669-5.5669,5.5669c-.595-.3516-1.2795-.5669-2.019-.5669-2.2056,0-4,1.7944-4,4,0,2.2056,1.7944,4,4,4,1.8584,0,3.4106-1.2798,3.8579-3h8.1421s0-2,0-2h-8.1421c-.0942-.3633-.2383-.7036-.4248-1.019l6.981-6.981h7.5859s0-1,0-1c0-1.1025.8972-2,2-2s2,.8975,2,2v1s2,0,2,0v-1c0-2.2056-1.7944-4-4-4-1.8584,0-3.4106,1.2798-3.8579,3h-3.728s5.5669-5.5669,5.5669-5.5669c.595.3516,1.2795.5669,2.019.5669,2.2056,0,4-1.7944,4-4,0-2.2056-1.7944-4-4-4-1.8584,0-3.4106,1.2798-3.8579,3h-12.2842c-.4473-1.7202-1.9995-3-3.8579-3-2.2056,0-4,1.7944-4,4,0,2.2056,1.7944,4,4,4,.7395,0,1.4241-.2153,2.019-.5669l5.5669,5.5669h-3.728c-.4473-1.7202-1.9995-3-3.8579-3-2.2056,0-4,1.7944-4,4s1.7944,4,4,4c1.8584,0,3.4106-1.2798,3.8579-3Zm-1.8579-1c0,1.1025-.8972,2-2,2s-2-.8975-2-2,.8972-2,2-2,2,.8975,2,2Zm-2,8c1.1028,0,2,.8975,2,2,0,1.1025-.8972,2-2,2s-2-.8975-2-2c0-1.1025.8972-2,2-2Zm3.8579-17h12.2842c.0942.3633.2383.7036.4248,1.019l-6.5669,6.5669-6.5669-6.5669c.1865-.3154.3306-.6558.4248-1.019Zm-1.8579-1c0,1.1025-.8972,2-2,2s-2-.8975-2-2c0-1.1025.8972-2,2-2s2,.8975,2,2Zm18,2c-1.1028,0-2-.8975-2-2s.8972-2,2-2,2,.8975,2,2-.8972,2-2,2Z"/>
  <g id="_Transparent_Rectangle_" data-name="&amp;lt;Transparent Rectangle&amp;gt;">
    <rect class="cls-1" width="32" height="32"/>
  </g>
</svg>