<?xml version="1.0" encoding="UTF-8"?>
<svg id="icon" xmlns="http://www.w3.org/2000/svg" width="32" height="32" viewBox="0 0 32 32">
  <defs>
    <style>
      .cls-1 {
        fill: none;
      }

      .cls-1, .cls-2 {
        stroke-width: 0px;
      }
    </style>
  </defs>
  <polygon class="cls-2" points="4 20 4 22 8.5859 22 2 28.5859 3.4141 30 10 23.4141 10 28 12 28 12 20 4 20"/>
  <path class="cls-2" d="m26,20c2.2056,0,4-1.7944,4-4s-1.7944-4-4-4c-1.8584,0-3.4106,1.2798-3.8579,3h-3.728l5.5669-5.5669c.595.3516,1.2795.5669,2.019.5669,2.2056,0,4-1.7944,4-4s-1.7944-4-4-4c-1.8584,0-3.4106,1.2798-3.8579,3h-12.2842c-.4473-1.7202-1.9995-3-3.8579-3-2.2056,0-4,1.7944-4,4s1.7944,4,4,4c.7395,0,1.4241-.2153,2.019-.5669l5.5669,5.5669h-3.728c-.4473-1.7202-1.9995-3-3.8579-3-2.2056,0-4,1.7944-4,4v1h2v-1c0-1.1025.8972-2,2-2s2,.8975,2,2v1h7.5859l6.981,6.981c-.1865.3154-.3306.6558-.4248,1.019h-7.1421v2h7.1421c.4473,1.7202,1.9995,3,3.8579,3,2.2056,0,4-1.7944,4-4s-1.7944-4-4-4c-.7395,0-1.4241.2153-2.019.5669l-5.5669-5.5669h3.728c.4473,1.7202,1.9995,3,3.8579,3Zm0-6c1.1028,0,2,.8975,2,2s-.8972,2-2,2-2-.8975-2-2,.8972-2,2-2Zm2,12c0,1.1025-.8972,2-2,2s-2-.8975-2-2,.8972-2,2-2,2,.8975,2,2Zm-5.4331-17.981l-6.5669,6.5669-6.5669-6.5669c.1865-.3154.3306-.6558.4248-1.019h12.2842c.0942.3633.2383.7036.4248,1.019Zm3.4331-4.019c1.1028,0,2,.8975,2,2s-.8972,2-2,2-2-.8975-2-2,.8972-2,2-2ZM4,6c0-1.1025.8972-2,2-2s2,.8975,2,2-.8972,2-2,2-2-.8975-2-2Z"/>
  <g id="_Transparent_Rectangle_" data-name="&amp;lt;Transparent Rectangle&amp;gt;">
    <rect class="cls-1" width="32" height="32"/>
  </g>
</svg>