<?xml version="1.0" encoding="UTF-8"?>
<svg id="icon" xmlns="http://www.w3.org/2000/svg" width="32" height="32" viewBox="0 0 32 32">
  <defs>
    <style>
      .cls-1 {
        fill: none;
      }
    </style>
  </defs>
  <path d="M19.3,16.7l-4.3-4.3v-6.4h2v5.6l3.7,3.7s-1.4,1.4-1.4,1.4ZM16,4c4.4,0,8,3.6,8,8s-3.6,8-8,8-8-3.6-8-8,3.6-8,8-8M16,2c-5.5,0-10,4.5-10,10s4.5,10,10,10,10-4.5,10-10S21.5,2,16,2h0ZM16,30l5-6h-10l5,6Z"/>
  <rect id="_Transparent_Rectangle_" data-name=" &amp;lt;Transparent Rectangle&amp;gt;" class="cls-1" width="32" height="32"/>
</svg>