<svg id="icon" xmlns="http://www.w3.org/2000/svg" viewBox="0 0 32 32"><defs><style>.cls-1{fill:#fff;}.cls-2{fill:none;}</style></defs><title>MP4</title><path d="M28,10v8h0V10m1-1H27v8H24V9H22V19h5v4h2V19h1V17H29V9Z"/><path d="M14,23H12V9h6a2,2,0,0,1,2,2v5a2,2,0,0,1-2,2H14Zm0-7h4V11H14Z"/><polygon points="8 9 6.49 14 6 15.98 5.54 14 4 9 2 9 2 23 4 23 4 15 3.84 13 4.42 15 6 19.63 7.58 15 8.16 13 8 15 8 23 10 23 10 9 8 9"/><rect id="_Transparent_Rectangle_" data-name="&lt;Transparent Rectangle&gt;" class="cls-2" width="32" height="32"/></svg>
