<svg id="icon" xmlns="http://www.w3.org/2000/svg" width="32" height="32" viewBox="0 0 32 32"><defs><style>.cls-1{fill:none;}</style></defs><title>MPG2</title><path d="M32,21H26V17a2.002,2.002,0,0,1,2-2h2V13H26V11h4a2.0023,2.0023,0,0,1,2,2v2a2.0023,2.0023,0,0,1-2,2H28v2h4Z"/><path d="M24,21H20a2.0023,2.0023,0,0,1-2-2V13a2.002,2.002,0,0,1,2-2h4v2H20v6h2V17H21l0-2h3Z"/><path d="M14,11H9V21h2V18h3a2.0027,2.0027,0,0,0,2-2V13A2.0023,2.0023,0,0,0,14,11Zm-3,5V13h3l.001,3Z"/><polygon points="7 11 5 11 3.5 15 2 11 0 11 0 21 2 21 2 14 3.5 18 5 14 5 21 7 21 7 11"/><rect id="_Transparent_Rectangle_" data-name="&lt;Transparent Rectangle&gt;" class="cls-1" width="32" height="32"/></svg>