<?xml version="1.0" encoding="UTF-8"?>
<svg id="icon" xmlns="http://www.w3.org/2000/svg" width="32" height="32" viewBox="0 0 32 32">
  <defs>
    <style>
      .cls-1 {
        fill: none;
      }
    </style>
  </defs>
  <path d="M20,25h-6c-1.66,0-3,1.34-3,3v2h2v-2c0-.55.45-1,1-1h6c.55,0,1,.45,1,1v2h2v-2c0-1.66-1.34-3-3-3ZM13,20c0,2.21,1.79,4,4,4s4-1.79,4-4-1.79-4-4-4-4,1.79-4,4ZM19,20c0,1.1-.9,2-2,2s-2-.9-2-2,.9-2,2-2,2,.9,2,2ZM22,18c1.1,0,2,.9,2,2s-.9,2-2,2v2c2.21,0,4-1.79,4-4s-1.79-4-4-4v2ZM25,25h-1v2h1c.55,0,1,.45,1,1v2h2v-2c0-1.66-1.34-3-3-3ZM6,4h16v10h2V4c0-1.1-.9-2-2-2H6c-1.1,0-2,.9-2,2v24c0,1.1.9,2,2,2h3v-2h-3V4Z"/>
  <rect id="_Transparent_Rectangle_" data-name="&amp;lt;Transparent Rectangle&amp;gt;" class="cls-1" width="32" height="32"/>
</svg>