<svg id="icon" xmlns="http://www.w3.org/2000/svg" width="32" height="32" viewBox="0 0 32 32">
  <defs>
    <style>
      .cls-1 {
        fill: none;
      }
    </style>
  </defs>
  <polygon points="26.41 7 30 3.41 28.59 2 25 5.59 21.41 2 20 3.41 23.59 7 20 10.59 21.41 12 25 8.41 28.59 12 30 10.59 26.41 7"/>
  <path d="M24,15v7.5562A3.9552,3.9552,0,0,0,22,22a4,4,0,1,0,4,4V15ZM22,28a2,2,0,1,1,2-2A2.0027,2.0027,0,0,1,22,28Z"/>
  <path d="M17,6H10A2.002,2.002,0,0,0,8,8V22.5562A3.9557,3.9557,0,0,0,6,22a4,4,0,1,0,4,4V8h7ZM6,28a2,2,0,1,1,2-2A2.0023,2.0023,0,0,1,6,28Z"/>
  <rect id="_Transparent_Rectangle_" data-name=" Transparent Rectangle " class="cls-1" width="32" height="32"/>
</svg>
