<svg id="Layer_1" data-name="Layer 1" xmlns="http://www.w3.org/2000/svg" width="32" height="32" viewBox="0 0 32 32">
  <defs>
    <style>
      .cls-1 {
        fill: none;
      }
    </style>
  </defs>
  <path d="M16,24a8,8,0,1,1,8-8A8.0092,8.0092,0,0,1,16,24Zm0-14a6,6,0,1,0,6,6A6.0067,6.0067,0,0,0,16,10Z" transform="translate(0 0)"/>
  <circle cx="16" cy="16" r="2"/>
  <circle cx="16" cy="4" r="2"/>
  <circle cx="16" cy="28" r="2"/>
  <circle cx="28" cy="16" r="2"/>
  <circle cx="4" cy="16" r="2"/>
  <circle cx="7.5147" cy="7.5147" r="2"/>
  <circle cx="24.4853" cy="24.4853" r="2"/>
  <circle cx="24.4853" cy="7.5147" r="2"/>
  <circle cx="7.5147" cy="24.4853" r="2"/>
  <rect id="_Transparent_Rectangle_" data-name="&lt;Transparent Rectangle&gt;" class="cls-1" width="32" height="32" transform="translate(32 32) rotate(-180)"/>
</svg>
