<svg id="Layer_1" data-name="Layer 1" xmlns="http://www.w3.org/2000/svg" width="32" height="32" viewBox="0 0 32 32">
  <defs>
    <style>
      .cls-1 {
        fill: none;
      }
    </style>
  </defs>
  <polygon points="18 9 18 15 14 15 14 9 12 9 12 23 14 23 14 17 18 17 18 23 20 23 20 9 18 9"/>
  <path d="M16,30A14,14,0,1,1,30,16,14.0158,14.0158,0,0,1,16,30ZM16,4A12,12,0,1,0,28,16,12.0137,12.0137,0,0,0,16,4Z" transform="translate(0 0)"/>
  <rect id="_Transparent_Rectangle_" data-name="&lt;Transparent Rectangle&gt;" class="cls-1" width="32" height="32" transform="translate(32 32) rotate(-180)"/>
</svg>
