<svg id="icon" xmlns="http://www.w3.org/2000/svg" width="32" height="32" viewBox="0 0 32 32"><defs><style>.cls-1{fill:none;}</style></defs><title>network--3</title><path d="M30,30H22V22h8Zm-6-2h4V24H24Z"/><path d="M20,27H8A6,6,0,0,1,8,15h2v2H8a4,4,0,0,0,0,8H20Z"/><path d="M20,20H12V12h8Zm-6-2h4V14H14Z"/><path d="M24,17H22V15h2a4,4,0,0,0,0-8H12V5H24a6,6,0,0,1,0,12Z"/><path d="M10,10H2V2h8ZM4,8H8V4H4Z"/><rect id="_Transparent_Rectangle_" data-name="&lt;Transparent Rectangle&gt;" class="cls-1" width="32" height="32" transform="translate(32 32) rotate(180)"/></svg>