<svg id="icon" xmlns="http://www.w3.org/2000/svg" width="32" height="32" viewBox="0 0 32 32">
  <defs>
    <style>
      .cls-1 {
        fill: none;
      }
    </style>
  </defs>
  <path d="M26,16.5859V13a9.8828,9.8828,0,0,0-1.0869-4.499L30,3.4141,28.5859,2,2,28.5859,3.4141,30l6-6H11v1a5,5,0,0,0,10,0V24h7a1,1,0,0,0,1-1V20a.9993.9993,0,0,0-.293-.707ZM19,25a3,3,0,0,1-6,0V24h6Z"/>
  <path d="M21.61,4.7383A9.9256,9.9256,0,0,0,17,3.0508V1H15V3.0508A10.0136,10.0136,0,0,0,6,13v3.5859L3.293,19.293A.9993.9993,0,0,0,3,20v3a.9738.9738,0,0,0,.0585.29Z"/>
  <rect id="_Transparent_Rectangle_" data-name="&lt;Transparent Rectangle&gt;" class="cls-1" width="32" height="32"/>
</svg>
