<svg id="icon" xmlns="http://www.w3.org/2000/svg" viewBox="0 0 32 32"><defs><style>.cls-1{fill:none;}</style></defs><title>notification--off--filled</title><path d="M26,17.6V13a10,10,0,0,0-1.09-4.5L30,3.41,28.59,2,2,28.59,3.41,30l5-5H11a5,5,0,0,0,10,0h7a.94.94,0,0,0,1-1V21a.91.91,0,0,0-.3-.7ZM16,28a3,3,0,0,1-3-3h6A3,3,0,0,1,16,28Z"/><path d="M21.63,4.72A9.78,9.78,0,0,0,17,3V1H15V3A10.15,10.15,0,0,0,6,13v4.6L3.3,20.3A.91.91,0,0,0,3,21v2.34Z"/><rect id="_Transparent_Rectangle_" data-name="&lt;Transparent Rectangle&gt;" class="cls-1" width="32" height="32"/></svg>