<?xml version="1.0" encoding="UTF-8"?>
<svg id="icon" xmlns="http://www.w3.org/2000/svg" width="32" height="32" viewBox="0 0 32 32">
  <defs>
    <style>
      .cls-1 {
        fill: none;
      }
    </style>
  </defs>
  <path d="M30,3.4142l-1.4142-1.4142-3.4317,3.4317c-2.4572-2.1313-5.6536-3.4317-9.1541-3.4317-7.7197,0-14,6.2803-14,14,0,3.5005,1.3004,6.6969,3.4317,9.1541l-3.4317,3.4317,1.4142,1.4142,3.4317-3.4317c2.4572,2.1313,5.6536,3.4317,9.1541,3.4317,7.7197,0,14-6.2803,14-14,0-3.5005-1.3004-6.6969-3.4317-9.1541,0,0,3.4317-3.4317,3.4317-3.4317ZM4,16c0-6.6167,5.3833-12,12-12,2.9492,0,5.649,1.0739,7.7406,2.8452L6.8452,23.7406c-1.7713-2.0916-2.8452-4.7914-2.8452-7.7406ZM28,16c0,6.6172-5.3828,12-12,12-2.9491,0-5.6489-1.074-7.7405-2.8453L25.1547,8.2595c1.7713,2.0916,2.8453,4.7914,2.8453,7.7405Z"/>
  <rect id="_Transparent_Rectangle_" data-name="&amp;lt;Transparent Rectangle&amp;gt;" class="cls-1" width="32" height="32"/>
</svg>