<svg id="Layer_1" data-name="Layer 1" xmlns="http://www.w3.org/2000/svg" width="32" height="32" viewBox="0 0 32 32">
  <defs>
    <style>
      .cls-1 {
        fill: none;
      }
    </style>
  </defs>
  <path d="M28,8H24V4a2.0023,2.0023,0,0,0-2-2H4A2.0023,2.0023,0,0,0,2,4V22a2.0023,2.0023,0,0,0,2,2H8v4a2.0023,2.0023,0,0,0,2,2H28a2.0023,2.0023,0,0,0,2-2V10A2.0023,2.0023,0,0,0,28,8ZM4,22V4H22V8H10a2.0023,2.0023,0,0,0-2,2V22Zm18,0H19.4141L10,12.586V10h2.5859l9.4153,9.4156ZM10,15.4141,16.5859,22H10ZM22.001,16.587,15.4141,10H22ZM10,28V24H22a2.0023,2.0023,0,0,0,2-2V10h4V28Z" transform="translate(0 0)"/>
  <rect id="_Transparent_Rectangle_" data-name="&lt;Transparent Rectangle&gt;" class="cls-1" width="32" height="32"/>
</svg>
