<svg id="icon" xmlns="http://www.w3.org/2000/svg" viewBox="0 0 32 32"><defs><style>.cls-1{fill:none;}</style></defs><title>package</title><path d="M26,30H6a2,2,0,0,1-2-2V16a2,2,0,0,1,2-2H9v2H6V28H26V16H23V14h3a2,2,0,0,1,2,2V28A2,2,0,0,1,26,30Z"/><rect x="13" y="20" width="6" height="2"/><polygon points="20.59 8.59 17 12.17 17 2 15 2 15 12.17 11.41 8.59 10 10 16 16 22 10 20.59 8.59"/><rect id="_Transparent_Rectangle_" data-name="&lt;Transparent Rectangle&gt;" class="cls-1" width="32" height="32"/></svg>