<svg id="icon" xmlns="http://www.w3.org/2000/svg" viewBox="0 0 32 32"><defs><style>.cls-1{fill:none;}</style></defs><title>panel-expansion</title><path d="M12,6H6A2,2,0,0,0,4,8v6a2,2,0,0,0,2,2h6a2,2,0,0,0,2-2V8A2,2,0,0,0,12,6ZM6,14V8h6v6Z" transform="translate(0)"/><path d="M26,6H20a2,2,0,0,0-2,2V24a2,2,0,0,0,2,2h6a2,2,0,0,0,2-2V8A2,2,0,0,0,26,6ZM20,24V8h6V24Z" transform="translate(0)"/><rect id="_Transparent_Rectangle_" data-name="&lt;Transparent Rectangle&gt;" class="cls-1" width="32" height="32"/></svg>