<?xml version="1.0" encoding="UTF-8"?>
<svg id="icon" xmlns="http://www.w3.org/2000/svg" width="32" height="32" viewBox="0 0 32 32">
  <defs>
    <style>
      .cls-1 {
        fill: none;
      }
    </style>
  </defs>
  <path d="M23,20c-2.41,0-4.43,1.72-4.9,4h-4.1c-2.21,0-4-1.79-4-4v-8.1c2.28-.46,4-2.48,4-4.9,0-2.76-2.24-5-5-5s-5,2.24-5,5c0,2.41,1.72,4.43,4,4.9v8.1c0,3.31,2.69,6,6,6h4.1c.46,2.28,2.48,4,4.9,4,2.76,0,5-2.24,5-5s-2.24-5-5-5ZM23,28c-1.65,0-3-1.35-3-3s1.35-3,3-3,3,1.35,3,3-1.35,3-3,3Z"/>
  <rect id="_Transparent_Rectangle_" data-name="&amp;lt;Transparent Rectangle&amp;gt;" class="cls-1" width="32" height="32"/>
</svg>