<?xml version="1.0" encoding="UTF-8"?>
<svg id="icon" xmlns="http://www.w3.org/2000/svg" width="32" height="32" viewBox="0 0 32 32">
  <defs>
    <style>
      .cls-1 {
        fill: none;
      }
    </style>
  </defs>
  <path d="m26,18c-1.8584,0-3.4106,1.2798-3.8579,3h-2.728l-5.4141-5.4141c-.3777-.3779-.8799-.5859-1.4143-.5859H2v2h10.5859l5.4141,5.4141c.3777.3779.8799.5859,1.4143.5859h2.7278c.4473,1.7202,1.9995,3,3.8579,3,2.2056,0,4-1.7944,4-4s-1.7944-4-4-4Zm0,6c-1.1028,0-2-.8975-2-2s.8972-2,2-2,2,.8975,2,2-.8972,2-2,2Z"/>
  <path d="m26,6c-1.8584,0-3.4106,1.2798-3.8579,3h-2.7278c-.5344,0-1.0366.208-1.4143.5859l-3.5864,3.5864,1.4141,1.4141,3.5867-3.5864h2.7278c.4473,1.7202,1.9995,3,3.8579,3,2.2056,0,4-1.7944,4-4s-1.7944-4-4-4Zm0,6c-1.1028,0-2-.8975-2-2s.8972-2,2-2,2,.8975,2,2-.8972,2-2,2Z"/>
  <rect id="_Transparent_Rectangle_" data-name="&amp;lt;Transparent Rectangle&amp;gt;" class="cls-1" width="32" height="32"/>
</svg>