<svg id="icon" xmlns="http://www.w3.org/2000/svg" viewBox="0 0 32 32"><defs><style>.cls-1{fill:none;}</style></defs><title>partnership</title><path d="M8,9a4,4,0,1,1,4-4A4,4,0,0,1,8,9ZM8,3a2,2,0,1,0,2,2A2,2,0,0,0,8,3Z" transform="translate(0)"/><path d="M24,9a4,4,0,1,1,4-4A4,4,0,0,1,24,9Zm0-6a2,2,0,1,0,2,2A2,2,0,0,0,24,3Z" transform="translate(0)"/><path d="M26,30H22a2,2,0,0,1-2-2V21h2v7h4V19h2V13a1,1,0,0,0-1-1H20.58L16,20l-4.58-8H5a1,1,0,0,0-1,1v6H6v9h4V21h2v7a2,2,0,0,1-2,2H6a2,2,0,0,1-2-2V21a2,2,0,0,1-2-2V13a3,3,0,0,1,3-3h7.58L16,16l3.42-6H27a3,3,0,0,1,3,3v6a2,2,0,0,1-2,2v7A2,2,0,0,1,26,30Z" transform="translate(0)"/><rect id="_Transparent_Rectangle_" data-name="&lt;Transparent Rectangle&gt;" class="cls-1" width="32" height="32"/></svg>