<?xml version="1.0" encoding="UTF-8"?>
<svg id="Layer_1" data-name="Layer 1" xmlns="http://www.w3.org/2000/svg" width="32" height="32" viewBox="0 0 32 32">
  <defs>
    <style>
      .cls-1 {
        fill: none;
      }
    </style>
  </defs>
  <path id="party-popper" d="M5,28c-.2607,0-.5161-.1016-.707-.293-.2749-.2744-.3657-.6836-.2329-1.0488L12.0601,4.6582c.1172-.3213.3896-.5605.7231-.6343.3335-.0757.6821.0269.9238.269l14,14c.2422.2412.3428.5898.2695.9238-.0742.333-.3135.6064-.6348.7227L5.3418,27.9395c-.1113.041-.2271.0605-.3418.0605ZM9.1367,18.5508l-2.4648,6.7773,6.7773-2.4648-4.3125-4.3125ZM9.8906,16.4766l5.6328,5.6328,3.793-1.3789-8.0464-8.0464-1.3794,3.7925ZM12.0239,10.6099l9.3657,9.3657,3.793-1.3789L13.4033,6.8174l-1.3794,3.7925ZM30,13h-4v-2h4v2ZM25.0127,8.4019l-1.4141-1.4141,3.3926-3.3931,1.4141,1.4141-3.3926,3.3931ZM21,6h-2V2h2v4Z"/>
  <rect id="Transparent_Rectangle" data-name="Transparent Rectangle" class="cls-1" width="32" height="32"/>
</svg>