<svg id="icon" xmlns="http://www.w3.org/2000/svg" width="32" height="32" viewBox="0 0 32 32">
  <defs>
    <style>
      .cls-1 {
        fill: none;
      }
    </style>
  </defs>
  <polygon points="20 9 12 9 12 11 18 11 12 21 12 23 20 23 20 21 14 21 20 11 20 9"/>
  <path d="M30.4141,17.4141a1.9995,1.9995,0,0,0,0-2.8282L24.6272,8.7993l2.9006-2.8628a2.0018,2.0018,0,1,0-1.4416-1.3872L23.2129,7.3848,17.4141,1.5859a1.9995,1.9995,0,0,0-2.8282,0L8.7993,7.3726,5.9368,4.4717A2.002,2.002,0,1,0,4.55,5.9136l2.835,2.8735L1.5859,14.5859a1.9995,1.9995,0,0,0,0,2.8282l5.7989,5.7988L4.55,26.0864a1.9977,1.9977,0,1,0,1.387,1.4419l2.8625-2.9009,5.7866,5.7867a1.9995,1.9995,0,0,0,2.8282,0l5.7988-5.7989,2.8733,2.8355a1.998,1.998,0,1,0,1.4416-1.3872l-2.9006-2.8628ZM16,29,3,16,16,3,29,16Z"/>
  <rect id="_Transparent_Rectangle_" data-name="&lt;Transparent Rectangle&gt;" class="cls-1" width="32" height="32"/>
</svg>
