<svg id="icon" xmlns="http://www.w3.org/2000/svg" viewBox="0 0 32 32"><defs><style>.cls-1{fill:none;}</style></defs><title>PDF</title><polygon points="30 11 30 9 22 9 22 23 24 23 24 17 29 17 29 15 24 15 24 11 30 11"/><path d="M8,9H2V23H4V18H8a2,2,0,0,0,2-2V11A2,2,0,0,0,8,9Zm0,7H4V11H8Z"/><path d="M16,23H12V9h4a4,4,0,0,1,4,4v6A4,4,0,0,1,16,23Zm-2-2h2a2,2,0,0,0,2-2V13a2,2,0,0,0-2-2H14Z"/><rect id="_Transparent_Rectangle_" data-name="&lt;Transparent Rectangle&gt;" class="cls-1" width="32" height="32"/></svg>