<?xml version="1.0" encoding="UTF-8"?>
<svg id="icon" xmlns="http://www.w3.org/2000/svg" width="32" height="32" viewBox="0 0 32 32">
  <defs>
    <style>
      .cls-1 {
        fill: none;
      }
    </style>
  </defs>
  <path d="M21,2h-10C6,2,2,6,2,11v10c0,5,4,9,9,9h10c5,0,9-4,9-9v-10c0-5-4-9-9-9ZM28,21c0,3.9-3.1,7-7,7h-10c-3.9,0-7-3.1-7-7v-10c0-3.9,3.1-7,7-7h10c3.9,0,7,3.1,7,7v10ZM24,11h-6c-1.1,0-2,.9-2,2v6c0,1.1.9,2,2,2h6c1.1,0,2-.9,2-2v-6c0-1.1-.9-2-2-2ZM18,19v-6h6v6h-6ZM11,11l5,5-5,5-1.5-1.4,2.7-2.6h-6.2v-2h6.2l-2.7-2.6,1.5-1.4Z"/>
  <rect id="_Transparent_Rectangle_" data-name="&amp;lt;Transparent Rectangle&amp;gt;" class="cls-1" width="32" height="32"/>
</svg>