<svg id="icon" xmlns="http://www.w3.org/2000/svg" width="32" height="32" viewBox="0 0 32 32"><defs><style>.cls-1{fill:none;}</style></defs><title>person--favorite</title><path d="M10,31H6a2.0059,2.0059,0,0,1-2-2V22a2.0059,2.0059,0,0,1-2-2V14a2.9465,2.9465,0,0,1,3-3h6a2.9465,2.9465,0,0,1,3,3v6a2.0059,2.0059,0,0,1-2,2v7A2.0059,2.0059,0,0,1,10,31ZM5,13a.9448.9448,0,0,0-1,1v6H6v9h4V20h2V14a.9448.9448,0,0,0-1-1Z" transform="translate(0 0)"/><path d="M8,10a4,4,0,1,1,4-4A4.0045,4.0045,0,0,1,8,10ZM8,4a2,2,0,1,0,2,2A2.002,2.002,0,0,0,8,4Z" transform="translate(0 0)"/><path d="M28.7663,4.2558A4.2121,4.2121,0,0,0,23,4.0321a4.2121,4.2121,0,0,0-5.7663.2237,4.319,4.319,0,0,0,0,6.0447L22.998,16.14,23,16.1376l.002.0019,5.7643-5.839A4.319,4.319,0,0,0,28.7663,4.2558ZM27.342,8.8948l-4.34,4.3973L23,13.29l-.002.002-4.34-4.3973a2.3085,2.3085,0,0,1,0-3.2338,2.2639,2.2639,0,0,1,3.1561,0l1.181,1.2074L23,6.8634l.0049.005,1.181-1.2074a2.2639,2.2639,0,0,1,3.1561,0A2.3085,2.3085,0,0,1,27.342,8.8948Z" transform="translate(0 0)"/><rect id="_Transparent_Rectangle_" data-name="&lt;Transparent Rectangle&gt;" class="cls-1" width="32" height="32"/></svg>