<svg id="icon" xmlns="http://www.w3.org/2000/svg" viewBox="0 0 32 32"><defs><style>.cls-1{fill:none;}</style></defs><title>person</title><path d="M18,30H14a2,2,0,0,1-2-2V21a2,2,0,0,1-2-2V13a3,3,0,0,1,3-3h6a3,3,0,0,1,3,3v6a2,2,0,0,1-2,2v7A2,2,0,0,1,18,30ZM13,12a.94.94,0,0,0-1,1v6h2v9h4V19h2V13a.94.94,0,0,0-1-1Z"/><path d="M16,9a4,4,0,1,1,4-4h0A4,4,0,0,1,16,9Zm0-6a2,2,0,1,0,2,2h0a2,2,0,0,0-2-2Z"/><rect id="_Transparent_Rectangle_" data-name="&lt;Transparent Rectangle&gt;" class="cls-1" width="32" height="32"/></svg>