<svg id="icon" xmlns="http://www.w3.org/2000/svg" width="32" height="32" viewBox="0 0 32 32">
  <defs>
    <style>
      .cls-1 {
        fill: #231f20;
      }

      .cls-2 {
        fill: none;
      }
    </style>
  </defs>
  <path d="M20.3333,21.4823l2.24-2.24a2.1667,2.1667,0,0,1,2.3368-.48l2.7281,1.0913A2.1666,2.1666,0,0,1,29,21.8659v4.9613a2.1668,2.1668,0,0,1-2.2843,2.1686C7.5938,27.8054,3.7321,11.6114,3.0146,5.4079A2.162,2.162,0,0,1,5.1692,3H10.042a2.1666,2.1666,0,0,1,2.0117,1.362L13.145,7.09a2.1666,2.1666,0,0,1-.48,2.3367l-2.24,2.24S11.6667,20.399,20.3333,21.4823Z" transform="translate(0)"/>
  <polygon class="cls-1" points="20 4 20 6 24.586 6 18 12.586 19.414 14 26 7.414 26 12 28 12 28 4 20 4"/>
  <rect id="_Transparent_Rectangle_" data-name="&lt;Transparent Rectangle&gt;" class="cls-2" width="32" height="32"/>
</svg>
