<svg id="icon" xmlns="http://www.w3.org/2000/svg" width="32" height="32" viewBox="0 0 32 32"><defs><style>.cls-1{fill:none;}</style></defs><title>phrase-sentiment</title><path d="M18.303,10a2.6616,2.6616,0,0,0-1.9079.8058l-.3932.4054-.397-.4054a2.6615,2.6615,0,0,0-3.8157,0,2.7992,2.7992,0,0,0,0,3.8964L16.0019,19l4.2089-4.2978a2.7992,2.7992,0,0,0,0-3.8964A2.6616,2.6616,0,0,0,18.303,10Z"/><path d="M17.7358,30,16,29l4-7h6a1.9966,1.9966,0,0,0,2-2V8a1.9966,1.9966,0,0,0-2-2H6A1.9966,1.9966,0,0,0,4,8V20a1.9966,1.9966,0,0,0,2,2h9v2H6a3.9993,3.9993,0,0,1-4-4V8A3.9988,3.9988,0,0,1,6,4H26a3.9988,3.9988,0,0,1,4,4V20a3.9993,3.9993,0,0,1-4,4H21.1646Z"/><rect id="_Transparent_Rectangle_" data-name="&lt;Transparent Rectangle&gt;" class="cls-1" width="32" height="32"/></svg>