<svg id="icon" xmlns="http://www.w3.org/2000/svg" viewBox="0 0 32 32"><defs><style>.cls-1{fill:none;}</style></defs><title>pills</title><path d="M14,10H12a2,2,0,0,0-2-2V6A4,4,0,0,1,14,10Z" transform="translate(0 0)"/><path d="M22,14a8,8,0,0,0-4,1.08V9A7,7,0,0,0,4,9V23a7,7,0,0,0,12.29,4.59A8,8,0,1,0,22,14Zm0,2a6,6,0,0,1,5.91,5H16.09A6,6,0,0,1,22,16ZM6,9A5,5,0,0,1,16,9v6H6Zm5,19a5,5,0,0,1-5-5V17h9.76A8,8,0,0,0,15,25.93,5,5,0,0,1,11,28Zm11,0a6,6,0,0,1-5.91-5H27.91A6,6,0,0,1,22,28Z" transform="translate(0 0)"/><rect id="_Transparent_Rectangle_" data-name="&lt;Transparent Rectangle&gt;" class="cls-1" width="32" height="32"/></svg>