<?xml version="1.0" encoding="UTF-8"?>
<svg id="icon" xmlns="http://www.w3.org/2000/svg" version="1.1" viewBox="0 0 32 32">
  <!-- Generator: Adobe Illustrator 29.5.1, SVG Export Plug-In . SVG Version: 2.1.0 Build 141)  -->
  <defs>
    <style>
      .st0 {
        fill: none;
      }
    </style>
  </defs>
  <path d="M28,2H4c-1.1,0-2,.9-2,2v24c0,1.1.9,2,2,2h24c1.1,0,2-.9,2-2V4c0-1.1-.9-2-2-2ZM28,28H4V8h24v20ZM28,6H4v-2h24v2ZM22,10h2v16h-2v-16ZM15,14l5,5-5,5-1.4-1.4,2.6-2.6h-6.2c-1.1,0-2-.9-2-2v-6h2v6h6.2l-2.6-2.6,1.4-1.4Z"/>
  <rect id="__x3C_Transparent_Rectangle_x3E_" class="st0" width="32" height="32"/>
</svg>