<?xml version="1.0" encoding="UTF-8"?>
<svg id="icon" xmlns="http://www.w3.org/2000/svg" version="1.1" viewBox="0 0 32 32">
  <!-- Generator: Adobe Illustrator 29.5.1, SVG Export Plug-In . SVG Version: 2.1.0 Build 141)  -->
  <defs>
    <style>
      .st0 {
        fill: none;
      }
    </style>
  </defs>
  <path d="M28.1,2H3.9c-1.1,0-1.9.9-1.9,1.9v24.2c0,1.1.9,1.9,1.9,1.9h24.2c1.1,0,1.9-.9,1.9-1.9V3.9c0-1.1-.9-1.9-1.9-1.9ZM28,28H4V8h24s0,20,0,20ZM28,6H4v-2h24s0,2,0,2ZM22,19l-1.4,1.4-2.6-2.6v6.2c0,1.1-.9,2-2,2h-6v-2h6v-6.2l-2.6,2.6-1.4-1.4,5-5,5,5ZM8,12v-2h16v2H8Z"/>
  <rect id="__x3C_Transparent_Rectangle_x3E_" class="st0" width="32" height="32"/>
</svg>