<svg id="Layer_1" data-name="Layer 1" xmlns="http://www.w3.org/2000/svg" width="32" height="32" viewBox="0 0 32 32">
  <defs>
    <style>
      .cls-1 {
        fill: none;
      }
    </style>
  </defs>
  <path d="M30,30H28a4.9316,4.9316,0,0,1-4-1.9873,5.0192,5.0192,0,0,1-8,0,5.0192,5.0192,0,0,1-8,0A4.9316,4.9316,0,0,1,4,30H2V28H4a3.44,3.44,0,0,0,3.0532-2.3215A.9712.9712,0,0,1,8,25a1.0069,1.0069,0,0,1,.9487.6838A3.4381,3.4381,0,0,0,12,28a3.44,3.44,0,0,0,3.0532-2.3215A.99.99,0,0,1,16,25a1.0069,1.0069,0,0,1,.9487.6838A3.4381,3.4381,0,0,0,20,28a3.44,3.44,0,0,0,3.0532-2.3215,1,1,0,0,1,1.8955.0053A3.4381,3.4381,0,0,0,28,28h2Z" transform="translate(0 0)"/>
  <path d="M28,6v4H25.5L23.4,7.2A3.0129,3.0129,0,0,0,21,6H15a3.0033,3.0033,0,0,0-3,3v1H8.6182L7.8945,8.5527l-1-2A1,1,0,0,0,6,6H3A1,1,0,0,0,2,7v6a3.0033,3.0033,0,0,0,3,3h6.82l-.6666,4H7a1,1,0,0,0,0,2H27a1,1,0,0,0,0-2H22.847L22.18,16h.1629a4.9662,4.9662,0,0,0,3.5351-1.4648L28,12.4141V16h2V6ZM14,9a1.0009,1.0009,0,0,1,1-1h6a1.0045,1.0045,0,0,1,.8.4L23,10H14Zm6.82,11H13.18l.6666-4h6.306Zm1.5237-6H5a1.0009,1.0009,0,0,1-1-1V8H5.3818l.7237,1.4473L7.3818,12h18.204l-1.1214,1.1211A2.9789,2.9789,0,0,1,22.3433,14Z" transform="translate(0 0)"/>
  <rect id="_Transparent_Rectangle_" data-name="&lt;Transparent Rectangle&gt;" class="cls-1" width="32" height="32"/>
</svg>
