<svg id="icon" xmlns="http://www.w3.org/2000/svg" width="32" height="32" viewBox="0 0 32 32">
  <defs>
    <style>
      .cls-1 {
        fill: none;
      }
    </style>
  </defs>
  <path id="_inner-path_" data-name="&lt;inner-path&gt;" class="cls-1" d="M11,23a1,1,0,0,1-1-1V10a1,1,0,0,1,1.4473-.8945l12,6a1,1,0,0,1,0,1.789l-12,6A1.001,1.001,0,0,1,11,23Zm1-11.3821v8.7642L20.7642,16Z"/>
  <polygon points="12 20.382 20.764 16 12 11.618 12 20.382"/>
  <path d="M16,2A14,14,0,1,0,30,16,14,14,0,0,0,16,2Zm7.4473,14.8945-12,6A1,1,0,0,1,10,22V10a1,1,0,0,1,1.4473-.8945l12,6a1,1,0,0,1,0,1.789Z"/>
  <rect id="_Transparent_Rectangle_" data-name="&lt;Transparent Rectangle&gt;" class="cls-1" width="32" height="32"/>
</svg>
