<svg id="icon" xmlns="http://www.w3.org/2000/svg" viewBox="0 0 32 32"><defs><style>.cls-1{fill:none;}</style></defs><title>PNG</title><path d="M30,23H24a2,2,0,0,1-2-2V11a2,2,0,0,1,2-2h6v2H24V21h4V17H26V15h4Z" transform="translate(0 0)"/><polygon points="18 19 14.32 9 12 9 12 23 14 23 14 13 17.68 23 20 23 20 9 18 9 18 19"/><path d="M4,23H2V9H8a2,2,0,0,1,2,2v5a2,2,0,0,1-2,2H4Zm0-7H8V11H4Z" transform="translate(0 0)"/><rect id="_Transparent_Rectangle_" data-name="&lt;Transparent Rectangle&gt;" class="cls-1" width="32" height="32"/></svg>