<?xml version="1.0" encoding="UTF-8"?>
<svg id="icon" xmlns="http://www.w3.org/2000/svg" width="32" height="32" viewBox="0 0 32 32">
  <defs>
    <style>
      .cls-1 {
        fill: none;
      }
    </style>
  </defs>
  <g id="_Compound_Path_" data-name="&amp;lt;Compound Path&amp;gt;">
    <path d="M16.0166,29.9937c-7.7085,0-13.9863-6.2646-13.9995-13.9761-.0068-3.7358,1.4443-7.2534,4.0854-9.9043l1.417,1.4121c-2.2642,2.272-3.5083,5.2866-3.5024,8.4888.0054,3.2056,1.2588,6.2168,3.5293,8.4795,2.2651,2.2573,5.2725,3.5,8.4702,3.5h.021c1.3477-.0024,2.6533-.2212,3.8799-.6514l.6611,1.8877c-1.4385.5039-2.9653.7612-4.5381.7637h-.0239Z"/>
    <path d="M15,16h2v4h2c1.1046,0,2,.8954,2,2v3h-2v-3h-2v3h-2v-3h-2v3h-2v-3c0-1.1046.8954-2,2-2h2v-4Z"/>
    <path d="M23,26h0c.5523,0,1,.4477,1,1h0c0,.5523-.4477,1-1,1h0c-.5523,0-1-.4477-1-1h0c0-.5523.4477-1,1-1Z"/>
    <path d="M9,4h0c.5523,0,1,.4477,1,1h0c0,.5523-.4477,1-1,1h0c-.5523,0-1-.4477-1-1h0c0-.5523.4477-1,1-1Z"/>
    <path d="M20.9199,10.1064c-.4219-2.332-2.4678-4.1064-4.9199-4.1064s-4.498,1.7744-4.9199,4.1064c-1.7637.417-3.0801,2.0049-3.0801,3.8936,0,2.2061,1.7939,4,4,4h1v-2h-1c-1.1025,0-2-.8975-2-2s.8975-2,2-2h1v-1c0-1.6543,1.3457-3,3-3s3,1.3457,3,3v1h1c1.1025,0,2,.8975,2,2s-.8975,2-2,2h-1v2h1c2.2061,0,4-1.7939,4-4,0-1.8887-1.3164-3.4766-3.0801-3.8936Z"/>
    <path d="M25.8999,25.8885l-1.4141-1.4141c2.2681-2.2681,3.5171-5.2808,3.5171-8.4829,0-6.6167-5.3833-12-12-12-1.3491,0-2.6548.2168-3.8809.644l-.6582-1.8887c1.4385-.501,2.9653-.7554,4.5391-.7554,7.7197,0,14,6.2803,14,14,0,3.7363-1.457,7.251-4.103,9.897Z"/>
  </g>
  <rect id="_Transparent_Rectangle_" data-name="&amp;lt;Transparent Rectangle&amp;gt;" class="cls-1" width="32" height="32"/>
</svg>