<?xml version="1.0" encoding="UTF-8"?>
<svg id="icon" xmlns="http://www.w3.org/2000/svg" width="32" height="32" viewBox="0 0 32 32">
  <defs>
    <style>
      .cls-1 {
        fill: none;
      }
    </style>
  </defs>
  <path id="_Compound_Path_" data-name=" &amp;lt;Compound Path&amp;gt;" d="M9,16h0c0,.3369.024.6749.0714,1.006l-1.9795.2832c-.061-.4238-.0919-.858-.0919-1.2892,0-4.9629,4.0376-9,9-9,2.0435,0,4.0444.7041,5.6348,1.9814l-1.2529,1.5596c-1.2544-1.0083-2.7696-1.541-4.3819-1.541-3.8599,0-6.9999,3.1401-6.9999,7.0001h-.0001ZM8,20c0,.5522.4478,1,1,1s1-.4478,1-1-.4478-1-1-1-1,.4478-1,1ZM16,4c6.6166,0,12,5.3833,12,12h2c0-7.7197-6.2803-14-14-14-1.6431,0-3.2529.2822-4.7846.8389l.6836,1.8799c1.3115-.4771,2.6913-.7188,4.101-.7188ZM22,12c0,.5522.4478,1,1,1s1-.4478,1-1-.4478-1-1-1-1,.4478-1,1ZM9,6c.5522,0,1-.4478,1-1s-.4478-1-1-1-1,.4478-1,1,.4478,1,1,1ZM4,16h0c0-3.2051,1.2481-6.2188,3.5147-8.4854l-1.4141-1.4141c-2.6445,2.6445-4.1006,6.1603-4.1006,9.8995,0,7.7197,6.2803,14,14,14v-2c-6.6166,0-12-5.3832-12-12ZM28.5,25.5c0,1.6543-1.3457,3-3,3s-3-1.3457-3-3c0-.4617.1135-.8942.3006-1.2853l-5.5153-5.5153c-.3911.1871-.8236.3006-1.2853.3006-1.6543,0-3-1.3457-3-3s1.3457-3,3-3,3,1.3457,3,3c0,.4617-.1135.8942-.3006,1.2853l5.5153,5.5153c.3911-.1871.8236-.3006,1.2853-.3006,1.6543,0,3,1.3456,3,2.9999h0ZM16,17c.5513,0,1-.4487,1-1s-.4487-1-1-1-1,.4487-1,1,.4487,1,1,1ZM26.5,25.5c0-.5518-.4482-1-1-1s-1,.4482-1,1,.4482,1,1,1,1-.4482,1-1Z"/>
  <rect id="_Transparent_Rectangle_" data-name=" &amp;lt;Transparent Rectangle&amp;gt;" class="cls-1" width="32" height="32"/>
</svg>