<svg id="icon" xmlns="http://www.w3.org/2000/svg" width="32" height="32" viewBox="0 0 32 32"><defs><style>.cls-1{fill:none;}</style></defs><title>PPT</title><polygon points="22 11 25 11 25 23 27 23 27 11 30 11 30 9 22 9 22 11"/><path d="M14,23H12V9h6a2.002,2.002,0,0,1,2,2v5a2.002,2.002,0,0,1-2,2H14Zm0-7h4V10.9985H14Z"/><path d="M4,23H2V9H8a2.002,2.002,0,0,1,2,2v5a2.002,2.002,0,0,1-2,2H4Zm0-7H8V10.9985H4Z"/><rect id="_Transparent_Rectangle_" data-name="&lt;Transparent Rectangle&gt;" class="cls-1" width="32" height="32"/></svg>