<?xml version="1.0" encoding="utf-8"?>
<!-- Generator: Adobe Illustrator 26.3.1, SVG Export Plug-In . SVG Version: 6.00 Build 0)  -->
<svg version="1.1" id="icon" xmlns="http://www.w3.org/2000/svg" xmlns:xlink="http://www.w3.org/1999/xlink" x="0px" y="0px"
	 width="32px" height="32px" viewBox="0 0 32 32" style="enable-background:new 0 0 32 32;" xml:space="preserve">
<style type="text/css">
	.st0{fill:none;}
</style>
<polygon points="16,21 17.4,22.4 14.8,25 23,25 23,27 14.8,27 17.4,29.6 16,31 11,26 "/>
<rect x="6.3" y="19" transform="matrix(0.7071 -0.7071 0.7071 0.7071 -10.6274 14.3431)" width="11.3" height="2"/>
<path d="M23,22h-2v-5c0-0.3,0.1-0.5,0.3-0.7l4.1-4.1c1.7-1.7,2.6-4,2.6-6.4V4h-1.9c-2.4,0-4.7,0.9-6.4,2.6l-4.1,4.1
	C15.5,10.9,15.3,11,15,11H7.5l-2.6,3.3l5.3,0.8l-0.3,2l-7-1c-0.4-0.1-0.7-0.3-0.8-0.6s-0.1-0.7,0.1-1l4-5C6.4,9.1,6.7,9,7,9h7.6
	l3.8-3.8C20.4,3.1,23.2,2,26.1,2H28c1.1,0,2,0.9,2,2v1.9c0,2.9-1.1,5.7-3.2,7.8L23,17.4V22z"/>
<rect id="_x3C_Transparent_Rectangle_x3E__589_" class="st0" width="32" height="32"/>
</svg>
