<?xml version="1.0" encoding="UTF-8"?>
<svg id="icon" xmlns="http://www.w3.org/2000/svg" width="32" height="32" viewBox="0 0 32 32">
  <defs>
    <style>
      .cls-1 {
        fill: none;
      }

      .cls-1, .cls-2 {
        stroke-width: 0px;
      }
    </style>
  </defs>
  <path class="cls-2" d="m25,22.1421v-13.1421c0-2.2056-1.7944-4-4-4h-4.1719l2.5859-2.5859-1.4141-1.4141-5,5,5,5,1.4141-1.4141-2.5859-2.5859h4.1719c1.1028,0,2,.8975,2,2v13.1421c-1.7202.4473-3,1.9995-3,3.8579,0,2.2056,1.7944,4,4,4s4-1.7944,4-4c0-1.8584-1.2798-3.4106-3-3.8579Zm-1,5.8579c-1.1028,0-2-.8975-2-2s.8972-2,2-2,2,.8975,2,2-.8972,2-2,2Z"/>
  <path class="cls-2" d="m4,6c0,1.8584,1.2798,3.4106,3,3.8579v12.2842c-1.7202.447-3,1.9993-3,3.8579,0,2.2061,1.7944,4,4,4s4-1.7939,4-4c0-1.8586-1.2798-3.4109-3-3.8579v-12.2842c1.7202-.4473,3-1.9995,3-3.8579,0-2.2056-1.7944-4-4-4s-4,1.7944-4,4Zm6,20c0,1.1025-.897,2-2,2s-2-.8975-2-2c0-1.1025.897-2,2-2s2,.8975,2,2Zm0-20c0,1.103-.897,2-2,2s-2-.897-2-2c0-1.103.897-2,2-2s2,.897,2,2Z"/>
  <rect id="_Transparent_Rectangle_" data-name="&amp;lt;Transparent Rectangle&amp;gt;" class="cls-1" width="32" height="32"/>
</svg>