<svg id="icon" xmlns="http://www.w3.org/2000/svg" width="32" height="32" viewBox="0 0 32 32"><defs><style>.cls-1{fill:none;}</style></defs><title>rain--scattered</title><path d="M8.5084,32a1.0127,1.0127,0,0,1-.4485-.1054.9986.9986,0,0,1-.4486-1.3418l1.4934-3.0005a1.0025,1.0025,0,0,1,1.7943.8945l-1.4934,3A1.0013,1.0013,0,0,1,8.5084,32Z"/><rect x="27.2324" y="15.7329" width="1.9998" height="2.9998" transform="translate(-3.9151 25.0157) rotate(-45.0092)"/><rect x="29" y="10" width="3" height="2"/><rect x="26.7321" y="3.7682" width="3.0002" height="2.0002" transform="translate(4.8973 21.3598) rotate(-45)"/><rect x="20" width="2" height="3"/><rect x="12.7676" y="3.2682" width="2.0002" height="3.0002" transform="translate(0.6608 11.1319) rotate(-45)"/><path d="M27,11A5.9955,5.9955,0,0,0,15.6335,8.3311,7.3494,7.3494,0,0,0,13.5,8a7.5509,7.5509,0,0,0-7.1492,5.2441A5.9926,5.9926,0,0,0,8,25h7.3818L14.106,27.5527a1,1,0,1,0,1.7885.8946L17.6177,25H19a5.9853,5.9853,0,0,0,5.2163-8.9463A5.9941,5.9941,0,0,0,27,11ZM19,23H8a3.9925,3.9925,0,0,1-.6731-7.9292L7.99,14.958l.1458-.6562a5.496,5.496,0,0,1,10.7294,0l.1458.6562.6626.1128A3.9925,3.9925,0,0,1,19,23Zm3.9268-8.5107a5.96,5.96,0,0,0-2.2776-1.2452,7.5157,7.5157,0,0,0-3.1853-4.0688,3.9869,3.9869,0,1,1,5.4629,5.314Z"/><rect id="_Transparent_Rectangle_" data-name="&lt;Transparent Rectangle&gt;" class="cls-1" width="32" height="32"/></svg>