<?xml version="1.0" encoding="UTF-8"?>
<svg id="icon" xmlns="http://www.w3.org/2000/svg" width="32" height="32" version="1.1" viewBox="0 0 32 32">
  <!-- Generator: Adobe Illustrator 30.0.0, SVG Export Plug-In . SVG Version: 2.1.1 Build 123)  -->
  <defs>
    <style>
      .st0 {
        fill: none;
      }
    </style>
  </defs>
  <path d="M29.4141,6.9968l-4.0001-3.9968-1.414,1.4144,4.0001,3.9968v10.5888h-7.0001c-1.4702,0-2.691,1.0646-2.9457,2.4624-.6383-.2906-1.333-.4624-2.0543-.4624s-1.416.1718-2.0543.4623c-.2548-1.3978-1.4755-2.4623-2.9457-2.4623H3.9999v-10.5888l4.0001-3.9968-1.414-1.4144-4.0001,3.9968c-.3779.378-.5859.8801-.5859,1.4144v16.5888c0,2.2061,1.7944,4,4,4h3c2.7568,0,5-2.2432,5-5v-.2139c.5444-.4899,1.2498-.7861,2-.7861s1.4553.2962,2,.7861v.2139c0,2.7568,2.2432,5,5,5h3c2.2061,0,4-1.7939,4-4V8.4112c0-.5343-.208-1.0364-.5859-1.4144ZM12,24c0,1.6543-1.3457,3-3,3h-3c-1.103,0-2-.8975-2-2v-4h7c.5513,0,1,.4482,1,1v2ZM28,25c0,1.1025-.8975,2-2,2h-3c-1.6543,0-3-1.3457-3-3v-2c0-.5518.4482-1,1-1h7v4Z"/>
  <rect id="_x3C_Transparent_Rectangle_x3E_" class="st0" width="32" height="32"/>
</svg>