<?xml version="1.0" encoding="UTF-8"?>
<svg id="Layer_1" data-name="Layer 1" xmlns="http://www.w3.org/2000/svg" width="32" height="32" viewBox="0 0 32 32">
  <defs>
    <style>
      .cls-1 {
        fill: none;
      }
    </style>
  </defs>
  <path id="receipt--verification" d="M25,2H7c-1.1,0-2,.9-2,2v25c0,.55.45,1,1,1h1c.31,0,.61-.15.8-.4l2.2-2.93,2.2,2.93c.17.23.44.38.73.4h.07v-2.67l-2.2-2.93c-.38-.5-1.22-.5-1.6,0l-2.2,2.93V4h18v14h2V4c0-1.1-.9-2-2-2ZM26.54,20.54l-6.54,6.55-2.79-2.8-1.42,1.42,3.5,3.5c.2.19.45.29.71.29s.51-.1.71-.29l7.25-7.25-1.42-1.42ZM21,16v2h2v-2h-2ZM9,16v2h8v-2h-8ZM21,12v2h2v-2h-2ZM9,12v2h8v-2h-8ZM9,8v2h14v-2h-14Z"/>
  <rect id="Transparent_Rectangle" data-name="Transparent Rectangle" class="cls-1" width="32" height="32"/>
</svg>