<svg id="icon" xmlns="http://www.w3.org/2000/svg" viewBox="0 0 32 32"><defs><style>.cls-1{fill:#000000;}.cls-2{fill:none;}</style></defs><title>recording</title><path class="cls-1" d="M16,4A12,12,0,1,1,4,16,12,12,0,0,1,16,4m0-2A14,14,0,1,0,30,16,14,14,0,0,0,16,2Z" transform="translate(0)"/><path class="cls-1" d="M16,12a4,4,0,1,1-4,4,4,4,0,0,1,4-4m0-2a6,6,0,1,0,6,6,6,6,0,0,0-6-6Z" transform="translate(0)"/><rect id="_Transparent_Rectangle_" data-name="&lt;Transparent Rectangle&gt;" class="cls-2" width="32" height="32"/></svg>