<?xml version="1.0" encoding="UTF-8"?>
<svg id="icon" xmlns="http://www.w3.org/2000/svg" width="32" height="32" viewBox="0 0 32 32">
  <defs>
    <style>
      .cls-1 {
        fill: none;
      }
    </style>
  </defs>
  <path d="M13,28v-4h7v-2h-7v-4h7c.3564,0,.686-.1899.865-.498.179-.3086.1802-.6885.0032-.998L12.8682,2.5039c-.356-.623-1.3804-.623-1.7363,0L3.1318,16.5039c-.177.3096-.1758.6895.0032.998.179.3081.5085.498.865.498h7v4h-7v2h7v4c0,1.1045.8955,2,2,2h15v-2h-15ZM5.7231,16l6.2769-10.9844,6.2769,10.9844H5.7231Z"/>
  <rect id="_Transparent_Rectangle_" data-name="&amp;lt;Transparent Rectangle&amp;gt;" class="cls-1" width="32" height="32"/>
</svg>