<svg id="icon" xmlns="http://www.w3.org/2000/svg" width="32" height="32" viewBox="0 0 32 32">
  <defs>
    <style>
      .cls-1 {
        fill: #272425;
      }

      .cls-2 {
        fill: none;
      }
    </style>
  </defs>
  <path class="cls-1" d="M19.386,15.2105l9-7A1,1,0,0,1,30,9V23a1,1,0,0,1-1.614.79l-9-7a1,1,0,0,1,0-1.5791Z"/>
  <rect class="cls-1" x="15" y="2" width="2" height="28" transform="translate(32 32) rotate(-180)"/>
  <path class="cls-1" d="M13,16a1.001,1.001,0,0,1-.386.79l-9,7A1,1,0,0,1,2,23V9a1,1,0,0,1,1.614-.79l9,7A1.001,1.001,0,0,1,13,16ZM4,20.9556,10.3711,16,4,11.0444Z"/>
  <rect id="_Transparent_Rectangle_" data-name="&lt;Transparent Rectangle&gt;" class="cls-2" width="32" height="32"/>
</svg>
