<?xml version="1.0" encoding="UTF-8"?>
<svg id="icons" xmlns="http://www.w3.org/2000/svg" width="32" height="32" version="1.1" viewBox="0 0 32 32">
  <!-- Generator: Adobe Illustrator 30.0.0, SVG Export Plug-In . SVG Version: 2.1.1 Build 123)  -->
  <defs>
    <style>
      .st0 {
        fill: none;
      }
    </style>
  </defs>
  <path d="M21.5,12c-5.2,0-9.5,4.3-9.5,9.5v.5H4V6h24v6h2v-6c0-1.1-.9-2-2-2H4c-1.1,0-2,.9-2,2v16c0,1.1.9,2,2,2h8.3c.4,1.5,1.2,2.9,2.2,4h-6.6v2h9.3c1.3.6,2.7,1,4.2,1,5.2,0,9.5-4.3,9.5-9.5s-4.3-9.5-9.5-9.5h0ZM21.5,29c-4.1,0-7.5-3.4-7.5-7.5s3.4-7.5,7.5-7.5,7.5,3.4,7.5,7.5-3.4,7.5-7.5,7.5ZM18.7,24.7l-1.4-1.4,2.3-2.3-2.3-2.3,1.4-1.4,3.7,3.7s-3.7,3.7-3.7,3.7ZM26,25h-4v-2h4v2Z"/>
  <rect id="__x3C_Transparent_Rectangle_x3E_" class="st0" width="32" height="32"/>
</svg>