<svg id="icon" xmlns="http://www.w3.org/2000/svg" width="32" height="32" viewBox="0 0 32 32">
  <defs>
    <style>
      .cls-1 {
        fill: none;
      }
    </style>
  </defs>
  <rect id="_Transparent_Rectangle_" data-name="&lt;Transparent Rectangle&gt;" class="cls-1" width="32" height="32"/>
  <rect x="10" y="13" width="2" height="2"/>
  <rect x="14" y="13" width="8" height="2"/>
  <rect x="10" y="18" width="2" height="2"/>
  <rect x="10" y="23" width="2" height="2"/>
  <path d="M7,28V7h3v3H22V7h3v8h2V7a2,2,0,0,0-2-2H22V4a2,2,0,0,0-2-2H12a2,2,0,0,0-2,2V5H7A2,2,0,0,0,5,7V28a2,2,0,0,0,2,2h9V28ZM12,4h8V8H12Z"/>
  <path d="M18,19v2.4131A6.996,6.996,0,1,1,24,32V30a5,5,0,1,0-4.5762-7H22v2H16V19Z"/>
  <rect id="_Transparent_Rectangle_2" data-name="&lt;Transparent Rectangle&gt;" class="cls-1" width="32" height="32"/>
</svg>
