<svg id="icon" xmlns="http://www.w3.org/2000/svg" width="32" height="32" viewBox="0 0 32 32">
  <defs>
    <style>
      .cls-1 {
        fill: none;
      }
    </style>
  </defs>
  <polygon points="26.41 25 30 21.41 28.59 20 25 23.59 21.41 20 20 21.41 23.59 25 20 28.59 21.41 30 25 26.41 28.59 30 30 28.59 26.41 25"/>
  <path d="M18,2A12.0351,12.0351,0,0,0,6,14v6.2L2.4,16.6,1,18l6,6,6-6-1.4-1.4L8,20.2V14a10,10,0,0,1,20,0v3h2V14A12.0351,12.0351,0,0,0,18,2Z"/>
  <rect id="_Transparent_Rectangle_" data-name="&lt;Transparent Rectangle&gt;" class="cls-1" width="32" height="32"/>
</svg>
