<?xml version="1.0" encoding="UTF-8"?>
<svg id="Icon" xmlns="http://www.w3.org/2000/svg" width="32" height="32" version="1.1" viewBox="0 0 32 32">
  <!-- Generator: Adobe Illustrator 30.0.0, SVG Export Plug-In . SVG Version: 2.1.1 Build 123)  -->
  <defs>
    <style>
      .st0 {
        fill: none;
      }
    </style>
  </defs>
  <path d="M20.5,16l2.5,5h-2l-1.5-3-1.5,3h-2l2.5-5-2.5-5h2l1.5,3,1.5-3h2l-2.5,5ZM32,11h-2l-1.5,3-1.5-3h-2l2.5,5-2.5,5h2l1.5-3,1.5,3h2l-2.5-5,2.5-5ZM14,12.9761v-1.9761h-6v9.9761h6v-2h-4v-2h2v-2h-2v-2s4,0,4,0ZM6,13v2c0,1-.7,1.8-1.6,2l1.6,4h-2l-1.6-4h-.4v4H0v-10h4c1.1,0,2,.9,2,2ZM4,13h-2v2h2v-2Z"/>
  <rect id="__x3C_Transparent_Rectangle_x3E_" class="st0" width="32" height="32"/>
</svg>