<svg id="icon" xmlns="http://www.w3.org/2000/svg" width="32" height="32" viewBox="0 0 32 32">
  <defs>
    <style>
      .cls-1 {
        fill: none;
      }
    </style>
  </defs>
  <title>roadmap</title>
  <path d="M12,30H4a2.0023,2.0023,0,0,1-2-2V24a2.0023,2.0023,0,0,1,2-2h8a2.0023,2.0023,0,0,1,2,2v4A2.0023,2.0023,0,0,1,12,30ZM4,24v4h8V24Z"/>
  <path d="M28,20H12a2.0023,2.0023,0,0,1-2-2V14a2.0023,2.0023,0,0,1,2-2H28a2.0023,2.0023,0,0,1,2,2v4A2.0023,2.0023,0,0,1,28,20ZM12,14v4H28V14Z"/>
  <path d="M16,10H4A2.0023,2.0023,0,0,1,2,8V4A2.0023,2.0023,0,0,1,4,2H16a2.0023,2.0023,0,0,1,2,2V8A2.0023,2.0023,0,0,1,16,10ZM4,4V8H16V4Z"/>
  <rect id="_Transparent_Rectangle_" data-name="&lt;Transparent Rectangle&gt;" class="cls-1" width="32" height="32"/>
</svg>
