<svg id="icon" xmlns="http://www.w3.org/2000/svg" width="32" height="32" viewBox="0 0 32 32"><defs><style>.cls-1{fill:none;}</style></defs><title>rotate--counterclockwise--alt</title><path d="M16,30H4a2.0023,2.0023,0,0,1-2-2V16a2.0023,2.0023,0,0,1,2-2H16a2.0023,2.0023,0,0,1,2,2V28A2.0023,2.0023,0,0,1,16,30ZM4,16V28H16.0012L16,16Z" transform="translate(0)"/><path d="M30,15l-1.41-1.41L26,16.17V11a7.0078,7.0078,0,0,0-7-7H14V6h5a5.0057,5.0057,0,0,1,5,5v5.17l-2.59-2.58L20,15l5,5Z" transform="translate(0)"/><rect id="_Transparent_Rectangle_" data-name="&lt;Transparent Rectangle&gt;" class="cls-1" width="32" height="32"/></svg>