<svg id="icon" xmlns="http://www.w3.org/2000/svg" width="32" height="32" viewBox="0 0 32 32"><defs><style>.cls-1{fill:none;}</style></defs><title>rotate--counterclockwise--filled</title><path d="M2,28V16a2.0023,2.0023,0,0,1,2-2H16a2.0023,2.0023,0,0,1,2,2V28a2.0023,2.0023,0,0,1-2,2H4A2.0023,2.0023,0,0,1,2,28Z" transform="translate(0 0)"/><path d="M17,2l1.41,1.41L15.83,6H21a7.0078,7.0078,0,0,1,7,7v5H26V13a5.0057,5.0057,0,0,0-5-5H15.83l2.58,2.59L17,12,12,7Z" transform="translate(0 0)"/><rect id="_Transparent_Rectangle_" data-name="&lt;Transparent Rectangle&gt;" class="cls-1" width="32" height="32"/></svg>