<svg id="icon" xmlns="http://www.w3.org/2000/svg" width="32" height="32" viewBox="0 0 32 32"><defs><style>.cls-1{fill:none;}</style></defs><title>rotate--counterclockwise--alt</title><path d="M14,28V16a2.0023,2.0023,0,0,1,2-2H28a2.0023,2.0023,0,0,1,2,2V28a2.0023,2.0023,0,0,1-2,2H16A2.0023,2.0023,0,0,1,14,28Zm2-12-.0012,12H28V16Z" transform="translate(0 0)"/><path d="M2,15l1.41-1.41L6,16.17V11a7.0078,7.0078,0,0,1,7-7h5V6H13a5.0057,5.0057,0,0,0-5,5v5.17l2.59-2.58L12,15,7,20Z" transform="translate(0 0)"/><rect id="_Transparent_Rectangle_" data-name="&lt;Transparent Rectangle&gt;" class="cls-1" width="32" height="32"/></svg>