<svg id="icon" xmlns="http://www.w3.org/2000/svg" width="32" height="32" viewBox="0 0 32 32">
  <defs>
    <style>
      .cls-1 {
        fill: none;
      }
    </style>
  </defs>
  <title>row--expand</title>
  <polygon points="4 18 15 18 15 24.172 12.414 21.586 11 23 16 28 21 23 19.586 21.586 17 24.172 17 18 28 18 28 16 4 16 4 18"/>
  <path d="M26,4H6A2,2,0,0,0,4,6v4a2,2,0,0,0,2,2H26a2,2,0,0,0,2-2V6A2,2,0,0,0,26,4Zm0,6H6V6H26Z"/>
  <rect id="_Transparent_Rectangle_" data-name="&lt;Transparent Rectangle&gt;" class="cls-1" width="32" height="32"/>
</svg>
