<svg id="icon" xmlns="http://www.w3.org/2000/svg" width="32" height="32" viewBox="0 0 32 32">
  <defs>
    <style>
      .cls-1 {
        fill: none;
      }
    </style>
  </defs>
  <title>row--collapse</title>
  <path d="M26,20H6a2,2,0,0,0-2,2v4a2,2,0,0,0,2,2H26a2,2,0,0,0,2-2V22A2,2,0,0,0,26,20Zm0,6H6V22H26Z"/>
  <polygon points="17 7.828 19.586 10.414 21 9 16 4 11 9 12.414 10.414 15 7.828 15 14 4 14 4 16 28 16 28 14 17 14 17 7.828"/>
  <rect id="_Transparent_Rectangle_" data-name="&lt;Transparent Rectangle&gt;" class="cls-1" width="32" height="32"/>
</svg>
