<svg id="icon" xmlns="http://www.w3.org/2000/svg" width="32" height="32" viewBox="0 0 32 32">
  <defs>
    <style>
      .cls-1 {
        fill: none;
      }
    </style>
  </defs>
  <path d="M30,24a6,6,0,1,0-6,6A6.0066,6.0066,0,0,0,30,24Zm-2,0a3.9521,3.9521,0,0,1-.5669,2.019L21.981,20.5669A3.9529,3.9529,0,0,1,24,20,4.0045,4.0045,0,0,1,28,24Zm-8,0a3.9521,3.9521,0,0,1,.5669-2.019l5.4521,5.4521A3.9529,3.9529,0,0,1,24,28,4.0045,4.0045,0,0,1,20,24Z" transform="translate(0 0)"/>
  <rect x="8" y="16" width="10" height="2"/>
  <rect x="8" y="10" width="12" height="2"/>
  <path d="M14,27.7334l-5.2344-2.791A8.9858,8.9858,0,0,1,4,17V4H24l0,11h2L26,4a2.0023,2.0023,0,0,0-2-2H4A2.0023,2.0023,0,0,0,2,4V17a10.9814,10.9814,0,0,0,5.8242,9.707L14,30Z" transform="translate(0 0)"/>
  <rect id="_Transparent_Rectangle_" data-name="&lt;Transparent Rectangle&gt;" class="cls-1" width="32" height="32"/>
</svg>
