<?xml version="1.0" encoding="utf-8"?>
<!-- Generator: Adobe Illustrator 27.3.1, SVG Export Plug-In . SVG Version: 6.00 Build 0)  -->
<svg version="1.1" id="icon" xmlns="http://www.w3.org/2000/svg" xmlns:xlink="http://www.w3.org/1999/xlink" x="0px" y="0px"
	 width="32px" height="32px" viewBox="0 0 32 32" style="enable-background:new 0 0 32 32;" xml:space="preserve">
<style type="text/css">
	.st0{fill:none;}
</style>
<path d="M23,16c-3.9,0-7,3.1-7,7s3.1,7,7,7s7-3.1,7-7S26.9,16,23,16z M23,28V18c2.8,0,5,2.2,5,5S25.8,28,23,28z"/>
<rect x="8" y="16" width="6" height="2"/>
<rect x="8" y="10" width="12" height="2"/>
<path d="M26,4c0-1.1-0.9-2-2-2H4C2.9,2,2,2.9,2,4v13c0,4.1,2.2,7.8,5.8,9.7l5.2,2.8v-2.3l-4.2-2.3C5.8,23.4,4,20.3,4,17V4h20v9h2V4z
	"/>
<rect id="_x3C_Transparent_Rectangle_x3E__155_" class="st0" width="32" height="32"/>
</svg>
