<?xml version="1.0" encoding="UTF-8"?>
<svg id="Icon" xmlns="http://www.w3.org/2000/svg" width="32" height="32" viewBox="0 0 32 32">
  <defs>
    <style>
      .cls-1 {
        fill: none;
      }

      .cls-2 {
        fill: #000100;
      }
    </style>
  </defs>
  <path class="cls-2" d="M31,29.5829l-2.8325-2.8306c.5237-.7905.8325-1.7354.8325-2.7524,0-2.7568-2.2432-5-5-5s-5,2.2432-5,5,2.2432,5,5,5c1.0171,0,1.9619-.3086,2.7524-.8325l2.8306,2.8325,1.417-1.417ZM21,23.9999c0-1.6543,1.3457-3,3-3s3,1.3457,3,3-1.3457,3-3,3-3-1.3457-3-3ZM28.42,6.9999H10.58c-.87,0-1.58.7-1.58,1.57v12.2201c0,3.19.27,6.12,3.11,7.62l4.89,2.59v-2.26l-3.95-2.09c-2.19-1.16-2.05-3.41-2.05-5.86v-11.7901h17v8.0001h2v-8.4301c0-.87-.71-1.57-1.58-1.57ZM21.42.9999H3.58c-.87,0-1.58.7-1.58,1.57v12.22c0,3.19.27,6.12,3.11,7.62l1.89,1v-2.2599l-.95-.5c-2.19-1.16-2.05-3.41-2.05-5.86V2.9999h17v2h2v-2.43c0-.87-.71-1.57-1.58-1.57ZM24,13h-11v-2h11v2ZM22,17h-9v-2h9v2Z"/>
  <rect class="cls-1" x="0" y="0" width="32" height="32"/>
</svg>