<svg id="icon" xmlns="http://www.w3.org/2000/svg" width="32" height="32" viewBox="0 0 32 32">
  <defs>
    <style>
      .cls-1 {
        fill: none;
      }
    </style>
  </defs>
  <path d="M30,2H2V16H8.1113a7.0359,7.0359,0,0,1,3.13.7393L15.7637,19l-4.522,2.2607A7.0359,7.0359,0,0,1,8.1113,22H2v8H9.2231a9.0446,9.0446,0,0,0,4.0249-.95L21.87,24.7393A7.0359,7.0359,0,0,1,25,24h5V14H25a7.0359,7.0359,0,0,1-3.13-.7393L15.3481,10H30ZM8,4H24V8H8ZM4,4H6V14H4ZM4,24H6v4H4Zm16.9751-1.05-8.6216,4.3105A7.0359,7.0359,0,0,1,9.2231,28H8V24h.1113a9.0446,9.0446,0,0,0,4.0249-.95L18,20.1182l1.8638.9316a9.0446,9.0446,0,0,0,4.0249.95H24v.0586A9.0515,9.0515,0,0,0,20.9751,22.95ZM28,22H26V16h2ZM12.3535,10.7393l8.6216,4.31A9.0515,9.0515,0,0,0,24,15.9414V20h-.1113a7.0359,7.0359,0,0,1-3.13-.7393l-8.6221-4.31A9.0446,9.0446,0,0,0,8.1113,14H8V10H9.2231A7.0359,7.0359,0,0,1,12.3535,10.7393ZM28,8H26V4h2Z"/>
  <rect id="_Transparent_Rectangle_" data-name="&lt;Transparent Rectangle&gt;" class="cls-1" width="32" height="32"/>
</svg>
