<svg id="Layer_1" data-name="Layer 1" xmlns="http://www.w3.org/2000/svg" width="32" height="32" viewBox="0 0 32 32">
  <defs>
    <style>
      .cls-1 {
        fill: none;
      }
    </style>
  </defs>
  <path d="M20,16a5,5,0,0,0,10,0,1,1,0,0,0-.1055-.4473L25.896,7.5562a.8913.8913,0,0,0-.0454-.0816A1,1,0,0,0,25,7H18.8218A3.0155,3.0155,0,0,0,17,5.1841V2H15V5.1841A3.0155,3.0155,0,0,0,13.1782,7H7a1,1,0,0,0-.8945.5527l-4,8A1,1,0,0,0,2,16a5,5,0,0,0,10,0,1,1,0,0,0-.1055-.4473L8.6182,9h4.56A3.0147,3.0147,0,0,0,15,10.8154V28H6v2H26V28H17V10.8159A3.0155,3.0155,0,0,0,18.8218,9h4.56l-3.2763,6.5527A1,1,0,0,0,20,16ZM7,19a2.9958,2.9958,0,0,1-2.8152-2h5.63A2.9956,2.9956,0,0,1,7,19Zm2.3821-4H4.6179L7,10.2363ZM16,9a1,1,0,1,1,1-1A1.0009,1.0009,0,0,1,16,9Zm9,10a2.9958,2.9958,0,0,1-2.8152-2h5.63A2.9956,2.9956,0,0,1,25,19Zm0-8.7637L27.3821,15H22.6179Z" transform="translate(0 0)"/>
  <rect id="_Transparent_Rectangle_" data-name="&lt;Transparent Rectangle&gt;" class="cls-1" width="32" height="32"/>
</svg>
