<svg id="icon" xmlns="http://www.w3.org/2000/svg" width="32" height="32" viewBox="0 0 32 32">
  <defs>
    <style>
      .cls-1 {
        fill: none;
      }
    </style>
  </defs>
  <path d="M23,23v3H8.5a4.5,4.5,0,0,1,0-9H9V15H8.5a6.5,6.5,0,0,0,0,13H23v3h8V23Zm6,6H25V25h4Z"/>
  <path d="M21,22H19V19H13v3H11V19a2.0023,2.0023,0,0,1,2-2h6a2.0023,2.0023,0,0,1,2,2Z"/>
  <path d="M16,16a3,3,0,1,1,3-3A3.0033,3.0033,0,0,1,16,16Zm0-4a1,1,0,1,0,1,1A1.0013,1.0013,0,0,0,16,12Z"/>
  <path d="M23.5,4H9V1H1V9H9V6H23.5a4.5,4.5,0,0,1,0,9H23v2h.5a6.5,6.5,0,0,0,0-13ZM7,7H3V3H7Z"/>
  <rect id="_Transparent_Rectangle_" data-name="&lt;Transparent Rectangle&gt;" class="cls-1" width="32" height="32"/>
</svg>
