<svg id="icon" xmlns="http://www.w3.org/2000/svg" width="32" height="32" viewBox="0 0 32 32"><defs><style>.cls-1{fill:none;}</style></defs><title>scooter</title><path d="M26,28a4,4,0,1,1,4-4A4.0045,4.0045,0,0,1,26,28Zm0-6a2,2,0,1,0,2,2A2.0023,2.0023,0,0,0,26,22Z"/><path d="M24,8H18v2h6a1,1,0,0,1,0,2H21a1,1,0,0,0-.98,1.1963l.9241,4.6211L18.4338,22h-2.69l-2.5723-8.5752A1.988,1.988,0,0,0,11.2559,12H6v2h5.2561l.6,2H7a5.0057,5.0057,0,0,0-5,5v2a1,1,0,0,0,1,1H4a4,4,0,0,0,8,0h7a1,1,0,0,0,.8574-.4854l3-5a1,1,0,0,0,.1231-.7109L22.22,14H24a3,3,0,0,0,0-6ZM8,26a2.0025,2.0025,0,0,1-2-2h4A2.0025,2.0025,0,0,1,8,26ZM4,22V21a3.0033,3.0033,0,0,1,3-3h5.4561l1.2,4Z"/><rect id="_Transparent_Rectangle_" data-name="&lt;Transparent Rectangle&gt;" class="cls-1" width="32" height="32"/></svg>