<svg id="icon" xmlns="http://www.w3.org/2000/svg" width="32" height="32" viewBox="0 0 32 32">
  <defs>
    <style>
      .cls-1 {
        fill: none;
      }
    </style>
  </defs>
  <polygon points="4 20 4 22 8.586 22 2 28.586 3.414 30 10 23.414 10 28 12 28 12 20 4 20"/>
  <polygon points="27.17 26 24.59 28.58 26 30 30 26 26 22 24.58 23.41 27.17 26"/>
  <polygon points="18.83 26 21.41 23.42 20 22 16 26 20 30 21.42 28.59 18.83 26"/>
  <path d="M25.7,9.3l-7-7A.9087.9087,0,0,0,18,2H8A2.0058,2.0058,0,0,0,6,4V16H8V4h8v6a2.0058,2.0058,0,0,0,2,2h6v6h2V10A.9092.9092,0,0,0,25.7,9.3ZM18,10V4.4L23.6,10Z"/>
  <rect id="_Transparent_Rectangle_" data-name="&lt;Transparent Rectangle&gt;" class="cls-1" width="32" height="32"/>
</svg>
