<?xml version="1.0" encoding="utf-8"?>
<!-- Generator: Adobe Illustrator 26.5.0, SVG Export Plug-In . SVG Version: 6.00 Build 0)  -->
<svg version="1.1" id="icon" xmlns="http://www.w3.org/2000/svg" xmlns:xlink="http://www.w3.org/1999/xlink" x="0px" y="0px"
	 width="32px" height="32px" viewBox="0 0 32 32" style="enable-background:new 0 0 32 32;" xml:space="preserve">
<style type="text/css">
	.st0{fill:none;}
</style>
<path d="M21,28.6l-4.7-4.7c1.1-1.4,1.7-3.1,1.7-4.9c0-4.4-3.6-8-8-8s-8,3.6-8,8s3.6,8,8,8c1.8,0,3.5-0.6,4.9-1.7l4.7,4.7L21,28.6z
	 M10,25c-3.3,0-6-2.7-6-6s2.7-6,6-6s6,2.7,6,6S13.3,25,10,25z"/>
<rect x="22" y="12" width="8" height="2"/>
<rect x="14" y="7" width="16" height="2"/>
<rect x="14" y="2" width="16" height="2"/>
<rect id="_x3C_Transparent_Rectangle_x3E__363_" class="st0" width="32" height="32"/>
</svg>
