<svg id="icon" xmlns="http://www.w3.org/2000/svg" width="32" height="32" viewBox="0 0 32 32">
  <defs>
    <style>
      .cls-1 {
        fill: none;
      }
    </style>
  </defs>
  <path d="M30,24V22H27.8989a4.9678,4.9678,0,0,0-.7319-1.7529l1.49-1.49-1.414-1.414-1.49,1.49A4.9678,4.9678,0,0,0,24,18.1011V16H22v2.1011a4.9678,4.9678,0,0,0-1.7529.7319l-1.49-1.49-1.414,1.414,1.49,1.49A4.9678,4.9678,0,0,0,18.1011,22H16v2h2.1011a4.9678,4.9678,0,0,0,.7319,1.7529l-1.49,1.49,1.414,1.414,1.49-1.49A4.9678,4.9678,0,0,0,22,27.8989V30h2V27.8989a4.9678,4.9678,0,0,0,1.7529-.7319l1.49,1.49,1.414-1.414-1.49-1.49A4.9678,4.9678,0,0,0,27.8989,24Zm-7,2a3,3,0,1,1,3-3A3.0033,3.0033,0,0,1,23,26Z" transform="translate(0 0)"/>
  <path d="M14,26.667l-3.2344-1.7246A8.9858,8.9858,0,0,1,6,17V4H26V14h2V4a2.0023,2.0023,0,0,0-2-2H6A2.0023,2.0023,0,0,0,4,4V17a10.9814,10.9814,0,0,0,5.8242,9.707L14,28.9336Z" transform="translate(0 0)"/>
  <rect id="_Transparent_Rectangle_" data-name="&lt;Transparent Rectangle&gt;" class="cls-1" width="32" height="32"/>
</svg>
