<svg id="icon" xmlns="http://www.w3.org/2000/svg" width="32" height="32" viewBox="0 0 32 32">
  <defs>
    <style>
      .cls-1 {
        fill: none;
      }
    </style>
  </defs>
  <circle cx="10" cy="28" r="2"/>
  <circle cx="24" cy="28" r="2"/>
  <path d="M4.9806,2.8039A1,1,0,0,0,4,2H0V4H3.18L7.0194,23.1961A1,1,0,0,0,8,24H26V22H8.82l-.8-4H26a1,1,0,0,0,.9762-.783L29.2445,7H27.1971l-1.9989,9H7.62Z" transform="translate(0)"/>
  <polygon points="21.586 9.414 18 5.828 18 14 16 14 16 5.828 12.414 9.414 11 8 17 2 23 8 21.586 9.414"/>
  <rect id="_Transparent_Rectangle_" data-name="&lt;Transparent Rectangle&gt;" class="cls-1" width="32" height="32"/>
</svg>
