<svg id="icon" xmlns="http://www.w3.org/2000/svg" viewBox="0 0 32 32"><defs><style>.cls-1{fill:#1d1d1d;}.cls-2{fill:none;}</style></defs><title>catalog</title><rect x="17" y="24" width="4" height="4"/><rect x="24" y="24" width="4" height="4"/><rect x="17" y="17" width="4" height="4"/><rect x="24" y="17" width="4" height="4"/><path class="cls-1" d="M28,11H22V7a3,3,0,0,0-3-3H13a3,3,0,0,0-3,3v4H4a1,1,0,0,0-1,1.15L4.88,24.3a2,2,0,0,0,2,1.7H15V24H6.86L5.17,13H28ZM12,7a1,1,0,0,1,1-1h6a1,1,0,0,1,1,1v4H12Z"/><rect id="_Transparent_Rectangle_" data-name="&lt;Transparent Rectangle&gt;" class="cls-2" width="32" height="32"/></svg>