<svg id="icon" xmlns="http://www.w3.org/2000/svg" width="32" height="32" viewBox="0 0 32 32">
  <defs>
    <style>
      .cls-1 {
        fill: none;
      }
    </style>
  </defs>
  <circle cx="10" cy="28" r="2"/>
  <circle cx="24" cy="28" r="2"/>
  <path d="M4.9806,2.8039A1,1,0,0,0,4,2H0V4H3.18L7.0194,23.1961A1,1,0,0,0,8,24H26V22H8.82l-.8-4H26a1,1,0,0,0,.9762-.783L29.2445,7H27.1971l-1.9989,9H7.62Z" transform="translate(0)"/>
  <path d="M17,2a6,6,0,1,0,6,6A6.0066,6.0066,0,0,0,17,2Zm0,2a3.9521,3.9521,0,0,1,2.019.5669L13.5669,10.019A3.9529,3.9529,0,0,1,13,8,4.0045,4.0045,0,0,1,17,4Zm0,8a3.9521,3.9521,0,0,1-2.019-.5669L20.4331,5.981A3.9529,3.9529,0,0,1,21,8,4.0045,4.0045,0,0,1,17,12Z" transform="translate(0)"/>
  <rect id="_Transparent_Rectangle_" data-name="&lt;Transparent Rectangle&gt;" class="cls-1" width="32" height="32"/>
</svg>
