<svg id="icon" xmlns="http://www.w3.org/2000/svg" width="32" height="32" viewBox="0 0 32 32">
  <defs>
    <style>
      .cls-1 {
        fill: none;
      }
    </style>
  </defs>
  <path d="M21,9H8a2.0023,2.0023,0,0,0-2,2V21a2.0023,2.0023,0,0,0,2,2H21a2.0023,2.0023,0,0,0,2-2V11A2.0023,2.0023,0,0,0,21,9Zm0,4H18V11h3Zm-3,2h3v2H18Zm-2-4V21H13V14a1,1,0,0,0-1-1H8V11Zm-5,6H8V15h3ZM8,19h3v2H8Zm10,2V19h3v2Z" transform="translate(0 0)"/>
  <path d="M23.5317,27H4a2.0021,2.0021,0,0,1-2-2V7A2.0021,2.0021,0,0,1,4,5H28a2.0021,2.0021,0,0,1,2,2V19.6379a2.0044,2.0044,0,0,1-.4639,1.2808L25.0679,26.28A1.9944,1.9944,0,0,1,23.5317,27ZM4,7V25H23.5317L28,19.6379V7Z" transform="translate(0 0)"/>
  <rect id="_Transparent_Rectangle_" data-name="&lt;Transparent Rectangle&gt;" class="cls-1" width="32" height="32"/>
</svg>
