<svg id="icon" xmlns="http://www.w3.org/2000/svg" width="32" height="32" viewBox="0 0 32 32">
  <defs>
    <style>
      .cls-1 {
        fill: none;
      }
    </style>
  </defs>
  <rect x="21" y="10" width="2" height="12"/>
  <path d="M8.4927,21.8618A1,1,0,0,1,8,21V11a1,1,0,0,1,1.4858-.8742l9,5a1,1,0,0,1,0,1.7485l-9,5a1.0009,1.0009,0,0,1-.9931-.0125Z"/>
  <path d="M16,30A14,14,0,1,1,30,16,14.0158,14.0158,0,0,1,16,30ZM16,4A12,12,0,1,0,28,16,12.0137,12.0137,0,0,0,16,4Z"/>
  <rect id="_Transparent_Rectangle_" data-name="&lt;Transparent Rectangle&gt;" class="cls-1" width="32" height="32"/>
</svg>
