<svg id="icon" xmlns="http://www.w3.org/2000/svg" width="32" height="32" viewBox="0 0 32 32">
  <defs>
    <style>
      .cls-1 {
        fill: none;
      }
    </style>
  </defs>
  <path d="M16,2A14,14,0,1,0,30,16,14,14,0,0,0,16,2Zm2.4858,14.874-9,5A1,1,0,0,1,8,21V11a1,1,0,0,1,1.4858-.874l9,5a1,1,0,0,1,0,1.748ZM24,22H22V10h2Z"/>
  <rect id="inner-path_2" data-name="inner-path 2" class="cls-1" x="22" y="10" width="2" height="12"/>
  <path id="inner-path_1" data-name="inner-path 1" class="cls-1" d="M8.4927,21.8618A1,1,0,0,1,8,21V11a1,1,0,0,1,1.4858-.8743l9,5a1,1,0,0,1,0,1.7486l-9,5a1.0009,1.0009,0,0,1-.9931-.0125Z"/>
  <rect id="_Transparent_Rectangle_" data-name="&lt;Transparent Rectangle&gt;" class="cls-1" width="32" height="32"/>
</svg>
