<svg id="Layer_1" data-name="Layer 1" xmlns="http://www.w3.org/2000/svg" width="32" height="32" viewBox="0 0 32 32">
  <defs>
    <style>
      .cls-1 {
        fill: none;
      }
    </style>
  </defs>
  <path d="M16,28a9.0114,9.0114,0,0,1-9-9,9.9843,9.9843,0,0,1,1.4941-4.9554L15.1528,3.4367a1.04,1.04,0,0,1,1.6944,0l6.6289,10.5564A10.0633,10.0633,0,0,1,25,19,9.0114,9.0114,0,0,1,16,28ZM16,5.8483l-5.7817,9.2079A7.9771,7.9771,0,0,0,9,19a7,7,0,0,0,14,0,8.0615,8.0615,0,0,0-1.248-3.9953Z" transform="translate(0 0)"/>
  <polygon points="20.6 16.8 19.4 15.2 17 17 17 14 15 14 15 17 12.6 15.2 11.4 16.8 14.333 19 11.4 21.2 12.6 22.8 15 21 15 24 17 24 17 21 19.4 22.8 20.6 21.2 17.667 19 20.6 16.8"/>
  <rect id="_Transparent_Rectangle_" data-name="&lt;Transparent Rectangle&gt;" class="cls-1" width="32" height="32"/>
</svg>
