<svg xmlns="http://www.w3.org/2000/svg" viewBox="0 0 32 32"><rect width="2" height="2" x="2" y="26"/><rect width="2" height="2" x="4" y="28"/><rect width="2" height="2" x="6" y="30"/><rect width="2" height="2" x="6" y="26"/><rect width="2" height="2" x="2" y="30"/><rect width="2" height="2" x="20" y="26"/><rect width="2" height="2" x="22" y="28"/><rect width="2" height="2" x="24" y="30"/><rect width="2" height="2" x="24" y="26"/><rect width="2" height="2" x="20" y="30"/><rect width="2" height="2" x="11" y="26"/><rect width="2" height="2" x="13" y="28"/><rect width="2" height="2" x="15" y="30"/><rect width="2" height="2" x="15" y="26"/><rect width="2" height="2" x="11" y="30"/><rect width="2" height="3" x="20"/><rect width="3" height="2" x="29" y="10.001"/><rect width="3" height="2" x="26.732" y="3.768" transform="rotate(-45 28.232 4.768)"/><rect width="3" height="2" x="26.732" y="16.233" transform="rotate(-135 28.232 17.233)"/><rect width="3" height="2" x="12.268" y="3.768" transform="rotate(-135 13.768 4.768)"/><path d="M27,11A5.9852,5.9852,0,0,0,16.1431,7.5083,7.3737,7.3737,0,0,0,13.5,7a7.5511,7.5511,0,0,0-7.1494,5.2441A5.9926,5.9926,0,0,0,8,24H19a5.9672,5.9672,0,0,0,5.5667-8.2A5.9722,5.9722,0,0,0,27,11ZM19,22H8a3.9926,3.9926,0,0,1-.6733-7.9292l.663-.1128.1456-.6562a5.496,5.496,0,0,1,10.7294,0l.1456.6562.6626.1128A3.9925,3.9925,0,0,1,19,22Zm4.5222-7.9131a5.9592,5.9592,0,0,0-2.8728-1.8428,7.5212,7.5212,0,0,0-2.7224-3.78,3.9869,3.9869,0,1,1,5.5952,5.6225Z"/></svg>