<svg xmlns="http://www.w3.org/2000/svg" viewBox="0 0 32 32"><rect width="2" height="2" x="13" y="10"/><rect width="2" height="2" x="15" y="12"/><rect width="2" height="2" x="17" y="14"/><rect width="2" height="2" x="17" y="10"/><rect width="2" height="2" x="13" y="14"/><rect width="2" height="2" x="3" y="26"/><rect width="2" height="2" x="5" y="28"/><rect width="2" height="2" x="7" y="30"/><rect width="2" height="2" x="7" y="26"/><rect width="2" height="2" x="3" y="30"/><rect width="2" height="2" x="23" y="26"/><rect width="2" height="2" x="25" y="28"/><rect width="2" height="2" x="27" y="30"/><rect width="2" height="2" x="27" y="26"/><rect width="2" height="2" x="23" y="30"/><rect width="2" height="2" x="8" y="18"/><rect width="2" height="2" x="10" y="20"/><rect width="2" height="2" x="12" y="22"/><rect width="2" height="2" x="12" y="18"/><rect width="2" height="2" x="8" y="22"/><rect width="2" height="2" x="18" y="18"/><rect width="2" height="2" x="20" y="20"/><rect width="2" height="2" x="22" y="22"/><rect width="2" height="2" x="22" y="18"/><rect width="2" height="2" x="18" y="22"/><rect width="2" height="2" x="13" y="26"/><rect width="2" height="2" x="15" y="28"/><rect width="2" height="2" x="17" y="30"/><rect width="2" height="2" x="17" y="26"/><rect width="2" height="2" x="13" y="30"/><path d="M24.8008,9.1362a8.9943,8.9943,0,0,0-17.6006,0A6.4957,6.4957,0,0,0,6,21.4985v-2.26A4.4943,4.4943,0,0,1,8.144,11.019l.8155-.0639.0991-.812a6.9938,6.9938,0,0,1,13.8838,0l.0986.812.8154.0639A4.4944,4.4944,0,0,1,26,19.2383v2.26A6.4958,6.4958,0,0,0,24.8008,9.1362Z"/></svg>