<?xml version="1.0" encoding="UTF-8"?>
<svg id="Layer_1" data-name="Layer 1" xmlns="http://www.w3.org/2000/svg" width="32" height="32" viewBox="0 0 32 32">
  <defs>
    <style>
      .cls-1 {
        fill: none;
      }
    </style>
  </defs>
  <path d="M29,30H3c-.5522,0-1-.4473-1-1V3c0-.5522.4478-1,1-1h26c.5527,0,1,.4478,1,1v26c0,.5527-.4473,1-1,1ZM4,28h24V4H4v24ZM16,26c-5.5142,0-10-4.4863-10-10s4.4858-10,10-10,10,4.4858,10,10-4.4863,10-10,10ZM16,8c-4.4111,0-8,3.5889-8,8s3.5889,8,8,8,8-3.5889,8-8-3.5889-8-8-8ZM13.5,16c0-.8284-.6716-1.5-1.5-1.5s-1.5.6716-1.5,1.5.6716,1.5,1.5,1.5,1.5-.6716,1.5-1.5ZM21.5,16c0-.8284-.6716-1.5-1.5-1.5s-1.5.6716-1.5,1.5.6716,1.5,1.5,1.5,1.5-.6716,1.5-1.5Z"/>
  <rect id="Transparent_Rectangle" data-name="Transparent Rectangle" class="cls-1" width="32" height="32"/>
</svg>