<svg id="Layer_1" data-name="Layer 1" xmlns="http://www.w3.org/2000/svg" width="32" height="32" viewBox="0 0 32 32">
  <defs>
    <style>
      .cls-1 {
        fill: none;
      }
    </style>
  </defs>
  <path d="M24.5,30a5.202,5.202,0,0,1-4.626-8.08L23.49,16.5382a1.217,1.217,0,0,1,2.02,0L29.06,21.8154A5.4921,5.4921,0,0,1,30,24.751,5.385,5.385,0,0,1,24.5,30Zm0-11.38-2.9356,4.3672A3.2079,3.2079,0,0,0,24.5,28,3.3855,3.3855,0,0,0,28,24.751a3.4354,3.4354,0,0,0-.63-1.867Z" transform="translate(0 0)"/>
  <path d="M11,16V11h1a4.0045,4.0045,0,0,0,4-4V4H13a3.9779,3.9779,0,0,0-2.7468,1.1067A6.0034,6.0034,0,0,0,5,2H2V5a6.0066,6.0066,0,0,0,6,6H9v5H2v2H16V16ZM13,6h1V7a2.002,2.002,0,0,1-2,2H11V8A2.002,2.002,0,0,1,13,6ZM8,9A4.0045,4.0045,0,0,1,4,5V4H5A4.0045,4.0045,0,0,1,9,8V9Z" transform="translate(0 0)"/>
  <rect x="2" y="21" width="14" height="2"/>
  <rect x="2" y="26" width="14" height="2"/>
  <rect id="_Transparent_Rectangle_" data-name="&lt;Transparent Rectangle&gt;" class="cls-1" width="32" height="32"/>
</svg>
