<svg id="icon" xmlns="http://www.w3.org/2000/svg" viewBox="0 0 32 32"><defs><style>.cls-1{fill:none;}</style></defs><title>spell-check</title><path d="M20,22h2L17,10H15L10,22h2l1.24-3h5.53Zm-5.93-5,1.82-4.42h.25L18,17Z"/><path d="M12,28H6a2,2,0,0,1-2-2V6A2,2,0,0,1,6,4H26a2,2,0,0,1,2,2V17H26V6H6V26h6Z"/><polygon points="23 27.18 20.41 24.59 19 26 23 30 30 23 28.59 21.59 23 27.18"/><rect id="_Transparent_Rectangle_" data-name="&lt;Transparent Rectangle&gt;" class="cls-1" width="32" height="32"/></svg>