<svg id="icon" xmlns="http://www.w3.org/2000/svg" width="32" height="32" viewBox="0 0 32 32">
  <defs>
    <style>
      .cls-1 {
        fill: none;
      }
    </style>
  </defs>
  <title>split</title>
  <rect x="15" y="20" width="2" height="4"/>
  <rect x="15" y="14" width="2" height="4"/>
  <rect x="15" y="8" width="2" height="4"/>
  <path d="M28,16A12.01,12.01,0,0,0,17,4.0508V2H15V4.0508a11.99,11.99,0,0,0,0,23.8984V30h2V27.9492A12.01,12.01,0,0,0,28,16ZM16,26A10,10,0,1,1,26,16,10.0114,10.0114,0,0,1,16,26Z"/>
  <rect id="_Transparent_Rectangle_" data-name="&lt;Transparent Rectangle&gt;" class="cls-1" width="32" height="32"/>
</svg>
