<svg id="icon" xmlns="http://www.w3.org/2000/svg" viewBox="0 0 32 32"><defs><style>.cls-1{fill:none;}</style></defs><title>SQL</title><polygon points="24 21 24 9 22 9 22 23 30 23 30 21 24 21"/><path d="M18,9H14a2,2,0,0,0-2,2V21a2,2,0,0,0,2,2h1v2a2,2,0,0,0,2,2h2V25H17V23h1a2,2,0,0,0,2-2V11A2,2,0,0,0,18,9ZM14,21V11h4V21Z"/><path d="M8,23H2V21H8V17H4a2,2,0,0,1-2-2V11A2,2,0,0,1,4,9h6v2H4v4H8a2,2,0,0,1,2,2v4A2,2,0,0,1,8,23Z"/><rect id="_Transparent_Rectangle_" data-name="&lt;Transparent Rectangle&gt;" class="cls-1" width="32" height="32"/></svg>