<?xml version="1.0" encoding="UTF-8"?>
<svg id="icon" xmlns="http://www.w3.org/2000/svg" width="32" height="32" viewBox="0 0 32 32">
  <defs>
    <style>
      .cls-1 {
        fill: none;
      }
    </style>
  </defs>
  <g id="_Compound_Path_" data-name="&amp;lt;Compound Path&amp;gt;">
    <path d="M30,22v-12c0-1.1-.9-2-2-2H12c-1.1,0-2,.9-2,2v18c0,1.1.9,2,2,2h10c.3,0,.5-.1.7-.3l7-7c.2-.2.3-.4.3-.7ZM22,22h5.6s-5.6,5.6-5.6,5.6v-5.6ZM28,20h-6c-1.1,0-2,.9-2,2v6h-8V10h16v10Z"/>
    <path d="M4,22V4h16v2h2v-2c0-1.1001-.8999-2-2-2H4c-1.1001,0-2,.8999-2,2v18c0,1.1001.8999,2,2,2h4v-2H4Z"/>
  </g>
  <rect id="_Transparent_Rectangle_" data-name="&amp;lt;Transparent Rectangle&amp;gt;" class="cls-1" width="32" height="32"/>
</svg>