<svg id="icon" xmlns="http://www.w3.org/2000/svg" viewBox="0 0 32 32"><defs><style>.cls-1{fill:none;}</style></defs><title>stop--outline</title><path d="M16,4A12,12,0,1,1,4,16,12,12,0,0,1,16,4m0-2A14,14,0,1,0,30,16,14,14,0,0,0,16,2Z" transform="translate(0)"/><path d="M20,12v8H12V12h8m0-2H12a2,2,0,0,0-2,2v8a2,2,0,0,0,2,2h8a2,2,0,0,0,2-2V12a2,2,0,0,0-2-2Z" transform="translate(0)"/><rect id="_Transparent_Rectangle_" data-name="&lt;Transparent Rectangle&gt;" class="cls-1" width="32" height="32"/></svg>