<?xml version="1.0" encoding="UTF-8"?>
<svg id="Layer_1" data-name="Layer 1" xmlns="http://www.w3.org/2000/svg" width="32" height="32" viewBox="0 0 32 32">
  <defs>
    <style>
      .cls-1 {
        fill: none;
      }
    </style>
  </defs>
  <path id="storm" d="M9,20c.5523,0,1,.4477,1,1s-.4477,1-1,1-1-.4477-1-1,.4477-1,1-1ZM28,23.25v-4.5c0-.9648-.8281-1.75-1.8457-1.75H5.8462c-1.0181,0-1.8462.7852-1.8462,1.75v4.5c0,.9648.8281,1.75,1.8462,1.75h20.3081c1.0176,0,1.8457-.7852,1.8457-1.75ZM6,19h20v4H6v-4ZM9,13h-3v-4h3v-2h-3c-1.103,0-2,.897-2,2v4c0,1.103.897,2,2,2h3v-2ZM28,13v-4c0-1.103-.8975-2-2-2h-3v2h3v4h-3v2h3c1.1025,0,2-.897,2-2ZM15,7h-4v2h4v-2ZM15,13h-4v2h4v-2ZM21,7h-4v2h4v-2ZM21,13h-4v2h4v-2Z"/>
  <rect id="Transparent_Rectangle" data-name="Transparent Rectangle" class="cls-1" width="32" height="32"/>
</svg>