<?xml version="1.0" encoding="UTF-8"?>
<svg id="Layer_1" data-name="Layer 1" xmlns="http://www.w3.org/2000/svg" width="32" height="32" viewBox="0 0 32 32">
  <defs>
    <style>
      .cls-1 {
        fill: none;
      }
    </style>
  </defs>
  <path id="status" d="M9,25c.5523,0,1,.4477,1,1s-.4477,1-1,1-1-.4477-1-1,.4477-1,1-1ZM8,6c0,.5523.4477,1,1,1s1-.4477,1-1-.4477-1-1-1-1,.4477-1,1ZM8,16c0,.5523.4477,1,1,1s1-.4477,1-1-.4477-1-1-1-1,.4477-1,1ZM16,19h10c.5523,0,1-.4477,1-1v-4c0-.5523-.4477-1-1-1h-10M28,18v-4c0-1.103-.8975-2-2-2h-10v2h10v4h-10v2h10c1.1025,0,2-.8975,2-2ZM22,9h4c.5523,0,1-.4477,1-1V4c0-.5523-.4477-1-1-1h-4M28,8v-4c0-1.103-.8975-2-2-2h-4v2h4v4h-4v2h4c1.1025,0,2-.897,2-2ZM16,18H6v-4h10v-2H6c-1.103,0-2,.897-2,2v4c0,1.1025.897,2,2,2h10v-2ZM22,8H6v-4h16v-2H6c-1.103,0-2,.897-2,2v4c0,1.103.897,2,2,2h16v-2ZM18,28H6v-4h12v-2H6c-1.103,0-2,.8975-2,2v4c0,1.1025.897,2,2,2h12v-2ZM18,29h8c.5523,0,1-.4477,1-1v-4c0-.5523-.4477-1-1-1h-8M28,28v-4c0-1.1025-.8975-2-2-2h-8v2h8v4h-8v2h8c1.1025,0,2-.8975,2-2Z"/>
  <rect id="Transparent_Rectangle" data-name="Transparent Rectangle" class="cls-1" width="32" height="32"/>
</svg>