<svg id="icon" xmlns="http://www.w3.org/2000/svg" width="32" height="32" viewBox="0 0 32 32">
  <defs>
    <style>
      .cls-1 {
        fill: none;
      }
    </style>
  </defs>
  <title>string-text</title>
  <path d="M29,22H24a2.0027,2.0027,0,0,1-2-2V14a2.0023,2.0023,0,0,1,2-2h5v2H24v6h5Z"/>
  <path d="M18,12H14V8H12V22h6a2.0027,2.0027,0,0,0,2-2V14A2.0023,2.0023,0,0,0,18,12Zm-4,8V14h4v6Z"/>
  <path d="M8,12H3v2H8v2H4a2,2,0,0,0-2,2v2a2,2,0,0,0,2,2h6V14A2.0023,2.0023,0,0,0,8,12Zm0,8H4V18H8Z"/>
  <rect id="_Transparent_Rectangle_" data-name="&lt;Transparent Rectangle&gt;" class="cls-1" width="32" height="32"/>
</svg>
