<svg id="icon" xmlns="http://www.w3.org/2000/svg" width="32" height="32" viewBox="0 0 32 32">
  <defs>
    <style>
      .cls-1 {
        fill: none;
      }
    </style>
  </defs>
  <path d="M15.3472,29.9851a13.9282,13.9282,0,0,1-4.2051-.8516l.6943-1.8754a11.929,11.929,0,0,0,3.6026.729Zm4.2651-.4558-.5146-1.9326a11.915,11.915,0,0,0,3.3632-1.4827l1.0782,1.6846A13.915,13.915,0,0,1,19.6123,29.5293ZM7.395,27.0439a14.0632,14.0632,0,0,1-2.94-3.1218l1.6484-1.1333a12.0521,12.0521,0,0,0,2.522,2.6785ZM2.5967,20.0544A14.0512,14.0512,0,0,1,2.0005,16H4a12.0412,12.0412,0,0,0,.5117,3.4763Z"/>
  <path d="M26,17l-1.4141,1.4141L26.1719,20H15.8157a2.9874,2.9874,0,0,0-.2742-.5762l4.481-5.601A2.9676,2.9676,0,0,0,21,14a3,3,0,1,0-2.8157-4H13.8157a2.982,2.982,0,0,0-5.6314,0H2v2H8.1843a2.982,2.982,0,0,0,5.6314,0h4.3686a2.9874,2.9874,0,0,0,.2742.5762l-4.481,5.601A2.9676,2.9676,0,0,0,13,18a3,3,0,1,0,2.8157,4H26.1719l-1.586,1.5859L26,25l4-4Zm-5-7a1,1,0,1,1-1,1A1.0009,1.0009,0,0,1,21,10ZM11,12a1,1,0,1,1,1-1A1.0009,1.0009,0,0,1,11,12Zm2,10a1,1,0,1,1,1-1A1.0009,1.0009,0,0,1,13,22Z"/>
  <path d="M28,16a12.0412,12.0412,0,0,0-.5117-3.4763l1.915-.5781A14.0551,14.0551,0,0,1,30,16ZM25.8965,9.2112a12.0521,12.0521,0,0,0-2.522-2.6785l1.23-1.5766a14.0632,14.0632,0,0,1,2.94,3.1218ZM9.5391,5.886,8.4609,4.2014a13.915,13.915,0,0,1,3.9268-1.7307l.5146,1.9326A11.915,11.915,0,0,0,9.5391,5.886ZM20.1636,4.7419a11.929,11.929,0,0,0-3.6026-.729l.0918-1.998a13.9282,13.9282,0,0,1,4.2051.8516Z"/>
  <rect id="_Transparent_Rectangle_" data-name="&lt;Transparent Rectangle&gt;" class="cls-1" width="32" height="32"/>
</svg>
