<svg xmlns="http://www.w3.org/2000/svg" viewBox="0 0 32 32"><path d="M16,12a4,4,0,1,1-4,4,4.0045,4.0045,0,0,1,4-4m0-2a6,6,0,1,0,6,6,6,6,0,0,0-6-6Z" transform="translate(0 .005)"/><rect width="2" height="4.958" x="6.854" y="5.375" transform="rotate(-45 7.86 7.856)"/><rect width="5" height="2" x="2" y="15.005"/><rect width="4.958" height="2" x="5.375" y="23.147" transform="rotate(-45 7.86 24.149)"/><rect width="2" height="5" x="15" y="25.005"/><rect width="2" height="4.958" x="23.147" y="21.668" transform="rotate(-45 24.152 24.149)"/><rect width="5" height="2" x="25" y="15.005"/><rect width="4.958" height="2" x="21.668" y="6.854" transform="rotate(-45 24.152 7.856)"/><rect width="2" height="5" x="15" y="2.005"/></svg>