<svg xmlns="http://www.w3.org/2000/svg" viewBox="0 0 32 32"><rect width="27.998" height="2" x="2" y="27"/><path d="M16,20a4.0045,4.0045,0,0,1,4,4h2a6,6,0,0,0-12,0h2A4.0045,4.0045,0,0,1,16,20Z"/><rect width="5" height="2" x="25" y="22"/><rect width="4.958" height="2" x="21.668" y="14.854" transform="rotate(-45 24.146 15.854)"/><polygon points="16 4 11 9 12.41 10.41 15 7.83 15 8 15 15 17 15 17 8 17 7.83 19.59 10.41 21 9 16 4"/><rect width="2" height="4.958" x="6.854" y="13.374" transform="rotate(-45 7.854 15.854)"/><rect width="5" height="2" x="2" y="22"/></svg>