<svg id="icon" xmlns="http://www.w3.org/2000/svg" width="32" height="32" viewBox="0 0 32 32">
  <defs>
    <style>
      .cls-1 {
        fill: none;
      }
    </style>
  </defs>
  <title>swim</title>
  <path d="M30,26H28a4.9316,4.9316,0,0,1-4-1.9873,5.0192,5.0192,0,0,1-8,0,5.0192,5.0192,0,0,1-8,0A4.9316,4.9316,0,0,1,4,26H2V24H4a3.44,3.44,0,0,0,3.0532-2.3215A.9712.9712,0,0,1,8,21a1.0069,1.0069,0,0,1,.9487.6838A3.4381,3.4381,0,0,0,12,24a3.44,3.44,0,0,0,3.0532-2.3215A.99.99,0,0,1,16,21a1.0069,1.0069,0,0,1,.9487.6838A3.4381,3.4381,0,0,0,20,24a3.44,3.44,0,0,0,3.0532-2.3215,1,1,0,0,1,1.8955.0053A3.4381,3.4381,0,0,0,28,24h2Z"/>
  <path d="M23,17.5859l-8.707-8.707A2.9791,2.9791,0,0,0,12.1714,8H4v2h8.1714a.9933.9933,0,0,1,.7075.293L15.5859,13,10,18.5859,11.4141,20,17,14.4141,21.5859,19Z"/>
  <path d="M20,10a4,4,0,1,1,4,4A4.0042,4.0042,0,0,1,20,10Zm2,0a2,2,0,1,0,2-2A2.0023,2.0023,0,0,0,22,10Z"/>
  <rect id="_Transparent_Rectangle_" data-name="&lt;Transparent Rectangle&gt;" class="cls-1" width="32" height="32"/>
</svg>
