<?xml version="1.0" encoding="UTF-8"?>
<svg id="Layer_1" data-name="Layer 1" xmlns="http://www.w3.org/2000/svg" width="32" height="32" viewBox="0 0 32 32">
  <defs>
    <style>
      .cls-1 {
        fill: none;
      }
    </style>
  </defs>
  <path id="swot" d="M17,30h-2v-13H2v-2h13V2h2v13h13v2h-13v13ZM28,28h-6v-6h6v6ZM24,26h2v-2h-2v2ZM10,27h-6v-6h6v6ZM6,25h2v-2h-2v2ZM25,13h-6v-6h6v6ZM21,11h2v-2h-2v2ZM11,12h-6v-6h6v6ZM7,10h2v-2h-2v2Z"/>
  <rect id="Transparent_Rectangle" data-name="Transparent Rectangle" class="cls-1" width="32" height="32"/>
</svg>