<svg id="icon" xmlns="http://www.w3.org/2000/svg" width="32" height="32" viewBox="0 0 32 32">
  <defs>
    <style>
      .cls-1 {
        fill: none;
      }
    </style>
  </defs>
  <path d="M28,8H24V4a2.0025,2.0025,0,0,0-2-2H4A2.0025,2.0025,0,0,0,2,4V22a2.0025,2.0025,0,0,0,2,2H8v4a2.0025,2.0025,0,0,0,2,2H28a2.0025,2.0025,0,0,0,2-2V10A2.0025,2.0025,0,0,0,28,8ZM22,22H14V17h8Zm0-7H14V10h8ZM12,15H4V10h8ZM22,4V8H4V4ZM4,22V17h8v5Zm24,6H10V24H22a2.0025,2.0025,0,0,0,2-2V10h4Z"/>
  <rect id="_Transparent_Rectangle_" data-name="&lt;Transparent Rectangle&gt;" class="cls-1" width="32" height="32"/>
</svg>
