<svg id="icon" xmlns="http://www.w3.org/2000/svg" width="32" height="32" viewBox="0 0 32 32">
  <defs>
    <style>
      .cls-1 {
        fill: none;
      }
    </style>
  </defs>
  <path d="M12,29H5a2.0021,2.0021,0,0,1-2-2V20a2.0021,2.0021,0,0,1,2-2h7a2.0021,2.0021,0,0,1,2,2v7A2.0021,2.0021,0,0,1,12,29ZM5,20v7h7V20Z"/>
  <path d="M27,3H5A2,2,0,0,0,3,5V15H5V11H15v4h2V11H27v7H17v2H27v7H17v2H27a2,2,0,0,0,2-2V5A2,2,0,0,0,27,3Zm0,6H5V5H27Z"/>
  <rect id="_Transparent_Rectangle_" data-name="&lt;Transparent Rectangle&gt;" class="cls-1" width="32" height="32"/>
</svg>
