<svg id="icon" xmlns="http://www.w3.org/2000/svg" width="32" height="32" viewBox="0 0 32 32">
  <defs>
    <style>
      .cls-1 {
        fill: none;
      }
    </style>
  </defs>
  <polygon points="16 18 22 12 23.414 13.414 19.828 17 30 17 30 19 19.828 19 23.414 22.586 22 24 16 18"/>
  <path d="M10,14a4,4,0,1,1,4-4A4.0045,4.0045,0,0,1,10,14Zm0-6a2,2,0,1,0,1.998,2.0044A2.002,2.002,0,0,0,10,8Z" transform="translate(0 0)"/>
  <path d="M20.0586,26l-2.0007,2L4,13.9414V4h9.9417l6,6,1.4143-1.414-6.001-6A2,2,0,0,0,13.9414,2H4A2,2,0,0,0,2,4v9.9414a2,2,0,0,0,.5857,1.4141L16.6436,29.4146a2.001,2.001,0,0,0,2.8286,0l2.0006-2.0007Z" transform="translate(0 0)"/>
  <rect id="_Transparent_Rectangle_" data-name="&lt;Transparent Rectangle&gt;" class="cls-1" width="32" height="32"/>
</svg>
