<svg id="icon" xmlns="http://www.w3.org/2000/svg" width="32" height="32" viewBox="0 0 32 32">
  <defs>
    <style>
      .cls-1 {
        fill: none;
      }
    </style>
  </defs>
  <polygon points="26.41 25 30 21.41 28.59 20 25 23.59 21.41 20 20 21.41 23.59 25 20 28.59 21.41 30 25 26.41 28.59 30 30 28.59 26.41 25"/>
  <path d="M25,5H22V4a2.0058,2.0058,0,0,0-2-2H12a2.0058,2.0058,0,0,0-2,2V5H7A2.0058,2.0058,0,0,0,5,7V28a2.0058,2.0058,0,0,0,2,2h9V28H7V7h3v3H22V7h3V17h2V7A2.0058,2.0058,0,0,0,25,5ZM20,8H12V4h8Z"/>
  <rect id="_Transparent_Rectangle_" data-name="&lt;Transparent Rectangle&gt;" class="cls-1" width="32" height="32"/>
</svg>
