<svg id="icon" xmlns="http://www.w3.org/2000/svg" width="32" height="32" viewBox="0 0 32 32">
  <defs>
    <style>
      .cls-1 {
        fill: none;
      }
    </style>
  </defs>
  <path d="M22.5,26A3.5,3.5,0,1,1,26,22.5,3.5041,3.5041,0,0,1,22.5,26Zm0-5A1.5,1.5,0,1,0,24,22.5,1.5017,1.5017,0,0,0,22.5,21Z"/>
  <path d="M22.5,31A8.5,8.5,0,1,1,31,22.5,8.51,8.51,0,0,1,22.5,31Zm0-15A6.5,6.5,0,1,0,29,22.5,6.5074,6.5074,0,0,0,22.5,16Z"/>
  <path d="M25,5H22V4a2.0058,2.0058,0,0,0-2-2H12a2.0058,2.0058,0,0,0-2,2V5H7A2.0058,2.0058,0,0,0,5,7V28a2.0058,2.0058,0,0,0,2,2h5V28H7V7h3v3H22V7h3v5h2V7A2.0058,2.0058,0,0,0,25,5ZM20,8H12V4h8Z"/>
  <rect id="_Transparent_Rectangle_" data-name="&lt;Transparent Rectangle&gt;" class="cls-1" width="32" height="32"/>
</svg>
