<svg id="icon" xmlns="http://www.w3.org/2000/svg" viewBox="0 0 32 32"><defs><style>.cls-1{fill:none;}</style></defs><title>taxi</title><path d="M29.16,15l-5.49-.91-2.5-5A2,2,0,0,0,19.38,8H10.54a2,2,0,0,0-1.67.89L5.46,14H3a1,1,0,0,0-1,1v9a1,1,0,0,0,1,1H5.14a4,4,0,0,0,7.72,0h5.28a4,4,0,0,0,7.72,0H29a1,1,0,0,0,1-1V16A1,1,0,0,0,29.16,15ZM9,26a2,2,0,1,1,2-2A2,2,0,0,1,9,26Zm13,0a2,2,0,1,1,2-2A2,2,0,0,1,22,26Zm6-3H25.86a4,4,0,0,0-7.72,0H12.86a4,4,0,0,0-7.72,0H4V16H6a1,1,0,0,0,.83-.45L10.54,10h8.84l2.73,5.45a1,1,0,0,0,.73.54l5.16.86Z"/><rect id="_Transparent_Rectangle_" data-name="&lt;Transparent Rectangle&gt;" class="cls-1" width="32" height="32"/></svg>