<svg id="Layer_1" data-name="Layer 1" xmlns="http://www.w3.org/2000/svg" width="32" height="32" viewBox="0 0 32 32">
  <defs>
    <style>
      .cls-1 {
        fill: none;
      }
    </style>
  </defs>
  <rect x="20" y="10" width="7" height="2"/>
  <rect x="20" y="16" width="10" height="2"/>
  <rect x="20" y="22" width="7" height="2"/>
  <path d="M10,20.1839V7H8V20.1839a3,3,0,1,0,2,0Z" transform="translate(0 0)"/>
  <path d="M30,4H12.9744A4.9829,4.9829,0,0,0,4,7V18.1108a7,7,0,1,0,10,0V7a5.0019,5.0019,0,0,0-.1011-1H30ZM9,28a4.9933,4.9933,0,0,1-3.332-8.7183L6,18.9834V7a3,3,0,0,1,6,0V18.9834l.332.2983A4.9933,4.9933,0,0,1,9,28Z" transform="translate(0 0)"/>
  <rect id="_Transparent_Rectangle_" data-name="&lt;Transparent Rectangle&gt;" class="cls-1" width="32" height="32"/>
</svg>
