<svg id="icon" xmlns="http://www.w3.org/2000/svg" width="32" height="32" viewBox="0 0 32 32">
  <defs>
    <style>
      .cls-1 {
        fill: none;
      }
    </style>
  </defs>
  <path d="M26,27H17a2.0023,2.0023,0,0,1-2-2V11a2.002,2.002,0,0,1,2-2h9v2H17V25h9Z" transform="translate(0 0)"/>
  <path d="M8,13a4,4,0,1,1,4-4h0A4.0118,4.0118,0,0,1,8,13ZM8,7a2,2,0,1,0,2,2h0A2.0059,2.0059,0,0,0,8,7Z" transform="translate(0 0)"/>
  <rect id="_Transparent_Rectangle_" data-name="&lt;Transparent Rectangle&gt;" class="cls-1" width="32" height="32"/>
</svg>
