<svg id="icon" xmlns="http://www.w3.org/2000/svg" width="32" height="32" viewBox="0 0 32 32"><defs><style>.cls-1{fill:none;}</style></defs><title>temperature--hot</title><rect x="24.1212" y="19.1214" width="1.9998" height="3.9999" transform="translate(-7.5773 23.9496) rotate(-45)"/><rect x="26" y="13" width="4" height="2"/><rect x="23.1214" y="5.879" width="3.9999" height="1.9998" transform="translate(2.4937 19.7783) rotate(-45)"/><rect x="17" y="2" width="2" height="4"/><path d="M18,8a6.0365,6.0365,0,0,0-1,.09v2.0518A3.9567,3.9567,0,0,1,18,10a4,4,0,0,1,0,8v2A6,6,0,0,0,18,8Z"/><path d="M10,20.1839V7H8V20.1839a3,3,0,1,0,2,0Z"/><path d="M14,18.1377V7A5,5,0,0,0,4,7V18.1377A6.9894,6.9894,0,1,0,16,23,6.9411,6.9411,0,0,0,14,18.1377ZM9,28a5.0057,5.0057,0,0,1-5-5,4.9164,4.9164,0,0,1,1.0747-3.06c.094-.12.1953-.2329.2993-.3437.0518-.0547.1009-.1113.1548-.1636.11-.1064.2271-.2051.3462-.3013.0425-.0346.0815-.0727.125-.1059V7a3,3,0,0,1,6,0V19.0254c.0437.0332.0828.0718.1255.1064.1189.0962.2361.1944.3454.3008.0542.0523.1038.1094.1556.1641.1037.11.205.2236.2988.3432A4.9146,4.9146,0,0,1,14,23,5.0057,5.0057,0,0,1,9,28Z"/><rect id="_Transparent_Rectangle_" data-name="&lt;Transparent Rectangle&gt;" class="cls-1" width="32" height="32"/></svg>