<svg id="icon" xmlns="http://www.w3.org/2000/svg" width="32" height="32" viewBox="0 0 32 32">
  <defs>
    <style>
      .cls-1 {
        fill: none;
      }
    </style>
  </defs>
  <path d="M14,4H9V6h5V8H10a2,2,0,0,0-2,2v2a2,2,0,0,0,2,2h6V6A2.0023,2.0023,0,0,0,14,4Zm0,8H10V10h4Z"/>
  <polygon points="22 26 22 18 20 18 20 19 18 19 18 21 20 21 20 26 18 26 18 28 24 28 24 26 22 26"/>
  <rect x="2" y="2" width="2" height="14"/>
  <rect x="28" y="16" width="2" height="14"/>
  <rect id="_Transparent_Rectangle_" data-name="&lt;Transparent Rectangle&gt;" class="cls-1" width="32" height="32"/>
</svg>
