<svg id="icon" xmlns="http://www.w3.org/2000/svg" viewBox="0 0 32 32"><defs><style>.cls-1{fill:none;}</style></defs><title>text--tracking</title><polygon points="25.29 19.29 23.88 20.71 26.17 23 5.83 23 8.12 20.71 6.71 19.29 2 24 6.71 28.71 8.12 27.29 5.83 25 26.17 25 23.88 27.29 25.29 28.71 30 24 25.29 19.29"/><path d="M26,17h2L23,3H21L16,17h2l1-3h6Zm-6.33-5L22,5l2.33,7Z"/><polygon points="14 3 10 15 6 3 4 3 9 17 11 17 16 3 14 3"/><rect id="_Transparent_Rectangle_" data-name="&lt;Transparent Rectangle&gt;" class="cls-1" width="32" height="32"/></svg>