<svg id="icon" xmlns="http://www.w3.org/2000/svg" viewBox="0 0 32 32"><defs><style>.cls-1{fill:none;}</style></defs><title>text-highlight</title><path d="M12,15H5a3,3,0,0,1-3-3V10A3,3,0,0,1,5,7h5V5A1,1,0,0,0,9,4H3V2H9a3,3,0,0,1,3,3ZM5,9a1,1,0,0,0-1,1v2a1,1,0,0,0,1,1h5V9Z"/><path d="M20,23v2a1,1,0,0,0,1,1h5V22H21A1,1,0,0,0,20,23Z"/><path d="M2,30H30V2Zm26-2H21a3,3,0,0,1-3-3V23a3,3,0,0,1,3-3h5V18a1,1,0,0,0-1-1H19V15h6a3,3,0,0,1,3,3Z"/><rect id="_Transparent_Rectangle_" data-name="&lt;Transparent Rectangle&gt;" class="cls-1" width="32" height="32"/></svg>
