<svg id="icon" xmlns="http://www.w3.org/2000/svg" viewBox="0 0 32 32"><defs><style>.cls-1{fill:none;}</style></defs><title>thumbnail--2</title><path d="M8,30H4a2,2,0,0,1-2-2V24a2,2,0,0,1,2-2H8a2,2,0,0,1,2,2v4A2,2,0,0,1,8,30ZM4,24v4H8V24Z"/><path d="M18,30H14a2,2,0,0,1-2-2V24a2,2,0,0,1,2-2h4a2,2,0,0,1,2,2v4A2,2,0,0,1,18,30Zm-4-6v4h4V24Z"/><path d="M28,30H24a2,2,0,0,1-2-2V24a2,2,0,0,1,2-2h4a2,2,0,0,1,2,2v4A2,2,0,0,1,28,30Zm-4-6v4h4V24Z"/><path d="M8,20H4a2,2,0,0,1-2-2V14a2,2,0,0,1,2-2H8a2,2,0,0,1,2,2v4A2,2,0,0,1,8,20ZM4,14v4H8V14Z"/><path d="M18,20H14a2,2,0,0,1-2-2V14a2,2,0,0,1,2-2h4a2,2,0,0,1,2,2v4A2,2,0,0,1,18,20Zm-4-6v4h4V14Z"/><path d="M28,20H24a2,2,0,0,1-2-2V14a2,2,0,0,1,2-2h4a2,2,0,0,1,2,2v4A2,2,0,0,1,28,20Zm-4-6v4h4V14Z"/><path d="M8,10H4A2,2,0,0,1,2,8V4A2,2,0,0,1,4,2H8a2,2,0,0,1,2,2V8A2,2,0,0,1,8,10ZM4,4V8H8V4Z"/><path d="M18,10H14a2,2,0,0,1-2-2V4a2,2,0,0,1,2-2h4a2,2,0,0,1,2,2V8A2,2,0,0,1,18,10ZM14,4V8h4V4Z"/><path d="M28,10H24a2,2,0,0,1-2-2V4a2,2,0,0,1,2-2h4a2,2,0,0,1,2,2V8A2,2,0,0,1,28,10ZM24,4V8h4V4Z"/><rect id="_Transparent_Rectangle_" data-name="&lt;Transparent Rectangle&gt;" class="cls-1" width="32" height="32"/></svg>