<?xml version="1.0" encoding="utf-8"?>
<!-- Generator: Adobe Illustrator 28.1.0, SVG Export Plug-In . SVG Version: 6.00 Build 0)  -->
<svg version="1.1" id="icon" xmlns="http://www.w3.org/2000/svg" xmlns:xlink="http://www.w3.org/1999/xlink" x="0px" y="0px"
	 viewBox="0 0 32 32" style="enable-background:new 0 0 32 32;" xml:space="preserve">
<style type="text/css">
	.st0{fill:none;}
</style>
<path d="M20.8,14H15V9.6C15,7.5,13.8,6,12,6h-1C9.5,6,9.2,7.5,9.1,8.4c0,0.1,0,0.3-0.1,0.5l-0.6,4.3L7,16v14h11.3
	c3.7,0,6.7-3,6.7-6.7v-5.1C25,15.9,23.1,14,20.8,14z M2,30V17h3v13H2z M26.8,9H21V4.6C21,2.5,19.8,1,18,1h-1c-1.5,0-1.8,1.5-1.9,2.3
	c0,0.2,0,0.3-0.1,0.5l-0.1,1.1c1.3,1,2.1,2.6,2.1,4.6V12h3.8c3.4,0,6.2,2.8,6.2,6.2v5.1c0,0.4,0,0.8-0.1,1.1c2.4-1,4.1-3.4,4.1-6.1
	v-5.1C31,10.9,29.1,9,26.8,9L26.8,9z"/>
<rect id="_x3C_Transparent_Rectangle_x3E_" class="st0" width="32" height="32"/>
</svg>
