<?xml version="1.0" encoding="UTF-8"?>
<svg id="Build_icon_here" data-name="Build icon here" xmlns="http://www.w3.org/2000/svg" width="32" height="32" viewBox="0 0 32 32">
  <defs>
    <style>
      .cls-1 {
        fill: none;
      }
    </style>
  </defs>
  <path d="M20.7637,13.9999h-5.7637l-.0024-4.4316c0-2.1011-1.2324-3.5684-2.9976-3.5684h-1c-1.5273,0-1.7539,1.5273-1.8755,2.3477-.0225.1509-.6826,4.8052-.6826,4.8052l-2.0431,3.8472H2v13h16.3325c3.6763,0,6.6675-2.9912,6.6675-6.6675v-5.103c0-2.3369-1.8989-4.2295-4.2363-4.2295h0ZM4,27.9999v-9h1.9998l-.0017,9h-1.9981ZM23,23.3324c0,2.5737-2.0938,4.6675-4.6675,4.6675h-10.3325v-9.751l2.3735-4.4692s.7983-5.6035.8433-5.7798h.7832c.9697,0,.9976,1.4077.9976,1.5684l.0024,6.4316h7.7637c1.2344,0,2.2363.9951,2.2363,2.2295v5.103ZM31,13.2295v5.103c0,2.321-1.194,4.3667-2.9983,5.5613l-1.0042-1.7393c1.2073-.8446,2.0024-2.2402,2.0024-3.8221v-5.103c0-1.2344-1.0019-2.2295-2.2363-2.2295h-7.7637l-.0024-6.4315c0-.1608-.0279-1.5685-.9976-1.5685h-.7832c-.0174.0681-.1475.948-.3002,2.0001h-2.0273c.1234-.8691.2266-1.5944.2352-1.6523.1216-.8206.3482-2.3478,1.8755-2.3478h1c1.7652,0,2.9976,1.4673,2.9976,3.5685l.0024,4.4315h5.7637c2.3374.0001,4.2363,1.8927,4.2363,4.2296Z"/>
  <rect id="_Transparent_Rectangle_" data-name="&amp;lt;Transparent Rectangle&amp;gt;" class="cls-1" width="32" height="32"/>
</svg>