<svg id="icon" xmlns="http://www.w3.org/2000/svg" width="32" height="32" viewBox="0 0 32 32"><defs><style>.cls-1{fill:none;}</style></defs><title>thunderstorm--severe</title><path d="M21,30a1,1,0,0,1-.8944-1.4474l2-4.0005a1,1,0,1,1,1.7887.8947l-2,4A.9981.9981,0,0,1,21,30Z"/><path d="M9,32a1,1,0,0,1-.8944-1.4474l2-4.0005a1,1,0,1,1,1.7887.8947l-2,4A.9981.9981,0,0,1,9,32Z"/><polygon points="15.901 30.496 14.165 29.504 17.309 24 11.31 24 16.165 15.504 17.901 16.496 14.756 22 20.757 22 15.901 30.496"/><path d="M27.9516,15A4.399,4.399,0,0,1,28,15.5,4.5049,4.5049,0,0,1,23.5,20H23v2h.5A6.5075,6.5075,0,0,0,30,15.5c0-.17-.0312-.333-.0444-.5Z"/><path id="_Inner_path_" data-name="&lt;Inner path&gt;" class="cls-1" d="M25.75,8h-1.5V4h1.5ZM25,9a1,1,0,1,0,1,1A1,1,0,0,0,25,9Z"/><path d="M31.9115,11.9355,25.6283.3706a.7181.7181,0,0,0-1.2568,0L18.0883,11.9355A.72.72,0,0,0,18.72,13H31.28A.72.72,0,0,0,31.9115,11.9355ZM24.25,4h1.5V8h-1.5ZM25,11a1,1,0,1,1,1-1A1,1,0,0,1,25,11Z"/><path d="M8.144,11.019l.8154-.0639.0991-.812a6.9863,6.9863,0,0,1,9.97-5.45L20,2.9468A8.9777,8.9777,0,0,0,7.2,9.1362,6.4929,6.4929,0,0,0,7.43,21.9043L6.1059,24.5527a1,1,0,1,0,1.7885.8946l2-4a1,1,0,0,0-.4471-1.3418A.9786.9786,0,0,0,9,20.01V20H8.5a4.4975,4.4975,0,0,1-.3559-8.981Z"/><rect id="_Transparent_Rectangle_" data-name="&lt;Transparent Rectangle&gt;" class="cls-1" width="32" height="32"/></svg>