<svg id="Layer_1" data-name="Layer 1" xmlns="http://www.w3.org/2000/svg" width="32" height="32" viewBox="0 0 32 32">
  <defs>
    <style>
      .cls-1 {
        fill: none;
      }
    </style>
  </defs>
  <path d="M29.4148,21.6664,23.08,15.3305l6.3337-6.334a2,2,0,0,0,.0017-2.8281l-.0017-.002-3.58-3.58a2,2,0,0,0-2.8284-.0015l-.0017.0015L16.67,8.9194,10.3352,2.5839a2.0037,2.0037,0,0,0-2.8281.0005L2.5854,7.5063a2.0011,2.0011,0,0,0,0,2.8286l6.3338,6.3345L2,23.5883V30H8.4106l6.919-6.9194,6.3354,6.3364a2.0076,2.0076,0,0,0,2.8291,0l4.9207-4.9223A2.0011,2.0011,0,0,0,29.4148,21.6664Zm-5.0015-17.67,3.59,3.59L21.67,13.92l-3.59-3.59ZM8,28H4V24.4086L10.3291,18.08l3.677,3.6778Zm15.08.0035L4,8.9213,8.9219,4,12.71,7.7875,10.458,10.04l1.4153,1.4141,2.2507-2.252,4.1294,4.1294L16,15.5834l1.416,1.4141,2.2517-2.252,4.13,4.13-2.2517,2.251,1.4141,1.415L25.2117,20.29l2.7907,2.791Z" transform="translate(0 0)"/>
  <rect id="_Transparent_Rectangle_" data-name="&lt;Transparent Rectangle&gt;" class="cls-1" width="32" height="32"/>
</svg>
