<?xml version="1.0" encoding="UTF-8"?>
<svg id="icons" xmlns="http://www.w3.org/2000/svg" width="32" height="32" viewBox="0 0 32 32">
  <defs>
    <style>
      .cls-1 {
        fill: none;
      }
    </style>
  </defs>
  <path d="M29.999,28.5859l-2.832-2.832c.524-.7905.833-1.7356.833-2.7529,0-2.7568-2.2432-5-5-5s-5,2.2432-5,5,2.2432,5,5,5c1.0173,0,1.9624-.3091,2.7529-.833l2.832,2.832,1.4141-1.4141ZM23,26.001c-1.6543,0-3-1.3457-3-3s1.3457-3,3-3,3,1.3457,3,3-1.3457,3-3,3ZM28,2H4c-1.103,0-2,.8975-2,2v20c0,1.1025.897,2,2,2h10v-2H4v-14h24v4h2V4c0-1.1025-.897-2-2-2ZM4,8v-4h24v4H4ZM7,6c0,.5523-.4477,1-1,1s-1-.4477-1-1,.4477-1,1-1,1,.4477,1,1ZM10,6c0,.5523-.4477,1-1,1s-1-.4477-1-1,.4477-1,1-1,1,.4477,1,1Z"/>
  <rect id="_Transparent_Rectangle_" data-name="&amp;lt;Transparent Rectangle&amp;gt;" class="cls-1" width="32" height="32"/>
</svg>