<svg id="icon" xmlns="http://www.w3.org/2000/svg" width="32" height="32" viewBox="0 0 32 32">
  <defs>
    <style>
      .cls-1 {
        fill: none;
      }
    </style>
  </defs>
  <path d="M16,12a3.0033,3.0033,0,0,0-3,3v3h6V15A3.0033,3.0033,0,0,0,16,12Z"/>
  <path d="M16,6a9.0092,9.0092,0,0,0-9,9V28H25V15A9.01,9.01,0,0,0,16,6Zm5,14H11V15a5,5,0,0,1,10,0Z"/>
  <path d="M29,15H27A11,11,0,0,0,5,15H3a13,13,0,0,1,26,0Z"/>
  <rect id="_Transparent_Rectangle_" data-name="&lt;Transparent Rectangle&gt;" class="cls-1" width="32" height="32"/>
</svg>
