<svg id="Layer_1" data-name="Layer 1" xmlns="http://www.w3.org/2000/svg" width="32" height="32" viewBox="0 0 32 32">
  <defs>
    <style>
      .cls-1 {
        fill: none;
      }
    </style>
  </defs>
  <path d="M27.303,2a2.6613,2.6613,0,0,0-1.9079.8059l-.3932.4053-.397-.4053a2.6612,2.6612,0,0,0-3.8157,0,2.7991,2.7991,0,0,0,0,3.8963L25.0019,11l4.2089-4.2978a2.7991,2.7991,0,0,0,0-3.8963A2.6613,2.6613,0,0,0,27.303,2Z" transform="translate(0 0)"/>
  <path d="M22,13v3H6V10h9V8H6.1843A2.9948,2.9948,0,0,1,9,6h6V4H9A5.0057,5.0057,0,0,0,4,9V21a4.99,4.99,0,0,0,3.582,4.77L5.7693,30H7.9451l1.7143-4h8.6812l1.7143,4h2.1758L20.418,25.77A4.99,4.99,0,0,0,24,21V13Zm0,7H19v2h2.8157A2.9948,2.9948,0,0,1,19,24H9a2.9948,2.9948,0,0,1-2.8157-2H9V20H6V18H22Z" transform="translate(0 0)"/>
  <rect id="_Transparent_Rectangle_" data-name="&lt;Transparent Rectangle&gt;" class="cls-1" width="32" height="32"/>
</svg>
