<?xml version="1.0" encoding="UTF-8"?>
<svg id="icon" xmlns="http://www.w3.org/2000/svg" width="32" height="32" viewBox="0 0 32 32">
  <defs>
    <style>
      .cls-1 {
        fill: none;
      }

      .cls-1, .cls-2 {
        stroke-width: 0px;
      }
    </style>
  </defs>
  <path class="cls-2" d="m16,2v2c6.6,0,12,5.4,12,12s-5.4,12-12,12v2c7.7,0,14-6.3,14-14S23.7,2,16,2Z"/>
  <path class="cls-2" d="m8.2,25.1l-1.2,1.6c1.2,1,2.6,1.9,4.2,2.4l.7-1.9c-1.4-.5-2.6-1.2-3.7-2.1Z"/>
  <path class="cls-2" d="m4.2,18l-2,.4c.3,1.6.9,3.2,1.7,4.6l1.7-1c-.7-1.2-1.2-2.6-1.4-4Z"/>
  <path class="cls-2" d="m5.6,10l-1.7-1c-.8,1.4-1.4,3-1.6,4.6l2,.3c.1-1.4.6-2.7,1.3-3.9Z"/>
  <path class="cls-2" d="m11.8,4.8l-.7-1.9c-1.5.6-2.9,1.4-4.1,2.4l1.3,1.5c1-.8,2.2-1.5,3.5-2Z"/>
  <polygon class="cls-2" points="11.83 16 14.41 13.42 13 12 9 16 13 20 14.42 18.59 11.83 16"/>
  <polygon class="cls-2" points="20.17 16 17.59 18.58 19 20 23 16 19 12 17.58 13.41 20.17 16"/>
  <rect id="_Transparent_Rectangle_" data-name="&amp;lt;Transparent Rectangle&amp;gt;" class="cls-1" width="32" height="32"/>
</svg>