<?xml version="1.0" encoding="utf-8"?>
<!-- Generator: Adobe Illustrator 26.5.0, SVG Export Plug-In . SVG Version: 6.00 Build 0)  -->
<svg version="1.1" id="icon" xmlns="http://www.w3.org/2000/svg" xmlns:xlink="http://www.w3.org/1999/xlink" x="0px" y="0px"
	 width="32px" height="32px" viewBox="0 0 32 32" style="enable-background:new 0 0 32 32;" xml:space="preserve">
<style type="text/css">
	.st0{fill:none;}
</style>
<path d="M23,17v-2h-2.1c-0.1-0.6-0.4-1.2-0.7-1.8l1.5-1.5l-1.4-1.4l-1.5,1.5c-0.5-0.3-1.1-0.6-1.8-0.7V9h-2v2.1
	c-0.6,0.1-1.2,0.4-1.8,0.7l-1.5-1.5l-1.4,1.4l1.5,1.5c-0.3,0.5-0.6,1.1-0.7,1.8H9v2h2.1c0.1,0.6,0.4,1.2,0.7,1.8l-1.5,1.5l1.4,1.4
	l1.5-1.5c0.5,0.3,1.1,0.6,1.8,0.7V23h2v-2.1c0.6-0.1,1.2-0.4,1.8-0.7l1.5,1.5l1.4-1.4l-1.5-1.5c0.3-0.5,0.6-1.1,0.7-1.8H23z M16,19
	c-1.7,0-3-1.3-3-3s1.3-3,3-3s3,1.3,3,3S17.7,19,16,19z"/>
<path d="M16,2v2c6.6,0,12,5.4,12,12s-5.4,12-12,12v2c7.7,0,14-6.3,14-14S23.7,2,16,2z"/>
<path d="M8.2,25.1L7,26.7c1.2,1,2.6,1.9,4.2,2.4l0.7-1.9C10.5,26.7,9.3,26,8.2,25.1z"/>
<path d="M4.2,18l-2,0.4C2.5,20,3.1,21.6,3.9,23l1.7-1C4.9,20.8,4.4,19.4,4.2,18z"/>
<path d="M5.6,10L3.9,9c-0.8,1.4-1.4,3-1.6,4.6l2,0.3C4.4,12.5,4.9,11.2,5.6,10z"/>
<path d="M11.8,4.8l-0.7-1.9C9.6,3.5,8.2,4.3,7,5.3l1.3,1.5C9.3,6,10.5,5.3,11.8,4.8z"/>
<rect id="_x3C_Transparent_Rectangle_x3E__363_" class="st0" width="32" height="32"/>
</svg>
