<?xml version="1.0" encoding="UTF-8"?>
<svg id="icon" xmlns="http://www.w3.org/2000/svg" version="1.1" viewBox="0 0 32 32">
  <!-- Generator: Adobe Illustrator 30.0.0, SVG Export Plug-In . SVG Version: 2.1.1 Build 123)  -->
  <defs>
    <style>
      .st0 {
        fill: none;
      }
    </style>
  </defs>
  <path d="M25.2,13l-2.2-2.2v-3.8h-12.8l-2.2-2.2V2h-2v2.8l-3.2,3.2,3.2,3.2v14.9l-1.8-1.8-1.4,1.4,4.2,4.2,1.1-1.1,3.1-3.1-1.4-1.4-1.8,1.8v-4.1h21v-9h-3.8ZM14,13.5v6.5h-6v-8.8l2.2-2.2h10.8v1.8l-2.2,2.2h-4.8v.5ZM27,20h-11v-5h2.8l3.2,3.2,3.2-3.2h1.8v5Z"/>
  <rect id="_x3C_Transparent_Rectangle_x3E_" class="st0" x="0" y="0" width="32" height="32"/>
</svg>