<svg id="icon" xmlns="http://www.w3.org/2000/svg" width="32" height="32" viewBox="0 0 32 32"><defs><style>.cls-1{fill:none;}</style></defs><title>types</title><polygon points="30 16 22 24 20.586 22.586 27.172 16 20.586 9.414 22 8 30 16"/><path d="M16,22a.9967.9967,0,0,1-.707-.293l-5-5a.9994.9994,0,0,1,0-1.414l5-5a.9994.9994,0,0,1,1.414,0l5,5a.9994.9994,0,0,1,0,1.414l-5,5A.9967.9967,0,0,1,16,22Zm-3.5859-6L16,19.5859,19.5859,16,16,12.4141Z"/><polygon points="2 16 10 8 11.414 9.414 4.828 16 11.414 22.586 10 24 2 16"/><rect id="_Transparent_Rectangle_" data-name="&lt;Transparent Rectangle&gt;" class="cls-1" width="32" height="32"/></svg>