<?xml version="1.0" encoding="UTF-8"?>
<svg id="Layer_1" data-name="Layer 1" xmlns="http://www.w3.org/2000/svg" width="32" height="32" viewBox="0 0 32 32">
  <defs>
    <style>
      .cls-1 {
        fill: none;
      }
    </style>
  </defs>
  <path id="unassigned--work-order" d="M24,16c-2.21,0-4,1.79-4,4s1.79,4,4,4,4-1.79,4-4-1.79-4-4-4ZM24,22c-1.1,0-2-.9-2-2s.9-2,2-2,2,.9,2,2-.9,2-2,2ZM27,25h-6c-1.65,0-3,1.35-3,3v2h2v-2c0-.55.45-1,1-1h6c.55,0,1,.45,1,1v2h2v-2c0-1.65-1.35-3-3-3ZM12,12v7h2v-7h-2ZM13,21c-.55,0-1,.45-1,1s.45,1,1,1,1-.45,1-1-.45-1-1-1ZM21,5h-3v-1c0-1.1-.9-2-2-2h-6c-1.1,0-2,.9-2,2v1h-3c-1.1,0-2,.9-2,2v19c0,1.1.9,2,2,2h9v-2H5V7h3v2h10v-2h3v6h2v-6c0-1.1-.9-2-2-2ZM10,7v-3h6v3h-6Z"/>
  <rect id="Transparent_Rectangle" data-name="Transparent Rectangle" class="cls-1" width="32" height="32"/>
</svg>