<svg xmlns="http://www.w3.org/2000/svg" viewBox="0 0 32 32"><rect width="10" height="4" x="11" y="14"/><path d="M16,30a2.0763,2.0763,0,0,1-1.4732-.6094L2.6094,17.4732a2.0855,2.0855,0,0,1,0-2.9464L14.5268,2.6094a2.0855,2.0855,0,0,1,2.9464,0L29.3906,14.5268a2.0855,2.0855,0,0,1,0,2.9464L17.4732,29.3906A2.0763,2.0763,0,0,1,16,30ZM16,3.9992a.0841.0841,0,0,0-.0591.0244L4.0236,15.9409a.0838.0838,0,0,0,0,.1182L15.9409,27.9764a.0842.0842,0,0,0,.1182,0L27.9764,16.0591a.0838.0838,0,0,0,0-.1182L16.0591,4.0236A.0841.0841,0,0,0,16,3.9992Z"/></svg>