<svg id="icon" xmlns="http://www.w3.org/2000/svg" width="32" height="32" viewBox="0 0 32 32"><defs><style>.cls-1{fill:none;}</style></defs><title>unknown--filled</title><path d="M29.4163,14.5906,17.41,2.5842a1.9937,1.9937,0,0,0-2.8191,0L2.5837,14.5906a1.994,1.994,0,0,0,0,2.8193L14.5906,29.4163a1.9937,1.9937,0,0,0,2.8191,0L29.4163,17.41A1.994,1.994,0,0,0,29.4163,14.5906ZM16,24a1.5,1.5,0,1,1,1.5-1.5A1.5,1.5,0,0,1,16,24Zm1.125-6.7519v1.8769h-2.25V15H17a1.875,1.875,0,0,0,0-3.75H15a1.8771,1.8771,0,0,0-1.875,1.875v.5h-2.25v-.5A4.13,4.13,0,0,1,15,9h2a4.125,4.125,0,0,1,.125,8.2481Z"/><path id="inner-path" class="cls-1" d="M16,21a1.5,1.5,0,1,1-1.5,1.5A1.5,1.5,0,0,1,16,21Zm1.125-3.752A4.1249,4.1249,0,0,0,17,9H15a4.13,4.13,0,0,0-4.125,4.125v.5h2.25v-.5A1.8772,1.8772,0,0,1,15,11.25h2A1.875,1.875,0,0,1,17,15H14.875v4.125h2.25Z"/><rect id="_Transparent_Rectangle_" data-name="&lt;Transparent Rectangle&gt;" class="cls-1" width="32" height="32"/></svg>