<svg id="icon" xmlns="http://www.w3.org/2000/svg" width="32" height="32" viewBox="0 0 32 32"><defs><style>.cls-1{fill:none;}</style></defs><title>user--favorite</title><path d="M27.303,12a2.6616,2.6616,0,0,0-1.9079.8058l-.3932.4054-.397-.4054a2.6615,2.6615,0,0,0-3.8157,0,2.7992,2.7992,0,0,0,0,3.8964L25.0019,21l4.2089-4.2978a2.7992,2.7992,0,0,0,0-3.8964A2.6616,2.6616,0,0,0,27.303,12Z" transform="translate(0 0)"/><path d="M2,30H4V25a5.0059,5.0059,0,0,1,5-5h6a5.0059,5.0059,0,0,1,5,5v5h2V25a7.0082,7.0082,0,0,0-7-7H9a7.0082,7.0082,0,0,0-7,7Z" transform="translate(0 0)"/><path d="M12,4A5,5,0,1,1,7,9a5,5,0,0,1,5-5m0-2a7,7,0,1,0,7,7A7,7,0,0,0,12,2Z" transform="translate(0 0)"/><rect id="_Transparent_Rectangle_" data-name="&lt;Transparent Rectangle&gt;" class="cls-1" width="32" height="32"/></svg>