<svg id="icon" xmlns="http://www.w3.org/2000/svg" width="32" height="32" viewBox="0 0 32 32">
  <defs>
    <style>
      .cls-1 {
        fill: none;
      }
    </style>
  </defs>
  <path d="M16,30H14V25a3.0033,3.0033,0,0,0-3-3H7a3.0033,3.0033,0,0,0-3,3v5H2V25a5.0059,5.0059,0,0,1,5-5h4a5.0059,5.0059,0,0,1,5,5Z"/>
  <path d="M9,10a3,3,0,1,1-3,3,3,3,0,0,1,3-3M9,8a5,5,0,1,0,5,5A5,5,0,0,0,9,8Z"/>
  <path d="M30,12a1.9922,1.9922,0,0,0-.5117.0742L28.4331,11.019a3.8788,3.8788,0,0,0,0-4.038l1.0552-1.0552a2.0339,2.0339,0,1,0-1.4141-1.4141L27.019,5.5669a3.8788,3.8788,0,0,0-4.038,0L21.9258,4.5117a2.0339,2.0339,0,1,0-1.4141,1.4141L21.5669,6.981a3.8788,3.8788,0,0,0,0,4.038l-1.0552,1.0552a2.0339,2.0339,0,1,0,1.4141,1.4141l1.0552-1.0552a3.8788,3.8788,0,0,0,4.038,0l1.0552,1.0552A1.9957,1.9957,0,1,0,30,12ZM23,9a2,2,0,1,1,2,2A2.0025,2.0025,0,0,1,23,9Z"/>
  <rect id="_Transparent_Rectangle_" data-name="&lt;Transparent Rectangle&gt;" class="cls-1" width="32" height="32"/>
</svg>
