<svg id="icon" xmlns="http://www.w3.org/2000/svg" width="32" height="32" viewBox="0 0 32 32">
  <defs>
    <style>
      .cls-1 {
        fill: none;
      }
    </style>
  </defs>
  <path d="M26,28H22V26h4V6H22V4h4a2.0021,2.0021,0,0,1,2,2V26A2.0021,2.0021,0,0,1,26,28Z"/>
  <polygon points="20 11 18 11 16 14.897 14 11 12 11 14.905 16 12 21 14 21 16 17.201 18 21 20 21 17.098 16 20 11"/>
  <path d="M10,28H6a2.0021,2.0021,0,0,1-2-2V6A2.0021,2.0021,0,0,1,6,4h4V6H6V26h4Z"/>
  <rect id="_Transparent_Rectangle_" data-name="&lt;Transparent Rectangle&gt;" class="cls-1" width="32" height="32"/>
</svg>
