<?xml version="1.0" encoding="UTF-8"?>
<svg id="Icon" xmlns="http://www.w3.org/2000/svg" width="32" height="32" viewBox="0 0 32 32">
  <defs>
    <style>
      .cls-1 {
        fill: none;
      }
    </style>
  </defs>
  <path d="M3,15.874v.2676c1.1201.2939,2,1.1743,2,2.8584v8h4v2h-4c-1.1028,0-2-.8975-2-2v-8c0-1.5498-.8799-2-2-2v-2c1.1201,0,2-.4766,2-2V5c0-1.1025.8972-2,2-2h4v2h-4v8c0,1.6841-.8799,2.5801-2,2.874ZM29,15.874v.2676c-1.1201.2939-2,1.1743-2,2.8584v8h-4s0,2,0,2h4c1.1028,0,2-.8975,2-2v-8c0-1.5498.8799-2,2-2v-2c-1.1201,0-2-.4766-2-2V5c0-1.1025-.8972-2-2-2h-4s0,2,0,2h4v8c0,1.6841.8799,2.5801,2,2.874ZM10.3401,21.8939c-.4089,0-.7344-.1158-.977-.3471-.2421-.2314-.3631-.5464-.3631-.9447,0-.3767.1129-.6807.3392-.9123.2258-.2314.5274-.3472.9043-.3472.3443,0,.6108.101.799.3025.1882.2019.2828.4825.2828.8422v.0654l.1129.0818c.1617-.0863.3687-.2776.622-.5742.2528-.2965.5325-.6767.8397-1.1405.3067-.4637.6347-.992.9846-1.5852s.7024-1.2349,1.0579-1.9251l-.0483-2.7824c-.0112-.69-.1938-1.0352-.5493-1.0352-.2156,0-.4603.0943-.7344.2825-.2746.1886-.6327.5034-1.0741.9447l-.5005-.4844c.6886-.7856,1.2944-1.3536,1.8167-1.7035.5218-.3498,1.0416-.5249,1.5583-.5249.6027,0,1.0436.2181,1.3239.654.2797.436.4303,1.1439.4521,2.1234l.0325,1.8247h.1612c.4628-.8935.8773-1.6363,1.2435-2.2284.3657-.5919.713-1.063,1.0416-1.4129.328-.3498.651-.5975.9689-.7428.3174-.1453.6591-.2181,1.0253-.2181.4089,0,.7344.1158.977.3472.2421.2315.3631.5465.3631.9446,0,.377-.1129.681-.3392.9123-.2258.2317-.5274.3472-.9043.3472-.3443,0-.6108-.0954-.799-.2861-.1887-.1908-.2828-.4605-.2828-.8094v-.1146l-.1129-.0818c-.1404.0757-.323.2589-.5493.55-.2258.2912-.4816.6685-.767,1.1324-.2853.4637-.5951,1.0084-.9282,1.6339-.3341.6256-.6841,1.3103-1.0497,2.0543l.0483,2.6368c.0107.6904.1938,1.0352.5493,1.0352.2151,0,.4598-.0941.7344-.2825.2746-.1883.6322-.5031,1.0736-.9447l.501.4844c-.3448.3984-.6647.7375-.9607,1.0173-.2965.2801-.5813.5087-.856.6863s-.5386.3095-.7914.3956-.5086.1292-.767.1292c-.6032,0-1.0441-.2179-1.3239-.6539-.2802-.436-.4308-1.1438-.4521-2.1235l-.0325-1.8247h-.1455c-.4521.8397-.8748,1.5502-1.2674,2.1315-.3931.5813-.767,1.0552-1.1225,1.421-.355.3661-.7049.6326-1.0492.7994-.3448.1667-.6998.2502-1.066.2502Z"/>
  <rect id="_Transparent_Rectangle_" data-name="&amp;lt;Transparent Rectangle&amp;gt;" class="cls-1" width="32" height="32"/>
</svg>