<svg id="icon" xmlns="http://www.w3.org/2000/svg" width="32" height="32" viewBox="0 0 32 32">
  <defs>
    <style>
      .cls-1 {
        fill: none;
      }
    </style>
  </defs>
  <path d="M28,11a1.9907,1.9907,0,0,0-.8247.1821L24.8337,9.51A3.45,3.45,0,0,0,25,8.5a3.45,3.45,0,0,0-.1663-1.01l2.3416-1.6723A1.9975,1.9975,0,1,0,26,4c0,.064.0129.124.0188.1865L23.7273,5.8232A3.4652,3.4652,0,0,0,21.5,5a3.5,3.5,0,0,0,0,7,3.4652,3.4652,0,0,0,2.2273-.8232l2.2915,1.6367C26.0129,12.876,26,12.936,26,13a2,2,0,1,0,2-2Zm-6.5-1A1.5,1.5,0,1,1,23,8.5,1.5017,1.5017,0,0,1,21.5,10Z" transform="translate(0 0)"/>
  <path d="M29.3379,19.9336l-7.7324-2.7783L18.374,13.0967A2.99,2.99,0,0,0,16.0537,12H8.0576a2.9982,2.9982,0,0,0-2.48,1.3115L2.8662,17.2949A4.9884,4.9884,0,0,0,2,20.1074V26a1,1,0,0,0,1,1H5.1421a3.9806,3.9806,0,0,0,7.7158,0h6.2842a3.9806,3.9806,0,0,0,7.7158,0H29a1,1,0,0,0,1-1V20.875A1,1,0,0,0,29.3379,19.9336ZM9,28a2,2,0,1,1,2-2A2.0027,2.0027,0,0,1,9,28Zm14,0a2,2,0,1,1,2-2A2.0025,2.0025,0,0,1,23,28Zm5-3H26.8579a3.9806,3.9806,0,0,0-7.7158,0H12.8579a3.9806,3.9806,0,0,0-7.7158,0H4V20.1074A2.9977,2.9977,0,0,1,4.52,18.4189l2.711-3.9814A.9992.9992,0,0,1,8.0576,14h7.9961a.9928.9928,0,0,1,.7647.3545l3.3994,4.2685a1.0007,1.0007,0,0,0,.4443.3184L28,21.5781Z" transform="translate(0 0)"/>
  <rect id="_Transparent_Rectangle_" data-name="&lt;Transparent Rectangle&gt;" class="cls-1" width="32" height="32"/>
</svg>
