<?xml version="1.0" encoding="UTF-8"?>
<svg id="icon" xmlns="http://www.w3.org/2000/svg" width="32" height="32" viewBox="0 0 32 32">
  <defs>
    <style>
      .cls-1 {
        fill: none;
      }
    </style>
  </defs>
  <polygon points="18.5859 18.4141 16 15.8345 16 15.8345 13.4125 18.4156 12 17 16 13 20 17 18.5859 18.4141"/>
  <path d="m1.5858,17.4142c-.3905-.3905-.5858-.9024-.5858-1.4142s.1953-1.0237.5858-1.4142L14.5858,1.5858c.3905-.3905.9023-.5858,1.4142-.5858s1.0237.1953,1.4142.5858l13,13c.3905.3905.5858.9024.5858,1.4142s-.1953,1.0237-.5858,1.4142l-13,13c-.3905.3905-.9024.5858-1.4142.5858s-1.0237-.1953-1.4142-.5858L1.5858,17.4142ZM16,3L3,16l13,13,13-13L16,3Z"/>
  <rect id="_Transparent_Rectangle_" data-name="&amp;lt;Transparent Rectangle&amp;gt;" class="cls-1" width="32" height="32"/>
</svg>