<svg id="icon" xmlns="http://www.w3.org/2000/svg" width="32" height="32" viewBox="0 0 32 32">
  <defs>
    <style>
      .cls-1 {
        fill: none;
      }
    </style>
  </defs>
  <path d="M12,30H4a2.0021,2.0021,0,0,1-2-2V4A2.0021,2.0021,0,0,1,4,2h8a2.0021,2.0021,0,0,1,2,2V28A2.0021,2.0021,0,0,1,12,30ZM4,4V28h8V4Z"/>
  <path d="M28,30H20a2.0021,2.0021,0,0,1-2-2V4a2.0021,2.0021,0,0,1,2-2h8a2.0021,2.0021,0,0,1,2,2V28A2.0021,2.0021,0,0,1,28,30ZM20,4V28h8V4Z"/>
  <rect id="_Transparent_Rectangle_" data-name="&lt;Transparent Rectangle&gt;" class="cls-1" width="32" height="32"/>
</svg>
