<svg id="icon" xmlns="http://www.w3.org/2000/svg" viewBox="0 0 32 32"><defs><style>.cls-1{fill:none;}</style></defs><title>video--add</title><polygon points="18 15 14 15 14 11 12 11 12 15 8 15 8 17 12 17 12 21 14 21 14 17 18 17 18 15"/><path d="M29.5,8.1a.91.91,0,0,0-1,0L23,11.3V8a2,2,0,0,0-2-2H4A2,2,0,0,0,2,8V24a2,2,0,0,0,2,2H21a2,2,0,0,0,2-2V20.7l5.5,3.2a.91.91,0,0,0,1,0A1.05,1.05,0,0,0,30,23V9A1.05,1.05,0,0,0,29.5,8.1ZM28,21.3l-5.5-3.2a.91.91,0,0,0-1,0,1.19,1.19,0,0,0-.5.9v5H4V8H21v5a.94.94,0,0,0,1,1,.9.9,0,0,0,.5-.1L28,10.8Z"/><rect id="_Transparent_Rectangle_" data-name="&lt;Transparent Rectangle&gt;" class="cls-1" width="32" height="32"/></svg>