<svg id="icon" xmlns="http://www.w3.org/2000/svg" viewBox="0 0 32 32"><defs><style>.cls-1{fill:none;}</style></defs><title>video--add</title><polygon points="18 15 14 15 14 11 12 11 12 15 8 15 8 17 12 17 12 21 14 21 14 17 18 17 18 15"/><path d="M21,26H4a2.0023,2.0023,0,0,1-2-2V8A2.0023,2.0023,0,0,1,4,6H21a2.0023,2.0023,0,0,1,2,2v4.0566l5.4189-3.87A.9995.9995,0,0,1,30,9V23a.9995.9995,0,0,1-1.5811.8135L23,19.9434V24A2.0023,2.0023,0,0,1,21,26ZM4,8V24.001L21,24V18a.9995.9995,0,0,1,1.5811-.8135L28,21.0566V10.9434l-5.4189,3.87A.9995.9995,0,0,1,21,14V8Z"/><rect id="_Transparent_Rectangle_" data-name="&lt;Transparent Rectangle&gt;" class="cls-1" width="32" height="32"/></svg>