<svg id="icon" xmlns="http://www.w3.org/2000/svg" viewBox="0 0 32 32"><defs><style>.cls-1{fill:none;}</style></defs><title>view--filled</title><circle cx="16" cy="16" r="4"/><path d="M30.94,15.66A16.69,16.69,0,0,0,16,5,16.69,16.69,0,0,0,1.06,15.66a1,1,0,0,0,0,.68A16.69,16.69,0,0,0,16,27,16.69,16.69,0,0,0,30.94,16.34,1,1,0,0,0,30.94,15.66ZM16,22a6,6,0,1,1,6-6A6,6,0,0,1,16,22Z"/><rect id="_Transparent_Rectangle_" data-name="&lt;Transparent Rectangle&gt;" class="cls-1" width="32" height="32"/></svg>