<svg id="icon" xmlns="http://www.w3.org/2000/svg" viewBox="0 0 32 32"><defs><style>.cls-1{fill:none;}</style></defs><title>view--mode-2</title><rect x="4" y="26" width="24" height="2"/><rect x="4" y="19" width="24" height="2"/><path d="M12,6v6H6V6h6m0-2H6A2,2,0,0,0,4,6v6a2,2,0,0,0,2,2h6a2,2,0,0,0,2-2V6a2,2,0,0,0-2-2Z"/><path d="M26,6v6H20V6h6m0-2H20a2,2,0,0,0-2,2v6a2,2,0,0,0,2,2h6a2,2,0,0,0,2-2V6a2,2,0,0,0-2-2Z"/><rect id="_Transparent_Rectangle_" data-name="&lt;Transparent Rectangle&gt;" class="cls-1" width="32" height="32"/></svg>