<svg id="icon" xmlns="http://www.w3.org/2000/svg" width="32" height="32" viewBox="0 0 32 32">
  <defs>
    <style>
      .cls-1 {
        fill: none;
      }
    </style>
  </defs>
  <path d="M30,17V15H17V11h2a2.0023,2.0023,0,0,0,2-2V4a2.0023,2.0023,0,0,0-2-2H13a2.0023,2.0023,0,0,0-2,2V9a2.0023,2.0023,0,0,0,2,2h2v4H2v2H8v4H6a2.0023,2.0023,0,0,0-2,2v5a2.0023,2.0023,0,0,0,2,2h6a2.0023,2.0023,0,0,0,2-2V23a2.0023,2.0023,0,0,0-2-2H10V17H22v4H20a2.0023,2.0023,0,0,0-2,2v5a2.0023,2.0023,0,0,0,2,2h6a2.0023,2.0023,0,0,0,2-2V23a2.0023,2.0023,0,0,0-2-2H24V17ZM13,4h6V9H13ZM12,28H6V23h6Zm14,0H20V23h6Z" transform="translate(0 0)"/>
  <rect id="_Transparent_Rectangle_" data-name="&lt;Transparent Rectangle&gt;" class="cls-1" width="32" height="32"/>
</svg>
