<svg id="icon" xmlns="http://www.w3.org/2000/svg" width="32" height="32" viewBox="0 0 32 32">
  <defs>
    <style>
      .cls-1 {
        fill: none;
      }
    </style>
  </defs>
  <path d="M26,30H24V27H20a5.0055,5.0055,0,0,1-5-5V20.7207l-2.3162-.772a1,1,0,0,1-.5412-1.4631L15,13.7229V11a9.01,9.01,0,0,1,9-9h5V4H24a7.0078,7.0078,0,0,0-7,7v3a.9991.9991,0,0,1-.1426.5144l-2.3586,3.9312,1.8174.6057A1,1,0,0,1,17,20v2a3.0033,3.0033,0,0,0,3,3h5a1,1,0,0,1,1,1Z"/>
  <rect x="19" y="12" width="4" height="2"/>
  <path d="M9.3325,25.2168a7.0007,7.0007,0,0,1,0-10.4341l1.334,1.49a5,5,0,0,0,0,7.4537Z"/>
  <path d="M6.3994,28.8008a11.0019,11.0019,0,0,1,0-17.6006L7.6,12.8a9.0009,9.0009,0,0,0,0,14.4014Z"/>
  <rect id="_Transparent_Rectangle_" data-name="&lt;Transparent Rectangle&gt;" class="cls-1" width="32" height="32"/>
</svg>
