<svg id="icon" xmlns="http://www.w3.org/2000/svg" width="32" height="32" viewBox="0 0 32 32">
  <defs>
    <style>
      .cls-1 {
        fill: none;
      }
    </style>
  </defs>
  <path d="M25.707,17.293l-5-5A1,1,0,0,0,20,12H14a2,2,0,0,0-2,2V28a2,2,0,0,0,2,2H24a2,2,0,0,0,2-2V18A1,1,0,0,0,25.707,17.293ZM23.5857,18H20V14.4141ZM14,28V14h4v4a2,2,0,0,0,2,2h4v8Z"/>
  <path d="M8,27H4a2.0023,2.0023,0,0,1-2-2V5A2.0023,2.0023,0,0,1,4,3h7.5857A1.9865,1.9865,0,0,1,13,3.5859L16.4143,7H28a2.0023,2.0023,0,0,1,2,2v8H28V9H15.5857l-4-4H4V25H8Z"/>
  <rect id="_Transparent_Rectangle_" data-name="&lt;Transparent Rectangle&gt;" class="cls-1" width="32" height="32"/>
</svg>
