<svg id="icon" xmlns="http://www.w3.org/2000/svg" width="32" height="32" viewBox="0 0 32 32">
  <defs>
    <style>
      .cls-1 {
        fill: none;
      }
    </style>
  </defs>
  <path d="M17,21H10V14h7Zm-5-2h3V16H12Z"/>
  <path d="M17,30H10V23h7Zm-5-2h3V25H12Z"/>
  <path d="M26,21H19V14h7Zm-5-2h3V16H21Z"/>
  <path d="M26,30H19V23h7Zm-5-2h3V25H21Z"/>
  <path d="M8,28H4a2.0023,2.0023,0,0,1-2-2V6A2.0023,2.0023,0,0,1,4,4h7.5857A1.9865,1.9865,0,0,1,13,4.5859L16.4143,8H28a2.0023,2.0023,0,0,1,2,2v8H28V10H15.5857l-4-4H4V26H8Z"/>
  <rect id="_Transparent_Rectangle_" data-name="&lt;Transparent Rectangle&gt;" class="cls-1" width="32" height="32"/>
</svg>
