<svg id="icon" xmlns="http://www.w3.org/2000/svg" width="32" height="32" viewBox="0 0 32 32">
  <defs>
    <style>
      .cls-1 {
        fill: none;
      }
    </style>
  </defs>
  <path d="M16,21a1.5,1.5,0,1,0,1.5,1.5A1.5,1.5,0,0,0,16,21Z"/>
  <rect x="15" y="8" width="2" height="10"/>
  <path d="M23,29H9a1,1,0,0,1-.8638-.4961l-7-12a1,1,0,0,1,0-1.0078l7-12A1,1,0,0,1,9,3H23a1,1,0,0,1,.8638.4961l7,12a1,1,0,0,1,0,1.0078l-7,12A1,1,0,0,1,23,29ZM9.5742,27H22.4258l6.4165-11L22.4258,5H9.5742L3.1577,16Z"/>
  <rect id="_Transparent_Rectangle_" data-name="&lt;Transparent Rectangle&gt;" class="cls-1" width="32" height="32"/>
</svg>
