<svg id="icon" xmlns="http://www.w3.org/2000/svg" viewBox="0 0 32 32"><defs><style>.cls-1{fill:none;}</style></defs><title>warning--alt</title><path d="M29,28H3a1,1,0,0,1-.86-.49,1,1,0,0,1,0-1l13-24a1,1,0,0,1,1.76,0l13,24a1,1,0,0,1,0,1A1,1,0,0,1,29,28ZM4.68,26H27.32L16,5.06Z"/><rect x="15" y="12" width="2" height="7"/><path d="M16,21a1.5,1.5,0,1,0,1.5,1.5A1.5,1.5,0,0,0,16,21Z"/><rect id="_Transparent_Rectangle_" data-name="&lt;Transparent Rectangle&gt;" class="cls-1" width="32" height="32"/></svg>