<svg id="icon" xmlns="http://www.w3.org/2000/svg" width="32" height="32" viewBox="0 0 32 32">
  <defs>
    <style>
      .cls-1 {
        fill: none;
      }
    </style>
  </defs>
  <path id="inner-path" class="cls-1" d="M14.875,8h2.25V19h-2.25ZM16,25a1.5,1.5,0,1,1,1.5-1.5A1.5,1.5,0,0,1,16,25Z"/>
  <path d="M30.8508,15.4487,23.8867,3.5322A1.0687,1.0687,0,0,0,22.9643,3H9.0357a1.0687,1.0687,0,0,0-.9224.5322L1.1492,15.4487a1.0933,1.0933,0,0,0,0,1.1026L8.1133,28.4678A1.0687,1.0687,0,0,0,9.0357,29H22.9643a1.0687,1.0687,0,0,0,.9224-.5322l6.9641-11.9165A1.0933,1.0933,0,0,0,30.8508,15.4487ZM14.875,8h2.25V19h-2.25ZM16,25a1.5,1.5,0,1,1,1.5-1.5A1.5,1.5,0,0,1,16,25Z"/>
  <rect id="_Transparent_Rectangle_" data-name="&lt;Transparent Rectangle&gt;" class="cls-1" width="32" height="32"/>
</svg>
