<?xml version="1.0" encoding="utf-8"?>
<!-- Generator: Adobe Illustrator 23.0.2, SVG Export Plug-In . SVG Version: 6.00 Build 0)  -->
<svg version="1.1" id="Layer_1" xmlns="http://www.w3.org/2000/svg" xmlns:xlink="http://www.w3.org/1999/xlink" x="0px" y="0px"
	 width="32px" height="32px" viewBox="0 0 32 32" style="enable-background:new 0 0 32 32;" xml:space="preserve">
<style type="text/css">
	.st0{fill:none;}
	.st1{opacity:0;fill:#FFFFFF;fill-opacity:0;}
</style>
<rect class="st0" width="32" height="32"/>
<g>
	<path d="M16,2C8.3,2,2,8.3,2,16s6.3,14,14,14s14-6.3,14-14S23.7,2,16,2z M15,11.2V8h2v3.2V19h-2V11.2z M16,24.8
		c-0.8,0-1.8-0.9-1.8-1.8s0.9-1.8,1.8-1.8c0.9,0,1.8,0.9,1.8,1.8S16.9,24.8,16,24.8z"/>
	<path id="inner-path" class="st1" d="M14.2,23c0-0.9,0.9-1.8,1.8-1.8c0.9,0,1.8,0.9,1.8,1.8s-0.9,1.8-1.8,1.8
		C15.2,24.8,14.2,23.9,14.2,23z M15,19v-7.8V8h2v3.2V19H15z"/>
</g>
</svg>
