<svg id="icon" xmlns="http://www.w3.org/2000/svg" width="32" height="32" viewBox="0 0 32 32"><defs><style>.cls-1{fill:none;}</style></defs><title>warning-square--filled</title><path d="M26.0022,4H5.998A1.998,1.998,0,0,0,4,5.998V26.002A1.998,1.998,0,0,0,5.998,28H26.0022A1.9979,1.9979,0,0,0,28,26.002V5.998A1.9979,1.9979,0,0,0,26.0022,4ZM14.8752,8h2.25V18h-2.25ZM16,24a1.5,1.5,0,1,1,1.5-1.5A1.5,1.5,0,0,1,16,24Z"/><path id="inner-path" class="cls-1" d="M14.8751,8h2.25V18h-2.25ZM16,24a1.5,1.5,0,1,1,1.5-1.5A1.5,1.5,0,0,1,16,24Z"/><rect id="_Transparent_Rectangle_" data-name="&lt;Transparent Rectangle&gt;" class="cls-1" width="32" height="32"/></svg>