<svg id="icon" xmlns="http://www.w3.org/2000/svg" viewBox="0 0 32 32"><defs><style>.cls-1{fill:#000000;}.cls-2{fill:none;}</style></defs><title>watch</title><path class="cls-1" d="M22,8H21V2H19V8H13V2H11V8H10a2,2,0,0,0-2,2V22a2,2,0,0,0,2,2h1v6h2V24h6v6h2V24h1a2,2,0,0,0,2-2V10A2,2,0,0,0,22,8ZM10,22V10H22V22Z" transform="translate(0 0)"/><rect class="cls-1" x="25" y="14" width="2" height="4"/><rect id="_Transparent_Rectangle_" data-name="&lt;Transparent Rectangle&gt;" class="cls-2" width="32" height="32"/></svg>