<?xml version="1.0" encoding="UTF-8"?>
<svg id="icon" xmlns="http://www.w3.org/2000/svg" width="32" height="32" viewBox="0 0 32 32">
  <defs>
    <style>
      .cls-1 {
        fill: none;
      }
    </style>
  </defs>
  <path d="m26,24c-1.1046,0-2,.8954-2,2,0,.0764.0142.1488.0225.2229-2.2808,1.7963-5.0792,2.7771-8.0225,2.7771-2.7746,0-5.3432-.881-7.4566-2.3676.2576.0261.517.0444.7798.0444,4.2329,0,7.6768-3.4438,7.6768-7.6768h-2c0,3.1304-2.5464,5.6768-5.6768,5.6768-2.2111,0-4.1977-1.2816-5.1318-3.2725-.1365-.2972-.2595-.6007-.3738-.9094.6602.322,1.3998.5051,2.1824.5051,2.7568,0,5-2.2432,5-5v-2h-2v2c0,1.6543-1.3457,3-3,3s-3-1.3457-3-3c0-2.1152.4917-4.1328,1.4619-5.9956l-1.7744-.9238c-1.104,2.1211-1.6875,4.5137-1.6875,6.9194,0,8.271,6.729,15,15,15,3.3744,0,6.5818-1.1193,9.2048-3.1662.244.106.5123.1662.7952.1662,1.1046,0,2-.8954,2-2s-.8954-2-2-2Z"/>
  <rect x="21" y="21" width="2" height="2" transform="translate(44 0) rotate(90)"/>
  <rect x="15" y="15" width="2" height="2" transform="translate(32 0) rotate(90)"/>
  <rect x="9" y="9" width="2" height="2" transform="translate(0 20) rotate(-90)"/>
  <path d="m16,1c-3.3744,0-6.5818,1.1193-9.2048,3.1662-.244-.106-.5123-.1662-.7952-.1662-1.1046,0-2,.8954-2,2s.8954,2,2,2,2-.8954,2-2c0-.0764-.0142-.1488-.0225-.2229,2.2808-1.7963,5.0792-2.7771,8.0225-2.7771,2.7708,0,5.3363.8784,7.4481,2.3613-.249-.0242-.5005-.038-.7547-.038-4.2329,0-7.6768,3.4438-7.6768,7.6768h2c0-3.1304,2.5464-5.6768,5.6768-5.6768,2.0554,0,3.9068,1.0953,4.9186,2.8651.2153.4283.4053.8701.5729,1.3237-.6615-.3234-1.4005-.5121-2.1849-.5121-2.7568,0-5,2.2432-5,5v2h2v-2c0-1.6543,1.3457-3,3-3s3,1.3457,3,3c0,2.1152-.4917,4.1328-1.4619,5.9956l1.7744.9238c1.104-2.1211,1.6875-4.5137,1.6875-6.9194C31,7.729,24.271,1,16,1Z"/>
  <rect id="_Transparent_Rectangle_" data-name="&amp;lt;Transparent Rectangle&amp;gt;" class="cls-1" width="32" height="32"/>
</svg>