<svg id="Layer_1" data-name="Layer 1" xmlns="http://www.w3.org/2000/svg" width="32" height="32" viewBox="0 0 32 32">
  <defs>
    <style>
      .cls-1 {
        fill: none;
      }
    </style>
  </defs>
  <rect x="24" y="2" width="6" height="2"/>
  <rect x="24" y="8" width="4" height="2"/>
  <rect x="24" y="14" width="6" height="2"/>
  <rect x="24" y="20" width="4" height="2"/>
  <path d="M30,28H24a10.0349,10.0349,0,0,1-6.9268-17.2622A11.9629,11.9629,0,0,0,12.9937,10a6.9027,6.9027,0,0,0-6.0308,3.42C4.9966,16.4348,4,21.34,4,28H2c0-7.0542,1.106-12.3274,3.2871-15.6726A8.906,8.906,0,0,1,12.9937,8h.0068a14.762,14.762,0,0,1,6.4619,1.592,1,1,0,0,1,.0869,1.7222A8.0249,8.0249,0,0,0,24,26h6Z" transform="translate(0 0)"/>
  <rect id="_Transparent_Rectangle_" data-name="&lt;Transparent Rectangle&gt;" class="cls-1" width="32" height="32"/>
</svg>
