<svg id="Layer_1" data-name="Layer 1" xmlns="http://www.w3.org/2000/svg" width="32" height="32" viewBox="0 0 32 32">
  <defs>
    <style>
      .cls-1 {
        fill: none;
      }
    </style>
  </defs>
  <path d="M22,30H17a7.0078,7.0078,0,0,1-7-7,6.6832,6.6832,0,0,1,2.0244-4.6967A6.7935,6.7935,0,0,0,10.0093,18C5.0425,18.0466,4,24.5513,4,30H2C2,18.4907,6.3452,16.0342,9.9907,16a10.0717,10.0717,0,0,1,4.4785,1.117,1,1,0,0,1,.0616,1.73A4.8773,4.8773,0,0,0,17,28h5Z" transform="translate(0 0)"/>
  <rect x="17" y="8" width="2" height="8"/>
  <path d="M28,5.4141,26.5859,4,24.3242,6.2617A9.95,9.95,0,0,0,19,4.0508V2H17V4.0508A10.0132,10.0132,0,0,0,8,14h2a8,8,0,1,1,8,8v2A9.9928,9.9928,0,0,0,25.7383,7.6758Z" transform="translate(0 0)"/>
  <rect id="_Transparent_Rectangle_" data-name="&lt;Transparent Rectangle&gt;" class="cls-1" width="32" height="32"/>
</svg>
