<svg id="Layer_1" data-name="Layer 1" xmlns="http://www.w3.org/2000/svg" width="32" height="32" viewBox="0 0 32 32">
  <defs>
    <style>
      .cls-1 {
        fill: none;
      }
    </style>
  </defs>
  <path d="M28.1655,2a13.0289,13.0289,0,0,0-12.542,9.5791l-1.1767,4.3154A11.0237,11.0237,0,0,1,3.8345,24H2v2H3.8345a12.9139,12.9139,0,0,0,3.4687-.4819,3.9979,3.9979,0,1,0,6.5818-4.2866,12.9671,12.9671,0,0,0,1.6209-2.5269,3.9944,3.9944,0,1,0,2.3772-7.5991,10.95,10.95,0,0,1,1.7253-3.01,3.9825,3.9825,0,0,0,6.9058-3.9648A10.9435,10.9435,0,0,1,28.1655,4H30V2ZM11,26a1.9983,1.9983,0,0,1-1.8118-1.1655,13.0811,13.0811,0,0,0,3.2969-2.1426A1.9773,1.9773,0,0,1,11,26Zm8-11a1.9926,1.9926,0,0,1-2.759,1.8467c.0442-.1426.0959-.2813.1355-.4258L17.301,13.03A1.9976,1.9976,0,0,1,19,15Zm6-9a1.9942,1.9942,0,0,1-3.9011.5894,11.0511,11.0511,0,0,1,3.3623-1.9385A1.995,1.995,0,0,1,25,6Z" transform="translate(0 0)"/>
  <polygon points="10 4 10 8.586 3.414 2 2 3.414 8.586 10 4 10 4 12 12 12 12 4 10 4"/>
  <rect id="_Transparent_Rectangle_" data-name="&lt;Transparent Rectangle&gt;" class="cls-1" width="32" height="32"/>
</svg>
