<svg id="Layer_1" data-name="Layer 1" xmlns="http://www.w3.org/2000/svg" width="32" height="32" viewBox="0 0 32 32">
  <defs>
    <style>
      .cls-1 {
        fill: none;
      }
    </style>
  </defs>
  <path d="M28.1655,2a12.9848,12.9848,0,0,0-8.4074,3.1065A3.9947,3.9947,0,1,0,15.583,11.728l-1.1362,4.1665c-.0725.2657-.1579.5254-.2489.7818a3.9864,3.9864,0,0,0-5.1547,6.0054A10.9541,10.9541,0,0,1,3.8345,24H2v2H3.8345c.2975,0,.5918-.0171.8853-.0371l7.9291,2.9736A1,1,0,0,0,14,28V21.0923a12.9311,12.9311,0,0,0,.9121-1.313l6.3628-1.8179a1,1,0,0,0,.5059-1.5864L17.7843,11.38a10.9268,10.9268,0,0,1,1.1516-2.3472l5.7477,1.916A1,1,0,0,0,26,10V4.2251A10.8956,10.8956,0,0,1,28.1655,4H30V2ZM17,6a1.98,1.98,0,0,1,1.3237.53A12.9413,12.9413,0,0,0,16.24,9.8482,1.9988,1.9988,0,0,1,17,6ZM10,20a1.9879,1.9879,0,0,1,3.3374-1.4717,11.0157,11.0157,0,0,1-2.5959,3.0147A1.9975,1.9975,0,0,1,10,20ZM8.3354,25.1826A13.047,13.047,0,0,0,12,23.0943v3.4624Zm7.74-7.8154c.1107-.3105.2136-.625.3013-.9463l.732-2.6846L19.28,16.4512ZM24,8.6123l-3.7411-1.247A11.0712,11.0712,0,0,1,24,4.8306Z" transform="translate(0 0)"/>
  <polygon points="22 22 22 24 26.586 24 22 28.586 23.414 30 28 25.414 28 30 30 30 30 22 22 22"/>
  <polygon points="2 2 2 4 6.586 4 2 8.586 3.414 10 8 5.414 8 10 10 10 10 2 2 2"/>
  <rect id="_Transparent_Rectangle_" data-name="&lt;Transparent Rectangle&gt;" class="cls-1" width="32" height="32"/>
</svg>
