<?xml version="1.0" encoding="UTF-8"?>
<svg id="icon" xmlns="http://www.w3.org/2000/svg" width="32" height="32" viewBox="0 0 32 32">
  <defs>
    <style>
      .cls-1 {
        fill: none;
      }
    </style>
  </defs>
  <polygon points="20 20.18 18.41 18.59 17 20 20 23 25 18 23.59 16.59 20 20.18"/>
  <path d="m15,23h-4c-.5522,0-1-.4478-1-1v-12c0-.5522.4478-1,1-1h10c.5522,0,1,.4478,1,1v6h-2v-5h-8v10h3v2Z"/>
  <path d="m16,1c-.1741,0-.3481.0454-.5039.1362L3.4961,8.1362c-.3071.1792-.4961.5081-.4961.8638v14c0,.3557.189.6846.4961.8638l12,7c.1558.0908.3298.1362.5039.1362s.3481-.0454.5039-.1362l11-6.4166-1.0078-1.7275-10.4961,6.1227-11-6.4166v-12.8513L16,3.1577l11,6.4166v7.4257h2v-8c0-.3557-.189-.6846-.4961-.8638L16.5039,1.1362c-.1558-.0908-.3298-.1362-.5039-.1362Z"/>
  <rect id="_Transparent_Rectangle_" data-name="&amp;lt;Transparent Rectangle&amp;gt;" class="cls-1" width="32" height="32"/>
</svg>