<svg id="icon" xmlns="http://www.w3.org/2000/svg" width="32" height="32" viewBox="0 0 32 32">
  <defs>
    <style>
      .cls-1 {
        fill: none;
      }
    </style>
  </defs>
  <path d="M16,26a6,6,0,1,1,6-6A6.0069,6.0069,0,0,1,16,26Zm0-10a4,4,0,1,0,4,4A4.0045,4.0045,0,0,0,16,16Z"/>
  <circle cx="16" cy="20" r="2"/>
  <path d="M25.7,9.3l-7-7A.9087.9087,0,0,0,18,2H8A2.0059,2.0059,0,0,0,6,4V28a2.0059,2.0059,0,0,0,2,2H24a2,2,0,0,0,2-2V10A.9092.9092,0,0,0,25.7,9.3ZM18,4.4,23.6,10H18ZM8,28V4h8v6a2.0058,2.0058,0,0,0,2,2h6V28Z"/>
  <rect id="_Transparent_Rectangle_" data-name="&lt;Transparent Rectangle&gt;" class="cls-1" width="32" height="32"/>
</svg>
