<svg id="icon" xmlns="http://www.w3.org/2000/svg" width="32" height="32" viewBox="0 0 32 32">
  <defs>
    <style>
      .cls-1 {
        fill: none;
      }
    </style>
  </defs>
  <path d="M6.9492,20.95l-1.414-1.4141a5,5,0,0,0,0-7.0715L6.9492,11.05a7,7,0,0,1,0,9.9Z" transform="translate(0 0)"/>
  <path d="M10.4854,24.4854,9.0713,23.0713a10.0011,10.0011,0,0,0,0-14.1426l1.4141-1.4141a12.0006,12.0006,0,0,1,0,16.9708Z" transform="translate(0 0)"/>
  <path d="M25.0508,20.95a7,7,0,0,1,0-9.9l1.414,1.4146a5,5,0,0,0,0,7.0715Z" transform="translate(0 0)"/>
  <path d="M21.5146,24.4854a12.0006,12.0006,0,0,1,0-16.9708l1.4141,1.4141a10.0011,10.0011,0,0,0,0,14.1426Z" transform="translate(0 0)"/>
  <path d="M3,15H2V4H0V28H2V17H3a1,1,0,0,0,0-2Z" transform="translate(0 0)"/>
  <path d="M30,4V15H29a1,1,0,0,0,0,2h1V28h2V4Z" transform="translate(0 0)"/>
  <rect id="_Transparent_Rectangle_" data-name="&lt;Transparent Rectangle&gt;" class="cls-1" width="32" height="32"/>
</svg>
