<svg id="icon" xmlns="http://www.w3.org/2000/svg" width="32" height="32" viewBox="0 0 32 32"><defs><style>.cls-1{fill:none;}</style></defs><title>windy--dust</title><path d="M23,28a5.0057,5.0057,0,0,1-5-5h2a3,3,0,1,0,3-3H22V18h1a5,5,0,0,1,0,10Z"/><rect x="16" y="18" width="4" height="2"/><rect x="10" y="18" width="4" height="2"/><rect x="4" y="18" width="4" height="2"/><path d="M21,15H20V13h1a3,3,0,1,0-3-3H16a5,5,0,1,1,5,5Z"/><rect x="14" y="13" width="4" height="2"/><rect x="8" y="13" width="4" height="2"/><rect id="_Transparent_Rectangle_" data-name="&lt;Transparent Rectangle&gt;" class="cls-1" width="32" height="32"/></svg>