<svg id="icon" xmlns="http://www.w3.org/2000/svg" width="32" height="32" viewBox="0 0 32 32">
  <defs>
    <style>
      .cls-1 {
        fill: none;
      }
    </style>
  </defs>
  <path d="M27,6v5H17V6H27m0-2H17a2,2,0,0,0-2,2v5a2,2,0,0,0,2,2H27a2,2,0,0,0,2-2V6a2,2,0,0,0-2-2Z"/>
  <path d="M12,25H6V17h6V15H6a2,2,0,0,0-2,2v8a2,2,0,0,0,2,2h6Z"/>
  <polygon points="30 20 16.828 20 19.414 17.414 18 16 13 21 18 26 19.414 24.586 16.828 22 30 22 30 20"/>
  <path d="M11,6v5H6V6h5m0-2H6A2,2,0,0,0,4,6v5a2,2,0,0,0,2,2h5a2,2,0,0,0,2-2V6a2,2,0,0,0-2-2Z"/>
  <rect id="_Transparent_Rectangle_" data-name="&lt;Transparent Rectangle&gt;" class="cls-1" width="32" height="32"/>
</svg>
