<svg id="icon" xmlns="http://www.w3.org/2000/svg" viewBox="0 0 32 32"><defs><style>.cls-1{fill:none;}</style></defs><title>XML</title><polygon points="24 21 24 9 22 9 22 23 30 23 30 21 24 21"/><polygon points="18 9 16.48 14 16 15.98 15.54 14 14 9 12 9 12 23 14 23 14 15 13.84 13 14.42 15 16 19.63 17.58 15 18.16 13 18 15 18 23 20 23 20 9 18 9"/><polygon points="10 9 8 9 6 15 4 9 2 9 4.75 16 2 23 4 23 6 17 8 23 10 23 7.25 16 10 9"/><rect id="_Transparent_Rectangle_" data-name="&lt;Transparent Rectangle&gt;" class="cls-1" width="32" height="32"/></svg>