<svg id="icon" xmlns="http://www.w3.org/2000/svg" viewBox="0 0 32 32"><defs><style>.cls-1{fill:none;}</style></defs><title>ZIP</title><path d="M28,9H22V23h2V18h4a2,2,0,0,0,2-2V11A2,2,0,0,0,28,9Zm0,7H24V11h4Z"/><polygon points="12 9 12 11 15 11 15 21 12 21 12 23 20 23 20 21 17 21 17 11 20 11 20 9 12 9"/><polygon points="10 9 2 9 2 11 8 11 2 21 2 23 10 23 10 21 4 21 10 11 10 9"/><rect id="_Transparent_Rectangle_" data-name="&lt;Transparent Rectangle&gt;" class="cls-1" width="32" height="32"/></svg>