<svg id="icon" xmlns="http://www.w3.org/2000/svg" width="32" height="32" viewBox="0 0 32 32">
  <defs>
    <style>
      .cls-1 {
        fill: none;
      }
    </style>
  </defs>
  <path d="M21.4479,20A10.856,10.856,0,0,0,24,13,11,11,0,1,0,13,24a10.856,10.856,0,0,0,7-2.5521L27.5859,29,29,27.5859ZM13,22a9,9,0,1,1,9-9A9.01,9.01,0,0,1,13,22Z"/>
  <path d="M10,12H8V10a2.0023,2.0023,0,0,1,2-2h2v2H10Z"/>
  <path d="M18,12H16V10H14V8h2a2.0023,2.0023,0,0,1,2,2Z"/>
  <path d="M12,18H10a2.0023,2.0023,0,0,1-2-2V14h2v2h2Z"/>
  <path d="M16,18H14V16h2V14h2v2A2.0023,2.0023,0,0,1,16,18Z"/>
  <rect id="_Transparent_Rectangle_" data-name="&lt;Transparent Rectangle&gt;" class="cls-1" width="32" height="32"/>
</svg>
