<svg id="icon" xmlns="http://www.w3.org/2000/svg" width="32" height="32" viewBox="0 0 32 32">
  <defs>
    <style>
      .cls-1 {
        fill: none;
      }
    </style>
  </defs>
  <path d="M32,30.5859l-4.6885-4.6884a8.028,8.028,0,1,0-1.414,1.414L30.5859,32ZM21,27a6,6,0,1,1,6-6A6.0066,6.0066,0,0,1,21,27Z"/>
  <rect x="6" y="22" width="2" height="2" transform="translate(14 46) rotate(180)"/>
  <rect x="2" y="22" width="2" height="2" transform="translate(6 46) rotate(180)"/>
  <rect x="10" y="22" width="2" height="2" transform="translate(22 46) rotate(180)"/>
  <rect x="2" y="18" width="2" height="2" transform="translate(6 38) rotate(180)"/>
  <rect x="18" y="22" width="2" height="2" transform="translate(38 46) rotate(180)"/>
  <rect x="22" y="22" width="2" height="2" transform="translate(46 46) rotate(180)"/>
  <rect x="22" y="18" width="2" height="2" transform="translate(46 38) rotate(180)"/>
  <rect x="22" y="6" width="2" height="2" transform="translate(46 14) rotate(180)"/>
  <rect x="22" y="10" width="2" height="2" transform="translate(46 22) rotate(180)"/>
  <rect x="22" y="2" width="2" height="2" transform="translate(46 6) rotate(180)"/>
  <rect x="18" y="2" width="2" height="2" transform="translate(38 6) rotate(180)"/>
  <rect x="14" y="2" width="2" height="2" transform="translate(30 6) rotate(180)"/>
  <rect x="10" y="2" width="2" height="2" transform="translate(22 6) rotate(180)"/>
  <rect x="2" y="14" width="2" height="2" transform="translate(6 30) rotate(180)"/>
  <rect x="2" y="10" width="2" height="2" transform="translate(6 22) rotate(180)"/>
  <rect x="2" y="6" width="2" height="2" transform="translate(6 14) rotate(180)"/>
  <rect x="6" y="2" width="2" height="2" transform="translate(14 6) rotate(180)"/>
  <rect x="2" y="2" width="2" height="2" transform="translate(6 6) rotate(180)"/>
  <rect id="_Transparent_Rectangle_" data-name="&lt;Transparent Rectangle&gt;" class="cls-1" width="32" height="32"/>
</svg>
