<svg id="icon" xmlns="http://www.w3.org/2000/svg" viewBox="0 0 32 32"><defs><style>.cls-1{fill:none;}</style></defs><title>watson-health--3D-MPR-Toggle</title><polygon points="11 2 2 2 2 11 4 11 4 4 11 4 11 2"/><polygon points="2 21 2 30 11 30 11 28 4 28 4 21 2 21"/><polygon points="30 11 30 2 21 2 21 4 28 4 28 11 30 11"/><polygon points="21 30 30 30 30 21 28 21 28 28 21 28 21 30"/><path d="M25.49,10.13l-9-5a1,1,0,0,0-1,0l-9,5A1,1,0,0,0,6,11V21a1,1,0,0,0,.51.87l9,5a1,1,0,0,0,1,0l9-5A1,1,0,0,0,26,21V11A1,1,0,0,0,25.49,10.13ZM16,7.14,22.94,11,16,14.86,9.06,11ZM8,12.7l7,3.89V24.3L8,20.41Zm9,11.6V16.59l7-3.89v7.71Z"/><rect id="_Transparent_Rectangle_" data-name="&lt;Transparent Rectangle&gt;" class="cls-1" width="32" height="32"/></svg>