<svg id="icon" xmlns="http://www.w3.org/2000/svg" width="32" height="32" viewBox="0 0 32 32"><defs><style>.cls-1{fill:none;}</style></defs><title>3D-software</title><path d="M21.49,13.1151l-9-5a1,1,0,0,0-1,0l-9,5A1.0078,1.0078,0,0,0,2,14v9.9951a1,1,0,0,0,.52.87l9,5A1.0045,1.0045,0,0,0,12,30a1.0559,1.0559,0,0,0,.49-.1349l9-5A.9923.9923,0,0,0,22,24V14A1.0079,1.0079,0,0,0,21.49,13.1151ZM11,27.2951l-7-3.89v-7.72l7,3.89Zm1-9.45L5.06,14,12,10.1351l6.94,3.86Zm8,5.56-7,3.89v-7.72l7-3.89Z"/><polygon points="30 6 26 6 26 2 24 2 24 6 20 6 20 8 24 8 24 12 26 12 26 8 30 8 30 6"/><rect id="_Transparent_Rectangle_" data-name="&lt;Transparent Rectangle&gt;" class="cls-1" width="32" height="32"/></svg>