<svg id="icon" xmlns="http://www.w3.org/2000/svg" viewBox="0 0 32 32"><defs><style>.cls-1{fill:none;}</style></defs><title>watson-health--annotation-visibility</title><path d="M28,4H4A2,2,0,0,0,2,6V26a2,2,0,0,0,2,2H28a2,2,0,0,0,2-2V6A2,2,0,0,0,28,4Zm0,22H4V6H28Z"/><path d="M21,20H13a3.51,3.51,0,0,0-.88-1.86l3.8-6.64-1.74-1-3.78,6.62A3.35,3.35,0,0,0,9.5,17a3.5,3.5,0,1,0,3.15,5H21ZM9.5,22A1.5,1.5,0,1,1,11,20.5,1.5,1.5,0,0,1,9.5,22Z"/><rect x="19" y="8" width="7" height="2"/><rect x="19" y="12" width="4" height="2"/><rect id="_Transparent_Rectangle_" data-name="&lt;Transparent Rectangle&gt;" class="cls-1" width="32" height="32"/></svg>