<?xml version="1.0" encoding="UTF-8"?>
<svg width="320px" height="180px" viewBox="0 0 320 180" version="1.1" xmlns="http://www.w3.org/2000/svg" xmlns:xlink="http://www.w3.org/1999/xlink">
    <title>ui-shell-header</title>
    <g id="ui-shell-header" stroke="none" stroke-width="1" fill="none" fill-rule="evenodd">
        <g id="Group-57-Copy" transform="translate(44.000000, 79.000000)">
            <rect id="Rectangle" fill="#262626" x="0" y="0" width="232" height="21"></rect>
            <rect id="Rectangle-Copy-25" fill="#C6C6C6" x="25.3182888" y="8.67045455" width="33.4156379" height="4"></rect>
        </g>
        <g id="Actions-/-Navigation-/-switcher-/-16-Copy" transform="translate(258.000000, 85.000000)" fill="#FFFFFF">
            <path d="M6.75,6.75 L7.875,6.75 L7.875,7.875 L6.75,7.875 L6.75,6.75 Z M3.9375,6.75 L5.0625,6.75 L5.0625,7.875 L3.9375,7.875 L3.9375,6.75 Z M1.125,6.75 L2.25,6.75 L2.25,7.875 L1.125,7.875 L1.125,6.75 Z M6.75,3.9375 L7.875,3.9375 L7.875,5.0625 L6.75,5.0625 L6.75,3.9375 Z M3.9375,3.9375 L5.0625,3.9375 L5.0625,5.0625 L3.9375,5.0625 L3.9375,3.9375 Z M1.125,3.9375 L2.25,3.9375 L2.25,5.0625 L1.125,5.0625 L1.125,3.9375 Z M6.75,1.125 L7.875,1.125 L7.875,2.25 L6.75,2.25 L6.75,1.125 Z M3.9375,1.125 L5.0625,1.125 L5.0625,2.25 L3.9375,2.25 L3.9375,1.125 Z M1.125,1.125 L2.25,1.125 L2.25,2.25 L1.125,2.25 L1.125,1.125 Z" id="Fill"></path>
        </g>
        <g id="Person-/-User-/-user-/-16-Copy" transform="translate(239.000000, 85.000000)" fill="#FFFFFF">
            <path d="M4.5,1.125 C5.2875,1.125 5.90625,1.74375 5.90625,2.53125 C5.90625,3.31875 5.2875,3.9375 4.5,3.9375 C3.7125,3.9375 3.09375,3.31875 3.09375,2.53125 C3.09375,1.74375 3.7125,1.125 4.5,1.125 L4.5,1.125 Z M4.5,0.5625 C3.43125,0.5625 2.53125,1.4625 2.53125,2.53125 C2.53125,3.6 3.43125,4.5 4.5,4.5 C5.56875,4.5 6.46875,3.6 6.46875,2.53125 C6.46875,1.4625 5.56875,0.5625 4.5,0.5625 Z M7.3125,8.4375 L6.75,8.4375 L6.75,7.03125 C6.75,6.24375 6.13125,5.625 5.34375,5.625 L3.65625,5.625 C2.86875,5.625 2.25,6.24375 2.25,7.03125 L2.25,8.4375 L1.6875,8.4375 L1.6875,7.03125 C1.6875,5.9625 2.5875,5.0625 3.65625,5.0625 L5.34375,5.0625 C6.4125,5.0625 7.3125,5.9625 7.3125,7.03125 L7.3125,8.4375 Z" id="Fill"></path>
        </g>
        <g id="Organization-/-Status-/-help-/-16-Copy" transform="translate(219.000000, 85.000000)" fill="#FFFFFF">
            <path d="M4.5,0.5625 C2.30625,0.5625 0.5625,2.30625 0.5625,4.5 C0.5625,6.69375 2.30625,8.4375 4.5,8.4375 C6.69375,8.4375 8.4375,6.69375 8.4375,4.5 C8.4375,2.30625 6.69375,0.5625 4.5,0.5625 Z M4.5,7.875 C2.64375,7.875 1.125,6.35625 1.125,4.5 C1.125,2.64375 2.64375,1.125 4.5,1.125 C6.35625,1.125 7.875,2.64375 7.875,4.5 C7.875,6.35625 6.35625,7.875 4.5,7.875 Z M4.5,7.0875 C4.74852814,7.0875 4.95,6.88602814 4.95,6.6375 C4.95,6.38897186 4.74852814,6.1875 4.5,6.1875 C4.25147186,6.1875 4.05,6.38897186 4.05,6.6375 C4.05,6.88602814 4.25147186,7.0875 4.5,7.0875 Z M4.78125,2.25 L4.3875,2.25 C3.65625,2.25 3.09375,2.8125 3.09375,3.4875 L3.09375,3.6 L3.65625,3.6 L3.65625,3.4875 C3.65625,3.15 3.99375,2.8125 4.3875,2.8125 L4.8375,2.8125 C5.23125,2.8125 5.5125,3.15 5.5125,3.4875 C5.5125,3.825 5.175,4.21875 4.78125,4.21875 L4.21875,4.21875 L4.21875,5.45625 L4.78125,5.45625 L4.78125,4.78125 C5.45625,4.78125 6.01875,4.21875 6.01875,3.54375 C6.01875,2.86875 5.45625,2.25 4.78125,2.25 Z" id="Fill"></path>
        </g>
        <g id="Actions-/-Toggle-/-notification-/-16-Copy" transform="translate(199.000000, 85.000000)" fill="#FFFFFF">
            <path d="M8.1,5.68125 L7.3125,4.95 L7.3125,3.65625 C7.3125,2.19375 6.24375,1.0125 4.78125,0.84375 L4.78125,0.28125 L4.21875,0.28125 L4.21875,0.84375 C2.8125,1.0125 1.6875,2.19375 1.6875,3.65625 L1.6875,4.95 L0.9,5.68125 C0.84375,5.7375 0.7875,5.79375 0.84375,5.90625 L0.84375,6.75 C0.84375,6.91875 0.95625,7.03125 1.06875,7.03125 L3.09375,7.03125 C3.09375,7.81875 3.7125,8.4375 4.5,8.4375 C5.2875,8.4375 5.90625,7.81875 5.90625,7.03125 L7.875,7.03125 C8.04375,7.03125 8.15625,6.91875 8.15625,6.80625 L8.15625,5.90625 C8.15625,5.85 8.1,5.7375 8.1,5.68125 Z M4.5,7.875 C4.05,7.875 3.65625,7.48125 3.65625,7.03125 L5.34375,7.03125 C5.34375,7.48125 4.95,7.875 4.5,7.875 Z M7.59375,6.46875 L1.40625,6.46875 L1.40625,6.01875 L2.1375,5.23125 C2.19375,5.23125 2.25,5.11875 2.25,5.0625 L2.25,3.65625 C2.25,2.41875 3.2625,1.40625 4.5,1.40625 C5.7375,1.40625 6.75,2.41875 6.75,3.65625 L6.75,5.0625 C6.75,5.11875 6.80625,5.23125 6.80625,5.2875 L7.59375,6.01875 L7.59375,6.46875 L7.59375,6.46875 Z" id="Fill"></path>
        </g>
        <g id="Actions-/-Navigation-/-menu-/-16-Copy" transform="translate(51.000000, 85.000000)" fill="#FFFFFF">
            <path d="M1.25,7.5 L8.75,7.5 L8.75,8.125 L1.25,8.125 L1.25,7.5 Z M1.25,5.625 L8.75,5.625 L8.75,6.25 L1.25,6.25 L1.25,5.625 Z M1.25,3.75 L8.75,3.75 L8.75,4.375 L1.25,4.375 L1.25,3.75 Z M1.25,1.875 L8.75,1.875 L8.75,2.5 L1.25,2.5 L1.25,1.875 Z" id="Fill"></path>
        </g>
    </g>
</svg>