<svg width="55px" height="55px" viewBox="0 0 55 55" xmlns="http://www.w3.org/2000/svg"><path d="M39.0147535,34.9001057 C39.2568197,34.9001057 39.4533086,35.0924261 39.4533086,35.3293569 L39.4533086,37.3824268 C39.4533086,37.6193576 39.2568197,37.811678 39.0147535,37.811678 C38.7726874,37.811678 38.5761985,37.6193576 38.5761985,37.3824268 L38.5761985,35.3293569 C38.5761985,35.0924261 38.7726874,34.9001057 39.0147535,34.9001057 Z M43.1228899,41.1414976 L43.1228899,13.3244333 C43.1228899,13.0676756 42.9284267,12.8585024 42.6893991,12.8585024 L25.9604997,12.8585024 C25.721472,12.8585024 25.5270088,13.0676756 25.5270088,13.3244333 L25.5270088,24.4839733 C25.5270088,24.7209041 25.3305199,24.9132245 25.0884537,24.9132245 L12.3116138,24.9132245 C12.0725861,24.9132245 11.8791357,25.1223977 11.8791357,25.3791554 L11.8771101,41.1414976 L20.0081026,41.1414976 L20.0081026,34.5669156 C20.0081026,33.8362963 20.5955436,33.2424823 21.3187036,33.2424823 L24.2164078,33.2424823 C24.9395679,33.2424823 25.5270088,33.8362963 25.5270088,34.5669156 L25.5270088,41.1414976 L43.1228899,41.1414976 Z M24.6498987,41.1414976 L24.6498987,34.5669156 C24.6498987,34.310158 24.4554355,34.1009847 24.2164078,34.1009847 L21.3187036,34.1009847 C21.0796759,34.1009847 20.8852127,34.310158 20.8852127,34.5669156 L20.8852127,41.1414976 L24.6498987,41.1414976 Z M42.6893991,12 C43.4125591,12 44,12.593814 44,13.3244333 L44,41.5707488 C44,41.8076796 43.8035111,42 43.561445,42 L11.438555,42 C11.3230925,42 11.2106685,41.9543983 11.1286293,41.8740995 C11.0465901,41.7938008 11,41.6847532 11,41.5707488 L11.0020257,25.3791554 C11.0020257,24.6485361 11.5894666,24.0547221 12.3116138,24.0547221 L24.6498987,24.0547221 L24.6498987,13.3244333 C24.6498987,12.593814 25.2373396,12 25.9604997,12 L42.6893991,12 Z M39.0147535,22.0015531 C39.2568197,22.0015531 39.4533086,22.1938735 39.4533086,22.4308043 L39.4533086,24.4838742 C39.4533086,24.720805 39.2568197,24.9131254 39.0147535,24.9131254 C38.7726874,24.9131254 38.5761985,24.720805 38.5761985,24.4838742 L38.5761985,22.4308043 C38.5761985,22.1938735 38.7726874,22.0015531 39.0147535,22.0015531 Z M29.730655,22.0015531 C29.9727211,22.0015531 30.16921,22.1938735 30.16921,22.4308043 L30.16921,24.4838742 C30.16921,24.720805 29.9727211,24.9131254 29.730655,24.9131254 C29.4885888,24.9131254 29.2920999,24.720805 29.2920999,24.4838742 L29.2920999,22.4308043 C29.2920999,22.1938735 29.4885888,22.0015531 29.730655,22.0015531 Z M34.372451,22.0015531 C34.6145172,22.0015531 34.8110061,22.1938735 34.8110061,22.4308043 L34.8110061,24.4838742 C34.8110061,24.720805 34.6145172,24.9131254 34.372451,24.9131254 C34.1303849,24.9131254 33.933896,24.720805 33.933896,24.4838742 L33.933896,22.4308043 C33.933896,22.1938735 34.1303849,22.0015531 34.372451,22.0015531 Z M15.8051654,28.2143943 C16.0472316,28.2143943 16.2437205,28.4067147 16.2437205,28.6436455 L16.2437205,30.695724 C16.2437205,30.9336462 16.0472316,31.1259666 15.8051654,31.1259666 C15.5630993,31.1259666 15.3666104,30.9336462 15.3666104,30.695724 L15.3666104,28.6436455 C15.3666104,28.4067147 15.5630993,28.2143943 15.8051654,28.2143943 Z M20.4469615,28.2143943 C20.6890277,28.2143943 20.8855165,28.4067147 20.8855165,28.6436455 L20.8855165,30.695724 C20.8855165,30.9336462 20.6890277,31.1259666 20.4469615,31.1259666 C20.2048953,31.1259666 20.0084065,30.9336462 20.0084065,30.695724 L20.0084065,28.6436455 C20.0084065,28.4067147 20.2048953,28.2143943 20.4469615,28.2143943 Z M25.0888589,28.2143943 C25.3309251,28.2143943 25.5274139,28.4067147 25.5274139,28.6436455 L25.5274139,30.695724 C25.5274139,30.9336462 25.3309251,31.1259666 25.0888589,31.1259666 C24.8467927,31.1259666 24.6503038,30.9336462 24.6503038,30.695724 L24.6503038,28.6436455 C24.6503038,28.4067147 24.8467927,28.2143943 25.0888589,28.2143943 Z M29.730655,28.2143943 C29.9727211,28.2143943 30.16921,28.4067147 30.16921,28.6436455 L30.16921,30.695724 C30.16921,30.9336462 29.9727211,31.1259666 29.730655,31.1259666 C29.4885888,31.1259666 29.2920999,30.9336462 29.2920999,30.695724 L29.2920999,28.6436455 C29.2920999,28.4067147 29.4885888,28.2143943 29.730655,28.2143943 Z M34.372451,28.2143943 C34.6145172,28.2143943 34.8110061,28.4067147 34.8110061,28.6436455 L34.8110061,30.695724 C34.8110061,30.9336462 34.6145172,31.1259666 34.372451,31.1259666 C34.1303849,31.1259666 33.933896,30.9336462 33.933896,30.695724 L33.933896,28.6436455 C33.933896,28.4067147 34.1303849,28.2143943 34.372451,28.2143943 Z M39.0147535,28.2143943 C39.2568197,28.2143943 39.4533086,28.4067147 39.4533086,28.6436455 L39.4533086,30.695724 C39.4533086,30.9336462 39.2568197,31.1259666 39.0147535,31.1259666 C38.7726874,31.1259666 38.5761985,30.9336462 38.5761985,30.695724 L38.5761985,28.6436455 C38.5761985,28.4067147 38.7726874,28.2143943 39.0147535,28.2143943 Z M39.0147535,15.8593946 C39.2568197,15.8593946 39.4533086,16.051715 39.4533086,16.2886458 L39.4533086,18.3407243 C39.4533086,18.5786465 39.2568197,18.7709669 39.0147535,18.7709669 C38.7726874,18.7709669 38.5761985,18.5786465 38.5761985,18.3407243 L38.5761985,16.2886458 C38.5761985,16.051715 38.7726874,15.8593946 39.0147535,15.8593946 Z M29.730655,15.8593946 C29.9727211,15.8593946 30.16921,16.051715 30.16921,16.2886458 L30.16921,18.3407243 C30.16921,18.5786465 29.9727211,18.7709669 29.730655,18.7709669 C29.4885888,18.7709669 29.2920999,18.5786465 29.2920999,18.3407243 L29.2920999,16.2886458 C29.2920999,16.051715 29.4885888,15.8593946 29.730655,15.8593946 Z M34.372451,15.8593946 C34.6145172,15.8593946 34.8110061,16.051715 34.8110061,16.2886458 L34.8110061,18.3407243 C34.8110061,18.5786465 34.6145172,18.7709669 34.372451,18.7709669 C34.1303849,18.7709669 33.933896,18.5786465 33.933896,18.3407243 L33.933896,16.2886458 C33.933896,16.051715 34.1303849,15.8593946 34.372451,15.8593946 Z M15.8051654,34.9001057 C16.0472316,34.9001057 16.2437205,35.0924261 16.2437205,35.3293569 L16.2437205,37.3824268 C16.2437205,37.6193576 16.0472316,37.811678 15.8051654,37.811678 C15.5630993,37.811678 15.3666104,37.6193576 15.3666104,37.3824268 L15.3666104,35.3293569 C15.3666104,35.0924261 15.5630993,34.9001057 15.8051654,34.9001057 Z M29.730655,34.9001057 C29.9727211,34.9001057 30.16921,35.0924261 30.16921,35.3293569 L30.16921,37.3824268 C30.16921,37.6193576 29.9727211,37.811678 29.730655,37.811678 C29.4885888,37.811678 29.2920999,37.6193576 29.2920999,37.3824268 L29.2920999,35.3293569 C29.2920999,35.0924261 29.4885888,34.9001057 29.730655,34.9001057 Z M34.372451,34.9001057 C34.6145172,34.9001057 34.8110061,35.0924261 34.8110061,35.3293569 L34.8110061,37.3824268 C34.8110061,37.6193576 34.6145172,37.811678 34.372451,37.811678 C34.1303849,37.811678 33.933896,37.6193576 33.933896,37.3824268 L33.933896,35.3293569 C33.933896,35.0924261 34.1303849,34.9001057 34.372451,34.9001057 Z"></path></svg>
