<svg width="55px" height="55px" viewBox="0 0 55 55" xmlns="http://www.w3.org/2000/svg"><path d="M39.0927998,30.7805537 L21.6569723,30.7805537 C20.6937732,30.7805537 19.925037,30.506077 19.308225,29.9439568 L19.7477922,32.0678596 C20.2086288,34.1856853 21.105994,35.0911546 22.7498133,35.0911546 L41.4101494,35.0911546 C41.6522152,35.0911546 41.8487038,35.2876435 41.8487038,35.5297097 C41.8487038,35.7717758 41.6522152,35.9682647 41.4101494,35.9682647 L22.7498133,35.9682647 C20.6684525,35.9682647 19.4419183,34.786293 18.8899272,32.249156 L16.0215994,18.3926401 C16.0175481,18.3744092 16.0226122,18.3582039 16.0205865,18.339973 L14.6866926,11.8771101 L11.4385544,11.8771101 C11.1964886,11.8771101 11,11.681634 11,11.438555 C11,11.1964889 11.1964886,11 11.4385544,11 L15.0442207,11 C15.2518504,11 15.4311209,11.1468602 15.4736596,11.3504389 L18.6752077,26.8619176 C19.2221347,29.0162053 20.0881023,29.9034436 21.6569723,29.9034436 L39.0927998,29.9034436 C40.5127842,29.9034436 41.2470842,29.2744767 41.4759832,27.8646185 L43.05802,16.5300473 L19.5411754,16.5300473 C19.2991096,16.5300473 19.102621,16.3335584 19.102621,16.0914922 C19.102621,15.8484132 19.2991096,15.6519244 19.5411754,15.6519244 L43.5613953,15.6519244 C43.6890116,15.6519244 43.8095381,15.70763 43.8925899,15.8028359 C43.9756418,15.8990547 44.0131164,16.0256583 43.9958984,16.152262 L42.3429637,27.9952735 C42.047218,29.8203916 40.925005,30.7805537 39.0927998,30.7805537 Z M22.5310425,43.1228899 C23.6117296,43.1228899 24.490864,42.2437542 24.490864,41.1630655 C24.490864,40.0823768 23.6117296,39.2032411 22.5310425,39.2032411 C21.4503554,39.2032411 20.5712211,40.0823768 20.5712211,41.1630655 C20.5712211,42.2437542 21.4503554,43.1228899 22.5310425,43.1228899 Z M22.5310425,38.326131 C24.0948484,38.326131 25.3679727,39.5992573 25.3679727,41.1630655 C25.3679727,42.7268737 24.0948484,44 22.5310425,44 C20.9672367,44 19.6941123,42.7268737 19.6941123,41.1630655 C19.6941123,39.5992573 20.9672367,38.326131 22.5310425,38.326131 Z M37.4414857,38.326131 C39.0052915,38.326131 40.2784158,39.5992573 40.2784158,41.1630655 C40.2784158,42.7268737 39.0052915,44 37.4414857,44 C35.8776798,44 34.6045555,42.7268737 34.6045555,41.1630655 C34.6045555,39.5992573 35.8776798,38.326131 37.4414857,38.326131 Z M37.4414857,43.1228899 C38.5221727,43.1228899 39.4013071,42.2437542 39.4013071,41.1630655 C39.4013071,40.0823768 38.5221727,39.2032411 37.4414857,39.2032411 C36.3607986,39.2032411 35.4816642,40.0823768 35.4816642,41.1630655 C35.4816642,42.2437542 36.3607986,43.1228899 37.4414857,43.1228899 Z"></path></svg>
