<svg width="55px" height="55px" viewBox="0 0 55 55" xmlns="http://www.w3.org/2000/svg"><path d="M35.7523042,33.9104997 C36.8167778,33.9104997 37.6837516,34.7703916 37.6837516,35.8267725 C37.6837516,36.8841661 36.8167778,37.7430452 35.7523042,37.7430452 L34.6979587,37.7430452 L34.6979587,38.8642471 C34.6979587,39.1063133 34.5024845,39.3017893 34.2594077,39.3017893 C34.0173438,39.3017893 33.8208567,39.1063133 33.8208567,38.8642471 L33.8208567,37.7430452 L31.7131786,37.7430452 C31.4711147,37.7430452 31.2746276,37.5475692 31.2746276,37.305503 C31.2746276,37.062424 31.4711147,36.866948 31.7131786,36.866948 L34.2543436,36.866948 C34.2563693,36.866948 34.2573821,36.8659352 34.2594077,36.8659352 C34.2614334,36.8659352 34.2624462,36.866948 34.2644718,36.866948 L35.7523042,36.866948 C36.3336628,36.866948 36.8066496,36.4000338 36.8066496,35.8267725 C36.8066496,35.2535111 36.3336628,34.7865969 35.7523042,34.7865969 L32.7675241,34.7865969 C31.7030504,34.7865969 30.8370895,33.9277178 30.8370895,32.8703241 C30.8370895,31.8139433 31.7030504,30.9540513 32.7675241,30.9540513 L33.8208567,30.9540513 L33.8208567,29.8328494 C33.8208567,29.5897704 34.0173438,29.3942944 34.2594077,29.3942944 C34.5024845,29.3942944 34.6979587,29.5897704 34.6979587,29.8328494 L34.6979587,30.9540513 L36.8066496,30.9540513 C37.0487136,30.9540513 37.2452006,31.1495273 37.2452006,31.3926063 C37.2452006,31.6346725 37.0487136,31.8301485 36.8066496,31.8301485 L32.7675241,31.8301485 C32.1861655,31.8301485 31.7141914,32.2970628 31.7141914,32.8703241 C31.7141914,33.4435854 32.1861655,33.9104997 32.7675241,33.9104997 L35.7523042,33.9104997 Z M11.8781148,33.9114112 L16.3973169,33.9114112 L16.3973169,26.6028359 L11.8781148,26.6028359 L11.8781148,33.9114112 Z M16.8358679,25.7267387 C17.0779319,25.7267387 17.2744189,25.9222147 17.2744189,26.1652937 L17.2744189,34.3499662 C17.2744189,34.5920324 17.0779319,34.7875084 16.8358679,34.7875084 L11.438551,34.7875084 C11.196487,34.7875084 11,34.5920324 11,34.3499662 L11,26.1652937 C11,25.9222147 11.196487,25.7267387 11.438551,25.7267387 L16.8358679,25.7267387 Z M34.2597116,43.1239028 C39.1465673,43.1239028 43.1218852,39.1870358 43.1218852,34.3487508 C43.1218852,29.5104659 39.1465673,25.5725861 34.2597116,25.5725861 C29.3728558,25.5725861 25.3975379,29.5094531 25.3975379,34.347738 C25.3975379,34.3487508 25.3975379,34.3487508 25.3975379,34.3497637 C25.3975379,34.3507765 25.3975379,34.3507765 25.3975379,34.3517893 C25.3985507,39.1880486 29.3738686,43.1239028 34.2597116,43.1239028 Z M20.5886693,20.2815665 L20.5886693,33.9112086 L24.5417052,33.9112086 C24.5872821,32.9105334 24.7857947,31.9513842 25.1169868,31.0519919 C25.115974,31.0378123 25.1088843,31.0266712 25.1088843,31.0124916 L25.1088843,20.2815665 L20.5886693,20.2815665 Z M29.3009456,11.8760972 L29.3009456,26.0557056 C30.636855,25.2677245 32.1753283,24.790682 33.8211606,24.7177583 L33.8211606,11.8760972 L29.3009456,11.8760972 Z M34.6992754,24.7177583 C39.8646566,24.9486833 44,29.1742066 44,34.3487508 C44,39.6711681 39.6306952,44 34.2597116,44 C29.0386253,44 24.7766794,39.9051317 24.5417052,34.7883187 L20.1501183,34.7883187 C19.9080544,34.7883187 19.7115673,34.5918298 19.7115673,34.3497637 L19.7115673,19.8440243 C19.7115673,19.6009453 19.9080544,19.4054693 20.1501183,19.4054693 L25.5474353,19.4054693 C25.790512,19.4054693 25.9869991,19.6009453 25.9869991,19.8440243 L25.9869991,29.2795409 C26.628114,28.2545577 27.4566007,27.3602296 28.4268821,26.6370695 C28.4268821,26.6299797 28.4228308,26.6249156 28.4228308,26.6178258 L28.4228308,11.438555 C28.4228308,11.1964889 28.6193179,11 28.8613818,11 L34.2597116,11 C34.5027883,11 34.6992754,11.1964889 34.6992754,11.438555 L34.6992754,24.7177583 Z"></path></svg>
