<?xml version="1.0" encoding="utf-8"?>
<!-- Generator: Adobe Illustrator 23.0.2, SVG Export Plug-In . SVG Version: 6.00 Build 0)  -->
<svg version="1.1" id="icon" xmlns="http://www.w3.org/2000/svg" xmlns:xlink="http://www.w3.org/1999/xlink" x="0px" y="0px"
	 width="24px" height="24px" viewBox="0 0 24 24" style="enable-background:new 0 0 24 24;" xml:space="preserve">
<style type="text/css">
	.st0{fill:none;}
	.st1{opacity:0;fill:#FFFFFF;fill-opacity:0;}
</style>
<rect id="_Transparent_Rectangle_" class="st0" width="32" height="32"/>
<path d="M12,2C6.5,2,2,6.5,2,12s4.5,10,10,10s10-4.5,10-10S17.5,2,12,2z M15.9,17L12,13.1L8.1,17L7,15.9l3.9-3.9L7,8.1L8.1,7
	l3.9,3.9L15.9,7L17,8.1L13.1,12l3.9,3.9L15.9,17z"/>
<path id="inner-path" class="st1" d="M15.9,17L12,13.1L8.1,17L7,15.9l3.9-3.9L7,8.1L8.1,7l3.9,3.9L15.9,7L17,8.1L13.1,12l3.9,3.9
	L15.9,17z"/>
</svg>
