<?xml version="1.0" encoding="utf-8"?>
<!-- Generator: Adobe Illustrator 23.0.2, SVG Export Plug-In . SVG Version: 6.00 Build 0)  -->
<svg version="1.1" id="Layer_1" xmlns="http://www.w3.org/2000/svg" xmlns:xlink="http://www.w3.org/1999/xlink" x="0px" y="0px"
	 width="24px" height="24px" viewBox="0 0 24 24" style="enable-background:new 0 0 24 24;" xml:space="preserve">
<style type="text/css">
	.st0{display:none;}
  .cls-1{fill:none;}
</style>
<path class="st0" d="M6.5,9.8h12.7l-3-3l1.1-1.1l4.8,4.8l-4.8,4.8l-1.1-1.1l3-3H6.5c-1.7,0-3,1.5-3,3.2s1.3,3.2,3,3.2H10v1.5H6.5
	c-2.8,0-4.5-2-4.5-4.8C2,11.8,3.8,9.8,6.5,9.8z"/>
<path id="_x32_4_px" d="M6.8,11.2c-1.8,0-3.2,1.7-3.2,3.3c0,1.5,1.5,3.2,3.2,3.2H10v1.5H6.8C4.6,19.2,2,17,2,14.5s2-4.8,4.8-4.8
	h12.4l-3-3l1.1-1.1l4.8,4.8l-4.8,4.8l-1.1-1.1l3-3H6.8z"/>
  <rect id="_Transparent_Rectangle_" data-name="&lt;Transparent Rectangle&gt;" class="cls-1" width="24" height="24"/>
</svg>
