<svg width="320" height="180" viewBox="0 0 320 180" fill="none" xmlns="http://www.w3.org/2000/svg">
<path d="M238.884 66L243 61.8838L242.116 61L238 65.1163L233.884 61L233 61.8838L237.116 66L233 70.1163L233.884 71L238 66.8837L242.116 71L243 70.1163L238.884 66V66Z" fill="black"/>
<mask id="mask0_0_980" style="mask-type:alpha" maskUnits="userSpaceOnUse" x="233" y="61" width="10" height="10">
<path d="M238.884 66L243 61.8838L242.116 61L238 65.1163L233.884 61L233 61.8838L237.116 66L233 70.1163L233.884 71L238 66.8837L242.116 71L243 70.1163L238.884 66V66Z" fill="white"/>
</mask>
<g mask="url(#mask0_0_980)">
<rect width="40" height="40" transform="translate(228 56)" fill="#171717"/>
</g>
<path fill-rule="evenodd" clip-rule="evenodd" d="M79.25 59.75C79.25 60.4404 78.6904 61 78 61C77.3096 61 76.75 60.4404 76.75 59.75C76.75 59.0596 77.3096 58.5 78 58.5C78.6904 58.5 79.25 59.0596 79.25 59.75ZM79.25 66C79.25 66.6904 78.6904 67.25 78 67.25C77.3096 67.25 76.75 66.6904 76.75 66C76.75 65.3096 77.3096 64.75 78 64.75C78.6904 64.75 79.25 65.3096 79.25 66ZM78 73.5C78.6904 73.5 79.25 72.9404 79.25 72.25C79.25 71.5596 78.6904 71 78 71C77.3096 71 76.75 71.5596 76.75 72.25C76.75 72.9404 77.3096 73.5 78 73.5Z" fill="black"/>
<mask id="mask1_0_980" style="mask-type:alpha" maskUnits="userSpaceOnUse" x="76" y="58" width="4" height="16">
<path fill-rule="evenodd" clip-rule="evenodd" d="M79.25 59.75C79.25 60.4404 78.6904 61 78 61C77.3096 61 76.75 60.4404 76.75 59.75C76.75 59.0596 77.3096 58.5 78 58.5C78.6904 58.5 79.25 59.0596 79.25 59.75ZM79.25 66C79.25 66.6904 78.6904 67.25 78 67.25C77.3096 67.25 76.75 66.6904 76.75 66C76.75 65.3096 77.3096 64.75 78 64.75C78.6904 64.75 79.25 65.3096 79.25 66ZM78 73.5C78.6904 73.5 79.25 72.9404 79.25 72.25C79.25 71.5596 78.6904 71 78 71C77.3096 71 76.75 71.5596 76.75 72.25C76.75 72.9404 77.3096 73.5 78 73.5Z" fill="white"/>
</mask>
<g mask="url(#mask1_0_980)">
<rect width="50" height="50" transform="translate(68 56)" fill="#171717"/>
</g>
<path fill-rule="evenodd" clip-rule="evenodd" d="M198.625 109.375V104.375H197.375V109.375H192.375V110.625H197.375V115.625H198.625V110.625H203.625V109.375H198.625V109.375Z" fill="black"/>
<mask id="mask2_0_980" style="mask-type:alpha" maskUnits="userSpaceOnUse" x="192" y="104" width="12" height="12">
<path fill-rule="evenodd" clip-rule="evenodd" d="M198.625 109.375V104.375H197.375V109.375H192.375V110.625H197.375V115.625H198.625V110.625H203.625V109.375H198.625V109.375Z" fill="white"/>
</mask>
<g mask="url(#mask2_0_980)">
</g>
<path fill-rule="evenodd" clip-rule="evenodd" d="M239.25 103.75L238.369 104.631L243.106 109.375H229.875V110.625H243.106L238.369 115.369L239.25 116.25L245.5 110L239.25 103.75V103.75Z" fill="black"/>
<mask id="mask3_0_980" style="mask-type:alpha" maskUnits="userSpaceOnUse" x="229" y="103" width="17" height="14">
<path fill-rule="evenodd" clip-rule="evenodd" d="M239.25 103.75L238.369 104.631L243.106 109.375H229.875V110.625H243.106L238.369 115.369L239.25 116.25L245.5 110L239.25 103.75V103.75Z" fill="white"/>
</mask>
<g mask="url(#mask3_0_980)">
</g>
<path fill-rule="evenodd" clip-rule="evenodd" d="M191.75 67.25H190.5V59.75C190.5 59.0596 191.06 58.5 191.75 58.5H199.25V59.75H191.75V67.25ZM205.5 63.5V73.5H195.5V63.5H205.5V63.5ZM205.5 62.25H195.5C194.81 62.25 194.25 62.8096 194.25 63.5V73.5C194.25 74.1904 194.81 74.75 195.5 74.75H205.5C206.19 74.75 206.75 74.1904 206.75 73.5V63.5C206.75 62.8096 206.19 62.25 205.5 62.25Z" fill="black"/>
<mask id="mask4_0_980" style="mask-type:alpha" maskUnits="userSpaceOnUse" x="190" y="58" width="17" height="17">
<path fill-rule="evenodd" clip-rule="evenodd" d="M191.75 67.25H190.5V59.75C190.5 59.0596 191.06 58.5 191.75 58.5H199.25V59.75H191.75V67.25ZM205.5 63.5V73.5H195.5V63.5H205.5V63.5ZM205.5 62.25H195.5C194.81 62.25 194.25 62.8096 194.25 63.5V73.5C194.25 74.1904 194.81 74.75 195.5 74.75H205.5C206.19 74.75 206.75 74.1904 206.75 73.5V63.5C206.75 62.8096 206.19 62.25 205.5 62.25Z" fill="white"/>
</mask>
<g mask="url(#mask4_0_980)">
</g>
<path fill-rule="evenodd" clip-rule="evenodd" d="M123.884 103.857C124.371 104.346 124.371 105.137 123.884 105.625L114.509 115H110.5V110.991L119.875 101.616C120.364 101.129 121.154 101.129 121.643 101.616L123.884 103.857ZM126.125 116.875H109.875V118.125H126.125V116.875ZM120.758 102.499L123 104.741L121.125 106.616L118.883 104.375L120.758 102.499ZM111.75 111.509V113.75H113.991L120.241 107.5L118 105.258L111.75 111.509Z" fill="black"/>
<mask id="mask5_0_980" style="mask-type:alpha" maskUnits="userSpaceOnUse" x="109" y="101" width="18" height="18">
<path fill-rule="evenodd" clip-rule="evenodd" d="M123.884 103.857C124.371 104.346 124.371 105.137 123.884 105.625L114.509 115H110.5V110.991L119.875 101.616C120.364 101.129 121.154 101.129 121.643 101.616L123.884 103.857ZM126.125 116.875H109.875V118.125H126.125V116.875ZM120.758 102.499L123 104.741L121.125 106.616L118.883 104.375L120.758 102.499ZM111.75 111.509V113.75H113.991L120.241 107.5L118 105.258L111.75 111.509Z" fill="white"/>
</mask>
<g mask="url(#mask5_0_980)">
</g>
<path fill-rule="evenodd" clip-rule="evenodd" d="M118 57.25C113.168 57.25 109.25 61.1675 109.25 66C109.25 70.8325 113.168 74.75 118 74.75C122.832 74.75 126.75 70.8325 126.75 66C126.75 63.6794 125.828 61.4538 124.187 59.8128C122.546 58.1719 120.321 57.25 118 57.25ZM118.645 61H117.395V67.875H118.645V61ZM117.083 70.6875C117.083 70.1697 117.503 69.75 118.02 69.75C118.538 69.75 118.958 70.1697 118.958 70.6875C118.958 71.2053 118.538 71.625 118.02 71.625C117.503 71.625 117.083 71.2053 117.083 70.6875ZM110.5 66C110.5 70.1421 113.858 73.5 118 73.5C122.142 73.5 125.5 70.1421 125.5 66C125.5 61.8579 122.142 58.5 118 58.5C113.858 58.5 110.5 61.8579 110.5 66Z" fill="black"/>
<path d="M75.5 106.25H72.2375C73.0458 105.008 74.234 104.06 75.6249 103.548C77.0158 103.036 78.5349 102.987 79.9558 103.409C81.3767 103.83 82.6233 104.7 83.5097 105.888C84.3962 107.075 84.8751 108.518 84.875 110H86.125C86.1267 108.328 85.6128 106.697 84.6534 105.328C83.694 103.959 82.3357 102.92 80.7639 102.351C79.192 101.783 77.483 101.713 75.8699 102.151C74.2568 102.589 72.8181 103.514 71.75 104.8V102.5H70.5V107.5H75.5V106.25Z" fill="black"/>
<path d="M80.5 113.75H83.7625C82.9542 114.992 81.766 115.94 80.3751 116.452C78.9842 116.964 77.4651 117.013 76.0442 116.591C74.6233 116.17 73.3767 115.3 72.4903 114.112C71.6038 112.925 71.1249 111.482 71.125 110H69.875C69.8733 111.672 70.3872 113.303 71.3466 114.672C72.306 116.041 73.6643 117.08 75.2361 117.649C76.808 118.217 78.517 118.287 80.1301 117.849C81.7432 117.411 83.1819 116.486 84.25 115.2V117.5H85.5V112.5H80.5V113.75Z" fill="black"/>
<path d="M163 109.375H153V110.625H163V109.375Z" fill="black"/>
<path d="M156.75 63.5H155.5V71H156.75V63.5Z" fill="black"/>
<path d="M160.5 63.5H159.25V71H160.5V63.5Z" fill="black"/>
<path d="M150.5 59.75V61H151.75V73.5C151.75 73.8315 151.882 74.1495 152.116 74.3839C152.351 74.6183 152.668 74.75 153 74.75H163C163.332 74.75 163.649 74.6183 163.884 74.3839C164.118 74.1495 164.25 73.8315 164.25 73.5V61H165.5V59.75H150.5ZM153 73.5V61H163V73.5H153Z" fill="black"/>
<path d="M160.5 57.25H155.5V58.5H160.5V57.25Z" fill="black"/>
</svg>
