<?xml version="1.0" encoding="UTF-8"?>
<svg width="320px" height="180px" viewBox="0 0 320 180" version="1.1" xmlns="http://www.w3.org/2000/svg" xmlns:xlink="http://www.w3.org/1999/xlink">
    <title>data-table</title>
    <g id="data-table" stroke="none" stroke-width="1" fill="none" fill-rule="evenodd">
        <rect id="Rectangle-25-Copy-23" fill="#F3F3F3" x="54" y="36" width="212" height="34"></rect>
        <rect id="Rectangle-25-Copy-24" fill="#E0E0E0" x="54" y="69.7817259" width="212" height="18"></rect>
        <rect id="Rectangle-25-Copy-25" fill="#F3F3F3" x="54" y="87.7817259" width="212" height="56"></rect>
        <rect id="Rectangle-Copy-146" fill="#8D8D8D" x="62" y="76.7817259" width="48" height="4"></rect>
        <rect id="Rectangle-Copy-182" fill="#A8A8A8" x="62" y="44.7817259" width="53" height="6"></rect>
        <rect id="Rectangle-Copy-147" fill="#A8A8A8" opacity="0.748019264" x="62" y="95.7817259" width="48" height="4"></rect>
        <rect id="Rectangle-Copy-149" fill="#A8A8A8" opacity="0.748019264" x="62" y="113.781726" width="48" height="4"></rect>
        <rect id="Rectangle-Copy-183" fill="#8D8D8D" x="135" y="76.7817259" width="49" height="4"></rect>
        <rect id="Rectangle-Copy-184" fill="#A8A8A8" opacity="0.748019264" x="135" y="96" width="49" height="4"></rect>
        <rect id="Rectangle-Copy-185" fill="#A8A8A8" opacity="0.748019264" x="135" y="113" width="48" height="4"></rect>
        <rect id="Rectangle-Copy-186" fill="#A8A8A8" opacity="0.748019264" x="62" y="132.781726" width="48" height="4"></rect>
        <rect id="Rectangle-Copy-187" fill="#A8A8A8" opacity="0.748019264" x="135" y="132.781726" width="49" height="4"></rect>
        <rect id="Rectangle-Copy-188" fill="#8D8D8D" x="209" y="76.7817259" width="49" height="4"></rect>
        <rect id="Rectangle-Copy-189" fill="#A8A8A8" opacity="0.748019264" x="209" y="95.7817259" width="49" height="4"></rect>
        <rect id="Rectangle-Copy-190" fill="#A8A8A8" opacity="0.748019264" x="209" y="113.781726" width="49" height="4"></rect>
        <rect id="Rectangle-Copy-191" fill="#A8A8A8" opacity="0.748019264" x="209" y="132.781726" width="49" height="4"></rect>
        <g id="Actions-/-Operations-/-filter-/-20-Copy-7" transform="translate(229.000000, 55.781726)" fill="#000000">
            <path d="M5.0625,7.875 L3.9375,7.875 C3.62683983,7.875 3.375,7.62316017 3.375,7.3125 L3.375,5.1778125 L1.2909375,3.09375 C1.18530343,2.98874523 1.12562797,2.84613099 1.125,2.6971875 L1.125,1.6875 C1.125,1.37683983 1.37683983,1.125 1.6875,1.125 L7.3125,1.125 C7.62316017,1.125 7.875,1.37683983 7.875,1.6875 L7.875,2.6971875 C7.87437203,2.84613099 7.81469657,2.98874523 7.7090625,3.09375 L5.625,5.1778125 L5.625,7.3125 C5.625,7.62316017 5.37316017,7.875 5.0625,7.875 Z M1.6875,1.6875 L1.6875,2.6971875 L3.9375,4.9471875 L3.9375,7.3125 L5.0625,7.3125 L5.0625,4.9471875 L7.3125,2.6971875 L7.3125,1.6875 L1.6875,1.6875 Z" id="Fill"></path>
        </g>
        <g id="Actions-/-Controls-/-settings-/-16-Copy-7" transform="translate(247.000000, 55.781726)" fill="#000000">
            <path d="M7.59375,4.725 L7.59375,4.275 L8.15625,3.825 C8.38125,3.65625 8.38125,3.31875 8.26875,3.09375 L7.59375,1.96875 C7.48125,1.8 7.3125,1.6875 7.0875,1.6875 C7.03125,1.6875 6.975,1.6875 6.91875,1.74375 L6.24375,1.96875 C6.13125,1.9125 6.01875,1.8 5.85,1.74375 L5.68125,1.0125 C5.68125,0.73125 5.45625,0.5625 5.175,0.5625 L3.825,0.5625 C3.54375,0.5625 3.31875,0.73125 3.2625,1.0125 L3.15,1.74375 C2.98125,1.8 2.86875,1.85625 2.75625,1.9125 L2.08125,1.6875 L1.9125,1.6875 C1.6875,1.6875 1.51875,1.8 1.40625,1.96875 L0.73125,3.09375 C0.61875,3.31875 0.675,3.6 0.9,3.825 L1.40625,4.33125 L1.40625,4.78125 L0.9,5.175 C0.675,5.34375 0.61875,5.68125 0.7875,5.90625 L1.4625,7.03125 C1.51875,7.2 1.6875,7.3125 1.9125,7.3125 C1.96875,7.3125 2.025,7.3125 2.08125,7.25625 L2.75625,7.03125 C2.86875,7.0875 2.98125,7.2 3.15,7.25625 L3.31875,7.9875 C3.375,8.26875 3.6,8.4375 3.88125,8.4375 L5.23125,8.4375 C5.5125,8.4375 5.7375,8.26875 5.79375,7.9875 L5.9625,7.25625 C6.075,7.2 6.1875,7.14375 6.35625,7.03125 L7.03125,7.25625 C7.0875,7.25625 7.14375,7.3125 7.2,7.3125 C7.425,7.3125 7.59375,7.2 7.70625,7.03125 L8.325,5.90625 C8.4375,5.68125 8.4375,5.4 8.2125,5.175 L7.59375,4.725 L7.59375,4.725 Z M7.0875,6.75 L6.13125,6.4125 C5.90625,6.58125 5.625,6.75 5.34375,6.8625 L5.175,7.875 L3.825,7.875 L3.6,6.8625 C3.31875,6.75 3.09375,6.58125 2.8125,6.4125 L1.9125,6.75 L1.2375,5.625 L2.025,4.95 C1.96875,4.66875 1.96875,4.33125 2.025,4.05 L1.2375,3.375 L1.9125,2.25 L2.86875,2.5875 C3.09375,2.3625 3.375,2.25 3.65625,2.1375 L3.825,1.125 L5.175,1.125 L5.4,2.1375 C5.68125,2.25 5.90625,2.41875 6.1875,2.5875 L7.0875,2.25 L7.7625,3.375 L6.975,4.05 C7.03125,4.33125 7.03125,4.66875 6.975,4.95 L7.7625,5.625 L7.0875,6.75 Z M4.5,6.1875 C3.54375,6.1875 2.8125,5.45625 2.8125,4.5 C2.8125,3.54375 3.54375,2.8125 4.5,2.8125 C5.45625,2.8125 6.1875,3.54375 6.1875,4.5 C6.1875,5.4 5.45625,6.1875 4.5,6.1875 Z M4.5,3.375 C3.88125,3.375 3.375,3.825 3.375,4.44375 L3.375,4.5 C3.375,5.11875 3.825,5.625 4.44375,5.625 L4.5,5.625 C5.11875,5.625 5.625,5.175 5.625,4.55625 L5.625,4.5 C5.625,3.88125 5.175,3.375 4.5,3.375 C4.55625,3.375 4.5,3.375 4.5,3.375 Z" id="Fill"></path>
        </g>
        <g id="Actions-/-Operations-/-search-/-16-Copy-7" transform="translate(211.000000, 55.781726)" fill="#000000">
            <path d="M8.4375,8.04375 L6.01875,5.625 C7.0875,4.33125 6.91875,2.3625 5.625,1.29375 C4.33125,0.225 2.3625,0.39375 1.29375,1.6875 C0.225,2.98125 0.39375,4.95 1.6875,6.01875 C2.8125,6.975 4.5,6.975 5.625,6.01875 L8.04375,8.4375 L8.4375,8.04375 Z M1.125,3.65625 C1.125,2.25 2.25,1.125 3.65625,1.125 C5.0625,1.125 6.1875,2.25 6.1875,3.65625 C6.1875,5.0625 5.0625,6.1875 3.65625,6.1875 C2.25,6.1875 1.125,5.0625 1.125,3.65625 Z" id="Fill"></path>
        </g>
        <rect id="Rectangle-Copy-55" fill="#C6C6C6" x="54" y="105.781726" width="212" height="1"></rect>
        <rect id="Rectangle-Copy-63" fill="#C6C6C6" x="54" y="123.781726" width="212" height="1"></rect>
    </g>
</svg>