<svg width="640" height="360" viewBox="0 0 640 360" fill="none" xmlns="http://www.w3.org/2000/svg">
<g id="link">
<path id="Path" d="M273.872 175.024V190H271.856V175.024H266.528V173.248H279.2V175.024H273.872Z" fill="#0062FF"/>
<path id="Shape" fill-rule="evenodd" clip-rule="evenodd" d="M284.132 189.832C284.812 190.136 285.576 190.288 286.424 190.288C287.592 190.288 288.6 190.028 289.448 189.508C290.296 188.988 290.92 188.304 291.32 187.456L289.952 186.472C289.632 187.16 289.18 187.688 288.596 188.056C288.012 188.424 287.328 188.608 286.544 188.608C285.968 188.608 285.452 188.512 284.996 188.32C284.54 188.128 284.156 187.864 283.844 187.528C283.532 187.192 283.292 186.796 283.124 186.34C282.956 185.884 282.872 185.392 282.872 184.864V184.288H291.776V183.376C291.776 182.496 291.652 181.688 291.404 180.952C291.156 180.216 290.8 179.58 290.336 179.044C289.872 178.508 289.312 178.088 288.656 177.784C288 177.48 287.256 177.328 286.424 177.328C285.576 177.328 284.812 177.48 284.132 177.784C283.452 178.088 282.868 178.524 282.38 179.092C281.892 179.66 281.516 180.344 281.252 181.144C280.988 181.944 280.856 182.832 280.856 183.808C280.856 184.8 280.988 185.692 281.252 186.484C281.516 187.276 281.892 187.956 282.38 188.524C282.868 189.092 283.452 189.528 284.132 189.832ZM284.984 179.212C285.416 179.028 285.896 178.936 286.424 178.936C287.416 178.936 288.212 179.268 288.812 179.932C289.412 180.596 289.712 181.48 289.712 182.584V182.848H282.872V182.68C282.872 182.136 282.96 181.636 283.136 181.18C283.312 180.724 283.556 180.328 283.868 179.992C284.18 179.656 284.552 179.396 284.984 179.212Z" fill="#0062FF"/>
<path id="Path_2" d="M293.408 190L297.992 183.76L293.6 177.616H295.856L299 182.224H299.072L302.336 177.616H304.472L300.104 183.616L304.568 190H302.312L299.096 185.152H299.024L295.544 190H293.408Z" fill="#0062FF"/>
<path id="Path_3" d="M309.848 190C309.176 190 308.668 189.812 308.324 189.436C307.98 189.06 307.808 188.568 307.808 187.96V179.296H305.768V177.616H306.92C307.336 177.616 307.62 177.532 307.772 177.364C307.924 177.196 308 176.904 308 176.488V174.184H309.728V177.616H312.44V179.296H309.728V188.32H312.248V190H309.848Z" fill="#0062FF"/>
<path id="Path_4" d="M323.24 190C322.568 190 322.06 189.812 321.716 189.436C321.372 189.06 321.2 188.584 321.2 188.008V172.24H323.12V188.32H324.944V190H323.24Z" fill="#0062FF"/>
<path id="Shape_2" fill-rule="evenodd" clip-rule="evenodd" d="M327.788 174.412C327.972 174.612 328.272 174.712 328.688 174.712C329.104 174.712 329.404 174.612 329.588 174.412C329.772 174.212 329.864 173.952 329.864 173.632V173.32C329.864 173 329.772 172.74 329.588 172.54C329.404 172.34 329.104 172.24 328.688 172.24C328.272 172.24 327.972 172.34 327.788 172.54C327.604 172.74 327.512 173 327.512 173.32V173.632C327.512 173.952 327.604 174.212 327.788 174.412ZM329.648 190V177.616H327.728V190H329.648Z" fill="#0062FF"/>
<path id="Path_5" d="M333.729 190V177.616H335.649V179.632H335.745C336.049 178.928 336.477 178.368 337.029 177.952C337.581 177.536 338.321 177.328 339.249 177.328C340.529 177.328 341.541 177.74 342.285 178.564C343.029 179.388 343.401 180.552 343.401 182.056V190H341.481V182.392C341.481 180.168 340.545 179.056 338.673 179.056C338.289 179.056 337.917 179.104 337.557 179.2C337.197 179.296 336.873 179.44 336.585 179.632C336.297 179.824 336.069 180.068 335.901 180.364C335.733 180.66 335.649 181.008 335.649 181.408V190H333.729Z" fill="#0062FF"/>
<path id="Path_6" d="M347.36 172.24H349.28V183.496H349.376L351.272 181.384L354.776 177.616H357.104L352.52 182.512L357.56 190H355.232L351.128 183.688L349.28 185.584V190H347.36V172.24Z" fill="#0062FF"/>
<path id="Path 3" d="M268 201H360" stroke="#0062FF"/>
</g>
</svg>
