<svg width="640" height="360" viewBox="0 0 640 360" fill="none" xmlns="http://www.w3.org/2000/svg">
<g id="list">
<g id="&#226;&#128;&#147; Item 1 &#226;&#128;&#162; Item 1a &#226;&#128;&#162;">
<path id="Path" d="M240.863 101.616V99.7921H253.247V101.616H240.863Z" fill="#161616"/>
<path id="Path_2" d="M267.701 108V106.32H270.053V92.928H267.701V91.248H274.421V92.928H272.069V106.32H274.421V108H267.701Z" fill="#161616"/>
<path id="Path_3" d="M280.912 108C280.24 108 279.732 107.812 279.388 107.436C279.044 107.06 278.872 106.568 278.872 105.96V97.2956H276.832V95.6156H277.984C278.4 95.6156 278.684 95.5316 278.836 95.3636C278.988 95.1956 279.064 94.9036 279.064 94.4876V92.1836H280.792V95.6156H283.504V97.2956H280.792V106.32H283.312V108H280.912Z" fill="#161616"/>
<path id="Shape" fill-rule="evenodd" clip-rule="evenodd" d="M289.143 107.832C289.823 108.136 290.587 108.288 291.435 108.288C292.603 108.288 293.611 108.028 294.459 107.508C295.307 106.988 295.931 106.304 296.331 105.456L294.963 104.472C294.643 105.16 294.191 105.688 293.607 106.056C293.023 106.424 292.339 106.608 291.555 106.608C290.979 106.608 290.463 106.512 290.007 106.32C289.551 106.128 289.167 105.864 288.855 105.528C288.543 105.192 288.303 104.796 288.135 104.34C287.967 103.884 287.883 103.392 287.883 102.864V102.288H296.787V101.376C296.787 100.496 296.663 99.6881 296.415 98.9521C296.167 98.2161 295.811 97.5801 295.347 97.0441C294.883 96.5081 294.323 96.0881 293.667 95.7841C293.011 95.4801 292.267 95.3281 291.435 95.3281C290.587 95.3281 289.823 95.4801 289.143 95.7841C288.463 96.0881 287.879 96.5241 287.391 97.0921C286.903 97.6601 286.527 98.3441 286.263 99.1441C285.999 99.9441 285.867 100.832 285.867 101.808C285.867 102.8 285.999 103.692 286.263 104.484C286.527 105.276 286.903 105.956 287.391 106.524C287.879 107.092 288.463 107.528 289.143 107.832ZM289.995 97.2121C290.427 97.0281 290.907 96.9361 291.435 96.9361C292.427 96.9361 293.223 97.2681 293.823 97.9321C294.423 98.5961 294.723 99.4801 294.723 100.584V100.848H287.883V100.68C287.883 100.136 287.971 99.6361 288.147 99.1801C288.323 98.7241 288.567 98.3281 288.879 97.9921C289.191 97.6561 289.563 97.3961 289.995 97.2121Z" fill="#161616"/>
<path id="Path_4" d="M300.229 108V95.6161H302.149V97.6321H302.245C302.389 97.3121 302.553 97.0121 302.737 96.7321C302.921 96.4521 303.145 96.2081 303.409 96.0001C303.673 95.7921 303.981 95.6281 304.333 95.5081C304.685 95.3881 305.101 95.3281 305.581 95.3281C306.397 95.3281 307.149 95.5241 307.837 95.9161C308.525 96.3081 309.037 96.9521 309.373 97.8481H309.421C309.645 97.1761 310.065 96.5881 310.681 96.0841C311.297 95.5801 312.133 95.3281 313.189 95.3281C314.453 95.3281 315.441 95.7401 316.153 96.5641C316.865 97.3881 317.221 98.5521 317.221 100.056V108H315.301V100.392C315.301 99.2881 315.085 98.4561 314.653 97.8961C314.221 97.3361 313.533 97.0561 312.589 97.0561C312.205 97.0561 311.841 97.1041 311.497 97.2001C311.153 97.2961 310.845 97.4401 310.573 97.6321C310.301 97.8241 310.085 98.0681 309.925 98.3641C309.765 98.6601 309.685 99.0081 309.685 99.4081V108H307.765V100.392C307.765 99.2881 307.549 98.4561 307.117 97.8961C306.685 97.3361 306.013 97.0561 305.101 97.0561C304.717 97.0561 304.349 97.1041 303.997 97.2001C303.645 97.2961 303.333 97.4401 303.061 97.6321C302.789 97.8241 302.569 98.0681 302.401 98.3641C302.233 98.6601 302.149 99.0081 302.149 99.4081V108H300.229Z" fill="#161616"/>
<path id="Path_5" d="M327.466 108V106.224H332.146V92.736H331.978L327.754 96.672L326.578 95.4L331.018 91.248H334.162V106.224H338.482V108H327.466Z" fill="#161616"/>
<path id="Path_6" d="M300.752 135.536C299.68 135.536 298.924 135.296 298.484 134.816C298.044 134.336 297.824 133.744 297.824 133.04V132.368C297.824 131.664 298.044 131.072 298.484 130.592C298.924 130.112 299.68 129.872 300.752 129.872C301.824 129.872 302.58 130.112 303.02 130.592C303.46 131.072 303.68 131.664 303.68 132.368V133.04C303.68 133.744 303.46 134.336 303.02 134.816C302.58 135.296 301.824 135.536 300.752 135.536Z" fill="#161616"/>
<path id="Path_7" d="M313.156 140V138.32H315.508V124.928H313.156V123.248H319.876V124.928H317.524V138.32H319.876V140H313.156Z" fill="#161616"/>
<path id="Path_8" d="M326.367 140C325.695 140 325.187 139.812 324.843 139.436C324.499 139.06 324.327 138.568 324.327 137.96V129.296H322.287V127.616H323.439C323.855 127.616 324.139 127.532 324.291 127.364C324.443 127.196 324.519 126.904 324.519 126.488V124.184H326.247V127.616H328.959V129.296H326.247V138.32H328.767V140H326.367Z" fill="#161616"/>
<path id="Shape_2" fill-rule="evenodd" clip-rule="evenodd" d="M334.596 139.832C335.276 140.136 336.04 140.288 336.888 140.288C338.056 140.288 339.064 140.028 339.912 139.508C340.76 138.988 341.384 138.304 341.784 137.456L340.416 136.472C340.096 137.16 339.644 137.688 339.06 138.056C338.476 138.424 337.792 138.608 337.008 138.608C336.432 138.608 335.916 138.512 335.46 138.32C335.004 138.128 334.62 137.864 334.308 137.528C333.996 137.192 333.756 136.796 333.588 136.34C333.42 135.884 333.336 135.392 333.336 134.864V134.288H342.24V133.376C342.24 132.496 342.116 131.688 341.868 130.952C341.62 130.216 341.264 129.58 340.8 129.044C340.336 128.508 339.776 128.088 339.12 127.784C338.464 127.48 337.72 127.328 336.888 127.328C336.04 127.328 335.276 127.48 334.596 127.784C333.916 128.088 333.332 128.524 332.844 129.092C332.356 129.66 331.98 130.344 331.716 131.144C331.452 131.944 331.32 132.832 331.32 133.808C331.32 134.8 331.452 135.692 331.716 136.484C331.98 137.276 332.356 137.956 332.844 138.524C333.332 139.092 333.916 139.528 334.596 139.832ZM335.448 129.212C335.88 129.028 336.36 128.936 336.888 128.936C337.88 128.936 338.676 129.268 339.276 129.932C339.876 130.596 340.176 131.48 340.176 132.584V132.848H333.336V132.68C333.336 132.136 333.424 131.636 333.6 131.18C333.776 130.724 334.02 130.328 334.332 129.992C334.644 129.656 335.016 129.396 335.448 129.212Z" fill="#161616"/>
<path id="Path_9" d="M345.684 140V127.616H347.604V129.632H347.7C347.844 129.312 348.008 129.012 348.192 128.732C348.376 128.452 348.6 128.208 348.864 128C349.128 127.792 349.436 127.628 349.788 127.508C350.14 127.388 350.556 127.328 351.036 127.328C351.852 127.328 352.604 127.524 353.292 127.916C353.98 128.308 354.492 128.952 354.828 129.848H354.876C355.1 129.176 355.52 128.588 356.136 128.084C356.752 127.58 357.588 127.328 358.644 127.328C359.908 127.328 360.896 127.74 361.608 128.564C362.32 129.388 362.676 130.552 362.676 132.056V140H360.756V132.392C360.756 131.288 360.54 130.456 360.108 129.896C359.676 129.336 358.988 129.056 358.044 129.056C357.66 129.056 357.296 129.104 356.952 129.2C356.608 129.296 356.3 129.44 356.028 129.632C355.756 129.824 355.54 130.068 355.38 130.364C355.22 130.66 355.14 131.008 355.14 131.408V140H353.22V132.392C353.22 131.288 353.004 130.456 352.572 129.896C352.14 129.336 351.468 129.056 350.556 129.056C350.172 129.056 349.804 129.104 349.452 129.2C349.1 129.296 348.788 129.44 348.516 129.632C348.244 129.824 348.024 130.068 347.856 130.364C347.688 130.66 347.604 131.008 347.604 131.408V140H345.684Z" fill="#161616"/>
<path id="Path_10" d="M372.919 140V138.224H377.599V124.736H377.431L373.207 128.672L372.031 127.4L376.471 123.248H379.615V138.224H383.935V140H372.919Z" fill="#161616"/>
<path id="Shape_3" fill-rule="evenodd" clip-rule="evenodd" d="M394.973 139.424C395.285 139.808 395.801 140 396.521 140H397.601V138.32H396.185V131.504C396.185 130.192 395.769 129.168 394.937 128.432C394.105 127.696 392.937 127.328 391.433 127.328C390.313 127.328 389.385 127.564 388.649 128.036C387.913 128.508 387.377 129.08 387.041 129.752L388.193 130.832C388.529 130.272 388.949 129.824 389.453 129.488C389.957 129.152 390.585 128.984 391.337 128.984C392.329 128.984 393.065 129.216 393.545 129.68C394.025 130.144 394.265 130.816 394.265 131.696V132.92H391.817C390.009 132.92 388.677 133.232 387.821 133.856C386.965 134.48 386.537 135.376 386.537 136.544C386.537 137.696 386.901 138.608 387.629 139.28C388.357 139.952 389.377 140.288 390.689 140.288C391.553 140.288 392.297 140.096 392.921 139.712C393.545 139.328 393.993 138.752 394.265 137.984H394.385C394.465 138.56 394.661 139.04 394.973 139.424ZM392.321 138.488C391.921 138.6 391.481 138.656 391.001 138.656C390.249 138.656 389.653 138.488 389.213 138.152C388.773 137.816 388.553 137.344 388.553 136.736V136.232C388.553 135.624 388.805 135.16 389.309 134.84C389.813 134.52 390.617 134.36 391.721 134.36H394.265V136.4C394.265 136.72 394.185 137.016 394.025 137.288C393.865 137.56 393.641 137.8 393.353 138.008C393.065 138.216 392.721 138.376 392.321 138.488Z" fill="#161616"/>
<path id="Path_11" d="M300.752 167.536C299.68 167.536 298.924 167.296 298.484 166.816C298.044 166.336 297.824 165.744 297.824 165.04V164.368C297.824 163.664 298.044 163.072 298.484 162.592C298.924 162.112 299.68 161.872 300.752 161.872C301.824 161.872 302.58 162.112 303.02 162.592C303.46 163.072 303.68 163.664 303.68 164.368V165.04C303.68 165.744 303.46 166.336 303.02 166.816C302.58 167.296 301.824 167.536 300.752 167.536Z" fill="#161616"/>
<path id="Path_12" d="M313.156 172V170.32H315.508V156.928H313.156V155.248H319.876V156.928H317.524V170.32H319.876V172H313.156Z" fill="#161616"/>
<path id="Path_13" d="M326.367 172C325.695 172 325.187 171.812 324.843 171.436C324.499 171.06 324.327 170.568 324.327 169.96V161.296H322.287V159.616H323.439C323.855 159.616 324.139 159.532 324.291 159.364C324.443 159.196 324.519 158.904 324.519 158.488V156.184H326.247V159.616H328.959V161.296H326.247V170.32H328.767V172H326.367Z" fill="#161616"/>
<path id="Shape_4" fill-rule="evenodd" clip-rule="evenodd" d="M334.596 171.832C335.276 172.136 336.04 172.288 336.888 172.288C338.056 172.288 339.064 172.028 339.912 171.508C340.76 170.988 341.384 170.304 341.784 169.456L340.416 168.472C340.096 169.16 339.644 169.688 339.06 170.056C338.476 170.424 337.792 170.608 337.008 170.608C336.432 170.608 335.916 170.512 335.46 170.32C335.004 170.128 334.62 169.864 334.308 169.528C333.996 169.192 333.756 168.796 333.588 168.34C333.42 167.884 333.336 167.392 333.336 166.864V166.288H342.24V165.376C342.24 164.496 342.116 163.688 341.868 162.952C341.62 162.216 341.264 161.58 340.8 161.044C340.336 160.508 339.776 160.088 339.12 159.784C338.464 159.48 337.72 159.328 336.888 159.328C336.04 159.328 335.276 159.48 334.596 159.784C333.916 160.088 333.332 160.524 332.844 161.092C332.356 161.66 331.98 162.344 331.716 163.144C331.452 163.944 331.32 164.832 331.32 165.808C331.32 166.8 331.452 167.692 331.716 168.484C331.98 169.276 332.356 169.956 332.844 170.524C333.332 171.092 333.916 171.528 334.596 171.832ZM335.448 161.212C335.88 161.028 336.36 160.936 336.888 160.936C337.88 160.936 338.676 161.268 339.276 161.932C339.876 162.596 340.176 163.48 340.176 164.584V164.848H333.336V164.68C333.336 164.136 333.424 163.636 333.6 163.18C333.776 162.724 334.02 162.328 334.332 161.992C334.644 161.656 335.016 161.396 335.448 161.212Z" fill="#161616"/>
<path id="Path_14" d="M345.684 172V159.616H347.604V161.632H347.7C347.844 161.312 348.008 161.012 348.192 160.732C348.376 160.452 348.6 160.208 348.864 160C349.128 159.792 349.436 159.628 349.788 159.508C350.14 159.388 350.556 159.328 351.036 159.328C351.852 159.328 352.604 159.524 353.292 159.916C353.98 160.308 354.492 160.952 354.828 161.848H354.876C355.1 161.176 355.52 160.588 356.136 160.084C356.752 159.58 357.588 159.328 358.644 159.328C359.908 159.328 360.896 159.74 361.608 160.564C362.32 161.388 362.676 162.552 362.676 164.056V172H360.756V164.392C360.756 163.288 360.54 162.456 360.108 161.896C359.676 161.336 358.988 161.056 358.044 161.056C357.66 161.056 357.296 161.104 356.952 161.2C356.608 161.296 356.3 161.44 356.028 161.632C355.756 161.824 355.54 162.068 355.38 162.364C355.22 162.66 355.14 163.008 355.14 163.408V172H353.22V164.392C353.22 163.288 353.004 162.456 352.572 161.896C352.14 161.336 351.468 161.056 350.556 161.056C350.172 161.056 349.804 161.104 349.452 161.2C349.1 161.296 348.788 161.44 348.516 161.632C348.244 161.824 348.024 162.068 347.856 162.364C347.688 162.66 347.604 163.008 347.604 163.408V172H345.684Z" fill="#161616"/>
<path id="Path_15" d="M372.919 172V170.224H377.599V156.736H377.431L373.207 160.672L372.031 159.4L376.471 155.248H379.615V170.224H383.935V172H372.919Z" fill="#161616"/>
<path id="Shape_5" fill-rule="evenodd" clip-rule="evenodd" d="M389.441 154.24H387.521V172H389.441V169.984H389.537C390.273 171.52 391.481 172.288 393.161 172.288C393.929 172.288 394.625 172.136 395.249 171.832C395.873 171.528 396.405 171.096 396.845 170.536C397.285 169.976 397.621 169.296 397.853 168.496C398.085 167.696 398.201 166.8 398.201 165.808C398.201 164.816 398.085 163.92 397.853 163.12C397.621 162.32 397.285 161.64 396.845 161.08C396.405 160.52 395.873 160.088 395.249 159.784C394.625 159.48 393.929 159.328 393.161 159.328C392.297 159.328 391.557 159.516 390.941 159.892C390.325 160.268 389.857 160.848 389.537 161.632H389.441V154.24ZM395.201 169.54C394.577 170.22 393.721 170.56 392.633 170.56C392.201 170.56 391.789 170.504 391.397 170.392C391.005 170.28 390.665 170.116 390.377 169.9C390.089 169.684 389.861 169.42 389.693 169.108C389.525 168.796 389.441 168.44 389.441 168.04V163.432C389.441 163.096 389.525 162.78 389.693 162.484C389.861 162.188 390.089 161.936 390.377 161.728C390.665 161.52 391.005 161.356 391.397 161.236C391.789 161.116 392.201 161.056 392.633 161.056C393.721 161.056 394.577 161.396 395.201 162.076C395.825 162.756 396.137 163.648 396.137 164.752V166.864C396.137 167.968 395.825 168.86 395.201 169.54Z" fill="#161616"/>
<path id="Path_16" d="M240.863 197.616V195.792H253.247V197.616H240.863Z" fill="#161616"/>
<path id="Path_17" d="M267.701 204V202.32H270.053V188.928H267.701V187.248H274.421V188.928H272.069V202.32H274.421V204H267.701Z" fill="#161616"/>
<path id="Path_18" d="M280.912 204C280.24 204 279.732 203.812 279.388 203.436C279.044 203.06 278.872 202.568 278.872 201.96V193.296H276.832V191.616H277.984C278.4 191.616 278.684 191.532 278.836 191.364C278.988 191.196 279.064 190.904 279.064 190.488V188.184H280.792V191.616H283.504V193.296H280.792V202.32H283.312V204H280.912Z" fill="#161616"/>
<path id="Shape_6" fill-rule="evenodd" clip-rule="evenodd" d="M289.143 203.832C289.823 204.136 290.587 204.288 291.435 204.288C292.603 204.288 293.611 204.028 294.459 203.508C295.307 202.988 295.931 202.304 296.331 201.456L294.963 200.472C294.643 201.16 294.191 201.688 293.607 202.056C293.023 202.424 292.339 202.608 291.555 202.608C290.979 202.608 290.463 202.512 290.007 202.32C289.551 202.128 289.167 201.864 288.855 201.528C288.543 201.192 288.303 200.796 288.135 200.34C287.967 199.884 287.883 199.392 287.883 198.864V198.288H296.787V197.376C296.787 196.496 296.663 195.688 296.415 194.952C296.167 194.216 295.811 193.58 295.347 193.044C294.883 192.508 294.323 192.088 293.667 191.784C293.011 191.48 292.267 191.328 291.435 191.328C290.587 191.328 289.823 191.48 289.143 191.784C288.463 192.088 287.879 192.524 287.391 193.092C286.903 193.66 286.527 194.344 286.263 195.144C285.999 195.944 285.867 196.832 285.867 197.808C285.867 198.8 285.999 199.692 286.263 200.484C286.527 201.276 286.903 201.956 287.391 202.524C287.879 203.092 288.463 203.528 289.143 203.832ZM289.995 193.212C290.427 193.028 290.907 192.936 291.435 192.936C292.427 192.936 293.223 193.268 293.823 193.932C294.423 194.596 294.723 195.48 294.723 196.584V196.848H287.883V196.68C287.883 196.136 287.971 195.636 288.147 195.18C288.323 194.724 288.567 194.328 288.879 193.992C289.191 193.656 289.563 193.396 289.995 193.212Z" fill="#161616"/>
<path id="Path_19" d="M300.229 204V191.616H302.149V193.632H302.245C302.389 193.312 302.553 193.012 302.737 192.732C302.921 192.452 303.145 192.208 303.409 192C303.673 191.792 303.981 191.628 304.333 191.508C304.685 191.388 305.101 191.328 305.581 191.328C306.397 191.328 307.149 191.524 307.837 191.916C308.525 192.308 309.037 192.952 309.373 193.848H309.421C309.645 193.176 310.065 192.588 310.681 192.084C311.297 191.58 312.133 191.328 313.189 191.328C314.453 191.328 315.441 191.74 316.153 192.564C316.865 193.388 317.221 194.552 317.221 196.056V204H315.301V196.392C315.301 195.288 315.085 194.456 314.653 193.896C314.221 193.336 313.533 193.056 312.589 193.056C312.205 193.056 311.841 193.104 311.497 193.2C311.153 193.296 310.845 193.44 310.573 193.632C310.301 193.824 310.085 194.068 309.925 194.364C309.765 194.66 309.685 195.008 309.685 195.408V204H307.765V196.392C307.765 195.288 307.549 194.456 307.117 193.896C306.685 193.336 306.013 193.056 305.101 193.056C304.717 193.056 304.349 193.104 303.997 193.2C303.645 193.296 303.333 193.44 303.061 193.632C302.789 193.824 302.569 194.068 302.401 194.364C302.233 194.66 302.149 195.008 302.149 195.408V204H300.229Z" fill="#161616"/>
<path id="Path_20" d="M338.146 204H327.154V201.936L332.626 196.896C333.41 196.176 334.066 195.412 334.594 194.604C335.122 193.796 335.386 192.984 335.386 192.168V191.88C335.386 190.952 335.13 190.2 334.618 189.624C334.106 189.048 333.33 188.76 332.29 188.76C331.778 188.76 331.33 188.832 330.946 188.976C330.562 189.12 330.23 189.32 329.95 189.576C329.67 189.832 329.438 190.132 329.254 190.476C329.07 190.82 328.922 191.192 328.81 191.592L327.01 190.896C327.17 190.4 327.39 189.916 327.67 189.444C327.95 188.972 328.302 188.552 328.726 188.184C329.15 187.816 329.662 187.52 330.262 187.296C330.862 187.072 331.57 186.96 332.386 186.96C333.202 186.96 333.93 187.08 334.57 187.32C335.21 187.56 335.746 187.896 336.178 188.328C336.61 188.76 336.942 189.272 337.174 189.864C337.406 190.456 337.522 191.112 337.522 191.832C337.522 192.488 337.43 193.096 337.246 193.656C337.062 194.216 336.81 194.748 336.49 195.252C336.17 195.756 335.782 196.248 335.326 196.728C334.87 197.208 334.378 197.688 333.85 198.168L329.338 202.224H338.146V204Z" fill="#161616"/>
<path id="Path_21" d="M300.752 231.536C299.68 231.536 298.924 231.296 298.484 230.816C298.044 230.336 297.824 229.744 297.824 229.04V228.368C297.824 227.664 298.044 227.072 298.484 226.592C298.924 226.112 299.68 225.872 300.752 225.872C301.824 225.872 302.58 226.112 303.02 226.592C303.46 227.072 303.68 227.664 303.68 228.368V229.04C303.68 229.744 303.46 230.336 303.02 230.816C302.58 231.296 301.824 231.536 300.752 231.536Z" fill="#161616"/>
<path id="Path_22" d="M313.156 236V234.32H315.508V220.928H313.156V219.248H319.876V220.928H317.524V234.32H319.876V236H313.156Z" fill="#161616"/>
<path id="Path_23" d="M326.367 236C325.695 236 325.187 235.812 324.843 235.436C324.499 235.06 324.327 234.568 324.327 233.96V225.296H322.287V223.616H323.439C323.855 223.616 324.139 223.532 324.291 223.364C324.443 223.196 324.519 222.904 324.519 222.488V220.184H326.247V223.616H328.959V225.296H326.247V234.32H328.767V236H326.367Z" fill="#161616"/>
<path id="Shape_7" fill-rule="evenodd" clip-rule="evenodd" d="M334.596 235.832C335.276 236.136 336.04 236.288 336.888 236.288C338.056 236.288 339.064 236.028 339.912 235.508C340.76 234.988 341.384 234.304 341.784 233.456L340.416 232.472C340.096 233.16 339.644 233.688 339.06 234.056C338.476 234.424 337.792 234.608 337.008 234.608C336.432 234.608 335.916 234.512 335.46 234.32C335.004 234.128 334.62 233.864 334.308 233.528C333.996 233.192 333.756 232.796 333.588 232.34C333.42 231.884 333.336 231.392 333.336 230.864V230.288H342.24V229.376C342.24 228.496 342.116 227.688 341.868 226.952C341.62 226.216 341.264 225.58 340.8 225.044C340.336 224.508 339.776 224.088 339.12 223.784C338.464 223.48 337.72 223.328 336.888 223.328C336.04 223.328 335.276 223.48 334.596 223.784C333.916 224.088 333.332 224.524 332.844 225.092C332.356 225.66 331.98 226.344 331.716 227.144C331.452 227.944 331.32 228.832 331.32 229.808C331.32 230.8 331.452 231.692 331.716 232.484C331.98 233.276 332.356 233.956 332.844 234.524C333.332 235.092 333.916 235.528 334.596 235.832ZM335.448 225.212C335.88 225.028 336.36 224.936 336.888 224.936C337.88 224.936 338.676 225.268 339.276 225.932C339.876 226.596 340.176 227.48 340.176 228.584V228.848H333.336V228.68C333.336 228.136 333.424 227.636 333.6 227.18C333.776 226.724 334.02 226.328 334.332 225.992C334.644 225.656 335.016 225.396 335.448 225.212Z" fill="#161616"/>
<path id="Path_24" d="M345.684 236V223.616H347.604V225.632H347.7C347.844 225.312 348.008 225.012 348.192 224.732C348.376 224.452 348.6 224.208 348.864 224C349.128 223.792 349.436 223.628 349.788 223.508C350.14 223.388 350.556 223.328 351.036 223.328C351.852 223.328 352.604 223.524 353.292 223.916C353.98 224.308 354.492 224.952 354.828 225.848H354.876C355.1 225.176 355.52 224.588 356.136 224.084C356.752 223.58 357.588 223.328 358.644 223.328C359.908 223.328 360.896 223.74 361.608 224.564C362.32 225.388 362.676 226.552 362.676 228.056V236H360.756V228.392C360.756 227.288 360.54 226.456 360.108 225.896C359.676 225.336 358.988 225.056 358.044 225.056C357.66 225.056 357.296 225.104 356.952 225.2C356.608 225.296 356.3 225.44 356.028 225.632C355.756 225.824 355.54 226.068 355.38 226.364C355.22 226.66 355.14 227.008 355.14 227.408V236H353.22V228.392C353.22 227.288 353.004 226.456 352.572 225.896C352.14 225.336 351.468 225.056 350.556 225.056C350.172 225.056 349.804 225.104 349.452 225.2C349.1 225.296 348.788 225.44 348.516 225.632C348.244 225.824 348.024 226.068 347.856 226.364C347.688 226.66 347.604 227.008 347.604 227.408V236H345.684Z" fill="#161616"/>
<path id="Path_25" d="M383.599 236H372.607V233.936L378.079 228.896C378.863 228.176 379.519 227.412 380.047 226.604C380.575 225.796 380.839 224.984 380.839 224.168V223.88C380.839 222.952 380.583 222.2 380.071 221.624C379.559 221.048 378.783 220.76 377.743 220.76C377.231 220.76 376.783 220.832 376.399 220.976C376.015 221.12 375.683 221.32 375.403 221.576C375.123 221.832 374.891 222.132 374.707 222.476C374.523 222.82 374.375 223.192 374.263 223.592L372.463 222.896C372.623 222.4 372.843 221.916 373.123 221.444C373.403 220.972 373.755 220.552 374.179 220.184C374.603 219.816 375.115 219.52 375.715 219.296C376.315 219.072 377.023 218.96 377.839 218.96C378.655 218.96 379.383 219.08 380.023 219.32C380.663 219.56 381.199 219.896 381.631 220.328C382.063 220.76 382.395 221.272 382.627 221.864C382.859 222.456 382.975 223.112 382.975 223.832C382.975 224.488 382.883 225.096 382.699 225.656C382.515 226.216 382.263 226.748 381.943 227.252C381.623 227.756 381.235 228.248 380.779 228.728C380.323 229.208 379.831 229.688 379.303 230.168L374.791 234.224H383.599V236Z" fill="#161616"/>
<path id="Shape_8" fill-rule="evenodd" clip-rule="evenodd" d="M394.973 235.424C395.285 235.808 395.801 236 396.521 236H397.601V234.32H396.185V227.504C396.185 226.192 395.769 225.168 394.937 224.432C394.105 223.696 392.937 223.328 391.433 223.328C390.313 223.328 389.385 223.564 388.649 224.036C387.913 224.508 387.377 225.08 387.041 225.752L388.193 226.832C388.529 226.272 388.949 225.824 389.453 225.488C389.957 225.152 390.585 224.984 391.337 224.984C392.329 224.984 393.065 225.216 393.545 225.68C394.025 226.144 394.265 226.816 394.265 227.696V228.92H391.817C390.009 228.92 388.677 229.232 387.821 229.856C386.965 230.48 386.537 231.376 386.537 232.544C386.537 233.696 386.901 234.608 387.629 235.28C388.357 235.952 389.377 236.288 390.689 236.288C391.553 236.288 392.297 236.096 392.921 235.712C393.545 235.328 393.993 234.752 394.265 233.984H394.385C394.465 234.56 394.661 235.04 394.973 235.424ZM392.321 234.488C391.921 234.6 391.481 234.656 391.001 234.656C390.249 234.656 389.653 234.488 389.213 234.152C388.773 233.816 388.553 233.344 388.553 232.736V232.232C388.553 231.624 388.805 231.16 389.309 230.84C389.813 230.52 390.617 230.36 391.721 230.36H394.265V232.4C394.265 232.72 394.185 233.016 394.025 233.288C393.865 233.56 393.641 233.8 393.353 234.008C393.065 234.216 392.721 234.376 392.321 234.488Z" fill="#161616"/>
<path id="Path_26" d="M300.752 263.536C299.68 263.536 298.924 263.296 298.484 262.816C298.044 262.336 297.824 261.744 297.824 261.04V260.368C297.824 259.664 298.044 259.072 298.484 258.592C298.924 258.112 299.68 257.872 300.752 257.872C301.824 257.872 302.58 258.112 303.02 258.592C303.46 259.072 303.68 259.664 303.68 260.368V261.04C303.68 261.744 303.46 262.336 303.02 262.816C302.58 263.296 301.824 263.536 300.752 263.536Z" fill="#161616"/>
<path id="Path_27" d="M313.156 268V266.32H315.508V252.928H313.156V251.248H319.876V252.928H317.524V266.32H319.876V268H313.156Z" fill="#161616"/>
<path id="Path_28" d="M326.367 268C325.695 268 325.187 267.812 324.843 267.436C324.499 267.06 324.327 266.568 324.327 265.96V257.296H322.287V255.616H323.439C323.855 255.616 324.139 255.532 324.291 255.364C324.443 255.196 324.519 254.904 324.519 254.488V252.184H326.247V255.616H328.959V257.296H326.247V266.32H328.767V268H326.367Z" fill="#161616"/>
<path id="Shape_9" fill-rule="evenodd" clip-rule="evenodd" d="M334.596 267.832C335.276 268.136 336.04 268.288 336.888 268.288C338.056 268.288 339.064 268.028 339.912 267.508C340.76 266.988 341.384 266.304 341.784 265.456L340.416 264.472C340.096 265.16 339.644 265.688 339.06 266.056C338.476 266.424 337.792 266.608 337.008 266.608C336.432 266.608 335.916 266.512 335.46 266.32C335.004 266.128 334.62 265.864 334.308 265.528C333.996 265.192 333.756 264.796 333.588 264.34C333.42 263.884 333.336 263.392 333.336 262.864V262.288H342.24V261.376C342.24 260.496 342.116 259.688 341.868 258.952C341.62 258.216 341.264 257.58 340.8 257.044C340.336 256.508 339.776 256.088 339.12 255.784C338.464 255.48 337.72 255.328 336.888 255.328C336.04 255.328 335.276 255.48 334.596 255.784C333.916 256.088 333.332 256.524 332.844 257.092C332.356 257.66 331.98 258.344 331.716 259.144C331.452 259.944 331.32 260.832 331.32 261.808C331.32 262.8 331.452 263.692 331.716 264.484C331.98 265.276 332.356 265.956 332.844 266.524C333.332 267.092 333.916 267.528 334.596 267.832ZM335.448 257.212C335.88 257.028 336.36 256.936 336.888 256.936C337.88 256.936 338.676 257.268 339.276 257.932C339.876 258.596 340.176 259.48 340.176 260.584V260.848H333.336V260.68C333.336 260.136 333.424 259.636 333.6 259.18C333.776 258.724 334.02 258.328 334.332 257.992C334.644 257.656 335.016 257.396 335.448 257.212Z" fill="#161616"/>
<path id="Path_29" d="M345.684 268V255.616H347.604V257.632H347.7C347.844 257.312 348.008 257.012 348.192 256.732C348.376 256.452 348.6 256.208 348.864 256C349.128 255.792 349.436 255.628 349.788 255.508C350.14 255.388 350.556 255.328 351.036 255.328C351.852 255.328 352.604 255.524 353.292 255.916C353.98 256.308 354.492 256.952 354.828 257.848H354.876C355.1 257.176 355.52 256.588 356.136 256.084C356.752 255.58 357.588 255.328 358.644 255.328C359.908 255.328 360.896 255.74 361.608 256.564C362.32 257.388 362.676 258.552 362.676 260.056V268H360.756V260.392C360.756 259.288 360.54 258.456 360.108 257.896C359.676 257.336 358.988 257.056 358.044 257.056C357.66 257.056 357.296 257.104 356.952 257.2C356.608 257.296 356.3 257.44 356.028 257.632C355.756 257.824 355.54 258.068 355.38 258.364C355.22 258.66 355.14 259.008 355.14 259.408V268H353.22V260.392C353.22 259.288 353.004 258.456 352.572 257.896C352.14 257.336 351.468 257.056 350.556 257.056C350.172 257.056 349.804 257.104 349.452 257.2C349.1 257.296 348.788 257.44 348.516 257.632C348.244 257.824 348.024 258.068 347.856 258.364C347.688 258.66 347.604 259.008 347.604 259.408V268H345.684Z" fill="#161616"/>
<path id="Path_30" d="M383.599 268H372.607V265.936L378.079 260.896C378.863 260.176 379.519 259.412 380.047 258.604C380.575 257.796 380.839 256.984 380.839 256.168V255.88C380.839 254.952 380.583 254.2 380.071 253.624C379.559 253.048 378.783 252.76 377.743 252.76C377.231 252.76 376.783 252.832 376.399 252.976C376.015 253.12 375.683 253.32 375.403 253.576C375.123 253.832 374.891 254.132 374.707 254.476C374.523 254.82 374.375 255.192 374.263 255.592L372.463 254.896C372.623 254.4 372.843 253.916 373.123 253.444C373.403 252.972 373.755 252.552 374.179 252.184C374.603 251.816 375.115 251.52 375.715 251.296C376.315 251.072 377.023 250.96 377.839 250.96C378.655 250.96 379.383 251.08 380.023 251.32C380.663 251.56 381.199 251.896 381.631 252.328C382.063 252.76 382.395 253.272 382.627 253.864C382.859 254.456 382.975 255.112 382.975 255.832C382.975 256.488 382.883 257.096 382.699 257.656C382.515 258.216 382.263 258.748 381.943 259.252C381.623 259.756 381.235 260.248 380.779 260.728C380.323 261.208 379.831 261.688 379.303 262.168L374.791 266.224H383.599V268Z" fill="#161616"/>
<path id="Shape_10" fill-rule="evenodd" clip-rule="evenodd" d="M389.441 250.24H387.521V268H389.441V265.984H389.537C390.273 267.52 391.481 268.288 393.161 268.288C393.929 268.288 394.625 268.136 395.249 267.832C395.873 267.528 396.405 267.096 396.845 266.536C397.285 265.976 397.621 265.296 397.853 264.496C398.085 263.696 398.201 262.8 398.201 261.808C398.201 260.816 398.085 259.92 397.853 259.12C397.621 258.32 397.285 257.64 396.845 257.08C396.405 256.52 395.873 256.088 395.249 255.784C394.625 255.48 393.929 255.328 393.161 255.328C392.297 255.328 391.557 255.516 390.941 255.892C390.325 256.268 389.857 256.848 389.537 257.632H389.441V250.24ZM395.201 265.54C394.577 266.22 393.721 266.56 392.633 266.56C392.201 266.56 391.789 266.504 391.397 266.392C391.005 266.28 390.665 266.116 390.377 265.9C390.089 265.684 389.861 265.42 389.693 265.108C389.525 264.796 389.441 264.44 389.441 264.04V259.432C389.441 259.096 389.525 258.78 389.693 258.484C389.861 258.188 390.089 257.936 390.377 257.728C390.665 257.52 391.005 257.356 391.397 257.236C391.789 257.116 392.201 257.056 392.633 257.056C393.721 257.056 394.577 257.396 395.201 258.076C395.825 258.756 396.137 259.648 396.137 260.752V262.864C396.137 263.968 395.825 264.86 395.201 265.54Z" fill="#161616"/>
</g>
</g>
</svg>
