<svg xmlns="http://www.w3.org/2000/svg" xmlns:xlink="http://www.w3.org/1999/xlink" width="320" height="320" viewBox="0 0 320 320"><defs><mask id="a" x="236" y="103" width="40" height="40" maskUnits="userSpaceOnUse"><polygon points="244 108 249 113 248.29 113.71 244 109.41 239.71 113.71 239 113 244 108" style="fill:#fff;fill-rule:evenodd"/></mask><mask id="b" x="86" y="103" width="40" height="40" maskUnits="userSpaceOnUse"><polygon points="94.71 111 98 107.71 97.29 107 94 110.29 90.71 107 90 107.71 93.29 111 90 114.29 90.71 115 94 111.71 97.29 115 98 114.29 94.71 111" style="fill:#fff;fill-rule:evenodd"/></mask></defs><title>Multiselect</title><polygon points="195.88 110.63 195.88 105 194.63 105 194.63 110.63 189 110.63 189 111.88 194.63 111.88 194.63 117.5 195.88 117.5 195.88 111.88 201.5 111.88 201.5 110.63 195.88 110.63" style="fill:#fff"/><polygon points="52 95 268 95 268 127 52 127 52 95" style="fill:#dcdcdc"/><rect x="54" y="127" width="214" height="97"/><rect x="54" y="127" width="214" height="97" style="fill:#d8d8d8"/><polygon points="52 127 268 127 268 159 52 159 52 127" style="fill:#f3f3f3"/><polygon points="52 159 268 159 268 191 52 191 52 159" style="fill:#f3f3f3"/><rect x="64" y="158" width="192" height="1" style="fill:#dcdcdc"/><polygon points="52 186 268 186 268 224 52 224 52 186" style="fill:#f3f3f3"/><rect x="64" y="191" width="192" height="1" style="fill:#dcdcdc"/><polygon points="244 108 249 113 248.29 113.71 244 109.41 239.71 113.71 239 113 244 108"/><g style="mask:url(#a)"><rect x="236" y="103" width="40" height="40" style="fill:#171717"/></g><rect x="236" y="103" width="16" height="16" style="fill:none"/><rect x="115" y="105" width="56" height="12" style="fill:#bebebe"/><rect x="64" y="137" width="132" height="12" style="fill:#d8d8d8"/><rect x="64" y="169" width="96" height="12" style="fill:#d8d8d8"/><rect x="64" y="202" width="132" height="12" style="fill:#d8d8d8"/><path d="M75,99H93a12,12,0,0,1,12,12h0a12,12,0,0,1-12,12H75a12,12,0,0,1-12-12h0A12,12,0,0,1,75,99Z" style="fill:#171717"/><path d="M77.4,113.11V114H71.9v-1l2.74-2.52A3.6,3.6,0,0,0,76,108.08v-.14a1.43,1.43,0,0,0-1.55-1.56,1.7,1.7,0,0,0-1.74,1.42l-.9-.35a2.64,2.64,0,0,1,2.69-2,2.33,2.33,0,0,1,2.56,2.44c0,1.29-.76,2.2-1.83,3.16l-2.26,2Z" style="fill:#f3f3f3"/><g style="mask:url(#b)"><rect x="86" y="103" width="40" height="40" style="fill:#f3f3f3"/></g><rect x="86" y="103" width="16" height="16" style="fill:none"/></svg>