<?xml version="1.0" encoding="UTF-8"?>
<svg width="320px" height="180px" viewBox="0 0 320 180" version="1.1" xmlns="http://www.w3.org/2000/svg" xmlns:xlink="http://www.w3.org/1999/xlink">
    <title>pagination</title>
    <defs>
        <polygon id="path-1" points="0 0 4 3.5 0 7"></polygon>
        <polygon id="path-3" points="0 0 4 3.5 0 7"></polygon>
    </defs>
    <g id="pagination" stroke="none" stroke-width="1" fill="none" fill-rule="evenodd">
        <g id="Group" transform="translate(64.000000, 74.000000)">
            <rect id="Rectangle-2-Copy-482" fill="#BEBEBE" x="0" y="0" width="32" height="32"></rect>
            <rect id="Rectangle-2-Copy-483" fill="#F4F4F4" x="32" y="0" width="32" height="32"></rect>
            <rect id="Rectangle-2-Copy-484" fill="#F4F4F4" x="64" y="0" width="32" height="32"></rect>
            <text id="1-copy-15" font-family="IBMPlexSans, IBM Plex Sans" font-size="12" font-weight="normal" line-spacing="17.46" fill="#252525">
                <tspan x="44" y="19">1</tspan>
            </text>
            <text id="2" font-family="IBMPlexSans, IBM Plex Sans" font-size="12" font-weight="normal" line-spacing="17.46" fill="#252525">
                <tspan x="76" y="19">2</tspan>
            </text>
            <rect id="Rectangle-2-Copy-485" fill="#F4F4F4" x="96" y="0" width="32" height="32"></rect>
            <text id="3" font-family="IBMPlexSans, IBM Plex Sans" font-size="12" font-weight="normal" line-spacing="17.46" fill="#252525">
                <tspan x="108" y="19">3</tspan>
            </text>
            <rect id="Rectangle-2-Copy-486" fill="#F4F4F4" x="128" y="0" width="32" height="32"></rect>
            <rect id="Rectangle-2-Copy-487" fill="#F4F4F4" x="160" y="0" width="32" height="32"></rect>
            <rect id="Rectangle-2-Copy-336" fill="#0F6FFF" x="137" y="29" width="13.58" height="3"></rect>
            <text id="4" font-family="IBMPlexSans, IBM Plex Sans" font-size="12" font-weight="normal" line-spacing="17.46" fill="#252525">
                <tspan x="140" y="19">4</tspan>
            </text>
            <g transform="translate(167.270000, 8.610000)" id="icon/navigation/caret/right/20-copy-24">
                <g id="caret--right" transform="translate(6.500000, 4.500000)">
                    <mask id="mask-2" fill="white">
                        <use xlink:href="#path-1"></use>
                    </mask>
                    <use id="Mask" fill="#000000" fill-rule="nonzero" xlink:href="#path-1"></use>
                    <g id="Group" mask="url(#mask-2)">
                        <g transform="translate(-6.500000, -4.500000)" id="icon-color">
                            <rect id="Rectangle" fill="#000000" x="0" y="0" width="32" height="32"></rect>
                        </g>
                    </g>
                </g>
                <polygon id="transparent-rectangle" transform="translate(8.000000, 8.000000) rotate(-90.000000) translate(-8.000000, -8.000000) " points="6.66133815e-16 9.79717439e-16 16 9.79717439e-16 16 16 6.66133815e-16 16"></polygon>
            </g>
            <g id="Group" transform="translate(13.110000, 13.110000)">
                <mask id="mask-4" fill="white">
                    <use xlink:href="#path-3"></use>
                </mask>
                <use id="Mask" fill="#000000" fill-rule="nonzero" transform="translate(2.000000, 3.500000) scale(-1, 1) translate(-2.000000, -3.500000) " xlink:href="#path-3"></use>
            </g>
            <rect id="Rectangle-8-Copy-2" fill="#C6C6C6" x="160" y="0" width="1" height="32"></rect>
        </g>
    </g>
</svg>