<?xml version="1.0" encoding="utf-8"?>
<!-- Generator: Adobe Illustrator 22.1.0, SVG Export Plug-In . SVG Version: 6.00 Build 0)  -->
<svg version="1.1" id="Layer_1" xmlns="http://www.w3.org/2000/svg" xmlns:xlink="http://www.w3.org/1999/xlink" x="0px" y="0px"
	 width="16px" height="16px" viewBox="0 0 16 16" style="enable-background:new 0 0 16 16;" xml:space="preserve">
<path d="M6.3,1.1C6.2,1.7,6.2,2.3,6.2,2.9c0,4.5,3.1,8.5,7.4,9.7c-1.4,1.5-3.3,2.4-5.4,2.4c-0.4,0-0.8,0-1.2-0.1
	c-3.1-0.5-5.5-2.9-6-6C0.5,5.3,2.8,2,6.3,1.1 M7,0L7,0C2.6,0.6-0.5,4.6,0.1,9c0.5,3.5,3.3,6.4,6.8,6.9C7.3,16,7.8,16,8.2,16
	c2.7,0,5.2-1.3,6.7-3.4c0.2-0.2,0.1-0.5-0.1-0.7c-0.1,0-0.1-0.1-0.2-0.1C10.3,11,7.2,7.3,7.2,2.9c0-0.8,0.1-1.5,0.3-2.3
	C7.6,0.4,7.4,0.1,7,0L7,0z"/>
</svg>
