<?xml version="1.0" encoding="utf-8"?>
<!-- Generator: Adobe Illustrator 23.0.1, SVG Export Plug-In . SVG Version: 6.00 Build 0)  -->
<svg version="1.1" id="icon" xmlns="http://www.w3.org/2000/svg" xmlns:xlink="http://www.w3.org/1999/xlink" x="0px" y="0px"
	 width="16px" height="16px" viewBox="0 0 16 16" style="enable-background:new 0 0 16 16;" xml:space="preserve">
<style type="text/css">
	.st0{fill:none;}
</style>
<title>asleep</title>
<path d="M7.2,2.3c-1,4.4,1.7,8.7,6.1,9.8c0.1,0,0.1,0,0.2,0c-1.1,1.2-2.7,1.8-4.3,1.8c-0.1,0-0.2,0-0.2,0C5.6,13.8,3,11,3.2,7.7
	C3.2,5.3,4.8,3.1,7.2,2.3 M8,1L8,1C4.1,1.6,1.5,5.3,2.1,9.1c0.6,3.3,3.4,5.8,6.8,5.9c0.1,0,0.2,0,0.3,0c2.3,0,4.4-1.1,5.8-3
	c0.2-0.2,0.1-0.6-0.1-0.7c-0.1-0.1-0.2-0.1-0.3-0.1c-3.9-0.3-6.7-3.8-6.4-7.6C8.3,3,8.4,2.4,8.6,1.8c0.1-0.3,0-0.6-0.3-0.7
	C8.1,1,8.1,1,8,1z"/>
<rect id="_Transparent_Rectangle_" class="st0" width="16" height="16"/>
</svg>
