<svg xmlns="http://www.w3.org/2000/svg" viewBox="0 0 16 16"><rect width="1" height="2.5" x="7.5" y="1"/><rect width="2.5" height="1" x="10.8" y="3.4" transform="rotate(-45.001 12.074 3.922)"/><rect width="2.5" height="1" x="12.5" y="7.5"/><rect width="1" height="2.5" x="11.6" y="10.8" transform="rotate(-45.001 12.077 12.075)"/><rect width="1" height="2.5" x="7.5" y="12.5"/><rect width="2.5" height="1" x="2.7" y="11.6" transform="rotate(-45.001 3.929 12.078)"/><rect width="2.5" height="1" x="1" y="7.5"/><rect width="1" height="2.5" x="3.4" y="2.7" transform="rotate(-45.001 3.926 3.925)"/><path d="M8,6c1.1,0,2,0.9,2,2s-0.9,2-2,2S6,9.1,6,8S6.9,6,8,6 M8,5C6.3,5,5,6.3,5,8s1.3,3,3,3s3-1.3,3-3S9.7,5,8,5z"/></svg>