<?xml version="1.0" encoding="utf-8"?>
<!-- Generator: Adobe Illustrator 23.0.1, SVG Export Plug-In . SVG Version: 6.00 Build 0)  -->
<svg version="1.1" id="icon" xmlns="http://www.w3.org/2000/svg" xmlns:xlink="http://www.w3.org/1999/xlink" x="0px" y="0px"
	 width="16px" height="16px" viewBox="0 0 16 16" style="enable-background:new 0 0 16 16;" xml:space="preserve">
<style type="text/css">
	.st0{fill:none;}
</style>
<title>chat</title>
<path d="M8.9,14L8,13.5l2-3.5h3c0.6,0,1-0.4,1-1V3c0-0.6-0.4-1-1-1H3C2.4,2,2,2.4,2,3v6c0,0.6,0.4,1,1,1h4.5v1H3c-1.1,0-2-0.9-2-2V3
	c0-1.1,0.9-2,2-2h10c1.1,0,2,0.9,2,2v6c0,1.1-0.9,2-2,2h-2.4L8.9,14z"/>
<rect x="4" y="4" width="8" height="1"/>
<rect x="4" y="7" width="5" height="1"/>
<rect id="_Transparent_Rectangle_" class="st0" width="16" height="16"/>
</svg>
