<?xml version="1.0" encoding="utf-8"?>
<!-- Generator: Adobe Illustrator 23.0.1, SVG Export Plug-In . SVG Version: 6.00 Build 0)  -->
<svg version="1.1" id="icon" xmlns="http://www.w3.org/2000/svg" xmlns:xlink="http://www.w3.org/1999/xlink" x="0px" y="0px"
	 width="16px" height="16px" viewBox="0 0 16 16" style="enable-background:new 0 0 16 16;" xml:space="preserve">
<style type="text/css">
	.st0{fill:none;}
</style>
<title>document</title>
<path d="M12.9,4.7L9.4,1.2C9.3,1.1,9.1,1,9,1H4C3.4,1,3,1.4,3,2v12c0,0.6,0.4,1,1,1h8c0.6,0,1-0.4,1-1V5C13,4.9,12.9,4.7,12.9,4.7z
	 M9,2.2L11.8,5H9V2.2z M12,14H4V2h4v3c0,0.6,0.4,1,1,1h3V14z"/>
<rect x="5" y="11" width="6" height="1"/>
<rect x="5" y="8" width="6" height="1"/>
<rect class="st0" width="16" height="16"/>
</svg>
