<?xml version="1.0" encoding="utf-8"?>
<!-- Generator: Adobe Illustrator 22.1.0, SVG Export Plug-In . SVG Version: 6.00 Build 0)  -->
<svg version="1.1" id="Layer_1" xmlns="http://www.w3.org/2000/svg" xmlns:xlink="http://www.w3.org/1999/xlink" x="0px" y="0px"
	 viewBox="0 0 16 16" style="enable-background:new 0 0 16 16;" xml:space="preserve">
<title>email</title>
<path d="M15,3H1C0.4,3,0,3.4,0,4v8c0,0.6,0.4,1,1,1h14c0.6,0,1-0.4,1-1V4C16,3.4,15.6,3,15,3z M13.8,4L8.3,7.9C8.1,8,7.9,8,7.7,7.9
	L2.2,4H13.8z M1,12V4.3l6.1,4.4c0.5,0.4,1.2,0.4,1.7,0L15,4.3V12H1z"/>
</svg>
