<?xml version="1.0" encoding="utf-8"?>
<!-- Generator: Adobe Illustrator 23.0.1, SVG Export Plug-In . SVG Version: 6.00 Build 0)  -->
<svg version="1.1" id="icon" xmlns="http://www.w3.org/2000/svg" xmlns:xlink="http://www.w3.org/1999/xlink" x="0px" y="0px"
	 width="16px" height="16px" viewBox="0 0 16 16" style="enable-background:new 0 0 16 16;" xml:space="preserve">
<style type="text/css">
	.st0{fill:none;}
</style>
<title>fade</title>
<path d="M4.1,12.6l-0.6,0.8c0.6,0.5,1.3,0.9,2.1,1.2l0.3-0.9C5.3,13.4,4.7,13,4.1,12.6z"/>
<path d="M2.1,9l-1,0.2c0.1,0.8,0.4,1.6,0.8,2.3L2.8,11C2.4,10.4,2.2,9.7,2.1,9z"/>
<path d="M5.9,2.4L5.6,1.4C4.8,1.7,4.1,2.1,3.5,2.7l0.6,0.8C4.7,3,5.3,2.6,5.9,2.4z"/>
<path d="M2.8,5L1.9,4.5C1.5,5.2,1.3,6,1.1,6.8l1,0.2C2.2,6.3,2.5,5.6,2.8,5z"/>
<path d="M8,1v1c3.3,0,6,2.7,6,6s-2.7,6-6,6v1c3.9,0,7-3.1,7-7S11.9,1,8,1z"/>
<rect id="_Transparent_Rectangle_" class="st0" width="16" height="16"/>
</svg>
