<?xml version="1.0" encoding="utf-8"?>
<!-- Generator: Adobe Illustrator 22.1.0, SVG Export Plug-In . SVG Version: 6.00 Build 0)  -->
<svg version="1.1" id="Layer_1" xmlns="http://www.w3.org/2000/svg" xmlns:xlink="http://www.w3.org/1999/xlink" x="0px" y="0px"
	 viewBox="0 0 16 16" style="enable-background:new 0 0 16 16;" xml:space="preserve">
<title>folder--add</title>
<polygon points="16,13 14,13 14,11 13,11 13,13 11,13 11,14 13,14 13,16 14,16 14,14 16,14 "/>
<path d="M7,3L7,3L5.3,1.3C5.1,1.1,4.9,1,4.6,1H1C0.4,1,0,1.4,0,2v12c0,0.6,0.4,1,1,1h7v-1H1V2h3.6l2,2H15v5h1V4c0-0.6-0.4-1-1-1H7z"
	/>
</svg>
