<?xml version="1.0" encoding="utf-8"?>
<!-- Generator: Adobe Illustrator 23.0.1, SVG Export Plug-In . SVG Version: 6.00 Build 0)  -->
<svg version="1.1" id="icon" xmlns="http://www.w3.org/2000/svg" xmlns:xlink="http://www.w3.org/1999/xlink" x="0px" y="0px"
	 width="16px" height="16px" viewBox="0 0 16 16" style="enable-background:new 0 0 16 16;" xml:space="preserve">
<style type="text/css">
	.st0{fill:none;}
</style>
<title>forum</title>
<path d="M2,9H1V2.5C1,1.7,1.7,1,2.5,1H9v1H2V9z"/>
<path d="M14,3H4C3.4,3,3,3.4,3,4v7c0,0.6,0.4,1,1,1h4v-1H4V4h10v7h-3.6L8,14.4L8.8,15l2.1-3H14c0.6,0,1-0.4,1-1V4
	C15,3.4,14.6,3,14,3z"/>
<rect id="_Transparent_Rectangle_" class="st0" width="16" height="16"/>
</svg>
