<?xml version="1.0" encoding="utf-8"?>
<!-- Generator: Adobe Illustrator 22.1.0, SVG Export Plug-In . SVG Version: 6.00 Build 0)  -->
<svg version="1.1" id="Layer_1" xmlns="http://www.w3.org/2000/svg" xmlns:xlink="http://www.w3.org/1999/xlink" x="0px" y="0px"
	 width="16px" height="16px" viewBox="0 0 16 16" style="enable-background:new 0 0 16 16;" xml:space="preserve">
<title>Forum</title>
<desc>Created with Sketch.</desc>
<g id="Forum">
	<path id="Path-43" d="M11.7,12l-3,3L8,14.3l3.3-3.3H15V4H4v7h4v1H4.5C3.7,12,3,11.3,3,10.5v-6C3,3.7,3.7,3,4.5,3h10
		C15.3,3,16,3.7,16,4.5v6c0,0.8-0.7,1.5-1.5,1.5H11.7z"/>
	<path id="Path-10" d="M1,8H0V1.5C0,0.7,0.7,0,1.5,0H8v1H1V8z"/>
</g>
</svg>
