<svg id="Layer_1" data-name="Layer 1" xmlns="http://www.w3.org/2000/svg" viewBox="0 0 16 16"><title>grid</title><path d="M6,7H1A1,1,0,0,1,0,6V1A1,1,0,0,1,1,0H6A1,1,0,0,1,7,1V6A1,1,0,0,1,6,7ZM1,6H6V1H1Z" transform="translate(0)"/><path d="M15,7H10A1,1,0,0,1,9,6V1a1,1,0,0,1,1-1h5a1,1,0,0,1,1,1V6A1,1,0,0,1,15,7ZM10,6h5V1H10Z" transform="translate(0)"/><path d="M6,16H1a1,1,0,0,1-1-1V10A1,1,0,0,1,1,9H6a1,1,0,0,1,1,1v5A1,1,0,0,1,6,16ZM1,15H6V10H1Z" transform="translate(0)"/><path d="M15,16H10a1,1,0,0,1-1-1V10a1,1,0,0,1,1-1h5a1,1,0,0,1,1,1v5A1,1,0,0,1,15,16Zm-5-1h5V10H10Z" transform="translate(0)"/></svg>