<svg width="12px" height="12px" viewBox="0 0 12 12" version="1.1" xmlns="http://www.w3.org/2000/svg" xmlns:xlink="http://www.w3.org/1999/xlink" fill-rule="evenodd">
	<path d="M10.5629072,1.4 C9.56290722,0.5 8.36290722,0 7.06290722,0 C5.76290722,0 4.56290722,0.5 3.66290722,1.4 C2.76290722,2.3 2.36290722,3.4 2.26290722,4.6 C1.76290722,4.7 1.26290722,5 0.862907224,5.4 C-0.337092776,6.6 -0.237092776,8.4 0.862907224,9.6 C1.36290722,10.3 2.96290722,12 2.96290722,12 L2.96290722,10.5 C3.76290722,10.5 4.46290722,10.2 5.06290722,9.6 L5.06290722,9.6 L5.06290722,9.6 C5.16290722,9.5 5.16290722,9.4 5.26290722,9.4 C5.76290722,9.6 6.26290722,9.7 6.66290722,9.8 L6.66290722,12 L10.4629072,8.3 C12.4629072,6.4 12.4629072,3.3 10.5629072,1.4 L10.5629072,1.4 L10.5629072,1.4 Z M9.46290722,7.3 C8.86290722,7.9 7.96290722,8.3 7.06290722,8.3 C6.66290722,8.3 6.26290722,8.2 5.86290722,8.1 C6.06290722,7.2 5.76290722,6.2 5.06290722,5.5 C4.66290722,5.1 4.26290722,4.9 3.76290722,4.7 C3.86290722,3.9 4.16290722,3.1 4.76290722,2.6 C5.36290722,2 6.26290722,1.6 7.16290722,1.6 C8.06290722,1.6 8.86290722,2 9.56290722,2.6 C10.1629072,3.2 10.5629072,4.1 10.5629072,5 C10.4629072,5.8 10.0629072,6.6 9.46290722,7.3 L9.46290722,7.3 L9.46290722,7.3 Z"></path>
</svg>