<?xml version="1.0" encoding="UTF-8" standalone="no"?>
<svg width="16px" height="16px" viewBox="0 0 16 16" version="1.1" xmlns="http://www.w3.org/2000/svg" xmlns:xlink="http://www.w3.org/1999/xlink">
    <!-- Generator: Sketch 50.2 (55047) - http://www.bohemiancoding.com/sketch -->
    <title>help--solid</title>
    <desc>Created with Sketch.</desc>
    <defs></defs>
    <g id="help--solid" stroke="none" stroke-width="1" fill="none" fill-rule="evenodd">
        <path d="M8.75,9.36397276 C10.4741518,9.32549067 11.8600001,7.91578141 11.8600001,6.18238993 C11.8600001,4.4248045 10.4351956,3 8.67761021,3 L7.68238993,3 C5.9248045,3 4.5,4.4248045 4.5,6.18238993 L6,6.18238993 C6,5.25323163 6.75323163,4.5 7.68238993,4.5 L8.67761021,4.5 C9.60676851,4.5 10.3600001,5.25323163 10.3600001,6.18238993 C10.3600001,7.08729501 9.64557754,7.82533775 8.75,7.86325052 L7.25,7.86322021 L7.25,10.5 L8.75,10.5 L8.75,9.36397276 Z M8,16 C3.581722,16 0,12.418278 0,8 C0,3.581722 3.581722,0 8,0 C12.418278,0 16,3.581722 16,8 C16,12.418278 12.418278,16 8,16 Z M8,14 C8.55228475,14 9,13.5522847 9,13 C9,12.4477153 8.55228475,12 8,12 C7.44771525,12 7,12.4477153 7,13 C7,13.5522847 7.44771525,14 8,14 Z" id="?" fill="#000000"></path>
    </g>
</svg>