<?xml version="1.0" encoding="utf-8"?>
<!-- Generator: Adobe Illustrator 23.0.1, SVG Export Plug-In . SVG Version: 6.00 Build 0)  -->
<svg version="1.1" id="icon" xmlns="http://www.w3.org/2000/svg" xmlns:xlink="http://www.w3.org/1999/xlink" x="0px" y="0px"
	 width="16px" height="16px" viewBox="0 0 16 16" style="enable-background:new 0 0 16 16;" xml:space="preserve">
<style type="text/css">
	.st0{fill:none;}
</style>
<title>information</title>
<polygon points="8.5,11 8.5,6.5 6.5,6.5 6.5,7.5 7.5,7.5 7.5,11 6,11 6,12 10,12 10,11 "/>
<path d="M8,3.5c-0.4,0-0.8,0.3-0.8,0.8S7.6,5,8,5c0.4,0,0.8-0.3,0.8-0.8S8.4,3.5,8,3.5z"/>
<path d="M8,15c-3.9,0-7-3.1-7-7s3.1-7,7-7s7,3.1,7,7S11.9,15,8,15z M8,2C4.7,2,2,4.7,2,8s2.7,6,6,6s6-2.7,6-6S11.3,2,8,2z"/>
<rect id="_Transparent_Rectangle_" class="st0" width="16" height="16"/>
</svg>
