<?xml version="1.0" encoding="utf-8"?>
<!-- Generator: Adobe Illustrator 23.0.1, SVG Export Plug-In . SVG Version: 6.00 Build 0)  -->
<svg version="1.1" id="icon" xmlns="http://www.w3.org/2000/svg" xmlns:xlink="http://www.w3.org/1999/xlink" x="0px" y="0px"
	 width="16px" height="16px" viewBox="0 0 16 16" style="enable-background:new 0 0 16 16;" xml:space="preserve">
<style type="text/css">
	.st0{fill:none;}
</style>
<title>information--filled</title>
<path d="M8,1C4.1,1,1,4.1,1,8s3.1,7,7,7s7-3.1,7-7S11.9,1,8,1z M8,3.5c0.4,0,0.8,0.3,0.8,0.8S8.4,5,8,5C7.6,5,7.2,4.7,7.2,4.2
	S7.6,3.5,8,3.5z M10,12.1H6v-1.1h1.4V7.6H6.5V6.4h2.1v4.5H10V12.1z"/>
<rect id="_Transparent_Rectangle_" class="st0" width="16" height="16"/>
</svg>
