<?xml version="1.0" encoding="utf-8"?>
<!-- Generator: Adobe Illustrator 23.0.4, SVG Export Plug-In . SVG Version: 6.00 Build 0)  -->
<svg version="1.1" id="icon" xmlns="http://www.w3.org/2000/svg" xmlns:xlink="http://www.w3.org/1999/xlink" x="0px" y="0px"
	 width="16px" height="16px" viewBox="0 0 16 16" style="enable-background:new 0 0 16 16;" xml:space="preserve">
<style type="text/css">
	.st0{fill:none;}
</style>
<title>light</title>
<rect x="7.5" y="1" width="1" height="2.5"/>
<rect x="10.8" y="3.4" transform="matrix(0.7071 -0.7071 0.7071 0.7071 0.7526 9.6636)" width="2.5" height="1"/>
<rect x="12.5" y="7.5" width="2.5" height="1"/>
<rect x="11.6" y="10.8" transform="matrix(0.7071 -0.7071 0.7071 0.7071 -4.9774 12.0652)" width="1" height="2.5"/>
<rect x="7.5" y="12.5" width="1" height="2.5"/>
<rect x="2.7" y="11.6" transform="matrix(0.7071 -0.7071 0.7071 0.7071 -7.3811 6.3373)" width="2.5" height="1"/>
<rect x="1" y="7.5" width="2.5" height="1"/>
<rect x="3.4" y="2.7" transform="matrix(0.7071 -0.7071 0.7071 0.7071 -1.6512 3.9356)" width="1" height="2.5"/>
<path d="M8,6c1.1,0,2,0.9,2,2s-0.9,2-2,2S6,9.1,6,8S6.9,6,8,6 M8,5C6.3,5,5,6.3,5,8s1.3,3,3,3s3-1.3,3-3S9.7,5,8,5z"/>
<rect id="_Transparent_Rectangle_" class="st0" width="16" height="16"/>
</svg>
