<?xml version="1.0" encoding="utf-8"?>
<!-- Generator: Adobe Illustrator 22.1.0, SVG Export Plug-In . SVG Version: 6.00 Build 0)  -->
<svg version="1.1" id="Layer_1" xmlns="http://www.w3.org/2000/svg" xmlns:xlink="http://www.w3.org/1999/xlink" x="0px" y="0px"
	 viewBox="0 0 16 16" style="enable-background:new 0 0 16 16;" xml:space="preserve">
<title>notification--off</title>
<path d="M2,11.2l2-2V6c0-2.2,1.8-4,4-4c1,0,2,0.4,2.8,1.1l0.7-0.7C10.8,1.8,9.9,1.3,9,1.1V0H7v1.1C4.7,1.6,3,3.6,3,6v2.8l-1.7,1.7
	C1.1,10.7,1,10.9,1,11.2V12h1V11.2z"/>
<path d="M14.7,10.5L13,8.8V6c0-0.7-0.1-1.3-0.4-1.9L15,1.7L14.3,1L1,14.3L1.7,15l2-2H5c0,1.7,1.3,3,3,3s3-1.3,3-3h3.5
	c0.3,0,0.5-0.2,0.5-0.5v-1.3C15,10.9,14.9,10.7,14.7,10.5z M8,15c-1.1,0-2-0.9-2-2h4C10,14.1,9.1,15,8,15z M14,12H4.7l7.1-7.1
	C11.9,5.2,12,5.6,12,6v3.2l2,2V12z"/>
</svg>
