<?xml version="1.0" encoding="utf-8"?>
<!-- Generator: Adobe Illustrator 23.0.1, SVG Export Plug-In . SVG Version: 6.00 Build 0)  -->
<svg version="1.1" id="icon" xmlns="http://www.w3.org/2000/svg" xmlns:xlink="http://www.w3.org/1999/xlink" x="0px" y="0px"
	 width="16px" height="16px" viewBox="0 0 16 16" style="enable-background:new 0 0 16 16;" xml:space="preserve">
<style type="text/css">
	.st0{fill:none;}
</style>
<title>notification</title>
<path d="M14.4,10.1L13,8.8V6.5c0-2.6-1.9-4.7-4.5-5v-1h-1v1C5,1.8,3,3.9,3,6.5v2.3l-1.4,1.3c-0.1,0.1-0.2,0.2-0.1,0.4V12
	c0,0.3,0.2,0.5,0.4,0.5c0,0,0,0,0.1,0h3.5C5.5,13.9,6.6,15,8,15s2.5-1.1,2.5-2.5H14c0.3,0,0.5-0.2,0.5-0.4c0,0,0,0,0-0.1v-1.5
	C14.5,10.4,14.4,10.2,14.4,10.1z M8,14c-0.8,0-1.5-0.7-1.5-1.5h3C9.5,13.3,8.8,14,8,14z M13.5,11.5h-11v-0.8l1.3-1.4
	C3.9,9.3,4,9.1,4,9V6.5c0-2.2,1.8-4,4-4s4,1.8,4,4V9c0,0.1,0.1,0.3,0.1,0.4l1.4,1.3V11.5z"/>
<rect id="_Transparent_Rectangle_" class="st0" width="16" height="16"/>
</svg>
