<?xml version="1.0" encoding="utf-8"?>
<!-- Generator: Adobe Illustrator 23.0.1, SVG Export Plug-In . SVG Version: 6.00 Build 0)  -->
<svg version="1.1" id="icon" xmlns="http://www.w3.org/2000/svg" xmlns:xlink="http://www.w3.org/1999/xlink" x="0px" y="0px"
	 width="16px" height="16px" viewBox="0 0 16 16" style="enable-background:new 0 0 16 16;" xml:space="preserve">
<style type="text/css">
	.st0{fill:none;}
</style>
<title>notification--off</title>
<path d="M2.5,11.5v-0.8l1.3-1.4C3.9,9.3,4,9.1,4,9V6.5c0-2.2,1.8-4,4-4c0.9,0,1.8,0.3,2.5,0.9l0.7-0.7C10.5,2,9.5,1.6,8.5,1.5v-1h-1
	v1C5,1.8,3,3.9,3,6.5v2.3l-1.4,1.3c-0.1,0.1-0.2,0.2-0.1,0.4v1H2.5z"/>
<path d="M13,8.8V6.5c0-0.8-0.2-1.6-0.5-2.2L15,1.7L14.3,1L1,14.3L1.7,15l2.5-2.5h1.3C5.5,13.9,6.6,15,8,15s2.5-1.1,2.5-2.5H14
	c0.3,0,0.5-0.2,0.5-0.4c0,0,0,0,0-0.1v-1.5c0-0.1-0.1-0.3-0.1-0.4L13,8.8z M8,14c-0.8,0-1.5-0.7-1.5-1.5h3C9.5,13.3,8.8,14,8,14z
	 M13.5,11.5H5.2L11.7,5C11.9,5.5,12,6,12,6.5V9c0,0.1,0.1,0.3,0.1,0.4l1.4,1.3V11.5z"/>
<rect id="_Transparent_Rectangle_" class="st0" width="16" height="16"/>
</svg>
