<?xml version="1.0" encoding="utf-8"?>
<!-- Generator: Adobe Illustrator 22.1.0, SVG Export Plug-In . SVG Version: 6.00 Build 0)  -->
<svg version="1.1" id="Layer_1" xmlns="http://www.w3.org/2000/svg" xmlns:xlink="http://www.w3.org/1999/xlink" x="0px" y="0px"
	 viewBox="0 0 16 16" style="enable-background:new 0 0 16 16;" xml:space="preserve">
<title>notification</title>
<path d="M14.7,10.5L13,8.8V6c0-2.4-1.7-4.4-4-4.9V0H7v1.1C4.7,1.6,3,3.6,3,6v2.8l-1.7,1.7C1.1,10.7,1,10.9,1,11.2v1.3
	C1,12.8,1.2,13,1.5,13H5c0,1.7,1.3,3,3,3s3-1.3,3-3h3.5c0.3,0,0.5-0.2,0.5-0.5v-1.3C15,10.9,14.9,10.7,14.7,10.5z M8,15
	c-1.1,0-2-0.9-2-2h4C10,14.1,9.1,15,8,15z M14,12H2v-0.8l2-2V6c0-2.2,1.8-4,4-4s4,1.8,4,4v3.2l2,2V12z"/>
</svg>
