<?xml version="1.0" encoding="UTF-8" standalone="no"?>
<svg width="16px" height="16px" viewBox="0 0 16 16" version="1.1" xmlns="http://www.w3.org/2000/svg" xmlns:xlink="http://www.w3.org/1999/xlink">
    <!-- Generator: Sketch 50.2 (55047) - http://www.bohemiancoding.com/sketch -->
    <title>play</title>
    <desc>Created with Sketch.</desc>
    <defs></defs>
    <g id="play" stroke="none" stroke-width="1" fill="none" fill-rule="evenodd">
        <path d="M8,16 C3.581722,16 0,12.418278 0,8 C0,3.581722 3.581722,0 8,0 C12.418278,0 16,3.581722 16,8 C16,12.418278 12.418278,16 8,16 Z M5.49749197,4.77639939 L5.49749197,11.2322185 C5.49749197,11.3702897 5.60942078,11.4822185 5.74749197,11.4822185 C5.7920398,11.4822185 5.8357785,11.4703151 5.87418255,11.44774 L11.3722572,8.21579123 C11.4912864,8.14582195 11.5310574,7.9926084 11.4610881,7.87357919 C11.4394745,7.83681088 11.4088136,7.80618345 11.3720216,7.78461002 L5.87394698,4.56073964 C5.75484139,4.49090046 5.60167139,4.53083879 5.53183222,4.64994438 C5.50934591,4.68829312 5.49749197,4.73194424 5.49749197,4.77639939 Z" fill="#000000"></path>
    </g>
</svg>