<svg width="14px" height="16px" viewBox="0 0 14 16" version="1.1" xmlns="http://www.w3.org/2000/svg" xmlns:xlink="http://www.w3.org/1999/xlink">
  <!-- Generator: Sketch 40.1 (33804) - http://www.bohemiancoding.com/sketch -->
  <desc>Created with Sketch.</desc>
  <defs></defs>
  <path d="M9,2.3 L9,0 L5,0 L5,2.3 C2.1,3.2 0,5.8 0,9 C0,12.9 3.1,16 7,16 C10.9,16 14,12.9 14,9 C14,5.8 11.9,3.2 9,2.3 L9,2.3 Z M7,14 C4.2,14 2,11.8 2,9 C2,7 3.2,5.2 5,4.4 L5,9 L9,9 L9,4.4 C10.8,5.2 12,7 12,9 C12,11.8 9.8,14 7,14 L7,14 Z" id="Shape" fill="#000000"></path>
</svg>
