<svg width="16px" height="16px" viewBox="0 0 16 16" version="1.1" xmlns="http://www.w3.org/2000/svg" xmlns:xlink="http://www.w3.org/1999/xlink" fill-rule="evenodd">
	<path d="M6,2 C8.2,2 10,3.8 10,6 C10,8.2 8.2,10 6,10 C3.8,10 2,8.2 2,6 C2,3.8 3.8,2 6,2 L6,2 Z M6,0 C2.7,0 0,2.7 0,6 C0,9.3 2.7,12 6,12 C9.3,12 12,9.3 12,6 C12,2.7 9.3,0 6,0 L6,0 L6,0 Z" id="Shape" fill="#000000"></path>
	<polygon id="Shape" fill="#000000" points="16 13.8 13.8 16 10.2 12.4 12.4 10.2"></polygon>
	<polygon id="Shape" fill="#000000" points="16 13.8 13.8 16 10.2 12.4 12.4 10.2"></polygon>
</svg>