<svg id="Layer_1" data-name="Layer 1" xmlns="http://www.w3.org/2000/svg" viewBox="0 0 16 16"><defs><style>.cls-1{fill:none;}</style></defs><title>settings</title><path d="M9.09,16H6.91a1,1,0,0,1-1-.8l-.22-1.12A6.34,6.34,0,0,1,4,13.15l-1.41.47a1,1,0,0,1-1.18-.45L.36,11.29A1,1,0,0,1,.56,10l1-.92A6.06,6.06,0,0,1,1.5,8a6.62,6.62,0,0,1,.06-.88l-1-.87A1,1,0,0,1,.36,5L1.45,3.11a1,1,0,0,1,1.18-.45l1.17.39A6.26,6.26,0,0,1,5.71,1.92L5.93.8a1,1,0,0,1,1-.8H9.09a1,1,0,0,1,1,.8l.22,1.12A6.26,6.26,0,0,1,12.2,3.05l1.17-.39a1,1,0,0,1,1.18.45L15.64,5a1,1,0,0,1-.21,1.25l-1,.88A6.62,6.62,0,0,1,14.5,8a6.06,6.06,0,0,1-.1,1.12l1,.92a1,1,0,0,1,.2,1.25l-1.09,1.89a1,1,0,0,1-1.18.44L12,13.15a6.34,6.34,0,0,1-1.67.93l-.22,1.12A1,1,0,0,1,9.09,16ZM4.24,12l.22.19a5.53,5.53,0,0,0,1.84,1l.27.09L6.91,15H9.09l.34-1.68.27-.09a5.53,5.53,0,0,0,1.84-1l.22-.19,1.93.66,1.09-1.89L13.3,9.49l.06-.29A5.53,5.53,0,0,0,13.5,8a5.78,5.78,0,0,0-.09-1l-.05-.28,1.42-1.24L13.69,3.61,12,4.19,11.75,4A5.62,5.62,0,0,0,9.7,2.77l-.27-.09L9.09,1H6.91L6.57,2.68l-.27.09A5.62,5.62,0,0,0,4.25,4L4,4.19,2.31,3.61,1.22,5.49,2.64,6.74,2.59,7A5.76,5.76,0,0,0,2.5,8a5.53,5.53,0,0,0,.14,1.2l.06.29-1.48,1.3,1.09,1.89Z"/><rect class="cls-1" width="16" height="16"/><path d="M8,11a3,3,0,1,1,3-3A3,3,0,0,1,8,11ZM8,6a2,2,0,1,0,2,2A2,2,0,0,0,8,6Z"/></svg>