<?xml version="1.0" encoding="utf-8"?>
<!-- Generator: Adobe Illustrator 23.0.1, SVG Export Plug-In . SVG Version: 6.00 Build 0)  -->
<svg version="1.1" id="icon" xmlns="http://www.w3.org/2000/svg" xmlns:xlink="http://www.w3.org/1999/xlink" x="0px" y="0px"
	 width="16px" height="16px" viewBox="0 0 16 16" style="enable-background:new 0 0 16 16;" xml:space="preserve">
<style type="text/css">
	.st0{fill:none;}
</style>
<title>star</title>
<path d="M8,3.3l1.4,2.8l0.2,0.5l0.5,0.1l3.1,0.4L11,9.2l-0.4,0.4l0.1,0.5l0.5,3.1l-2.8-1.4L8,11.5l-0.5,0.2l-2.8,1.4l0.5-3.1
	l0.1-0.5L5,9.2L2.8,7l3.1-0.4l0.5-0.1L6.6,6L8,3.3 M8,1L5.7,5.6L0.6,6.3l3.7,3.6L3.5,15L8,12.6l4.6,2.4l-0.9-5.1l3.7-3.6l-5.1-0.7
	L8,1z"/>
<rect id="_Transparent_Rectangle_" class="st0" width="16" height="16"/>
</svg>
