<?xml version="1.0" encoding="utf-8"?>
<!-- Generator: Adobe Illustrator 22.0.1, SVG Export Plug-In . SVG Version: 6.00 Build 0)  -->
<!DOCTYPE svg PUBLIC "-//W3C//DTD SVG 1.1//EN" "http://www.w3.org/Graphics/SVG/1.1/DTD/svg11.dtd">
<svg version="1.1" id="Layer_1" xmlns="http://www.w3.org/2000/svg" xmlns:xlink="http://www.w3.org/1999/xlink" x="0px" y="0px"
	 width="16px" height="16px" viewBox="0 0 16 16" style="enable-background:new 0 0 16 16;" xml:space="preserve">
<title>terminal</title>
<desc>Created with Sketch.</desc>
<g id="terminal">
	<path id="window" d="M16,4.5L16,5l0,10c0,0.6-0.4,1-1,1H1c-0.6,0-1-0.4-1-1V4.5L0,4l0-3c0-0.6,0.4-1,1-1h14c0.6,0,1,0.4,1,1V4.5z
		 M15,4V1H1v3L15,4z M15,5L1,5v10h14V5z"/>
	<polygon id="mini-chevron" points="3,8.4 3.7,7.6 6,9.9 3.7,12.2 3,11.5 4.6,9.9 	"/>
</g>
</svg>
