<?xml version="1.0" encoding="utf-8"?>
<!-- Generator: Adobe Illustrator 22.1.0, SVG Export Plug-In . SVG Version: 6.00 Build 0)  -->
<svg version="1.1" id="Layer_1" xmlns="http://www.w3.org/2000/svg" xmlns:xlink="http://www.w3.org/1999/xlink" x="0px" y="0px"
	 viewBox="0 0 16 16" style="enable-background:new 0 0 16 16;" xml:space="preserve">
<title>unlocked</title>
<path d="M13,7H6V3c0-1.1,0.9-2,2-2s2,0.9,2,2h1c0-1.7-1.3-3-3-3S5,1.3,5,3v4H3C2.4,7,2,7.4,2,8v7c0,0.6,0.4,1,1,1h10
	c0.6,0,1-0.4,1-1V8C14,7.4,13.6,7,13,7z M13,15H3V8h10V15z"/>
</svg>
