<?xml version="1.0" encoding="utf-8"?>
<!-- Generator: Adobe Illustrator 23.0.1, SVG Export Plug-In . SVG Version: 6.00 Build 0)  -->
<svg version="1.1" id="icon" xmlns="http://www.w3.org/2000/svg" xmlns:xlink="http://www.w3.org/1999/xlink" x="0px" y="0px"
	 width="16px" height="16px" viewBox="0 0 16 16" style="enable-background:new 0 0 16 16;" xml:space="preserve">
<style type="text/css">
	.st0{fill:none;}
</style>
<title>user--avatar</title>
<path d="M8,1C4.1,1,1,4.1,1,8s3.1,7,7,7s7-3.1,7-7S11.9,1,8,1z M5,13.2v-1.5c0-0.9,0.6-1.6,1.5-1.7h3c0.9,0.1,1.5,0.8,1.5,1.7v1.5
	C9.1,14.3,6.9,14.3,5,13.2L5,13.2z M12,12l0-0.8c0-0.9-1.1-2.1-2.5-2.2h-3C5.1,9.1,4,10.3,4,11.7l0,0.5v0.3c-2.5-2.2-2.7-6-0.5-8.5
	s6-2.7,8.5-0.5s2.7,6,0.5,8.5c-0.1,0.2-0.3,0.3-0.5,0.5V12z"/>
<path d="M8,3C6.6,3,5.5,4.1,5.5,5.5S6.6,8,8,8s2.5-1.1,2.5-2.5S9.4,3,8,3z M8,7C7.2,7,6.5,6.3,6.5,5.5S7.2,4,8,4s1.5,0.7,1.5,1.5
	S8.8,7,8,7z"/>
<rect id="_Transparent_Rectangle_" class="st0" width="16" height="16"/>
</svg>
