<?xml version="1.0" encoding="utf-8"?>
<!-- Generator: Adobe Illustrator 23.0.1, SVG Export Plug-In . SVG Version: 6.00 Build 0)  -->
<svg version="1.1" id="icon" xmlns="http://www.w3.org/2000/svg" xmlns:xlink="http://www.w3.org/1999/xlink" x="0px" y="0px"
	 width="16px" height="16px" viewBox="0 0 16 16" style="enable-background:new 0 0 16 16;" xml:space="preserve">
<style type="text/css">
	.st0{fill:none;}
</style>
<title>user</title>
<path d="M8,2c1.4,0,2.5,1.1,2.5,2.5S9.4,7,8,7S5.5,5.9,5.5,4.5S6.6,2,8,2 M8,1C6.1,1,4.5,2.6,4.5,4.5S6.1,8,8,8s3.5-1.6,3.5-3.5
	S9.9,1,8,1z"/>
<path d="M13,15h-1v-2.5c0-1.4-1.1-2.5-2.5-2.5h-3C5.1,10,4,11.1,4,12.5V15H3v-2.5C3,10.6,4.6,9,6.5,9h3c1.9,0,3.5,1.6,3.5,3.5V15z"
	/>
<rect id="_Transparent_Rectangle_" class="st0" width="16" height="16"/>
</svg>
