<?xml version="1.0" encoding="utf-8"?>
<!-- Generator: Adobe Illustrator 22.1.0, SVG Export Plug-In . SVG Version: 6.00 Build 0)  -->
<svg version="1.1" id="Layer_1" xmlns="http://www.w3.org/2000/svg" xmlns:xlink="http://www.w3.org/1999/xlink" x="0px" y="0px"
	 viewBox="0 0 16 16" style="enable-background:new 0 0 16 16;" xml:space="preserve">
<title>view</title>
<path d="M8,6c1.1,0,2,0.9,2,2s-0.9,2-2,2S6,9.1,6,8S6.9,6,8,6 M8,5C6.3,5,5,6.3,5,8s1.3,3,3,3s3-1.3,3-3S9.7,5,8,5z"/>
<path d="M8,3c3.2,0,6,2,7,5c-1.2,3.9-5.3,6-9.2,4.8C3.5,12.1,1.7,10.3,1,8C2,5,4.8,3,8,3 M8,2C4.3,2,1,4.4,0,8
	c1.3,4.4,5.9,7,10.3,5.7c2.7-0.8,4.9-2.9,5.7-5.7C15,4.4,11.7,2,8,2z"/>
</svg>
