<?xml version="1.0" encoding="utf-8"?>
<!-- Generator: Adobe Illustrator 23.0.1, SVG Export Plug-In . SVG Version: 6.00 Build 0)  -->
<svg version="1.1" id="icon" xmlns="http://www.w3.org/2000/svg" xmlns:xlink="http://www.w3.org/1999/xlink" x="0px" y="0px"
	 width="16px" height="16px" viewBox="0 0 16 16" style="enable-background:new 0 0 16 16;" xml:space="preserve">
<style type="text/css">
	.st0{fill:none;}
</style>
<title>view--off</title>
<path d="M2.6,11.3l0.7-0.7C2.6,9.8,1.9,9,1.5,8c1-2.5,3.8-4.5,6.5-4.5c0.7,0,1.4,0.1,2,0.4l0.8-0.8C9.9,2.7,9,2.5,8,2.5
	C4.7,2.6,1.7,4.7,0.5,7.8c0,0.1,0,0.2,0,0.3C1,9.3,1.7,10.4,2.6,11.3z"/>
<path d="M6,7.9c0.1-1,0.9-1.8,1.8-1.8l0.9-0.9C7.2,4.7,5.5,5.6,5.1,7.2C5,7.7,5,8.3,5.1,8.8L6,7.9z"/>
<path d="M15.5,7.8c-0.6-1.5-1.6-2.8-2.9-3.7L15,1.7L14.3,1L1,14.3L1.7,15l2.6-2.6c1.1,0.7,2.4,1,3.7,1.1c3.3-0.1,6.3-2.2,7.5-5.3
	C15.5,8.1,15.5,7.9,15.5,7.8z M10,8c0,1.1-0.9,2-2,2c-0.3,0-0.7-0.1-1-0.3L9.7,7C9.9,7.3,10,7.6,10,8z M8,12.5c-1,0-2.1-0.3-3-0.8
	l1.3-1.3c1.4,0.9,3.2,0.6,4.2-0.8c0.7-1,0.7-2.4,0-3.4l1.4-1.4c1.1,0.8,2,1.9,2.6,3.2C13.4,10.5,10.6,12.5,8,12.5z"/>
<rect id="_Transparent_Rectangle_" class="st0" width="16" height="16"/>
</svg>
