<?xml version="1.0" encoding="utf-8"?>
<!-- Generator: Adobe Illustrator 23.0.1, SVG Export Plug-In . SVG Version: 6.00 Build 0)  -->
<svg version="1.1" id="icon" xmlns="http://www.w3.org/2000/svg" xmlns:xlink="http://www.w3.org/1999/xlink" x="0px" y="0px"
	 width="16px" height="16px" viewBox="0 0 16 16" style="enable-background:new 0 0 16 16;" xml:space="preserve">
<style type="text/css">
	.st0{fill:none;}
</style>
<title>warning--alt</title>
<path d="M14.5,14h-13c-0.2,0-0.3-0.1-0.4-0.2c-0.1-0.2-0.1-0.3,0-0.5l6.5-12C7.7,1,8,0.9,8.2,1.1c0.1,0,0.2,0.1,0.2,0.2l6.5,12
	c0.1,0.2,0.1,0.3,0,0.5C14.9,13.9,14.7,14,14.5,14z M2.3,13h11.3L8,2.5L2.3,13z"/>
<rect x="7.5" y="6" width="1" height="3.5"/>
<path d="M8,10.8c-0.4,0-0.8,0.3-0.8,0.8s0.3,0.8,0.8,0.8c0.4,0,0.8-0.3,0.8-0.8S8.4,10.8,8,10.8z"/>
<rect id="_Transparent_Rectangle_" class="st0" width="16" height="16"/>
</svg>
