<?xml version="1.0" encoding="utf-8"?>
<!-- Generator: Adobe Illustrator 23.0.2, SVG Export Plug-In . SVG Version: 6.00 Build 0)  -->
<svg version="1.1" id="Layer_1" xmlns="http://www.w3.org/2000/svg" xmlns:xlink="http://www.w3.org/1999/xlink" x="0px" y="0px"
	 width="16px" height="16px" viewBox="0 0 16 16" style="enable-background:new 0 0 16 16;" xml:space="preserve">
<style type="text/css">
	.st0{fill:none;}
	.st1{opacity:0;fill:#FFFFFF;}
</style>
<rect class="st0" width="16" height="16"/>
<g>
	<path d="M8,1C4.1,1,1,4.1,1,8s3.1,7,7,7s7-3.1,7-7S11.9,1,8,1z M8,12.5c-0.4,0-1-0.5-1-1s0.5-1,1-1s1,0.5,1,1S8.5,12.5,8,12.5z
		 M9,5.6V9H7V5.6V4h2V5.6z"/>
	<path id="inner-path" class="st1" d="M7,11.5c0-0.5,0.5-1,1-1s1,0.5,1,1s-0.5,1-1,1C7.6,12.5,7,12,7,11.5z M7,9V5.6V4h2v1.6V9H7z"
		/>
</g>
</svg>
