<?xml version="1.0" encoding="UTF-8"?>
<svg width="352px" height="352px" viewBox="0 0 352 352" version="1.1" xmlns="http://www.w3.org/2000/svg" xmlns:xlink="http://www.w3.org/1999/xlink">
    <!-- Generator: Sketch 52.4 (67378) - http://www.bohemiancoding.com/sketch -->
    <title>Typography_overview_Type-color-3</title>
    <desc>Created with Sketch.</desc>
    <g id="Type-color-3" stroke="none" stroke-width="1" fill="none" fill-rule="evenodd">
        <rect fill="#FFFFFF" x="0" y="0" width="352" height="352"></rect>
        <g id="Type-Color---Do-2">
            <rect fill="#252525" x="0" y="0" width="352" height="352"></rect>
            <path d="M93.3875556,171.444444 L85.9075556,158.948444 L83.4435556,154.401778 L83.3555556,154.401778 L83.3555556,171.444444 L80.9502222,171.444444 L80.9502222,150.969778 L83.7955556,150.969778 L91.2755556,163.465778 L93.7395556,168.012444 L93.8275556,168.012444 L93.8275556,150.969778 L96.2328889,150.969778 L96.2328889,171.444444 L93.3875556,171.444444 Z M107.144889,171.796444 C103.038222,171.796444 100.339556,168.687111 100.339556,163.876444 C100.339556,159.065778 103.038222,155.956444 107.144889,155.956444 C111.192889,155.956444 113.686222,159.065778 113.686222,163.348444 L113.686222,164.463111 L102.803556,164.463111 L102.803556,165.167111 C102.803556,167.777778 104.475556,169.743111 107.291556,169.743111 C109.198222,169.743111 110.664889,168.804444 111.456889,167.132444 L113.128889,168.335111 C112.160889,170.388444 109.990222,171.796444 107.144889,171.796444 Z M107.144889,157.921778 C104.592889,157.921778 102.803556,159.857778 102.803556,162.497778 L102.803556,162.703111 L111.163556,162.703111 L111.163556,162.380444 C111.163556,159.711111 109.550222,157.921778 107.144889,157.921778 Z M126.886222,171.444444 L126.886222,168.980444 L126.768889,168.980444 C126.182222,170.417778 125.038222,171.796444 122.515556,171.796444 C119.406222,171.796444 117.411556,169.684444 117.411556,166.017778 L117.411556,156.308444 L119.758222,156.308444 L119.758222,165.607111 C119.758222,168.305778 120.960889,169.684444 123.219556,169.684444 C125.067556,169.684444 126.886222,168.775111 126.886222,166.780444 L126.886222,156.308444 L129.232889,156.308444 L129.232889,171.444444 L126.886222,171.444444 Z M140.496889,171.444444 L137.563556,171.444444 C135.950222,171.444444 135.070222,170.417778 135.070222,168.951111 L135.070222,158.361778 L132.576889,158.361778 L132.576889,156.308444 L133.984889,156.308444 C134.982222,156.308444 135.304889,155.956444 135.304889,154.929778 L135.304889,152.113778 L137.416889,152.113778 L137.416889,156.308444 L140.731556,156.308444 L140.731556,158.361778 L137.416889,158.361778 L137.416889,169.391111 L140.496889,169.391111 L140.496889,171.444444 Z M146.862222,171.444444 L144.515556,171.444444 L144.515556,156.308444 L146.862222,156.308444 L146.862222,159.095111 L147.008889,159.095111 C147.536889,157.657778 148.915556,156.308444 151.379556,156.308444 L152.288889,156.308444 L152.288889,158.655111 L150.910222,158.655111 C148.387556,158.655111 146.862222,159.740444 146.862222,161.177778 L146.862222,171.444444 Z M167.483556,171.444444 L166.163556,171.444444 C164.432889,171.444444 163.728889,170.388444 163.552889,168.980444 L163.406222,168.980444 C162.760889,170.828444 161.147556,171.796444 159.035556,171.796444 C155.838222,171.796444 153.960889,170.036444 153.960889,167.220444 C153.960889,164.375111 156.014222,162.791111 160.414222,162.791111 L163.406222,162.791111 L163.406222,161.295111 C163.406222,159.153778 162.232889,157.980444 159.827556,157.980444 C158.008889,157.980444 156.806222,158.860444 155.984889,160.239111 L154.576889,158.919111 C155.398222,157.305778 157.216889,155.956444 159.944889,155.956444 C163.582222,155.956444 165.752889,157.863111 165.752889,161.060444 L165.752889,169.391111 L167.483556,169.391111 L167.483556,171.444444 Z M159.416889,169.801778 C161.734222,169.801778 163.406222,168.599111 163.406222,167.044444 L163.406222,164.551111 L160.296889,164.551111 C157.627556,164.551111 156.424889,165.372444 156.424889,166.839111 L156.424889,167.455111 C156.424889,168.951111 157.598222,169.801778 159.416889,169.801778 Z M175.403556,171.444444 L173.320889,171.444444 C171.707556,171.444444 170.827556,170.417778 170.827556,169.009778 L170.827556,149.737778 L173.174222,149.737778 L173.174222,169.391111 L175.403556,169.391111 L175.403556,171.444444 Z M191.360889,171.796444 C187.107556,171.796444 184.614222,168.716444 184.614222,163.876444 C184.614222,159.036444 187.107556,155.956444 191.360889,155.956444 C194.352889,155.956444 196.142222,157.423111 197.022222,159.505778 L195.056889,160.503111 C194.499556,158.948444 193.208889,158.039111 191.360889,158.039111 C188.574222,158.039111 187.136889,159.945778 187.136889,162.585778 L187.136889,165.167111 C187.136889,167.807111 188.574222,169.713778 191.360889,169.713778 C193.267556,169.713778 194.646222,168.804444 195.467556,167.073778 L197.168889,168.217778 C196.200889,170.388444 194.235556,171.796444 191.360889,171.796444 Z M206.027556,171.796444 C201.979556,171.796444 199.192889,168.687111 199.192889,163.876444 C199.192889,159.065778 201.979556,155.956444 206.027556,155.956444 C210.075556,155.956444 212.862222,159.065778 212.862222,163.876444 C212.862222,168.687111 210.075556,171.796444 206.027556,171.796444 Z M206.027556,169.713778 C208.550222,169.713778 210.339556,168.159111 210.339556,164.961778 L210.339556,162.791111 C210.339556,159.593778 208.550222,158.039111 206.027556,158.039111 C203.504889,158.039111 201.715556,159.593778 201.715556,162.791111 L201.715556,164.961778 C201.715556,168.159111 203.504889,169.713778 206.027556,169.713778 Z M221.310222,171.444444 L219.227556,171.444444 C217.614222,171.444444 216.734222,170.417778 216.734222,169.009778 L216.734222,149.737778 L219.080889,149.737778 L219.080889,169.391111 L221.310222,169.391111 L221.310222,171.444444 Z M230.432889,171.796444 C226.384889,171.796444 223.598222,168.687111 223.598222,163.876444 C223.598222,159.065778 226.384889,155.956444 230.432889,155.956444 C234.480889,155.956444 237.267556,159.065778 237.267556,163.876444 C237.267556,168.687111 234.480889,171.796444 230.432889,171.796444 Z M230.432889,169.713778 C232.955556,169.713778 234.744889,168.159111 234.744889,164.961778 L234.744889,162.791111 C234.744889,159.593778 232.955556,158.039111 230.432889,158.039111 C227.910222,158.039111 226.120889,159.593778 226.120889,162.791111 L226.120889,164.961778 C226.120889,168.159111 227.910222,169.713778 230.432889,169.713778 Z M243.486222,171.444444 L241.139556,171.444444 L241.139556,156.308444 L243.486222,156.308444 L243.486222,159.095111 L243.632889,159.095111 C244.160889,157.657778 245.539556,156.308444 248.003556,156.308444 L248.912889,156.308444 L248.912889,158.655111 L247.534222,158.655111 C245.011556,158.655111 243.486222,159.740444 243.486222,161.177778 L243.486222,171.444444 Z M81.5368889,208.111111 L81.5368889,195.028444 L79.0728889,195.028444 L79.0728889,192.975111 L81.5368889,192.975111 L81.5368889,189.924444 C81.5368889,187.841778 82.6222222,186.404444 84.8515556,186.404444 L87.1395556,186.404444 L87.1395556,188.457778 L83.8835556,188.457778 L83.8835556,192.975111 L87.1395556,192.975111 L87.1395556,195.028444 L83.8835556,195.028444 L83.8835556,208.111111 L81.5368889,208.111111 Z M95.8222222,208.463111 C91.7742222,208.463111 88.9875556,205.353778 88.9875556,200.543111 C88.9875556,195.732444 91.7742222,192.623111 95.8222222,192.623111 C99.8702222,192.623111 102.656889,195.732444 102.656889,200.543111 C102.656889,205.353778 99.8702222,208.463111 95.8222222,208.463111 Z M95.8222222,206.380444 C98.3448889,206.380444 100.134222,204.825778 100.134222,201.628444 L100.134222,199.457778 C100.134222,196.260444 98.3448889,194.705778 95.8222222,194.705778 C93.2995556,194.705778 91.5102222,196.260444 91.5102222,199.457778 L91.5102222,201.628444 C91.5102222,204.825778 93.2995556,206.380444 95.8222222,206.380444 Z M108.875556,208.111111 L106.528889,208.111111 L106.528889,192.975111 L108.875556,192.975111 L108.875556,195.761778 L109.022222,195.761778 C109.550222,194.324444 110.928889,192.975111 113.392889,192.975111 L114.302222,192.975111 L114.302222,195.321778 L112.923556,195.321778 C110.400889,195.321778 108.875556,196.407111 108.875556,197.844444 L108.875556,208.111111 Z M130.494222,208.111111 L127.560889,208.111111 C125.947556,208.111111 125.067556,207.084444 125.067556,205.617778 L125.067556,195.028444 L122.574222,195.028444 L122.574222,192.975111 L123.982222,192.975111 C124.979556,192.975111 125.302222,192.623111 125.302222,191.596444 L125.302222,188.780444 L127.414222,188.780444 L127.414222,192.975111 L130.728889,192.975111 L130.728889,195.028444 L127.414222,195.028444 L127.414222,206.057778 L130.494222,206.057778 L130.494222,208.111111 Z M140.086222,208.463111 C135.979556,208.463111 133.280889,205.353778 133.280889,200.543111 C133.280889,195.732444 135.979556,192.623111 140.086222,192.623111 C144.134222,192.623111 146.627556,195.732444 146.627556,200.015111 L146.627556,201.129778 L135.744889,201.129778 L135.744889,201.833778 C135.744889,204.444444 137.416889,206.409778 140.232889,206.409778 C142.139556,206.409778 143.606222,205.471111 144.398222,203.799111 L146.070222,205.001778 C145.102222,207.055111 142.931556,208.463111 140.086222,208.463111 Z M140.086222,194.588444 C137.534222,194.588444 135.744889,196.524444 135.744889,199.164444 L135.744889,199.369778 L144.104889,199.369778 L144.104889,199.047111 C144.104889,196.377778 142.491556,194.588444 140.086222,194.588444 Z M148.270222,208.111111 L153.872889,200.484444 L148.504889,192.975111 L151.262222,192.975111 L155.104889,198.607111 L155.192889,198.607111 L159.182222,192.975111 L161.792889,192.975111 L156.454222,200.308444 L161.910222,208.111111 L159.152889,208.111111 L155.222222,202.185778 L155.134222,202.185778 L150.880889,208.111111 L148.270222,208.111111 Z M171.296889,208.111111 L168.363556,208.111111 C166.750222,208.111111 165.870222,207.084444 165.870222,205.617778 L165.870222,195.028444 L163.376889,195.028444 L163.376889,192.975111 L164.784889,192.975111 C165.782222,192.975111 166.104889,192.623111 166.104889,191.596444 L166.104889,188.780444 L168.216889,188.780444 L168.216889,192.975111 L171.531556,192.975111 L171.531556,195.028444 L168.216889,195.028444 L168.216889,206.057778 L171.296889,206.057778 L171.296889,208.111111 Z" id="Neutral-color-for-te-Copy-2" fill="#F3F3F3"></path>
        </g>
    </g>
</svg>