<?xml version="1.0" encoding="UTF-8"?>
<svg width="352px" height="352px" viewBox="0 0 352 352" version="1.1" xmlns="http://www.w3.org/2000/svg" xmlns:xlink="http://www.w3.org/1999/xlink">
    <!-- Generator: Sketch 52.4 (67378) - http://www.bohemiancoding.com/sketch -->
    <title>Typography_overview_Type-color-1</title>
    <desc>Created with Sketch.</desc>
    <g id="Type-color-1" stroke="none" stroke-width="1" fill="none" fill-rule="evenodd">
        <rect fill="#FFFFFF" x="0" y="0" width="352" height="352"></rect>
        <polygon id="Rectangle-16-Copy-169" points="0 0 352 0 352 352 0 352"></polygon>
        <g id="Group" transform="translate(78.000000, 124.000000)" fill="#3D3D3D">
            <path d="M15.3875556,30.3333333 L7.90755556,17.8373333 L5.44355556,13.2906667 L5.35555556,13.2906667 L5.35555556,30.3333333 L2.95022222,30.3333333 L2.95022222,9.85866667 L5.79555556,9.85866667 L13.2755556,22.3546667 L15.7395556,26.9013333 L15.8275556,26.9013333 L15.8275556,9.85866667 L18.2328889,9.85866667 L18.2328889,30.3333333 L15.3875556,30.3333333 Z M29.1448889,30.6853333 C25.0382222,30.6853333 22.3395556,27.576 22.3395556,22.7653333 C22.3395556,17.9546667 25.0382222,14.8453333 29.1448889,14.8453333 C33.1928889,14.8453333 35.6862222,17.9546667 35.6862222,22.2373333 L35.6862222,23.352 L24.8035556,23.352 L24.8035556,24.056 C24.8035556,26.6666667 26.4755556,28.632 29.2915556,28.632 C31.1982222,28.632 32.6648889,27.6933333 33.4568889,26.0213333 L35.1288889,27.224 C34.1608889,29.2773333 31.9902222,30.6853333 29.1448889,30.6853333 Z M29.1448889,16.8106667 C26.5928889,16.8106667 24.8035556,18.7466667 24.8035556,21.3866667 L24.8035556,21.592 L33.1635556,21.592 L33.1635556,21.2693333 C33.1635556,18.6 31.5502222,16.8106667 29.1448889,16.8106667 Z M48.8862222,30.3333333 L48.8862222,27.8693333 L48.7688889,27.8693333 C48.1822222,29.3066667 47.0382222,30.6853333 44.5155556,30.6853333 C41.4062222,30.6853333 39.4115556,28.5733333 39.4115556,24.9066667 L39.4115556,15.1973333 L41.7582222,15.1973333 L41.7582222,24.496 C41.7582222,27.1946667 42.9608889,28.5733333 45.2195556,28.5733333 C47.0675556,28.5733333 48.8862222,27.664 48.8862222,25.6693333 L48.8862222,15.1973333 L51.2328889,15.1973333 L51.2328889,30.3333333 L48.8862222,30.3333333 Z M62.4968889,30.3333333 L59.5635556,30.3333333 C57.9502222,30.3333333 57.0702222,29.3066667 57.0702222,27.84 L57.0702222,17.2506667 L54.5768889,17.2506667 L54.5768889,15.1973333 L55.9848889,15.1973333 C56.9822222,15.1973333 57.3048889,14.8453333 57.3048889,13.8186667 L57.3048889,11.0026667 L59.4168889,11.0026667 L59.4168889,15.1973333 L62.7315556,15.1973333 L62.7315556,17.2506667 L59.4168889,17.2506667 L59.4168889,28.28 L62.4968889,28.28 L62.4968889,30.3333333 Z M68.8622222,30.3333333 L66.5155556,30.3333333 L66.5155556,15.1973333 L68.8622222,15.1973333 L68.8622222,17.984 L69.0088889,17.984 C69.5368889,16.5466667 70.9155556,15.1973333 73.3795556,15.1973333 L74.2888889,15.1973333 L74.2888889,17.544 L72.9102222,17.544 C70.3875556,17.544 68.8622222,18.6293333 68.8622222,20.0666667 L68.8622222,30.3333333 Z M89.4835556,30.3333333 L88.1635556,30.3333333 C86.4328889,30.3333333 85.7288889,29.2773333 85.5528889,27.8693333 L85.4062222,27.8693333 C84.7608889,29.7173333 83.1475556,30.6853333 81.0355556,30.6853333 C77.8382222,30.6853333 75.9608889,28.9253333 75.9608889,26.1093333 C75.9608889,23.264 78.0142222,21.68 82.4142222,21.68 L85.4062222,21.68 L85.4062222,20.184 C85.4062222,18.0426667 84.2328889,16.8693333 81.8275556,16.8693333 C80.0088889,16.8693333 78.8062222,17.7493333 77.9848889,19.128 L76.5768889,17.808 C77.3982222,16.1946667 79.2168889,14.8453333 81.9448889,14.8453333 C85.5822222,14.8453333 87.7528889,16.752 87.7528889,19.9493333 L87.7528889,28.28 L89.4835556,28.28 L89.4835556,30.3333333 Z M81.4168889,28.6906667 C83.7342222,28.6906667 85.4062222,27.488 85.4062222,25.9333333 L85.4062222,23.44 L82.2968889,23.44 C79.6275556,23.44 78.4248889,24.2613333 78.4248889,25.728 L78.4248889,26.344 C78.4248889,27.84 79.5982222,28.6906667 81.4168889,28.6906667 Z M97.4035556,30.3333333 L95.3208889,30.3333333 C93.7075556,30.3333333 92.8275556,29.3066667 92.8275556,27.8986667 L92.8275556,8.62666667 L95.1742222,8.62666667 L95.1742222,28.28 L97.4035556,28.28 L97.4035556,30.3333333 Z M113.360889,30.6853333 C109.107556,30.6853333 106.614222,27.6053333 106.614222,22.7653333 C106.614222,17.9253333 109.107556,14.8453333 113.360889,14.8453333 C116.352889,14.8453333 118.142222,16.312 119.022222,18.3946667 L117.056889,19.392 C116.499556,17.8373333 115.208889,16.928 113.360889,16.928 C110.574222,16.928 109.136889,18.8346667 109.136889,21.4746667 L109.136889,24.056 C109.136889,26.696 110.574222,28.6026667 113.360889,28.6026667 C115.267556,28.6026667 116.646222,27.6933333 117.467556,25.9626667 L119.168889,27.1066667 C118.200889,29.2773333 116.235556,30.6853333 113.360889,30.6853333 Z M128.027556,30.6853333 C123.979556,30.6853333 121.192889,27.576 121.192889,22.7653333 C121.192889,17.9546667 123.979556,14.8453333 128.027556,14.8453333 C132.075556,14.8453333 134.862222,17.9546667 134.862222,22.7653333 C134.862222,27.576 132.075556,30.6853333 128.027556,30.6853333 Z M128.027556,28.6026667 C130.550222,28.6026667 132.339556,27.048 132.339556,23.8506667 L132.339556,21.68 C132.339556,18.4826667 130.550222,16.928 128.027556,16.928 C125.504889,16.928 123.715556,18.4826667 123.715556,21.68 L123.715556,23.8506667 C123.715556,27.048 125.504889,28.6026667 128.027556,28.6026667 Z M143.310222,30.3333333 L141.227556,30.3333333 C139.614222,30.3333333 138.734222,29.3066667 138.734222,27.8986667 L138.734222,8.62666667 L141.080889,8.62666667 L141.080889,28.28 L143.310222,28.28 L143.310222,30.3333333 Z M152.432889,30.6853333 C148.384889,30.6853333 145.598222,27.576 145.598222,22.7653333 C145.598222,17.9546667 148.384889,14.8453333 152.432889,14.8453333 C156.480889,14.8453333 159.267556,17.9546667 159.267556,22.7653333 C159.267556,27.576 156.480889,30.6853333 152.432889,30.6853333 Z M152.432889,28.6026667 C154.955556,28.6026667 156.744889,27.048 156.744889,23.8506667 L156.744889,21.68 C156.744889,18.4826667 154.955556,16.928 152.432889,16.928 C149.910222,16.928 148.120889,18.4826667 148.120889,21.68 L148.120889,23.8506667 C148.120889,27.048 149.910222,28.6026667 152.432889,28.6026667 Z M165.486222,30.3333333 L163.139556,30.3333333 L163.139556,15.1973333 L165.486222,15.1973333 L165.486222,17.984 L165.632889,17.984 C166.160889,16.5466667 167.539556,15.1973333 170.003556,15.1973333 L170.912889,15.1973333 L170.912889,17.544 L169.534222,17.544 C167.011556,17.544 165.486222,18.6293333 165.486222,20.0666667 L165.486222,30.3333333 Z M3.53688889,67 L3.53688889,53.9173333 L1.07288889,53.9173333 L1.07288889,51.864 L3.53688889,51.864 L3.53688889,48.8133333 C3.53688889,46.7306667 4.62222222,45.2933333 6.85155556,45.2933333 L9.13955556,45.2933333 L9.13955556,47.3466667 L5.88355556,47.3466667 L5.88355556,51.864 L9.13955556,51.864 L9.13955556,53.9173333 L5.88355556,53.9173333 L5.88355556,67 L3.53688889,67 Z M17.8222222,67.352 C13.7742222,67.352 10.9875556,64.2426667 10.9875556,59.432 C10.9875556,54.6213333 13.7742222,51.512 17.8222222,51.512 C21.8702222,51.512 24.6568889,54.6213333 24.6568889,59.432 C24.6568889,64.2426667 21.8702222,67.352 17.8222222,67.352 Z M17.8222222,65.2693333 C20.3448889,65.2693333 22.1342222,63.7146667 22.1342222,60.5173333 L22.1342222,58.3466667 C22.1342222,55.1493333 20.3448889,53.5946667 17.8222222,53.5946667 C15.2995556,53.5946667 13.5102222,55.1493333 13.5102222,58.3466667 L13.5102222,60.5173333 C13.5102222,63.7146667 15.2995556,65.2693333 17.8222222,65.2693333 Z M30.8755556,67 L28.5288889,67 L28.5288889,51.864 L30.8755556,51.864 L30.8755556,54.6506667 L31.0222222,54.6506667 C31.5502222,53.2133333 32.9288889,51.864 35.3928889,51.864 L36.3022222,51.864 L36.3022222,54.2106667 L34.9235556,54.2106667 C32.4008889,54.2106667 30.8755556,55.296 30.8755556,56.7333333 L30.8755556,67 Z M52.4942222,67 L49.5608889,67 C47.9475556,67 47.0675556,65.9733333 47.0675556,64.5066667 L47.0675556,53.9173333 L44.5742222,53.9173333 L44.5742222,51.864 L45.9822222,51.864 C46.9795556,51.864 47.3022222,51.512 47.3022222,50.4853333 L47.3022222,47.6693333 L49.4142222,47.6693333 L49.4142222,51.864 L52.7288889,51.864 L52.7288889,53.9173333 L49.4142222,53.9173333 L49.4142222,64.9466667 L52.4942222,64.9466667 L52.4942222,67 Z M62.0862222,67.352 C57.9795556,67.352 55.2808889,64.2426667 55.2808889,59.432 C55.2808889,54.6213333 57.9795556,51.512 62.0862222,51.512 C66.1342222,51.512 68.6275556,54.6213333 68.6275556,58.904 L68.6275556,60.0186667 L57.7448889,60.0186667 L57.7448889,60.7226667 C57.7448889,63.3333333 59.4168889,65.2986667 62.2328889,65.2986667 C64.1395556,65.2986667 65.6062222,64.36 66.3982222,62.688 L68.0702222,63.8906667 C67.1022222,65.944 64.9315556,67.352 62.0862222,67.352 Z M62.0862222,53.4773333 C59.5342222,53.4773333 57.7448889,55.4133333 57.7448889,58.0533333 L57.7448889,58.2586667 L66.1048889,58.2586667 L66.1048889,57.936 C66.1048889,55.2666667 64.4915556,53.4773333 62.0862222,53.4773333 Z M70.2702222,67 L75.8728889,59.3733333 L70.5048889,51.864 L73.2622222,51.864 L77.1048889,57.496 L77.1928889,57.496 L81.1822222,51.864 L83.7928889,51.864 L78.4542222,59.1973333 L83.9102222,67 L81.1528889,67 L77.2222222,61.0746667 L77.1342222,61.0746667 L72.8808889,67 L70.2702222,67 Z M93.2968889,67 L90.3635556,67 C88.7502222,67 87.8702222,65.9733333 87.8702222,64.5066667 L87.8702222,53.9173333 L85.3768889,53.9173333 L85.3768889,51.864 L86.7848889,51.864 C87.7822222,51.864 88.1048889,51.512 88.1048889,50.4853333 L88.1048889,47.6693333 L90.2168889,47.6693333 L90.2168889,51.864 L93.5315556,51.864 L93.5315556,53.9173333 L90.2168889,53.9173333 L90.2168889,64.9466667 L93.2968889,64.9466667 L93.2968889,67 Z" id="Neutral-color-for-te-Copy"></path>
        </g>
    </g>
</svg>