<?xml version="1.0" encoding="UTF-8"?>
<svg width="352px" height="352px" viewBox="0 0 352 352" version="1.1" xmlns="http://www.w3.org/2000/svg" xmlns:xlink="http://www.w3.org/1999/xlink">
    <!-- Generator: Sketch 52.4 (67378) - http://www.bohemiancoding.com/sketch -->
    <title>Typography_overview_Type-color-4</title>
    <desc>Created with Sketch.</desc>
    <g id="Type-color-4" stroke="none" stroke-width="1" fill="none" fill-rule="evenodd">
        <rect fill="#FFFFFF" x="0" y="0" width="352" height="352"></rect>
        <polygon id="Rectangle-16-Copy-170" fill="#252525" points="0 0 352 0 352 352 0 352"></polygon>
        <path d="M88.1662222,171.796444 C83.0035556,171.796444 79.9235556,168.159111 79.9235556,161.324444 C79.9235556,154.489778 83.0035556,150.617778 88.1662222,150.617778 C91.5688889,150.617778 93.9155556,152.260444 95.2062222,155.105778 L93.2115556,156.308444 C92.3902222,154.196444 90.6888889,152.817778 88.1662222,152.817778 C84.6462222,152.817778 82.5635556,155.604444 82.5635556,159.799111 L82.5635556,162.849778 C82.5635556,167.044444 84.6462222,169.596444 88.1662222,169.596444 C90.7768889,169.596444 92.5662222,168.129778 93.3875556,165.900444 L95.3528889,167.132444 C94.0622222,170.007111 91.5688889,171.796444 88.1662222,171.796444 Z M104.651556,171.796444 C100.603556,171.796444 97.8168889,168.687111 97.8168889,163.876444 C97.8168889,159.065778 100.603556,155.956444 104.651556,155.956444 C108.699556,155.956444 111.486222,159.065778 111.486222,163.876444 C111.486222,168.687111 108.699556,171.796444 104.651556,171.796444 Z M104.651556,169.713778 C107.174222,169.713778 108.963556,168.159111 108.963556,164.961778 L108.963556,162.791111 C108.963556,159.593778 107.174222,158.039111 104.651556,158.039111 C102.128889,158.039111 100.339556,159.593778 100.339556,162.791111 L100.339556,164.961778 C100.339556,168.159111 102.128889,169.713778 104.651556,169.713778 Z M119.934222,171.444444 L117.851556,171.444444 C116.238222,171.444444 115.358222,170.417778 115.358222,169.009778 L115.358222,149.737778 L117.704889,149.737778 L117.704889,169.391111 L119.934222,169.391111 L119.934222,171.444444 Z M129.056889,171.796444 C125.008889,171.796444 122.222222,168.687111 122.222222,163.876444 C122.222222,159.065778 125.008889,155.956444 129.056889,155.956444 C133.104889,155.956444 135.891556,159.065778 135.891556,163.876444 C135.891556,168.687111 133.104889,171.796444 129.056889,171.796444 Z M129.056889,169.713778 C131.579556,169.713778 133.368889,168.159111 133.368889,164.961778 L133.368889,162.791111 C133.368889,159.593778 131.579556,158.039111 129.056889,158.039111 C126.534222,158.039111 124.744889,159.593778 124.744889,162.791111 L124.744889,164.961778 C124.744889,168.159111 126.534222,169.713778 129.056889,169.713778 Z M142.110222,171.444444 L139.763556,171.444444 L139.763556,156.308444 L142.110222,156.308444 L142.110222,159.095111 L142.256889,159.095111 C142.784889,157.657778 144.163556,156.308444 146.627556,156.308444 L147.536889,156.308444 L147.536889,158.655111 L146.158222,158.655111 C143.635556,158.655111 142.110222,159.740444 142.110222,161.177778 L142.110222,171.444444 Z M158.624889,152.759111 C157.627556,152.759111 157.187556,152.231111 157.187556,151.439111 L157.187556,151.057778 C157.187556,150.265778 157.627556,149.737778 158.624889,149.737778 C159.622222,149.737778 160.062222,150.265778 160.062222,151.057778 L160.062222,151.439111 C160.062222,152.231111 159.622222,152.759111 158.624889,152.759111 Z M157.451556,171.444444 L157.451556,156.308444 L159.798222,156.308444 L159.798222,171.444444 L157.451556,171.444444 Z M169.331556,171.796444 C166.544889,171.796444 164.696889,170.623111 163.347556,168.833778 L165.019556,167.484444 C166.192889,168.951111 167.600889,169.801778 169.507556,169.801778 C171.502222,169.801778 172.675556,168.892444 172.675556,167.337778 C172.675556,166.164444 172.030222,165.255111 170.035556,164.961778 L168.832889,164.785778 C166.046222,164.375111 163.963556,163.231111 163.963556,160.415111 C163.963556,157.423111 166.280889,155.956444 169.360889,155.956444 C171.795556,155.956444 173.408889,156.865778 174.640889,158.391111 L173.086222,159.799111 C172.411556,158.860444 171.120889,157.951111 169.184889,157.951111 C167.248889,157.951111 166.222222,158.860444 166.222222,160.297778 C166.222222,161.764444 167.248889,162.351111 169.126222,162.644444 L170.299556,162.820444 C173.643556,163.319111 174.934222,164.785778 174.934222,167.073778 C174.934222,170.007111 172.792889,171.796444 169.331556,171.796444 Z M188.339556,171.444444 L185.992889,171.444444 L185.992889,156.308444 L188.339556,156.308444 L188.339556,158.772444 L188.456889,158.772444 C189.190222,157.071111 190.480889,155.956444 192.739556,155.956444 C195.848889,155.956444 197.814222,158.068444 197.814222,161.735111 L197.814222,171.444444 L195.467556,171.444444 L195.467556,162.145778 C195.467556,159.447111 194.294222,158.068444 192.035556,158.068444 C190.158222,158.068444 188.339556,159.007111 188.339556,160.943111 L188.339556,171.444444 Z M208.374222,171.796444 C204.326222,171.796444 201.539556,168.687111 201.539556,163.876444 C201.539556,159.065778 204.326222,155.956444 208.374222,155.956444 C212.422222,155.956444 215.208889,159.065778 215.208889,163.876444 C215.208889,168.687111 212.422222,171.796444 208.374222,171.796444 Z M208.374222,169.713778 C210.896889,169.713778 212.686222,168.159111 212.686222,164.961778 L212.686222,162.791111 C212.686222,159.593778 210.896889,158.039111 208.374222,158.039111 C205.851556,158.039111 204.062222,159.593778 204.062222,162.791111 L204.062222,164.961778 C204.062222,168.159111 205.851556,169.713778 208.374222,169.713778 Z M225.358222,171.444444 L222.424889,171.444444 C220.811556,171.444444 219.931556,170.417778 219.931556,168.951111 L219.931556,158.361778 L217.438222,158.361778 L217.438222,156.308444 L218.846222,156.308444 C219.843556,156.308444 220.166222,155.956444 220.166222,154.929778 L220.166222,152.113778 L222.278222,152.113778 L222.278222,156.308444 L225.592889,156.308444 L225.592889,158.361778 L222.278222,158.361778 L222.278222,169.391111 L225.358222,169.391111 L225.358222,171.444444 Z M237.120889,171.444444 L237.120889,158.361778 L234.656889,158.361778 L234.656889,156.308444 L237.120889,156.308444 L237.120889,153.257778 C237.120889,151.175111 238.206222,149.737778 240.435556,149.737778 L242.723556,149.737778 L242.723556,151.791111 L239.467556,151.791111 L239.467556,156.308444 L242.723556,156.308444 L242.723556,158.361778 L239.467556,158.361778 L239.467556,171.444444 L237.120889,171.444444 Z M251.406222,171.796444 C247.358222,171.796444 244.571556,168.687111 244.571556,163.876444 C244.571556,159.065778 247.358222,155.956444 251.406222,155.956444 C255.454222,155.956444 258.240889,159.065778 258.240889,163.876444 C258.240889,168.687111 255.454222,171.796444 251.406222,171.796444 Z M251.406222,169.713778 C253.928889,169.713778 255.718222,168.159111 255.718222,164.961778 L255.718222,162.791111 C255.718222,159.593778 253.928889,158.039111 251.406222,158.039111 C248.883556,158.039111 247.094222,159.593778 247.094222,162.791111 L247.094222,164.961778 C247.094222,168.159111 248.883556,169.713778 251.406222,169.713778 Z M264.459556,171.444444 L262.112889,171.444444 L262.112889,156.308444 L264.459556,156.308444 L264.459556,159.095111 L264.606222,159.095111 C265.134222,157.657778 266.512889,156.308444 268.976889,156.308444 L269.886222,156.308444 L269.886222,158.655111 L268.507556,158.655111 C265.984889,158.655111 264.459556,159.740444 264.459556,161.177778 L264.459556,171.444444 Z M90.3955556,208.111111 L90.3955556,205.647111 L90.2782222,205.647111 C89.3688889,207.524444 87.9315556,208.463111 85.8488889,208.463111 C82.0648889,208.463111 79.6888889,205.383111 79.6888889,200.543111 C79.6888889,195.703111 82.0648889,192.623111 85.8488889,192.623111 C87.9315556,192.623111 89.4862222,193.532444 90.2782222,195.439111 L90.3955556,195.439111 L90.3955556,186.404444 L92.7422222,186.404444 L92.7422222,208.111111 L90.3955556,208.111111 Z M86.4942222,206.351111 C88.6355556,206.351111 90.3955556,205.236444 90.3955556,203.271111 L90.3955556,197.639111 C90.3955556,195.967111 88.6355556,194.735111 86.4942222,194.735111 C83.8542222,194.735111 82.2115556,196.553778 82.2115556,199.252444 L82.2115556,201.833778 C82.2115556,204.532444 83.8542222,206.351111 86.4942222,206.351111 Z M103.419556,208.463111 C99.3128889,208.463111 96.6142222,205.353778 96.6142222,200.543111 C96.6142222,195.732444 99.3128889,192.623111 103.419556,192.623111 C107.467556,192.623111 109.960889,195.732444 109.960889,200.015111 L109.960889,201.129778 L99.0782222,201.129778 L99.0782222,201.833778 C99.0782222,204.444444 100.750222,206.409778 103.566222,206.409778 C105.472889,206.409778 106.939556,205.471111 107.731556,203.799111 L109.403556,205.001778 C108.435556,207.055111 106.264889,208.463111 103.419556,208.463111 Z M103.419556,194.588444 C100.867556,194.588444 99.0782222,196.524444 99.0782222,199.164444 L99.0782222,199.369778 L107.438222,199.369778 L107.438222,199.047111 C107.438222,196.377778 105.824889,194.588444 103.419556,194.588444 Z M119.464889,208.463111 C115.211556,208.463111 112.718222,205.383111 112.718222,200.543111 C112.718222,195.703111 115.211556,192.623111 119.464889,192.623111 C122.456889,192.623111 124.246222,194.089778 125.126222,196.172444 L123.160889,197.169778 C122.603556,195.615111 121.312889,194.705778 119.464889,194.705778 C116.678222,194.705778 115.240889,196.612444 115.240889,199.252444 L115.240889,201.833778 C115.240889,204.473778 116.678222,206.380444 119.464889,206.380444 C121.371556,206.380444 122.750222,205.471111 123.571556,203.740444 L125.272889,204.884444 C124.304889,207.055111 122.339556,208.463111 119.464889,208.463111 Z M134.131556,208.463111 C130.083556,208.463111 127.296889,205.353778 127.296889,200.543111 C127.296889,195.732444 130.083556,192.623111 134.131556,192.623111 C138.179556,192.623111 140.966222,195.732444 140.966222,200.543111 C140.966222,205.353778 138.179556,208.463111 134.131556,208.463111 Z M134.131556,206.380444 C136.654222,206.380444 138.443556,204.825778 138.443556,201.628444 L138.443556,199.457778 C138.443556,196.260444 136.654222,194.705778 134.131556,194.705778 C131.608889,194.705778 129.819556,196.260444 129.819556,199.457778 L129.819556,201.628444 C129.819556,204.825778 131.608889,206.380444 134.131556,206.380444 Z M147.184889,208.111111 L144.838222,208.111111 L144.838222,192.975111 L147.184889,192.975111 L147.184889,195.761778 L147.331556,195.761778 C147.859556,194.324444 149.238222,192.975111 151.702222,192.975111 L152.611556,192.975111 L152.611556,195.321778 L151.232889,195.321778 C148.710222,195.321778 147.184889,196.407111 147.184889,197.844444 L147.184889,208.111111 Z M167.806222,208.111111 L166.486222,208.111111 C164.755556,208.111111 164.051556,207.055111 163.875556,205.647111 L163.728889,205.647111 C163.083556,207.495111 161.470222,208.463111 159.358222,208.463111 C156.160889,208.463111 154.283556,206.703111 154.283556,203.887111 C154.283556,201.041778 156.336889,199.457778 160.736889,199.457778 L163.728889,199.457778 L163.728889,197.961778 C163.728889,195.820444 162.555556,194.647111 160.150222,194.647111 C158.331556,194.647111 157.128889,195.527111 156.307556,196.905778 L154.899556,195.585778 C155.720889,193.972444 157.539556,192.623111 160.267556,192.623111 C163.904889,192.623111 166.075556,194.529778 166.075556,197.727111 L166.075556,206.057778 L167.806222,206.057778 L167.806222,208.111111 Z M159.739556,206.468444 C162.056889,206.468444 163.728889,205.265778 163.728889,203.711111 L163.728889,201.217778 L160.619556,201.217778 C157.950222,201.217778 156.747556,202.039111 156.747556,203.505778 L156.747556,204.121778 C156.747556,205.617778 157.920889,206.468444 159.739556,206.468444 Z M177.427556,208.111111 L174.494222,208.111111 C172.880889,208.111111 172.000889,207.084444 172.000889,205.617778 L172.000889,195.028444 L169.507556,195.028444 L169.507556,192.975111 L170.915556,192.975111 C171.912889,192.975111 172.235556,192.623111 172.235556,191.596444 L172.235556,188.780444 L174.347556,188.780444 L174.347556,192.975111 L177.662222,192.975111 L177.662222,195.028444 L174.347556,195.028444 L174.347556,206.057778 L177.427556,206.057778 L177.427556,208.111111 Z M182.619556,189.425778 C181.622222,189.425778 181.182222,188.897778 181.182222,188.105778 L181.182222,187.724444 C181.182222,186.932444 181.622222,186.404444 182.619556,186.404444 C183.616889,186.404444 184.056889,186.932444 184.056889,187.724444 L184.056889,188.105778 C184.056889,188.897778 183.616889,189.425778 182.619556,189.425778 Z M181.446222,208.111111 L181.446222,192.975111 L183.792889,192.975111 L183.792889,208.111111 L181.446222,208.111111 Z M194.499556,208.463111 C190.451556,208.463111 187.664889,205.353778 187.664889,200.543111 C187.664889,195.732444 190.451556,192.623111 194.499556,192.623111 C198.547556,192.623111 201.334222,195.732444 201.334222,200.543111 C201.334222,205.353778 198.547556,208.463111 194.499556,208.463111 Z M194.499556,206.380444 C197.022222,206.380444 198.811556,204.825778 198.811556,201.628444 L198.811556,199.457778 C198.811556,196.260444 197.022222,194.705778 194.499556,194.705778 C191.976889,194.705778 190.187556,196.260444 190.187556,199.457778 L190.187556,201.628444 C190.187556,204.825778 191.976889,206.380444 194.499556,206.380444 Z M207.552889,208.111111 L205.206222,208.111111 L205.206222,192.975111 L207.552889,192.975111 L207.552889,195.439111 L207.670222,195.439111 C208.403556,193.737778 209.694222,192.623111 211.952889,192.623111 C215.062222,192.623111 217.027556,194.735111 217.027556,198.401778 L217.027556,208.111111 L214.680889,208.111111 L214.680889,198.812444 C214.680889,196.113778 213.507556,194.735111 211.248889,194.735111 C209.371556,194.735111 207.552889,195.673778 207.552889,197.609778 L207.552889,208.111111 Z" id="Color-is-not-for-dec" fill="#C48AFF"></path>
    </g>
</svg>