<?xml version="1.0" encoding="UTF-8"?>
<svg width="352px" height="352px" viewBox="0 0 352 352" version="1.1" xmlns="http://www.w3.org/2000/svg" xmlns:xlink="http://www.w3.org/1999/xlink">
    <!-- Generator: Sketch 52.4 (67378) - http://www.bohemiancoding.com/sketch -->
    <title>Typography_overview_Type-color-2</title>
    <desc>Created with Sketch.</desc>
    <g id="Type-color-2" stroke="none" stroke-width="1" fill="none" fill-rule="evenodd">
        <rect fill="#FFFFFF" x="0" y="0" width="352" height="352"></rect>
        <polygon id="Rectangle-16-Copy-169" points="0 0 352 0 352 352 0 352"></polygon>
        <path d="M88.1955556,153.111111 L79.9822222,153.111111 L79.9822222,151.057778 L82.8568889,151.057778 L82.8568889,134.689778 L79.9822222,134.689778 L79.9822222,132.636444 L88.1955556,132.636444 L88.1955556,134.689778 L85.3208889,134.689778 L85.3208889,151.057778 L88.1955556,151.057778 L88.1955556,153.111111 Z M94.0915556,131.111111 C95.3235556,131.111111 95.8808889,131.815111 95.8808889,132.841778 L95.8808889,133.252444 C95.8808889,134.836444 94.8835556,137.007111 93.2115556,138.444444 L91.2462222,138.444444 C92.4195556,137.212444 93.1235556,136.185778 93.4462222,134.807111 C92.6542222,134.631111 92.3022222,134.044444 92.3022222,133.252444 L92.3022222,132.841778 C92.3022222,131.815111 92.8595556,131.111111 94.0915556,131.111111 Z M101.630222,153.111111 L99.2835556,153.111111 L99.2835556,137.975111 L101.630222,137.975111 L101.630222,140.439111 L101.747556,140.439111 C102.422222,138.884444 103.478222,137.623111 105.824889,137.623111 C107.819556,137.623111 109.638222,138.532444 110.459556,140.703111 L110.518222,140.703111 C111.075556,139.060444 112.542222,137.623111 115.123556,137.623111 C118.203556,137.623111 120.051556,139.735111 120.051556,143.401778 L120.051556,153.111111 L117.704889,153.111111 L117.704889,143.812444 C117.704889,141.143111 116.678222,139.735111 114.390222,139.735111 C112.542222,139.735111 110.840889,140.673778 110.840889,142.609778 L110.840889,153.111111 L108.494222,153.111111 L108.494222,143.812444 C108.494222,141.113778 107.467556,139.735111 105.238222,139.735111 C103.390222,139.735111 101.630222,140.673778 101.630222,142.609778 L101.630222,153.111111 Z M144.134222,153.111111 L142.814222,153.111111 C141.083556,153.111111 140.379556,152.055111 140.203556,150.647111 L140.056889,150.647111 C139.411556,152.495111 137.798222,153.463111 135.686222,153.463111 C132.488889,153.463111 130.611556,151.703111 130.611556,148.887111 C130.611556,146.041778 132.664889,144.457778 137.064889,144.457778 L140.056889,144.457778 L140.056889,142.961778 C140.056889,140.820444 138.883556,139.647111 136.478222,139.647111 C134.659556,139.647111 133.456889,140.527111 132.635556,141.905778 L131.227556,140.585778 C132.048889,138.972444 133.867556,137.623111 136.595556,137.623111 C140.232889,137.623111 142.403556,139.529778 142.403556,142.727111 L142.403556,151.057778 L144.134222,151.057778 L144.134222,153.111111 Z M136.067556,151.468444 C138.384889,151.468444 140.056889,150.265778 140.056889,148.711111 L140.056889,146.217778 L136.947556,146.217778 C134.278222,146.217778 133.075556,147.039111 133.075556,148.505778 L133.075556,149.121778 C133.075556,150.617778 134.248889,151.468444 136.067556,151.468444 Z M156.747556,153.111111 L154.400889,153.111111 L154.400889,137.975111 L156.747556,137.975111 L156.747556,140.439111 L156.864889,140.439111 C157.539556,138.884444 158.595556,137.623111 160.942222,137.623111 C162.936889,137.623111 164.755556,138.532444 165.576889,140.703111 L165.635556,140.703111 C166.192889,139.060444 167.659556,137.623111 170.240889,137.623111 C173.320889,137.623111 175.168889,139.735111 175.168889,143.401778 L175.168889,153.111111 L172.822222,153.111111 L172.822222,143.812444 C172.822222,141.143111 171.795556,139.735111 169.507556,139.735111 C167.659556,139.735111 165.958222,140.673778 165.958222,142.609778 L165.958222,153.111111 L163.611556,153.111111 L163.611556,143.812444 C163.611556,141.113778 162.584889,139.735111 160.355556,139.735111 C158.507556,139.735111 156.747556,140.673778 156.747556,142.609778 L156.747556,153.111111 Z M192.328889,153.111111 L191.008889,153.111111 C189.278222,153.111111 188.574222,152.055111 188.398222,150.647111 L188.251556,150.647111 C187.606222,152.495111 185.992889,153.463111 183.880889,153.463111 C180.683556,153.463111 178.806222,151.703111 178.806222,148.887111 C178.806222,146.041778 180.859556,144.457778 185.259556,144.457778 L188.251556,144.457778 L188.251556,142.961778 C188.251556,140.820444 187.078222,139.647111 184.672889,139.647111 C182.854222,139.647111 181.651556,140.527111 180.830222,141.905778 L179.422222,140.585778 C180.243556,138.972444 182.062222,137.623111 184.790222,137.623111 C188.427556,137.623111 190.598222,139.529778 190.598222,142.727111 L190.598222,151.057778 L192.328889,151.057778 L192.328889,153.111111 Z M184.262222,151.468444 C186.579556,151.468444 188.251556,150.265778 188.251556,148.711111 L188.251556,146.217778 L185.142222,146.217778 C182.472889,146.217778 181.270222,147.039111 181.270222,148.505778 L181.270222,149.121778 C181.270222,150.617778 182.443556,151.468444 184.262222,151.468444 Z M208.432889,154.783111 C208.432889,157.892444 205.968889,159.329778 201.099556,159.329778 C196.376889,159.329778 194.440889,157.980444 194.440889,155.604444 C194.440889,153.961778 195.350222,153.081778 196.846222,152.671111 L196.846222,152.348444 C195.995556,151.937778 195.496889,151.263111 195.496889,150.236444 C195.496889,148.711111 196.582222,147.977778 198.107556,147.596444 L198.107556,147.479111 C196.318222,146.628444 195.262222,144.956444 195.262222,142.844444 C195.262222,139.764444 197.520889,137.623111 200.952889,137.623111 C202.038222,137.623111 203.006222,137.828444 203.827556,138.209778 L203.827556,137.945778 C203.827556,136.772444 204.326222,135.921778 205.587556,135.921778 L207.846222,135.921778 L207.846222,137.975111 L204.971556,137.975111 L204.971556,138.943111 C206.056889,139.881778 206.702222,141.231111 206.702222,142.844444 C206.702222,145.924444 204.443556,148.065778 200.982222,148.065778 C200.483556,148.065778 199.955556,148.007111 199.515556,147.919111 C198.518222,148.183111 197.520889,148.681778 197.520889,149.620444 C197.520889,150.529778 198.459556,150.764444 199.838222,150.764444 L203.064889,150.764444 C206.819556,150.764444 208.432889,152.289778 208.432889,154.783111 Z M206.232889,154.959111 C206.232889,153.756444 205.440889,152.964444 203.094222,152.964444 L198.048889,152.964444 C197.080889,153.404444 196.640889,154.079111 196.640889,155.017778 C196.640889,156.337778 197.550222,157.423111 199.926222,157.423111 L202.096889,157.423111 C204.707556,157.423111 206.232889,156.601778 206.232889,154.959111 Z M200.982222,146.188444 C202.976889,146.188444 204.238222,145.249778 204.238222,143.255111 L204.238222,142.433778 C204.238222,140.439111 202.976889,139.500444 200.982222,139.500444 C198.987556,139.500444 197.726222,140.439111 197.726222,142.433778 L197.726222,143.255111 C197.726222,145.249778 198.987556,146.188444 200.982222,146.188444 Z M216.675556,153.463111 C212.568889,153.463111 209.870222,150.353778 209.870222,145.543111 C209.870222,140.732444 212.568889,137.623111 216.675556,137.623111 C220.723556,137.623111 223.216889,140.732444 223.216889,145.015111 L223.216889,146.129778 L212.334222,146.129778 L212.334222,146.833778 C212.334222,149.444444 214.006222,151.409778 216.822222,151.409778 C218.728889,151.409778 220.195556,150.471111 220.987556,148.799111 L222.659556,150.001778 C221.691556,152.055111 219.520889,153.463111 216.675556,153.463111 Z M216.675556,139.588444 C214.123556,139.588444 212.334222,141.524444 212.334222,144.164444 L212.334222,144.369778 L220.694222,144.369778 L220.694222,144.047111 C220.694222,141.377778 219.080889,139.588444 216.675556,139.588444 Z M229.435556,153.111111 L227.088889,153.111111 L227.088889,137.975111 L229.435556,137.975111 L229.435556,140.439111 L229.552889,140.439111 C230.286222,138.737778 231.576889,137.623111 233.835556,137.623111 C236.944889,137.623111 238.910222,139.735111 238.910222,143.401778 L238.910222,153.111111 L236.563556,153.111111 L236.563556,143.812444 C236.563556,141.113778 235.390222,139.735111 233.131556,139.735111 C231.254222,139.735111 229.435556,140.673778 229.435556,142.609778 L229.435556,153.111111 Z M250.027556,153.111111 L247.094222,153.111111 C245.480889,153.111111 244.600889,152.084444 244.600889,150.617778 L244.600889,140.028444 L242.107556,140.028444 L242.107556,137.975111 L243.515556,137.975111 C244.512889,137.975111 244.835556,137.623111 244.835556,136.596444 L244.835556,133.780444 L246.947556,133.780444 L246.947556,137.975111 L250.262222,137.975111 L250.262222,140.028444 L246.947556,140.028444 L246.947556,151.057778 L250.027556,151.057778 L250.027556,153.111111 Z M266.366222,153.111111 L265.046222,153.111111 C263.315556,153.111111 262.611556,152.055111 262.435556,150.647111 L262.288889,150.647111 C261.643556,152.495111 260.030222,153.463111 257.918222,153.463111 C254.720889,153.463111 252.843556,151.703111 252.843556,148.887111 C252.843556,146.041778 254.896889,144.457778 259.296889,144.457778 L262.288889,144.457778 L262.288889,142.961778 C262.288889,140.820444 261.115556,139.647111 258.710222,139.647111 C256.891556,139.647111 255.688889,140.527111 254.867556,141.905778 L253.459556,140.585778 C254.280889,138.972444 256.099556,137.623111 258.827556,137.623111 C262.464889,137.623111 264.635556,139.529778 264.635556,142.727111 L264.635556,151.057778 L266.366222,151.057778 L266.366222,153.111111 Z M258.299556,151.468444 C260.616889,151.468444 262.288889,150.265778 262.288889,148.711111 L262.288889,146.217778 L259.179556,146.217778 C256.510222,146.217778 255.307556,147.039111 255.307556,148.505778 L255.307556,149.121778 C255.307556,150.617778 256.480889,151.468444 258.299556,151.468444 Z M85.2622222,190.129778 C82.4755556,190.129778 80.6275556,188.956444 79.2782222,187.167111 L80.9502222,185.817778 C82.1235556,187.284444 83.5315556,188.135111 85.4382222,188.135111 C87.4328889,188.135111 88.6062222,187.225778 88.6062222,185.671111 C88.6062222,184.497778 87.9608889,183.588444 85.9662222,183.295111 L84.7635556,183.119111 C81.9768889,182.708444 79.8942222,181.564444 79.8942222,178.748444 C79.8942222,175.756444 82.2115556,174.289778 85.2915556,174.289778 C87.7262222,174.289778 89.3395556,175.199111 90.5715556,176.724444 L89.0168889,178.132444 C88.3422222,177.193778 87.0515556,176.284444 85.1155556,176.284444 C83.1795556,176.284444 82.1528889,177.193778 82.1528889,178.631111 C82.1528889,180.097778 83.1795556,180.684444 85.0568889,180.977778 L86.2302222,181.153778 C89.5742222,181.652444 90.8648889,183.119111 90.8648889,185.407111 C90.8648889,188.340444 88.7235556,190.129778 85.2622222,190.129778 Z M100.691556,190.129778 C96.5848889,190.129778 93.8862222,187.020444 93.8862222,182.209778 C93.8862222,177.399111 96.5848889,174.289778 100.691556,174.289778 C104.739556,174.289778 107.232889,177.399111 107.232889,181.681778 L107.232889,182.796444 L96.3502222,182.796444 L96.3502222,183.500444 C96.3502222,186.111111 98.0222222,188.076444 100.838222,188.076444 C102.744889,188.076444 104.211556,187.137778 105.003556,185.465778 L106.675556,186.668444 C105.707556,188.721778 103.536889,190.129778 100.691556,190.129778 Z M100.691556,176.255111 C98.1395556,176.255111 96.3502222,178.191111 96.3502222,180.831111 L96.3502222,181.036444 L104.710222,181.036444 L104.710222,180.713778 C104.710222,178.044444 103.096889,176.255111 100.691556,176.255111 Z M113.451556,189.777778 L111.104889,189.777778 L111.104889,174.641778 L113.451556,174.641778 L113.451556,177.105778 L113.568889,177.105778 C114.302222,175.404444 115.592889,174.289778 117.851556,174.289778 C120.960889,174.289778 122.926222,176.401778 122.926222,180.068444 L122.926222,189.777778 L120.579556,189.777778 L120.579556,180.479111 C120.579556,177.780444 119.406222,176.401778 117.147556,176.401778 C115.270222,176.401778 113.451556,177.340444 113.451556,179.276444 L113.451556,189.777778 Z M134.043556,189.777778 L131.110222,189.777778 C129.496889,189.777778 128.616889,188.751111 128.616889,187.284444 L128.616889,176.695111 L126.123556,176.695111 L126.123556,174.641778 L127.531556,174.641778 C128.528889,174.641778 128.851556,174.289778 128.851556,173.263111 L128.851556,170.447111 L130.963556,170.447111 L130.963556,174.641778 L134.278222,174.641778 L134.278222,176.695111 L130.963556,176.695111 L130.963556,187.724444 L134.043556,187.724444 L134.043556,189.777778 Z M143.635556,190.129778 C139.528889,190.129778 136.830222,187.020444 136.830222,182.209778 C136.830222,177.399111 139.528889,174.289778 143.635556,174.289778 C147.683556,174.289778 150.176889,177.399111 150.176889,181.681778 L150.176889,182.796444 L139.294222,182.796444 L139.294222,183.500444 C139.294222,186.111111 140.966222,188.076444 143.782222,188.076444 C145.688889,188.076444 147.155556,187.137778 147.947556,185.465778 L149.619556,186.668444 C148.651556,188.721778 146.480889,190.129778 143.635556,190.129778 Z M143.635556,176.255111 C141.083556,176.255111 139.294222,178.191111 139.294222,180.831111 L139.294222,181.036444 L147.654222,181.036444 L147.654222,180.713778 C147.654222,178.044444 146.040889,176.255111 143.635556,176.255111 Z M156.395556,189.777778 L154.048889,189.777778 L154.048889,174.641778 L156.395556,174.641778 L156.395556,177.105778 L156.512889,177.105778 C157.246222,175.404444 158.536889,174.289778 160.795556,174.289778 C163.904889,174.289778 165.870222,176.401778 165.870222,180.068444 L165.870222,189.777778 L163.523556,189.777778 L163.523556,180.479111 C163.523556,177.780444 162.350222,176.401778 160.091556,176.401778 C158.214222,176.401778 156.395556,177.340444 156.395556,179.276444 L156.395556,189.777778 Z M176.342222,190.129778 C172.088889,190.129778 169.595556,187.049778 169.595556,182.209778 C169.595556,177.369778 172.088889,174.289778 176.342222,174.289778 C179.334222,174.289778 181.123556,175.756444 182.003556,177.839111 L180.038222,178.836444 C179.480889,177.281778 178.190222,176.372444 176.342222,176.372444 C173.555556,176.372444 172.118222,178.279111 172.118222,180.919111 L172.118222,183.500444 C172.118222,186.140444 173.555556,188.047111 176.342222,188.047111 C178.248889,188.047111 179.627556,187.137778 180.448889,185.407111 L182.150222,186.551111 C181.182222,188.721778 179.216889,190.129778 176.342222,190.129778 Z M190.979556,190.129778 C186.872889,190.129778 184.174222,187.020444 184.174222,182.209778 C184.174222,177.399111 186.872889,174.289778 190.979556,174.289778 C195.027556,174.289778 197.520889,177.399111 197.520889,181.681778 L197.520889,182.796444 L186.638222,182.796444 L186.638222,183.500444 C186.638222,186.111111 188.310222,188.076444 191.126222,188.076444 C193.032889,188.076444 194.499556,187.137778 195.291556,185.465778 L196.963556,186.668444 C195.995556,188.721778 193.824889,190.129778 190.979556,190.129778 Z M190.979556,176.255111 C188.427556,176.255111 186.638222,178.191111 186.638222,180.831111 L186.638222,181.036444 L194.998222,181.036444 L194.998222,180.713778 C194.998222,178.044444 193.384889,176.255111 190.979556,176.255111 Z M209.136889,189.777778 L209.136889,176.695111 L206.672889,176.695111 L206.672889,174.641778 L209.136889,174.641778 L209.136889,171.591111 C209.136889,169.508444 210.222222,168.071111 212.451556,168.071111 L214.739556,168.071111 L214.739556,170.124444 L211.483556,170.124444 L211.483556,174.641778 L214.739556,174.641778 L214.739556,176.695111 L211.483556,176.695111 L211.483556,189.777778 L209.136889,189.777778 Z M223.422222,190.129778 C219.374222,190.129778 216.587556,187.020444 216.587556,182.209778 C216.587556,177.399111 219.374222,174.289778 223.422222,174.289778 C227.470222,174.289778 230.256889,177.399111 230.256889,182.209778 C230.256889,187.020444 227.470222,190.129778 223.422222,190.129778 Z M223.422222,188.047111 C225.944889,188.047111 227.734222,186.492444 227.734222,183.295111 L227.734222,181.124444 C227.734222,177.927111 225.944889,176.372444 223.422222,176.372444 C220.899556,176.372444 219.110222,177.927111 219.110222,181.124444 L219.110222,183.295111 C219.110222,186.492444 220.899556,188.047111 223.422222,188.047111 Z M236.475556,189.777778 L234.128889,189.777778 L234.128889,174.641778 L236.475556,174.641778 L236.475556,177.428444 L236.622222,177.428444 C237.150222,175.991111 238.528889,174.641778 240.992889,174.641778 L241.902222,174.641778 L241.902222,176.988444 L240.523556,176.988444 C238.000889,176.988444 236.475556,178.073778 236.475556,179.511111 L236.475556,189.777778 Z M83.0622222,226.444444 L80.7155556,226.444444 L80.7155556,211.308444 L83.0622222,211.308444 L83.0622222,213.772444 L83.1795556,213.772444 C83.9128889,212.071111 85.2035556,210.956444 87.4622222,210.956444 C90.5715556,210.956444 92.5368889,213.068444 92.5368889,216.735111 L92.5368889,226.444444 L90.1902222,226.444444 L90.1902222,217.145778 C90.1902222,214.447111 89.0168889,213.068444 86.7582222,213.068444 C84.8808889,213.068444 83.0622222,214.007111 83.0622222,215.943111 L83.0622222,226.444444 Z M103.096889,226.796444 C99.0488889,226.796444 96.2622222,223.687111 96.2622222,218.876444 C96.2622222,214.065778 99.0488889,210.956444 103.096889,210.956444 C107.144889,210.956444 109.931556,214.065778 109.931556,218.876444 C109.931556,223.687111 107.144889,226.796444 103.096889,226.796444 Z M103.096889,224.713778 C105.619556,224.713778 107.408889,223.159111 107.408889,219.961778 L107.408889,217.791111 C107.408889,214.593778 105.619556,213.039111 103.096889,213.039111 C100.574222,213.039111 98.7848889,214.593778 98.7848889,217.791111 L98.7848889,219.961778 C98.7848889,223.159111 100.574222,224.713778 103.096889,224.713778 Z M123.072889,226.444444 L120.726222,226.444444 L120.726222,211.308444 L123.072889,211.308444 L123.072889,214.095111 L123.219556,214.095111 C123.747556,212.657778 125.126222,211.308444 127.590222,211.308444 L128.499556,211.308444 L128.499556,213.655111 L127.120889,213.655111 C124.598222,213.655111 123.072889,214.740444 123.072889,216.177778 L123.072889,226.444444 Z M137.035556,226.796444 C132.928889,226.796444 130.230222,223.687111 130.230222,218.876444 C130.230222,214.065778 132.928889,210.956444 137.035556,210.956444 C141.083556,210.956444 143.576889,214.065778 143.576889,218.348444 L143.576889,219.463111 L132.694222,219.463111 L132.694222,220.167111 C132.694222,222.777778 134.366222,224.743111 137.182222,224.743111 C139.088889,224.743111 140.555556,223.804444 141.347556,222.132444 L143.019556,223.335111 C142.051556,225.388444 139.880889,226.796444 137.035556,226.796444 Z M137.035556,212.921778 C134.483556,212.921778 132.694222,214.857778 132.694222,217.497778 L132.694222,217.703111 L141.054222,217.703111 L141.054222,217.380444 C141.054222,214.711111 139.440889,212.921778 137.035556,212.921778 Z M159.768889,226.444444 L158.448889,226.444444 C156.718222,226.444444 156.014222,225.388444 155.838222,223.980444 L155.691556,223.980444 C155.046222,225.828444 153.432889,226.796444 151.320889,226.796444 C148.123556,226.796444 146.246222,225.036444 146.246222,222.220444 C146.246222,219.375111 148.299556,217.791111 152.699556,217.791111 L155.691556,217.791111 L155.691556,216.295111 C155.691556,214.153778 154.518222,212.980444 152.112889,212.980444 C150.294222,212.980444 149.091556,213.860444 148.270222,215.239111 L146.862222,213.919111 C147.683556,212.305778 149.502222,210.956444 152.230222,210.956444 C155.867556,210.956444 158.038222,212.863111 158.038222,216.060444 L158.038222,224.391111 L159.768889,224.391111 L159.768889,226.444444 Z M151.702222,224.801778 C154.019556,224.801778 155.691556,223.599111 155.691556,222.044444 L155.691556,219.551111 L152.582222,219.551111 C149.912889,219.551111 148.710222,220.372444 148.710222,221.839111 L148.710222,222.455111 C148.710222,223.951111 149.883556,224.801778 151.702222,224.801778 Z M167.659556,226.796444 C164.872889,226.796444 163.024889,225.623111 161.675556,223.833778 L163.347556,222.484444 C164.520889,223.951111 165.928889,224.801778 167.835556,224.801778 C169.830222,224.801778 171.003556,223.892444 171.003556,222.337778 C171.003556,221.164444 170.358222,220.255111 168.363556,219.961778 L167.160889,219.785778 C164.374222,219.375111 162.291556,218.231111 162.291556,215.415111 C162.291556,212.423111 164.608889,210.956444 167.688889,210.956444 C170.123556,210.956444 171.736889,211.865778 172.968889,213.391111 L171.414222,214.799111 C170.739556,213.860444 169.448889,212.951111 167.512889,212.951111 C165.576889,212.951111 164.550222,213.860444 164.550222,215.297778 C164.550222,216.764444 165.576889,217.351111 167.454222,217.644444 L168.627556,217.820444 C171.971556,218.319111 173.262222,219.785778 173.262222,222.073778 C173.262222,225.007111 171.120889,226.796444 167.659556,226.796444 Z M183.118222,226.796444 C179.070222,226.796444 176.283556,223.687111 176.283556,218.876444 C176.283556,214.065778 179.070222,210.956444 183.118222,210.956444 C187.166222,210.956444 189.952889,214.065778 189.952889,218.876444 C189.952889,223.687111 187.166222,226.796444 183.118222,226.796444 Z M183.118222,224.713778 C185.640889,224.713778 187.430222,223.159111 187.430222,219.961778 L187.430222,217.791111 C187.430222,214.593778 185.640889,213.039111 183.118222,213.039111 C180.595556,213.039111 178.806222,214.593778 178.806222,217.791111 L178.806222,219.961778 C178.806222,223.159111 180.595556,224.713778 183.118222,224.713778 Z M196.171556,226.444444 L193.824889,226.444444 L193.824889,211.308444 L196.171556,211.308444 L196.171556,213.772444 L196.288889,213.772444 C197.022222,212.071111 198.312889,210.956444 200.571556,210.956444 C203.680889,210.956444 205.646222,213.068444 205.646222,216.735111 L205.646222,226.444444 L203.299556,226.444444 L203.299556,217.145778 C203.299556,214.447111 202.126222,213.068444 199.867556,213.068444 C197.990222,213.068444 196.171556,214.007111 196.171556,215.943111 L196.171556,226.444444 Z" id="I’m-a-magenta-senten" fill="#EE538B"></path>
    </g>
</svg>