<?xml version="1.0" encoding="utf-8"?>
<!-- Generator: Adobe Illustrator 22.1.0, SVG Export Plug-In . SVG Version: 6.00 Build 0)  -->
<svg version="1.1" id="Layer_1" xmlns="http://www.w3.org/2000/svg" xmlns:xlink="http://www.w3.org/1999/xlink" x="0px" y="0px"
	 viewBox="0 0 352 352" style="enable-background:new 0 0 352 352;" xml:space="preserve">
<style type="text/css">
	.st0{fill:#FFFFFF;}
	.st1{fill:none;}
	.st2{enable-background:new    ;}
	.st3{fill:#0047E3;}
	.st4{fill:#00BAB6;}
	.st5{fill:#0064FF;}
	.st6{fill:#006EFF;}
	.st7{fill:#393939;}
</style>
<title>Typography_overview_Type-color-8</title>
<desc>Created with Sketch.</desc>
<g id="Type-color-8">
	<rect class="st0" width="352" height="352"/>
	<g id="Color-type-for-specific-usage---Dont">
		<rect id="Rectangle-16-Copy-153" class="st1" width="352" height="352"/>
		<g class="st2">
			<path class="st3" d="M62,148.1v-2l10.5-6.1v2l-8.7,4.9v0.2l8.7,4.9v2.1L62,148.1z"/>
			<path class="st3" d="M76.9,141.9h2v2.1h0.1c0.8-1.5,2.1-2.3,3.9-2.3c3.1,0,4.9,2.5,4.9,6.6s-1.9,6.6-4.9,6.6
				c-1.8,0-3.1-0.8-3.9-2.3h-0.1v6.9h-2V141.9z M85.7,149.3v-2.2c0-2.3-1.3-3.8-3.6-3.8c-1.7,0-3.2,0.9-3.2,2.6v4.5
				c0,1.7,1.5,2.6,3.2,2.6C84.3,153.1,85.7,151.6,85.7,149.3z"/>
		</g>
		<g class="st2">
			<path class="st4" d="M105.9,148.2c0-4,2.1-6.6,5.7-6.6c2.4,0,4,1.2,4.7,2.9l-1.6,0.8c-0.5-1.3-1.5-2.1-3.1-2.1
				c-2.3,0-3.6,1.6-3.6,3.8v2.2c0,2.2,1.3,3.8,3.6,3.8c1.7,0,2.8-0.8,3.4-2.2l1.4,1c-0.7,1.7-2.3,2.9-4.8,2.9
				C108,154.8,105.9,152.2,105.9,148.2z"/>
			<path class="st4" d="M120.5,152.9h4.4v-14.8h-4.4v-1.7h6.4v16.4h4.4v1.7h-10.8V152.9z"/>
			<path class="st4" d="M145.3,154.6c-1.5,0-2.1-0.9-2.2-2.1H143c-0.5,1.4-1.7,2.3-3.8,2.3c-2.6,0-4.3-1.5-4.3-3.8
				c0-2.3,1.6-3.7,5.4-3.7h2.7v-1.2c0-1.8-1.1-2.8-3-2.8c-1.7,0-2.7,0.7-3.4,1.9l-1.3-1c0.6-1.3,2.2-2.5,4.8-2.5
				c3,0,4.8,1.6,4.8,4.3v6.9h1.8v1.7H145.3z M143,150.9v-2.1h-2.7c-2.3,0-3.4,0.7-3.4,1.9v0.5c0,1.3,1,2,2.6,2
				C141.5,153.2,143,152.2,143,150.9z"/>
			<path class="st4" d="M149.5,152.4l1.3-1.1c1.2,1.3,2.6,2,4.6,2c2,0,3.3-0.7,3.3-2.2c0-1.3-1.1-1.7-2.2-1.8l-2-0.3
				c-1.8-0.3-4.3-0.8-4.3-3.5c0-2.5,2.2-3.8,5.1-3.8c2.3,0,3.9,0.8,5.1,2l-1.3,1.2c-0.6-0.7-1.7-1.6-3.9-1.6c-2,0-3.1,0.7-3.1,2
				c0,1.3,1.1,1.7,2.2,1.8l2,0.3c1.8,0.3,4.3,0.8,4.3,3.5c0,2.5-2.1,3.9-5.3,3.9C152.7,154.8,150.8,153.9,149.5,152.4z"/>
			<path class="st4" d="M164.2,152.4l1.3-1.1c1.2,1.3,2.6,2,4.6,2c2,0,3.3-0.7,3.3-2.2c0-1.3-1.1-1.7-2.2-1.8l-2-0.3
				c-1.8-0.3-4.3-0.8-4.3-3.5c0-2.5,2.2-3.8,5.1-3.8c2.3,0,3.9,0.8,5.1,2l-1.3,1.2c-0.6-0.7-1.7-1.6-3.9-1.6c-2,0-3.1,0.7-3.1,2
				c0,1.3,1.1,1.7,2.2,1.8l2,0.3c1.8,0.3,4.3,0.8,4.3,3.5c0,2.5-2.1,3.9-5.3,3.9C167.4,154.8,165.5,153.9,164.2,152.4z"/>
		</g>
		<g class="st2">
			<path class="st5" d="M178.7,145.5v-1.7h11.6v1.7H178.7z M178.7,150.4v-1.7h11.6v1.7H178.7z"/>
		</g>
		<g class="st2">
			<path class="st6" d="M196.7,136.5h1.6l-1.3,6.8h-3.2L196.7,136.5z M202.5,136.5h1.6l-1.3,6.8h-3.2L202.5,136.5z"/>
			<path class="st6" d="M209.1,152.9h4.5v-9.3h-4.5v-1.7h6.5v11h4.3v1.7h-10.8V152.9z M213.1,137.9v-0.4c0-0.7,0.4-1.2,1.5-1.2
				c1.1,0,1.5,0.5,1.5,1.2v0.4c0,0.7-0.4,1.2-1.5,1.2C213.5,139.2,213.1,138.6,213.1,137.9z"/>
			<path class="st6" d="M223.5,136.5h2v7.5h0.1c0.8-1.5,2.1-2.3,3.9-2.3c3.1,0,4.9,2.5,4.9,6.6s-1.9,6.6-4.9,6.6
				c-1.8,0-3.1-0.8-3.9-2.3h-0.1v2.1h-2V136.5z M232.3,149.3v-2.2c0-2.3-1.3-3.8-3.6-3.8c-1.7,0-3.2,0.9-3.2,2.6v4.5
				c0,1.7,1.5,2.6,3.2,2.6C231,153.1,232.3,151.6,232.3,149.3z"/>
			<path class="st6" d="M237.2,154.6v-12.6h1.8v1.5h0.1c0.4-1,1-1.8,2.4-1.8c1.4,0,2.2,0.8,2.3,2h0.1c0.5-1.1,1.2-2,2.7-2
				c2.1,0,2.6,1.5,2.6,4.2v8.8h-1.8v-8.4c0-2.2-0.4-2.9-1.5-2.9c-1,0-1.8,0.7-1.8,2v9.3h-1.8v-8.4c0-2.2-0.4-2.9-1.5-2.9
				c-1.1,0-1.8,0.7-1.8,2v9.3H237.2z"/>
			<path class="st6" d="M254.3,148.2v-2.1h7.1v2.1H254.3z"/>
		</g>
		<g class="st2">
			<path class="st6" d="M67.8,186.3c-1.9,0-2.8-1.2-2.8-2.9v-8.1h-4.2v-1.7H64c0.8,0,1.1-0.3,1.1-1.1v-3.3H67v4.4h5.7v1.7H67v9.3
				h5.7v1.7H67.8z"/>
			<path class="st6" d="M86,173.7h2l-6.3,15.4c-0.6,1.4-1.3,2.1-3.2,2.1h-1.9v-1.7h2.9l1.4-3.5l-5.1-12.4h2L80,179l1.9,4.8H82
				l1.9-4.8L86,173.7z"/>
			<path class="st6" d="M91.5,173.7h2v2.1h0.1c0.8-1.5,2.1-2.3,3.9-2.3c3.1,0,4.9,2.5,4.9,6.6c0,4.1-1.9,6.6-4.9,6.6
				c-1.8,0-3.1-0.8-3.9-2.3h-0.1v6.9h-2V173.7z M100.3,181.1V179c0-2.3-1.3-3.8-3.6-3.8c-1.7,0-3.2,0.9-3.2,2.6v4.5
				c0,1.7,1.5,2.6,3.2,2.6C99,184.9,100.3,183.4,100.3,181.1z"/>
			<path class="st6" d="M105.5,180.1c0-4,2.4-6.6,5.8-6.6c3.4,0,5.6,2.6,5.6,6.2v0.9h-9.3v0.6c0,2.2,1.5,3.8,3.9,3.8
				c1.7,0,3-0.8,3.6-2.2l1.4,1c-0.8,1.7-2.6,2.9-5.1,2.9C107.8,186.6,105.5,184,105.5,180.1z M107.6,178.9v0.2h7.2v-0.3
				c0-2.2-1.4-3.7-3.5-3.7C109.2,175,107.6,176.7,107.6,178.9z"/>
			<path class="st6" d="M122.3,179.9v-2.1h7.1v2.1H122.3z"/>
			<path class="st6" d="M134.5,186.3v-12.6h1.8v1.5h0.1c0.4-1,1-1.8,2.4-1.8c1.4,0,2.2,0.8,2.3,2h0.1c0.5-1.1,1.2-2,2.7-2
				c2.1,0,2.6,1.5,2.6,4.2v8.8h-1.8v-8.4c0-2.2-0.4-2.9-1.5-2.9c-1,0-1.8,0.7-1.8,2v9.3h-1.8v-8.4c0-2.2-0.4-2.9-1.5-2.9
				c-1.1,0-1.8,0.7-1.8,2v9.3H134.5z"/>
			<path class="st6" d="M149.5,180c0-4,2.2-6.6,5.7-6.6s5.7,2.6,5.7,6.6c0,4-2.2,6.6-5.7,6.6S149.5,184,149.5,180z M158.9,180.9
				v-1.8c0-2.7-1.5-4-3.6-4c-2.2,0-3.6,1.3-3.6,4v1.8c0,2.7,1.5,4,3.6,4C157.4,184.9,158.9,183.6,158.9,180.9z"/>
			<path class="st6" d="M164.9,186.3v-12.6h2v2.1h0.1c0.5-1.2,1.5-2.3,3.6-2.3c2.6,0,4.4,1.8,4.4,4.8v8.1h-2v-7.7
				c0-2.3-1.1-3.4-3-3.4c-1.6,0-3.1,0.8-3.1,2.4v8.8H164.9z"/>
			<path class="st6" d="M178.8,180c0-4,2.2-6.6,5.7-6.6c3.5,0,5.7,2.6,5.7,6.6c0,4-2.2,6.6-5.7,6.6C181,186.6,178.8,184,178.8,180z
				 M188.2,180.9v-1.8c0-2.7-1.5-4-3.6-4s-3.6,1.3-3.6,4v1.8c0,2.7,1.5,4,3.6,4S188.2,183.6,188.2,180.9z"/>
			<path class="st6" d="M195.8,168.2h3.2l-2.8,6.8h-1.6L195.8,168.2z M201.7,168.2h3.2l-2.8,6.8h-1.6L201.7,168.2z"/>
		</g>
		<g class="st2">
			<path class="st3" d="M208.6,183.9l8.7-4.9v-0.2l-8.7-4.9v-2.1l10.5,6.1v2l-10.5,6.1V183.9z"/>
		</g>
		<g class="st2">
			<path class="st7" d="M223.3,180c0-4,2.1-6.6,5.7-6.6c2.4,0,4,1.2,4.7,2.9l-1.6,0.8c-0.5-1.3-1.5-2.1-3.1-2.1
				c-2.3,0-3.6,1.6-3.6,3.8v2.2c0,2.2,1.3,3.8,3.6,3.8c1.7,0,2.8-0.8,3.4-2.2l1.4,1c-0.7,1.7-2.3,2.9-4.8,2.9
				C225.4,186.6,223.3,184,223.3,180z"/>
			<path class="st7" d="M237.5,180c0-4,2.2-6.6,5.7-6.6c3.5,0,5.7,2.6,5.7,6.6c0,4-2.2,6.6-5.7,6.6C239.7,186.6,237.5,184,237.5,180
				z M246.9,180.9v-1.8c0-2.7-1.5-4-3.6-4c-2.2,0-3.6,1.3-3.6,4v1.8c0,2.7,1.5,4,3.6,4C245.4,184.9,246.9,183.6,246.9,180.9z"/>
			<path class="st7" d="M260.9,184.3L260.9,184.3c-0.9,1.5-2.2,2.3-4,2.3c-3.1,0-4.9-2.5-4.9-6.6c0-4.1,1.9-6.6,4.9-6.6
				c1.8,0,3.1,0.8,3.9,2.3h0.1v-7.5h2v18.1h-2V184.3z M260.9,182.3v-4.5c0-1.7-1.5-2.6-3.2-2.6c-2.3,0-3.6,1.5-3.6,3.8v2.2
				c0,2.3,1.3,3.8,3.6,3.8C259.5,184.9,260.9,184,260.9,182.3z"/>
			<path class="st7" d="M266.9,180.1c0-4,2.4-6.6,5.8-6.6c3.4,0,5.6,2.6,5.6,6.2v0.9h-9.3v0.6c0,2.2,1.5,3.8,3.9,3.8
				c1.7,0,3-0.8,3.6-2.2l1.4,1c-0.8,1.7-2.6,2.9-5.1,2.9C269.2,186.6,266.9,184,266.9,180.1z M268.9,178.9v0.2h7.2v-0.3
				c0-2.2-1.4-3.7-3.5-3.7C270.5,175,268.9,176.7,268.9,178.9z"/>
		</g>
		<g class="st2">
			<path class="st7" d="M61.5,215.9l1.3-1.1c1.2,1.3,2.6,2,4.6,2c2,0,3.3-0.7,3.3-2.2c0-1.3-1.1-1.7-2.2-1.8l-2-0.3
				c-1.8-0.3-4.3-0.8-4.3-3.5c0-2.5,2.2-3.8,5.1-3.8c2.3,0,3.9,0.8,5.1,2l-1.3,1.2c-0.6-0.7-1.7-1.6-3.9-1.6c-2,0-3.1,0.7-3.1,2
				c0,1.3,1.1,1.7,2.2,1.8l2,0.3c1.8,0.3,4.3,0.8,4.3,3.5c0,2.5-2.1,3.9-5.3,3.9C64.7,218.4,62.8,217.4,61.5,215.9z"/>
			<path class="st7" d="M77,218.1v-12.6h2v2.1H79c0.5-1.2,1.5-2.3,3.6-2.3c2.6,0,4.4,1.8,4.4,4.8v8.1h-2v-7.7c0-2.3-1.1-3.4-3-3.4
				c-1.6,0-3.1,0.8-3.1,2.4v8.8H77z"/>
			<path class="st7" d="M91.8,216.4h4.5v-9.3h-4.5v-1.7h6.5v11h4.3v1.7H91.8V216.4z M95.8,201.5v-0.4c0-0.7,0.4-1.2,1.5-1.2
				s1.5,0.5,1.5,1.2v0.4c0,0.7-0.4,1.2-1.5,1.2S95.8,202.2,95.8,201.5z"/>
			<path class="st7" d="M106.2,205.5h2v2.1h0.1c0.8-1.5,2.1-2.3,3.9-2.3c3.1,0,4.9,2.5,4.9,6.6s-1.9,6.6-4.9,6.6
				c-1.8,0-3.1-0.8-3.9-2.3h-0.1v6.9h-2V205.5z M115,212.9v-2.2c0-2.3-1.3-3.8-3.6-3.8c-1.7,0-3.2,0.9-3.2,2.6v4.5
				c0,1.7,1.5,2.6,3.2,2.6C113.7,216.7,115,215.2,115,212.9z"/>
			<path class="st7" d="M120.9,205.5h2v2.1h0.1c0.8-1.5,2.1-2.3,3.9-2.3c3.1,0,4.9,2.5,4.9,6.6s-1.9,6.6-4.9,6.6
				c-1.8,0-3.1-0.8-3.9-2.3h-0.1v6.9h-2V205.5z M129.7,212.9v-2.2c0-2.3-1.3-3.8-3.6-3.8c-1.7,0-3.2,0.9-3.2,2.6v4.5
				c0,1.7,1.5,2.6,3.2,2.6C128.3,216.7,129.7,215.2,129.7,212.9z"/>
			<path class="st7" d="M134.9,211.8c0-4,2.4-6.6,5.8-6.6c3.4,0,5.6,2.6,5.6,6.2v0.9h-9.3v0.6c0,2.2,1.5,3.8,3.9,3.8
				c1.7,0,3-0.8,3.6-2.2l1.4,1c-0.8,1.7-2.6,2.9-5.1,2.9C137.2,218.4,134.9,215.8,134.9,211.8z M136.9,210.7v0.2h7.2v-0.3
				c0-2.2-1.4-3.7-3.5-3.7C138.5,206.8,136.9,208.5,136.9,210.7z"/>
			<path class="st7" d="M155.8,218.1c-1.9,0-2.8-1.2-2.8-2.9v-8.1h-4.2v-1.7h3.1c0.8,0,1.1-0.3,1.1-1.1V201h1.9v4.4h5.7v1.7H155v9.3
				h5.7v1.7H155.8z"/>
		</g>
		<g class="st2">
			<path class="st3" d="M164.6,211.6v-2l10.5-6.1v2l-8.7,4.9v0.2l8.7,4.9v2.1L164.6,211.6z"/>
			<path class="st3" d="M179.4,221.5l8.5-22h1.8l-8.5,22H179.4z"/>
			<path class="st3" d="M194.2,205.5h2v2.1h0.1c0.8-1.5,2.1-2.3,3.9-2.3c3.1,0,4.9,2.5,4.9,6.6s-1.9,6.6-4.9,6.6
				c-1.8,0-3.1-0.8-3.9-2.3h-0.1v6.9h-2V205.5z M203,212.9v-2.2c0-2.3-1.3-3.8-3.6-3.8c-1.7,0-3.2,0.9-3.2,2.6v4.5
				c0,1.7,1.5,2.6,3.2,2.6C201.7,216.7,203,215.2,203,212.9z"/>
			<path class="st3" d="M208.6,215.7l8.7-4.9v-0.2l-8.7-4.9v-2.1l10.5,6.1v2l-10.5,6.1V215.7z"/>
		</g>
	</g>
</g>
</svg>
