<?xml version="1.0" encoding="iso-8859-1"?>
<!-- Generator: Adobe Illustrator 22.0.0, SVG Export Plug-In . SVG Version: 6.00 Build 0)  -->
<svg version="1.1" xmlns="http://www.w3.org/2000/svg" xmlns:xlink="http://www.w3.org/1999/xlink" x="0px" y="0px"
	 viewBox="0 0 48 48" style="enable-background:new 0 0 48 48;" xml:space="preserve">
<g id="transform">
	<g id="transform_1_">
		<path style="fill:none;stroke:#000000;stroke-width:0.72;stroke-linecap:round;stroke-linejoin:round;stroke-miterlimit:10;" d="
			M21,39H9V27h12V39z M33,28.168c3.532-1.543,6-5.067,6-9.168c0-5.523-4.477-10-10-10c-4.101,0-7.625,2.468-9.168,6"/>
		<g>
			<g>
				
					<line style="fill:none;stroke:#000000;stroke-width:0.72;stroke-linecap:round;stroke-linejoin:round;" x1="15" y1="25" x2="15" y2="24.99"/>
				
					<path style="fill:none;stroke:#000000;stroke-width:0.72;stroke-linecap:round;stroke-linejoin:round;stroke-dasharray:0.0202,2.0182;" d="
					M15,22.972V21c0-2.2,1.8-4,4-4h8c2.2,0,4,1.8,4,4v8c0,2.2-1.8,4-4,4h-2.976"/>
				
					<line style="fill:none;stroke:#000000;stroke-width:0.72;stroke-linecap:round;stroke-linejoin:round;" x1="23.014" y1="33" x2="23.004" y2="33"/>
			</g>
		</g>
	</g>
</g>
<g id="Layer_1">
</g>
</svg>
