<?xml version="1.0" encoding="iso-8859-1"?>
<!-- Generator: Adobe Illustrator 24.3.0, SVG Export Plug-In . SVG Version: 6.00 Build 0)  -->
<svg version="1.1" id="Layer_1" xmlns="http://www.w3.org/2000/svg" xmlns:xlink="http://www.w3.org/1999/xlink" x="0px" y="0px"
	 viewBox="0 0 32 32" style="enable-background:new 0 0 32 32;" xml:space="preserve">
<path id="accelerated-computing_1_" d="M19,29.36c-3.401,0-6.596-1.506-8.764-4.131l0.556-0.459c2.03,2.459,5.022,3.869,8.208,3.869
	c5.867,0,10.64-4.772,10.64-10.64c0-5.867-4.772-10.64-10.64-10.64c-3.186,0-6.177,1.411-8.208,3.87l-0.555-0.459
	c2.091-2.532,5.137-4.022,8.403-4.125V5.36H16c-0.199,0-0.36-0.161-0.36-0.36V3c0-0.199,0.161-0.36,0.36-0.36h6
	c0.199,0,0.36,0.161,0.36,0.36v2c0,0.199-0.161,0.36-0.36,0.36h-2.64v1.286c6.098,0.191,11,5.211,11,11.354
	C30.36,24.264,25.264,29.36,19,29.36z M16.36,4.64h5.28V3.36h-5.28V4.64z M14,23.36H4v-0.72h10V23.36z M12,18.36H2v-0.72h10V18.36z
	 M19.179,18.312l-0.357-0.625l7-4l0.357,0.625L19.179,18.312z M14,13.36H4v-0.72h10V13.36z"/>
<rect id="_Transparent_Rectangle" style="fill:none;" width="32" height="32"/>
</svg>
