<?xml version="1.0" encoding="iso-8859-1"?>
<!-- Generator: Adobe Illustrator 26.3.1, SVG Export Plug-In . SVG Version: 6.00 Build 0)  -->
<svg version="1.1" id="Layer_1" xmlns="http://www.w3.org/2000/svg" xmlns:xlink="http://www.w3.org/1999/xlink" x="0px" y="0px"
	 viewBox="0 0 32 32" style="enable-background:new 0 0 32 32;" xml:space="preserve">
<path id="accelerating-transformation_00000013153100158329694650000005786191557357398422_" d="M18.36,11
	c0,0.199-0.161,0.36-0.36,0.36s-0.36-0.161-0.36-0.36s0.161-0.36,0.36-0.36S18.36,10.801,18.36,11z M16,10.64
	c-0.199,0-0.36,0.161-0.36,0.36s0.161,0.36,0.36,0.36s0.36-0.161,0.36-0.36S16.199,10.64,16,10.64z M14,10.64
	c-0.199,0-0.36,0.161-0.36,0.36s0.161,0.36,0.36,0.36s0.36-0.161,0.36-0.36S14.199,10.64,14,10.64z M12,10.64
	c-0.199,0-0.36,0.161-0.36,0.36s0.161,0.36,0.36,0.36s0.36-0.161,0.36-0.36S12.199,10.64,12,10.64z M9.866,10.806
	c-0.199,0-0.36,0.161-0.36,0.36s0.161,0.36,0.36,0.36s0.36-0.161,0.36-0.36S10.065,10.806,9.866,10.806z M8.15,11.817
	c-0.199,0-0.36,0.161-0.36,0.36c0,0.199,0.161,0.36,0.36,0.36s0.36-0.161,0.36-0.36C8.51,11.978,8.349,11.817,8.15,11.817z
	 M7.142,13.555c-0.199,0-0.36,0.161-0.36,0.36c0,0.199,0.161,0.36,0.36,0.36s0.36-0.161,0.36-0.36
	C7.502,13.716,7.341,13.555,7.142,13.555z M7,15.64c-0.199,0-0.36,0.161-0.36,0.36S6.801,16.36,7,16.36S7.36,16.199,7.36,16
	C7.36,15.801,7.199,15.64,7,15.64z M7,17.64c-0.199,0-0.36,0.161-0.36,0.36S6.801,18.36,7,18.36S7.36,18.199,7.36,18
	S7.199,17.64,7,17.64z M21,13.64c-0.199,0-0.36,0.161-0.36,0.36s0.161,0.36,0.36,0.36s0.36-0.161,0.36-0.36S21.199,13.64,21,13.64z
	 M21,15.64c-0.199,0-0.36,0.161-0.36,0.36s0.161,0.36,0.36,0.36s0.36-0.161,0.36-0.36C21.36,15.801,21.199,15.64,21,15.64z
	 M21,17.64c-0.199,0-0.36,0.161-0.36,0.36s0.161,0.36,0.36,0.36s0.36-0.161,0.36-0.36S21.199,17.64,21,17.64z M21,19.64
	c-0.199,0-0.36,0.161-0.36,0.36s0.161,0.36,0.36,0.36s0.36-0.161,0.36-0.36S21.199,19.64,21,19.64z M20.84,21.714
	c-0.199,0-0.36,0.161-0.36,0.36s0.161,0.36,0.36,0.36c0.199,0,0.36-0.161,0.36-0.36S21.038,21.714,20.84,21.714z M19.806,23.493
	c-0.199,0-0.36,0.161-0.36,0.36s0.161,0.36,0.36,0.36c0.199,0,0.36-0.161,0.36-0.36S20.005,23.493,19.806,23.493z M18.059,24.508
	c-0.199,0-0.36,0.161-0.36,0.36s0.161,0.36,0.36,0.36c0.199,0,0.36-0.161,0.36-0.36S18.258,24.508,18.059,24.508z M16,24.64
	c-0.199,0-0.36,0.161-0.36,0.36s0.161,0.36,0.36,0.36s0.36-0.161,0.36-0.36S16.199,24.64,16,24.64z M14,24.64
	c-0.199,0-0.36,0.161-0.36,0.36s0.161,0.36,0.36,0.36s0.36-0.161,0.36-0.36S14.199,24.64,14,24.64z M27,0.64v0.72h3.131L1.36,30.131
	V20.36H9v-0.72H1c-0.199,0-0.36,0.161-0.36,0.36v11c0,0.199,0.161,0.36,0.36,0.36h11c0.199,0,0.36-0.161,0.36-0.36v-8h-0.72v7.64
	H1.869L30.64,1.87V5h0.721V0.64H27z M20,3.36c1.663,0,3.276,0.473,4.667,1.368l0.389-0.605C23.55,3.152,21.801,2.64,20,2.64
	c-3.961,0-7.508,2.507-8.827,6.24l0.679,0.24C13.069,5.675,16.344,3.36,20,3.36z M27.276,7.338C28.168,8.728,28.64,10.34,28.64,12
	c0,3.656-2.314,6.93-5.76,8.147l0.24,0.68c3.732-1.319,6.24-4.867,6.24-8.827c0-1.798-0.512-3.544-1.479-5.051L27.276,7.338z"/>
<rect id="_Transparent_Rectangle" style="fill:none;" width="32" height="32"/>
</svg>
