<?xml version="1.0" encoding="iso-8859-1"?>
<!-- Generator: Adobe Illustrator 27.5.0, SVG Export Plug-In . SVG Version: 6.00 Build 0)  -->
<svg version="1.1" id="Layer_1" xmlns="http://www.w3.org/2000/svg" xmlns:xlink="http://www.w3.org/1999/xlink" x="0px" y="0px"
	 viewBox="0 0 32 32" style="enable-background:new 0 0 32 32;" xml:space="preserve">
<path id="ad-tech_00000001645016473862557330000000167636506756155282_" d="M16,31.36C7.53,31.36,0.64,24.47,0.64,16
	S7.53,0.64,16,0.64S31.36,7.53,31.36,16S24.47,31.36,16,31.36z M16.36,27.354v3.281c4.043-0.098,7.686-1.844,10.28-4.59v-6.047
	C25.068,24.242,21.077,27.211,16.36,27.354z M10.36,29.51c1.632,0.685,3.413,1.081,5.28,1.126v-3.281
	c-1.918-0.059-3.716-0.584-5.28-1.473C10.36,25.882,10.36,29.51,10.36,29.51z M5.36,26.046c1.218,1.289,2.667,2.358,4.28,3.14
	v-3.749c-1.938-1.303-3.448-3.191-4.28-5.438V26.046z M16.36,22.35v4.284c5.272-0.172,9.572-4.11,10.198-9.348
	C26.024,17.102,25.64,16.595,25.64,16s0.385-1.102,0.918-1.286C25.917,9.358,21.435,5.36,16,5.36c-1.647,0-3.279,0.385-4.745,1.116
	C11.323,6.637,11.36,6.814,11.36,7c0,0.625-0.424,1.153-1,1.312v4.751C11.423,11.03,13.552,9.64,16,9.64
	c3.507,0,6.36,2.853,6.36,6.36C22.36,19.386,19.7,22.163,16.36,22.35z M10.36,25.043c1.54,0.957,3.344,1.528,5.28,1.591V22.35
	c-2.295-0.128-4.27-1.48-5.28-3.412C10.36,18.938,10.36,25.043,10.36,25.043z M27.36,17.312v7.913c2.05-2.52,3.279-5.73,3.279-9.225
	c0-8.073-6.567-14.64-14.64-14.64C7.927,1.36,1.36,7.927,1.36,16c0,3.494,1.23,6.705,3.28,9.225v-7.913
	c-0.576-0.158-1-0.686-1-1.312c0-0.655,0.465-1.204,1.083-1.332c0.335-2.843,1.761-5.493,3.955-7.347C8.653,7.218,8.64,7.111,8.64,7
	c0-0.75,0.61-1.36,1.36-1.36c0.298,0,0.574,0.096,0.798,0.259C12.398,5.075,14.191,4.64,16,4.64c5.816,0,10.611,4.289,11.277,10.028
	c0.617,0.128,1.083,0.677,1.083,1.332C28.36,16.625,27.936,17.153,27.36,17.312z M5.443,17.286c0.359,3.006,1.929,5.583,4.197,7.268
	V8.312C9.409,8.248,9.203,8.125,9.039,7.961c-1.987,1.724-3.279,4.151-3.596,6.753C5.976,14.898,6.36,15.405,6.36,16
	C6.36,16.595,5.976,17.102,5.443,17.286z M16.36,17.312v4.317c2.943-0.187,5.28-2.64,5.28-5.629c0-3.11-2.529-5.64-5.64-5.64
	c-3.11,0-5.64,2.53-5.64,5.64c0,2.989,2.337,5.442,5.28,5.629v-4.317c-0.576-0.158-1-0.686-1-1.312c0-0.75,0.61-1.36,1.36-1.36
	c0.75,0,1.36,0.61,1.36,1.36C17.36,16.625,16.936,17.153,16.36,17.312z M27,15.36c-0.353,0-0.64,0.287-0.64,0.64
	s0.287,0.64,0.64,0.64s0.64-0.287,0.64-0.64S27.353,15.36,27,15.36z M16,15.36c-0.353,0-0.64,0.287-0.64,0.64s0.287,0.64,0.64,0.64
	s0.64-0.287,0.64-0.64S16.353,15.36,16,15.36z M5,15.36c-0.353,0-0.64,0.287-0.64,0.64S4.647,16.64,5,16.64S5.64,16.353,5.64,16
	S5.353,15.36,5,15.36z M10,6.36C9.647,6.36,9.36,6.647,9.36,7S9.647,7.64,10,7.64S10.64,7.353,10.64,7S10.353,6.36,10,6.36z"/>
<rect id="_Transparent_Rectangle" style="fill:none;" width="32" height="32"/>
</svg>
