<?xml version="1.0" encoding="iso-8859-1"?>
<!-- Generator: Adobe Illustrator 27.2.0, SVG Export Plug-In . SVG Version: 6.00 Build 0)  -->
<svg version="1.1" id="Layer_1" xmlns="http://www.w3.org/2000/svg" xmlns:xlink="http://www.w3.org/1999/xlink" x="0px" y="0px"
	 viewBox="0 0 32 32" style="enable-background:new 0 0 32 32;" xml:space="preserve">
<path id="advocate--mask_00000073688751802212530110000014035607373283795900_" d="M31.36,31h-0.72
	c0-6.552-4.774-12.332-11.368-13.785c-2.018,0.83-4.524,0.832-6.543,0C6.134,18.669,1.36,24.449,1.36,31H0.64
	c0-6.603,4.607-12.46,11.087-14.277C9.138,15.237,7.39,12.444,7.39,9.25c0-4.748,3.862-8.61,8.61-8.61s8.61,3.862,8.61,8.61
	c0,3.193-1.748,5.987-4.338,7.473C26.753,18.539,31.36,24.396,31.36,31z M11.36,15.628c1.303,0.951,2.907,1.512,4.64,1.512
	c1.732,0,3.337-0.561,4.64-1.512v-4.395c-0.566-0.238-2.296-0.874-4.64-0.874c-2.343,0-4.074,0.635-4.64,0.874
	C11.36,11.233,11.36,15.628,11.36,15.628z M21.36,11.201v3.833c1.463-1.357,2.413-3.262,2.52-5.384L21.36,11.201z M8.12,9.65
	c0.106,2.123,1.056,4.027,2.52,5.384v-3.833L8.12,9.65z M16,9.64c2.562,0,4.402,0.703,4.976,0.953l2.902-1.786
	C23.646,4.662,20.201,1.36,16,1.36c-4.202,0-7.646,3.302-7.877,7.447l2.902,1.786C11.598,10.343,13.438,9.64,16,9.64z M16,30.36
	c-0.092,0-0.184-0.035-0.254-0.105l-3.962-3.962c-0.512-0.512-0.795-1.191-0.798-1.915c-0.003-0.731,0.28-1.42,0.797-1.938
	c0.516-0.515,1.198-0.798,1.921-0.8c0.001,0,0.003,0,0.004,0c0.726,0,1.41,0.284,1.926,0.8L16,22.805l0.365-0.365
	c1.033-1.031,2.822-1.03,3.852,0c0.527,0.527,0.811,1.229,0.798,1.976c-0.014,0.71-0.297,1.376-0.798,1.878l-3.962,3.962
	C16.184,30.325,16.092,30.36,16,30.36z M13.709,22.36c-0.001,0-0.002,0-0.003,0c-0.532,0.001-1.034,0.21-1.413,0.589
	c-0.381,0.381-0.589,0.888-0.587,1.426c0.002,0.532,0.211,1.032,0.587,1.408L16,29.491l3.707-3.708
	c0.369-0.369,0.578-0.859,0.587-1.381c0.01-0.549-0.198-1.065-0.587-1.453c-0.759-0.76-2.071-0.761-2.833,0l-0.619,0.619
	c-0.141,0.141-0.368,0.141-0.509,0l-0.619-0.619C14.746,22.569,14.243,22.36,13.709,22.36z"/>
<rect id="_Transparent_Rectangle" style="fill:none;" width="32" height="32"/>
</svg>
