<?xml version="1.0" encoding="iso-8859-1"?>
<!-- Generator: Adobe Illustrator 26.3.1, SVG Export Plug-In . SVG Version: 6.00 Build 0)  -->
<svg version="1.1" id="Layer_1" xmlns="http://www.w3.org/2000/svg" xmlns:xlink="http://www.w3.org/1999/xlink" x="0px" y="0px"
	 viewBox="0 0 32 32" style="enable-background:new 0 0 32 32;" xml:space="preserve">
<path id="agility-with-hybrid-multicloud_00000024698654807765031920000003378179940696303490_" d="M28,5.5
	c-0.276,0-0.5-0.224-0.5-0.5s0.224-0.5,0.5-0.5s0.5,0.224,0.5,0.5S28.276,5.5,28,5.5z M28.5,9c0-0.276-0.224-0.5-0.5-0.5
	S27.5,8.724,27.5,9s0.224,0.5,0.5,0.5S28.5,9.276,28.5,9z M5.36,28c0-0.042-0.002-0.083-0.005-0.124l3.609-1.354
	C9.947,27.648,11.392,28.36,13,28.36h14.5c2.128,0,3.86-1.732,3.86-3.86c0-2.01-1.544-3.666-3.508-3.844
	c-0.083-1.779-0.8-3.396-1.93-4.627l3.467-3.813c0.184,0.092,0.391,0.145,0.61,0.145c0.75,0,1.36-0.61,1.36-1.36
	c0-0.625-0.425-1.153-1-1.312V3c0-0.199-0.161-0.36-0.36-0.36H19c-0.199,0-0.36,0.161-0.36,0.36v5.64h-0.599
	c-1.255-2.438-3.798-4-6.541-4c-3.943,0-7.171,3.117-7.352,7.016C2.184,11.834,0.64,13.49,0.64,15.5c0,2.128,1.731,3.86,3.86,3.86H7
	v-0.72H4.5c-1.731,0-3.14-1.408-3.14-3.14s1.409-3.14,3.14-3.14c0.199,0,0.36-0.161,0.36-0.36c0-3.661,2.979-6.64,6.64-6.64
	c2.543,0,4.895,1.49,5.992,3.795c0.06,0.125,0.187,0.205,0.325,0.205h0.822V11c0,0.199,0.161,0.36,0.36,0.36h9.688
	c0.037,0.134,0.094,0.259,0.167,0.374l-3.445,3.789c-1.303-1.17-3.025-1.882-4.91-1.882c-1.945,0-3.791,0.786-5.146,2.113
	l-3.245-3.966c0.158-0.222,0.251-0.494,0.251-0.787c0-0.75-0.61-1.36-1.36-1.36S9.64,10.25,9.64,11s0.61,1.36,1.36,1.36
	c0.196,0,0.383-0.042,0.552-0.117l3.308,4.043c-0.346,0.413-0.649,0.865-0.9,1.354H13c-2.956,0-5.36,2.405-5.36,5.36
	c0,1.078,0.32,2.083,0.87,2.924l-3.409,1.278C4.854,26.861,4.452,26.64,4,26.64c-0.75,0-1.36,0.61-1.36,1.36S3.25,29.36,4,29.36
	S5.36,28.75,5.36,28z M4.64,28c0,0.353-0.287,0.64-0.64,0.64S3.36,28.353,3.36,28S3.647,27.36,4,27.36S4.64,27.647,4.64,28z
	 M17.942,23.155c0.405,0.719,1.176,1.205,2.058,1.205c1.302,0,2.36-1.059,2.36-2.36c0-0.559-0.195-1.073-0.521-1.479l3.598-3.958
	C26.495,17.74,27.14,19.297,27.14,21c0,0.199,0.161,0.36,0.36,0.36c1.731,0,3.14,1.408,3.14,3.14s-1.408,3.14-3.14,3.14H13
	c-1.294,0-2.466-0.532-3.309-1.39L17.942,23.155z M14.183,18.36c0.139,0,0.266-0.08,0.325-0.206
	c1.097-2.305,3.449-3.794,5.992-3.794c1.699,0,3.251,0.642,4.427,1.695l-3.619,3.981c-0.375-0.25-0.824-0.396-1.308-0.396
	c-1.302,0-2.36,1.059-2.36,2.36c0,0.165,0.018,0.326,0.05,0.481l-8.486,3.183C8.672,24.91,8.36,23.99,8.36,23
	c0-2.559,2.082-4.64,4.64-4.64H14.183z M21.64,22c0,0.904-0.735,1.64-1.64,1.64s-1.64-0.735-1.64-1.64s0.735-1.64,1.64-1.64
	S21.64,21.096,21.64,22z M30.64,11c0,0.353-0.287,0.64-0.64,0.64s-0.64-0.287-0.64-0.64s0.287-0.64,0.64-0.64S30.64,10.647,30.64,11
	z M11.64,11c0,0.353-0.287,0.64-0.64,0.64s-0.64-0.287-0.64-0.64s0.287-0.64,0.64-0.64S11.64,10.647,11.64,11z M19.36,7.36h10.28
	v2.329c-0.461,0.126-0.824,0.491-0.951,0.952H19.36V7.36z M19.36,3.36h10.28v3.28H19.36V3.36z M26,8.64h-5v0.72h5V8.64z M26,4.64h-5
	v0.72h5V4.64z"/>
<rect id="_Transparent_Rectangle" style="fill:none;" width="32" height="32"/>
</svg>
