<?xml version="1.0" encoding="iso-8859-1"?>
<!-- Generator: Adobe Illustrator 24.1.2, SVG Export Plug-In . SVG Version: 6.00 Build 0)  -->
<svg version="1.1" id="Layer_1" xmlns="http://www.w3.org/2000/svg" xmlns:xlink="http://www.w3.org/1999/xlink" x="0px" y="0px"
	 viewBox="0 0 32 32" style="enable-background:new 0 0 32 32;" xml:space="preserve">
<path id="agriculture_1_" d="M17.396,29.111c-0.682,0-1.347-0.261-1.833-0.747c-0.711-0.711-0.939-1.798-0.581-2.77l0.058-0.155
	l0.156-0.058c0.973-0.356,2.058-0.131,2.769,0.58c0.71,0.711,0.938,1.797,0.58,2.769l-0.058,0.156l-0.156,0.058
	C18.025,29.057,17.709,29.111,17.396,29.111z M15.605,26.006c-0.183,0.665-0.008,1.375,0.466,1.849
	c0.474,0.475,1.183,0.648,1.849,0.466c0.183-0.665,0.008-1.375-0.466-1.849C16.981,25.997,16.27,25.825,15.605,26.006z
	 M12.902,24.378l-0.164-0.028c-1.021-0.173-1.85-0.911-2.112-1.881c-0.262-0.97,0.081-2.025,0.875-2.69l0.127-0.106l0.164,0.028
	c1.021,0.173,1.85,0.911,2.113,1.882c0.262,0.97-0.081,2.025-0.875,2.689L12.902,24.378z M11.838,20.445
	c-0.489,0.485-0.691,1.188-0.516,1.836c0.175,0.646,0.704,1.151,1.372,1.323c0.49-0.484,0.692-1.188,0.517-1.835
	C13.035,21.123,12.506,20.617,11.838,20.445z M17.716,21.902c-0.312,0-0.629-0.055-0.935-0.167l-0.156-0.058l-0.058-0.155
	c-0.358-0.972-0.13-2.059,0.58-2.77c0.712-0.709,1.798-0.938,2.769-0.58l0.156,0.058l0.058,0.155
	c0.358,0.972,0.131,2.059-0.581,2.77C19.062,21.643,18.398,21.902,17.716,21.902z M17.191,21.111
	c0.664,0.183,1.375,0.009,1.849-0.466c0.475-0.474,0.649-1.185,0.466-1.849c-0.664-0.185-1.374-0.009-1.85,0.466
	C17.183,19.736,17.009,20.446,17.191,21.111z M12.873,12.691c-0.683,0-1.347-0.261-1.834-0.748c-0.71-0.71-0.938-1.797-0.58-2.768
	l0.058-0.156l0.156-0.058c0.97-0.357,2.058-0.13,2.769,0.58l0,0c0.71,0.71,0.938,1.797,0.58,2.769l-0.058,0.156l-0.156,0.058
	C13.503,12.636,13.186,12.691,12.873,12.691z M11.083,9.585c-0.183,0.665-0.008,1.375,0.466,1.849
	c0.474,0.475,1.183,0.65,1.849,0.466c0.183-0.665,0.008-1.375-0.465-1.85C12.458,9.578,11.748,9.402,11.083,9.585z M15.999,31.36
	c-4.489,0-8.163-3.557-8.353-8H1v-0.72h6.999c0.199,0,0.36,0.161,0.36,0.36c0,4.213,3.427,7.64,7.64,7.64s7.64-3.427,7.64-7.64
	c0-0.199,0.161-0.36,0.36-0.36H31v0.721h-6.648C24.162,27.804,20.488,31.36,15.999,31.36z M23.631,17.36H8.705
	c-2.941,0-6.067-2.195-6.067-6.262c0-3.466,1.557-5.778,5.374-7.978l3.579-2.034c0.565-0.318,1-0.447,1.505-0.447
	c1.126,0,1.734,0.895,1.734,1.736c0,0.773-0.429,1.232-1.072,1.684l-1.551,1.036H24.77c0.994,0,1.803,0.809,1.803,1.802
	c0,0.408-0.137,0.785-0.367,1.088h0.351c0.004,0,0.008,0,0.011,0c0.474,0,0.922,0.185,1.262,0.523
	c0.343,0.341,0.532,0.793,0.532,1.274c0,0.994-0.81,1.803-1.805,1.803H26.21c0.228,0.302,0.362,0.677,0.362,1.083
	c0,0.897-0.659,1.644-1.519,1.78c0.238,0.306,0.38,0.689,0.38,1.105C25.434,16.55,24.625,17.36,23.631,17.36z M13.095,1.36
	c-0.376,0-0.699,0.099-1.151,0.354L8.368,3.746C4.81,5.797,3.357,7.928,3.357,11.099c0,3.599,2.755,5.542,5.348,5.542h14.926
	c0.597,0,1.082-0.487,1.082-1.085c0-0.597-0.485-1.083-1.082-1.083H16v-0.72h8.77c0.597,0,1.082-0.486,1.082-1.083
	s-0.485-1.083-1.082-1.083H16v-0.72h10.556c0.598,0,1.084-0.486,1.084-1.083c0-0.288-0.113-0.559-0.319-0.764
	c-0.203-0.203-0.472-0.314-0.756-0.314c-0.002,0-0.004,0-0.007,0H16v-0.72h8.77c0.596-0.004,1.082-0.492,1.082-1.088
	c0-0.597-0.485-1.083-1.082-1.083H11.019c-0.159,0-0.298-0.104-0.345-0.255c-0.046-0.152,0.013-0.316,0.145-0.404l2.531-1.69
	c0.638-0.448,0.76-0.729,0.76-1.09C14.109,1.887,13.792,1.36,13.095,1.36z"/>
<rect id="_Transparent_Rectangle" style="fill:none;" width="32" height="32"/>
</svg>
