<?xml version="1.0" encoding="iso-8859-1"?>
<!-- Generator: Adobe Illustrator 29.1.0, SVG Export Plug-In . SVG Version: 9.03 Build 55587)  -->
<svg version="1.1" id="Layer_1" xmlns="http://www.w3.org/2000/svg" xmlns:xlink="http://www.w3.org/1999/xlink" x="0px" y="0px"
	 viewBox="0 0 32 32" style="enable-background:new 0 0 32 32;" xml:space="preserve">
<path id="ahmedabad--sabarmati-ashram_00000183969993034055421060000001216353364667694730_" d="M9.5,21c0,0.276-0.224,0.5-0.5,0.5
	S8.5,21.276,8.5,21s0.224-0.5,0.5-0.5S9.5,20.724,9.5,21z M19.5,23c0-0.276-0.224-0.5-0.5-0.5s-0.5,0.224-0.5,0.5s0.224,0.5,0.5,0.5
	S19.5,23.276,19.5,23z M8,13.36c-0.199,0-0.36-0.161-0.36-0.36v-2c0-0.199,0.161-0.36,0.36-0.36h2c0.199,0,0.36,0.161,0.36,0.36v2
	c0,0.199-0.161,0.36-0.36,0.36H8z M8.36,12.64h1.28v-1.28H8.36V12.64z M21.247,23.567C21.004,24.656,20.122,25.36,19,25.36h-4v-0.72
	h4c0.937,0,1.411-0.635,1.544-1.229c0.146-0.654-0.086-1.494-0.936-1.894l-6.987-2.941c0.403,0.599,0.648,1.306,0.711,2.064H15
	c0.199,0,0.36,0.161,0.36,0.36s-0.161,0.36-0.36,0.36h-1.677c-0.078,0.929-0.441,1.769-1.011,2.442l1.185,1.185
	c0.141,0.141,0.141,0.369,0,0.51c-0.07,0.07-0.162,0.105-0.254,0.105s-0.184-0.035-0.254-0.105l-1.185-1.185
	c-0.673,0.57-1.514,0.935-2.443,1.012v1.316H21v0.721H4V26.64h4.64v-1.316c-0.929-0.078-1.77-0.442-2.443-1.012l-1.185,1.185
	c-0.07,0.07-0.162,0.105-0.254,0.105s-0.184-0.035-0.254-0.105c-0.141-0.141-0.141-0.369,0-0.51l1.185-1.185
	c-0.57-0.673-0.934-1.513-1.011-2.442H3c-0.199,0-0.36-0.161-0.36-0.36S2.801,20.64,3,20.64h1.677
	c0.078-0.929,0.442-1.77,1.012-2.442l-1.185-1.186c-0.141-0.141-0.141-0.368,0-0.509s0.368-0.141,0.509,0l1.186,1.185
	c0.673-0.57,1.513-0.934,2.443-1.012V15c0-0.199,0.161-0.36,0.36-0.36S9.36,14.801,9.36,15v1.675
	c0.441,0.037,0.869,0.12,1.263,0.278v-0.001l1.348,0.568l1.017-1.017c0.141-0.141,0.368-0.141,0.509,0s0.141,0.368,0,0.509
	l-0.81,0.81l7.214,3.037C21.125,21.434,21.456,22.633,21.247,23.567z M10.64,21c0-0.199,0.161-0.36,0.36-0.36h1.604
	c-0.073-0.731-0.359-1.394-0.801-1.933l-1.134,1.135c-0.07,0.07-0.162,0.105-0.254,0.105s-0.184-0.035-0.254-0.105
	c-0.141-0.141-0.141-0.369,0-0.51l1.134-1.134c-0.539-0.442-1.202-0.727-1.934-0.8V19c0,0.199-0.161,0.36-0.36,0.36
	S8.64,19.199,8.64,19v-1.603c-0.732,0.073-1.394,0.358-1.934,0.8l1.134,1.134c0.141,0.141,0.141,0.369,0,0.51
	c-0.07,0.07-0.162,0.105-0.254,0.105s-0.184-0.035-0.254-0.105l-1.134-1.135c-0.442,0.539-0.728,1.202-0.801,1.933H7
	c0.199,0,0.36,0.161,0.36,0.36S7.199,21.36,7,21.36H5.396c0.073,0.731,0.358,1.394,0.801,1.933l1.135-1.134
	c0.141-0.141,0.368-0.141,0.509,0s0.141,0.369,0,0.51l-1.134,1.134c0.539,0.442,1.202,0.727,1.934,0.8V23
	c0-0.199,0.161-0.36,0.36-0.36S9.36,22.801,9.36,23v1.603c0.732-0.073,1.394-0.358,1.934-0.8l-1.134-1.134
	c-0.141-0.141-0.141-0.369,0-0.51s0.368-0.141,0.509,0l1.135,1.134c0.442-0.539,0.727-1.202,0.801-1.933H11
	C10.801,21.36,10.64,21.199,10.64,21z M24,22.36h6v-0.72h-6V22.36z M12,13.36c-0.199,0-0.36-0.161-0.36-0.36v-2
	c0-0.199,0.161-0.36,0.36-0.36h2c0.199,0,0.36,0.161,0.36,0.36v2c0,0.199-0.161,0.36-0.36,0.36H12z M12.36,12.64h1.28v-1.28h-1.28
	V12.64z M23,24.36h8v-0.72h-8V24.36z M25,19.64v0.721h4V19.64H25z M31.345,9.104C31.299,9.256,31.158,9.36,31,9.36h-0.64V18
	c0,0.199-0.161,0.36-0.36,0.36H16c-0.199,0-0.36-0.161-0.36-0.36V9.36H2.36v8.28H4v0.721H2c-0.199,0-0.36-0.161-0.36-0.36V9.36H1
	c-0.159,0-0.298-0.104-0.345-0.255C0.609,8.953,0.668,8.789,0.8,8.701l6-4C6.859,4.661,6.929,4.64,7,4.64h18
	c0.071,0,0.141,0.021,0.199,0.061l6,4C31.332,8.789,31.391,8.953,31.345,9.104z M5.189,6.64h21.622l-1.92-1.28H7.109L5.189,6.64z
	 M29.64,16.36H16.36v1.28h13.28V16.36z M20.36,11v4.64h1.279V9.36h-5.28v6.28h1.28V11c0-0.199,0.161-0.36,0.36-0.36h2
	C20.199,10.64,20.36,10.801,20.36,11z M18.36,11.36v4.28h1.279v-4.28C19.639,11.36,18.36,11.36,18.36,11.36z M23.64,15.64V9.36
	h-1.28v6.28C22.36,15.64,23.64,15.64,23.64,15.64z M27.64,15.64v-4.28h-1.28v4.28C26.36,15.64,27.64,15.64,27.64,15.64z M29.64,9.36
	h-5.28v6.28h1.279V11c0-0.199,0.161-0.36,0.36-0.36h2c0.199,0,0.36,0.161,0.36,0.36v4.64h1.279V9.36H29.64z M29.811,8.64l-1.92-1.28
	H4.109l-1.92,1.28H29.811z M6,13.36H4c-0.199,0-0.36-0.161-0.36-0.36v-2c0-0.199,0.161-0.36,0.36-0.36h2
	c0.199,0,0.36,0.161,0.36,0.36v2C6.36,13.199,6.199,13.36,6,13.36z M5.64,11.36H4.36v1.28h1.28C5.64,12.64,5.64,11.36,5.64,11.36z"
	/>
<rect id="_Transparent_Rectangle" style="fill:none;" width="32" height="32"/>
</svg>
