<?xml version="1.0" encoding="iso-8859-1"?>
<!-- Generator: Adobe Illustrator 24.3.0, SVG Export Plug-In . SVG Version: 6.00 Build 0)  -->
<svg version="1.1" id="Layer_1" xmlns="http://www.w3.org/2000/svg" xmlns:xlink="http://www.w3.org/1999/xlink" x="0px" y="0px"
	 viewBox="0 0 32 32" style="enable-background:new 0 0 32 32;" xml:space="preserve">
<path id="ai--trust_1_" d="M12.259,22.36c-2.614,0-4.759,2.043-4.885,4.651C7.37,27.1,7.332,27.185,7.269,27.248l-4.015,4.006
	l-0.509-0.51l3.918-3.909c0.213-2.925,2.644-5.196,5.595-5.196h7.75c0.75,0,1.36,0.61,1.36,1.36c0,0.066-0.003,0.132-0.009,0.196
	l4.999-4.062c0.663-0.666,1.79-0.667,2.48,0.024c0.692,0.692,0.691,1.818,0.001,2.51l-6.102,6.102
	c-0.369,0.369-0.857,0.607-1.375,0.672l-7.197,0.899l-1.917,1.913l-0.509-0.51l2.004-2c0.057-0.057,0.13-0.093,0.21-0.103
	l7.32-0.915c0.359-0.044,0.698-0.21,0.954-0.467l6.102-6.102c0.411-0.41,0.411-1.079,0-1.491c-0.411-0.411-1.081-0.41-1.49,0.001
	l-6.237,5.07c-0.42,0.386-0.979,0.621-1.593,0.621h-5.001V24.64h5.001c0.393,0,0.753-0.139,1.036-0.369l-0.003-0.004l0.092-0.075
	c0.315-0.299,0.513-0.722,0.513-1.189c0-0.354-0.287-0.642-0.64-0.642L12.259,22.36L12.259,22.36z M16,19.36
	c-0.663,0-1.217-0.478-1.336-1.106c-1.4-0.226-2.712-0.802-3.83-1.681c-0.23,0.18-0.52,0.287-0.834,0.287
	c-0.75,0-1.36-0.61-1.36-1.36c0-0.356,0.138-0.681,0.363-0.924c-0.641-0.979-1.071-2.087-1.257-3.24
	C7.117,11.217,6.64,10.663,6.64,10s0.477-1.217,1.106-1.336c0.186-1.152,0.616-2.261,1.257-3.24C8.778,5.181,8.64,4.856,8.64,4.5
	c0-0.75,0.61-1.36,1.36-1.36c0.314,0,0.604,0.107,0.834,0.287c1.117-0.88,2.43-1.456,3.83-1.681C14.783,1.117,15.337,0.64,16,0.64
	s1.217,0.477,1.336,1.106c1.4,0.225,2.713,0.801,3.83,1.68C21.396,3.247,21.686,3.14,22,3.14c0.75,0,1.36,0.61,1.36,1.36
	c0,0.356-0.138,0.681-0.363,0.924c0.641,0.978,1.07,2.087,1.257,3.24C24.883,8.783,25.36,9.337,25.36,10s-0.478,1.217-1.106,1.336
	c-0.187,1.152-0.616,2.261-1.257,3.24c0.226,0.243,0.363,0.567,0.363,0.924c0,0.75-0.61,1.36-1.36,1.36
	c-0.314,0-0.604-0.107-0.834-0.287c-1.117,0.879-2.43,1.455-3.83,1.681C17.217,18.883,16.663,19.36,16,19.36z M16,17.36
	c-0.353,0-0.64,0.287-0.64,0.64s0.287,0.64,0.64,0.64s0.64-0.287,0.64-0.64S16.353,17.36,16,17.36z M11.266,15.997
	c1.008,0.797,2.192,1.324,3.456,1.537c0.191-0.521,0.691-0.894,1.278-0.894s1.087,0.373,1.277,0.894
	c1.265-0.214,2.448-0.74,3.457-1.538c-0.062-0.154-0.095-0.321-0.095-0.497c0-0.75,0.61-1.36,1.36-1.36
	c0.134,0,0.264,0.02,0.386,0.056c0.58-0.882,0.973-1.88,1.147-2.918c-0.519-0.19-0.892-0.691-0.892-1.277s0.373-1.087,0.894-1.278
	c-0.175-1.039-0.567-2.037-1.147-2.918C22.264,5.84,22.134,5.86,22,5.86c-0.75,0-1.36-0.61-1.36-1.36
	c0-0.175,0.034-0.343,0.095-0.497c-1.009-0.798-2.193-1.324-3.457-1.537C17.087,2.987,16.586,3.36,16,3.36s-1.087-0.373-1.278-0.894
	c-1.264,0.212-2.448,0.739-3.456,1.537C11.327,4.157,11.36,4.325,11.36,4.5c0,0.75-0.61,1.36-1.36,1.36
	c-0.134,0-0.264-0.02-0.386-0.056c-0.58,0.882-0.972,1.88-1.148,2.918C8.987,8.913,9.36,9.414,9.36,10s-0.373,1.087-0.894,1.278
	c0.176,1.038,0.568,2.036,1.148,2.918C9.736,14.16,9.866,14.14,10,14.14c0.75,0,1.36,0.61,1.36,1.36
	C11.36,15.675,11.327,15.843,11.266,15.997z M22,14.86c-0.353,0-0.64,0.287-0.64,0.64s0.287,0.64,0.64,0.64s0.64-0.287,0.64-0.64
	S22.353,14.86,22,14.86z M10,14.86c-0.353,0-0.64,0.287-0.64,0.64s0.287,0.64,0.64,0.64s0.64-0.287,0.64-0.64S10.353,14.86,10,14.86
	z M24,9.36c-0.353,0-0.64,0.287-0.64,0.64s0.287,0.64,0.64,0.64s0.64-0.287,0.64-0.64S24.353,9.36,24,9.36z M8,9.36
	c-0.353,0-0.64,0.287-0.64,0.64S7.647,10.64,8,10.64c0.353,0,0.64-0.287,0.64-0.64S8.353,9.36,8,9.36z M22,3.86
	c-0.353,0-0.64,0.287-0.64,0.64S21.647,5.14,22,5.14s0.64-0.287,0.64-0.64S22.353,3.86,22,3.86z M10,3.86
	c-0.353,0-0.64,0.287-0.64,0.64S9.647,5.14,10,5.14s0.64-0.287,0.64-0.64S10.353,3.86,10,3.86z M16,1.36
	c-0.353,0-0.64,0.287-0.64,0.64S15.647,2.64,16,2.64c0.353,0,0.64-0.287,0.64-0.64S16.353,1.36,16,1.36z M16,7.36
	c-0.75,0-1.36-0.61-1.36-1.36S15.25,4.64,16,4.64S17.36,5.25,17.36,6S16.75,7.36,16,7.36z M16,5.36c-0.353,0-0.64,0.287-0.64,0.64
	S15.647,6.64,16,6.64c0.353,0,0.64-0.287,0.64-0.64S16.353,5.36,16,5.36z M17,15.36c-0.199,0-0.36-0.161-0.36-0.36v-3.14h-1.28V15
	c0,0.199-0.161,0.36-0.36,0.36s-0.36-0.161-0.36-0.36V8.36H12c-0.199,0-0.36-0.161-0.36-0.36S11.801,7.64,12,7.64h8
	c0.199,0,0.36,0.161,0.36,0.36S20.199,8.36,20,8.36h-2.64V15C17.36,15.199,17.199,15.36,17,15.36z M15.36,11.14h1.28V8.36h-1.28
	V11.14z"/>
<rect id="_Transparent_Rectangle" style="fill:none;" width="32" height="32"/>
</svg>
