<?xml version="1.0" encoding="iso-8859-1"?>
<!-- Generator: Adobe Illustrator 24.3.0, SVG Export Plug-In . SVG Version: 6.00 Build 0)  -->
<svg version="1.1" id="Layer_1" xmlns="http://www.w3.org/2000/svg" xmlns:xlink="http://www.w3.org/1999/xlink" x="0px" y="0px"
	 viewBox="0 0 32 32" style="enable-background:new 0 0 32 32;" xml:space="preserve">
<path id="ai--robustness_1_" d="M16.36,31h-0.72v-2h0.72V31z M26.352,26.861l-1.414-1.414l0.51-0.51l1.414,1.414L26.352,26.861z
	 M5.648,26.861l-0.509-0.51l1.414-1.414l0.509,0.51L5.648,26.861z M18.5,26.36c-1.073,0-2.011-0.595-2.5-1.473
	c-0.489,0.878-1.426,1.473-2.5,1.473c-1.292,0-2.405-0.875-2.744-2.094C8.612,24.794,6.641,23.102,6.64,21
	c0-0.408,0.079-0.812,0.234-1.203C5.506,19.03,4.64,17.577,4.64,16c0-1.576,0.866-3.03,2.234-3.797
	C6.719,11.812,6.64,11.408,6.64,11c0-2.102,1.958-3.793,4.116-3.267C11.094,6.515,12.208,5.64,13.5,5.64
	c1.074,0,2.011,0.595,2.5,1.472c0.489-0.877,1.427-1.472,2.5-1.472c1.292,0,2.405,0.875,2.743,2.093
	C23.372,7.213,25.36,8.896,25.36,11c0,0.408-0.079,0.811-0.234,1.203c1.368,0.767,2.234,2.22,2.234,3.797s-0.866,3.03-2.234,3.797
	c0.155,0.392,0.234,0.795,0.234,1.203c0,2.102-1.967,3.791-4.117,3.267C20.905,25.485,19.792,26.36,18.5,26.36z M16.36,23.5
	c0,1.18,0.96,2.14,2.14,2.14c1.071,0,1.979-0.807,2.111-1.877c0.014-0.109,0.076-0.206,0.17-0.264
	c0.095-0.056,0.21-0.067,0.312-0.03c1.838,0.678,3.547-0.715,3.547-2.469c0-0.407-0.103-0.812-0.305-1.203
	c-0.045-0.087-0.052-0.189-0.02-0.283c0.032-0.093,0.101-0.169,0.19-0.209c1.297-0.592,2.134-1.889,2.134-3.305
	s-0.838-2.712-2.134-3.305c-0.09-0.041-0.159-0.117-0.19-0.21c-0.032-0.093-0.025-0.195,0.021-0.283
	c0.201-0.391,0.304-0.795,0.304-1.202c0-1.752-1.688-3.148-3.547-2.469C20.99,8.568,20.874,8.558,20.781,8.5
	c-0.094-0.057-0.156-0.154-0.17-0.263c-0.132-1.07-1.04-1.877-2.111-1.877c-1.18,0-2.14,0.96-2.14,2.14V10h-0.72V8.5
	c0-1.18-0.96-2.14-2.14-2.14c-1.071,0-1.979,0.807-2.112,1.878c-0.014,0.109-0.076,0.206-0.17,0.263
	c-0.094,0.058-0.209,0.068-0.312,0.031C9.054,7.851,7.36,9.248,7.36,11c0,0.408,0.103,0.812,0.304,1.202
	c0.027,0.052,0.04,0.108,0.04,0.166c0,0.04-0.006,0.079-0.02,0.118c-0.032,0.093-0.101,0.169-0.191,0.21
	C6.198,13.288,5.36,14.585,5.36,16c0,1.416,0.838,2.713,2.134,3.305c0.09,0.041,0.159,0.116,0.191,0.21
	c0.013,0.038,0.02,0.077,0.02,0.117c0,0.057-0.013,0.113-0.04,0.165C7.462,20.188,7.36,20.593,7.36,21
	c0,1.754,1.709,3.146,3.546,2.469c0.101-0.038,0.218-0.026,0.312,0.03c0.094,0.058,0.157,0.154,0.17,0.264
	c0.132,1.07,1.041,1.877,2.112,1.877c1.18,0,2.14-0.96,2.14-2.14V22h0.72V23.5z M11.63,21.36c-0.093,0-0.185-0.036-0.254-0.105
	l-0.63-0.63c-0.114-0.114-0.139-0.291-0.059-0.432l0.772-1.37c0.055-0.099,0.153-0.165,0.265-0.18
	c0.114-0.021,0.224,0.022,0.304,0.103l0.358,0.358l1.86-1.859l0.509,0.51l-1.861,1.859l0.361,0.362
	c0.08,0.079,0.117,0.191,0.102,0.304c-0.015,0.111-0.082,0.209-0.18,0.264l-1.37,0.77C11.751,21.345,11.69,21.36,11.63,21.36z
	 M11.448,20.309l0.244,0.244l0.719-0.404l-0.557-0.558L11.448,20.309z M19.019,21.359c-0.609,0-1.211-0.236-1.66-0.686
	c-0.589-0.59-0.818-1.45-0.611-2.248l-3.173-3.173c-0.797,0.204-1.659-0.021-2.248-0.612c-0.701-0.701-0.885-1.773-0.458-2.668
	c0.05-0.105,0.149-0.18,0.264-0.2c0.117-0.021,0.233,0.018,0.315,0.101l1.323,1.323c0.115,0.113,0.314,0.112,0.426,0
	c0.117-0.118,0.117-0.309,0-0.426l-1.323-1.323c-0.083-0.083-0.12-0.2-0.101-0.315c0.02-0.115,0.094-0.213,0.2-0.264
	c0.895-0.426,1.967-0.243,2.668,0.458c0.59,0.59,0.818,1.451,0.611,2.249l3.173,3.172c0.797-0.208,1.657,0.021,2.248,0.611
	c0.701,0.702,0.885,1.773,0.458,2.668c-0.051,0.105-0.149,0.18-0.265,0.199c-0.11,0.023-0.232-0.018-0.315-0.1l-1.323-1.323
	c-0.117-0.117-0.308-0.117-0.427,0c-0.116,0.117-0.116,0.309,0.001,0.426l1.323,1.323c0.082,0.083,0.12,0.2,0.1,0.315
	s-0.094,0.214-0.199,0.265C19.705,21.285,19.36,21.359,19.019,21.359z M13.675,14.484c0.094,0,0.186,0.037,0.254,0.105l3.481,3.48
	c0.1,0.1,0.132,0.248,0.083,0.38c-0.22,0.594-0.073,1.267,0.375,1.714c0.352,0.354,0.847,0.514,1.318,0.467l-0.894-0.893
	c-0.397-0.397-0.397-1.046,0-1.444c0.4-0.398,1.047-0.397,1.445-0.001l0.893,0.894c0.05-0.478-0.113-0.966-0.467-1.318
	c-0.448-0.448-1.122-0.596-1.714-0.375c-0.132,0.047-0.279,0.016-0.38-0.083l-3.48-3.48c-0.1-0.099-0.132-0.248-0.083-0.379
	c0.22-0.594,0.073-1.268-0.375-1.715c-0.353-0.353-0.841-0.516-1.319-0.467l0.893,0.894c0.398,0.398,0.398,1.046,0,1.444
	c-0.385,0.385-1.06,0.385-1.444,0l-0.893-0.893c-0.05,0.478,0.114,0.966,0.467,1.319c0.448,0.448,1.121,0.595,1.714,0.375
	C13.59,14.492,13.633,14.484,13.675,14.484z M31,16.36h-2v-0.72h2V16.36z M3,16.36H1v-0.72h2V16.36z M18.371,15.254l-0.51-0.509
	l2.652-2.653c0.082-0.082,0.126-0.189,0.126-0.304s-0.044-0.222-0.125-0.303c-0.164-0.163-0.444-0.163-0.606,0l-2.651,2.652
	l-0.509-0.509l2.651-2.652c0.434-0.435,1.191-0.435,1.625,0c0.217,0.217,0.337,0.505,0.337,0.812s-0.12,0.596-0.338,0.813
	L18.371,15.254z M25.447,7.062l-0.51-0.509l1.414-1.414l0.51,0.509L25.447,7.062z M6.553,7.062L5.139,5.648l0.509-0.509l1.414,1.414
	L6.553,7.062z M16.36,3h-0.72V1h0.72V3z"/>
<rect id="_Transparent_Rectangle" style="fill:none;" width="32" height="32"/>
</svg>
