<?xml version="1.0" encoding="iso-8859-1"?>
<!-- Generator: Adobe Illustrator 27.5.0, SVG Export Plug-In . SVG Version: 6.00 Build 0)  -->
<svg version="1.1" id="Layer_1" xmlns="http://www.w3.org/2000/svg" xmlns:xlink="http://www.w3.org/1999/xlink" x="0px" y="0px"
	 viewBox="0 0 32 32" style="enable-background:new 0 0 32 32;" xml:space="preserve">
<path id="ai-governance--prompt_00000094600632412634208590000001143835426067939980_" d="M16,31.36c-1.301,0-2.36-1.059-2.36-2.36
	s1.059-2.36,2.36-2.36c1.105,0,2.036,0.765,2.291,1.793c4.52-0.83,8.32-4.15,9.739-8.543l0.686,0.221
	c-1.508,4.665-5.555,8.185-10.36,9.042C18.276,30.383,17.25,31.36,16,31.36z M16,27.36c-0.904,0-1.64,0.735-1.64,1.64
	s0.736,1.64,1.64,1.64c0.904,0,1.64-0.735,1.64-1.64S16.904,27.36,16,27.36z M11.889,28.716c-4.664-1.508-8.184-5.555-9.042-10.36
	C1.617,18.276,0.64,17.25,0.64,16c0-1.301,1.059-2.36,2.36-2.36S5.36,14.699,5.36,16c0,1.105-0.765,2.036-1.793,2.291
	c0.831,4.52,4.151,8.32,8.544,9.739L11.889,28.716z M3,14.36c-0.904,0-1.64,0.736-1.64,1.64c0,0.904,0.736,1.64,1.64,1.64
	S4.64,16.904,4.64,16S3.904,14.36,3,14.36z M23,21.36h-3v-0.72h2.64v-9.28H20v-0.72h3c0.199,0,0.36,0.161,0.36,0.36v10
	C23.36,21.199,23.199,21.36,23,21.36z M12,21.36H9c-0.199,0-0.36-0.161-0.36-0.36V11c0-0.199,0.161-0.36,0.36-0.36h3v0.72H9.36v9.28
	H12V21.36z M29,18.36c-1.302,0-2.36-1.059-2.36-2.36c0-1.105,0.765-2.036,1.793-2.291c-0.83-4.52-4.15-8.32-8.543-9.739l0.221-0.686
	c4.665,1.507,8.185,5.554,9.042,10.361c1.23,0.079,2.208,1.105,2.208,2.355C31.36,17.302,30.302,18.36,29,18.36z M29,14.36
	c-0.904,0-1.64,0.736-1.64,1.64c0,0.904,0.735,1.64,1.64,1.64s1.64-0.735,1.64-1.64S29.904,14.36,29,14.36z M3.97,12.111
	l-0.686-0.222c1.507-4.664,5.554-8.184,10.361-9.042C13.724,1.617,14.75,0.64,16,0.64c1.302,0,2.36,1.059,2.36,2.36
	S17.302,5.36,16,5.36c-1.106,0-2.037-0.765-2.291-1.793C9.188,4.398,5.389,7.718,3.97,12.111z M16,1.36
	c-0.904,0-1.64,0.736-1.64,1.64S15.096,4.64,16,4.64c0.904,0,1.64-0.736,1.64-1.64S16.904,1.36,16,1.36z M12,15c0.552,0,1,0.448,1,1
	s-0.448,1-1,1s-1-0.448-1-1S11.448,15,12,15z M19,16c0,0.552,0.448,1,1,1s1-0.448,1-1s-0.448-1-1-1S19,15.448,19,16z M15,16
	c0,0.552,0.448,1,1,1s1-0.448,1-1s-0.448-1-1-1S15,15.448,15,16z"/>
<rect id="_Transparent_Rectangle" style="fill:none;" width="32" height="32"/>
</svg>
