<?xml version="1.0" encoding="iso-8859-1"?>
<!-- Generator: Adobe Illustrator 27.5.0, SVG Export Plug-In . SVG Version: 6.00 Build 0)  -->
<svg version="1.1" id="Layer_1" xmlns="http://www.w3.org/2000/svg" xmlns:xlink="http://www.w3.org/1999/xlink" x="0px" y="0px"
	 viewBox="0 0 32 32" style="enable-background:new 0 0 32 32;" xml:space="preserve">
<path id="ai-governance--model_00000166664077608491958130000008395517332449602473_" d="M16,31.36c-1.301,0-2.36-1.059-2.36-2.36
	s1.059-2.36,2.36-2.36c1.105,0,2.036,0.765,2.291,1.793c4.52-0.83,8.32-4.15,9.739-8.543l0.686,0.221
	c-1.508,4.665-5.555,8.185-10.36,9.042C18.276,30.383,17.25,31.36,16,31.36z M16,27.36c-0.904,0-1.64,0.735-1.64,1.64
	s0.736,1.64,1.64,1.64c0.904,0,1.64-0.735,1.64-1.64S16.904,27.36,16,27.36z M11.889,28.716c-4.664-1.508-8.184-5.555-9.042-10.36
	C1.617,18.276,0.64,17.25,0.64,16c0-1.301,1.059-2.36,2.36-2.36S5.36,14.699,5.36,16c0,1.105-0.765,2.036-1.793,2.291
	c0.831,4.52,4.151,8.32,8.544,9.739L11.889,28.716z M3,14.36c-0.904,0-1.64,0.736-1.64,1.64c0,0.904,0.736,1.64,1.64,1.64
	S4.64,16.904,4.64,16S3.904,14.36,3,14.36z M16,23.36h-0.001l0,0h-0.001l0,0c-0.001,0-0.001,0-0.002,0l0,0c-0.001,0-0.002,0-0.002,0
	h-0.001l0,0c-0.058-0.002-0.114-0.018-0.163-0.045l0,0l0,0l-0.001-0.001l0,0c-0.022-0.013-0.043-0.027-0.063-0.044
	c0-0.001,0-0.001,0-0.001s0,0-0.001-0.001l0,0c0,0,0.005,0-0.002-0.001l0,0c-0.011-0.011-0.022-0.021-0.032-0.033l-6.998-7.998
	c-0.119-0.135-0.119-0.338,0-0.474l3.5-4c0.068-0.079,0.167-0.123,0.271-0.123h7c0.104,0,0.202,0.044,0.271,0.123l3.5,4
	c0.119,0.135,0.119,0.338,0,0.474l-6.998,7.998c-0.01,0.012-0.021,0.022-0.032,0.033l0,0c-0.001,0-0.001,0.001-0.002,0.001l0,0
	c0,0.001-0.001,0.001-0.001,0.001s0,0,0,0.001c-0.02,0.017-0.041,0.031-0.063,0.044l0,0c0,0,0,0.001-0.001,0.001l0,0l0,0
	c-0.049,0.027-0.105,0.043-0.163,0.045l0,0c0,0,0,0-0.001,0c0,0-0.001,0-0.002,0l0,0c-0.001,0-0.001,0-0.002,0l0,0h-0.001l0,0
	C16.001,23.36,16,23.36,16,23.36z M13.52,15.36L16,21.975l2.48-6.615C18.48,15.36,13.52,15.36,13.52,15.36z M19.249,15.36
	l-2.218,5.915l5.176-5.915H19.249z M9.793,15.36l5.175,5.915L12.75,15.36H9.793z M19.18,14.64h3.027l-2.87-3.28H16.72L19.18,14.64z
	 M13.72,14.64h4.56L16,11.6L13.72,14.64z M9.793,14.64h3.026l2.46-3.28h-2.616L9.793,14.64z M29,18.36
	c-1.302,0-2.36-1.059-2.36-2.36c0-1.105,0.765-2.036,1.793-2.291c-0.83-4.52-4.15-8.32-8.543-9.739l0.221-0.686
	c4.665,1.507,8.185,5.554,9.042,10.361c1.23,0.079,2.208,1.105,2.208,2.355C31.36,17.302,30.302,18.36,29,18.36z M29,14.36
	c-0.904,0-1.64,0.736-1.64,1.64c0,0.904,0.735,1.64,1.64,1.64s1.64-0.735,1.64-1.64S29.904,14.36,29,14.36z M3.97,12.111
	l-0.686-0.222c1.507-4.664,5.554-8.184,10.361-9.042C13.724,1.617,14.75,0.64,16,0.64c1.302,0,2.36,1.059,2.36,2.36
	S17.302,5.36,16,5.36c-1.106,0-2.037-0.765-2.291-1.793C9.188,4.398,5.389,7.718,3.97,12.111z M16,1.36
	c-0.904,0-1.64,0.736-1.64,1.64S15.096,4.64,16,4.64c0.904,0,1.64-0.736,1.64-1.64S16.904,1.36,16,1.36z"/>
<rect id="_Transparent_Rectangle" style="fill:none;" width="32" height="32"/>
</svg>
