<?xml version="1.0" encoding="iso-8859-1"?>
<!-- Generator: Adobe Illustrator 27.5.0, SVG Export Plug-In . SVG Version: 6.00 Build 0)  -->
<svg version="1.1" id="Layer_1" xmlns="http://www.w3.org/2000/svg" xmlns:xlink="http://www.w3.org/1999/xlink" x="0px" y="0px"
	 viewBox="0 0 32 32" style="enable-background:new 0 0 32 32;" xml:space="preserve">
<path id="ai-governance--lifecycle-factsheet_00000049209056769764781100000005734169963678780095_" d="M25,2.64h-5.64V2
	c0-0.199-0.161-0.36-0.36-0.36h-2.14V1c0-0.199-0.161-0.36-0.36-0.36h-5c-0.199,0-0.36,0.161-0.36,0.36v0.64H9
	C8.801,1.64,8.64,1.801,8.64,2v0.64H3C2.801,2.64,2.64,2.801,2.64,3v27c0,0.199,0.161,0.36,0.36,0.36h9v-0.72H3.36V3.36h5.28V5
	c0,0.199,0.161,0.36,0.36,0.36h10c0.199,0,0.36-0.161,0.36-0.36V3.36h5.279V14h0.721V3C25.36,2.801,25.199,2.64,25,2.64z
	 M18.64,4.64H9.36V2.36h2.14c0.199,0,0.36-0.161,0.36-0.36V1.36h4.28V2c0,0.199,0.161,0.36,0.36,0.36h2.14V4.64z M21,14.64
	c-0.674,0-1.231,0.493-1.338,1.137c-2.7,0.499-4.929,2.471-5.717,5.12l0.69,0.205c0.705-2.371,2.692-4.14,5.101-4.607
	C19.935,17,20.425,17.359,21,17.359c0.75,0,1.36-0.61,1.36-1.36S21.75,14.64,21,14.64z M21,16.64c-0.353,0-0.64-0.287-0.64-0.64
	s0.287-0.64,0.64-0.64s0.64,0.287,0.64,0.64C21.64,16.353,21.353,16.64,21,16.64z M28.055,25.103l-0.689-0.205
	c-0.706,2.371-2.691,4.139-5.102,4.606c-0.2-0.505-0.689-0.864-1.264-0.864c-0.75,0-1.36,0.61-1.36,1.36s0.61,1.36,1.36,1.36
	c0.674,0,1.231-0.494,1.338-1.138C25.038,29.724,27.267,27.751,28.055,25.103z M21,30.64c-0.353,0-0.64-0.287-0.64-0.64
	s0.287-0.64,0.64-0.64s0.64,0.287,0.64,0.64S21.353,30.64,21,30.64z M14.496,24.263c0.505-0.199,0.864-0.689,0.864-1.263
	c0-0.75-0.61-1.36-1.36-1.36s-1.36,0.61-1.36,1.36c0,0.674,0.493,1.231,1.137,1.338c0.499,2.7,2.472,4.929,5.12,5.717l0.205-0.689
	C16.732,28.659,14.963,26.673,14.496,24.263z M13.36,23c0-0.353,0.287-0.64,0.64-0.64s0.64,0.287,0.64,0.64s-0.287,0.64-0.64,0.64
	S13.36,23.353,13.36,23z M28.222,21.662c-0.499-2.7-2.472-4.929-5.12-5.717l-0.205,0.69c2.371,0.706,4.14,2.691,4.606,5.101
	c-0.504,0.2-0.863,0.69-0.863,1.264c0,0.75,0.61,1.36,1.36,1.36s1.36-0.61,1.36-1.36C29.36,22.326,28.866,21.769,28.222,21.662z
	 M28,23.64c-0.353,0-0.64-0.287-0.64-0.64s0.287-0.64,0.64-0.64s0.64,0.287,0.64,0.64S28.353,23.64,28,23.64z M21,26.36
	c-1.577,0-2.86-1.283-2.86-2.86V20c0-0.199,0.161-0.36,0.36-0.36h5c0.199,0,0.36,0.161,0.36,0.36v3.5
	C23.86,25.077,22.577,26.36,21,26.36z M18.86,20.36v3.14c0,1.18,0.96,2.14,2.14,2.14s2.14-0.96,2.14-2.14v-3.14H18.86z"/>
<rect id="_Transparent_Rectangle" style="fill:none;" width="32" height="32"/>
</svg>
