<?xml version="1.0" encoding="iso-8859-1"?>
<!-- Generator: Adobe Illustrator 27.5.0, SVG Export Plug-In . SVG Version: 6.00 Build 0)  -->
<svg version="1.1" id="Layer_1" xmlns="http://www.w3.org/2000/svg" xmlns:xlink="http://www.w3.org/1999/xlink" x="0px" y="0px"
	 viewBox="0 0 32 32" style="enable-background:new 0 0 32 32;" xml:space="preserve">
<path id="ai-governance--model-tuned_00000119114790234531485770000010138568636451849615_" d="M16,0.64
	c-1.251,0-2.267,0.981-2.345,2.212c-4.81,0.856-8.863,4.37-10.371,9.037l0.686,0.222c1.42-4.395,5.225-7.709,9.749-8.538
	C13.977,4.597,14.897,5.36,16,5.36c1.302,0,2.36-1.059,2.36-2.36S17.302,0.64,16,0.64z M16,4.64c-0.904,0-1.64-0.736-1.64-1.64
	S15.096,1.36,16,1.36c0.904,0,1.64,0.736,1.64,1.64S16.904,4.64,16,4.64z M3.573,18.282C4.597,18.024,5.36,17.103,5.36,16
	c0-1.301-1.059-2.36-2.36-2.36S0.64,14.699,0.64,16c0,1.251,0.981,2.268,2.212,2.345c0.856,4.81,4.37,8.862,9.037,10.37l0.222-0.686
	C7.716,26.61,4.402,22.805,3.573,18.282z M1.36,16c0-0.904,0.736-1.64,1.64-1.64S4.64,15.096,4.64,16c0,0.904-0.736,1.64-1.64,1.64
	S1.36,16.904,1.36,16z M28.716,20.11l-0.686-0.22c-1.42,4.395-5.226,7.709-9.748,8.537C18.024,27.403,17.103,26.64,16,26.64
	c-1.301,0-2.36,1.059-2.36,2.36s1.059,2.36,2.36,2.36c1.252,0,2.268-0.981,2.346-2.214C23.155,28.291,27.207,24.778,28.716,20.11z
	 M16,30.64c-0.904,0-1.64-0.735-1.64-1.64s0.736-1.64,1.64-1.64c0.904,0,1.64,0.735,1.64,1.64S16.904,30.64,16,30.64z
	 M29.147,13.655c-0.855-4.81-4.369-8.863-9.036-10.371L19.89,3.97c4.395,1.42,7.709,5.225,8.537,9.749
	C27.403,13.976,26.64,14.897,26.64,16c0,1.302,1.059,2.36,2.36,2.36s2.36-1.059,2.36-2.36C31.36,14.749,30.379,13.732,29.147,13.655
	z M29,17.64c-0.904,0-1.64-0.735-1.64-1.64s0.735-1.64,1.64-1.64s1.64,0.736,1.64,1.64S29.904,17.64,29,17.64z M23.271,13.763
	l-3.5-4C19.702,9.685,19.604,9.64,19.5,9.64h-7c-0.104,0-0.203,0.044-0.271,0.123l-3.5,4c-0.119,0.135-0.119,0.338,0,0.474l7,8
	c0.069,0.079,0.168,0.123,0.271,0.123c0.021,0,0.043-0.002,0.064-0.006c0.125-0.023,0.228-0.109,0.272-0.229l2.912-7.766h2.957
	l-1.227,1.403l0.541,0.474l1.75-2C23.39,14.102,23.39,13.898,23.271,13.763z M19.337,10.36l2.87,3.28H19.18l-2.46-3.28H19.337z
	 M18.28,13.64h-4.56L16,10.6L18.28,13.64z M12.664,10.36h2.616l-2.46,3.28H9.793L12.664,10.36z M9.793,14.36h2.957l2.218,5.915
	L9.793,14.36z M16,20.975l-2.481-6.615h4.961L16,20.975z M21.36,20c0-0.624-0.425-1.147-1-1.306V18h-0.72v0.694
	c-0.575,0.159-1,0.681-1,1.306s0.425,1.147,1,1.306V24h0.721v-2.694C20.935,21.147,21.36,20.624,21.36,20z M20,20.64
	c-0.353,0-0.64-0.287-0.64-0.64s0.287-0.64,0.64-0.64s0.64,0.287,0.64,0.64S20.353,20.64,20,20.64z M24.36,22
	c0-0.624-0.425-1.147-1-1.306V18h-0.72v2.694c-0.575,0.159-1,0.681-1,1.306s0.425,1.147,1,1.306V24h0.721v-0.694
	C23.935,23.147,24.36,22.624,24.36,22z M23,22.64c-0.353,0-0.64-0.287-0.64-0.64s0.287-0.64,0.64-0.64s0.64,0.287,0.64,0.64
	S23.353,22.64,23,22.64z"/>
<rect id="_Transparent_Rectangle" style="fill:none;" width="32" height="32"/>
</svg>
