<?xml version="1.0" encoding="iso-8859-1"?>
<!-- Generator: Adobe Illustrator 26.3.1, SVG Export Plug-In . SVG Version: 6.00 Build 0)  -->
<svg version="1.1" id="Layer_1" xmlns="http://www.w3.org/2000/svg" xmlns:xlink="http://www.w3.org/1999/xlink" x="0px" y="0px"
	 viewBox="0 0 32 32" style="enable-background:new 0 0 32 32;" xml:space="preserve">
<path id="ai_00000022531831768760603020000008722587886971577743_" d="M16.195,31.36c-6.421,0-12.169-4.007-14.399-10.002
	C1.051,21.408,0.373,20.771,0.372,20c0-0.75,0.61-1.36,1.36-1.36s1.36,0.61,1.36,1.36c0,0.474-0.243,0.892-0.611,1.135
	c2.133,5.698,7.604,9.505,13.714,9.505c6.446,0,11.919-4.301,13.773-10.22c-1.448,2.06-3.877,3.44-6.565,3.44
	c-3.822,0-7.066-2.785-7.664-6.525C15.113,17.212,14.64,16.661,14.64,16c0-0.584,0.37-1.083,0.888-1.275
	c-0.608-3.421-3.615-5.962-7.125-5.962c-3.947,0-7.04,3.176-7.042,7.231c0,0.002,0,0.004,0,0.006H0.64c0-0.002,0-0.004,0-0.007
	C0.644,7.526,7.445,0.64,15.805,0.64c6.42,0,12.168,4.006,14.399,10.001c0.777-0.034,1.425,0.587,1.425,1.358
	c0,0.75-0.61,1.36-1.36,1.36s-1.36-0.61-1.36-1.36c0-0.473,0.243-0.891,0.611-1.135C27.387,5.166,21.916,1.36,15.805,1.36
	c-6.319,0-11.704,4.134-13.659,9.873c1.402-1.949,3.662-3.19,6.256-3.19c3.881,0,7.204,2.826,7.846,6.62
	C16.88,14.779,17.36,15.335,17.36,16c0,0.589-0.376,1.092-0.901,1.28c0.567,3.363,3.496,5.859,6.943,5.859
	c3.857,0,7.127-3.118,7.235-6.851c0.001-0.096,0.002-0.192,0.002-0.289h0.721c0,0.033,0,0.065-0.001,0.098h0.001
	c0,0.069-0.001,0.138-0.003,0.207C31.196,24.634,24.456,31.36,16.195,31.36z M1.732,19.36c-0.353,0-0.64,0.287-0.64,0.64
	s0.287,0.64,0.64,0.64s0.64-0.287,0.64-0.64S2.085,19.36,1.732,19.36z M16,15.36c-0.353,0-0.64,0.287-0.64,0.64
	s0.287,0.64,0.64,0.64s0.64-0.287,0.64-0.64S16.353,15.36,16,15.36z M30.269,11.36c-0.353,0-0.64,0.287-0.64,0.64
	s0.287,0.64,0.64,0.64s0.64-0.287,0.64-0.64S30.621,11.36,30.269,11.36z"/>
<rect id="_Transparent_Rectangle" style="fill:none;" width="32" height="32"/>
</svg>
