<?xml version="1.0" encoding="iso-8859-1"?>
<!-- Generator: Adobe Illustrator 24.1.2, SVG Export Plug-In . SVG Version: 6.00 Build 0)  -->
<svg version="1.1" id="Layer_1" xmlns="http://www.w3.org/2000/svg" xmlns:xlink="http://www.w3.org/1999/xlink" x="0px" y="0px"
	 viewBox="0 0 32 32" style="enable-background:new 0 0 32 32;" xml:space="preserve">
<path id="air--conditioner_1_" d="M27.676,31.36c-0.199,0-0.36-0.161-0.36-0.36c0-0.612-0.257-0.898-0.583-1.26
	c-0.36-0.4-0.769-0.854-0.769-1.743s0.408-1.342,0.769-1.742c0.326-0.361,0.583-0.647,0.583-1.26c0-0.611-0.257-0.896-0.583-1.258
	c-0.36-0.399-0.769-0.853-0.769-1.74s0.409-1.341,0.769-1.74c0.326-0.361,0.583-0.646,0.583-1.257c0-0.199,0.161-0.36,0.36-0.36
	s0.36,0.161,0.36,0.36c0,0.888-0.408,1.34-0.769,1.739c-0.326,0.361-0.583,0.646-0.583,1.258s0.257,0.896,0.583,1.258
	c0.36,0.399,0.769,0.853,0.769,1.74c0,0.889-0.408,1.342-0.769,1.742c-0.326,0.361-0.583,0.647-0.583,1.26s0.257,0.899,0.583,1.261
	c0.36,0.4,0.769,0.854,0.769,1.742C28.036,31.199,27.875,31.36,27.676,31.36z M20.676,31.36c-0.199,0-0.36-0.161-0.36-0.36
	c0-0.612-0.257-0.898-0.583-1.26c-0.36-0.4-0.769-0.854-0.769-1.743s0.408-1.342,0.769-1.742c0.326-0.361,0.583-0.647,0.583-1.26
	c0-0.611-0.257-0.896-0.583-1.258c-0.36-0.399-0.769-0.853-0.769-1.74s0.409-1.341,0.769-1.74c0.326-0.361,0.583-0.646,0.583-1.257
	c0-0.199,0.161-0.36,0.36-0.36s0.36,0.161,0.36,0.36c0,0.888-0.408,1.34-0.769,1.739c-0.326,0.361-0.583,0.646-0.583,1.258
	s0.257,0.896,0.583,1.258c0.36,0.399,0.769,0.853,0.769,1.74c0,0.889-0.408,1.342-0.769,1.742c-0.326,0.361-0.583,0.647-0.583,1.26
	s0.257,0.899,0.583,1.261c0.36,0.4,0.769,0.854,0.769,1.742C21.036,31.199,20.875,31.36,20.676,31.36z M13.676,31.36
	c-0.199,0-0.36-0.161-0.36-0.36c0-0.612-0.257-0.898-0.583-1.26c-0.36-0.4-0.768-0.854-0.768-1.743s0.408-1.342,0.768-1.742
	c0.326-0.361,0.583-0.647,0.583-1.26c0-0.611-0.257-0.896-0.583-1.258c-0.36-0.399-0.768-0.853-0.768-1.74s0.408-1.341,0.769-1.74
	c0.326-0.361,0.583-0.646,0.583-1.257c0-0.199,0.161-0.36,0.36-0.36s0.36,0.161,0.36,0.36c0,0.888-0.408,1.34-0.768,1.739
	c-0.326,0.361-0.583,0.646-0.583,1.258s0.257,0.896,0.583,1.258c0.36,0.399,0.768,0.853,0.768,1.74c0,0.889-0.408,1.342-0.768,1.742
	c-0.326,0.361-0.583,0.647-0.583,1.26s0.258,0.899,0.583,1.261c0.36,0.4,0.768,0.854,0.768,1.742
	C14.036,31.199,13.875,31.36,13.676,31.36z M6.676,31.36c-0.199,0-0.36-0.161-0.36-0.36c0-0.612-0.257-0.898-0.583-1.26
	c-0.36-0.4-0.768-0.854-0.768-1.743s0.408-1.342,0.768-1.742c0.326-0.361,0.583-0.647,0.583-1.26c0-0.611-0.257-0.896-0.583-1.258
	c-0.36-0.399-0.768-0.853-0.768-1.74s0.408-1.341,0.769-1.74C6.059,19.896,6.316,19.61,6.316,19c0-0.199,0.161-0.36,0.36-0.36
	s0.36,0.161,0.36,0.36c0,0.888-0.408,1.34-0.768,1.739c-0.326,0.361-0.583,0.646-0.583,1.258s0.257,0.896,0.583,1.258
	c0.36,0.399,0.768,0.853,0.768,1.74c0,0.889-0.408,1.342-0.768,1.742c-0.326,0.361-0.583,0.647-0.583,1.26s0.258,0.899,0.583,1.261
	c0.36,0.4,0.768,0.854,0.768,1.742C7.036,31.199,6.875,31.36,6.676,31.36z M29,17.36H3c-1.301,0-2.36-1.059-2.36-2.36V1
	c0-0.199,0.161-0.36,0.36-0.36h30c0.199,0,0.36,0.161,0.36,0.36v14C31.36,16.301,30.302,17.36,29,17.36z M1.36,1.36V15
	c0,0.904,0.736,1.64,1.64,1.64h26c0.904,0,1.64-0.736,1.64-1.64V1.36H1.36z M28,14.36H4c-0.199,0-0.36-0.161-0.36-0.36
	S3.801,13.64,4,13.64h24c0.199,0,0.36,0.161,0.36,0.36S28.199,14.36,28,14.36z M28,11.36H4c-0.199,0-0.36-0.161-0.36-0.36
	S3.801,10.64,4,10.64h24c0.199,0,0.36,0.161,0.36,0.36S28.199,11.36,28,11.36z M28,8.36H4C3.801,8.36,3.64,8.199,3.64,8
	S3.801,7.64,4,7.64h24c0.199,0,0.36,0.161,0.36,0.36S28.199,8.36,28,8.36z M28,5.36h-4c-0.199,0-0.36-0.161-0.36-0.36
	S23.801,4.64,24,4.64h4c0.199,0,0.36,0.161,0.36,0.36S28.199,5.36,28,5.36z"/>
<rect id="_Transparent_Rectangle" style="fill:none;" width="32" height="32"/>
</svg>
