<svg xmlns="http://www.w3.org/2000/svg" viewBox="0 0 48 48"><path fill="none" stroke-linecap="round" stroke-linejoin="round" stroke-miterlimit="10" stroke-width=".72" d="M14.676,39c0-1.501-1.352-1.501-1.352-3.003c0-1.501,1.352-1.501,1.352-3.003c0-1.499-1.352-1.499-1.352-2.998 c0-1.499,1.352-1.499,1.352-2.997 M21.676,27c0,1.499-1.352,1.499-1.352,2.997c0,1.499,1.352,1.499,1.352,2.998 c0,1.501-1.352,1.501-1.352,3.003c0,1.501,1.352,1.501,1.352,3.003 M28.676,27c0,1.499-1.352,1.499-1.352,2.997 c0,1.499,1.352,1.499,1.352,2.998c0,1.501-1.352,1.501-1.352,3.003c0,1.501,1.352,1.501,1.352,3.003 M35.676,27 c0,1.499-1.352,1.499-1.352,2.997c0,1.499,1.352,1.499,1.352,2.998c0,1.501-1.352,1.501-1.352,3.003 c0,1.501,1.352,1.501,1.352,3.003 M39,23V9H9v14c0,1.105,0.895,2,2,2h26C38.105,25,39,24.105,39,23z M12,22h24 M12,19h24 M12,16h24 M32,13h4"/></svg>