<?xml version="1.0" encoding="iso-8859-1"?>
<!-- Generator: Adobe Illustrator 22.0.0, SVG Export Plug-In . SVG Version: 6.00 Build 0)  -->
<svg version="1.1" xmlns="http://www.w3.org/2000/svg" xmlns:xlink="http://www.w3.org/1999/xlink" x="0px" y="0px"
	 viewBox="0 0 48 48" style="enable-background:new 0 0 48 48;" xml:space="preserve">
<g id="air_conditioner">
	
		<path id="air_conditioner_1_" style="fill:none;stroke:#000000;stroke-width:0.72;stroke-linecap:round;stroke-linejoin:round;stroke-miterlimit:10;" d="
		M14.676,39c0-1.501-1.352-1.501-1.352-3.003c0-1.501,1.352-1.501,1.352-3.003c0-1.499-1.352-1.499-1.352-2.998
		c0-1.499,1.352-1.499,1.352-2.997 M21.676,27c0,1.499-1.352,1.499-1.352,2.997c0,1.499,1.352,1.499,1.352,2.998
		c0,1.501-1.352,1.501-1.352,3.003c0,1.501,1.352,1.501,1.352,3.003 M28.676,27c0,1.499-1.352,1.499-1.352,2.997
		c0,1.499,1.352,1.499,1.352,2.998c0,1.501-1.352,1.501-1.352,3.003c0,1.501,1.352,1.501,1.352,3.003 M35.676,27
		c0,1.499-1.352,1.499-1.352,2.997c0,1.499,1.352,1.499,1.352,2.998c0,1.501-1.352,1.501-1.352,3.003
		c0,1.501,1.352,1.501,1.352,3.003 M39,23V9H9v14c0,1.105,0.895,2,2,2h26C38.105,25,39,24.105,39,23z M12,22h24 M12,19h24 M12,16h24
		 M32,13h4"/>
</g>
<g id="Layer_1">
</g>
</svg>
