<?xml version="1.0" encoding="iso-8859-1"?>
<!-- Generator: Adobe Illustrator 24.1.2, SVG Export Plug-In . SVG Version: 6.00 Build 0)  -->
<svg version="1.1" id="Layer_1" xmlns="http://www.w3.org/2000/svg" xmlns:xlink="http://www.w3.org/1999/xlink" x="0px" y="0px"
	 viewBox="0 0 32 32" style="enable-background:new 0 0 32 32;" xml:space="preserve">
<path id="alchemy--vision_1_" d="M31,31.36H16c-0.199,0-0.36-0.161-0.36-0.36V16c0-0.199,0.161-0.36,0.36-0.36h15
	c0.199,0,0.36,0.161,0.36,0.36v15C31.36,31.199,31.199,31.36,31,31.36z M16.36,30.64h14.28v-2.432l-3.632-3.687L25.307,26.3
	c-0.067,0.069-0.161,0.115-0.26,0.111c-0.096,0-0.187-0.038-0.255-0.105l-4.795-4.796l-3.637,3.638V30.64z M27.004,23.645
	c0.097,0,0.188,0.039,0.257,0.107l3.379,3.431V16.36H16.36v7.77l3.382-3.383c0.141-0.141,0.369-0.141,0.51,0l4.789,4.79l1.703-1.781
	C26.811,23.685,26.904,23.632,27.004,23.645z M25.5,21.36c-1.025,0-1.86-0.835-1.86-1.86s0.835-1.86,1.86-1.86s1.86,0.835,1.86,1.86
	S26.525,21.36,25.5,21.36z M25.5,18.36c-0.629,0-1.14,0.511-1.14,1.14s0.511,1.14,1.14,1.14s1.14-0.511,1.14-1.14
	S26.129,18.36,25.5,18.36z M7.901,17.36L7.901,17.36c-1.248-0.002-2.191-0.109-3.322-0.649c-0.091-0.043-0.159-0.123-0.189-0.219
	c-0.029-0.096-0.018-0.2,0.033-0.287l3.721-6.387C8.209,9.708,8.328,9.64,8.456,9.64h7.395c0.101,0,0.197,0.042,0.265,0.116
	c0.068,0.074,0.103,0.173,0.094,0.273c-0.107,1.303-0.453,2.113-1.054,3.151c-0.064,0.111-0.183,0.18-0.312,0.18h-4.465
	l-2.165,3.818C8.15,17.29,8.03,17.36,7.901,17.36z M5.248,16.22c0.799,0.322,1.517,0.407,2.444,0.418l2.164-3.817
	c0.064-0.113,0.184-0.182,0.313-0.182h4.466c0.425-0.757,0.694-1.398,0.815-2.28H8.663L5.248,16.22z M3.101,15.787
	c-0.073,0-0.144-0.022-0.205-0.064c-1.005-0.694-1.546-1.429-2.192-2.543c-0.065-0.111-0.065-0.25,0-0.361l2.22-3.826L0.689,5.182
	C0.624,5.07,0.624,4.932,0.688,4.82c0.654-1.133,1.207-1.882,2.253-2.595c0.083-0.056,0.185-0.078,0.284-0.053
	c0.098,0.022,0.182,0.085,0.231,0.172L7.16,8.823c0.064,0.112,0.063,0.249-0.001,0.36l-3.748,6.426
	c-0.051,0.087-0.135,0.148-0.233,0.17C3.153,15.784,3.127,15.787,3.101,15.787z M1.432,12.999c0.486,0.819,0.904,1.383,1.56,1.901
	L6.433,9L3.031,3.05C2.343,3.584,1.903,4.178,1.417,5l2.234,3.81c0.065,0.112,0.066,0.25,0.001,0.363L1.432,12.999z M15.851,8.361
	L15.851,8.361L8.446,8.359c-0.129,0-0.248-0.068-0.312-0.18L4.442,1.783C4.392,1.695,4.38,1.591,4.411,1.495S4.51,1.32,4.601,1.277
	C5.737,0.744,6.667,0.64,7.89,0.64c0.13,0,0.251,0.07,0.315,0.183l2.162,3.817h4.47c0.129,0,0.248,0.068,0.312,0.18
	c0.61,1.058,0.959,1.874,1.061,3.153c0.008,0.1-0.026,0.199-0.095,0.272C16.047,8.319,15.951,8.361,15.851,8.361z M8.654,7.64
	l6.796,0.001c-0.117-0.867-0.382-1.496-0.823-2.282h-4.47c-0.13,0-0.25-0.07-0.313-0.183L7.683,1.361
	c-0.909,0.01-1.616,0.093-2.416,0.411L8.654,7.64z"/>
<rect id="_Transparent_Rectangle" style="fill:none;" width="32" height="32"/>
</svg>
