<?xml version="1.0" encoding="iso-8859-1"?>
<!-- Generator: Adobe Illustrator 22.0.0, SVG Export Plug-In . SVG Version: 6.00 Build 0)  -->
<svg version="1.1" xmlns="http://www.w3.org/2000/svg" xmlns:xlink="http://www.w3.org/1999/xlink" x="0px" y="0px"
	 viewBox="0 0 48 48" style="enable-background:new 0 0 48 48;" xml:space="preserve">
<g id="alchemy_vision">
	
		<path id="alchemy_vision_1_" style="fill:none;stroke:#000000;stroke-width:0.72;stroke-linecap:round;stroke-linejoin:round;stroke-miterlimit:10;" d="
		M24,17.999c-0.101,1.223-0.424,1.993-1.007,3h-4.675L16.05,25c-1.245-0.002-2.113-0.11-3.166-0.613l3.721-6.387H24z M11.294,10.522
		C10.287,11.208,9.761,11.941,9.149,13l2.34,3.992L9.164,21c0.602,1.037,1.104,1.749,2.086,2.428l3.748-6.426L11.294,10.522z
		 M24,16.001c-0.098-1.23-0.429-1.988-1.014-3.002h-4.68L16.041,9h-0.002c-1.228,0-2.093,0.114-3.136,0.602l3.693,6.397L24,16.001z
		 M39,24H24v15h15V24z M33.5,26c-0.828,0-1.5,0.672-1.5,1.5s0.672,1.5,1.5,1.5s1.5-0.672,1.5-1.5S34.328,26,33.5,26z M39,36.06
		l-3.996-4.056l-1.957,2.047l-5.05-5.05l-3.996,3.996"/>
</g>
<g id="Layer_1">
</g>
</svg>
