<svg xmlns="http://www.w3.org/2000/svg" viewBox="0 0 48 48"><line x1="15" x2="33" y1="39" y2="39" fill="none" stroke-linejoin="round" stroke-miterlimit="10" stroke-width=".72"/><line x1="21.985" x2="21.985" y1="33" y2="31" fill="none" stroke-linejoin="round" stroke-miterlimit="10" stroke-width=".72"/><line x1="21.985" x2="21.985" y1="38" y2="36" fill="none" stroke-linejoin="round" stroke-miterlimit="10" stroke-width=".72"/><line x1="26.985" x2="26.985" y1="30.937" y2="33" fill="none" stroke-linejoin="round" stroke-miterlimit="10" stroke-width=".72"/><line x1="22.027" x2="22.027" y1="26" y2="28" fill="none" stroke-linejoin="round" stroke-miterlimit="10" stroke-width=".72"/><line x1="30" x2="30" y1="34" y2="39" fill="none" stroke-linejoin="round" stroke-miterlimit="10" stroke-width=".72"/><line x1="18" x2="18" y1="34" y2="39" fill="none" stroke-linejoin="round" stroke-miterlimit="10" stroke-width=".72"/><path fill="none" stroke-linejoin="round" stroke-miterlimit="10" stroke-width=".72" d="M26.985,39v-2 c0-0.552-0.448-1-1-1s-1,0.448-1,1v2"/><line x1="25.994" x2="21.991" y1="23.009" y2="19.006" fill="none" stroke-linecap="round" stroke-miterlimit="10" stroke-width=".72"/><line x1="25.994" x2="21.991" y1="19.006" y2="23.009" fill="none" stroke-linecap="round" stroke-miterlimit="10" stroke-width=".72"/><rect width="11.321" height="2.83" x="25.337" y="14.589" fill="none" stroke-linecap="round" stroke-miterlimit="10" stroke-width=".72" transform="rotate(-45.001 30.997 16.005)"/><rect width="11.321" height="2.83" x="11.328" y="24.595" fill="none" stroke-linecap="round" stroke-miterlimit="10" stroke-width=".72" transform="rotate(-45.001 16.988 26.01)"/><rect width="2.83" height="11.321" x="27.581" y="22.351" fill="none" stroke-linecap="round" stroke-miterlimit="10" stroke-width=".72" transform="rotate(-45.001 28.995 28.012)"/><rect width="2.83" height="11.321" x="17.574" y="8.343" fill="none" stroke-linecap="round" stroke-miterlimit="10" stroke-width=".72" transform="rotate(-45.001 18.99 14.003)"/><line x1="25.986" x2="21.984" y1="23.009" y2="19.006" fill="none" stroke-linecap="round" stroke-miterlimit="10" stroke-width=".72"/><line x1="25.986" x2="21.984" y1="19.006" y2="23.009" fill="none" stroke-linecap="round" stroke-miterlimit="10" stroke-width=".72"/><polyline fill="none" stroke-miterlimit="10" stroke-width=".72" points="27.988,21.007 25.986,19.006 33.991,11.001 35.993,13.002"/><line x1="31.985" x2="33.986" y1="12.999" y2="15" fill="none" stroke-miterlimit="10" stroke-width=".72"/><line x1="29.985" x2="31.986" y1="14.999" y2="17" fill="none" stroke-miterlimit="10" stroke-width=".72"/><line x1="27.985" x2="29.986" y1="16.999" y2="19" fill="none" stroke-miterlimit="10" stroke-width=".72"/><line x1="27.986" x2="25.985" y1="21" y2="18.999" fill="none" stroke-linecap="round" stroke-miterlimit="10" stroke-width=".72"/><polyline fill="none" stroke-miterlimit="10" stroke-width=".72" points="19.983,21.007 21.984,23.009 13.979,31.014 11.978,29.012"/><line x1="13.988" x2="15.989" y1="27.002" y2="29.004" fill="none" stroke-miterlimit="10" stroke-width=".72"/><line x1="15.998" x2="17.999" y1="24.993" y2="26.994" fill="none" stroke-miterlimit="10" stroke-width=".72"/><line x1="18.007" x2="20.009" y1="22.983" y2="24.984" fill="none" stroke-miterlimit="10" stroke-width=".72"/><polyline fill="none" stroke-miterlimit="10" stroke-width=".72" points="23.985,25.01 25.986,23.009 33.991,31.014 31.99,33.015"/><line x1="33.991" x2="31.99" y1="31.014" y2="33.015" fill="none" stroke-miterlimit="10" stroke-width=".72"/><line x1="31.982" x2="29.981" y1="29.004" y2="31.006" fill="none" stroke-miterlimit="10" stroke-width=".72"/><line x1="29.973" x2="27.971" y1="26.995" y2="28.996" fill="none" stroke-miterlimit="10" stroke-width=".72"/><line x1="27.963" x2="25.962" y1="24.986" y2="26.987" fill="none" stroke-miterlimit="10" stroke-width=".72"/><polyline fill="none" stroke-miterlimit="10" stroke-width=".72" points="23.985,17.005 21.984,19.006 13.979,11.001 15.98,9"/><line x1="23.985" x2="21.984" y1="17.005" y2="19.006" fill="none" stroke-miterlimit="10" stroke-width=".72"/><line x1="21.983" x2="19.982" y1="15.003" y2="17.004" fill="none" stroke-miterlimit="10" stroke-width=".72"/><line x1="19.981" x2="17.98" y1="13.001" y2="15.002" fill="none" stroke-miterlimit="10" stroke-width=".72"/><line x1="17.98" x2="15.978" y1="10.999" y2="13.001" fill="none" stroke-miterlimit="10" stroke-width=".72"/><path fill="none" stroke-linecap="round" stroke-linejoin="round" stroke-miterlimit="10" stroke-width=".72" d="M19.813,25.25C19.588,28.137,19.093,31.815,18,34h12"/><path fill="none" stroke-miterlimit="10" stroke-width=".72" d="M20.353,17.355C20.126,17.857,20,18.414,20,19 v2h8"/><path fill="none" stroke-miterlimit="10" stroke-width=".72" d="M27.647,17.354C27.019,15.966,25.622,15,24,15 c-0.587,0-1.144,0.126-1.646,0.353"/><path fill="none" stroke-linecap="round" stroke-linejoin="round" stroke-miterlimit="10" stroke-width=".72" d="M28.742,29.744C29.032,31.351,29.437,32.874,30,34"/><path fill="none" stroke-linejoin="round" stroke-miterlimit="10" stroke-width=".72" d="M28,21 c0,0,0,1.852,0.187,4.25"/></svg>