<?xml version="1.0" encoding="iso-8859-1"?>
<!-- Generator: Adobe Illustrator 24.1.2, SVG Export Plug-In . SVG Version: 6.00 Build 0)  -->
<svg version="1.1" id="Layer_1" xmlns="http://www.w3.org/2000/svg" xmlns:xlink="http://www.w3.org/1999/xlink" x="0px" y="0px"
	 viewBox="0 0 32 32" style="enable-background:new 0 0 32 32;" xml:space="preserve">
<path id="amsterdam--windmill_1_" d="M26.509,23l-5.977-5.977c-0.141-1.898-0.166-3.424-0.17-3.875L28.509,5L26,2.491l-6.268,6.268
	C18.95,7.46,17.538,6.64,16,6.64c-0.536,0-1.052,0.115-1.547,0.304L8,0.491L5.491,3l6.453,6.453C11.755,9.947,11.64,10.463,11.64,11
	v1.851L3.491,21L6,23.509l5.375-5.375c-0.245,2.606-0.731,5.773-1.697,7.705C9.653,25.89,9.644,25.945,9.644,26H9.64v4.64H7v0.721
	h18V30.64h-2.64V26c0-0.004-0.002-0.007-0.002-0.011c-0.001-0.023-0.008-0.045-0.014-0.068c-0.006-0.024-0.009-0.049-0.019-0.072
	c-0.002-0.003-0.001-0.007-0.003-0.01c-0.379-0.757-0.709-1.765-0.989-2.996L24,25.509L26.509,23z M24,24.491L22.509,23L24,21.509
	L25.491,23L24,24.491z M8.509,17L10,15.509L11.491,17L10,18.491L8.509,17z M9.491,19L8,20.491L6.509,19L8,17.509L9.491,19z
	 M12,16.491L10.509,15L12,13.509L13.491,15L12,16.491z M12.869,13.36h2.255l-1.127,1.127L12.869,13.36z M12,5.509L13.491,7L12,8.491
	L10.509,7L12,5.509z M10,6.491L8.509,5L10,3.509L11.491,5L10,6.491z M12.509,9L14,7.509L15.491,9L14,10.491L12.509,9z M20,9.509
	L21.491,11L20,12.491L18.509,11L20,9.509z M23.491,9L22,10.491L20.509,9L22,7.509L23.491,9z M22.509,7L24,5.509L25.491,7L24,8.491
	L22.509,7z M19.131,12.64h-2.262L18,11.509L19.131,12.64z M18,15.509L19.491,17L18,18.491L16.509,17L18,15.509z M20,17.509
	l1.49,1.49L20,20.491L18.509,19L20,17.509z M20.509,21L22,19.509l1.49,1.49L22,22.491L20.509,21z M18,14.491l-0.007,0.007
	l-1.138-1.138h2.789c0.008,0.523,0.034,1.581,0.113,2.888L18,14.491z M27.491,5L26,6.491L24.509,5L26,3.509L27.491,5z M16,7.36
	c1.345,0,2.572,0.753,3.202,1.929l-1.458,1.458c-0.004,0.003-0.01,0.002-0.013,0.005l-1.743,1.743l-1.487-1.487L16.509,9
	L15.02,7.511C15.338,7.421,15.663,7.36,16,7.36z M8,1.509L9.491,3L8,4.491L6.509,3L8,1.509z M13.714,11.223
	c0.009,0.011,0.005,0.027,0.016,0.038l1.379,1.379H12.36V11c0-0.337,0.061-0.662,0.151-0.98L13.714,11.223z M4.509,21L6,19.509
	L7.491,21L6,22.491L4.509,21z M18.64,30.64h-1.28V29c0-0.353,0.287-0.64,0.64-0.64s0.64,0.287,0.64,0.64V30.64z M19.36,30.64V29
	c0-0.75-0.61-1.36-1.36-1.36s-1.36,0.61-1.36,1.36v1.64h-6.28v-4.28h11.28v4.279L19.36,30.64L19.36,30.64z M21.451,25.64h-10.89
	c0.959-2.28,1.401-5.709,1.606-8.297L14.509,15l0,0l1.48-1.479l1.491,1.491L15.491,17l4.919,4.918
	C20.689,23.431,21.04,24.67,21.451,25.64z M13.64,28h0.72v2h-0.72V28z M13.64,23h0.72v2h-0.72V23z M19.36,25h-0.72v-2h0.721
	L19.36,25L19.36,25z M13.64,18h0.72v2h-0.72V18z"/>
<rect id="_Transparent_Rectangle" style="fill:none;" width="32" height="32"/>
</svg>
