<?xml version="1.0" encoding="iso-8859-1"?>
<!-- Generator: Adobe Illustrator 24.1.2, SVG Export Plug-In . SVG Version: 6.00 Build 0)  -->
<svg version="1.1" id="Layer_1" xmlns="http://www.w3.org/2000/svg" xmlns:xlink="http://www.w3.org/1999/xlink" x="0px" y="0px"
	 viewBox="0 0 32 32" style="enable-background:new 0 0 32 32;" xml:space="preserve">
<path id="amsterdam--farm_1_" d="M11.64,28h0.72v2h-0.72V28z M12.36,25v-2h-0.72v2H12.36z M12.36,18h-0.72v2h0.72V18z M16.36,23
	h-0.72v2h0.72V23z M31,30.64v0.721H1V30.64h0.64v-1.28H1v-0.72h6.64V26c0-0.058,0.017-0.111,0.041-0.16l-0.003-0.002
	c0.966-1.932,1.452-5.099,1.697-7.705L4,23.509L1.491,21l8.149-8.149V11c0-0.537,0.115-1.053,0.303-1.547L3.491,3L6,0.491
	l6.453,6.453C12.948,6.755,13.464,6.64,14,6.64c1.538,0,2.95,0.82,3.732,2.119L24,2.491L26.509,5l-8.147,8.148
	c0.004,0.451,0.029,1.977,0.17,3.875l2.617,2.617H25c0.12,0,0.232,0.061,0.3,0.161l4,6l-0.005,0.003
	c0.038,0.057,0.066,0.122,0.066,0.196v4.64C29.361,30.64,31,30.64,31,30.64z M25.36,30.64h1.279V29c0-0.353-0.287-0.64-0.64-0.64
	s-0.64,0.287-0.64,0.64L25.36,30.64L25.36,30.64z M27.36,30.64h1.279v-4.28H20.36v4.279h4.279V29c0-0.75,0.61-1.36,1.36-1.36
	s1.36,0.61,1.36,1.36L27.36,30.64L27.36,30.64z M15.36,30.64h1.28V29c0-0.353-0.287-0.64-0.64-0.64s-0.64,0.287-0.64,0.64
	C15.36,29,15.36,30.64,15.36,30.64z M17.36,30.64h2.279v-4.28H8.36v4.279h6.28V29c0-0.75,0.61-1.36,1.36-1.36
	c0.75,0,1.36,0.61,1.36,1.36C17.36,29,17.36,30.64,17.36,30.64z M21.869,20.36l2.64,2.64L22,25.509l-2.666-2.666
	c0.257,1.134,0.56,2.065,0.902,2.797h8.091l-3.52-5.279L21.869,20.36L21.869,20.36z M14.509,17L22,24.491L23.491,23L16,15.509
	L14.509,17z M17.757,16.248c-0.08-1.306-0.106-2.365-0.113-2.888h-2.775L16,14.491l0,0L17.757,16.248z M12,14.491l1.131-1.131
	h-2.262L12,14.491z M16,11.509l-1.131,1.131h2.262L16,11.509z M24,3.509L16.509,11L18,12.491L25.491,5L24,3.509z M13.02,7.511
	L14.509,9l-2,2L14,12.491L15.491,11l0,0l1.712-1.712C16.572,8.113,15.345,7.36,14,7.36C13.663,7.36,13.338,7.421,13.02,7.511z
	 M4.509,3L12,10.491L13.491,9L6,1.509L4.509,3z M10.511,10.02c-0.089,0.318-0.151,0.643-0.151,0.98v1.64h2.771L12,11.509l0,0
	L10.511,10.02z M4,22.491L11.491,15L10,13.509L2.509,21L4,22.491z M10.167,17.342c-0.205,2.595-0.656,6.017-1.62,8.297h10.904
	c-0.41-0.969-0.761-2.208-1.041-3.721L13.491,17l2-2L14,13.509L12.509,15l0,0L10.167,17.342z M7.64,29.36H5.36v1.279h2.28
	C7.64,30.639,7.64,29.36,7.64,29.36z M2.36,30.64h2.28v-1.28H2.36V30.64z"/>
<rect id="_Transparent_Rectangle" style="fill:none;" width="32" height="32"/>
</svg>
