<?xml version="1.0" encoding="iso-8859-1"?>
<!-- Generator: Adobe Illustrator 29.1.0, SVG Export Plug-In . SVG Version: 9.03 Build 55587)  -->
<svg version="1.1" id="Layer_1" xmlns="http://www.w3.org/2000/svg" xmlns:xlink="http://www.w3.org/1999/xlink" x="0px" y="0px"
	 viewBox="0 0 32 32" style="enable-background:new 0 0 32 32;" xml:space="preserve">
<path id="analytics--02_00000038388631866099364080000009041824807049874840_" d="M31,31.36H1c-0.199,0-0.36-0.161-0.36-0.36V1h0.72
	v28.377l6.314-13.529c0.054-0.116,0.166-0.194,0.293-0.206c0.136-0.008,0.252,0.046,0.326,0.149l4.578,6.41l0.979-3.161
	c-2.525-1.562-4.21-4.357-4.21-7.539c0-4.885,3.975-8.86,8.86-8.86c3.969,0,7.336,2.623,8.46,6.226l3.733-6.055l0.613,0.378
	l-4.103,6.653c0.103,0.537,0.156,1.091,0.156,1.658c0,2.246-0.831,4.364-2.347,6.005l5.241,5.24l-0.51,0.51l-5.24-5.241
	c-1.641,1.516-3.76,2.347-6.005,2.347c-1.441,0-2.803-0.347-4.008-0.96l-1.148,3.706c-0.041,0.131-0.151,0.228-0.287,0.249
	c-0.134,0.021-0.271-0.035-0.35-0.146l-4.642-6.498l-6.5,13.929H31V31.36z M18.5,3.36c-4.488,0-8.14,3.652-8.14,8.14
	s3.652,8.14,8.14,8.14c2.174,0,4.218-0.847,5.755-2.385c1.538-1.537,2.385-3.581,2.385-5.755C26.64,7.012,22.988,3.36,18.5,3.36z
	 M18,7.5c-0.276,0-0.5,0.224-0.5,0.5s0.224,0.5,0.5,0.5s0.5-0.224,0.5-0.5S18.276,7.5,18,7.5z M19.375,9.126
	c-0.276,0-0.5,0.224-0.5,0.5s0.224,0.5,0.5,0.5s0.5-0.224,0.5-0.5S19.651,9.126,19.375,9.126z M20.751,10.751
	c-0.276,0-0.5,0.224-0.5,0.5s0.224,0.5,0.5,0.5s0.5-0.224,0.5-0.5S21.028,10.751,20.751,10.751z M22.125,12.378
	c-0.276,0-0.5,0.224-0.5,0.5s0.224,0.5,0.5,0.5s0.5-0.224,0.5-0.5S22.401,12.378,22.125,12.378z M23.5,14.001
	c-0.276,0-0.5,0.224-0.5,0.5s0.224,0.5,0.5,0.5s0.5-0.224,0.5-0.5S23.776,14.001,23.5,14.001z M24.725,12.417
	c-0.276,0-0.5,0.224-0.5,0.5s0.224,0.5,0.5,0.5s0.5-0.224,0.5-0.5S25.001,12.417,24.725,12.417z M25.95,10.833
	c-0.276,0-0.5,0.224-0.5,0.5s0.224,0.5,0.5,0.5s0.5-0.224,0.5-0.5S26.226,10.833,25.95,10.833z M17.402,9.301
	c-0.276,0-0.5,0.224-0.5,0.5s0.224,0.5,0.5,0.5s0.5-0.224,0.5-0.5S17.679,9.301,17.402,9.301z M16.8,11.102
	c-0.276,0-0.5,0.224-0.5,0.5s0.224,0.5,0.5,0.5s0.5-0.224,0.5-0.5S17.076,11.102,16.8,11.102z M16.202,12.903
	c-0.276,0-0.5,0.224-0.5,0.5s0.224,0.5,0.5,0.5c0.276,0,0.5-0.224,0.5-0.5S16.478,12.903,16.202,12.903z M15.602,14.701
	c-0.276,0-0.5,0.224-0.5,0.5s0.224,0.5,0.5,0.5s0.5-0.224,0.5-0.5C16.102,14.925,15.879,14.701,15.602,14.701z M15,16.501
	c-0.276,0-0.5,0.224-0.5,0.5s0.224,0.5,0.5,0.5s0.5-0.224,0.5-0.5S15.276,16.501,15,16.501z"/>
<rect id="_Transparent_Rectangle" style="fill:none;" width="32" height="32"/>
</svg>
