<?xml version="1.0" encoding="iso-8859-1"?>
<!-- Generator: Adobe Illustrator 22.0.0, SVG Export Plug-In . SVG Version: 6.00 Build 0)  -->
<svg version="1.1" xmlns="http://www.w3.org/2000/svg" xmlns:xlink="http://www.w3.org/1999/xlink" x="0px" y="0px"
	 viewBox="0 0 48 48" style="enable-background:new 0 0 48 48;" xml:space="preserve">
<g id="analyzes_data">
	<path id="analyzes_data_1_" style="fill:none;stroke:#000000;stroke-width:0.72;stroke-linejoin:round;stroke-miterlimit:10;" d="
		M14.12,33.894L21,27.015 M16,13l5.037,0 M24,21.015l0-5 M36,32.516l0-6.501 M27.999,35.515h5 M27,21.015h-6v6h6V21.015z
		 M14.195,20.016l-5.196,3l3,5.196l5.196-3L14.195,20.016z M9,11.016v4l3.464,2l3.464-2v-4l-3.464-2L9,11.016z M25.999,32.051h-4
		l-2,3.464l2,3.464h4l2-3.464L25.999,32.051z M35.499,10.016l-3.464,6l6.928,0L35.499,10.016z M24,10.016c-1.657,0-3,1.343-3,3
		s1.343,3,3,3s3-1.343,3-3S25.656,10.016,24,10.016z M35.999,32.516c-1.657,0-3,1.343-3,3c0,1.657,1.343,3,3,3c1.657,0,3-1.343,3-3
		C38.999,33.859,37.656,32.516,35.999,32.516z M12.002,32.549c-1.657,0-3,1.343-3,3s1.343,3,3,3s3-1.343,3-3
		S13.659,32.549,12.002,32.549z M36,22.014c-1.105,0-2,0.895-2,2c0,1.105,0.895,2,2,2c1.105,0,2-0.895,2-2
		C38,22.909,37.104,22.014,36,22.014z"/>
</g>
<g id="Layer_1">
</g>
</svg>
