<svg width="55px" height="55px" viewBox="0 0 55 55" xmlns="http://www.w3.org/2000/svg"><path d="M18.2224848,25.9047941 C19.1147873,25.9047941 19.8409858,26.6309926 19.8409858,27.5232951 C19.8409858,28.4155976 19.1147873,29.1417961 18.2224848,29.1417961 C17.3301823,29.1417961 16.6039838,28.4155976 16.6039838,27.5232951 C16.6039838,26.6309926 17.3301823,25.9047941 18.2224848,25.9047941 M27.5,31.9594868 C28.3923025,31.9594868 29.118501,32.6846725 29.118501,33.5779878 C29.118501,34.4702903 28.3923025,35.1964889 27.5,35.1964889 C26.6066847,35.1964889 25.881499,34.4702903 25.881499,33.5779878 C25.881499,32.6846725 26.6066847,31.9594868 27.5,31.9594868 M36.6509115,17.8588791 C37.543214,17.8588791 38.2694126,18.5850777 38.2694126,19.4773801 C38.2694126,20.3706955 37.543214,21.0958812 36.6509115,21.0958812 C35.7575962,21.0958812 35.0324105,20.3706955 35.0324105,19.4773801 C35.0324105,18.5850777 35.7575962,17.8588791 36.6509115,17.8588791 M43.561445,43.1228899 L11.8771101,43.1228899 L11.8771101,27.9456448 L15.7694126,27.9456448 C15.9709656,29.1205267 16.9908845,30.0189061 18.2224848,30.0189061 C18.9294396,30.0189061 19.5654963,29.7211344 20.0202566,29.2471303 L25.1917623,32.6340311 C25.0722485,32.9257259 25.0033761,33.2437542 25.0033761,33.5779878 C25.0033761,34.9544227 26.1235652,36.0735989 27.5,36.0735989 C28.8764348,36.0735989 29.9956111,34.9544227 29.9956111,33.5779878 C29.9956111,32.8487508 29.6765699,32.1985145 29.1762323,31.7417286 L35.7697502,21.8048616 C36.0442269,21.909183 36.339973,21.9740041 36.6509115,21.9740041 C37.8774477,21.9740041 38.895341,21.0817016 39.102971,19.9128967 L43.561445,19.9128967 C43.8035111,19.9128967 44,19.7174207 44,19.4743417 C44,19.2322755 43.8035111,19.0357866 43.561445,19.0357866 L39.1019581,19.0357866 C38.8923025,17.8700203 37.875422,16.9817691 36.6509115,16.9817691 C35.2744767,16.9817691 34.1542876,18.1009453 34.1542876,19.4773801 C34.1542876,20.2278866 34.4935854,20.8923025 35.0182309,21.3501013 L28.4378798,31.2677245 C28.1482107,31.1502363 27.832208,31.0813639 27.5,31.0813639 C26.7727887,31.0813639 26.1235652,31.3993923 25.6667792,31.8966914 L20.5084402,28.5178933 C20.6421337,28.2130317 20.7180959,27.8767725 20.7180959,27.5232951 C20.7180959,26.1468602 19.5989196,25.027684 18.2224848,25.027684 C17.0020257,25.027684 15.9871708,25.9088454 15.772451,27.0675219 L11.8771101,27.0675219 L11.8771101,11.438555 C11.8771101,11.1964889 11.681634,11 11.438555,11 C11.1964889,11 11,11.1964889 11,11.438555 L11,43.561445 C11,43.8035111 11.1964889,44 11.438555,44 L43.561445,44 C43.8035111,44 44,43.8035111 44,43.561445 C44,43.3193788 43.8035111,43.1228899 43.561445,43.1228899"></path></svg>
