<?xml version="1.0" encoding="iso-8859-1"?>
<!-- Generator: Adobe Illustrator 24.1.2, SVG Export Plug-In . SVG Version: 6.00 Build 0)  -->
<svg version="1.1" id="Layer_1" xmlns="http://www.w3.org/2000/svg" xmlns:xlink="http://www.w3.org/1999/xlink" x="0px" y="0px"
	 viewBox="0 0 32 32" style="enable-background:new 0 0 32 32;" xml:space="preserve">
<path id="analyzes--data_1_" d="M18,31.36h-4c-0.129,0-0.249-0.069-0.312-0.182l-2-3.5c-0.063-0.11-0.063-0.247,0-0.357l2-3.5
	c0.064-0.112,0.183-0.182,0.312-0.182h4c0.129,0,0.248,0.069,0.312,0.182l1.896,3.318h4.45c0.167-1.565,1.415-2.813,2.98-2.98
	v-5.826c-1.131-0.174-2-1.154-2-2.333c0-1.301,1.059-2.36,2.36-2.36s2.36,1.059,2.36,2.36c0,1.179-0.869,2.159-2,2.333v5.826
	c1.684,0.18,3,1.609,3,3.341c0,1.853-1.508,3.36-3.36,3.36c-1.731,0-3.161-1.316-3.341-3h-4.45l-1.896,3.318
	C18.248,31.291,18.129,31.36,18,31.36z M14.209,30.64h3.582l1.794-3.14l-1.794-3.14h-3.582l-1.794,3.14L14.209,30.64z M28,24.86
	c-1.456,0-2.64,1.184-2.64,2.64s1.184,2.64,2.64,2.64s2.64-1.184,2.64-2.64S29.456,24.86,28,24.86z M28,14.36
	c-0.904,0-1.64,0.736-1.64,1.64c0,0.904,0.735,1.64,1.64,1.64s1.64-0.735,1.64-1.64S28.904,14.36,28,14.36z M4,30.86
	c-1.853,0-3.36-1.508-3.36-3.36S2.147,24.14,4,24.14c0.927,0,1.769,0.378,2.377,0.988l6.263-6.276V13c0-0.199,0.161-0.36,0.36-0.36
	h2.64V8.341c-1.566-0.167-2.813-1.415-2.981-2.981H8.36V7c0,0.129-0.069,0.249-0.181,0.312l-3.5,2c-0.111,0.063-0.246,0.063-0.357,0
	l-3.5-2C0.709,7.249,0.64,7.129,0.64,7V3c0-0.129,0.069-0.249,0.181-0.312l3.5-2c0.111-0.063,0.246-0.063,0.357,0l3.5,2
	C8.291,2.751,8.36,2.871,8.36,3v1.64h4.299c0.18-1.684,1.61-3,3.341-3c1.853,0,3.36,1.507,3.36,3.36c0,1.731-1.316,3.161-3,3.341
	v4.299H19c0.199,0,0.36,0.161,0.36,0.36v6c0,0.199-0.161,0.36-0.36,0.36h-5.851l-6.318,6.331C7.166,26.214,7.36,26.835,7.36,27.5
	C7.36,29.353,5.853,30.86,4,30.86z M4,24.86c-1.456,0-2.64,1.184-2.64,2.64S2.544,30.14,4,30.14s2.64-1.184,2.64-2.64
	S5.456,24.86,4,24.86z M13.36,18.64h5.28v-5.28h-5.28C13.36,13.36,13.36,18.64,13.36,18.64z M1.36,6.791L4.5,8.585l3.14-1.794V3.209
	L4.5,1.415L1.36,3.209V6.791z M16,2.36c-1.456,0-2.64,1.185-2.64,2.64S14.544,7.64,16,7.64S18.64,6.455,18.64,5S17.456,2.36,16,2.36
	z M4,20.557c-0.125,0-0.246-0.064-0.312-0.181l-3-5.196c-0.099-0.172-0.04-0.393,0.132-0.492l5.196-3
	c0.172-0.1,0.393-0.04,0.492,0.132l3,5.197c0.099,0.172,0.04,0.392-0.132,0.491l-5.196,3C4.124,20.541,4.062,20.557,4,20.557z
	 M1.492,15.132l2.64,4.572l4.573-2.64l-2.64-4.573L1.492,15.132z M31,8.36h-7c-0.129,0-0.248-0.069-0.312-0.181
	c-0.063-0.112-0.063-0.249,0.002-0.36l3.5-6c0.129-0.222,0.492-0.222,0.621,0l3.5,6c0.065,0.111,0.065,0.249,0.002,0.36
	C31.248,8.291,31.129,8.36,31,8.36z M24.627,7.64h5.746L27.5,2.714L24.627,7.64z"/>
<rect id="_Transparent_Rectangle" style="fill:none;" width="32" height="32"/>
</svg>
