<?xml version="1.0" encoding="iso-8859-1"?>
<!-- Generator: Adobe Illustrator 24.3.0, SVG Export Plug-In . SVG Version: 6.00 Build 0)  -->
<svg version="1.1" id="Layer_1" xmlns="http://www.w3.org/2000/svg" xmlns:xlink="http://www.w3.org/1999/xlink" x="0px" y="0px"
	 viewBox="0 0 32 32" style="enable-background:new 0 0 32 32;" xml:space="preserve">
<path id="analyze_1_" d="M16,31.36H6c-0.096,0-0.187-0.038-0.254-0.105l-5-5C0.678,26.188,0.64,26.096,0.64,26V11
	c0-0.199,0.161-0.36,0.359-0.36l4.647-0.003C5.838,5.092,10.409,0.64,16,0.64c5.713,0,10.36,4.647,10.36,10.36
	c0,2.646-0.986,5.141-2.785,7.066l7.68,7.679l-0.51,0.51l-7.679-7.68c-1.838,1.717-4.194,2.693-6.707,2.778V31
	C16.36,31.199,16.199,31.36,16,31.36z M6.36,30.64h9.28v-9.286c-5.428-0.187-9.81-4.568-9.994-9.997L1.36,11.36v14.28H6
	c0.199,0,0.36,0.161,0.36,0.36V30.64z M1.869,26.36l3.771,3.771V26.36H1.869z M16,1.36c-5.315,0-9.64,4.325-9.64,9.64
	s4.325,9.64,9.64,9.64c2.574,0,4.994-1.003,6.815-2.824S25.64,13.573,25.64,11C25.64,5.685,21.315,1.36,16,1.36z M9.578,13.907
	l-0.623-0.36l2.732-4.73c0.071-0.123,0.201-0.195,0.349-0.178c0.141,0.015,0.261,0.111,0.305,0.247l0.979,3.005l2.365-4.074
	c0.067-0.116,0.199-0.185,0.328-0.179c0.134,0.006,0.253,0.086,0.31,0.208l1.944,4.158l3.424-5.691l0.617,0.371l-3.772,6.271
	c-0.068,0.113-0.195,0.18-0.327,0.174c-0.133-0.007-0.251-0.086-0.308-0.207l-1.938-4.146l-2.424,4.175
	c-0.072,0.123-0.208,0.193-0.35,0.177c-0.141-0.015-0.26-0.111-0.304-0.247l-0.978-3.002L9.578,13.907z"/>
<rect id="_Transparent_Rectangle" style="fill:none;" width="32" height="32"/>
</svg>
