<?xml version="1.0" encoding="iso-8859-1"?>
<!-- Generator: Adobe Illustrator 22.0.0, SVG Export Plug-In . SVG Version: 6.00 Build 0)  -->
<svg version="1.1" xmlns="http://www.w3.org/2000/svg" xmlns:xlink="http://www.w3.org/1999/xlink" x="0px" y="0px"
	 viewBox="0 0 48 48" style="enable-background:new 0 0 48 48;" xml:space="preserve">
<g id="apartment">
	<path id="apartment_1_" style="fill:none;stroke:#000000;stroke-width:0.72;stroke-linejoin:round;stroke-miterlimit:10;" d="
		M22,39h-4v-8h4V39z M22,9v12H10v18h28V9H22z M26,15v-2 M26,21v-2 M14,27v-2 M34,15v-2 M34,21v-2 M22,27v-2 M30,15v-2 M30,21v-2
		 M34,27v-2 M34,33v-2 M30,27v-2 M30,33v-2 M18,27v-2 M14,33v-2 M26,27v-2 M26,33v-2"/>
</g>
<g id="Layer_1">
</g>
</svg>
