<?xml version="1.0" encoding="iso-8859-1"?>
<!-- Generator: Adobe Illustrator 24.1.2, SVG Export Plug-In . SVG Version: 6.00 Build 0)  -->
<svg version="1.1" id="Layer_1" xmlns="http://www.w3.org/2000/svg" xmlns:xlink="http://www.w3.org/1999/xlink" x="0px" y="0px"
	 viewBox="0 0 32 32" style="enable-background:new 0 0 32 32;" xml:space="preserve">
<path id="apple_1_" d="M21.021,31.376c-0.918,0-1.864-0.275-2.78-0.541c-0.812-0.236-1.578-0.459-2.227-0.459
	s-1.417,0.223-2.229,0.459c-0.917,0.266-1.864,0.541-2.782,0.541c-4.104,0-8.349-5.372-8.349-14.36c0-5.312,2.318-8.359,6.36-8.359
	c0.97,0,1.955,0.272,2.907,0.535c0.748,0.207,1.454,0.402,2.129,0.466l-0.068,0.717c-0.738-0.07-1.508-0.283-2.253-0.489
	c-0.906-0.25-1.843-0.51-2.715-0.51c-4.907,0-5.64,4.787-5.64,7.64c0,8.538,3.879,13.64,7.629,13.64c0.815,0,1.713-0.26,2.581-0.512
	c0.862-0.25,1.676-0.486,2.426-0.488c0,0,0,0,0.001,0c0,0,0.002,0,0.003,0s0.003,0,0.004,0c0.75,0.002,1.563,0.238,2.424,0.488
	c0.867,0.252,1.764,0.512,2.579,0.512c0.001,0,0.002,0,0.003,0c3.751-0.001,7.63-5.103,7.63-13.64c0-2.853-0.732-7.64-5.64-7.64
	c-1.105,0-2.188,0.238-3.335,0.49c-1.105,0.243-2.249,0.494-3.407,0.508l-0.257,0.001c-0.073,0.017-0.188-0.038-0.256-0.104
	c-0.068-0.068-0.106-0.16-0.106-0.255V7.271c0-0.1,0.042-0.195,0.114-0.263c0.073-0.068,0.166-0.1,0.271-0.096
	c0.253,0.02,6.157,0.364,7.535-4.378c-1.167-0.248-5.013-0.735-7.256,2.926l-0.614-0.376c2.904-4.735,8.359-3.174,8.413-3.157
	c0.183,0.054,0.291,0.241,0.248,0.426c-1.144,4.921-6.5,5.282-7.991,5.286v2.014c1.048-0.027,2.116-0.262,3.15-0.489
	c1.134-0.25,2.307-0.507,3.49-0.507c4.042,0,6.36,3.047,6.36,8.359c0,8.987-4.246,14.359-8.351,14.36
	C21.023,31.376,21.022,31.376,21.021,31.376z M24.628,24.397l-0.691-0.199l0.37-1.282l0.691,0.199L24.628,24.397z M25.369,21.076
	l-0.709-0.121c1.13-6.588-0.774-7.602-0.794-7.611l0.287-0.66C24.407,12.79,26.597,13.926,25.369,21.076z M13.796,7.378
	c-0.745,0-3.053-0.126-4.536-1.609C7.51,4.019,7.649,1.12,7.656,0.997c0.01-0.183,0.156-0.329,0.339-0.339
	c0.125-0.006,3.023-0.145,4.772,1.604l0,0c1.75,1.749,1.611,4.649,1.604,4.772c-0.01,0.183-0.156,0.329-0.339,0.339
	C14.014,7.374,13.93,7.378,13.796,7.378z M8.375,1.375C8.395,2.147,8.573,4.062,9.77,5.26c1.201,1.2,3.113,1.375,3.884,1.395
	c-0.021-0.772-0.198-2.688-1.395-3.885l0,0C11.058,1.57,9.146,1.395,8.375,1.375z"/>
<rect id="_Transparent_Rectangle" style="fill:none;" width="32" height="32"/>
</svg>
