<svg xmlns="http://www.w3.org/2000/svg" viewBox="0 0 48 48"><path d="M37,11.5c0,0.276-0.224,0.5-0.5,0.5S36,11.776,36,11.5s0.224-0.5,0.5-0.5S37,11.224,37,11.5z M34.5,11 c-0.276,0-0.5,0.224-0.5,0.5s0.224,0.5,0.5,0.5s0.5-0.224,0.5-0.5S34.776,11,34.5,11z M32.5,11c-0.276,0-0.5,0.224-0.5,0.5 s0.224,0.5,0.5,0.5s0.5-0.224,0.5-0.5S32.776,11,32.5,11z"/><path fill="none" stroke-linecap="round" stroke-linejoin="round" stroke-miterlimit="10" stroke-width=".72" d="M39,38H9V10h30V38z M9,13h30 M17,13v25"/></svg>