<?xml version="1.0" encoding="iso-8859-1"?>
<!-- Generator: Adobe Illustrator 24.3.0, SVG Export Plug-In . SVG Version: 6.00 Build 0)  -->
<svg version="1.1" id="Layer_1" xmlns="http://www.w3.org/2000/svg" xmlns:xlink="http://www.w3.org/1999/xlink" x="0px" y="0px"
	 viewBox="0 0 32 32" style="enable-background:new 0 0 32 32;" xml:space="preserve">
<path id="art--tools--01_1_" d="M1,31.36c-0.094,0-0.186-0.037-0.254-0.105c-0.104-0.104-0.134-0.262-0.077-0.396l3-7
	c0.018-0.042,0.044-0.081,0.077-0.113L26.451,1.04c0.256-0.257,0.598-0.398,0.961-0.398c0,0,0,0,0.001,0
	c0.363,0,0.705,0.141,0.962,0.398l2.586,2.586c0.529,0.53,0.529,1.392,0,1.923L8.254,28.255c-0.032,0.032-0.07,0.058-0.113,0.076
	l-7,3C1.096,31.351,1.048,31.36,1,31.36z M2.472,28.48l-0.786,1.834l1.833-0.786L2.472,28.48z M2.777,27.768l1.455,1.456
	l3.408-1.461V26.36H6c-0.199,0-0.36-0.161-0.36-0.36v-1.64H4.237L2.777,27.768z M6.36,25.64H8c0.199,0,0.36,0.161,0.36,0.36v1.131
	L25.991,9.5L22.5,6.009L4.869,23.64H6c0.199,0,0.36,0.161,0.36,0.36V25.64z M23.01,5.5l3.49,3.491L27.491,8L24,4.509L23.01,5.5z
	 M24.51,4L28,7.491l2.451-2.451c0.249-0.25,0.249-0.656,0-0.905l-2.586-2.586c-0.121-0.121-0.281-0.188-0.452-0.188
	c-0.001,0-0.001,0-0.001,0c-0.171,0-0.331,0.067-0.451,0.188L24.51,4z M26,31.36c-0.092,0-0.185-0.035-0.255-0.105l-9-9l0.509-0.51
	l1.245,1.246l2.245-2.246l0.51,0.51L19.009,23.5L21,25.491l1.245-1.246l0.51,0.51L21.509,26l1.991,1.991l2.245-2.246l0.51,0.51
	L24.009,28.5L26,30.491L30.491,26l-8.746-8.745l0.51-0.509l9,9c0.141,0.141,0.141,0.369,0,0.51l-5,5
	C26.185,31.325,26.092,31.36,26,31.36z M8.754,23.755l-0.509-0.51l14.5-14.5l0.51,0.509L8.754,23.755z M9.746,15.254l-9-9
	c-0.141-0.141-0.141-0.368,0-0.509l5-5c0.141-0.141,0.368-0.141,0.509,0l9,9l-0.509,0.509L6,1.509L1.509,6L3.5,7.991l2.246-2.245
	l0.509,0.509L4.009,8.5L6,10.491l1.246-1.245l0.509,0.509L6.509,11L8.5,12.991l2.246-2.245l0.509,0.509L9.009,13.5l1.245,1.246
	L9.746,15.254z"/>
<rect id="_Transparent_Rectangle" style="fill:none;" width="32" height="32"/>
</svg>
