<?xml version="1.0" encoding="iso-8859-1"?>
<!-- Generator: Adobe Illustrator 24.1.2, SVG Export Plug-In . SVG Version: 6.00 Build 0)  -->
<svg version="1.1" id="Layer_1" xmlns="http://www.w3.org/2000/svg" xmlns:xlink="http://www.w3.org/1999/xlink" x="0px" y="0px"
	 viewBox="0 0 32 32" style="enable-background:new 0 0 32 32;" xml:space="preserve">
<path id="asia--australia_1_" d="M16,31.36C7.53,31.36,0.64,24.47,0.64,16S7.53,0.64,16,0.64S31.36,7.53,31.36,16
	S24.47,31.36,16,31.36z M1.709,19.185c1.442,6.477,7.188,11.352,14.069,11.454l0.894-1.792c0.018-0.035,0.04-0.067,0.068-0.095
	l2.958-2.959l0.975-1.938c0.049-0.099,0.142-0.169,0.25-0.19l5-1.01c0.117-0.024,0.24,0.014,0.326,0.098l1.699,1.7
	c1.695-2.389,2.692-5.307,2.692-8.452c0-7.146-5.146-13.114-11.929-14.388L21.3,5.818c0.062,0.1,0.07,0.223,0.024,0.33l-3,7
	c-0.057,0.133-0.188,0.218-0.331,0.218h-4.851l-1.584,1.584l2.635,1.757c0.135,0.09,0.193,0.259,0.142,0.414l-1,3
	c-0.031,0.094-0.1,0.171-0.19,0.212c-0.09,0.042-0.194,0.045-0.285,0.008l-5-2c-0.091-0.036-0.164-0.108-0.201-0.2l-1.854-4.637
	l-1.502,0.751l-0.96,3.839c-0.023,0.094-0.083,0.174-0.166,0.223L1.709,19.185z M17.29,29.22l-0.703,1.408
	c4.427-0.175,8.355-2.325,10.924-5.593l-1.637-1.638l-4.639,0.938l-0.922,1.834c-0.017,0.034-0.039,0.065-0.066,0.093L17.29,29.22z
	 M8.271,17.729l4.502,1.802l0.792-2.377l-2.771-1.849c-0.09-0.06-0.148-0.157-0.159-0.264c-0.01-0.107,0.027-0.214,0.104-0.29l2-2
	c0.067-0.068,0.159-0.105,0.254-0.105h4.762l2.833-6.61l-2.812-4.569C17.194,1.396,16.601,1.36,16,1.36
	C7.927,1.36,1.36,7.927,1.36,16c0,0.829,0.069,1.643,0.203,2.435l1.118-0.661l0.964-3.854c0.025-0.102,0.094-0.188,0.188-0.234l2-1
	c0.091-0.045,0.195-0.05,0.289-0.015c0.094,0.036,0.169,0.109,0.207,0.203L8.271,17.729z M17.993,24.367h-3
	c-0.136,0-0.261-0.077-0.322-0.199l-1-2c-0.056-0.111-0.05-0.244,0.016-0.351c0.065-0.105,0.181-0.171,0.306-0.171H15.8l1.893-2.839
	c0.059-0.088,0.152-0.146,0.258-0.158c0.104-0.015,0.209,0.022,0.287,0.094l1,0.927c0.096,0.089,0.136,0.223,0.104,0.35l-1,4.073
	C18.304,24.254,18.159,24.367,17.993,24.367z M15.216,23.646h2.495l0.882-3.593l-0.534-0.496l-1.766,2.648
	c-0.066,0.101-0.179,0.161-0.299,0.161h-1.417L15.216,23.646z"/>
<rect id="_Transparent_Rectangle" style="fill:none;" width="32" height="32"/>
</svg>
