<?xml version="1.0" encoding="iso-8859-1"?>
<!-- Generator: Adobe Illustrator 22.0.0, SVG Export Plug-In . SVG Version: 6.00 Build 0)  -->
<svg version="1.1" xmlns="http://www.w3.org/2000/svg" xmlns:xlink="http://www.w3.org/1999/xlink" x="0px" y="0px"
	 viewBox="0 0 48 48" style="enable-background:new 0 0 48 48;" xml:space="preserve">
<g id="asia-australia">
	<path id="asia-australia_2_" style="fill:none;stroke:#000000;stroke-width:0.72;stroke-linejoin:round;stroke-miterlimit:10;" d="
		M39.008,24.008c0,8.284-6.716,15-15,15s-15-6.716-15-15s6.716-15,15-15S39.008,15.724,39.008,24.008z M9.309,27.014l1.692-1l1-4
		l2-1l2,5l5,2l1-3l-3-2l2-2h5l3-7l-3-4.874 M24.002,30.014h-2l1,2h3l1-4.073l-1-0.927L24.002,30.014z M35.966,32.981l-1.964-1.966
		l-5,1.011l-1,1.989l-3,3l-0.994,1.994"/>
</g>
<g id="Layer_1">
</g>
</svg>
