<?xml version="1.0" encoding="iso-8859-1"?>
<!-- Generator: Adobe Illustrator 27.5.0, SVG Export Plug-In . SVG Version: 6.00 Build 0)  -->
<svg version="1.1" id="Layer_1" xmlns="http://www.w3.org/2000/svg" xmlns:xlink="http://www.w3.org/1999/xlink" x="0px" y="0px"
	 viewBox="0 0 32 32" style="enable-background:new 0 0 32 32;" xml:space="preserve">
<path id="asset-management_00000052797630147806210300000013116229523981990793_" d="M13.254,31.255l-0.509-0.51l1-1
	c0.057-0.057,0.13-0.093,0.21-0.103l7.32-0.915c0.36-0.045,0.699-0.21,0.954-0.466l6.102-6.103c0.411-0.41,0.411-1.079,0-1.491
	c-0.411-0.411-1.081-0.41-1.49,0.001l-6.207,5.046c-0.426,0.404-1.001,0.652-1.634,0.652h-5v-0.721h5
	c0.397,0,0.763-0.141,1.048-0.374l-0.004-0.006l0.116-0.095c0.302-0.297,0.488-0.709,0.488-1.163c0-0.354-0.291-0.642-0.648-0.642
	h-7.741v-0.721H20c0.755,0,1.369,0.61,1.369,1.36c0,0.063-0.003,0.127-0.008,0.188l4.998-4.061c0.663-0.666,1.79-0.667,2.48,0.024
	c0.692,0.692,0.691,1.818,0.001,2.51l-6.102,6.102c-0.368,0.368-0.856,0.607-1.375,0.672l-7.197,0.899L13.254,31.255z M4.255,31.254
	l-0.51-0.508l2.904-2.91c0.213-2.925,2.651-5.196,5.61-5.196v0.721c-2.622,0-4.774,2.043-4.9,4.651
	c-0.004,0.089-0.042,0.174-0.104,0.236L4.255,31.254z M21,19.36H9c-0.199,0-0.36-0.161-0.36-0.36V4c0-0.199,0.161-0.36,0.36-0.36
	h2.64V1c0-0.199,0.161-0.36,0.36-0.36h12c0.199,0,0.36,0.161,0.36,0.36v15c0,0.199-0.161,0.36-0.36,0.36h-2.64V19
	C21.36,19.199,21.199,19.36,21,19.36z M9.36,18.64h11.28V8.36H17c-0.199,0-0.36-0.161-0.36-0.36V4.36H9.36V18.64z M21.36,15.64
	h2.279V1.36H12.36v2.28H17c0.096,0,0.188,0.038,0.255,0.105l4,4C21.322,7.813,21.36,7.904,21.36,8V15.64z M17.36,7.64h2.771
	L17.36,4.869V7.64z M19,15.36h-8v-0.72h8V15.36z M19,13.36h-8v-0.72h8V13.36z M19,11.36h-8v-0.72h8V11.36z"/>
<rect id="_Transparent_Rectangle" style="fill:none;" width="32" height="32"/>
</svg>
