<?xml version="1.0" encoding="iso-8859-1"?>
<!-- Generator: Adobe Illustrator 24.1.2, SVG Export Plug-In . SVG Version: 6.00 Build 0)  -->
<svg version="1.1" id="Layer_1" xmlns="http://www.w3.org/2000/svg" xmlns:xlink="http://www.w3.org/1999/xlink" x="0px" y="0px"
	 viewBox="0 0 32 32" style="enable-background:new 0 0 32 32;" xml:space="preserve">
<path id="assets_1_" d="M31,0.64H10C9.801,0.64,9.64,0.801,9.64,1v2.64H1C0.801,3.64,0.64,3.801,0.64,4v27
	c0,0.199,0.161,0.36,0.36,0.36h21c0.199,0,0.36-0.161,0.36-0.36v-2.64H31c0.199,0,0.36-0.161,0.36-0.36V1
	C31.36,0.801,31.199,0.64,31,0.64z M21.64,30.64H1.36V4.36h14.28V10c0,0.199,0.161,0.36,0.36,0.36h5.64V30.64z M16.36,4.869
	l4.771,4.771H16.36V4.869z M30.64,27.64h-8.28V10c0-0.096-0.038-0.187-0.105-0.254l-6-6C16.187,3.678,16.096,3.64,16,3.64h-5.64
	V1.36h20.28C30.64,1.36,30.64,27.64,30.64,27.64z M19.36,16c0,0.199-0.161,0.36-0.36,0.36H4c-0.199,0-0.36-0.161-0.36-0.36
	S3.801,15.64,4,15.64h15C19.199,15.64,19.36,15.801,19.36,16z M19.36,19c0,0.199-0.161,0.36-0.36,0.36H4
	c-0.199,0-0.36-0.161-0.36-0.36S3.801,18.64,4,18.64h15C19.199,18.64,19.36,18.801,19.36,19z M19.36,22
	c0,0.199-0.161,0.36-0.36,0.36H4c-0.199,0-0.36-0.161-0.36-0.36S3.801,21.64,4,21.64h15C19.199,21.64,19.36,21.801,19.36,22z
	 M19.36,25c0,0.199-0.161,0.36-0.36,0.36H4c-0.199,0-0.36-0.161-0.36-0.36S3.801,24.64,4,24.64h15
	C19.199,24.64,19.36,24.801,19.36,25z"/>
<rect id="_Transparent_Rectangle" style="fill:none;" width="32" height="32"/>
</svg>
