<?xml version="1.0" encoding="iso-8859-1"?>
<!-- Generator: Adobe Illustrator 24.1.2, SVG Export Plug-In . SVG Version: 6.00 Build 0)  -->
<svg version="1.1" id="Layer_1" xmlns="http://www.w3.org/2000/svg" xmlns:xlink="http://www.w3.org/1999/xlink" x="0px" y="0px"
	 viewBox="0 0 32 32" style="enable-background:new 0 0 32 32;" xml:space="preserve">
<path id="austin_1_" d="M31,14.36v-0.72H1v0.72h2.64v3.28H1v0.721h30V17.64h-2.64v-3.28H31z M12.36,14.36h3.28v3.28h-3.28V14.36z
	 M11.64,17.64H8.36v-3.28h3.28C11.64,14.36,11.64,17.64,11.64,17.64z M16.36,14.36h3.28v3.28h-3.28V14.36z M20.36,14.36h3.279v3.28
	H20.36V14.36z M4.36,14.36h3.28v3.28H4.36V14.36z M27.64,17.64h-3.28v-3.28h3.279L27.64,17.64L27.64,17.64z M1,19.64v0.721h3
	c2.007,0,3.64,1.633,3.64,3.64v1.64H4c-0.199,0-0.36,0.161-0.36,0.36S3.801,26.36,4,26.36h6c0.199,0,0.36-0.161,0.36-0.36
	s-0.161-0.36-0.36-0.36H8.36V24c0-2.007,1.633-3.64,3.64-3.64s3.64,1.633,3.64,3.64v1.64H14c-0.199,0-0.36,0.161-0.36,0.36
	s0.161,0.36,0.36,0.36h4c0.199,0,0.36-0.161,0.36-0.36s-0.161-0.36-0.36-0.36h-1.64V24c0-2.007,1.633-3.64,3.64-3.64
	s3.64,1.633,3.64,3.64v1.64H22c-0.199,0-0.36,0.161-0.36,0.36s0.161,0.36,0.36,0.36h6c0.199,0,0.36-0.161,0.36-0.36
	s-0.161-0.36-0.36-0.36h-3.64V24c0-2.007,1.633-3.64,3.64-3.64h3v-0.72H1z M8,22.274c-0.34-0.784-0.903-1.448-1.61-1.913h3.22
	C8.903,20.826,8.34,21.489,8,22.274z M16,22.274c-0.34-0.784-0.903-1.448-1.61-1.913h3.22C16.903,20.826,16.34,21.489,16,22.274z
	 M24,22.273c-0.34-0.784-0.903-1.447-1.61-1.912h3.219C24.903,20.826,24.34,21.489,24,22.273z M14.36,30
	c0,0.199-0.161,0.36-0.36,0.36h-4c-0.199,0-0.36-0.161-0.36-0.36s0.161-0.36,0.36-0.36h4C14.199,29.64,14.36,29.801,14.36,30z
	 M22.36,30c0,0.199-0.161,0.36-0.36,0.36h-4c-0.199,0-0.36-0.161-0.36-0.36s0.161-0.36,0.36-0.36h4
	C22.199,29.64,22.36,29.801,22.36,30z M26.36,28c0,0.199-0.161,0.36-0.36,0.36H6c-0.199,0-0.36-0.161-0.36-0.36S5.801,27.64,6,27.64
	h20C26.199,27.64,26.36,27.801,26.36,28z M19.414,23.774c-0.139,0-0.281,0.019-0.426,0.057c-0.134,0.037-0.268,0.093-0.395,0.165
	c-0.129,0.074-0.24,0.159-0.339,0.259l-0.51-0.51c0.143-0.142,0.307-0.268,0.489-0.373c0.182-0.104,0.372-0.184,0.568-0.236
	c0.093-0.024,0.185-0.043,0.276-0.057c0.014-0.091,0.033-0.183,0.058-0.274c0.055-0.204,0.134-0.396,0.235-0.57
	c0.106-0.184,0.232-0.348,0.373-0.489l0.51,0.51c-0.098,0.097-0.185,0.212-0.26,0.341c-0.07,0.12-0.125,0.253-0.163,0.396
	c-0.038,0.144-0.058,0.286-0.058,0.423v0.36h-0.358V23.774z M19.254,13.255l-0.508-0.51c0.143-0.143,0.308-0.268,0.488-0.373
	c0.181-0.104,0.371-0.183,0.569-0.236c0.092-0.024,0.184-0.044,0.275-0.057c0.014-0.091,0.033-0.183,0.058-0.274
	c0.055-0.204,0.134-0.396,0.235-0.571c0.105-0.182,0.231-0.346,0.373-0.488l0.51,0.509c-0.099,0.098-0.186,0.213-0.26,0.341
	c-0.07,0.121-0.125,0.254-0.163,0.395c-0.039,0.147-0.058,0.286-0.058,0.424v0.36h-0.36c-0.139,0-0.281,0.02-0.425,0.058
	c-0.137,0.037-0.27,0.092-0.395,0.164C19.468,13.069,19.354,13.156,19.254,13.255z M14.254,8.254l-0.509-0.509
	c0.141-0.142,0.306-0.267,0.489-0.374c0.181-0.104,0.373-0.184,0.57-0.236c0.091-0.025,0.183-0.044,0.275-0.057
	c0.014-0.092,0.033-0.184,0.058-0.275c0.053-0.199,0.132-0.391,0.235-0.569c0.105-0.183,0.231-0.347,0.374-0.489l0.509,0.509
	c-0.098,0.098-0.185,0.213-0.259,0.341c-0.071,0.124-0.126,0.256-0.163,0.394c-0.04,0.146-0.059,0.285-0.059,0.425v0.36h-0.36
	c-0.139,0-0.281,0.02-0.424,0.058c-0.137,0.037-0.27,0.092-0.396,0.164C14.467,8.07,14.352,8.157,14.254,8.254z M16.746,8.746
	l0.509,0.509c-0.099,0.098-0.186,0.213-0.26,0.341c-0.071,0.124-0.126,0.256-0.163,0.394c-0.04,0.146-0.059,0.285-0.059,0.425v0.36
	h-0.36c-0.139,0-0.281,0.02-0.424,0.058c-0.137,0.037-0.27,0.092-0.396,0.164c-0.128,0.074-0.243,0.162-0.34,0.259l-0.509-0.509
	c0.141-0.142,0.306-0.267,0.489-0.374c0.181-0.104,0.373-0.184,0.57-0.236c0.091-0.025,0.183-0.044,0.275-0.057
	c0.014-0.092,0.033-0.184,0.058-0.275c0.053-0.199,0.132-0.391,0.235-0.569C16.478,9.052,16.603,8.888,16.746,8.746z M22.005,1.596
	c-0.074-0.129-0.161-0.244-0.26-0.342l0.51-0.509c0.142,0.142,0.268,0.307,0.373,0.489c0.102,0.174,0.181,0.366,0.235,0.569
	c0.024,0.092,0.044,0.184,0.058,0.275c0.092,0.013,0.184,0.032,0.275,0.057c0.198,0.053,0.389,0.132,0.568,0.235
	c0.182,0.105,0.347,0.231,0.489,0.374l-0.508,0.51c-0.1-0.099-0.214-0.186-0.342-0.26c-0.124-0.072-0.257-0.127-0.394-0.164
	c-0.144-0.038-0.286-0.058-0.425-0.058h-0.36v-0.36c0-0.138-0.019-0.277-0.058-0.425C22.13,1.849,22.075,1.716,22.005,1.596z
	 M16.005,3.595c-0.074-0.128-0.162-0.243-0.259-0.341l0.509-0.509c0.143,0.142,0.268,0.307,0.374,0.489
	c0.104,0.178,0.183,0.37,0.236,0.57c0.024,0.091,0.043,0.183,0.057,0.274c0.092,0.013,0.184,0.033,0.275,0.057
	c0.198,0.053,0.389,0.132,0.568,0.235c0.182,0.105,0.347,0.231,0.489,0.374l-0.508,0.51c-0.1-0.099-0.214-0.186-0.342-0.26
	C17.28,4.922,17.147,4.867,17.01,4.83c-0.143-0.038-0.286-0.058-0.425-0.058h-0.36v-0.36c0-0.14-0.019-0.278-0.058-0.424
	C16.131,3.852,16.076,3.719,16.005,3.595z M11.005,4.595c-0.074-0.128-0.162-0.243-0.259-0.341l0.509-0.509
	c0.143,0.142,0.268,0.307,0.374,0.489c0.104,0.178,0.183,0.37,0.236,0.57c0.024,0.091,0.043,0.183,0.057,0.274
	c0.092,0.013,0.184,0.033,0.275,0.057c0.197,0.052,0.388,0.132,0.568,0.235c0.184,0.107,0.349,0.232,0.49,0.374l-0.509,0.509
	c-0.097-0.097-0.212-0.185-0.341-0.259c-0.125-0.072-0.257-0.127-0.394-0.164c-0.143-0.038-0.286-0.058-0.424-0.058h-0.36v-0.36
	c0-0.14-0.019-0.278-0.058-0.424C11.131,4.852,11.076,4.719,11.005,4.595z M12.226,9.774v-0.36c0-0.14-0.019-0.278-0.058-0.424
	c-0.037-0.139-0.092-0.271-0.163-0.395c-0.074-0.128-0.162-0.243-0.259-0.341l0.509-0.509c0.143,0.142,0.268,0.307,0.374,0.489
	c0.104,0.178,0.183,0.37,0.236,0.57c0.024,0.091,0.043,0.183,0.057,0.274c0.092,0.013,0.184,0.033,0.275,0.057
	c0.197,0.052,0.388,0.132,0.568,0.235c0.184,0.107,0.349,0.232,0.49,0.374l-0.509,0.509c-0.097-0.097-0.212-0.185-0.341-0.259
	c-0.125-0.072-0.257-0.127-0.394-0.164c-0.143-0.038-0.286-0.058-0.424-0.058h-0.361V9.774z"/>
<rect id="_Transparent_Rectangle" style="fill:none;" width="32" height="32"/>
</svg>
