<svg xmlns="http://www.w3.org/2000/svg" viewBox="0 0 48 48"><path fill="none" stroke-linejoin="round" stroke-miterlimit="10" stroke-width=".72" d="M23.999,27.659 c-4.782,2.761-10.897,1.122-13.658-3.66s-1.122-10.897,3.66-13.658s10.897-1.122,13.658,3.66S28.781,24.898,23.999,27.659z M26.5,25.623v-8 M21.558,11.816l6.928,4 M20.986,9.193l-6.928,4 M11.5,12.377v8 M9.514,22.184l6.928,4 M17.014,28.807l6.928-4 M16.5,31v4 M26.5,29v6 M36.5,35V19.981L31.337,17"/><path fill="none" stroke-linejoin="round" stroke-miterlimit="10" stroke-width=".72" d="M16.5,39 c-1.104,0-2-0.896-2-2c0-1.104,0.896-2,2-2c1.105,0,2,0.896,2,2C18.5,38.104,17.605,39,16.5,39z M28.5,37c0-1.104-0.895-2-2-2 c-1.104,0-2,0.896-2,2c0,1.104,0.896,2,2,2C27.605,39,28.5,38.104,28.5,37z M38.5,37c0-1.104-0.895-2-2-2c-1.104,0-2,0.896-2,2 c0,1.104,0.896,2,2,2C37.605,39,38.5,38.104,38.5,37z"/></svg>