<svg width="55px" height="55px" viewBox="0 0 55 55" xmlns="http://www.w3.org/2000/svg"><path d="M31.444512,25.5642606 C31.7235557,25.7319553 31.8145483,26.0925998 31.6467176,26.3714174 C31.479898,26.650235 31.1179499,26.7411538 30.8389061,26.5744694 C30.5598624,26.4067747 30.4698809,26.0461302 30.6367005,25.7673126 C30.8035202,25.488495 31.1654682,25.3975762 31.444512,25.5642606 Z M23.1547891,14.494797 C23.4338328,14.6614814 23.5248254,15.0231362 23.3569947,15.3019538 C23.1901751,15.5807714 22.828227,15.6716902 22.5491832,15.5039955 C22.2701395,15.3373111 22.180158,14.9756563 22.3469776,14.6968387 C22.5137973,14.4180211 22.8757453,14.3271023 23.1547891,14.494797 Z M43.0688079,43.1190626 L43.1183482,39.6560669 L38.3503396,39.5883829 L27.5242504,39.4338209 L13.9137898,39.2398609 L12.1485347,42.6776013 L43.0688079,43.1190626 Z M28.0530181,33.1280978 L27.975169,38.5650414 L40.9830568,38.7509198 L41.059895,33.3139762 L31.784723,33.1816388 L28.0530181,33.1280978 Z M29.1509947,27.1153352 L32.0496123,32.3098287 L37.2837049,32.3845841 L33.1122029,24.9090392 C32.9201075,24.564558 32.6410638,24.2766485 32.3033804,24.0746068 C31.6037489,23.6553701 30.7312316,23.6412272 30.0275561,24.0331882 C29.6838065,24.2251279 29.3936414,24.5069761 29.1873917,24.8504471 C28.7850025,25.5222359 28.7698371,26.432434 29.1509947,27.1153352 Z M34.0312274,15.4615668 C34.0170731,16.4505611 34.4042968,17.3516674 35.0372004,18.017395 L35.128193,17.8638432 L35.8803979,18.3123759 L35.7246996,18.57402 C36.2757099,18.9245624 36.9207458,19.1417573 37.6203773,19.1518594 C39.6282791,19.1801453 41.2853542,17.5718929 41.313663,15.5656183 C41.3419718,13.5593436 39.732415,11.9036115 37.7245132,11.8753256 C35.7176224,11.8460296 34.0605473,13.4552921 34.0312274,15.4615668 Z M25.6518263,16.5697658 L33.3295739,16.6788683 C33.223416,16.2848869 33.1496109,15.8767626 33.1556771,15.448434 C33.1617433,15.0211157 33.2466696,14.616022 33.3639489,14.2250712 L25.9399694,14.1189993 C26.0248957,14.4149905 26.0825243,14.7220939 26.0774692,15.0453607 C26.070392,15.6019858 25.9076165,16.116182 25.6518263,16.5697658 Z M22.8189255,17.3476265 C24.1140526,17.3658103 25.1837203,16.3273157 25.2019188,15.0332382 C25.2211284,13.7391608 24.1807804,12.6693497 22.8856534,12.651166 C21.5895153,12.6329822 20.5208586,13.6714768 20.5026601,14.9655543 C20.4915388,15.6838127 20.8140568,16.3232748 21.3165377,16.7617054 L21.3933759,16.6334089 L22.1445698,17.0819416 L22.0717758,17.2031667 C22.3073453,17.287014 22.5550472,17.3435857 22.8189255,17.3476265 Z M20.9202147,24.5029353 C21.2629533,23.9554021 21.3681002,23.3108889 21.2225121,22.6835493 C21.0769241,22.0562096 20.6977885,21.5248398 20.1548664,21.1874301 C19.0295921,20.4863452 17.5423698,20.8318366 16.8417273,21.9551888 L15.4242658,24.2311891 L19.5907127,26.7142823 L20.9202147,24.5029353 Z M21.614791,17.9699151 L20.245859,20.2620788 C20.3712265,20.3196607 20.497605,20.3701712 20.6169063,20.4449266 C20.7321635,20.5156413 20.8302332,20.6035294 20.9343691,20.6873767 L22.4317018,18.1790284 C22.1465918,18.1416506 21.8705812,18.0769973 21.614791,17.9699151 Z M43.5682557,38.7872873 C43.8098915,38.790318 44.0029978,38.9893291 43.9999648,39.230769 L43.938292,43.5686055 C43.9342479,43.8110556 43.7360864,44.0029952 43.4934397,43.9999646 L11.4317158,43.54234 C11.2800616,43.5403196 11.1405397,43.4595029 11.0626905,43.3301962 C10.9848413,43.2008895 10.9787752,43.0402663 11.0485361,42.9059085 L13.2576326,38.5983783 C13.3344707,38.4508878 13.4871359,38.3579486 13.6539556,38.3609792 L27.0996186,38.5519087 L27.183534,32.6785549 C27.1875781,32.4361048 27.3857396,32.2431549 27.6273753,32.2471957 L31.0395952,32.2956858 L28.3866574,27.5416433 C27.8487905,26.5789143 27.869011,25.3474698 28.4361978,24.4009042 C28.7213077,23.9261061 29.1236969,23.5351553 29.6009022,23.2694704 C30.3531071,22.8492235 31.2397788,22.7734579 32.0506233,23.0199488 L34.5802157,18.782123 C34.2091684,18.4305703 33.90586,18.017395 33.6702904,17.5587602 L24.9441067,17.4345045 C24.52453,17.7941388 24.021038,18.0578033 23.4589063,18.1648854 L21.5632286,21.3409818 C21.8018312,21.6814222 21.9777501,22.0673219 22.0748088,22.4855484 C22.2739814,23.340185 22.1294044,24.2200768 21.6673645,24.9595496 L20.1164474,27.5396229 C20.0335431,27.6770112 19.885933,27.7537871 19.7342787,27.7517667 C19.6604737,27.7507565 19.5846466,27.7305523 19.5179187,27.6891337 L17.4453111,26.4546586 L16.6759187,27.743685 C17.4988955,28.4770966 17.7364872,29.7085411 17.1763776,30.7076376 L16.6344665,31.6703665 C16.5768379,31.745122 16.4605697,31.8542245 16.3695771,31.8794797 L14.782263,32.3249818 C14.7408108,32.3371043 14.6993587,32.3421554 14.6579065,32.3421554 C14.4688443,32.3391247 14.2969695,32.2128486 14.243385,32.0229294 C14.1776682,31.7895712 14.3131459,31.5481313 14.5466934,31.4824677 L15.9641549,31.0844454 L16.4120403,30.2803193 C16.8235288,29.5469077 16.5606614,28.6154952 15.826655,28.2043402 C15.0936596,27.792175 14.1604807,28.0548293 13.7489922,28.7892511 L13.2970627,29.5933773 L13.6933857,31.0036287 C13.7591025,31.236987 13.6226137,31.4784269 13.3910883,31.5440904 C13.1575408,31.6117744 12.9169161,31.4733758 12.8501882,31.2410278 L12.4053359,29.655 C12.373994,29.5438771 12.3881484,29.4246724 12.444766,29.3226413 L12.984655,28.3609226 C13.5720623,27.3133361 14.8318034,26.8860178 15.9227027,27.2961625 L16.6941172,26.0061259 L14.5921897,24.7534671 C14.4910869,24.6938647 14.4193039,24.5958745 14.3909951,24.4807107 C14.3636973,24.3675673 14.3829069,24.2463422 14.4445796,24.1473418 L16.0976106,21.4925131 C16.8144295,20.3459262 18.1297771,19.7943522 19.3905292,19.9893225 L20.8635971,17.5203722 C20.103304,16.919298 19.6119443,15.994957 19.6260987,14.9534317 C19.6523855,13.1764745 21.1193873,11.7510699 22.8977857,11.7763252 C24.0099167,11.7924885 24.9845478,12.3713381 25.5527456,13.2380972 L33.7299411,13.3552815 C34.5094437,11.9389688 36.0098095,10.9752296 37.7366455,11.0004848 C40.2278188,11.0358421 42.2256104,13.0885863 42.1892134,15.5777408 C42.1609046,17.6102808 40.7768071,19.2932886 38.9175264,19.8297095 L35.3597184,25.7919617 L34.6075135,25.3444392 L37.79023,20.0105369 C37.7285573,20.0125573 37.6709287,20.0277104 37.6082449,20.0267002 C36.748871,20.0145777 35.956225,19.7488928 35.2778251,19.3215745 L32.8452915,23.3967567 C33.2699233,23.6735539 33.6308603,24.0402597 33.8765401,24.4827311 L38.293722,32.3997373 L41.5098025,32.4451967 C41.7524492,32.4482273 41.9455556,32.6472384 41.9425225,32.8886783 L41.8575962,38.7630423 L43.5682557,38.7872873 Z M37.359532,16.0283949 C37.0804883,15.8617105 36.9894957,15.5000557 37.1573264,15.2212381 C37.324146,14.9424205 37.6860941,14.8515017 37.9651379,15.0191963 C38.2441816,15.1858808 38.3341631,15.5475355 38.1673435,15.8263531 C38.0005239,16.1051708 37.6385758,16.1960896 37.359532,16.0283949 Z"></path></svg>
