<?xml version="1.0" encoding="iso-8859-1"?>
<!-- Generator: Adobe Illustrator 24.1.2, SVG Export Plug-In . SVG Version: 6.00 Build 0)  -->
<svg version="1.1" id="Layer_1" xmlns="http://www.w3.org/2000/svg" xmlns:xlink="http://www.w3.org/1999/xlink" x="0px" y="0px"
	 viewBox="0 0 32 32" style="enable-background:new 0 0 32 32;" xml:space="preserve">
<path id="bangalore_1_" d="M5.5,10c0-0.276,0.224-0.5,0.5-0.5S6.5,9.724,6.5,10S6.276,10.5,6,10.5S5.5,10.276,5.5,10z M26,10.5
	c0.276,0,0.5-0.224,0.5-0.5S26.276,9.5,26,9.5s-0.5,0.224-0.5,0.5S25.724,10.5,26,10.5z M6,21.5c-0.276,0-0.5,0.224-0.5,0.5
	s0.224,0.5,0.5,0.5s0.5-0.224,0.5-0.5S6.276,21.5,6,21.5z M25.5,22c0,0.276,0.224,0.5,0.5,0.5s0.5-0.224,0.5-0.5s-0.224-0.5-0.5-0.5
	S25.5,21.724,25.5,22z M16,18c-0.276,0-0.5,0.224-0.5,0.5S15.724,19,16,19c0.276,0,0.5-0.224,0.5-0.5S16.276,18,16,18z M16,2.5
	c0.276,0,0.5-0.224,0.5-0.5S16.276,1.5,16,1.5S15.5,1.724,15.5,2S15.724,2.5,16,2.5z M8,30.36h16v-0.72H8V30.36z M30.333,18.138
	C30.277,18.272,30.146,18.36,30,18.36h-1.64v7.279H30v0.721h-5.64v1.279H28v0.721H4v-0.72h3.64v-1.28H2v-0.72h1.64v-7.28H2
	c-0.146,0-0.277-0.088-0.333-0.223s-0.025-0.289,0.078-0.393L3.64,15.85V14c0-1.301,1.059-2.36,2.36-2.36S8.36,12.699,8.36,14v1.64
	H10c0.146,0,0.277,0.087,0.333,0.222c0.056,0.134,0.025,0.289-0.078,0.392L8.869,17.64h2.771v-3.491l-1.895-1.895
	c-0.103-0.103-0.134-0.258-0.078-0.392C9.723,11.728,9.854,11.64,10,11.64h1.64V10c0-1.927,1.264-3.546,3-4.121V5
	c0-0.75,0.61-1.36,1.36-1.36S17.36,4.25,17.36,5v0.879c1.736,0.575,3,2.195,3,4.121v1.64H22c0.146,0,0.277,0.087,0.333,0.222
	c0.056,0.134,0.024,0.289-0.078,0.392l-1.895,1.895v3.491h2.771l-1.386-1.385c-0.103-0.103-0.134-0.258-0.078-0.392
	c0.056-0.135,0.188-0.222,0.333-0.222h1.64V14c0-1.301,1.059-2.36,2.36-2.36s2.36,1.059,2.36,2.36v1.851l1.895,1.894
	C30.357,17.849,30.389,18.003,30.333,18.138z M24.36,15.64h3.279V14c0-0.904-0.735-1.64-1.64-1.64s-1.64,0.736-1.64,1.64
	L24.36,15.64L24.36,15.64z M8.36,20.36v5.279h1.28V20.36H8.36z M10.36,25.64h1.28v-5.28h-1.28V25.64z M12.36,20.36v5.279h1.28V20.36
	H12.36z M14.36,19.64h3.28v-1.49L16,16.509l-1.64,1.64V19.64z M14.36,20.36v5.279h3.28V20.36H14.36z M18.36,25.64h1.279v-5.28H18.36
	V25.64z M10.36,26.36v1.279h1.28V26.36H10.36z M12.36,27.64h1.28v-1.28h-1.28V27.64z M14.36,27.64h3.28v-1.28h-3.28V27.64z
	 M18.36,27.64h1.279v-1.28H18.36V27.64z M20.36,27.64h1.279v-1.28H20.36V27.64z M21.64,25.64v-5.28h-1.28v5.279L21.64,25.64
	L21.64,25.64z M22.36,25.64h1.279v-5.28H22.36V25.64z M25.131,19.64l-1.28-1.279h-5.49v1.279H25.131z M15.36,5.705
	C15.57,5.674,15.781,5.64,16,5.64s0.43,0.033,0.64,0.065V5c0-0.353-0.287-0.64-0.64-0.64S15.36,4.647,15.36,5V5.705z M12.36,10v1.64
	h2.28V9c0-0.75,0.61-1.36,1.36-1.36c0.75,0,1.36,0.61,1.36,1.36v2.64h2.279V10c0-2.007-1.633-3.64-3.64-3.64
	C13.993,6.36,12.36,7.993,12.36,10z M16.64,11.64V9c0-0.353-0.287-0.64-0.64-0.64S15.36,8.647,15.36,9v2.64H16.64z M10.869,12.36
	l1.28,1.28h7.702l1.28-1.28H20h-8H10.869z M12.36,17.64h1.491l1.895-1.894c0.141-0.141,0.368-0.141,0.509,0l1.895,1.894h1.49v-3.28
	h-7.28C12.36,14.36,12.36,17.64,12.36,17.64z M8.149,18.36l-1.28,1.279h6.771V18.36H8.149z M4.36,14v1.64h3.28V14
	c0-0.904-0.736-1.64-1.64-1.64S4.36,13.096,4.36,14z M2.869,17.64h4.982l1.28-1.28H4.149L2.869,17.64z M7.64,25.64v-5.28H6
	c-0.146,0-0.277-0.088-0.333-0.223s-0.025-0.289,0.078-0.393l1.385-1.385H4.36v7.279h3.28V25.64z M8.36,27.64h1.28v-1.28H8.36V27.64
	z M23.64,26.36h-1.28v1.279h1.279L23.64,26.36L23.64,26.36z M27.64,18.36h-2.771l1.386,1.385c0.103,0.104,0.134,0.258,0.078,0.393
	S26.146,20.36,26,20.36h-1.64v5.279h3.279L27.64,18.36L27.64,18.36z M29.131,17.64l-1.28-1.28H22.87l1.28,1.28H29.131z"/>
<rect id="_Transparent_Rectangle" style="fill:none;" width="32" height="32"/>
</svg>
