<?xml version="1.0" encoding="iso-8859-1"?>
<!-- Generator: Adobe Illustrator 22.0.0, SVG Export Plug-In . SVG Version: 6.00 Build 0)  -->
<svg version="1.1" xmlns="http://www.w3.org/2000/svg" xmlns:xlink="http://www.w3.org/1999/xlink" x="0px" y="0px"
	 viewBox="0 0 48 48" style="enable-background:new 0 0 48 48;" xml:space="preserve">
<g id="bangalore">
	<rect style="fill:#FFFFFF;" width="48" height="48"/>
	<g id="bangalore_1_">
		<g>
			<circle cx="14" cy="18" r="0.5"/>
			<circle cx="34" cy="18" r="0.5"/>
			<circle cx="14" cy="30" r="0.5"/>
			<circle cx="34" cy="30" r="0.5"/>
			<circle cx="24" cy="26.5" r="0.5"/>
			<circle cx="24" cy="10" r="0.5"/>
		</g>
		<g>
			
				<line style="fill:none;stroke:#000000;stroke-width:0.72;stroke-linecap:round;stroke-linejoin:round;stroke-miterlimit:10;" x1="28" y1="20" x2="20" y2="20"/>
			<path style="fill:none;stroke:#000000;stroke-width:0.72;stroke-linecap:round;stroke-linejoin:round;stroke-miterlimit:10;" d="
				M25,20v-3c0-0.552-0.448-1-1-1s-1,0.448-1,1v3"/>
			<path style="fill:none;stroke:#000000;stroke-width:0.72;stroke-linecap:round;stroke-linejoin:round;stroke-miterlimit:10;" d="
				M25,14v-1c0-0.552-0.448-1-1-1s-1,0.448-1,1v1"/>
			
				<line style="fill:none;stroke:#000000;stroke-width:0.72;stroke-linejoin:round;stroke-miterlimit:10;" x1="12" y1="36" x2="36" y2="36"/>
			
				<line style="fill:none;stroke:#000000;stroke-width:0.72;stroke-linejoin:round;stroke-miterlimit:10;" x1="16" y1="38" x2="32" y2="38"/>
			
				<line style="fill:none;stroke:#000000;stroke-width:0.72;stroke-linejoin:round;stroke-miterlimit:10;" x1="38" y1="34" x2="10" y2="34"/>
			
				<line style="fill:none;stroke:#000000;stroke-width:0.72;stroke-linecap:round;stroke-linejoin:round;stroke-miterlimit:10;" x1="18" y1="28" x2="18" y2="36"/>
			
				<line style="fill:none;stroke:#000000;stroke-width:0.72;stroke-linecap:round;stroke-linejoin:round;stroke-miterlimit:10;" x1="16" y1="28" x2="16" y2="36"/>
			
				<polyline style="fill:none;stroke:#000000;stroke-width:0.72;stroke-linecap:round;stroke-linejoin:round;stroke-miterlimit:10;" points="
				22,36 22,28 22,26 24,24 26,26 26,28 26,36 			"/>
			
				<line style="fill:none;stroke:#000000;stroke-width:0.72;stroke-linecap:round;stroke-linejoin:round;stroke-miterlimit:10;" x1="30" y1="28" x2="30" y2="36"/>
			
				<line style="fill:none;stroke:#000000;stroke-width:0.72;stroke-linecap:round;stroke-linejoin:round;stroke-miterlimit:10;" x1="28" y1="28" x2="28" y2="36"/>
			
				<line style="fill:none;stroke:#000000;stroke-width:0.72;stroke-linecap:round;stroke-linejoin:round;stroke-miterlimit:10;" x1="20" y1="28" x2="20" y2="36"/>
			
				<line style="fill:none;stroke:#000000;stroke-width:0.72;stroke-linecap:round;stroke-linejoin:round;stroke-miterlimit:10;" x1="32" y1="28" x2="32" y2="36"/>
			
				<line style="fill:none;stroke:#000000;stroke-width:0.72;stroke-linecap:round;stroke-linejoin:round;stroke-miterlimit:10;" x1="36" y1="26" x2="36" y2="34"/>
			
				<line style="fill:none;stroke:#000000;stroke-width:0.72;stroke-linecap:round;stroke-linejoin:round;stroke-miterlimit:10;" x1="12" y1="26" x2="12" y2="34"/>
			
				<polygon style="fill:none;stroke:#000000;stroke-width:0.72;stroke-linecap:round;stroke-linejoin:round;stroke-miterlimit:10;" points="
				28,22 20,22 18,20 30,20 			"/>
			
				<polyline style="fill:none;stroke:#000000;stroke-width:0.72;stroke-linecap:round;stroke-linejoin:round;stroke-miterlimit:10;" points="
				26,26 38,26 36,24 30,24 34,28 14,28 18,24 12,24 10,26 22,26 			"/>
			<path style="fill:none;stroke:#000000;stroke-width:0.72;stroke-linecap:round;stroke-linejoin:round;stroke-miterlimit:10;" d="
				M28,20v-2c0-2.209-1.791-4-4-4s-4,1.791-4,4v2"/>
			<path style="fill:none;stroke:#000000;stroke-width:0.72;stroke-linecap:round;stroke-linejoin:round;stroke-miterlimit:10;" d="
				M36,24v-2c0-1.105-0.895-2-2-2s-2,0.895-2,2v2"/>
			<path style="fill:none;stroke:#000000;stroke-width:0.72;stroke-linecap:round;stroke-linejoin:round;stroke-miterlimit:10;" d="
				M16,24v-2c0-1.105-0.895-2-2-2s-2,0.895-2,2v2"/>
			
				<line style="fill:none;stroke:#000000;stroke-width:0.72;stroke-linecap:round;stroke-linejoin:round;stroke-miterlimit:10;" x1="20" y1="22" x2="20" y2="26"/>
			
				<line style="fill:none;stroke:#000000;stroke-width:0.72;stroke-linecap:round;stroke-linejoin:round;stroke-miterlimit:10;" x1="28" y1="26" x2="28" y2="22"/>
		</g>
	</g>
</g>
<g id="Layer_1">
</g>
</svg>
