<?xml version="1.0" encoding="iso-8859-1"?>
<!-- Generator: Adobe Illustrator 24.1.2, SVG Export Plug-In . SVG Version: 6.00 Build 0)  -->
<svg version="1.1" id="Layer_1" xmlns="http://www.w3.org/2000/svg" xmlns:xlink="http://www.w3.org/1999/xlink" x="0px" y="0px"
	 viewBox="0 0 32 32" style="enable-background:new 0 0 32 32;" xml:space="preserve">
<path id="beijing--municipal_1_" d="M14,22.36v-0.72h4v0.721L14,22.36L14,22.36z M20,22.36h4v-0.72h-4V22.36z M21,24.36h4v-0.72h-4
	V24.36z M27,25.64h-5v0.721h5V25.64z M29,27.64h-6v0.721h6V27.64z M24,30.36h7v-0.72h-7V30.36z M13,24.36h6v-0.72h-6V24.36z
	 M12,26.36h8v-0.72h-8V26.36z M11,27.64v0.721h10V27.64H11z M10,29.64v0.721h12V29.64H10z M8,22.36h4v-0.72H8V22.36z M7,24.36h4
	v-0.72H7V24.36z M5,26.36h5v-0.72H5V26.36z M3,28.36h6v-0.72H3V28.36z M1,30.36h7v-0.72H1V30.36z M1,20.36h30v-0.72H1V20.36z
	 M31.36,14v1c0,0.199-0.161,0.36-0.36,0.36h-1.64v2.28H31v0.721H1V17.64h1.64v-2.28H1c-0.199,0-0.36-0.161-0.36-0.36v-1
	c0-0.199,0.161-0.36,0.36-0.36c1.834,0,3.72-0.915,4.682-1.838V10.36H3c-0.199,0-0.36-0.161-0.36-0.36V9
	c0-0.199,0.161-0.36,0.36-0.36c1.851,0,4.668-1.877,5.64-3.74V3h0.72v1.64h13.28V3h0.721v1.9c0.972,1.863,3.789,3.74,5.64,3.74
	c0.199,0,0.36,0.161,0.36,0.36v1c0,0.199-0.161,0.36-0.36,0.36h-2.64v1.479c0.973,0.91,2.83,1.801,4.64,1.801
	C31.199,13.64,31.36,13.801,31.36,14z M3.36,9.64h25.28V9.341c-2.039-0.203-4.772-2.049-5.856-3.981H9.216
	C8.132,7.292,5.399,9.138,3.36,9.341V9.64z M6.401,10.36v1.28H25.64v-1.28H6.401z M3.36,17.64h1.28v-2.28H3.36V17.64z M25.36,15.36
	v2.28h1.279v-2.28H25.36z M24.64,15.36h-1.28v2.28h1.279L24.64,15.36L24.64,15.36z M22.64,15.36h-3.28v2.28h1.279V16h0.721v1.64
	h1.279L22.64,15.36L22.64,15.36z M18.64,15.36h-5.28v2.28h2.28V16h0.72v1.64h2.28V15.36z M12.64,15.36H9.36v2.28h1.28V16h0.72v1.64
	h1.28C12.64,17.64,12.64,15.36,12.64,15.36z M8.64,15.36H7.36v2.28h1.28V15.36z M6.64,15.36H5.36v2.28h1.28
	C6.64,17.64,6.64,15.36,6.64,15.36z M28.64,15.36h-1.28v2.28h1.279L28.64,15.36L28.64,15.36z M30.64,14.35
	c-1.957-0.107-3.797-1.064-4.785-1.99H6.146c-0.988,0.926-2.829,1.883-4.786,1.99v0.29h29.28C30.64,14.64,30.64,14.35,30.64,14.35z"
	/>
<rect id="_Transparent_Rectangle" style="fill:none;" width="32" height="32"/>
</svg>
