<?xml version="1.0" encoding="iso-8859-1"?>
<!-- Generator: Adobe Illustrator 27.5.0, SVG Export Plug-In . SVG Version: 6.00 Build 0)  -->
<svg version="1.1" id="Layer_1" xmlns="http://www.w3.org/2000/svg" xmlns:xlink="http://www.w3.org/1999/xlink" x="0px" y="0px"
	 viewBox="0 0 32 32" style="enable-background:new 0 0 32 32;" xml:space="preserve">
<path id="bento-box-tray_00000075877446328283019390000018324918049396383423_" d="M27,31.36H5c-2.404,0-4.36-1.956-4.36-4.36V5
	c0-2.404,1.956-4.36,4.36-4.36h22c2.404,0,4.36,1.956,4.36,4.36v22C31.36,29.404,29.404,31.36,27,31.36z M5,1.36
	C2.993,1.36,1.36,2.993,1.36,5v22c0,2.007,1.633,3.64,3.64,3.64h22c2.007,0,3.64-1.633,3.64-3.64V5c0-2.007-1.633-3.64-3.64-3.64
	C27,1.36,5,1.36,5,1.36z M27,28.36H11c-0.75,0-1.36-0.61-1.36-1.36v-9c0-0.75,0.61-1.36,1.36-1.36h16c0.75,0,1.36,0.61,1.36,1.36v9
	C28.36,27.75,27.75,28.36,27,28.36z M11,17.36c-0.353,0-0.64,0.287-0.64,0.64v9c0,0.353,0.287,0.64,0.64,0.64h16
	c0.353,0,0.64-0.287,0.64-0.64v-9c0-0.353-0.287-0.64-0.64-0.64H11z M8,28.36H4c-0.199,0-0.36-0.161-0.36-0.36V4
	c0-0.199,0.161-0.36,0.36-0.36h4c0.199,0,0.36,0.161,0.36,0.36v24C8.36,28.199,8.199,28.36,8,28.36z M4.36,27.64h3.28V9.96H4.36
	V27.64z M6.36,9.24h1.28V4.36H6.36V9.24z M4.36,9.24h1.28V4.36H4.36V9.24z M27,15.36h-8c-0.75,0-1.36-0.61-1.36-1.36V5
	c0-0.75,0.61-1.36,1.36-1.36h8c0.75,0,1.36,0.61,1.36,1.36v9C28.36,14.75,27.75,15.36,27,15.36z M19,4.36
	c-0.353,0-0.64,0.287-0.64,0.64v9c0,0.353,0.287,0.64,0.64,0.64h8c0.353,0,0.64-0.287,0.64-0.64V5c0-0.353-0.287-0.64-0.64-0.64H19z
	 M15,15.36h-4c-0.75,0-1.36-0.61-1.36-1.36V5c0-0.75,0.61-1.36,1.36-1.36h4c0.75,0,1.36,0.61,1.36,1.36v9
	C16.36,14.75,15.75,15.36,15,15.36z M11,4.36c-0.353,0-0.64,0.287-0.64,0.64v9c0,0.353,0.287,0.64,0.64,0.64h4
	c0.353,0,0.64-0.287,0.64-0.64V5c0-0.353-0.287-0.64-0.64-0.64H11z"/>
<rect id="_Transparent_Rectangle" style="fill:none;" width="32" height="32"/>
</svg>
