<svg xmlns="http://www.w3.org/2000/svg" viewBox="0 0 48 48"><path fill="none" stroke-miterlimit="10" stroke-width=".72" d="M18,39V18c0-3.314,2.686-6,6-6s6,2.686,6,6 v21"/><path fill="none" stroke-miterlimit="10" stroke-width=".72" d="M10,36V18c0-1.657,1.343-3,3-3s3,1.343,3,3 v18"/><path fill="none" stroke-miterlimit="10" stroke-width=".72" d="M32,36V18c0-1.657,1.343-3,3-3s3,1.343,3,3 v18"/><line x1="10" x2="16" y1="18" y2="18" fill="none" stroke-linecap="round" stroke-linejoin="round" stroke-miterlimit="10" stroke-width=".72"/><line x1="32" x2="38" y1="18" y2="18" fill="none" stroke-linecap="round" stroke-linejoin="round" stroke-miterlimit="10" stroke-width=".72"/><line x1="10" x2="38" y1="24" y2="24" fill="none" stroke-linecap="round" stroke-linejoin="round" stroke-miterlimit="10" stroke-width=".72"/><line x1="18" x2="30" y1="18" y2="18" fill="none" stroke-linecap="round" stroke-linejoin="round" stroke-miterlimit="10" stroke-width=".72"/><line x1="20" x2="28" y1="32" y2="32" fill="none" stroke-linecap="round" stroke-linejoin="round" stroke-miterlimit="10" stroke-width=".72"/><path fill="none" stroke-miterlimit="10" stroke-width=".72" d="M20,39v-7c0-2.209,1.791-4,4-4s4,1.791,4,4v7"/><polyline fill="none" stroke-linecap="round" stroke-linejoin="round" stroke-miterlimit="10" stroke-width=".72" points="10,31 13,28 16,31"/><polyline fill="none" stroke-linecap="round" stroke-linejoin="round" stroke-miterlimit="10" stroke-width=".72" points="32,31 35,28 38,31"/><path fill="none" stroke-linecap="round" stroke-linejoin="round" stroke-miterlimit="10" stroke-width=".72" d="M22,14c0-1.105,0.895-2,2-2s2,0.895,2,2"/><line x1="22" x2="22" y1="14" y2="18" fill="none" stroke-linecap="round" stroke-linejoin="round" stroke-miterlimit="10" stroke-width=".72"/><line x1="26" x2="26" y1="14" y2="18" fill="none" stroke-linecap="round" stroke-linejoin="round" stroke-miterlimit="10" stroke-width=".72"/><line x1="24" x2="24" y1="9" y2="12" fill="none" stroke-linecap="round" stroke-linejoin="round" stroke-miterlimit="10" stroke-width=".72"/><polyline fill="none" stroke-miterlimit="10" stroke-width=".72" points="12,36 12,32 14,32 14,36"/><polyline fill="none" stroke-miterlimit="10" stroke-width=".72" points="34,36 34,32 36,32 36,36"/><polyline fill="none" stroke-miterlimit="10" stroke-width=".72" points="23,39 23,34 25,34 25,39"/><circle cx="24" cy="27" r="1" fill="none" stroke-linecap="round" stroke-linejoin="round" stroke-miterlimit="10" stroke-width=".72"/><polyline fill="none" stroke-linecap="round" stroke-linejoin="round" stroke-miterlimit="10" stroke-width=".72" points="23,24 23,21 24,20 25,21 25,24"/><circle cx="13" cy="21" r=".5"/><circle cx="20.5" cy="21" r=".5"/><circle cx="27.5" cy="21" r=".5"/><circle cx="35" cy="21" r=".5"/><circle cx="35" cy="13" r=".5"/><circle cx="13" cy="13" r=".5"/></svg>