<?xml version="1.0" encoding="iso-8859-1"?>
<!-- Generator: Adobe Illustrator 24.1.2, SVG Export Plug-In . SVG Version: 6.00 Build 0)  -->
<svg version="1.1" id="Layer_1" xmlns="http://www.w3.org/2000/svg" xmlns:xlink="http://www.w3.org/1999/xlink" x="0px" y="0px"
	 viewBox="0 0 32 32" style="enable-background:new 0 0 32 32;" xml:space="preserve">
<path id="berlin--tower_1_" d="M9,9.64H8.305c-0.159-0.575-0.681-1-1.305-1c-0.339,0-0.646,0.129-0.884,0.335
	C5.733,8.188,4.932,7.64,4,7.64c-1.193,0-2.172,0.893-2.328,2.044C1.081,9.832,0.64,10.364,0.64,11c0,0.75,0.61,1.36,1.36,1.36h7
	c0.75,0,1.36-0.61,1.36-1.36S9.75,9.64,9,9.64z M9,11.64H2c-0.353,0-0.64-0.287-0.64-0.64S1.647,10.36,2,10.36
	c0.199,0,0.36-0.161,0.36-0.36c0-0.904,0.736-1.64,1.64-1.64S5.64,9.096,5.64,10c0,0.199,0.161,0.36,0.36,0.36S6.36,10.199,6.36,10
	c0-0.353,0.287-0.64,0.64-0.64S7.64,9.647,7.64,10c0,0.199,0.161,0.36,0.36,0.36h1c0.353,0,0.64,0.287,0.64,0.64
	S9.353,11.64,9,11.64z M30,19.64h-0.694c-0.159-0.575-0.681-1-1.306-1c-0.339,0-0.645,0.129-0.884,0.335
	C26.733,18.188,25.933,17.64,25,17.64c-1.194,0-2.172,0.893-2.328,2.045c-0.591,0.148-1.032,0.68-1.032,1.316
	c0,0.75,0.61,1.36,1.36,1.36h7c0.75,0,1.36-0.61,1.36-1.36S30.75,19.64,30,19.64z M30,21.64h-7c-0.353,0-0.64-0.287-0.64-0.64
	s0.287-0.64,0.64-0.64c0.199,0,0.36-0.161,0.36-0.36c0-0.904,0.735-1.64,1.64-1.64s1.64,0.735,1.64,1.64
	c0,0.199,0.161,0.36,0.36,0.36s0.36-0.161,0.36-0.36c0-0.353,0.287-0.64,0.64-0.64s0.64,0.287,0.64,0.64
	c0,0.199,0.161,0.36,0.36,0.36h1c0.353,0,0.64,0.287,0.64,0.64S30.353,21.64,30,21.64z M18.36,12.354V9.64h-1V8.36h1V5.64h-2V4.36
	H17V3.64h-0.64V1h-0.72v2.64H15v0.72h0.64v1.28h-2v2.72h1v1.28h-1v2.713c-1.239,0.802-2,2.181-2,3.646c0,1.927,1.264,3.546,3,4.122
	v1.518h-1v2.721h1v1.279h-1V28v0.36V31h0.72v-2.64h1.28V31h0.72v-2.64h1.28V31h0.721v-2.64V28v-2.36h-1v-1.28h1v-2.72h-1v-1.518
	c1.736-0.575,3-2.195,3-4.121C20.36,14.535,19.599,13.156,18.36,12.354z M14.36,6.36h3.28v1.28H17h-2h-0.64V6.36z M15.36,8.36h1.28
	v1.28h-1.28V8.36z M15,10.36h2h0.64v1.616c-1.061-0.442-2.219-0.442-3.28,0V10.36H15z M14.181,12.866
	c1.151-0.67,2.484-0.671,3.638,0c1.033,0.601,1.683,1.622,1.797,2.774h-7.233C12.497,14.488,13.148,13.467,14.181,12.866z
	 M17.64,27.64h-3.28v-1.28H15h2h0.64V27.64z M16.64,25.64h-1.28v-1.28h1.28V25.64z M17.64,23.64H17h-2h-0.64v-1.28H15h2h0.64V23.64z
	 M16.64,20.36v1.279h-1.28V20.36H16.64z M16,19.64c-1.884,0-3.42-1.444-3.604-3.28h7.207C19.419,18.196,17.884,19.64,16,19.64z"/>
<rect id="_Transparent_Rectangle" style="fill:none;" width="32" height="32"/>
</svg>
