<svg xmlns="http://www.w3.org/2000/svg" viewBox="0 0 48 48"><rect width="2" height="2" x="23" y="16" fill="none" stroke-linecap="round" stroke-linejoin="round" stroke-miterlimit="10" stroke-width=".72"/><line x1="23" x2="25" y1="12" y2="12" fill="none" stroke-linejoin="round" stroke-miterlimit="10" stroke-width=".72"/><rect width="2" height="2" x="23" y="28" fill="none" stroke-linecap="round" stroke-linejoin="round" stroke-miterlimit="10" stroke-width=".72"/><rect width="4" height="2" x="22" y="30" fill="none" stroke-linecap="round" stroke-miterlimit="10" stroke-width=".72"/><rect width="2" height="2" x="23" y="32" fill="none" stroke-linecap="round" stroke-linejoin="round" stroke-miterlimit="10" stroke-width=".72"/><rect width="4" height="2" x="22" y="34" fill="none" stroke-linecap="round" stroke-miterlimit="10" stroke-width=".72"/><rect width="4" height="2" x="22" y="14" fill="none" stroke-linecap="round" stroke-miterlimit="10" stroke-width=".72"/><line x1="20" x2="28" y1="24" y2="24" fill="none" stroke-linecap="round" stroke-linejoin="round" stroke-miterlimit="10" stroke-width=".72"/><line x1="24" x2="24" y1="9" y2="14" fill="none" stroke-linejoin="round" stroke-miterlimit="10" stroke-width=".72"/><line x1="24" x2="24" y1="36" y2="39" fill="none" stroke-linejoin="round" stroke-miterlimit="10" stroke-width=".72"/><line x1="26" x2="26" y1="36" y2="39" fill="none" stroke-linejoin="round" stroke-miterlimit="10" stroke-width=".72"/><line x1="22" x2="22" y1="36" y2="39" fill="none" stroke-linejoin="round" stroke-miterlimit="10" stroke-width=".72"/><path fill="none" stroke-linecap="round" stroke-linejoin="round" stroke-miterlimit="10" stroke-width=".72" d="M10,18c0-1.105,0.895-2,2-2s2,0.895,2,2"/><path fill="none" stroke-linecap="round" stroke-linejoin="round" stroke-miterlimit="10" stroke-width=".72" d="M10,20c-0.552,0-1-0.448-1-1s0.448-1,1-1"/><path fill="none" stroke-linecap="round" stroke-linejoin="round" stroke-miterlimit="10" stroke-width=".72" d="M14,18c0-0.552,0.448-1,1-1s1,0.448,1,1"/><path fill="none" stroke-linecap="round" stroke-linejoin="round" stroke-miterlimit="10" stroke-width=".72" d="M17,18c0.552,0,1,0.448,1,1s-0.448,1-1,1"/><line x1="17" x2="16" y1="18" y2="18" fill="none" stroke-linecap="round" stroke-linejoin="round" stroke-miterlimit="10" stroke-width=".72"/><line x1="17" x2="10" y1="20" y2="20" fill="none" stroke-linecap="round" stroke-linejoin="round" stroke-miterlimit="10" stroke-width=".72"/><path fill="none" stroke-linecap="round" stroke-linejoin="round" stroke-miterlimit="10" stroke-width=".72" d="M31,28c0-1.105,0.895-2,2-2c1.105,0,2,0.895,2,2"/><path fill="none" stroke-linecap="round" stroke-linejoin="round" stroke-miterlimit="10" stroke-width=".72" d="M31,30c-0.552,0-1-0.448-1-1s0.448-1,1-1"/><path fill="none" stroke-linecap="round" stroke-linejoin="round" stroke-miterlimit="10" stroke-width=".72" d="M35,28c0-0.552,0.448-1,1-1s1,0.448,1,1"/><path fill="none" stroke-linecap="round" stroke-linejoin="round" stroke-miterlimit="10" stroke-width=".72" d="M38,28c0.552,0,1,0.448,1,1s-0.448,1-1,1"/><line x1="38" x2="37" y1="28" y2="28" fill="none" stroke-linecap="round" stroke-linejoin="round" stroke-miterlimit="10" stroke-width=".72"/><line x1="38" x2="31" y1="30" y2="30" fill="none" stroke-linecap="round" stroke-linejoin="round" stroke-miterlimit="10" stroke-width=".72"/><path fill="none" stroke-miterlimit="10" stroke-width=".72" d="M26,20.555V18h-4v2.555 c-1.191,0.693-2,1.968-2,3.445c0,2.209,1.791,4,4,4s4-1.791,4-4C28,22.523,27.191,21.248,26,20.555z"/><path fill="none" stroke-linecap="round" stroke-miterlimit="10" stroke-width=".72" d="M26,20.555 C25.41,20.211,24.732,20,24,20s-1.41,0.211-2,0.555"/></svg>