<?xml version="1.0" encoding="iso-8859-1"?>
<!-- Generator: Adobe Illustrator 24.1.2, SVG Export Plug-In . SVG Version: 6.00 Build 0)  -->
<svg version="1.1" id="Layer_1" xmlns="http://www.w3.org/2000/svg" xmlns:xlink="http://www.w3.org/1999/xlink" x="0px" y="0px"
	 viewBox="0 0 32 32" style="enable-background:new 0 0 32 32;" xml:space="preserve">
<path id="bicycle_1_" d="M26,15.64c-0.847,0-1.649,0.197-2.362,0.549l-2.316-4.012c-0.006-0.012-0.013-0.023-0.02-0.035L18.541,7.36
	H23c0.904,0,1.64,0.736,1.64,1.64s-0.735,1.64-1.64,1.64v0.72c1.302,0,2.36-1.059,2.36-2.36S24.302,6.64,23,6.64h-5.077
	c-0.063,0-0.127,0.014-0.186,0.048c-0.173,0.1-0.231,0.32-0.132,0.492l2.771,4.799h-9.168L8.541,7.36H10
	c0.199,0,0.36-0.161,0.36-0.36S10.199,6.64,10,6.64H7.923c-0.004,0-0.01-0.001-0.013,0H6C5.801,6.64,5.64,6.801,5.64,7
	S5.801,7.36,6,7.36h1.709l2.875,4.98l-2.223,3.849C7.649,15.837,6.847,15.64,6,15.64c-2.956,0-5.36,2.405-5.36,5.36
	S3.044,26.36,6,26.36c2.834,0,5.162-2.212,5.348-5h2.319c0.174,1.131,1.154,2,2.333,2c1.302,0,2.36-1.059,2.36-2.36
	c0-0.742-0.345-1.406-0.883-1.839L21,13.06l2.015,3.49c-1.431,0.964-2.375,2.599-2.375,4.45c0,2.955,2.405,5.36,5.36,5.36
	s5.36-2.405,5.36-5.36S28.955,15.64,26,15.64z M6,25.64c-2.559,0-4.64-2.081-4.64-4.64S3.441,16.36,6,16.36
	c0.716,0,1.395,0.163,2.001,0.454l-2.31,4c-0.017,0.028-0.03,0.059-0.039,0.091c-0.012,0.044-0.015,0.088-0.011,0.131
	c0.005,0.052,0.021,0.1,0.046,0.143c0.025,0.044,0.06,0.083,0.103,0.114c0.034,0.024,0.073,0.043,0.115,0.055
	c0.033,0.008,0.062,0.011,0.101,0.013h4.62C10.442,23.751,8.438,25.64,6,25.64z M6.624,20.64l2-3.465
	c1.124,0.773,1.892,2.029,2.002,3.465H6.624z M13.667,20.64h-2.319c-0.114-1.702-1.025-3.189-2.363-4.09L11,13.06l3.522,6.102
	C14.073,19.522,13.759,20.045,13.667,20.64z M17.64,21c0,0.904-0.735,1.64-1.64,1.64s-1.64-0.735-1.64-1.64s0.736-1.64,1.64-1.64
	S17.64,20.096,17.64,21z M16.854,18.8c-0.265-0.104-0.553-0.16-0.854-0.16s-0.589,0.057-0.854,0.16l-3.522-6.101h8.754L16.854,18.8z
	 M26,25.64c-2.559,0-4.64-2.081-4.64-4.64c0-1.585,0.799-2.987,2.016-3.825l2.312,4.005c0.1,0.174,0.321,0.233,0.491,0.132
	c0.173-0.1,0.231-0.319,0.132-0.491l-2.312-4.006c0.606-0.291,1.285-0.454,2.001-0.454c2.559,0,4.64,2.082,4.64,4.64
	S28.559,25.64,26,25.64z"/>
<rect id="_Transparent_Rectangle" style="fill:none;" width="32" height="32"/>
</svg>
