<?xml version="1.0" encoding="iso-8859-1"?>
<!-- Generator: Adobe Illustrator 22.0.0, SVG Export Plug-In . SVG Version: 6.00 Build 0)  -->
<svg version="1.1" xmlns="http://www.w3.org/2000/svg" xmlns:xlink="http://www.w3.org/1999/xlink" x="0px" y="0px"
	 viewBox="0 0 48 48" style="enable-background:new 0 0 48 48;" xml:space="preserve">
<g id="bicycle">
	<g id="bicycle_2_">
		
			<path id="bicycle_3_" style="fill:none;stroke:#000000;stroke-width:0.72;stroke-linecap:round;stroke-linejoin:round;stroke-miterlimit:10;" d="
			M19,29c0,2.761-2.239,5-5,5s-5-2.239-5-5s2.239-5,5-5S19,26.239,19,29z M24,27c-1.105,0-2,0.895-2,2s0.895,2,2,2s2-0.895,2-2
			S25.105,27,24,27z M34,24c-2.761,0-5,2.239-5,5s2.239,5,5,5s5-2.239,5-5S36.761,24,34,24z M14,29h8 M19,20.339h10 M14,29l5-8.66
			 M34,29l-8.083-14 M15.917,15L23,27.268 M25,27.268l4-6.928 M14,15h4 M25.918,15H31"/>
		<path style="fill:none;stroke:#000000;stroke-width:0.72;stroke-linejoin:round;stroke-miterlimit:10;" d="M31,19
			c1.105,0,2-0.895,2-2s-0.895-2-2-2"/>
	</g>
</g>
<g id="Layer_1">
</g>
</svg>
