<?xml version="1.0" encoding="iso-8859-1"?>
<!-- Generator: Adobe Illustrator 24.3.0, SVG Export Plug-In . SVG Version: 6.00 Build 0)  -->
<svg version="1.1" id="Layer_1" xmlns="http://www.w3.org/2000/svg" xmlns:xlink="http://www.w3.org/1999/xlink" x="0px" y="0px"
	 viewBox="0 0 32 32" style="enable-background:new 0 0 32 32;" xml:space="preserve">
<path id="birthday--cake_1_" d="M31,31.36H1v-0.72h2.64V15c0-1.301,1.059-2.36,2.36-2.36h1.64V7c0-0.199,0.161-0.36,0.36-0.36h2
	c0.199,0,0.36,0.161,0.36,0.36v5.64h4.28V7c0-0.199,0.161-0.36,0.36-0.36h2c0.199,0,0.36,0.161,0.36,0.36v5.64h4.279V7
	c0-0.199,0.161-0.36,0.36-0.36h2c0.199,0,0.36,0.161,0.36,0.36v5.64H26c1.302,0,2.36,1.059,2.36,2.36v15.64H31V31.36z M4.36,30.64
	h23.28V18.695c-0.425,0.411-1.003,0.665-1.64,0.665c-0.842,0-1.582-0.443-2-1.108c-0.418,0.665-1.158,1.108-2,1.108
	s-1.582-0.443-2-1.108c-0.418,0.665-1.158,1.108-2,1.108s-1.582-0.443-2-1.108c-0.418,0.665-1.158,1.108-2,1.108
	s-1.582-0.443-2-1.108c-0.418,0.665-1.158,1.108-2,1.108s-1.582-0.443-2-1.108c-0.418,0.665-1.158,1.108-2,1.108
	c-0.637,0-1.215-0.254-1.64-0.665C4.36,18.695,4.36,30.64,4.36,30.64z M24,16.64c0.199,0,0.36,0.161,0.36,0.36
	c0,0.904,0.735,1.64,1.64,1.64s1.64-0.735,1.64-1.64v-2c0-0.904-0.735-1.64-1.64-1.64H6c-0.904,0-1.64,0.736-1.64,1.64v2
	c0,0.904,0.736,1.64,1.64,1.64S7.64,17.904,7.64,17c0-0.199,0.161-0.36,0.36-0.36S8.36,16.801,8.36,17c0,0.904,0.736,1.64,1.64,1.64
	s1.64-0.735,1.64-1.64c0-0.199,0.161-0.36,0.36-0.36s0.36,0.161,0.36,0.36c0,0.904,0.736,1.64,1.64,1.64s1.64-0.735,1.64-1.64
	c0-0.199,0.161-0.36,0.36-0.36s0.36,0.161,0.36,0.36c0,0.904,0.736,1.64,1.64,1.64s1.64-0.735,1.64-1.64
	c0-0.199,0.161-0.36,0.36-0.36s0.36,0.161,0.36,0.36c0,0.904,0.735,1.64,1.64,1.64s1.64-0.735,1.64-1.64
	C23.64,16.801,23.801,16.64,24,16.64z M22.36,12.64h1.279V7.36H22.36V12.64z M15.36,12.64h1.28V7.36h-1.28V12.64z M8.36,12.64h1.28
	V7.36H8.36V12.64z M23,5.36c-0.75,0-1.36-0.61-1.36-1.36c0-1.055,0.932-2.949,1.038-3.161c0.123-0.244,0.521-0.244,0.645,0
	C23.429,1.051,24.36,2.945,24.36,4C24.36,4.75,23.75,5.36,23,5.36z M23,1.86C22.703,2.549,22.36,3.473,22.36,4
	c0,0.353,0.287,0.64,0.64,0.64S23.64,4.353,23.64,4C23.64,3.473,23.297,2.549,23,1.86z M16,5.36c-0.75,0-1.36-0.61-1.36-1.36
	c0-1.055,0.932-2.949,1.038-3.161c0.121-0.244,0.522-0.244,0.644,0C16.428,1.051,17.36,2.945,17.36,4C17.36,4.75,16.75,5.36,16,5.36
	z M16,1.86C15.703,2.549,15.36,3.473,15.36,4c0,0.353,0.287,0.64,0.64,0.64S16.64,4.353,16.64,4C16.64,3.473,16.297,2.549,16,1.86z
	 M9,5.36C8.25,5.36,7.64,4.75,7.64,4c0-1.055,0.932-2.949,1.038-3.161c0.121-0.244,0.522-0.244,0.644,0
	C9.428,1.051,10.36,2.945,10.36,4C10.36,4.75,9.75,5.36,9,5.36z M9,1.86C8.703,2.549,8.36,3.473,8.36,4
	c0,0.353,0.287,0.64,0.64,0.64S9.64,4.353,9.64,4C9.64,3.473,9.297,2.549,9,1.86z"/>
<rect id="_Transparent_Rectangle" style="fill:none;" width="32" height="32"/>
</svg>
