<?xml version="1.0" encoding="iso-8859-1"?>
<!-- Generator: Adobe Illustrator 24.1.2, SVG Export Plug-In . SVG Version: 6.00 Build 0)  -->
<svg version="1.1" id="Layer_1" xmlns="http://www.w3.org/2000/svg" xmlns:xlink="http://www.w3.org/1999/xlink" x="0px" y="0px"
	 viewBox="0 0 32 32" style="enable-background:new 0 0 32 32;" xml:space="preserve">
<path id="blender_1_" d="M14,28c0,0.276-0.224,0.5-0.5,0.5S13,28.276,13,28s0.224-0.5,0.5-0.5S14,27.724,14,28z M16,27.5
	c-0.276,0-0.5,0.224-0.5,0.5s0.224,0.5,0.5,0.5c0.276,0,0.5-0.224,0.5-0.5S16.276,27.5,16,27.5z M18.5,27.5
	c-0.276,0-0.5,0.224-0.5,0.5s0.224,0.5,0.5,0.5S19,28.276,19,28S18.776,27.5,18.5,27.5z M23,31.36h-3c-0.199,0-0.36-0.161-0.36-0.36
	v-0.64h-7.28V31c0,0.199-0.161,0.36-0.36,0.36H9c-0.101,0-0.198-0.043-0.266-0.117c-0.068-0.075-0.102-0.175-0.093-0.275l1-11
	C9.658,19.782,9.814,19.64,10,19.64h0.613L9.65,6.16L7.746,4.254C7.643,4.151,7.612,3.997,7.667,3.862
	C7.723,3.728,7.854,3.64,8,3.64h1.777l0.901-1.801C10.739,1.717,10.864,1.64,11,1.64h10c0.137,0,0.261,0.077,0.322,0.199
	l0.999,1.999c0.028,0.057,0.042,0.12,0.038,0.185L22.195,6.64H24c0.75,0,1.36,0.61,1.36,1.36v6c0,0.75-0.61,1.36-1.36,1.36h-2.35
	l-0.268,4.28H22c0.187,0,0.342,0.143,0.358,0.328l1,11c0.01,0.101-0.024,0.2-0.093,0.275C23.197,31.317,23.102,31.36,23,31.36z
	 M20.36,30.64h2.245l-0.934-10.28H10.329L9.394,30.64h2.246V30c0-0.199,0.161-0.36,0.36-0.36h8c0.199,0,0.36,0.161,0.36,0.36V30.64z
	 M11.335,19.64h9.327l0.955-15.28H8.869l1.385,1.386c0.062,0.061,0.099,0.143,0.104,0.229l0.19,2.666H13v0.72h-2.399l0.234,3.28H13
	v0.72h-2.113l0.234,3.28H13v0.72h-1.828L11.335,19.64z M21.695,14.64H24c0.353,0,0.64-0.287,0.64-0.64V8
	c0-0.353-0.287-0.64-0.64-0.64h-1.85L21.695,14.64z M10.583,3.64h10.835l-0.641-1.28h-9.555L10.583,3.64z M16,26.36
	c-1.301,0-2.36-1.059-2.36-2.36s1.059-2.36,2.36-2.36c1.302,0,2.36,1.059,2.36,2.36S17.302,26.36,16,26.36z M16,22.36
	c-0.904,0-1.64,0.735-1.64,1.64s0.736,1.64,1.64,1.64c0.904,0,1.64-0.735,1.64-1.64S16.904,22.36,16,22.36z"/>
<rect id="_Transparent_Rectangle" style="fill:none;" width="32" height="32"/>
</svg>
