<?xml version="1.0" encoding="iso-8859-1"?>
<!-- Generator: Adobe Illustrator 24.1.2, SVG Export Plug-In . SVG Version: 6.00 Build 0)  -->
<svg version="1.1" xmlns="http://www.w3.org/2000/svg" xmlns:xlink="http://www.w3.org/1999/xlink" x="0px" y="0px"
	 viewBox="0 0 48 48" style="enable-background:new 0 0 48 48;" xml:space="preserve">
<g id="blender">
	<g id="blender_1_">
		<path d="M22,36c0,0.276-0.224,0.5-0.5,0.5S21,36.276,21,36c0-0.276,0.224-0.5,0.5-0.5S22,35.724,22,36z M24,35.5
			c-0.276,0-0.5,0.224-0.5,0.5c0,0.276,0.224,0.5,0.5,0.5s0.5-0.224,0.5-0.5C24.5,35.724,24.276,35.5,24,35.5z M26.5,35.5
			c-0.276,0-0.5,0.224-0.5,0.5c0,0.276,0.224,0.5,0.5,0.5S27,36.276,27,36C27,35.724,26.776,35.5,26.5,35.5z"/>
		<path style="fill:none;stroke:#000000;stroke-width:0.72;stroke-linejoin:round;stroke-miterlimit:10;" d="M20,39h-3l1-11h12l1,11
			h-3v-1h-8V39z M29.307,23H32c0.552,0,1-0.448,1-1v-6c0-0.552-0.448-1-1-1h-2.19 M24,30c-1.105,0-2,0.895-2,2c0,1.105,0.895,2,2,2
			s2-0.895,2-2C26,30.895,25.105,30,24,30z M29,28l1-16H16l2,2l1,14 M18.232,17H21 M18.516,21H21 M18.761,25H21 M30,12l-1-2H19l-1,2
			"/>
	</g>
</g>
<g id="Layer_1">
</g>
</svg>
