<?xml version="1.0" encoding="iso-8859-1"?>
<!-- Generator: Adobe Illustrator 24.1.2, SVG Export Plug-In . SVG Version: 6.00 Build 0)  -->
<svg version="1.1" id="Layer_1" xmlns="http://www.w3.org/2000/svg" xmlns:xlink="http://www.w3.org/1999/xlink" x="0px" y="0px"
	 viewBox="0 0 32 32" style="enable-background:new 0 0 32 32;" xml:space="preserve">
<path id="blockchain_1_" d="M30,30.4h-6c-0.2,0-0.4-0.2-0.4-0.4v-2.6h-4.3V30c0,0.2-0.2,0.4-0.4,0.4h-6c-0.2,0-0.4-0.2-0.4-0.4v-2.6
	H8.4V30c0,0.2-0.2,0.4-0.4,0.4H2c-0.2,0-0.4-0.2-0.4-0.4v-6c0-0.2,0.2-0.4,0.4-0.4h2.6v-4.3H2c-0.2,0-0.4-0.2-0.4-0.4v-6
	c0-0.2,0.2-0.4,0.4-0.4h2.6V8.4H2C1.8,8.4,1.6,8.2,1.6,8V2c0-0.2,0.2-0.4,0.4-0.4h6c0.2,0,0.4,0.2,0.4,0.4v2.6h4.3V2
	c0-0.2,0.2-0.4,0.4-0.4h6c0.2,0,0.4,0.2,0.4,0.4v2.6h4.3V2c0-0.2,0.2-0.4,0.4-0.4h6c0.2,0,0.4,0.2,0.4,0.4v6c0,0.2-0.2,0.4-0.4,0.4
	h-2.6v4.3H30c0.2,0,0.4,0.2,0.4,0.4v6c0,0.2-0.2,0.4-0.4,0.4h-2.6v4.3H30c0.2,0,0.4,0.2,0.4,0.4v6C30.4,30.2,30.2,30.4,30,30.4z
	 M24.4,29.6h5.3v-5.3h-5.3C24.4,24.3,24.4,29.6,24.4,29.6z M13.4,29.6h5.3v-5.3h-5.3C13.4,24.4,13.4,29.6,13.4,29.6z M2.4,29.6h5.3
	v-5.3H2.4V29.6z M19.4,26.6h4.3V24c0-0.2,0.2-0.4,0.4-0.4h2.6v-4.3H24c-0.2,0-0.4-0.2-0.4-0.4v-2.6h-4.3V19c0,0.2-0.2,0.4-0.4,0.4
	h-2.6v4.3H19c0.2,0,0.4,0.2,0.4,0.4V26.6z M8.4,26.6h4.3V24c0-0.2,0.2-0.4,0.4-0.4h2.6v-4.3H13c-0.2,0-0.4-0.2-0.4-0.4v-2.6H8.4V19
	c0,0.2-0.2,0.4-0.4,0.4H5.4v4.3H8c0.2,0,0.4,0.2,0.4,0.4V26.6z M27,18.6h2.6v-5.3h-5.3v5.3H27z M16,18.6h2.6v-5.3h-5.3v5.3H16z
	 M5,18.6h2.6v-5.3H2.4v5.3H5z M19.4,15.6h4.3V13c0-0.2,0.2-0.4,0.4-0.4h2.6V8.4H24c-0.2,0-0.4-0.2-0.4-0.4V5.4h-4.3V8
	c0,0.2-0.2,0.4-0.4,0.4h-2.6v4.3H19c0.2,0,0.4,0.2,0.4,0.4V15.6z M8.4,15.6h4.3V13c0-0.2,0.2-0.4,0.4-0.4h2.6V8.4H13
	c-0.2,0-0.4-0.2-0.4-0.4V5.4H8.4V8c0,0.2-0.2,0.4-0.4,0.4H5.4v4.3H8c0.2,0,0.4,0.2,0.4,0.4V15.6z M27,7.6h2.6V2.4h-5.3v5.3
	C24.4,7.6,27,7.6,27,7.6z M16,7.6h2.6V2.4h-5.3v5.3C13.4,7.6,16,7.6,16,7.6z M5,7.6h2.6V2.4H2.4v5.3C2.4,7.6,5,7.6,5,7.6z"/>
<rect id="_Transparent_Rectangle" style="fill:none;" width="32" height="32"/>
</svg>
