<svg width="55px" height="55px" viewBox="0 0 55 55" xmlns="http://www.w3.org/2000/svg"><path d="M40.8527164,35.313977 C40.570944,35.8082377 40.1163111,36.1617151 39.5727501,36.3095881 C39.0281899,36.458474 38.4616474,36.381499 37.9740412,36.096894 C36.9678538,35.5074274 36.622133,34.1978393 37.2036634,33.1779203 C37.4844366,32.6836597 37.9390695,32.3301823 38.4826305,32.1823093 C39.0271907,32.035449 39.5947323,32.1103984 40.0823386,32.3960162 C41.088526,32.98447 41.4342468,34.2940581 40.8527164,35.313977 Z M29.8406097,39.1515868 C29.2970487,38.4405807 28.454729,37.9746793 27.5004996,37.9746793 C26.4873178,37.9746793 25.5920409,38.4932478 25.0554742,39.2802161 L18.6946112,35.4284267 C18.7495668,35.2977718 18.8065208,35.1671168 18.843491,35.0283592 C19.0103562,34.3943282 18.9603965,33.7410533 18.724587,33.1424713 L23.0730752,30.5972316 L27.2836747,33.061445 C27.3506206,33.0999325 27.4255601,33.1201891 27.4995004,33.1201891 C27.5744399,33.1201891 27.6493794,33.0999325 27.7163253,33.061445 L31.9259256,30.5972316 L36.275413,33.1414585 C35.9866462,33.8798109 36.0056309,34.6779203 36.2894017,35.3818366 L29.8406097,39.1515868 Z M27.5004996,43.1228899 C26.3384381,43.1228899 25.3922022,42.1657664 25.3922022,40.987846 C25.3922022,39.8099257 26.3384381,38.8517893 27.5004996,38.8517893 C28.6625611,38.8517893 29.6087969,39.8099257 29.6087969,40.987846 C29.6087969,42.1657664 28.6625611,43.1228899 27.5004996,43.1228899 Z M17.0259588,36.0979068 C16.5383526,36.3835246 15.9718101,36.458474 15.4272499,36.3116138 C14.8836889,36.1637407 14.429056,35.8092505 14.1472836,35.3149899 C13.5657532,34.2950709 13.911474,32.9854828 14.9166622,32.397029 C15.2423992,32.20763 15.6021087,32.1093856 15.9668141,32.1093856 C16.1506657,32.1093856 16.3345172,32.1347063 16.5163703,32.1843349 C17.0599314,32.332208 17.5145642,32.6856853 17.7963366,33.179946 C18.0781091,33.6742066 18.1530486,34.2494936 18.0071664,34.8014855 C17.8612842,35.3524646 17.513565,35.8133018 17.0259588,36.0979068 Z M13.9384522,21.3116138 C13.7925701,20.7596219 13.8675095,20.1843349 14.149282,19.6900743 C14.4310544,19.1958136 14.8856873,18.8413234 15.4292483,18.6934504 C15.6111014,18.6448346 15.7959521,18.6205267 15.9788045,18.6205267 C16.3435099,18.6205267 16.7042186,18.7167454 17.0279572,18.9071573 C17.5155634,19.1927752 17.8642818,19.6536124 18.0101639,20.2045915 C18.1550469,20.7555706 18.0801075,21.3308575 17.798335,21.826131 C17.5175618,22.3193788 17.0619297,22.673869 16.5183687,22.8217421 C15.9748077,22.9686023 15.4082652,22.8936529 14.9196598,22.6080351 C14.4330528,22.3224173 14.0833352,21.8625928 13.9384522,21.3116138 Z M25.1513967,15.8403106 C25.6120247,16.4459824 26.2874792,16.8652937 27.0668498,16.9807562 L27.0668498,22.0651587 L22.8572495,24.5303849 C22.7223584,24.6083727 22.6404246,24.7532073 22.6404246,24.9101958 L22.6404246,29.8376097 L18.2929356,32.3828494 C17.8982543,31.8764348 17.3656844,31.5067522 16.7401896,31.3365969 C16.597305,31.2981094 16.452422,31.2808913 16.307539,31.2636732 L16.307539,23.7272113 C16.452422,23.7099932 16.5993034,23.7079676 16.7431872,23.6684673 C17.5095682,23.4598244 18.1510502,22.9615125 18.5477298,22.264686 C18.9454086,21.5668467 19.0513231,20.7545577 18.8454893,19.9767049 C18.8105176,19.8440243 18.755562,19.7204591 18.7036039,19.5948683 L25.1513967,15.8403106 Z M27.4985012,11.8771101 C28.6605627,11.8771101 29.6067986,12.8352465 29.6067986,14.012154 C29.6067986,15.1900743 28.6605627,16.1482107 27.4985012,16.1482107 C26.3364397,16.1482107 25.3902039,15.1900743 25.3902039,14.012154 C25.3902039,12.8352465 26.3364397,11.8771101 27.4985012,11.8771101 Z M27.4995004,22.8247806 L31.493275,25.1634031 L31.493275,29.8376097 L27.4995004,32.1752194 L23.5057258,29.8376097 L23.5057258,25.1634031 L27.4995004,22.8247806 Z M36.2953969,19.596894 C35.9526737,20.4345037 35.9716583,21.4149223 36.4532694,22.2596219 C36.9408756,23.1164754 37.7881913,23.6137745 38.6894634,23.7211344 L38.6894634,31.2626604 C38.5455796,31.2798785 38.4016958,31.2960837 38.2588112,31.3355841 C37.6343156,31.5047265 37.1007465,31.875422 36.7070644,32.3808238 L32.3595754,29.8376097 L32.3595754,24.9101958 C32.3595754,24.7532073 32.2766424,24.6083727 32.1427505,24.5303849 L27.932151,22.0651587 L27.932151,16.9807562 C28.7105224,16.8642809 29.3859769,16.4449696 29.8456057,15.8403106 L36.2953969,19.596894 Z M37.973042,18.9020932 C38.2977798,18.7116813 38.6574893,18.6154625 39.0221947,18.6154625 C39.2060462,18.6154625 39.3898978,18.6397704 39.5717509,18.6883862 C40.1153119,18.8362593 40.5699448,19.1907495 40.8517172,19.6850101 C41.4332476,20.7059419 41.0875268,22.0145172 40.0823386,22.602971 C39.075152,23.1924375 37.7841945,22.8409858 37.2026642,21.8210668 C36.6211338,20.800135 36.9668546,19.4905469 37.973042,18.9020932 Z M40.5149892,31.6363943 C40.2132328,31.4591492 39.8884951,31.3497637 39.5557638,31.2889939 L39.5557638,23.6968265 C39.8834991,23.6370695 40.2092361,23.5408508 40.51399,23.3625928 C41.9338433,22.5320729 42.4204503,20.6856853 41.601112,19.2464551 C41.2044324,18.5496286 40.5629504,18.0503038 39.7955702,17.841661 C39.0301883,17.6350439 38.2288354,17.7393653 37.5413906,18.1424713 C37.222648,18.327819 36.9588611,18.5719109 36.7390386,18.8433491 L30.2712619,15.0766374 C30.3951619,14.7444294 30.4720997,14.3879136 30.4720997,14.012154 C30.4720997,12.3521269 29.138177,11 27.4985012,11 C25.8588254,11 24.5249027,12.3521269 24.5249027,14.012154 C24.5249027,14.3879136 24.6008413,14.7444294 24.7257405,15.0766374 L18.2599622,18.8413234 C18.0371422,18.5688724 17.772356,18.3298447 17.4606078,18.1475354 C16.7721638,17.7444294 15.9708109,17.640108 15.205429,17.8467252 C14.4380488,18.055368 13.797566,18.5546928 13.3998872,19.2515192 C13.0032075,19.9483457 12.8972931,20.7606347 13.1031269,21.5384875 C13.3079614,22.3163403 13.7995644,22.9655638 14.4870092,23.367657 C14.7867672,23.5428764 15.1105057,23.6411209 15.4412386,23.7018906 L15.4412386,31.2910196 C15.1095065,31.3528022 14.785768,31.4611749 14.4850108,31.6374072 C13.0651575,32.4679271 12.5785505,34.3143147 13.3978888,35.7535449 C13.7945684,36.4513842 14.4360504,36.9496962 15.2034307,37.158339 C15.4592241,37.2282242 15.7190143,37.2626604 15.9778053,37.2626604 C16.4923897,37.2626604 16.9999798,37.1259284 17.4576102,36.8575287 C17.7643625,36.6792708 18.0241527,36.4442944 18.2449743,36.1779203 L24.681776,40.075287 C24.5898502,40.3649561 24.5269011,40.667792 24.5269011,40.987846 C24.5269011,42.6488859 25.8608238,44 27.5004996,44 C29.1401754,44 30.4740981,42.6488859 30.4740981,40.987846 C30.4740981,40.6080351 30.3971603,40.2484808 30.2692636,39.9132343 L36.7250499,36.13842 C36.9478699,36.4179608 37.2166529,36.666104 37.5423898,36.8565159 C38.0000202,37.1249156 38.5076103,37.2606347 39.0221947,37.2606347 C39.2809857,37.2606347 39.5407759,37.2261985 39.7965693,37.1573261 C40.5639496,36.9486833 41.2054316,36.4493585 41.6021112,35.7525321 C42.4214495,34.3133018 41.9348425,32.4669142 40.5149892,31.6363943 Z"></path></svg>
