<?xml version="1.0" encoding="iso-8859-1"?>
<!-- Generator: Adobe Illustrator 24.3.0, SVG Export Plug-In . SVG Version: 6.00 Build 0)  -->
<svg version="1.1" id="Layer_1" xmlns="http://www.w3.org/2000/svg" xmlns:xlink="http://www.w3.org/1999/xlink" x="0px" y="0px"
	 viewBox="0 0 32 32" style="enable-background:new 0 0 32 32;" xml:space="preserve">
<path id="bluepages_1_" d="M30.745,31.255l-7.557-7.558C20.695,26.062,17.447,27.36,14,27.36C6.633,27.36,0.64,21.367,0.64,14
	S6.633,0.64,14,0.64S27.36,6.633,27.36,14c0,3.447-1.298,6.695-3.663,9.188l7.558,7.557L30.745,31.255z M14,1.36
	C7.03,1.36,1.36,7.03,1.36,14S7.03,26.64,14,26.64c3.375,0,6.549-1.314,8.937-3.703c2.389-2.388,3.703-5.562,3.703-8.937
	C26.64,7.03,20.97,1.36,14,1.36z M18.36,22h-0.72v-0.501c0-1.605-1.087-3.038-2.644-3.483c-0.135-0.038-0.235-0.152-0.257-0.291
	c-0.021-0.14,0.041-0.278,0.158-0.355c0.465-0.306,0.742-0.817,0.742-1.369c0-0.904-0.736-1.64-1.64-1.64s-1.64,0.736-1.64,1.64
	c0,0.552,0.277,1.063,0.742,1.369c0.118,0.077,0.179,0.216,0.158,0.355s-0.122,0.253-0.257,0.291
	c-1.557,0.445-2.644,1.878-2.644,3.483V22H9.64v-0.501c0-1.714,1.032-3.264,2.575-3.959c-0.367-0.423-0.574-0.966-0.574-1.54
	c0-1.146,0.822-2.104,1.907-2.316c-0.293-1.272-1.263-2.298-2.551-2.667c-0.135-0.039-0.235-0.153-0.257-0.292
	c-0.021-0.139,0.041-0.278,0.158-0.355C11.362,10.064,11.64,9.552,11.64,9c0-0.904-0.736-1.64-1.64-1.64S8.36,8.096,8.36,9
	c0,0.552,0.277,1.064,0.742,1.37c0.118,0.077,0.179,0.216,0.158,0.355s-0.122,0.253-0.257,0.292C7.447,11.462,6.36,12.894,6.36,14.5
	V15H5.64v-0.5c0-1.714,1.032-3.264,2.575-3.959C7.848,10.118,7.641,9.574,7.641,9c0-1.301,1.058-2.36,2.359-2.36
	S12.359,7.699,12.359,9c0,0.574-0.207,1.117-0.573,1.54c0.999,0.447,1.785,1.245,2.214,2.228c0.429-0.983,1.215-1.781,2.214-2.228
	c-0.366-0.423-0.573-0.966-0.573-1.54c0-1.301,1.058-2.36,2.359-2.36c1.302,0,2.36,1.059,2.36,2.36c0,0.574-0.208,1.117-0.575,1.541
	c1.543,0.695,2.575,2.245,2.575,3.959V15h-0.72v-0.5c0-1.605-1.087-3.038-2.643-3.483c-0.136-0.039-0.236-0.153-0.257-0.292
	s0.04-0.277,0.157-0.355C19.362,10.064,19.64,9.552,19.64,9c0-0.904-0.735-1.64-1.64-1.64S16.36,8.096,16.36,9
	c0,0.552,0.277,1.064,0.742,1.37c0.117,0.077,0.18,0.216,0.158,0.355s-0.122,0.253-0.257,0.292
	c-1.289,0.369-2.258,1.395-2.551,2.667c1.085,0.212,1.907,1.17,1.907,2.316c0,0.574-0.208,1.117-0.574,1.54
	c1.542,0.695,2.575,2.245,2.575,3.959V22z"/>
<rect id="_Transparent_Rectangle" style="fill:none;" width="32" height="32"/>
</svg>
