<?xml version="1.0" encoding="iso-8859-1"?>
<!-- Generator: Adobe Illustrator 24.1.2, SVG Export Plug-In . SVG Version: 6.00 Build 0)  -->
<svg version="1.1" id="Layer_1" xmlns="http://www.w3.org/2000/svg" xmlns:xlink="http://www.w3.org/1999/xlink" x="0px" y="0px"
	 viewBox="0 0 32 32" style="enable-background:new 0 0 32 32;" xml:space="preserve">
<path id="box--plot_1_" d="M31,31.4H1c-0.2,0-0.4-0.2-0.4-0.4V1h0.7v29.6H31V31.4z M14,27.4H6v-0.7h3.6v-3.3H6
	c-0.2,0-0.4-0.2-0.4-0.4V11c0-0.2,0.2-0.4,0.4-0.4h3.6V7.4H6V6.6h8v0.7h-3.6v3.3H14c0.2,0,0.4,0.2,0.4,0.4v12c0,0.2-0.2,0.4-0.4,0.4
	h-3.6v3.3H14V27.4z M6.4,22.6h7.3v-5.3H6.4V22.6z M6.4,16.6h7.3v-5.3H6.4V16.6z M28,23.4h-8v-0.7h3.6v-3.3H20
	c-0.2,0-0.4-0.2-0.4-0.4V7c0-0.2,0.2-0.4,0.4-0.4h3.6V3.4H20V2.6h8v0.7h-3.6v3.3H28c0.2,0,0.4,0.2,0.4,0.4v12c0,0.2-0.2,0.4-0.4,0.4
	h-3.6v3.3H28V23.4z M20.4,18.6h7.3v-5.3h-7.3C20.4,13.3,20.4,18.6,20.4,18.6z M20.4,12.6h7.3V7.4h-7.3C20.4,7.4,20.4,12.6,20.4,12.6
	z"/>
<rect id="_Transparent_Rectangle" style="fill:none;" width="32" height="32"/>
</svg>
