<?xml version="1.0" encoding="iso-8859-1"?>
<!-- Generator: Adobe Illustrator 28.0.0, SVG Export Plug-In . SVG Version: 6.00 Build 0)  -->
<svg version="1.1" id="Layer_1" xmlns="http://www.w3.org/2000/svg" xmlns:xlink="http://www.w3.org/1999/xlink" x="0px" y="0px"
	 viewBox="0 0 32 32" style="enable-background:new 0 0 32 32;" xml:space="preserve">
<path id="bucharest--romanian-athenaeum_00000134231624900923862720000008472016541436680079_" d="M26,31.36H6v-0.72h20V31.36z
	 M31,29.36H1v-0.72h0.64V19c0-0.199,0.161-0.36,0.36-0.36h3.64V17c0-0.199,0.161-0.36,0.36-0.36h1.64V10
	c0-0.063,0.016-0.123,0.045-0.175c1.301-2.448,3.471-4.185,5.955-4.867c0.021-1.16,0.882-2.119,2-2.291V1h0.72v1.667
	c1.117,0.172,1.978,1.129,2,2.289c2.495,0.68,4.667,2.419,5.956,4.871C24.344,9.878,24.36,9.937,24.36,10v6.649L26,16.64
	c0.199,0,0.36,0.161,0.36,0.36v1.64H30c0.199,0,0.36,0.161,0.36,0.36v9.64H31V29.36z M24.36,28.64h5.279v-9.28H24.36V28.64z
	 M21.36,28.64h2.279v-9.28H21.36V28.64z M18.36,28.64h2.279v-9.28H18.36V28.64z M16.36,28.64h1.28v-9.28h-3.28v9.279h1.28V23h0.72
	V28.64z M11.36,28.64h2.28v-9.28h-2.28V28.64z M8.36,28.64h2.28v-9.28H8.36V28.64z M2.36,28.64h5.28v-9.28H2.36V28.64z M24.36,18.64
	h1.279v-1.28H24.36V18.64z M8.36,18.64h15.28v-1.369l-7.64-1.9l-7.64,1.91C8.36,17.281,8.36,18.64,8.36,18.64z M6.36,18.64h1.28
	v-1.288l-1.28,0.007C6.36,17.359,6.36,18.64,6.36,18.64z M8.36,10.36v6.189l7.553-1.898c0.058-0.015,0.117-0.015,0.175,0
	l7.552,1.888V10.36H8.36z M20.287,9.64h3.096c-1.371-2.25-3.575-3.761-6.035-4.169c1.317,1.042,2.338,2.455,2.988,4.15L20.287,9.64z
	 M16.36,9.64h3.208c-0.696-1.688-1.796-3.056-3.208-3.998V9.64z M12.431,9.64h3.209V5.644C14.228,6.586,13.128,7.954,12.431,9.64z
	 M8.62,9.64h3.093l-0.049-0.019c0.65-1.694,1.671-3.106,2.989-4.149C12.206,5.881,10.001,7.392,8.62,9.64z M16,3.36
	c-0.833,0-1.523,0.625-1.626,1.43c1.064-0.198,2.189-0.197,3.253-0.001C17.522,3.984,16.833,3.36,16,3.36z M27.641,23l-0.001-2
	h0.721l0.001,2H27.641z M25.641,23l-0.001-2h0.721l0.001,2H25.641z M5.641,23L5.64,21h0.72l0.001,2H5.641z M3.641,23L3.64,21h0.72
	l0.001,2H3.641z M22,14.36c-0.75,0-1.36-0.61-1.36-1.36s0.61-1.36,1.36-1.36s1.36,0.61,1.36,1.36S22.75,14.36,22,14.36z M22,12.36
	c-0.353,0-0.64,0.287-0.64,0.64s0.287,0.64,0.64,0.64s0.64-0.287,0.64-0.64S22.353,12.36,22,12.36z M18,14.36
	c-0.75,0-1.36-0.61-1.36-1.36s0.61-1.36,1.36-1.36s1.36,0.61,1.36,1.36S18.75,14.36,18,14.36z M18,12.36
	c-0.353,0-0.64,0.287-0.64,0.64s0.287,0.64,0.64,0.64s0.64-0.287,0.64-0.64S18.353,12.36,18,12.36z M14,14.36
	c-0.75,0-1.36-0.61-1.36-1.36s0.61-1.36,1.36-1.36s1.36,0.61,1.36,1.36S14.75,14.36,14,14.36z M14,12.36
	c-0.353,0-0.64,0.287-0.64,0.64s0.287,0.64,0.64,0.64s0.64-0.287,0.64-0.64S14.353,12.36,14,12.36z M10,14.36
	c-0.75,0-1.36-0.61-1.36-1.36s0.61-1.36,1.36-1.36s1.36,0.61,1.36,1.36S10.75,14.36,10,14.36z M10,12.36
	c-0.353,0-0.64,0.287-0.64,0.64s0.287,0.64,0.64,0.64s0.64-0.287,0.64-0.64S10.353,12.36,10,12.36z"/>
<rect id="_Transparent_Rectangle" style="fill:none;" width="32" height="32"/>
</svg>
