<?xml version="1.0" encoding="iso-8859-1"?>
<!-- Generator: Adobe Illustrator 24.3.0, SVG Export Plug-In . SVG Version: 6.00 Build 0)  -->
<svg version="1.1" id="Layer_1" xmlns="http://www.w3.org/2000/svg" xmlns:xlink="http://www.w3.org/1999/xlink" x="0px" y="0px"
	 viewBox="0 0 32 32" style="enable-background:new 0 0 32 32;" xml:space="preserve">
<path id="budapest_1_" d="M31,14.36v-0.72c-4.849,0-8.022-1.178-11.649-4.318L19.35,8.36H20V7.64h-0.539l0.32-1.28H20.5V5.64h-1
	h-1.14V4.36H19V3.64h-0.64h-4.72H13v0.72h0.64v1.28H12.5h-1v0.72h0.721l0.328,1.28H12v0.72h0.64v0.97
	C9.017,12.464,5.844,13.64,1,13.64v0.72c1.321,0,2.519-0.088,3.64-0.27v5.55H1v0.721h9.64V21c0,0.199,0.161,0.36,0.36,0.36h1.151
	l-0.474,5.215c-0.517-0.08-1.015-0.341-1.4-0.805c-0.137-0.166-0.418-0.166-0.555,0c-0.929,1.121-2.517,1.121-3.445,0
	c-0.137-0.166-0.418-0.166-0.555,0C5.258,26.331,4.646,26.64,4,26.64s-1.258-0.309-1.723-0.869
	c-0.126-0.153-0.354-0.175-0.507-0.048c-0.153,0.127-0.175,0.354-0.048,0.507C2.326,26.959,3.135,27.36,4,27.36
	c0.739,0,1.436-0.293,2-0.832c1.128,1.078,2.872,1.078,4,0c1.128,1.078,2.872,1.078,4,0c1.127,1.077,2.871,1.08,4-0.001
	c1.129,1.08,2.871,1.08,4,0c0.564,0.54,1.262,0.833,2,0.833s1.436-0.293,2-0.833c0.564,0.54,1.262,0.833,2,0.833
	c0.864,0,1.673-0.401,2.277-1.131c0.127-0.153,0.105-0.38-0.048-0.507c-0.154-0.127-0.38-0.105-0.507,0.048
	c-0.93,1.121-2.516,1.121-3.445,0c-0.137-0.166-0.418-0.166-0.555,0c-0.464,0.561-1.076,0.87-1.722,0.87s-1.258-0.309-1.723-0.869
	c-0.137-0.166-0.418-0.166-0.555,0c-0.385,0.464-0.883,0.725-1.4,0.805l-0.474-5.215H21c0.199,0,0.36-0.161,0.36-0.36v-0.64H31
	V19.64h-3.64v-5.55C28.482,14.272,29.679,14.36,31,14.36z M17.64,18v0.64h-1.28V18h-0.72v0.64h-1.28V18h-0.72v0.64h-0.519
	l0.207-2.28h5.343l0.207,2.28H18.36V18H17.64z M14.36,4.36h3.28v1.28h-3.28V4.36z M12.961,6.36h0.679h4.72h0.681l-0.313,1.28h-5.447
	L12.961,6.36z M18.64,8.36v7.28h-5.28l-0.01-7.28C13.35,8.36,18.64,8.36,18.64,8.36z M5.36,13.942
	c1.155-0.24,2.238-0.593,3.28-1.079v6.776H5.36V13.942z M9.36,19.64v-7.134c1.097-0.584,2.175-1.331,3.28-2.246v5.381H12v0.72h0.606
	l-0.207,2.28H11.36V17.5h-0.72V19v0.64H9.36z M19.242,22.64H18v0.721h1.307l0.292,3.206c-0.489-0.094-0.956-0.355-1.322-0.796
	c-0.137-0.166-0.418-0.166-0.555,0c-0.93,1.122-2.517,1.12-3.445,0c-0.137-0.166-0.418-0.166-0.555,0
	c-0.365,0.441-0.833,0.702-1.322,0.796l0.291-3.206H14V22.64h-1.242l0.116-1.279h6.252L19.242,22.64z M20.64,20.64h-9.28v-1.28h9.28
	V20.64z M21.36,19v-1.5h-0.72v1.14h-1.039l-0.207-2.28H20v-0.72h-0.64l-0.007-5.386c1.108,0.918,2.188,1.666,3.287,2.252v7.134
	h-1.28V19z M26.64,19.64h-3.28v-6.776c1.042,0.486,2.125,0.839,3.279,1.079L26.64,19.64L26.64,19.64z M14,24.14h2v0.721h-2V24.14z"
	/>
<rect id="_Transparent_Rectangle" style="fill:none;" width="32" height="32"/>
</svg>
