<?xml version="1.0" encoding="iso-8859-1"?>
<!-- Generator: Adobe Illustrator 29.1.0, SVG Export Plug-In . SVG Version: 9.03 Build 55587)  -->
<svg version="1.1" id="Layer_1" xmlns="http://www.w3.org/2000/svg" xmlns:xlink="http://www.w3.org/1999/xlink" x="0px" y="0px"
	 viewBox="0 0 32 32" style="enable-background:new 0 0 32 32;" xml:space="preserve">
<path id="budapest--hungarian-auto-club_00000133523870521269759240000015784736464677852079_" d="M31,31.36H1v-0.72h5.64v-4.28H1
	v-0.72h5.64V4.001c0-1.246,0.643-2.331,1.721-2.904C9.484,0.5,12.067-0.029,16.75,3.13C23.911,7.962,28.36,14.426,28.36,20
	c0,4.22-2.141,6.36-6.36,6.36H7.36v4.279H31V31.36z M9.36,25.64H22c2.468,0,4.09-0.736,4.936-2.279H25.36V24h-0.72v-0.64h-3.28V24
	h-0.72v-0.64h-3.28V24h-0.72v-0.64h-3.28V24h-0.72v-0.64H9.36V25.64z M7.36,25.64h1.28v-2.28H7.36V25.64z M11.36,22.64h15.894
	c0.229-0.649,0.354-1.408,0.381-2.279H23.36V21h-0.72v-0.64h-3.28V21h-0.72v-0.64h-3.28V21h-0.72v-0.64h-3.28V22.64z M7.36,22.64
	h3.28v-2.28H7.36V22.64z M9.36,19.64h18.273c-0.027-0.741-0.142-1.504-0.335-2.279H25.36V18h-0.72v-0.64h-3.28V18h-0.72v-0.64h-3.28
	V18h-0.72v-0.64h-3.28V18h-0.72v-0.64H9.36V19.64z M7.36,19.64h1.28v-2.28H7.36V19.64z M11.36,16.64h15.736
	c-0.233-0.753-0.54-1.515-0.914-2.28H23.36V15h-0.72v-0.64h-3.28V15h-0.72v-0.64h-3.28V15h-0.72v-0.64h-3.28V16.64z M7.36,16.64
	h3.28v-2.28H7.36V16.64z M9.36,13.64h16.451c-0.414-0.762-0.894-1.524-1.433-2.28H21.36V12h-0.72v-0.64h-3.28V12h-0.72v-0.64h-3.28
	V12h-0.72v-0.64H9.36V13.64z M7.36,13.64h1.28v-2.28H7.36V13.64z M11.36,10.64h12.484c-0.595-0.771-1.251-1.534-1.964-2.28h-2.52V9
	h-0.72V8.36h-3.28V9h-0.72V8.36h-3.28V10.64z M7.36,10.64h3.28V8.36H7.36V10.64z M9.36,7.64h11.807
	c-0.802-0.785-1.666-1.548-2.589-2.28H17.36V6h-0.72V5.36h-3.28V6h-0.72V5.36H9.36V7.64z M7.36,7.64h1.28V5.36H7.36V7.64z
	 M7.36,4.64h10.279c-0.42-0.311-0.851-0.616-1.291-0.913C11.978,0.777,9.68,1.211,8.7,1.733C7.86,2.179,7.36,3.026,7.36,4.001V4.64z
	"/>
<rect id="_Transparent_Rectangle" style="fill:none;" width="32" height="32"/>
</svg>
