<?xml version="1.0" encoding="iso-8859-1"?>
<!-- Generator: Adobe Illustrator 26.3.1, SVG Export Plug-In . SVG Version: 6.00 Build 0)  -->
<svg version="1.1" id="Layer_1" xmlns="http://www.w3.org/2000/svg" xmlns:xlink="http://www.w3.org/1999/xlink" x="0px" y="0px"
	 viewBox="0 0 32 32" style="enable-background:new 0 0 32 32;" xml:space="preserve">
<path id="budapest--citadella_00000173853319011625161560000016889646805252567223_" d="M2.64,22.75v-0.5
	c0-0.199,0.161-0.36,0.36-0.36s0.36,0.161,0.36,0.36v0.5c0,0.199-0.161,0.36-0.36,0.36S2.64,22.949,2.64,22.75z M3.246,13.754
	c0.141,0.141,0.368,0.141,0.509,0L4,13.509l0.246,0.245c0.07,0.07,0.162,0.105,0.254,0.105s0.184-0.035,0.254-0.105
	c0.141-0.141,0.141-0.368,0-0.509L4.509,13l0.245-0.246c0.141-0.141,0.141-0.368,0-0.509s-0.368-0.141-0.509,0L4,12.491
	l-0.246-0.245c-0.141-0.141-0.368-0.141-0.509,0s-0.141,0.368,0,0.509L3.491,13l-0.245,0.246
	C3.105,13.386,3.105,13.614,3.246,13.754z M29,23.11c0.199,0,0.36-0.161,0.36-0.36v-0.5c0-0.199-0.161-0.36-0.36-0.36
	s-0.36,0.161-0.36,0.36v0.5C28.64,22.949,28.801,23.11,29,23.11z M22.745,6.254c0.141,0.141,0.369,0.141,0.51,0L23.5,6.009
	l0.245,0.245C23.815,6.325,23.908,6.36,24,6.36s0.185-0.035,0.255-0.105c0.141-0.141,0.141-0.368,0-0.509L24.009,5.5l0.246-0.246
	c0.141-0.141,0.141-0.368,0-0.509s-0.369-0.141-0.51,0L23.5,4.991l-0.245-0.245c-0.141-0.141-0.369-0.141-0.51,0
	s-0.141,0.368,0,0.509L22.991,5.5l-0.246,0.246C22.604,5.886,22.604,6.114,22.745,6.254z M25.245,13.754
	c0.141,0.141,0.369,0.141,0.51,0L26,13.509l0.245,0.245c0.07,0.07,0.163,0.105,0.255,0.105s0.185-0.035,0.255-0.105
	c0.141-0.141,0.141-0.368,0-0.509L26.509,13l0.246-0.246c0.141-0.141,0.141-0.368,0-0.509s-0.369-0.141-0.51,0L26,12.491
	l-0.245-0.245c-0.141-0.141-0.369-0.141-0.51,0s-0.141,0.368,0,0.509L25.491,13l-0.246,0.246
	C25.104,13.386,25.104,13.614,25.245,13.754z M22.36,26v-1h-0.72v1H22.36z M31,30.64v0.721H1V30.64h0.64v-4h1v-1.555l-1.462-2.924
	c-0.089-0.178-0.017-0.395,0.161-0.483c0.181-0.087,0.395-0.016,0.483,0.161L3,24.195l0.678-1.356
	c0.088-0.178,0.304-0.25,0.483-0.161c0.178,0.089,0.25,0.306,0.161,0.483L3.36,25.085v1.555h2.28V23c0-0.199,0.161-0.36,0.36-0.36
	h5.64v-2h2V12c0-0.199,0.161-0.36,0.36-0.36h1.057c-0.528-2.29-0.679-4.368-0.417-6.166c-0.005-0.793-0.22-1.147-0.271-1.22
	c-0.003-0.003-0.006-0.006-0.01-0.009V5c0,0.199-0.161,0.36-0.36,0.36S13.64,5.199,13.64,5V2.501c0,0,0-0.001,0-0.002V1.582
	l-0.479,0.24l-0.322-0.644l0.874-0.437L13.67,0.645l0.659-0.29l0.126,0.285h0.226l0.648-0.285l0.126,0.285h0.226l0.648-0.285
	l0.126,0.285h0.226l0.648-0.285l0.126,0.285h0.227l0.647-0.285l0.23,0.522l0.602,0.301l-0.322,0.644L18.36,1.583v0.916
	c0,0.001,0,0.002,0,0.003V5c0,0.199-0.161,0.36-0.36,0.36S17.64,5.199,17.64,5V4.245c-0.004,0.004-0.009,0.009-0.014,0.014
	c-0.044,0.064-0.259,0.415-0.266,1.203c0.304,1.418,0.033,4.179-0.411,6.179H18c0.199,0,0.36,0.161,0.36,0.36v8.64h2v2H26
	c0.199,0,0.36,0.161,0.36,0.36v3.64h2.279v-1.555l-1.462-2.924c-0.089-0.178-0.017-0.395,0.161-0.483
	c0.176-0.087,0.394-0.018,0.483,0.161l1.5,3c0.024,0.05,0.038,0.105,0.038,0.161v1.64h1v4L31,30.64L31,30.64z M20.36,23.36v3.279
	h5.279V23.36H20.36z M18.36,21.36v5.279h1.279V21.36H18.36z M14.36,26.64h3.28v-4.28h-3.28V26.64z M14.893,3.756
	c0.181,0.166,0.423,0.298,0.748,0.354V3.332c-0.132,0.055-0.289,0.029-0.395-0.077c-0.141-0.141-0.141-0.368,0-0.509l0.5-0.5
	c0.035-0.036,0.076-0.062,0.12-0.08c0.038-0.016,0.079-0.024,0.122-0.026l0,0c0,0,0.007,0,0.012,0s0.012,0,0.012,0l0,0
	c0.043,0.001,0.084,0.01,0.122,0.026c0.044,0.018,0.085,0.044,0.12,0.08l0.5,0.5c0.141,0.141,0.141,0.368,0,0.509
	c-0.106,0.107-0.263,0.133-0.395,0.077V4.11c0.323-0.056,0.565-0.187,0.746-0.352c0.002-0.002,0.003-0.004,0.005-0.005
	c0.011-0.011,0.022-0.022,0.034-0.032c0.452-0.447,0.492-1.107,0.495-1.226V1.36h-0.185l-0.126,0.285L16.682,1.36h-0.226
	L16.33,1.645L15.682,1.36h-0.226L15.33,1.645L14.682,1.36H14.36v1.135c0.003,0.12,0.043,0.781,0.497,1.228
	c0.011,0.009,0.022,0.019,0.032,0.03C14.89,3.754,14.891,3.755,14.893,3.756z M15.36,5.494c0,0.003,0,0.007,0,0.011
	c0.002,0.54,0.406,0.905,0.64,1.071c0.233-0.166,0.637-0.531,0.64-1.07c0-0.004,0-0.009,0-0.014c0-0.276,0.022-0.514,0.057-0.717
	c-0.415,0.109-0.979,0.109-1.395,0C15.337,4.979,15.36,5.217,15.36,5.494z M15.789,11.64h0.42c0.336-1.447,0.579-3.348,0.561-4.776
	c-0.291,0.296-0.585,0.446-0.609,0.458c-0.102,0.051-0.221,0.051-0.322,0c-0.024-0.012-0.312-0.16-0.601-0.449
	C15.188,8.309,15.377,9.909,15.789,11.64z M14.36,12.36v9.28h3.28v-9.28H14.36z M12.36,26.64h1.28v-5.28h-1.28V26.64z M6.36,26.64
	h5.28v-3.28H6.36V26.64z M3.64,27.36H2.36v3.279h1.28C3.64,30.639,3.64,27.36,3.64,27.36z M27.64,29.36H4.36v1.279h23.28
	C27.64,30.639,27.64,29.36,27.64,29.36z M27.64,27.36H4.36v1.279h23.28C27.64,28.639,27.64,27.36,27.64,27.36z M29.64,27.36h-1.28
	v3.279h1.279L29.64,27.36L29.64,27.36z M9.64,26h0.72v-1H9.64V26z M24.36,25h-0.72v1h0.721L24.36,25L24.36,25z M7.64,26h0.72v-1
	H7.64V26z"/>
<rect id="_Transparent_Rectangle" style="fill:none;" width="32" height="32"/>
</svg>
