<?xml version="1.0" encoding="iso-8859-1"?>
<!-- Generator: Adobe Illustrator 26.3.1, SVG Export Plug-In . SVG Version: 6.00 Build 0)  -->
<svg version="1.1" id="Layer_1" xmlns="http://www.w3.org/2000/svg" xmlns:xlink="http://www.w3.org/1999/xlink" x="0px" y="0px"
	 viewBox="0 0 32 32" style="enable-background:new 0 0 32 32;" xml:space="preserve">
<path id="budapest--lab-skyline_00000149352796550351612770000016612614520381404573_" d="M31.255,21.255l-0.51-0.51l-5.269,5.269
	l1.46-12.656l4.044-0.01l-0.002-0.72l-3.959,0.01L28.29,1.625l2.511,1.674L31.199,2.7l-3-2l-0.002,0.003
	c-0.027-0.018-0.054-0.036-0.085-0.046c-0.041-0.013-0.085-0.02-0.124-0.018c-0.055,0.002-0.106,0.016-0.152,0.04
	c-0.045,0.023-0.086,0.056-0.118,0.097c-0.013,0.016-0.024,0.033-0.034,0.052L17.5,18.649v-0.01h-2.14v-6.28H16v-0.72h-0.741
	L14.5,9.36H15V8.64h-0.64V5c0-0.199-0.161-0.36-0.36-0.36S13.64,4.801,13.64,5v3.64H13v0.72h0.5l-0.76,2.28H12v0.72h0.64v4.771
	l-0.385-0.385C12.19,16.681,12.1,16.64,12,16.64h-1.64v-1.28H11v-0.72h-0.64v-3.28H11v-0.72H9.36V9c0-1.368-0.824-2.543-2-3.066
	V4.36H8V3.64H7.36V3c0-0.625-0.424-1.153-1-1.312V1c0-0.199-0.161-0.36-0.36-0.36S5.64,0.801,5.64,1v0.688
	c-0.576,0.158-1,0.686-1,1.312v0.64H4v0.72h0.64v1.579C4.137,6.163,3.696,6.501,3.36,6.928V5c0-0.199-0.161-0.36-0.36-0.36
	S2.64,4.801,2.64,5v3.64H2v0.72h0.64v1.28H1v0.72h0.64v3.28H1v0.72h0.64v3.28H1v0.721h16.094l-0.16,0.279H1v0.721h15.522
	l-0.831,1.454c-0.011,0.019-0.021,0.037-0.028,0.058c-0.01,0.025-0.017,0.052-0.02,0.078c0,0.001,0,0.001,0,0.001
	c0,0.001,0,0.001,0,0.001s0,0,0,0.001c-0.003,0.024-0.004,0.049-0.002,0.073c0.003,0.051,0.018,0.102,0.044,0.148
	c0.01,0.019,0.022,0.036,0.036,0.053l6.543,8.412H1v0.721h22c0.077,0,0.155-0.025,0.221-0.076c0.044-0.034,0.054-0.088,0.077-0.135
	l0.024,0.012l1.739-3.479l2.65,3.534l0.576-0.432l-2.085-2.78l4.636,2.318l0.322-0.645l-5.554-2.776L31.255,21.255z M14,10.139
	l0.5,1.501h-1L14,10.139z M13.36,12.36h1.28v6.28h-0.491l-0.789-0.789V12.36z M13.13,18.64H4.87l1.279-1.279h5.702L13.13,18.64z
	 M7,9.64c-0.199,0-0.36,0.161-0.36,0.36v0.64H5.36V10c0-0.199-0.161-0.36-0.36-0.36S4.64,9.801,4.64,10v0.64H3.36V9.36h5.28v1.28
	H7.36V10C7.36,9.801,7.199,9.64,7,9.64z M5.36,3c0-0.353,0.287-0.64,0.64-0.64S6.64,2.647,6.64,3v0.64H5.36V3z M5.36,4.36h1.28
	v1.345C6.433,5.665,6.219,5.64,6,5.64S5.567,5.662,5.36,5.702V4.36z M6,6.36c1.333,0,2.439,0.994,2.616,2.28H3.384
	C3.561,7.354,4.667,6.36,6,6.36z M2.36,11.36h7.28v3.28H8.36V12.5c0-0.199-0.161-0.36-0.36-0.36s-0.36,0.161-0.36,0.36v2.14H6.36
	V12.5c0-0.199-0.161-0.36-0.36-0.36s-0.36,0.161-0.36,0.36v2.14H4.36V12.5c0-0.199-0.161-0.36-0.36-0.36s-0.36,0.161-0.36,0.36v2.14
	H2.36V11.36z M2.36,15.36h7.28v1.28H6c-0.1,0-0.19,0.04-0.255,0.106L3.851,18.64H2.36V15.36z M20.981,24.355l5.087-9.75
	l-1.364,11.818L20.981,24.355z M27.441,2.704l-1.143,9.905l-5.947,11.397l-3.859-2.144L27.441,2.704z M20.019,24.644l-0.004,0.008
	l0.318,0.166l4.192,2.329l-1.591,3.181l-5.566-7.157L20.019,24.644z M14,15.86c-0.199,0-0.36-0.161-0.36-0.36v-1
	c0-0.199,0.161-0.36,0.36-0.36s0.36,0.161,0.36,0.36v1C14.36,15.699,14.199,15.86,14,15.86z"/>
<rect id="_Transparent_Rectangle" style="fill:none;" width="32" height="32"/>
</svg>
