<?xml version="1.0" encoding="iso-8859-1"?>
<!-- Generator: Adobe Illustrator 24.1.2, SVG Export Plug-In . SVG Version: 6.00 Build 0)  -->
<svg version="1.1" id="Layer_1" xmlns="http://www.w3.org/2000/svg" xmlns:xlink="http://www.w3.org/1999/xlink" x="0px" y="0px"
	 viewBox="0 0 32 32" style="enable-background:new 0 0 32 32;" xml:space="preserve">
<path id="build--leadership--and--culture_1_" d="M28,14.86c1.025,0,1.86-0.834,1.86-1.86s-0.835-1.86-1.86-1.86
	s-1.86,0.834-1.86,1.86S26.975,14.86,28,14.86z M28,11.86c0.629,0,1.14,0.512,1.14,1.14s-0.511,1.14-1.14,1.14
	s-1.14-0.512-1.14-1.14S27.371,11.86,28,11.86z M31.36,19v4c0,0.833,0,2.189-1,2.732V31h-0.72v-5.5c0-0.151,0.096-0.287,0.238-0.339
	c0.703-0.253,0.762-1.206,0.762-2.161v-4c0-1.505-1.135-2.64-2.64-2.64s-2.64,1.135-2.64,2.64v4c0,0.955,0.059,1.908,0.762,2.161
	c0.143,0.052,0.238,0.188,0.238,0.339V31h-0.72v-5.268c-1-0.543-1-1.899-1-2.732v-4c0-1.884,1.477-3.36,3.36-3.36
	S31.36,17.116,31.36,19z M4,14.86c1.025,0,1.86-0.834,1.86-1.86S5.025,11.14,4,11.14S2.14,11.975,2.14,13S2.975,14.86,4,14.86z
	 M4,11.86c0.628,0,1.14,0.512,1.14,1.14S4.628,14.14,4,14.14S2.86,13.628,2.86,13S3.372,11.86,4,11.86z M7.36,19v4
	c0,0.778,0,2.182-1,2.731V31H5.64v-5.5c0-0.151,0.095-0.287,0.238-0.339C6.581,24.908,6.64,23.954,6.64,23v-4
	c0-1.505-1.135-2.64-2.64-2.64S1.36,17.495,1.36,19v4c0,0.954,0.059,1.908,0.762,2.161C2.265,25.213,2.36,25.349,2.36,25.5V31H1.64
	v-5.269c-1-0.55-1-1.953-1-2.731v-4c0-1.884,1.476-3.36,3.36-3.36S7.36,17.116,7.36,19z M16,6.36c1.577,0,2.86-1.283,2.86-2.86
	S17.576,0.64,16,0.64c-1.577,0-2.86,1.283-2.86,2.86S14.422,6.36,16,6.36z M16,1.36c1.18,0,2.139,0.96,2.139,2.14
	S17.18,5.64,16,5.64s-2.14-0.96-2.14-2.14S14.819,1.36,16,1.36z M21,27.64h-2.64v-7.396c1.24-0.555,2-1.774,2-3.243v-5
	c0-2.526-1.834-4.36-4.361-4.36c-2.526,0-4.359,1.833-4.359,4.36v5c0,1.469,0.76,2.688,2,3.243v7.396H11
	c-0.199,0-0.36,0.161-0.36,0.36v3h0.72v-2.64h9.28V31h0.721v-3C21.36,27.801,21.199,27.64,21,27.64z M14.123,19.661
	C13.035,19.269,12.36,18.249,12.36,17v-5c0-2.109,1.531-3.64,3.64-3.64c2.11,0,3.64,1.531,3.64,3.64v5
	c0,1.249-0.675,2.269-1.762,2.661C17.735,19.713,17.64,19.849,17.64,20v7.64h-3.28V20C14.36,19.849,14.265,19.713,14.123,19.661z"/>
<rect id="_Transparent_Rectangle" style="fill:none;" width="32" height="32"/>
</svg>
