<?xml version="1.0" encoding="iso-8859-1"?>
<!-- Generator: Adobe Illustrator 26.3.1, SVG Export Plug-In . SVG Version: 6.00 Build 0)  -->
<svg version="1.1" id="Layer_1" xmlns="http://www.w3.org/2000/svg" xmlns:xlink="http://www.w3.org/1999/xlink" x="0px" y="0px"
	 viewBox="0 0 32 32" style="enable-background:new 0 0 32 32;" xml:space="preserve">
<path id="build-and-deploy-pipeline_00000001642875874535882080000003629695578928672430_" d="M16,31.36
	c-0.059,0-0.117-0.015-0.171-0.043l-13-7C2.713,24.254,2.64,24.133,2.64,24V8c0-0.132,0.073-0.254,0.189-0.317l13-7
	c0.107-0.058,0.234-0.058,0.342,0l13,7C29.287,7.746,29.36,7.868,29.36,8v6.688c0.575,0.158,1,0.686,1,1.312
	c0,0.626-0.425,1.153-1,1.312V24c0,0.133-0.073,0.254-0.189,0.317l-13,7C16.117,31.346,16.059,31.36,16,31.36z M13.36,29.17
	L16,30.591l2.64-1.421v-5.237c-1.66,0.555-3.62,0.555-5.28,0C13.36,23.933,13.36,29.17,13.36,29.17z M19.36,23.655v5.127
	l9.279-4.997v-6.474c-0.461-0.127-0.824-0.491-0.951-0.952h-3.336C24.214,19.621,22.197,22.404,19.36,23.655z M3.36,23.785
	l9.28,4.997v-5.127c-2.838-1.251-4.854-4.034-4.993-7.295H3.36V23.785z M8.368,16.36c0.188,4.046,3.54,7.28,7.632,7.28
	c4.213,0,7.64-3.427,7.64-7.64c0-2.937-1.662-5.568-4.279-6.846V16c0,1.853-1.508,3.36-3.36,3.36c-1.731,0-3.161-1.316-3.341-3
	H8.368z M13.384,16.36c0.176,1.287,1.282,2.28,2.616,2.28s2.439-0.993,2.615-2.28h-1.304c-0.158,0.576-0.686,1-1.312,1
	s-1.153-0.425-1.312-1H13.384z M29,15.36c-0.353,0-0.64,0.287-0.64,0.64s0.287,0.64,0.64,0.64s0.64-0.287,0.64-0.64
	S29.353,15.36,29,15.36z M16,15.36c-0.353,0-0.64,0.287-0.64,0.64s0.287,0.64,0.64,0.64s0.64-0.287,0.64-0.64S16.353,15.36,16,15.36
	z M24.353,15.64h3.336c0.127-0.461,0.49-0.825,0.951-0.952V8.215L16,1.409L3.36,8.215v7.425h4.288
	c0.139-3.265,2.155-6.134,5.217-7.375c0.11-0.044,0.237-0.033,0.336,0.035s0.159,0.179,0.159,0.299v7.041h1.329
	c0.158-0.576,0.686-1,1.312-1c0.626,0,1.153,0.424,1.312,1h1.328V8.599c0-0.12,0.06-0.231,0.159-0.298
	c0.1-0.068,0.227-0.08,0.336-0.035C22.197,9.506,24.214,12.375,24.353,15.64z M8.368,15.64h4.272V9.154
	C10.13,10.379,8.498,12.85,8.368,15.64z"/>
<rect id="_Transparent_Rectangle" style="fill:none;" width="32" height="32"/>
</svg>
