<?xml version="1.0" encoding="iso-8859-1"?>
<!-- Generator: Adobe Illustrator 24.1.2, SVG Export Plug-In . SVG Version: 6.00 Build 0)  -->
<svg version="1.1" id="Layer_1" xmlns="http://www.w3.org/2000/svg" xmlns:xlink="http://www.w3.org/1999/xlink" x="0px" y="0px"
	 viewBox="0 0 32 32" style="enable-background:new 0 0 32 32;" xml:space="preserve">
<path id="build_1_" d="M9.002,31.36c-2.404,0-4.36-1.956-4.36-4.36s1.956-4.36,4.36-4.36c0.731,0,1.42,0.182,2.026,0.5l2.125-3.338
	l0.607,0.387l-2.125,3.339c1.048,0.797,1.727,2.057,1.727,3.473C13.362,29.404,11.407,31.36,9.002,31.36z M9.002,23.36
	c-2.007,0-3.64,1.633-3.64,3.64s1.633,3.64,3.64,3.64s3.64-1.633,3.64-3.64S11.01,23.36,9.002,23.36z M16.002,31.355
	c-0.861,0-1.722-0.071-2.557-0.212l0.119-0.711c0.796,0.135,1.617,0.202,2.438,0.202c4.648,0,8.917-2.134,11.712-5.854l0.576,0.432
	C25.358,29.116,20.879,31.355,16.002,31.355z M31,24.86c-0.062,0-0.126-0.017-0.182-0.05l-5.995-3.505
	c-0.11-0.064-0.179-0.183-0.179-0.311s0.068-0.246,0.179-0.311l5.995-3.495c0.113-0.065,0.249-0.065,0.361-0.002
	c0.111,0.064,0.181,0.184,0.181,0.312v7c0,0.129-0.069,0.248-0.182,0.312C31.124,24.844,31.062,24.86,31,24.86z M25.719,20.995
	l4.921,2.877v-5.745L25.719,20.995z M3.345,24.699c-0.554-0.803-1.034-1.665-1.425-2.56l0.66-0.289
	c0.373,0.854,0.829,1.675,1.357,2.44L3.345,24.699z M3.126,20.477c-0.092,0-0.184-0.035-0.254-0.105l-2.126-2.116
	C0.678,18.188,0.64,18.096,0.64,18c0-0.095,0.038-0.187,0.105-0.255l2.126-2.125c0.141-0.141,0.368-0.141,0.509,0l2.122,2.121
	c0.068,0.067,0.105,0.159,0.105,0.255S5.57,18.183,5.502,18.25L3.38,20.371C3.31,20.441,3.218,20.477,3.126,20.477z M1.51,17.999
	l1.616,1.608l1.613-1.612l-1.612-1.612L1.51,17.999z M8.761,20.176c-0.732-1.266-1.119-2.711-1.119-4.181
	c0-3.819,2.58-7.149,6.274-8.098l0.179,0.697c-3.375,0.867-5.733,3.91-5.733,7.4c0,1.343,0.354,2.664,1.022,3.819L8.761,20.176z
	 M16.002,19.355c-1.853,0-3.36-1.508-3.36-3.36c0-1.732,1.317-3.162,3.002-3.341V6.995h0.72v5.659
	c1.683,0.182,2.998,1.61,2.998,3.341C19.362,17.848,17.854,19.355,16.002,19.355z M16.002,13.355c-1.456,0-2.64,1.185-2.64,2.64
	c0,1.456,1.185,2.64,2.64,2.64s2.639-1.184,2.639-2.64C18.642,14.54,17.458,13.355,16.002,13.355z M30.641,15.019
	c-0.432-6.56-5.246-12.057-11.707-13.37l0.143-0.706c6.779,1.377,11.83,7.146,12.283,14.029L30.641,15.019z M24.005,14.355
	c-0.062,0-0.124-0.016-0.18-0.048l-2.599-1.5c-0.111-0.064-0.181-0.184-0.181-0.312v-3c0-0.128,0.069-0.248,0.181-0.312l2.599-1.5
	c0.111-0.063,0.248-0.064,0.359,0l2.598,1.5c0.111,0.064,0.181,0.183,0.181,0.312v3c0,0.128-0.069,0.248-0.181,0.312l-2.598,1.5
	C24.129,14.339,24.067,14.355,24.005,14.355z M21.767,12.287l2.238,1.292l2.237-1.292V9.703l-2.237-1.292l-2.238,1.292
	C21.767,9.703,21.767,12.287,21.767,12.287z M15.998,4.36c-1.024,0-1.857-0.836-1.857-1.865c0-1.023,0.833-1.855,1.857-1.855
	c1.027,0,1.863,0.832,1.863,1.855C17.86,3.523,17.024,4.36,15.998,4.36z M15.998,1.36c-0.627,0-1.138,0.509-1.138,1.135
	c0,0.631,0.51,1.145,1.138,1.145c0.63,0,1.142-0.514,1.142-1.145C17.14,1.869,16.627,1.36,15.998,1.36z M1.035,15.348
	c-0.008,0-0.017,0-0.025-0.001c-0.198-0.015-0.347-0.177-0.333-0.375c0,0,0.001-0.021,0.001-0.022
	c0.016-0.198,0.185-0.353,0.387-0.331c0.198,0.015,0.346,0.188,0.331,0.387C1.381,15.194,1.222,15.348,1.035,15.348z M1.302,12.997
	h0.009H1.302z M1.836,11.05h0.009H1.836z M2.627,9.542c-0.054,0-0.108-0.012-0.159-0.039c-0.175-0.09-0.249-0.295-0.16-0.471
	C2.309,9.029,2.32,9.008,2.322,9.004c0.094-0.175,0.311-0.24,0.488-0.146C2.985,8.952,3.05,9.17,2.956,9.346
	C2.89,9.469,2.76,9.542,2.627,9.542z M4.926,6.231c-0.088,0-0.176-0.031-0.244-0.095C4.54,6.002,4.525,5.786,4.655,5.641
	C4.66,5.637,4.678,5.618,4.683,5.613c0.141-0.141,0.368-0.141,0.509,0s0.141,0.368,0,0.509C5.12,6.194,5.022,6.231,4.926,6.231z
	 M3.667,7.803c-0.088,0-0.176-0.031-0.244-0.095c-0.142-0.134-0.157-0.35-0.027-0.495C3.4,7.208,3.418,7.189,3.423,7.185
	c0.141-0.141,0.368-0.141,0.509,0c0.141,0.141,0.141,0.368,0,0.509C3.861,7.766,3.763,7.803,3.667,7.803z M1.831,11.401
	c-0.088,0-0.176-0.031-0.244-0.095c-0.142-0.134-0.157-0.35-0.027-0.495c0.004-0.005,0.022-0.024,0.027-0.028
	c0.141-0.141,0.368-0.141,0.509,0s0.141,0.368,0,0.509C2.024,11.363,1.927,11.401,1.831,11.401z M1.296,13.348
	c-0.088,0-0.176-0.031-0.244-0.095c-0.142-0.134-0.157-0.35-0.027-0.495c0.004-0.005,0.022-0.024,0.027-0.028
	c0.141-0.141,0.368-0.141,0.509,0s0.141,0.368,0,0.509C1.49,13.311,1.392,13.348,1.296,13.348z M16.41,24.35
	c-0.088,0-0.176-0.031-0.244-0.095c-0.142-0.134-0.157-0.35-0.027-0.495c0.004-0.005,0.022-0.024,0.027-0.028
	c0.141-0.141,0.368-0.141,0.509,0s0.141,0.368,0,0.509C16.603,24.313,16.506,24.35,16.41,24.35z M18.417,23.983
	c-0.088,0-0.176-0.031-0.244-0.095c-0.142-0.134-0.157-0.35-0.027-0.495c0.004-0.005,0.022-0.024,0.027-0.028
	c0.141-0.141,0.368-0.141,0.509,0s0.141,0.368,0,0.509C18.61,23.946,18.513,23.983,18.417,23.983z M21.797,21.883
	c-0.088,0-0.176-0.031-0.244-0.095c-0.142-0.134-0.157-0.35-0.027-0.495c0.004-0.005,0.022-0.024,0.027-0.028
	c0.141-0.141,0.368-0.141,0.509,0s0.141,0.368,0,0.509C21.99,21.846,21.893,21.883,21.797,21.883z M23.742,18.386
	c-0.088,0-0.176-0.031-0.244-0.095c-0.142-0.134-0.157-0.35-0.027-0.495c0.004-0.005,0.022-0.024,0.027-0.028
	c0.141-0.141,0.368-0.141,0.509,0s0.141,0.368,0,0.509C23.936,18.349,23.839,18.386,23.742,18.386z M6.375,4.855
	c-0.099,0-0.197-0.042-0.269-0.123C5.973,4.585,5.992,4.352,6.14,4.219C6.149,4.211,6.174,4.19,6.184,4.183
	C6.345,4.066,6.57,4.102,6.687,4.262c0.117,0.161,0.082,0.386-0.079,0.503C6.541,4.826,6.458,4.855,6.375,4.855z M9.8,2.692
	c-0.14,0-0.275-0.078-0.334-0.211C9.389,2.305,9.454,2.103,9.625,2.018c0.01-0.005,0.039-0.019,0.05-0.022
	c0.186-0.071,0.394,0.021,0.465,0.207c0.071,0.186-0.021,0.394-0.207,0.465C9.891,2.684,9.845,2.692,9.8,2.692z M8.028,3.643
	c-0.14,0-0.275-0.078-0.334-0.211C7.616,3.256,7.681,3.054,7.853,2.969c0.01-0.005,0.039-0.019,0.05-0.022
	c0.186-0.071,0.394,0.021,0.465,0.207S8.347,3.548,8.161,3.619C8.118,3.635,8.073,3.643,8.028,3.643z M11.69,1.983
	c-0.155,0-0.303-0.097-0.351-0.251c-0.059-0.19,0.039-0.389,0.229-0.447l0.019-0.006c0.187-0.058,0.391,0.048,0.45,0.238
	c0.058,0.19-0.048,0.392-0.238,0.45C11.763,1.978,11.727,1.983,11.69,1.983z M14.444,24.204c-0.019,0-0.037-0.002-0.056-0.005
	c-0.015-0.002-0.049-0.009-0.064-0.014c-0.191-0.054-0.302-0.254-0.247-0.444c0.054-0.191,0.252-0.304,0.445-0.247
	c0.196,0.029,0.319,0.211,0.289,0.407C14.783,24.079,14.62,24.204,14.444,24.204z M20.243,23.141c-0.122,0-0.241-0.062-0.309-0.175
	c-0.103-0.171-0.047-0.392,0.123-0.494c0.166-0.102,0.393-0.055,0.498,0.11c0.104,0.166,0.066,0.379-0.097,0.487
	c-0.004,0.003-0.025,0.017-0.03,0.02C20.37,23.124,20.307,23.141,20.243,23.141z M22.995,20.243c-0.069,0-0.139-0.02-0.199-0.061
	c-0.166-0.11-0.211-0.334-0.101-0.499c0.089-0.18,0.303-0.237,0.477-0.151c0.178,0.09,0.244,0.316,0.155,0.494
	c-0.007,0.014-0.024,0.044-0.032,0.056C23.226,20.187,23.111,20.243,22.995,20.243z M24.002,16.375c-0.199,0-0.36-0.161-0.36-0.36
	s0.161-0.37,0.36-0.37s0.36,0.151,0.36,0.35v0.02C24.362,16.214,24.201,16.375,24.002,16.375z"/>
<rect id="_Transparent_Rectangle" style="fill:none;" width="32" height="32"/>
</svg>
