<?xml version="1.0" encoding="iso-8859-1"?>
<!-- Generator: Adobe Illustrator 22.0.0, SVG Export Plug-In . SVG Version: 6.00 Build 0)  -->
<svg version="1.1" xmlns="http://www.w3.org/2000/svg" xmlns:xlink="http://www.w3.org/1999/xlink" x="0px" y="0px"
	 viewBox="0 0 48 48" style="enable-background:new 0 0 48 48;" xml:space="preserve">
<g id="build">
	<g id="build_1_">
		<path style="fill:none;stroke:#000000;stroke-width:0.72;stroke-linejoin:round;stroke-miterlimit:10;" d="M27.002,23.995
			c0,1.657-1.343,3-3,3s-3-1.343-3-3c0-1.657,1.343-3,3-3S27.002,22.338,27.002,23.995z M23.998,9C23.169,9,22.5,9.667,22.5,10.495
			S23.169,12,23.998,12s1.502-0.676,1.502-1.505S24.826,9,23.998,9z M17.002,31c-2.209,0-4,1.791-4,4s1.791,4,4,4s4-1.791,4-4
			S19.211,31,17.002,31z M29.407,17.495v3l2.598,1.5l2.598-1.5v-3l-2.598-1.5L29.407,17.495z M33.005,28.995L39,32.5v-7
			L33.005,28.995z M11.126,23.874L9,26l2.126,2.117l2.121-2.121L11.126,23.874z M24.005,14.995v6 M19.149,31.622l2.308-3.627
			 M10.251,29.996c0.385,0.881,0.852,1.717,1.391,2.5 M21.505,38.788c0.812,0.136,1.647,0.207,2.498,0.207
			c4.907,0,9.264-2.356,12.001-6 M39,22.995c-0.448-6.807-5.467-12.373-11.995-13.699 M22.006,16.246
			c-3.453,0.887-6.004,4.02-6.004,7.749c0,1.457,0.39,2.823,1.07,4"/>
		<g>
			<g>
				
					<path style="fill:none;stroke:#000000;stroke-width:0.72;stroke-linecap:round;stroke-linejoin:round;stroke-miterlimit:10;stroke-dasharray:0.02,2;" d="
					M9.035,22.997c0.447-6.8,5.425-12.363,11.944-13.697"/>
			</g>
			
				<path style="fill:none;stroke:#000000;stroke-width:0.72;stroke-linecap:round;stroke-linejoin:round;stroke-miterlimit:10;stroke-dasharray:0.02,2;" d="
				M32.002,23.995c0,4.418-3.582,8-8,8c-0.69,0-1.359-0.087-1.998-0.251"/>
		</g>
	</g>
</g>
<g id="Layer_1">
</g>
</svg>
