<?xml version="1.0" encoding="iso-8859-1"?>
<!-- Generator: Adobe Illustrator 22.0.0, SVG Export Plug-In . SVG Version: 6.00 Build 0)  -->
<svg version="1.1" xmlns="http://www.w3.org/2000/svg" xmlns:xlink="http://www.w3.org/1999/xlink" x="0px" y="0px"
	 viewBox="0 0 48 48" style="enable-background:new 0 0 48 48;" xml:space="preserve">
<g id="building">
	<path id="building_2_" style="fill:none;stroke:#000000;stroke-width:0.72;stroke-linejoin:round;stroke-miterlimit:10;" d="M9,9
		h30 M27,39v-8h-6v8 M11,11v28 M37,11v28 M9,39h30 M14,13v2 M14,19v2 M14,25v2 M19,13v2 M19,19v2 M19,25v2 M24,13v2 M24,19v2 M24,25
		v2 M29,13v2 M29,19v2 M29,25v2 M34,13v2 M34,19v2 M34,25v2"/>
</g>
<g id="Layer_1">
</g>
</svg>
