<?xml version="1.0" encoding="iso-8859-1"?>
<!-- Generator: Adobe Illustrator 27.5.0, SVG Export Plug-In . SVG Version: 6.00 Build 0)  -->
<svg version="1.1" id="Layer_1" xmlns="http://www.w3.org/2000/svg" xmlns:xlink="http://www.w3.org/1999/xlink" x="0px" y="0px"
	 viewBox="0 0 32 32" style="enable-background:new 0 0 32 32;" xml:space="preserve">
<path id="business--analytics_00000029044487627169782230000000022627718211458452_" d="M16,30.36
	c-7.393,0-13.606-5.698-14.284-13.03C1.102,17.199,0.64,16.653,0.64,16s0.462-1.199,1.076-1.33C2.394,7.338,8.607,1.64,16,1.64
	c3.336,0,6.568,1.17,9.144,3.304C25.378,4.754,25.676,4.64,26,4.64c0.75,0,1.36,0.61,1.36,1.36c0,0.324-0.114,0.623-0.305,0.856
	C29.189,9.432,30.36,12.664,30.36,16c0,3.337-1.171,6.569-3.305,9.144c0.19,0.234,0.305,0.532,0.305,0.856
	c0,0.75-0.61,1.36-1.36,1.36c-0.324,0-0.622-0.114-0.855-0.304C22.567,29.189,19.335,30.36,16,30.36z M2.436,17.288
	C3.09,24.24,8.986,29.64,16,29.64c3.184,0,6.27-1.123,8.724-3.17C24.67,26.323,24.64,26.165,24.64,26
	c0-0.244,0.065-0.475,0.179-0.673l-3.17-3.169C20.16,23.524,18.176,24.36,16,24.36c-4.489,0-8.163-3.557-8.353-8H3.312
	C3.192,16.795,2.86,17.145,2.436,17.288z M26,25.36c-0.353,0-0.64,0.287-0.64,0.64s0.287,0.64,0.64,0.64s0.64-0.287,0.64-0.64
	S26.353,25.36,26,25.36z M22.158,21.648l3.169,3.17c0.333-0.189,0.781-0.228,1.142-0.095c2.048-2.452,3.171-5.538,3.171-8.724
	c0-3.185-1.123-6.271-3.171-8.723c-0.362,0.133-0.809,0.094-1.142-0.095l-3.169,3.17C23.524,11.84,24.36,13.824,24.36,16
	S23.524,20.16,22.158,21.648z M8.368,16.36c0.188,4.046,3.54,7.28,7.632,7.28c4.213,0,7.64-3.427,7.64-7.64
	c0-1.977-0.755-3.781-1.991-5.139l-4.467,4.466c0.113,0.199,0.179,0.428,0.179,0.673c0,0.75-0.61,1.36-1.36,1.36
	c-0.625,0-1.153-0.425-1.312-1C14.689,16.36,8.368,16.36,8.368,16.36z M16,15.36c-0.353,0-0.64,0.287-0.64,0.64
	s0.287,0.64,0.64,0.64s0.64-0.287,0.64-0.64S16.353,15.36,16,15.36z M2,15.36c-0.353,0-0.64,0.287-0.64,0.64S1.647,16.64,2,16.64
	S2.64,16.353,2.64,16S2.353,15.36,2,15.36z M8.368,15.64h6.32c0.158-0.576,0.686-1,1.312-1c0.245,0,0.474,0.065,0.673,0.178
	l4.467-4.467C19.781,9.115,17.977,8.36,16,8.36C11.908,8.36,8.557,11.594,8.368,15.64z M3.312,15.64h4.336
	c0.189-4.443,3.863-8,8.353-8c2.176,0,4.16,0.835,5.648,2.202l3.17-3.169C24.705,6.474,24.64,6.245,24.64,6
	c0-0.165,0.03-0.323,0.084-0.469C22.271,3.484,19.185,2.36,16,2.36c-7.014,0-12.91,5.399-13.564,12.352
	C2.86,14.855,3.192,15.205,3.312,15.64z M26,5.36c-0.353,0-0.64,0.287-0.64,0.64S25.647,6.64,26,6.64S26.64,6.353,26.64,6
	S26.353,5.36,26,5.36z"/>
<rect id="_Transparent_Rectangle" style="fill:none;" width="32" height="32"/>
</svg>
