<?xml version="1.0" encoding="iso-8859-1"?>
<!-- Generator: Adobe Illustrator 29.1.0, SVG Export Plug-In . SVG Version: 9.03 Build 55587)  -->
<svg version="1.1" id="Layer_1" xmlns="http://www.w3.org/2000/svg" xmlns:xlink="http://www.w3.org/1999/xlink" x="0px" y="0px"
	 viewBox="0 0 32 32" style="enable-background:new 0 0 32 32;" xml:space="preserve">
<path id="cactus--02_00000105406797579154479130000016504866910741454246_" d="M25,30.36H7v-0.72h6.369
	c-0.426-0.777-1.15-2.308-1.511-4.279H11V24.64h0.746c-0.053-0.412-0.088-0.841-0.101-1.283c-1.978-0.038-3.468-0.397-4.555-0.938
	l-0.836,0.836l-0.509-0.51l0.699-0.698c-1.133-0.756-1.676-1.74-1.784-2.687H4v-0.72h0.659c0.066-0.628,0.305-1.252,0.706-1.766
	l-0.619-0.619l0.509-0.509l0.614,0.613c0.465-0.378,1.058-0.637,1.772-0.703V15h0.72v0.653c2.763,0.198,3.617,2.694,3.882,4.864
	c0.403-0.688,0.999-1.202,1.764-1.517c-1.417-0.583-2.257-1.852-2.355-3.64H11v-0.72h0.65c0.058-1.048,0.371-1.918,0.905-2.576
	l-0.809-0.81l0.509-0.509l0.81,0.809c0.394-0.32,0.864-0.561,1.403-0.714c-0.703-0.64-0.808-1.732-0.824-2.48H13V7.64h0.651
	c0.09-1.337,0.688-1.78,1.356-1.927c-0.247-0.451-0.328-1.035-0.355-1.397C14.164,4.192,13.64,3.801,13.64,3
	c0-0.998,0.813-1.36,1.36-1.36h2c0.547,0,1.36,0.362,1.36,1.36c0,0.801-0.523,1.192-1.013,1.315
	c-0.027,0.362-0.108,0.946-0.355,1.397c0.668,0.147,1.267,0.59,1.356,1.927H19v0.72h-0.647c-0.058,1.315-0.43,2.081-0.92,2.509
	c1.252,0.472,1.861,1.688,1.922,3.771H20v0.72h-0.646c-0.059,1.997-0.62,3.196-1.768,3.708c0.815,0.523,1.257,1.468,1.494,2.498
	c0.293-1.178,0.779-2.438,1.589-3.388l-0.925-0.924l0.51-0.509l0.92,0.92c0.508-0.442,1.117-0.771,1.848-0.927
	c-0.258-0.455-0.343-1.055-0.37-1.424C22.163,15.192,21.64,14.801,21.64,14c0-0.998,0.813-1.36,1.36-1.36h2
	c0.547,0,1.36,0.362,1.36,1.36c0,0.801-0.523,1.192-1.013,1.315c-0.028,0.376-0.115,0.991-0.385,1.448
	c0.451,0.122,0.842,0.329,1.169,0.595l0.613-0.613l0.51,0.509l-0.619,0.619c0.4,0.514,0.639,1.138,0.705,1.766H28v0.721h-0.66
	c-0.079,0.709-0.394,1.581-1.074,2.396l0.989,0.989l-0.51,0.51l-0.977-0.978c-0.932,0.859-2.343,1.595-4.408,1.913V26h-0.72v-0.719
	c-0.406,0.041-0.835,0.066-1.288,0.075c-0.099,1.979-0.992,3.491-1.582,4.283H25V30.36z M14.2,29.64h2.642
	c0.387-0.438,1.797-2.206,1.797-4.64c0-2.93-0.319-5.64-2.64-5.64c-3.285,0-3.64,2.545-3.64,3.64
	C12.36,26.327,13.804,28.977,14.2,29.64z M21.198,18.708c-1.491,1.798-1.773,4.876-1.826,5.928c0.448-0.009,0.87-0.036,1.268-0.078
	V24h0.721v0.462c1.833-0.3,3.08-0.946,3.9-1.691l-0.516-0.516l0.51-0.51l0.502,0.503C26.4,21.457,26.64,20.621,26.64,20
	c0-0.573-0.173-1.15-0.513-1.617l-0.872,0.872l-0.51-0.51l0.877-0.877C25.206,17.555,24.663,17.36,24,17.36
	c-0.945,0-1.698,0.321-2.297,0.833l0.552,0.552l-0.51,0.51L21.198,18.708z M7.629,21.88c0.967,0.433,2.281,0.722,4.009,0.757
	c-0.035-3-0.538-6.277-3.638-6.277c-0.664,0-1.206,0.195-1.623,0.508l0.877,0.877l-0.509,0.51l-0.873-0.872
	C5.533,17.85,5.36,18.427,5.36,19c0,0.871,0.468,1.818,1.603,2.528l0.783-0.783l0.509,0.51L7.629,21.88z M13.072,12.581
	c-0.424,0.54-0.712,1.313-0.712,2.419c0,3.285,2.546,3.64,3.64,3.64c1.63,0,2.64-0.608,2.64-3.64s-1.01-3.64-2.64-3.64
	c-0.591,0-1.606,0.104-2.414,0.717l0.668,0.669l-0.509,0.509L13.072,12.581z M23.381,15.36c0.056,0.553,0.236,1.28,0.619,1.28
	s0.563-0.728,0.619-1.28H23.381z M23.002,14.64h1.996c0.152-0.003,0.642-0.058,0.642-0.64c0-0.393-0.223-0.546-0.414-0.604
	C25.318,13.6,25.36,13.815,25.36,14h-0.72H25l-0.36,0.003c-0.002-0.151-0.056-0.643-0.64-0.643s-0.638,0.492-0.64,0.643L22.64,14
	c0-0.185,0.042-0.4,0.136-0.604c-0.192,0.058-0.416,0.21-0.416,0.604C22.36,14.582,22.85,14.637,23.002,14.64z M16,6.36
	c-0.988,0-1.64,0-1.64,1.64c0,1.336,0.127,2.64,1.64,2.64c0.667,0,1.541-0.246,1.632-2.28H17V7.64h0.628
	C17.534,6.36,16.909,6.36,16,6.36z M15.38,4.36c0.057,0.553,0.237,1.28,0.62,1.28s0.563-0.728,0.62-1.28
	C16.62,4.36,15.38,4.36,15.38,4.36z M15.002,3.64h1.996C17.15,3.637,17.64,3.582,17.64,3c0-0.393-0.223-0.546-0.414-0.604
	C17.318,2.6,17.36,2.815,17.36,3h-0.72H17l-0.36,0.003C16.637,2.852,16.583,2.36,16,2.36s-0.637,0.492-0.64,0.643L14.64,3
	c0-0.185,0.042-0.4,0.135-0.604C14.584,2.454,14.36,2.606,14.36,3C14.36,3.582,14.85,3.637,15.002,3.64z"/>
<rect id="_Transparent_Rectangle" style="fill:none;" width="32" height="32"/>
</svg>
