<?xml version="1.0" encoding="iso-8859-1"?>
<!-- Generator: Adobe Illustrator 24.1.2, SVG Export Plug-In . SVG Version: 6.00 Build 0)  -->
<svg version="1.1" id="Layer_1" xmlns="http://www.w3.org/2000/svg" xmlns:xlink="http://www.w3.org/1999/xlink" x="0px" y="0px"
	 viewBox="0 0 32 32" style="enable-background:new 0 0 32 32;" xml:space="preserve">
<path id="cafe_1_" d="M26,28.36H6v-0.72h20V28.36z M19,26.36h-6c-2.404,0-4.36-1.956-4.36-4.36v-8c0-0.199,0.161-0.36,0.36-0.36h14
	c0.199,0,0.36,0.161,0.36,0.36v1.64H25c1.302,0,2.36,1.059,2.36,2.36v2c0,1.302-1.059,2.36-2.36,2.36h-1.654
	C23.162,24.597,21.283,26.36,19,26.36z M9.36,14.36V22c0,2.007,1.633,3.64,3.64,3.64h6c2.007,0,3.64-1.633,3.64-3.64v-7.64
	C22.64,14.36,9.36,14.36,9.36,14.36z M23.36,21.64H25c0.904,0,1.64-0.735,1.64-1.64v-2c0-0.904-0.735-1.64-1.64-1.64h-1.64V21.64z
	 M20.36,12h-0.72v-1.283c0-0.525,0.124-1.051,0.358-1.52c0.375-0.75,0.375-1.645,0-2.395c-0.234-0.469-0.358-0.995-0.358-1.52V5
	h0.721v0.283c0,0.414,0.098,0.829,0.282,1.198c0.476,0.952,0.476,2.087,0,3.039c-0.185,0.369-0.282,0.784-0.282,1.198L20.36,12
	L20.36,12z M12.36,12h-0.72v-1.283c0-0.525,0.124-1.05,0.359-1.52c0.375-0.75,0.375-1.645,0-2.395
	c-0.235-0.47-0.359-0.995-0.359-1.52V5h0.72v0.283c0,0.414,0.098,0.828,0.283,1.198c0.476,0.952,0.476,2.087,0,3.039
	c-0.185,0.37-0.283,0.784-0.283,1.198V12z M16.36,11h-0.72V9.717c0-0.525,0.124-1.05,0.359-1.52c0.375-0.75,0.375-1.645,0-2.395
	c-0.235-0.47-0.359-0.995-0.359-1.52V4h0.72v0.283c0,0.414,0.098,0.828,0.283,1.198c0.477,0.952,0.477,2.087,0,3.039
	c-0.185,0.37-0.283,0.784-0.283,1.198V11z"/>
<rect id="_Transparent_Rectangle" style="fill:none;" width="32" height="32"/>
</svg>
