<svg xmlns="http://www.w3.org/2000/svg" viewBox="0 0 48 48"><path fill="none" stroke-linejoin="round" stroke-miterlimit="10" stroke-width=".72" d="M27,34h-6 c-2.209,0-4-1.791-4-4v-8h14v8C31,32.209,29.209,34,27,34z M31,30h2c1.105,0,2-0.895,2-2v-2c0-1.105-0.895-2-2-2h-2 M20,20v-1.283 c0-0.472,0.11-0.937,0.321-1.359v0c0.428-0.855,0.428-1.862,0-2.717v0C20.11,14.22,20,13.754,20,13.283V13 M28,20v-1.283 c0-0.472,0.11-0.937,0.321-1.359v0c0.428-0.855,0.428-1.862,0-2.717v0C28.11,14.22,28,13.754,28,13.283V13 M24,19v-1.283 c0-0.472,0.11-0.937,0.321-1.359v0c0.428-0.855,0.428-1.862,0-2.717v0C24.11,13.22,24,12.754,24,12.283V12 M14,36h20"/></svg>