<?xml version="1.0" encoding="iso-8859-1"?>
<!-- Generator: Adobe Illustrator 24.1.2, SVG Export Plug-In . SVG Version: 6.00 Build 0)  -->
<svg version="1.1" id="Layer_1" xmlns="http://www.w3.org/2000/svg" xmlns:xlink="http://www.w3.org/1999/xlink" x="0px" y="0px"
	 viewBox="0 0 32 32" style="enable-background:new 0 0 32 32;" xml:space="preserve">
<path id="cairo--giza-plateau_2_" d="M24,11.36c-1.853,0-3.36-1.507-3.36-3.36S22.147,4.64,24,4.64S27.36,6.147,27.36,8
	S25.853,11.36,24,11.36z M24,5.36c-1.456,0-2.64,1.185-2.64,2.64s1.184,2.64,2.64,2.64S26.64,9.456,26.64,8S25.456,5.36,24,5.36z
	 M24.365,3.5V2c0-0.202-0.164-0.365-0.365-0.365S23.635,1.798,23.635,2v1.5c0,0.202,0.164,0.365,0.365,0.365
	S24.365,3.702,24.365,3.5z M24.365,14v-1.5c0-0.202-0.164-0.365-0.365-0.365s-0.365,0.163-0.365,0.365V14
	c0,0.202,0.164,0.365,0.365,0.365S24.365,14.202,24.365,14z M21.076,5.076c0.143-0.142,0.143-0.374,0-0.516l-1.06-1.06
	c-0.143-0.143-0.373-0.143-0.516,0c-0.143,0.142-0.143,0.374,0,0.516l1.061,1.061c0.071,0.071,0.164,0.107,0.258,0.107
	S21.005,5.147,21.076,5.076z M28.501,12.5c0.143-0.142,0.143-0.374,0-0.516l-1.061-1.061c-0.143-0.143-0.373-0.143-0.516,0
	c-0.143,0.142-0.143,0.374,0,0.516l1.061,1.061c0.071,0.071,0.164,0.107,0.258,0.107S28.43,12.572,28.501,12.5z M19.865,8
	c0-0.202-0.164-0.365-0.365-0.365H18c-0.201,0-0.365,0.163-0.365,0.365S17.799,8.365,18,8.365h1.5
	C19.701,8.365,19.865,8.202,19.865,8z M30.365,8c0-0.202-0.164-0.365-0.365-0.365h-1.5c-0.201,0-0.365,0.163-0.365,0.365
	s0.164,0.365,0.365,0.365H30C30.201,8.365,30.365,8.202,30.365,8z M20.016,12.5l1.061-1.061c0.143-0.142,0.143-0.374,0-0.516
	c-0.143-0.143-0.373-0.143-0.516,0L19.5,11.985c-0.143,0.142-0.143,0.374,0,0.516c0.071,0.071,0.164,0.107,0.258,0.107
	S19.944,12.572,20.016,12.5z M27.44,5.076l1.061-1.061c0.143-0.142,0.143-0.374,0-0.516c-0.143-0.143-0.373-0.143-0.516,0
	l-1.06,1.061c-0.143,0.142-0.143,0.374,0,0.516c0.071,0.071,0.164,0.107,0.258,0.107S27.369,5.147,27.44,5.076z M31.255,27.745
	l-10-10c-0.141-0.141-0.369-0.141-0.51,0L18.5,19.99l-4.246-4.245c-0.141-0.141-0.368-0.141-0.509,0L11.5,17.991l-3.246-3.245
	c-0.141-0.141-0.368-0.141-0.509,0L2.851,19.64H1v0.721h8.131l-3.28,3.279H1v0.721h13.13l-3.279,3.279H1v0.721h30
	c0.146,0,0.277-0.088,0.333-0.223S31.357,27.849,31.255,27.745z M3.87,19.64L8,15.509l2.991,2.991l-1.14,1.139L3.87,19.64
	L3.87,19.64z M6.87,23.64L14,16.51l3.99,3.991l-3.139,3.14L6.87,23.64L6.87,23.64z M11.869,27.64L21,18.509l9.131,9.131H11.869z"/>
<rect id="_Transparent_Rectangle" style="fill:none;" width="32" height="32"/>
</svg>
