<?xml version="1.0" encoding="iso-8859-1"?>
<!-- Generator: Adobe Illustrator 29.1.0, SVG Export Plug-In . SVG Version: 9.03 Build 55587)  -->
<svg version="1.1" id="Layer_1" xmlns="http://www.w3.org/2000/svg" xmlns:xlink="http://www.w3.org/1999/xlink" x="0px" y="0px"
	 viewBox="0 0 32 32" style="enable-background:new 0 0 32 32;" xml:space="preserve">
<path id="cairo--giza-sphinx_00000106114331417794998600000007798833630530298515_" d="M31.337,30.874l-0.745-1.988
	c-0.23-0.688-0.687-1.092-1.288-1.199l-0.265-1.326H31V25.64h-2.105l-0.542-2.71c-0.006-0.031-0.017-0.062-0.03-0.091l-0.74-1.479
	H31v-0.72h-3.5l0.842-2.525c0.035-0.105,0.02-0.222-0.042-0.313l-3-4.5c-0.054-0.08-0.136-0.135-0.229-0.153l-2.21-0.442V12H22.14
	v0.705l-2.21,0.442c-0.094,0.019-0.176,0.074-0.229,0.153l-3,4.5c-0.062,0.092-0.077,0.208-0.042,0.313L17.5,20.64H1.72l1.71-2.28
	H12v-0.72H3.97l1.71-2.28H13v-0.72H6.22l1.71-2.28H14v-0.72H8.47l1.71-2.28H15V8.64h-4.28l1.71-2.28H16V5.64h-3.03L16,1.6
	l6.462,8.616l0.576-0.432l-6.75-9c-0.136-0.182-0.44-0.182-0.576,0l-15,20c-0.082,0.109-0.095,0.255-0.034,0.377
	C0.739,21.283,0.864,21.36,1,21.36h16.417l-0.739,1.479c-0.015,0.028-0.025,0.06-0.031,0.091l-0.542,2.71H1v0.721h14.961
	l-0.265,1.326c-0.6,0.107-1.057,0.51-1.283,1.188l-0.662,1.766H1v0.721h30c0.118,0,0.229-0.059,0.296-0.155
	S31.379,30.984,31.337,30.874z M25.36,14.689l1.3,1.951h-1.3V14.689z M25.36,17.5v-0.14h1.781l0.462,0.692l-0.029,0.087h-2.305
	C25.324,17.932,25.36,17.716,25.36,17.5z M27.333,18.86l-0.26,0.779h-2.491l0.39-0.779H27.333z M20.36,13.795l1.779-0.356V14h0.721
	v-0.561l1.779,0.356v1.345H20.36V13.795z M20.027,18.86l0.39,0.779h-2.491l-0.26-0.779H20.027z M19.64,14.689v1.951h-1.3
	L19.64,14.689z M17.426,18.14l-0.029-0.087l0.462-0.692h1.781v0.14c0,0.216,0.037,0.432,0.092,0.64L17.426,18.14L17.426,18.14z
	 M18.36,30.64V29.5h-0.72v1.14h-1.28V29.5h-0.72v1.14h-1.121l0.572-1.525c0.226-0.676,0.626-0.754,0.909-0.754h2
	c0.282,0,0.684,0.078,0.913,0.766l0.568,1.514H18.36V30.64z M24.751,30.64h-4.502l-0.622-1.661l0.723-2.892l-0.699-0.174
	l-0.546,2.185C18.813,27.809,18.446,27.64,18,27.64h-1.561l0.905-4.521l0.979-1.957c0.042-0.086,0.05-0.185,0.02-0.275l-0.175-0.525
	h2.473V22h0.721v-2c0-0.056-0.014-0.111-0.038-0.161l-0.789-1.578c-0.11-0.22-0.173-0.497-0.173-0.761v-1.64h1.779V18h0.721v-2.14
	h1.779v1.64c0,0.264-0.062,0.541-0.173,0.761l-0.789,1.578c-0.024,0.05-0.038,0.105-0.038,0.161v2h0.721v-1.64h2.473l-0.175,0.525
	c-0.03,0.091-0.022,0.189,0.02,0.275l0.979,1.957l0.905,4.521H27c-0.446,0-0.814,0.17-1.104,0.457l-0.546-2.184l-0.699,0.174
	l0.723,2.893L24.751,30.64z M29.36,30.64V29.5h-0.72v1.14h-1.28V29.5h-0.72v1.14h-1.12l0.572-1.525
	c0.225-0.676,0.626-0.754,0.908-0.754h2c0.282,0,0.684,0.078,0.913,0.766l0.567,1.514h-1.12V30.64z"/>
<rect id="_Transparent_Rectangle" style="fill:none;" width="32" height="32"/>
</svg>
