<?xml version="1.0" encoding="iso-8859-1"?>
<!-- Generator: Adobe Illustrator 22.0.0, SVG Export Plug-In . SVG Version: 6.00 Build 0)  -->
<svg version="1.1" xmlns="http://www.w3.org/2000/svg" xmlns:xlink="http://www.w3.org/1999/xlink" x="0px" y="0px"
	 viewBox="0 0 48 48" style="enable-background:new 0 0 48 48;" xml:space="preserve">
<g id="calendar_event">
	<path id="calendar_alt" style="fill:none;stroke:#000000;stroke-width:0.72;stroke-linejoin:round;stroke-miterlimit:10;" d="
		M20,12h8 M14,12h-4v27h28V12h-4 M22,20h-8v4h8V20z M32,14v-4c0-0.552-0.448-1-1-1h0c-0.552,0-1,0.448-1,1v4c0,0.552,0.448,1,1,1h0
		C31.553,15,32,14.552,32,14z M18,14v-4c0-0.552-0.448-1-1-1h0c-0.552,0-1,0.448-1,1v4c0,0.552,0.448,1,1,1h0
		C17.552,15,18,14.552,18,14z M22,29h-8v4h8V29z M34,20h-8v4h8V20z M34,29h-8v4h8V29z"/>
</g>
<g id="Layer_1">
</g>
</svg>
