<?xml version="1.0" encoding="iso-8859-1"?>
<!-- Generator: Adobe Illustrator 22.0.0, SVG Export Plug-In . SVG Version: 6.00 Build 0)  -->
<svg version="1.1" xmlns="http://www.w3.org/2000/svg" xmlns:xlink="http://www.w3.org/1999/xlink" x="0px" y="0px"
	 viewBox="0 0 48 48" style="enable-background:new 0 0 48 48;" xml:space="preserve">
<g id="care">
	<g id="care_1_">
		<path d="M21.5,12c0,0.276-0.224,0.5-0.5,0.5s-0.5-0.224-0.5-0.5s0.224-0.5,0.5-0.5S21.5,11.724,21.5,12z M24,11.5
			c-0.276,0-0.5,0.224-0.5,0.5s0.224,0.5,0.5,0.5s0.5-0.224,0.5-0.5S24.276,11.5,24,11.5z M27,11.5c-0.276,0-0.5,0.224-0.5,0.5
			s0.224,0.5,0.5,0.5s0.5-0.224,0.5-0.5S27.276,11.5,27,11.5z M21,14.5c-0.276,0-0.5,0.224-0.5,0.5s0.224,0.5,0.5,0.5
			s0.5-0.224,0.5-0.5S21.276,14.5,21,14.5z M24,14.5c-0.276,0-0.5,0.224-0.5,0.5s0.224,0.5,0.5,0.5s0.5-0.224,0.5-0.5
			S24.276,14.5,24,14.5z M27,14.5c-0.276,0-0.5,0.224-0.5,0.5s0.224,0.5,0.5,0.5s0.5-0.224,0.5-0.5S27.276,14.5,27,14.5z M21,17.5
			c-0.276,0-0.5,0.224-0.5,0.5s0.224,0.5,0.5,0.5s0.5-0.224,0.5-0.5S21.276,17.5,21,17.5z M24,17.5c-0.276,0-0.5,0.224-0.5,0.5
			s0.224,0.5,0.5,0.5s0.5-0.224,0.5-0.5S24.276,17.5,24,17.5z M27,17.5c-0.276,0-0.5,0.224-0.5,0.5s0.224,0.5,0.5,0.5
			s0.5-0.224,0.5-0.5S27.276,17.5,27,17.5z M11.5,21c0,0.276,0.224,0.5,0.5,0.5c0.276,0,0.5-0.224,0.5-0.5s-0.224-0.5-0.5-0.5
			C11.724,20.5,11.5,20.724,11.5,21z M14.5,21c0,0.276,0.224,0.5,0.5,0.5c0.276,0,0.5-0.224,0.5-0.5s-0.224-0.5-0.5-0.5
			C14.724,20.5,14.5,20.724,14.5,21z M14.5,24c0,0.276,0.224,0.5,0.5,0.5c0.276,0,0.5-0.224,0.5-0.5s-0.224-0.5-0.5-0.5
			C14.724,23.5,14.5,23.724,14.5,24z M11.5,24c0,0.276,0.224,0.5,0.5,0.5c0.276,0,0.5-0.224,0.5-0.5s-0.224-0.5-0.5-0.5
			C11.724,23.5,11.5,23.724,11.5,24z M11.5,27c0,0.276,0.224,0.5,0.5,0.5c0.276,0,0.5-0.224,0.5-0.5s-0.224-0.5-0.5-0.5
			C11.724,26.5,11.5,26.724,11.5,27z M14.5,27c0,0.276,0.224,0.5,0.5,0.5c0.276,0,0.5-0.224,0.5-0.5s-0.224-0.5-0.5-0.5
			C14.724,26.5,14.5,26.724,14.5,27z M32.5,21c0,0.276,0.224,0.5,0.5,0.5s0.5-0.224,0.5-0.5s-0.224-0.5-0.5-0.5S32.5,20.724,32.5,21
			z M35.5,21c0,0.276,0.224,0.5,0.5,0.5s0.5-0.224,0.5-0.5s-0.224-0.5-0.5-0.5S35.5,20.724,35.5,21z M35.5,24
			c0,0.276,0.224,0.5,0.5,0.5s0.5-0.224,0.5-0.5s-0.224-0.5-0.5-0.5S35.5,23.724,35.5,24z M32.5,24c0,0.276,0.224,0.5,0.5,0.5
			s0.5-0.224,0.5-0.5s-0.224-0.5-0.5-0.5S32.5,23.724,32.5,24z M32.5,27c0,0.276,0.224,0.5,0.5,0.5s0.5-0.224,0.5-0.5
			s-0.224-0.5-0.5-0.5S32.5,26.724,32.5,27z M35.5,27c0,0.276,0.224,0.5,0.5,0.5s0.5-0.224,0.5-0.5s-0.224-0.5-0.5-0.5
			S35.5,26.724,35.5,27z M21,29.5c-0.276,0-0.5,0.224-0.5,0.5s0.224,0.5,0.5,0.5s0.5-0.224,0.5-0.5S21.276,29.5,21,29.5z M24,29.5
			c-0.276,0-0.5,0.224-0.5,0.5s0.224,0.5,0.5,0.5s0.5-0.224,0.5-0.5S24.276,29.5,24,29.5z M27,29.5c-0.276,0-0.5,0.224-0.5,0.5
			s0.224,0.5,0.5,0.5s0.5-0.224,0.5-0.5S27.276,29.5,27,29.5z M27,32.5c-0.276,0-0.5,0.224-0.5,0.5s0.224,0.5,0.5,0.5
			s0.5-0.224,0.5-0.5S27.276,32.5,27,32.5z M24,32.5c-0.276,0-0.5,0.224-0.5,0.5s0.224,0.5,0.5,0.5s0.5-0.224,0.5-0.5
			S24.276,32.5,24,32.5z M21,32.5c-0.276,0-0.5,0.224-0.5,0.5s0.224,0.5,0.5,0.5s0.5-0.224,0.5-0.5S21.276,32.5,21,32.5z M21,35.5
			c-0.276,0-0.5,0.224-0.5,0.5s0.224,0.5,0.5,0.5s0.5-0.224,0.5-0.5S21.276,35.5,21,35.5z M24,35.5c-0.276,0-0.5,0.224-0.5,0.5
			s0.224,0.5,0.5,0.5s0.5-0.224,0.5-0.5S24.276,35.5,24,35.5z M27,35.5c-0.276,0-0.5,0.224-0.5,0.5s0.224,0.5,0.5,0.5
			s0.5-0.224,0.5-0.5S27.276,35.5,27,35.5z"/>
		<path style="fill:none;stroke:#000000;stroke-width:0.72;stroke-linecap:round;stroke-miterlimit:10;" d="M28,39h-8
			c-1.1,0-2-0.9-2-2V11c0-1.1,0.9-2,2-2h8c1.1,0,2,0.9,2,2v26C30,38.1,29.1,39,28,39z M18,18h-7c-1.1,0-2,0.9-2,2v8c0,1.1,0.9,2,2,2
			h7 M30,30h7c1.1,0,2-0.9,2-2v-8c0-1.1-0.9-2-2-2h-7 M21,21h6 M21,24h6 M21,27h6"/>
	</g>
</g>
<g id="Layer_1">
</g>
</svg>
