<?xml version="1.0" encoding="iso-8859-1"?>
<!-- Generator: Adobe Illustrator 24.1.2, SVG Export Plug-In . SVG Version: 6.00 Build 0)  -->
<svg version="1.1" id="Layer_1" xmlns="http://www.w3.org/2000/svg" xmlns:xlink="http://www.w3.org/1999/xlink" x="0px" y="0px"
	 viewBox="0 0 32 32" style="enable-background:new 0 0 32 32;" xml:space="preserve">
<path id="care_1_" d="M13.5,4c0,0.276-0.224,0.5-0.5,0.5S12.5,4.276,12.5,4s0.224-0.5,0.5-0.5S13.5,3.724,13.5,4z M16,3.5
	c-0.276,0-0.5,0.224-0.5,0.5s0.224,0.5,0.5,0.5c0.276,0,0.5-0.224,0.5-0.5S16.276,3.5,16,3.5z M19,3.5c-0.276,0-0.5,0.224-0.5,0.5
	s0.224,0.5,0.5,0.5s0.5-0.224,0.5-0.5S19.276,3.5,19,3.5z M13,6.5c-0.276,0-0.5,0.224-0.5,0.5s0.224,0.5,0.5,0.5s0.5-0.224,0.5-0.5
	S13.276,6.5,13,6.5z M16,6.5c-0.276,0-0.5,0.224-0.5,0.5s0.224,0.5,0.5,0.5c0.276,0,0.5-0.224,0.5-0.5S16.276,6.5,16,6.5z M19,6.5
	c-0.276,0-0.5,0.224-0.5,0.5s0.224,0.5,0.5,0.5s0.5-0.224,0.5-0.5S19.276,6.5,19,6.5z M13,9.5c-0.276,0-0.5,0.224-0.5,0.5
	s0.224,0.5,0.5,0.5s0.5-0.224,0.5-0.5S13.276,9.5,13,9.5z M16,9.5c-0.276,0-0.5,0.224-0.5,0.5s0.224,0.5,0.5,0.5
	c0.276,0,0.5-0.224,0.5-0.5S16.276,9.5,16,9.5z M19,9.5c-0.276,0-0.5,0.224-0.5,0.5s0.224,0.5,0.5,0.5s0.5-0.224,0.5-0.5
	S19.276,9.5,19,9.5z M3.5,13c0,0.276,0.224,0.5,0.5,0.5s0.5-0.224,0.5-0.5S4.276,12.5,4,12.5S3.5,12.724,3.5,13z M6.5,13
	c0,0.276,0.224,0.5,0.5,0.5s0.5-0.224,0.5-0.5S7.276,12.5,7,12.5S6.5,12.724,6.5,13z M6.5,16c0,0.276,0.224,0.5,0.5,0.5
	s0.5-0.224,0.5-0.5S7.276,15.5,7,15.5S6.5,15.724,6.5,16z M3.5,16c0,0.276,0.224,0.5,0.5,0.5s0.5-0.224,0.5-0.5S4.276,15.5,4,15.5
	S3.5,15.724,3.5,16z M3.5,19c0,0.276,0.224,0.5,0.5,0.5s0.5-0.224,0.5-0.5S4.276,18.5,4,18.5S3.5,18.724,3.5,19z M6.5,19
	c0,0.276,0.224,0.5,0.5,0.5s0.5-0.224,0.5-0.5S7.276,18.5,7,18.5S6.5,18.724,6.5,19z M24.5,13c0,0.276,0.224,0.5,0.5,0.5
	s0.5-0.224,0.5-0.5s-0.224-0.5-0.5-0.5S24.5,12.724,24.5,13z M27.5,13c0,0.276,0.224,0.5,0.5,0.5s0.5-0.224,0.5-0.5
	s-0.224-0.5-0.5-0.5S27.5,12.724,27.5,13z M27.5,16c0,0.276,0.224,0.5,0.5,0.5s0.5-0.224,0.5-0.5s-0.224-0.5-0.5-0.5
	S27.5,15.724,27.5,16z M24.5,16c0,0.276,0.224,0.5,0.5,0.5s0.5-0.224,0.5-0.5s-0.224-0.5-0.5-0.5S24.5,15.724,24.5,16z M24.5,19
	c0,0.276,0.224,0.5,0.5,0.5s0.5-0.224,0.5-0.5s-0.224-0.5-0.5-0.5S24.5,18.724,24.5,19z M27.5,19c0,0.276,0.224,0.5,0.5,0.5
	s0.5-0.224,0.5-0.5s-0.224-0.5-0.5-0.5S27.5,18.724,27.5,19z M13,21.5c-0.276,0-0.5,0.224-0.5,0.5s0.224,0.5,0.5,0.5
	s0.5-0.224,0.5-0.5S13.276,21.5,13,21.5z M16,21.5c-0.276,0-0.5,0.224-0.5,0.5s0.224,0.5,0.5,0.5c0.276,0,0.5-0.224,0.5-0.5
	S16.276,21.5,16,21.5z M19,21.5c-0.276,0-0.5,0.224-0.5,0.5s0.224,0.5,0.5,0.5s0.5-0.224,0.5-0.5S19.276,21.5,19,21.5z M19,24.5
	c-0.276,0-0.5,0.224-0.5,0.5s0.224,0.5,0.5,0.5s0.5-0.224,0.5-0.5S19.276,24.5,19,24.5z M16,24.5c-0.276,0-0.5,0.224-0.5,0.5
	s0.224,0.5,0.5,0.5c0.276,0,0.5-0.224,0.5-0.5S16.276,24.5,16,24.5z M13,24.5c-0.276,0-0.5,0.224-0.5,0.5s0.224,0.5,0.5,0.5
	s0.5-0.224,0.5-0.5S13.276,24.5,13,24.5z M13,27.5c-0.276,0-0.5,0.224-0.5,0.5s0.224,0.5,0.5,0.5s0.5-0.224,0.5-0.5
	S13.276,27.5,13,27.5z M16,27.5c-0.276,0-0.5,0.224-0.5,0.5s0.224,0.5,0.5,0.5c0.276,0,0.5-0.224,0.5-0.5S16.276,27.5,16,27.5z
	 M19,27.5c-0.276,0-0.5,0.224-0.5,0.5s0.224,0.5,0.5,0.5s0.5-0.224,0.5-0.5S19.276,27.5,19,27.5z M20,31.36h-8
	c-1.301,0-2.36-1.059-2.36-2.36v-6.64H3c-1.301,0-2.36-1.059-2.36-2.36v-8c0-1.301,1.059-2.36,2.36-2.36h6.64V3
	c0-1.301,1.059-2.36,2.36-2.36h8c1.302,0,2.36,1.059,2.36,2.36v6.64H29c1.302,0,2.36,1.059,2.36,2.36v8
	c0,1.302-1.059,2.36-2.36,2.36h-6.64V29C22.36,30.302,21.302,31.36,20,31.36z M12,1.36c-0.904,0-1.64,0.736-1.64,1.64v26
	c0,0.904,0.736,1.64,1.64,1.64h8c0.904,0,1.64-0.735,1.64-1.64V3c0-0.904-0.735-1.64-1.64-1.64H12z M22.36,21.64H29
	c0.904,0,1.64-0.735,1.64-1.64v-8c0-0.904-0.735-1.64-1.64-1.64h-6.64V21.64z M3,10.359c-0.904,0-1.64,0.736-1.64,1.64v8
	c0,0.904,0.736,1.64,1.64,1.64h6.64v-11.28H3z M19,19.36h-6c-0.199,0-0.36-0.161-0.36-0.36s0.161-0.36,0.36-0.36h6
	c0.199,0,0.36,0.161,0.36,0.36S19.199,19.36,19,19.36z M19,16.36h-6c-0.199,0-0.36-0.161-0.36-0.36s0.161-0.36,0.36-0.36h6
	c0.199,0,0.36,0.161,0.36,0.36S19.199,16.36,19,16.36z M19,13.36h-6c-0.199,0-0.36-0.161-0.36-0.36s0.161-0.36,0.36-0.36h6
	c0.199,0,0.36,0.161,0.36,0.36S19.199,13.36,19,13.36z"/>
<rect id="_Transparent_Rectangle" style="fill:none;" width="32" height="32"/>
</svg>
