<?xml version="1.0" encoding="iso-8859-1"?>
<!-- Generator: Adobe Illustrator 24.1.2, SVG Export Plug-In . SVG Version: 6.00 Build 0)  -->
<svg version="1.1" xmlns="http://www.w3.org/2000/svg" xmlns:xlink="http://www.w3.org/1999/xlink" x="0px" y="0px"
	 viewBox="0 0 48 48" style="enable-background:new 0 0 48 48;" xml:space="preserve">
<g id="cargo--ship">
	<path id="cargo--ship_1_" style="fill:none;stroke:#000000;stroke-width:0.72;stroke-linejoin:round;stroke-miterlimit:10;" d="
		M25.5,34h-3v-2h3V34z M19,18h2 M25,22h2 M27,26h2 M19,22h4 M21,26h4 M21,33h1.5 M25.5,33H27 M29,32V12l-2-3h-6l-2,3v20c0,4,5,7,5,7
		S29,36,29,32z M22,9v2h4V9 M21,14v16 M23,14v16 M25,14v16 M27,14v16 M19,14h10 M19,30h10 M23,18h4"/>
</g>
<g id="Layer_1">
</g>
</svg>
