<?xml version="1.0" encoding="iso-8859-1"?>
<!-- Generator: Adobe Illustrator 24.1.2, SVG Export Plug-In . SVG Version: 6.00 Build 0)  -->
<svg version="1.1" id="Layer_1" xmlns="http://www.w3.org/2000/svg" xmlns:xlink="http://www.w3.org/1999/xlink" x="0px" y="0px"
	 viewBox="0 0 32 32" style="enable-background:new 0 0 32 32;" xml:space="preserve">
<path id="cargo--crane_1_" d="M31,31.36H1v-0.72h3.64V9.36H1C0.801,9.36,0.64,9.199,0.64,9V7c0-0.199,0.161-0.36,0.36-0.36h1.64V4
	c0-0.199,0.161-0.36,0.36-0.36h3.935l7.931-2.974C14.907,0.649,14.953,0.64,15,0.64h2c0.061,0,0.117,0.015,0.168,0.041L29.085,6.64
	H31c0.199,0,0.36,0.161,0.36,0.36v2c0,0.199-0.161,0.36-0.36,0.36h-3.64v6.28H28c0.199,0,0.36,0.161,0.36,0.36v2
	c0,0.199-0.161,0.36-0.36,0.36h-1.64v2.279H31c0.199,0,0.36,0.161,0.36,0.36v5c0,0.199-0.161,0.36-0.36,0.36H21
	c-0.199,0-0.36-0.161-0.36-0.36v-5c0-0.199,0.161-0.36,0.36-0.36h4.64V18.36H24c-0.199,0-0.36-0.161-0.36-0.36v-2
	c0-0.199,0.161-0.36,0.36-0.36h0.64V9.36h-7.28v21.28H31V31.36z M15.36,30.64h1.28V1.36h-1.28V21c0,0.199-0.161,0.36-0.36,0.36H7
	c-0.199,0-0.36-0.161-0.36-0.36V9.36H5.36v21.28h1.28V23c0-0.199,0.161-0.36,0.36-0.36h8c0.199,0,0.36,0.161,0.36,0.36V30.64z
	 M7.36,30.64h7.28v-7.28H7.36V30.64z M21.36,25.64h9.279v-4.28H21.36V25.64z M7.36,20.64h6.967L7.36,10.189V20.64z M7.673,9.36
	l6.967,10.451V9.36H7.673z M24.36,17.64h3.279v-1.28H24.36V17.64z M25.36,15.64h1.279V9.36H25.36V15.64z M17.36,8.64h13.28V7.36
	H17.36V8.64z M1.36,8.64h13.28V7.36H1.36V8.64z M17.36,6.64h10.114L17.36,1.583V6.64z M7.36,6.64h7.28V1.52L7.36,4.25V6.64z
	 M3.36,6.64h3.28V4.36H3.36V6.64z M29.36,25h-0.72v-3h0.721L29.36,25L29.36,25z M27.36,25h-0.72v-3h0.721L27.36,25L27.36,25z
	 M25.36,25h-0.72v-3h0.721L25.36,25L25.36,25z M23.36,25h-0.72v-3h0.721L23.36,25L23.36,25z"/>
<rect id="_Transparent_Rectangle" style="fill:none;" width="32" height="32"/>
</svg>
