<?xml version="1.0" encoding="iso-8859-1"?>
<!-- Generator: Adobe Illustrator 24.1.2, SVG Export Plug-In . SVG Version: 6.00 Build 0)  -->
<svg version="1.1" id="Layer_1" xmlns="http://www.w3.org/2000/svg" xmlns:xlink="http://www.w3.org/1999/xlink" x="0px" y="0px"
	 viewBox="0 0 32 32" style="enable-background:new 0 0 32 32;" xml:space="preserve">
<path id="cell_1_" d="M16,31.36C7.53,31.36,0.64,24.47,0.64,16S7.53,0.64,16,0.64S31.36,7.53,31.36,16S24.47,31.36,16,31.36z
	 M16,1.36C7.927,1.36,1.36,7.927,1.36,16c0,8.072,6.567,14.64,14.64,14.64c8.072,0,14.64-6.567,14.64-14.64S24.072,1.36,16,1.36z
	 M18.995,28.957c-0.235,0-0.467-0.062-0.675-0.182c-0.314-0.181-0.539-0.475-0.633-0.826c-0.095-0.352-0.047-0.718,0.135-1.031
	l1.5-2.599c0.181-0.313,0.474-0.538,0.826-0.632c0.351-0.097,0.719-0.047,1.031,0.135l0,0c0.313,0.181,0.538,0.474,0.633,0.826
	c0.094,0.352,0.046,0.718-0.136,1.031l-1.5,2.598c-0.181,0.313-0.474,0.538-0.825,0.633C19.233,28.941,19.114,28.957,18.995,28.957z
	 M20.503,24.36c-0.057,0-0.113,0.007-0.169,0.022c-0.166,0.044-0.304,0.149-0.389,0.296l-1.5,2.599
	c-0.085,0.147-0.107,0.32-0.062,0.485c0.044,0.166,0.15,0.305,0.297,0.39c0.147,0.084,0.321,0.105,0.485,0.062
	c0.166-0.045,0.304-0.15,0.389-0.297l1.5-2.599c0.085-0.147,0.107-0.319,0.062-0.485c-0.044-0.166-0.149-0.304-0.296-0.389l0,0
	C20.723,24.389,20.613,24.36,20.503,24.36z M9.095,25.478c-0.235,0-0.467-0.062-0.676-0.183l-2.598-1.5
	c-0.313-0.181-0.538-0.474-0.632-0.825s-0.046-0.718,0.134-1.031l0,0c0.181-0.314,0.475-0.539,0.826-0.633
	c0.353-0.098,0.718-0.047,1.032,0.135l2.598,1.5c0.313,0.181,0.538,0.474,0.632,0.826s0.046,0.718-0.134,1.031
	c-0.182,0.313-0.475,0.538-0.826,0.632C9.333,25.462,9.213,25.478,9.095,25.478z M6.504,21.979c-0.056,0-0.113,0.007-0.168,0.022
	c-0.166,0.044-0.304,0.149-0.389,0.297l0,0c-0.084,0.147-0.107,0.319-0.062,0.485s0.15,0.304,0.297,0.389l2.599,1.5
	c0.147,0.086,0.32,0.109,0.485,0.062c0.166-0.044,0.304-0.149,0.389-0.296c0.084-0.147,0.107-0.32,0.062-0.486
	s-0.15-0.304-0.296-0.389l-2.599-1.5C6.723,22.007,6.614,21.979,6.504,21.979z M5.635,22.118h0.009H5.635z M26.998,22.36
	c-0.23,0-0.463-0.059-0.677-0.182l-2.598-1.5c-0.314-0.181-0.539-0.475-0.633-0.826c-0.095-0.352-0.047-0.718,0.135-1.031
	c0.375-0.648,1.207-0.871,1.857-0.498l2.598,1.5c0.314,0.181,0.539,0.475,0.633,0.826c0.095,0.352,0.047,0.718-0.135,1.031
	C27.928,22.116,27.469,22.36,26.998,22.36z M24.404,18.861c-0.221,0-0.437,0.114-0.556,0.319c-0.085,0.147-0.107,0.32-0.062,0.485
	c0.044,0.166,0.15,0.305,0.297,0.39l2.598,1.5c0.306,0.176,0.697,0.071,0.875-0.234c0.085-0.147,0.107-0.32,0.062-0.485
	c-0.044-0.166-0.15-0.305-0.297-0.39l-2.598-1.5C24.623,18.889,24.513,18.861,24.404,18.861z M13.985,21.36
	c-2.404,0-4.36-1.956-4.36-4.36s1.956-4.36,4.36-4.36c1.912,0,3.105-0.69,4.259-1.357c0.19-0.109,0.376-0.217,0.562-0.319
	C19.167,10.752,19.58,10.64,20,10.64c1.302,0,2.36,1.059,2.36,2.36c0,0.833-0.444,1.609-1.16,2.033
	c-1.094,0.825-2.454,1.852-3.198,3.667c-0.005,0.012-0.01,0.023-0.016,0.034C17.294,20.33,15.728,21.36,13.985,21.36z M13.985,13.36
	c-2.007,0-3.64,1.633-3.64,3.64s1.633,3.64,3.64,3.64c1.466,0,2.783-0.872,3.353-2.223c0.004-0.009,0.008-0.018,0.013-0.026
	c0.821-1.976,2.261-3.062,3.419-3.936c0.002-0.001,0.004-0.003,0.006-0.004c0.014-0.011,0.028-0.021,0.044-0.03
	c0.507-0.293,0.82-0.837,0.82-1.421c0-0.904-0.735-1.64-1.64-1.64c-0.293,0-0.581,0.079-0.833,0.227
	c-0.004,0.002-0.008,0.004-0.011,0.006c-0.183,0.101-0.365,0.206-0.552,0.313C17.426,12.588,16.089,13.36,13.985,13.36z
	 M13.985,19.36c-1.301,0-2.36-1.059-2.36-2.36s1.059-2.36,2.36-2.36s2.36,1.059,2.36,2.36C16.345,18.302,15.286,19.36,13.985,19.36z
	 M13.985,15.36c-0.904,0-1.64,0.736-1.64,1.64s0.736,1.64,1.64,1.64s1.64-0.735,1.64-1.64S14.889,15.36,13.985,15.36z
	 M25.998,16.575c-0.23,0-0.464-0.058-0.677-0.181c-0.314-0.182-0.539-0.475-0.633-0.827c-0.095-0.352-0.047-0.718,0.135-1.032
	l1.5-2.598c0.376-0.648,1.21-0.872,1.857-0.498l0,0c0.649,0.375,0.873,1.208,0.498,1.857l-1.5,2.599
	C26.927,16.332,26.469,16.575,25.998,16.575z M27.503,11.978c-0.222,0-0.438,0.115-0.557,0.32l-1.5,2.598
	c-0.085,0.147-0.107,0.319-0.062,0.485c0.044,0.166,0.15,0.304,0.297,0.39c0.305,0.175,0.697,0.07,0.875-0.235l1.5-2.598
	c0.176-0.305,0.07-0.698-0.234-0.874l0,0C27.721,12.005,27.611,11.978,27.503,11.978z M6.498,15.979
	c-0.235,0-0.467-0.062-0.676-0.182l-2.598-1.5c-0.649-0.375-0.873-1.208-0.498-1.858l0,0c0.181-0.313,0.475-0.538,0.826-0.632
	c0.351-0.093,0.718-0.046,1.032,0.135l2.598,1.5c0.313,0.181,0.538,0.475,0.632,0.826C7.908,14.62,7.86,14.986,7.679,15.3
	c-0.181,0.313-0.474,0.538-0.826,0.632C6.736,15.963,6.617,15.979,6.498,15.979z M3.35,12.799c-0.176,0.306-0.071,0.698,0.235,0.875
	l2.598,1.5c0.147,0.086,0.321,0.109,0.485,0.063c0.166-0.044,0.304-0.15,0.389-0.297s0.107-0.32,0.063-0.485
	c-0.044-0.166-0.15-0.304-0.297-0.389l-2.598-1.5c-0.147-0.085-0.318-0.108-0.485-0.063C3.573,12.547,3.435,12.652,3.35,12.799
	L3.35,12.799z M9.497,10.979c-0.235,0-0.467-0.062-0.676-0.182c-0.313-0.181-0.538-0.474-0.632-0.826S8.142,9.253,8.323,8.939
	l1.5-2.599c0.375-0.65,1.21-0.871,1.858-0.498l0,0c0.313,0.181,0.538,0.474,0.632,0.826s0.046,0.718-0.135,1.032l-1.5,2.598
	c-0.181,0.313-0.475,0.538-0.826,0.632C9.735,10.963,9.615,10.979,9.497,10.979z M11.002,6.381c-0.222,0-0.437,0.115-0.556,0.32
	l-1.5,2.598c-0.084,0.147-0.107,0.32-0.062,0.486s0.15,0.304,0.297,0.389s0.322,0.109,0.485,0.063
	c0.166-0.044,0.304-0.15,0.389-0.297l1.5-2.599c0.085-0.147,0.107-0.319,0.063-0.485c-0.044-0.166-0.149-0.304-0.296-0.389l0,0
	C11.22,6.409,11.11,6.381,11.002,6.381z M24.502,10.979c-0.75,0-1.36-0.61-1.36-1.36s0.61-1.36,1.36-1.36s1.36,0.61,1.36,1.36
	S25.252,10.979,24.502,10.979z M24.502,8.979c-0.353,0-0.64,0.287-0.64,0.64s0.287,0.64,0.64,0.64s0.64-0.287,0.64-0.64
	S24.854,8.979,24.502,8.979z M17.595,6.361c-0.23,0-0.464-0.059-0.677-0.182l-2.599-1.5c-0.313-0.181-0.538-0.475-0.632-0.826
	c-0.094-0.352-0.046-0.718,0.135-1.032l0,0c0.375-0.648,1.208-0.873,1.857-0.498l2.598,1.5c0.649,0.374,0.873,1.208,0.498,1.857
	C18.523,6.117,18.065,6.361,17.595,6.361z M15.001,2.861c-0.221,0-0.437,0.115-0.556,0.32l0,0C14.36,3.328,14.338,3.5,14.383,3.667
	c0.044,0.166,0.15,0.304,0.297,0.389l2.598,1.5c0.306,0.176,0.697,0.071,0.875-0.235c0.176-0.305,0.071-0.698-0.234-0.874
	L15.32,2.946C15.219,2.889,15.109,2.861,15.001,2.861z M14.134,3.001h0.009H14.134z"/>
<rect id="_Transparent_Rectangle" style="fill:none;" width="32" height="32"/>
</svg>
