<?xml version="1.0" encoding="iso-8859-1"?>
<!-- Generator: Adobe Illustrator 24.1.2, SVG Export Plug-In . SVG Version: 6.00 Build 0)  -->
<svg version="1.1" id="Layer_1" xmlns="http://www.w3.org/2000/svg" xmlns:xlink="http://www.w3.org/1999/xlink" x="0px" y="0px"
	 viewBox="0 0 32 32" style="enable-background:new 0 0 32 32;" xml:space="preserve">
<path id="chart--bar_1_" d="M31,31.4h-6c-0.2,0-0.4-0.2-0.4-0.4V1c0-0.2,0.2-0.4,0.4-0.4h6c0.2,0,0.4,0.2,0.4,0.4v30
	C31.4,31.2,31.2,31.4,31,31.4z M25.4,30.6h5.3V1.4h-5.3C25.4,1.4,25.4,30.6,25.4,30.6z M19,31.4h-6c-0.2,0-0.4-0.2-0.4-0.4V13
	c0-0.2,0.2-0.4,0.4-0.4h6c0.2,0,0.4,0.2,0.4,0.4v18C19.4,31.2,19.2,31.4,19,31.4z M13.4,30.6h5.3V13.4h-5.3
	C13.4,13.4,13.4,30.6,13.4,30.6z M7,31.4H1c-0.2,0-0.4-0.2-0.4-0.4v-6c0-0.2,0.2-0.4,0.4-0.4h6c0.2,0,0.4,0.2,0.4,0.4v6
	C7.4,31.2,7.2,31.4,7,31.4z M1.4,30.6h5.3v-5.3H1.4V30.6z"/>
<rect id="_Transparent_Rectangle" style="fill:none;" width="32" height="32"/>
</svg>
