<?xml version="1.0" encoding="iso-8859-1"?>
<!-- Generator: Adobe Illustrator 24.1.2, SVG Export Plug-In . SVG Version: 6.00 Build 0)  -->
<svg version="1.1" id="Layer_1" xmlns="http://www.w3.org/2000/svg" xmlns:xlink="http://www.w3.org/1999/xlink" x="0px" y="0px"
	 viewBox="0 0 32 32" style="enable-background:new 0 0 32 32;" xml:space="preserve">
<path id="chart--sunburst_1_" d="M16,31.4c-4.1,0-8-1.6-10.9-4.5c-0.1-0.1-0.1-0.4,0-0.5l3.3-3.3c-1.7-1.8-2.7-4.1-2.8-6.7H1
	c-0.2,0-0.4-0.2-0.4-0.4c0-4.1,1.6-8,4.5-10.9L5.2,5c0.2,0,0.3,0,3.7,3.4c1.8-1.7,4.1-2.7,6.7-2.8V1c0-0.2,0.2-0.4,0.4-0.4
	c8.5,0,15.4,6.9,15.4,15.4c0,0.2-0.2,0.4-0.4,0.4h-4.6c-0.2,5.4-4.6,9.8-10,10V31C16.4,31.2,16.2,31.4,16,31.4z M5.9,26.6
	c2.6,2.5,6.1,3.9,9.7,4v-4.3c-2.6-0.1-4.9-1.1-6.7-2.8L5.9,26.6z M16.4,21.3v4.3c5-0.2,9.1-4.2,9.3-9.3h-4.3
	C21.2,19,19,21.2,16.4,21.3z M9.4,23.1c1.6,1.5,3.8,2.5,6.2,2.6v-4.3c-1.2-0.1-2.3-0.6-3.2-1.3L9.4,23.1z M6.4,16.4
	c0.1,2.4,1,4.6,2.6,6.2l3-3c-0.8-0.9-1.2-2-1.3-3.2C10.7,16.4,6.4,16.4,6.4,16.4z M16,11.4c-2.6,0-4.6,2.1-4.6,4.6s2.1,4.6,4.6,4.6
	s4.6-2.1,4.6-4.6S18.6,11.4,16,11.4z M26.4,15.6h4.3c-0.3-7.7-6.6-14-14.3-14.2v4.3C21.8,5.8,26.2,10.2,26.4,15.6z M21.3,15.6h4.3
	c-0.2-5-4.2-9.1-9.3-9.3v4.3C19,10.8,21.2,13,21.3,15.6z M6.4,15.6h4.3c0.1-1.2,0.6-2.3,1.3-3.2c-0.5-0.5-1.7-1.7-3-3
	C7.4,11.1,6.5,13.3,6.4,15.6z M1.4,15.6h4.3c0.1-2.6,1.1-4.9,2.8-6.7c-1.3-1.3-2.5-2.5-3-3C2.9,8.6,1.5,12,1.4,15.6z M9.4,8.9
	c0.8,0.8,1.8,1.8,3,3c0.9-0.8,2-1.2,3.2-1.3V6.4C13.3,6.5,11.1,7.4,9.4,8.9z"/>
<rect id="_Transparent_Rectangle" style="fill:none;" width="32" height="32"/>
</svg>
