<?xml version="1.0" encoding="iso-8859-1"?>
<!-- Generator: Adobe Illustrator 24.1.2, SVG Export Plug-In . SVG Version: 6.00 Build 0)  -->
<svg version="1.1" id="Layer_1" xmlns="http://www.w3.org/2000/svg" xmlns:xlink="http://www.w3.org/1999/xlink" x="0px" y="0px"
	 viewBox="0 0 32 32" style="enable-background:new 0 0 32 32;" xml:space="preserve">
<path id="chart--custom_1_" d="M15,31.4c-0.1,0-0.2,0-0.3-0.1s-0.1-0.3-0.1-0.4l1.8-4c0,0,0-0.1,0.1-0.1l12.2-12
	c0.1-0.1,0.4-0.1,0.5,0l2,2c0.1,0.1,0.1,0.4,0,0.5L19.1,29.4L19,29.5l-3.9,1.9C15.1,31.3,15.1,31.4,15,31.4z M16.9,27.6l-1.2,2.6
	l2.5-1.2L16.9,27.6z M17.3,27l1.6,1.6l9.6-9.6L27,17.5L17.3,27z M27.5,17l1.5,1.5l1.5-1.5L29,15.5L27.5,17z M11,31.4H1
	c-0.2,0-0.4-0.2-0.4-0.4V1c0-0.2,0.2-0.4,0.4-0.4h18c0.1,0,0.2,0,0.3,0.1l6,6c0.1,0.1,0.1,0.2,0.1,0.3v7h-0.7V7.4H19
	c-0.2,0-0.4-0.2-0.4-0.4V1.4H1.4v29.3H11V31.4z M19.4,6.6h4.8l-4.8-4.8C19.4,1.8,19.4,6.6,19.4,6.6z M19,21.4h-3
	c-0.2,0-0.4-0.2-0.4-0.4v-9c0-0.2,0.2-0.4,0.4-0.4h3c0.2,0,0.4,0.2,0.4,0.4v9C19.4,21.2,19.2,21.4,19,21.4z M16.4,20.6h2.3v-8.3
	h-2.3V20.6z M14,21.4h-3c-0.2,0-0.4-0.2-0.4-0.4V9c0-0.2,0.2-0.4,0.4-0.4h3c0.2,0,0.4,0.2,0.4,0.4v12C14.4,21.2,14.2,21.4,14,21.4z
	 M11.4,20.6h2.3V9.4h-2.3V20.6z M9,21.4H6c-0.2,0-0.4-0.2-0.4-0.4v-6c0-0.2,0.2-0.4,0.4-0.4h3c0.2,0,0.4,0.2,0.4,0.4v6
	C9.4,21.2,9.2,21.4,9,21.4z M6.4,20.6h2.3v-5.3H6.4V20.6z"/>
<rect id="_Transparent_Rectangle" style="fill:none;" width="32" height="32"/>
</svg>
