<?xml version="1.0" encoding="iso-8859-1"?>
<!-- Generator: Adobe Illustrator 24.3.0, SVG Export Plug-In . SVG Version: 6.00 Build 0)  -->
<svg version="1.1" id="Layer_1" xmlns="http://www.w3.org/2000/svg" xmlns:xlink="http://www.w3.org/1999/xlink" x="0px" y="0px"
	 viewBox="0 0 32 32" style="enable-background:new 0 0 32 32;" xml:space="preserve">
<path id="chart--sunburst_1_" d="M16,31.36c-4.103,0-7.96-1.598-10.861-4.499c-0.141-0.141-0.141-0.369,0-0.51l3.289-3.288
	c-1.652-1.771-2.693-4.118-2.782-6.704H1c-0.199,0-0.36-0.161-0.36-0.36c0-4.103,1.597-7.959,4.498-10.86
	c0.027-0.027,0.059-0.05,0.093-0.067c0.185-0.093,0.227-0.107,3.704,3.357c1.77-1.653,4.119-2.694,6.705-2.783V1
	c0-0.199,0.161-0.36,0.36-0.36c8.47,0,15.36,6.89,15.36,15.36c0,0.199-0.161,0.36-0.36,0.36h-4.646
	c-0.187,5.427-4.566,9.807-9.994,9.994V31C16.36,31.199,16.199,31.36,16,31.36z M5.906,26.604c2.646,2.523,6.078,3.944,9.734,4.032
	v-4.282c-2.585-0.089-4.934-1.129-6.704-2.781L5.906,26.604z M16.36,21.348v4.286c5.031-0.186,9.088-4.243,9.274-9.274h-4.286
	C21.17,19.029,19.029,21.17,16.36,21.348z M9.446,23.063c1.64,1.522,3.807,2.482,6.194,2.57v-4.286
	c-1.208-0.08-2.307-0.562-3.166-1.313L9.446,23.063z M6.367,16.36c0.088,2.387,1.048,4.555,2.57,6.194l3.029-3.028
	c-0.751-0.858-1.233-1.958-1.314-3.166H6.367z M16,11.36c-2.559,0-4.64,2.082-4.64,4.64s2.082,4.64,4.64,4.64s4.64-2.081,4.64-4.64
	S18.559,11.36,16,11.36z M26.354,15.64h4.282C30.447,7.853,24.147,1.553,16.36,1.364v4.282C21.787,5.833,26.167,10.213,26.354,15.64
	z M21.348,15.64h4.286c-0.186-5.03-4.243-9.088-9.274-9.273v4.285C19.029,10.83,21.17,12.971,21.348,15.64z M6.367,15.64h4.285
	c0.081-1.208,0.563-2.307,1.314-3.166c-0.492-0.492-1.736-1.735-3.029-3.029C7.415,11.085,6.455,13.253,6.367,15.64z M1.364,15.64
	h4.282c0.089-2.585,1.13-4.934,2.782-6.703C7.15,7.66,5.915,6.424,5.396,5.906C2.873,8.553,1.452,11.984,1.364,15.64z M9.445,8.938
	c0.828,0.826,1.825,1.823,3.03,3.028c0.858-0.751,1.958-1.233,3.166-1.314V6.367C13.252,6.455,11.084,7.415,9.445,8.938z"/>
<rect id="_Transparent_Rectangle" style="fill:none;" width="32" height="32"/>
</svg>
