<svg xmlns="http://www.w3.org/2000/svg" viewBox="0 0 48 48"><path fill="none" stroke-linejoin="round" stroke-miterlimit="10" stroke-width=".72" d="M16,26c-1.105,0-2-0.895-2-2s0.895-2,2-2s2,0.895,2,2S17.105,26,16,26z M18,24c0-1.105-0.895-2-2-2s-2,0.895-2,2s0.895,2,2,2 S18,25.105,18,24z M9,9v30h30.04 M35,16h4 M9,24h5 M22.62,30.551l-5.17-5.17 M32.21,17.831l-7.19,12.45 M26,32c0-1.105-0.895-2-2-2 s-2,0.895-2,2c0,1.105,0.895,2,2,2S26,33.105,26,32z M35,16c0-1.105-0.895-2-2-2c-1.105,0-2,0.895-2,2s0.895,2,2,2 C34.105,18,35,17.105,35,16z"/></svg>