<?xml version="1.0" encoding="iso-8859-1"?>
<!-- Generator: Adobe Illustrator 24.1.2, SVG Export Plug-In . SVG Version: 6.00 Build 0)  -->
<svg version="1.1" id="Layer_1" xmlns="http://www.w3.org/2000/svg" xmlns:xlink="http://www.w3.org/1999/xlink" x="0px" y="0px"
	 viewBox="0 0 32 32" style="enable-background:new 0 0 32 32;" xml:space="preserve">
<path id="chart--area_1_" d="M31,31.4H1c-0.2,0-0.4-0.2-0.4-0.4V1h0.7v6.5l11.5-3.8c0.1,0,0.3,0,0.4,0.1l5.8,6.8l11.8-4.9
	c0.1,0,0.2,0,0.3,0c0.1,0.1,0.2,0.2,0.2,0.3v25C31.4,31.2,31.2,31.4,31,31.4z M1.4,30.6h29.3v-7.1l-7.5,3.7c-0.1,0.1-0.3,0-0.4,0
	L13,20.4L1.4,29.2V30.6z M1.4,22.1v6.1l11.4-8.6c0.1-0.1,0.3-0.1,0.4,0l9.8,6.9l7.6-3.8v-8.1l-9.5,5.7c-0.2,0.1-0.4,0.1-0.5-0.1
	L13,10.5L1.4,22.1z M1.4,8.3v12.9L12.7,9.7c0.1-0.1,0.2-0.1,0.3-0.1s0.2,0.1,0.3,0.1l7.8,9.8l9.6-5.7V6.5l-11.5,4.8
	c-0.1,0.1-0.3,0-0.4-0.1L13,4.4L1.4,8.3z"/>
<rect id="_Transparent_Rectangle" style="fill:none;" width="32" height="32"/>
</svg>
