<?xml version="1.0" encoding="iso-8859-1"?>
<!-- Generator: Adobe Illustrator 24.3.0, SVG Export Plug-In . SVG Version: 6.00 Build 0)  -->
<svg version="1.1" id="Layer_1" xmlns="http://www.w3.org/2000/svg" xmlns:xlink="http://www.w3.org/1999/xlink" x="0px" y="0px"
	 viewBox="0 0 32 32" style="enable-background:new 0 0 32 32;" xml:space="preserve">
<g id="chart--bar_1_">
	<path d="M31,31.36H1c-0.199,0-0.36-0.161-0.36-0.36V1h0.72v29.64h2.28V25c0-0.199,0.161-0.36,0.36-0.36h6
		c0.199,0,0.36,0.161,0.36,0.36v5.64h2.28V15c0-0.199,0.161-0.36,0.36-0.36h6c0.199,0,0.36,0.161,0.36,0.36v15.64h2.279V3
		c0-0.199,0.161-0.36,0.36-0.36h6c0.199,0,0.36,0.161,0.36,0.36v27.64H31V31.36z M22.36,30.64h5.279V3.36H22.36V30.64z M13.36,30.64
		h5.28V15.36h-5.28C13.36,15.36,13.36,30.64,13.36,30.64z M4.36,30.64h5.28v-5.28H4.36V30.64z"/>
</g>
<rect id="_Transparent_Rectangle" style="fill:none;" width="32" height="32"/>
</svg>
