<?xml version="1.0" encoding="iso-8859-1"?>
<!-- Generator: Adobe Illustrator 24.3.0, SVG Export Plug-In . SVG Version: 6.00 Build 0)  -->
<svg version="1.1" id="Layer_1" xmlns="http://www.w3.org/2000/svg" xmlns:xlink="http://www.w3.org/1999/xlink" x="0px" y="0px"
	 viewBox="0 0 32 32" style="enable-background:new 0 0 32 32;" xml:space="preserve">
<path id="chart--high-low_1_" d="M31,31.36H1c-0.199,0-0.36-0.161-0.36-0.36V1h0.72v29.64H31V31.36z M24.36,26h-0.72v-2.64H21v-0.72
	h2.64V7h0.721v1.64H27v0.72h-2.64V26z M16.36,26h-0.72v-6.64H13v-0.72h2.64V7h0.72v5.64H19v0.72h-2.64V26z M8.36,26H7.64v-4.64H5
	v-0.72h2.64V7h0.72v3.64H11v0.72H8.36V26z"/>
<rect id="_Transparent_Rectangle" style="fill:none;" width="32" height="32"/>
</svg>
