<?xml version="1.0" encoding="iso-8859-1"?>
<!-- Generator: Adobe Illustrator 29.1.0, SVG Export Plug-In . SVG Version: 9.03 Build 55587)  -->
<svg version="1.1" id="Layer_1" xmlns="http://www.w3.org/2000/svg" xmlns:xlink="http://www.w3.org/1999/xlink" x="0px" y="0px"
	 viewBox="0 0 32 32" style="enable-background:new 0 0 32 32;" xml:space="preserve">
<g id="chart--predictive-analytics--bar_00000108996638273729647660000002724686518679396280_">
	<rect x="18.64" y="19.581" width="0.721" height="0.691"/>
	<rect x="18.64" y="16.816" width="0.721" height="0.691"/>
	<rect x="18.64" y="20.964" width="0.721" height="0.691"/>
	<rect x="18.64" y="15.434" width="0.721" height="0.691"/>
	<rect x="18.64" y="14.052" width="0.721" height="0.691"/>
	<rect x="18.64" y="18.199" width="0.721" height="0.69"/>
	<rect x="18.64" y="22.346" width="0.721" height="0.691"/>
	<rect x="18.64" y="27.876" width="0.721" height="0.69"/>
	<rect x="18.64" y="25.11" width="0.721" height="0.691"/>
	<rect x="18.64" y="26.493" width="0.721" height="0.691"/>
	<rect x="18.64" y="29.258" width="0.721" height="0.691"/>
	<rect x="18.64" y="23.729" width="0.721" height="0.691"/>
	<rect x="18.64" y="12.64" width="0.721" height="0.72"/>
	<rect x="20.12" y="12.64" width="0.76" height="0.72"/>
	<rect x="21.64" y="12.64" width="0.721" height="0.72"/>
	<rect x="21.64" y="14.051" width="0.721" height="0.691"/>
	<rect x="21.64" y="16.816" width="0.721" height="0.691"/>
	<rect x="21.64" y="18.198" width="0.721" height="0.691"/>
	<rect x="21.64" y="15.434" width="0.721" height="0.691"/>
	<rect x="21.64" y="19.581" width="0.721" height="0.691"/>
	<rect x="21.64" y="26.493" width="0.721" height="0.69"/>
	<rect x="21.64" y="27.875" width="0.721" height="0.691"/>
	<rect x="21.64" y="20.963" width="0.721" height="0.691"/>
	<rect x="21.64" y="29.258" width="0.721" height="0.691"/>
	<rect x="21.64" y="22.346" width="0.721" height="0.691"/>
	<rect x="21.64" y="25.11" width="0.721" height="0.691"/>
	<rect x="21.64" y="23.729" width="0.721" height="0.69"/>
	<rect x="25.64" y="13.029" width="0.721" height="0.734"/>
	<rect x="25.64" y="14.497" width="0.721" height="0.734"/>
	<rect x="25.64" y="15.964" width="0.721" height="0.733"/>
	<rect x="25.64" y="10.094" width="0.721" height="0.734"/>
	<rect x="25.64" y="17.432" width="0.721" height="0.734"/>
	<rect x="25.64" y="11.562" width="0.721" height="0.734"/>
	<rect x="25.64" y="26.237" width="0.721" height="0.733"/>
	<rect x="25.64" y="27.705" width="0.721" height="0.733"/>
	<rect x="25.64" y="29.173" width="0.721" height="0.733"/>
	<rect x="25.64" y="24.77" width="0.721" height="0.734"/>
	<rect x="25.64" y="18.899" width="0.721" height="0.733"/>
	<rect x="25.64" y="20.367" width="0.721" height="0.733"/>
	<rect x="25.64" y="23.302" width="0.721" height="0.734"/>
	<rect x="25.64" y="21.835" width="0.721" height="0.733"/>
	<rect x="25.64" y="8.64" width="0.721" height="0.72"/>
	<rect x="27.12" y="8.64" width="0.76" height="0.72"/>
	<rect x="28.64" y="8.64" width="0.721" height="0.72"/>
	<rect x="28.64" y="18.899" width="0.721" height="0.733"/>
	<rect x="28.64" y="14.497" width="0.721" height="0.734"/>
	<rect x="28.64" y="17.432" width="0.721" height="0.733"/>
	<rect x="28.64" y="15.964" width="0.721" height="0.734"/>
	<rect x="28.64" y="11.562" width="0.721" height="0.733"/>
	<rect x="28.64" y="10.094" width="0.721" height="0.734"/>
	<rect x="28.64" y="13.029" width="0.721" height="0.734"/>
	<rect x="28.64" y="26.237" width="0.721" height="0.733"/>
	<rect x="28.64" y="20.367" width="0.721" height="0.733"/>
	<rect x="28.64" y="29.173" width="0.721" height="0.733"/>
	<rect x="28.64" y="27.705" width="0.721" height="0.733"/>
	<rect x="28.64" y="24.77" width="0.721" height="0.733"/>
	<rect x="28.64" y="21.834" width="0.721" height="0.734"/>
	<rect x="28.64" y="23.302" width="0.721" height="0.734"/>
	<path d="M15.36,30.64V19c0-0.199-0.161-0.36-0.36-0.36h-3c-0.199,0-0.36,0.161-0.36,0.36v11.64H8.36V15
		c0-0.199-0.161-0.36-0.36-0.36H5c-0.199,0-0.36,0.161-0.36,0.36v15.64H1.36V1H0.64v30c0,0.199,0.161,0.36,0.36,0.36h30v-0.72H15.36
		z M7.64,30.64H5.36V15.36h2.28C7.64,15.36,7.64,30.64,7.64,30.64z M14.64,30.64h-2.28V19.36h2.28V30.64z"/>
</g>
<rect id="_Transparent_Rectangle" style="fill:none;" width="32" height="32"/>
</svg>
