<?xml version="1.0" encoding="iso-8859-1"?>
<!-- Generator: Adobe Illustrator 24.1.2, SVG Export Plug-In . SVG Version: 6.00 Build 0)  -->
<svg version="1.1" xmlns="http://www.w3.org/2000/svg" xmlns:xlink="http://www.w3.org/1999/xlink" x="0px" y="0px"
	 viewBox="0 0 48 48" style="enable-background:new 0 0 48 48;" xml:space="preserve">
<g id="chart--multi-type">
	<g id="chart--multi-type_1_">
		<circle cx="13.5" cy="18.5" r="0.5"/>
		<circle cx="15.5" cy="16.5" r="0.5"/>
		<circle cx="18.5" cy="16.5" r="0.5"/>
		<circle cx="14.5" cy="14.5" r="0.5"/>
		<circle cx="16.5" cy="13.5" r="0.5"/>
		<circle cx="19.5" cy="13.5" r="0.5"/>
		<path style="fill:none;stroke:#000000;stroke-width:0.72;stroke-linejoin:round;stroke-miterlimit:10;" d="M22,22H10V10 M26,19h4
			l5-5h3 M32,26c-3.314,0-6,2.686-6,6s2.686,6,6,6s6-2.686,6-6S35.314,26,32,26z M32,26v6h6 M26,10v12h12 M13,34h-2v4h2V34z M17,28
			h-2v10h2V28z M21,32h-2v6h2V32z"/>
	</g>
</g>
<g id="Layer_1">
</g>
</svg>
