<?xml version="1.0" encoding="iso-8859-1"?>
<!-- Generator: Adobe Illustrator 24.1.2, SVG Export Plug-In . SVG Version: 6.00 Build 0)  -->
<svg version="1.1" id="Layer_1" xmlns="http://www.w3.org/2000/svg" xmlns:xlink="http://www.w3.org/1999/xlink" x="0px" y="0px"
	 viewBox="0 0 32 32" style="enable-background:new 0 0 32 32;" xml:space="preserve">
<path id="chart--bubble_1_" d="M4,31.4c-1.3,0-2.4-1.1-2.4-2.4s1.1-2.4,2.4-2.4s2.4,1.1,2.4,2.4S5.3,31.4,4,31.4z M4,27.4
	c-0.9,0-1.6,0.7-1.6,1.6s0.7,1.6,1.6,1.6s1.6-0.7,1.6-1.6S4.9,27.4,4,27.4z M20,30.4c-1.9,0-3.4-1.5-3.4-3.4s1.5-3.4,3.4-3.4
	s3.4,1.5,3.4,3.4S21.9,30.4,20,30.4z M20,24.4c-1.5,0-2.6,1.2-2.6,2.6s1.2,2.6,2.6,2.6s2.6-1.2,2.6-2.6S21.5,24.4,20,24.4z M10,26.4
	c-4.1,0-7.4-3.3-7.4-7.4s3.3-7.4,7.4-7.4s7.4,3.3,7.4,7.4S14.1,26.4,10,26.4z M10,12.4c-3.7,0-6.6,3-6.6,6.6s3,6.6,6.6,6.6
	s6.6-3,6.6-6.6S13.7,12.4,10,12.4z M25,22.4c-3,0-5.4-2.4-5.4-5.4s2.4-5.4,5.4-5.4s5.4,2.4,5.4,5.4S28,22.4,25,22.4z M25,12.4
	c-2.6,0-4.6,2.1-4.6,4.6s2.1,4.6,4.6,4.6s4.6-2.1,4.6-4.6S27.6,12.4,25,12.4z M18,11.4c-3,0-5.4-2.4-5.4-5.4S15,0.6,18,0.6
	S23.4,3,23.4,6S21,11.4,18,11.4z M18,1.4c-2.6,0-4.6,2.1-4.6,4.6s2.1,4.6,4.6,4.6s4.6-2.1,4.6-4.6S20.6,1.4,18,1.4z M7,10.4
	c-1.9,0-3.4-1.5-3.4-3.4S5.1,3.6,7,3.6s3.4,1.5,3.4,3.4S8.9,10.4,7,10.4z M7,4.4C5.5,4.4,4.4,5.5,4.4,7S5.5,9.6,7,9.6S9.6,8.5,9.6,7
	S8.5,4.4,7,4.4z"/>
<rect id="_Transparent_Rectangle" style="fill:none;" width="32" height="32"/>
</svg>
