<?xml version="1.0" encoding="iso-8859-1"?>
<!-- Generator: Adobe Illustrator 24.3.0, SVG Export Plug-In . SVG Version: 6.00 Build 0)  -->
<svg version="1.1" id="Layer_1" xmlns="http://www.w3.org/2000/svg" xmlns:xlink="http://www.w3.org/1999/xlink" x="0px" y="0px"
	 viewBox="0 0 32 32" style="enable-background:new 0 0 32 32;" xml:space="preserve">
<path id="chart--t-SNE_1_" d="M11.5,29.36c-1.025,0-1.86-0.835-1.86-1.86s0.834-1.86,1.86-1.86s1.86,0.835,1.86,1.86
	S12.525,29.36,11.5,29.36z M11.5,26.36c-0.628,0-1.14,0.511-1.14,1.14s0.512,1.14,1.14,1.14s1.14-0.511,1.14-1.14
	S12.128,26.36,11.5,26.36z M7.5,26.36c-1.025,0-1.86-0.835-1.86-1.86s0.834-1.86,1.86-1.86s1.86,0.835,1.86,1.86
	S8.525,26.36,7.5,26.36z M7.5,23.36c-0.628,0-1.14,0.511-1.14,1.14s0.512,1.14,1.14,1.14s1.14-0.511,1.14-1.14
	S8.128,23.36,7.5,23.36z M24.5,21.36c-1.025,0-1.86-0.835-1.86-1.86s0.835-1.86,1.86-1.86s1.86,0.835,1.86,1.86
	S25.525,21.36,24.5,21.36z M24.5,18.36c-0.629,0-1.14,0.511-1.14,1.14s0.511,1.14,1.14,1.14s1.14-0.511,1.14-1.14
	S25.129,18.36,24.5,18.36z M27.5,17.36c-1.025,0-1.86-0.835-1.86-1.86s0.835-1.86,1.86-1.86s1.86,0.834,1.86,1.86
	S28.525,17.36,27.5,17.36z M27.5,14.36c-0.629,0-1.14,0.512-1.14,1.14s0.511,1.14,1.14,1.14s1.14-0.512,1.14-1.14
	S28.129,14.36,27.5,14.36z M9.5,10.36c-1.025,0-1.86-0.834-1.86-1.86S8.475,6.64,9.5,6.64s1.86,0.834,1.86,1.86
	S10.525,10.36,9.5,10.36z M9.5,7.36c-0.628,0-1.14,0.512-1.14,1.14S8.872,9.64,9.5,9.64s1.14-0.512,1.14-1.14S10.128,7.36,9.5,7.36z
	 M14.5,5.36c-1.025,0-1.86-0.834-1.86-1.86s0.834-1.86,1.86-1.86s1.86,0.834,1.86,1.86S15.525,5.36,14.5,5.36z M14.5,2.36
	c-0.628,0-1.14,0.512-1.14,1.14s0.512,1.14,1.14,1.14s1.14-0.512,1.14-1.14S15.128,2.36,14.5,2.36z M30,20c0,0.552-0.448,1-1,1
	s-1-0.448-1-1s0.448-1,1-1S30,19.448,30,20 M24,15c0-0.552-0.448-1-1-1s-1,0.448-1,1s0.448,1,1,1S24,15.552,24,15 M6,28
	c0-0.552-0.448-1-1-1s-1,0.448-1,1s0.448,1,1,1S6,28.552,6,28 M21,19c0-0.552-0.448-1-1-1s-1,0.448-1,1s0.448,1,1,1S21,19.552,21,19
	 M22.5,23c0-0.552-0.448-1-1-1s-1,0.448-1,1s0.448,1,1,1S22.5,23.552,22.5,23 M4,23c0-0.552-0.448-1-1-1s-1,0.448-1,1s0.448,1,1,1
	S4,23.552,4,23 M8.5,20c0-0.552-0.448-1-1-1s-1,0.448-1,1s0.448,1,1,1S8.5,20.552,8.5,20 M12.5,22c0-0.552-0.448-1-1-1s-1,0.448-1,1
	s0.448,1,1,1S12.5,22.552,12.5,22 M11,4.5c0-0.552-0.448-1-1-1s-1,0.448-1,1s0.448,1,1,1S11,5.052,11,4.5 M13,12
	c0-0.552-0.448-1-1-1s-1,0.448-1,1s0.448,1,1,1S13,12.552,13,12 M17,11c0-0.552-0.448-1-1-1s-1,0.448-1,1s0.448,1,1,1
	S17,11.552,17,11 M15,8c0-0.552-0.448-1-1-1s-1,0.448-1,1s0.448,1,1,1S15,8.552,15,8"/>
<rect id="_Transparent_Rectangle" style="fill:none;" width="32" height="32"/>
</svg>
