<?xml version="1.0" encoding="iso-8859-1"?>
<!-- Generator: Adobe Illustrator 24.1.2, SVG Export Plug-In . SVG Version: 6.00 Build 0)  -->
<svg version="1.1" id="Layer_1" xmlns="http://www.w3.org/2000/svg" xmlns:xlink="http://www.w3.org/1999/xlink" x="0px" y="0px"
	 viewBox="0 0 32 32" style="enable-background:new 0 0 32 32;" xml:space="preserve">
<path id="chart--pie_1_" d="M26.9,26.9c2.8-2.8,4.5-6.6,4.5-10.9c0-8.5-6.9-15.4-15.4-15.4S0.6,7.5,0.6,16S7.5,31.4,16,31.4
	C20.2,31.4,24.1,29.6,26.9,26.9L26.9,26.9L26.9,26.9z M16.9,16.4h13.8c-0.1,3.8-1.6,7.2-4,9.7L16.9,16.4z M30.6,15.6H16.4V1.4
	C24.1,1.6,30.4,7.9,30.6,15.6z M1.4,16c0-8,6.4-14.4,14.3-14.6V16c0,0.1,0,0.2,0.1,0.3l10.3,10.3c-2.6,2.5-6.2,4-10.1,4
	C7.9,30.6,1.4,24.1,1.4,16z"/>
<rect id="_Transparent_Rectangle" style="fill:none;" width="32" height="32"/>
</svg>
