<?xml version="1.0" encoding="iso-8859-1"?>
<!-- Generator: Adobe Illustrator 24.1.2, SVG Export Plug-In . SVG Version: 6.00 Build 0)  -->
<svg version="1.1" id="Layer_1" xmlns="http://www.w3.org/2000/svg" xmlns:xlink="http://www.w3.org/1999/xlink" x="0px" y="0px"
	 viewBox="0 0 32 32" style="enable-background:new 0 0 32 32;" xml:space="preserve">
<path id="chart--bubble--line_1_" d="M31,31.4H1c-0.2,0-0.4-0.2-0.4-0.4V1h0.7v14.6h4.3c0.2-1.1,1.2-2,2.3-2c1.3,0,2.4,1.1,2.4,2.4
	c0,0.5-0.2,1-0.4,1.4l4.7,4.7c0.6-0.4,1.5-0.5,2.2-0.3L23.7,10c-0.6-0.4-1.1-1.1-1.1-2c0-1.3,1.1-2.4,2.4-2.4c1.2,0,2.2,0.9,2.3,2
	H31v0.7h-3.7c-0.2,1.1-1.2,2-2.3,2c-0.2,0-0.4,0-0.6-0.1l-6.9,11.9c0.5,0.4,0.9,1.1,0.9,1.8c0,1.3-1.1,2.4-2.4,2.4s-2.4-1.1-2.4-2.4
	c0-0.5,0.2-1,0.5-1.4l-4.7-4.7C9,18.2,8.5,18.4,8,18.4c-1.2,0-2.2-0.9-2.3-2H1.4v14.3H31V31.4z M16,22.4c-0.9,0-1.6,0.7-1.6,1.6
	s0.7,1.6,1.6,1.6c0.9,0,1.6-0.7,1.6-1.6S16.9,22.4,16,22.4z M6.4,16c0,0.9,0.7,1.6,1.6,1.6s1.6-0.7,1.6-1.6S8.9,14.4,8,14.4
	S6.4,15.1,6.4,16z M25,6.4c-0.9,0-1.6,0.7-1.6,1.6s0.7,1.6,1.6,1.6s1.6-0.7,1.6-1.6S25.9,6.4,25,6.4z"/>
<rect id="_Transparent_Rectangle" style="fill:none;" width="32" height="32"/>
</svg>
