<?xml version="1.0" encoding="iso-8859-1"?>
<!-- Generator: Adobe Illustrator 24.1.2, SVG Export Plug-In . SVG Version: 6.00 Build 0)  -->
<svg version="1.1" id="Layer_1" xmlns="http://www.w3.org/2000/svg" xmlns:xlink="http://www.w3.org/1999/xlink" x="0px" y="0px"
	 viewBox="0 0 32 32" style="enable-background:new 0 0 32 32;" xml:space="preserve">
<path id="chart--3D_1_" d="M30.3,24l-0.7,0.2l0.8,3l-8.1-4.5V16c0-0.1-0.1-0.2-0.2-0.3l-5.8-3.4V3.9l2.4,2.4l0.5-0.5L16,2.5
	l-3.2,3.3l0.5,0.5l2.4-2.4v8.4l-5.8,3.4c-0.1,0.1-0.2,0.2-0.2,0.3v6.7l-8.1,4.5l0.8-3L1.7,24l-1.1,4.2l4.2,1.1L5,28.7l-3-0.8
	l8.1-4.5l5.8,3.4c0.1,0,0.1,0,0.2,0s0.1,0,0.2,0l5.8-3.4l8.1,4.5l-3,0.8l0.2,0.7l4.2-1.1L30.3,24z M15.6,25.8l-5.3-3v-6.1l5.3,3
	C15.6,19.7,15.6,25.8,15.6,25.8z M16,19l-5.3-3l5.3-3l5.3,3L16,19z M21.6,22.7l-5.3,3v-6.1l5.3-3C21.6,16.6,21.6,22.7,21.6,22.7z"/>
<rect id="_Transparent_Rectangle" style="fill:none;" width="32" height="32"/>
</svg>
