<?xml version="1.0" encoding="iso-8859-1"?>
<!-- Generator: Adobe Illustrator 24.1.2, SVG Export Plug-In . SVG Version: 6.00 Build 0)  -->
<svg version="1.1" id="Layer_1" xmlns="http://www.w3.org/2000/svg" xmlns:xlink="http://www.w3.org/1999/xlink" x="0px" y="0px"
	 viewBox="0 0 32 32" style="enable-background:new 0 0 32 32;" xml:space="preserve">
<path id="chart--multi-type_1_" d="M6,10.5C6,10.8,5.8,11,5.5,11S5,10.8,5,10.5S5.2,10,5.5,10S6,10.2,6,10.5z M7.5,8
	C7.2,8,7,8.2,7,8.5S7.2,9,7.5,9S8,8.8,8,8.5S7.8,8,7.5,8z M10.5,8C10.2,8,10,8.2,10,8.5S10.2,9,10.5,9S11,8.8,11,8.5S10.8,8,10.5,8z
	 M6.5,6C6.2,6,6,6.2,6,6.5S6.2,7,6.5,7S7,6.8,7,6.5S6.8,6,6.5,6z M8.5,5C8.2,5,8,5.2,8,5.5S8.2,6,8.5,6S9,5.8,9,5.5S8.8,5,8.5,5z
	 M11.5,5C11.2,5,11,5.2,11,5.5S11.2,6,11.5,6S12,5.8,12,5.5S11.8,5,11.5,5z M30.4,24c0-3.5-2.9-6.4-6.4-6.4s-6.4,2.9-6.4,6.4
	s2.9,6.4,6.4,6.4S30.4,27.5,30.4,24z M23.6,24c0,0.2,0.2,0.4,0.4,0.4h5.6c-0.2,2.9-2.6,5.3-5.6,5.3c-3.1,0-5.6-2.5-5.6-5.6
	c0-3,2.3-5.4,5.3-5.6L23.6,24L23.6,24z M24.4,18.4c2.8,0.2,5.1,2.4,5.3,5.3h-5.3C24.4,23.7,24.4,18.4,24.4,18.4z M13.4,30v-6
	c0-0.2-0.2-0.4-0.4-0.4h-2c-0.2,0-0.4,0.2-0.4,0.4v6c0,0.2,0.2,0.4,0.4,0.4h2C13.2,30.4,13.4,30.2,13.4,30z M11.4,24.4h1.3v5.3h-1.3
	V24.4z M9.4,30V20c0-0.2-0.2-0.4-0.4-0.4H7c-0.2,0-0.4,0.2-0.4,0.4v10c0,0.2,0.2,0.4,0.4,0.4h2C9.2,30.4,9.4,30.2,9.4,30z M7.4,20.4
	h1.3v9.3H7.4V20.4z M5.4,30v-4c0-0.2-0.2-0.4-0.4-0.4H3c-0.2,0-0.4,0.2-0.4,0.4v4c0,0.2,0.2,0.4,0.4,0.4h2C5.2,30.4,5.4,30.2,5.4,30
	z M3.4,26.4h1.3v3.3H3.4V26.4z M30,13.6H18.4v-2.3H22c0.1,0,0.2,0,0.3-0.1l4.9-4.9H30V5.6h-3c-0.1,0-0.2,0-0.3,0.1l-4.9,4.9h-3.5V2
	h-0.7v12c0,0.2,0.2,0.4,0.4,0.4h12V13.6z M14,13.6H2.4V2H1.6v12c0,0.2,0.2,0.4,0.4,0.4h12V13.6z"/>
<rect id="_Transparent_Rectangle" style="fill:none;" width="32" height="32"/>
</svg>
