<?xml version="1.0" encoding="iso-8859-1"?>
<!-- Generator: Adobe Illustrator 24.1.2, SVG Export Plug-In . SVG Version: 6.00 Build 0)  -->
<svg version="1.1" id="Layer_1" xmlns="http://www.w3.org/2000/svg" xmlns:xlink="http://www.w3.org/1999/xlink" x="0px" y="0px"
	 viewBox="0 0 32 32" style="enable-background:new 0 0 32 32;" xml:space="preserve">
<path id="chart--river_1_" d="M31,31.4H1c-0.2,0-0.4-0.2-0.4-0.4V1h0.7v9.3l8.4-6.5c0.1-0.1,0.3-0.1,0.4,0L21,11.6l9.8-5.9
	c0.1-0.1,0.2-0.1,0.4,0c0.1,0.1,0.2,0.2,0.2,0.3v14c0,0.1-0.1,0.2-0.2,0.3l-10,6c-0.1,0.1-0.3,0.1-0.4,0L10,18.5l-8.6,6.7v5.5H31
	V31.4z M10,17.6c0.1,0,0.1,0,0.2,0.1L21,25.6l9.6-5.8v-6.2l-9.5,5.7c-0.1,0.1-0.3,0.1-0.4,0L10,11.4l-8.6,6.7v6.1l8.4-6.5
	C9.8,17.7,9.9,17.6,10,17.6z M10,10.6c0.1,0,0.1,0,0.2,0.1L21,18.6l9.6-5.8V6.6l-9.5,5.7c-0.1,0.1-0.3,0.1-0.4,0L10,4.4l-8.6,6.7
	v6.1l8.4-6.5C9.8,10.7,9.9,10.6,10,10.6z"/>
<rect id="_Transparent_Rectangle" style="fill:none;" width="32" height="32"/>
</svg>
