<?xml version="1.0" encoding="iso-8859-1"?>
<!-- Generator: Adobe Illustrator 24.1.2, SVG Export Plug-In . SVG Version: 6.00 Build 0)  -->
<svg version="1.1" id="Layer_1" xmlns="http://www.w3.org/2000/svg" xmlns:xlink="http://www.w3.org/1999/xlink" x="0px" y="0px"
	 viewBox="0 0 32 32" style="enable-background:new 0 0 32 32;" xml:space="preserve">
<path id="chart--line_1_" d="M31,31.4H1c-0.2,0-0.4-0.2-0.4-0.4V1h0.7v28.4l6.3-13.5c0.1-0.1,0.2-0.2,0.3-0.2s0.3,0.1,0.3,0.2l4.5,7
	L17.6,8c0-0.1,0.2-0.2,0.3-0.2c0.1,0,0.3,0.1,0.3,0.2l6.3,11.3l6.1-10.6l0.6,0.4l-6.4,11.1c-0.1,0.1-0.2,0.2-0.3,0.2l0,0
	c-0.1,0-0.2-0.1-0.3-0.2L18.1,8.9l-4.9,14.8c0,0.1-0.2,0.2-0.3,0.2s-0.3,0-0.3-0.2l-4.5-7L1.6,30.6H31V31.4z"/>
<rect id="_Transparent_Rectangle" style="fill:none;" width="32" height="32"/>
</svg>
