<?xml version="1.0" encoding="iso-8859-1"?>
<!-- Generator: Adobe Illustrator 24.1.2, SVG Export Plug-In . SVG Version: 6.00 Build 0)  -->
<svg version="1.1" xmlns="http://www.w3.org/2000/svg" xmlns:xlink="http://www.w3.org/1999/xlink" x="0px" y="0px"
	 viewBox="0 0 48 48" style="enable-background:new 0 0 48 48;" xml:space="preserve">
<g id="cheese">
	<path id="cheese_1_" style="fill:none;stroke:#000000;stroke-width:0.72;stroke-linejoin:round;stroke-miterlimit:10;" d="M38,24
		v14H21c0-1.497-1.043-2.711-2.457-2.711c-1.414,0-2.56,1.214-2.56,2.711H10v-4.829c1.807,0,3.271-1.551,3.271-3.463
		c0-1.913-1.464-3.464-3.271-3.464V24l8-4.228c0.575,0.945,1.521,1.608,2.704,1.608c1.807,0,3.271-1.47,3.271-3.284
		c0-0.424-0.094-0.823-0.24-1.195L29.5,14l1.497,0.897c2.884,1.816,5.211,4.656,6.55,7.798L38,24z M38,24H10 M21,27.5
		c-1.381,0-2.5,1.119-2.5,2.5c0,1.381,1.119,2.5,2.5,2.5s2.5-1.119,2.5-2.5C23.5,28.619,22.381,27.5,21,27.5z M28.5,32.25
		c-0.69,0-1.25,0.56-1.25,1.25c0,0.69,0.56,1.25,1.25,1.25s1.25-0.56,1.25-1.25C29.75,32.81,29.19,32.25,28.5,32.25z M31,18.25
		c-0.69,0-1.25,0.56-1.25,1.25c0,0.69,0.56,1.25,1.25,1.25s1.25-0.56,1.25-1.25C32.25,18.81,31.69,18.25,31,18.25z M33.5,26.25
		c-0.966,0-1.75,0.784-1.75,1.75c0,0.966,0.784,1.75,1.75,1.75s1.75-0.784,1.75-1.75C35.25,27.034,34.466,26.25,33.5,26.25z"/>
</g>
<g id="Layer_1">
</g>
</svg>
