<?xml version="1.0" encoding="iso-8859-1"?>
<!-- Generator: Adobe Illustrator 24.1.2, SVG Export Plug-In . SVG Version: 6.00 Build 0)  -->
<svg version="1.1" id="Layer_1" xmlns="http://www.w3.org/2000/svg" xmlns:xlink="http://www.w3.org/1999/xlink" x="0px" y="0px"
	 viewBox="0 0 32 32" style="enable-background:new 0 0 32 32;" xml:space="preserve">
<path id="cheese_1_" d="M30,30.36H13c-0.199,0-0.36-0.161-0.36-0.36c0-1.318-0.921-2.351-2.097-2.351
	c-1.213,0-2.201,1.055-2.201,2.351c0,0.199-0.161,0.36-0.36,0.36H2c-0.199,0-0.36-0.161-0.36-0.36v-4.829
	c0-0.199,0.161-0.36,0.36-0.36c1.605,0,2.911-1.392,2.911-3.103c0-1.712-1.306-3.104-2.911-3.104c-0.199,0-0.36-0.161-0.36-0.36V16
	c0-0.133,0.074-0.256,0.191-0.318l8-4.229c0.169-0.089,0.377-0.031,0.476,0.131c0.555,0.912,1.428,1.435,2.396,1.435
	c1.605,0,2.912-1.312,2.912-2.924c0-0.346-0.071-0.694-0.215-1.064c-0.068-0.173,0.007-0.37,0.173-0.453l5.765-2.9
	c0.111-0.055,0.24-0.051,0.348,0.013l1.497,0.897c2.868,1.806,5.307,4.708,6.695,7.965l0.462,1.328
	c0.014,0.039,0.02,0.079,0.02,0.119v14C30.36,30.199,30.199,30.36,30,30.36z M13.342,29.64H29.64V16.36H2.36v1.542
	c1.834,0.191,3.271,1.825,3.271,3.806s-1.437,3.613-3.271,3.805v4.127h5.283c0.17-1.524,1.406-2.711,2.9-2.711
	C12.011,26.929,13.183,28.094,13.342,29.64z M3.452,15.64h26.042l-0.287-0.827c-1.324-3.103-3.661-5.885-6.401-7.611L21.485,6.41
	l-5.306,2.67c0.105,0.344,0.156,0.679,0.156,1.016c0,2.009-1.629,3.644-3.631,3.644c-1.119,0-2.131-0.542-2.823-1.498L3.452,15.64z
	 M20.5,27.11c-0.888,0-1.61-0.723-1.61-1.61s0.723-1.61,1.61-1.61s1.61,0.723,1.61,1.61S21.388,27.11,20.5,27.11z M20.5,24.61
	c-0.491,0-0.89,0.398-0.89,0.89s0.398,0.89,0.89,0.89s0.89-0.398,0.89-0.89S20.991,24.61,20.5,24.61z M13,24.86
	c-1.577,0-2.86-1.283-2.86-2.86s1.283-2.86,2.86-2.86s2.86,1.283,2.86,2.86S14.577,24.86,13,24.86z M13,19.86
	c-1.18,0-2.14,0.96-2.14,2.14s0.96,2.14,2.14,2.14s2.14-0.96,2.14-2.14S14.18,19.86,13,19.86z M25.5,22.11
	c-1.163,0-2.11-0.947-2.11-2.11s0.947-2.11,2.11-2.11s2.11,0.947,2.11,2.11S26.663,22.11,25.5,22.11z M25.5,18.61
	c-0.767,0-1.39,0.623-1.39,1.39s0.623,1.39,1.39,1.39s1.39-0.623,1.39-1.39S26.267,18.61,25.5,18.61z M23,13.11
	c-0.888,0-1.61-0.722-1.61-1.61S22.112,9.89,23,9.89s1.61,0.722,1.61,1.61S23.888,13.11,23,13.11z M23,10.61
	c-0.491,0-0.89,0.399-0.89,0.89s0.398,0.89,0.89,0.89s0.89-0.399,0.89-0.89S23.491,10.61,23,10.61z"/>
<rect id="_Transparent_Rectangle" style="fill:none;" width="32" height="32"/>
</svg>
