<?xml version="1.0" encoding="iso-8859-1"?>
<!-- Generator: Adobe Illustrator 30.4.0, SVG Export Plug-In . SVG Version: 9.03 Build 0)  -->
<svg version="1.1" id="Layer_1" xmlns="http://www.w3.org/2000/svg" xmlns:xlink="http://www.w3.org/1999/xlink" x="0px" y="0px"
	 viewBox="0 0 32 32" style="enable-background:new 0 0 32 32;" xml:space="preserve">
<path id="chennai" d="M16,7.5c-0.28,0-0.5,0.22-0.5,0.5c0,0.28,0.22,0.5,0.5,0.5c0.28,0,0.5-0.22,0.5-0.5S16.28,7.5,16,7.5z M16,7.5
	c-0.28,0-0.5,0.22-0.5,0.5c0,0.28,0.22,0.5,0.5,0.5c0.28,0,0.5-0.22,0.5-0.5S16.28,7.5,16,7.5z M16,7.5c-0.28,0-0.5,0.22-0.5,0.5
	c0,0.28,0.22,0.5,0.5,0.5c0.28,0,0.5-0.22,0.5-0.5S16.28,7.5,16,7.5z M16,7.5c-0.28,0-0.5,0.22-0.5,0.5c0,0.28,0.22,0.5,0.5,0.5
	c0.28,0,0.5-0.22,0.5-0.5S16.28,7.5,16,7.5z M26.36,22.64v-2h-1v-2h-1v-2h-1v-2h-1v-2h-1v-2h-1V5h-0.72v1.64h-2.33
	c-0.16-0.58-0.68-1-1.31-1s-1.15,0.42-1.31,1h-2.33V5h-0.72v5.64h-1v2h-1v2h-1v2h-1v2h-1v2h-1v2h-1v8.72h8.72v-6h5.28v6h8.72v-8.72
	C27.36,22.64,26.36,22.64,26.36,22.64z M25.64,21.36v1.28h-8.28v-1.28H25.64z M24.64,23.36v3.28h-1.28v-3.28H24.64z M22.64,23.36
	v3.28h-1.28v-3.28H22.64z M20.64,23.36v3.28h-1.28v-3.28H20.64z M13.36,20.64v-1.28h5.28v1.28C18.64,20.64,13.36,20.64,13.36,20.64z
	 M16.64,21.36v1.28h-1.28v-1.28H16.64z M17.64,11.36v1.28h-3.28v-1.28H17.64z M15.36,10.64V9.36h1.28v1.28H15.36z M17.36,10.64V9.36
	h2.28v1.28H17.36z M15.36,13.36h1.28v1.28h-1.28V13.36z M18.64,15.36v1.28h-5.28v-1.28H18.64z M15.36,17.36h1.28v1.28h-1.28V17.36z
	 M24.64,19.36v1.28h-5.28v-1.28H24.64z M23.64,17.36v1.28h-6.28v-1.28H23.64z M22.64,15.36v1.28h-3.28v-1.28H22.64z M21.64,13.36
	v1.28h-4.28v-1.28H21.64z M20.64,11.36v1.28h-2.28v-1.28H20.64z M18.36,7.36h1.28v1.28h-1.28C18.36,8.64,18.36,7.36,18.36,7.36z
	 M14.36,7.36h1V7c0-0.35,0.29-0.64,0.64-0.64S16.64,6.65,16.64,7v0.36h1v1.28h-3.28C14.36,8.64,14.36,7.36,14.36,7.36z M12.36,7.36
	h1.28v1.28h-1.28C12.36,8.64,12.36,7.36,12.36,7.36z M12.36,9.36h2.28v1.28h-2.28V9.36z M11.36,11.36h2.28v1.28h-2.28V11.36z
	 M10.36,13.36h4.28v1.28h-4.28C10.36,14.64,10.36,13.36,10.36,13.36z M9.36,15.36h3.28v1.28H9.36V15.36z M8.36,17.36h6.28v1.28H8.36
	C8.36,18.64,8.36,17.36,8.36,17.36z M7.36,19.36h5.28v1.28H7.36V19.36z M5.36,23.36h1.28v3.28H5.36
	C5.36,26.64,5.36,23.36,5.36,23.36z M12.64,30.64H5.36v-3.28h7.28V30.64z M7.36,26.64v-3.28h1.28v3.28
	C8.64,26.64,7.36,26.64,7.36,26.64z M9.36,26.64v-3.28h1.28v3.28H9.36z M12.64,26.64h-1.28v-3.28h1.28V26.64z M6.36,22.64v-1.28
	h8.28v1.28H6.36z M18.64,24.64h-5.28v-1.28h5.28V24.64z M26.64,30.64h-7.28v-3.28h7.28V30.64z M26.64,26.64h-1.28v-3.28h1.28V26.64z
	 M16,7.5c-0.28,0-0.5,0.22-0.5,0.5c0,0.28,0.22,0.5,0.5,0.5c0.28,0,0.5-0.22,0.5-0.5S16.28,7.5,16,7.5z M16,7.5
	c-0.28,0-0.5,0.22-0.5,0.5c0,0.28,0.22,0.5,0.5,0.5c0.28,0,0.5-0.22,0.5-0.5S16.28,7.5,16,7.5z M16,7.5c-0.28,0-0.5,0.22-0.5,0.5
	c0,0.28,0.22,0.5,0.5,0.5c0.28,0,0.5-0.22,0.5-0.5S16.28,7.5,16,7.5z"/>
<rect id="Transparent_Rectangle" style="fill:none;" width="32" height="32"/>
</svg>
