<?xml version="1.0" encoding="iso-8859-1"?>
<!-- Generator: Adobe Illustrator 24.3.0, SVG Export Plug-In . SVG Version: 6.00 Build 0)  -->
<svg version="1.1" id="Layer_1" xmlns="http://www.w3.org/2000/svg" xmlns:xlink="http://www.w3.org/1999/xlink" x="0px" y="0px"
	 viewBox="0 0 32 32" style="enable-background:new 0 0 32 32;" xml:space="preserve">
<path id="chile--easter-island_1_" d="M31,31.36c-5.845,0-11.33-2.2-16.634-4.327C9.655,25.145,5.205,23.36,1,23.36v-0.72
	c0.551,0,1.105,0.029,1.662,0.084L3.641,10.97L2.145,2.059c-0.033-0.196,0.1-0.381,0.296-0.414l6-1
	c0.153-0.028,0.311,0.053,0.381,0.194l1.5,3c0.069,0.139,0.042,0.306-0.067,0.416L9.456,5.054l3.851,6.258
	c0.062,0.1,0.07,0.224,0.023,0.332s-0.144,0.187-0.259,0.209l-2,0.4l1.237,2.062c0.054,0.09,0.066,0.199,0.033,0.299l-0.472,1.415
	l0.485,2.912c0.019,0.115-0.018,0.231-0.101,0.314c-0.082,0.081-0.2,0.118-0.313,0.101L9.502,18.95l0.809,2.828l1.147-0.135
	c0.19-0.026,0.37,0.112,0.398,0.307l0.189,1.323l5.044,1.346l-0.447-3.573c-0.016-0.127,0.037-0.252,0.138-0.33
	c0.101-0.077,0.235-0.098,0.354-0.049l2.006,0.803V20c0-0.071,0.021-0.141,0.061-0.199l0.717-1.075l-1.504-0.376l0.174-0.699
	l1.418,0.354l-0.354-1.417c-0.026-0.107-0.002-0.222,0.065-0.309c0.068-0.087,0.173-0.138,0.284-0.138h1.539l-1.303-5.211
	l-1.284-0.321l0.174-0.698l1.171,0.293c0.014-0.009,0.027-0.018,0.042-0.024l0.763-0.381l-0.417-2.498L16.773,6.43l-1.922,8.648
	l-0.703-0.156l2-9c0.043-0.194,0.235-0.316,0.43-0.273l4.5,1c0.144,0.032,0.253,0.147,0.277,0.292l0.5,3
	c0.025,0.156-0.053,0.311-0.194,0.381l-0.742,0.371l1.431,5.72c0.026,0.107,0.002,0.222-0.065,0.309
	C22.216,16.809,22.111,16.86,22,16.86h-1.539l0.389,1.553c0.024,0.098,0.006,0.202-0.05,0.286l-0.939,1.41V22
	c0,0.119-0.06,0.231-0.158,0.298c-0.1,0.067-0.226,0.081-0.336,0.036l-1.934-0.773l0.407,3.258l1.253,0.334
	c0.184,0.049,0.298,0.232,0.26,0.418l-0.489,2.448c0.59,0.218,1.182,0.43,1.776,0.633V28c0-0.199,0.161-0.36,0.36-0.36h0.662
	l0.479-7.662l0.719,0.045l-0.477,7.617h5.071l-1.285-2.998c-0.053-0.123-0.033-0.265,0.052-0.368s0.218-0.151,0.35-0.126
	l1.942,0.388l-0.362-1.448c-0.017-0.066-0.014-0.136,0.008-0.201l0.343-1.025H27V21.14h1.418l-0.74-1.479
	c-0.049-0.098-0.051-0.212-0.005-0.312s0.134-0.173,0.24-0.199l1.564-0.391l-2.7-5.4H25.5v-0.72h1.351l0.737-0.737L26.74,9.36H23
	V8.64h4c0.155,0,0.293,0.099,0.342,0.246l1,3c0.043,0.129,0.009,0.272-0.087,0.368l-0.816,0.817l2.884,5.768
	c0.049,0.098,0.051,0.212,0.005,0.312s-0.134,0.173-0.24,0.199l-1.564,0.391l0.8,1.599c0.042,0.086,0.05,0.185,0.02,0.275
	l-0.467,1.4l0.475,1.898c0.029,0.119-0.004,0.246-0.089,0.335c-0.085,0.09-0.209,0.13-0.331,0.104l-1.829-0.365l1.137,2.652H29
	c0.199,0,0.36,0.161,0.36,0.36v2.582c0.544,0.038,1.091,0.058,1.64,0.058V31.36z M21.36,28.892c2.38,0.775,4.804,1.383,7.279,1.629
	v-2.16H21.36V28.892z M12.337,25.452c0.759,0.297,1.524,0.604,2.296,0.913c1.173,0.471,2.354,0.944,3.547,1.396l0.4-2.001
	l-6.425-1.713l0.2,1.401L12.337,25.452z M5.108,23.114c2.112,0.456,4.269,1.198,6.48,2.047l-0.395-2.763L5.108,23.114z M2.914,2.296
	l1.441,8.645l-0.96,11.65l6.191-0.729l-0.933-3.264C8.62,18.48,8.649,18.353,8.731,18.26c0.083-0.092,0.208-0.132,0.328-0.115
	l2.503,0.418l-0.417-2.503c-0.01-0.058-0.005-0.117,0.014-0.173l0.304-0.912l-1.892,0.378l-0.142-0.706l2-0.4l-1.237-2.062
	c-0.061-0.1-0.068-0.224-0.021-0.331s0.144-0.185,0.258-0.208l1.993-0.398l-3.59-5.835L7.087,5.849L6.913,5.151l1.903-0.476
	l0.746-0.746l-1.265-2.53L2.914,2.296z"/>
<rect id="_Transparent_Rectangle" style="fill:none;" width="32" height="32"/>
</svg>
