<?xml version="1.0" encoding="iso-8859-1"?>
<!-- Generator: Adobe Illustrator 24.1.2, SVG Export Plug-In . SVG Version: 6.00 Build 0)  -->
<svg version="1.1" id="Layer_1" xmlns="http://www.w3.org/2000/svg" xmlns:xlink="http://www.w3.org/1999/xlink" x="0px" y="0px"
	 viewBox="0 0 32 32" style="enable-background:new 0 0 32 32;" xml:space="preserve">
<path id="chip--debit_1_" d="M28,30.426H4c-1.337,0-2.425-1.089-2.425-2.426V4c0-1.337,1.088-2.425,2.425-2.425h24
	c1.337,0,2.426,1.088,2.426,2.425v24C30.426,29.337,29.337,30.426,28,30.426z M16.425,29.574H28c0.868,0,1.574-0.706,1.574-1.574
	v-2.574H25c-0.113,0-0.221-0.045-0.301-0.125l-3.875-3.875h-4.399V29.574z M2.425,25.426V28c0,0.868,0.707,1.574,1.575,1.574h11.575
	v-8.148h-4.398l-3.875,3.875c-0.08,0.08-0.188,0.125-0.301,0.125C7.001,25.426,2.425,25.426,2.425,25.426z M25.176,24.574h4.398
	v-8.149h-8.148v4.399L25.176,24.574z M2.425,24.574h4.398l3.751-3.75v-4.399H2.425V24.574z M11.425,20.574h9.149v-9.149h-9.149
	C11.425,11.425,11.425,20.574,11.425,20.574z M21.426,15.575h8.148v-8.15h-4.398l-3.75,3.751
	C21.426,11.176,21.426,15.575,21.426,15.575z M2.425,15.575h8.149v-4.398l-3.75-3.752H2.425V15.575z M16.425,10.575h4.399
	L24.699,6.7c0.08-0.08,0.188-0.125,0.301-0.125h4.574V4c0-0.868-0.706-1.575-1.574-1.575H16.425V10.575z M11.176,10.575h4.398v-8.15
	H4C3.132,2.425,2.425,3.132,2.425,4v2.575H7c0.113,0,0.221,0.044,0.301,0.125L11.176,10.575z"/>
<rect id="_Transparent_Rectangle" style="fill:none;" width="32" height="32"/>
</svg>
