<?xml version="1.0" encoding="iso-8859-1"?>
<!-- Generator: Adobe Illustrator 24.1.2, SVG Export Plug-In . SVG Version: 6.00 Build 0)  -->
<svg version="1.1" id="Layer_1" xmlns="http://www.w3.org/2000/svg" xmlns:xlink="http://www.w3.org/1999/xlink" x="0px" y="0px"
	 viewBox="0 0 32 32" style="enable-background:new 0 0 32 32;" xml:space="preserve">
<path id="circle--packing_1_" d="M16,31.4C7.5,31.4,0.6,24.5,0.6,16S7.5,0.6,16,0.6S31.4,7.5,31.4,16c0,0.1,0,0.2,0,0.3
	c0,0.1,0,0.1,0,0.2c0,0.3,0,0.5-0.1,0.8C30.6,25.2,24,31.4,16,31.4z M1.6,13.1c-0.1,1-0.2,1.9-0.2,2.9C1.4,24.1,8,30.6,16,30.6
	c1,0,1.9-0.1,2.9-0.3c-2.9-0.1-5.2-2.4-5.2-5.4c0-1.3,0.5-2.6,1.3-3.5c-3.5,1.6-7.7,1-10.6-1.9C2.6,17.8,1.7,15.5,1.6,13.1z
	 M19,20.4c-2.6,0-4.6,2.1-4.6,4.6s2.1,4.6,4.6,4.6s4.6-2.1,4.6-4.6S21.6,20.4,19,20.4z M23.4,22c0.6,0.9,0.9,1.9,0.9,3
	c0,1.7-0.8,3.2-2,4.2c3.7-1.8,6.5-5,7.7-9c-1.1,1.3-2.7,2.1-4.5,2.1C24.8,22.4,24.1,22.2,23.4,22z M25.5,11.4
	c-2.8,0-5.1,2.3-5.1,5.1s2.3,5.1,5.1,5.1c2.6,0,4.7-1.9,5.1-4.4c0-0.3,0-0.6,0-0.9C30.5,13.6,28.3,11.4,25.5,11.4z M11,4.4
	c-2.2,0-4.4,0.8-6.1,2.5c-3.4,3.4-3.4,8.9,0,12.2c3.4,3.4,8.9,3.4,12.2,0c3.4-3.4,3.4-8.9,0-12.2C15.4,5.2,13.2,4.4,11,4.4z
	 M19,19.6c0.6,0,1.2,0.1,1.8,0.3c-0.7-0.9-1.1-2.1-1.1-3.3c-0.5,1.1-1.1,2.1-2,3c-0.1,0.1-0.2,0.2-0.3,0.3
	C17.8,19.7,18.4,19.6,19,19.6z M11,3.6c2.4,0,4.8,0.9,6.6,2.7l0,0c2,2,2.9,4.7,2.7,7.4c1-1.8,2.9-3.1,5.2-3.1c2,0,3.8,1,4.9,2.6
	C29.1,6.5,23.1,1.4,16,1.4c-3.5,0-6.7,1.2-9.2,3.3C8.1,4,9.5,3.6,11,3.6z"/>
<rect id="_Transparent_Rectangle" style="fill:none;" width="32" height="32"/>
</svg>
