<?xml version="1.0" encoding="iso-8859-1"?>
<!-- Generator: Adobe Illustrator 22.0.0, SVG Export Plug-In . SVG Version: 6.00 Build 0)  -->
<svg version="1.1" xmlns="http://www.w3.org/2000/svg" xmlns:xlink="http://www.w3.org/1999/xlink" x="0px" y="0px"
	 viewBox="0 0 48 48" style="enable-background:new 0 0 48 48;" xml:space="preserve">
<g id="circling_packing">
	
		<path id="circling_packing_1_" style="fill:none;stroke:#000000;stroke-width:0.72;stroke-linejoin:round;stroke-miterlimit:10;" d="
		M25.364,14.636c3.515,3.515,3.515,9.213,0,12.728c-3.515,3.515-9.213,3.515-12.728,0c-3.515-3.515-3.515-9.213,0-12.728
		C16.151,11.121,21.849,11.121,25.364,14.636z M24,9C15.716,9,9,15.716,9,24c0,8.284,6.716,15,15,15c8.284,0,15-6.716,15-15
		C39,15.716,32.284,9,24,9z M27,28c-2.761,0-5,2.239-5,5c0,2.761,2.239,5,5,5c2.761,0,5-2.239,5-5C32,30.239,29.761,28,27,28z
		 M33.5,19c-3.038,0-5.5,2.462-5.5,5.5c0,3.038,2.462,5.5,5.5,5.5c3.038,0,5.5-2.462,5.5-5.5C39,21.462,36.538,19,33.5,19z"/>
</g>
<g id="Layer_1">
</g>
</svg>
