<?xml version="1.0" encoding="iso-8859-1"?>
<!-- Generator: Adobe Illustrator 29.1.0, SVG Export Plug-In . SVG Version: 9.03 Build 55587)  -->
<svg version="1.1" id="Layer_1" xmlns="http://www.w3.org/2000/svg" xmlns:xlink="http://www.w3.org/1999/xlink" x="0px" y="0px"
	 viewBox="0 0 32 32" style="enable-background:new 0 0 32 32;" xml:space="preserve">
<path id="cleat_00000013890068967106943460000002236795978007333016_" d="M27.572,25.178c-1.229-1.596-2.259-3.146-3.146-4.741
	c-1.39-2.498-3.567-11.297-4.075-13.517c-0.183-0.804-1.319-1.121-2.311-1.009c-0.863,0.097-1.4,0.515-1.4,1.089v3.64h-1.188
	c-0.001,0-0.001,0-0.002,0c-0.841,0-1.483-0.234-1.91-0.695c-0.451-0.487-0.661-1.242-0.592-2.124
	c0.037-0.471,0.334-1.003,0.34-1.014c0.051-0.094,0.499-0.93,0.561-1.517c0.098-0.92-0.203-1.79-0.765-2.215
	c-0.488-0.368-0.922-0.435-1.601-0.435c-0.401,0-0.82,0.132-1.185,0.376c-0.472,0.318-2.617,2.5-4.432,4.366L5.545,7.713
	c-0.719,0.732-1.012,1.604-0.871,2.589c0.098,0.679,0.413,1.267,0.962,1.799l0.046-0.048c0.004,0.004,0.01,0.01,0.013,0.015
	l-0.063,0.063c-0.292,0.291-0.452,0.678-0.452,1.09c0,0.411,0.16,0.798,0.452,1.089c0.3,0.3,0.695,0.45,1.09,0.45
	s0.79-0.15,1.09-0.451l0.019-0.019c0.291,0.296,0.604,0.614,0.934,0.948L8.754,15.25c-0.292,0.291-0.452,0.678-0.452,1.09
	c0,0.411,0.16,0.798,0.452,1.089c0.301,0.3,0.695,0.45,1.09,0.45s0.789-0.15,1.089-0.45l0.004-0.004
	c1.168,1.172,2.427,2.43,3.681,3.68l-0.002,0.002c-0.292,0.291-0.452,0.678-0.452,1.09c0,0.411,0.16,0.798,0.452,1.089
	c0.3,0.3,0.695,0.45,1.089,0.45s0.79-0.15,1.09-0.45l0.007-0.007c0.316,0.314,0.626,0.623,0.931,0.926l-0.009,0.009
	c-0.601,0.601-0.601,1.578,0.001,2.179c0.3,0.3,0.694,0.449,1.089,0.449c0.396,0,0.79-0.149,1.091-0.449l0.016-0.016
	c0.327,0.324,0.633,0.627,0.921,0.912l-0.02,0.02c-0.601,0.602-0.601,1.578,0.001,2.18c0.301,0.3,0.695,0.45,1.09,0.45
	s0.789-0.15,1.09-0.45l0.033-0.033c0.053,0.052,0.091,0.089,0.098,0.095c0.604,0.539,1.315,0.811,2.118,0.811
	c0.15,0,0.305-0.009,0.461-0.028c1.486-0.181,2.649-1.539,2.647-3.094C28.359,26.526,28.108,25.872,27.572,25.178z M7.304,13.8
	c-0.32,0.32-0.842,0.32-1.162,0c-0.155-0.155-0.24-0.361-0.24-0.58s0.085-0.425,0.24-0.581l0.044-0.044
	c0.296,0.312,0.684,0.712,1.142,1.181L7.304,13.8z M10.425,16.919c-0.32,0.319-0.841,0.32-1.162,0
	c-0.155-0.155-0.24-0.361-0.24-0.58s0.085-0.425,0.24-0.58l0.01-0.01c0.37,0.373,0.755,0.761,1.157,1.165L10.425,16.919z
	 M16.287,22.775c-0.32,0.32-0.841,0.32-1.162,0c-0.155-0.154-0.24-0.36-0.24-0.579c0-0.22,0.085-0.426,0.24-0.58l0.003-0.003
	c0.391,0.39,0.779,0.776,1.163,1.158L16.287,22.775z M19.396,25.882c-0.322,0.319-0.841,0.321-1.162,0
	c-0.32-0.319-0.32-0.84,0-1.159l0.01-0.01c0.403,0.4,0.794,0.788,1.165,1.156L19.396,25.882z M22.493,28.978
	c-0.319,0.321-0.841,0.319-1.161,0s-0.32-0.841-0.001-1.16l0.023-0.023c0.475,0.47,0.871,0.861,1.168,1.154L22.493,28.978z
	 M25.626,29.616c-0.782,0.096-1.447-0.1-2.002-0.594C23.509,28.909,6.466,11.92,6.149,11.596c-0.004-0.004-0.008-0.008-0.012-0.012
	c-0.431-0.417-0.676-0.869-0.75-1.384C5.293,9.544,5.458,8.976,5.859,8.465l20.765,20.748
	C26.331,29.423,25.994,29.571,25.626,29.616z M27.14,28.708L6.341,7.928l0.042-0.043c2.553-2.624,4.005-4.06,4.321-4.272
	c0.243-0.162,0.52-0.252,0.78-0.252c0.621,0,0.861,0.06,1.167,0.29c0.289,0.219,0.563,0.801,0.483,1.564
	c-0.04,0.377-0.358,1.029-0.474,1.243c-0.016,0.027-0.379,0.675-0.429,1.307c-0.085,1.085,0.192,2.033,0.781,2.669
	c0.568,0.615,1.389,0.926,2.438,0.926c0.001,0,0.002,0,0.002,0H19v-0.72h-1.64V7c0-0.165,0.327-0.325,0.761-0.374
	c0.7-0.081,1.458,0.146,1.528,0.454c0.011,0.052,0.607,2.61,1.404,5.56H18v0.72h3.25c0.117,0.424,0.238,0.853,0.361,1.28H19v0.72
	h2.821c0.128,0.434,0.259,0.863,0.39,1.28H20v0.72h2.441c0.147,0.45,0.294,0.877,0.439,1.279H21v0.721h2.15
	c0.224,0.57,0.442,1.057,0.647,1.426c0.905,1.627,1.953,3.207,3.205,4.831c0.435,0.562,0.638,1.078,0.638,1.622
	C27.641,27.787,27.449,28.297,27.14,28.708z"/>
<rect id="_Transparent_Rectangle" style="fill:none;" width="32" height="32"/>
</svg>
