<?xml version="1.0" encoding="iso-8859-1"?>
<!-- Generator: Adobe Illustrator 24.1.2, SVG Export Plug-In . SVG Version: 6.00 Build 0)  -->
<svg version="1.1" id="Layer_1" xmlns="http://www.w3.org/2000/svg" xmlns:xlink="http://www.w3.org/1999/xlink" x="0px" y="0px"
	 viewBox="0 0 32 32" style="enable-background:new 0 0 32 32;" xml:space="preserve">
<path id="client--financing--02_1_" d="M31,2.64H18c-0.199,0-0.36,0.161-0.36,0.36v8c0,0.199,0.161,0.36,0.36,0.36h13
	c0.199,0,0.36-0.161,0.36-0.36V3C31.36,2.801,31.199,2.64,31,2.64z M30.64,4.597c-0.615-0.139-1.098-0.623-1.237-1.237h1.237V4.597z
	 M28.676,10.64h-8.352c-0.157-1.012-0.952-1.807-1.964-1.964V5.323c1.012-0.157,1.807-0.952,1.964-1.964h8.352
	c0.157,1.012,0.952,1.807,1.964,1.964v3.353C29.628,8.833,28.833,9.629,28.676,10.64z M19.597,3.36
	c-0.139,0.615-0.622,1.099-1.237,1.237V3.36H19.597z M18.36,9.403c0.615,0.139,1.098,0.623,1.237,1.237H18.36V9.403z M29.403,10.64
	c0.139-0.615,0.622-1.099,1.237-1.237v1.237C30.64,10.64,29.403,10.64,29.403,10.64z M18,12.64h13v0.72H18V12.64z M18,14.64h13v0.72
	H18V14.64z M24.497,4.64c-1.302,0-2.36,1.059-2.36,2.36s1.059,2.36,2.36,2.36s2.36-1.059,2.36-2.36S25.799,4.64,24.497,4.64z
	 M24.497,8.64c-0.904,0-1.64-0.736-1.64-1.64s0.735-1.64,1.64-1.64s1.64,0.736,1.64,1.64S25.401,8.64,24.497,8.64z M7.36,17H6.64
	V9.009C6.64,7.703,7.699,6.64,9,6.64h5.131l-2.385-2.386l0.509-0.509L15.509,7l-3.248,3.256l-0.51-0.509l2.381-2.387H9
	c-0.904,0-1.64,0.74-1.64,1.649V17z M24.64,19h0.721v4c0,1.302-1.059,2.36-2.36,2.36h-7.13l2.385,2.385l-0.51,0.51L14.491,25
	l3.254-3.255l0.51,0.51L15.87,24.64H23c0.904,0,1.64-0.735,1.64-1.64V19z M13.36,31h-0.72c0-2.539-1.721-4.774-4.186-5.435
	c-0.143-0.038-0.248-0.159-0.264-0.307C8.173,25.112,8.247,24.97,8.378,24.9c0.959-0.515,1.556-1.508,1.556-2.594
	c0-1.625-1.319-2.946-2.94-2.946s-2.94,1.321-2.94,2.946c0,1.086,0.596,2.08,1.556,2.594c0.13,0.069,0.205,0.212,0.188,0.358
	c-0.017,0.147-0.122,0.269-0.264,0.307C3.076,26.224,1.36,28.458,1.36,31H0.64c0-2.615,1.61-4.942,3.996-5.895
	c-0.817-0.688-1.303-1.706-1.303-2.799c0-2.021,1.642-3.667,3.66-3.667s3.66,1.646,3.66,3.667c0,1.093-0.485,2.111-1.302,2.799
	C11.745,26.059,13.36,28.387,13.36,31z"/>
<rect id="_Transparent_Rectangle" style="fill:none;" width="32" height="32"/>
</svg>
