<?xml version="1.0" encoding="iso-8859-1"?>
<!-- Generator: Adobe Illustrator 24.1.2, SVG Export Plug-In . SVG Version: 6.00 Build 0)  -->
<svg version="1.1" xmlns="http://www.w3.org/2000/svg" xmlns:xlink="http://www.w3.org/1999/xlink" x="0px" y="0px"
	 viewBox="0 0 48 48" style="enable-background:new 0 0 48 48;" xml:space="preserve">
<g id="client--financing--02">
	<g id="client--financing--02_1_">
		<g>
			<g>
				
					<rect x="26" y="11" style="fill:none;stroke:#000000;stroke-width:0.72;stroke-linejoin:round;stroke-miterlimit:10;" width="13" height="8"/>
				
					<line style="fill:none;stroke:#000000;stroke-width:0.72;stroke-linejoin:round;stroke-miterlimit:10;" x1="26" y1="21" x2="39" y2="21"/>
				
					<line style="fill:none;stroke:#000000;stroke-width:0.72;stroke-linejoin:round;stroke-miterlimit:10;" x1="26" y1="23" x2="39" y2="23"/>
				
					<circle style="fill:none;stroke:#000000;stroke-width:0.72;stroke-linejoin:round;stroke-miterlimit:10;" cx="32.497" cy="15" r="2"/>
				<path style="fill:none;stroke:#000000;stroke-width:0.72;stroke-miterlimit:10;" d="M39,13c-1.105,0-2-0.895-2-2"/>
				<path style="fill:none;stroke:#000000;stroke-width:0.72;stroke-miterlimit:10;" d="M37,19c0-1.105,0.895-2,2-2"/>
				<path style="fill:none;stroke:#000000;stroke-width:0.72;stroke-miterlimit:10;" d="M26,17c1.105,0,2,0.895,2,2"/>
				<path style="fill:none;stroke:#000000;stroke-width:0.72;stroke-miterlimit:10;" d="M28,11c0,1.105-0.895,2-2,2"/>
			</g>
		</g>
		<path style="fill:none;stroke:#000000;stroke-width:0.72;stroke-miterlimit:10;" d="M22.998,15H17c-1.105,0-2,0.905-2,2.009V25"/>
		<polyline style="fill:none;stroke:#000000;stroke-width:0.72;stroke-miterlimit:10;" points="20,12 23,15 20.007,18.001 		"/>
		<path style="fill:none;stroke:#000000;stroke-width:0.72;stroke-miterlimit:10;" d="M33,27v4c0,1.105-0.895,2-2,2h-8"/>
		<polyline style="fill:none;stroke:#000000;stroke-width:0.72;stroke-miterlimit:10;" points="26,36 23,33 26,30 		"/>
		<path style="fill:none;stroke:#000000;stroke-width:0.72;stroke-linejoin:round;stroke-miterlimit:10;" d="M21,39
			c0-2.775-1.893-5.097-4.452-5.783c1.039-0.556,1.746-1.651,1.746-2.911c0-1.823-1.478-3.306-3.3-3.306s-3.3,1.484-3.3,3.306
			c0,1.26,0.707,2.355,1.746,2.911C10.88,33.903,9,36.225,9,39"/>
	</g>
</g>
<g id="Layer_1">
</g>
</svg>
