<?xml version="1.0" encoding="iso-8859-1"?>
<!-- Generator: Adobe Illustrator 24.1.2, SVG Export Plug-In . SVG Version: 6.00 Build 0)  -->
<svg version="1.1" xmlns="http://www.w3.org/2000/svg" xmlns:xlink="http://www.w3.org/1999/xlink" x="0px" y="0px"
	 viewBox="0 0 48 48" style="enable-background:new 0 0 48 48;" xml:space="preserve">
<g id="clothes--rack--02">
	<g id="clothes--rack--02_1_">
		<path style="fill:none;stroke:#000000;stroke-width:0.72;stroke-linejoin:round;stroke-miterlimit:10;" d="M11,39V9h26v30 M9,39h4
			 M35,39h4"/>
		<path style="fill:none;stroke:#000000;stroke-width:0.72;stroke-linejoin:round;stroke-miterlimit:10;" d="M15,18h-2v-5.245
			c0-0.447,0.296-0.839,0.725-0.962L16,11l0.445,0.666c0.347,0.52,0.93,0.832,1.555,0.832s1.208-0.312,1.555-0.832L20,11
			l2.275,0.793C22.704,11.916,23,12.308,23,12.755V18h-2 M15,14.998V25h6V14.998"/>
		<path style="fill:none;stroke:#000000;stroke-width:0.72;stroke-linejoin:round;stroke-miterlimit:10;" d="M33,11.998l1.447,0.724
			C34.786,12.891,35,13.237,35,13.616V25h-2v-1.002 M27,11.998l-1.447,0.724C25.214,12.891,25,13.237,25,13.616V25h2v-1.002
			 M27,15.998V24l1.248,0.831C28.412,24.942,28.605,25,28.804,25l2.394,0c0.197,0,0.389-0.06,0.553-0.169L33,24v-8.002 M30,24.998
			v-12l1,1l2-2L32,11l-2,1.998L28,11l-1,0.998l2,2l1-1"/>
	</g>
</g>
<g id="Layer_1">
</g>
</svg>
