<?xml version="1.0" encoding="iso-8859-1"?>
<!-- Generator: Adobe Illustrator 24.1.2, SVG Export Plug-In . SVG Version: 6.00 Build 0)  -->
<svg version="1.1" xmlns="http://www.w3.org/2000/svg" xmlns:xlink="http://www.w3.org/1999/xlink" x="0px" y="0px"
	 viewBox="0 0 48 48" style="enable-background:new 0 0 48 48;" xml:space="preserve">
<g id="clothes--rack--01">
	<g id="clothes--rack--01_1_">
		<path style="fill:none;stroke:#000000;stroke-width:0.72;stroke-linejoin:round;stroke-miterlimit:10;" d="M11,39V9h26v30 M9,39h4
			 M35,39h4"/>
		<path style="fill:none;stroke:#000000;stroke-width:0.72;stroke-linejoin:round;stroke-miterlimit:10;" d="M15,18h-2v-5.246
			c0-0.446,0.296-0.838,0.725-0.961L16.5,11l0.015,0.061C16.8,12.201,17.824,13,18.999,13h0.002c1.175,0,2.199-0.799,2.484-1.939
			L21.5,11l2.774,0.793C24.704,11.916,25,12.308,25,12.754V18h-2 M15,15v11h8V15"/>
		<path style="fill:none;stroke:#000000;stroke-width:0.72;stroke-linejoin:round;stroke-miterlimit:10;" d="M30,19v15h-3V11h8v23
			h-3V19H30z M27,12.998h8 M30,12.998V19 M30,17h1c0.552,0,1-0.448,1-1v-3.002"/>
	</g>
</g>
<g id="Layer_1">
</g>
</svg>
