<svg xmlns="http://www.w3.org/2000/svg" viewBox="0 0 48 48"><path fill="none" stroke-linejoin="round" stroke-miterlimit="10" stroke-width=".72" d="M12,14.992v13 M39,24c0,8.284-6.716,15-15,15S9,32.284,9,24S15.716,9,24,9S39,15.716,39,24z M21.457,36.388l-11.258-6.5 M22.199,38.896l11.258-6.5 M36,33.008v-13 M26.543,11.612l11.258,6.5 M14.543,15.604l11.258-6.5 M39,24c0,8.284-6.716,15-15,15 S9,32.284,9,24S15.716,9,24,9S39,15.716,39,24z M21,31L21,31c-2.475,0-4.5-2.025-4.5-4.5v0c0-2.475,2.025-4.5,4.5-4.5h0 c2.475,0,4.5,2.025,4.5,4.5v0C25.5,28.975,23.475,31,21,31z M28.5,21.5L28.5,21.5c0-2.475-2.025-4.5-4.5-4.5h0 c-2.475,0-4.5,2.025-4.5,4.5v0c0,2.475,2.025,4.5,4.5,4.5h0C26.475,26,28.5,23.975,28.5,21.5z M31.5,26.5L31.5,26.5 c0-2.475-2.025-4.5-4.5-4.5h0c-2.475,0-4.5,2.025-4.5,4.5v0c0,2.475,2.025,4.5,4.5,4.5h0C29.475,31,31.5,28.975,31.5,26.5z"/></svg>