<?xml version="1.0" encoding="iso-8859-1"?>
<!-- Generator: Adobe Illustrator 24.3.0, SVG Export Plug-In . SVG Version: 6.00 Build 0)  -->
<svg version="1.1" id="Layer_1" xmlns="http://www.w3.org/2000/svg" xmlns:xlink="http://www.w3.org/1999/xlink" x="0px" y="0px"
	 viewBox="0 0 32 32" style="enable-background:new 0 0 32 32;" xml:space="preserve">
<path id="cloudy--dewy_1_" d="M16.999,30.86c-1.852,0-3.359-1.507-3.359-3.359c0-0.591,0.155-1.172,0.45-1.681
	c0.007-0.012,0.014-0.022,0.022-0.034l2.597-3.501c0.136-0.182,0.442-0.182,0.579,0l2.598,3.501
	c0.318,0.547,0.475,1.127,0.475,1.715C20.36,29.354,18.853,30.86,16.999,30.86z M14.703,26.198
	c-0.225,0.396-0.343,0.845-0.343,1.303c0,1.455,1.184,2.639,2.639,2.639c1.456,0,2.641-1.184,2.641-2.639
	c0-0.461-0.122-0.918-0.354-1.32l-2.287-3.077L14.703,26.198z M25.999,22.86c-1.853,0-3.359-1.507-3.359-3.359
	c0-0.59,0.156-1.171,0.45-1.68c0.007-0.013,0.015-0.023,0.022-0.035l2.598-3.5c0.135-0.184,0.443-0.184,0.578,0l2.598,3.5
	c0.318,0.547,0.475,1.127,0.475,1.715C29.36,21.354,27.853,22.86,25.999,22.86z M23.703,18.198
	c-0.225,0.396-0.343,0.846-0.343,1.303c0,1.455,1.184,2.639,2.639,2.639c1.456,0,2.641-1.184,2.641-2.639
	c0-0.461-0.122-0.918-0.354-1.32L26,15.104L23.703,18.198z M14.999,17.86c-1.852,0-3.359-1.507-3.359-3.359
	c0-0.591,0.155-1.172,0.45-1.68l2.62-3.535c0.136-0.184,0.442-0.184,0.578,0l2.598,3.501c0.318,0.546,0.475,1.127,0.475,1.714
	C18.36,16.353,16.852,17.86,14.999,17.86z M14.999,10.104l-2.308,3.111c-0.208,0.365-0.331,0.821-0.331,1.286
	c0,1.455,1.184,2.639,2.639,2.639c1.456,0,2.641-1.184,2.641-2.639c0-0.461-0.122-0.917-0.354-1.32L14.999,10.104z M9,17.86H5.631
	c-2.894-0.038-4.991-2.015-4.991-4.702c0-2.767,2.239-5.018,4.991-5.018c0.691,0,1.377,0.145,2.01,0.422
	c0.647-4.138,4.261-7.422,8.286-7.422c3.281,0,6.332,2.085,7.689,5.223c0.599-0.153,1.309-0.223,1.811-0.223
	c3.271,0,5.934,2.662,5.934,5.934H30.64c0-2.875-2.338-5.214-5.213-5.214c-0.636,0-1.419,0.115-1.905,0.28
	c-0.183,0.065-0.38-0.03-0.451-0.21c-1.18-3.032-4.051-5.07-7.144-5.07c-3.829,0-7.253,3.269-7.634,7.287
	C8.281,9.269,8.209,9.376,8.101,9.432C7.992,9.489,7.862,9.485,7.756,9.425C7.108,9.056,6.373,8.86,5.631,8.86
	c-2.355,0-4.271,1.928-4.271,4.298c0,2.275,1.798,3.95,4.276,3.981H9V17.86z"/>
<rect id="_Transparent_Rectangle" style="fill:none;" width="32" height="32"/>
</svg>
