<?xml version="1.0" encoding="iso-8859-1"?>
<!-- Generator: Adobe Illustrator 24.3.0, SVG Export Plug-In . SVG Version: 6.00 Build 0)  -->
<svg version="1.1" id="Layer_1" xmlns="http://www.w3.org/2000/svg" xmlns:xlink="http://www.w3.org/1999/xlink" x="0px" y="0px"
	 viewBox="0 0 32 32" style="enable-background:new 0 0 32 32;" xml:space="preserve">
<path id="cloud-pak--for-automation_1_" d="M16,31.36c-0.059,0-0.117-0.015-0.171-0.043l-13-7C2.713,24.254,2.64,24.133,2.64,24V8
	c0-0.132,0.073-0.254,0.189-0.317l13-7c0.107-0.058,0.234-0.058,0.342,0l13,7C29.287,7.746,29.36,7.868,29.36,8v16
	c0,0.133-0.073,0.254-0.189,0.317l-13,7C16.117,31.346,16.059,31.36,16,31.36z M3.36,23.785L16,30.591l12.64-6.806V8.215L16,1.409
	L3.36,8.215V23.785z M16,25.36c-5.161,0-9.36-4.199-9.36-9.36S10.839,6.64,16,6.64s9.36,4.199,9.36,9.36
	c0,2.501-0.974,4.852-2.741,6.619l-0.51-0.51c1.632-1.632,2.53-3.801,2.53-6.109c0-4.764-3.876-8.64-8.64-8.64
	s-8.64,3.876-8.64,8.64s3.876,8.64,8.64,8.64h3.131l-1.386-1.385l0.51-0.51L20.509,25l-2.254,2.255l-0.51-0.51l1.386-1.385H16z
	 M17,22.36h-2c-0.199,0-0.36-0.161-0.36-0.36v-1.25l-1.073-0.402l-0.897,0.897c-0.141,0.141-0.368,0.141-0.509,0l-1.414-1.414
	c-0.141-0.141-0.141-0.369,0-0.51l0.897-0.896L11.25,17.36H10c-0.199,0-0.36-0.161-0.36-0.36v-2c0-0.199,0.161-0.36,0.36-0.36h1.255
	l0.408-1.03l-0.894-0.894c-0.068-0.067-0.105-0.159-0.105-0.254c0-0.095,0.038-0.187,0.105-0.254l1.415-1.415
	c0.067-0.068,0.159-0.105,0.254-0.105l0,0c0.096,0,0.187,0.038,0.254,0.105l0.892,0.892l1.055-0.428V10
	c0-0.199,0.161-0.36,0.36-0.36h2c0.199,0,0.36,0.161,0.36,0.36v1.261l1.049,0.444l0.889-0.889c0.141-0.141,0.369-0.141,0.51,0
	l1.414,1.414c0.141,0.141,0.141,0.368,0,0.509l-0.892,0.892l0.412,1.009H22c0.199,0,0.36,0.161,0.36,0.36v2
	c0,0.199-0.161,0.36-0.36,0.36h-1.257l-0.437,1.091l0.893,0.893c0.141,0.141,0.141,0.369,0,0.51l-1.414,1.414
	c-0.141,0.141-0.369,0.141-0.51,0l-0.896-0.897l-1.019,0.38V22C17.36,22.199,17.199,22.36,17,22.36z M15.36,21.64h1.28V20.5
	c0-0.15,0.093-0.285,0.234-0.337l1.47-0.548c0.132-0.051,0.281-0.017,0.381,0.082l0.806,0.807l0.905-0.905l-0.807-0.806
	c-0.102-0.103-0.133-0.255-0.079-0.389l0.616-1.538c0.055-0.137,0.187-0.226,0.334-0.226h1.14v-1.28H20.5
	c-0.146,0-0.278-0.088-0.333-0.224l-0.594-1.455c-0.055-0.134-0.024-0.288,0.078-0.391l0.807-0.807l-0.905-0.905l-0.806,0.806
	c-0.104,0.103-0.258,0.133-0.396,0.077l-1.492-0.631c-0.133-0.056-0.22-0.187-0.22-0.332v-1.14h-1.28v1.14
	c0,0.146-0.089,0.278-0.225,0.333l-1.501,0.609c-0.135,0.054-0.288,0.022-0.39-0.079l-0.806-0.806l-0.905,0.905l0.806,0.806
	c0.102,0.101,0.133,0.253,0.08,0.387l-0.585,1.477c-0.053,0.14-0.186,0.23-0.333,0.23h-1.14v1.28h1.14
	c0.15,0,0.285,0.093,0.337,0.234l0.562,1.516c0.049,0.132,0.017,0.28-0.083,0.38l-0.806,0.806l0.905,0.905l0.806-0.807
	c0.099-0.1,0.249-0.132,0.38-0.082l1.523,0.57c0.141,0.053,0.234,0.187,0.234,0.337v1.141H15.36z M16,18.36
	c-1.301,0-2.36-1.059-2.36-2.36s1.059-2.36,2.36-2.36c1.302,0,2.36,1.059,2.36,2.36C18.36,17.302,17.302,18.36,16,18.36z M16,14.36
	c-0.904,0-1.64,0.736-1.64,1.64c0,0.904,0.736,1.64,1.64,1.64c0.904,0,1.64-0.735,1.64-1.64S16.904,14.36,16,14.36z"/>
<rect id="_Transparent_Rectangle" style="fill:none;" width="32" height="32"/>
</svg>
