<?xml version="1.0" encoding="iso-8859-1"?>
<!-- Generator: Adobe Illustrator 22.0.0, SVG Export Plug-In . SVG Version: 6.00 Build 0)  -->
<svg version="1.1" xmlns="http://www.w3.org/2000/svg" xmlns:xlink="http://www.w3.org/1999/xlink" x="0px" y="0px"
	 viewBox="0 0 48 48" style="enable-background:new 0 0 48 48;" xml:space="preserve">
<g id="cloudy_hazy">
	<g id="cloudy_hazy_1_">
		<path style="fill:none;stroke:#000000;stroke-width:0.72;stroke-linejoin:round;stroke-miterlimit:10;" d="M17,28h15 M22,24h14
			 M22,32h14 M20,36h12 M9,32h7"/>
		<path style="fill:none;stroke:#000000;stroke-width:0.72;stroke-linejoin:round;stroke-miterlimit:10;" d="M13.631,28
			C11.058,27.967,9,26.231,9,23.658C9,21.086,11.058,19,13.631,19c0.839,0,1.624,0.225,2.303,0.613C16.32,15.537,19.75,12,23.927,12
			c3.408,0,6.313,2.304,7.479,5.299C31.969,17.108,32.799,17,33.426,17C36.504,17,39,19.495,39,22.574"/>
	</g>
</g>
<g id="Layer_1">
</g>
</svg>
