<?xml version="1.0" encoding="iso-8859-1"?>
<!-- Generator: Adobe Illustrator 24.1.2, SVG Export Plug-In . SVG Version: 6.00 Build 0)  -->
<svg version="1.1" id="Layer_1" xmlns="http://www.w3.org/2000/svg" xmlns:xlink="http://www.w3.org/1999/xlink" x="0px" y="0px"
	 viewBox="0 0 32 32" style="enable-background:new 0 0 32 32;" xml:space="preserve">
<path id="cloud--partners_1_" d="M16,31.36c-0.764,0-1.482-0.298-2.022-0.838l0,0c-1.115-1.115-1.115-2.93,0-4.045
	c1.08-1.08,2.964-1.08,4.044,0c1.114,1.115,1.114,2.93,0,4.045C17.482,31.062,16.764,31.36,16,31.36z M16,26.36
	c-0.572,0-1.109,0.223-1.513,0.627c-0.834,0.834-0.834,2.191,0,3.025l0,0c0.809,0.809,2.217,0.809,3.026,0
	c0.404-0.404,0.627-0.941,0.627-1.513s-0.223-1.108-0.627-1.513S16.572,26.36,16,26.36z M24.839,27.714
	c-1.577,0-2.86-1.283-2.86-2.86s1.283-2.86,2.86-2.86s2.86,1.283,2.86,2.86S26.416,27.714,24.839,27.714z M24.839,22.714
	c-1.18,0-2.14,0.96-2.14,2.14s0.96,2.14,2.14,2.14s2.14-0.96,2.14-2.14S26.019,22.714,24.839,22.714z M7.161,27.714
	c-1.577,0-2.86-1.283-2.86-2.86s1.283-2.86,2.86-2.86s2.86,1.283,2.86,2.86S8.738,27.714,7.161,27.714z M7.161,22.714
	c-1.18,0-2.14,0.96-2.14,2.14s0.96,2.14,2.14,2.14s2.14-0.96,2.14-2.14S8.341,22.714,7.161,22.714z M10,19.36
	c-5.161,0-9.36-4.199-9.36-9.36S4.839,0.64,10,0.64s9.36,4.199,9.36,9.36S15.161,19.36,10,19.36z M9.306,18.612
	C9.535,18.631,9.767,18.64,10,18.64c2.53,0,4.811-1.094,6.392-2.833V9.19h0.72v5.711c0.963-1.394,1.527-3.083,1.527-4.901
	c0-0.916-0.143-1.799-0.408-2.628l-5.737-3.313l0.36-0.623l4.949,2.858c-1.134-2.38-3.326-4.163-5.964-4.737L6.103,4.869
	l-0.36-0.623l4.951-2.858C10.464,1.369,10.233,1.36,10,1.36c-2.53,0-4.811,1.094-6.392,2.833v6.617h-0.72V5.099
	C1.925,6.492,1.36,8.182,1.36,10c0,0.916,0.144,1.799,0.409,2.628l5.737,3.312l-0.36,0.623l-4.949-2.857
	c1.134,2.379,3.326,4.162,5.964,4.736l5.737-3.312l0.36,0.624L9.306,18.612z M28.5,18.858c-0.732,0-1.465-0.278-2.022-0.836
	c-0.54-0.54-0.838-1.258-0.838-2.022s0.298-1.482,0.838-2.022c1.115-1.115,2.93-1.115,4.045,0c0.54,0.54,0.838,1.258,0.838,2.022
	c0,0.764-0.298,1.482-0.838,2.022l0,0C29.965,18.58,29.232,18.858,28.5,18.858z M28.5,13.861c-0.548,0-1.096,0.208-1.513,0.625
	C26.583,14.891,26.36,15.428,26.36,16c0,0.572,0.223,1.108,0.627,1.513c0.809,0.809,2.217,0.809,3.025,0l0,0
	c0.404-0.404,0.627-0.941,0.627-1.513s-0.223-1.109-0.627-1.513C29.596,14.07,29.048,13.861,28.5,13.861z M24.5,9.86
	c-1.577,0-2.86-1.283-2.86-2.86s1.283-2.86,2.86-2.86S27.36,5.423,27.36,7S26.077,9.86,24.5,9.86z M24.5,4.86
	c-1.18,0-2.14,0.96-2.14,2.14s0.96,2.14,2.14,2.14S26.64,8.18,26.64,7S25.68,4.86,24.5,4.86z"/>
<rect id="_Transparent_Rectangle" style="fill:none;" width="32" height="32"/>
</svg>
