<svg xmlns="http://www.w3.org/2000/svg" viewBox="0 0 48 48"><path fill="none" stroke-linejoin="round" stroke-miterlimit="10" stroke-width=".72" d="M22.5,25.5H18v-3h4.5l0-4.5h3l0,4.5H30v3h-4.5l0,4.5h-3L22.5,25.5z M12,14.992v13 M24,9C15.716,9,9,15.716,9,24s6.716,15,15,15 s15-6.716,15-15S32.284,9,24,9z M10.199,29.888l11.258,6.5 M22.199,38.896l11.258-6.5 M36,20.008v13 M37.801,18.112l-11.258-6.5 M14.543,15.604l11.258-6.5 M24,9C15.716,9,9,15.716,9,24s6.716,15,15,15s15-6.716,15-15S32.284,9,24,9z"/></svg>