<?xml version="1.0" encoding="iso-8859-1"?>
<!-- Generator: Adobe Illustrator 24.1.2, SVG Export Plug-In . SVG Version: 6.00 Build 0)  -->
<svg version="1.1" id="Layer_1" xmlns="http://www.w3.org/2000/svg" xmlns:xlink="http://www.w3.org/1999/xlink" x="0px" y="0px"
	 viewBox="0 0 32 32" style="enable-background:new 0 0 32 32;" xml:space="preserve">
<path id="cloud--storage_1_" d="M29.8,31.36h-5.6c-0.309,0-0.561-0.252-0.561-0.561v-4.4c0-0.309,0.252-0.561,0.561-0.561h1.7
	c0.176,0,0.343,0.084,0.448,0.226l0.239,0.375H29.8c0.309,0,0.561,0.252,0.561,0.561v3.8C30.36,31.108,30.108,31.36,29.8,31.36z
	 M24.36,30.64h5.279v-3.48H26.5c-0.174,0-0.34-0.083-0.446-0.222l-0.242-0.379H24.36V30.64z M18.8,31.36h-5.6
	c-0.309,0-0.56-0.252-0.56-0.561v-4.4c0-0.309,0.251-0.561,0.56-0.561h1.7c0.175,0,0.342,0.084,0.447,0.224l0.241,0.377H18.8
	c0.309,0,0.561,0.252,0.561,0.561v3.8C19.36,31.108,19.108,31.36,18.8,31.36z M13.36,30.64h5.28v-3.48H15.5
	c-0.173,0-0.34-0.083-0.446-0.222l-0.242-0.379H13.36V30.64z M7.8,31.36H2.2c-0.309,0-0.56-0.252-0.56-0.561v-4.4
	c0-0.309,0.251-0.561,0.56-0.561h1.7c0.175,0,0.342,0.084,0.447,0.224l0.241,0.377H7.8c0.309,0,0.56,0.252,0.56,0.561v3.8
	C8.36,31.108,8.109,31.36,7.8,31.36z M2.36,30.64h5.28v-3.48H4.5c-0.173,0-0.34-0.083-0.446-0.222L3.812,26.56H2.36V30.64z
	 M28.917,28.36H28v-0.72h0.917V28.36z M17.917,28.36H17v-0.72h0.917V28.36z M6.917,28.36H6v-0.72h0.917V28.36z M27.36,25h-0.72
	v-4.14h-8.814c-0.146,0.737-0.728,1.319-1.465,1.465V25h-0.72v-2.675c-0.738-0.146-1.32-0.728-1.465-1.465H5.36V25H4.64v-4.5
	c0-0.199,0.161-0.36,0.36-0.36h9.175c0.146-0.737,0.728-1.319,1.465-1.465V17.36H9c-0.199,0-0.36-0.161-0.36-0.36V9
	c0-0.199,0.161-0.36,0.36-0.36h0.031C8.786,8.325,8.64,7.929,8.64,7.5c0-0.904,0.648-1.66,1.505-1.826
	C10.142,5.616,10.14,5.558,10.14,5.5c0-1.577,1.283-2.86,2.86-2.86c0.296,0,0.59,0.048,0.877,0.145
	C14.373,1.503,15.604,0.64,17,0.64c1.379,0,2.608,0.855,3.111,2.123C20.402,2.681,20.7,2.64,21,2.64c1.853,0,3.36,1.507,3.36,3.36
	c0,1.07-0.503,2.024-1.284,2.64H24c0.199,0,0.36,0.161,0.36,0.36v8c0,0.199-0.161,0.36-0.36,0.36h-7.64v1.314
	c0.738,0.146,1.32,0.728,1.465,1.465H27c0.199,0,0.36,0.161,0.36,0.36V25z M16,19.36c-0.628,0-1.14,0.511-1.14,1.14
	s0.512,1.14,1.14,1.14s1.14-0.511,1.14-1.14S16.628,19.36,16,19.36z M9.36,16.64h14.28v-3.28H9.36V16.64z M9.36,12.64h14.28V9.36
	H9.36V12.64z M10.5,8.64H21c1.456,0,2.64-1.185,2.64-2.64S22.456,3.36,21,3.36c-0.332,0-0.662,0.065-0.98,0.194
	c-0.094,0.037-0.203,0.034-0.295-0.012s-0.16-0.129-0.188-0.228C19.226,2.164,18.183,1.36,17,1.36c-1.204,0-2.252,0.82-2.55,1.994
	c-0.027,0.105-0.1,0.193-0.198,0.238c-0.098,0.046-0.212,0.045-0.31-0.004C13.635,3.437,13.318,3.36,13,3.36
	c-1.18,0-2.14,0.96-2.14,2.14c0,0.146,0.015,0.292,0.044,0.432c0.022,0.107-0.006,0.22-0.077,0.304s-0.197,0.125-0.286,0.128
	c-0.003,0-0.006,0-0.009,0c-0.666,0-1.172,0.51-1.172,1.135C9.36,8.128,9.872,8.64,10.5,8.64z M22,15.36h-1.917v-0.72H22V15.36z
	 M17,15.36h-6v-0.72h6V15.36z M22,11.36h-1.917v-0.72H22V11.36z M17,11.36h-6v-0.72h6V11.36z"/>
<rect id="_Transparent_Rectangle" style="fill:none;" width="32" height="32"/>
</svg>
