<?xml version="1.0" encoding="iso-8859-1"?>
<!-- Generator: Adobe Illustrator 22.0.0, SVG Export Plug-In . SVG Version: 6.00 Build 0)  -->
<svg version="1.1" xmlns="http://www.w3.org/2000/svg" xmlns:xlink="http://www.w3.org/1999/xlink" x="0px" y="0px"
	 viewBox="0 0 48 48" style="enable-background:new 0 0 48 48;" xml:space="preserve">
<g id="cloud_storage">
	<path id="cloud_storage_1_" style="fill:none;stroke:#000000;stroke-width:0.72;stroke-linejoin:round;stroke-miterlimit:10;" d="
		M32,14c0,1.657-1.343,3-3,3H18.5c-0.828,0-1.5-0.672-1.5-1.5s0.672-1.5,1.5-1.5c0.018,0,0.034,0.004,0.051,0.005
		C18.518,13.842,18.5,13.673,18.5,13.5c0-1.381,1.119-2.5,2.5-2.5c0.397,0,0.768,0.101,1.101,0.266C22.43,9.966,23.598,9,25,9
		c1.385,0,2.539,0.944,2.884,2.22C28.23,11.081,28.605,11,29,11C30.657,11,32,12.343,32,14z M10,34.4l0,4.4c0,0.11,0.09,0.2,0.2,0.2
		l5.6,0c0.11,0,0.2-0.09,0.2-0.2l0-3.8c0-0.11-0.09-0.2-0.2-0.2h-3.3c-0.063,0-0.122-0.03-0.16-0.08l-0.28-0.44
		c-0.038-0.05-0.097-0.08-0.16-0.08h-1.7C10.09,34.2,10,34.289,10,34.4z M21,34.4l0,4.4c0,0.11,0.09,0.2,0.2,0.2l5.6,0
		c0.11,0,0.2-0.09,0.2-0.2l0-3.8c0-0.11-0.09-0.2-0.2-0.2h-3.3c-0.063,0-0.122-0.03-0.16-0.08l-0.28-0.44
		c-0.038-0.05-0.097-0.08-0.16-0.08h-1.7C21.09,34.2,21,34.289,21,34.4z M32,34.4l0,4.4c0,0.11,0.09,0.2,0.2,0.2l5.6,0
		c0.11,0,0.2-0.09,0.2-0.2l0-3.8c0-0.11-0.09-0.2-0.2-0.2h-3.3c-0.063,0-0.122-0.03-0.16-0.08l-0.28-0.44
		c-0.038-0.05-0.097-0.08-0.16-0.08h-1.7C32.09,34.2,32,34.289,32,34.4z M32,21H17v4h15V21z M19,23h6 M28.083,23H30 M32,17H17v4h15
		V17z M19,19h6 M28.083,19H30 M36,36h0.917 M25,36h0.917 M14,36h0.917 M25.5,28.5c0-0.828-0.672-1.5-1.5-1.5s-1.5,0.672-1.5,1.5
		S23.172,30,24,30S25.5,29.328,25.5,28.5z M24,30v3 M24,27v-2 M13,33v-4.5h9.5 M25.5,28.5H35l0,4.5"/>
</g>
<g id="Layer_1">
</g>
</svg>
