<svg xmlns="http://www.w3.org/2000/svg" viewBox="0 0 48 48"><path fill="none" stroke-linecap="round" stroke-linejoin="round" stroke-miterlimit="10" stroke-width=".72" d="M29.5,29h-11v-9h11V29z M21.5,19v2 M26.5,19v2"/><path fill="none" stroke-linejoin="round" stroke-miterlimit="10" stroke-width=".72" d="M12,14.992v13 M39,24c0,8.284-6.716,15-15,15S9,32.284,9,24S15.716,9,24,9S39,15.716,39,24z M10.199,29.888l11.258,6.5 M22.199,38.896l11.258-6.5 M36,20.008v13 M37.801,18.112l-11.258-6.5 M14.543,15.604l11.258-6.5 M39,24c0,8.284-6.716,15-15,15 S9,32.284,9,24S15.716,9,24,9S39,15.716,39,24z"/></svg>