<?xml version="1.0" encoding="iso-8859-1"?>
<!-- Generator: Adobe Illustrator 26.3.1, SVG Export Plug-In . SVG Version: 6.00 Build 0)  -->
<svg version="1.1" id="Layer_1" xmlns="http://www.w3.org/2000/svg" xmlns:xlink="http://www.w3.org/1999/xlink" x="0px" y="0px"
	 viewBox="0 0 32 32" style="enable-background:new 0 0 32 32;" xml:space="preserve">
<path id="cloud--platform_00000067218107696140442890000004976526463505339550_" style="fill:#231F20;" d="M19.64,16
	c0,0.75,0.61,1.36,1.36,1.36s1.36-0.61,1.36-1.36c0-0.668-0.485-1.222-1.122-1.336c-0.608-2.353-2.715-4.024-5.204-4.024
	c-2.975,0-5.395,2.404-5.395,5.36c0,2.955,2.42,5.36,5.395,5.36c1.441,0,2.795-0.558,3.814-1.569l-0.508-0.512
	c-0.883,0.878-2.057,1.36-3.306,1.36c-2.578,0-4.675-2.081-4.675-4.64s2.097-4.64,4.675-4.64c2.118,0,3.918,1.396,4.48,3.374
	C20.004,14.93,19.64,15.421,19.64,16z M21,15.36c0.353,0,0.64,0.287,0.64,0.64s-0.287,0.64-0.64,0.64s-0.64-0.287-0.64-0.64
	S20.647,15.36,21,15.36z M14.64,16c0,0.75,0.61,1.36,1.36,1.36s1.36-0.61,1.36-1.36s-0.61-1.36-1.36-1.36S14.64,15.25,14.64,16z
	 M16.64,16c0,0.353-0.287,0.64-0.64,0.64s-0.64-0.287-0.64-0.64s0.287-0.64,0.64-0.64C16.353,15.36,16.64,15.647,16.64,16z
	 M16.36,28.694V23h-0.72v5.694c-0.575,0.159-1,0.681-1,1.306c0,0.75,0.61,1.36,1.36,1.36s1.36-0.61,1.36-1.36
	C17.36,29.375,16.935,28.853,16.36,28.694z M16,30.64c-0.353,0-0.64-0.287-0.64-0.64s0.287-0.64,0.64-0.64s0.64,0.287,0.64,0.64
	S16.353,30.64,16,30.64z M6,7.359c0.185,0,0.367-0.043,0.539-0.118l4.212,4.019l0.497-0.521l-4.16-3.968
	c0.373-0.53,0.347-1.258-0.127-1.732c-0.53-0.53-1.393-0.53-1.923,0s-0.53,1.393,0,1.923C5.304,7.227,5.652,7.359,6,7.359z
	 M5.547,5.547C5.672,5.423,5.836,5.36,6,5.36s0.328,0.062,0.453,0.187c0.25,0.25,0.25,0.656,0,0.905
	c-0.25,0.249-0.655,0.249-0.905,0C5.298,6.203,5.298,5.797,5.547,5.547z M30,14.64c-0.625,0-1.147,0.425-1.306,1H24v0.72h4.694
	c0.159,0.575,0.681,1,1.306,1c0.75,0,1.36-0.61,1.36-1.36S30.75,14.64,30,14.64z M30,16.64c-0.353,0-0.64-0.287-0.64-0.64
	s0.287-0.64,0.64-0.64s0.64,0.287,0.64,0.64C30.64,16.353,30.353,16.64,30,16.64z M15.64,3.305V9h0.72V3.305
	c0.575-0.159,1-0.681,1-1.305c0-0.75-0.61-1.36-1.36-1.36S14.64,1.25,14.64,2C14.64,2.625,15.065,3.146,15.64,3.305z M16,1.36
	c0.353,0,0.64,0.287,0.64,0.64S16.353,2.64,16,2.64S15.36,2.353,15.36,2S15.647,1.36,16,1.36z M25.345,24.835l-4.09-4.09l-0.51,0.51
	l4.09,4.09c-0.29,0.518-0.237,1.177,0.203,1.617c0.266,0.265,0.613,0.397,0.962,0.397s0.696-0.133,0.962-0.397
	c0.53-0.53,0.53-1.394,0-1.924C26.521,24.599,25.863,24.546,25.345,24.835z M26.452,26.452c-0.248,0.25-0.656,0.25-0.904,0
	c-0.25-0.249-0.25-0.655,0-0.904c0.124-0.125,0.288-0.188,0.452-0.188s0.328,0.062,0.452,0.188
	C26.702,25.797,26.702,26.203,26.452,26.452z M21.255,11.254l4.09-4.09C25.55,7.28,25.77,7.359,26,7.359
	c0.349,0,0.696-0.133,0.962-0.398c0.53-0.53,0.53-1.393,0-1.923c-0.531-0.53-1.393-0.53-1.924,0c-0.44,0.44-0.493,1.099-0.203,1.617
	l-4.09,4.09L21.255,11.254z M25.548,5.547C25.672,5.423,25.836,5.36,26,5.36s0.328,0.062,0.452,0.187c0.25,0.25,0.25,0.656,0,0.905
	c-0.248,0.249-0.656,0.249-0.904,0C25.298,6.203,25.298,5.797,25.548,5.547z M10.746,20.745l-4.09,4.09
	c-0.518-0.29-1.177-0.237-1.617,0.203c-0.53,0.53-0.53,1.394,0,1.924C5.304,27.227,5.652,27.359,6,27.359s0.696-0.133,0.961-0.397
	c0.44-0.44,0.493-1.099,0.203-1.617l4.09-4.09L10.746,20.745z M6.453,26.452c-0.25,0.25-0.655,0.25-0.905,0
	c-0.25-0.249-0.25-0.655,0-0.904C5.672,25.423,5.836,25.36,6,25.36s0.328,0.062,0.453,0.188C6.702,25.797,6.702,26.203,6.453,26.452
	z M9,16.36v-0.72H3.305c-0.159-0.575-0.681-1-1.305-1c-0.75,0-1.36,0.61-1.36,1.36S1.25,17.36,2,17.36c0.625,0,1.147-0.426,1.305-1
	H9z M2,16.64c-0.353,0-0.64-0.287-0.64-0.64S1.647,15.36,2,15.36S2.64,15.647,2.64,16C2.64,16.353,2.353,16.64,2,16.64z"/>
<rect id="_Transparent_Rectangle" style="fill:none;" width="32" height="32"/>
</svg>
