<?xml version="1.0" encoding="iso-8859-1"?>
<!-- Generator: Adobe Illustrator 22.0.0, SVG Export Plug-In . SVG Version: 6.00 Build 0)  -->
<svg version="1.1" xmlns="http://www.w3.org/2000/svg" xmlns:xlink="http://www.w3.org/1999/xlink" x="0px" y="0px"
	 viewBox="0 0 48 48" style="enable-background:new 0 0 48 48;" xml:space="preserve">
<g id="cloud_partners">
	<path id="cloud_partners_1_" style="fill:none;stroke:#000000;stroke-width:0.72;stroke-linejoin:round;stroke-miterlimit:10;" d="
		M15.161,30.353c1.381,0,2.5,1.119,2.5,2.5c0,1.381-1.119,2.5-2.5,2.5s-2.5-1.119-2.5-2.5C12.661,31.473,13.78,30.353,15.161,30.353
		z M22.232,38.268c0.976,0.976,2.559,0.976,3.536,0s0.976-2.559,0-3.536s-2.559-0.976-3.536,0S21.256,37.291,22.232,38.268z
		 M32.839,35.353c1.381,0,2.5-1.119,2.5-2.5c0-1.381-1.119-2.5-2.5-2.5c-1.381,0-2.5,1.119-2.5,2.5
		C30.339,34.234,31.458,35.353,32.839,35.353z M38.268,25.782c0.976-0.976,0.976-2.559,0-3.536s-2.559-0.976-3.536,0
		s-0.976,2.559,0,3.536S37.291,26.759,38.268,25.782z M11.248,18.81v-6.749 M18,9c-4.971,0-9,4.029-9,9s4.029,9,9,9s9-4.029,9-9
		S22.971,9,18,9z M9.481,20.878l5.844,3.374 M22.077,23.442l-5.844,3.374 M24.752,17.19v6.749 M26.519,15.122l-5.844-3.374
		 M19.767,9.183l-5.844,3.374 M32.5,17.5c1.381,0,2.5-1.119,2.5-2.5s-1.119-2.5-2.5-2.5c-1.381,0-2.5,1.119-2.5,2.5
		S31.119,17.5,32.5,17.5z"/>
</g>
<g id="Layer_1">
</g>
</svg>
