<?xml version="1.0" encoding="iso-8859-1"?>
<!-- Generator: Adobe Illustrator 27.5.0, SVG Export Plug-In . SVG Version: 6.00 Build 0)  -->
<svg version="1.1" id="Layer_1" xmlns="http://www.w3.org/2000/svg" xmlns:xlink="http://www.w3.org/1999/xlink" x="0px" y="0px"
	 viewBox="0 0 32 32" style="enable-background:new 0 0 32 32;" xml:space="preserve">
<path id="cloud-pak--for-business-automation_00000083794963914506709100000007933129779073174404_" d="M16,31.36
	c-0.059,0-0.117-0.015-0.171-0.043l-13-7C2.713,24.254,2.64,24.133,2.64,24V8c0-0.132,0.073-0.254,0.189-0.317l13-7
	c0.107-0.058,0.234-0.058,0.342,0l13,7C29.287,7.746,29.36,7.868,29.36,8v16c0,0.133-0.073,0.254-0.189,0.317l-13,7
	C16.117,31.346,16.059,31.36,16,31.36z M3.36,23.785L16,30.591l12.64-6.806V8.215L16,1.409L3.36,8.215V23.785z M19,26.36
	c-0.625,0-1.153-0.425-1.312-1H16c-5.161,0-9.36-4.199-9.36-9.36S10.839,6.64,16,6.64s9.36,4.199,9.36,9.36
	c0,2.499-0.974,4.85-2.741,6.619l-0.51-0.51c1.632-1.632,2.53-3.802,2.53-6.109c0-4.764-3.876-8.64-8.64-8.64s-8.64,3.876-8.64,8.64
	s3.876,8.64,8.64,8.64h1.688c0.158-0.575,0.687-1,1.312-1c0.75,0,1.36,0.61,1.36,1.36S19.75,26.36,19,26.36z M19,24.36
	c-0.353,0-0.64,0.287-0.64,0.64s0.287,0.64,0.64,0.64s0.64-0.287,0.64-0.64S19.353,24.36,19,24.36z M17.183,22.36h-2.365
	c-0.199,0-0.36-0.161-0.36-0.36v-1.31l-0.681-0.284l-0.928,0.928c-0.067,0.067-0.159,0.105-0.254,0.105l0,0
	c-0.096,0-0.187-0.038-0.254-0.105l-1.672-1.673c-0.141-0.141-0.141-0.369,0-0.51l0.926-0.926l-0.28-0.683H10
	c-0.199,0-0.36-0.161-0.36-0.36v-2.366c0-0.199,0.161-0.36,0.36-0.36h1.309l0.285-0.681l-0.927-0.928
	c-0.141-0.141-0.141-0.368,0-0.509l1.672-1.673c0.135-0.136,0.374-0.136,0.509,0l0.926,0.926l0.684-0.28V10
	c0-0.199,0.161-0.36,0.36-0.36h2.365c0.199,0,0.36,0.161,0.36,0.36v1.309l0.681,0.285l0.928-0.928c0.141-0.141,0.369-0.141,0.51,0
	l1.673,1.673c0.141,0.141,0.141,0.368,0,0.509l-0.926,0.926l0.28,0.683H22c0.199,0,0.36,0.161,0.36,0.36v2.366
	c0,0.199-0.161,0.36-0.36,0.36h-1.31l-0.284,0.681l0.928,0.928c0.141,0.141,0.141,0.369,0,0.51l-1.673,1.673
	c-0.067,0.067-0.159,0.105-0.255,0.105l0,0c-0.096,0-0.188-0.038-0.255-0.105l-0.925-0.927l-0.684,0.28V22
	C17.543,22.199,17.382,22.36,17.183,22.36z M15.177,21.64h1.646v-1.193c0-0.146,0.088-0.277,0.223-0.333l1.129-0.463
	c0.134-0.057,0.289-0.023,0.392,0.078l0.84,0.842l1.164-1.164l-0.845-0.844c-0.103-0.104-0.134-0.259-0.077-0.394l0.471-1.125
	c0.056-0.134,0.187-0.221,0.332-0.221h1.188v-1.646h-1.192c-0.146,0-0.277-0.088-0.333-0.223l-0.463-1.128
	c-0.055-0.134-0.024-0.289,0.078-0.391l0.841-0.841l-1.164-1.164l-0.844,0.844c-0.104,0.103-0.26,0.135-0.394,0.078l-1.125-0.471
	c-0.134-0.056-0.221-0.187-0.221-0.332V10.36h-1.646v1.193c0,0.146-0.088,0.278-0.223,0.333l-1.128,0.463
	c-0.136,0.054-0.289,0.023-0.391-0.079l-0.841-0.84l-1.164,1.164l0.844,0.844c0.104,0.103,0.134,0.259,0.078,0.394l-0.471,1.125
	c-0.056,0.134-0.187,0.221-0.332,0.221H10.36v1.646h1.194c0.146,0,0.278,0.088,0.333,0.223l0.462,1.128
	c0.055,0.135,0.024,0.288-0.078,0.392l-0.841,0.841l1.164,1.164l0.844-0.845c0.103-0.103,0.258-0.134,0.394-0.077l1.125,0.471
	c0.134,0.056,0.221,0.187,0.221,0.332L15.177,21.64L15.177,21.64z M16,17.86c-1.025,0-1.86-0.835-1.86-1.86s0.834-1.86,1.86-1.86
	s1.86,0.834,1.86,1.86S17.025,17.86,16,17.86z M16,14.86c-0.628,0-1.14,0.512-1.14,1.14s0.512,1.14,1.14,1.14s1.14-0.511,1.14-1.14
	S16.628,14.86,16,14.86z"/>
<rect id="_Transparent_Rectangle" style="fill:none;" width="32" height="32"/>
</svg>
