<svg width="55px" height="55px" viewBox="0 0 55 55" xmlns="http://www.w3.org/2000/svg"><path d="M37.1816675,37.1123753 C37.1907816,37.1123753 37.2657195,37.1164423 37.2748335,37.1164423 L37.2798969,37.1164423 C40.5224783,37.1174591 43.1230245,34.5125399 43.1230245,31.3107873 C43.1230245,28.2635809 40.7493172,25.7135664 37.72041,25.5051322 C37.4986344,25.4898809 37.3244545,25.3119493 37.3123025,25.0892805 C37.102679,21.0466738 33.7831344,17.8805074 29.7547181,17.8805074 C26.831129,17.8805074 24.1394421,19.6039024 22.8948661,22.2718602 C22.795624,22.4853781 22.5465063,22.5829863 22.3308068,22.4924954 C21.4123117,22.1142636 20.4452082,21.9220974 19.4568386,21.9220974 C15.277534,21.9220974 11.8779882,25.3353346 11.8779882,29.5304541 C11.8779882,33.3432749 14.6911959,36.6039992 18.4228987,37.1144088 L37.1816675,37.1123753 Z M37.3204038,38 C37.3092644,38 37.2241998,37.995933 37.2130604,37.9949162 L37.1816675,37.552629 L37.1816675,37.9928827 L18.3631509,37.991866 C14.1403013,37.417401 11,33.7825119 11,29.5304541 C11,24.849327 14.7944886,21.0405733 19.4568386,21.0405733 C20.4239421,21.0405733 21.3728174,21.2052871 22.2832111,21.5306478 C23.739436,18.7650818 26.6285942,17 29.7547181,17 C34.1233928,17 37.7447141,20.335964 38.1599104,24.6642781 C41.4642649,25.0821633 44,27.9311029 44,31.3107873 C44,34.9985475 41.0034983,38 37.3204038,38 Z"></path></svg>
