<?xml version="1.0" encoding="iso-8859-1"?>
<!-- Generator: Adobe Illustrator 24.1.2, SVG Export Plug-In . SVG Version: 6.00 Build 0)  -->
<svg version="1.1" id="Layer_1" xmlns="http://www.w3.org/2000/svg" xmlns:xlink="http://www.w3.org/1999/xlink" x="0px" y="0px"
	 viewBox="0 0 32 32" style="enable-background:new 0 0 32 32;" xml:space="preserve">
<path id="cloudy--partial_1_" d="M25.758,24.36H7.355c-2.601,0-4.716-2.128-4.716-4.742s2.115-4.741,4.716-4.741
	c0.644,0,1.283,0.133,1.874,0.388c0.609-3.812,3.88-6.625,7.81-6.625c3.176,0,5.982,1.84,7.241,4.717
	c0.486-0.134,0.981-0.201,1.478-0.201c3.089,0,5.603,2.513,5.603,5.602S28.847,24.36,25.758,24.36z M7.355,15.597
	c-2.204,0-3.996,1.804-3.996,4.021c0,2.218,1.792,4.021,3.996,4.021h18.402c2.692,0,4.882-2.189,4.882-4.882
	c0-2.692-2.189-4.882-4.882-4.882c-0.527,0-1.056,0.088-1.568,0.263c-0.186,0.065-0.382-0.03-0.452-0.21
	c-1.08-2.775-3.709-4.568-6.698-4.568c-3.731,0-6.809,2.789-7.159,6.487c-0.012,0.122-0.084,0.229-0.192,0.286
	c-0.108,0.058-0.237,0.055-0.344-0.007C8.737,15.78,8.05,15.597,7.355,15.597z M4.421,14.03c-0.199,0-0.36-0.161-0.36-0.36
	c0-3.093,2.516-5.609,5.609-5.609c0.635,0,1.214,0.021,1.878,0.273c0.186,0.07,0.279,0.278,0.208,0.464
	c-0.07,0.185-0.279,0.279-0.464,0.208c-0.502-0.19-0.94-0.225-1.622-0.225c-2.696,0-4.89,2.193-4.89,4.89
	C4.781,13.869,4.62,14.03,4.421,14.03z M2.545,14.03H1c-0.199,0-0.36-0.161-0.36-0.36S0.801,13.31,1,13.31h1.545
	c0.199,0,0.36,0.161,0.36,0.36S2.744,14.03,2.545,14.03z M3.499,10.468c-0.061,0-0.123-0.015-0.18-0.048L1.981,9.647
	C1.81,9.548,1.75,9.328,1.85,9.155c0.099-0.171,0.32-0.232,0.492-0.132L3.68,9.796c0.172,0.1,0.231,0.32,0.132,0.492
	C3.745,10.403,3.624,10.468,3.499,10.468z M13.233,7.859c-0.061,0-0.123-0.015-0.18-0.048c-0.172-0.1-0.231-0.32-0.132-0.492
	l0.772-1.338c0.1-0.172,0.32-0.231,0.492-0.132c0.172,0.1,0.231,0.32,0.132,0.492L13.545,7.68
	C13.479,7.795,13.357,7.859,13.233,7.859z M6.108,7.859c-0.125,0-0.246-0.064-0.312-0.18L5.023,6.342
	C4.924,6.169,4.983,5.949,5.155,5.85c0.171-0.1,0.393-0.04,0.492,0.132L6.42,7.319c0.099,0.172,0.04,0.393-0.132,0.492
	C6.231,7.844,6.169,7.859,6.108,7.859z M9.67,6.905c-0.199,0-0.36-0.161-0.36-0.36V5c0-0.199,0.161-0.36,0.36-0.36
	S10.03,4.801,10.03,5v1.545C10.03,6.744,9.869,6.905,9.67,6.905z"/>
<rect id="_Transparent_Rectangle" style="fill:none;" width="32" height="32"/>
</svg>
