<svg xmlns="http://www.w3.org/2000/svg" viewBox="0 0 48 48"><path fill="none" stroke-linejoin="round" stroke-miterlimit="10" stroke-width=".72" d="M28.648,18.196l-6.5,11.258l-2.797,1.849l0.199-3.349l6.5-11.258L28.648,18.196z M12,14.992v13 M39,24c0,8.284-6.716,15-15,15 S9,32.284,9,24S15.716,9,24,9S39,15.716,39,24z M21.457,36.388l-11.258-6.5 M33.457,32.396l-11.258,6.5 M36,20.008v13 M26.543,11.612l11.258,6.5 M14.543,15.604l11.258-6.5 M39,24c0,8.284-6.716,15-15,15S9,32.284,9,24S15.716,9,24,9S39,15.716,39,24 z"/></svg>