<?xml version="1.0" encoding="iso-8859-1"?>
<!-- Generator: Adobe Illustrator 22.0.0, SVG Export Plug-In . SVG Version: 6.00 Build 0)  -->
<svg version="1.1" xmlns="http://www.w3.org/2000/svg" xmlns:xlink="http://www.w3.org/1999/xlink" x="0px" y="0px"
	 viewBox="0 0 48 48" style="enable-background:new 0 0 48 48;" xml:space="preserve">
<g id="cloud_data_services">
	
		<path id="cloud_data_services_1_" style="fill:none;stroke:#000000;stroke-width:0.72;stroke-linejoin:round;stroke-miterlimit:10;" d="
		M18,21.5c0,0.828-0.672,1.5-1.5,1.5c-0.828,0-1.5-0.672-1.5-1.5s0.672-1.5,1.5-1.5C17.328,20,18,20.672,18,21.5z M16.5,28v-3
		 M21.5,28c0.828,0,1.5-0.672,1.5-1.5S22.328,25,21.5,25S20,25.672,20,26.5S20.672,28,21.5,28z M21.5,20v3 M26.5,20
		c-0.828,0-1.5,0.672-1.5,1.5s0.672,1.5,1.5,1.5s1.5-0.672,1.5-1.5S27.328,20,26.5,20z M26.5,28v-3 M31.5,28
		c0.828,0,1.5-0.672,1.5-1.5S32.328,25,31.5,25S30,25.672,30,26.5S30.672,28,31.5,28z M31.5,20v3 M12,14.992v13 M24,9
		C15.716,9,9,15.716,9,24s6.716,15,15,15s15-6.716,15-15S32.284,9,24,9z M10.199,29.888l11.258,6.5 M22.199,38.896l11.258-6.5
		 M36,20.008v13 M37.801,18.112l-11.258-6.5 M14.543,15.604l11.258-6.5 M24,9C15.716,9,9,15.716,9,24s6.716,15,15,15s15-6.716,15-15
		S32.284,9,24,9z"/>
</g>
<g id="Layer_1">
</g>
</svg>
