<svg xmlns="http://www.w3.org/2000/svg" viewBox="0 0 48 48"><path fill="none" stroke-linecap="round" stroke-linejoin="round" stroke-miterlimit="10" stroke-width=".72" d="M15.46,28.722C11.805,28.223,9,25.047,9,21.255c0-4.138,3.343-7.493,7.482-7.493c1.007,0,1.966,0.202,2.843,0.562 C20.519,11.772,23.103,10,26.107,10c4.005,0,7.267,3.145,7.473,7.099c3.033,0.207,5.42,2.727,5.42,5.813 c0,3.222-2.6,5.817-5.822,5.817c-0.044,0-0.086-0.006-0.13-0.006"/><path fill="none" stroke-miterlimit="10" stroke-width=".72" d="M19,40.229v-19"/><path fill="none" stroke-miterlimit="10" stroke-width=".72" d="M29,40.229v-19"/><line x1="19" x2="29" y1="23.229" y2="23.229" fill="none" stroke-miterlimit="10" stroke-width=".72"/><line x1="19" x2="29" y1="28.229" y2="28.229" fill="none" stroke-miterlimit="10" stroke-width=".72"/><line x1="19" x2="29" y1="33.229" y2="33.229" fill="none" stroke-miterlimit="10" stroke-width=".72"/><line x1="19" x2="29" y1="38.229" y2="38.229" fill="none" stroke-miterlimit="10" stroke-width=".72"/></svg>