<?xml version="1.0" encoding="iso-8859-1"?>
<!-- Generator: Adobe Illustrator 24.3.0, SVG Export Plug-In . SVG Version: 6.00 Build 0)  -->
<svg version="1.1" id="Layer_1" xmlns="http://www.w3.org/2000/svg" xmlns:xlink="http://www.w3.org/1999/xlink" x="0px" y="0px"
	 viewBox="0 0 32 32" style="enable-background:new 0 0 32 32;" xml:space="preserve">
<path id="cloud-pak--for-data_1_" d="M9.5,10c0,0.276-0.224,0.5-0.5,0.5S8.5,10.276,8.5,10S8.724,9.5,9,9.5S9.5,9.724,9.5,10z
	 M17,8.5c-0.276,0-0.5,0.224-0.5,0.5s0.224,0.5,0.5,0.5s0.5-0.224,0.5-0.5S17.276,8.5,17,8.5z M12,7.5c-0.276,0-0.5,0.224-0.5,0.5
	s0.224,0.5,0.5,0.5s0.5-0.224,0.5-0.5S12.276,7.5,12,7.5z M8,19.5c-0.276,0-0.5,0.224-0.5,0.5s0.224,0.5,0.5,0.5s0.5-0.224,0.5-0.5
	S8.276,19.5,8,19.5z M21,11.5c-0.276,0-0.5,0.224-0.5,0.5s0.224,0.5,0.5,0.5s0.5-0.224,0.5-0.5S21.276,11.5,21,11.5z M11,16.5
	c-0.276,0-0.5,0.224-0.5,0.5s0.224,0.5,0.5,0.5s0.5-0.224,0.5-0.5S11.276,16.5,11,16.5z M25,19.5c-0.276,0-0.5,0.224-0.5,0.5
	s0.224,0.5,0.5,0.5s0.5-0.224,0.5-0.5S25.276,19.5,25,19.5z M16,25.5c-0.276,0-0.5,0.224-0.5,0.5s0.224,0.5,0.5,0.5
	c0.276,0,0.5-0.224,0.5-0.5S16.276,25.5,16,25.5z M22,21.5c-0.276,0-0.5,0.224-0.5,0.5s0.224,0.5,0.5,0.5s0.5-0.224,0.5-0.5
	S22.276,21.5,22,21.5z M22,16.5c-0.276,0-0.5,0.224-0.5,0.5s0.224,0.5,0.5,0.5s0.5-0.224,0.5-0.5S22.276,16.5,22,16.5z
	 M16.171,31.317l13-7c0.116-0.063,0.189-0.185,0.189-0.317V8c0-0.132-0.073-0.254-0.189-0.317l-13-7
	c-0.107-0.058-0.234-0.058-0.342,0l-13,7C2.713,7.746,2.64,7.868,2.64,8v16c0,0.133,0.073,0.254,0.189,0.317l13,7
	c0.054,0.028,0.112,0.043,0.171,0.043C16.059,31.36,16.117,31.346,16.171,31.317z M3.36,8.215L16,1.409l12.64,6.806v15.57L16,30.591
	L3.36,23.785V8.215z M25.36,14c0,0.75-0.61,1.36-1.36,1.36c-0.507,0-0.945-0.282-1.179-0.694l-5.055,1.264
	c0.001,0.024,0.008,0.046,0.008,0.071c0,0.359-0.109,0.692-0.293,0.972l0.851,0.85C18.53,17.709,18.756,17.64,19,17.64
	c0.75,0,1.36,0.61,1.36,1.36s-0.61,1.36-1.36,1.36s-1.36-0.61-1.36-1.36c0-0.244,0.07-0.47,0.183-0.668l-0.85-0.851
	c-0.28,0.184-0.613,0.293-0.972,0.293c-0.191,0-0.372-0.038-0.545-0.095l-2.492,4.361c0.245,0.246,0.397,0.585,0.397,0.959
	c0,0.75-0.61,1.36-1.36,1.36s-1.36-0.61-1.36-1.36s0.61-1.36,1.36-1.36c0.117,0,0.228,0.019,0.336,0.047l2.494-4.364
	c-0.367-0.325-0.603-0.795-0.603-1.323c0-0.024,0.006-0.047,0.007-0.07L9.18,14.665C8.945,15.078,8.507,15.36,8,15.36
	c-0.75,0-1.36-0.61-1.36-1.36S7.25,12.64,8,12.64c0.739,0,1.339,0.593,1.357,1.328l5.052,1.263c0.097-0.2,0.24-0.368,0.4-0.518
	l-1.445-2.409C13.247,12.337,13.127,12.36,13,12.36c-0.75,0-1.36-0.61-1.36-1.36S12.25,9.64,13,9.64s1.36,0.61,1.36,1.36
	c0,0.363-0.145,0.692-0.378,0.936l1.439,2.398c0.183-0.065,0.375-0.109,0.58-0.109c0.191,0,0.372,0.038,0.545,0.095l2.492-4.361
	C18.792,9.713,18.64,9.374,18.64,9c0-0.75,0.61-1.36,1.36-1.36S21.36,8.25,21.36,9s-0.61,1.36-1.36,1.36
	c-0.117,0-0.228-0.019-0.336-0.047l-2.493,4.365c0.174,0.155,0.316,0.343,0.421,0.554l5.051-1.263
	C22.66,13.233,23.261,12.64,24,12.64C24.75,12.64,25.36,13.25,25.36,14z M19.36,9c0,0.353,0.287,0.64,0.64,0.64S20.64,9.353,20.64,9
	S20.353,8.36,20,8.36S19.36,8.647,19.36,9z M13.64,11c0-0.353-0.287-0.64-0.64-0.64s-0.64,0.287-0.64,0.64s0.287,0.64,0.64,0.64
	S13.64,11.353,13.64,11z M8.64,14c0-0.353-0.287-0.64-0.64-0.64S7.36,13.647,7.36,14S7.647,14.64,8,14.64
	C8.353,14.64,8.64,14.353,8.64,14z M12.64,23c0-0.353-0.287-0.64-0.64-0.64s-0.64,0.287-0.64,0.64s0.287,0.64,0.64,0.64
	S12.64,23.353,12.64,23z M18.36,19c0,0.353,0.287,0.64,0.64,0.64s0.64-0.287,0.64-0.64s-0.287-0.64-0.64-0.64S18.36,18.647,18.36,19
	z M17.054,16c0-0.581-0.473-1.054-1.054-1.054S14.946,15.419,14.946,16c0,0.581,0.473,1.054,1.054,1.054
	C16.581,17.054,17.054,16.581,17.054,16z M24.64,14c0-0.353-0.287-0.64-0.64-0.64s-0.64,0.287-0.64,0.64s0.287,0.64,0.64,0.64
	S24.64,14.353,24.64,14z"/>
<rect id="_Transparent_Rectangle" style="fill:none;" width="32" height="32"/>
</svg>
