<?xml version="1.0" encoding="iso-8859-1"?>
<!-- Generator: Adobe Illustrator 22.0.0, SVG Export Plug-In . SVG Version: 6.00 Build 0)  -->
<svg version="1.1" xmlns="http://www.w3.org/2000/svg" xmlns:xlink="http://www.w3.org/1999/xlink" x="0px" y="0px"
	 viewBox="0 0 48 48" style="enable-background:new 0 0 48 48;" xml:space="preserve">
<g id="cloudy">
	<path id="cloudy_1_" style="fill:none;stroke:#000000;stroke-width:0.72;stroke-linejoin:round;stroke-miterlimit:10;" d="
		M39,29.758C39,32.653,36.654,35,33.759,35H15.357C12.937,35,11,33.038,11,30.618c0-2.42,1.937-4.381,4.357-4.381
		c0.789,0,1.527,0.211,2.166,0.576C17.886,22.979,21.112,20,25.04,20c3.205,0,5.938,1.98,7.034,4.797
		c0.529-0.18,1.094-0.282,1.684-0.282C36.654,24.515,39,26.862,39,29.758z M37,22.758c0-2.895-2.346-5.242-5.241-5.242
		c-0.59,0-1.155,0.102-1.684,0.282C28.978,14.98,26.246,13,23.04,13c-3.928,0-7.154,2.98-7.517,6.813
		c-0.639-0.365-1.378-0.576-2.166-0.576c-2.42,0-4.357,1.962-4.357,4.381C9,24.497,9.255,25.314,9.696,26"/>
</g>
<g id="Layer_1">
</g>
</svg>
