<?xml version="1.0" encoding="iso-8859-1"?>
<!-- Generator: Adobe Illustrator 25.4.1, SVG Export Plug-In . SVG Version: 6.00 Build 0)  -->
<svg version="1.1" id="Layer_1" xmlns="http://www.w3.org/2000/svg" xmlns:xlink="http://www.w3.org/1999/xlink" x="0px" y="0px"
	 viewBox="0 0 32 32" style="enable-background:new 0 0 32 32;" xml:space="preserve">
<path id="cluster_00000091704412144172495140000017689972279050809786_" d="M20,31.36c-1.302,0-2.36-1.059-2.36-2.36
	c0-0.688,0.296-1.309,0.768-1.74l-1.413-2.119c-0.302,0.141-0.639,0.22-0.994,0.22c-1.301,0-2.36-1.059-2.36-2.36
	c0-0.24,0.036-0.472,0.103-0.689l-1.821-0.941c-0.428,0.6-1.13,0.991-1.921,0.991c-0.521,0-1.003-0.17-1.394-0.457l-1.703,1.702
	C7.19,23.997,7.36,24.479,7.36,25c0,1.302-1.059,2.36-2.36,2.36S2.64,26.302,2.64,25S3.699,22.64,5,22.64
	c0.521,0,1.003,0.17,1.394,0.457l1.703-1.702C7.81,21.003,7.64,20.521,7.64,20c0-1.179,0.869-2.159,2-2.333v-3.334
	c-1.014-0.156-1.817-0.959-1.973-1.973H5.333c-0.174,1.131-1.154,2-2.333,2c-1.301,0-2.36-1.059-2.36-2.36S1.699,9.64,3,9.64
	c1.179,0,2.159,0.869,2.333,2h2.335c0.174-1.131,1.154-2,2.333-2c0.793,0,1.497,0.394,1.925,0.996l1.828-0.914
	C13.68,9.494,13.64,9.251,13.64,9c0-0.688,0.296-1.308,0.767-1.74l-1.414-2.119C12.691,5.281,12.355,5.36,12,5.36
	c-1.301,0-2.36-1.059-2.36-2.36S10.699,0.64,12,0.64S14.36,1.699,14.36,3c0,0.688-0.296,1.309-0.768,1.74l1.414,2.12
	C15.308,6.719,15.645,6.64,16,6.64c1.302,0,2.36,1.059,2.36,2.36c0,0.251-0.04,0.494-0.113,0.721l1.828,0.914
	C20.504,10.033,21.207,9.64,22,9.64c0.521,0,1.003,0.169,1.394,0.457l1.703-1.703C24.81,8.003,24.64,7.521,24.64,7
	c0-1.301,1.059-2.36,2.36-2.36S29.36,5.699,29.36,7S28.302,9.36,27,9.36c-0.521,0-1.003-0.169-1.395-0.457l-1.702,1.703
	C24.19,10.997,24.36,11.479,24.36,12c0,1.179-0.869,2.159-2,2.333v3.334c1.014,0.156,1.816,0.959,1.973,1.973h2.334
	c0.174-1.131,1.154-2,2.333-2c1.302,0,2.36,1.059,2.36,2.36s-1.059,2.36-2.36,2.36c-1.179,0-2.159-0.869-2.333-2h-2.334
	c-0.174,1.131-1.154,2-2.333,2c-0.793,0-1.496-0.394-1.925-0.996l-1.828,0.915c0.073,0.227,0.113,0.47,0.113,0.721
	c0,0.688-0.296,1.309-0.768,1.74l1.413,2.119c0.303-0.141,0.64-0.22,0.994-0.22c1.302,0,2.36,1.059,2.36,2.36S21.302,31.36,20,31.36
	z M20,27.36c-0.904,0-1.64,0.735-1.64,1.64s0.735,1.64,1.64,1.64s1.64-0.735,1.64-1.64S20.904,27.36,20,27.36z M5,23.36
	c-0.904,0-1.64,0.735-1.64,1.64S4.096,26.64,5,26.64S6.64,25.904,6.64,25S5.904,23.36,5,23.36z M16,21.36
	c-0.904,0-1.64,0.735-1.64,1.64s0.736,1.64,1.64,1.64c0.904,0,1.64-0.735,1.64-1.64S16.904,21.36,16,21.36z M12.246,20.727
	l1.811,0.936c0.426-0.617,1.139-1.022,1.943-1.022c0.793,0,1.496,0.394,1.925,0.996l1.828-0.915C19.68,20.494,19.64,20.251,19.64,20
	c0-1.179,0.869-2.159,2-2.333v-3.334c-1.131-0.174-2-1.154-2-2.333c0-0.251,0.04-0.494,0.113-0.721l-1.828-0.914
	C17.496,10.967,16.793,11.36,16,11.36c-0.793,0-1.496-0.393-1.924-0.995l-1.829,0.914c0.073,0.227,0.113,0.47,0.113,0.721
	c0,1.179-0.869,2.159-2,2.333v3.334c1.131,0.174,2,1.154,2,2.333C12.36,20.253,12.32,20.497,12.246,20.727z M29,18.36
	c-0.904,0-1.64,0.735-1.64,1.64s0.735,1.64,1.64,1.64s1.64-0.735,1.64-1.64S29.904,18.36,29,18.36z M22,18.36
	c-0.904,0-1.64,0.735-1.64,1.64s0.735,1.64,1.64,1.64s1.64-0.735,1.64-1.64S22.904,18.36,22,18.36z M10,18.36
	c-0.904,0-1.64,0.735-1.64,1.64s0.736,1.64,1.64,1.64s1.64-0.735,1.64-1.64S10.904,18.36,10,18.36z M22,10.36
	c-0.904,0-1.64,0.736-1.64,1.64s0.735,1.64,1.64,1.64s1.64-0.736,1.64-1.64S22.904,10.36,22,10.36z M10,10.36
	c-0.904,0-1.64,0.736-1.64,1.64s0.736,1.64,1.64,1.64s1.64-0.736,1.64-1.64S10.904,10.36,10,10.36z M3,10.36
	c-0.904,0-1.64,0.736-1.64,1.64S2.096,13.64,3,13.64S4.64,12.904,4.64,12S3.904,10.36,3,10.36z M16,7.36
	c-0.904,0-1.64,0.736-1.64,1.64s0.736,1.64,1.64,1.64c0.904,0,1.64-0.736,1.64-1.64S16.904,7.36,16,7.36z M27,5.36
	c-0.904,0-1.64,0.736-1.64,1.64S26.096,8.64,27,8.64S28.64,7.904,28.64,7S27.904,5.36,27,5.36z M12,1.36
	c-0.904,0-1.64,0.736-1.64,1.64S11.096,4.64,12,4.64S13.64,3.904,13.64,3S12.904,1.36,12,1.36z"/>
<rect id="_Transparent_Rectangle" style="fill:none;" width="32" height="32"/>
</svg>
