<?xml version="1.0" encoding="iso-8859-1"?>
<!-- Generator: Adobe Illustrator 24.1.2, SVG Export Plug-In . SVG Version: 6.00 Build 0)  -->
<svg version="1.1" xmlns="http://www.w3.org/2000/svg" xmlns:xlink="http://www.w3.org/1999/xlink" x="0px" y="0px"
	 viewBox="0 0 48 48" style="enable-background:new 0 0 48 48;" xml:space="preserve">
<g id="code--syntax">
	<g id="code--syntax_1_">
		<path d="M36.831,11.5c0,0.276-0.224,0.5-0.5,0.5s-0.5-0.224-0.5-0.5c0-0.276,0.224-0.5,0.5-0.5S36.831,11.224,36.831,11.5z
			 M34.331,11c-0.276,0-0.5,0.224-0.5,0.5c0,0.276,0.224,0.5,0.5,0.5s0.5-0.224,0.5-0.5C34.831,11.224,34.607,11,34.331,11z
			 M32.331,11c-0.276,0-0.5,0.224-0.5,0.5c0,0.276,0.224,0.5,0.5,0.5s0.5-0.224,0.5-0.5C32.831,11.224,32.607,11,32.331,11z"/>
		<path style="fill:none;stroke:#000000;stroke-width:0.72;stroke-linejoin:round;stroke-miterlimit:10;" d="M38.831,38h-30V10h30
			V38z M8.831,13h30 M29,29l4-4l-4-4 M19,21l-4,4l4,4 M21,32l6-14"/>
	</g>
</g>
<g id="Layer_1">
</g>
</svg>
