<?xml version="1.0" encoding="iso-8859-1"?>
<!-- Generator: Adobe Illustrator 29.1.0, SVG Export Plug-In . SVG Version: 9.03 Build 55587)  -->
<svg version="1.1" id="Layer_1" xmlns="http://www.w3.org/2000/svg" xmlns:xlink="http://www.w3.org/1999/xlink" x="0px" y="0px"
	 viewBox="0 0 32 32" style="enable-background:new 0 0 32 32;" xml:space="preserve">
<path id="code--explanation_00000107547220287748776140000004506861870802611073_" d="M27,31.36H5c-0.199,0-0.36-0.161-0.36-0.36
	v-4.162C3.232,26.66,2.14,25.455,2.14,24s1.092-2.66,2.5-2.838V17c0-0.199,0.161-0.36,0.36-0.36h1.817
	c1.49-2,3.536-3.508,5.732-4.243C10.735,11.249,9.64,9.253,9.64,7c0-3.566,2.793-6.36,6.36-6.36S22.36,3.434,22.36,7
	c0,2.253-1.095,4.249-2.909,5.397c2.195,0.734,4.242,2.242,5.731,4.243H27c0.199,0,0.36,0.161,0.36,0.36v4.162
	c1.407,0.178,2.5,1.383,2.5,2.838s-1.093,2.66-2.5,2.838V31C27.36,31.199,27.199,31.36,27,31.36z M5.36,30.64h21.28v-3.802
	c-1.407-0.178-2.5-1.383-2.5-2.838s1.093-2.66,2.5-2.838V17.36H5.36v3.802c1.408,0.178,2.5,1.383,2.5,2.838s-1.092,2.66-2.5,2.838
	V30.64z M27,21.86c-1.18,0-2.14,0.96-2.14,2.14s0.96,2.14,2.14,2.14s2.14-0.96,2.14-2.14S28.18,21.86,27,21.86z M5,21.86
	c-1.18,0-2.14,0.96-2.14,2.14S3.82,26.14,5,26.14S7.14,25.18,7.14,24S6.18,21.86,5,21.86z M7.731,16.64H24.27
	c-1.558-1.904-3.657-3.27-5.853-3.79c-0.15-0.035-0.261-0.163-0.275-0.316c-0.015-0.154,0.07-0.3,0.211-0.363
	C20.381,11.263,21.64,9.281,21.64,7c0-3.163-2.477-5.64-5.64-5.64S10.36,3.838,10.36,7c0,2.281,1.26,4.263,3.288,5.171
	c0.141,0.063,0.226,0.209,0.211,0.363c-0.015,0.153-0.125,0.281-0.275,0.316C11.388,13.37,9.289,14.736,7.731,16.64z M14.322,28.161
	l-0.644-0.322l4-8l0.645,0.322L14.322,28.161z M19.255,27.255l-0.51-0.51L21.491,24l-2.746-2.745l0.51-0.51L22.509,24L19.255,27.255
	z M12.746,27.255L9.491,24l3.255-3.255l0.509,0.51L10.509,24l2.745,2.745L12.746,27.255z"/>
<rect id="_Transparent_Rectangle" style="fill:none;" width="32" height="32"/>
</svg>
