<?xml version="1.0" encoding="iso-8859-1"?>
<!-- Generator: Adobe Illustrator 24.1.2, SVG Export Plug-In . SVG Version: 6.00 Build 0)  -->
<svg version="1.1" id="Layer_1" xmlns="http://www.w3.org/2000/svg" xmlns:xlink="http://www.w3.org/1999/xlink" x="0px" y="0px"
	 viewBox="0 0 48 48" style="enable-background:new 0 0 48 48;" xml:space="preserve">
<g id="cognos--analytics_2_">
	
		<path id="cognos--analytics_1_" style="fill:none;stroke:#000000;stroke-width:0.72;stroke-linecap:round;stroke-miterlimit:10;" d="
		M22,10c1.105,0,2,0.895,2,2c0,1.105-0.895,2-2,2c-1.105,0-2-0.895-2-2C20,10.895,20.895,10,22,10z M18,16c-1.105,0-2,0.895-2,2
		c0,1.105,0.895,2,2,2c1.105,0,2-0.895,2-2C20,16.895,19.105,16,18,16z M12,24c0,1.105,0.895,2,2,2s2-0.895,2-2c0-1.105-0.895-2-2-2
		S12,22.895,12,24z M18,28c-1.105,0-2,0.895-2,2c0,1.105,0.895,2,2,2c1.105,0,2-0.895,2-2C20,28.895,19.105,28,18,28z M20,36
		c0,1.105,0.895,2,2,2c1.105,0,2-0.895,2-2s-0.895-2-2-2C20.895,34,20,34.895,20,36z M26,12h10 M22,18h9 M18,24h9 M22,30h9 M26,36
		h10"/>
</g>
</svg>
