<svg xmlns="http://www.w3.org/2000/svg" viewBox="0 0 48 48"><path fill="none" stroke-miterlimit="10" stroke-width=".72" d="M35,12 c0,1.105-0.895,2-2,2c-1.105,0-2-0.895-2-2s0.895-2,2-2C34.105,10,35,10.895,35,12z M16,16c-1.105,0-2,0.895-2,2s0.895,2,2,2 s2-0.895,2-2S17.105,16,16,16z M24,22c-1.105,0-2,0.895-2,2s0.895,2,2,2s2-0.895,2-2S25.105,22,24,22z M16,28c-1.105,0-2,0.895-2,2 s0.895,2,2,2s2-0.895,2-2S17.105,28,16,28z M33,34c-1.105,0-2,0.895-2,2s0.895,2,2,2c1.105,0,2-0.895,2-2S34.105,34,33,34z M20,12 h9 M20,18h9 M11,24h9 M20,30h9 M20,36h9"/></svg>