<?xml version="1.0" encoding="iso-8859-1"?>
<!-- Generator: Adobe Illustrator 22.0.0, SVG Export Plug-In . SVG Version: 6.00 Build 0)  -->
<svg version="1.1" xmlns="http://www.w3.org/2000/svg" xmlns:xlink="http://www.w3.org/1999/xlink" x="0px" y="0px"
	 viewBox="0 0 48 48" style="enable-background:new 0 0 48 48;" xml:space="preserve">
<g id="college">
	<path id="college_2_" style="fill:none;stroke:#000000;stroke-width:0.72;stroke-linejoin:round;stroke-miterlimit:10;" d="M15,23
		l0,8 M39,36H9v3h30V36z M24,9L9,21h30L24,9z M37,33H11v3h26V33z M18,21h-6v12h6V21z M33,23l0,8 M36,21h-6v12h6V21z M24,13.5
		c-1.381,0-2.5,1.119-2.5,2.5s1.119,2.5,2.5,2.5s2.5-1.119,2.5-2.5S25.381,13.5,24,13.5z"/>
</g>
<g id="Layer_1">
</g>
</svg>
