<?xml version="1.0" encoding="iso-8859-1"?>
<!-- Generator: Adobe Illustrator 26.3.1, SVG Export Plug-In . SVG Version: 6.00 Build 0)  -->
<svg version="1.1" id="Layer_1" xmlns="http://www.w3.org/2000/svg" xmlns:xlink="http://www.w3.org/1999/xlink" x="0px" y="0px"
	 viewBox="0 0 32 32" style="enable-background:new 0 0 32 32;" xml:space="preserve">
<path id="collaborate-with-teams_00000079463474999959220560000010267895279747264172_" d="M16,30.36c-3.507,0-6.36-2.854-6.36-6.36
	c0-1.774,0.741-3.46,2.042-4.664c-0.027-0.107-0.042-0.22-0.042-0.336c0-0.438,0.207-0.827,0.529-1.076l-2.368-4.208
	C8.954,14.13,8.002,14.36,7,14.36c-3.507,0-6.36-2.853-6.36-6.36S3.493,1.64,7,1.64c3.02,0,5.584,2.091,6.21,5.016
	c0.531,0.083,0.961,0.474,1.101,0.984h4.339c0.187-3.34,2.964-6,6.35-6c3.507,0,6.36,2.853,6.36,6.36s-2.854,6.36-6.36,6.36
	c-0.643,0-1.273-0.095-1.879-0.282c-0.316,0.395-0.889,0.598-1.393,0.473l-2.303,4.093c1.764,1.132,2.935,3.11,2.935,5.356
	C22.36,27.507,19.507,30.36,16,30.36z M12.054,19.976C10.973,21.035,10.36,22.48,10.36,24c0,3.11,2.53,5.64,5.64,5.64
	s5.64-2.529,5.64-5.64c0-1.978-1.022-3.721-2.567-4.728l-2.758,4.904c-0.128,0.227-0.5,0.227-0.628,0l-2.198-3.907
	C13.012,20.453,12.413,20.325,12.054,19.976z M14.071,19.837L16,23.266l2.445-4.348c-1.227-0.592-2.747-0.735-4.138-0.295
	c0.034,0.12,0.053,0.246,0.053,0.377C14.36,19.315,14.252,19.606,14.071,19.837z M13,18.36c-0.353,0-0.64,0.287-0.64,0.64
	s0.287,0.64,0.64,0.64s0.64-0.287,0.64-0.64S13.353,18.36,13,18.36z M16,17.64c1.004,0,1.954,0.234,2.799,0.65l2.303-4.094
	c-0.249-0.247-0.404-0.588-0.404-0.966c0-0.166,0.03-0.324,0.084-0.471c-1.274-1.129-2.036-2.704-2.131-4.4h-4.339
	c-0.14,0.51-0.57,0.901-1.101,0.984c-0.365,1.707-1.391,3.129-2.781,4.019l2.411,4.287c0.388-0.047,0.796,0.091,1.075,0.346
	C14.591,17.76,15.291,17.64,16,17.64z M22.058,12.59c-0.353,0-0.64,0.287-0.64,0.64s0.287,0.64,0.64,0.64s0.64-0.287,0.64-0.64
	S22.41,12.59,22.058,12.59z M23.405,13.412c0.516,0.152,1.051,0.229,1.595,0.229c3.11,0,5.64-2.53,5.64-5.64S28.11,2.36,25,2.36
	c-2.989,0-5.442,2.337-5.629,5.28H25c0.128,0,0.246,0.068,0.311,0.178s0.066,0.247,0.003,0.358l-2.299,4.089
	c0.249,0.247,0.403,0.588,0.403,0.965C23.418,13.292,23.413,13.353,23.405,13.412z M7,2.36C3.89,2.36,1.36,4.89,1.36,8
	S3.89,13.64,7,13.64c0.874,0,1.705-0.198,2.448-0.554l-2.762-4.91C6.624,8.065,6.625,7.929,6.689,7.818
	C6.754,7.708,6.872,7.64,7,7.64h4.688c0.113-0.41,0.413-0.744,0.803-0.901C11.911,4.182,9.654,2.36,7,2.36z M7.616,8.36l2.459,4.373
	c1.196-0.777,2.083-2.003,2.416-3.472c-0.39-0.158-0.69-0.491-0.803-0.901H7.616z M19.371,8.36c0.093,1.464,0.746,2.823,1.833,3.812
	c0.314-0.254,0.776-0.365,1.184-0.261l1.997-3.551C24.385,8.36,19.371,8.36,19.371,8.36z M13,7.36c-0.353,0-0.64,0.287-0.64,0.64
	S12.647,8.64,13,8.64S13.64,8.353,13.64,8S13.353,7.36,13,7.36z"/>
<rect id="_Transparent_Rectangle" style="fill:none;" width="32" height="32"/>
</svg>
