<?xml version="1.0" encoding="iso-8859-1"?>
<!-- Generator: Adobe Illustrator 24.3.0, SVG Export Plug-In . SVG Version: 6.00 Build 0)  -->
<svg version="1.1" id="Layer_1" xmlns="http://www.w3.org/2000/svg" xmlns:xlink="http://www.w3.org/1999/xlink" x="0px" y="0px"
	 viewBox="0 0 32 32" style="enable-background:new 0 0 32 32;" xml:space="preserve">
<path id="colombia--cathedral-of-las-lajas_1_" d="M25,15.5c0-0.276,0.224-0.5,0.5-0.5s0.5,0.224,0.5,0.5S25.776,16,25.5,16
	S25,15.776,25,15.5z M21.64,16h0.721v-1H21.64V16z M19.64,16h0.721v-1H19.64V16z M17,27.64c-0.75,0-1.36,0.61-1.36,1.36v1h0.72v-1
	c0-0.353,0.287-0.64,0.64-0.64c0.353,0,0.64,0.287,0.64,0.64v1h0.721v-1C18.36,28.25,17.75,27.64,17,27.64z M15.64,16h0.72v-1h-0.72
	V16z M17.64,16h0.721v-1H17.64V16z M21.64,21h0.721v-1H21.64V21z M21.64,19h0.721v-1H21.64V19z M31.161,16.322l-1.259,0.629
	c-0.392,0.196-0.684,0.533-0.822,0.949l-0.477,1.428c-0.199,0.598-0.62,1.082-1.184,1.364l-1.946,0.974
	c-0.724,0.361-1.25,1.051-1.409,1.843l-0.501,2.561c-0.138,0.687-0.38,1.37-0.741,2.092l-1.5,3l-0.645-0.322l0.958-1.915
	C21.598,28.606,21.327,28.36,21,28.36c-0.353,0-0.64,0.287-0.64,0.64v1h-0.72v-1c0-0.75,0.61-1.36,1.36-1.36
	c0.415,0,0.787,0.188,1.037,0.481l0.141-0.282c0.256-0.511,0.446-0.998,0.577-1.479H14.36V30h-0.72v-3.5c0-1.18-0.96-2.14-2.14-2.14
	s-2.14,0.96-2.14,2.14V30H8.64v-1.64H7.36V30H6.64v-3.5c0-1.18-0.96-2.14-2.14-2.14s-2.14,0.96-2.14,2.14V30H1.64v-3.5
	c0-1.577,1.283-2.86,2.86-2.86c1.277,0,2.362,0.842,2.728,2h1.544c0.366-1.158,1.451-2,2.728-2c0.851,0,1.616,0.374,2.14,0.965
	V22.36H1v-0.72h12.64v-2.38l-4.182-1.394c-1.105-0.369-2-1.146-2.521-2.187L5.573,12.95c-0.542-1.084-1.438-1.98-2.523-2.523
	L0.839,9.322l0.322-0.644l2.211,1.105c1.223,0.611,2.233,1.622,2.844,2.844l1.364,2.729c0.435,0.87,1.183,1.518,2.105,1.826
	L13.64,18.5v-1.14H13v-0.72h0.64v-2.28H13v-0.72h0.64V8h0.72v1.131l1.28-1.28V6.5l1-4.539V1h0.72v0.96l0.991,4.461l0.008,1.428
	l1.28,1.281V8h0.721v5.64h1.279V12h0.721v1.64h1.279V12h0.721v1.64h2.279V12h0.721v1.64h1.279V12h0.721v4.433
	c0.07-0.045,0.144-0.087,0.22-0.125l1.259-0.629L31.161,16.322z M8.644,26.36H7.356c0.002,0.046,0.003,0.093,0.003,0.14v1.14h1.28
	V26.5C8.64,26.453,8.641,26.406,8.644,26.36z M16.352,6.578l0.006,1.062h1.282V6.5l-0.638-2.848L16.352,6.578z M14.36,13.64h1.28V11
	c0-0.75,0.61-1.36,1.36-1.36s1.36,0.61,1.36,1.36v2.64h1.279v-3.491L17.851,8.36h-1.702l-1.789,1.789
	C14.36,10.149,14.36,13.64,14.36,13.64z M17,10.36c-0.353,0-0.64,0.287-0.64,0.64v2.64h1.28V11C17.64,10.647,17.353,10.36,17,10.36z
	 M14.36,16.64h9.28v-2.28h-9.28V16.64z M14.36,21.64h9.28v-4.28h-9.28V21.64z M23.739,22.36H14.36v3.279h1.28V24
	c0-0.199,0.161-0.36,0.36-0.36c0.199,0,0.36,0.161,0.36,0.36v1.64h1.28V24c0-0.199,0.161-0.36,0.36-0.36s0.36,0.161,0.36,0.36v1.64
	h1.279V24c0-0.199,0.161-0.36,0.36-0.36s0.36,0.161,0.36,0.36v1.64h1.279V24c0-0.199,0.161-0.36,0.36-0.36s0.36,0.161,0.36,0.36
	v1.64h0.554l0.444-2.271C23.43,23.012,23.561,22.672,23.739,22.36z M26.64,20.149l-1.14-1.141l-1.14,1.141v1.425
	c0.233-0.22,0.5-0.407,0.791-0.553l1.488-0.744L26.64,20.149L26.64,20.149z M26.64,17.36h-2.28v1.771l0.885-0.886
	c0.07-0.07,0.163-0.105,0.255-0.105s0.185,0.035,0.255,0.105l0.885,0.886V17.36z M26.64,14.36h-2.28v2.28h2.279L26.64,14.36
	L26.64,14.36z M28.525,17.36H27.36v2.524c0.26-0.197,0.454-0.468,0.56-0.785l0.477-1.428C28.433,17.564,28.476,17.46,28.525,17.36z
	 M28.64,14.36h-1.28v2.28h1.279L28.64,14.36L28.64,14.36z M7.64,23v1h0.72v-1H7.64z M19.64,19h0.721v-1H19.64V19z M19.64,21h0.721
	v-1H19.64V21z M17.64,21h0.721v-1H17.64V21z M15.64,21h0.72v-1h-0.72V21z M15.64,19h0.72v-1h-0.72V19z M17.64,19h0.721v-1H17.64V19z
	"/>
<rect id="_Transparent_Rectangle" style="fill:none;" width="32" height="32"/>
</svg>
