<?xml version="1.0" encoding="iso-8859-1"?>
<!-- Generator: Adobe Illustrator 24.1.2, SVG Export Plug-In . SVG Version: 6.00 Build 0)  -->
<svg version="1.1" id="Layer_1" xmlns="http://www.w3.org/2000/svg" xmlns:xlink="http://www.w3.org/1999/xlink" x="0px" y="0px"
	 viewBox="0 0 32 32" style="enable-background:new 0 0 32 32;" xml:space="preserve">
<path id="commercial--financing--01_1_" d="M7.36,16H6.64V9c0-1.301,1.059-2.36,2.36-2.36h6.131l-2.385-2.386l0.509-0.509L16.509,7
	l-3.255,3.254l-0.509-0.509l2.385-2.386H9C8.096,7.36,7.36,8.096,7.36,9V16z M24.64,24c0,0.904-0.735,1.64-1.64,1.64h-6.13
	l2.385-2.385l-0.51-0.51L15.491,26l3.254,3.255l0.51-0.51L16.87,26.36H23c1.302,0,2.36-1.059,2.36-2.36v-7h-0.72V24z M8,29.36
	c-0.199,0-0.36-0.161-0.36-0.36v-3c0-0.199,0.161-0.36,0.36-0.36h2c0.199,0,0.36,0.161,0.36,0.36v3c0,0.199-0.161,0.36-0.36,0.36H8z
	 M8.36,28.64h1.28v-2.28H8.36V28.64z M12.36,30.64H13v0.721H1V30.64h0.64V25h0.72v5.64h1.28V26c0-0.199,0.161-0.36,0.36-0.36h2
	c0.199,0,0.36,0.161,0.36,0.36v4.64h5.28V25h0.72C12.36,25,12.36,30.64,12.36,30.64z M4.36,26.36v1.279h1.28V26.36H4.36z
	 M4.36,30.64h1.28v-2.28H4.36V30.64z M13.36,20v3c0,0.75-0.61,1.36-1.36,1.36c-0.397,0-0.751-0.174-1-0.446
	c-0.249,0.272-0.603,0.446-1,0.446s-0.751-0.174-1-0.446c-0.249,0.272-0.603,0.446-1,0.446s-0.751-0.174-1-0.446
	c-0.249,0.272-0.603,0.446-1,0.446s-0.751-0.174-1-0.446c-0.249,0.272-0.603,0.446-1,0.446s-0.751-0.174-1-0.446
	c-0.249,0.272-0.603,0.446-1,0.446c-0.75,0-1.36-0.61-1.36-1.36v-3c0-0.199,0.161-0.36,0.36-0.36h0.64V18
	c0-0.199,0.161-0.36,0.36-0.36h10c0.199,0,0.36,0.161,0.36,0.36v1.64H13C13.199,19.64,13.36,19.801,13.36,20z M2.36,19.64h9.28
	v-1.28H2.36V19.64z M12.64,20.36H1.36V23c0,0.353,0.287,0.64,0.64,0.64S2.64,23.353,2.64,23c0-0.199,0.161-0.36,0.36-0.36
	S3.36,22.801,3.36,23c0,0.353,0.287,0.64,0.64,0.64S4.64,23.353,4.64,23c0-0.199,0.161-0.36,0.36-0.36S5.36,22.801,5.36,23
	c0,0.353,0.287,0.64,0.64,0.64S6.64,23.353,6.64,23c0-0.199,0.161-0.36,0.36-0.36S7.36,22.801,7.36,23c0,0.353,0.287,0.64,0.64,0.64
	S8.64,23.353,8.64,23c0-0.199,0.161-0.36,0.36-0.36S9.36,22.801,9.36,23c0,0.353,0.287,0.64,0.64,0.64s0.64-0.287,0.64-0.64
	c0-0.199,0.161-0.36,0.36-0.36s0.36,0.161,0.36,0.36c0,0.353,0.287,0.64,0.64,0.64s0.64-0.287,0.64-0.64V20.36z M26,6.64h-2
	c-0.353,0-0.64-0.287-0.64-0.64S23.647,5.36,24,5.36h3V4.64h-1.64V3.5h-0.72v1.14H24c-0.75,0-1.36,0.61-1.36,1.36
	S23.25,7.36,24,7.36h2c0.353,0,0.64,0.287,0.64,0.64S26.353,8.64,26,8.64h-3v0.72h1.64v1.14h0.721V9.36H26
	c0.75,0,1.36-0.61,1.36-1.36S26.75,6.64,26,6.64z M31.36,7c0,3.507-2.854,6.36-6.36,6.36S18.64,10.507,18.64,7S21.493,0.64,25,0.64
	S31.36,3.493,31.36,7z M30.64,7c0-3.11-2.529-5.64-5.64-5.64S19.36,3.89,19.36,7s2.529,5.64,5.64,5.64S30.64,10.11,30.64,7z"/>
<rect id="_Transparent_Rectangle" style="fill:none;" width="32" height="32"/>
</svg>
