<?xml version="1.0" encoding="iso-8859-1"?>
<!-- Generator: Adobe Illustrator 24.1.2, SVG Export Plug-In . SVG Version: 6.00 Build 0)  -->
<svg version="1.1" xmlns="http://www.w3.org/2000/svg" xmlns:xlink="http://www.w3.org/1999/xlink" x="0px" y="0px"
	 viewBox="0 0 48 48" style="enable-background:new 0 0 48 48;" xml:space="preserve">
<g id="commercial--financing--01">
	<g id="commercial--financing--01_1_">
		<path style="fill:none;stroke:#000000;stroke-width:0.72;stroke-miterlimit:10;" d="M24,15h-7c-1.105,0-2,0.895-2,2v7"/>
		<polyline style="fill:none;stroke:#000000;stroke-width:0.72;stroke-miterlimit:10;" points="21,12 24,15 21,18 		"/>
		<path style="fill:none;stroke:#000000;stroke-width:0.72;stroke-miterlimit:10;" d="M33,25v7c0,1.105-0.895,2-2,2h-7"/>
		<polyline style="fill:none;stroke:#000000;stroke-width:0.72;stroke-miterlimit:10;" points="27,37 24,34 27,31 		"/>
		<g>
			<line style="fill:none;stroke:#000000;stroke-width:0.72;stroke-miterlimit:10;" x1="21" y1="39" x2="9" y2="39"/>
			<polyline style="fill:none;stroke:#000000;stroke-width:0.72;stroke-linejoin:round;stroke-miterlimit:10;" points="14,39 14,34 
				12,34 12,39 			"/>
			
				<line style="fill:none;stroke:#000000;stroke-width:0.72;stroke-linejoin:round;stroke-miterlimit:10;" x1="12" y1="36" x2="14" y2="36"/>
			
				<rect x="15.5" y="34.5" transform="matrix(-2.667840e-11 1 -1 -2.667840e-11 52.5 18.5)" style="fill:none;stroke:#000000;stroke-width:0.72;stroke-linecap:round;stroke-linejoin:round;stroke-miterlimit:10;" width="3" height="2"/>
			<polyline style="fill:none;stroke:#000000;stroke-width:0.72;stroke-linejoin:round;stroke-miterlimit:10;" points="20,28 20,26 
				10,26 10,28 			"/>
			
				<line style="fill:none;stroke:#000000;stroke-width:0.72;stroke-linejoin:round;stroke-miterlimit:10;" x1="10" y1="39" x2="10" y2="33"/>
			
				<line style="fill:none;stroke:#000000;stroke-width:0.72;stroke-linejoin:round;stroke-miterlimit:10;" x1="20" y1="39" x2="20" y2="33"/>
			<path style="fill:none;stroke:#000000;stroke-width:0.72;stroke-linecap:round;stroke-linejoin:round;stroke-miterlimit:10;" d="
				M11,31c0,0.553-0.447,1-1,1s-1-0.447-1-1v-3h12v3c0,0.553-0.447,1-1,1s-1-0.447-1-1"/>
			<path style="fill:none;stroke:#000000;stroke-width:0.72;stroke-linecap:round;stroke-linejoin:round;stroke-miterlimit:10;" d="
				M11,31c0,0.553,0.447,1,1,1s1-0.447,1-1"/>
			<path style="fill:none;stroke:#000000;stroke-width:0.72;stroke-linecap:round;stroke-linejoin:round;stroke-miterlimit:10;" d="
				M13,31c0,0.553,0.447,1,1,1s1-0.447,1-1"/>
			<path style="fill:none;stroke:#000000;stroke-width:0.72;stroke-linecap:round;stroke-linejoin:round;stroke-miterlimit:10;" d="
				M15,31c0,0.553,0.447,1,1,1c0.553,0,1-0.447,1-1"/>
			<path style="fill:none;stroke:#000000;stroke-width:0.72;stroke-linecap:round;stroke-linejoin:round;stroke-miterlimit:10;" d="
				M17,31c0,0.553,0.447,1,1,1s1-0.447,1-1"/>
		</g>
		<g>
			
				<line style="fill:none;stroke:#000000;stroke-width:0.72;stroke-linejoin:round;stroke-miterlimit:10;" x1="33" y1="11.5" x2="33" y2="13"/>
			
				<line style="fill:none;stroke:#000000;stroke-width:0.72;stroke-linejoin:round;stroke-miterlimit:10;" x1="33" y1="17" x2="33" y2="18.5"/>
			<path style="fill:none;stroke:#000000;stroke-width:0.72;stroke-linejoin:round;stroke-miterlimit:10;" d="M35,13h-3
				c-0.552,0-1,0.447-1,1c0,0.552,0.447,1,1,1h2c0.552,0,1,0.448,1,1c0,0.553-0.448,1-1,1h-3"/>
		</g>
		<circle style="fill:none;stroke:#000000;stroke-width:0.72;stroke-miterlimit:10;" cx="33" cy="15" r="6"/>
	</g>
</g>
<g id="Layer_1">
</g>
</svg>
