<?xml version="1.0" encoding="iso-8859-1"?>
<!-- Generator: Adobe Illustrator 29.1.0, SVG Export Plug-In . SVG Version: 9.03 Build 55587)  -->
<svg version="1.1" id="Layer_1" xmlns="http://www.w3.org/2000/svg" xmlns:xlink="http://www.w3.org/1999/xlink" x="0px" y="0px"
	 viewBox="0 0 32 32" style="enable-background:new 0 0 32 32;" xml:space="preserve">
<path id="compost_00000098191285078746066150000007217970665896027799_" d="M20.75,31.36c-0.919,0-1.863-0.275-2.776-0.541
	c-0.81-0.236-1.575-0.459-2.224-0.459s-1.414,0.223-2.224,0.459c-0.914,0.266-1.858,0.541-2.776,0.541
	c-1.579,0-3.099-0.797-4.517-2.369c-0.075-0.083-0.107-0.197-0.087-0.308c0.021-0.11,0.092-0.204,0.192-0.255
	c3.733-1.881,6.052-5.686,6.052-9.929c0-3.606-1.812-7.022-4.846-9.138C7.422,9.277,7.365,9.126,7.4,8.981
	c0.035-0.145,0.155-0.252,0.302-0.272C8.029,8.666,8.421,8.64,8.75,8.64c0.969,0,1.954,0.272,2.907,0.535
	c0.748,0.207,1.454,0.402,2.13,0.466l-0.068,0.717c-0.738-0.07-1.508-0.283-2.253-0.489C10.553,9.617,9.609,9.39,8.733,9.36
	c2.757,2.268,4.377,5.618,4.377,9.14c0,4.354-2.295,8.275-6.023,10.347c1.18,1.19,2.41,1.793,3.664,1.793
	c0.815,0,1.71-0.26,2.575-0.512c0.861-0.251,1.674-0.487,2.425-0.488c0.752,0.001,1.564,0.237,2.425,0.488
	c0.864,0.252,1.759,0.512,2.575,0.512c0.825,0,1.656-0.264,2.478-0.784C20.906,28.874,19.39,26.603,19.39,24
	c0-1.482,0.496-2.897,1.402-4.017c-0.918-1.312-1.402-2.855-1.402-4.483c0-2.387,1.11-4.649,2.954-6.13
	c-0.966,0.048-1.923,0.259-2.93,0.48c-1.104,0.243-2.247,0.494-3.405,0.508l-0.257,0.001c-0.096,0.033-0.188-0.038-0.256-0.104
	c-0.068-0.068-0.106-0.16-0.106-0.255V7.25c0-0.1,0.042-0.195,0.114-0.263c0.072-0.068,0.164-0.104,0.271-0.096
	c0.255,0.021,6.158,0.364,7.535-4.378c-1.162-0.247-5.008-0.733-7.253,2.926l-0.613-0.376c2.905-4.737,8.354-3.173,8.41-3.157
	c0.182,0.054,0.29,0.241,0.247,0.426c-1.144,4.921-6.5,5.282-7.991,5.286v2.019c1.047-0.027,2.116-0.262,3.15-0.489
	c1.134-0.25,2.307-0.507,3.49-0.507c0.202,0,0.388,0.019,0.573,0.039l0.145,0.015c0.155,0.015,0.282,0.128,0.316,0.28
	c0.033,0.152-0.034,0.308-0.168,0.388c-2.163,1.283-3.506,3.635-3.506,6.138c0,1.568,0.493,3.049,1.427,4.283
	c0.104,0.137,0.096,0.328-0.019,0.456C20.61,21.259,20.11,22.595,20.11,24c0,2.524,1.604,4.696,3.992,5.405
	c0.129,0.038,0.227,0.146,0.251,0.278c0.025,0.132-0.025,0.268-0.132,0.351C23.093,30.914,21.925,31.36,20.75,31.36z M13.75,7.36
	c-0.128,0-3.167-0.018-4.754-1.605C7.408,4.167,7.39,1.128,7.39,1c0-0.199,0.161-0.36,0.36-0.36c0.128,0,3.167,0.018,4.754,1.605
	C14.092,3.833,14.11,6.872,14.11,7c0,0.096-0.038,0.187-0.105,0.254C13.937,7.322,13.846,7.36,13.75,7.36z M8.127,1.377
	C8.183,2.2,8.43,4.171,9.504,5.246c1.075,1.074,3.045,1.321,3.869,1.377C13.317,5.8,13.07,3.829,11.996,2.754
	C10.921,1.68,8.95,1.433,8.127,1.377z"/>
<rect id="_Transparent_Rectangle" style="fill:none;" width="32" height="32"/>
</svg>
