<?xml version="1.0" encoding="iso-8859-1"?>
<!-- Generator: Adobe Illustrator 26.3.1, SVG Export Plug-In . SVG Version: 6.00 Build 0)  -->
<svg version="1.1" id="Layer_1" xmlns="http://www.w3.org/2000/svg" xmlns:xlink="http://www.w3.org/1999/xlink" x="0px" y="0px"
	 viewBox="0 0 32 32" style="enable-background:new 0 0 32 32;" xml:space="preserve">
<g id="connectivity_00000083066869258696211230000015441979302308755363_">
	<path d="M16,31.36c-0.75,0-1.36-0.61-1.36-1.36c0-0.121,0.016-0.238,0.045-0.35L4.95,23.971C4.706,24.212,4.37,24.36,4,24.36
		c-0.75,0-1.36-0.61-1.36-1.36c0-0.625,0.424-1.153,1-1.312V10.312c-0.576-0.158-1-0.686-1-1.312c0-0.75,0.61-1.36,1.36-1.36
		c0.37,0,0.706,0.148,0.951,0.388l9.735-5.678C14.656,2.238,14.64,2.121,14.64,2c0-0.75,0.61-1.36,1.36-1.36S17.36,1.25,17.36,2
		c0,0.121-0.017,0.238-0.046,0.35l9.734,5.679C27.294,7.789,27.63,7.64,28,7.64c0.75,0,1.36,0.61,1.36,1.36
		c0,0.625-0.425,1.153-1,1.312v11.377c0.575,0.158,1,0.687,1,1.312c0,0.75-0.61,1.36-1.36,1.36c-0.37,0-0.706-0.148-0.951-0.389
		l-9.734,5.679c0.029,0.111,0.046,0.229,0.046,0.35C17.36,30.75,16.75,31.36,16,31.36z M16,29.36c-0.353,0-0.64,0.287-0.64,0.64
		s0.287,0.64,0.64,0.64s0.64-0.287,0.64-0.64S16.353,29.36,16,29.36z M5.314,23.35l9.707,5.662l-5.153-9.018L5.314,22.65
		C5.344,22.762,5.36,22.879,5.36,23S5.344,23.238,5.314,23.35z M22.132,19.994l-5.153,9.018l9.707-5.662
		c-0.029-0.111-0.046-0.229-0.046-0.35s0.017-0.238,0.046-0.35L22.132,19.994z M16,28.64c0.117,0,0.23,0.015,0.338,0.043
		l5.172-9.051l-4.56-2.66c-0.491,0.48-1.411,0.481-1.902,0l-4.559,2.66l5.172,9.052C15.77,28.654,15.883,28.64,16,28.64z M28,22.36
		c-0.353,0-0.64,0.287-0.64,0.64s0.287,0.64,0.64,0.64s0.64-0.287,0.64-0.64S28.353,22.36,28,22.36z M4,22.36
		c-0.353,0-0.64,0.287-0.64,0.64S3.647,23.64,4,23.64S4.64,23.353,4.64,23S4.353,22.36,4,22.36z M22.489,19.369l4.56,2.659
		c0.163-0.159,0.365-0.278,0.591-0.34V10.355L22.489,19.369z M4.36,21.688c0.226,0.062,0.428,0.181,0.591,0.34l4.56-2.659
		l-5.15-9.014L4.36,21.688L4.36,21.688z M17.314,16.35l4.553,2.656l5.17-9.046c-0.164-0.164-0.285-0.37-0.349-0.6H16.36v5.329
		c0.576,0.158,1,0.686,1,1.312C17.36,16.121,17.344,16.238,17.314,16.35z M4.963,9.959l5.169,9.046l4.553-2.656
		c-0.03-0.111-0.045-0.229-0.045-0.35c0-0.625,0.424-1.153,1-1.312V9.36H5.312C5.249,9.59,5.126,9.795,4.963,9.959z M16,15.36
		c-0.353,0-0.64,0.287-0.64,0.64s0.287,0.64,0.64,0.64s0.64-0.287,0.64-0.64S16.353,15.36,16,15.36z M28,8.36
		c-0.353,0-0.64,0.287-0.64,0.64S27.647,9.64,28,9.64S28.64,9.353,28.64,9S28.353,8.36,28,8.36z M4,8.36
		C3.647,8.36,3.36,8.647,3.36,9S3.647,9.64,4,9.64S4.64,9.353,4.64,9S4.353,8.36,4,8.36z M16.36,8.64h10.308l-9.717-5.668
		c-0.163,0.159-0.365,0.278-0.591,0.34V8.64z M5.332,8.64H15.64V3.312c-0.226-0.062-0.428-0.181-0.591-0.34L5.332,8.64z M16,1.36
		c-0.353,0-0.64,0.287-0.64,0.64S15.647,2.64,16,2.64c0.353,0,0.64-0.287,0.64-0.64S16.353,1.36,16,1.36z"/>
</g>
<rect id="_Transparent_Rectangle" style="fill:none;" width="32" height="32"/>
</svg>
