<?xml version="1.0" encoding="iso-8859-1"?>
<!-- Generator: Adobe Illustrator 24.1.2, SVG Export Plug-In . SVG Version: 6.00 Build 0)  -->
<svg version="1.1" xmlns="http://www.w3.org/2000/svg" xmlns:xlink="http://www.w3.org/1999/xlink" x="0px" y="0px"
	 viewBox="0 0 48 48" style="enable-background:new 0 0 48 48;" xml:space="preserve">
<g id="connected--ecosystem">
	
		<path id="connected--ecosystem_1_" style="fill:none;stroke:#000000;stroke-width:0.72;stroke-linejoin:round;stroke-miterlimit:10;" d="
		M10,15h4 M10,21h4 M9,16v4 M15,16v4 M34,27h4 M34,33h4 M33,28v4 M39,28v4 M11,24c0,1.392,0.219,2.732,0.623,3.989 M13.363,31.476
		c1.984,2.818,5.06,4.812,8.612,5.368 M26.002,36.847c2.239-0.346,4.29-1.264,5.998-2.599 M37,24c0-1.396-0.22-2.74-0.627-4
		 M34.628,16.511c-1.989-2.818-5.07-4.809-8.628-5.358 M22,11.153c-2.24,0.346-4.291,1.264-6,2.599 M26,11L26,11
		c0-1.105-0.895-2-2-2h0c-1.105,0-2,0.895-2,2v0c0,1.105,0.895,2,2,2h0C25.105,13,26,12.105,26,11z M23.035,35.19L16,22
		 M13.845,29.078L34,19 M26,37L26,37c0-1.105-0.895-2-2-2h0c-1.105,0-2,0.895-2,2v0c0,1.105,0.895,2,2,2h0
		C25.105,39,26,38.105,26,37z M38,18L38,18c0-1.105-0.895-2-2-2h0c-1.105,0-2,0.895-2,2v0c0,1.105,0.895,2,2,2h0
		C37.105,20,38,19.105,38,18z M14,30L14,30c0-1.105-0.895-2-2-2h0c-1.105,0-2,0.895-2,2v0c0,1.105,0.895,2,2,2h0
		C13.105,32,14,31.105,14,30z"/>
</g>
<g id="Layer_1">
</g>
</svg>
