<?xml version="1.0" encoding="iso-8859-1"?>
<!-- Generator: Adobe Illustrator 22.0.0, SVG Export Plug-In . SVG Version: 6.00 Build 0)  -->
<svg version="1.1" xmlns="http://www.w3.org/2000/svg" xmlns:xlink="http://www.w3.org/1999/xlink" x="0px" y="0px"
	 viewBox="0 0 48 48" style="enable-background:new 0 0 48 48;" xml:space="preserve">
<g id="construct">
	<path id="construct_1_" style="fill:none;stroke:#000000;stroke-width:0.72;stroke-linejoin:round;stroke-miterlimit:10;" d="
		M38,14h-4v-4h4V14z M38,16h-4v4h4V16z M32,10h-4v4h4V10z M32,16h-4v4h4V16z M26,16h-4v4h4V16z M14,16h-4v4h4V16z M26,22h-4v4h4V22z
		 M26,34h-4v4h4V34z M14,34h-4v4h4V34z M20,22h-4v4h4V22z M20,10h-4v4h4V10z M20,28h-4v4h4V28z M38,22h-4v4h4V22z M38,28h-4v4h4V28z
		 M38,34h-4v4h4V34z M32,28h-4v4h4V28z M32,34h-4v4h4V34z"/>
</g>
<g id="Layer_1">
</g>
</svg>
