<?xml version="1.0" encoding="iso-8859-1"?>
<!-- Generator: Adobe Illustrator 24.1.2, SVG Export Plug-In . SVG Version: 6.00 Build 0)  -->
<svg version="1.1" id="Layer_1" xmlns="http://www.w3.org/2000/svg" xmlns:xlink="http://www.w3.org/1999/xlink" x="0px" y="0px"
	 viewBox="0 0 32 32" style="enable-background:new 0 0 32 32;" xml:space="preserve">
<path id="console_2_" d="M24,19c0,0.552-0.448,1-1,1s-1-0.448-1-1s0.448-1,1-1S24,18.448,24,19z M24,24c0,0.552-0.448,1-1,1
	s-1-0.448-1-1s0.448-1,1-1S24,23.448,24,24z M25.5,20.5c-0.552,0-1,0.448-1,1s0.448,1,1,1s1-0.448,1-1S26.052,20.5,25.5,20.5z
	 M20.5,20.5c-0.552,0-1,0.448-1,1s0.448,1,1,1s1-0.448,1-1S21.052,20.5,20.5,20.5z M12,21.14H9.36V18.5
	c0-0.199-0.161-0.36-0.36-0.36s-0.36,0.161-0.36,0.36v2.64H6c-0.199,0-0.36,0.161-0.36,0.36S5.801,21.86,6,21.86h2.64v2.64
	c0,0.199,0.161,0.36,0.36,0.36s0.36-0.161,0.36-0.36v-2.64H12c0.199,0,0.36-0.161,0.36-0.36S12.199,21.14,12,21.14z M31.129,25.739
	l-3.163-9.486c-0.321-0.965-1.221-1.614-2.239-1.614H16.36V9.36H20c2.404,0,4.36-1.956,4.36-4.36S22.404,0.64,20,0.64
	S15.64,2.596,15.64,5v3.64H7v0.72h8.64v5.28H6.272c-1.018,0-1.917,0.648-2.239,1.614L0.872,25.74
	c-0.631,1.894,0.032,3.923,1.612,4.934c0.7,0.449,1.512,0.687,2.348,0.687h0.321c1.16,0,2.25-0.45,3.065-1.259l2.925-2.745h9.714
	l2.885,2.727c0.812,0.812,1.937,1.277,3.086,1.277c0.001,0,0.003,0,0.004,0h0.337c0.836,0,1.647-0.237,2.348-0.686
	C31.096,29.663,31.76,27.634,31.129,25.739z M16.36,5c0-2.007,1.633-3.64,3.64-3.64S23.64,2.993,23.64,5S22.007,8.64,20,8.64h-3.64
	V5z M29.127,30.067C29.127,30.068,29.127,30.068,29.127,30.067c-0.583,0.375-1.261,0.572-1.959,0.572h-0.337
	c-0.001,0-0.003,0-0.004,0c-0.96,0-1.898-0.389-2.584-1.073l-2.996-2.832c-0.066-0.063-0.155-0.099-0.247-0.099H11
	c-0.091,0-0.18,0.035-0.247,0.098l-3.037,2.85C7.03,30.265,6.12,30.64,5.152,30.64h-0.32c-0.698,0-1.375-0.197-1.959-0.571
	c-1.282-0.821-1.836-2.545-1.318-4.1l3.162-9.488c0.224-0.671,0.849-1.122,1.556-1.122h19.455c0.708,0,1.333,0.451,1.556,1.122
	l3.163,9.487C30.964,27.523,30.409,29.247,29.127,30.067z"/>
<rect id="_Transparent_Rectangle" style="fill:none;" width="32" height="32"/>
</svg>
