<?xml version="1.0" encoding="iso-8859-1"?>
<!-- Generator: Adobe Illustrator 29.1.0, SVG Export Plug-In . SVG Version: 9.03 Build 55587)  -->
<svg version="1.1" id="Layer_1" xmlns="http://www.w3.org/2000/svg" xmlns:xlink="http://www.w3.org/1999/xlink" x="0px" y="0px"
	 viewBox="0 0 32 32" style="enable-background:new 0 0 32 32;" xml:space="preserve">
<path id="constellation_00000039123687328086000590000002149024703804020884_" d="M24,30.36c-0.199,0-0.36-0.161-0.36-0.36v-0.64H23
	c-0.199,0-0.36-0.161-0.36-0.36s0.161-0.36,0.36-0.36h0.64V28c0-0.199,0.161-0.36,0.36-0.36s0.36,0.161,0.36,0.36v0.64H25
	c0.199,0,0.36,0.161,0.36,0.36s-0.161,0.36-0.36,0.36h-0.64V30C24.36,30.199,24.199,30.36,24,30.36z M11,29.36
	c-0.75,0-1.36-0.61-1.36-1.36c0-0.239,0.062-0.465,0.171-0.661l-6.132-7.161C3.479,20.294,3.247,20.36,3,20.36
	c-0.75,0-1.36-0.61-1.36-1.36S2.25,17.64,3,17.64c0.625,0,1.153,0.425,1.312,1h12.377c0.159-0.578,0.72-1.022,1.32-1l2.177-5.551
	C19.854,11.841,19.64,11.445,19.64,11c0-0.75,0.61-1.36,1.36-1.36c0.244,0,0.475,0.065,0.673,0.178l6.146-6.146
	C27.705,3.474,27.64,3.245,27.64,3c0-0.75,0.61-1.36,1.36-1.36S30.36,2.25,30.36,3S29.75,4.36,29,4.36
	c-0.244,0-0.475-0.065-0.673-0.178l-6.146,6.146c0.113,0.199,0.179,0.428,0.179,0.673c0,0.799-0.737,1.429-1.504,1.353l-2.151,5.484
	c0.393,0.239,0.655,0.671,0.655,1.163c0,0.625-0.425,1.153-1,1.312v4.377c0.575,0.158,1,0.687,1,1.312c0,0.75-0.61,1.36-1.36,1.36
	c-0.491,0-0.923-0.263-1.162-0.654l-4.478,1.28c0,0.004,0,0.009,0,0.014C12.36,28.75,11.75,29.36,11,29.36z M10.521,27.576
	c-0.1,0.113-0.161,0.262-0.161,0.424c0,0.353,0.287,0.64,0.64,0.64s0.64-0.287,0.64-0.64c0-0.055-0.007-0.107-0.02-0.158
	c-0.002-0.006-0.003-0.012-0.005-0.018c-0.001-0.006-0.003-0.012-0.004-0.018c-0.133-0.421-0.766-0.562-1.067-0.255
	C10.536,27.561,10.529,27.568,10.521,27.576z M11,26.64c0.492,0,0.923,0.263,1.162,0.654l4.478-1.28c0-0.005,0-0.009,0-0.014
	c0-0.625,0.424-1.153,1-1.312v-4.377c-0.461-0.127-0.825-0.49-0.951-0.951H4.312c-0.029,0.106-0.072,0.209-0.125,0.304l6.131,7.159
	C10.519,26.707,10.751,26.64,11,26.64z M18,25.36c-0.353,0-0.64,0.287-0.64,0.64s0.287,0.64,0.64,0.64s0.64-0.287,0.64-0.64
	S18.353,25.36,18,25.36z M3,18.36c-0.353,0-0.64,0.287-0.64,0.64S2.647,19.64,3,19.64c0.183,0,0.349-0.077,0.466-0.201
	c0-0.001,0.001-0.001,0.002-0.002C3.575,19.322,3.64,19.169,3.64,19C3.64,18.647,3.353,18.36,3,18.36z M18,18.36
	c-0.353,0-0.64,0.287-0.64,0.64c0,0.324,0.242,0.593,0.555,0.635c0.055-0.014,0.115-0.014,0.17,0
	c0.312-0.042,0.555-0.311,0.555-0.635c0-0.294-0.198-0.542-0.468-0.616c-0.011-0.003-0.022-0.005-0.032-0.009
	C18.095,18.365,18.048,18.36,18,18.36z M20.776,11.6c0.388,0.146,0.863-0.168,0.863-0.6c0-0.353-0.287-0.64-0.64-0.64
	s-0.64,0.287-0.64,0.64c0,0.267,0.163,0.496,0.396,0.592c0.004,0.001,0.007,0.002,0.011,0.004
	C20.77,11.597,20.773,11.598,20.776,11.6z M29,2.36c-0.353,0-0.64,0.287-0.64,0.64S28.647,3.64,29,3.64S29.64,3.353,29.64,3
	S29.353,2.36,29,2.36z M29,20.36c-0.199,0-0.36-0.161-0.36-0.36v-0.64H28c-0.199,0-0.36-0.161-0.36-0.36s0.161-0.36,0.36-0.36h0.64
	V18c0-0.199,0.161-0.36,0.36-0.36s0.36,0.161,0.36,0.36v0.64H30c0.199,0,0.36,0.161,0.36,0.36s-0.161,0.36-0.36,0.36h-0.64V20
	C29.36,20.199,29.199,20.36,29,20.36z M3,11.36c-0.199,0-0.36-0.161-0.36-0.36v-0.64H2c-0.199,0-0.36-0.161-0.36-0.36
	S1.801,9.64,2,9.64h0.64V9c0-0.199,0.161-0.36,0.36-0.36S3.36,8.801,3.36,9v0.64H4c0.199,0,0.36,0.161,0.36,0.36
	S4.199,10.36,4,10.36H3.36V11C3.36,11.199,3.199,11.36,3,11.36z M15,4.36c-0.199,0-0.36-0.161-0.36-0.36V3.36H14
	c-0.199,0-0.36-0.161-0.36-0.36S13.801,2.64,14,2.64h0.64V2c0-0.199,0.161-0.36,0.36-0.36S15.36,1.801,15.36,2v0.64H16
	c0.199,0,0.36,0.161,0.36,0.36S16.199,3.36,16,3.36h-0.64V4C15.36,4.199,15.199,4.36,15,4.36z"/>
<rect id="_Transparent_Rectangle" style="fill:none;" width="32" height="32"/>
</svg>
