<?xml version="1.0" encoding="iso-8859-1"?>
<!-- Generator: Adobe Illustrator 22.0.0, SVG Export Plug-In . SVG Version: 6.00 Build 0)  -->
<svg version="1.1" xmlns="http://www.w3.org/2000/svg" xmlns:xlink="http://www.w3.org/1999/xlink" x="0px" y="0px"
	 viewBox="0 0 48 48" style="enable-background:new 0 0 48 48;" xml:space="preserve">
<g id="console">
	<g id="console_1_">
		<path style="fill:none;stroke:#000000;stroke-width:0.72;stroke-linecap:round;stroke-linejoin:round;stroke-miterlimit:10;" d="
			M37.321,38.371C36.7,38.769,35.961,39,35.168,39c0,0-0.136,0-0.338,0c-1.062,0.001-2.084-0.421-2.834-1.172L29,34.996H19
			l-3.029,2.843C15.222,38.583,14.208,39,13.153,39h-0.321c-0.793,0-1.532-0.231-2.153-0.629c-1.477-0.946-2.02-2.853-1.465-4.517
			l3.162-9.487C12.647,23.551,13.411,23,14.272,23h19.455c0.861,0,1.625,0.551,1.897,1.367l3.163,9.487
			C39.342,35.518,38.799,37.426,37.321,38.371z M14,29.5h6 M17,26.5v6"/>
		<path d="M32,27c0,0.552-0.448,1-1,1s-1-0.448-1-1c0-0.552,0.448-1,1-1S32,26.448,32,27z M31,31c-0.552,0-1,0.448-1,1s0.448,1,1,1
			s1-0.448,1-1S31.552,31,31,31z M28.5,28.5c-0.552,0-1,0.448-1,1c0,0.552,0.448,1,1,1c0.552,0,1-0.448,1-1
			C29.5,28.948,29.052,28.5,28.5,28.5z M33.5,28.5c-0.552,0-1,0.448-1,1c0,0.552,0.448,1,1,1s1-0.448,1-1
			C34.5,28.948,34.053,28.5,33.5,28.5z"/>
		<path style="fill:none;stroke:#000000;stroke-width:0.72;stroke-linejoin:round;stroke-miterlimit:10;" d="M24,23V13
			c0-2.209,1.791-4,4-4s4,1.791,4,4s-1.791,4-4,4H15"/>
	</g>
</g>
<g id="Layer_1">
</g>
</svg>
