<?xml version="1.0" encoding="iso-8859-1"?>
<!-- Generator: Adobe Illustrator 24.1.2, SVG Export Plug-In . SVG Version: 6.00 Build 0)  -->
<svg version="1.1" id="Layer_1" xmlns="http://www.w3.org/2000/svg" xmlns:xlink="http://www.w3.org/1999/xlink" x="0px" y="0px"
	 viewBox="0 0 32 32" style="enable-background:new 0 0 32 32;" xml:space="preserve">
<g id="consumer--engagement--food--journey">
	<g id="consumer--engagement--food--journey_1_">
		<path d="M14.255,7.746L11.877,5.36H27.64v2.28H26c-0.199,0-0.36,0.161-0.36,0.36v4c0,0.199,0.161,0.36,0.36,0.36h1.64v3.28H21
			v0.72h7c0.199,0,0.36-0.161,0.36-0.36v-3.64H30c0.199,0,0.36-0.161,0.36-0.36V8c0-0.199-0.161-0.36-0.36-0.36h-1.64V5
			c0-0.199-0.161-0.36-0.36-0.36H11.861l2.393-2.385l-0.508-0.51l-3.255,3.244l3.254,3.265L14.255,7.746z M29.64,8.36v3.28h-3.28
			V8.36H29.64z"/>
		<path d="M17.746,24.255l2.392,2.385H4.36v-2.28H6c0.199,0,0.36-0.161,0.36-0.36v-4c0-0.199-0.161-0.36-0.36-0.36H4.36v-3.28H11
			v-0.72H4c-0.199,0-0.36,0.161-0.36,0.36v3.64H2c-0.199,0-0.36,0.161-0.36,0.36v4c0,0.199,0.161,0.36,0.36,0.36h1.64V27
			c0,0.199,0.161,0.36,0.36,0.36h16.123l-2.378,2.386l0.51,0.508l3.254-3.265l-3.255-3.244L17.746,24.255z M2.36,23.64v-3.28h3.28
			v3.279L2.36,23.64L2.36,23.64z"/>
		<rect x="18.64" y="14" width="0.721" height="4"/>
		<rect x="14" y="12.64" width="4" height="0.72"/>
		<rect x="14" y="18.64" width="4" height="0.721"/>
		<path d="M3.13,8.64c0.268,0,0.496-0.074,0.717-0.146c0.427-0.138,0.88-0.138,1.307,0C5.374,8.566,5.603,8.64,5.87,8.64
			c1.207,0,2.49-1.434,2.49-4.092c0-2.095-1.2-2.408-1.915-2.408c-0.534,0-0.863,0.133-1.154,0.251
			C5.147,2.45,5.015,2.503,4.86,2.54V1H4.14v1.54C3.985,2.503,3.853,2.45,3.709,2.392C3.418,2.273,3.089,2.14,2.555,2.14
			C1.84,2.14,0.64,2.453,0.64,4.548C0.64,7.206,1.923,8.64,3.13,8.64z M2.555,2.86c0.394,0,0.62,0.092,0.883,0.199
			s0.559,0.227,1.007,0.244v0.002c0.038,0,0.073,0,0.109,0V3.302c0.448-0.017,0.744-0.137,1.007-0.244
			C5.825,2.952,6.051,2.86,6.445,2.86c0.513,0,1.195,0.175,1.195,1.688c0,2.083-0.919,3.372-1.77,3.372
			c-0.154,0-0.312-0.051-0.495-0.111C5.13,7.73,4.853,7.64,4.5,7.64S3.87,7.73,3.625,7.809C3.442,7.869,3.284,7.92,3.13,7.92
			c-0.851,0-1.77-1.29-1.77-3.372C1.36,3.035,2.042,2.86,2.555,2.86z"/>
		<path d="M28.785,26.54c0.366-0.423,0.574-0.966,0.574-1.54c0-1.302-1.059-2.36-2.359-2.36c-1.302,0-2.36,1.059-2.36,2.36
			c0,0.574,0.208,1.117,0.574,1.54c-1.542,0.695-2.574,2.244-2.574,3.959V31h0.721v-0.501c0-1.605,1.087-3.038,2.643-3.483
			c0.136-0.038,0.236-0.152,0.257-0.291c0.021-0.14-0.04-0.278-0.158-0.355c-0.465-0.307-0.743-0.818-0.743-1.37
			c0-0.904,0.735-1.64,1.64-1.64c0.903,0,1.639,0.735,1.639,1.64c0,0.552-0.277,1.063-0.741,1.369
			c-0.118,0.077-0.18,0.216-0.158,0.355c0.021,0.139,0.121,0.253,0.257,0.291c1.557,0.445,2.644,1.878,2.644,3.483V31h0.721v-0.501
			C31.36,28.785,30.327,27.235,28.785,26.54z"/>
		<rect x="12.64" y="14" width="0.72" height="4"/>
	</g>
</g>
<rect id="_Transparent_Rectangle" style="fill:none;" width="32" height="32"/>
</svg>
