<?xml version="1.0" encoding="iso-8859-1"?>
<!-- Generator: Adobe Illustrator 24.3.0, SVG Export Plug-In . SVG Version: 6.00 Build 0)  -->
<svg version="1.1" id="Layer_1" xmlns="http://www.w3.org/2000/svg" xmlns:xlink="http://www.w3.org/1999/xlink" x="0px" y="0px"
	 viewBox="0 0 32 32" style="enable-background:new 0 0 32 32;" xml:space="preserve">
<path id="content--design_1_" d="M30.36,31h-0.72V15.36H8.36V21c0,0.199-0.161,0.36-0.36,0.36H2.36V31H1.64V21
	c0-0.096,0.038-0.188,0.105-0.255l6-6C7.813,14.678,7.904,14.64,8,14.64h22c0.199,0,0.36,0.161,0.36,0.36V31z M2.869,20.64H7.64
	v-4.771L2.869,20.64z M27,30.36h-2c-0.199,0-0.36-0.161-0.36-0.36v-2c0-0.199,0.161-0.36,0.36-0.36h2c0.199,0,0.36,0.161,0.36,0.36
	v2C27.36,30.199,27.199,30.36,27,30.36z M25.36,29.64h1.279v-1.28H25.36V29.64z M22,30.36h-2c-0.199,0-0.36-0.161-0.36-0.36v-2
	c0-0.199,0.161-0.36,0.36-0.36h2c0.199,0,0.36,0.161,0.36,0.36v2C22.36,30.199,22.199,30.36,22,30.36z M20.36,29.64h1.279v-1.28
	H20.36V29.64z M17,30.36h-2c-0.199,0-0.36-0.161-0.36-0.36v-2c0-0.199,0.161-0.36,0.36-0.36h2c0.199,0,0.36,0.161,0.36,0.36v2
	C17.36,30.199,17.199,30.36,17,30.36z M15.36,29.64h1.28v-1.28h-1.28V29.64z M12,30.36h-2c-0.199,0-0.36-0.161-0.36-0.36v-2
	c0-0.199,0.161-0.36,0.36-0.36h2c0.199,0,0.36,0.161,0.36,0.36v2C12.36,30.199,12.199,30.36,12,30.36z M10.36,29.64h1.28v-1.28
	h-1.28V29.64z M7,30.36H5c-0.199,0-0.36-0.161-0.36-0.36v-2c0-0.199,0.161-0.36,0.36-0.36h2c0.199,0,0.36,0.161,0.36,0.36v2
	C7.36,30.199,7.199,30.36,7,30.36z M5.36,29.64h1.28v-1.28H5.36V29.64z M27,26.36h-2c-0.199,0-0.36-0.161-0.36-0.36v-2
	c0-0.199,0.161-0.36,0.36-0.36h2c0.199,0,0.36,0.161,0.36,0.36v2C27.36,26.199,27.199,26.36,27,26.36z M25.36,25.64h1.279v-1.28
	H25.36V25.64z M17,26.36h-2c-0.199,0-0.36-0.161-0.36-0.36v-2c0-0.199,0.161-0.36,0.36-0.36h2c0.199,0,0.36,0.161,0.36,0.36v2
	C17.36,26.199,17.199,26.36,17,26.36z M15.36,25.64h1.28v-1.28h-1.28V25.64z M7,26.36H5c-0.199,0-0.36-0.161-0.36-0.36v-2
	c0-0.199,0.161-0.36,0.36-0.36h2c0.199,0,0.36,0.161,0.36,0.36v2C7.36,26.199,7.199,26.36,7,26.36z M5.36,25.64h1.28v-1.28H5.36
	V25.64z M17,21.36h-2c-0.199,0-0.36-0.161-0.36-0.36v-2c0-0.199,0.161-0.36,0.36-0.36h2c0.199,0,0.36,0.161,0.36,0.36v2
	C17.36,21.199,17.199,21.36,17,21.36z M15.36,20.64h1.28v-1.28h-1.28V20.64z M22,13.36h-2c-0.199,0-0.36-0.161-0.36-0.36v-2
	c0-0.199,0.161-0.36,0.36-0.36h2c0.199,0,0.36,0.161,0.36,0.36v2C22.36,13.199,22.199,13.36,22,13.36z M20.36,12.64h1.279v-1.28
	H20.36V12.64z M12,13.36h-2c-0.199,0-0.36-0.161-0.36-0.36v-2c0-0.199,0.161-0.36,0.36-0.36h2c0.199,0,0.36,0.161,0.36,0.36v2
	C12.36,13.199,12.199,13.36,12,13.36z M10.36,12.64h1.28v-1.28h-1.28V12.64z M27,8.36h-2c-0.199,0-0.36-0.161-0.36-0.36V6
	c0-0.199,0.161-0.36,0.36-0.36h2c0.199,0,0.36,0.161,0.36,0.36v2C27.36,8.199,27.199,8.36,27,8.36z M25.36,7.64h1.279V6.36H25.36
	V7.64z M17,8.36h-2c-0.199,0-0.36-0.161-0.36-0.36V6c0-0.199,0.161-0.36,0.36-0.36h2c0.199,0,0.36,0.161,0.36,0.36v2
	C17.36,8.199,17.199,8.36,17,8.36z M15.36,7.64h1.28V6.36h-1.28V7.64z M22,3.36h-2c-0.199,0-0.36-0.161-0.36-0.36V1
	c0-0.199,0.161-0.36,0.36-0.36h2c0.199,0,0.36,0.161,0.36,0.36v2C22.36,3.199,22.199,3.36,22,3.36z M20.36,2.64h1.279V1.36H20.36
	V2.64z M12,3.36h-2C9.801,3.36,9.64,3.199,9.64,3V1c0-0.199,0.161-0.36,0.36-0.36h2c0.199,0,0.36,0.161,0.36,0.36v2
	C12.36,3.199,12.199,3.36,12,3.36z M10.36,2.64h1.28V1.36h-1.28V2.64z"/>
<rect id="_Transparent_Rectangle" style="fill:none;" width="32" height="32"/>
</svg>
