<?xml version="1.0" encoding="iso-8859-1"?>
<!-- Generator: Adobe Illustrator 29.1.0, SVG Export Plug-In . SVG Version: 9.03 Build 55587)  -->
<svg version="1.1" id="Layer_1" xmlns="http://www.w3.org/2000/svg" xmlns:xlink="http://www.w3.org/1999/xlink" x="0px" y="0px"
	 viewBox="0 0 32 32" style="enable-background:new 0 0 32 32;" xml:space="preserve">
<path id="containers--02_00000089537827227920734630000011466649423061855930_" d="M29,31.36H3c-1.301,0-2.36-1.059-2.36-2.36V3
	c0-1.301,1.059-2.36,2.36-2.36h13v0.72H3C2.096,1.36,1.36,2.096,1.36,3v26c0,0.904,0.736,1.64,1.64,1.64h26
	c0.904,0,1.64-0.735,1.64-1.64V16h0.721v13C31.36,30.302,30.302,31.36,29,31.36z M25,25.36H7c-0.199,0-0.36-0.161-0.36-0.36V7
	c0-0.199,0.161-0.36,0.36-0.36h9c0.199,0,0.36,0.161,0.36,0.36v8.64H25c0.199,0,0.36,0.161,0.36,0.36v9
	C25.36,25.199,25.199,25.36,25,25.36z M16.36,24.64h8.28v-8.28h-8.28V24.64z M7.36,24.64h8.28v-8.28H7.36V24.64z M7.36,15.64h8.28
	V7.36H7.36V15.64z M31,10.36h-9c-0.199,0-0.36-0.161-0.36-0.36V1c0-0.199,0.161-0.36,0.36-0.36h9c0.199,0,0.36,0.161,0.36,0.36v9
	C31.36,10.199,31.199,10.36,31,10.36z M22.36,9.64h8.279V1.36H22.36V9.64z"/>
<rect id="_Transparent_Rectangle" style="fill:none;" width="32" height="32"/>
</svg>
