<?xml version="1.0" encoding="iso-8859-1"?>
<!-- Generator: Adobe Illustrator 24.1.2, SVG Export Plug-In . SVG Version: 6.00 Build 0)  -->
<svg version="1.1" id="Layer_1" xmlns="http://www.w3.org/2000/svg" xmlns:xlink="http://www.w3.org/1999/xlink" x="0px" y="0px"
	 viewBox="0 0 32 32" style="enable-background:new 0 0 32 32;" xml:space="preserve">
<path id="copenhagen--planetarium_1_" d="M27.233,6.516c-0.001-0.001-0.001-0.002-0.001-0.003c0,0-0.001,0-0.001-0.001
	S27.23,6.511,27.23,6.51h-0.001c-0.631-0.932-1.486-1.761-2.542-2.465c0,0,0-0.001-0.001-0.001c-1.047-0.698-2.275-1.262-3.65-1.676
	c-1.597-0.481-3.306-0.722-5.016-0.724c-0.007,0-0.012-0.004-0.019-0.004s-0.012,0.003-0.019,0.004
	c-1.698,0.002-3.396,0.24-4.983,0.715c-0.001,0-0.001,0-0.002,0c-0.01,0.003-0.021,0.005-0.032,0.008
	C9.592,2.781,8.366,3.344,7.321,4.041C7.319,4.042,7.317,4.042,7.315,4.043l0,0C6.259,4.747,5.403,5.577,4.771,6.51
	C4.77,6.511,4.77,6.512,4.769,6.513l0,0l0,0C4.02,7.62,3.64,8.792,3.64,10v7.64v0.721v3.279v0.721v8h2.509l2-2h2l2-2H14V25.64
	h-2.149l-2,2h-2l-2,2H4.36v-3.28h1.789l2-2h2l2-2H14v-0.72h-2.149l-2,2h-2l-2,2H4.36v-3.28h1.789l2-2h2.211v-0.72H7.851l-2,2H4.36
	v-3.28h2v-0.72h-2v-4.855c1.663,3.17,6.067,5.462,11.28,5.564V30c0,0.199,0.161,0.36,0.36,0.36c0.199,0,0.36-0.161,0.36-0.36V18.348
	c5.212-0.102,9.616-2.393,11.28-5.562v4.854h-2v0.721h2v3.279h-1.49l-2-2h-2.51v0.721h2.211l2,2h1.789v3.279h-1.49l-2-2h-2l-2-2H18
	v0.721h1.851l2,2h2l2,2h1.789v3.279h-1.49l-2-2h-2l-2-2H18v0.721h1.851l2,2h2l2,2h2.51v-8V21.64v-3.28v-0.72V10
	C28.36,8.792,27.98,7.621,27.233,6.516z M5.185,7.223l10.455,6.97v3.135L4.375,9.817C4.407,8.928,4.682,8.059,5.185,7.223z
	 M16.36,6.193l4.624-3.083c1.045,0.327,1.993,0.747,2.832,1.248l-7.456,4.97C16.36,9.328,16.36,6.193,16.36,6.193z M16.36,5.328
	V2.376c1.257,0.026,2.505,0.187,3.704,0.483L16.36,5.328z M15.64,5.328l-3.703-2.469c1.198-0.296,2.447-0.457,3.703-0.483V5.328z
	 M11.016,3.11l4.624,3.083v3.135L8.184,4.357C9.024,3.856,9.971,3.437,11.016,3.11z M16.36,14.193l10.455-6.97
	c0.504,0.836,0.778,1.706,0.811,2.595l-11.265,7.51L16.36,14.193L16.36,14.193z M26.414,6.625L16.36,13.328v-3.135l8.116-5.411
	C25.254,5.326,25.902,5.945,26.414,6.625z M7.524,4.782l8.116,5.411v3.135L5.586,6.625C6.099,5.944,6.747,5.326,7.524,4.782z
	 M4.415,10.709l10.326,6.884C9.267,17.204,4.923,14.317,4.415,10.709z M17.26,17.593l10.325-6.884
	C27.076,14.317,22.732,17.204,17.26,17.593z"/>
<rect id="_Transparent_Rectangle" style="fill:none;" width="32" height="32"/>
</svg>
