<svg xmlns="http://www.w3.org/2000/svg" viewBox="0 0 48 48"><path fill="none" stroke-linejoin="round" stroke-miterlimit="10" stroke-width=".72" d="M16,11 c3.314,0,6,2.686,6,6s-2.686,6-6,6h10c3.314,0,6-2.686,6-6s-2.686-6-6-6H16z"/><line x1="24" x2="24" y1="9" y2="11" fill="none" stroke-miterlimit="10" stroke-width=".72"/><line x1="24" x2="24" y1="23" y2="27" fill="none" stroke-miterlimit="10" stroke-width=".72"/><circle cx="18" cy="30" r="1" fill="none" stroke-linecap="round" stroke-linejoin="round" stroke-miterlimit="10" stroke-width=".72"/><circle cx="18" cy="30" r="3" fill="none" stroke-linecap="round" stroke-linejoin="round" stroke-miterlimit="10" stroke-width=".72"/><circle cx="24" cy="30" r="1" fill="none" stroke-linecap="round" stroke-linejoin="round" stroke-miterlimit="10" stroke-width=".72"/><circle cx="30" cy="30" r="1" fill="none" stroke-linecap="round" stroke-linejoin="round" stroke-miterlimit="10" stroke-width=".72"/><polyline fill="none" stroke-linecap="round" stroke-linejoin="round" stroke-miterlimit="10" stroke-width=".72" points="37,26 37,24 39,26"/><path fill="none" stroke-linejoin="round" stroke-miterlimit="10" stroke-width=".72" d="M11,26v6 c0,2.209,1.791,4,4,4h18c2.209,0,4-1.791,4-4v-6c0,2.209-1.791,4-4,4"/><path fill="none" stroke-linejoin="round" stroke-miterlimit="10" stroke-width=".72" d="M11,26 c0,2.209,1.791,4,4,4"/><line x1="27.879" x2="21" y1="32.121" y2="39" fill="none" stroke-linecap="round" stroke-linejoin="round" stroke-miterlimit="10" stroke-width=".72"/><path fill="none" stroke-linecap="round" stroke-linejoin="round" stroke-miterlimit="10" stroke-width=".72" d="M27.879,32.121C28.422,32.664,29.172,33,30,33s1.578-0.336,2.121-0.879C32.664,31.578,33,30.828,33,30s-0.336-1.578-0.879-2.121 S30.828,27,30,27s-1.578,0.336-2.121,0.879C27.336,28.422,27,29.172,27,30S27.336,31.578,27.879,32.121z"/><line x1="21.879" x2="15" y1="32.121" y2="39" fill="none" stroke-linecap="round" stroke-linejoin="round" stroke-miterlimit="10" stroke-width=".72"/><path fill="none" stroke-linecap="round" stroke-linejoin="round" stroke-miterlimit="10" stroke-width=".72" d="M21.879,32.121C22.422,32.664,23.172,33,24,33s1.578-0.336,2.121-0.879C26.664,31.578,27,30.828,27,30s-0.336-1.578-0.879-2.121 S24.828,27,24,27s-1.578,0.336-2.121,0.879C21.336,28.422,21,29.172,21,30S21.336,31.578,21.879,32.121z"/></svg>