<svg xmlns="http://www.w3.org/2000/svg" viewBox="0 0 48 48"><line x1="34" x2="36" y1="26" y2="26" fill="none" stroke-linecap="square" stroke-miterlimit="10" stroke-width=".696"/><polyline fill="none" stroke-linecap="square" stroke-miterlimit="10" stroke-width=".696" points="18,28 16,28 14,30 12,30"/><polyline fill="none" stroke-miterlimit="10" stroke-width=".696" points="22,30 20,30 18,32 16,32 14,34 12,34"/><line x1="14" x2="12" y1="26" y2="26" fill="none" stroke-linecap="square" stroke-miterlimit="10" stroke-width=".696"/><polyline fill="none" stroke-miterlimit="10" stroke-width=".696" points="22,34 20,34 18,36 16,36 14,38 12,38 12,18"/><polyline fill="none" stroke-miterlimit="10" stroke-width=".696" points="26,34 28,34 30,36 32,36 34,38 36,38 36,18"/><polyline fill="none" stroke-miterlimit="10" stroke-width=".696" points="26,30 28,30 30,32 32,32 34,34 36,34"/><polyline fill="none" stroke-linecap="square" stroke-miterlimit="10" stroke-width=".696" points="30,28 32,28 34,30 36,30"/><polyline fill="none" stroke-linecap="round" stroke-linejoin="round" stroke-miterlimit="10" stroke-width=".72" points="12,18 24,26 36,18"/><path fill="none" stroke-linecap="round" stroke-linejoin="round" stroke-miterlimit="10" stroke-width=".72" d="M13.068,14.712c0.601-0.886,1.428-1.69,2.446-2.369"/><path fill="none" stroke-linecap="round" stroke-linejoin="round" stroke-miterlimit="10" stroke-width=".72" d="M13.068,14.712C12.388,15.716,12,16.827,12,18c0,4.418,5.373,8,12,8s12-3.582,12-8c0-1.173-0.388-2.284-1.068-3.288"/><path fill="none" stroke-linecap="round" stroke-linejoin="round" stroke-miterlimit="10" stroke-width=".72" d="M34.932,14.712c-0.601-0.886-1.428-1.69-2.446-2.369"/><path fill="none" stroke-linecap="round" stroke-linejoin="round" stroke-miterlimit="10" stroke-width=".72" d="M32.485,12.343c-1.018-0.679-2.224-1.23-3.554-1.631"/><path fill="none" stroke-linecap="round" stroke-linejoin="round" stroke-miterlimit="10" stroke-width=".72" d="M19.069,10.712C20.574,10.259,22.24,10,24,10s3.426,0.259,4.931,0.712"/><path fill="none" stroke-linecap="round" stroke-linejoin="round" stroke-miterlimit="10" stroke-width=".72" d="M19.069,10.712c-1.33,0.401-2.535,0.952-3.554,1.631"/><polyline fill="none" stroke-linecap="round" stroke-linejoin="round" stroke-miterlimit="10" stroke-width=".72" points="34.932,14.712 24,22 13.068,14.712"/><polyline fill="none" stroke-linecap="round" stroke-linejoin="round" stroke-miterlimit="10" stroke-width=".72" points="32.485,12.343 24,18 15.515,12.343"/><polyline fill="none" stroke-linecap="round" stroke-linejoin="round" stroke-miterlimit="10" stroke-width=".72" points="19.069,10.712 24,14 28.931,10.712"/><line x1="24" x2="24" y1="10" y2="38" fill="none" stroke-linecap="round" stroke-linejoin="round" stroke-miterlimit="10" stroke-width=".696"/></svg>