<?xml version="1.0" encoding="UTF-8"?>
<svg id="Layer_1" data-name="Layer 1" xmlns="http://www.w3.org/2000/svg" width="32" height="32" viewBox="0 0 32 32">
  <defs>
    <style>
      .cls-1 {
        fill: none;
      }
    </style>
  </defs>
  <path id="crab" d="M24.3604,27h-.7207c0-.9043-.7354-1.6396-1.6396-1.6396h-2.3057c-1.042.6289-2.3174,1-3.6943,1s-2.6523-.3711-3.6948-1h-2.3052c-.9043,0-1.6401.7354-1.6401,1.6396h-.7197c0-1.3018,1.0586-2.3604,2.3599-2.3604h1.3364c-.4175-.3799-.771-.8105-1.0454-1.2793h-1.291c-.9043,0-1.6401.7354-1.6401,1.6396h-.7197c0-1.3018,1.0586-2.3604,2.3599-2.3604h.9453c-.1562-.4072-.2554-.8359-.291-1.2793h-1.6543c-.9043,0-1.6401.7354-1.6401,1.6396h-.7197c0-1.3018,1.0586-2.3604,2.3599-2.3604h1.6538c.0234-.2969.0757-.5879.1548-.8701-.9746-.0195-2.1157-.5742-3.063-1.5215-.5874-.5879-1.0415-1.2734-1.2949-1.9526-1.0371-.248-1.8105-1.1831-1.8105-2.2954,0-.8057.417-1.5557,1.0845-1.9858-.3555-1.5591.4463-3.6978,2.021-5.269,1.25-1.2466,2.9165-2.0728,4.2456-2.105.1431-.0137.2759.0791.3359.21s.0361.2852-.0605.3916c-1.1465,1.2656-1.6245,2.9028-1.0225,3.5034.6035.6045,2.2476.1294,3.5146-1.0127.1079-.0957.2598-.1196.3916-.0596.1304.0601.2129.1919.2095.3359-.0322,1.3359-.8589,3.0024-2.1055,4.2461-.8145.812-1.8291,1.4556-2.7979,1.8081.2783.1978.5469.4248.7979.6753.7134.7139,1.2139,1.5488,1.416,2.3379.4756-.3726,1.0181-.6846,1.6113-.9219-.3853-.2402-.6416-.668-.6416-1.1543,0-.75.6099-1.3599,1.3599-1.3599s1.3599.6099,1.3599,1.3599c0,.2495-.0674.4839-.1851.6851.54-.0596,1.1104-.0596,1.6504,0-.1177-.2012-.1851-.4355-.1851-.6851,0-.75.6099-1.3599,1.3599-1.3599s1.3604.6099,1.3604,1.3599c0,.4863-.2568.9141-.6416,1.1543.5928.2373,1.1357.5493,1.6113.9219.2021-.7891.7021-1.6245,1.415-2.3374.2549-.2549.5215-.4805.7979-.6763-.9697-.353-1.9834-.9961-2.7969-1.8076-1.2471-1.2432-2.0732-2.9097-2.1064-4.2461-.0029-.144.0791-.2759.21-.3359.1299-.0601.2842-.0361.3916.0596,1.2676,1.1426,2.9092,1.6162,3.5156,1.0127.6016-.6001.123-2.2373-1.0234-3.5034-.0967-.1069-.1211-.2607-.0605-.3916.0596-.1309.1953-.2271.3359-.21,1.3291.0322,2.9951.8584,4.2451,2.105,1.5752,1.5708,2.377,3.71,2.0215,5.269.667.4302,1.085,1.1802,1.085,1.9858,0,1.1123-.7734,2.0474-1.8105,2.2954-.2539.6792-.708,1.3647-1.2949,1.9526-.9473.9473-2.0889,1.502-3.0635,1.5215.0791.2822.1309.5732.1543.8701h1.6543c1.3018,0,2.3604,1.0586,2.3604,2.3604h-.7207c0-.9043-.7354-1.6396-1.6396-1.6396h-1.6543c-.0352.4434-.1348.8721-.291,1.2793h.9453c1.3018,0,2.3604,1.0586,2.3604,2.3604h-.7207c0-.9043-.7354-1.6396-1.6396-1.6396h-1.291c-.2744.4688-.6279.8994-1.0459,1.2793h1.3369c1.3018,0,2.3604,1.0586,2.3604,2.3604ZM16,16.3599c-3.1099,0-5.6401,2.0806-5.6401,4.6372,0,2.5605,2.5303,4.6426,5.6401,4.6426s5.6396-2.082,5.6396-4.6426c0-2.5566-2.5293-4.6372-5.6396-4.6372ZM21.9189,19.0361c.8037.1045,1.9395-.4092,2.8262-1.2979.4277-.4268.7725-.9082,1.002-1.3916-1.0713-.1147-1.9307-.9492-2.083-2.0088-.0537-.0063-.1074-.0137-.1611-.022-.4326.2266-.8623.5469-1.249.9321-.7402.7402-1.2266,1.645-1.2959,2.3975.3975.417.7236.8848.9609,1.3906ZM6.2534,16.3467c.2295.4834.5742.9648,1.001,1.3916.8877.8887,2.02,1.4023,2.8271,1.2979.2368-.5059.5625-.9736.9609-1.3906-.0693-.752-.5562-1.6567-1.2969-2.3979-.3843-.3838-.8135-.7041-1.2471-.9312-.0547.0083-.1089.0156-.1626.022-.1528,1.0591-1.0117,1.8936-2.0825,2.0083ZM24.3965,14.3433c.1582.7397.8164,1.2969,1.6035,1.2969.9043,0,1.6396-.7358,1.6396-1.6401,0-.501-.2324-.9712-.6133-1.2788-.3301.644-1.1416,1.4927-2.6299,1.6221ZM18,14.3599c-.3525,0-.6396.2871-.6396.6401s.2871.6401.6396.6401.6396-.2871.6396-.6401-.2871-.6401-.6396-.6401ZM14,14.3599c-.353,0-.6401.2871-.6401.6401s.2871.6401.6401.6401.6401-.2871.6401-.6401-.2871-.6401-.6401-.6401ZM4.9741,12.7212c-.3818.3071-.6143.7773-.6143,1.2788,0,.9043.7358,1.6401,1.6401,1.6401.7866,0,1.4458-.5571,1.604-1.2974-1.4897-.1309-2.3003-.978-2.6299-1.6216ZM18.4922,8.8359c.2666.9766.9131,2.0625,1.7617,2.9092,1.1182,1.1152,2.626,1.877,3.752,1.895,2.0137,0,2.4609-1.4404,2.4648-1.4551.0029-.0103.0068-.02.0107-.0298.5088-1.2998-.2373-3.4067-1.7354-4.9004-.8486-.8457-1.9307-1.4902-2.9014-1.7588.8965,1.3267,1.2666,2.9146.4199,3.7588-.8359.833-2.4521.4585-3.7725-.4189ZM5.5283,12.1826c.0186.0596.4741,1.4575,2.4717,1.4575,1.1196-.0181,2.6274-.7798,3.7456-1.895.8491-.8467,1.4951-1.9331,1.7617-2.9092-1.3198.8774-2.9365,1.252-3.772.4189-.8335-.8315-.4551-2.4434.4243-3.7603-.9717.2676-2.0562.9131-2.9053,1.7603-1.498,1.4941-2.2441,3.6011-1.7354,4.9004.0034.0093.0063.0181.0093.0273h0Z"/>
  <rect id="Transparent_Rectangle" data-name="Transparent Rectangle" class="cls-1" width="32" height="32"/>
</svg>