<?xml version="1.0" encoding="UTF-8"?>
<svg id="Layer_1" data-name="Layer 1" xmlns="http://www.w3.org/2000/svg" width="32" height="32" viewBox="0 0 32 32">
  <defs>
    <style>
      .cls-1 {
        fill: none;
      }
    </style>
  </defs>
  <g id="seams">
    <g>
      <rect x="28.1465" y="4.9934" width=".9999" height=".7202" transform="translate(4.6207 21.8472) rotate(-45.0549)"/>
      <path d="M17.6865,16.8232l-.5098-.5088,1.4473-1.4482.5098.5088-1.4473,1.4482ZM19.8584,14.6509l-.5098-.5088,1.4482-1.4482.5098.5088-1.4482,1.4482ZM22.0303,12.4785l-.5098-.5088,1.4482-1.4482.5098.5088-1.4482,1.4482ZM24.2031,10.3062l-.5098-.5088,1.4482-1.4482.5098.5088-1.4482,1.4482ZM26.375,8.1338l-.5098-.5088,1.4482-1.4482.5098.5088-1.4482,1.4482Z"/>
      <rect x="15.8536" y="17.2864" width=".9999" height=".7202" transform="translate(-7.6872 16.7092) rotate(-44.9451)"/>
    </g>
    <g>
      <rect x="26.1465" y="2.9934" width=".9999" height=".7202" transform="translate(5.4491 19.8445) rotate(-45.0549)"/>
      <path d="M15.6855,14.8232l-.5088-.5088,1.4482-1.4482.5088.5088-1.4482,1.4482ZM17.8584,12.6509l-.5098-.5088,1.4482-1.4482.5098.5088-1.4482,1.4482ZM20.0303,10.4785l-.5098-.5088,1.4482-1.4482.5098.5088-1.4482,1.4482ZM22.2031,8.3062l-.5098-.5088,1.4482-1.4482.5098.5088-1.4482,1.4482ZM24.375,6.1338l-.5098-.5088,1.4482-1.4482.5098.5088-1.4482,1.4482Z"/>
      <rect x="13.8536" y="15.2867" width=".9999" height=".7195" transform="translate(-6.8597 14.7322) rotate(-45)"/>
    </g>
  </g>
  <path id="ball" d="M1.2544,31.2549l-.5088-.5098,12-12,.5088.5098L1.2544,31.2549ZM16.2544,26.2549l-.5088-.5098,3.9995-4,.5098.5098-4.0005,4ZM21.5,20.3604c-5.437,0-9.8599-4.4233-9.8599-9.8604S16.063.6401,21.5.6401s9.8604,4.4229,9.8604,9.8599-4.4238,9.8604-9.8604,9.8604ZM15.2998,17.21c1.6304,1.5078,3.8096,2.4297,6.2002,2.4297,5.04,0,9.1396-4.0996,9.1396-9.1396,0-2.3906-.9219-4.5698-2.4297-6.2002l-12.9102,12.9102ZM21.5,1.3599c-5.04,0-9.1401,4.1001-9.1401,9.1401,0,2.3906.9229,4.5698,2.4307,6.2002L27.7002,3.7905c-1.6299-1.5078-3.8096-2.4307-6.2002-2.4307ZM2.2544,20.2549l-.5088-.5098,8-7.9995.5088.5088L2.2544,20.2549Z"/>
  <rect id="Transparent_Rectangle" data-name="Transparent Rectangle" class="cls-1" width="32" height="32"/>
</svg>