<?xml version="1.0" encoding="iso-8859-1"?>
<!-- Generator: Adobe Illustrator 29.1.0, SVG Export Plug-In . SVG Version: 9.03 Build 55587)  -->
<svg version="1.1" id="Layer_1" xmlns="http://www.w3.org/2000/svg" xmlns:xlink="http://www.w3.org/1999/xlink" x="0px" y="0px"
	 viewBox="0 0 32 32" style="enable-background:new 0 0 32 32;" xml:space="preserve">
<path id="dallas--skyline" d="M25.5,5.36H30c0.75,0,1.36-0.61,1.36-1.36c0-0.639-0.443-1.177-1.039-1.322
	C30.157,2,29.458,1.508,28.736,1.67c-0.233-0.604-0.816-1.03-1.486-1.03c-0.663,0-1.242,0.418-1.478,1.022
	C24.647,1.478,23.64,2.384,23.64,3.5C23.64,4.525,24.475,5.36,25.5,5.36z M25.5,2.36c0.126,0,0.257,0.027,0.398,0.083
	c0.104,0.041,0.22,0.031,0.315-0.026c0.096-0.058,0.159-0.156,0.173-0.266c0.055-0.458,0.418-0.79,0.863-0.79
	c0.465,0,0.84,0.357,0.873,0.831c0.009,0.126,0.083,0.238,0.196,0.295c0.112,0.058,0.248,0.052,0.354-0.016
	C28.794,2.395,28.897,2.36,29,2.36c0.353,0,0.64,0.287,0.64,0.64c0,0.199,0.161,0.36,0.36,0.36c0.353,0,0.64,0.287,0.64,0.64
	S30.353,4.64,30,4.64h-4.5c-0.629,0-1.14-0.512-1.14-1.14S24.871,2.36,25.5,2.36z M30.36,15c0-0.199-0.161-0.36-0.36-0.36h-1.64V13
	c0-0.199-0.161-0.36-0.36-0.36s-0.36,0.161-0.36,0.36v1.64h-1.28V11c0-0.199-0.161-0.36-0.36-0.36s-0.36,0.161-0.36,0.36v3.64h-1.28
	V13c0-0.199-0.161-0.36-0.36-0.36s-0.36,0.161-0.36,0.36v1.64H22c-0.199,0-0.36,0.161-0.36,0.36v15.64h-1.28V8
	c0-0.199-0.161-0.36-0.36-0.36h-0.64V5c0-0.199-0.161-0.36-0.36-0.36h-6c-0.199,0-0.36,0.161-0.36,0.36v2.64H12
	c-0.199,0-0.36,0.161-0.36,0.36v12.64H9c-0.199,0-0.36,0.161-0.36,0.36v9.64H7.36V15.665c1.203-0.777,2-2.129,2-3.665
	c0-2.404-1.956-4.36-4.36-4.36S0.64,9.596,0.64,12c0,1.535,0.797,2.888,2,3.665V30.64H1v0.721h30V30.64h-0.64V15z M1.409,12.482
	C1.439,12.487,1.468,12.5,1.5,12.5C1.776,12.5,2,12.276,2,12s-0.224-0.5-0.5-0.5c-0.032,0-0.061,0.013-0.091,0.018
	C1.528,10.631,1.96,9.85,2.6,9.285C2.691,9.412,2.832,9.5,3,9.5c0.276,0,0.5-0.224,0.5-0.5c0-0.098-0.036-0.185-0.085-0.262
	c0.342-0.167,0.712-0.277,1.103-0.33C4.513,8.439,4.5,8.468,4.5,8.5C4.5,8.776,4.724,9,5,9s0.5-0.224,0.5-0.5
	c0-0.032-0.013-0.061-0.018-0.091c0.391,0.052,0.761,0.163,1.103,0.33C6.536,8.815,6.5,8.902,6.5,9c0,0.276,0.224,0.5,0.5,0.5
	c0.168,0,0.309-0.088,0.4-0.215c0.64,0.566,1.072,1.347,1.191,2.234C8.561,11.513,8.532,11.5,8.5,11.5C8.224,11.5,8,11.724,8,12
	s0.224,0.5,0.5,0.5c0.032,0,0.061-0.013,0.091-0.018C8.472,13.369,8.04,14.149,7.4,14.715C7.309,14.588,7.168,14.5,7,14.5
	c-0.276,0-0.5,0.224-0.5,0.5c0,0.098,0.036,0.185,0.085,0.262c-0.342,0.167-0.712,0.277-1.103,0.33
	C5.487,15.561,5.5,15.532,5.5,15.5C5.5,15.224,5.276,15,5,15s-0.5,0.224-0.5,0.5c0,0.032,0.013,0.061,0.018,0.091
	c-0.391-0.052-0.761-0.163-1.103-0.33C3.464,15.185,3.5,15.098,3.5,15c0-0.276-0.224-0.5-0.5-0.5c-0.168,0-0.309,0.088-0.4,0.215
	C1.96,14.149,1.528,13.369,1.409,12.482z M4.64,30.64H3.36v-14.6c0.401,0.163,0.831,0.269,1.28,0.305V30.64z M6.64,30.64H5.36
	V16.345c0.449-0.037,0.879-0.142,1.28-0.305C6.64,16.04,6.64,30.64,6.64,30.64z M11.64,30.64H9.36v-9.28h2.28
	C11.64,21.36,11.64,30.64,11.64,30.64z M16.36,5.36h2.28v2.28h-2.28V5.36z M15.64,30.64h-3.28V8.36h3.28V30.64z M15.64,7.64h-2.28
	V5.36h2.28V7.64z M19.64,30.64h-3.28V8.36h3.28V30.64z M22.36,15.36h3.279v15.28H22.36V15.36z M29.64,30.64h-3.28V15.36h3.279
	L29.64,30.64L29.64,30.64z M6.5,11c0-0.276,0.224-0.5,0.5-0.5s0.5,0.224,0.5,0.5S7.276,11.5,7,11.5S6.5,11.276,6.5,11z M6.5,13
	c0-0.276,0.224-0.5,0.5-0.5s0.5,0.224,0.5,0.5S7.276,13.5,7,13.5S6.5,13.276,6.5,13z M2.5,11c0-0.276,0.224-0.5,0.5-0.5
	s0.5,0.224,0.5,0.5S3.276,11.5,3,11.5S2.5,11.276,2.5,11z M2.5,13c0-0.276,0.224-0.5,0.5-0.5s0.5,0.224,0.5,0.5S3.276,13.5,3,13.5
	S2.5,13.276,2.5,13z M4.5,14c0-0.276,0.224-0.5,0.5-0.5s0.5,0.224,0.5,0.5S5.276,14.5,5,14.5S4.5,14.276,4.5,14z M4.5,12
	c0-0.276,0.224-0.5,0.5-0.5s0.5,0.224,0.5,0.5S5.276,12.5,5,12.5S4.5,12.276,4.5,12z M4.5,10c0-0.276,0.224-0.5,0.5-0.5
	S5.5,9.724,5.5,10S5.276,10.5,5,10.5S4.5,10.276,4.5,10z"/>
</svg>
