<?xml version="1.0" encoding="iso-8859-1"?>
<!-- Generator: Adobe Illustrator 29.1.0, SVG Export Plug-In . SVG Version: 9.03 Build 55587)  -->
<svg version="1.1" id="Layer_1" xmlns="http://www.w3.org/2000/svg" xmlns:xlink="http://www.w3.org/1999/xlink" x="0px" y="0px"
	 viewBox="0 0 32 32" style="enable-background:new 0 0 32 32;" xml:space="preserve">
<path id="dallas--reunion-tower_00000132768522903838221250000003001160717690573234_" d="M17.5,2.5C17.5,2.224,17.724,2,18,2
	s0.5,0.224,0.5,0.5S18.276,3,18,3S17.5,2.776,17.5,2.5z M18,15c0.276,0,0.5-0.224,0.5-0.5S18.276,14,18,14s-0.5,0.224-0.5,0.5
	S17.724,15,18,15z M18,12c0.276,0,0.5-0.224,0.5-0.5S18.276,11,18,11s-0.5,0.224-0.5,0.5S17.724,12,18,12z M20,10.5
	c0.276,0,0.5-0.224,0.5-0.5S20.276,9.5,20,9.5s-0.5,0.224-0.5,0.5S19.724,10.5,20,10.5z M20,4.5c0.276,0,0.5-0.224,0.5-0.5
	S20.276,3.5,20,3.5S19.5,3.724,19.5,4S19.724,4.5,20,4.5z M20,7.5c0.276,0,0.5-0.224,0.5-0.5S20.276,6.5,20,6.5S19.5,6.724,19.5,7
	S19.724,7.5,20,7.5z M16,9.5c-0.276,0-0.5,0.224-0.5,0.5s0.224,0.5,0.5,0.5c0.276,0,0.5-0.224,0.5-0.5S16.276,9.5,16,9.5z M16,6.5
	c-0.276,0-0.5,0.224-0.5,0.5s0.224,0.5,0.5,0.5c0.276,0,0.5-0.224,0.5-0.5S16.276,6.5,16,6.5z M16,3.5c-0.276,0-0.5,0.224-0.5,0.5
	s0.224,0.5,0.5,0.5c0.276,0,0.5-0.224,0.5-0.5S16.276,3.5,16,3.5z M16,12.5c-0.276,0-0.5,0.224-0.5,0.5s0.224,0.5,0.5,0.5
	c0.276,0,0.5-0.224,0.5-0.5S16.276,12.5,16,12.5z M20,13.5c0.276,0,0.5-0.224,0.5-0.5s-0.224-0.5-0.5-0.5s-0.5,0.224-0.5,0.5
	S19.724,13.5,20,13.5z M16,15.5c-0.276,0-0.5,0.224-0.5,0.5c0,0.276,0.224,0.5,0.5,0.5c0.276,0,0.5-0.224,0.5-0.5
	C16.5,15.724,16.276,15.5,16,15.5z M18,6c0.276,0,0.5-0.224,0.5-0.5S18.276,5,18,5s-0.5,0.224-0.5,0.5S17.724,6,18,6z M18,9
	c0.276,0,0.5-0.224,0.5-0.5S18.276,8,18,8s-0.5,0.224-0.5,0.5S17.724,9,18,9z M12,9.5c-0.276,0-0.5,0.224-0.5,0.5s0.224,0.5,0.5,0.5
	s0.5-0.224,0.5-0.5S12.276,9.5,12,9.5z M12,6.5c-0.276,0-0.5,0.224-0.5,0.5s0.224,0.5,0.5,0.5s0.5-0.224,0.5-0.5S12.276,6.5,12,6.5z
	 M12,3.5c-0.276,0-0.5,0.224-0.5,0.5s0.224,0.5,0.5,0.5s0.5-0.224,0.5-0.5S12.276,3.5,12,3.5z M12,15.5c-0.276,0-0.5,0.224-0.5,0.5
	c0,0.276,0.224,0.5,0.5,0.5s0.5-0.224,0.5-0.5C12.5,15.724,12.276,15.5,12,15.5z M12,12.5c-0.276,0-0.5,0.224-0.5,0.5
	s0.224,0.5,0.5,0.5s0.5-0.224,0.5-0.5S12.276,12.5,12,12.5z M14,2c-0.276,0-0.5,0.224-0.5,0.5S13.724,3,14,3s0.5-0.224,0.5-0.5
	S14.276,2,14,2z M10,11c-0.276,0-0.5,0.224-0.5,0.5S9.724,12,10,12s0.5-0.224,0.5-0.5S10.276,11,10,11z M8,9.5
	c-0.276,0-0.5,0.224-0.5,0.5s0.224,0.5,0.5,0.5s0.5-0.224,0.5-0.5S8.276,9.5,8,9.5z M10,5C9.724,5,9.5,5.224,9.5,5.5S9.724,6,10,6
	s0.5-0.224,0.5-0.5S10.276,5,10,5z M10,8C9.724,8,9.5,8.224,9.5,8.5S9.724,9,10,9s0.5-0.224,0.5-0.5S10.276,8,10,8z M10,14
	c-0.276,0-0.5,0.224-0.5,0.5S9.724,15,10,15s0.5-0.224,0.5-0.5S10.276,14,10,14z M20,16.5c0.276,0,0.5-0.224,0.5-0.5
	c0-0.276-0.224-0.5-0.5-0.5s-0.5,0.224-0.5,0.5C19.5,16.276,19.724,16.5,20,16.5z M24,10.5c0.276,0,0.5-0.224,0.5-0.5
	S24.276,9.5,24,9.5s-0.5,0.224-0.5,0.5S23.724,10.5,24,10.5z M22,15c0.276,0,0.5-0.224,0.5-0.5S22.276,14,22,14s-0.5,0.224-0.5,0.5
	S21.724,15,22,15z M22,12c0.276,0,0.5-0.224,0.5-0.5S22.276,11,22,11s-0.5,0.224-0.5,0.5S21.724,12,22,12z M14,5
	c-0.276,0-0.5,0.224-0.5,0.5S13.724,6,14,6s0.5-0.224,0.5-0.5S14.276,5,14,5z M22,6c0.276,0,0.5-0.224,0.5-0.5S22.276,5,22,5
	s-0.5,0.224-0.5,0.5S21.724,6,22,6z M22,9c0.276,0,0.5-0.224,0.5-0.5S22.276,8,22,8s-0.5,0.224-0.5,0.5S21.724,9,22,9z M14,11
	c-0.276,0-0.5,0.224-0.5,0.5S13.724,12,14,12s0.5-0.224,0.5-0.5S14.276,11,14,11z M14,8c-0.276,0-0.5,0.224-0.5,0.5S13.724,9,14,9
	s0.5-0.224,0.5-0.5S14.276,8,14,8z M14,14c-0.276,0-0.5,0.224-0.5,0.5S13.724,15,14,15s0.5-0.224,0.5-0.5S14.276,14,14,14z
	 M25.36,10c0,3.162-1.566,5.983-4,7.682V31h-0.72V18.137c-0.407,0.232-0.835,0.436-1.279,0.605V31H18.64v-2.64h-1.28V31h-0.72V17
	h0.72v1.534c2.97-0.468,5.389-2.426,6.544-5.054C23.675,13.435,23.5,13.242,23.5,13c0-0.276,0.224-0.5,0.5-0.5
	c0.09,0,0.17,0.03,0.243,0.072c0.253-0.815,0.396-1.677,0.396-2.572c0-0.896-0.138-1.761-0.392-2.575
	C24.173,7.468,24.092,7.5,24,7.5c-0.276,0-0.5-0.224-0.5-0.5c0-0.241,0.174-0.433,0.402-0.48C22.56,3.485,19.525,1.36,16,1.36
	c-3.526,0-6.56,2.125-7.902,5.16C8.326,6.567,8.5,6.759,8.5,7c0,0.276-0.224,0.5-0.5,0.5c-0.092,0-0.174-0.032-0.248-0.075
	C7.497,8.239,7.36,9.103,7.36,10c0,0.895,0.143,1.757,0.396,2.572C7.829,12.53,7.91,12.5,8,12.5c0.276,0,0.5,0.224,0.5,0.5
	c0,0.242-0.176,0.435-0.404,0.481c1.155,2.627,3.574,4.586,6.544,5.054V17h0.72v14h-0.72v-2.64h-1.28V31h-0.72V18.742
	c-0.445-0.17-0.872-0.373-1.28-0.605V31h-0.72V17.682c-2.434-1.699-4-4.52-4-7.682c0-5.161,4.199-9.36,9.36-9.36
	S25.36,4.839,25.36,10z M13.36,20.64h1.28v-1.378c-0.438-0.063-0.866-0.156-1.28-0.277V20.64z M13.36,22.64h1.28v-1.28h-1.28V22.64z
	 M13.36,25.64h1.28v-2.28h-1.28V25.64z M13.36,27.64h1.28v-1.28h-1.28V27.64z M18.64,26.36h-1.28v1.279h1.279L18.64,26.36
	L18.64,26.36z M18.64,23.36h-1.28v2.279h1.279L18.64,23.36L18.64,23.36z M18.64,21.36h-1.28v1.279h1.279L18.64,21.36L18.64,21.36z
	 M18.64,18.984c-0.414,0.121-0.842,0.214-1.279,0.277v1.378h1.279V18.984z"/>
<rect id="_Transparent_Rectangle" style="fill:none;" width="32" height="32"/>
</svg>
