<?xml version="1.0" encoding="iso-8859-1"?>
<!-- Generator: Adobe Illustrator 26.1.0, SVG Export Plug-In . SVG Version: 6.00 Build 0)  -->
<svg version="1.1" id="Layer_1" xmlns="http://www.w3.org/2000/svg" xmlns:xlink="http://www.w3.org/1999/xlink" x="0px" y="0px"
	 viewBox="0 0 32 32" style="enable-background:new 0 0 32 32;" xml:space="preserve">
<path id="data--privacy--key_00000074420413217434618210000001685248709954613898_" d="M16,31.36c-1.853,0-3.36-1.508-3.36-3.36l0,0
	c0,0,0-3.288,0-6.64H10c-0.353,0-0.64,0.287-0.64,0.64v6.688c0.576,0.158,1,0.687,1,1.312c0,0.75-0.61,1.36-1.36,1.36
	S7.64,30.75,7.64,30c0-0.625,0.424-1.153,1-1.312V24.36H5.312c-0.158,0.575-0.686,1-1.312,1c-0.75,0-1.36-0.61-1.36-1.36
	S3.25,22.64,4,22.64c0.625,0,1.153,0.425,1.312,1H8.64V22c0-0.75,0.61-1.36,1.36-1.36h2.64c0-1.158,0-2.296,0-3.279H9.312
	c-0.158,0.575-0.686,1-1.312,1c-0.75,0-1.36-0.61-1.36-1.36S7.25,15.64,8,15.64c0.625,0,1.153,0.424,1.312,1h3.329
	c0-0.981,0-1.736,0-2.09c-2.438-1.254-4-3.799-4-6.55c0-4.058,3.302-7.36,7.36-7.36c4.059,0,7.36,3.302,7.36,7.36
	c0,2.75-1.563,5.296-4,6.55v10.09H22c0.353,0,0.64-0.287,0.64-0.64v-6.688c-0.575-0.158-1-0.686-1-1.312c0-0.75,0.61-1.36,1.36-1.36
	s1.36,0.61,1.36,1.36c0,0.625-0.425,1.153-1,1.312v4.328h3.328c0.158-0.575,0.687-1,1.312-1c0.75,0,1.36,0.61,1.36,1.36
	s-0.61,1.36-1.36,1.36c-0.625,0-1.153-0.425-1.312-1H23.36V24c0,0.75-0.61,1.36-1.36,1.36h-2.64V28c0,0.219-0.021,0.433-0.062,0.64
	h3.39c0.158-0.575,0.687-1,1.312-1c0.75,0,1.36,0.61,1.36,1.36s-0.61,1.36-1.36,1.36c-0.625,0-1.153-0.425-1.312-1h-3.616
	C18.549,30.537,17.369,31.36,16,31.36z M13.36,28c0,1.456,1.185,2.64,2.64,2.64c1.456,0,2.64-1.184,2.64-2.64V14.099l0.206-0.098
	C21.15,12.906,22.64,10.55,22.64,8c0-3.661-2.979-6.64-6.64-6.64S9.36,4.339,9.36,8c0,2.55,1.49,4.906,3.794,6.001
	c0.206,0.041,0.206,0.041,0.206,7.162V28z M9,29.36c-0.353,0-0.64,0.287-0.64,0.64S8.647,30.64,9,30.64S9.64,30.353,9.64,30
	S9.353,29.36,9,29.36z M24,28.36c-0.353,0-0.64,0.287-0.64,0.64s0.287,0.64,0.64,0.64s0.64-0.287,0.64-0.64S24.353,28.36,24,28.36z
	 M4,23.36c-0.353,0-0.64,0.287-0.64,0.64S3.647,24.64,4,24.64S4.64,24.353,4.64,24S4.353,23.36,4,23.36z M28,21.36
	c-0.353,0-0.64,0.287-0.64,0.64s0.287,0.64,0.64,0.64s0.64-0.287,0.64-0.64S28.353,21.36,28,21.36z M8,16.36
	c-0.353,0-0.64,0.287-0.64,0.64c0,0.353,0.287,0.64,0.64,0.64S8.64,17.353,8.64,17S8.353,16.36,8,16.36z M23,15.36
	c-0.353,0-0.64,0.287-0.64,0.64s0.287,0.64,0.64,0.64s0.64-0.287,0.64-0.64S23.353,15.36,23,15.36z M16,8.36
	c-1.301,0-2.36-1.059-2.36-2.36S14.699,3.64,16,3.64c1.302,0,2.36,1.059,2.36,2.36S17.302,8.36,16,8.36z M16,4.36
	c-0.904,0-1.64,0.736-1.64,1.64S15.096,7.64,16,7.64c0.904,0,1.64-0.736,1.64-1.64S16.904,4.36,16,4.36z"/>
<rect id="_Transparent_Rectangle" style="fill:none;" width="32" height="32"/>
</svg>
