<?xml version="1.0" encoding="iso-8859-1"?>
<!-- Generator: Adobe Illustrator 24.1.2, SVG Export Plug-In . SVG Version: 6.00 Build 0)  -->
<svg version="1.1" id="Layer_1" xmlns="http://www.w3.org/2000/svg" xmlns:xlink="http://www.w3.org/1999/xlink" x="0px" y="0px"
	 viewBox="0 0 32 32" style="enable-background:new 0 0 32 32;" xml:space="preserve">
<path id="data--backup_1_" d="M13.5,7.36H7V6.64h6.5V7.36z M13.5,15.64H7v0.72h6.5V15.64z M7,25.36h6.5v-0.72H7V25.36z M30.36,7v9
	c0,0.199-0.161,0.36-0.36,0.36h-3.64V19c0,0.199-0.161,0.36-0.36,0.36H6c-0.199,0-0.36-0.161-0.36-0.36v-2.64H2.36v8.28h3.28V22
	c0-0.199,0.161-0.36,0.36-0.36h20c0.199,0,0.36,0.161,0.36,0.36v6c0,0.199-0.161,0.36-0.36,0.36H6c-0.199,0-0.36-0.161-0.36-0.36
	v-2.64H2c-0.199,0-0.36-0.161-0.36-0.36v-9c0-0.199,0.161-0.36,0.36-0.36h3.64V13c0-0.199,0.161-0.36,0.36-0.36h20
	c0.199,0,0.36,0.161,0.36,0.36v2.64h3.279V7.36H26.36V10c0,0.199-0.161,0.36-0.36,0.36H6c-0.199,0-0.36-0.161-0.36-0.36V4
	c0-0.199,0.161-0.36,0.36-0.36h20c0.199,0,0.36,0.161,0.36,0.36v2.64H30C30.199,6.64,30.36,6.801,30.36,7z M25.64,4.36H6.36v5.28
	h19.28C25.64,9.64,25.64,4.36,25.64,4.36z M6.36,27.64h19.28v-5.28H6.36V27.64z M25.64,13.36H6.36v5.28h19.28
	C25.64,18.64,25.64,13.36,25.64,13.36z M24,7c0-0.276-0.224-0.5-0.5-0.5S23,6.724,23,7s0.224,0.5,0.5,0.5S24,7.276,24,7z M24,16
	c0-0.276-0.224-0.5-0.5-0.5S23,15.724,23,16c0,0.276,0.224,0.5,0.5,0.5S24,16.276,24,16z M24,25c0-0.276-0.224-0.5-0.5-0.5
	S23,24.724,23,25s0.224,0.5,0.5,0.5S24,25.276,24,25z"/>
<rect id="_Transparent_Rectangle" style="fill:none;" width="32" height="32"/>
</svg>
