<?xml version="1.0" encoding="iso-8859-1"?>
<!-- Generator: Adobe Illustrator 29.1.0, SVG Export Plug-In . SVG Version: 9.03 Build 55587)  -->
<svg version="1.1" id="Layer_1" xmlns="http://www.w3.org/2000/svg" xmlns:xlink="http://www.w3.org/1999/xlink" x="0px" y="0px"
	 viewBox="0 0 32 32" style="enable-background:new 0 0 32 32;" xml:space="preserve">
<path id="data--scientist_00000121254815462134217900000014156306068204263819_" d="M27.64,17h0.721v2H27.64V17z M5,18.64H3v0.721h2
	V18.64z M25.64,19h0.721v-5H25.64V19z M6.64,3c0-0.75,0.61-1.36,1.36-1.36S9.36,2.25,9.36,3S8.75,4.36,8,4.36S6.64,3.75,6.64,3z
	 M7.36,3c0,0.353,0.287,0.64,0.64,0.64S8.64,3.353,8.64,3S8.353,2.36,8,2.36S7.36,2.647,7.36,3z M30.36,5v16
	c0,0.199-0.161,0.36-0.36,0.36h-9.854c-0.287,0.889-0.85,1.668-1.608,2.214c2.877,1.052,4.822,3.789,4.822,6.926V31h-0.72v-0.5
	c0-3.09-2.091-5.751-5.084-6.472c-0.15-0.035-0.26-0.163-0.274-0.316s0.07-0.299,0.211-0.361C18.798,22.764,19.64,21.45,19.64,20
	c0-2.007-1.633-3.64-3.64-3.64s-3.64,1.633-3.64,3.64c0,1.449,0.843,2.765,2.147,3.351c0.141,0.062,0.225,0.208,0.211,0.361
	s-0.125,0.281-0.274,0.316C11.451,24.749,9.36,27.41,9.36,30.5V31H8.64v-0.5c0-3.137,1.944-5.875,4.821-6.926
	C12.334,22.763,11.64,21.437,11.64,20c0-2.283,1.764-4.162,4-4.345V5c0-0.199,0.161-0.36,0.36-0.36h14
	C30.199,4.64,30.36,4.801,30.36,5z M29.64,5.36H16.36v7.771l3.385-3.385c0.141-0.141,0.369-0.141,0.51,0L23,12.491l4.131-4.131H25
	V7.64h3.363l-0.027,3.363l-0.721-0.006l0.017-2.12l-4.378,4.378c-0.141,0.141-0.369,0.141-0.51,0L20,10.509l-3.64,3.64v1.506
	c2.237,0.184,4,2.062,4,4.345c0,0.216-0.016,0.43-0.047,0.64h9.326L29.64,5.36L29.64,5.36z M5,22.64H3v0.721h2V22.64z M10,25.36H2
	c-0.199,0-0.36-0.161-0.36-0.36v-8c0-0.199,0.161-0.36,0.36-0.36h8c0.199,0,0.36,0.161,0.36,0.36v8
	C10.36,25.199,10.199,25.36,10,25.36z M9.64,21.36H2.36v3.279h7.28V21.36z M9.64,17.36H2.36v3.279h7.28V17.36z M1.64,6
	c0-0.75,0.61-1.36,1.36-1.36c0.681,0,1.247,0.503,1.345,1.157l2.427,1.618C6.991,6.957,7.459,6.64,8,6.64
	c0.625,0,1.153,0.424,1.312,1h2.377c0.158-0.576,0.686-1,1.312-1c0.75,0,1.36,0.61,1.36,1.36S13.75,9.36,13,9.36
	c-0.625,0-1.153-0.424-1.312-1H9.312C9.185,8.821,8.821,9.185,8.36,9.312v2.377c0.576,0.158,1,0.686,1,1.312
	c0,0.75-0.61,1.36-1.36,1.36S6.64,13.75,6.64,13c0-0.625,0.424-1.153,1-1.312V9.312C7.127,9.171,6.735,8.737,6.655,8.203
	L4.228,6.584C4.009,7.043,3.541,7.36,3,7.36C2.25,7.36,1.64,6.75,1.64,6z M12.36,8c0,0.353,0.287,0.64,0.64,0.64
	S13.64,8.353,13.64,8S13.353,7.36,13,7.36S12.36,7.647,12.36,8z M8,12.36c-0.353,0-0.64,0.287-0.64,0.64S7.647,13.64,8,13.64
	c0.353,0,0.64-0.287,0.64-0.64S8.353,12.36,8,12.36z M7.36,8c0,0.353,0.287,0.64,0.64,0.64S8.64,8.353,8.64,8S8.353,7.36,8,7.36
	S7.36,7.647,7.36,8z M2.36,6c0,0.353,0.287,0.64,0.64,0.64S3.64,6.353,3.64,6S3.353,5.36,3,5.36S2.36,5.647,2.36,6z M23.64,19h0.721
	v-3H23.64V19z M1.64,11c0-0.75,0.61-1.36,1.36-1.36S4.36,10.25,4.36,11S3.75,12.36,3,12.36S1.64,11.75,1.64,11z M2.36,11
	c0,0.353,0.287,0.64,0.64,0.64S3.64,11.353,3.64,11S3.353,10.36,3,10.36S2.36,10.647,2.36,11z"/>
<rect id="_Transparent_Rectangle" style="fill:none;" width="32" height="32"/>
</svg>
