<?xml version="1.0" encoding="iso-8859-1"?>
<!-- Generator: Adobe Illustrator 29.1.0, SVG Export Plug-In . SVG Version: 9.03 Build 55587)  -->
<svg version="1.1" id="Layer_1" xmlns="http://www.w3.org/2000/svg" xmlns:xlink="http://www.w3.org/1999/xlink" x="0px" y="0px"
	 viewBox="0 0 32 32" style="enable-background:new 0 0 32 32;" xml:space="preserve">
<path id="deep-learning--03_00000085251923989028135280000003974231672987084175_" d="M22.18,30.86h-4
	c-1.301,0-2.359-1.059-2.359-2.36v-8c0-0.188,0.144-0.343,0.33-0.358c1.326-0.111,2.669-1.054,2.669-2.642
	c0-0.159,0.104-0.3,0.258-0.345c1.517-0.452,1.742-1.858,1.742-2.655c0-0.471-0.328-1.247-0.877-1.729
	c-0.076-0.066-0.12-0.162-0.123-0.263c-0.002-0.101,0.038-0.198,0.111-0.268c0.599-0.574,0.889-1.307,0.889-2.24
	c0-1.28-1.061-2.14-2.64-2.14c-0.177,0-0.327-0.128-0.355-0.303c-0.244-1.515-1.435-2.419-3.185-2.419
	c-0.375,0-0.772,0.099-1.183,0.292c-0.128,0.059-0.281,0.04-0.389-0.053c-0.564-0.487-1.269-0.724-2.153-0.724
	c-0.908,0-1.742,0.371-2.48,1.103C8.366,5.823,8.275,5.86,8.18,5.86h-1c-1.28,0-2.64,0.925-2.64,2.64
	c0,0.179-0.131,0.331-0.309,0.356C2.42,9.118,1.54,10.31,1.54,12.5c0,2.143,1.497,3.64,3.64,3.64c0.199,0,0.36,0.161,0.36,0.36
	c0,1.382,1.735,2.64,3.64,2.64c2.608,0,4.36,1.753,4.36,4.36h-0.72c0-2.211-1.429-3.64-3.64-3.64c-1.938,0-4.085-1.22-4.336-3.011
	C2.458,16.7,0.82,14.954,0.82,12.5c0-2.998,1.573-4.008,3.011-4.304C3.984,6.208,5.629,5.14,7.18,5.14h0.854
	c0.852-0.801,1.82-1.207,2.879-1.207c0.961,0,1.782,0.253,2.444,0.753c0.436-0.178,0.866-0.269,1.281-0.269
	c1.989,0,3.433,1.038,3.837,2.731C20.295,7.261,21.54,8.402,21.54,10c0,0.988-0.289,1.825-0.859,2.493
	c0.511,0.574,0.859,1.368,0.859,2.007c0,1.598-0.729,2.771-2.01,3.261c-0.128,1.735-1.522,2.809-2.99,3.057V28.5
	c0,0.904,0.735,1.64,1.64,1.64h4c0.904,0,1.64-0.735,1.64-1.64v-24c0-1.301,1.059-2.36,2.36-2.36h0.688c0.158-0.576,0.687-1,1.312-1
	s1.153,0.424,1.312,1h1.688v0.72h-1.688c-0.158,0.576-0.687,1-1.312,1s-1.153-0.424-1.312-1H26.18c-0.904,0-1.64,0.736-1.64,1.64
	v5.64h2.328c0.158-0.576,0.687-1,1.312-1s1.153,0.424,1.312,1h1.688v0.72h-1.688c-0.158,0.576-0.687,1-1.312,1s-1.153-0.424-1.312-1
	H24.54v7.28h2.328c0.158-0.575,0.687-1,1.312-1s1.153,0.425,1.312,1h1.688v0.721h-1.688c-0.158,0.575-0.687,1-1.312,1
	s-1.153-0.425-1.312-1H24.54v7.279h2.328c0.158-0.575,0.687-1,1.312-1s1.153,0.425,1.312,1h1.688v0.721h-1.688
	c-0.158,0.575-0.687,1-1.312,1s-1.153-0.425-1.312-1H24.54v1.64C24.54,29.802,23.481,30.86,22.18,30.86z M28.18,25.86
	c-0.353,0-0.64,0.287-0.64,0.64s0.287,0.64,0.64,0.64s0.64-0.287,0.64-0.64S28.532,25.86,28.18,25.86z M28.18,17.86
	c-0.353,0-0.64,0.287-0.64,0.64s0.287,0.64,0.64,0.64s0.64-0.287,0.64-0.64S28.532,17.86,28.18,17.86z M28.18,9.86
	c-0.353,0-0.64,0.287-0.64,0.64s0.287,0.64,0.64,0.64s0.64-0.287,0.64-0.64S28.532,9.86,28.18,9.86z M28.18,1.86
	c-0.353,0-0.64,0.287-0.64,0.64s0.287,0.64,0.64,0.64s0.64-0.287,0.64-0.64S28.532,1.86,28.18,1.86z M14.68,16.86
	c-0.902,0-1.657-0.646-1.825-1.5h-2.35c-0.168,0.854-0.923,1.5-1.825,1.5c-1.025,0-1.86-0.834-1.86-1.86s0.834-1.86,1.86-1.86
	c0.445,0,0.854,0.157,1.174,0.418l3.191-2.672c-0.088-0.162-0.153-0.339-0.19-0.527h-2.35c-0.168,0.854-0.923,1.5-1.825,1.5
	c-1.025,0-1.86-0.834-1.86-1.86s0.834-1.86,1.86-1.86c0.902,0,1.657,0.646,1.825,1.5h2.35c0.168-0.854,0.923-1.5,1.825-1.5
	c1.025,0,1.86,0.834,1.86,1.86s-0.834,1.86-1.86,1.86c-0.445,0-0.854-0.157-1.175-0.419l-3.191,2.672
	c0.089,0.163,0.154,0.34,0.191,0.527h2.35c0.168-0.854,0.923-1.5,1.825-1.5c1.025,0,1.86,0.834,1.86,1.86S15.706,16.86,14.68,16.86z
	 M14.68,13.86c-0.628,0-1.14,0.512-1.14,1.14s0.512,1.14,1.14,1.14s1.14-0.512,1.14-1.14S15.309,13.86,14.68,13.86z M8.68,13.86
	c-0.628,0-1.14,0.512-1.14,1.14s0.512,1.14,1.14,1.14S9.82,15.628,9.82,15S9.309,13.86,8.68,13.86z M14.68,8.86
	c-0.628,0-1.14,0.512-1.14,1.14s0.512,1.14,1.14,1.14s1.14-0.512,1.14-1.14S15.309,8.86,14.68,8.86z M8.68,8.86
	c-0.628,0-1.14,0.512-1.14,1.14s0.512,1.14,1.14,1.14S9.82,10.628,9.82,10S9.309,8.86,8.68,8.86z"/>
<rect id="_Transparent_Rectangle" style="fill:none;" width="32" height="32"/>
</svg>
