<?xml version="1.0" encoding="iso-8859-1"?>
<!-- Generator: Adobe Illustrator 26.3.1, SVG Export Plug-In . SVG Version: 6.00 Build 0)  -->
<svg version="1.1" id="Layer_1" xmlns="http://www.w3.org/2000/svg" xmlns:xlink="http://www.w3.org/1999/xlink" x="0px" y="0px"
	 viewBox="0 0 32 32" style="enable-background:new 0 0 32 32;" xml:space="preserve">
<path id="deep-learning_00000103262709767790539570000002294852470325258163_" d="M16,31.36c-0.75,0-1.36-0.61-1.36-1.36
	c0-0.394,0.168-0.749,0.437-0.998l-3.459-6.672c-0.092,0.02-0.187,0.03-0.284,0.03c-0.75,0-1.36-0.61-1.36-1.36
	c0-0.394,0.168-0.749,0.437-0.998l-3.46-6.672c-0.091,0.02-0.187,0.03-0.284,0.03c-0.75,0-1.36-0.61-1.36-1.36
	c0-0.394,0.168-0.749,0.436-0.998L2.284,4.33C2.192,4.35,2.098,4.36,2,4.36C1.25,4.36,0.64,3.75,0.64,3S1.25,1.64,2,1.64
	S3.36,2.25,3.36,3c0,0.142-0.021,0.278-0.062,0.406l5.427,3.489l1.382-2.871C9.821,3.775,9.64,3.409,9.64,3
	c0-0.75,0.61-1.36,1.36-1.36S12.36,2.25,12.36,3c0,0.137-0.02,0.268-0.058,0.393L16,5.715l3.698-2.322
	C19.66,3.268,19.64,3.137,19.64,3c0-0.75,0.61-1.36,1.36-1.36S22.36,2.25,22.36,3c0,0.409-0.182,0.775-0.468,1.025l1.383,2.871
	l5.427-3.489C28.662,3.278,28.64,3.142,28.64,3c0-0.75,0.61-1.36,1.36-1.36S31.36,2.25,31.36,3S30.75,4.36,30,4.36
	c-0.098,0-0.192-0.01-0.284-0.03l-3.457,6.668c0.271,0.249,0.44,0.606,0.44,1.001c0,0.75-0.61,1.36-1.36,1.36
	c-0.1,0-0.196-0.011-0.289-0.031l-3.46,6.673c0.269,0.248,0.438,0.604,0.438,0.998c0,0.75-0.61,1.36-1.36,1.36
	c-0.098,0-0.193-0.011-0.285-0.03l-3.459,6.672c0.269,0.249,0.438,0.604,0.438,0.998C17.36,30.75,16.75,31.36,16,31.36z M16,29.36
	c-0.353,0-0.64,0.287-0.64,0.64s0.287,0.64,0.64,0.64s0.64-0.287,0.64-0.64S16.353,29.36,16,29.36z M16.36,18.659v9.864l3.383-6.525
	c-0.268-0.249-0.437-0.604-0.437-0.998c0-0.142,0.022-0.278,0.062-0.407L16.36,18.659z M12.256,21.998l3.384,6.525v-9.864
	l-3.009,1.935c0.041,0.128,0.062,0.265,0.062,0.406C12.693,21.394,12.525,21.749,12.256,21.998z M20.667,20.36
	c-0.353,0-0.64,0.287-0.64,0.64s0.287,0.64,0.64,0.64s0.64-0.287,0.64-0.64S21.02,20.36,20.667,20.36z M11.333,20.36
	c-0.353,0-0.64,0.287-0.64,0.64s0.287,0.64,0.64,0.64s0.64-0.287,0.64-0.64S11.687,20.36,11.333,20.36z M11.333,19.64
	c0.349,0,0.667,0.132,0.908,0.349L15.335,18l-7.728-4.968l3.442,6.638C11.141,19.65,11.236,19.64,11.333,19.64z M16.666,18
	l3.094,1.988c0.308-0.277,0.772-0.409,1.191-0.318l3.441-6.637L16.666,18z M16.36,13.312v4.029l7.68-4.938
	C24,12.276,23.979,12.14,23.979,12c0-0.135,0.021-0.266,0.058-0.39l-3.422-2.148l-3.316,2.132c0.04,0.128,0.062,0.265,0.062,0.406
	C17.36,12.625,16.936,13.153,16.36,13.312z M7.965,12.406l7.675,4.934v-4.028c-0.576-0.158-1-0.686-1-1.312
	c0-0.142,0.021-0.278,0.062-0.406l-3.316-2.132L7.97,11.607C8.007,11.732,8.027,11.864,8.027,12
	C8.027,12.142,8.006,12.278,7.965,12.406z M25.339,11.36c-0.353,0-0.64,0.287-0.64,0.64s0.287,0.64,0.64,0.64s0.64-0.287,0.64-0.64
	S25.691,11.36,25.339,11.36z M16,11.36c-0.353,0-0.64,0.287-0.64,0.64s0.287,0.64,0.64,0.64s0.64-0.287,0.64-0.64
	S16.353,11.36,16,11.36z M6.667,11.36c-0.353,0-0.64,0.287-0.64,0.64s0.287,0.64,0.64,0.64s0.64-0.287,0.64-0.64
	S7.021,11.36,6.667,11.36z M21.283,9.032L24.418,11c0.008-0.007,0.016-0.014,0.023-0.021l-1.462-3.037L21.283,9.032z M7.561,10.975
	c0.008,0.007,0.017,0.015,0.026,0.023l3.131-1.966L9.021,7.941L7.561,10.975z M16,10.64c0.349,0,0.667,0.132,0.908,0.348
	l3.032-1.949L16,6.565l-3.94,2.474l3.032,1.949C15.333,10.772,15.651,10.64,16,10.64z M2.941,4.033l3.441,6.637
	c0.171-0.036,0.357-0.04,0.53-0.008l1.499-3.113L2.941,4.033z M25.339,10.64c0.096,0,0.189,0.01,0.279,0.029l3.44-6.636L23.59,7.549
	l1.499,3.114C25.17,10.648,25.254,10.64,25.339,10.64z M9.335,7.288l2.055,1.321l3.933-2.469l-3.405-2.138
	c-0.299,0.275-0.746,0.414-1.163,0.336L9.335,7.288z M16.677,6.14l3.932,2.469l2.056-1.321l-1.421-2.95
	c-0.417,0.076-0.864-0.062-1.163-0.336L16.677,6.14z M30,2.36c-0.353,0-0.64,0.287-0.64,0.64S29.647,3.64,30,3.64
	S30.64,3.353,30.64,3S30.353,2.36,30,2.36z M21,2.36c-0.353,0-0.64,0.287-0.64,0.64S20.647,3.64,21,3.64S21.64,3.353,21.64,3
	S21.353,2.36,21,2.36z M11,2.36c-0.353,0-0.64,0.287-0.64,0.64S10.647,3.64,11,3.64S11.64,3.353,11.64,3S11.353,2.36,11,2.36z
	 M2,2.36C1.647,2.36,1.36,2.647,1.36,3S1.647,3.64,2,3.64S2.64,3.353,2.64,3S2.353,2.36,2,2.36z"/>
<rect id="_Transparent_Rectangle" style="fill:none;" width="32" height="32"/>
</svg>
