<?xml version="1.0" encoding="iso-8859-1"?>
<!-- Generator: Adobe Illustrator 29.1.0, SVG Export Plug-In . SVG Version: 9.03 Build 55587)  -->
<svg version="1.1" id="Layer_1" xmlns="http://www.w3.org/2000/svg" xmlns:xlink="http://www.w3.org/1999/xlink" x="0px" y="0px"
	 viewBox="0 0 32 32" style="enable-background:new 0 0 32 32;" xml:space="preserve">
<path id="deep-learning--02_00000071550905443772393790000001624971389839961275_" d="M12.76,29.36c-1.437,0-2.732-0.858-3.3-2.16
	H8.98c-2.711,0-4.679-1.781-4.679-4.234c0-0.975,0.388-1.742,0.816-2.292C3.101,19.889,1.64,17.763,1.64,15.5
	s1.46-4.389,3.477-5.174C4.688,9.776,4.3,9.008,4.3,8.034C4.3,5.581,6.268,3.8,8.979,3.8h0.48c0.567-1.302,1.859-2.16,3.291-2.16
	c1.991,0,3.61,1.619,3.61,3.61v9.39h5.28V5c0-1.301,1.059-2.36,2.36-2.36h3.688c0.158-0.576,0.687-1,1.312-1
	c0.75,0,1.36,0.61,1.36,1.36S29.75,4.36,29,4.36c-0.625,0-1.153-0.424-1.312-1H24c-0.904,0-1.64,0.736-1.64,1.64v5.642h5.327
	C27.846,10.065,28.374,9.64,29,9.64c0.75,0,1.36,0.61,1.36,1.36s-0.61,1.36-1.36,1.36c-0.625,0-1.152-0.423-1.312-0.998H22.36v7.278
	h5.328c0.158-0.575,0.687-1,1.312-1c0.75,0,1.36,0.61,1.36,1.36s-0.61,1.36-1.36,1.36c-0.625,0-1.153-0.425-1.312-1H22.36V25
	c0,0.904,0.735,1.64,1.64,1.64h3.688c0.158-0.575,0.687-1,1.312-1c0.75,0,1.36,0.61,1.36,1.36s-0.61,1.36-1.36,1.36
	c-0.625,0-1.153-0.425-1.312-1H24c-1.302,0-2.36-1.059-2.36-2.36v-9.64h-5.28v10.39C16.36,27.74,14.745,29.36,12.76,29.36z
	 M5.796,10.86c-1.93,0.519-3.436,2.547-3.436,4.64c0,2.108,1.528,4.151,3.479,4.651c0.125,0.032,0.224,0.129,0.258,0.254
	c0.034,0.124-0.001,0.258-0.093,0.35c-0.449,0.449-0.984,1.197-0.984,2.211c0,2.069,1.628,3.514,3.96,3.514l0.725,0.001
	c0.152,0.001,0.288,0.097,0.339,0.24c0.393,1.11,1.426,1.868,2.596,1.917v-9.326c-0.576-0.158-1-0.687-1-1.312
	c0-0.75,0.61-1.36,1.36-1.36s1.36,0.61,1.36,1.36c0,0.625-0.424,1.153-1,1.312v9.266c1.301-0.277,2.28-1.439,2.28-2.827V15.36H10.5
	c-0.416,0-0.64,0.33-0.64,0.64v6.688c0.576,0.158,1,0.687,1,1.312c0,0.75-0.61,1.36-1.36,1.36S8.14,24.75,8.14,24
	c0-0.625,0.424-1.153,1-1.312v-5.326H7.561C7.402,17.937,6.875,18.36,6.25,18.36c-0.75,0-1.36-0.61-1.36-1.36s0.61-1.36,1.36-1.36
	c0.626,0,1.155,0.425,1.312,1.002H9.14V16c0-0.763,0.597-1.36,1.36-1.36h2.14V7.312c-0.576-0.158-1-0.686-1-1.312
	c0-0.75,0.61-1.36,1.36-1.36S14.36,5.25,14.36,6c0,0.625-0.424,1.153-1,1.312v7.329h2.28V5.25c0-1.594-1.296-2.89-2.89-2.89
	c-1.213,0-2.301,0.771-2.707,1.92c-0.05,0.143-0.186,0.24-0.339,0.24H8.979c-2.332,0-3.96,1.445-3.96,3.514
	c0,0.938,0.459,1.649,0.883,2.106h2.286c0.158-0.576,0.686-1,1.312-1c0.75,0,1.36,0.61,1.36,1.36s-0.61,1.36-1.36,1.36
	c-0.625,0-1.153-0.424-1.312-1H5.796z M29,26.36c-0.353,0-0.64,0.287-0.64,0.64s0.287,0.64,0.64,0.64s0.64-0.287,0.64-0.64
	S29.353,26.36,29,26.36z M9.5,23.36c-0.353,0-0.64,0.287-0.64,0.64s0.287,0.64,0.64,0.64s0.64-0.287,0.64-0.64
	S9.853,23.36,9.5,23.36z M29,18.36c-0.353,0-0.64,0.287-0.64,0.64s0.287,0.64,0.64,0.64s0.64-0.287,0.64-0.64S29.353,18.36,29,18.36
	z M13,17.36c-0.353,0-0.64,0.287-0.64,0.64s0.287,0.64,0.64,0.64s0.64-0.287,0.64-0.64S13.353,17.36,13,17.36z M6.25,16.36
	c-0.353,0-0.64,0.287-0.64,0.64c0,0.353,0.287,0.64,0.64,0.64S6.89,17.353,6.89,17S6.603,16.36,6.25,16.36z M29,10.36
	c-0.353,0-0.64,0.287-0.64,0.64s0.287,0.64,0.64,0.64s0.64-0.287,0.64-0.64S29.353,10.36,29,10.36z M9.5,9.86
	c-0.353,0-0.64,0.287-0.64,0.64s0.287,0.64,0.64,0.64s0.64-0.287,0.64-0.64S9.853,9.86,9.5,9.86z M13,5.36
	c-0.353,0-0.64,0.287-0.64,0.64S12.647,6.64,13,6.64S13.64,6.353,13.64,6S13.353,5.36,13,5.36z M29,2.36
	c-0.353,0-0.64,0.287-0.64,0.64S28.647,3.64,29,3.64S29.64,3.353,29.64,3S29.353,2.36,29,2.36z"/>
<rect id="_Transparent_Rectangle" style="fill:none;" width="32" height="32"/>
</svg>
