<svg width="55px" height="55px" viewBox="0 0 55 55" xmlns="http://www.w3.org/2000/svg"><path d="M36.604654,18.0269618 C36.146654,18.0269618 35.700654,18.2649618 35.462654,18.6879618 C35.294654,18.9849618 35.254654,19.3289618 35.347654,19.6559618 C35.441654,19.9869618 35.662654,20.2609618 35.966654,20.4279618 C36.596654,20.7759618 37.393654,20.5509618 37.744654,19.9299618 C37.911654,19.6339618 37.952654,19.2899618 37.859654,18.9629618 C37.764654,18.6319618 37.544654,18.3579618 37.238654,18.1889618 C37.038654,18.0789618 36.819654,18.0269618 36.604654,18.0269618 L36.604654,18.0269618 Z M36.599654,21.4569618 C36.243654,21.4569618 35.882654,21.3709618 35.549654,21.1879618 C35.040654,20.9089618 34.673654,20.4489618 34.514654,19.8939618 C34.357654,19.3419618 34.425654,18.7629618 34.707654,18.2619618 C35.289654,17.2299618 36.611654,16.8559618 37.656654,17.4299618 C38.165654,17.7109618 38.533654,18.1709618 38.691654,18.7269618 C38.848654,19.2769618 38.780654,19.8559618 38.498654,20.3559618 C38.102654,21.0589618 37.361654,21.4569618 36.599654,21.4569618 Z M15.340754,19.1868618 C14.101754,19.1868618 12.938754,19.8438618 12.320754,20.9178618 C11.865754,21.7078618 11.747754,22.6258618 11.988754,23.5028618 C12.231754,24.3878618 12.811754,25.1258618 13.619754,25.5798618 C14.919754,26.3118618 16.538754,26.1398618 17.652754,25.1568618 C17.664754,25.1448618 17.723754,25.0928618 17.726754,25.0898618 L23.483754,19.9458618 L15.652754,19.2008618 C15.547754,19.1918618 15.443754,19.1868618 15.340754,19.1868618 Z M15.338754,26.8958618 C14.604754,26.8958618 13.865754,26.7108618 13.195754,26.3348618 C12.184754,25.7668618 11.458754,24.8428618 11.153754,23.7328618 C10.850754,22.6308618 10.998754,21.4788618 11.569754,20.4868618 C12.407754,19.0298618 14.036754,18.1848618 15.731754,18.3378618 L24.551754,19.1778618 C24.723754,19.1938618 24.868754,19.3098618 24.921754,19.4738618 C24.975754,19.6368618 24.927754,19.8168618 24.799754,19.9318618 L18.303754,25.7368618 C18.302754,25.7368618 18.230754,25.8018618 18.229754,25.8018618 C17.414754,26.5238618 16.380754,26.8958618 15.338754,26.8958618 Z M37.219854,27.4810618 L35.829854,35.0380618 L35.386854,35.0550618 L35.812854,35.1310618 C35.553854,36.5800618 36.260854,38.0270618 37.571854,38.7300618 C39.254854,39.6330618 41.366854,39.0170618 42.279854,37.3570618 C42.926854,36.1830618 42.816854,34.7340618 42.000854,33.6650618 L37.219854,27.4810618 Z M39.222854,40.0120618 C38.524854,40.0120618 37.816854,39.8450618 37.161854,39.4930618 C35.521854,38.6130618 34.636854,36.8010618 34.959854,34.9850618 C34.961854,34.9690618 34.978854,34.8810618 34.979854,34.8740618 L36.543854,26.3700618 C36.574854,26.2020618 36.701854,26.0680618 36.867854,26.0280618 C37.032854,25.9900618 37.207854,26.0480618 37.312854,26.1840618 L42.686854,33.1380618 C43.713854,34.4810618 43.850854,36.3000618 43.038854,37.7750618 C42.253854,39.2010618 40.761854,40.0120618 39.222854,40.0120618 Z M24.605054,24.7474618 L32.500054,29.0814618 L33.283054,27.6894618 L25.388054,23.3564618 L24.605054,24.7474618 Z M32.666054,30.1004618 C32.596054,30.1004618 32.524054,30.0834618 32.458054,30.0474618 L23.804054,25.2964618 C23.703054,25.2404618 23.628054,25.1464618 23.596054,25.0354618 C23.565054,24.9244618 23.579054,24.8054618 23.636054,24.7034618 L24.844054,22.5584618 C24.961054,22.3514618 25.222054,22.2774618 25.430054,22.3914618 L34.083054,27.1414618 C34.185054,27.1964618 34.260054,27.2904618 34.291054,27.4014618 C34.323054,27.5134618 34.309054,27.6324618 34.252054,27.7324618 L33.044054,29.8794618 C32.965054,30.0204618 32.818054,30.1004618 32.666054,30.1004618 Z M27.748854,20.8919618 L34.161854,24.4129618 C33.999854,22.9959618 33.163854,21.7409618 31.870854,21.0319618 C30.577854,20.3219618 29.055854,20.2839618 27.748854,20.8919618 Z M34.618854,25.5899618 C34.546854,25.5899618 34.474854,25.5729618 34.409854,25.5379618 L26.653854,21.2799618 C26.521854,21.2059618 26.436854,21.0709618 26.429854,20.9199618 C26.422854,20.7699618 26.494854,20.6259618 26.618854,20.5409618 C28.316854,19.3869618 30.488854,19.2849618 32.287854,20.2719618 C34.088854,21.2609618 35.147854,23.1409618 35.050854,25.1779618 C35.043854,25.3279618 34.959854,25.4619618 34.829854,25.5359618 C34.764854,25.5729618 34.691854,25.5899618 34.618854,25.5899618 Z M22.204454,29.0100618 L30.099454,33.3440618 L30.882454,31.9530618 L22.987454,27.6190618 L22.204454,29.0100618 Z M30.265454,34.3630618 C30.195454,34.3630618 30.123454,34.3460618 30.057454,34.3100618 L21.403454,29.5590618 C21.302454,29.5030618 21.227454,29.4090618 21.195454,29.2980618 C21.164454,29.1870618 21.178454,29.0680618 21.235454,28.9660618 L22.443454,26.8210618 C22.559454,26.6140618 22.821454,26.5400618 23.029454,26.6540618 L31.683454,31.4050618 C31.784454,31.4600618 31.859454,31.5540618 31.890454,31.6650618 C31.922454,31.7770618 31.908454,31.8960618 31.851454,31.9970618 L30.643454,34.1430618 C30.564454,34.2830618 30.417454,34.3630618 30.265454,34.3630618 Z M23.616554,35.6692618 C24.910554,36.3802618 26.433554,36.4192618 27.738554,35.8092618 L21.325554,32.2872618 C21.487554,33.7042618 22.324554,34.9602618 23.616554,35.6692618 Z M25.816554,37.1032618 C24.920554,37.1032618 24.021554,36.8792618 23.199554,36.4292618 C21.398554,35.4402618 20.339554,33.5602618 20.436554,31.5232618 C20.443554,31.3732618 20.527554,31.2382618 20.657554,31.1652618 C20.787554,31.0932618 20.946554,31.0932618 21.077554,31.1632618 L28.833554,35.4212618 C28.965554,35.4942618 29.050554,35.6302618 29.057554,35.7802618 C29.064554,35.9312618 28.992554,36.0742618 28.868554,36.1592618 C27.946554,36.7862618 26.883554,37.1032618 25.816554,37.1032618 Z M30.848254,14.8665618 C30.389254,14.8665618 29.944254,15.1045618 29.705254,15.5275618 C29.538254,15.8245618 29.497254,16.1685618 29.591254,16.4955618 C29.685254,16.8265618 29.905254,17.1005618 30.210254,17.2675618 C30.841254,17.6135618 31.638254,17.3885618 31.987254,16.7685618 C32.155254,16.4715618 32.195254,16.1295618 32.102254,15.8025618 C32.008254,15.4705618 31.788254,15.1965618 31.483254,15.0295618 C31.281254,14.9195618 31.063254,14.8665618 30.848254,14.8665618 Z M30.842254,18.2965618 C30.486254,18.2965618 30.126254,18.2095618 29.794254,18.0275618 C29.284254,17.7485618 28.917254,17.2885618 28.758254,16.7335618 C28.601254,16.1815618 28.669254,15.6025618 28.951254,15.1015618 C29.533254,14.0705618 30.856254,13.6945618 31.899254,14.2695618 C32.409254,14.5505618 32.777254,15.0095618 32.935254,15.5645618 C33.092254,16.1155618 33.024254,16.6945618 32.742254,17.1945618 C32.345254,17.8985618 31.604254,18.2965618 30.842254,18.2965618 Z"></path></svg>
