<?xml version="1.0" encoding="iso-8859-1"?>
<!-- Generator: Adobe Illustrator 24.1.2, SVG Export Plug-In . SVG Version: 6.00 Build 0)  -->
<svg version="1.1" id="Layer_1" xmlns="http://www.w3.org/2000/svg" xmlns:xlink="http://www.w3.org/1999/xlink" x="0px" y="0px"
	 viewBox="0 0 32 32" style="enable-background:new 0 0 32 32;" xml:space="preserve">
<g id="delete">
	<path id="delete_1_" d="M5.104,31.363c-1.145,0-2.289-0.436-3.16-1.307c-0.841-0.842-1.304-1.964-1.304-3.161
		s0.463-2.319,1.304-3.16L9.68,16L1.944,8.264C1.103,7.423,0.64,6.301,0.64,5.104s0.463-2.319,1.304-3.16
		c0.84-0.841,1.963-1.304,3.16-1.304s2.319,0.463,3.16,1.304L16,9.68l7.735-7.735c0.841-0.841,1.963-1.304,3.16-1.304
		s2.319,0.463,3.161,1.304c1.742,1.742,1.742,4.577,0,6.32L22.32,16l7.736,7.735c1.742,1.742,1.742,4.578,0,6.321
		c-1.744,1.742-4.579,1.742-6.321,0L16,22.32l-7.736,7.736C7.393,30.928,6.249,31.363,5.104,31.363z M5.104,1.36
		c-1.004,0-1.946,0.388-2.651,1.093C1.749,3.158,1.36,4.1,1.36,5.104c0,1.005,0.388,1.946,1.093,2.651l7.985,7.985
		c0.141,0.141,0.146,0.374,0.005,0.514l-7.99,7.991c-0.705,0.704-1.093,1.646-1.093,2.65s0.388,1.946,1.093,2.651
		c1.462,1.464,3.84,1.462,5.302,0l7.99-7.99c0.141-0.141,0.368-0.141,0.509,0l7.991,7.99c1.461,1.461,3.841,1.463,5.302,0
		c1.462-1.462,1.462-3.841,0-5.302l-7.99-7.991c-0.141-0.141-0.141-0.368,0-0.509l7.99-7.99c1.462-1.462,1.462-3.84,0-5.302
		C28.842,1.749,27.9,1.36,26.896,1.36s-1.946,0.388-2.65,1.093l-7.991,7.99c-0.141,0.141-0.368,0.141-0.509,0l-7.99-7.99
		C7.05,1.749,6.109,1.36,5.104,1.36z"/>
</g>
<rect id="_Transparent_Rectangle" style="fill:none;" width="32" height="32"/>
</svg>
