<?xml version="1.0" encoding="iso-8859-1"?>
<!-- Generator: Adobe Illustrator 22.0.0, SVG Export Plug-In . SVG Version: 6.00 Build 0)  -->
<svg version="1.1" xmlns="http://www.w3.org/2000/svg" xmlns:xlink="http://www.w3.org/1999/xlink" x="0px" y="0px"
	 viewBox="0 0 48 48" style="enable-background:new 0 0 48 48;" xml:space="preserve">
<g id="deliver_insights">
	
		<path id="deliver_insights_1_" style="fill:none;stroke:#000000;stroke-width:0.72;stroke-linejoin:round;stroke-miterlimit:10;" d="
		M15.927,29.991H8.999l3.464-6L15.927,29.991z M23.993,38.991l3.114-3.114c0.354-0.354,0.536-0.816,0.544-1.28
		c0.009-0.487-0.173-0.976-0.544-1.347c-0.363-0.363-0.838-0.544-1.314-0.544s-0.951,0.181-1.314,0.544l-0.486,0.486l-0.486-0.486
		c-0.364-0.364-0.841-0.545-1.317-0.544c-0.474,0.001-0.948,0.182-1.31,0.544c-0.365,0.365-0.546,0.844-0.544,1.322
		c0.002,0.473,0.183,0.945,0.544,1.306L23.993,38.991z M15.993,12.981h-6v6h6V12.981z M32.035,13.991v4l3.464,2l3.464-2v-4l-3.464-2
		L32.035,13.991z M35.993,24.996c-1.657,0-3,1.343-3,3s1.343,3,3,3c1.657,0,3-1.343,3-3S37.65,24.996,35.993,24.996z M23.993,8.981
		c-1.657,0-3,1.343-3,3s1.343,3,3,3c1.657,0,3-1.343,3-3S25.65,8.981,23.993,8.981z M34,39c0-4.625-3.145-8.506-7.409-9.649
		c1.731-0.926,2.91-2.751,2.91-4.852c0-3.038-2.463-5.501-5.501-5.501s-5.501,2.463-5.501,5.501c0,2.101,1.179,3.925,2.91,4.852
		C17.156,30.425,14,34.375,14,39"/>
</g>
<g id="Layer_1">
</g>
</svg>
