<?xml version="1.0" encoding="iso-8859-1"?>
<!-- Generator: Adobe Illustrator 24.1.2, SVG Export Plug-In . SVG Version: 6.00 Build 0)  -->
<svg version="1.1" id="Layer_1" xmlns="http://www.w3.org/2000/svg" xmlns:xlink="http://www.w3.org/1999/xlink" x="0px" y="0px"
	 viewBox="0 0 32 32" style="enable-background:new 0 0 32 32;" xml:space="preserve">
<path id="deliver--insights_1_" d="M16,31.36c-0.092,0-0.184-0.035-0.254-0.105l-3.114-3.114c-0.416-0.416-0.647-0.969-0.65-1.559
	c-0.002-0.596,0.228-1.156,0.649-1.578c0.418-0.418,0.974-0.648,1.564-0.65c0.002,0,0.003,0,0.005,0c0.592,0,1.148,0.23,1.568,0.649
	L16,25.235l0.232-0.232c0.837-0.837,2.296-0.84,3.136,0c0.431,0.43,0.661,1.001,0.65,1.609c-0.012,0.577-0.242,1.12-0.649,1.528
	l-3.115,3.114C16.184,31.325,16.092,31.36,16,31.36z M14.2,25.074c-0.001,0-0.002,0-0.003,0c-0.399,0-0.775,0.156-1.057,0.438
	c-0.285,0.285-0.44,0.663-0.439,1.065c0.002,0.398,0.158,0.772,0.439,1.053L16,30.49l2.859-2.86
	c0.275-0.275,0.432-0.642,0.438-1.032c0.008-0.41-0.147-0.796-0.438-1.086c-0.567-0.568-1.552-0.566-2.119,0l-0.486,0.486
	c-0.141,0.141-0.368,0.141-0.509,0l-0.486-0.486C14.976,25.229,14.6,25.074,14.2,25.074z M26.36,31h-0.72
	c0-4.35-2.937-8.174-7.142-9.301c-0.144-0.038-0.248-0.159-0.265-0.307c-0.018-0.146,0.058-0.289,0.188-0.358
	c1.677-0.897,2.719-2.635,2.719-4.534c0-2.834-2.306-5.14-5.14-5.14s-5.14,2.306-5.14,5.14c0,1.899,1.042,3.637,2.719,4.534
	c0.131,0.07,0.206,0.214,0.188,0.361s-0.125,0.269-0.27,0.305C9.295,22.761,6.36,26.585,6.36,31H5.64
	c0-4.469,2.801-8.374,6.904-9.768c-1.5-1.095-2.404-2.844-2.404-4.732c0-3.231,2.628-5.86,5.86-5.86s5.86,2.628,5.86,5.86
	c0,1.894-0.908,3.646-2.414,4.739C23.555,22.687,26.36,26.593,26.36,31z M28,23.36c-1.853,0-3.36-1.508-3.36-3.36
	s1.508-3.36,3.36-3.36s3.36,1.507,3.36,3.36S29.853,23.36,28,23.36z M28,17.36c-1.456,0-2.64,1.184-2.64,2.64s1.184,2.64,2.64,2.64
	s2.64-1.184,2.64-2.64S29.456,17.36,28,17.36z M8,22.36H1c-0.129,0-0.248-0.069-0.312-0.181s-0.064-0.25,0.001-0.361l3.5-6
	c0.129-0.222,0.493-0.222,0.622,0l3.5,6c0.065,0.111,0.065,0.249,0.001,0.361C8.248,22.291,8.129,22.36,8,22.36z M1.627,21.64h5.746
	L4.5,16.714L1.627,21.64z M27.5,12.36c-0.062,0-0.123-0.016-0.179-0.047l-3.5-2C23.709,10.249,23.64,10.129,23.64,10V6
	c0-0.129,0.069-0.249,0.182-0.312l3.5-2c0.111-0.063,0.246-0.063,0.357,0l3.5,2C31.291,5.751,31.36,5.871,31.36,6v4
	c0,0.129-0.069,0.249-0.182,0.312l-3.5,2C27.623,12.344,27.562,12.36,27.5,12.36z M24.36,9.791l3.14,1.794l3.14-1.794V6.209
	L27.5,4.415l-3.14,1.794V9.791z M8,11.36H2c-0.199,0-0.36-0.161-0.36-0.36V5c0-0.199,0.161-0.36,0.36-0.36h6
	c0.199,0,0.36,0.161,0.36,0.36v6C8.36,11.199,8.199,11.36,8,11.36z M2.36,10.64h5.28V5.36H2.36V10.64z M16,7.36
	c-1.853,0-3.36-1.507-3.36-3.36S14.147,0.64,16,0.64S19.36,2.147,19.36,4S17.853,7.36,16,7.36z M16,1.36
	c-1.456,0-2.64,1.185-2.64,2.64S14.544,6.64,16,6.64S18.64,5.455,18.64,4S17.456,1.36,16,1.36z"/>
<rect id="_Transparent_Rectangle" style="fill:none;" width="32" height="32"/>
</svg>
