<?xml version="1.0" encoding="iso-8859-1"?>
<!-- Generator: Adobe Illustrator 30.4.0, SVG Export Plug-In . SVG Version: 9.03 Build 0)  -->
<svg version="1.1" id="Layer_1" xmlns="http://www.w3.org/2000/svg" xmlns:xlink="http://www.w3.org/1999/xlink" x="0px" y="0px"
	 viewBox="0 0 32 32" style="enable-background:new 0 0 32 32;" xml:space="preserve">
<path id="denver" d="M29,30.36H3V29.64h0.661l0.974-16.565L3.64,11V8.64h1.027C4.823,7.626,5.626,6.823,6.64,6.667V5h0.72v1.668
	C8.373,6.823,9.177,7.626,9.332,8.64h1.027l-0.038,2.521l-0.957,1.914l0.974,16.565h1.301V6h0.72v23.64h5.28V28.36H13V27.64h4.64
	V26.36H13V25.64h4.64V24.36H13V23.64h4.64V22.36H13V21.64h4.64V20.36H14V19.64h3.64V18.36H14V17.64h3.64v-1.28H14v-0.72h3.64v-1.28
	H14v-0.72h3.64v-1.28H15v-0.72h2.64v-1.28H15V9.64h2.619c-0.242-2.055-2.545-2.273-2.648-2.281l-0.33-0.028l0-2.971H14
	c-1.622,0-1.641,1.573-1.641,1.64h-0.72c0-0.816,0.493-2.36,2.36-2.36h1.359v3.043c1.193,0.208,3,1.087,3,3.316v19.64h2.279V27.36
	H20V26.64h0.64V15.36H20v-0.72h0.64v-4h1V9.36h-1.408l3.1-3.72h0.309V3h0.721v2.64h0.309l3.1,3.72H26.36v1.28h1v4H28v0.72h-0.64
	v11.28H28v0.721h-0.64v2.279H29L29,30.36L29,30.36z M24.36,29.64h2.279V27.36H21.36v2.279h2.279V28h0.721V29.64z M7.36,29.64h2.258
	L9.014,19.36H7.36v2.279H9v0.721H7.36v2.279H9v0.721H7.36v2.279H9v0.721H7.36C7.36,28.36,7.36,29.64,7.36,29.64z M4.382,29.64H6.64
	V28.36H5V27.64h1.64V25.36H5V24.64h1.64V22.36H5V21.64h1.64V19.36H4.986C4.986,19.36,4.382,29.64,4.382,29.64z M21.36,26.64h5.279
	V15.36H21.36V26.64z M7.36,18.64h1.611l-0.134-2.28H7.36L7.36,18.64L7.36,18.64z M5.029,18.64H6.64v-2.28H5.163L5.029,18.64
	L5.029,18.64z M7.36,15.64h1.435l-0.134-2.28H7.36C7.36,13.36,7.36,15.64,7.36,15.64z M5.206,15.64H6.64v-2.28H5.339L5.206,15.64z
	 M21.36,14.64h5.279v-3.28H21.36V14.64z M7.36,12.64h1.418l0.64-1.28H7.36C7.36,11.36,7.36,12.64,7.36,12.64z M5.223,12.64H6.64
	v-1.28H4.583L5.223,12.64z M22.36,10.64h3.279V9.36H22.36V10.64z M7.36,10.64h2.28V9.36H7.36C7.36,9.36,7.36,10.64,7.36,10.64z
	 M4.36,10.64h2.28V9.36H4.36C4.36,9.36,4.36,10.64,4.36,10.64z M26,8.64h0.231l-1.9-2.28h-0.662l-1.9,2.28H26L26,8.64z M5.4,8.64
	h3.2C8.435,7.908,7.781,7.36,7,7.36S5.564,7.908,5.4,8.64z M24.36,26H23.64V16h0.721V26z M24.36,14H23.64v-2h0.721V14z"/>
<rect id="Transparent_Rectangle" style="fill:none;" width="32" height="32"/>
</svg>
