<svg xmlns="http://www.w3.org/2000/svg" viewBox="0 0 48 48"><path d="M37,10.5c0,0.276-0.224,0.5-0.5,0.5S36,10.776,36,10.5s0.224-0.5,0.5-0.5S37,10.224,37,10.5z M34.5,10 c-0.276,0-0.5,0.224-0.5,0.5s0.224,0.5,0.5,0.5s0.5-0.224,0.5-0.5S34.776,10,34.5,10z M32.5,10c-0.276,0-0.5,0.224-0.5,0.5 s0.224,0.5,0.5,0.5s0.5-0.224,0.5-0.5S32.776,10,32.5,10z"/><path fill="none" stroke-linejoin="round" stroke-miterlimit="10" stroke-width=".72" d="M12,16h10 M12,19h10 M12,22h6"/><path fill="none" stroke-linejoin="round" stroke-miterlimit="10" stroke-width=".72" d="M39,30H9V9h30V30z M9,33h30 M9,12h30 M9,36h30 M9,39h30 M32,15c-2.209,0-4,1.791-4,4s1.791,4,4,4s4-1.791,4-4S34.209,15,32,15z M32,19l3.457-2.013 M32,19l-3.457-2.013 M32,19l-2.007,3.461"/></svg>