<?xml version="1.0" encoding="iso-8859-1"?>
<!-- Generator: Adobe Illustrator 24.1.2, SVG Export Plug-In . SVG Version: 6.00 Build 0)  -->
<svg version="1.1" xmlns="http://www.w3.org/2000/svg" xmlns:xlink="http://www.w3.org/1999/xlink" x="0px" y="0px"
	 viewBox="0 0 48 48" style="enable-background:new 0 0 48 48;" xml:space="preserve">
<g id="design-thinking-team">
	
		<path id="design-thinking-team_1_" style="fill:none;stroke:#000000;stroke-width:0.72;stroke-linejoin:round;stroke-miterlimit:10;" d="
		M31,39v-7c-1.109-0.401-2-1.259-2-2.392v-4.015C29,23.613,30.521,22,32.5,22c1.979,0,3.5,1.604,3.5,3.583V29.6
		c0,1.131-0.891,1.999-2,2.4v7 M32.5,12.982c-1.104,0-2,0.895-2,2c0,1.104,0.896,2,2,2c1.104,0,2-0.896,2-2
		C34.5,13.877,33.604,12.982,32.5,12.982z M17,39v-7c1.109-0.401,2-1.269,2-2.4v-4.017C19,23.604,17.479,22,15.5,22
		c-1.979,0-3.5,1.613-3.5,3.593v4.015c0,1.133,0.891,1.991,2,2.392v7 M15.5,12.982c-1.104,0-2,0.895-2,2c0,1.104,0.896,2,2,2
		c1.104,0,2-0.896,2-2C17.5,13.877,16.604,12.982,15.5,12.982z M28.101,10.68c2.265-2.24,5.936-2.24,8.201,0
		c2.264,2.242,2.264,5.874,0,8.115c-2.265,2.24-5.936,2.24-8.201,0L19.9,10.68c-2.265-2.24-5.936-2.24-8.202,0
		c-2.264,2.242-2.264,5.874,0,8.115c2.266,2.24,5.937,2.24,8.202,0L28.101,10.68z"/>
</g>
<g id="Layer_1">
</g>
</svg>
