<?xml version="1.0" encoding="iso-8859-1"?>
<!-- Generator: Adobe Illustrator 24.1.2, SVG Export Plug-In . SVG Version: 6.00 Build 0)  -->
<svg version="1.1" id="Layer_1" xmlns="http://www.w3.org/2000/svg" xmlns:xlink="http://www.w3.org/1999/xlink" x="0px" y="0px"
	 viewBox="0 0 32 32" style="enable-background:new 0 0 32 32;" xml:space="preserve">
<path id="design-thinking-team_1_" d="M26.36,31h-0.72v-7c0-0.151,0.096-0.287,0.238-0.339c0.852-0.308,1.762-1.012,1.762-2.062
	v-4.017c0-1.807-1.379-3.223-3.14-3.223s-3.14,1.42-3.14,3.233v4.016c0,1.044,0.91,1.745,1.762,2.053
	c0.143,0.052,0.238,0.188,0.238,0.339v7h-0.72v-6.755c-1.24-0.529-2-1.521-2-2.637v-4.016c0-2.216,1.696-3.953,3.86-3.953
	s3.86,1.732,3.86,3.943V21.6c0,1.12-0.76,2.116-2,2.646V31z M9.36,31H8.64v-7c0-0.151,0.095-0.287,0.237-0.339
	c0.852-0.308,1.763-1.012,1.763-2.062v-4.017c0-1.807-1.379-3.223-3.14-3.223s-3.14,1.42-3.14,3.233v4.016
	c0,1.043,0.911,1.745,1.763,2.053C6.265,23.713,6.36,23.849,6.36,24v7H5.64v-6.755c-1.241-0.529-2-1.521-2-2.637v-4.016
	c0-2.216,1.695-3.953,3.86-3.953s3.86,1.732,3.86,3.943V21.6c0,1.12-0.759,2.115-2,2.646V31z M24.201,12.832
	c-1.576,0-3.153-0.594-4.354-1.781L16,7.244l-3.847,3.807c-2.402,2.374-6.308,2.373-8.708,0C2.281,9.899,1.64,8.368,1.64,6.739
	c0-1.63,0.641-3.162,1.804-4.314c2.401-2.374,6.308-2.374,8.708,0L16,6.231l3.848-3.807l0,0c2.401-2.375,6.308-2.374,8.707,0
	c1.165,1.152,1.806,2.685,1.806,4.314s-0.642,3.16-1.806,4.312C27.354,12.238,25.778,12.832,24.201,12.832z M16.512,6.737
	l3.841,3.802c2.124,2.099,5.575,2.098,7.695,0c1.026-1.016,1.591-2.365,1.592-3.801c0-1.436-0.565-2.786-1.592-3.802
	c-2.121-2.098-5.572-2.099-7.695,0L16.512,6.737z M7.799,1.363c-1.394,0-2.787,0.524-3.849,1.573C2.925,3.952,2.36,5.303,2.36,6.738
	c0,1.436,0.565,2.785,1.591,3.801c2.121,2.098,5.574,2.098,7.696,0l3.841-3.802l-3.842-3.801C10.586,1.887,9.192,1.363,7.799,1.363z
	 M24.5,9.342c-1.302,0-2.36-1.059-2.36-2.36s1.059-2.36,2.36-2.36s2.36,1.059,2.36,2.36S25.802,9.342,24.5,9.342z M24.5,5.342
	c-0.904,0-1.64,0.736-1.64,1.64s0.735,1.64,1.64,1.64s1.64-0.736,1.64-1.64S25.404,5.342,24.5,5.342z M7.5,9.342
	c-1.301,0-2.36-1.059-2.36-2.36s1.059-2.36,2.36-2.36s2.36,1.059,2.36,2.36S8.801,9.342,7.5,9.342z M7.5,5.342
	c-0.904,0-1.64,0.736-1.64,1.64s0.736,1.64,1.64,1.64s1.64-0.736,1.64-1.64S8.404,5.342,7.5,5.342z"/>
<rect id="_Transparent_Rectangle" style="fill:none;" width="32" height="32"/>
</svg>
