<?xml version="1.0" encoding="iso-8859-1"?>
<!-- Generator: Adobe Illustrator 24.1.2, SVG Export Plug-In . SVG Version: 6.00 Build 0)  -->
<svg version="1.1" id="Layer_1" xmlns="http://www.w3.org/2000/svg" xmlns:xlink="http://www.w3.org/1999/xlink" x="0px" y="0px"
	 viewBox="0 0 32 32" style="enable-background:new 0 0 32 32;" xml:space="preserve">
<path id="detect--and--stop--advancing--threats_1_" style="fill-rule:evenodd;clip-rule:evenodd;" d="M9,3.5
	C8.724,3.5,8.5,3.724,8.5,4S8.724,4.5,9,4.5S9.5,4.276,9.5,4S9.276,3.5,9,3.5z M5,3.5C4.724,3.5,4.5,3.724,4.5,4S4.724,4.5,5,4.5
	S5.5,4.276,5.5,4S5.276,3.5,5,3.5z M7,6.5C6.724,6.5,6.5,6.724,6.5,7S6.724,7.5,7,7.5S7.5,7.276,7.5,7S7.276,6.5,7,6.5z M2,4.5
	C1.724,4.5,1.5,4.724,1.5,5S1.724,5.5,2,5.5S2.5,5.276,2.5,5S2.276,4.5,2,4.5z M4,8.5C3.724,8.5,3.5,8.724,3.5,9S3.724,9.5,4,9.5
	S4.5,9.276,4.5,9S4.276,8.5,4,8.5 M2,9.5c-0.276,0-0.5,0.224-0.5,0.5s0.224,0.5,0.5,0.5s0.5-0.224,0.5-0.5S2.276,9.5,2,9.5z M5,10.5
	c-0.276,0-0.5,0.224-0.5,0.5s0.224,0.5,0.5,0.5s0.5-0.224,0.5-0.5S5.276,10.5,5,10.5z M3,11.5c-0.276,0-0.5,0.224-0.5,0.5
	s0.224,0.5,0.5,0.5s0.5-0.224,0.5-0.5S3.276,11.5,3,11.5z M6,12.5c-0.276,0-0.5,0.224-0.5,0.5s0.224,0.5,0.5,0.5s0.5-0.224,0.5-0.5
	S6.276,12.5,6,12.5z M1.5,13.5C1.224,13.5,1,13.724,1,14s0.224,0.5,0.5,0.5S2,14.276,2,14S1.776,13.5,1.5,13.5z M4,14.5
	c-0.276,0-0.5,0.224-0.5,0.5s0.224,0.5,0.5,0.5s0.5-0.224,0.5-0.5S4.276,14.5,4,14.5z M2.5,15.5C2.224,15.5,2,15.724,2,16
	c0,0.276,0.224,0.5,0.5,0.5S3,16.276,3,16S2.776,15.5,2.5,15.5z M4,17.5c-0.276,0-0.5,0.224-0.5,0.5s0.224,0.5,0.5,0.5
	s0.5-0.224,0.5-0.5S4.276,17.5,4,17.5z M7,17.5c-0.276,0-0.5,0.224-0.5,0.5s0.224,0.5,0.5,0.5s0.5-0.224,0.5-0.5S7.276,17.5,7,17.5z
	 M7,20.5c-0.276,0-0.5,0.224-0.5,0.5s0.224,0.5,0.5,0.5s0.5-0.224,0.5-0.5S7.276,20.5,7,20.5z M3,20.5c-0.276,0-0.5,0.224-0.5,0.5
	s0.224,0.5,0.5,0.5s0.5-0.224,0.5-0.5S3.276,20.5,3,20.5z M6,22.5c-0.276,0-0.5,0.224-0.5,0.5s0.224,0.5,0.5,0.5s0.5-0.224,0.5-0.5
	S6.276,22.5,6,22.5z M4,23.5c-0.276,0-0.5,0.224-0.5,0.5s0.224,0.5,0.5,0.5s0.5-0.224,0.5-0.5S4.276,23.5,4,23.5z M11,23.5
	c-0.276,0-0.5,0.224-0.5,0.5s0.224,0.5,0.5,0.5s0.5-0.224,0.5-0.5S11.276,23.5,11,23.5z M8,25.5c-0.276,0-0.5,0.224-0.5,0.5
	s0.224,0.5,0.5,0.5s0.5-0.224,0.5-0.5S8.276,25.5,8,25.5z M5,26.5c-0.276,0-0.5,0.224-0.5,0.5s0.224,0.5,0.5,0.5s0.5-0.224,0.5-0.5
	S5.276,26.5,5,26.5z M4,28.5c-0.276,0-0.5,0.224-0.5,0.5s0.224,0.5,0.5,0.5s0.5-0.224,0.5-0.5S4.276,28.5,4,28.5z M12,27.5
	c-0.276,0-0.5,0.224-0.5,0.5s0.224,0.5,0.5,0.5s0.5-0.224,0.5-0.5S12.276,27.5,12,27.5z M14,30c-0.276,0-0.5,0.224-0.5,0.5
	S13.724,31,14,31s0.5-0.224,0.5-0.5S14.276,30,14,30z M19,26.5c-0.276,0-0.5,0.224-0.5,0.5s0.224,0.5,0.5,0.5s0.5-0.224,0.5-0.5
	S19.276,26.5,19,26.5z M19.5,0.64c-6.54,0-11.86,5.32-11.86,11.86s5.32,11.86,11.86,11.86s11.86-5.32,11.86-11.86
	S26.04,0.64,19.5,0.64z M19.5,23.64c-6.143,0-11.14-4.997-11.14-11.14S13.357,1.36,19.5,1.36S30.64,6.357,30.64,12.5
	S25.643,23.64,19.5,23.64z M15.254,15.254L14.009,16.5l1.245,1.245l-0.509,0.51L13.5,17.009l-1.246,1.246l-0.509-0.51L12.99,16.5
	l-1.245-1.246l0.509-0.509L13.5,15.99l1.246-1.245L15.254,15.254z M26.255,13.254L25.009,14.5l1.246,1.246l-0.51,0.509L24.5,15.009
	l-1.245,1.245l-0.51-0.509l1.246-1.246l-1.246-1.246l0.51-0.509l1.245,1.245l1.245-1.245L26.255,13.254z M20.255,6.254L19.009,7.5
	l1.246,1.246l-0.51,0.509L18.5,8.009l-1.245,1.245l-0.509-0.509L17.991,7.5l-1.245-1.246l0.509-0.509L18.5,6.991l1.245-1.245
	L20.255,6.254z"/>
<rect id="_Transparent_Rectangle" style="fill:none;" width="32" height="32"/>
</svg>
