<?xml version="1.0" encoding="iso-8859-1"?>
<!-- Generator: Adobe Illustrator 29.1.0, SVG Export Plug-In . SVG Version: 9.03 Build 55587)  -->
<svg version="1.1" id="Layer_1" xmlns="http://www.w3.org/2000/svg" xmlns:xlink="http://www.w3.org/1999/xlink" x="0px" y="0px"
	 viewBox="0 0 32 32" style="enable-background:new 0 0 32 32;" xml:space="preserve">
<path id="devops--loop--02_00000116927056671933674300000007490768017903853997_" d="M9.5,31.36c-4.885,0-8.86-3.975-8.86-8.86
	s3.975-8.86,8.86-8.86c0.887,0,1.764,0.131,2.605,0.389l-0.211,0.688C11.121,14.48,10.315,14.36,9.5,14.36
	c-4.488,0-8.14,3.652-8.14,8.14s3.652,8.14,8.14,8.14s8.14-3.651,8.14-8.14c0-2.225-0.66-4.393-1.909-6.271
	c-1.348-2.026-2.09-4.417-2.09-6.729c0-4.885,3.974-8.86,8.86-8.86s8.86,3.975,8.86,8.86s-3.975,8.86-8.86,8.86
	c-0.889,0-1.766-0.132-2.605-0.391l0.211-0.688c0.772,0.237,1.578,0.357,2.395,0.357c4.488,0,8.14-3.651,8.14-8.14
	s-3.651-8.14-8.14-8.14s-8.14,3.652-8.14,8.14c0,2.173,0.7,4.421,1.97,6.331c1.328,1.996,2.03,4.303,2.03,6.669
	C18.36,27.386,14.385,31.36,9.5,31.36z M10.944,28.36H8.056v-1.54l-0.587-0.246l-1.091,1.091l-2.043-2.043l1.089-1.089l-0.242-0.589
	H3.64v-2.889h1.54l0.246-0.587l-1.091-1.091l2.043-2.043l1.089,1.089l0.589-0.241V16.64h2.889v1.54l0.587,0.246l1.091-1.091
	l2.043,2.043l-1.09,1.089l0.242,0.589h1.542v2.889h-1.54l-0.246,0.587l1.091,1.091l-2.043,2.043l-1.089-1.089l-0.589,0.241
	C10.944,26.818,10.944,28.36,10.944,28.36z M8.775,27.64h1.449v-1.305l1.479-0.606l0.919,0.919l1.024-1.025L12.723,24.7l0.617-1.476
	h1.3v-1.447h-1.305l-0.607-1.479l0.919-0.919l-1.024-1.025L11.7,19.275l-1.475-0.615v-1.3h-1.45v1.305l-1.479,0.606l-0.919-0.919
	l-1.024,1.025L6.276,20.3L5.66,21.776h-1.3v1.447h1.305l0.607,1.479l-0.918,0.919l1.024,1.025l0.923-0.923l1.475,0.615L8.775,27.64
	L8.775,27.64z M9.5,24.86c-1.301,0-2.36-1.059-2.36-2.36s1.059-2.36,2.36-2.36s2.36,1.059,2.36,2.36S10.801,24.86,9.5,24.86z
	 M9.5,20.86c-0.904,0-1.64,0.735-1.64,1.64s0.736,1.64,1.64,1.64s1.64-0.735,1.64-1.64S10.404,20.86,9.5,20.86z M23.944,15.36
	h-2.889v-1.54l-0.587-0.246l-1.091,1.091l-2.042-2.042l1.089-1.089l-0.242-0.589H16.64V8.056h1.541l0.245-0.587l-1.09-1.091
	l2.042-2.042l1.089,1.089l0.589-0.242V3.64h2.889v1.54l0.587,0.246l1.091-1.091l2.043,2.042l-1.089,1.089l0.241,0.589h1.543v2.889
	h-1.54l-0.246,0.587l1.091,1.091l-2.043,2.042l-1.089-1.089l-0.589,0.242L23.944,15.36L23.944,15.36z M21.776,14.64h1.447v-1.305
	l1.479-0.607l0.919,0.918l1.025-1.024l-0.923-0.923l0.615-1.475h1.3V8.775h-1.305l-0.606-1.479l0.919-0.919l-1.025-1.024
	l-0.923,0.923L23.224,5.66v-1.3h-1.447v1.305l-1.479,0.607l-0.919-0.918l-1.024,1.024l0.924,0.924l-0.618,1.474H17.36v1.449h1.305
	l0.607,1.479l-0.919,0.919l1.024,1.024l0.923-0.923l1.476,0.617C21.776,13.341,21.776,14.64,21.776,14.64z M22.5,11.86
	c-1.302,0-2.36-1.059-2.36-2.36s1.059-2.36,2.36-2.36s2.36,1.059,2.36,2.36S23.802,11.86,22.5,11.86z M22.5,7.86
	c-0.904,0-1.64,0.736-1.64,1.64s0.735,1.64,1.64,1.64s1.64-0.736,1.64-1.64S23.404,7.86,22.5,7.86z"/>
<rect id="_Transparent_Rectangle" style="fill:none;" width="32" height="32"/>
</svg>
