<?xml version="1.0" encoding="iso-8859-1"?>
<!-- Generator: Adobe Illustrator 24.1.2, SVG Export Plug-In . SVG Version: 6.00 Build 0)  -->
<svg version="1.1" id="Layer_1" xmlns="http://www.w3.org/2000/svg" xmlns:xlink="http://www.w3.org/1999/xlink" x="0px" y="0px"
	 viewBox="0 0 32 32" style="enable-background:new 0 0 32 32;" xml:space="preserve">
<path id="devops_1_" d="M18,31.36h-4c-0.128,0-0.248-0.069-0.312-0.181l-2-3.464c-0.064-0.111-0.064-0.248,0-0.359l2-3.464
	c0.064-0.111,0.183-0.181,0.312-0.181h3.792l2.896-5.016c0.1-0.174,0.32-0.231,0.491-0.132c0.173,0.1,0.231,0.319,0.132,0.491
	l-2.896,5.017l1.896,3.284c0.064,0.111,0.064,0.248,0,0.359l-2,3.464C18.247,31.291,18.129,31.36,18,31.36z M14.208,30.64h3.584
	l1.792-3.104l-1.792-3.104h-3.584l-1.792,3.104L14.208,30.64z M28,25.593h-4c-0.129,0-0.247-0.069-0.312-0.181l-2-3.465
	c-0.064-0.111-0.064-0.248,0-0.359l1.896-3.284l-2.896-5.016c-0.1-0.172-0.041-0.393,0.132-0.492c0.171-0.1,0.392-0.041,0.491,0.131
	l2.896,5.016H28c0.129,0,0.247,0.069,0.312,0.181l2,3.464c0.064,0.111,0.064,0.248,0,0.359l-2,3.465
	C28.247,25.523,28.129,25.593,28,25.593z M24.208,24.872h3.584l1.792-3.104l-1.792-3.104h-3.584l-1.792,3.104L24.208,24.872z
	 M8,25.593H4c-0.128,0-0.248-0.069-0.312-0.181l-2-3.465c-0.064-0.111-0.064-0.248,0-0.359l2-3.464
	C3.752,18.013,3.872,17.943,4,17.943h4c0.128,0,0.248,0.069,0.312,0.181l1.896,3.283H16c0.199,0,0.36,0.161,0.36,0.36
	s-0.161,0.36-0.36,0.36h-5.792l-1.896,3.284C8.248,25.523,8.128,25.593,8,25.593z M4.208,24.872h3.584l1.792-3.104l-1.792-3.104
	H4.208l-1.792,3.104L4.208,24.872z M11,19.253c-0.125,0-0.246-0.064-0.312-0.181l-2.896-5.016H4c-0.128,0-0.248-0.068-0.312-0.18
	l-2-3.464c-0.064-0.111-0.064-0.249,0-0.36l2-3.464C3.752,6.477,3.872,6.408,4,6.408h4c0.128,0,0.248,0.068,0.312,0.18l2,3.464
	c0.064,0.111,0.064,0.249,0,0.36l-1.896,3.284l2.896,5.017c0.099,0.172,0.04,0.392-0.132,0.491
	C11.124,19.237,11.062,19.253,11,19.253z M4.208,13.336h3.584l1.792-3.104L7.792,7.128H4.208l-1.792,3.104L4.208,13.336z M28,14.056
	h-4c-0.129,0-0.247-0.068-0.312-0.18l-1.896-3.285H16c-0.199,0-0.36-0.161-0.36-0.36s0.161-0.36,0.36-0.36h5.792l1.896-3.284
	c0.064-0.111,0.183-0.18,0.312-0.18h4c0.129,0,0.247,0.068,0.312,0.18l2,3.464c0.064,0.111,0.064,0.249,0,0.36l-2,3.464
	C28.247,13.988,28.129,14.056,28,14.056z M24.208,13.336h3.584l1.792-3.104l-1.792-3.104h-3.584l-1.792,3.104L24.208,13.336z
	 M11,13.484c-0.061,0-0.123-0.015-0.18-0.048c-0.172-0.1-0.231-0.32-0.132-0.492l2.896-5.016l-1.896-3.284
	c-0.064-0.112-0.064-0.249,0-0.36l2-3.464C13.752,0.708,13.872,0.64,14,0.64h4c0.129,0,0.247,0.068,0.312,0.18l2,3.464
	c0.064,0.111,0.064,0.249,0,0.36l-2,3.464C18.247,8.22,18.129,8.288,18,8.288h-3.792l-2.896,5.017
	C11.245,13.42,11.124,13.484,11,13.484z M14.208,7.568h3.584l1.792-3.104L17.792,1.36h-3.584l-1.792,3.104L14.208,7.568z"/>
<rect id="_Transparent_Rectangle" style="fill:none;" width="32" height="32"/>
</svg>
