<?xml version="1.0" encoding="iso-8859-1"?>
<!-- Generator: Adobe Illustrator 22.0.0, SVG Export Plug-In . SVG Version: 6.00 Build 0)  -->
<svg version="1.1" xmlns="http://www.w3.org/2000/svg" xmlns:xlink="http://www.w3.org/1999/xlink" x="0px" y="0px"
	 viewBox="0 0 48 48" style="enable-background:new 0 0 48 48;" xml:space="preserve">
<g id="devops">
	
		<path id="devops_1_" style="fill:none;stroke:#000000;stroke-width:0.72;stroke-linecap:round;stroke-linejoin:round;stroke-miterlimit:10;" d="
		M26,9l2,3.464l-2,3.464l-4,0l-2-3.464L22,9L26,9z M22,15.928l-3,5.196 M10.01,18.232l2,3.464l4,0l2-3.464l-2-3.464l-4,0
		L10.01,18.232z M19.01,26.892l-3-5.196 M12.01,33.232h4l2-3.464l-2-3.464l-4,0l-2,3.464L12.01,33.232z M24.01,29.768l-6,0 M26,39
		l2-3.464l-2-3.464h-4l-2,3.464L22,39H26z M26,32.072l3-5.196 M37.99,29.768l-2-3.464l-4,0l-2,3.464l2,3.464h4L37.99,29.768z
		 M28.99,21.108l3,5.196 M35.99,14.768l-4,0l-2,3.464l2,3.464l4,0l2-3.464L35.99,14.768z M29.99,18.232l-6,0"/>
</g>
<g id="Layer_1">
</g>
</svg>
