<?xml version="1.0" encoding="iso-8859-1"?>
<!-- Generator: Adobe Illustrator 24.1.2, SVG Export Plug-In . SVG Version: 6.00 Build 0)  -->
<svg version="1.1" xmlns="http://www.w3.org/2000/svg" xmlns:xlink="http://www.w3.org/1999/xlink" x="0px" y="0px"
	 viewBox="0 0 48 48" style="enable-background:new 0 0 48 48;" xml:space="preserve">
<g id="distribution--ledger">
	<g id="distribution--ledger_1_">
		
			<rect x="10" y="10" style="fill:none;stroke:#000000;stroke-width:0.72;stroke-linejoin:round;stroke-miterlimit:10;" width="28" height="28"/>
		<line style="fill:none;stroke:#000000;stroke-width:0.72;stroke-miterlimit:10;" x1="24" y1="14" x2="10" y2="14"/>
		<line style="fill:none;stroke:#000000;stroke-width:0.72;stroke-miterlimit:10;" x1="24" y1="28" x2="38" y2="28"/>
		<line style="fill:none;stroke:#000000;stroke-width:0.72;stroke-miterlimit:10;" x1="13" y1="12" x2="21" y2="12"/>
		<line style="fill:none;stroke:#000000;stroke-width:0.72;stroke-miterlimit:10;" x1="27" y1="26" x2="35" y2="26"/>
		<line style="fill:none;stroke:#000000;stroke-width:0.72;stroke-miterlimit:10;" x1="13" y1="17" x2="21" y2="17"/>
		<line style="fill:none;stroke:#000000;stroke-width:0.72;stroke-miterlimit:10;" x1="13" y1="19" x2="21" y2="19"/>
		<line style="fill:none;stroke:#000000;stroke-width:0.72;stroke-miterlimit:10;" x1="13" y1="21" x2="18" y2="21"/>
		<line style="fill:none;stroke:#000000;stroke-width:0.72;stroke-miterlimit:10;" x1="27" y1="31" x2="35" y2="31"/>
		<line style="fill:none;stroke:#000000;stroke-width:0.72;stroke-miterlimit:10;" x1="27" y1="33" x2="35" y2="33"/>
		<line style="fill:none;stroke:#000000;stroke-width:0.72;stroke-miterlimit:10;" x1="27" y1="35" x2="32" y2="35"/>
		<path id="XMLID_5_" style="fill:none;stroke:#000000;stroke-width:0.72;stroke-linejoin:round;stroke-miterlimit:10;" d="M13,38
			l0-2.746c0-1.89,1.312-3.473,3.074-3.891c-0.798-0.355-1.355-1.153-1.355-2.083c0-1.259,1.021-2.28,2.28-2.28
			s2.28,1.021,2.28,2.28c0,0.93-0.557,1.728-1.355,2.083C19.688,31.781,21,33.364,21,35.254V38"/>
		<path id="XMLID_4_" style="fill:none;stroke:#000000;stroke-width:0.72;stroke-linejoin:round;stroke-miterlimit:10;" d="M27,24
			l0-2.746c0-1.89,1.312-3.473,3.074-3.891c-0.798-0.355-1.355-1.153-1.355-2.083c0-1.259,1.021-2.28,2.28-2.28
			c1.259,0,2.28,1.021,2.28,2.28c0,0.93-0.557,1.728-1.355,2.083C33.688,17.781,35,19.364,35,21.254V24"/>
		<line style="fill:none;stroke:#000000;stroke-width:0.72;stroke-miterlimit:10;" x1="24" y1="10" x2="24" y2="38"/>
		<line style="fill:none;stroke:#000000;stroke-width:0.72;stroke-miterlimit:10;" x1="10" y1="24" x2="38" y2="24"/>
	</g>
</g>
<g id="Layer_1">
</g>
</svg>
