<svg xmlns="http://www.w3.org/2000/svg" viewBox="0 0 48 48"><path fill="none" stroke-linecap="round" stroke-linejoin="round" stroke-miterlimit="10" stroke-width=".72" d="M39,24c0,8.284-6.716,15-15,15S9,32.284,9,24S15.716,9,24,9S39,15.716,39,24z M26.85,24l3.562-3.562 c0.784-0.784,0.784-2.066,0-2.85l0,0c-0.784-0.784-2.066-0.784-2.85,0L24,21.15l0,0l-3.562-3.562c-0.784-0.784-2.066-0.784-2.85,0 l0,0c-0.784,0.784-0.784,2.066,0,2.85L21.15,24l0,0l-3.562,3.562c-0.784,0.784-0.784,2.066,0,2.85l0,0 c0.784,0.784,2.066,0.784,2.85,0L24,26.85l0,0l3.562,3.562c0.784,0.784,2.066,0.784,2.85,0l0,0c0.784-0.784,0.784-2.066,0-2.85 L26.85,24L26.85,24z"/></svg>