<?xml version="1.0" encoding="iso-8859-1"?>
<!-- Generator: Adobe Illustrator 24.1.2, SVG Export Plug-In . SVG Version: 6.00 Build 0)  -->
<svg version="1.1" id="Layer_1" xmlns="http://www.w3.org/2000/svg" xmlns:xlink="http://www.w3.org/1999/xlink" x="0px" y="0px"
	 viewBox="0 0 32 32" style="enable-background:new 0 0 32 32;" xml:space="preserve">
<path id="docker_1_" d="M12.75,22c0,0.414-0.336,0.75-0.75,0.75s-0.75-0.336-0.75-0.75s0.336-0.75,0.75-0.75S12.75,21.586,12.75,22z
	 M27.814,17.26h0.215c1.345,0,2.603-0.719,3.281-1.875c0.066-0.112,0.066-0.252,0-0.364c-0.613-1.044-1.664-1.718-2.857-1.848
	c-0.111-1.225-0.83-2.331-1.932-2.939c-0.107-0.061-0.239-0.061-0.349,0c-1.2,0.665-1.946,1.919-1.946,3.273
	c0,0.768,0.241,1.514,0.679,2.138H22.36V12c0-0.199-0.161-0.36-0.36-0.36h-3.64V4c0-0.199-0.161-0.36-0.36-0.36h-4
	c-0.199,0-0.36,0.161-0.36,0.36v3.64H10C9.801,7.64,9.64,7.801,9.64,8v3.64H6c-0.199,0-0.36,0.161-0.36,0.36v3.642H1l0,0
	c-0.096,0-0.187,0.038-0.254,0.105c-0.068,0.067-0.105,0.159-0.105,0.254v0.898c0,2.826,1.148,5.394,3.011,7.277
	c0.033,0.058,0.081,0.105,0.139,0.138c1.929,1.882,4.586,3.046,7.516,3.046C20.144,27.36,27.121,21.447,27.814,17.26z
	 M10.047,23.647c0.19-0.057,0.299-0.257,0.243-0.447s-0.256-0.301-0.448-0.242c-1.425,0.423-3.499,0.67-5.71,0.682
	C2.416,21.889,1.36,19.513,1.36,16.9v-0.539l24.34,0.003l0,0c0.148,0,0.282-0.091,0.336-0.23s0.017-0.296-0.094-0.396
	c-0.633-0.574-0.995-1.387-0.995-2.231c0-1.026,0.531-1.981,1.4-2.54c0.869,0.558,1.4,1.513,1.4,2.54v0.004
	c0,0.196,0.156,0.355,0.353,0.36c1.005,0.022,1.915,0.517,2.474,1.333c-0.57,0.83-1.526,1.337-2.545,1.337h-0.531
	c-0.187,0-0.343,0.143-0.358,0.329c-0.337,3.844-7.287,9.771-15.834,9.771c-2.438,0-4.673-0.863-6.404-2.294
	C6.889,24.287,8.727,24.039,10.047,23.647z M18.36,12.36h3.279v3.28H18.36V12.36z M14.36,12.36h3.28v3.28h-3.28V12.36z M10.36,12.36
	h3.28v3.28h-3.28V12.36z M6.36,12.36h3.28v3.28H6.36V12.36z M14.36,8.36h3.28v3.28h-3.28V8.36z M10.36,8.36h3.28v3.28h-3.28V8.36z
	 M14.36,4.36h3.28v3.28h-3.28V4.36z"/>
<rect id="_Transparent_Rectangle" style="fill:none;" width="32" height="32"/>
</svg>
