<?xml version="1.0" encoding="iso-8859-1"?>
<!-- Generator: Adobe Illustrator 24.3.0, SVG Export Plug-In . SVG Version: 6.00 Build 0)  -->
<svg version="1.1" id="Layer_1" xmlns="http://www.w3.org/2000/svg" xmlns:xlink="http://www.w3.org/1999/xlink" x="0px" y="0px"
	 viewBox="0 0 32 32" style="enable-background:new 0 0 32 32;" xml:space="preserve">
<path id="doctor-patient_1_" d="M31.36,30h-0.72v-9c0-3.358-2.151-6.289-5.354-7.292c-0.138-0.043-0.236-0.165-0.251-0.308
	c-0.014-0.144,0.059-0.282,0.185-0.351c1.492-0.82,2.42-2.372,2.42-4.049c0-2.559-2.081-4.64-4.64-4.64S18.36,6.441,18.36,9
	c0,1.677,0.928,3.229,2.421,4.049c0.126,0.069,0.198,0.208,0.185,0.351c-0.015,0.144-0.113,0.265-0.251,0.308
	C17.512,14.711,15.36,17.642,15.36,21v9h-0.72v-9c0-1.389,0.336-2.711,0.944-3.877c-0.567-0.963-1.326-1.778-2.224-2.401V17
	c0,2.283-1.764,4.162-4,4.346v2.329c0.854,0.168,1.5,0.923,1.5,1.825c0,1.025-0.834,1.86-1.86,1.86s-1.86-0.835-1.86-1.86
	c0-0.902,0.646-1.657,1.5-1.825v-2.329c-2.236-0.184-4-2.062-4-4.346v-2.281C2.617,16.116,1.36,18.433,1.36,21v9H0.64v-9
	c0-3.426,2.045-6.444,5.161-7.727C4.453,12.269,3.64,10.69,3.64,9c0-2.055,1.173-3.921,3.007-4.817C6.643,4.123,6.64,4.062,6.64,4
	c0-1.301,1.059-2.36,2.36-2.36S11.36,2.699,11.36,4c0,0.062-0.002,0.123-0.007,0.183C13.187,5.079,14.36,6.945,14.36,9
	c0,1.69-0.812,3.269-2.162,4.274c1.555,0.642,2.872,1.732,3.797,3.146c0.903-1.383,2.215-2.491,3.807-3.146
	C18.452,12.269,17.64,10.69,17.64,9c0-2.956,2.405-5.36,5.36-5.36S28.36,6.044,28.36,9c0,1.69-0.812,3.269-2.162,4.273
	c3.116,1.283,5.162,4.302,5.162,7.727V30z M9,24.36c-0.628,0-1.14,0.511-1.14,1.14S8.372,26.64,9,26.64s1.14-0.511,1.14-1.14
	S9.628,24.36,9,24.36z M5.36,14.278V17c0,2.007,1.633,3.64,3.64,3.64s3.64-1.633,3.64-3.64v-2.72
	c-0.429-0.231-0.882-0.423-1.355-0.571c-0.138-0.043-0.236-0.165-0.251-0.308c-0.014-0.144,0.059-0.282,0.185-0.351
	c1.493-0.821,2.421-2.373,2.421-4.05c0-1.725-0.955-3.296-2.459-4.097C10.825,5.757,9.982,6.36,9,6.36S7.175,5.757,6.819,4.903
	C5.314,5.704,4.36,7.275,4.36,9c0,1.677,0.928,3.229,2.421,4.049c0.126,0.069,0.199,0.208,0.185,0.351
	c-0.015,0.144-0.113,0.265-0.251,0.308C6.239,13.857,5.786,14.049,5.36,14.278z M9,2.36C8.096,2.36,7.36,3.096,7.36,4
	S8.096,5.64,9,5.64S10.64,4.904,10.64,4S9.904,2.36,9,2.36z M23,25.36c-0.092,0-0.185-0.035-0.255-0.105l-2.973-2.973
	c-0.4-0.401-0.622-0.934-0.625-1.499c-0.002-0.572,0.22-1.111,0.625-1.518c0.402-0.402,0.937-0.624,1.505-0.626
	c0.002,0,0.003,0,0.005,0c0.569,0,1.105,0.223,1.509,0.625L23,19.475l0.209-0.21c0.807-0.803,2.212-0.805,3.019,0
	c0.413,0.414,0.635,0.963,0.624,1.548c-0.01,0.555-0.231,1.077-0.624,1.47l-2.973,2.973C23.185,25.325,23.092,25.36,23,25.36z
	 M21.282,19.36c-0.001,0-0.002,0-0.003,0c-0.377,0-0.731,0.147-0.997,0.414c-0.269,0.269-0.416,0.626-0.414,1.005
	c0.001,0.375,0.148,0.729,0.414,0.993L23,24.491l2.718-2.719c0.261-0.26,0.407-0.605,0.413-0.973
	c0.008-0.388-0.139-0.752-0.413-1.025c-0.534-0.536-1.467-0.535-1.999,0l-0.464,0.464c-0.141,0.141-0.369,0.141-0.51,0l-0.464-0.464
	C22.015,19.507,21.659,19.36,21.282,19.36z"/>
<rect id="_Transparent_Rectangle" style="fill:none;" width="32" height="32"/>
</svg>
