<?xml version="1.0" encoding="iso-8859-1"?>
<!-- Generator: Adobe Illustrator 29.1.0, SVG Export Plug-In . SVG Version: 9.03 Build 55587)  -->
<svg version="1.1" id="Layer_1" xmlns="http://www.w3.org/2000/svg" xmlns:xlink="http://www.w3.org/1999/xlink" x="0px" y="0px"
	 viewBox="0 0 32 32" style="enable-background:new 0 0 32 32;" xml:space="preserve">
<path id="dog--02_00000058559304430097341410000008525791568167878820_" d="M26,30.36h-3.75c-1.036,0-1.37-1.35-1.549-2.074
	l-0.049-0.193c-0.406-1.532-1.577-5.551-1.909-6.688c-4.75,0.7-8.195-1.016-9.447-1.777c-0.431,2.274-2.898,5.448-3.012,5.595
	C5.36,26.149,5.36,26.149,5.36,27c-0.001,0.222-0.003,0.407,0.092,0.503C5.54,27.592,5.734,27.64,6,27.64
	c1.135,0,2.36,0.902,2.36,2.36c0,0.199-0.161,0.36-0.36,0.36H4c-1.322,0-1.36-2.119-1.36-2.36v-4c0-0.096,0.038-0.188,0.105-0.255
	c0.068-0.067,0.2-0.128,0.255-0.105c0.505-0.147,1.64-3.454,1.64-6.64c0-1.988,1.142-3.13,1.633-3.529
	c0.068-0.055,0.138-0.107,0.211-0.157C4.958,13.078,1.64,11.873,1.64,8h0.72c0,3.833,3.877,4.64,4.64,4.64h7
	c3.311,0,4.317-2.708,4.504-3.328l-0.826-1.651c-0.159-0.396-0.094-0.864,0.163-1.28l0.141-0.236C18.597,5.097,20.037,2.64,23,2.64
	c1.302,0,2.391,0.365,3.234,1.085c0.569,0.486,0.904,1.439,1.043,1.915H29c0.344,0,0.704,0.138,0.961,0.393
	C30.219,6.289,30.36,6.632,30.36,7c0,2.193-2.193,3.35-4.358,3.36c-0.365,0.001-0.63,0.27-0.643,0.652L25.36,16
	c0,1.873-1.569,3.683-2,4.145V27c0.002,0.147,0.056,0.64,0.64,0.64c1.191,0,2.36,1.169,2.36,2.36
	C26.36,30.199,26.199,30.36,26,30.36z M19,20.64c0.157,0,0.3,0.104,0.346,0.259c0.015,0.053,1.527,5.217,2.002,7.01l0.053,0.205
	c0.122,0.496,0.377,1.526,0.85,1.526h3.336c-0.199-0.671-0.91-1.28-1.587-1.28c-0.998,0-1.36-0.813-1.36-1.36v-7
	c0-0.096,0.038-0.187,0.105-0.254c0.02-0.02,1.895-1.922,1.895-3.746v-5c0.025-0.777,0.609-1.357,1.358-1.36
	C27.752,9.632,29.64,8.803,29.64,7c0-0.175-0.066-0.337-0.187-0.457c-0.119-0.118-0.278-0.183-0.448-0.183c-0.001,0-0.002,0-0.003,0
	H27c-0.168,0-0.313-0.116-0.352-0.28c-0.082-0.363-0.402-1.397-0.881-1.806C25.057,3.667,24.126,3.36,23,3.36
	c-2.551,0-3.798,2.127-4.397,3.15l-0.148,0.25c-0.132,0.213-0.18,0.457-0.12,0.607l1.488,2.972c0.118,0.292,0.325,0.492,0.539,0.536
	c0.146,0.029,0.269-0.013,0.385-0.129l0.749-0.75C21.586,9.905,21.64,9.72,21.64,9.5V6h0.721v3.5c0,0.42-0.127,0.777-0.356,1.005
	l-0.749,0.749c-0.291,0.289-0.667,0.401-1.038,0.325c-0.452-0.093-0.854-0.455-1.051-0.946l-0.231-0.461
	c-0.541,1.17-1.912,3.188-4.935,3.188H9c-0.661,0-1.592,0.116-2.273,0.669C6.316,14.363,5.36,15.321,5.36,17
	c0,2.683-0.875,6.188-1.767,7.078c-0.076,0.076-0.154,0.137-0.233,0.182V28c0.001,0.514,0.164,1.64,0.64,1.64h3.602
	C7.429,28.841,6.69,28.36,6,28.36c-0.479,0-0.826-0.115-1.059-0.351C4.634,27.7,4.638,27.294,4.64,27.051
	c0-1.201,0.084-1.284,1.106-2.307c0-0.004,2.895-3.729,2.895-5.745c0-0.137,0.077-0.261,0.199-0.321
	c0.122-0.063,0.268-0.048,0.377,0.033c0.039,0.029,3.955,2.902,9.725,1.933C18.961,20.642,18.98,20.64,19,20.64z"/>
<rect id="_Transparent_Rectangle" style="fill:none;" width="32" height="32"/>
</svg>
