<?xml version="1.0" encoding="iso-8859-1"?>
<!-- Generator: Adobe Illustrator 29.1.0, SVG Export Plug-In . SVG Version: 9.03 Build 55587)  -->
<svg version="1.1" id="Layer_1" xmlns="http://www.w3.org/2000/svg" xmlns:xlink="http://www.w3.org/1999/xlink" x="0px" y="0px"
	 viewBox="0 0 32 32" style="enable-background:new 0 0 32 32;" xml:space="preserve">
<path id="dog--walking_00000132784598662896975160000007376182026949437848_" d="M27.5,29.36c-0.534,0-0.89-0.238-1.084-0.727
	l-0.435-1.117l-0.414,1.033c-0.196,0.492-0.666,0.811-1.196,0.811c-0.428,0-0.826-0.212-1.066-0.566s-0.288-0.804-0.129-1.201
	l1.337-3.344l-3.402-0.851l-0.372,0.373l1.528,3.821c0.159,0.397,0.111,0.847-0.129,1.201s-0.639,0.566-1.067,0.566
	c-0.53,0-0.999-0.318-1.195-0.811l-0.856-2.14l-0.479,1.92c-0.154,0.616-0.673,1.03-1.289,1.03c-0.439,0-0.823-0.182-1.083-0.498
	s-0.362-0.728-0.281-1.129l1.44-7.196c0.09-0.452,0.324-0.858,0.652-1.177H17c-0.75,0-1.36-0.61-1.36-1.36s0.61-1.36,1.36-1.36h1
	v0.72h-1c-0.353,0-0.64,0.287-0.64,0.64s0.287,0.64,0.64,0.64h7.215l-10.107-4.205c-0.322,0.553-0.922,0.925-1.607,0.925h-2.14
	v1.491l3.309,3.308c0.478,0.478,0.691,1.269,0.691,1.841v5.5c0,1.025-0.834,1.86-1.86,1.86s-1.86-0.835-1.86-1.86v-4.351
	L8.864,21.37l-3.111,6.844c-0.316,0.695-1.014,1.145-1.778,1.145c-0.667,0-1.281-0.335-1.642-0.896s-0.412-1.258-0.136-1.865
	l3.846-8.463C5.783,17.55,5.64,16.9,5.64,16.25v-4.381l-1.28,1.28V16.5c0,1.025-0.834,1.86-1.86,1.86s-1.86-0.835-1.86-1.86V13
	c0-0.553,0.216-1.365,0.691-1.84l3.664-3.664c0.289-0.289,0.633-0.479,1.028-0.569C5.774,6.496,5.64,6.006,5.64,5.5
	c0-1.577,1.283-2.86,2.86-2.86s2.86,1.283,2.86,2.86c0,1.083-0.614,2.053-1.552,2.535C10.167,8.443,10.36,8.947,10.36,9.5v2.14h2.14
	c1.025,0,1.86,0.834,1.86,1.86c0,0.086-0.006,0.17-0.017,0.253L25.64,18.46V15c0-0.75,0.61-1.36,1.36-1.36v0.72
	c-0.353,0-0.64,0.287-0.64,0.64v0.64H28c0.625,0,1.153,0.424,1.312,1H31c0.199,0,0.36,0.161,0.36,0.36v1c0,0.75-0.61,1.36-1.36,1.36
	h-0.64V22c0,1.126-0.794,2.071-1.851,2.305l1.324,3.312c0.146,0.362,0.097,0.765-0.134,1.104C28.434,29.115,27.974,29.36,27.5,29.36
	z M25.36,23.933l1.726,4.437c0.083,0.21,0.176,0.271,0.414,0.271c0.234,0,0.472-0.126,0.604-0.322
	c0.068-0.1,0.134-0.256,0.062-0.434l-1.5-3.75c-0.045-0.111-0.031-0.236,0.036-0.336c0.066-0.099,0.179-0.158,0.298-0.158
	c0.904,0,1.64-0.735,1.64-1.64v-0.808l-2.749-1.832H19.75c-0.816,0-1.57,0.578-1.718,1.317l-1.44,7.197
	c-0.038,0.188,0.01,0.382,0.132,0.53c0.122,0.149,0.303,0.234,0.495,0.234c0.315,0,0.547-0.189,0.62-0.484l0.811-3.242
	c0.017-0.063,0.049-0.121,0.095-0.168l2-2c0.09-0.089,0.222-0.122,0.342-0.095l3.553,0.889V22h0.721v1.933H25.36z M24.995,24.981
	l-1.151,2.879c-0.071,0.178-0.05,0.371,0.058,0.53c0.238,0.352,0.84,0.287,0.998-0.108l0.699-1.749L24.995,24.981z M19.316,25.217
	l1.227,3.065c0.158,0.397,0.76,0.458,0.998,0.108c0.107-0.159,0.129-0.353,0.058-0.53l-1.415-3.535L19.316,25.217z M6.36,11.149
	v5.101c0,0.987,0.409,2.01,1.066,2.667l3.829,3.828c0.068,0.067,0.105,0.159,0.105,0.255v4.5c0,0.629,0.512,1.14,1.14,1.14
	s1.14-0.511,1.14-1.14V22c0-0.493-0.202-1.053-0.48-1.331l-3.414-3.414C9.678,17.188,9.64,17.096,9.64,17V9.5
	c0-0.663-0.39-1.068-0.717-1.292c-0.117-0.08-0.176-0.22-0.151-0.359C8.795,7.71,8.899,7.598,9.036,7.562
	C9.98,7.318,10.64,6.47,10.64,5.5c0-1.18-0.96-2.14-2.14-2.14S6.36,4.32,6.36,5.5c0,0.551,0.213,1.077,0.6,1.479
	c0.102,0.106,0.129,0.264,0.068,0.398C6.967,7.51,6.837,7.582,6.684,7.588c-0.492-0.021-0.878,0.115-1.18,0.416L1.84,11.668
	C1.54,11.969,1.36,12.582,1.36,13v3.5c0,0.629,0.512,1.14,1.14,1.14s1.14-0.511,1.14-1.14V13c0-0.096,0.038-0.187,0.105-0.254l3-3
	l0.509,0.509L6.36,11.149z M6.482,18.91l-3.63,7.987C2.678,27.28,2.71,27.72,2.938,28.074s0.615,0.565,1.037,0.565
	c0.482,0,0.923-0.283,1.123-0.723l3.222-7.089l-1.402-1.401C6.759,19.269,6.613,19.096,6.482,18.91z M26.36,18.814l2.279,1.515V19
	c0-0.199,0.161-0.36,0.36-0.36h1c0.353,0,0.64-0.287,0.64-0.64v-0.64H29c-0.199,0-0.36-0.161-0.36-0.36
	c0-0.353-0.287-0.64-0.64-0.64h-1.64V18.814z M10.36,14.64h2.14c0.628,0,1.14-0.512,1.14-1.14s-0.512-1.14-1.14-1.14h-2.14V14.64z"
	/>
<rect id="_Transparent_Rectangle" style="fill:none;" width="32" height="32"/>
</svg>
