<?xml version="1.0" encoding="iso-8859-1"?>
<!-- Generator: Adobe Illustrator 22.0.0, SVG Export Plug-In . SVG Version: 6.00 Build 0)  -->
<svg version="1.1" xmlns="http://www.w3.org/2000/svg" xmlns:xlink="http://www.w3.org/1999/xlink" x="0px" y="0px"
	 viewBox="0 0 48 48" style="enable-background:new 0 0 48 48;" xml:space="preserve">
<g id="dubai_palm_islands">
	<rect style="fill:#FFFFFF;" width="48" height="48"/>
	<g id="dubai_palm_islands_1_">
		
			<line style="fill:none;stroke:#000000;stroke-width:0.72;stroke-linecap:round;stroke-miterlimit:10;" x1="24" y1="12" x2="24" y2="39"/>
		<path style="fill:none;stroke:#000000;stroke-width:0.72;stroke-linecap:round;stroke-linejoin:round;stroke-miterlimit:10;" d="
			M20,34c0-2.209,1.791-4,4-4s4,1.791,4,4"/>
		<path style="fill:none;stroke:#000000;stroke-width:0.72;stroke-linecap:round;stroke-linejoin:round;stroke-miterlimit:10;" d="
			M24,20c0-2.209,1.791-4,4-4"/>
		<path style="fill:none;stroke:#000000;stroke-width:0.72;stroke-linecap:round;stroke-linejoin:round;stroke-miterlimit:10;" d="
			M20,16c2.209,0,4,1.791,4,4"/>
		<path style="fill:none;stroke:#000000;stroke-width:0.72;stroke-linecap:round;stroke-linejoin:round;stroke-miterlimit:10;" d="
			M31.481,36.971c1.149-0.663,2.19-1.462,3.105-2.38c0.929-0.931,1.739-1.967,2.392-3.098c0.664-1.148,1.165-2.361,1.5-3.614
			C38.817,26.609,39,25.306,39,24c0-1.306-0.183-2.609-0.522-3.879c-0.334-1.252-0.836-2.465-1.5-3.614
			c-0.642-1.111-1.421-2.164-2.372-3.114s-2.003-1.73-3.114-2.372c-1.148-0.664-2.361-1.165-3.614-1.5C26.609,9.183,25.306,9,24,9
			c-1.306,0-2.609,0.183-3.879,0.522c-1.252,0.334-2.465,0.836-3.614,1.5c-1.111,0.642-2.164,1.421-3.114,2.372
			s-1.73,2.003-2.372,3.114c-0.664,1.148-1.165,2.361-1.5,3.614C9.183,21.391,9,22.694,9,24c0,1.306,0.183,2.609,0.522,3.879
			c0.334,1.252,0.836,2.465,1.5,3.614c0.653,1.131,1.463,2.168,2.392,3.098c0.916,0.917,1.957,1.717,3.105,2.38"/>
		<path style="fill:none;stroke:#000000;stroke-width:0.72;stroke-linecap:round;stroke-linejoin:round;stroke-miterlimit:10;" d="
			M12,26c0-3.314,2.686-6,6-6s6,2.686,6,6"/>
		<path style="fill:none;stroke:#000000;stroke-width:0.72;stroke-linecap:round;stroke-linejoin:round;stroke-miterlimit:10;" d="
			M24,26c0-3.314,2.686-6,6-6s6,2.686,6,6"/>
		<path style="fill:none;stroke:#000000;stroke-width:0.72;stroke-linecap:round;stroke-linejoin:round;stroke-miterlimit:10;" d="
			M16,30c0-2.209,1.791-4,4-4s4,1.791,4,4"/>
		<path style="fill:none;stroke:#000000;stroke-width:0.72;stroke-linecap:round;stroke-linejoin:round;stroke-miterlimit:10;" d="
			M24,30c0-2.209,1.791-4,4-4s4,1.791,4,4"/>
	</g>
</g>
<g id="Layer_1">
</g>
</svg>
