<?xml version="1.0" encoding="iso-8859-1"?>
<!-- Generator: Adobe Illustrator 24.3.0, SVG Export Plug-In . SVG Version: 6.00 Build 0)  -->
<svg version="1.1" id="Layer_1" xmlns="http://www.w3.org/2000/svg" xmlns:xlink="http://www.w3.org/1999/xlink" x="0px" y="0px"
	 viewBox="0 0 32 32" style="enable-background:new 0 0 32 32;" xml:space="preserve">
<path id="dubai--palm-islands_1_" d="M16.392,21.679C18.611,21.881,20.36,23.73,20.36,26c0,0.199-0.161,0.36-0.36,0.36
	s-0.36-0.161-0.36-0.36c0-1.884-1.444-3.419-3.28-3.603V31c0,0.199-0.161,0.36-0.36,0.36s-0.36-0.161-0.36-0.36v-8.603
	c-1.836,0.184-3.28,1.72-3.28,3.603c0,0.199-0.161,0.36-0.36,0.36s-0.36-0.161-0.36-0.36c0-2.27,1.749-4.119,3.968-4.321
	c-0.165-1.855-1.71-3.319-3.608-3.319c-2.007,0-3.64,1.633-3.64,3.64c0,0.199-0.161,0.36-0.36,0.36S7.64,22.199,7.64,22
	c0-2.404,1.956-4.36,4.36-4.36c1.522,0,2.86,0.786,3.64,1.972V18c0-3.11-2.53-5.64-5.64-5.64S4.36,14.89,4.36,18
	c0,0.199-0.161,0.36-0.36,0.36S3.64,18.199,3.64,18c0-3.507,2.853-6.36,6.36-6.36c2.451,0,4.579,1.396,5.64,3.432V12
	c0-2.007-1.633-3.64-3.64-3.64c-0.199,0-0.36-0.161-0.36-0.36S11.801,7.64,12,7.64c1.522,0,2.86,0.786,3.64,1.971V4
	c0-0.199,0.161-0.36,0.36-0.36S16.36,3.801,16.36,4v5.611C17.14,8.426,18.478,7.64,20,7.64c0.199,0,0.36,0.161,0.36,0.36
	S20.199,8.36,20,8.36c-2.007,0-3.64,1.633-3.64,3.64v3.073c1.061-2.036,3.189-3.432,5.64-3.432c3.507,0,6.36,2.853,6.36,6.36
	c0,0.199-0.161,0.36-0.36,0.36s-0.36-0.161-0.36-0.36c0-3.11-2.529-5.64-5.64-5.64s-5.64,2.53-5.64,5.64v1.611
	c0.78-1.185,2.118-1.972,3.64-1.972c2.404,0,4.36,1.956,4.36,4.36c0,0.199-0.161,0.36-0.36,0.36s-0.36-0.161-0.36-0.36
	c0-2.007-1.633-3.64-3.64-3.64C18.103,18.36,16.558,19.825,16.392,21.679z M16,0.64C7.53,0.64,0.64,7.53,0.64,16
	c0,5.666,3.105,10.854,8.104,13.538c0.054,0.029,0.113,0.043,0.17,0.043c0.128,0,0.253-0.069,0.318-0.19
	c0.094-0.175,0.028-0.393-0.147-0.487C4.32,26.345,1.36,21.4,1.36,16C1.36,7.927,7.927,1.36,16,1.36
	c8.072,0,14.64,6.567,14.64,14.64c0,5.201-2.812,10.054-7.339,12.663c-0.172,0.099-0.231,0.319-0.132,0.491
	c0.101,0.173,0.321,0.232,0.491,0.132c4.749-2.737,7.7-7.828,7.7-13.286C31.36,7.53,24.47,0.64,16,0.64z"/>
<rect id="_Transparent_Rectangle" style="fill:none;" width="32" height="32"/>
</svg>
