<svg xmlns="http://www.w3.org/2000/svg" viewBox="0 0 48 48"><line x1="20" x2="20" y1="16" y2="39" fill="none" stroke-linejoin="round" stroke-miterlimit="10" stroke-width=".72"/><line x1="20" x2="20" y1="9" y2="16" fill="none" stroke-linecap="round" stroke-linejoin="round" stroke-miterlimit="10" stroke-width=".72"/><polyline fill="none" stroke-miterlimit="10" stroke-width=".72" points="18,39 18,16 20,16"/><polyline fill="none" stroke-linecap="round" stroke-miterlimit="10" stroke-width=".72" points="22,32 22,24 18,24"/><polyline fill="none" stroke-miterlimit="10" stroke-width=".72" points="16,39 16,32 22,32 22,39"/><path fill="none" stroke-linecap="round" stroke-linejoin="round" stroke-miterlimit="10" stroke-width=".72" d="M39,16c-3.866,0-7-3.134-7-7"/><line x1="9" x2="16" y1="34" y2="34" fill="none" stroke-linejoin="round" stroke-miterlimit="10" stroke-width=".72"/><line x1="22" x2="39" y1="34" y2="34" fill="none" stroke-linejoin="round" stroke-miterlimit="10" stroke-width=".72"/><line x1="39" x2="39" y1="18" y2="26" fill="none" stroke-linecap="round" stroke-linejoin="round" stroke-miterlimit="10" stroke-width=".72"/><line x1="24.278" x2="31.206" y1="17.5" y2="13.5" fill="none" stroke-linecap="round" stroke-linejoin="round" stroke-miterlimit="10" stroke-width=".72"/><line x1="30.5" x2="34.5" y1="23.722" y2="16.794" fill="none" stroke-linecap="round" stroke-linejoin="round" stroke-miterlimit="10" stroke-width=".72"/><line x1="30" x2="22" y1="9" y2="9" fill="none" stroke-linecap="round" stroke-linejoin="round" stroke-miterlimit="10" stroke-width=".72"/></svg>