<?xml version="1.0" encoding="iso-8859-1"?>
<!-- Generator: Adobe Illustrator 24.1.2, SVG Export Plug-In . SVG Version: 6.00 Build 0)  -->
<svg version="1.1" id="Layer_1" xmlns="http://www.w3.org/2000/svg" xmlns:xlink="http://www.w3.org/1999/xlink" x="0px" y="0px"
	 viewBox="0 0 32 32" style="enable-background:new 0 0 32 32;" xml:space="preserve">
<path id="dubai--skyscraper_1_" d="M14.36,24v-0.36v-8h-2V8V1c0-0.199-0.161-0.36-0.36-0.36S11.64,0.801,11.64,1v6.64h-2v16h-2v2H1
	v0.721h6.64V31h0.72v-6.64h1.28V31h0.72v-6.64h1.28V31h0.72v-6.64h1.28V31h0.72v-4.64H31v-0.72H14.36V24z M11.64,8.36v7.28h-1.28
	V8.36H11.64z M10.36,23.64v-7.28h1.28v7.28H10.36z M12.36,23.64v-7.28h1.28v7.28H12.36z M23.64,1c0-0.199,0.161-0.36,0.36-0.36
	S24.36,0.801,24.36,1c0,3.661,2.979,6.64,6.64,6.64c0.199,0,0.36,0.161,0.36,0.36S31.199,8.36,31,8.36
	C26.941,8.36,23.64,5.058,23.64,1z M31.36,10v8c0,0.199-0.161,0.36-0.36,0.36s-0.36-0.161-0.36-0.36v-8
	c0-0.199,0.161-0.36,0.36-0.36S31.36,9.801,31.36,10z M16.097,9.188l6.929-4c0.171-0.098,0.392-0.041,0.491,0.132
	s0.041,0.393-0.132,0.492l-6.928,4C16.4,9.845,16.338,9.86,16.277,9.86c-0.125,0-0.246-0.064-0.312-0.18
	C15.866,9.508,15.925,9.288,16.097,9.188z M26.68,8.483c0.173,0.099,0.231,0.319,0.132,0.492l-4,6.928
	c-0.066,0.115-0.188,0.18-0.312,0.18c-0.062,0-0.123-0.015-0.18-0.048c-0.173-0.1-0.231-0.32-0.132-0.492l4-6.928
	C26.288,8.442,26.51,8.383,26.68,8.483z M13.64,1c0-0.199,0.161-0.36,0.36-0.36h8c0.199,0,0.36,0.161,0.36,0.36S22.199,1.36,22,1.36
	h-8C13.801,1.36,13.64,1.199,13.64,1z"/>
<rect id="_Transparent_Rectangle" style="fill:none;" width="32" height="32"/>
</svg>
