<?xml version="1.0" encoding="iso-8859-1"?>
<!-- Generator: Adobe Illustrator 22.0.0, SVG Export Plug-In . SVG Version: 6.00 Build 0)  -->
<svg version="1.1" xmlns="http://www.w3.org/2000/svg" xmlns:xlink="http://www.w3.org/1999/xlink" x="0px" y="0px"
	 viewBox="0 0 48 48" style="enable-background:new 0 0 48 48;" xml:space="preserve">
<g id="dublin_castle">
	<rect style="fill:#FFFFFF;" width="48" height="48"/>
	<g id="dublin_castle_1_">
		<g>
			<path style="fill:none;stroke:#000000;stroke-width:0.72;stroke-linecap:round;stroke-miterlimit:10;" d="M35,33L35,33
				c0-0.55,0.45-1,1-1l0,0c0.55,0,1,0.45,1,1l0,0"/>
			<polyline style="fill:none;stroke:#000000;stroke-width:0.72;stroke-linecap:round;stroke-miterlimit:10;" points="37,33 37,37 
				35,37 35,33 			"/>
		</g>
		<g>
			<path style="fill:none;stroke:#000000;stroke-width:0.72;stroke-linecap:round;stroke-miterlimit:10;" d="M11,33L11,33
				c0-0.55,0.45-1,1-1h0c0.55,0,1,0.45,1,1l0,0"/>
			<polyline style="fill:none;stroke:#000000;stroke-width:0.72;stroke-linecap:round;stroke-miterlimit:10;" points="13,33 13,37 
				11,37 11,33 			"/>
		</g>
		
			<line style="fill:none;stroke:#000000;stroke-width:0.72;stroke-linecap:round;stroke-linejoin:round;stroke-miterlimit:10;" x1="15" y1="15" x2="33" y2="15"/>
		
			<line style="fill:none;stroke:#000000;stroke-width:0.72;stroke-linecap:round;stroke-linejoin:round;stroke-miterlimit:10;" x1="23" y1="15" x2="23" y2="13"/>
		
			<line style="fill:none;stroke:#000000;stroke-width:0.72;stroke-linecap:round;stroke-linejoin:round;stroke-miterlimit:10;" x1="21" y1="15" x2="21" y2="13"/>
		
			<line style="fill:none;stroke:#000000;stroke-width:0.72;stroke-linecap:round;stroke-linejoin:round;stroke-miterlimit:10;" x1="19" y1="15" x2="19" y2="13"/>
		
			<line style="fill:none;stroke:#000000;stroke-width:0.72;stroke-linecap:round;stroke-linejoin:round;stroke-miterlimit:10;" x1="17" y1="15" x2="17" y2="13"/>
		
			<line style="fill:none;stroke:#000000;stroke-width:0.72;stroke-linecap:round;stroke-linejoin:round;stroke-miterlimit:10;" x1="31" y1="15" x2="31" y2="13"/>
		<polyline style="fill:none;stroke:#000000;stroke-width:0.72;stroke-miterlimit:10;" points="33,39 33,15 35,13 35,9 33,9 33,11 
			31,11 31,9 29,9 29,11 27,11 27,9 25,9 25,11 23,11 23,9 21,9 21,11 19,11 19,9 17,9 17,11 15,11 15,9 13,9 13,13 15,15 15,39 		
			"/>
		
			<line style="fill:none;stroke:#000000;stroke-width:0.72;stroke-linecap:round;stroke-linejoin:round;stroke-miterlimit:10;" x1="29" y1="15" x2="29" y2="13"/>
		
			<line style="fill:none;stroke:#000000;stroke-width:0.72;stroke-linecap:round;stroke-linejoin:round;stroke-miterlimit:10;" x1="27" y1="15" x2="27" y2="13"/>
		
			<line style="fill:none;stroke:#000000;stroke-width:0.72;stroke-linecap:round;stroke-linejoin:round;stroke-miterlimit:10;" x1="25" y1="15" x2="25" y2="13"/>
		
			<line style="fill:none;stroke:#000000;stroke-width:0.72;stroke-linecap:round;stroke-linejoin:round;stroke-miterlimit:10;" x1="23" y1="15" x2="23" y2="13"/>
		
			<line style="fill:none;stroke:#000000;stroke-width:0.72;stroke-linecap:round;stroke-linejoin:round;stroke-miterlimit:10;" x1="21" y1="33" x2="21" y2="31"/>
		
			<line style="fill:none;stroke:#000000;stroke-width:0.72;stroke-linecap:round;stroke-linejoin:round;stroke-miterlimit:10;" x1="19" y1="33" x2="19" y2="31"/>
		
			<line style="fill:none;stroke:#000000;stroke-width:0.72;stroke-linecap:round;stroke-linejoin:round;stroke-miterlimit:10;" x1="17" y1="33" x2="17" y2="31"/>
		
			<line style="fill:none;stroke:#000000;stroke-width:0.72;stroke-linecap:round;stroke-linejoin:round;stroke-miterlimit:10;" x1="31" y1="33" x2="31" y2="31"/>
		
			<line style="fill:none;stroke:#000000;stroke-width:0.72;stroke-linecap:round;stroke-linejoin:round;stroke-miterlimit:10;" x1="29" y1="33" x2="29" y2="31"/>
		
			<line style="fill:none;stroke:#000000;stroke-width:0.72;stroke-linecap:round;stroke-linejoin:round;stroke-miterlimit:10;" x1="27" y1="33" x2="27" y2="31"/>
		
			<line style="fill:none;stroke:#000000;stroke-width:0.72;stroke-linecap:round;stroke-linejoin:round;stroke-miterlimit:10;" x1="25" y1="33" x2="25" y2="31"/>
		
			<line style="fill:none;stroke:#000000;stroke-width:0.72;stroke-linecap:round;stroke-linejoin:round;stroke-miterlimit:10;" x1="23" y1="33" x2="23" y2="31"/>
		<polyline style="fill:none;stroke:#000000;stroke-width:0.72;stroke-miterlimit:10;" points="21,24 21,20 27,20 27,24 		"/>
		<line style="fill:none;stroke:#000000;stroke-width:0.72;stroke-miterlimit:10;" x1="23" y1="24" x2="23" y2="20"/>
		<line style="fill:none;stroke:#000000;stroke-width:0.72;stroke-miterlimit:10;" x1="25" y1="24" x2="25" y2="20"/>
		<rect x="17" y="35" style="fill:none;stroke:#000000;stroke-width:0.72;stroke-miterlimit:10;" width="2" height="2"/>
		<rect x="21" y="35" style="fill:none;stroke:#000000;stroke-width:0.72;stroke-miterlimit:10;" width="2" height="2"/>
		<rect x="25" y="35" style="fill:none;stroke:#000000;stroke-width:0.72;stroke-miterlimit:10;" width="2" height="2"/>
		<rect x="29" y="35" style="fill:none;stroke:#000000;stroke-width:0.72;stroke-miterlimit:10;" width="2" height="2"/>
		
			<line style="fill:none;stroke:#000000;stroke-width:0.72;stroke-linejoin:round;stroke-miterlimit:10;" x1="20" y1="24" x2="28" y2="24"/>
		
			<line style="fill:none;stroke:#000000;stroke-width:0.72;stroke-linecap:round;stroke-linejoin:round;stroke-miterlimit:10;" x1="15" y1="33" x2="33" y2="33"/>
		
			<line style="fill:none;stroke:#000000;stroke-width:0.72;stroke-linejoin:round;stroke-miterlimit:10;" x1="9" y1="39" x2="39" y2="39"/>
		
			<line style="fill:none;stroke:#000000;stroke-width:0.72;stroke-linecap:round;stroke-linejoin:round;stroke-miterlimit:10;" x1="15" y1="28" x2="9" y2="28"/>
		
			<line style="fill:none;stroke:#000000;stroke-width:0.72;stroke-linecap:round;stroke-linejoin:round;stroke-miterlimit:10;" x1="39" y1="28" x2="33" y2="28"/>
		
			<line style="fill:none;stroke:#000000;stroke-width:0.72;stroke-linecap:square;stroke-linejoin:round;stroke-miterlimit:10;" x1="15" y1="30" x2="9" y2="30"/>
		
			<line style="fill:none;stroke:#000000;stroke-width:0.72;stroke-linecap:square;stroke-linejoin:round;stroke-miterlimit:10;" x1="39" y1="30" x2="33" y2="30"/>
		
			<line style="fill:none;stroke:#000000;stroke-width:0.72;stroke-linejoin:round;stroke-miterlimit:10;" x1="13" y1="28" x2="13" y2="26"/>
		
			<line style="fill:none;stroke:#000000;stroke-width:0.72;stroke-linejoin:round;stroke-miterlimit:10;" x1="11" y1="28" x2="11" y2="26"/>
		
			<line style="fill:none;stroke:#000000;stroke-width:0.72;stroke-linejoin:round;stroke-miterlimit:10;" x1="9" y1="28" x2="9" y2="26"/>
		
			<line style="fill:none;stroke:#000000;stroke-width:0.72;stroke-linejoin:round;stroke-miterlimit:10;" x1="39" y1="28" x2="39" y2="26"/>
		
			<line style="fill:none;stroke:#000000;stroke-width:0.72;stroke-linejoin:round;stroke-miterlimit:10;" x1="37" y1="28" x2="37" y2="26"/>
		
			<line style="fill:none;stroke:#000000;stroke-width:0.72;stroke-linejoin:round;stroke-miterlimit:10;" x1="35" y1="28" x2="35" y2="26"/>
	</g>
</g>
<g id="Layer_1">
</g>
</svg>
