<svg xmlns="http://www.w3.org/2000/svg" viewBox="0 0 48 48"><line x1="9" x2="39" y1="32" y2="32" fill="none" stroke-miterlimit="10" stroke-width=".72"/><polyline fill="none" stroke-miterlimit="10" stroke-width=".72" points="9,36 12,36 12,34 36,34 36,36 39,36"/><line x1="22" x2="22" y1="32" y2="26" fill="none" stroke-linecap="round" stroke-linejoin="round" stroke-miterlimit="10" stroke-width=".72"/><line x1="24" x2="24" y1="32" y2="26" fill="none" stroke-linecap="round" stroke-linejoin="round" stroke-miterlimit="10" stroke-width=".72"/><line x1="26" x2="26" y1="32" y2="26" fill="none" stroke-linecap="round" stroke-linejoin="round" stroke-miterlimit="10" stroke-width=".72"/><line x1="28" x2="28" y1="22" y2="24" fill="none" stroke-linecap="round" stroke-linejoin="round" stroke-miterlimit="10" stroke-width=".72"/><line x1="20" x2="20" y1="24" y2="22" fill="none" stroke-linecap="round" stroke-linejoin="round" stroke-miterlimit="10" stroke-width=".72"/><line x1="22" x2="22" y1="24" y2="22" fill="none" stroke-linecap="round" stroke-linejoin="round" stroke-miterlimit="10" stroke-width=".72"/><line x1="24" x2="24" y1="24" y2="22" fill="none" stroke-linecap="round" stroke-linejoin="round" stroke-miterlimit="10" stroke-width=".72"/><line x1="26" x2="26" y1="24" y2="22" fill="none" stroke-linecap="round" stroke-linejoin="round" stroke-miterlimit="10" stroke-width=".72"/><line x1="12" x2="14" y1="14" y2="14" fill="none" stroke-linecap="round" stroke-linejoin="round" stroke-miterlimit="10" stroke-width=".72"/><polyline fill="none" stroke-miterlimit="10" stroke-width=".72" points="12,32 12,9 14,9 14,32"/><polyline fill="none" stroke-miterlimit="10" stroke-width=".72" points="34,32 34,9 36,9 36,32"/><line x1="12" x2="14" y1="16" y2="16" fill="none" stroke-linecap="round" stroke-linejoin="round" stroke-miterlimit="10" stroke-width=".72"/><line x1="12" x2="14" y1="20" y2="20" fill="none" stroke-linecap="round" stroke-linejoin="round" stroke-miterlimit="10" stroke-width=".72"/><line x1="34" x2="36" y1="14" y2="14" fill="none" stroke-linecap="round" stroke-linejoin="round" stroke-miterlimit="10" stroke-width=".72"/><line x1="34" x2="36" y1="16" y2="16" fill="none" stroke-linecap="round" stroke-linejoin="round" stroke-miterlimit="10" stroke-width=".72"/><line x1="34" x2="36" y1="20" y2="20" fill="none" stroke-linecap="round" stroke-linejoin="round" stroke-miterlimit="10" stroke-width=".72"/><line x1="34" x2="36" y1="22" y2="22" fill="none" stroke-linecap="round" stroke-linejoin="round" stroke-miterlimit="10" stroke-width=".72"/><line x1="34" x2="36" y1="28" y2="28" fill="none" stroke-linecap="round" stroke-linejoin="round" stroke-miterlimit="10" stroke-width=".72"/><line x1="34" x2="36" y1="26" y2="26" fill="none" stroke-linecap="round" stroke-linejoin="round" stroke-miterlimit="10" stroke-width=".72"/><line x1="12" x2="14" y1="22" y2="22" fill="none" stroke-linecap="round" stroke-linejoin="round" stroke-miterlimit="10" stroke-width=".72"/><line x1="12" x2="14" y1="28" y2="28" fill="none" stroke-linecap="round" stroke-linejoin="round" stroke-miterlimit="10" stroke-width=".72"/><line x1="12" x2="14" y1="26" y2="26" fill="none" stroke-linecap="round" stroke-linejoin="round" stroke-miterlimit="10" stroke-width=".72"/><polyline fill="none" stroke-miterlimit="10" stroke-width=".72" points="22,39 22,36 26,36 26,39"/><polyline fill="none" stroke-miterlimit="10" stroke-width=".72" points="18,39 18,36 20,36 20,39"/><polyline fill="none" stroke-miterlimit="10" stroke-width=".72" points="28,39 28,36 30,36 30,39"/><polyline fill="none" stroke-miterlimit="10" stroke-width=".72" points="32,39 32,36 34,36 34,39"/><polyline fill="none" stroke-miterlimit="10" stroke-width=".72" points="14,39 14,36 16,36 16,39"/><polyline fill="none" stroke-miterlimit="10" stroke-width=".72" points="20,20 20,16 28,16 28,20"/><polyline fill="none" stroke-miterlimit="10" stroke-width=".72" points="16,32 16,20 32,20 32,32"/><polyline fill="none" stroke-miterlimit="10" stroke-width=".72" points="20,32 20,26 28,26 28,32"/></svg>