<?xml version="1.0" encoding="iso-8859-1"?>
<!-- Generator: Adobe Illustrator 22.0.0, SVG Export Plug-In . SVG Version: 6.00 Build 0)  -->
<svg version="1.1" xmlns="http://www.w3.org/2000/svg" xmlns:xlink="http://www.w3.org/1999/xlink" x="0px" y="0px"
	 viewBox="0 0 48 48" style="enable-background:new 0 0 48 48;" xml:space="preserve">
<g id="dublin_brewery">
	<rect style="fill:#FFFFFF;" width="48" height="48"/>
	<g id="dublin_brewery_1_">
		<line style="fill:none;stroke:#000000;stroke-width:0.72;stroke-miterlimit:10;" x1="9" y1="32" x2="39" y2="32"/>
		<polyline style="fill:none;stroke:#000000;stroke-width:0.72;stroke-miterlimit:10;" points="9,36 12,36 12,34 36,34 36,36 39,36 
					"/>
		
			<line style="fill:none;stroke:#000000;stroke-width:0.72;stroke-linecap:round;stroke-linejoin:round;stroke-miterlimit:10;" x1="22" y1="32" x2="22" y2="26"/>
		
			<line style="fill:none;stroke:#000000;stroke-width:0.72;stroke-linecap:round;stroke-linejoin:round;stroke-miterlimit:10;" x1="24" y1="32" x2="24" y2="26"/>
		
			<line style="fill:none;stroke:#000000;stroke-width:0.72;stroke-linecap:round;stroke-linejoin:round;stroke-miterlimit:10;" x1="26" y1="32" x2="26" y2="26"/>
		
			<line style="fill:none;stroke:#000000;stroke-width:0.72;stroke-linecap:round;stroke-linejoin:round;stroke-miterlimit:10;" x1="28" y1="22" x2="28" y2="24"/>
		
			<line style="fill:none;stroke:#000000;stroke-width:0.72;stroke-linecap:round;stroke-linejoin:round;stroke-miterlimit:10;" x1="20" y1="24" x2="20" y2="22"/>
		
			<line style="fill:none;stroke:#000000;stroke-width:0.72;stroke-linecap:round;stroke-linejoin:round;stroke-miterlimit:10;" x1="22" y1="24" x2="22" y2="22"/>
		
			<line style="fill:none;stroke:#000000;stroke-width:0.72;stroke-linecap:round;stroke-linejoin:round;stroke-miterlimit:10;" x1="24" y1="24" x2="24" y2="22"/>
		
			<line style="fill:none;stroke:#000000;stroke-width:0.72;stroke-linecap:round;stroke-linejoin:round;stroke-miterlimit:10;" x1="26" y1="24" x2="26" y2="22"/>
		
			<line style="fill:none;stroke:#000000;stroke-width:0.72;stroke-linecap:round;stroke-linejoin:round;stroke-miterlimit:10;" x1="12" y1="14" x2="14" y2="14"/>
		<polyline style="fill:none;stroke:#000000;stroke-width:0.72;stroke-miterlimit:10;" points="12,32 12,9 14,9 14,32 		"/>
		<polyline style="fill:none;stroke:#000000;stroke-width:0.72;stroke-miterlimit:10;" points="34,32 34,9 36,9 36,32 		"/>
		
			<line style="fill:none;stroke:#000000;stroke-width:0.72;stroke-linecap:round;stroke-linejoin:round;stroke-miterlimit:10;" x1="12" y1="16" x2="14" y2="16"/>
		
			<line style="fill:none;stroke:#000000;stroke-width:0.72;stroke-linecap:round;stroke-linejoin:round;stroke-miterlimit:10;" x1="12" y1="20" x2="14" y2="20"/>
		
			<line style="fill:none;stroke:#000000;stroke-width:0.72;stroke-linecap:round;stroke-linejoin:round;stroke-miterlimit:10;" x1="34" y1="14" x2="36" y2="14"/>
		
			<line style="fill:none;stroke:#000000;stroke-width:0.72;stroke-linecap:round;stroke-linejoin:round;stroke-miterlimit:10;" x1="34" y1="16" x2="36" y2="16"/>
		
			<line style="fill:none;stroke:#000000;stroke-width:0.72;stroke-linecap:round;stroke-linejoin:round;stroke-miterlimit:10;" x1="34" y1="20" x2="36" y2="20"/>
		
			<line style="fill:none;stroke:#000000;stroke-width:0.72;stroke-linecap:round;stroke-linejoin:round;stroke-miterlimit:10;" x1="34" y1="22" x2="36" y2="22"/>
		
			<line style="fill:none;stroke:#000000;stroke-width:0.72;stroke-linecap:round;stroke-linejoin:round;stroke-miterlimit:10;" x1="34" y1="28" x2="36" y2="28"/>
		
			<line style="fill:none;stroke:#000000;stroke-width:0.72;stroke-linecap:round;stroke-linejoin:round;stroke-miterlimit:10;" x1="34" y1="26" x2="36" y2="26"/>
		
			<line style="fill:none;stroke:#000000;stroke-width:0.72;stroke-linecap:round;stroke-linejoin:round;stroke-miterlimit:10;" x1="12" y1="22" x2="14" y2="22"/>
		
			<line style="fill:none;stroke:#000000;stroke-width:0.72;stroke-linecap:round;stroke-linejoin:round;stroke-miterlimit:10;" x1="12" y1="28" x2="14" y2="28"/>
		
			<line style="fill:none;stroke:#000000;stroke-width:0.72;stroke-linecap:round;stroke-linejoin:round;stroke-miterlimit:10;" x1="12" y1="26" x2="14" y2="26"/>
		<polyline style="fill:none;stroke:#000000;stroke-width:0.72;stroke-miterlimit:10;" points="22,39 22,36 26,36 26,39 		"/>
		<polyline style="fill:none;stroke:#000000;stroke-width:0.72;stroke-miterlimit:10;" points="18,39 18,36 20,36 20,39 		"/>
		<polyline style="fill:none;stroke:#000000;stroke-width:0.72;stroke-miterlimit:10;" points="28,39 28,36 30,36 30,39 		"/>
		<polyline style="fill:none;stroke:#000000;stroke-width:0.72;stroke-miterlimit:10;" points="32,39 32,36 34,36 34,39 		"/>
		<polyline style="fill:none;stroke:#000000;stroke-width:0.72;stroke-miterlimit:10;" points="14,39 14,36 16,36 16,39 		"/>
		<polyline style="fill:none;stroke:#000000;stroke-width:0.72;stroke-miterlimit:10;" points="20,20 20,16 28,16 28,20 		"/>
		<polyline style="fill:none;stroke:#000000;stroke-width:0.72;stroke-miterlimit:10;" points="16,32 16,20 32,20 32,32 		"/>
		<polyline style="fill:none;stroke:#000000;stroke-width:0.72;stroke-miterlimit:10;" points="20,32 20,26 28,26 28,32 		"/>
	</g>
</g>
<g id="Layer_1">
</g>
</svg>
