<?xml version="1.0" encoding="iso-8859-1"?>
<!-- Generator: Adobe Illustrator 24.1.2, SVG Export Plug-In . SVG Version: 6.00 Build 0)  -->
<svg version="1.1" id="Layer_1" xmlns="http://www.w3.org/2000/svg" xmlns:xlink="http://www.w3.org/1999/xlink" x="0px" y="0px"
	 viewBox="0 0 32 32" style="enable-background:new 0 0 32 32;" xml:space="preserve">
<g id="duplicate--file_1_">
	<path d="M20.36,9c0-0.199-0.161-0.36-0.36-0.36h-7.64V7h-0.72v1.64H1C0.801,8.64,0.64,8.801,0.64,9v22
		c0,0.199,0.161,0.36,0.36,0.36h19c0.199,0,0.36-0.161,0.36-0.36v-7.64H22v-0.72h-1.64V9z M19.64,30.64H1.36V9.36h18.28
		C19.64,9.36,19.64,30.64,19.64,30.64z"/>
	<path d="M12.36,1.36H14V0.64h-2c-0.199,0-0.36,0.161-0.36,0.36v2h0.72C12.36,3,12.36,1.36,12.36,1.36z"/>
	<rect x="16.647" y="0.64" width="3.53" height="0.72"/>
	<rect x="22.823" y="0.64" width="3.529" height="0.72"/>
	<path d="M31,0.64h-2v0.72h1.64V3h0.721V1C31.36,0.801,31.199,0.64,31,0.64z"/>
	<rect x="30.64" y="13.588" width="0.721" height="4.235"/>
	<rect x="30.64" y="6.176" width="0.721" height="4.235"/>
	<path d="M30.64,22.64H29v0.721h2c0.199,0,0.36-0.161,0.36-0.36v-2h-0.72C30.64,21.001,30.64,22.64,30.64,22.64z"/>
	<rect x="24.101" y="22.64" width="2.8" height="0.721"/>
</g>
<rect id="_Transparent_Rectangle" style="fill:none;" width="32" height="32"/>
</svg>
