<?xml version="1.0" encoding="iso-8859-1"?>
<!-- Generator: Adobe Illustrator 26.3.1, SVG Export Plug-In . SVG Version: 6.00 Build 0)  -->
<svg version="1.1" id="Layer_1" xmlns="http://www.w3.org/2000/svg" xmlns:xlink="http://www.w3.org/1999/xlink" x="0px" y="0px"
	 viewBox="0 0 32 32" style="enable-background:new 0 0 32 32;" xml:space="preserve">
<path id="dynamic-workloads_00000147208517396163521240000010136917445791649468_" d="M23,30.36c-0.062,0-0.123-0.017-0.179-0.048
	L16,26.415l-6.821,3.897c-0.111,0.062-0.246,0.062-0.357,0l-5.862-3.35C2.713,27.208,2.374,27.36,2,27.36
	c-0.75,0-1.36-0.61-1.36-1.36c0-0.625,0.424-1.153,1-1.312V18c0-0.129,0.069-0.248,0.181-0.312l6.819-3.896v-6.48
	c-0.576-0.158-1-0.686-1-1.312c0-0.75,0.61-1.36,1.36-1.36c0.374,0,0.713,0.152,0.959,0.397l5.862-3.35
	c0.111-0.063,0.246-0.063,0.357,0l7,4C23.291,5.751,23.36,5.871,23.36,6v6.688c0.575,0.158,1,0.686,1,1.312
	c0,0.117-0.016,0.23-0.043,0.338l5.861,3.349c0.112,0.064,0.182,0.184,0.182,0.312v8c0,0.129-0.069,0.248-0.182,0.312l-7,4
	C23.123,30.344,23.062,30.36,23,30.36z M16.36,25.791L23,29.585l6.64-3.794v-7.582l-5.681-3.246c-0.492,0.49-1.426,0.49-1.918,0
	l-5.681,3.246V25.791z M3.317,26.338L9,29.585l6.64-3.794v-7.582L9,14.415l-6.64,3.794v6.479c0.576,0.158,1,0.687,1,1.312
	C3.36,26.117,3.345,26.23,3.317,26.338z M2,25.36c-0.353,0-0.64,0.287-0.64,0.64S1.647,26.64,2,26.64S2.64,26.353,2.64,26
	S2.353,25.36,2,25.36z M9.726,14L16,17.585l5.683-3.247C21.654,14.23,21.64,14.117,21.64,14s0.016-0.23,0.043-0.338l-4.723-2.699
	c-0.492,0.49-1.427,0.49-1.919,0L9.726,14z M23,13.36c-0.353,0-0.64,0.287-0.64,0.64s0.287,0.64,0.64,0.64s0.64-0.287,0.64-0.64
	S23.353,13.36,23,13.36z M9.36,7.312v6.068l5.323-3.042C14.655,10.23,14.64,10.117,14.64,10s0.015-0.23,0.042-0.338L9.959,6.963
	C9.795,7.126,9.59,7.249,9.36,7.312z M17.317,10.338l4.724,2.699c0.164-0.164,0.369-0.286,0.599-0.349V6.62l-5.322,3.042
	C17.345,9.77,17.36,9.883,17.36,10S17.346,10.23,17.317,10.338z M16,9.36c-0.353,0-0.64,0.287-0.64,0.64s0.287,0.64,0.64,0.64
	s0.64-0.287,0.64-0.64S16.353,9.36,16,9.36z M10.317,6.338l4.723,2.699c0.492-0.49,1.427-0.49,1.919,0L22.274,6L16,2.415
	l-5.683,3.247C10.345,5.77,10.36,5.883,10.36,6S10.345,6.23,10.317,6.338z M9,5.36C8.647,5.36,8.36,5.647,8.36,6S8.647,6.64,9,6.64
	S9.64,6.353,9.64,6S9.353,5.36,9,5.36z M23,23.36c-0.75,0-1.36-0.61-1.36-1.36s0.61-1.36,1.36-1.36s1.36,0.61,1.36,1.36
	S23.75,23.36,23,23.36z M23,21.36c-0.353,0-0.64,0.287-0.64,0.64s0.287,0.64,0.64,0.64s0.64-0.287,0.64-0.64S23.353,21.36,23,21.36z
	 M9,23.36c-0.75,0-1.36-0.61-1.36-1.36S8.25,20.64,9,20.64s1.36,0.61,1.36,1.36S9.75,23.36,9,23.36z M9,21.36
	c-0.353,0-0.64,0.287-0.64,0.64S8.647,22.64,9,22.64S9.64,22.353,9.64,22S9.353,21.36,9,21.36z"/>
<rect id="_Transparent_Rectangle" style="fill:none;" width="32" height="32"/>
</svg>
