<?xml version="1.0" encoding="iso-8859-1"?>
<!-- Generator: Adobe Illustrator 29.1.0, SVG Export Plug-In . SVG Version: 9.03 Build 55587)  -->
<svg version="1.1" id="Layer_1" xmlns="http://www.w3.org/2000/svg" xmlns:xlink="http://www.w3.org/1999/xlink" x="0px" y="0px"
	 viewBox="0 0 32 32" style="enable-background:new 0 0 32 32;" xml:space="preserve">
<path id="eagle_00000139988647355573860680000004517221160625998492_" d="M4,30.36c-0.092,0-0.184-0.035-0.254-0.105L3.66,30.169
	C2.794,29.303,2.743,27.926,3.506,27c-0.763-0.926-0.712-2.303,0.153-3.169l1.8-1.8C4.92,22.022,4.411,21.834,4,21.494
	c-0.9,0.746-2.332,0.684-3.168-0.153l-0.086-0.086c-0.141-0.141-0.141-0.369,0-0.51L14.331,7.16
	c1.776-1.779,4.575-2.026,6.631-0.631l1.783-1.783c0.029-0.027,1.446-1.315,0.921-2.61c-0.073-0.181,0.012-0.388,0.19-0.465
	c0.18-0.079,0.388,0.001,0.471,0.179C24.341,1.877,24.731,2.64,26,2.64h1.5c1.577,0,2.86,1.283,2.86,2.86v0.813
	c0.342,0.276,1,1.024,1,2.687c0,0.146-0.088,0.276-0.223,0.332c-0.133,0.055-0.29,0.025-0.392-0.077
	C30.736,9.246,29.836,8.36,29,8.36V7.64c0.586,0,1.155,0.282,1.575,0.562c-0.187-1.064-0.715-1.368-0.742-1.383
	C29.718,6.756,29.64,6.631,29.64,6.5v-1c0-1.18-0.96-2.14-2.14-2.14H26c-0.66,0-1.149-0.165-1.505-0.374
	c-0.127,1.263-1.198,2.231-1.256,2.283l-1.37,1.371H23c0.199,0,0.36,0.161,0.36,0.36v1.64H25c0.199,0,0.36,0.161,0.36,0.36
	c0,0.169-0.024,4.173-2.105,6.254l-6.895,6.895V23c0,1.456,1.184,2.64,2.64,2.64v0.721c-1.853,0-3.36-1.508-3.36-3.36V22.87
	l-3.386,3.386l-0.509-0.51l11-11c1.531-1.531,1.825-4.382,1.882-5.386H23c-0.199,0-0.36-0.161-0.36-0.36V7.36H21
	c-0.079,0-0.157-0.026-0.22-0.075c-1.791-1.378-4.343-1.213-5.94,0.384L1.521,20.988c0.626,0.467,1.576,0.407,2.138-0.157
	L14.746,9.746l0.509,0.509L4.521,20.988c0.626,0.467,1.577,0.407,2.138-0.157l9.086-9.085l0.509,0.509l-8.733,8.734
	c0.626,0.467,1.576,0.407,2.138-0.157l7.086-7.085l0.509,0.509L10.52,20.99c0.626,0.467,1.576,0.407,2.138-0.157l5.086-5.085
	l0.51,0.509l-14,14C4.184,30.325,4.092,30.36,4,30.36z M4.254,27.255l-0.086,0.086c-0.582,0.582-0.634,1.496-0.156,2.138
	l7.447-7.447c-0.535-0.009-1.042-0.195-1.451-0.53L4.254,27.255z M7.008,21.501l-2.84,2.84c-0.582,0.582-0.634,1.496-0.156,2.138
	l4.447-4.447C7.924,22.022,7.418,21.836,7.008,21.501z"/>
<rect id="_Transparent_Rectangle" style="fill:none;" width="32" height="32"/>
</svg>
