<?xml version="1.0" encoding="iso-8859-1"?>
<!-- Generator: Adobe Illustrator 29.1.0, SVG Export Plug-In . SVG Version: 9.03 Build 55587)  -->
<svg version="1.1" id="Layer_1" xmlns="http://www.w3.org/2000/svg" xmlns:xlink="http://www.w3.org/1999/xlink" x="0px" y="0px"
	 viewBox="0 0 32 32" style="enable-background:new 0 0 32 32;" xml:space="preserve">
<path id="edge--computing_00000150060013663118220850000014176103464656286599_" d="M16,31.36c-1.025,0-1.86-0.835-1.86-1.86
	s0.834-1.86,1.86-1.86s1.86,0.835,1.86,1.86S17.025,31.36,16,31.36z M16,28.36c-0.628,0-1.14,0.511-1.14,1.14s0.512,1.14,1.14,1.14
	s1.14-0.511,1.14-1.14S16.628,28.36,16,28.36z M21.059,29.344l-0.256-0.674c3.632-1.382,6.498-4.252,7.864-7.875l0.674,0.254
	C27.901,24.865,24.883,27.888,21.059,29.344z M10.95,29.344c-3.824-1.455-6.843-4.479-8.282-8.295l0.674-0.254
	c1.367,3.623,4.233,6.494,7.864,7.875L10.95,29.344z M22.696,21.36H12.008c-2.409,0-4.368-1.96-4.368-4.368
	c0-2.624,2.244-4.73,4.861-4.429c1.187-1.993,2.734-2.923,4.852-2.923c3.281,0,5.526,2.94,5.693,5.806
	c1.552,0.156,2.683,1.343,2.683,2.882C25.729,20.028,24.396,21.36,22.696,21.36z M12.008,13.254c-1.978,0-3.648,1.712-3.648,3.738
	c0,2.012,1.637,3.647,3.648,3.647h10.688c1.296,0,2.312-1.016,2.312-2.312c0-1.263-0.972-2.179-2.312-2.179
	c-0.199,0-0.36-0.161-0.36-0.36c0-2.622-2.002-5.429-4.983-5.429c-1.904,0-3.286,0.88-4.348,2.77
	c-0.075,0.133-0.225,0.201-0.375,0.179C12.428,13.274,12.221,13.254,12.008,13.254z M29.5,17.86c-1.025,0-1.86-0.835-1.86-1.86
	s0.835-1.86,1.86-1.86s1.86,0.834,1.86,1.86S30.525,17.86,29.5,17.86z M29.5,14.86c-0.629,0-1.14,0.512-1.14,1.14
	s0.511,1.14,1.14,1.14s1.14-0.511,1.14-1.14S30.129,14.86,29.5,14.86z M2.5,17.36c-1.025,0-1.86-0.835-1.86-1.86
	s0.834-1.86,1.86-1.86s1.86,0.834,1.86,1.86S3.525,17.36,2.5,17.36z M2.5,14.36c-0.628,0-1.14,0.512-1.14,1.14s0.512,1.14,1.14,1.14
	s1.14-0.512,1.14-1.14S3.128,14.36,2.5,14.36z M28.667,11.197c-1.376-3.621-4.243-6.488-7.864-7.865l0.256-0.673
	c3.813,1.45,6.832,4.469,8.282,8.282L28.667,11.197z M3.341,11.197l-0.673-0.256c1.45-3.813,4.468-6.832,8.282-8.282l0.256,0.673
	C7.584,4.709,4.718,7.576,3.341,11.197z M16,4.36c-1.025,0-1.86-0.834-1.86-1.86S14.975,0.64,16,0.64s1.86,0.834,1.86,1.86
	S17.025,4.36,16,4.36z M16,1.36c-0.628,0-1.14,0.512-1.14,1.14S15.372,3.64,16,3.64s1.14-0.512,1.14-1.14S16.628,1.36,16,1.36z"/>
<rect id="_Transparent_Rectangle" style="fill:none;" width="32" height="32"/>
</svg>
