<?xml version="1.0" encoding="iso-8859-1"?>
<!-- Generator: Adobe Illustrator 22.0.0, SVG Export Plug-In . SVG Version: 6.00 Build 0)  -->
<svg version="1.1" xmlns="http://www.w3.org/2000/svg" xmlns:xlink="http://www.w3.org/1999/xlink" x="0px" y="0px"
	 viewBox="0 0 48 48" style="enable-background:new 0 0 48 48;" xml:space="preserve">
<g id="education">
	<path id="education_3_" style="fill:none;stroke:#000000;stroke-width:0.72;stroke-linejoin:round;stroke-miterlimit:10;" d="
		M17.57,17.99c-0.48,0.96-0.75,2.04-0.75,3.19c0,2.93,1.75,5.44,4.27,6.56C15.53,29.06,11,34.04,11,40 M30.43,17.99
		c0.48,0.96,0.75,2.04,0.75,3.19c0,2.93-1.75,5.44-4.26,6.56C32.47,29.06,37,34.04,37,40 M16.2,30.03L19.65,36L24,33.49L28.35,36
		l3.45-5.97 M30.43,17.99v-1.94C28.94,15.23,27.1,14,24.03,14c-3.08,0-4.97,1.23-6.46,2.05v1.94 M30.43,17.99L35,15.35L24,9
		l-11,6.35l4.57,2.64C17.57,17.99,30.423,17.983,30.43,17.99z M13,24v-8.65"/>
</g>
<g id="Layer_1">
</g>
</svg>
