<?xml version="1.0" encoding="iso-8859-1"?>
<!-- Generator: Adobe Illustrator 29.1.0, SVG Export Plug-In . SVG Version: 9.03 Build 55587)  -->
<svg version="1.1" id="Layer_1" xmlns="http://www.w3.org/2000/svg" xmlns:xlink="http://www.w3.org/1999/xlink" x="0px" y="0px"
	 viewBox="0 0 32 32" style="enable-background:new 0 0 32 32;" xml:space="preserve">
<path id="ehningen--tech-campus-02_00000170253255385023124730000005932129063922491777_" d="M22.5,30.86
	c-0.092,0-0.185-0.035-0.255-0.105l-3.5-3.5c-2.346-2.347-2.346-6.163,0-8.51c2.346-2.346,6.164-2.346,8.51,0l3.5,3.5
	c0.141,0.141,0.141,0.369,0,0.51l-2.5,2.5c-0.141,0.141-0.369,0.141-0.51,0l-3.52-3.52c-0.686-0.688-1.805-0.688-2.49,0
	c-0.687,0.687-0.687,1.805,0,2.49l3.52,3.52c0.141,0.141,0.141,0.369,0,0.51l-2.5,2.5C22.685,30.825,22.592,30.86,22.5,30.86z
	 M23,17.706c-1.356,0-2.713,0.516-3.745,1.549c-2.065,2.064-2.065,5.426,0,7.49l3.245,3.246L24.491,28l-3.266-3.265
	c-0.967-0.967-0.967-2.541,0-3.51c0.97-0.968,2.544-0.967,3.51,0L28,24.491l1.991-1.991l-3.246-3.245
	C25.713,18.222,24.356,17.706,23,17.706z M12,30.36H8c-0.199,0-0.36-0.161-0.36-0.36v-5c0-0.353-0.287-0.64-0.64-0.64H2
	c-0.199,0-0.36-0.161-0.36-0.36v-4c0-0.199,0.161-0.36,0.36-0.36h5.343c0.958,0,1.896-0.389,2.574-1.066l1.829-1.828
	c0.141-0.141,0.368-0.141,0.509,0l3,3c0.068,0.067,0.105,0.159,0.105,0.255s-0.038,0.188-0.105,0.255l-1.829,1.828
	c-0.687,0.688-1.066,1.602-1.066,2.574V30C12.36,30.199,12.199,30.36,12,30.36z M8.36,29.64h3.28v-4.982
	c0-1.165,0.453-2.261,1.277-3.084L14.491,20L12,17.509l-1.574,1.574c-0.812,0.812-1.935,1.277-3.083,1.277H2.36v3.279H7
	c0.75,0,1.36,0.61,1.36,1.36V29.64z M23,15.014c-1.541,0-3.082-0.586-4.255-1.76c-2.346-2.346-2.346-6.163,0-8.509l3.5-3.5
	c0.141-0.141,0.369-0.141,0.51,0l2.5,2.5C25.322,3.813,25.36,3.904,25.36,4c0,0.096-0.038,0.187-0.105,0.254l-3.52,3.519
	c-0.687,0.687-0.687,1.804,0,2.491c0.667,0.666,1.827,0.665,2.49,0l3.52-3.519c0.141-0.141,0.369-0.141,0.51,0l2.5,2.5
	c0.141,0.141,0.141,0.368,0,0.509l-3.5,3.5C26.082,14.428,24.541,15.014,23,15.014z M22.5,2.009l-3.245,3.245
	c-2.065,2.065-2.065,5.426,0,7.491c2.064,2.064,5.426,2.064,7.49,0L29.991,9.5L28,7.509l-3.265,3.264
	c-0.938,0.937-2.57,0.938-3.51,0c-0.967-0.967-0.967-2.542,0-3.509L24.491,4L22.5,2.009z M9,15.014c-1.541,0-3.082-0.586-4.254-1.76
	l-3.5-3.5c-0.141-0.141-0.141-0.368,0-0.509l2.5-2.5c0.141-0.141,0.368-0.141,0.509,0l3.519,3.519c0.667,0.666,1.827,0.665,2.491,0
	c0.687-0.687,0.687-1.804,0-2.491L6.746,4.254c-0.141-0.141-0.141-0.368,0-0.509l2.5-2.5c0.141-0.141,0.368-0.141,0.509,0l3.5,3.5
	c2.346,2.346,2.346,6.163,0,8.509C12.082,14.428,10.541,15.014,9,15.014z M2.009,9.5l3.245,3.246c2.065,2.064,5.426,2.064,7.491,0
	c2.065-2.065,2.065-5.426,0-7.491L9.5,2.009L7.509,4l3.264,3.265c0.968,0.967,0.968,2.542,0,3.509c-0.937,0.937-2.571,0.938-3.509,0
	L4,7.509L2.009,9.5z"/>
<rect id="_Transparent_Rectangle" style="fill:none;" width="32" height="32"/>
</svg>
