<?xml version="1.0" encoding="iso-8859-1"?>
<!-- Generator: Adobe Illustrator 24.1.2, SVG Export Plug-In . SVG Version: 6.00 Build 0)  -->
<svg version="1.1" xmlns="http://www.w3.org/2000/svg" xmlns:xlink="http://www.w3.org/1999/xlink" x="0px" y="0px"
	 viewBox="0 0 48 48" style="enable-background:new 0 0 48 48;" xml:space="preserve">
<g id="electric--car">
	<g id="electric--car_1_">
		<path style="fill:none;stroke:#000000;stroke-width:0.72;stroke-linecap:round;stroke-linejoin:round;stroke-miterlimit:10;" d="
			M11,17L11,17c-1.104,0-2-0.896-2-2v-3h4v3C13,16.104,12.104,17,11,17z"/>
		
			<line style="fill:none;stroke:#000000;stroke-width:0.72;stroke-linecap:round;stroke-linejoin:round;stroke-miterlimit:10;" x1="9" y1="14" x2="13" y2="14"/>
		
			<line style="fill:none;stroke:#000000;stroke-width:0.72;stroke-linecap:round;stroke-linejoin:round;stroke-miterlimit:10;" x1="10" y1="10" x2="10" y2="12"/>
		
			<line style="fill:none;stroke:#000000;stroke-width:0.72;stroke-linecap:round;stroke-linejoin:round;stroke-miterlimit:10;" x1="12" y1="10" x2="12" y2="12"/>
		<path style="fill:none;stroke:#000000;stroke-width:0.72;stroke-linejoin:round;stroke-miterlimit:10;" d="M37,38h-2v-3h2V38z
			 M21,35h-2v3h2V35z M38,34v-7c0-0.552-0.448-1-1-1H19c-0.552,0-1,0.448-1,1v7c0,0.552,0.448,1,1,1h18C37.552,35,38,34.552,38,34z
			 M21.5,28c-0.829,0-1.5,0.671-1.5,1.5c0,0.828,0.671,1.5,1.5,1.5c0.829,0,1.5-0.672,1.5-1.5C23,28.671,22.329,28,21.5,28z
			 M34.5,28c-0.829,0-1.5,0.671-1.5,1.5c0,0.828,0.671,1.5,1.5,1.5c0.829,0,1.5-0.672,1.5-1.5C36,28.671,35.329,28,34.5,28z M18,33
			h20 M25,28.5h6 M25,30.5h6 M37,26l-1.811-7.243C35.078,18.312,34.678,18,34.219,18H21.781c-0.459,0-0.859,0.312-0.97,0.757L19,26
			 M38,23v2 M18,23v2 M20.5,19.5h15 M11,17v16c0,1.104,0.896,2,2,2c1.104,0,2-0.896,2-2v-2c0,0,0-3,3-3"/>
	</g>
</g>
<g id="Layer_1">
</g>
</svg>
