<?xml version="1.0" encoding="iso-8859-1"?>
<!-- Generator: Adobe Illustrator 24.1.2, SVG Export Plug-In . SVG Version: 6.00 Build 0)  -->
<svg version="1.1" id="Layer_1" xmlns="http://www.w3.org/2000/svg" xmlns:xlink="http://www.w3.org/1999/xlink" x="0px" y="0px"
	 viewBox="0 0 32 32" style="enable-background:new 0 0 32 32;" xml:space="preserve">
<path id="electric--charge_1_" d="M7.312,21.376l-0.624-0.359l2.688-4.657H6c-0.128,0-0.248-0.068-0.312-0.18
	c-0.064-0.111-0.064-0.249,0-0.36l3-5.196l0.624,0.36L6.624,15.64H10c0.128,0,0.248,0.068,0.312,0.18
	c0.064,0.111,0.064,0.249,0,0.36L7.312,21.376z M15.36,31V6.377c1.838,0.182,3.28,1.737,3.28,3.623v11c0,2.404,1.956,4.36,4.36,4.36
	s4.36-1.956,4.36-4.36v-7.655c2.236-0.184,4-2.062,4-4.345V4c0-0.199-0.161-0.36-0.36-0.36h-1.64V1c0-0.199-0.161-0.36-0.36-0.36
	S28.64,0.801,28.64,1v2.64h-3.28V1c0-0.199-0.161-0.36-0.36-0.36S24.64,0.801,24.64,1v2.64H23c-0.199,0-0.36,0.161-0.36,0.36v5
	c0,2.283,1.764,4.162,4,4.345V21c0,2.007-1.633,3.64-3.64,3.64s-3.64-1.633-3.64-3.64V10c0-2.283-1.764-4.162-4-4.345V3
	c0-1.301-1.059-2.36-2.36-2.36H3C1.699,0.64,0.64,1.699,0.64,3v28c0,0.199,0.161,0.36,0.36,0.36h14
	C15.199,31.36,15.36,31.199,15.36,31z M1.36,3c0-0.904,0.736-1.64,1.64-1.64h10c0.904,0,1.64,0.736,1.64,1.64v27.64H1.36V3z
	 M30.64,6.36V9c0,2.007-1.633,3.64-3.64,3.64S23.36,11.007,23.36,9V6.36H30.64z M23.36,4.36h7.279v1.28H23.36V4.36z"/>
<rect id="_Transparent_Rectangle" style="fill:none;" width="32" height="32"/>
</svg>
