<?xml version="1.0" encoding="iso-8859-1"?>
<!-- Generator: Adobe Illustrator 24.3.0, SVG Export Plug-In . SVG Version: 6.00 Build 0)  -->
<svg version="1.1" id="Layer_1" xmlns="http://www.w3.org/2000/svg" xmlns:xlink="http://www.w3.org/1999/xlink" x="0px" y="0px"
	 viewBox="0 0 32 32" style="enable-background:new 0 0 32 32;" xml:space="preserve">
<path id="emergency--exit_2_" d="M30,31.36H19v-0.72h10.64V1.36H14.36V7h-0.72V1c0-0.199,0.161-0.36,0.36-0.36h16
	c0.199,0,0.36,0.161,0.36,0.36v30C30.36,31.199,30.199,31.36,30,31.36z M14.36,31h-0.72v-6.852l-2.76-2.773
	c-0.809-0.795-1.204-1.577-1.203-2.388c0.001-0.798,0.404-1.596,1.199-2.373l2.869-2.869c0.111-0.11,0.277-0.247,0.475-0.386h-4.072
	l-2.895,2.895l-0.509-0.509l3-3C9.813,12.678,9.904,12.64,10,12.64h6c0.67,0,1.312,0.25,1.762,0.686l2.384,2.314H25v0.72h-5
	c-0.094,0-0.184-0.036-0.251-0.102l-2.489-2.416c-0.316-0.307-0.775-0.483-1.26-0.483c-0.502,0-1.384,0.54-1.748,0.897l-2.87,2.87
	c-0.654,0.64-0.984,1.265-0.985,1.861c0,0.606,0.323,1.221,0.991,1.876l2.868,2.882c0.067,0.067,0.104,0.159,0.104,0.254
	C14.36,23.999,14.36,31,14.36,31z M8,26.36H2v-0.72h5.851l2.895-2.895l0.509,0.51l-3,3C8.187,26.322,8.096,26.36,8,26.36z
	 M19.5,12.36c-1.577,0-2.86-1.283-2.86-2.86s1.283-2.86,2.86-2.86s2.86,1.283,2.86,2.86S21.077,12.36,19.5,12.36z M19.5,7.36
	c-1.18,0-2.14,0.96-2.14,2.14s0.96,2.14,2.14,2.14s2.14-0.96,2.14-2.14S20.68,7.36,19.5,7.36z"/>
<rect id="_Transparent_Rectangle" style="fill:none;" width="32" height="32"/>
</svg>
