<?xml version="1.0" encoding="iso-8859-1"?>
<!-- Generator: Adobe Illustrator 29.1.0, SVG Export Plug-In . SVG Version: 9.03 Build 55587)  -->
<svg version="1.1" id="Layer_1" xmlns="http://www.w3.org/2000/svg" xmlns:xlink="http://www.w3.org/1999/xlink" x="0px" y="0px"
	 viewBox="0 0 32 32" style="enable-background:new 0 0 32 32;" xml:space="preserve">
<path id="emissions_00000055665972368982924410000011986030789229445028_" d="M6.994,12.859c0-2.798,1.261-4.383,3.375-4.383
	c1.393,0,2.354,0.672,2.882,1.837l-0.816,0.493c-0.337-0.865-1.033-1.429-2.065-1.429c-1.441,0-2.294,1.141-2.294,2.858v1.249
	c0,1.717,0.853,2.762,2.294,2.762c1.068,0,1.801-0.601,2.137-1.513l0.805,0.504c-0.528,1.177-1.549,1.909-2.941,1.909
	C8.254,17.146,6.994,15.658,6.994,12.859z M14.294,12.812c0-2.81,1.394-4.335,3.554-4.335c2.162,0,3.555,1.525,3.555,4.335
	s-1.393,4.335-3.555,4.335C15.688,17.146,14.294,15.622,14.294,12.812z M20.322,13.508v-1.393c0-1.657-1.021-2.738-2.474-2.738
	c-1.453,0-2.473,1.081-2.473,2.738v1.393c0,1.657,1.021,2.738,2.473,2.738C19.302,16.246,20.322,15.165,20.322,13.508z
	 M24.213,18.003h-2.235v-0.562l0.97-0.769C23.3,16.4,23.46,16.2,23.46,15.944v-0.032c0-0.256-0.185-0.384-0.448-0.384
	c-0.321,0-0.465,0.184-0.545,0.424l-0.553-0.208c0.144-0.401,0.496-0.745,1.153-0.745c0.681,0,1.073,0.369,1.073,0.889
	c0,0.497-0.368,0.833-0.825,1.146l-0.648,0.457h1.546C24.213,17.491,24.213,18.003,24.213,18.003z M31.36,14
	c0-3.201-2.403-5.922-5.526-6.327C25.432,3.705,22.048,0.64,18,0.64c-3.002,0-5.735,1.711-7.054,4.388
	C10.159,4.771,9.337,4.64,8.5,4.64c-4.334,0-7.86,3.526-7.86,7.86s3.526,7.86,7.86,7.86c0.199,0,0.36-0.161,0.36-0.36
	s-0.161-0.36-0.36-0.36c-3.937,0-7.14-3.203-7.14-7.14S4.563,5.36,8.5,5.36c0.863,0,1.707,0.152,2.508,0.453
	c0.178,0.068,0.378-0.018,0.456-0.191C12.606,3.033,15.171,1.36,18,1.36c3.771,0,6.908,2.927,7.141,6.663
	c0.011,0.179,0.152,0.322,0.331,0.336C28.37,8.59,30.64,11.068,30.64,14c0,3.11-2.529,5.64-5.64,5.64c-0.199,0-0.36,0.161-0.36,0.36
	s0.161,0.36,0.36,0.36C28.507,20.36,31.36,17.507,31.36,14z M17.36,26.131V20h-0.72v6.131l-1.386-1.386l-0.509,0.51L17,27.509
	l2.255-2.254l-0.51-0.51L17.36,26.131z M24.745,27.745l-1.385,1.386V23h-0.72v6.131l-1.385-1.386l-0.51,0.51L23,30.509l2.255-2.254
	L24.745,27.745z M11.36,29.13V23h-0.72v6.132l-1.385-1.387l-0.51,0.51l2.252,2.254l2.257-2.254l-0.509-0.51L11.36,29.13z"/>
<rect id="_Transparent_Rectangle" style="fill:none;" width="32" height="32"/>
</svg>
