<?xml version="1.0" encoding="iso-8859-1"?>
<!-- Generator: Adobe Illustrator 24.1.2, SVG Export Plug-In . SVG Version: 6.00 Build 0)  -->
<svg version="1.1" xmlns="http://www.w3.org/2000/svg" xmlns:xlink="http://www.w3.org/1999/xlink" x="0px" y="0px"
	 viewBox="0 0 48 48" style="enable-background:new 0 0 48 48;" xml:space="preserve">
<g id="employee--insights">
	
		<path id="employee--insights_1_" style="fill:none;stroke:#000000;stroke-width:0.72;stroke-linejoin:round;stroke-miterlimit:10;" d="
		M19.148,25H14v-6c0-5.523,4.477-10,10-10s10,4.477,10,10v5.456 M29.81,24.187c1.527-1.502,2.474-3.589,2.474-5.9l0-0.399
		c-2.811-0.37-5.34-1.638-7.287-3.507l0,0C22.66,16.622,19.493,18,16,18c-0.096,0-0.196,0.002-0.292,0l0,0.287
		c0,3.379,2.024,6.28,4.924,7.57C14.225,27.376,9,31,9,39 M39,39c0-1.7-0.236-3.202-0.67-4.529 M31.5,39c4.142,0,7.5-3.358,7.5-7.5
		S35.642,24,31.5,24S24,27.358,24,31.5S27.358,39,31.5,39z M24.25,29.591C24.655,30.425,25.511,31,26.5,31
		c1.381,0,2.5-1.119,2.5-2.5S27.881,26,26.5,26 M30.5,32c-1.381,0-2.5,1.119-2.5,2.5s1.119,2.5,2.5,2.5s2.5-1.119,2.5-2.5
		S31.881,32,30.5,32z M37.098,26.427c-0.665,0.449-1.102,1.21-1.102,2.073c0,1.381,1.119,2.5,2.5,2.5
		c0.166,0,0.328-0.016,0.484-0.047 M31,26.5v4 M34,26.5v4 M26,32.5v4 M35,32.5v4 M37,32.5v4"/>
</g>
<g id="Layer_1">
</g>
</svg>
