<?xml version="1.0" encoding="iso-8859-1"?>
<!-- Generator: Adobe Illustrator 24.1.2, SVG Export Plug-In . SVG Version: 6.00 Build 0)  -->
<svg version="1.1" id="Layer_1" xmlns="http://www.w3.org/2000/svg" xmlns:xlink="http://www.w3.org/1999/xlink" x="0px" y="0px"
	 viewBox="0 0 32 32" style="enable-background:new 0 0 32 32;" xml:space="preserve">
<path id="employee--insights_1_" d="M23.5,31.4c-4.3,0-7.9-3.5-7.9-7.9c0-3.7,2.6-6.8,6-7.6c1.5-1.5,2.3-3.5,2.3-5.6v-0.1
	c-2.6-0.4-5-1.5-6.9-3.3c-2.4,2.2-5.6,3.5-8.9,3.5c0,3.1,1.9,5.9,4.7,7.2c0.1,0.1,0.2,0.2,0.2,0.4c0,0.2-0.1,0.3-0.3,0.3
	C5.2,20,1.4,24.3,1.4,31H0.6c0-6.8,3.7-11.3,11-13.3c-0.2-0.1-0.4-0.2-0.6-0.4H6c-0.2,0-0.4-0.2-0.4-0.4v-6C5.6,5.3,10.3,0.6,16,0.6
	S26.4,5.2,26.4,11v5.2c2.9,1.1,5,4,5,7.3c0,1.1-0.2,2.1-0.6,3.1c0.4,1.3,0.6,2.8,0.6,4.4h-0.7c0-1.2-0.1-2.4-0.4-3.5
	C28.9,29.8,26.4,31.4,23.5,31.4z M18.4,28.5c1.3,1.3,3.1,2.2,5.1,2.2s3.8-0.8,5.1-2.2v-4h0.7v3.1c0.8-1.2,1.3-2.6,1.3-4.1v-0.1h-0.1
	c-1.6,0-2.9-1.3-2.9-2.9c0-0.8,0.3-1.5,0.9-2.1c-1.3-1.3-3.1-2.1-5-2.1c-1.6,0-3,0.5-4.2,1.4c1.2,0.3,2.1,1.4,2.1,2.8
	c0,1.6-1.3,2.9-2.9,2.9c-0.8,0-1.5-0.3-2.1-0.9c0,0.3-0.1,0.7-0.1,1c0,1.5,0.5,2.9,1.3,4.1v-3.1h0.7L18.4,28.5L18.4,28.5z M29,19
	c-0.4,0.4-0.7,1-0.7,1.5c0,1.2,1,2.1,2.1,2.1h0.1C30.4,21.3,29.9,20,29,19z M16.6,21.5c0.4,0.7,1.1,1.1,1.9,1.1c1.2,0,2.1-1,2.1-2.1
	c0-1.2-0.9-2.1-2.1-2.1C17.7,19.2,17,20.3,16.6,21.5z M6.4,16.6h3.8c-1.7-1.6-2.8-3.9-2.8-6.4V10c0-0.1,0-0.2,0.1-0.3
	s0.2-0.1,0.3-0.1H8h0c3.3,0,6.4-1.2,8.7-3.5c0.1-0.1,0.4-0.1,0.5,0c2,1.9,4.4,3.1,7.1,3.4c0.2,0,0.3,0.2,0.3,0.4v0.4
	c0,2-0.7,3.9-1.9,5.4c1-0.1,2,0,2.9,0.3v-5c0-5.3-4.3-9.6-9.6-9.6S6.4,5.7,6.4,11V16.6z M22.5,29.4c-1.6,0-2.9-1.3-2.9-2.9
	s1.3-2.9,2.9-2.9s2.9,1.3,2.9,2.9S24.1,29.4,22.5,29.4z M22.5,24.4c-1.2,0-2.1,1-2.1,2.1s1,2.1,2.1,2.1s2.1-1,2.1-2.1
	S23.7,24.4,22.5,24.4z M27.4,28.5h-0.7v-4h0.7V28.5L27.4,28.5z M26.4,22.5h-0.7v-4h0.7V22.5L26.4,22.5z M23.4,22.5h-0.7v-4h0.7V22.5
	L23.4,22.5z"/>
<rect id="_Transparent_Rectangle" style="fill:none;" width="32" height="32"/>
</svg>
