<?xml version="1.0" encoding="iso-8859-1"?>
<!-- Generator: Adobe Illustrator 24.3.0, SVG Export Plug-In . SVG Version: 6.00 Build 0)  -->
<svg version="1.1" id="Layer_1" xmlns="http://www.w3.org/2000/svg" xmlns:xlink="http://www.w3.org/1999/xlink" x="0px" y="0px"
	 viewBox="0 0 32 32" style="enable-background:new 0 0 32 32;" xml:space="preserve">
<path id="employee--insights_1_" d="M23.5,31.36c-4.334,0-7.86-3.526-7.86-7.86c0-3.687,2.551-6.789,5.981-7.633
	c1.485-1.494,2.302-3.471,2.302-5.58V10.2c-2.597-0.403-4.979-1.547-6.927-3.326c-2.45,2.236-5.604,3.47-8.928,3.486
	c0.028,3.097,1.871,5.905,4.71,7.168c0.141,0.063,0.226,0.209,0.212,0.362c-0.014,0.154-0.125,0.281-0.275,0.317
	C5.18,19.993,1.36,24.298,1.36,31H0.64c0-6.799,3.694-11.255,10.983-13.257c-0.205-0.12-0.403-0.248-0.596-0.383H6
	c-0.199,0-0.36-0.161-0.36-0.36v-6C5.64,5.288,10.288,0.64,16,0.64c5.713,0,10.36,4.647,10.36,10.36v5.179
	c2.924,1.146,5,3.996,5,7.321c0,1.087-0.222,2.123-0.623,3.065C31.15,27.909,31.36,29.399,31.36,31h-0.72
	c0-1.238-0.13-2.404-0.388-3.479C28.879,29.818,26.366,31.36,23.5,31.36z M18.36,28.451c1.299,1.349,3.123,2.188,5.14,2.188
	s3.841-0.84,5.14-2.188V24.5h0.721v3.075c0.807-1.156,1.279-2.562,1.279-4.075c0-0.048,0-0.096-0.001-0.144
	c-0.047,0.002-0.095,0.004-0.143,0.004c-1.577,0-2.86-1.283-2.86-2.86c0-0.79,0.325-1.535,0.887-2.07
	c-1.291-1.278-3.066-2.07-5.022-2.07c-1.579,0-3.041,0.516-4.225,1.387c1.202,0.339,2.085,1.444,2.085,2.753
	c0,1.577-1.283,2.86-2.86,2.86c-0.787,0-1.534-0.332-2.066-0.886c-0.048,0.335-0.074,0.677-0.074,1.025
	c0,1.514,0.474,2.919,1.28,4.075V24.5h0.721v3.951H18.36z M29.008,18.962c-0.413,0.399-0.651,0.952-0.651,1.538
	c0,1.18,0.96,2.14,2.14,2.14c0.031,0,0.062,0,0.092-0.002C30.421,21.252,29.854,19.987,29.008,18.962z M16.632,21.545
	c0.379,0.679,1.084,1.095,1.868,1.095c1.18,0,2.14-0.96,2.14-2.14c0-1.164-0.934-2.113-2.091-2.14
	C17.653,19.224,16.982,20.317,16.632,21.545z M6.36,16.64h3.775c-1.745-1.611-2.787-3.902-2.787-6.353V10
	c0-0.097,0.039-0.189,0.108-0.257S7.625,9.637,7.715,9.64h0.186H8c3.275,0,6.382-1.25,8.747-3.52c0.139-0.134,0.359-0.134,0.498,0
	C19.203,8,21.652,9.179,24.33,9.531c0.179,0.023,0.313,0.176,0.313,0.357v0.399c0,1.984-0.664,3.863-1.886,5.388
	c0.966-0.092,1.971,0.003,2.882,0.261V11c0-5.315-4.324-9.64-9.64-9.64S6.36,5.685,6.36,11V16.64z M22.5,29.36
	c-1.577,0-2.86-1.283-2.86-2.86s1.283-2.86,2.86-2.86s2.86,1.283,2.86,2.86S24.077,29.36,22.5,29.36z M22.5,24.36
	c-1.18,0-2.14,0.96-2.14,2.14s0.96,2.14,2.14,2.14s2.14-0.96,2.14-2.14S23.68,24.36,22.5,24.36z M27.36,28.5h-0.72v-4h0.721
	L27.36,28.5L27.36,28.5z M26.36,22.5h-0.72v-4h0.721L26.36,22.5L26.36,22.5z M23.36,22.5h-0.72v-4h0.721L23.36,22.5L23.36,22.5z"/>
<rect id="_Transparent_Rectangle" style="fill:none;" width="32" height="32"/>
</svg>
