<?xml version="1.0" encoding="iso-8859-1"?>
<!-- Generator: Adobe Illustrator 27.5.0, SVG Export Plug-In . SVG Version: 6.00 Build 0)  -->
<svg version="1.1" id="Layer_1" xmlns="http://www.w3.org/2000/svg" xmlns:xlink="http://www.w3.org/1999/xlink" x="0px" y="0px"
	 viewBox="0 0 32 32" style="enable-background:new 0 0 32 32;" xml:space="preserve">
<path id="energy--crisis_00000123441987700348841160000013530578222566341505_" d="M28.562,19.733
	c0.53-1.518,0.799-3.108,0.799-4.733c0-7.918-6.442-14.36-14.36-14.36S0.64,7.082,0.64,15S7.082,29.36,15,29.36
	c1.625,0,3.216-0.269,4.733-0.799c1.145,1.688,3.078,2.799,5.267,2.799c3.507,0,6.36-2.854,6.36-6.36
	C31.36,22.812,30.249,20.878,28.562,19.733z M15,28.64C7.479,28.64,1.36,22.521,1.36,15S7.479,1.36,15,1.36S28.64,7.479,28.64,15
	c0,1.494-0.238,2.957-0.71,4.355c-0.877-0.457-1.874-0.716-2.93-0.716c-3.387,0-6.163,2.66-6.35,6.001H18
	c-1.801,0-2.64-0.839-2.64-2.64v-3.649c2.513-0.139,4-1.743,4-4.351V9c0-0.199-0.161-0.36-0.36-0.36h-1.64V6
	c0-0.199-0.161-0.36-0.36-0.36c-0.199,0-0.36,0.161-0.36,0.36v2.64h-3.28V6.001c0-0.199-0.161-0.36-0.36-0.36s-0.36,0.161-0.36,0.36
	V8.64H11c-0.199,0-0.36,0.161-0.36,0.36v5c0,2.608,1.487,4.212,4,4.351V22c0,2.198,1.162,3.36,3.36,3.36h0.65
	c0.052,0.923,0.301,1.793,0.705,2.569C17.957,28.401,16.494,28.64,15,28.64z M12.995,9.36c0.002,0,0.003,0.001,0.005,0.001
	s0.003-0.001,0.005-0.001h5.635v1.28h-7.28V9.36H12.995z M18.64,11.36V14c0,1.094-0.354,3.64-3.64,3.64s-3.64-2.545-3.64-3.64v-2.64
	C11.36,11.36,18.64,11.36,18.64,11.36z M25,30.64c-3.11,0-5.64-2.529-5.64-5.64s2.529-5.64,5.64-5.64s5.64,2.529,5.64,5.64
	S28.11,30.64,25,30.64z M25.36,26h-0.72v-5h0.721L25.36,26L25.36,26z M25.5,28c0,0.276-0.224,0.5-0.5,0.5s-0.5-0.224-0.5-0.5
	s0.224-0.5,0.5-0.5S25.5,27.724,25.5,28z"/>
<rect id="_Transparent_Rectangle" style="fill:none;" width="32" height="32"/>
</svg>
