<?xml version="1.0" encoding="iso-8859-1"?>
<!-- Generator: Adobe Illustrator 29.1.0, SVG Export Plug-In . SVG Version: 9.03 Build 55587)  -->
<svg version="1.1" id="Layer_1" xmlns="http://www.w3.org/2000/svg" xmlns:xlink="http://www.w3.org/1999/xlink" x="0px" y="0px"
	 viewBox="0 0 32 32" style="enable-background:new 0 0 32 32;" xml:space="preserve">
<path id="engagement-inclusion--02_00000088821263524238918630000003952966406327576497_" d="M12.254,29.255l-0.509-0.51l1-1
	c0.055-0.055,0.125-0.09,0.202-0.102l8.784-1.298c0.455-0.057,0.877-0.263,1.194-0.581l7.326-7.125
	c0.518-0.519,0.518-1.366-0.004-1.888c-0.521-0.521-1.369-0.521-1.891,0l-7.504,5.902c-0.489,0.438-1.134,0.706-1.841,0.706h-6.002
	V22.64h6.002c0.49,0,0.94-0.174,1.293-0.463L20.3,22.172l0.092-0.072c0.404-0.372,0.657-0.905,0.657-1.497
	c0-0.511-0.436-0.742-0.84-0.742H11V19.14h9.211c0.89,0,1.561,0.628,1.561,1.46c0,0.151-0.013,0.301-0.036,0.445l6.145-4.831
	c0.771-0.771,2.075-0.773,2.878,0.028c0.802,0.803,0.802,2.107,0,2.91l-7.326,7.124c-0.426,0.428-0.997,0.707-1.603,0.783
	l-8.659,1.279L12.254,29.255z M1.254,29.255l-0.509-0.51l3.403-3.403C4.391,21.909,7.434,19.14,11,19.14v0.721
	c-3.236,0-5.991,2.537-6.141,5.657c-0.004,0.089-0.042,0.174-0.105,0.237L1.254,29.255z M6.36,19H5.64v-7.746
	c0-1.766,1.042-3.315,2.613-3.996C7.695,6.765,7.36,6.048,7.36,5.28c0-1.456,1.184-2.64,2.64-2.64s2.64,1.184,2.64,2.64
	c0,0.374-0.079,0.735-0.225,1.064c1.118-0.587,1.698-1.205,2.265-1.807l0.121-0.128c0.953-1.007,1.672-0.742,2.109-0.34
	c0.068,0.063,0.129,0.129,0.183,0.198l0.146,0.156c0.576,0.615,1.208,1.289,2.337,1.903C19.436,6,19.359,5.646,19.359,5.28
	c0-1.456,1.185-2.64,2.641-2.64s2.641,1.184,2.641,2.64c0,0.768-0.335,1.484-0.894,1.978c1.57,0.681,2.613,2.23,2.613,3.996V15
	h-0.72v-3.746c0-1.695-1.149-3.151-2.797-3.541c-0.15-0.035-0.261-0.163-0.275-0.316s0.071-0.3,0.212-0.362
	c0.693-0.309,1.141-0.998,1.141-1.754c0-1.059-0.861-1.92-1.92-1.92s-1.92,0.861-1.92,1.92c0,0.757,0.447,1.445,1.141,1.754
	c0.176,0.078,0.259,0.281,0.188,0.46c-0.071,0.179-0.27,0.272-0.452,0.208c-1.89-0.647-2.925-1.461-3.681-2.206
	c-0.101,0.274-0.287,0.554-0.559,0.836c-0.067,0.069-0.139,0.147-0.213,0.232c0.96,1.057,1.77,2.441,1.807,2.503
	c0.031,0.055,0.049,0.118,0.049,0.181V17H17.64V9.349c-0.182-0.302-0.848-1.377-1.603-2.227c-0.687,0.853-1.452,1.924-1.677,2.242
	V17h-0.72V9.25c0-0.074,0.022-0.146,0.065-0.207c0.065-0.093,1.61-2.292,2.494-3.21c0.297-0.308,0.451-0.592,0.444-0.819
	c-0.005-0.148-0.077-0.284-0.22-0.416C16.26,4.449,15.99,4.2,15.325,4.903l-0.12,0.127c-0.811,0.862-1.729,1.839-4.163,2.673
	c-0.183,0.062-0.382-0.03-0.452-0.208c-0.07-0.179,0.013-0.382,0.188-0.46c0.693-0.309,1.142-0.998,1.142-1.754
	c0-1.059-0.862-1.92-1.92-1.92c-1.059,0-1.92,0.861-1.92,1.92c0,0.757,0.448,1.445,1.142,1.754c0.141,0.062,0.227,0.208,0.212,0.362
	C9.419,7.551,9.308,7.678,9.158,7.713C7.51,8.104,6.36,9.56,6.36,11.254V19z"/>
<rect id="_Transparent_Rectangle" style="fill:none;" width="32" height="32"/>
</svg>
