<?xml version="1.0" encoding="iso-8859-1"?>
<!-- Generator: Adobe Illustrator 22.0.0, SVG Export Plug-In . SVG Version: 6.00 Build 0)  -->
<svg version="1.1" xmlns="http://www.w3.org/2000/svg" xmlns:xlink="http://www.w3.org/1999/xlink" x="0px" y="0px"
	 viewBox="0 0 48 48" style="enable-background:new 0 0 48 48;" xml:space="preserve">
<g id="engine">
	<path id="engine_1_" style="fill:none;stroke:#000000;stroke-width:0.72;stroke-linejoin:round;stroke-miterlimit:10;" d="M19,12
		h12 M16,27h16 M9,17.909v12.184 M9,24.001h3 M25,12v3 M27,36l-2-3H12V15h24v6h3v15H27z M24,19c-1.105,0-2,0.895-2,2s0.895,2,2,2
		s2-0.895,2-2S25.105,19,24,19z M30,19c-1.105,0-2,0.895-2,2s0.895,2,2,2s2-0.895,2-2S31.105,19,30,19z M18,19c-1.105,0-2,0.895-2,2
		s0.895,2,2,2s2-0.895,2-2S19.105,19,18,19z"/>
</g>
<g id="Layer_1">
</g>
</svg>
