<?xml version="1.0" encoding="iso-8859-1"?>
<!-- Generator: Adobe Illustrator 29.1.0, SVG Export Plug-In . SVG Version: 9.03 Build 55587)  -->
<svg version="1.1" id="Layer_1" xmlns="http://www.w3.org/2000/svg" xmlns:xlink="http://www.w3.org/1999/xlink" x="0px" y="0px"
	 viewBox="0 0 32 32" style="enable-background:new 0 0 32 32;" xml:space="preserve">
<path id="ensure-data-quality_00000080889997684758839960000017261852652621722548_" d="M23,30.36c-4.609,0-8.36-3.751-8.36-8.36
	s3.75-8.36,8.36-8.36s8.36,3.75,8.36,8.36S27.609,30.36,23,30.36z M23,14.36c-4.213,0-7.64,3.427-7.64,7.64s3.427,7.64,7.64,7.64
	s7.64-3.427,7.64-7.64S27.213,14.36,23,14.36z M6,30.36c-0.75,0-1.36-0.61-1.36-1.36S5.25,27.64,6,27.64S7.36,28.25,7.36,29
	S6.75,30.36,6,30.36z M6,28.36c-0.353,0-0.64,0.287-0.64,0.64S5.647,29.64,6,29.64S6.64,29.353,6.64,29S6.353,28.36,6,28.36z
	 M11.36,30h-0.72V2h0.72V30z M1.36,30H0.64V2h0.72V30z M6,26.36c-0.75,0-1.36-0.61-1.36-1.36S5.25,23.64,6,23.64S7.36,24.25,7.36,25
	S6.75,26.36,6,26.36z M6,24.36c-0.353,0-0.64,0.287-0.64,0.64S5.647,25.64,6,25.64S6.64,25.353,6.64,25S6.353,24.36,6,24.36z
	 M6,22.36c-0.75,0-1.36-0.61-1.36-1.36S5.25,19.64,6,19.64S7.36,20.25,7.36,21S6.75,22.36,6,22.36z M6,20.36
	c-0.353,0-0.64,0.287-0.64,0.64S5.647,21.64,6,21.64S6.64,21.353,6.64,21S6.353,20.36,6,20.36z M6,12.36
	c-0.062,0-0.125-0.016-0.18-0.048l-0.866-0.5c-0.111-0.064-0.18-0.184-0.18-0.312v-1c0-0.128,0.068-0.248,0.18-0.312l0.866-0.5
	c0.111-0.063,0.249-0.063,0.36,0l0.866,0.5c0.111,0.064,0.18,0.184,0.18,0.312v1c0,0.128-0.068,0.248-0.18,0.312l-0.866,0.5
	C6.125,12.344,6.062,12.36,6,12.36z M5.494,11.292L6,11.584l0.506-0.292v-0.584L6,10.416l-0.506,0.292V11.292z M31.36,11h-0.72V2
	h0.721L31.36,11L31.36,11z M21.36,11h-0.72V2h0.721L21.36,11L21.36,11z M26,8.36c-0.062,0-0.124-0.016-0.18-0.048l-0.866-0.5
	c-0.111-0.064-0.181-0.184-0.181-0.312v-1c0-0.128,0.069-0.248,0.181-0.312l0.866-0.5c0.111-0.063,0.248-0.063,0.359,0l0.866,0.5
	c0.111,0.064,0.181,0.184,0.181,0.312v1c0,0.128-0.069,0.248-0.181,0.312l-0.866,0.5C26.124,8.344,26.062,8.36,26,8.36z
	 M25.494,7.292L26,7.584l0.506-0.292V6.708L26,6.416l-0.506,0.292V7.292z M16,8.36c-0.75,0-1.36-0.61-1.36-1.36S15.25,5.64,16,5.64
	S17.36,6.25,17.36,7S16.75,8.36,16,8.36z M16,6.36c-0.353,0-0.64,0.287-0.64,0.64S15.647,7.64,16,7.64c0.353,0,0.64-0.287,0.64-0.64
	S16.353,6.36,16,6.36z M26,4.36c-0.75,0-1.36-0.61-1.36-1.36S25.25,1.64,26,1.64S27.36,2.25,27.36,3S26.75,4.36,26,4.36z M26,2.36
	c-0.353,0-0.64,0.287-0.64,0.64S25.647,3.64,26,3.64S26.64,3.353,26.64,3S26.353,2.36,26,2.36z M17,4.36h-2
	c-0.199,0-0.36-0.161-0.36-0.36V2c0-0.199,0.161-0.36,0.36-0.36h2c0.199,0,0.36,0.161,0.36,0.36v2C17.36,4.199,17.199,4.36,17,4.36z
	 M15.36,3.64h1.28V2.36h-1.28V3.64z M6,4.36C5.25,4.36,4.64,3.75,4.64,3S5.25,1.64,6,1.64S7.36,2.25,7.36,3S6.75,4.36,6,4.36z
	 M6,2.36C5.647,2.36,5.36,2.647,5.36,3S5.647,3.64,6,3.64S6.64,3.353,6.64,3S6.353,2.36,6,2.36z M27.255,19.255l-0.51-0.51
	L22,23.491l-1.745-1.746l-0.51,0.51L22,24.509L27.255,19.255z"/>
<rect id="_Transparent_Rectangle" style="fill:none;" width="32" height="32"/>
</svg>
