<?xml version="1.0" encoding="iso-8859-1"?>
<!-- Generator: Adobe Illustrator 22.0.0, SVG Export Plug-In . SVG Version: 6.00 Build 0)  -->
<svg version="1.1" xmlns="http://www.w3.org/2000/svg" xmlns:xlink="http://www.w3.org/1999/xlink" x="0px" y="0px"
	 viewBox="0 0 48 48" style="enable-background:new 0 0 48 48;" xml:space="preserve">
<g id="enterprise_design_thinking_alt">
	<path id="enterprise_design_thinking_alt_1_" style="fill:none;stroke:#000000;stroke-width:0.72;stroke-miterlimit:10;" d="M9,9
		h30 M9,13h15 M9,39h30 M24,35h15 M26,21.999l2.375-2.375c2.189-2.189,6.374-2.206,8.803,0.197c2.429,2.404,2.429,5.949,0,8.353
		c-2.429,2.403-6.616,2.388-8.764,0.239l0,0l-8.794-8.794c-2.176-2.176-6.369-2.199-8.798,0.205c-2.429,2.404-2.429,5.97,0,8.373
		c2.43,2.403,6.612,2.366,8.796,0.182l2.381-2.381 M22,30v-4h-4"/>
</g>
<g id="Layer_1">
</g>
</svg>
