<?xml version="1.0" encoding="iso-8859-1"?>
<!-- Generator: Adobe Illustrator 27.5.0, SVG Export Plug-In . SVG Version: 6.00 Build 0)  -->
<svg version="1.1" id="Layer_1" xmlns="http://www.w3.org/2000/svg" xmlns:xlink="http://www.w3.org/1999/xlink" x="0px" y="0px"
	 viewBox="0 0 32 32" style="enable-background:new 0 0 32 32;" xml:space="preserve">
<path id="enterprise--messaging_00000135656290937639287940000003420262765076704646_" d="M16,31.86
	c-0.943,0-1.725-0.706-1.844-1.617C6.999,29.328,1.64,23.259,1.64,16c0-3.166,1.058-6.267,2.985-8.766
	C4.376,6.91,4.241,6.516,4.241,6.101c0-0.497,0.193-0.964,0.545-1.315c0.644-0.644,1.736-0.708,2.448-0.16
	C9.733,2.698,12.833,1.64,16,1.64c7.918,0,14.36,6.442,14.36,14.36c0,7.258-5.359,13.327-12.517,14.243
	C17.725,31.154,16.943,31.86,16,31.86z M16,28.86c-0.628,0-1.14,0.511-1.14,1.14s0.512,1.14,1.14,1.14s1.14-0.511,1.14-1.14
	S16.628,28.86,16,28.86z M5.167,7.71C3.354,10.078,2.36,13.008,2.36,16c0,6.88,5.067,12.635,11.842,13.522
	c0.181-0.681,0.74-1.21,1.438-1.348v-3.822c-4.443-0.189-8-3.863-8-8.353c0-2.176,0.835-4.16,2.202-5.648L7.137,7.646
	C6.562,8.032,5.762,8.057,5.167,7.71z M16.36,28.175c0.698,0.138,1.257,0.667,1.438,1.348C24.573,28.634,29.64,22.879,29.64,16
	c0-7.521-6.118-13.64-13.64-13.64c-2.992,0-5.922,0.995-8.29,2.808c0.163,0.28,0.25,0.6,0.25,0.933c0,0.375-0.11,0.732-0.314,1.036
	l2.706,2.706C11.84,8.475,13.824,7.64,16,7.64c4.609,0,8.36,3.75,8.36,8.36c0,4.489-3.557,8.163-8,8.353V28.175z M16.36,19.341
	v4.291c4.046-0.188,7.28-3.54,7.28-7.632c0-4.213-3.427-7.64-7.64-7.64c-1.977,0-3.781,0.755-5.139,1.992l3.033,3.033
	c0.577-0.465,1.31-0.744,2.106-0.744c1.853,0,3.36,1.507,3.36,3.36C19.36,17.731,18.044,19.161,16.36,19.341z M10.352,10.861
	C9.115,12.219,8.36,14.023,8.36,16c0,4.092,3.234,7.443,7.28,7.632v-4.291c-1.684-0.18-3-1.609-3-3.341
	c0-0.797,0.279-1.53,0.744-2.106L10.352,10.861z M16,13.36c-1.456,0-2.64,1.185-2.64,2.64c0,1.456,1.185,2.64,2.64,2.64
	c1.456,0,2.64-1.184,2.64-2.64S17.456,13.36,16,13.36z M6.101,4.96c-0.305,0-0.591,0.119-0.806,0.334
	C5.079,5.51,4.96,5.796,4.96,6.101c0,0.304,0.119,0.591,0.334,0.806l0,0c0.43,0.43,1.181,0.431,1.612,0
	C7.121,6.692,7.24,6.405,7.24,6.101c0-0.305-0.119-0.591-0.334-0.806C6.691,5.079,6.405,4.96,6.101,4.96z"/>
<rect id="_Transparent_Rectangle" style="fill:none;" width="32" height="32"/>
</svg>
