<?xml version="1.0" encoding="iso-8859-1"?>
<!-- Generator: Adobe Illustrator 22.0.0, SVG Export Plug-In . SVG Version: 6.00 Build 0)  -->
<svg version="1.1" xmlns="http://www.w3.org/2000/svg" xmlns:xlink="http://www.w3.org/1999/xlink" x="0px" y="0px"
	 viewBox="0 0 48 48" style="enable-background:new 0 0 48 48;" xml:space="preserve">
<g id="enterprise_design_thinking">
	<g id="enterprise_design_thinking_1_">
		<path style="fill:none;stroke:#000000;stroke-width:0.72;stroke-linejoin:round;stroke-miterlimit:10;" d="M21.142,26.829
			c-1.579,1.562-4.138,1.562-5.718,0c-1.579-1.562-1.579-4.094,0-5.657c1.579-1.562,4.139-1.562,5.718,0l5.718,5.657
			c1.579,1.562,4.138,1.562,5.717,0c1.579-1.562,1.579-4.094,0-5.657c-1.579-1.562-4.138-1.562-5.717,0L21.142,26.829z M9,9h30
			 M9,39h30 M9,13h15 M24,17h15 M24,35h15 M9,31h12"/>
		<path d="M39,13c0,0.276-0.224,0.5-0.5,0.5S38,13.276,38,13s0.224-0.5,0.5-0.5S39,12.724,39,13z M36.5,12.5
			c-0.276,0-0.5,0.224-0.5,0.5s0.224,0.5,0.5,0.5S37,13.276,37,13S36.776,12.5,36.5,12.5z M11.5,27.5c-0.276,0-0.5,0.224-0.5,0.5
			s0.224,0.5,0.5,0.5S12,28.276,12,28S11.776,27.5,11.5,27.5z M23.5,30.5c-0.276,0-0.5,0.224-0.5,0.5s0.224,0.5,0.5,0.5
			S24,31.276,24,31S23.776,30.5,23.5,30.5z M9.5,34.5C9.224,34.5,9,34.724,9,35s0.224,0.5,0.5,0.5S10,35.276,10,35
			S9.776,34.5,9.5,34.5z M38.5,30.5c-0.276,0-0.5,0.224-0.5,0.5s0.224,0.5,0.5,0.5S39,31.276,39,31S38.776,30.5,38.5,30.5z
			 M9.5,27.5C9.224,27.5,9,27.724,9,28s0.224,0.5,0.5,0.5S10,28.276,10,28S9.776,27.5,9.5,27.5z M9.5,16.5C9.224,16.5,9,16.724,9,17
			s0.224,0.5,0.5,0.5S10,17.276,10,17S9.776,16.5,9.5,16.5z M38.5,19.5c-0.276,0-0.5,0.224-0.5,0.5s0.224,0.5,0.5,0.5
			S39,20.276,39,20S38.776,19.5,38.5,19.5z"/>
	</g>
</g>
<g id="Layer_1">
</g>
</svg>
