<?xml version="1.0" encoding="iso-8859-1"?>
<!-- Generator: Adobe Illustrator 24.1.2, SVG Export Plug-In . SVG Version: 6.00 Build 0)  -->
<svg version="1.1" id="Layer_1" xmlns="http://www.w3.org/2000/svg" xmlns:xlink="http://www.w3.org/1999/xlink" x="0px" y="0px"
	 viewBox="0 0 32 32" style="enable-background:new 0 0 32 32;" xml:space="preserve">
<path id="enterprise--design--thinking--01_1_" d="M31,31.36H1v-0.72h30V31.36z M31,27.36H16v-0.72h15V27.36z M13,23.36H1v-0.72h12
	V23.36z M21.718,20.357c-1.127,0-2.254-0.424-3.111-1.273L16,16.506l-2.605,2.578c-1.716,1.697-4.508,1.697-6.224,0
	c-0.833-0.823-1.291-1.918-1.291-3.083c0-1.166,0.458-2.262,1.291-3.086c1.717-1.697,4.509-1.697,6.225,0L16,15.493l2.606-2.578
	c1.715-1.698,4.508-1.698,6.223,0c0.833,0.824,1.291,1.92,1.291,3.086c-0.001,1.165-0.459,2.259-1.291,3.083
	C23.972,19.933,22.844,20.357,21.718,20.357z M16.512,16l2.6,2.572c1.436,1.422,3.773,1.422,5.211,0
	c0.694-0.687,1.076-1.6,1.076-2.571c0.001-0.972-0.382-1.886-1.076-2.574c-1.438-1.422-3.774-1.422-5.211,0L16.512,16z
	 M10.283,12.361c-0.944,0-1.888,0.355-2.606,1.066C6.982,14.115,6.6,15.029,6.6,16.001c0,0.971,0.382,1.885,1.077,2.571
	c1.437,1.421,3.775,1.423,5.211,0l0,0L15.489,16l-2.601-2.573C12.17,12.717,11.227,12.361,10.283,12.361z M31,9.36H16V8.64h15V9.36z
	 M16,5.36H1V4.64h15V5.36z M31,1.36H1V0.64h30V1.36z M31,5c0,0.276-0.224,0.5-0.5,0.5S30,5.276,30,5s0.224-0.5,0.5-0.5
	S31,4.724,31,5z M28.5,4.5C28.224,4.5,28,4.724,28,5s0.224,0.5,0.5,0.5S29,5.276,29,5S28.776,4.5,28.5,4.5z M3.5,19.5
	C3.224,19.5,3,19.724,3,20s0.224,0.5,0.5,0.5S4,20.276,4,20S3.776,19.5,3.5,19.5z M15.5,22.5c-0.276,0-0.5,0.224-0.5,0.5
	s0.224,0.5,0.5,0.5S16,23.276,16,23S15.776,22.5,15.5,22.5z M1.5,26.5C1.224,26.5,1,26.724,1,27s0.224,0.5,0.5,0.5S2,27.276,2,27
	S1.776,26.5,1.5,26.5z M30.5,22.5c-0.276,0-0.5,0.224-0.5,0.5s0.224,0.5,0.5,0.5S31,23.276,31,23S30.776,22.5,30.5,22.5z M1.5,19.5
	C1.224,19.5,1,19.724,1,20s0.224,0.5,0.5,0.5S2,20.276,2,20S1.776,19.5,1.5,19.5z M1.5,8.5C1.224,8.5,1,8.724,1,9s0.224,0.5,0.5,0.5
	S2,9.276,2,9S1.776,8.5,1.5,8.5z M30.5,11.5c-0.276,0-0.5,0.224-0.5,0.5s0.224,0.5,0.5,0.5S31,12.276,31,12S30.776,11.5,30.5,11.5z"
	/>
<rect id="_Transparent_Rectangle" style="fill:none;" width="32" height="32"/>
</svg>
