<svg xmlns="http://www.w3.org/2000/svg" viewBox="0 0 48 48"><path fill="none" stroke-linecap="round" stroke-linejoin="round" stroke-miterlimit="10" stroke-width=".72" d="M14.56,28.998l15.412-15.412C30.347,13.211,30.856,13,31.386,13H35c2.209,0,4,1.791,4,4v0.004c0,2.208-1.79,3.997-3.997,3.997 h-1.532L18.057,36.414C17.682,36.789,17.173,37,16.643,37H13c-2.209,0-4-1.791-4-4v0c0-2.209,1.791-4.001,4.001-4.001h1.559"/><path fill="none" stroke-miterlimit="10" stroke-width=".72" d="M18,14c0,1.105-0.895,2-2,2s-2-0.895-2-2 s0.895-2,2-2S18,12.895,18,14z M39,35v-6h-6 M39,29l-8,8 M18.992,21.012C18.992,19.355,17.657,18,16,18s-3,1.343-3,3v5"/></svg>