<?xml version="1.0" encoding="iso-8859-1"?>
<!-- Generator: Adobe Illustrator 22.0.0, SVG Export Plug-In . SVG Version: 6.00 Build 0)  -->
<svg version="1.1" xmlns="http://www.w3.org/2000/svg" xmlns:xlink="http://www.w3.org/1999/xlink" x="0px" y="0px"
	 viewBox="0 0 48 48" style="enable-background:new 0 0 48 48;" xml:space="preserve">
<g id="europe-africa">
	<path id="europe-africa_2_" style="fill:none;stroke:#000000;stroke-width:0.72;stroke-linejoin:round;stroke-miterlimit:10;" d="
		M39,24c0,8.284-6.716,15-15,15S9,32.284,9,24S15.716,9,24,9S39,15.716,39,24z M19.239,9.771L19.5,11L15,14.5l0.585,2.5h1.591
		c0.43,0,0.831-0.068,1.069-0.426v0C18.483,16.215,18.884,16,19.314,16h6.49l2.696,5l-0.946,2h-3.937L22,20h-6l-2.027,6.626
		L16,31.001L21.999,32v5.501L25.034,39 M38.999,23.806c-0.193,0.076-3.148,0.806-4.433,1.134L31.5,21l-1.737,2.5l2.435,3.5h2.803
		v7.202"/>
</g>
<g id="Layer_1">
</g>
</svg>
