<?xml version="1.0" encoding="iso-8859-1"?>
<!-- Generator: Adobe Illustrator 24.1.2, SVG Export Plug-In . SVG Version: 6.00 Build 0)  -->
<svg version="1.1" id="Layer_1" xmlns="http://www.w3.org/2000/svg" xmlns:xlink="http://www.w3.org/1999/xlink" x="0px" y="0px"
	 viewBox="0 0 32 32" style="enable-background:new 0 0 32 32;" xml:space="preserve">
<path id="europe--africa_1_" d="M16,31.36C7.53,31.36,0.64,24.47,0.64,16S7.53,0.64,16,0.64S31.36,7.53,31.36,16
	S24.47,31.36,16,31.36z M10.973,2.25C5.369,4.305,1.36,9.693,1.36,16c0,7.896,6.284,14.353,14.113,14.631l-1.633-0.807
	c-0.123-0.062-0.201-0.187-0.201-0.323v-5.196l-5.698-0.948c-0.117-0.02-0.218-0.096-0.268-0.204l-2.027-4.375
	c-0.037-0.08-0.043-0.172-0.018-0.257l2.027-6.626C7.702,11.743,7.842,11.64,8,11.64h6c0.132,0,0.254,0.073,0.317,0.189l1.515,2.811
	h3.495l0.771-1.629L17.589,8.36h-6.274c-0.31,0-0.598,0.154-0.77,0.413C10.201,9.293,9.632,9.36,9.176,9.36H7.585
	c-0.167,0-0.312-0.115-0.351-0.278l-0.585-2.5c-0.032-0.137,0.019-0.28,0.129-0.366L11.1,2.854L10.973,2.25z M14.359,29.277
	l2.685,1.326c3.77-0.267,7.149-1.968,9.597-4.559V19.36h-2.442c-0.118,0-0.229-0.058-0.296-0.154l-2.435-3.5
	c-0.086-0.124-0.086-0.288,0-0.411l1.736-2.5c0.065-0.094,0.172-0.151,0.286-0.154c0.117-0.001,0.224,0.049,0.294,0.139l2.921,3.754
	l1.31-0.33c0.917-0.23,2.107-0.529,2.618-0.666C30.388,7.678,23.918,1.36,16,1.36c-1.511,0-2.969,0.23-4.341,0.657l0.193,0.909
	C11.881,3.06,11.83,3.2,11.721,3.284L7.403,6.643L7.871,8.64h1.305c0.421,0,0.644-0.077,0.769-0.265
	c0.306-0.46,0.817-0.735,1.37-0.735h6.489c0.133,0,0.254,0.072,0.316,0.189l2.696,5c0.055,0.101,0.058,0.221,0.009,0.325l-0.946,2
	c-0.06,0.126-0.186,0.206-0.325,0.206h-3.937c-0.132,0-0.254-0.073-0.317-0.189l-1.515-2.811H8.266L6.358,18.6l1.889,4.077
	l5.812,0.968c0.174,0.029,0.301,0.18,0.301,0.355L14.359,29.277L14.359,29.277z M24.387,18.64h2.614c0.199,0,0.36,0.161,0.36,0.36
	v6.224c1.994-2.452,3.212-5.558,3.276-8.943c-0.467,0.123-1.265,0.324-2.448,0.621l-1.535,0.387
	c-0.14,0.031-0.285-0.016-0.373-0.128l-2.765-3.554L22.202,15.5L24.387,18.64z"/>
<rect id="_Transparent_Rectangle" style="fill:none;" width="32" height="32"/>
</svg>
