<?xml version="1.0" encoding="iso-8859-1"?>
<!-- Generator: Adobe Illustrator 27.5.0, SVG Export Plug-In . SVG Version: 6.00 Build 0)  -->
<svg version="1.1" id="Layer_1" xmlns="http://www.w3.org/2000/svg" xmlns:xlink="http://www.w3.org/1999/xlink" x="0px" y="0px"
	 viewBox="0 0 32 32" style="enable-background:new 0 0 32 32;" xml:space="preserve">
<path id="event--streams--02_00000035516612967266628380000006306854907637386398_" d="M19,30.36c-0.052,0-0.104-0.012-0.153-0.035
	C18.721,30.266,18.64,30.14,18.64,30v-3.647c-4.795-0.191-8.8-4.197-8.993-8.992H7.325c-0.168,0.854-0.923,1.5-1.825,1.5
	c-1.025,0-1.86-0.835-1.86-1.86s0.834-1.86,1.86-1.86c0.902,0,1.657,0.646,1.825,1.5h2.322c0.088-2.309,1.016-4.406,2.486-5.994
	l-2.601-2.6C9.237,8.245,8.882,8.36,8.5,8.36c-1.025,0-1.86-0.834-1.86-1.86S7.475,4.64,8.5,4.64s1.86,0.834,1.86,1.86
	c0,0.384-0.117,0.742-0.317,1.039l2.6,2.598c1.588-1.473,3.688-2.402,5.998-2.49V5.325c-0.854-0.168-1.5-0.923-1.5-1.825
	c0-1.025,0.835-1.86,1.86-1.86s1.86,0.834,1.86,1.86c0,0.902-0.646,1.657-1.5,1.825v2.322c4.994,0.19,9,4.312,9,9.353
	c0,5.077-4.616,9.562-9.132,13.278C19.163,30.332,19.082,30.36,19,30.36z M10.368,17.36c0.197,4.523,4.07,8.279,8.632,8.279
	c0.199,0,0.36,0.161,0.36,0.36v3.233c4.188-3.51,8.279-7.669,8.279-12.233c0-4.644-3.682-8.443-8.279-8.633v5.292
	c1.684,0.18,3,1.61,3,3.341c0,1.853-1.508,3.36-3.36,3.36c-1.731,0-3.161-1.316-3.341-3L10.368,17.36L10.368,17.36z M19,14.36
	c-1.456,0-2.64,1.185-2.64,2.64c0,1.456,1.184,2.64,2.64,2.64s2.64-1.184,2.64-2.64S20.456,14.36,19,14.36z M5.5,15.86
	c-0.628,0-1.14,0.512-1.14,1.14c0,0.629,0.512,1.14,1.14,1.14S6.64,17.629,6.64,17C6.64,16.372,6.128,15.86,5.5,15.86z
	 M10.367,16.64h5.292c0.07-0.657,0.331-1.258,0.725-1.747l-3.741-3.739C11.302,12.612,10.455,14.53,10.367,16.64z M13.152,10.646
	l3.741,3.739c0.489-0.394,1.089-0.655,1.747-0.725V8.367C16.528,8.455,14.609,9.303,13.152,10.646z M8.5,5.36
	c-0.628,0-1.14,0.512-1.14,1.14S7.872,7.64,8.5,7.64S9.64,7.128,9.64,6.5S9.128,5.36,8.5,5.36z M19,2.36
	c-0.629,0-1.14,0.512-1.14,1.14S18.371,4.64,19,4.64s1.14-0.512,1.14-1.14S19.629,2.36,19,2.36z"/>
<rect id="_Transparent_Rectangle" style="fill:none;" width="32" height="32"/>
</svg>
