<svg xmlns="http://www.w3.org/2000/svg" viewBox="0 0 48 48"><path fill="none" stroke-linejoin="round" stroke-miterlimit="10" stroke-width=".72" d="M25.5,39v-7c1.109-0.4,2-1.268,2-2.4v-4.016C27.5,23.605,25.979,22,24,22s-3.5,1.614-3.5,3.593v4.016c0,1.132,0.891,1.99,2,2.391 v7"/><path fill="none" stroke-miterlimit="10" stroke-width=".72" d="M24,14V9 M26.121,11.121L24,9l-2.121,2.121 M15.34,19l-4.33-2.5 M13.907,15.724L11.01,16.5l0.776,2.898 M15.34,29l-4.33,2.5 M11.786,28.602L11.01,31.5l2.898,0.776 M32.66,29l4.33,2.5 M34.093,32.276L36.99,31.5l-0.776-2.898 M32.66,19l4.33-2.5 M36.214,19.398L36.99,16.5l-2.898-0.776 M24,16 c-1.105,0-2,0.895-2,2s0.895,2,2,2s2-0.895,2-2S25.105,16,24,16z"/></svg>