<?xml version="1.0" encoding="iso-8859-1"?>
<!-- Generator: Adobe Illustrator 24.1.2, SVG Export Plug-In . SVG Version: 6.00 Build 0)  -->
<svg version="1.1" id="Layer_1" xmlns="http://www.w3.org/2000/svg" xmlns:xlink="http://www.w3.org/1999/xlink" x="0px" y="0px"
	 viewBox="0 0 32 32" style="enable-background:new 0 0 32 32;" xml:space="preserve">
<path id="expand--horz_1_" d="M31,1.37c-0.199,0-0.36-0.161-0.36-0.36S30.801,0.645,31,0.645S31.36,0.801,31.36,1v0.01
	C31.36,1.208,31.199,1.37,31,1.37z M31.36,29.01v-0.02c0-0.199-0.161-0.351-0.36-0.351s-0.36,0.171-0.36,0.37s0.161,0.36,0.36,0.36
	S31.36,29.209,31.36,29.01z M31.36,27.01v-0.02c0-0.199-0.161-0.351-0.36-0.351s-0.36,0.171-0.36,0.37s0.161,0.36,0.36,0.36
	S31.36,27.209,31.36,27.01z M31.36,25.01v-0.02c0-0.199-0.161-0.351-0.36-0.351s-0.36,0.171-0.36,0.37s0.161,0.36,0.36,0.36
	S31.36,25.209,31.36,25.01z M31.36,23.01v-0.02c0-0.199-0.161-0.351-0.36-0.351s-0.36,0.171-0.36,0.37s0.161,0.36,0.36,0.36
	S31.36,23.209,31.36,23.01z M31.36,21.01v-0.02c0-0.199-0.161-0.351-0.36-0.351s-0.36,0.171-0.36,0.37s0.161,0.36,0.36,0.36
	S31.36,21.209,31.36,21.01z M31.36,19.01v-0.02c0-0.199-0.161-0.351-0.36-0.351s-0.36,0.171-0.36,0.37s0.161,0.36,0.36,0.36
	S31.36,19.209,31.36,19.01z M31.36,17.01v-0.02c0-0.199-0.161-0.35-0.36-0.35s-0.36,0.171-0.36,0.37c0,0.199,0.161,0.36,0.36,0.36
	S31.36,17.209,31.36,17.01z M31.36,15.01v-0.02c0-0.199-0.161-0.35-0.36-0.35s-0.36,0.171-0.36,0.37s0.161,0.36,0.36,0.36
	S31.36,15.208,31.36,15.01z M31.36,13.01v-0.02c0-0.199-0.161-0.35-0.36-0.35s-0.36,0.171-0.36,0.37s0.161,0.36,0.36,0.36
	S31.36,13.208,31.36,13.01z M31.36,11.01v-0.02c0-0.199-0.161-0.35-0.36-0.35s-0.36,0.171-0.36,0.37s0.161,0.36,0.36,0.36
	S31.36,11.208,31.36,11.01z M31.36,9.01V8.99c0-0.199-0.161-0.35-0.36-0.35s-0.36,0.171-0.36,0.37S30.801,9.37,31,9.37
	S31.36,9.208,31.36,9.01z M31.36,7.01V6.99c0-0.199-0.161-0.35-0.36-0.35s-0.36,0.171-0.36,0.37S30.801,7.37,31,7.37
	S31.36,7.208,31.36,7.01z M31.36,5.01V4.99c0-0.199-0.161-0.35-0.36-0.35s-0.36,0.171-0.36,0.37S30.801,5.37,31,5.37
	S31.36,5.209,31.36,5.01z M31.36,3.01V2.99c0-0.199-0.161-0.35-0.36-0.35s-0.36,0.171-0.36,0.37S30.801,3.37,31,3.37
	S31.36,3.209,31.36,3.01z M31.36,31v-0.01c0-0.199-0.161-0.355-0.36-0.355S30.64,30.801,30.64,31s0.161,0.36,0.36,0.36
	S31.36,31.199,31.36,31z M1.36,1H0.64v30h0.72V1z M28.509,16l-3.254-3.254l-0.51,0.509l2.386,2.386H4v0.72h23.131l-2.386,2.385
	l0.51,0.51L28.509,16z"/>
<rect id="_Transparent_Rectangle" style="fill:none;" width="32" height="32"/>
</svg>
