<?xml version="1.0" encoding="iso-8859-1"?>
<!-- Generator: Adobe Illustrator 24.1.2, SVG Export Plug-In . SVG Version: 6.00 Build 0)  -->
<svg version="1.1" id="Layer_1" xmlns="http://www.w3.org/2000/svg" xmlns:xlink="http://www.w3.org/1999/xlink" x="0px" y="0px"
	 viewBox="0 0 32 32" style="enable-background:new 0 0 32 32;" xml:space="preserve">
<g id="export--02">
	<g id="export--02_1_">
		<path d="M31,31.36H1c-0.199,0-0.36-0.161-0.36-0.36V12c0-0.199,0.161-0.36,0.36-0.36h8v0.72H1.36v18.28h29.28V12.36H23v-0.72h8
			c0.199,0,0.36,0.161,0.36,0.36v19C31.36,31.199,31.199,31.36,31,31.36z"/>
		<polygon points="16.36,25 15.64,25 15.64,1.869 10.254,7.254 9.746,6.746 16,0.491 22.255,6.746 21.745,7.254 16.36,1.869 		"/>
	</g>
</g>
<rect id="_Transparent_Rectangle" style="fill:none;" width="32" height="32"/>
</svg>
