<?xml version="1.0" encoding="iso-8859-1"?>
<!-- Generator: Adobe Illustrator 24.3.0, SVG Export Plug-In . SVG Version: 6.00 Build 0)  -->
<svg version="1.1" id="Layer_1" xmlns="http://www.w3.org/2000/svg" xmlns:xlink="http://www.w3.org/1999/xlink" x="0px" y="0px"
	 viewBox="0 0 32 32" style="enable-background:new 0 0 32 32;" xml:space="preserve">
<path id="eyewash--station_1_" d="M16,31.36L16,31.36c-0.139,0-0.266-0.081-0.326-0.206l-1.382-2.925
	c-0.199-0.47-0.202-0.973-0.014-1.432c0.189-0.462,0.548-0.822,1.011-1.014c0.463-0.193,0.972-0.193,1.433,0
	c0.457,0.191,0.809,0.55,0.995,1.009c0.192,0.444,0.193,0.951,0,1.42l-1.392,2.941C16.266,31.279,16.139,31.36,16,31.36z
	 M16.006,26.36c-0.149,0-0.298,0.029-0.44,0.088c-0.285,0.118-0.505,0.34-0.622,0.623c-0.114,0.279-0.113,0.586,0.005,0.863
	L16,30.158l1.059-2.237c0.111-0.271,0.112-0.578-0.006-0.85c-0.117-0.288-0.332-0.507-0.609-0.623
	C16.303,26.39,16.155,26.36,16.006,26.36z M21.5,27.36L21.5,27.36c-0.14,0-0.266-0.081-0.325-0.206l-1.383-2.925
	c-0.199-0.47-0.202-0.973-0.015-1.431c0.189-0.463,0.549-0.823,1.013-1.015c0.464-0.193,0.974-0.191,1.432,0
	c0.457,0.191,0.81,0.55,0.995,1.009c0.192,0.444,0.193,0.951,0,1.42l-1.392,2.941C21.766,27.279,21.64,27.36,21.5,27.36z
	 M21.506,22.36c-0.148,0-0.298,0.029-0.44,0.088c-0.284,0.119-0.505,0.34-0.621,0.623c-0.114,0.279-0.113,0.586,0.005,0.863
	l1.051,2.224l1.059-2.237c0.111-0.271,0.112-0.578-0.006-0.85c-0.116-0.288-0.331-0.507-0.609-0.623
	C21.803,22.39,21.655,22.36,21.506,22.36z M10.5,27.36L10.5,27.36c-0.139,0-0.266-0.081-0.326-0.206l-1.382-2.925
	c-0.199-0.47-0.202-0.973-0.014-1.432c0.189-0.462,0.548-0.822,1.011-1.014c0.463-0.193,0.973-0.193,1.433,0
	c0.456,0.191,0.81,0.55,0.995,1.009c0.192,0.443,0.193,0.95,0,1.42l-1.392,2.941C10.766,27.279,10.639,27.36,10.5,27.36z
	 M10.506,22.36c-0.149,0-0.298,0.029-0.44,0.088c-0.285,0.118-0.505,0.34-0.622,0.623c-0.114,0.279-0.113,0.586,0.005,0.863
	l1.051,2.224l1.059-2.237c0.111-0.271,0.112-0.578-0.006-0.85c-0.117-0.288-0.332-0.507-0.609-0.623
	C10.803,22.39,10.655,22.36,10.506,22.36z M16,24.36L16,24.36c-0.139,0-0.266-0.081-0.326-0.206l-1.382-2.925
	c-0.199-0.47-0.202-0.973-0.014-1.432c0.189-0.462,0.548-0.822,1.011-1.014c0.463-0.193,0.972-0.193,1.433,0
	c0.457,0.191,0.809,0.55,0.995,1.009c0.192,0.444,0.193,0.951,0,1.42l-1.392,2.941C16.266,24.279,16.139,24.36,16,24.36z
	 M16.006,19.36c-0.149,0-0.298,0.029-0.44,0.088c-0.285,0.118-0.505,0.34-0.622,0.623c-0.114,0.279-0.113,0.586,0.005,0.863
	L16,23.158l1.059-2.237c0.111-0.271,0.112-0.578-0.006-0.85c-0.117-0.288-0.332-0.507-0.609-0.623
	C16.303,19.39,16.155,19.36,16.006,19.36z M26.5,23.36L26.5,23.36c-0.14,0-0.266-0.081-0.325-0.206l-1.383-2.925
	c-0.199-0.47-0.202-0.973-0.015-1.431c0.189-0.463,0.549-0.823,1.013-1.015c0.465-0.193,0.974-0.192,1.432,0
	c0.457,0.191,0.81,0.55,0.995,1.009c0.192,0.444,0.193,0.951,0,1.42l-1.392,2.941C26.766,23.279,26.64,23.36,26.5,23.36z
	 M26.506,18.36c-0.148,0-0.298,0.029-0.44,0.088c-0.284,0.119-0.505,0.34-0.621,0.623c-0.114,0.279-0.113,0.586,0.005,0.863
	l1.051,2.224l1.059-2.237c0.111-0.271,0.112-0.578-0.006-0.85c-0.116-0.288-0.331-0.507-0.609-0.623
	C26.803,18.39,26.655,18.36,26.506,18.36z M5.5,23.36L5.5,23.36c-0.139,0-0.266-0.081-0.326-0.206l-1.382-2.925
	c-0.002-0.005-0.004-0.01-0.006-0.014c-0.193-0.456-0.196-0.959-0.008-1.418c0.189-0.462,0.548-0.822,1.011-1.014
	c0.463-0.193,0.972-0.193,1.433,0c0.456,0.191,0.81,0.55,0.995,1.009c0.192,0.443,0.193,0.95,0,1.42l-1.392,2.941
	C5.766,23.279,5.639,23.36,5.5,23.36z M4.447,19.929L5.5,22.158l1.059-2.237c0.111-0.271,0.112-0.578-0.006-0.85
	c-0.117-0.288-0.332-0.507-0.609-0.623c-0.281-0.116-0.594-0.116-0.878,0c-0.285,0.118-0.505,0.34-0.622,0.623
	C4.331,19.349,4.332,19.652,4.447,19.929z M16,17.36c-8.96,0-12.302-8.145-12.334-8.228c-0.034-0.085-0.034-0.18,0-0.266
	C3.698,8.785,7.04,0.64,16,0.64c8.961,0,12.302,8.145,12.335,8.227c0.033,0.085,0.033,0.18,0,0.266
	C28.302,9.215,24.961,17.36,16,17.36z M4.393,9C4.857,10.029,8.156,16.64,16,16.64c7.845,0,11.143-6.611,11.607-7.64
	C27.143,7.971,23.845,1.36,16,1.36C8.156,1.36,4.857,7.971,4.393,9z M16,15.36c-3.507,0-6.36-2.853-6.36-6.36S12.493,2.64,16,2.64
	S22.36,5.493,22.36,9S19.507,15.36,16,15.36z M16,3.36c-3.11,0-5.64,2.53-5.64,5.64s2.53,5.64,5.64,5.64s5.64-2.53,5.64-5.64
	S19.11,3.36,16,3.36z M16,12.36c-1.853,0-3.36-1.507-3.36-3.36S14.147,5.64,16,5.64S19.36,7.147,19.36,9S17.853,12.36,16,12.36z
	 M16,6.36c-1.456,0-2.64,1.185-2.64,2.64s1.185,2.64,2.64,2.64c1.456,0,2.64-1.185,2.64-2.64S17.456,6.36,16,6.36z"/>
<rect id="_Transparent_Rectangle" style="fill:none;" width="32" height="32"/>
</svg>
