<?xml version="1.0" encoding="iso-8859-1"?>
<!-- Generator: Adobe Illustrator 29.1.0, SVG Export Plug-In . SVG Version: 9.03 Build 55587)  -->
<svg version="1.1" id="Layer_1" xmlns="http://www.w3.org/2000/svg" xmlns:xlink="http://www.w3.org/1999/xlink" x="0px" y="0px"
	 viewBox="0 0 32 32" style="enable-background:new 0 0 32 32;" xml:space="preserve">
<path id="f1--grid_00000123435715424924832930000007223611016204665010_" d="M30,30.36H2v-0.72h25.64V2.36H2V1.64h28
	c0.199,0,0.36,0.161,0.36,0.36v28C30.36,30.199,30.199,30.36,30,30.36z M28.36,29.64h1.279v-3.28H28.36V29.64z M28.36,25.64h1.279
	v-3.28H28.36V25.64z M28.36,21.64h1.279v-3.28H28.36V21.64z M28.36,17.64h1.279v-3.28H28.36V17.64z M28.36,13.64h1.279v-3.28H28.36
	V13.64z M28.36,9.64h1.279V6.36H28.36V9.64z M28.36,5.64h1.279V2.36H28.36V5.64z M18,25.36h-2v-0.72h1.64v-5.28H16v-0.72h2
	c0.199,0,0.36,0.161,0.36,0.36v6C18.36,25.199,18.199,25.36,18,25.36z M8,25.36H6v-0.72h1.64v-5.28H6v-0.72h2
	c0.199,0,0.36,0.161,0.36,0.36v6C8.36,25.199,8.199,25.36,8,25.36z M24,13.36h-2v-0.72h1.64V7.36H22V6.64h2
	c0.199,0,0.36,0.161,0.36,0.36v6C24.36,13.199,24.199,13.36,24,13.36z M14,13.36h-2v-0.72h1.64V7.36H12V6.64h2
	c0.199,0,0.36,0.161,0.36,0.36v6C14.36,13.199,14.199,13.36,14,13.36z M4,13.36H2v-0.72h1.64V7.36H2V6.64h2
	c0.199,0,0.36,0.161,0.36,0.36v6C4.36,13.199,4.199,13.36,4,13.36z"/>
<rect id="_Transparent_Rectangle" style="fill:none;" width="32" height="32"/>
</svg>
