<?xml version="1.0" encoding="iso-8859-1"?>
<!-- Generator: Adobe Illustrator 29.1.0, SVG Export Plug-In . SVG Version: 9.03 Build 55587)  -->
<svg version="1.1" id="Layer_1" xmlns="http://www.w3.org/2000/svg" xmlns:xlink="http://www.w3.org/1999/xlink" x="0px" y="0px"
	 viewBox="0 0 32 32" style="enable-background:new 0 0 32 32;" xml:space="preserve">
<path id="f1--pit-stop-traffic-light_00000098198070095296194530000008365521215154240897_" d="M31,29.36h-2
	c-0.199,0-0.36-0.161-0.36-0.36v-6c0-0.199,0.161-0.36,0.36-0.36h2v0.721h-1.64v5.279H31V29.36z M27,29.36h-6
	c-0.199,0-0.36-0.161-0.36-0.36v-6c0-0.199,0.161-0.36,0.36-0.36h6c0.199,0,0.36,0.161,0.36,0.36v6
	C27.36,29.199,27.199,29.36,27,29.36z M21.36,28.64h5.279v-5.28H21.36V28.64z M19,29.36h-6c-0.199,0-0.36-0.161-0.36-0.36v-6
	c0-0.199,0.161-0.36,0.36-0.36h6c0.199,0,0.36,0.161,0.36,0.36v6C19.36,29.199,19.199,29.36,19,29.36z M13.36,28.64h5.28v-5.28
	h-5.28C13.36,23.36,13.36,28.64,13.36,28.64z M11,29.36H5c-0.199,0-0.36-0.161-0.36-0.36v-6c0-0.199,0.161-0.36,0.36-0.36h6
	c0.199,0,0.36,0.161,0.36,0.36v6C11.36,29.199,11.199,29.36,11,29.36z M5.36,28.64h5.28v-5.28H5.36V28.64z M3,29.36H1v-0.72h1.64
	v-5.28H1v-0.72h2c0.199,0,0.36,0.161,0.36,0.36v6C3.36,29.199,3.199,29.36,3,29.36z M24,27.36c-0.75,0-1.36-0.61-1.36-1.36
	s0.61-1.36,1.36-1.36s1.36,0.61,1.36,1.36S24.75,27.36,24,27.36z M24,25.36c-0.353,0-0.64,0.287-0.64,0.64s0.287,0.64,0.64,0.64
	s0.64-0.287,0.64-0.64S24.353,25.36,24,25.36z M16,27.36c-0.75,0-1.36-0.61-1.36-1.36s0.61-1.36,1.36-1.36s1.36,0.61,1.36,1.36
	S16.75,27.36,16,27.36z M16,25.36c-0.353,0-0.64,0.287-0.64,0.64s0.287,0.64,0.64,0.64s0.64-0.287,0.64-0.64S16.353,25.36,16,25.36z
	 M8,27.36c-0.75,0-1.36-0.61-1.36-1.36S7.25,24.64,8,24.64S9.36,25.25,9.36,26S8.75,27.36,8,27.36z M8,25.36
	c-0.353,0-0.64,0.287-0.64,0.64S7.647,26.64,8,26.64c0.353,0,0.64-0.287,0.64-0.64S8.353,25.36,8,25.36z M31,22.36h-2
	c-0.199,0-0.36-0.161-0.36-0.36v-6c0-0.199,0.161-0.36,0.36-0.36h2v0.72h-1.64v5.28H31V22.36z M27,22.36h-6
	c-0.199,0-0.36-0.161-0.36-0.36v-6c0-0.199,0.161-0.36,0.36-0.36h6c0.199,0,0.36,0.161,0.36,0.36v6
	C27.36,22.199,27.199,22.36,27,22.36z M21.36,21.64h5.279v-5.28H21.36V21.64z M19,22.36h-6c-0.199,0-0.36-0.161-0.36-0.36v-6
	c0-0.199,0.161-0.36,0.36-0.36h6c0.199,0,0.36,0.161,0.36,0.36v6C19.36,22.199,19.199,22.36,19,22.36z M13.36,21.64h5.28v-5.28
	h-5.28C13.36,16.36,13.36,21.64,13.36,21.64z M11,22.36H5c-0.199,0-0.36-0.161-0.36-0.36v-6c0-0.199,0.161-0.36,0.36-0.36h6
	c0.199,0,0.36,0.161,0.36,0.36v6C11.36,22.199,11.199,22.36,11,22.36z M5.36,21.64h5.28v-5.28H5.36V21.64z M3,22.36H1v-0.72h1.64
	v-5.28H1v-0.72h2c0.199,0,0.36,0.161,0.36,0.36v6C3.36,22.199,3.199,22.36,3,22.36z M24,20.36c-0.75,0-1.36-0.61-1.36-1.36
	s0.61-1.36,1.36-1.36s1.36,0.61,1.36,1.36S24.75,20.36,24,20.36z M24,18.36c-0.353,0-0.64,0.287-0.64,0.64s0.287,0.64,0.64,0.64
	s0.64-0.287,0.64-0.64S24.353,18.36,24,18.36z M16,20.36c-0.75,0-1.36-0.61-1.36-1.36s0.61-1.36,1.36-1.36s1.36,0.61,1.36,1.36
	S16.75,20.36,16,20.36z M16,18.36c-0.353,0-0.64,0.287-0.64,0.64s0.287,0.64,0.64,0.64s0.64-0.287,0.64-0.64S16.353,18.36,16,18.36z
	 M8,20.36c-0.75,0-1.36-0.61-1.36-1.36S7.25,17.64,8,17.64S9.36,18.25,9.36,19S8.75,20.36,8,20.36z M8,18.36
	c-0.353,0-0.64,0.287-0.64,0.64S7.647,19.64,8,19.64c0.353,0,0.64-0.287,0.64-0.64S8.353,18.36,8,18.36z M31,15.36h-2
	c-0.199,0-0.36-0.161-0.36-0.36V9c0-0.199,0.161-0.36,0.36-0.36h0.64V6.6c0-0.199,0.161-0.36,0.36-0.36h0.64V5.36h-6.28v1.275H26
	c0.199,0,0.36,0.161,0.36,0.36V8.64H27c0.199,0,0.36,0.161,0.36,0.36v6c0,0.199-0.161,0.36-0.36,0.36h-6
	c-0.199,0-0.36-0.161-0.36-0.36V9c0-0.199,0.161-0.36,0.36-0.36h0.64V6.995c0-0.199,0.161-0.36,0.36-0.36h1.64V5.36h-7.28v1.275H18
	c0.199,0,0.36,0.161,0.36,0.36V8.64H19c0.199,0,0.36,0.161,0.36,0.36v6c0,0.199-0.161,0.36-0.36,0.36h-6
	c-0.199,0-0.36-0.161-0.36-0.36V9c0-0.199,0.161-0.36,0.36-0.36h0.64V6.995c0-0.199,0.161-0.36,0.36-0.36h1.64V5.36H8.36v1.275H10
	c0.199,0,0.36,0.161,0.36,0.36V8.64H11c0.199,0,0.36,0.161,0.36,0.36v6c0,0.199-0.161,0.36-0.36,0.36H5
	c-0.199,0-0.36-0.161-0.36-0.36V9c0-0.199,0.161-0.36,0.36-0.36h0.64V6.995c0-0.199,0.161-0.36,0.36-0.36h1.64V5.36H1.36v0.88H2
	c0.199,0,0.36,0.161,0.36,0.36v2.04H3c0.199,0,0.36,0.161,0.36,0.36v6c0,0.199-0.161,0.36-0.36,0.36H1v-0.72h1.64V9.36H1V8.64h0.64
	V6.96H1c-0.199,0-0.36-0.161-0.36-0.36V3c0-0.199,0.161-0.36,0.36-0.36h30c0.199,0,0.36,0.161,0.36,0.36v3.6
	c0,0.199-0.161,0.36-0.36,0.36h-0.64v1.68H31v0.72h-1.64v5.28H31V15.36z M21.36,14.64h5.279V9.36H21.36V14.64z M13.36,14.64h5.28
	V9.36h-5.28C13.36,9.36,13.36,14.64,13.36,14.64z M5.36,14.64h5.28V9.36H5.36V14.64z M22.36,8.64h3.279V7.354H22.36V8.64z
	 M14.36,8.64h3.28V7.354h-3.28V8.64z M6.36,8.64h3.28V7.354H6.36V8.64z M1.36,4.64h29.28V3.36H1.36V4.64z M24,13.36
	c-0.75,0-1.36-0.61-1.36-1.36s0.61-1.36,1.36-1.36s1.36,0.61,1.36,1.36S24.75,13.36,24,13.36z M24,11.36
	c-0.353,0-0.64,0.287-0.64,0.64s0.287,0.64,0.64,0.64s0.64-0.287,0.64-0.64S24.353,11.36,24,11.36z M16,13.36
	c-0.75,0-1.36-0.61-1.36-1.36s0.61-1.36,1.36-1.36s1.36,0.61,1.36,1.36S16.75,13.36,16,13.36z M16,11.36
	c-0.353,0-0.64,0.287-0.64,0.64s0.287,0.64,0.64,0.64s0.64-0.287,0.64-0.64S16.353,11.36,16,11.36z M8,13.36
	c-0.75,0-1.36-0.61-1.36-1.36S7.25,10.64,8,10.64S9.36,11.25,9.36,12S8.75,13.36,8,13.36z M8,11.36c-0.353,0-0.64,0.287-0.64,0.64
	S7.647,12.64,8,12.64c0.353,0,0.64-0.287,0.64-0.64S8.353,11.36,8,11.36z"/>
<rect id="_Transparent_Rectangle" style="fill:none;" width="32" height="32"/>
</svg>
