<?xml version="1.0" encoding="iso-8859-1"?>
<!-- Generator: Adobe Illustrator 29.1.0, SVG Export Plug-In . SVG Version: 9.03 Build 55587)  -->
<svg version="1.1" id="Layer_1" xmlns="http://www.w3.org/2000/svg" xmlns:xlink="http://www.w3.org/1999/xlink" x="0px" y="0px"
	 viewBox="0 0 32 32" style="enable-background:new 0 0 32 32;" xml:space="preserve">
<path id="f1--steering-wheel_00000052826458701027793580000012215310664184261530_" d="M28.75,26.36
	c-0.998,0-1.928-0.807-2.104-1.797l-0.293-3.151c-0.032-0.173-0.208-0.265-0.36-0.281c-0.161-0.022-0.365,0.034-0.453,0.238
	l-0.705,1.765c-0.59,1.377-1.543,2.019-3.292,2.224c-3.393,0.396-6.691,0.396-10.083,0l0,0c-1.604-0.188-3.65-0.725-4.289-2.216
	l-0.711-1.78c-0.083-0.196-0.288-0.253-0.45-0.23c-0.152,0.017-0.328,0.108-0.364,0.312l-0.285,3.091
	c-0.177,1-1.086,1.793-2.047,1.826c-0.014,0-0.03,0.001-0.045,0.001c-0.013,0-0.026-0.001-0.039-0.001
	c-1.08-0.027-2.01-0.839-2.086-1.832l-0.458-6.781c-0.26-3.405,0.627-6.737,2.567-9.633l0.738-1.101
	C4.983,5.527,6.669,4.64,8.5,4.64h15c1.83,0,3.518,0.887,4.512,2.372l0.738,1.101c1.939,2.896,2.827,6.228,2.566,9.636l-0.457,6.775
	C30.78,25.555,29.854,26.36,28.75,26.36z M25.933,20.407c0.046,0,0.094,0.002,0.142,0.008c0.515,0.059,0.903,0.412,0.991,0.9
	l0.293,3.151c0.1,0.551,0.672,1.173,1.358,1.173c0.751,0,1.375-0.523,1.424-1.167l0.457-6.775c0.249-3.25-0.597-6.424-2.445-9.184
	l-0.738-1.101C26.553,6.127,25.09,5.36,23.5,5.36h-15c-1.59,0-3.053,0.768-3.914,2.053L3.848,8.514
	c-1.849,2.761-2.695,5.935-2.447,9.181l0.458,6.781c0.048,0.636,0.677,1.155,1.406,1.164c0.625-0.009,1.267-0.567,1.38-1.203
	l0.285-3.091c0.091-0.518,0.48-0.871,0.995-0.931c0.52-0.05,1,0.211,1.198,0.671l0.711,1.78c0.526,1.229,2.549,1.641,3.708,1.776
	c3.336,0.389,6.58,0.389,9.916,0c1.494-0.175,2.229-0.658,2.711-1.784l0.705-1.765C25.057,20.668,25.47,20.407,25.933,20.407z
	 M16,23.36c-0.75,0-1.36-0.61-1.36-1.36s0.61-1.36,1.36-1.36s1.36,0.61,1.36,1.36S16.75,23.36,16,23.36z M16,21.36
	c-0.353,0-0.64,0.287-0.64,0.64s0.287,0.64,0.64,0.64s0.64-0.287,0.64-0.64S16.353,21.36,16,21.36z M22,22.36
	c-0.75,0-1.36-0.61-1.36-1.36s0.61-1.36,1.36-1.36s1.36,0.61,1.36,1.36S22.75,22.36,22,22.36z M22,20.36
	c-0.353,0-0.64,0.287-0.64,0.64s0.287,0.64,0.64,0.64s0.64-0.287,0.64-0.64S22.353,20.36,22,20.36z M10,22.36
	c-0.75,0-1.36-0.61-1.36-1.36s0.61-1.36,1.36-1.36s1.36,0.61,1.36,1.36S10.75,22.36,10,22.36z M10,20.36
	c-0.353,0-0.64,0.287-0.64,0.64s0.287,0.64,0.64,0.64s0.64-0.287,0.64-0.64S10.353,20.36,10,20.36z M16,19.36
	c-1.301,0-2.36-1.059-2.36-2.36s1.059-2.36,2.36-2.36c1.302,0,2.36,1.059,2.36,2.36C18.36,18.302,17.302,19.36,16,19.36z M16,15.36
	c-0.904,0-1.64,0.736-1.64,1.64s0.736,1.64,1.64,1.64c0.904,0,1.64-0.735,1.64-1.64S16.904,15.36,16,15.36z M21,18.36
	c-0.75,0-1.36-0.61-1.36-1.36s0.61-1.36,1.36-1.36s1.36,0.61,1.36,1.36S21.75,18.36,21,18.36z M21,16.36
	c-0.353,0-0.64,0.287-0.64,0.64c0,0.353,0.287,0.64,0.64,0.64s0.64-0.287,0.64-0.64C21.64,16.647,21.353,16.36,21,16.36z M11,18.36
	c-0.75,0-1.36-0.61-1.36-1.36s0.61-1.36,1.36-1.36s1.36,0.61,1.36,1.36S11.75,18.36,11,18.36z M11,16.36
	c-0.353,0-0.64,0.287-0.64,0.64c0,0.353,0.287,0.64,0.64,0.64s0.64-0.287,0.64-0.64C11.64,16.647,11.353,16.36,11,16.36z
	 M5.85,17.36c-0.384,0-0.763-0.102-1.104-0.301c-1.055-0.614-1.418-1.979-0.81-3.043l1.293-2.26
	c0.296-0.518,0.775-0.888,1.349-1.041c0.57-0.152,1.165-0.072,1.676,0.225c1.055,0.614,1.418,1.98,0.81,3.043l-1.293,2.26l0,0
	c-0.296,0.518-0.775,0.888-1.349,1.042C6.232,17.336,6.041,17.36,5.85,17.36z M7.149,11.36c-0.128,0-0.257,0.017-0.384,0.051
	c-0.387,0.104-0.71,0.353-0.91,0.703l-1.293,2.26c-0.413,0.722-0.168,1.647,0.547,2.064c0.345,0.2,0.745,0.255,1.127,0.151
	c0.387-0.104,0.71-0.353,0.91-0.703l1.293-2.26c0.413-0.722,0.168-1.647-0.547-2.064C7.662,11.428,7.407,11.36,7.149,11.36z
	 M26.15,17.36c-0.191,0-0.383-0.024-0.572-0.075c-0.573-0.154-1.052-0.523-1.349-1.042l-1.293-2.26
	c-0.608-1.063-0.246-2.429,0.809-3.043c0.512-0.297,1.108-0.376,1.677-0.225c0.573,0.153,1.052,0.523,1.349,1.041l1.293,2.26
	c0.608,1.063,0.246,2.429-0.809,3.044l0,0C26.913,17.259,26.534,17.36,26.15,17.36z M24.852,11.36c-0.259,0-0.514,0.068-0.743,0.202
	c-0.715,0.417-0.96,1.342-0.547,2.064l1.293,2.26c0.2,0.35,0.523,0.6,0.91,0.703c0.385,0.104,0.784,0.049,1.127-0.151
	c0.715-0.417,0.96-1.342,0.547-2.064l-1.293-2.26c-0.2-0.35-0.523-0.6-0.91-0.703C25.108,11.376,24.979,11.36,24.852,11.36z
	 M21,13.36H11c-0.199,0-0.36-0.161-0.36-0.36V7c0-0.199,0.161-0.36,0.36-0.36h10c0.199,0,0.36,0.161,0.36,0.36v6
	C21.36,13.199,21.199,13.36,21,13.36z M11.36,12.64h9.28V7.36h-9.28V12.64z M24,9.36c-0.75,0-1.36-0.61-1.36-1.36
	S23.25,6.64,24,6.64S25.36,7.25,25.36,8S24.75,9.36,24,9.36z M24,7.36c-0.353,0-0.64,0.287-0.64,0.64S23.647,8.64,24,8.64
	S24.64,8.353,24.64,8S24.353,7.36,24,7.36z M7,9.36C6.25,9.36,5.64,8.75,5.64,8S6.25,6.64,7,6.64S8.36,7.25,8.36,8S7.75,9.36,7,9.36
	z M7,7.36C6.647,7.36,6.36,7.647,6.36,8c0,0.353,0.287,0.64,0.64,0.64S7.64,8.353,7.64,8S7.353,7.36,7,7.36z"/>
<rect id="_Transparent_Rectangle" style="fill:none;" width="32" height="32"/>
</svg>
