<?xml version="1.0" encoding="iso-8859-1"?>
<!-- Generator: Adobe Illustrator 22.0.0, SVG Export Plug-In . SVG Version: 6.00 Build 0)  -->
<svg version="1.1" xmlns="http://www.w3.org/2000/svg" xmlns:xlink="http://www.w3.org/1999/xlink" x="0px" y="0px"
	 viewBox="0 0 48 48" style="enable-background:new 0 0 48 48;" xml:space="preserve">
<g id="face_dissatisfied">
	<g id="face_dissatisfied_1_">
		<path d="M18.75,21c0,0.414-0.336,0.75-0.75,0.75s-0.75-0.336-0.75-0.75s0.336-0.75,0.75-0.75S18.75,20.586,18.75,21z M30,20.25
			c-0.414,0-0.75,0.336-0.75,0.75s0.336,0.75,0.75,0.75s0.75-0.336,0.75-0.75S30.414,20.25,30,20.25z"/>
		<path style="fill:none;stroke:#000000;stroke-width:0.72;stroke-miterlimit:10;" d="M18,31c0,0,2-3,6-3s6,3,6,3 M24,9
			C15.716,9,9,15.716,9,24s6.716,15,15,15s15-6.716,15-15S32.284,9,24,9z"/>
	</g>
</g>
<g id="Layer_1">
</g>
</svg>
