<?xml version="1.0" encoding="iso-8859-1"?>
<!-- Generator: Adobe Illustrator 24.1.2, SVG Export Plug-In . SVG Version: 6.00 Build 0)  -->
<svg version="1.1" id="Layer_1" xmlns="http://www.w3.org/2000/svg" xmlns:xlink="http://www.w3.org/1999/xlink" x="0px" y="0px"
	 viewBox="0 0 32 32" style="enable-background:new 0 0 32 32;" xml:space="preserve">
<path id="face--very--satisfied_1_" d="M10.75,13c0,0.414-0.336,0.75-0.75,0.75S9.25,13.414,9.25,13s0.336-0.75,0.75-0.75
	S10.75,12.586,10.75,13z M22,12.25c-0.414,0-0.75,0.336-0.75,0.75s0.336,0.75,0.75,0.75s0.75-0.336,0.75-0.75S22.414,12.25,22,12.25
	z M16,31.36C7.53,31.36,0.64,24.47,0.64,16S7.53,0.64,16,0.64S31.36,7.53,31.36,16S24.47,31.36,16,31.36z M16,1.36
	C7.927,1.36,1.36,7.927,1.36,16c0,8.072,6.567,14.64,14.64,14.64c8.072,0,14.64-6.567,14.64-14.64S24.072,1.36,16,1.36z M16,24.36
	c-3.507,0-6.36-2.854-6.36-6.36h0.72c0,3.11,2.53,5.64,5.64,5.64s5.64-2.529,5.64-5.64h0.721C22.36,21.507,19.507,24.36,16,24.36z"
	/>
<rect id="_Transparent_Rectangle" style="fill:none;" width="32" height="32"/>
</svg>
