<?xml version="1.0" encoding="iso-8859-1"?>
<!-- Generator: Adobe Illustrator 24.1.2, SVG Export Plug-In . SVG Version: 6.00 Build 0)  -->
<svg version="1.1" id="Layer_1" xmlns="http://www.w3.org/2000/svg" xmlns:xlink="http://www.w3.org/1999/xlink" x="0px" y="0px"
	 viewBox="0 0 32 32" style="enable-background:new 0 0 32 32;" xml:space="preserve">
<path id="factory_1_" d="M2.5,3.36C1.266,3.36,0.64,2.566,0.64,1c0-0.199,0.161-0.36,0.36-0.36S1.36,0.801,1.36,1
	c0,1.441,0.548,1.64,1.14,1.64c1.078,0,1.86,0.992,1.86,2.36c0,0.199-0.161,0.36-0.36,0.36S3.64,5.199,3.64,5
	C3.64,4.185,3.249,3.36,2.5,3.36z M3.5,1.36c1.3,0,2.14,0.84,2.14,2.14c0,0.199,0.161,0.36,0.36,0.36S6.36,3.699,6.36,3.5
	c0-1.71-1.149-2.859-2.86-2.859c-0.199,0-0.36,0.161-0.36,0.36S3.301,1.36,3.5,1.36z M10,19.64c-0.199,0-0.36,0.161-0.36,0.36v2
	c0,0.199,0.161,0.36,0.36,0.36s0.36-0.161,0.36-0.36v-2C10.36,19.801,10.199,19.64,10,19.64z M31.36,23.194V31
	c0,0.199-0.161,0.36-0.36,0.36H2c-0.199,0-0.36-0.161-0.36-0.36V6c0-0.199,0.161-0.36,0.36-0.36h4c0.199,0,0.36,0.161,0.36,0.36
	v10.356l5.952-3.663c0.111-0.069,0.251-0.071,0.364-0.008C12.79,12.75,12.86,12.87,12.86,13v3.38l6.461-3.692
	c0.112-0.064,0.248-0.063,0.359,0.001s0.18,0.183,0.18,0.312v3.356l5.951-3.663c0.11-0.069,0.251-0.071,0.364-0.008
	C26.289,12.75,26.36,12.87,26.36,13v6.64h1.474c0.476,0,1.68,0.098,2.583,1.003C31.045,21.272,31.362,22.131,31.36,23.194z
	 M26.36,21.64h1.375c0.896,0,1.625,0.72,1.625,1.604v7.396h1.279v-7.446c0.002-0.866-0.244-1.553-0.732-2.042
	c-0.494-0.495-1.27-0.791-2.073-0.791H26.36V21.64z M26.36,22.36v8.279h2.279v-7.396c0-0.487-0.405-0.884-0.904-0.884H26.36V22.36z
	 M2.36,6.36v6.28h3.28V6.36H2.36z M5.64,30.64V13.36H2.36v17.28H5.64z M6.36,30.64h7.28V25c0-0.199,0.161-0.36,0.36-0.36h4
	c0.199,0,0.36,0.161,0.36,0.36v5.64h7.279V13.644l-5.951,3.663c-0.11,0.067-0.25,0.071-0.364,0.008
	C19.211,17.251,19.14,17.131,19.14,17v-3.38l-6.461,3.692c-0.112,0.062-0.248,0.063-0.359-0.001c-0.112-0.064-0.18-0.183-0.18-0.311
	v-3.356l-5.78,3.557V30.64z M17.64,25.36h-3.28v5.279h3.28V25.36z M14,22.36c0.199,0,0.36-0.161,0.36-0.36v-2
	c0-0.199-0.161-0.36-0.36-0.36s-0.36,0.161-0.36,0.36v2C13.64,22.199,13.801,22.36,14,22.36z M18,22.36
	c0.199,0,0.36-0.161,0.36-0.36v-2c0-0.199-0.161-0.36-0.36-0.36s-0.36,0.161-0.36,0.36v2C17.64,22.199,17.801,22.36,18,22.36z
	 M22,22.36c0.199,0,0.36-0.161,0.36-0.36v-2c0-0.199-0.161-0.36-0.36-0.36s-0.36,0.161-0.36,0.36v2
	C21.64,22.199,21.801,22.36,22,22.36z"/>
<rect id="_Transparent_Rectangle" style="fill:none;" width="32" height="32"/>
</svg>
