<?xml version="1.0" encoding="iso-8859-1"?>
<!-- Generator: Adobe Illustrator 24.1.2, SVG Export Plug-In . SVG Version: 6.00 Build 0)  -->
<svg version="1.1" id="Layer_1" xmlns="http://www.w3.org/2000/svg" xmlns:xlink="http://www.w3.org/1999/xlink" x="0px" y="0px"
	 viewBox="0 0 32 32" style="enable-background:new 0 0 32 32;" xml:space="preserve">
<path id="farm--02_1_" d="M12.36,30h-0.72c0-1.302,1.059-2.36,2.36-2.36h16v0.721H14C13.096,28.36,12.36,29.096,12.36,30z M10.36,30
	H9.64c0-2.404,1.956-4.36,4.36-4.36h16v0.721H14C11.993,26.36,10.36,27.993,10.36,30z M8.36,30H7.64c0-3.507,2.853-6.36,6.36-6.36
	h16v0.721H14C10.89,24.36,8.36,26.89,8.36,30z M6.36,30H5.64c0-1.304,0.3-2.539,0.834-3.64H2v-0.72h4.869
	c0.281-0.457,0.604-0.886,0.965-1.279H2V23.64h6.58c0.607-0.518,1.289-0.95,2.027-1.279H2V21.64h0.64v-7.147
	c0-0.893,0.228-1.766,0.66-2.524c0.475-0.832,1.297-1.329,2.2-1.329s1.725,0.497,2.2,1.329c0.432,0.758,0.66,1.631,0.66,2.524v1.031
	c0.557-0.343,1.231-0.507,1.913-0.462c0.947,0.068,1.783,0.537,2.292,1.287l0,0c0.52,0.765,0.794,1.646,0.794,2.548v2.769
	c0.211-0.016,0.425-0.024,0.64-0.024h4.64v-5.271l-1.385,1.386l-0.509-0.51l6.5-6.5c0.141-0.141,0.369-0.141,0.51,0l6.5,6.5
	l-0.51,0.51l-1.385-1.386v5.271H30v0.721H14C9.787,22.36,6.36,25.787,6.36,30z M25.36,21.64h2.279v-5.991l-4.14-4.14l-4.14,4.14
	v5.991h2.279V18.5c0-0.199,0.161-0.36,0.36-0.36h3c0.199,0,0.36,0.161,0.36,0.36v3.14H25.36z M22.36,21.64h2.279v-2.78H22.36V21.64z
	 M10.36,21.64h2.28v-2.744c0-0.757-0.232-1.498-0.67-2.143l0,0c-0.386-0.566-1.023-0.921-1.75-0.974
	c-0.743-0.053-1.479,0.225-1.955,0.746c-0.101,0.11-0.258,0.146-0.396,0.092C7.731,16.563,7.64,16.43,7.64,16.282v-1.789
	c0-0.768-0.196-1.518-0.566-2.167C6.729,11.721,6.141,11.36,5.5,11.36s-1.229,0.361-1.574,0.965
	c-0.371,0.65-0.566,1.399-0.566,2.167v7.147h1.28V14h0.72v7.64h4.28V18h0.72C10.36,18,10.36,21.64,10.36,21.64z M24,15.86h-1
	c-0.199,0-0.36-0.161-0.36-0.36v-2c0-0.199,0.161-0.36,0.36-0.36h1c0.199,0,0.36,0.161,0.36,0.36v2
	C24.36,15.699,24.199,15.86,24,15.86z M23.36,15.14h0.279v-1.28H23.36V15.14z M26.86,9h-0.72V8h0.721L26.86,9L26.86,9z M28.72,8.229
	l-0.707-0.708l0.51-0.509L29.23,7.72L28.72,8.229z M24.28,8.229L23.77,7.72l0.707-0.708l0.51,0.509L24.28,8.229z M26.5,7.36
	c-1.025,0-1.86-0.834-1.86-1.86s0.835-1.86,1.86-1.86s1.86,0.834,1.86,1.86S27.525,7.36,26.5,7.36z M26.5,4.36
	c-0.629,0-1.14,0.512-1.14,1.14s0.511,1.14,1.14,1.14s1.14-0.512,1.14-1.14S27.129,4.36,26.5,4.36z M30,5.86h-1V5.14h1V5.86z
	 M24,5.86h-1V5.14h1V5.86z M14,4.36h-3V3.64h3V4.36z M9,4.36H2V3.64h7V4.36z M28.522,3.987l-0.51-0.509l0.707-0.708l0.51,0.509
	L28.522,3.987z M24.478,3.987l-0.707-0.708l0.51-0.509l0.707,0.708L24.478,3.987z M26.86,3h-0.72V2h0.721L26.86,3L26.86,3z M15,2.36
	H2V1.64h13V2.36z"/>
<rect id="_Transparent_Rectangle" style="fill:none;" width="32" height="32"/>
</svg>
