<?xml version="1.0" encoding="iso-8859-1"?>
<!-- Generator: Adobe Illustrator 24.1.2, SVG Export Plug-In . SVG Version: 6.00 Build 0)  -->
<svg version="1.1" xmlns="http://www.w3.org/2000/svg" xmlns:xlink="http://www.w3.org/1999/xlink" x="0px" y="0px"
	 viewBox="0 0 48 48" style="enable-background:new 0 0 48 48;" xml:space="preserve">
<g id="farmer--02">
	<path id="farmer--02_1_" style="fill:none;stroke:#000000;stroke-width:0.72;stroke-linejoin:round;stroke-miterlimit:10;" d="
		M13,29v-7 M21,29v-7 M20.973,29h8.015 M29,38V14 M26.001,14.002V18c0,1.09,0.909,2,1.999,2h2c1.09,0,2-0.91,2-2v-3.998 M30.947,20
		 M14.997,19c0,1.381-0.377,3,2.003,3c2.392,0,1.974-1.619,1.974-3 M29,27h-6v-4.5c0-1.84-0.66-3.5-2.5-3.5h-7
		c-1.889,0-2.5,1.611-2.5,3.5V34c0,0.423,0.263,0.785,0.634,0.931 M23,38l-2-9h-8l-2,9 M12,13h10 M20,13c0,1.381,0.008,4-3,4
		c-2.992,0-3-2.619-3-4 M14,13c0-2,0.008-3,3-3c3.008,0,3,1,3,3"/>
</g>
<g id="Layer_1">
</g>
</svg>
