<?xml version="1.0" encoding="iso-8859-1"?>
<!-- Generator: Adobe Illustrator 24.1.2, SVG Export Plug-In . SVG Version: 6.00 Build 0)  -->
<svg version="1.1" id="Layer_1" xmlns="http://www.w3.org/2000/svg" xmlns:xlink="http://www.w3.org/1999/xlink" x="0px" y="0px"
	 viewBox="0 0 32 32" style="enable-background:new 0 0 32 32;" xml:space="preserve">
<path id="farmer--01_1_" d="M23.36,30h-0.72v-8.64h-7.28V30h-0.72V17.36H5.36V30H4.64v-2.64H4c-0.75,0-1.36-0.61-1.36-1.36V14.5
	c0-2.092,1.768-3.86,3.86-3.86h7c2.056,0,3.86,1.804,3.86,3.86v4.14h5.279v-6.28H20c-0.199,0-0.36-0.161-0.36-0.36V6
	c0-0.056,0.014-0.111,0.038-0.161C19.723,5.749,20.803,3.64,23,3.64s3.277,2.109,3.322,2.199C26.347,5.889,26.36,5.944,26.36,6v6
	c0,0.199-0.161,0.36-0.36,0.36h-2.64V30z M6.5,11.36c-1.702,0-3.14,1.438-3.14,3.14V26c0,0.353,0.287,0.64,0.64,0.64h0.64V13h0.72
	v3.64h2.28v-5.28C7.64,11.36,6.5,11.36,6.5,11.36z M15.36,20.64h7.28v-1.28H17c-0.199,0-0.36-0.161-0.36-0.36v-4.5
	c0-1.644-1.497-3.14-3.14-3.14h-1.14v5.28h2.28V13h0.72C15.36,13,15.36,20.64,15.36,20.64z M8.36,16.64h3.28v-5.28H8.36V16.64z
	 M20.36,11.64h5.279V6.092C25.449,5.761,24.549,4.36,23,4.36s-2.449,1.401-2.64,1.732V11.64z M13,24.36H7
	c-0.199,0-0.36-0.161-0.36-0.36v-5c0-0.199,0.161-0.36,0.36-0.36h6c0.199,0,0.36,0.161,0.36,0.36v5
	C13.36,24.199,13.199,24.36,13,24.36z M7.36,23.64h5.28v-4.28H7.36V23.64z M10,9.36c-3.08,0-3.336-2.567-3.358-4H5V4.64h1.642
	c0.024-1.973,0.327-3,3.358-3c1.571,0,2.442,0.266,2.913,0.889c0.397,0.526,0.442,1.232,0.447,2.111H15v0.72h-1.642
	c-0.008,0.684-0.062,1.559-0.406,2.313C12.443,8.792,11.45,9.36,10,9.36z M7.363,5.36C7.398,7.008,7.729,8.64,10,8.64
	c1.159,0,1.91-0.414,2.297-1.265c0.287-0.631,0.333-1.387,0.341-2.015C12.638,5.36,7.363,5.36,7.363,5.36z M7.361,4.64h5.278
	c-0.004-0.764-0.038-1.327-0.302-1.677C12.023,2.546,11.302,2.36,10,2.36C7.527,2.36,7.371,2.943,7.361,4.64z"/>
<rect id="_Transparent_Rectangle" style="fill:none;" width="32" height="32"/>
</svg>
