<?xml version="1.0" encoding="iso-8859-1"?>
<!-- Generator: Adobe Illustrator 24.1.2, SVG Export Plug-In . SVG Version: 6.00 Build 0)  -->
<svg version="1.1" id="Layer_1" xmlns="http://www.w3.org/2000/svg" xmlns:xlink="http://www.w3.org/1999/xlink" x="0px" y="0px"
	 viewBox="0 0 32 32" style="enable-background:new 0 0 32 32;" xml:space="preserve">
<path id="farm--01_1_" d="M10.36,15.663v-5.339c1.13-0.175,2-1.145,2-2.323c0-1.301-1.059-2.36-2.36-2.36S7.64,6.699,7.64,8
	c0,1.178,0.87,2.149,2,2.323v5.325c-0.152-0.002-0.3-0.009-0.454-0.009H4.36V9.323c1.13-0.175,2-1.145,2-2.323
	c0-1.301-1.059-2.36-2.36-2.36S1.64,5.699,1.64,7c0,1.178,0.87,2.149,2,2.323v6.317H1v0.72h2.998c0.001,0,0.002,0,0.002,0h0.002
	h5.184c7.144,0,12.248,2.123,16.546,6.881l0.535-0.482C22.06,18.102,17.116,15.889,10.36,15.663z M2.36,7
	c0-0.904,0.736-1.64,1.64-1.64S5.64,6.096,5.64,7S4.904,8.64,4,8.64S2.36,7.904,2.36,7z M8.36,8c0-0.904,0.736-1.64,1.64-1.64
	S11.64,7.096,11.64,8S10.904,9.64,10,9.64S8.36,8.904,8.36,8z M26.268,30.759l-0.535,0.482c-4.299-4.759-9.402-6.881-16.546-6.881H1
	v-0.72h8.186C16.551,23.64,21.819,25.836,26.268,30.759z M26.268,26.759l-0.535,0.482c-4.299-4.759-9.402-6.881-16.546-6.881H1
	v-0.72h8.186C16.551,19.64,21.819,21.836,26.268,26.759z M24,11.36c-1.853,0-3.36-1.507-3.36-3.36S22.147,4.64,24,4.64
	S27.36,6.147,27.36,8S25.853,11.36,24,11.36z M24,5.36c-1.456,0-2.64,1.185-2.64,2.64s1.184,2.64,2.64,2.64S26.64,9.456,26.64,8
	S25.456,5.36,24,5.36z M24,3.36c-0.199,0-0.36-0.161-0.36-0.36V1c0-0.199,0.161-0.36,0.36-0.36S24.36,0.801,24.36,1v2
	C24.36,3.199,24.199,3.36,24,3.36z M20.465,4.824c-0.092,0-0.185-0.035-0.255-0.105l-1.415-1.414c-0.141-0.141-0.141-0.369,0-0.509
	s0.369-0.14,0.51,0L20.72,4.21c0.141,0.141,0.141,0.369,0,0.509C20.649,4.789,20.557,4.824,20.465,4.824z M19,8.36h-2
	c-0.199,0-0.36-0.161-0.36-0.36S16.801,7.64,17,7.64h2c0.199,0,0.36,0.161,0.36,0.36S19.199,8.36,19,8.36z M19.05,13.31
	c-0.092,0-0.185-0.035-0.255-0.105c-0.141-0.141-0.141-0.369,0-0.509l1.415-1.414c0.141-0.14,0.369-0.14,0.51,0s0.141,0.369,0,0.509
	l-1.415,1.414C19.234,13.274,19.142,13.31,19.05,13.31z M24,15.36c-0.199,0-0.36-0.161-0.36-0.36v-2c0-0.199,0.161-0.36,0.36-0.36
	s0.36,0.161,0.36,0.36v2C24.36,15.199,24.199,15.36,24,15.36z M28.95,13.31c-0.092,0-0.185-0.035-0.255-0.105l-1.415-1.414
	c-0.141-0.141-0.141-0.369,0-0.509s0.369-0.14,0.51,0l1.415,1.414c0.141,0.141,0.141,0.369,0,0.509
	C29.135,13.274,29.042,13.31,28.95,13.31z M31,8.36h-2c-0.199,0-0.36-0.161-0.36-0.36S28.801,7.64,29,7.64h2
	c0.199,0,0.36,0.161,0.36,0.36S31.199,8.36,31,8.36z M27.535,4.824c-0.092,0-0.185-0.035-0.255-0.105
	c-0.141-0.141-0.141-0.369,0-0.509l1.415-1.414c0.141-0.14,0.369-0.14,0.51,0s0.141,0.369,0,0.509L27.79,4.719
	C27.72,4.789,27.627,4.824,27.535,4.824z"/>
<rect id="_Transparent_Rectangle" style="fill:none;" width="32" height="32"/>
</svg>
