<?xml version="1.0" encoding="iso-8859-1"?>
<!-- Generator: Adobe Illustrator 24.1.2, SVG Export Plug-In . SVG Version: 6.00 Build 0)  -->
<svg version="1.1" xmlns="http://www.w3.org/2000/svg" xmlns:xlink="http://www.w3.org/1999/xlink" x="0px" y="0px"
	 viewBox="0 0 48 48" style="enable-background:new 0 0 48 48;" xml:space="preserve">
<g id="farm--01">
	<g id="farm--01_1_">
		<path style="fill:none;stroke:#000000;stroke-width:0.72;stroke-miterlimit:10;" d="M9,32h8.186C25.343,32,30.178,34.77,34,39
			 M34,35c-3.821-4.229-8.656-7-16.814-7H9 M34,31c-3.821-4.229-8.656-7-16.814-7H9"/>
		<path id="Industry_11_1_" style="fill:none;stroke:#000000;stroke-width:0.72;stroke-linecap:round;stroke-miterlimit:10;" d="
			M12,17v7 M18,18v6 M12,13c-1.105,0-2,0.895-2,2s0.895,2,2,2s2-0.895,2-2S13.104,13,12,13z M18,14c-1.105,0-2,0.895-2,2
			s0.895,2,2,2c1.105,0,2-0.895,2-2S19.104,14,18,14z M32,13c-1.657,0-3,1.343-3,3s1.343,3,3,3c1.657,0,3-1.343,3-3S33.657,13,32,13
			z M32,9v2 M27.05,11.05l1.414,1.414 M25,16h2 M27.05,20.949l1.414-1.414 M32,23v-2 M36.949,20.949l-1.414-1.414 M39,16h-2
			 M36.949,11.05l-1.414,1.414"/>
	</g>
</g>
<g id="Layer_1">
</g>
</svg>
