<?xml version="1.0" encoding="iso-8859-1"?>
<!-- Generator: Adobe Illustrator 24.1.2, SVG Export Plug-In . SVG Version: 6.00 Build 0)  -->
<svg version="1.1" id="Layer_1" xmlns="http://www.w3.org/2000/svg" xmlns:xlink="http://www.w3.org/1999/xlink" x="0px" y="0px"
	 viewBox="0 0 32 32" style="enable-background:new 0 0 32 32;" xml:space="preserve">
<path id="faucet_1_" d="M4.503,31.36c-0.243,0-0.485-0.048-0.717-0.144c-0.464-0.192-0.824-0.554-1.014-1.016
	c-0.188-0.458-0.185-0.961,0.008-1.416l1.385-3.342c0.056-0.135,0.187-0.223,0.333-0.223l0,0c0.146,0,0.277,0.088,0.333,0.223
	l1.385,3.344c0.194,0.469,0.193,0.977-0.003,1.429c-0.182,0.45-0.535,0.808-0.991,0.999C4.991,31.312,4.747,31.36,4.503,31.36z
	 M4.498,26.521l-1.053,2.541c0,0.001,0,0.002-0.001,0.003c-0.118,0.277-0.119,0.583-0.005,0.862
	c0.116,0.284,0.337,0.505,0.623,0.623c0.286,0.119,0.599,0.119,0.882,0c0.278-0.116,0.493-0.334,0.605-0.613
	c0.122-0.28,0.121-0.588,0.002-0.875L4.498,26.521z M31.36,31h-0.72V16.358H15.39c-3.876,0-7.029,3.428-7.029,7.642
	c0,0.199-0.161,0.36-0.36,0.36H1c-0.199,0-0.36-0.161-0.36-0.36c0-7.784,6.421-14.36,14.021-14.36h3.979V6.119
	c-0.603-0.065-1.159-0.327-1.604-0.757h-3.6c-1.007,0-1.796-0.817-1.796-1.86s0.789-1.86,1.796-1.86h3.385
	c0.521-0.631,1.298-1.002,2.115-1.002s1.594,0.371,2.115,1.002h3.512c1.008,0,1.797,0.817,1.797,1.86s-0.789,1.86-1.797,1.86h-3.727
	c-0.412,0.4-0.922,0.655-1.477,0.741V9.64H30.64V1h0.721L31.36,31L31.36,31z M1.365,23.64h6.282
	c0.176-4.444,3.581-8.001,7.742-8.001h15.25V10.36H14.661C7.569,10.36,1.559,16.405,1.365,23.64z M13.437,2.362
	c-0.614,0-1.077,0.49-1.077,1.14s0.463,1.14,1.077,1.14h3.751c0.101,0,0.196,0.042,0.265,0.116c0.783,0.848,2.188,0.848,2.969,0
	c0.068-0.074,0.164-0.116,0.265-0.116h3.878c0.613,0,1.076-0.49,1.076-1.14s-0.463-1.14-1.076-1.14h-3.688
	c-0.116,0-0.225-0.056-0.293-0.15C20.2,1.678,19.585,1.36,18.937,1.36s-1.264,0.318-1.646,0.852c-0.067,0.095-0.177,0.15-0.292,0.15
	H13.437z"/>
<rect id="_Transparent_Rectangle" style="fill:none;" width="32" height="32"/>
</svg>
