<?xml version="1.0" encoding="iso-8859-1"?>
<!-- Generator: Adobe Illustrator 22.0.0, SVG Export Plug-In . SVG Version: 6.00 Build 0)  -->
<svg version="1.1" xmlns="http://www.w3.org/2000/svg" xmlns:xlink="http://www.w3.org/1999/xlink" x="0px" y="0px"
	 viewBox="0 0 48 48" style="enable-background:new 0 0 48 48;" xml:space="preserve">
<g id="feedback">
	<path id="feedback_1_" style="fill:none;stroke:#000000;stroke-width:0.72;stroke-miterlimit:10;" d="M36.652,27
		C35.298,32.733,30.147,37,24,37c-7.18,0-13-5.82-13-13 M13,26l-2-2l-2,2 M37,24c0-7.18-5.817-13-12.997-13
		c-6.147,0-11.298,4.267-12.652,10 M35,22l2,2l2-2 M24,29.505l5.455-5.455c0.621-0.621,0.938-1.43,0.953-2.243
		c0.015-0.852-0.302-1.71-0.953-2.36c-0.636-0.636-1.468-0.953-2.301-0.953c-0.833,0-1.666,0.318-2.301,0.953L24,20.3l-0.852-0.852
		c-0.637-0.637-1.473-0.955-2.307-0.953c-0.831,0.002-1.661,0.319-2.295,0.953c-0.639,0.639-0.957,1.478-0.953,2.316
		c0.004,0.828,0.321,1.655,0.953,2.287L24,29.505z"/>
</g>
<g id="Layer_1">
</g>
</svg>
