<?xml version="1.0" encoding="iso-8859-1"?>
<!-- Generator: Adobe Illustrator 24.1.2, SVG Export Plug-In . SVG Version: 6.00 Build 0)  -->
<svg version="1.1" id="Layer_1" xmlns="http://www.w3.org/2000/svg" xmlns:xlink="http://www.w3.org/1999/xlink" x="0px" y="0px"
	 viewBox="0 0 32 32" style="enable-background:new 0 0 32 32;" xml:space="preserve">
<path id="feedback_1_" d="M28.302,18.917l0.701,0.166C27.573,25.134,22.227,29.36,16,29.36c-7.087,0-12.887-5.552-13.318-12.533
	l-1.428,1.428l-0.509-0.51L3,15.491l2.254,2.254l-0.509,0.51l-1.339-1.339C3.879,23.458,9.339,28.64,16,28.64
	C21.891,28.64,26.949,24.642,28.302,18.917z M16,3.36c6.661,0,12.121,5.182,12.593,11.724l-1.338-1.338l-0.51,0.509L29,16.509
	l2.255-2.255l-0.51-0.509l-1.427,1.427C28.887,8.192,23.088,2.64,16,2.64c-6.224,0-11.57,4.226-13,10.277l0.701,0.166
	C5.054,7.358,10.111,3.36,16,3.36z M19.153,10.135c0.965,0,1.873,0.376,2.557,1.058c0.7,0.701,1.075,1.631,1.058,2.622
	c-0.017,0.939-0.392,1.824-1.058,2.491L16,22.015l-5.709-5.709c-0.678-0.678-1.054-1.58-1.059-2.54
	c-0.004-0.972,0.372-1.885,1.059-2.572c0.681-0.681,1.586-1.057,2.549-1.059c0.002,0,0.004,0,0.006,0
	c0.966,0,1.874,0.375,2.556,1.059L16,11.791l0.598-0.597C17.28,10.511,18.188,10.135,19.153,10.135z M21.2,11.702
	c-1.094-1.093-3-1.093-4.094,0L16,12.809l-1.106-1.107c-0.547-0.546-1.274-0.848-2.047-0.848c-0.002,0-0.003,0-0.005,0
	c-0.771,0.001-1.496,0.303-2.042,0.848c-0.55,0.549-0.851,1.281-0.848,2.06c0.004,0.769,0.305,1.491,0.848,2.034l5.2,5.201
	l5.2-5.201c0.533-0.534,0.834-1.242,0.847-1.995C22.062,13.008,21.761,12.263,21.2,11.702z"/>
<rect id="_Transparent_Rectangle" style="fill:none;" width="32" height="32"/>
</svg>
