<?xml version="1.0" encoding="iso-8859-1"?>
<!-- Generator: Adobe Illustrator 24.1.2, SVG Export Plug-In . SVG Version: 6.00 Build 0)  -->
<svg version="1.1" id="Layer_1" xmlns="http://www.w3.org/2000/svg" xmlns:xlink="http://www.w3.org/1999/xlink" x="0px" y="0px"
	 viewBox="0 0 32 32" style="enable-background:new 0 0 32 32;" xml:space="preserve">
<path id="financial--networks_1_" d="M30.272,14.668C29.638,7.84,24.159,2.36,17.333,1.726C17.205,1.107,16.656,0.64,16,0.64
	c-0.662,0-1.213,0.475-1.334,1.103c-4.1,0.38-7.791,2.464-10.224,5.773C4.303,7.468,4.156,7.436,4,7.436
	c-0.75,0-1.36,0.61-1.36,1.36c0,0.394,0.171,0.746,0.439,0.995C2.134,11.75,1.64,13.835,1.64,16c0,2.787,0.804,5.473,2.314,7.8
	c-0.193,0.235-0.314,0.531-0.314,0.858c0,0.75,0.61,1.36,1.36,1.36c0.22,0,0.424-0.057,0.608-0.15
	C8.318,28.72,12.082,30.36,16,30.36c0.199,0,0.36-0.161,0.36-0.36v-8.694c0.575-0.159,1-0.681,1-1.306s-0.426-1.147-1-1.306V3.305
	c0.389-0.107,0.707-0.379,0.873-0.74C20.907,3.642,23.64,9.307,23.64,16h0.721c0-5.886-2.084-11.036-5.109-13.226
	c5.532,1.368,9.758,6.146,10.302,11.948c-0.53,0.186-0.914,0.686-0.914,1.279c0,0.75,0.61,1.36,1.36,1.36s1.36-0.61,1.36-1.36
	C31.36,15.343,30.892,14.794,30.272,14.668z M14.64,20c0,0.625,0.425,1.147,1,1.306v8.302c-3.763-0.32-6.872-5.584-7.23-12.318
	c0.549-0.175,0.95-0.684,0.95-1.29c0-0.607-0.402-1.115-0.951-1.29C8.736,8.555,11.36,3.566,14.767,2.565
	c0.166,0.36,0.485,0.633,0.873,0.74v15.389C15.065,18.853,14.64,19.375,14.64,20z M8,15.36c0.353,0,0.64,0.287,0.64,0.64
	S8.353,16.64,8,16.64S7.36,16.353,7.36,16S7.647,15.36,8,15.36z M4,8.156c0.353,0,0.64,0.287,0.64,0.64S4.353,9.436,4,9.436
	s-0.64-0.287-0.64-0.64S3.647,8.156,4,8.156z M4.36,24.658c0-0.353,0.287-0.64,0.64-0.64s0.64,0.287,0.64,0.64
	s-0.287,0.64-0.64,0.64S4.36,25.011,4.36,24.658z M6.144,25.387c0.135-0.211,0.216-0.46,0.216-0.729c0-0.75-0.61-1.36-1.36-1.36
	c-0.162,0-0.315,0.033-0.458,0.085C3.118,21.179,2.36,18.636,2.36,16c0-2.048,0.466-4.02,1.357-5.875
	c0.091,0.019,0.186,0.03,0.283,0.03c0.75,0,1.36-0.61,1.36-1.36c0-0.333-0.125-0.634-0.324-0.871
	c1.903-2.58,4.614-4.366,7.685-5.121C9.955,4.833,7.973,9.349,7.69,14.679C7.089,14.82,6.64,15.357,6.64,16s0.45,1.181,1.05,1.322
	c0.288,5.408,2.325,9.924,5.105,11.926C10.279,28.632,7.964,27.297,6.144,25.387z M16.64,20c0,0.353-0.287,0.64-0.64,0.64
	s-0.64-0.287-0.64-0.64s0.287-0.64,0.64-0.64C16.353,19.36,16.64,19.647,16.64,20z M16,2.64c-0.353,0-0.64-0.287-0.64-0.64
	S15.647,1.36,16,1.36c0.353,0,0.64,0.287,0.64,0.64S16.353,2.64,16,2.64z M30,16.64c-0.353,0-0.64-0.287-0.64-0.64
	s0.287-0.64,0.64-0.64s0.64,0.287,0.64,0.64C30.64,16.353,30.353,16.64,30,16.64z M18.64,28.36h2.721v-3.72H18.64V28.36z
	 M19.36,25.36h1.279v2.279H19.36V25.36z M22.64,28.36h2.721v-6.72H22.64V28.36z M23.36,22.36h1.279v5.279H23.36V22.36z M26.64,28.36
	h2.721v-9.72H26.64V28.36z M27.36,19.36h1.279v8.279H27.36V19.36z"/>
<rect id="_Transparent_Rectangle" style="fill:none;" width="32" height="32"/>
</svg>
