<?xml version="1.0" encoding="iso-8859-1"?>
<!-- Generator: Adobe Illustrator 24.1.2, SVG Export Plug-In . SVG Version: 6.00 Build 0)  -->
<svg version="1.1" id="Layer_1" xmlns="http://www.w3.org/2000/svg" xmlns:xlink="http://www.w3.org/1999/xlink" x="0px" y="0px"
	 viewBox="0 0 32 32" style="enable-background:new 0 0 32 32;" xml:space="preserve">
<path id="finance--strategy_1_" d="M28.623,26.662l1.676-2.484c0.04-0.06,0.062-0.13,0.062-0.201v-5.995
	c0-2.789-1.141-3.649-2.627-4.77l-2.51-1.993c-0.107-0.086-0.256-0.103-0.38-0.042c-0.125,0.06-0.204,0.186-0.204,0.324v2.116
	h-1.663c-0.082,0-0.162,0.028-0.227,0.08l-4.977,4.023c-0.131,0.106-0.171,0.29-0.096,0.441l0.988,1.977
	c0.073,0.144,0.234,0.223,0.393,0.191l4.183-0.838l-2.623,4.298c-0.056,0.092-0.067,0.205-0.032,0.307l0.893,2.548
	c-1.731,0.19-2.862,1.387-2.862,3.095V31c0,0.199,0.161,0.36,0.36,0.36H31c0.199,0,0.36-0.161,0.36-0.36v-1.262
	C31.36,28.078,30.284,26.901,28.623,26.662z M21.322,24.019l2.962-4.854c0.074-0.122,0.069-0.276-0.013-0.394
	s-0.224-0.175-0.365-0.146l-4.719,0.945l-0.736-1.472l4.652-3.762H25c0.199,0,0.36-0.161,0.36-0.36v-1.731l1.981,1.572
	c1.359,1.026,2.198,1.685,2.281,3.823H28v0.721h1.64v1.779H28v0.721h1.64v1.779H28v0.721h1.64v0.506l-1.854,2.75h-5.554
	L21.322,24.019z M30.64,30.64H19.337v-0.901c0-1.161,0.693-2.401,2.64-2.401h6c1.618,0,2.663,0.942,2.663,2.401V30.64z M29.64,2.87
	L2.254,30.255l-0.509-0.51L29.131,2.36H25V1.64h5.36V7h-0.72V2.87z M14,9.36c0.199,0,0.36-0.161,0.36-0.36V1
	c0-0.199-0.161-0.36-0.36-0.36H1C0.801,0.64,0.64,0.801,0.64,1v8c0,0.199,0.161,0.36,0.36,0.36H14z M1.36,7.403
	C1.975,7.541,2.459,8.025,2.597,8.64H1.36V7.403z M3.323,1.36h8.353c0.157,1.012,0.952,1.807,1.964,1.964v3.353
	c-1.012,0.157-1.807,0.952-1.964,1.964H3.323C3.167,7.628,2.372,6.833,1.36,6.677V3.323C2.372,3.167,3.167,2.372,3.323,1.36z
	 M12.403,8.64c0.139-0.615,0.623-1.099,1.238-1.238V8.64H12.403z M13.64,2.597c-0.615-0.139-1.099-0.623-1.238-1.238h1.238V2.597z
	 M2.597,1.36C2.459,1.975,1.975,2.459,1.36,2.597V1.36H2.597z M1,10.64h13v0.72H1V10.64z M14,13.36H1v-0.72h13V13.36z M7.5,7.36
	c1.301,0,2.36-1.059,2.36-2.36S8.801,2.64,7.5,2.64S5.14,3.699,5.14,5S6.199,7.36,7.5,7.36z M7.5,3.36c0.904,0,1.64,0.736,1.64,1.64
	S8.404,6.64,7.5,6.64S5.86,5.904,5.86,5S6.596,3.36,7.5,3.36z"/>
<rect id="_Transparent_Rectangle" style="fill:none;" width="32" height="32"/>
</svg>
