<?xml version="1.0" encoding="iso-8859-1"?>
<!-- Generator: Adobe Illustrator 24.1.2, SVG Export Plug-In . SVG Version: 6.00 Build 0)  -->
<svg version="1.1" id="Layer_1" xmlns="http://www.w3.org/2000/svg" xmlns:xlink="http://www.w3.org/1999/xlink" x="0px" y="0px"
	 viewBox="0 0 32 32" style="enable-background:new 0 0 32 32;" xml:space="preserve">
<path id="financial--consultant_1_" d="M24,31.36c-4.059,0-7.36-3.302-7.36-7.36c0-1.171,0.283-2.333,0.818-3.362
	c0.438-0.861,1.044-1.626,1.776-2.246c-1.09-1.024-2.397-1.82-3.803-2.312c-0.136-0.047-0.23-0.171-0.24-0.314
	c-0.01-0.143,0.065-0.279,0.193-0.345c2.496-1.293,4.045-3.818,4.045-6.59c0-4.119-3.333-7.47-7.43-7.47
	c-4.141,0-7.51,3.351-7.51,7.47c0,2.769,1.551,5.298,4.047,6.601c0.127,0.066,0.203,0.202,0.192,0.345s-0.104,0.266-0.24,0.314
	c-4.264,1.498-7.129,5.5-7.129,9.96V31H0.64v-4.95c0-4.513,2.744-8.588,6.903-10.364C5.198,14.179,3.77,11.615,3.77,8.83
	c0-4.516,3.692-8.19,8.23-8.19c4.494,0,8.15,3.674,8.15,8.19c0,2.788-1.427,5.347-3.771,6.846c1.266,0.542,2.438,1.317,3.435,2.273
	c0.032-0.022,0.065-0.045,0.099-0.067C21.122,17.07,22.536,16.64,24,16.64c4.059,0,7.36,3.301,7.36,7.36S28.059,31.36,24,31.36z
	 M24,17.36c-1.32,0-2.596,0.388-3.688,1.121c-0.938,0.62-1.703,1.479-2.214,2.485c-0.483,0.93-0.738,1.978-0.738,3.033
	c0,3.661,2.979,6.64,6.64,6.64s6.64-2.979,6.64-6.64S27.661,17.36,24,17.36z M24.36,27.5h-0.72v-1.14H22v-0.72h3
	c0.353,0,0.64-0.287,0.64-0.64s-0.287-0.64-0.64-0.64h-2c-0.75,0-1.36-0.61-1.36-1.36s0.61-1.36,1.36-1.36h0.64V20.5h0.721v1.14H26
	v0.721h-3c-0.353,0-0.64,0.287-0.64,0.64s0.287,0.64,0.64,0.64h2c0.75,0,1.36,0.61,1.36,1.36s-0.61,1.36-1.36,1.36h-0.64V27.5z"/>
<rect id="_Transparent_Rectangle" style="fill:none;" width="32" height="32"/>
</svg>
