<?xml version="1.0" encoding="iso-8859-1"?>
<!-- Generator: Adobe Illustrator 24.1.2, SVG Export Plug-In . SVG Version: 6.00 Build 0)  -->
<svg version="1.1" xmlns="http://www.w3.org/2000/svg" xmlns:xlink="http://www.w3.org/1999/xlink" x="0px" y="0px"
	 viewBox="0 0 48 48" style="enable-background:new 0 0 48 48;" xml:space="preserve">
<g id="finance--strategy">
	<g id="finance--strategy_1_">
		
			<path id="strategy--move_2_" style="fill:none;stroke:#000000;stroke-width:0.72;stroke-linejoin:round;stroke-miterlimit:10;" d="
			M35.976,34.976l2.024-3v-5.995c0-2.639-1.024-3.381-2.49-4.488L33,19.5l0,2.476h-2.024L26,26l0.988,1.976l4.988-1l-3.05,5l1.05,3
			 M29.976,34.976c-1.976,0-3,1.237-3,2.762V39H39v-1.261c0-1.526-1.049-2.762-3.024-2.762H29.976z"/>
		<polyline style="fill:none;stroke:#000000;stroke-width:0.72;stroke-miterlimit:10;" points="38,15 38,10 33,10 		"/>
		
			<line style="fill:none;stroke:#000000;stroke-width:0.72;stroke-linejoin:round;stroke-miterlimit:10;" x1="38" y1="26" x2="36" y2="26"/>
		
			<line style="fill:none;stroke:#000000;stroke-width:0.72;stroke-linejoin:round;stroke-miterlimit:10;" x1="38" y1="28.5" x2="36" y2="28.5"/>
		
			<line style="fill:none;stroke:#000000;stroke-width:0.72;stroke-linejoin:round;stroke-miterlimit:10;" x1="38" y1="31" x2="36" y2="31"/>
		
			<line style="fill:none;stroke:#000000;stroke-width:0.72;stroke-linejoin:round;stroke-miterlimit:10;" x1="9" y1="19" x2="22" y2="19"/>
		
			<line style="fill:none;stroke:#000000;stroke-width:0.72;stroke-linejoin:round;stroke-miterlimit:10;" x1="9" y1="19" x2="22" y2="19"/>
		<g>
			<g>
				
					<rect x="9" y="9" style="fill:none;stroke:#000000;stroke-width:0.72;stroke-linejoin:round;stroke-miterlimit:10;" width="13" height="8"/>
				
					<line style="fill:none;stroke:#000000;stroke-width:0.72;stroke-linejoin:round;stroke-miterlimit:10;" x1="9" y1="19" x2="22" y2="19"/>
				
					<line style="fill:none;stroke:#000000;stroke-width:0.72;stroke-linejoin:round;stroke-miterlimit:10;" x1="9" y1="21" x2="22" y2="21"/>
				
					<circle style="fill:none;stroke:#000000;stroke-width:0.72;stroke-linejoin:round;stroke-miterlimit:10;" cx="15.5" cy="13" r="2"/>
				<path style="fill:none;stroke:#000000;stroke-width:0.72;stroke-miterlimit:10;" d="M22,11c-1.105,0-2-0.895-2-2"/>
				<path style="fill:none;stroke:#000000;stroke-width:0.72;stroke-miterlimit:10;" d="M20,17c0-1.105,0.895-2,2-2"/>
				<path style="fill:none;stroke:#000000;stroke-width:0.72;stroke-miterlimit:10;" d="M9,15c1.105,0,2,0.895,2,2"/>
				<path style="fill:none;stroke:#000000;stroke-width:0.72;stroke-miterlimit:10;" d="M11,9c0,1.105-0.895,2-2,2"/>
			</g>
		</g>
		
			<line style="fill:none;stroke:#000000;stroke-width:0.72;stroke-linejoin:round;stroke-miterlimit:10;" x1="38" y1="10" x2="10" y2="38"/>
	</g>
</g>
<g id="Layer_1">
</g>
</svg>
