<svg xmlns="http://www.w3.org/2000/svg" viewBox="0 0 48 48"><path fill="none" stroke-linejoin="round" stroke-miterlimit="10" stroke-width=".72" d="M32,28.5V30 M32,34v1.5 M34,30h-3c-0.552,0-1,0.447-1,1c0,0.552,0.447,1,1,1h2c0.552,0,1,0.448,1,1c0,0.553-0.448,1-1,1h-3 M32,25 c-1.439,0-2.777,0.436-3.889,1.182c-0.988,0.654-1.797,1.564-2.333,2.621C25.28,29.76,25,30.849,25,32c0,3.866,3.134,7,7,7 s7-3.134,7-7C39,28.135,35.866,25,32,25z M27.76,26.4c-1.17-1.18-2.61-2.1-4.21-2.66c2.51-1.3,4.24-3.89,4.24-6.91 C27.79,12.5,24.32,9,20,9c-4.33,0-7.87,3.5-7.87,7.83c0,3.02,1.73,5.61,4.24,6.92C12.1,25.25,9,29.28,9,34.05V40"/></svg>