<?xml version="1.0" encoding="iso-8859-1"?>
<!-- Generator: Adobe Illustrator 24.1.2, SVG Export Plug-In . SVG Version: 6.00 Build 0)  -->
<svg version="1.1" xmlns="http://www.w3.org/2000/svg" xmlns:xlink="http://www.w3.org/1999/xlink" x="0px" y="0px"
	 viewBox="0 0 48 48" style="enable-background:new 0 0 48 48;" xml:space="preserve">
<g id="financial--networks">
	<g id="financial--networks_1_">
		
			<circle style="fill:none;stroke:#000000;stroke-width:0.72;stroke-linejoin:round;stroke-miterlimit:10;" cx="13" cy="32.658" r="1"/>
		<circle style="fill:none;stroke:#000000;stroke-width:0.72;stroke-linejoin:round;stroke-miterlimit:10;" cx="24" cy="28" r="1"/>
		<circle style="fill:none;stroke:#000000;stroke-width:0.72;stroke-linejoin:round;stroke-miterlimit:10;" cx="38" cy="24" r="1"/>
		<circle style="fill:none;stroke:#000000;stroke-width:0.72;stroke-miterlimit:10;" cx="16" cy="24" r="1"/>
		<circle style="fill:none;stroke:#000000;stroke-width:0.72;stroke-miterlimit:10;" cx="24" cy="10" r="1"/>
		<path style="fill:none;stroke:#000000;stroke-width:0.72;stroke-linejoin:round;stroke-miterlimit:10;" d="M16.029,24.994
			C16.321,32.26,19.773,38,24,38"/>
		<path style="fill:none;stroke:#000000;stroke-width:0.72;stroke-linejoin:round;stroke-miterlimit:10;" d="M23.023,10.116
			c-3.77,0.806-6.725,6.194-6.995,12.89"/>
		<path style="fill:none;stroke:#000000;stroke-width:0.72;stroke-linejoin:round;stroke-miterlimit:10;" d="M32,24
			c0-7.152-3.067-13.041-7.023-13.885"/>
		<g>
			<path style="fill:none;stroke:#000000;stroke-width:0.72;stroke-linejoin:round;stroke-miterlimit:10;" d="M11.528,17.662
				C10.558,19.566,10,21.716,10,24c0,2.917,0.894,5.624,2.42,7.866"/>
			<path style="fill:none;stroke:#000000;stroke-width:0.72;stroke-linejoin:round;stroke-miterlimit:10;" d="M23.012,10.061
				c-4.331,0.305-8.12,2.559-10.474,5.914"/>
			
				<line style="fill:none;stroke:#000000;stroke-width:0.72;stroke-linejoin:round;stroke-miterlimit:10;" x1="24" y1="27" x2="24" y2="11"/>
			<path style="fill:none;stroke:#000000;stroke-width:0.72;stroke-linejoin:round;stroke-miterlimit:10;" d="M13.65,33.404
				C16.211,36.221,19.893,38,24,38v-9"/>
			<path style="fill:none;stroke:#000000;stroke-width:0.72;stroke-linejoin:round;stroke-miterlimit:10;" d="M37.95,23.01
				c-0.487-6.939-6.021-12.475-12.96-12.962"/>
		</g>
		<g>
			<rect x="27" y="33" style="fill:none;stroke:#000000;stroke-width:0.72;stroke-miterlimit:10;" width="2" height="3"/>
			<rect x="31" y="30" style="fill:none;stroke:#000000;stroke-width:0.72;stroke-miterlimit:10;" width="2" height="6"/>
			<rect x="35" y="27" style="fill:none;stroke:#000000;stroke-width:0.72;stroke-miterlimit:10;" width="2" height="9"/>
		</g>
		
			<circle style="fill:none;stroke:#000000;stroke-width:0.72;stroke-linejoin:round;stroke-miterlimit:10;" cx="12" cy="16.796" r="1"/>
	</g>
</g>
<g id="Layer_1">
</g>
</svg>
