<?xml version="1.0" encoding="iso-8859-1"?>
<!-- Generator: Adobe Illustrator 24.1.2, SVG Export Plug-In . SVG Version: 6.00 Build 0)  -->
<svg version="1.1" id="Layer_1" xmlns="http://www.w3.org/2000/svg" xmlns:xlink="http://www.w3.org/1999/xlink" x="0px" y="0px"
	 viewBox="0 0 32 32" style="enable-background:new 0 0 32 32;" xml:space="preserve">
<path id="flow--chart_1_" d="M29,31.4c-1.3,0-2.4-1.1-2.4-2.4c0-1.2,0.9-2.2,2-2.3v-3.3h-7.3v3.3c1.1,0.2,2,1.2,2,2.3
	c0,1.3-1.1,2.4-2.4,2.4s-2.4-1.1-2.4-2.4c0-1.2,0.9-2.2,2-2.3V23c0-0.2,0.2-0.4,0.4-0.4h3.6v-4.3H19c-0.2,0-0.4-0.2-0.4-0.4v-4
	c0-0.2,0.2-0.4,0.4-0.4h5.6V9.4H7.4v4.3H13c0.2,0,0.4,0.2,0.4,0.4v4c0,0.2-0.2,0.4-0.4,0.4H7.4v4.3H11c0.2,0,0.4,0.2,0.4,0.4v3.7
	c1.1,0.2,2,1.2,2,2.3c0,1.3-1.1,2.4-2.4,2.4S8.6,30.3,8.6,29c0-1.2,0.9-2.2,2-2.3v-3.3H3.4v3.3c1.1,0.2,2,1.2,2,2.3
	c0,1.3-1.1,2.4-2.4,2.4S0.6,30.3,0.6,29c0-1.2,0.9-2.2,2-2.3V23c0-0.2,0.2-0.4,0.4-0.4h3.6v-4.3H1c-0.2,0-0.4-0.2-0.4-0.4v-4
	c0-0.2,0.2-0.4,0.4-0.4h5.6V9c0-0.2,0.2-0.4,0.4-0.4h8.6V5.4H1C0.8,5.4,0.6,5.2,0.6,5V1c0-0.2,0.2-0.4,0.4-0.4h30
	c0.2,0,0.4,0.2,0.4,0.4v4c0,0.2-0.2,0.4-0.4,0.4H16.4v3.3H25c0.2,0,0.4,0.2,0.4,0.4v4.6H31c0.2,0,0.4,0.2,0.4,0.4v4
	c0,0.2-0.2,0.4-0.4,0.4h-5.6v4.3H29c0.2,0,0.4,0.2,0.4,0.4v3.7c1.1,0.2,2,1.2,2,2.3C31.4,30.3,30.3,31.4,29,31.4z M29,27.4
	c-0.9,0-1.6,0.7-1.6,1.6s0.7,1.6,1.6,1.6s1.6-0.7,1.6-1.6S29.9,27.4,29,27.4z M21,27.4c-0.9,0-1.6,0.7-1.6,1.6s0.7,1.6,1.6,1.6
	s1.6-0.7,1.6-1.6S21.9,27.4,21,27.4z M11,27.4c-0.9,0-1.6,0.7-1.6,1.6s0.7,1.6,1.6,1.6s1.6-0.7,1.6-1.6S11.9,27.4,11,27.4z M3,27.4
	c-0.9,0-1.6,0.7-1.6,1.6s0.7,1.6,1.6,1.6s1.6-0.7,1.6-1.6S3.9,27.4,3,27.4z M25,17.6h5.6v-3.3H19.4v3.3H25L25,17.6z M7,17.6h5.6
	v-3.3H1.4v3.3H7L7,17.6z M1.4,4.6h29.3V1.4H1.4V4.6z"/>
<rect id="_Transparent_Rectangle" style="fill:none;" width="32" height="32"/>
</svg>
