<?xml version="1.0" encoding="iso-8859-1"?>
<!-- Generator: Adobe Illustrator 24.1.2, SVG Export Plug-In . SVG Version: 6.00 Build 0)  -->
<svg version="1.1" xmlns="http://www.w3.org/2000/svg" xmlns:xlink="http://www.w3.org/1999/xlink" x="0px" y="0px"
	 viewBox="0 0 48 48" style="enable-background:new 0 0 48 48;" xml:space="preserve">
<g id="flower--01">
	<path id="flower--01_1_" style="fill:none;stroke:#000000;stroke-width:0.72;stroke-linejoin:round;stroke-miterlimit:10;" d="
		M24,19v20 M25,15c0-6-6-6-6-6v5c0,2.761,2.239,5,5,5c2.761,0,5-2.239,5-5V9c-4,0-5,2-5,2 M24,29c0-8-7-8-7-8S17,27,24,29 M24,34
		c7-3,7-8,7-8S24,26,24,34 M9,39h30"/>
</g>
<g id="Layer_1">
</g>
</svg>
