<?xml version="1.0" encoding="iso-8859-1"?>
<!-- Generator: Adobe Illustrator 22.0.0, SVG Export Plug-In . SVG Version: 6.00 Build 0)  -->
<svg version="1.1" xmlns="http://www.w3.org/2000/svg" xmlns:xlink="http://www.w3.org/1999/xlink" x="0px" y="0px"
	 viewBox="0 0 48 48" style="enable-background:new 0 0 48 48;" xml:space="preserve">
<g id="fog">
	<path id="fog_1_" style="fill:none;stroke:#000000;stroke-width:0.72;stroke-linejoin:round;stroke-miterlimit:10;" d="M10,18h4
		 M34,18h4 M26,18h4 M18,18h4 M14,22h4 M30,22h4 M22,22h4 M14,14h4 M30,14h4 M22,14h4 M10,26h4 M34,26h4 M26,26h4 M18,26h4 M10,34h4
		 M34,34h4 M26,34h4 M18,34h4 M14,30h4 M30,30h4 M22,30h4"/>
</g>
<g id="Layer_1">
</g>
</svg>
