<?xml version="1.0" encoding="iso-8859-1"?>
<!-- Generator: Adobe Illustrator 29.1.0, SVG Export Plug-In . SVG Version: 9.03 Build 55587)  -->
<svg version="1.1" id="Layer_1" xmlns="http://www.w3.org/2000/svg" xmlns:xlink="http://www.w3.org/1999/xlink" x="0px" y="0px"
	 viewBox="0 0 32 32" style="enable-background:new 0 0 32 32;" xml:space="preserve">
<path id="food--truck_00000090999729066931511840000015588381386829531313_" d="M26,28.36c-1.731,0-3.161-1.316-3.341-3H10.341
	c-0.18,1.684-1.61,3-3.341,3s-3.161-1.316-3.341-3H3c-1.301,0-2.36-1.059-2.36-2.36v-7c0-0.068,0.019-0.131,0.051-0.185L4.73,8.82
	c0.064-0.111,0.183-0.18,0.312-0.18h7.599V4c0-0.199,0.161-0.36,0.36-0.36h18c0.199,0,0.36,0.161,0.36,0.36v21
	c0,0.199-0.161,0.36-0.36,0.36h-1.659C29.161,27.044,27.731,28.36,26,28.36z M26,22.36c-1.456,0-2.64,1.184-2.64,2.64
	s1.184,2.64,2.64,2.64s2.64-1.184,2.64-2.64S27.456,22.36,26,22.36z M7,22.36c-1.456,0-2.64,1.184-2.64,2.64S5.544,27.64,7,27.64
	S9.64,26.456,9.64,25S8.456,22.36,7,22.36z M29.341,24.64h1.299V4.36H13.36v20.28h9.299c0.18-1.684,1.609-3,3.341-3
	S29.161,22.956,29.341,24.64z M10.341,24.64h2.299v-8.28H1.36V23c0,0.904,0.736,1.64,1.64,1.64h0.659c0.18-1.684,1.61-3,3.341-3
	S10.161,22.956,10.341,24.64z M10.36,15.64h2.28V9.36h-2.28V15.64z M1.624,15.64H9.64V9.36H5.25L1.624,15.64z M29,18.36H15
	c-0.199,0-0.36-0.161-0.36-0.36v-2c0-0.199,0.161-0.36,0.36-0.36h0.64V8.333c-1.131-0.174-2-1.154-2-2.333
	c0-0.199,0.161-0.36,0.36-0.36h16c0.199,0,0.36,0.161,0.36,0.36c0,1.179-0.869,2.159-2,2.333v7.308H29c0.199,0,0.36,0.161,0.36,0.36
	v2C29.36,18.199,29.199,18.36,29,18.36z M15.36,17.64h13.28v-1.28H15.36V17.64z M24.36,15.64h3.279V8.333
	C26.95,8.227,26.357,7.82,26,7.251c-0.418,0.666-1.158,1.108-2,1.108s-1.582-0.443-2-1.108c-0.418,0.666-1.158,1.108-2,1.108
	s-1.582-0.443-2-1.108c-0.357,0.569-0.95,0.975-1.64,1.081v7.308h1.28V13c0-0.199,0.161-0.36,0.36-0.36h0.64V12h0.721v0.64H20
	c0.199,0,0.36,0.161,0.36,0.36v2.64h1.279V13c0-0.199,0.161-0.36,0.36-0.36h0.64V12h0.721v0.64H24c0.199,0,0.36,0.161,0.36,0.36
	V15.64z M22.36,15.64h1.279v-2.28H22.36V15.64z M18.36,15.64h1.279v-2.28H18.36V15.64z M26.399,6.36
	C26.564,7.092,27.22,7.64,28,7.64s1.436-0.548,1.601-1.28C29.601,6.36,26.399,6.36,26.399,6.36z M22.399,6.36
	C22.564,7.092,23.22,7.64,24,7.64s1.436-0.548,1.601-1.28C25.601,6.36,22.399,6.36,22.399,6.36z M18.399,6.36
	C18.564,7.092,19.22,7.64,20,7.64s1.436-0.548,1.601-1.28C21.601,6.36,18.399,6.36,18.399,6.36z M14.4,6.36
	c0.165,0.732,0.819,1.28,1.6,1.28s1.436-0.548,1.601-1.28C17.601,6.36,14.4,6.36,14.4,6.36z M11,18.36H9v-0.72h2V18.36z"/>
<rect id="_Transparent_Rectangle" style="fill:none;" width="32" height="32"/>
</svg>
