<?xml version="1.0" encoding="iso-8859-1"?>
<!-- Generator: Adobe Illustrator 29.1.0, SVG Export Plug-In . SVG Version: 9.03 Build 55587)  -->
<svg version="1.1" id="Layer_1" xmlns="http://www.w3.org/2000/svg" xmlns:xlink="http://www.w3.org/1999/xlink" x="0px" y="0px"
	 viewBox="0 0 32 32" style="enable-background:new 0 0 32 32;" xml:space="preserve">
<path id="football--pose_00000148655061369455170230000007151785814798533545_" d="M25.07,29.36c-0.859,0-1.599-0.613-1.757-1.459
	l-1.033-4.277c-0.07-0.289-0.217-0.555-0.426-0.768l-4.324-4.317L9.34,28.787c-0.753,0.754-1.932,0.754-2.657,0.03
	C6.333,28.467,6.14,28,6.14,27.502s0.193-0.965,0.543-1.315l7.817-9.795l-0.762-3.409l-3.614,1.354
	c-0.041,0.015-0.083,0.023-0.126,0.023H6v-0.72h3.933l3.941-1.477c0.098-0.038,0.207-0.029,0.298,0.021
	c0.092,0.049,0.157,0.136,0.18,0.238l0.89,3.981c0.023,0.106-0.002,0.218-0.07,0.303l-7.952,9.96
	c-0.241,0.244-0.359,0.53-0.359,0.836s0.118,0.592,0.332,0.806c0.445,0.445,1.169,0.445,1.613,0l8.414-10.532
	c0.063-0.08,0.159-0.129,0.261-0.135c0.103,0,0.202,0.032,0.274,0.104l4.611,4.604c0.303,0.309,0.515,0.689,0.614,1.105l1.037,4.295
	c0.099,0.523,0.54,0.89,1.054,0.89c0.33,0,0.637-0.148,0.841-0.408c0.203-0.259,0.275-0.591,0.198-0.91l-1.458-5.732
	c-0.091-0.36-0.239-0.665-0.408-0.836l-4.052-4.016c-0.049-0.048-0.083-0.109-0.098-0.176l-1.345-5.923
	c-0.259-0.901-1.36-1.594-2.312-1.803c-0.137-0.03-0.244-0.137-0.274-0.273c-0.03-0.137,0.021-0.279,0.133-0.364
	c0.706-0.539,1.005-1.437,0.762-2.287c-0.158-0.549-0.52-1.004-1.02-1.282c-0.5-0.277-1.078-0.342-1.627-0.185
	s-1.004,0.52-1.282,1.02c-0.277,0.5-0.343,1.078-0.185,1.627c0.2,0.696,0.736,1.24,1.435,1.454c0.144,0.044,0.245,0.173,0.254,0.323
	s-0.076,0.29-0.214,0.351L9.646,11.33C9.6,11.35,9.55,11.36,9.5,11.36H6c-0.628,0-1.14,0.512-1.14,1.14
	c0,0.1-0.042,0.196-0.115,0.264s-0.173,0.109-0.271,0.095c-0.666-0.049-1.458-0.352-1.729-0.919C2.237,10.874,3.68,9.2,4.864,8.634
	c0.609-0.292,1.419-0.435,2.173-0.395c0.877,0.052,1.488,0.348,1.719,0.834c0.198,0.414,0.108,0.971-0.243,1.567h0.912l3.988-1.764
	c-0.557-0.371-0.971-0.927-1.161-1.587c-0.21-0.734-0.123-1.506,0.248-2.175c0.371-0.668,0.979-1.152,1.713-1.363
	c0.733-0.209,1.507-0.123,2.175,0.248c0.668,0.371,1.152,0.979,1.362,1.713c0.265,0.922,0.052,1.887-0.542,2.603
	c0.98,0.369,1.941,1.108,2.238,2.144l1.327,5.84l3.98,3.945c0.354,0.359,0.525,0.886,0.597,1.168l1.458,5.735
	c0.131,0.54,0.01,1.096-0.331,1.529C26.135,29.111,25.623,29.36,25.07,29.36z M6.774,8.951c-0.565,0-1.161,0.122-1.601,0.332
	c-1.094,0.523-2.009,1.865-1.78,2.346c0.081,0.169,0.386,0.364,0.792,0.459C4.374,11.26,5.116,10.64,6,10.64h1.629
	c0.043-0.046,0.08-0.088,0.081-0.09c0.346-0.464,0.508-0.931,0.396-1.168C7.999,9.158,7.562,8.991,6.994,8.958
	C6.921,8.954,6.848,8.951,6.774,8.951z M21.572,11.603l-0.145-0.705l6.389-1.301c0.586-0.158,0.947-0.784,0.785-1.392
	c-0.163-0.607-0.79-0.966-1.396-0.806l-7.133,1.454l-0.145-0.705l7.112-1.449c0.97-0.26,1.99,0.329,2.257,1.32
	c0.265,0.991-0.325,2.013-1.315,2.278L21.572,11.603z"/>
<rect id="_Transparent_Rectangle" style="fill:none;" width="32" height="32"/>
</svg>
