<?xml version="1.0" encoding="iso-8859-1"?>
<!-- Generator: Adobe Illustrator 28.0.0, SVG Export Plug-In . SVG Version: 6.00 Build 0)  -->
<svg version="1.1" id="Layer_1" xmlns="http://www.w3.org/2000/svg" xmlns:xlink="http://www.w3.org/1999/xlink" x="0px" y="0px"
	 viewBox="0 0 32 32" style="enable-background:new 0 0 32 32;" xml:space="preserve">
<path id="football--goal-post_00000070830817078219868460000004681541626731046827_" d="M31,27.64H18.36V23
	c0-0.199-0.161-0.36-0.36-0.36h-1.64v-3.28H24c0.199,0,0.36-0.161,0.36-0.36V1h-0.72v17.64H8.36V1H7.64v18
	c0,0.199,0.161,0.36,0.36,0.36h7.64v3.279H14c-0.199,0-0.36,0.161-0.36,0.36v4.64H1v0.721h12.64V31c0,0.199,0.161,0.36,0.36,0.36h4
	c0.199,0,0.36-0.161,0.36-0.36v-2.64H31V27.64z M17.64,30.64h-3.28v-7.28h3.28V30.64z"/>
<rect id="_Transparent_Rectangle" style="fill:none;" width="32" height="32"/>
</svg>
