<svg xmlns="http://www.w3.org/2000/svg" viewBox="0 0 48 48"><path fill="none" stroke-linecap="round" stroke-linejoin="round" stroke-miterlimit="10" stroke-width=".72" d="M22.982,19.721l-0.114,0.209c-0.587,1.009-1.886,1.355-2.903,0.773c-1.017-0.582-1.366-1.872-0.78-2.881l4.203-7.26"/><path fill="none" stroke-linecap="round" stroke-linejoin="round" stroke-miterlimit="10" stroke-width=".72" d="M31,21c0,1.105,0.895,2,2,2c1.105,0,2-0.895,2-2v-6"/><path fill="none" stroke-linecap="round" stroke-linejoin="round" stroke-miterlimit="10" stroke-width=".72" d="M27,21c0,1.105,0.895,2,2,2s2-0.895,2-2v-6"/><path fill="none" stroke-linecap="round" stroke-linejoin="round" stroke-miterlimit="10" stroke-width=".72" d="M27,15v12c0,1.105-0.895,2-2,2s-2-0.895-2-2v-6.385V12.04C23,10.361,24.372,9,26.064,9h9.873C37.628,9,39,10.361,39,12.04V21 c0,1.105-0.895,2-2,2s-2-0.895-2-2"/><polygon fill="none" stroke-linecap="round" stroke-linejoin="round" stroke-miterlimit="10" stroke-width=".72" points="16.5,27.17 11.5,27.17 9,31.5 11.5,35.83 16.5,35.83 19,31.5"/><line x1="14.75" x2="18.25" y1="30.201" y2="24.139" fill="none" stroke-linejoin="round" stroke-miterlimit="10" stroke-width=".72"/><line x1="10" x2="11.5" y1="38.428" y2="35.83" fill="none" stroke-linejoin="round" stroke-miterlimit="10" stroke-width=".72"/></svg>