<?xml version="1.0" encoding="iso-8859-1"?>
<!-- Generator: Adobe Illustrator 29.1.0, SVG Export Plug-In . SVG Version: 9.03 Build 55587)  -->
<svg version="1.1" id="Layer_1" xmlns="http://www.w3.org/2000/svg" xmlns:xlink="http://www.w3.org/1999/xlink" x="0px" y="0px"
	 viewBox="0 0 32 32" style="enable-background:new 0 0 32 32;" xml:space="preserve">
<path id="frozen--pipe_00000098940658351064153960000001852192404139494075_" d="M23,27.36c-0.75,0-1.36-0.61-1.36-1.36v-4
	c0-0.353-0.287-0.64-0.64-0.64s-0.64,0.287-0.64,0.64c0,0.75-0.61,1.36-1.36,1.36s-1.36-0.61-1.36-1.36
	c0-0.353-0.287-0.64-0.64-0.64c-0.353,0-0.64,0.287-0.64,0.64v1c0,0.75-0.61,1.36-1.36,1.36s-1.36-0.61-1.36-1.36
	c0-0.353-0.287-0.64-0.64-0.64s-0.64,0.287-0.64,0.64v1c0,0.75-0.61,1.36-1.36,1.36S9.64,24.75,9.64,24v-2.64H4.36V23
	c0,0.199-0.161,0.36-0.36,0.36H1c-0.199,0-0.36-0.161-0.36-0.36v-9c0-0.199,0.161-0.36,0.36-0.36h3c0.199,0,0.36,0.161,0.36,0.36
	v1.64h7.28V15c0-0.75,0.61-1.36,1.36-1.36h1.64v-1.28H11.5c-1.025,0-1.86-0.834-1.86-1.86s0.834-1.86,1.86-1.86h3.14V8
	c0-0.75,0.61-1.36,1.36-1.36S17.36,7.25,17.36,8v0.64h3.14c1.025,0,1.86,0.834,1.86,1.86s-0.835,1.86-1.86,1.86h-3.14v1.28H19
	c0.75,0,1.36,0.61,1.36,1.36v0.64h7.279V14c0-0.199,0.161-0.36,0.36-0.36h3c0.199,0,0.36,0.161,0.36,0.36v9
	c0,0.199-0.161,0.36-0.36,0.36h-3c-0.199,0-0.36-0.161-0.36-0.36v-1.64H24.36V26C24.36,26.75,23.75,27.36,23,27.36z M21,20.64
	c0.75,0,1.36,0.61,1.36,1.36v4c0,0.353,0.287,0.64,0.64,0.64s0.64-0.287,0.64-0.64v-9c0-0.353-0.287-0.64-0.64-0.64h-3
	c-0.199,0-0.36-0.161-0.36-0.36v-1c0-0.353-0.287-0.64-0.64-0.64h-6c-0.353,0-0.64,0.287-0.64,0.64v1c0,0.199-0.161,0.36-0.36,0.36
	h-1c-0.353,0-0.64,0.287-0.64,0.64v7c0,0.353,0.287,0.64,0.64,0.64s0.64-0.287,0.64-0.64v-1c0-0.75,0.61-1.36,1.36-1.36
	s1.36,0.61,1.36,1.36c0,0.353,0.287,0.64,0.64,0.64s0.64-0.287,0.64-0.64v-1c0-0.75,0.61-1.36,1.36-1.36s1.36,0.61,1.36,1.36
	c0,0.353,0.287,0.64,0.64,0.64s0.64-0.287,0.64-0.64C19.64,21.25,20.25,20.64,21,20.64z M28.36,22.64h2.279v-8.28H28.36V22.64z
	 M1.36,22.64h2.28v-8.28H1.36V22.64z M24.36,20.64h3.279v-4.28H24.2c0.102,0.191,0.16,0.409,0.16,0.64V20.64z M4.36,20.64h5.28V17
	c0-0.231,0.058-0.449,0.16-0.64H4.36V20.64z M15.36,13.64h1.28v-1.28h-1.28V13.64z M19.36,11.64h1.14c0.629,0,1.14-0.512,1.14-1.14
	s-0.511-1.14-1.14-1.14h-1.14V11.64z M16.36,11.64h2.28V9.36h-2.28V11.64z M13.36,11.64h2.28V9.36h-2.28V11.64z M11.5,9.36
	c-0.628,0-1.14,0.512-1.14,1.14s0.512,1.14,1.14,1.14h1.14V9.36H11.5z M15.36,8.64h1.28V8c0-0.353-0.287-0.64-0.64-0.64
	S15.36,7.647,15.36,8V8.64z M13.36,21h-0.72v-2h0.72V21z M21.36,20h-0.72v-2h0.721L21.36,20L21.36,20z M15.36,19h-0.72v-2h0.72V19z"
	/>
<rect id="_Transparent_Rectangle" style="fill:none;" width="32" height="32"/>
</svg>
