<?xml version="1.0" encoding="iso-8859-1"?>
<!-- Generator: Adobe Illustrator 22.0.0, SVG Export Plug-In . SVG Version: 6.00 Build 0)  -->
<svg version="1.1" xmlns="http://www.w3.org/2000/svg" xmlns:xlink="http://www.w3.org/1999/xlink" x="0px" y="0px"
	 viewBox="0 0 48 48" style="enable-background:new 0 0 48 48;" xml:space="preserve">
<g id="gear">
	
		<path id="gear_1_" style="fill:none;stroke:#000000;stroke-width:0.72;stroke-linecap:round;stroke-linejoin:round;stroke-miterlimit:10;" d="
		M35.128,26.957l-1.176,2.812l2.746,2.746l-4.183,4.182l-2.738-2.738l-2.82,1.157V39h-5.915v-3.872l-2.812-1.176l-2.746,2.746
		l-4.182-4.182l2.738-2.738l-1.157-2.82H9v-5.915h3.872l1.176-2.812l-2.746-2.746l4.182-4.182l2.738,2.738l2.82-1.157V9h5.915v3.872
		l2.812,1.176l2.746-2.746l4.183,4.182l-2.738,2.738l1.157,2.82H39v5.915H35.128z M24,17c-3.866,0-7,3.134-7,7s3.134,7,7,7
		s7-3.134,7-7S27.866,17,24,17z"/>
</g>
<g id="Layer_1">
</g>
</svg>
