<?xml version="1.0" encoding="iso-8859-1"?>
<!-- Generator: Adobe Illustrator 24.3.0, SVG Export Plug-In . SVG Version: 6.00 Build 0)  -->
<svg version="1.1" id="Layer_1" xmlns="http://www.w3.org/2000/svg" xmlns:xlink="http://www.w3.org/1999/xlink" x="0px" y="0px"
	 viewBox="0 0 32 32" style="enable-background:new 0 0 32 32;" xml:space="preserve">
<path id="gear_2_" d="M18.958,31.36h-5.915c-0.199,0-0.36-0.161-0.36-0.36v-3.633l-2.368-0.99l-2.576,2.575
	c-0.141,0.141-0.368,0.141-0.509,0L3.048,24.77c-0.141-0.141-0.141-0.369,0-0.51l2.568-2.568l-0.974-2.375H1
	c-0.199,0-0.36-0.161-0.36-0.36v-5.915c0-0.199,0.161-0.36,0.36-0.36h3.632l0.991-2.368L3.048,7.739
	c-0.141-0.141-0.141-0.368,0-0.509L7.23,3.048C7.298,2.98,7.389,2.942,7.485,2.942l0,0c0.096,0,0.187,0.038,0.254,0.105l2.568,2.569
	l2.375-0.975V1c0-0.199,0.161-0.36,0.36-0.36h5.915c0.199,0,0.36,0.161,0.36,0.36v3.632l2.367,0.991l2.575-2.575
	c0.141-0.141,0.369-0.141,0.51,0l4.183,4.182c0.067,0.067,0.105,0.159,0.105,0.254s-0.038,0.187-0.105,0.254l-2.569,2.568
	l0.975,2.375H31c0.199,0,0.36,0.161,0.36,0.36v5.915c0,0.199-0.161,0.36-0.36,0.36h-3.633l-0.99,2.368l2.576,2.575
	c0.067,0.067,0.105,0.159,0.105,0.255s-0.038,0.188-0.105,0.255l-4.183,4.182c-0.141,0.141-0.369,0.141-0.51,0l-2.568-2.568
	l-2.374,0.974V31C19.318,31.199,19.157,31.36,18.958,31.36z M13.403,30.64h5.195v-3.523c0-0.146,0.089-0.277,0.224-0.333
	l2.819-1.156c0.134-0.057,0.288-0.024,0.392,0.078l2.483,2.483l3.674-3.673l-2.492-2.491c-0.103-0.104-0.134-0.259-0.077-0.394
	l1.176-2.812c0.056-0.134,0.187-0.222,0.332-0.222h3.512v-5.194h-3.522c-0.146,0-0.277-0.088-0.333-0.223l-1.157-2.82
	c-0.055-0.134-0.024-0.289,0.078-0.391l2.484-2.483l-3.674-3.673l-2.491,2.491c-0.104,0.103-0.26,0.134-0.394,0.078L18.82,5.206
	c-0.134-0.056-0.222-0.187-0.222-0.332V1.36h-5.195v3.523c0,0.146-0.088,0.278-0.223,0.333l-2.82,1.157
	c-0.135,0.055-0.289,0.024-0.391-0.079L7.485,3.812L3.812,7.484l2.491,2.492c0.104,0.103,0.134,0.259,0.078,0.394l-1.177,2.812
	c-0.056,0.134-0.187,0.221-0.332,0.221H1.36v5.194h3.524c0.146,0,0.278,0.089,0.333,0.224l1.157,2.82
	c0.055,0.135,0.024,0.289-0.079,0.392l-2.483,2.483l3.673,3.673l2.492-2.491c0.103-0.104,0.26-0.133,0.393-0.077l2.812,1.176
	c0.134,0.056,0.221,0.187,0.221,0.332V30.64z M16,23.36c-4.058,0-7.36-3.302-7.36-7.36S11.942,8.64,16,8.64
	c4.059,0,7.36,3.302,7.36,7.36C23.36,20.059,20.059,23.36,16,23.36z M16,9.36c-3.661,0-6.64,2.979-6.64,6.64s2.979,6.64,6.64,6.64
	s6.64-2.979,6.64-6.64S19.661,9.36,16,9.36z"/>
<rect id="_Transparent_Rectangle" style="fill:none;" width="32" height="32"/>
</svg>
