<?xml version="1.0" encoding="iso-8859-1"?>
<!-- Generator: Adobe Illustrator 26.3.1, SVG Export Plug-In . SVG Version: 6.00 Build 0)  -->
<svg version="1.1" id="Layer_1" xmlns="http://www.w3.org/2000/svg" xmlns:xlink="http://www.w3.org/1999/xlink" x="0px" y="0px"
	 viewBox="0 0 32 32" style="enable-background:new 0 0 32 32;" xml:space="preserve">
<path id="geographic-flexibility_00000071543997527905463350000008026411251832972182_" d="M16,30.36
	C8.216,30.36,1.64,23.784,1.64,16S8.216,1.64,16,1.64S30.36,8.216,30.36,16S23.784,30.36,16,30.36z M16.36,23.36v6.274
	c1.867-0.051,3.655-0.499,5.28-1.262V24.31c-0.461-0.127-0.824-0.49-0.951-0.951L16.36,23.36L16.36,23.36z M9.36,27.854
	c1.879,1.076,4.021,1.72,6.28,1.781V23.36H9.36V27.854z M22.36,24.312v3.697c2.036-1.105,3.781-2.716,5.051-4.648h-4.1
	C23.185,23.821,22.821,24.185,22.36,24.312z M4.589,23.36c1.057,1.608,2.442,2.994,4.051,4.051V23.36H4.589z M22,22.36
	c-0.353,0-0.64,0.287-0.64,0.64s0.287,0.64,0.64,0.64s0.64-0.287,0.64-0.64S22.353,22.36,22,22.36z M23.312,22.64h4.542
	c1.076-1.879,1.72-4.021,1.781-6.28H22.36v5.329C22.821,21.815,23.185,22.179,23.312,22.64z M16.36,22.64h4.212l-4.212-2.268V22.64z
	 M9.36,22.64h6.28v-2.655l-5.657-3.046c-0.168,0.176-0.382,0.307-0.624,0.373L9.36,22.64L9.36,22.64z M4.147,22.64H8.64v-5.328
	c-0.461-0.127-0.825-0.491-0.952-0.952H2.365C2.427,18.618,3.07,20.761,4.147,22.64z M16.36,19.554l4.657,2.508
	c0.168-0.176,0.383-0.307,0.623-0.373V16.36h-5.28C16.36,16.36,16.36,19.554,16.36,19.554z M10.428,16.36l5.212,2.806V16.36H10.428z
	 M9,15.36c-0.353,0-0.64,0.287-0.64,0.64S8.647,16.64,9,16.64S9.64,16.353,9.64,16S9.353,15.36,9,15.36z M22.36,15.64h7.274
	c-0.062-2.259-0.705-4.401-1.781-6.28h-4.542c-0.127,0.461-0.49,0.825-0.951,0.952V15.64z M16.36,15.64h5.28v-5.329
	c-0.241-0.066-0.455-0.197-0.623-0.373l-4.657,2.507C16.36,12.445,16.36,15.64,16.36,15.64z M10.428,15.64h5.212v-2.807
	L10.428,15.64z M2.365,15.64h5.324c0.126-0.461,0.491-0.825,0.952-0.952V9.36H4.147C3.07,11.239,2.427,13.381,2.365,15.64z
	 M9.36,14.688c0.241,0.066,0.456,0.197,0.624,0.373l5.657-3.046V9.36H9.36V14.688z M16.36,9.36v2.268l4.211-2.268H16.36z M22,8.36
	c-0.353,0-0.64,0.287-0.64,0.64S21.647,9.64,22,9.64S22.64,9.353,22.64,9S22.353,8.36,22,8.36z M23.312,8.64h4.1
	c-1.27-1.934-3.015-3.544-5.051-4.649v3.698C22.821,7.815,23.185,8.179,23.312,8.64z M16.36,8.64h4.329
	c0.127-0.461,0.49-0.825,0.951-0.952V3.627c-1.625-0.762-3.413-1.21-5.28-1.262V8.64z M9.36,8.64h6.28V2.365
	c-2.259,0.062-4.401,0.706-6.28,1.782C9.36,4.147,9.36,8.64,9.36,8.64z M4.589,8.64H8.64V4.589C7.031,5.646,5.646,7.031,4.589,8.64z
	"/>
<rect id="_Transparent_Rectangle" style="fill:none;" width="32" height="32"/>
</svg>
