<?xml version="1.0" encoding="iso-8859-1"?>
<!-- Generator: Adobe Illustrator 24.1.2, SVG Export Plug-In . SVG Version: 6.00 Build 0)  -->
<svg version="1.1" id="Layer_1" xmlns="http://www.w3.org/2000/svg" xmlns:xlink="http://www.w3.org/1999/xlink" x="0px" y="0px"
	 viewBox="0 0 32 32" style="enable-background:new 0 0 32 32;" xml:space="preserve">
<path id="get--ahead--of--risk--and--compliance_1_" d="M25,31.36H7v-0.72h5.657c0.157-1.615,1.367-2.825,2.983-2.982V12.333
	c-1.131-0.174-2-1.154-2-2.333s0.869-2.159,2-2.333V4.334L6.876,6.838c2.012,0.595,3.484,2.46,3.484,4.662
	c0,2.68-2.18,4.86-4.86,4.86s-4.86-2.18-4.86-4.86c0-2.479,1.866-4.531,4.267-4.824L4.901,6.654l20.999-6
	c0.149-0.042,0.321,0.021,0.406,0.155l5,8c0.069,0.111,0.072,0.251,0.009,0.365C31.251,9.289,31.131,9.36,31,9.36H21
	c-0.131,0-0.251-0.071-0.314-0.186c-0.063-0.114-0.061-0.254,0.009-0.365l4.504-7.206L16.36,4.129v3.539
	c1.131,0.174,2,1.154,2,2.333s-0.869,2.159-2,2.333v15.325c1.616,0.157,2.826,1.367,2.983,2.982H25V31.36z M13.382,30.64h5.236
	c-0.166-1.323-1.235-2.28-2.618-2.28C14.618,28.36,13.547,29.317,13.382,30.64z M5.5,7.36c-2.283,0-4.14,1.857-4.14,4.14
	s1.857,4.14,4.14,4.14s4.14-1.857,4.14-4.14S7.783,7.36,5.5,7.36z M16,8.36c-0.904,0-1.64,0.736-1.64,1.64s0.736,1.64,1.64,1.64
	c0.904,0,1.64-0.736,1.64-1.64S16.904,8.36,16,8.36z M21.649,8.64h8.701L26,1.679L21.649,8.64z"/>
<rect id="_Transparent_Rectangle" style="fill:none;" width="32" height="32"/>
</svg>
