<?xml version="1.0" encoding="iso-8859-1"?>
<!-- Generator: Adobe Illustrator 29.1.0, SVG Export Plug-In . SVG Version: 9.03 Build 55587)  -->
<svg version="1.1" id="Layer_1" xmlns="http://www.w3.org/2000/svg" xmlns:xlink="http://www.w3.org/1999/xlink" x="0px" y="0px"
	 viewBox="0 0 32 32" style="enable-background:new 0 0 32 32;" xml:space="preserve">
<path id="global--currency--02_00000002365159143237295160000011399451716596455327_" d="M31,28.36H1c-0.199,0-0.36-0.161-0.36-0.36
	v-2h0.72v1.64h29.28V26h0.721v2C31.36,28.199,31.199,28.36,31,28.36z M31,24.36H1c-0.199,0-0.36-0.161-0.36-0.36v-2h0.72v1.64h29.28
	V22h0.721v2C31.36,24.199,31.199,24.36,31,24.36z M31,20.36H1c-0.199,0-0.36-0.161-0.36-0.36V4c0-0.199,0.161-0.36,0.36-0.36h30
	c0.199,0,0.36,0.161,0.36,0.36v16C31.36,20.199,31.199,20.36,31,20.36z M27.384,19.64h3.256v-3.256
	C29.08,16.589,27.589,18.08,27.384,19.64z M5.341,19.64h21.318c0.204-1.95,2.03-3.776,3.98-3.98V8.341
	c-1.95-0.205-3.776-2.03-3.98-3.981H5.341C5.136,6.311,3.311,8.136,1.36,8.341v7.318C3.311,15.864,5.136,17.689,5.341,19.64z
	 M1.36,19.64h3.256c-0.205-1.56-1.697-3.051-3.256-3.256C1.36,16.384,1.36,19.64,1.36,19.64z M27.384,4.36
	c0.205,1.56,1.696,3.051,3.256,3.256V4.36H27.384z M1.36,4.36v3.256C2.92,7.411,4.411,5.919,4.616,4.36H1.36z M16,18.36
	c-3.507,0-6.36-2.854-6.36-6.36S12.493,5.64,16,5.64s6.36,2.853,6.36,6.36S19.507,18.36,16,18.36z M16.36,15.36v2.225
	c0.703-0.215,1.328-1.048,1.744-2.225C18.104,15.36,16.36,15.36,16.36,15.36z M13.896,15.36c0.417,1.177,1.041,2.01,1.744,2.225
	V15.36H13.896z M18.868,15.36c-0.255,0.789-0.598,1.459-1.006,1.964c1.073-0.376,1.998-1.068,2.665-1.964H18.868z M11.473,15.36
	c0.667,0.896,1.592,1.588,2.665,1.964c-0.408-0.505-0.751-1.176-1.006-1.964H11.473z M19.067,14.64h1.916
	c0.366-0.688,0.594-1.46,0.646-2.28h-2.274C19.332,13.174,19.231,13.942,19.067,14.64z M16.36,14.64h1.962
	c0.176-0.692,0.287-1.466,0.312-2.28H16.36V14.64z M13.678,14.64h1.962v-2.28h-2.274C13.391,13.174,13.501,13.948,13.678,14.64z
	 M11.017,14.64h1.915c-0.164-0.698-0.264-1.466-0.287-2.28h-2.273C10.423,13.18,10.651,13.952,11.017,14.64z M19.354,11.64h2.274
	c-0.052-0.82-0.279-1.592-0.646-2.28h-1.916C19.231,10.058,19.332,10.826,19.354,11.64z M16.36,11.64h2.275
	c-0.025-0.814-0.137-1.588-0.312-2.28H16.36V11.64z M13.366,11.64h2.274V9.36h-1.962C13.501,10.052,13.391,10.826,13.366,11.64z
	 M10.372,11.64h2.273c0.023-0.814,0.123-1.582,0.287-2.28h-1.915C10.651,10.048,10.423,10.82,10.372,11.64z M18.868,8.64h1.659
	c-0.667-0.896-1.592-1.588-2.665-1.964C18.271,7.181,18.613,7.852,18.868,8.64z M16.36,8.64h1.744
	c-0.416-1.177-1.041-2.01-1.744-2.225V8.64z M13.896,8.64h1.744V6.415C14.937,6.63,14.313,7.463,13.896,8.64z M11.473,8.64h1.659
	c0.255-0.789,0.598-1.459,1.006-1.964C13.065,7.052,12.139,7.744,11.473,8.64z M26.5,13.86c-1.025,0-1.86-0.834-1.86-1.86
	s0.835-1.86,1.86-1.86s1.86,0.834,1.86,1.86S27.525,13.86,26.5,13.86z M26.5,10.86c-0.629,0-1.14,0.512-1.14,1.14
	s0.511,1.14,1.14,1.14s1.14-0.512,1.14-1.14S27.129,10.86,26.5,10.86z M5.5,13.86c-1.025,0-1.86-0.834-1.86-1.86
	s0.834-1.86,1.86-1.86S7.36,10.975,7.36,12S6.525,13.86,5.5,13.86z M5.5,10.86c-0.628,0-1.14,0.512-1.14,1.14s0.512,1.14,1.14,1.14
	S6.64,12.628,6.64,12S6.128,10.86,5.5,10.86z"/>
<rect id="_Transparent_Rectangle" style="fill:none;" width="32" height="32"/>
</svg>
