<?xml version="1.0" encoding="iso-8859-1"?>
<!-- Generator: Adobe Illustrator 22.0.0, SVG Export Plug-In . SVG Version: 6.00 Build 0)  -->
<svg version="1.1" xmlns="http://www.w3.org/2000/svg" xmlns:xlink="http://www.w3.org/1999/xlink" x="0px" y="0px"
	 viewBox="0 0 48 48" style="enable-background:new 0 0 48 48;" xml:space="preserve">
<g id="global_business_services">
	
		<path id="global_business_services_1_" style="fill:none;stroke:#000000;stroke-width:0.72;stroke-linecap:round;stroke-linejoin:round;stroke-miterlimit:10;" d="
		M10.441,28.323l1.668-3.329h1.886l1.886-5.653l2.829,2.825l3.281-3.276 M16.5,16.5C12.358,16.5,9,19.858,9,24s3.358,7.5,7.5,7.5
		S24,28.142,24,24S20.642,16.5,16.5,16.5z M17.572,31.424C19.769,34.211,23.176,36,27,36c6.627,0,12-5.373,12-12s-5.373-12-12-12
		c-3.824,0-7.231,1.789-9.428,4.576 M27,36V12 M24,24h15 M21,18h16.394 M21,30h16.394 M21.653,29.449C22.646,33.338,24.667,36,27,36
		c3.314,0,6-5.373,6-12s-2.686-12-6-12c-2.333,0-4.354,2.662-5.347,6.55"/>
</g>
<g id="Layer_1">
</g>
</svg>
