<?xml version="1.0" encoding="iso-8859-1"?>
<!-- Generator: Adobe Illustrator 24.1.2, SVG Export Plug-In . SVG Version: 6.00 Build 0)  -->
<svg version="1.1" xmlns="http://www.w3.org/2000/svg" xmlns:xlink="http://www.w3.org/1999/xlink" x="0px" y="0px"
	 viewBox="0 0 48 48" style="enable-background:new 0 0 48 48;" xml:space="preserve">
<g id="global--currency">
	<g id="global--currency_1_">
		<path style="fill:none;stroke:#000000;stroke-width:0.72;stroke-linejoin:round;stroke-miterlimit:10;" d="M9,13
			c2.209,0,4-1.791,4-4"/>
		<path style="fill:none;stroke:#000000;stroke-width:0.72;stroke-linejoin:round;stroke-miterlimit:10;" d="M13,25
			c0-2.209-1.791-4-4-4"/>
		<path style="fill:none;stroke:#000000;stroke-width:0.72;stroke-linejoin:round;stroke-miterlimit:10;" d="M39,21
			c-2.209,0-4,1.791-4,4"/>
		<path style="fill:none;stroke:#000000;stroke-width:0.72;stroke-linejoin:round;stroke-miterlimit:10;" d="M35,9
			c0,2.209,1.791,4,4,4"/>
		
			<rect x="9" y="9.002" style="fill:none;stroke:#000000;stroke-width:0.72;stroke-linejoin:round;stroke-miterlimit:10;" width="30" height="16"/>
		<circle style="fill:none;stroke:#000000;stroke-width:0.72;stroke-linejoin:round;stroke-miterlimit:10;" cx="24" cy="17" r="6"/>
		
			<circle style="fill:none;stroke:#000000;stroke-width:0.72;stroke-linejoin:round;stroke-miterlimit:10;" cx="13.5" cy="17" r="1.5"/>
		
			<circle style="fill:none;stroke:#000000;stroke-width:0.72;stroke-linejoin:round;stroke-miterlimit:10;" cx="34.5" cy="17" r="1.5"/>
		
			<ellipse style="fill:none;stroke:#000000;stroke-width:0.72;stroke-linejoin:round;stroke-miterlimit:10;" cx="24" cy="17" rx="3" ry="6"/>
		
			<line style="fill:none;stroke:#000000;stroke-width:0.72;stroke-linejoin:round;stroke-miterlimit:10;" x1="24" y1="23" x2="24" y2="11"/>
		
			<line style="fill:none;stroke:#000000;stroke-width:0.72;stroke-linejoin:round;stroke-miterlimit:10;" x1="18" y1="17" x2="30" y2="17"/>
		
			<line style="fill:none;stroke:#000000;stroke-width:0.72;stroke-linejoin:round;stroke-miterlimit:10;" x1="18.803" y1="14" x2="29.197" y2="14"/>
		
			<line style="fill:none;stroke:#000000;stroke-width:0.72;stroke-linejoin:round;stroke-miterlimit:10;" x1="18.803" y1="20" x2="29.197" y2="20"/>
		<path style="fill:none;stroke:#000000;stroke-width:0.72;stroke-linejoin:round;stroke-miterlimit:10;" d="M26.305,33.548
			l6.281-5.132c0.286-0.242,0.638-0.416,1-0.416c0.362,0,0.724,0.14,1,0.416l0,0c0.552,0.552,0.552,1.448,0,2l-6.067,6.102
			c-0.314,0.314-0.723,0.514-1.164,0.569L20,38l-1,1"/>
		<path style="fill:none;stroke:#000000;stroke-width:0.72;stroke-linejoin:round;stroke-miterlimit:10;" d="M10,39l3-3
			c0-2.769,2.231-5,5-5h8c0.552,0,1,0.448,1,1l0,0c0,1.104-0.896,2-2,2h-5"/>
	</g>
</g>
<g id="Layer_1">
</g>
</svg>
