<?xml version="1.0" encoding="iso-8859-1"?>
<!-- Generator: Adobe Illustrator 24.1.2, SVG Export Plug-In . SVG Version: 6.00 Build 0)  -->
<svg version="1.1" id="global--partner_1_" xmlns="http://www.w3.org/2000/svg" xmlns:xlink="http://www.w3.org/1999/xlink" x="0px"
	 y="0px" viewBox="0 0 48 48" style="enable-background:new 0 0 48 48;" xml:space="preserve">
<g id="global--partner">
	
		<line style="fill:none;stroke:#000000;stroke-width:0.72;stroke-linejoin:round;stroke-miterlimit:10;" x1="11.75" y1="17" x2="36.127" y2="17"/>
	<path style="fill:none;stroke:#000000;stroke-width:0.72;stroke-linejoin:round;stroke-miterlimit:10;" d="M10,24
		c0-7.732,6.268-14,14-14s14,6.268,14,14"/>
	<path style="fill:none;stroke:#000000;stroke-width:0.72;stroke-linejoin:round;stroke-miterlimit:10;" d="M17,24
		c0-7.732,3.134-14,7-14s7,6.268,7,14"/>
	
		<line style="fill:none;stroke:#000000;stroke-width:0.72;stroke-linejoin:round;stroke-miterlimit:10;" x1="24" y1="24" x2="24" y2="10"/>
	
		<line style="fill:none;stroke:#000000;stroke-width:0.72;stroke-linejoin:round;stroke-miterlimit:10;" x1="22.5" y1="28" x2="17" y2="28"/>
	
		<line style="fill:none;stroke:#000000;stroke-width:0.72;stroke-linejoin:round;stroke-miterlimit:10;" x1="28" y1="35" x2="31" y2="35"/>
	<polyline style="fill:none;stroke:#000000;stroke-width:0.72;stroke-linejoin:round;stroke-miterlimit:10;" points="10,27 17,27 
		17,36 10,36 	"/>
	<polyline style="fill:none;stroke:#000000;stroke-width:0.72;stroke-linejoin:round;stroke-miterlimit:10;" points="38,27 31,27 
		31,36 38,36 	"/>
	<path style="fill:none;stroke:#000000;stroke-width:0.72;stroke-linejoin:round;stroke-miterlimit:10;" d="M31,28l-4-1h-2.749
		c-0.484,0-0.952,0.176-1.316,0.495l-3.185,2.787c-0.136,0.118-0.143,0.325-0.016,0.452c0.721,0.721,1.868,0.785,2.664,0.148
		L23.5,30h2l2.689,5.259c0.277,0.479,0.113,1.09-0.365,1.366c-0.479,0.276-1.09,0.113-1.366-0.366l-1.5-2.598"/>
	<path style="fill:none;stroke:#000000;stroke-width:0.72;stroke-linejoin:round;stroke-miterlimit:10;" d="M17,35h1.5l2.23,3.162
		c0.339,0.379,0.907,0.443,1.322,0.151l0.692-0.487l-1.25-2.165"/>
	<path style="fill:none;stroke:#000000;stroke-width:0.72;stroke-linejoin:round;stroke-miterlimit:10;" d="M24.958,33.661
		l1.75,3.031l-0.866,0.5c-0.478,0.276-1.09,0.113-1.366-0.366l-1-1.732"/>
	<path style="fill:none;stroke:#000000;stroke-width:0.72;stroke-linejoin:round;stroke-miterlimit:10;" d="M23.226,34.661
		l1.5,2.598l-0.866,0.5c-0.478,0.277-1.09,0.112-1.366-0.366l-1-1.732"/>
</g>
</svg>
