<?xml version="1.0" encoding="iso-8859-1"?>
<!-- Generator: Adobe Illustrator 24.1.2, SVG Export Plug-In . SVG Version: 6.00 Build 0)  -->
<svg version="1.1" id="Layer_1" xmlns="http://www.w3.org/2000/svg" xmlns:xlink="http://www.w3.org/1999/xlink" x="0px" y="0px"
	 viewBox="0 0 32 32" style="enable-background:new 0 0 32 32;" xml:space="preserve">
<path id="global--markets--bar_1_" d="M18.64,14.36h2.721v-3.72H18.64V14.36z M19.36,11.36h1.279v2.28H19.36V11.36z M22.64,14.36
	h2.721V7.64H22.64V14.36z M23.36,8.36h1.279v5.28H23.36V8.36z M29.36,4.64h-2.72v9.72h2.721L29.36,4.64L29.36,4.64z M28.64,13.64
	h-1.28V5.36h1.279L28.64,13.64L28.64,13.64z M31,15.64H16.36V8.36H21V7.64h-4.64V1.404c1.836,0.221,3.589,1.909,4.857,4.743
	l0.656-0.294c-0.863-1.929-1.958-3.361-3.17-4.236c2.196,0.408,4.265,1.305,6.083,2.671l0.432-0.575
	C22.544,1.703,19.356,0.64,16,0.64c-0.01,0-0.02,0.002-0.03,0.002c-0.005,0-0.01-0.002-0.015-0.002
	c-0.016,0-0.031,0.004-0.047,0.005C7.481,0.695,0.64,7.561,0.64,16c0,0.199,0.161,0.36,0.36,0.36h14.64V30.6
	c-1.855-0.198-3.627-1.894-4.906-4.755l-0.657,0.293c0.856,1.917,1.942,3.343,3.143,4.222c-3.147-0.61-6.041-2.231-8.197-4.673
	l-0.54,0.477C7.399,29.466,11.597,31.36,16,31.36c8.47,0,15.36-6.891,15.36-15.36C31.36,15.801,31.199,15.64,31,15.64z
	 M23.131,16.36c-0.032,2.665-0.413,5.149-1.052,7.28H16.36v-7.28H23.131z M16.36,24.36h5.493c-1.227,3.6-3.221,6.008-5.493,6.242
	V24.36z M15.64,7.64h-5.538c1.235-3.624,3.248-6.041,5.538-6.248V7.64z M13.182,1.646C11.609,2.811,10.276,4.924,9.37,7.64H3.994
	C6.128,4.586,9.396,2.389,13.182,1.646z M3.534,8.36h5.612c-0.636,2.155-1.01,4.634-1.042,7.28h-6.74
	C1.429,12.974,2.223,10.492,3.534,8.36z M8.824,15.64c0.032-2.665,0.413-5.149,1.052-7.28h5.764v7.28
	C15.64,15.64,8.824,15.64,8.824,15.64z M18.76,30.364c1.579-1.162,2.917-3.28,3.825-6.004h5.42
	C25.861,27.43,22.57,29.633,18.76,30.364z M28.466,23.64h-5.657c0.636-2.155,1.01-4.634,1.042-7.28h6.785
	C30.571,19.026,29.777,21.508,28.466,23.64z M14.36,24v-6c0-0.199-0.161-0.36-0.36-0.36H2c-0.199,0-0.36,0.161-0.36,0.36v6
	c0,0.199,0.161,0.36,0.36,0.36h12C14.199,24.36,14.36,24.199,14.36,24z M11.677,23.64H4.323c-0.157-1.012-0.952-1.807-1.964-1.964
	v-1.352c1.012-0.157,1.807-0.952,1.964-1.964h7.353c0.157,1.012,0.952,1.807,1.964,1.964v1.352
	C12.629,21.833,11.833,22.628,11.677,23.64z M13.64,19.597c-0.615-0.139-1.099-0.622-1.237-1.237h1.237
	C13.64,18.36,13.64,19.597,13.64,19.597z M3.597,18.36c-0.139,0.615-0.623,1.098-1.237,1.237V18.36H3.597z M2.36,22.403
	c0.615,0.139,1.099,0.622,1.237,1.237H2.36V22.403z M12.403,23.64c0.139-0.615,0.623-1.098,1.237-1.237v1.237H12.403z M8,19.64
	c-0.75,0-1.36,0.61-1.36,1.36S7.25,22.36,8,22.36S9.36,21.75,9.36,21S8.75,19.64,8,19.64z M8,21.64c-0.353,0-0.64-0.287-0.64-0.64
	S7.647,20.36,8,20.36c0.353,0,0.64,0.287,0.64,0.64S8.353,21.64,8,21.64z M4,20.64h1v0.721H4V20.64z M11,20.64h1v0.721h-1V20.64z"/>
<rect id="_Transparent_Rectangle" style="fill:none;" width="32" height="32"/>
</svg>
