<?xml version="1.0" encoding="iso-8859-1"?>
<!-- Generator: Adobe Illustrator 24.1.2, SVG Export Plug-In . SVG Version: 6.00 Build 0)  -->
<svg version="1.1" xmlns="http://www.w3.org/2000/svg" xmlns:xlink="http://www.w3.org/1999/xlink" x="0px" y="0px"
	 viewBox="0 0 48 48" style="enable-background:new 0 0 48 48;" xml:space="preserve">
<g id="global--analytics">
	<g id="global--analytics_1_">
		<g>
			<polyline style="fill:none;stroke:#000000;stroke-width:0.72;stroke-miterlimit:10;" points="26,32 27.542,29.5 29,32 31,29 
				33,31 34.626,27.993 			"/>
		</g>
		<circle style="fill:none;stroke:#000000;stroke-width:0.72;stroke-miterlimit:10;" cx="30" cy="30" r="6"/>
		<path style="fill:none;stroke:#000000;stroke-width:0.72;stroke-linejoin:round;stroke-miterlimit:10;" d="M34.399,25.919
			C34.789,24.683,35,23.366,35,22c0-7.18-5.82-13-13-13S9,14.82,9,22s5.82,13,13,13c1.366,0,2.683-0.211,3.919-0.601"/>
		<path style="fill:none;stroke:#000000;stroke-width:0.72;stroke-linejoin:round;stroke-miterlimit:10;" d="M28.5,22
			c0-7.18-2.91-13-6.5-13s-6.5,5.82-6.5,13s2.91,13,6.5,13"/>
		
			<line style="fill:none;stroke:#000000;stroke-width:0.72;stroke-linejoin:round;stroke-miterlimit:10;" x1="22" y1="35" x2="22" y2="9"/>
		
			<line style="fill:none;stroke:#000000;stroke-width:0.72;stroke-linejoin:round;stroke-miterlimit:10;" x1="9" y1="22" x2="35" y2="22"/>
		
			<line style="fill:none;stroke:#000000;stroke-width:0.72;stroke-linejoin:round;stroke-miterlimit:10;" x1="10.739" y1="15.5" x2="33.261" y2="15.5"/>
		
			<line style="fill:none;stroke:#000000;stroke-width:0.72;stroke-linejoin:round;stroke-miterlimit:10;" x1="10.739" y1="28.5" x2="22" y2="28.5"/>
		<line style="fill:none;stroke:#000000;stroke-width:0.72;stroke-miterlimit:10;" x1="39" y1="39" x2="34.243" y2="34.243"/>
	</g>
</g>
<g id="Layer_1">
</g>
</svg>
