<?xml version="1.0" encoding="iso-8859-1"?>
<!-- Generator: Adobe Illustrator 24.1.2, SVG Export Plug-In . SVG Version: 6.00 Build 0)  -->
<svg version="1.1" id="Layer_1" xmlns="http://www.w3.org/2000/svg" xmlns:xlink="http://www.w3.org/1999/xlink" x="0px" y="0px"
	 viewBox="0 0 32 32" style="enable-background:new 0 0 32 32;" xml:space="preserve">
<path id="global--finance--euro_1_" d="M21.36,17.008h1.485v0.721H21.36V19h-0.72v-1.271h-1.485v-0.721h1.485v-0.646l-1.763-2.133
	l0.555-0.459L21,15.668l1.568-1.897l0.555,0.459l-1.763,2.133V17.008z M31.36,16c0,8.47-6.891,15.36-15.36,15.36S0.64,24.47,0.64,16
	S7.53,0.64,16,0.64S31.36,7.53,31.36,16z M3.535,23.64h3.8c-0.809-2.155-1.285-4.634-1.325-7.28H1.378
	C1.443,19.025,2.224,21.509,3.535,23.64z M16.36,7.64h7.25c-1.614-3.644-4.251-6.069-7.25-6.252V7.64z M15.64,1.389
	C10.766,1.686,6.849,7.925,6.729,15.64h8.911V1.389z M7.336,8.36h-3.8c-1.311,2.131-2.092,4.616-2.157,7.281h4.632
	C6.05,12.994,6.527,10.515,7.336,8.36z M15.64,30.611V16.36H6.729C6.849,24.075,10.766,30.314,15.64,30.611z M16.36,30.611
	c2.998-0.183,5.635-2.607,7.249-6.251H16.36V30.611z M23.903,23.64c0.869-2.227,1.379-4.838,1.379-7.64s-0.51-5.413-1.379-7.64
	H16.36v15.28H23.903z M24.666,23.64h3.799c1.311-2.131,2.092-4.615,2.157-7.28h-4.621v-0.272
	C25.99,18.837,25.502,21.411,24.666,23.64z M30.621,15.64c-0.065-2.665-0.846-5.149-2.157-7.28h-3.799
	c0.837,2.229,1.324,4.803,1.335,7.551V15.64L30.621,15.64z M19.997,1.929c1.799,1.21,3.32,3.209,4.383,5.711h3.621
	C26.093,4.909,23.279,2.863,19.997,1.929z M3.998,7.64H7.62c1.062-2.503,2.584-4.502,4.383-5.712
	C8.721,2.862,5.907,4.908,3.998,7.64z M12.002,30.071c-1.798-1.21-3.319-3.208-4.381-5.71H3.999
	C5.907,27.091,8.72,29.137,12.002,30.071z M28.001,24.36H24.38c-1.062,2.502-2.583,4.5-4.381,5.71
	C23.28,29.136,26.092,27.091,28.001,24.36z M9.64,9c0,0.75,0.61,1.36,1.359,1.36h2c0.353,0,0.64,0.287,0.64,0.64
	s-0.287,0.64-0.64,0.64h-3v0.72h1.64v1.14h0.72v-1.14H13c0.75,0,1.36-0.61,1.36-1.36S13.75,9.64,13,9.64h-2
	c-0.353,0-0.64-0.287-0.64-0.64S10.647,8.36,11,8.36h3V7.64h-1.64V6.5h-0.72v1.14H11C10.25,7.64,9.64,8.25,9.64,9z M14,24.36v-0.72
	h-2c-0.904,0-1.64-0.735-1.64-1.64v-0.14H13v-0.72h-2.64V21c0-0.904,0.736-1.64,1.64-1.64h2v-0.72h-2c-1.301,0-2.36,1.059-2.36,2.36
	v1c0,1.302,1.059,2.36,2.36,2.36H14z"/>
<rect id="_Transparent_Rectangle" style="fill:none;" width="32" height="32"/>
</svg>
