<?xml version="1.0" encoding="iso-8859-1"?>
<!-- Generator: Adobe Illustrator 26.3.1, SVG Export Plug-In . SVG Version: 6.00 Build 0)  -->
<svg version="1.1" id="Layer_1" xmlns="http://www.w3.org/2000/svg" xmlns:xlink="http://www.w3.org/1999/xlink" x="0px" y="0px"
	 viewBox="0 0 32 32" style="enable-background:new 0 0 32 32;" xml:space="preserve">
<path id="global--footprint_00000005977821501345667460000014663869132743789746_" d="M16,31.36c-0.653,0-1.199-0.463-1.33-1.076
	c-4.199-0.385-7.956-2.549-10.391-5.986c-0.128,0.04-0.265,0.062-0.406,0.062c-0.75,0-1.36-0.61-1.36-1.36
	c0-0.4,0.174-0.761,0.45-1.01C2.085,20.088,1.64,18.074,1.64,16s0.445-4.088,1.323-5.99C2.687,9.761,2.513,9.4,2.513,9
	c0-0.75,0.61-1.36,1.36-1.36c0.142,0,0.278,0.021,0.406,0.062c2.435-3.437,6.191-5.6,10.391-5.986C14.801,1.102,15.347,0.64,16,0.64
	s1.199,0.462,1.33,1.076c4.2,0.385,7.956,2.549,10.391,5.986c0.128-0.041,0.265-0.062,0.406-0.062c0.75,0,1.36,0.61,1.36,1.36
	c0,0.4-0.174,0.761-0.45,1.01c0.878,1.902,1.323,3.916,1.323,5.99c0,2.077-0.445,4.091-1.323,5.99c0.276,0.249,0.45,0.609,0.45,1.01
	c0,0.75-0.61,1.36-1.36,1.36c-0.143,0-0.28-0.022-0.41-0.063c-2.436,3.436-6.194,5.602-10.387,5.987
	C17.199,30.897,16.653,31.36,16,31.36z M16,29.36c-0.353,0-0.64,0.287-0.64,0.64s0.287,0.64,0.64,0.64s0.64-0.287,0.64-0.64
	S16.353,29.36,16,29.36z M4.885,23.907c2.12,2.978,5.285,4.943,8.86,5.533c-1.368-1.148-2.494-3.317-3.218-6.08H5.185
	C5.128,23.566,5.024,23.753,4.885,23.907z M21.473,23.36c-0.724,2.762-1.85,4.932-3.218,6.079c3.571-0.59,6.738-2.558,8.857-5.535
	c-0.138-0.153-0.24-0.34-0.297-0.544H21.473z M16,28.64c0.5,0,0.938,0.271,1.174,0.674c1.489-0.79,2.752-2.997,3.552-5.953h-9.451
	c0.799,2.956,2.062,5.163,3.551,5.953C15.062,28.911,15.5,28.64,16,28.64z M28.127,22.36c-0.353,0-0.64,0.287-0.64,0.64
	s0.287,0.64,0.64,0.64s0.64-0.287,0.64-0.64S28.479,22.36,28.127,22.36z M3.873,22.36c-0.353,0-0.64,0.287-0.64,0.64
	s0.287,0.64,0.64,0.64s0.64-0.287,0.64-0.64S4.226,22.36,3.873,22.36z M21.649,22.64h5.166c0.181-0.659,0.9-1.108,1.578-0.974
	c0.827-1.798,1.246-3.702,1.246-5.666c0-1.961-0.419-3.866-1.246-5.666c-0.439,0.085-0.916-0.065-1.222-0.367l-4.965,2.866
	c0.101,1.021,0.153,2.081,0.153,3.167C22.36,18.388,22.105,20.648,21.649,22.64z M11.093,22.64h9.814
	c0.467-1.983,0.732-4.256,0.732-6.64c0-0.944-0.041-1.871-0.121-2.77L10.56,19.555C10.686,20.639,10.865,21.674,11.093,22.64z
	 M5.216,22.64h5.134c-0.195-0.852-0.353-1.752-0.47-2.691L5.216,22.64z M3.873,21.64c0.372,0,0.709,0.15,0.955,0.394l4.965-2.866
	C9.693,18.146,9.64,17.087,9.64,16c0-2.388,0.254-4.648,0.71-6.64H5.185c-0.182,0.66-0.9,1.107-1.578,0.974
	C2.779,12.134,2.36,14.039,2.36,16s0.419,3.866,1.247,5.666C3.693,21.649,3.782,21.64,3.873,21.64z M11.093,9.36
	c-0.467,1.983-0.733,4.257-0.733,6.64c0,0.944,0.042,1.871,0.121,2.77l10.958-6.325c-0.125-1.083-0.305-2.119-0.532-3.085
	C20.907,9.36,11.093,9.36,11.093,9.36z M21.649,9.36c0.195,0.852,0.354,1.753,0.471,2.692l4.663-2.692
	C26.783,9.36,21.649,9.36,21.649,9.36z M28.127,8.36c-0.353,0-0.64,0.287-0.64,0.64s0.287,0.64,0.64,0.64s0.64-0.287,0.64-0.64
	S28.479,8.36,28.127,8.36z M3.873,8.36c-0.353,0-0.64,0.287-0.64,0.64s0.287,0.64,0.64,0.64S4.513,9.353,4.513,9
	S4.226,8.36,3.873,8.36z M21.473,8.64h5.343c0.057-0.206,0.16-0.393,0.3-0.548c-2.119-2.977-5.285-4.943-8.86-5.532
	C19.623,3.708,20.748,5.876,21.473,8.64z M11.275,8.64h9.451c-0.8-2.957-2.062-5.164-3.552-5.954C16.937,3.089,16.5,3.36,16,3.36
	s-0.937-0.271-1.174-0.673C13.337,3.477,12.074,5.684,11.275,8.64z M5.185,8.64h5.342c0.725-2.764,1.851-4.933,3.219-6.08
	c-3.576,0.589-6.741,2.556-8.86,5.532C5.024,8.247,5.128,8.434,5.185,8.64z M16,1.36c-0.353,0-0.64,0.287-0.64,0.64
	S15.647,2.64,16,2.64c0.353,0,0.64-0.287,0.64-0.64S16.353,1.36,16,1.36z"/>
<rect id="_Transparent_Rectangle" style="fill:none;" width="32" height="32"/>
</svg>
