<?xml version="1.0" encoding="iso-8859-1"?>
<!-- Generator: Adobe Illustrator 24.1.2, SVG Export Plug-In . SVG Version: 6.00 Build 0)  -->
<svg version="1.1" xmlns="http://www.w3.org/2000/svg" xmlns:xlink="http://www.w3.org/1999/xlink" x="0px" y="0px"
	 viewBox="0 0 48 48" style="enable-background:new 0 0 48 48;" xml:space="preserve">
<g id="global--security">
	<g id="global--security_1_">
		<circle style="fill:none;stroke:#000000;stroke-width:0.72;stroke-linejoin:round;stroke-miterlimit:10;" cx="11" cy="16" r="1"/>
		<circle style="fill:none;stroke:#000000;stroke-width:0.72;stroke-linejoin:round;stroke-miterlimit:10;" cx="30" cy="16" r="1"/>
		<circle style="fill:none;stroke:#000000;stroke-width:0.72;stroke-linejoin:round;stroke-miterlimit:10;" cx="23" cy="23" r="1"/>
		<circle style="fill:none;stroke:#000000;stroke-width:0.72;stroke-linejoin:round;stroke-miterlimit:10;" cx="16" cy="30" r="1"/>
		<path style="fill:none;stroke:#000000;stroke-width:0.72;stroke-linejoin:round;stroke-miterlimit:10;" d="M16.403,30.912
			C17.844,34.587,20.26,37,23,37h2"/>
		<path style="fill:none;stroke:#000000;stroke-width:0.72;stroke-linejoin:round;stroke-miterlimit:10;" d="M29.597,15.087
			C28.156,11.413,25.74,9,23,9c-4.418,0-8,6.268-8,14c0,2.167,0.29,4.211,0.792,6.042"/>
		<path style="fill:none;stroke:#000000;stroke-width:0.72;stroke-linejoin:round;stroke-miterlimit:10;" d="M31,23
			c0-2.167-0.29-4.211-0.792-6.042"/>
		
			<line style="fill:none;stroke:#000000;stroke-width:0.72;stroke-linejoin:round;stroke-miterlimit:10;" x1="23" y1="24" x2="23" y2="37"/>
		
			<line style="fill:none;stroke:#000000;stroke-width:0.72;stroke-linejoin:round;stroke-miterlimit:10;" x1="23" y1="9" x2="23" y2="22"/>
		<g>
			<path style="fill:none;stroke:#000000;stroke-width:0.72;stroke-linejoin:round;stroke-miterlimit:10;" d="M9,23
				c0,7.732,6.268,14,14,14"/>
			<path style="fill:none;stroke:#000000;stroke-width:0.72;stroke-linejoin:round;stroke-miterlimit:10;" d="M24,23h13
				c0-7.732-6.268-14-14-14c-4.805,0-9.042,2.423-11.563,6.111"/>
			<path style="fill:none;stroke:#000000;stroke-width:0.72;stroke-linejoin:round;stroke-miterlimit:10;" d="M10.454,16.816
				C9.532,18.683,9,20.777,9,23h13"/>
		</g>
		
			<line style="fill:none;stroke:#000000;stroke-width:0.72;stroke-linejoin:round;stroke-miterlimit:10;" x1="31" y1="16" x2="35.127" y2="16"/>
		
			<line style="fill:none;stroke:#000000;stroke-width:0.72;stroke-linejoin:round;stroke-miterlimit:10;" x1="12" y1="16" x2="29" y2="16"/>
		
			<line style="fill:none;stroke:#000000;stroke-width:0.72;stroke-linejoin:round;stroke-miterlimit:10;" x1="17" y1="30" x2="25" y2="30"/>
		
			<line style="fill:none;stroke:#000000;stroke-width:0.72;stroke-linejoin:round;stroke-miterlimit:10;" x1="10.873" y1="30" x2="15" y2="30"/>
		<path style="fill:none;stroke:#000000;stroke-width:0.72;stroke-linejoin:round;stroke-miterlimit:10;" d="M29.997,31v-2.997
			C29.997,26.344,31.342,25,33,25s3.003,1.344,3.003,3.003V31"/>
		
			<rect x="27" y="31" style="fill:none;stroke:#000000;stroke-width:0.72;stroke-linejoin:round;stroke-miterlimit:10;" width="12" height="8"/>
	</g>
</g>
<g id="Layer_1">
</g>
</svg>
