<svg xmlns="http://www.w3.org/2000/svg" viewBox="0 0 48 48"><path fill="none" stroke-linejoin="round" stroke-miterlimit="10" stroke-width=".72" d="M10.066,20.144c1.691,0.467,2.933,2.017,2.933,3.856c0,1.839-1.242,3.389-2.933,3.856 M22.934,20.143 C21.242,20.61,19.999,22.16,19.999,24s1.243,3.39,2.935,3.857 M16.5,28v-8 M16.5,16.5C12.358,16.5,9,19.858,9,24s3.358,7.5,7.5,7.5 S24,28.142,24,24S20.642,16.5,16.5,16.5z M17.572,31.424C19.769,34.211,23.176,36,27,36c6.627,0,12-5.373,12-12s-5.373-12-12-12 c-3.824,0-7.231,1.789-9.428,4.576 M27,36V12 M24,24h15 M21,18h16.394 M21,30h16.394 M21.653,29.449C22.646,33.338,24.667,36,27,36 c3.314,0,6-5.373,6-12s-2.686-12-6-12c-2.333,0-4.354,2.662-5.347,6.55"/></svg>