<?xml version="1.0" encoding="iso-8859-1"?>
<!-- Generator: Adobe Illustrator 24.1.2, SVG Export Plug-In . SVG Version: 6.00 Build 0)  -->
<svg version="1.1" id="Layer_1" xmlns="http://www.w3.org/2000/svg" xmlns:xlink="http://www.w3.org/1999/xlink" x="0px" y="0px"
	 viewBox="0 0 32 32" style="enable-background:new 0 0 32 32;" xml:space="preserve">
<path id="global--strategy_1_" d="M31,18.64h-5.001c-0.199,0-0.36,0.161-0.36,0.36v0.269c0,0.129,0.069,0.247,0.181,0.312
	c0.506,0.292,0.819,0.837,0.819,1.421c0,0.904-0.735,1.64-1.64,1.64s-1.64-0.735-1.64-1.64c0-0.584,0.313-1.128,0.82-1.421
	c0.11-0.064,0.18-0.183,0.18-0.312V19c0-0.199-0.161-0.36-0.36-0.36H19c-0.199,0-0.36,0.161-0.36,0.36v4.757
	C18.207,23.33,17.62,23.08,17,23.08c-1.301,0-2.36,1.059-2.36,2.36S15.699,27.8,17,27.8c0.614,0,1.205-0.25,1.64-0.675V31
	c0,0.199,0.161,0.36,0.36,0.36c6.815,0,12.36-5.545,12.36-12.36C31.36,18.801,31.199,18.64,31,18.64z M19.36,30.635V26.48
	c0-0.199-0.161-0.36-0.36-0.36h-0.301c-0.125,0-0.241,0.065-0.307,0.172C18.095,26.778,17.561,27.08,17,27.08
	c-0.904,0-1.64-0.735-1.64-1.64S16.096,23.8,17,23.8c0.59,0,1.135,0.326,1.424,0.853c0.062,0.115,0.184,0.188,0.315,0.188H19
	c0.199,0,0.36-0.161,0.36-0.36v-5.12h3.943c-0.42,0.435-0.665,1.022-0.665,1.641c0,1.302,1.059,2.36,2.36,2.36s2.36-1.059,2.36-2.36
	c0-0.618-0.245-1.206-0.665-1.641h3.94C30.447,25.493,25.493,30.447,19.36,30.635z M16.64,15c0,1.302,1.058,2.361,2.36,2.361
	s2.36-1.059,2.36-2.361c0-0.618-0.245-1.206-0.665-1.641H25c0.199,0,0.36-0.161,0.36-0.36c0-6.815-5.545-12.36-12.36-12.36
	S0.64,6.185,0.64,13S6.185,25.36,13,25.36c0.199,0,0.36-0.161,0.36-0.36v-4.96c0-0.199-0.161-0.36-0.36-0.36h-0.3
	c-0.125,0-0.241,0.065-0.307,0.172C12.095,20.338,11.561,20.64,11,20.64c-0.904,0-1.64-0.735-1.64-1.64s0.736-1.64,1.64-1.64
	c0.59,0,1.136,0.326,1.424,0.853c0.063,0.115,0.185,0.188,0.316,0.188H13c0.199,0,0.36-0.161,0.36-0.36v-4.68h3.945
	C16.885,13.795,16.64,14.382,16.64,15z M22.731,6.64h-4.269c-0.685-2.233-1.718-3.979-2.949-4.998
	C18.523,2.308,21.092,4.14,22.731,6.64z M12.64,12.64H7.369c0.029-1.91,0.277-3.707,0.701-5.28h4.57
	C12.64,7.36,12.64,12.64,12.64,12.64z M7.331,18.64H2.829c-0.876-1.574-1.392-3.369-1.451-5.28h5.273
	C6.678,15.203,6.906,17.013,7.331,18.64z M1.378,12.64c0.059-1.91,0.572-3.707,1.447-5.28h4.499c-0.409,1.584-0.648,3.37-0.675,5.28
	H1.378z M8.282,6.64c0.946-2.98,2.535-5.003,4.358-5.243V6.64H8.282z M13.36,1.394c1.778,0.243,3.381,2.263,4.343,5.246H13.36V1.394
	z M10.442,1.652C9.212,2.676,8.199,4.428,7.527,6.64H3.263C4.894,4.151,7.451,2.327,10.442,1.652z M11,16.64
	c-1.301,0-2.36,1.058-2.36,2.36s1.059,2.36,2.36,2.36c0.613,0,1.203-0.249,1.64-0.674v3.948c-3.924-0.12-7.363-2.192-9.383-5.274
	h4.545c0.113,0,0.22-0.054,0.288-0.145c0.068-0.09,0.09-0.207,0.058-0.315c-0.486-1.68-0.747-3.589-0.777-5.541h5.268v3.956
	C12.207,16.889,11.621,16.64,11,16.64z M13.36,12.64V7.36h4.559c0.307,1.122,0.53,2.356,0.64,3.67l0.717-0.061
	c-0.108-1.291-0.321-2.499-0.611-3.61h4.51c0.876,1.574,1.402,3.369,1.46,5.28H20c-0.199,0-0.36,0.161-0.36,0.36v0.268
	c0,0.128,0.069,0.247,0.18,0.312c0.507,0.293,0.82,0.837,0.82,1.421c0,0.905-0.735,1.641-1.64,1.641S17.36,15.905,17.36,15
	c0-0.583,0.313-1.128,0.82-1.421c0.11-0.064,0.18-0.183,0.18-0.312V13c0-0.199-0.161-0.36-0.36-0.36H13.36z"/>
<rect id="_Transparent_Rectangle" style="fill:none;" width="32" height="32"/>
</svg>
