<?xml version="1.0" encoding="iso-8859-1"?>
<!-- Generator: Adobe Illustrator 24.1.2, SVG Export Plug-In . SVG Version: 6.00 Build 0)  -->
<svg version="1.1" id="Layer_1" xmlns="http://www.w3.org/2000/svg" xmlns:xlink="http://www.w3.org/1999/xlink" x="0px" y="0px"
	 viewBox="0 0 32 32" style="enable-background:new 0 0 32 32;" xml:space="preserve">
<path id="global--partner_1_" d="M4.096,9.36h5.385C8.946,11.348,8.64,13.604,8.64,16h0.72c0-2.41,0.309-4.673,0.845-6.64h5.435V16
	h0.72V9.36h5.435c0.536,1.967,0.845,4.23,0.845,6.64h0.721c0-2.396-0.306-4.652-0.84-6.64h5.384c1.102,1.967,1.736,4.23,1.736,6.64
	h0.721c0-7.918-6.442-14.36-14.36-14.36S1.64,8.082,1.64,16h0.72C2.36,13.59,2.994,11.327,4.096,9.36z M10.418,8.64
	c1.121-3.576,3.031-6,5.222-6.243V8.64H10.418z M16.36,8.64V2.397c2.191,0.243,4.1,2.667,5.222,6.243H16.36z M27.466,8.64h-5.158
	c-0.837-2.719-2.118-4.853-3.651-6.016C22.346,3.356,25.496,5.582,27.466,8.64z M13.343,2.624c-1.532,1.163-2.814,3.297-3.65,6.016
	H4.534C6.504,5.582,9.654,3.356,13.343,2.624z M22.64,19v0.54L19,18.64h-2.749c-0.572,0-1.124,0.208-1.553,0.585l-0.474,0.415H9.36
	V19c0-0.199-0.161-0.36-0.36-0.36H2v0.721h6.64v8.279H2v0.721h7c0.199,0,0.36-0.161,0.36-0.36v-0.64h0.954l2.148,3.042
	c0.268,0.299,0.64,0.453,1.015,0.453c0.272,0,0.545-0.081,0.782-0.248l0.643-0.452c0.038,0.014,0.068,0.042,0.108,0.053
	c0.117,0.03,0.235,0.046,0.352,0.046c0.236,0,0.469-0.062,0.678-0.184l0.832-0.48c0.152,0.056,0.309,0.095,0.472,0.095
	c0.23,0,0.464-0.059,0.678-0.182l0.833-0.481c0.152,0.056,0.309,0.095,0.472,0.095c0.23,0,0.465-0.059,0.679-0.182
	c0.562-0.325,0.778-0.99,0.593-1.576h2.042V28c0,0.199,0.161,0.36,0.36,0.36h7v-0.72h-6.64v-8.28H30v-0.72h-7
	C22.801,18.64,22.64,18.801,22.64,19z M19.645,28.313c-0.305,0.176-0.699,0.071-0.875-0.234l-1.5-2.598l-0.624,0.359l1.57,2.72
	l-0.554,0.319c-0.306,0.179-0.698,0.072-0.875-0.233l-1-1.732l0,0l-0.25-0.433l-0.623,0.359l0.25,0.432l0,0l1,1.732
	c0,0.001,0.001,0.001,0.002,0.002l0.069,0.119l-0.555,0.32c-0.146,0.086-0.318,0.108-0.483,0.064s-0.302-0.149-0.388-0.295
	l-1.002-1.735l0,0l0,0l-0.624,0.359l1,1.732c0.001,0.001,0.002,0.002,0.002,0.003l0.084,0.145l-0.424,0.299
	c-0.265,0.187-0.628,0.145-0.82-0.064l-2.23-3.162c-0.068-0.096-0.177-0.153-0.294-0.153H9.36V20.36h4.04l-1.886,1.65
	c-0.14,0.121-0.224,0.297-0.23,0.481c-0.007,0.185,0.064,0.366,0.196,0.497c0.852,0.852,2.204,0.926,3.144,0.174l1.003-0.803h1.653
	l2.599,5.078C20.054,27.744,19.949,28.137,19.645,28.313z M20.277,26.64l-2.457-4.804c-0.062-0.12-0.186-0.196-0.32-0.196h-2
	c-0.082,0-0.161,0.028-0.225,0.079l-1.102,0.882c-0.653,0.522-1.591,0.472-2.186-0.048l3.185-2.787
	c0.298-0.262,0.681-0.405,1.079-0.405l2.662-0.011l3.727,0.932v6.358C22.64,26.64,20.277,26.64,20.277,26.64z"/>
<rect id="_Transparent_Rectangle" style="fill:none;" width="32" height="32"/>
</svg>
