<?xml version="1.0" encoding="iso-8859-1"?>
<!-- Generator: Adobe Illustrator 24.1.2, SVG Export Plug-In . SVG Version: 6.00 Build 0)  -->
<svg version="1.1" xmlns="http://www.w3.org/2000/svg" xmlns:xlink="http://www.w3.org/1999/xlink" x="0px" y="0px"
	 viewBox="0 0 48 48" style="enable-background:new 0 0 48 48;" xml:space="preserve">
<g id="global--assets-and-recovery--02">
	<g id="global--assets-and-recovery--02_1_">
		<polyline style="fill:none;stroke:#000000;stroke-width:0.72;stroke-miterlimit:10;" points="14.333,28.947 13.543,26 
			10.596,26.79 		"/>
		<g>
			<path style="fill:none;stroke:#000000;stroke-width:0.72;stroke-linejoin:round;stroke-miterlimit:10;" d="M18.666,36.574h-7.519
				c-1.65,0-2.682-1.786-1.857-3.216L13.541,26"/>
		</g>
		<g>
			<path style="fill:none;stroke:#000000;stroke-width:0.72;stroke-linejoin:round;stroke-miterlimit:10;" d="M34.521,26
				l4.188,7.292c0.825,1.429-0.206,3.216-1.857,3.216H29"/>
		</g>
		<g>
			<path style="fill:none;stroke:#000000;stroke-width:0.72;stroke-linejoin:round;stroke-miterlimit:10;" d="M18.002,18
				l4.235-6.928c0.825-1.429,2.888-1.429,3.713,0l4.047,6.93"/>
		</g>
		<polyline style="fill:none;stroke:#000000;stroke-width:0.72;stroke-miterlimit:10;" points="31.158,34.35 29,36.507 
			31.158,38.665 		"/>
		<polyline style="fill:none;stroke:#000000;stroke-width:0.72;stroke-miterlimit:10;" points="27.054,17.21 30.001,18 
			30.791,15.053 		"/>
		<g>
			
				<rect x="19.998" y="21" style="fill:none;stroke:#000000;stroke-width:0.72;stroke-linejoin:round;stroke-miterlimit:10;" width="8" height="12"/>
			<line style="fill:none;stroke:#000000;stroke-width:0.72;stroke-miterlimit:10;" x1="21.998" y1="24" x2="25.998" y2="24"/>
			
				<line style="fill:none;stroke:#000000;stroke-width:0.72;stroke-miterlimit:10;" x1="21.998" y1="27.002" x2="25.998" y2="27.002"/>
			
				<line style="fill:none;stroke:#000000;stroke-width:0.72;stroke-miterlimit:10;" x1="21.998" y1="30.003" x2="25.998" y2="30.003"/>
			<polyline style="fill:none;stroke:#000000;stroke-width:0.72;stroke-linejoin:round;stroke-miterlimit:10;" points="
				27.998,22.001 29.998,22.001 29.998,32 27.998,32 			"/>
			<polyline style="fill:none;stroke:#000000;stroke-width:0.72;stroke-linejoin:round;stroke-miterlimit:10;" points="19.998,32 
				17.998,32 17.998,22.001 19.998,22.001 			"/>
		</g>
	</g>
</g>
<g id="Layer_1">
</g>
</svg>
