<svg xmlns="http://www.w3.org/2000/svg" viewBox="0 0 48 48"><path fill="none" stroke-linejoin="round" stroke-miterlimit="10" stroke-width=".72" d="M34.5,23.861 c0,6.627-5.373,12-12,12s-12-5.373-12-12s5.373-12,12-12S34.5,17.234,34.5,23.861z M14.999,36.854 c2.207,1.277,4.769,2.007,7.501,2.007c8.284,0,15-6.716,15-15c0-5.552-3.016-10.399-7.499-12.993 M28.501,13.467L31,9.139 M14,38.584l2.499-4.328"/><path d="M17.75,16c0,0.414-0.336,0.75-0.75,0.75s-0.75-0.336-0.75-0.75s0.336-0.75,0.75-0.75S17.75,15.586,17.75,16z M16,20.25 c-0.414,0-0.75,0.336-0.75,0.75s0.336,0.75,0.75,0.75s0.75-0.336,0.75-0.75S16.414,20.25,16,20.25z M30.5,20.25 c-0.414,0-0.75,0.336-0.75,0.75s0.336,0.75,0.75,0.75s0.75-0.336,0.75-0.75S30.914,20.25,30.5,20.25z M30.5,23.25 c-0.414,0-0.75,0.336-0.75,0.75s0.336,0.75,0.75,0.75s0.75-0.336,0.75-0.75S30.914,23.25,30.5,23.25z M22.5,22.25 c-0.414,0-0.75,0.336-0.75,0.75s0.336,0.75,0.75,0.75s0.75-0.336,0.75-0.75S22.914,22.25,22.5,22.25z M26.5,29.25 c-0.414,0-0.75,0.336-0.75,0.75s0.336,0.75,0.75,0.75s0.75-0.336,0.75-0.75S26.914,29.25,26.5,29.25z"/></svg>