<?xml version="1.0" encoding="iso-8859-1"?>
<!-- Generator: Adobe Illustrator 24.1.2, SVG Export Plug-In . SVG Version: 6.00 Build 0)  -->
<svg version="1.1" id="Layer_1" xmlns="http://www.w3.org/2000/svg" xmlns:xlink="http://www.w3.org/1999/xlink" x="0px" y="0px"
	 viewBox="0 0 32 32" style="enable-background:new 0 0 32 32;" xml:space="preserve">
<path id="global--business--services_1_" d="M19,28.36c-3.742,0-7.222-1.657-9.583-4.554C9.116,23.842,8.81,23.86,8.5,23.86
	c-4.334,0-7.86-3.526-7.86-7.86S4.166,8.14,8.5,8.14c0.31,0,0.616,0.018,0.917,0.053C11.778,5.297,15.259,3.64,19,3.64
	c4.546,0,8.526,2.467,10.674,6.132c0.023,0.03,0.043,0.063,0.057,0.099c1.036,1.807,1.63,3.9,1.63,6.128s-0.594,4.321-1.63,6.129
	c-0.014,0.036-0.033,0.069-0.057,0.099C27.526,25.894,23.546,28.36,19,28.36z M19.36,22.36v5.256
	c1.823-0.238,3.415-2.274,4.361-5.256H19.36z M14.289,22.36c0.975,3.032,2.607,5.013,4.351,5.255V22.36H14.289z M10.24,23.666
	c1.652,1.89,3.83,3.172,6.235,3.701c-1.216-1.007-2.249-2.738-2.941-5.007h-0.42C12.267,22.976,11.293,23.427,10.24,23.666z
	 M24.481,22.36c-0.673,2.22-1.694,3.973-2.928,4.997c2.996-0.673,5.559-2.505,7.191-4.997H24.481z M2.835,20.342
	c1.306,1.7,3.36,2.798,5.665,2.798c3.937,0,7.14-3.203,7.14-7.14c0-1.743-0.627-3.342-1.669-4.583l-3.007,3.003
	c-0.141,0.14-0.368,0.14-0.509,0l-2.417-2.414l-1.702,5.101c-0.049,0.147-0.187,0.246-0.341,0.246H4.332L2.835,20.342z
	 M24.683,21.64h4.497c0.876-1.573,1.396-3.369,1.455-5.28h-5.277C25.331,18.269,25.091,20.058,24.683,21.64z M19.36,21.64h4.572
	c0.424-1.573,0.677-3.369,0.705-5.28H19.36V21.64z M14.076,21.64h4.564v-5.28h-2.288c-0.092,2.025-0.954,3.853-2.299,5.198
	C14.061,21.585,14.068,21.612,14.076,21.64z M8.5,8.86c-3.937,0-7.14,3.203-7.14,7.14c0,1.337,0.37,2.589,1.011,3.66l1.417-2.827
	c0.061-0.122,0.186-0.199,0.322-0.199h1.626l1.804-5.407c0.039-0.119,0.137-0.208,0.258-0.237c0.124-0.029,0.249,0.008,0.337,0.096
	l2.574,2.571l2.771-2.768C12.194,9.634,10.436,8.86,8.5,8.86z M25.357,15.64h5.277c-0.059-1.911-0.579-3.707-1.455-5.28h-4.497
	C25.091,11.943,25.331,13.731,25.357,15.64z M19.36,15.64h5.277c-0.028-1.911-0.281-3.707-0.705-5.28H19.36V15.64z M16.352,15.64
	h2.288v-5.28h-4.564c-0.007,0.027-0.015,0.055-0.022,0.083c0.055,0.055,0.109,0.111,0.162,0.167c0.01,0.008,0.02,0.017,0.029,0.026
	c0.015,0.016,0.029,0.032,0.041,0.049C15.497,12.003,16.266,13.734,16.352,15.64z M24.481,9.64h4.264
	c-1.633-2.493-4.195-4.325-7.191-4.998C22.787,5.667,23.809,7.42,24.481,9.64z M19.36,9.64h4.361
	c-0.946-2.982-2.538-5.019-4.361-5.257V9.64z M14.289,9.64h4.351V4.385C16.896,4.626,15.264,6.607,14.289,9.64z M13.114,9.64h0.42
	c0.693-2.269,1.726-4,2.941-5.007c-2.405,0.529-4.583,1.811-6.235,3.701C11.293,8.573,12.267,9.024,13.114,9.64z"/>
<rect id="_Transparent_Rectangle" style="fill:none;" width="32" height="32"/>
</svg>
