<?xml version="1.0" encoding="iso-8859-1"?>
<!-- Generator: Adobe Illustrator 24.1.2, SVG Export Plug-In . SVG Version: 6.00 Build 0)  -->
<svg version="1.1" id="Layer_1" xmlns="http://www.w3.org/2000/svg" xmlns:xlink="http://www.w3.org/1999/xlink" x="0px" y="0px"
	 viewBox="0 0 32 32" style="enable-background:new 0 0 32 32;" xml:space="preserve">
<path id="global--analytics_1_" d="M26.942,20.164l-1.855,3.432l-2.031-2.03L20.98,24.68l-1.447-2.48l-1.227,1.989l-0.613-0.379
	l1.857-3.011l1.47,2.521l1.924-2.886l1.969,1.97l1.396-2.582L26.942,20.164z M30.745,31.255l-4.517-4.517
	C25.103,27.743,23.624,28.36,22,28.36c-1.594,0-3.048-0.593-4.165-1.565c-1.24,0.371-2.528,0.565-3.835,0.565
	C6.633,27.36,0.64,21.367,0.64,14S6.633,0.64,14,0.64S27.36,6.633,27.36,14c0,1.307-0.194,2.595-0.565,3.835
	c0.972,1.117,1.565,2.572,1.565,4.165c0,1.624-0.617,3.103-1.622,4.228l4.517,4.517L30.745,31.255z M2.961,20.14h4.928
	c-0.45-1.73-0.712-3.687-0.739-5.78H1.378C1.437,16.452,2,18.419,2.961,20.14z M25.039,7.86h-4.927
	c0.451,1.73,0.712,3.687,0.74,5.78h5.77C26.562,11.547,26,9.58,25.039,7.86z M19.362,7.86H14.36v5.78h5.771
	C20.102,11.547,19.829,9.58,19.362,7.86z M19.15,7.14c-1.034-3.278-2.783-5.501-4.79-5.743V7.14H19.15z M13.64,1.397
	C11.633,1.639,9.884,3.862,8.85,7.14h4.79V1.397z M8.638,7.86c-0.467,1.721-0.74,3.688-0.769,5.78h5.771V7.86H8.638z M7.889,7.86
	H2.961C2,9.58,1.437,11.547,1.378,13.64h5.771C7.177,11.547,7.438,9.59,7.889,7.86z M8.637,20.14h5.003v-5.78H7.869
	C7.898,16.452,8.171,18.419,8.637,20.14z M8.85,20.86c1.034,3.277,2.783,5.501,4.79,5.742V20.86H8.85z M14.36,26.626
	c0.98-0.027,1.946-0.167,2.886-0.416C16.25,25.087,15.64,23.615,15.64,22c0-3.507,2.853-6.36,6.36-6.36
	c1.615,0,3.087,0.61,4.21,1.605c0.25-0.94,0.389-1.906,0.416-2.886H14.36V26.626z M16.654,1.645c1.376,1.095,2.51,3.033,3.254,5.495
	h4.694C22.809,4.379,19.974,2.358,16.654,1.645z M3.398,7.14h4.694c0.744-2.462,1.877-4.4,3.254-5.495
	C8.026,2.358,5.191,4.379,3.398,7.14z M11.345,26.354c-1.376-1.096-2.508-3.032-3.252-5.493H3.399
	C5.191,23.62,8.025,25.641,11.345,26.354z M27.64,22c0-3.11-2.529-5.64-5.64-5.64s-5.64,2.53-5.64,5.64s2.53,5.64,5.64,5.64
	S27.64,25.11,27.64,22z"/>
<rect id="_Transparent_Rectangle" style="fill:none;" width="32" height="32"/>
</svg>
