<?xml version="1.0" encoding="iso-8859-1"?>
<!-- Generator: Adobe Illustrator 24.1.2, SVG Export Plug-In . SVG Version: 6.00 Build 0)  -->
<svg version="1.1" xmlns="http://www.w3.org/2000/svg" xmlns:xlink="http://www.w3.org/1999/xlink" x="0px" y="0px"
	 viewBox="0 0 48 48" style="enable-background:new 0 0 48 48;" xml:space="preserve">
<g id="global--markets">
	<g id="global--markets_1_">
		<g id="global_markets_3_">
			<path style="fill:none;stroke:#000000;stroke-width:0.72;stroke-linejoin:round;stroke-miterlimit:10;" d="M39,24
				c0,8.284-6.716,15-15,15V9C15.716,9,9,15.716,9,24H39z"/>
			<polyline style="fill:none;stroke:#000000;stroke-width:0.72;stroke-miterlimit:10;" points="30.99,13 34,13 34,10 			"/>
			<path style="fill:none;stroke:#000000;stroke-width:0.72;stroke-miterlimit:10;" d="M14.057,35.231
				C16.704,37.576,20.186,39,24,39"/>
			<polyline style="fill:none;stroke:#000000;stroke-width:0.72;stroke-miterlimit:10;" points="17.01,35 14,35 14,38 			"/>
			<path style="fill:none;stroke:#000000;stroke-width:0.72;stroke-miterlimit:10;" d="M24,9c3.837,0,7.338,1.441,9.99,3.811"/>
			<g>
				
					<rect x="10" y="26" style="fill:none;stroke:#000000;stroke-width:0.72;stroke-linejoin:round;stroke-miterlimit:10;" width="12" height="6"/>
				
					<circle style="fill:none;stroke:#000000;stroke-width:0.72;stroke-linejoin:round;stroke-miterlimit:10;" cx="16" cy="29" r="1"/>
				<path style="fill:none;stroke:#000000;stroke-width:0.72;stroke-linejoin:round;stroke-miterlimit:10;" d="M10,28
					c1.105,0,2-0.895,2-2"/>
				<path style="fill:none;stroke:#000000;stroke-width:0.72;stroke-linejoin:round;stroke-miterlimit:10;" d="M12,32
					c0-1.105-0.895-2-2-2"/>
				<path style="fill:none;stroke:#000000;stroke-width:0.72;stroke-linejoin:round;stroke-miterlimit:10;" d="M22,30
					c-1.105,0-2,0.895-2,2"/>
				<path style="fill:none;stroke:#000000;stroke-width:0.72;stroke-linejoin:round;stroke-miterlimit:10;" d="M20,26
					c0,1.105,0.895,2,2,2"/>
				
					<line style="fill:none;stroke:#000000;stroke-width:0.72;stroke-linejoin:round;stroke-miterlimit:10;" x1="13" y1="29" x2="12" y2="29"/>
				
					<line style="fill:none;stroke:#000000;stroke-width:0.72;stroke-linejoin:round;stroke-miterlimit:10;" x1="20" y1="29" x2="19" y2="29"/>
			</g>
			<g>
				
					<circle style="fill:none;stroke:#000000;stroke-width:0.72;stroke-linejoin:round;stroke-miterlimit:10;" cx="29" cy="17.5" r="1"/>
				
					<circle style="fill:none;stroke:#000000;stroke-width:0.72;stroke-linejoin:round;stroke-miterlimit:10;" cx="33" cy="21" r="1"/>
				
					<circle style="fill:none;stroke:#000000;stroke-width:0.72;stroke-linejoin:round;stroke-miterlimit:10;" cx="38" cy="15" r="1"/>
				
					<line style="fill:none;stroke:#000000;stroke-width:0.72;stroke-linejoin:round;stroke-miterlimit:10;" x1="28.352" y1="18.258" x2="24" y2="24"/>
				
					<line style="fill:none;stroke:#000000;stroke-width:0.72;stroke-linejoin:round;stroke-miterlimit:10;" x1="32.191" y1="20.391" x2="29.789" y2="18.089"/>
				
					<line style="fill:none;stroke:#000000;stroke-width:0.72;stroke-linejoin:round;stroke-miterlimit:10;" x1="37.351" y1="15.757" x2="33.628" y2="20.224"/>
			</g>
		</g>
		<path style="fill:none;stroke:#000000;stroke-width:0.72;stroke-linejoin:round;stroke-miterlimit:10;" d="M24,9
			c-4.142,0-7.5,6.716-7.5,15"/>
		<path style="fill:none;stroke:#000000;stroke-width:0.72;stroke-linejoin:round;stroke-miterlimit:10;" d="M24,39
			c4.142,0,7.5-6.716,7.5-15"/>
		
			<line style="fill:none;stroke:#000000;stroke-width:0.72;stroke-linejoin:round;stroke-miterlimit:10;" x1="11.007" y1="16.5" x2="24" y2="16.5"/>
		
			<line style="fill:none;stroke:#000000;stroke-width:0.72;stroke-linejoin:round;stroke-miterlimit:10;" x1="24.004" y1="31.5" x2="36.993" y2="31.5"/>
	</g>
</g>
<g id="Layer_1">
</g>
</svg>
