<?xml version="1.0" encoding="iso-8859-1"?>
<!-- Generator: Adobe Illustrator 24.1.2, SVG Export Plug-In . SVG Version: 6.00 Build 0)  -->
<svg version="1.1" id="Layer_1" xmlns="http://www.w3.org/2000/svg" xmlns:xlink="http://www.w3.org/1999/xlink" x="0px" y="0px"
	 viewBox="0 0 32 32" style="enable-background:new 0 0 32 32;" xml:space="preserve">
<path id="global--finance--sterling_1_" d="M16,31.36C7.53,31.36,0.64,24.47,0.64,16S7.53,0.64,16,0.64S31.36,7.53,31.36,16
	S24.47,31.36,16,31.36z M16.36,24.36v6.269c3.001-0.182,5.642-2.621,7.256-6.269H16.36z M6.721,16.36
	c0.119,7.718,4.043,13.974,8.919,14.269V16.36H6.721z M3.988,24.36c1.912,2.74,4.737,4.797,8.029,5.73
	c-1.807-1.21-3.339-3.217-4.405-5.729L3.988,24.36L3.988,24.36z M24.388,24.36c-1.065,2.513-2.597,4.52-4.404,5.729
	c3.292-0.933,6.116-2.99,8.029-5.729H24.388z M24.675,23.64h3.81c1.308-2.129,2.087-4.617,2.151-7.28H26v-0.012
	C25.962,18.998,25.484,21.482,24.675,23.64z M16.36,23.64h7.556c0.866-2.225,1.366-4.842,1.366-7.64c0-2.797-0.5-5.415-1.366-7.64
	H16.36V23.64z M3.516,23.64h3.81C6.518,21.486,6.041,19.005,6,16.36H1.364C1.429,19.022,2.208,21.511,3.516,23.64z M24.675,8.36
	C25.483,10.516,25.961,13,26,15.646v-0.005h4.636c-0.064-2.662-0.844-5.15-2.151-7.28h-3.81V8.36z M3.516,8.36
	c-1.308,2.13-2.087,4.619-2.151,7.281h4.636c0.04-2.644,0.517-5.126,1.325-7.28h-3.81V8.36z M15.64,1.371
	C10.764,1.666,6.839,7.922,6.721,15.64h8.919C15.64,15.64,15.64,1.371,15.64,1.371z M24.388,7.64h3.625
	c-1.913-2.74-4.738-4.797-8.03-5.729C21.791,3.12,23.322,5.127,24.388,7.64z M16.36,7.64h7.256
	c-1.614-3.648-4.255-6.088-7.256-6.269V7.64z M3.988,7.64h3.625c1.066-2.513,2.598-4.52,4.405-5.729C8.725,2.842,5.9,4.9,3.988,7.64
	z M14.083,24.36H9.917c-0.163,0-0.306-0.11-0.348-0.268c-0.042-0.158,0.028-0.324,0.169-0.405c0.828-0.473,1.248-0.812,1.248-1.354
	c0-0.233-0.075-0.345-0.202-0.482H9.5V21.13h0.804c-0.034-0.116-0.054-0.25-0.054-0.405c0-1.228,0.891-2.085,2.167-2.085
	c0.918,0,1.703,0.714,1.921,0.933l-0.51,0.51c-0.333-0.333-0.901-0.722-1.412-0.722c-0.667,0-1.447,0.357-1.447,1.364
	c0,0.188,0.048,0.298,0.132,0.405h2.565v0.721h-2.041c0.049,0.134,0.08,0.292,0.08,0.482c0,0.561-0.25,0.969-0.622,1.307h3V24.36z
	 M21.36,19h-0.72v-1.271h-1.485v-0.721h1.485v-0.646l-1.763-2.133l0.555-0.459L21,15.668l1.568-1.897l0.555,0.459l-1.763,2.133
	v0.646h1.485v0.721H21.36V19z M12.36,13.5h-0.72v-1.14H10v-0.72h3c0.353,0,0.64-0.287,0.64-0.64s-0.287-0.64-0.64-0.64h-2
	c-0.75,0-1.36-0.61-1.36-1.36S10.25,7.64,11,7.64h0.641V6.5h0.72v1.14H14v0.72h-3c-0.353,0-0.64,0.287-0.64,0.64
	S10.647,9.64,11,9.64h2c0.75,0,1.36,0.61,1.36,1.36s-0.61,1.36-1.36,1.36h-0.64V13.5z"/>
<rect id="_Transparent_Rectangle" style="fill:none;" width="32" height="32"/>
</svg>
