<?xml version="1.0" encoding="iso-8859-1"?>
<!-- Generator: Adobe Illustrator 24.1.2, SVG Export Plug-In . SVG Version: 6.00 Build 0)  -->
<svg version="1.1" xmlns="http://www.w3.org/2000/svg" xmlns:xlink="http://www.w3.org/1999/xlink" x="0px" y="0px"
	 viewBox="0 0 48 48" style="enable-background:new 0 0 48 48;" xml:space="preserve">
<g id="goals">
	<g id="goals_1_">
		<path style="fill:none;stroke:#000000;stroke-width:0.72;stroke-miterlimit:10;" d="M39,9l-9,9 M30,9v9h9"/>
		<path style="fill:none;stroke:#000000;stroke-width:0.72;stroke-miterlimit:10;" d="M29,24c0,2.761-2.239,5-5,5
			c-2.761,0-5-2.239-5-5c0-2.761,2.239-5,5-5C26.761,19,29,21.239,29,24z M38.444,20C38.797,21.275,39,22.613,39,24
			c0,8.284-6.716,15-15,15c-8.284,0-15-6.716-15-15S15.716,9,24,9c1.387,0,2.725,0.203,4,0.556 M28,14.838
			C26.774,14.302,25.423,14,24,14c-5.523,0-10,4.477-10,10c0,5.523,4.477,10,10,10c5.523,0,10-4.477,10-10
			c0-1.423-0.302-2.774-0.838-4"/>
		<path d="M25,24c0,0.552-0.448,1-1,1s-1-0.448-1-1c0-0.552,0.448-1,1-1S25,23.448,25,24z"/>
	</g>
</g>
<g id="Layer_1">
</g>
</svg>
