<?xml version="1.0" encoding="iso-8859-1"?>
<!-- Generator: Adobe Illustrator 28.0.0, SVG Export Plug-In . SVG Version: 6.00 Build 0)  -->
<svg version="1.1" id="Layer_1" xmlns="http://www.w3.org/2000/svg" xmlns:xlink="http://www.w3.org/1999/xlink" x="0px" y="0px"
	 viewBox="0 0 32 32" style="enable-background:new 0 0 32 32;" xml:space="preserve">
<path id="golf--club_00000155108744005358390000000005773521746363731641_" d="M16.928,30.36H9.545
	c-2.002,0-3.903-0.868-5.215-2.381s-1.903-3.516-1.62-5.499l0.351-2.452c0.162-1.131,0.804-2.135,1.762-2.755
	s2.139-0.794,3.235-0.478l11.421,3.294c0.425,0.12,0.874,0.07,1.261-0.148s0.663-0.575,0.778-1.004l2.953-11.031
	c0.024-0.092,0.085-0.171,0.168-0.218c0.081-0.049,0.181-0.061,0.272-0.036l0.617,0.165l1.854-6.911l0.695,0.187l-1.854,6.911
	l1.236,0.331l1.854-6.911l0.695,0.187l-1.854,6.91l0.62,0.167c0.093,0.024,0.171,0.085,0.219,0.167
	c0.048,0.083,0.061,0.181,0.036,0.273l-4.028,15.035C24.026,27.812,20.705,30.36,16.928,30.36z M6.966,17.361
	c-0.615,0-1.224,0.176-1.751,0.517c-0.784,0.508-1.309,1.328-1.44,2.252l-0.351,2.452c-0.253,1.775,0.275,3.571,1.45,4.926
	c1.175,1.355,2.878,2.132,4.671,2.132h7.383c3.452,0,6.487-2.328,7.379-5.662l0,0L27.17,13.29l-1.24-0.332l-1.107,4.135
	l-0.695-0.186l1.107-4.135l-1.232-0.33l-1.789,6.683c-0.165,0.617-0.562,1.13-1.119,1.444c-0.556,0.314-1.201,0.391-1.814,0.213
	L7.859,17.487C7.566,17.403,7.265,17.361,6.966,17.361z M24.189,11.746l3.168,0.849l0.886-3.305l-3.169-0.849L24.189,11.746z
	 M20,27.36H8v-0.72h12V27.36z M20,25.36H6v-0.72h14V25.36z M18,23.36H6v-0.72h12V23.36z M14,21.36H6v-0.72h8V21.36z"/>
<rect id="_Transparent_Rectangle" style="fill:none;" width="32" height="32"/>
</svg>
