<?xml version="1.0" encoding="iso-8859-1"?>
<!-- Generator: Adobe Illustrator 24.1.2, SVG Export Plug-In . SVG Version: 6.00 Build 0)  -->
<svg version="1.1" id="Layer_1" xmlns="http://www.w3.org/2000/svg" xmlns:xlink="http://www.w3.org/1999/xlink" x="0px" y="0px"
	 viewBox="0 0 32 32" style="enable-background:new 0 0 32 32;" xml:space="preserve">
<path id="govern--users--and--identities_1_" d="M24.5,9.009l-2.255-2.255l0.51-0.509L24.5,7.991l3.745-3.745l0.51,0.509L24.5,9.009
	z M24.231,23.478c0.965-1.32,1.542-3.469,1.542-5.748c0-0.746-0.039-1.74-0.345-2.827c-0.054-0.192-0.248-0.306-0.444-0.25
	c-0.191,0.054-0.303,0.252-0.249,0.444c0.28,0.996,0.317,1.89,0.317,2.632c0,2.132-0.524,4.121-1.403,5.322
	c-0.117,0.161-0.082,0.386,0.078,0.504c0.064,0.047,0.139,0.069,0.213,0.069C24.051,23.625,24.16,23.573,24.231,23.478z
	 M3.227,7.514C5.883,4.796,9.321,3.36,13.223,3.36c1.232,0.004,2.469,0.185,3.676,0.536c0.192,0.057,0.391-0.055,0.446-0.245
	C17.401,3.46,17.29,3.26,17.1,3.205c-1.272-0.37-2.576-0.56-3.931-0.564c-4.047,0-7.663,1.511-10.458,4.371
	C2.573,7.153,2.576,7.381,2.718,7.52c0.07,0.068,0.161,0.103,0.251,0.103C3.063,7.623,3.157,7.586,3.227,7.514z M1.822,13.141
	c1.949-2.957,5.235-6.888,11.25-6.888c1.301,0,2.585,0.202,3.817,0.601c0.19,0.06,0.392-0.043,0.454-0.232
	c0.061-0.189-0.043-0.392-0.232-0.454c-1.303-0.421-2.662-0.635-4.038-0.635c-6.362,0-9.811,4.116-11.852,7.211
	c-0.109,0.166-0.063,0.39,0.103,0.499c0.061,0.04,0.13,0.059,0.198,0.059C1.638,13.303,1.753,13.246,1.822,13.141z M23.759,25.674
	c0.079-0.183-0.004-0.395-0.187-0.474c-1.436-0.624-1.851-1.329-1.851-3.144c0-1.073,0.124-1.616,0.257-2.193
	c0.159-0.698,0.341-1.489,0.341-3.175c0-4.024-3.535-8.367-9.247-8.367c-4.292,0-6.336,2.104-8.062,4.258
	c-0.178,0.222-0.374,0.483-0.59,0.771c-0.903,1.203-2.141,2.851-3.555,3.424c-0.184,0.075-0.273,0.285-0.198,0.468
	c0.074,0.185,0.283,0.271,0.469,0.199c1.599-0.648,2.906-2.388,3.866-3.667c0.205-0.273,0.396-0.528,0.57-0.745
	C7.189,11.011,9.1,9.04,13.073,9.04c5.267,0,8.526,3.969,8.526,7.647c0,1.605-0.171,2.354-0.322,3.017
	c-0.142,0.615-0.275,1.196-0.275,2.352c0,2.102,0.576,3.062,2.284,3.804c0.047,0.021,0.096,0.03,0.144,0.03
	C23.567,25.891,23.7,25.81,23.759,25.674z M22.009,27.899c0.073-0.186-0.019-0.395-0.203-0.467
	c-2.488-0.978-3.011-3.001-3.011-4.526c0-0.701,0.146-1.396,0.302-2.131c0.197-0.94,0.421-2.007,0.421-3.352
	c0-3.044-2.59-6.304-6.445-6.304c-3.487,0-5.55,2.608-6.47,4.163c-1.5,2.54-3.637,4.514-5.717,5.283
	c-0.187,0.069-0.282,0.276-0.213,0.463s0.276,0.28,0.462,0.213c2.23-0.824,4.506-2.915,6.088-5.592c0.841-1.423,2.72-3.81,5.85-3.81
	c3.424,0,5.725,2.888,5.725,5.584c0,1.271-0.215,2.297-0.405,3.203c-0.155,0.739-0.317,1.503-0.317,2.279
	c0,1.749,0.602,4.07,3.468,5.196c0.043,0.018,0.088,0.025,0.132,0.025C21.817,28.128,21.953,28.041,22.009,27.899z M6.587,29.711
	c2.652-1.757,4.8-3.463,6.964-5.533c1.229-1.176,3.292-3.556,3.292-6.275c0-1.949-1.41-3.965-3.771-3.965
	c-2.131,0-3.477,2.02-4.782,3.98c-0.576,0.864-1.12,1.681-1.677,2.226c-1.642,1.605-3.375,2.578-5.309,3.595
	c-0.176,0.092-0.244,0.31-0.151,0.486c0.092,0.175,0.31,0.242,0.486,0.15c1.984-1.043,3.766-2.043,5.477-3.716
	c0.612-0.598,1.176-1.445,1.778-2.349c1.196-1.796,2.433-3.653,4.178-3.653c1.91,0,3.051,1.65,3.051,3.246
	c0,2.452-1.924,4.658-3.07,5.756c-2.131,2.038-4.248,3.721-6.863,5.453c-0.166,0.109-0.211,0.333-0.102,0.499
	c0.069,0.104,0.184,0.161,0.301,0.161C6.457,29.771,6.526,29.752,6.587,29.711z M3.74,27.332c3.05-1.878,7.152-4.991,9.376-9.165
	c0.093-0.175,0.027-0.394-0.148-0.486c-0.178-0.097-0.394-0.028-0.487,0.148c-2.148,4.03-6.144,7.059-9.118,8.89
	c-0.169,0.104-0.222,0.326-0.118,0.495c0.068,0.11,0.186,0.172,0.307,0.172C3.617,27.386,3.682,27.368,3.74,27.332z M14.004,31.358
	c0.198-0.018,0.344-0.192,0.326-0.391c-0.113-1.259-0.941-2.613-2.492-2.613c-1.372,0-2.179,0.78-2.967,1.95
	c-0.111,0.165-0.068,0.389,0.097,0.5c0.166,0.11,0.389,0.067,0.5-0.098c0.697-1.034,1.308-1.632,2.371-1.632
	c1.098,0,1.69,1.015,1.775,1.957c0.017,0.188,0.174,0.328,0.358,0.328C13.982,31.36,13.994,31.359,14.004,31.358z M18.396,30.004
	c0.104-0.169,0.051-0.391-0.119-0.494c-1.467-0.898-2.379-2.307-2.379-3.676c0-0.391,0.07-0.984,0.266-1.479
	c0.073-0.185-0.017-0.395-0.202-0.468c-0.184-0.07-0.395,0.017-0.467,0.202c-0.234,0.59-0.317,1.288-0.317,1.745
	c0,1.618,1.043,3.262,2.724,4.289c0.059,0.036,0.123,0.054,0.188,0.054C18.211,30.177,18.329,30.115,18.396,30.004z M31.36,6.5
	c0-3.231-2.629-5.86-5.86-5.86s-5.86,2.628-5.86,5.86s2.629,5.86,5.86,5.86S31.36,9.731,31.36,6.5z M30.64,6.5
	c0,2.834-2.306,5.14-5.14,5.14s-5.14-2.306-5.14-5.14s2.306-5.14,5.14-5.14S30.64,3.666,30.64,6.5z"/>
<rect id="_Transparent_Rectangle" style="fill:none;" width="32" height="32"/>
</svg>
