<?xml version="1.0" encoding="iso-8859-1"?>
<!-- Generator: Adobe Illustrator 27.5.0, SVG Export Plug-In . SVG Version: 6.00 Build 0)  -->
<svg version="1.1" id="Layer_1" xmlns="http://www.w3.org/2000/svg" xmlns:xlink="http://www.w3.org/1999/xlink" x="0px" y="0px"
	 viewBox="0 0 32 32" style="enable-background:new 0 0 32 32;" xml:space="preserve">
<path id="gpu-computing_00000037669514636806166860000003392875798147812793_" d="M30,30.36H2c-0.199,0-0.36-0.161-0.36-0.36V2
	c0-0.199,0.161-0.36,0.36-0.36h28c0.199,0,0.36,0.161,0.36,0.36v28C30.36,30.199,30.199,30.36,30,30.36z M2.36,29.64h27.28V2.36
	H2.36V29.64z M12,27.36h-2c-0.199,0-0.36-0.161-0.36-0.36v-0.64H7.36V27c0,0.199-0.161,0.36-0.36,0.36H5
	c-0.199,0-0.36-0.161-0.36-0.36v-2c0-0.199,0.161-0.36,0.36-0.36h2c0.199,0,0.36,0.161,0.36,0.36v0.64h2.28V25
	c0-0.199,0.161-0.36,0.36-0.36h2c0.199,0,0.36,0.161,0.36,0.36v0.64H27v0.721H12.36V27C12.36,27.199,12.199,27.36,12,27.36z
	 M10.36,26.64h1.28v-1.28h-1.28V26.64z M5.36,26.64h1.28v-1.28H5.36V26.64z M27,22.36h-2c-0.199,0-0.36-0.161-0.36-0.36v-0.64H12.36
	V22c0,0.199-0.161,0.36-0.36,0.36h-2c-0.199,0-0.36-0.161-0.36-0.36v-0.64H5v-0.72h4.64V20c0-0.199,0.161-0.36,0.36-0.36h2
	c0.199,0,0.36,0.161,0.36,0.36v0.64h12.28V20c0-0.199,0.161-0.36,0.36-0.36h2c0.199,0,0.36,0.161,0.36,0.36v2
	C27.36,22.199,27.199,22.36,27,22.36z M25.36,21.64h1.279v-1.28H25.36V21.64z M10.36,21.64h1.28v-1.28h-1.28V21.64z M27,17.36h-2
	c-0.199,0-0.36-0.161-0.36-0.36v-0.64h-7.28V17c0,0.199-0.161,0.36-0.36,0.36h-2c-0.199,0-0.36-0.161-0.36-0.36v-0.64H5v-0.72h9.64
	V15c0-0.199,0.161-0.36,0.36-0.36h2c0.199,0,0.36,0.161,0.36,0.36v0.64h7.279V15c0-0.199,0.161-0.36,0.36-0.36h2
	c0.199,0,0.36,0.161,0.36,0.36v2C27.36,17.199,27.199,17.36,27,17.36z M25.36,16.64h1.279v-1.28H25.36V16.64z M15.36,16.64h1.28
	v-1.28h-1.28V16.64z M17,12.36h-2c-0.199,0-0.36-0.161-0.36-0.36v-0.64H7.36V12c0,0.199-0.161,0.36-0.36,0.36H5
	c-0.199,0-0.36-0.161-0.36-0.36v-2c0-0.199,0.161-0.36,0.36-0.36h2c0.199,0,0.36,0.161,0.36,0.36v0.64h7.28V10
	c0-0.199,0.161-0.36,0.36-0.36h2c0.199,0,0.36,0.161,0.36,0.36v0.64H27v0.72h-9.64V12C17.36,12.199,17.199,12.36,17,12.36z
	 M15.36,11.64h1.28v-1.28h-1.28V11.64z M5.36,11.64h1.28v-1.28H5.36V11.64z M27,7.36h-2c-0.199,0-0.36-0.161-0.36-0.36V6.36H7.36V7
	c0,0.199-0.161,0.36-0.36,0.36H5C4.801,7.36,4.64,7.199,4.64,7V5c0-0.199,0.161-0.36,0.36-0.36h2c0.199,0,0.36,0.161,0.36,0.36v0.64
	h17.28V5c0-0.199,0.161-0.36,0.36-0.36h2c0.199,0,0.36,0.161,0.36,0.36v2C27.36,7.199,27.199,7.36,27,7.36z M25.36,6.64h1.279V5.36
	H25.36V6.64z M5.36,6.64h1.28V5.36H5.36V6.64z"/>
<rect id="_Transparent_Rectangle" style="fill:none;" width="32" height="32"/>
</svg>
