<?xml version="1.0" encoding="iso-8859-1"?>
<!-- Generator: Adobe Illustrator 22.0.0, SVG Export Plug-In . SVG Version: 6.00 Build 0)  -->
<svg version="1.1" xmlns="http://www.w3.org/2000/svg" xmlns:xlink="http://www.w3.org/1999/xlink" x="0px" y="0px"
	 viewBox="0 0 48 48" style="enable-background:new 0 0 48 48;" xml:space="preserve">
<g id="group">
	<path id="group_1_" style="fill:none;stroke:#000000;stroke-width:0.72;stroke-linejoin:round;stroke-miterlimit:10;" d="M16,39
		v-7.492c0-3.781,2.624-6.947,6.149-7.782c-1.596-0.71-2.709-2.306-2.709-4.166c0-2.519,2.042-4.56,4.56-4.56s4.56,2.042,4.56,4.56
		c0,1.859-1.114,3.455-2.709,4.166C29.376,24.561,32,27.727,32,31.508V39 M38,33v-7.492c0-3.781-2.624-6.947-6.149-7.782
		c1.595-0.71,2.709-2.306,2.709-4.166C34.56,11.042,32.519,9,30,9s-4.56,2.042-4.56,4.56c0,0.646,0.134,1.259,0.377,1.816
		 M22.184,15.376c0.242-0.556,0.377-1.17,0.377-1.816C22.56,11.042,20.519,9,18,9s-4.56,2.042-4.56,4.56
		c0,1.859,1.114,3.455,2.709,4.166C12.624,18.561,10,21.727,10,25.508V33"/>
</g>
<g id="Layer_1">
</g>
</svg>
