<?xml version="1.0" encoding="iso-8859-1"?>
<!-- Generator: Adobe Illustrator 29.1.0, SVG Export Plug-In . SVG Version: 9.03 Build 55587)  -->
<svg version="1.1" id="Layer_1" xmlns="http://www.w3.org/2000/svg" xmlns:xlink="http://www.w3.org/1999/xlink" x="0px" y="0px"
	 viewBox="0 0 32 32" style="enable-background:new 0 0 32 32;" xml:space="preserve">
<path id="growth-mindset_00000146488018279828392440000009464726635991443338_" d="M19,31.36h-6v-0.72h6V31.36z M20,29.36h-8v-0.72
	h8V29.36z M20,27.36h-8c-0.199,0-0.36-0.161-0.36-0.36v-1.5c0-2.753-0.86-5.044-2.555-6.808C6.896,16.415,5.64,13.611,5.64,11
	c0-5.712,4.646-10.359,10.357-10.36l0,0h0.001c0,0,0,0,0.001,0C21.713,0.641,26.36,5.288,26.36,11c0,2.608-1.258,5.412-3.449,7.692
	c-1.693,1.761-2.551,4.052-2.551,6.808V27C20.36,27.199,20.199,27.36,20,27.36z M12.36,26.64h7.28V25.5
	c0-2.948,0.926-5.407,2.752-7.306c2.064-2.149,3.248-4.771,3.248-7.194c0-5.315-4.324-9.64-9.641-9.64
	C10.684,1.36,6.36,5.685,6.36,11c0,2.426,1.183,5.048,3.244,7.194c1.829,1.901,2.756,4.36,2.756,7.306
	C12.36,25.5,12.36,26.64,12.36,26.64z M18.75,17.36c-1.144,0-2.11-0.967-2.11-2.11v-8.5c0-1.144,0.966-2.11,2.11-2.11
	c0.665,0,1.255,0.313,1.645,0.867c1.188,0.099,2.108,1.083,2.108,2.278c0,0.359-0.085,0.708-0.248,1.027
	C22.944,9.321,23.36,10.129,23.36,11s-0.416,1.679-1.105,2.188c0.163,0.318,0.248,0.667,0.248,1.027
	c0,1.202-0.932,2.191-2.111,2.282C20.002,17.048,19.414,17.36,18.75,17.36z M18.75,5.36c-0.754,0-1.39,0.637-1.39,1.39v8.5
	c0,0.753,0.636,1.39,1.39,1.39c0.468,0,0.88-0.248,1.131-0.68c0.065-0.112,0.175-0.191,0.316-0.179c0.884,0,1.585-0.703,1.585-1.566
	c0-0.332-0.106-0.652-0.31-0.926c-0.062-0.084-0.084-0.19-0.062-0.292s0.089-0.188,0.181-0.238c0.646-0.35,1.048-1.024,1.048-1.758
	s-0.401-1.408-1.048-1.758c-0.092-0.049-0.158-0.136-0.181-0.238c-0.022-0.102,0-0.208,0.062-0.292
	c0.203-0.274,0.31-0.595,0.31-0.926c0-0.865-0.703-1.569-1.568-1.569c-0.128,0-0.269-0.066-0.333-0.177
	C19.63,5.608,19.218,5.36,18.75,5.36z M13.25,17.36c-0.666,0-1.255-0.313-1.644-0.868c-1.188-0.099-2.109-1.083-2.109-2.278
	c0-0.358,0.085-0.708,0.248-1.027C9.056,12.679,8.64,11.871,8.64,11s0.416-1.679,1.105-2.188C9.582,8.493,9.497,8.144,9.497,7.786
	c0-1.203,0.932-2.191,2.112-2.282c0.389-0.552,0.977-0.864,1.641-0.864c1.144,0,2.11,0.966,2.11,2.11v8.5
	C15.36,16.394,14.394,17.36,13.25,17.36z M11.804,6.219c-0.886,0-1.587,0.703-1.587,1.566c0,0.331,0.107,0.651,0.311,0.927
	c0.062,0.084,0.084,0.19,0.061,0.292c-0.022,0.102-0.088,0.188-0.18,0.238C9.762,9.592,9.36,10.266,9.36,11s0.402,1.408,1.049,1.757
	c0.091,0.05,0.157,0.137,0.18,0.238c0.023,0.102,0,0.208-0.061,0.292c-0.203,0.276-0.311,0.596-0.311,0.927
	c0,0.865,0.704,1.569,1.569,1.569c0.128,0,0.27,0.066,0.334,0.177c0.25,0.432,0.663,0.68,1.13,0.68c0.753,0,1.39-0.637,1.39-1.39
	v-8.5c0-0.753-0.637-1.39-1.39-1.39c-0.468,0-0.88,0.248-1.13,0.68C12.055,6.152,11.956,6.241,11.804,6.219z"/>
<rect id="_Transparent_Rectangle" style="fill:none;" width="32" height="32"/>
</svg>
