<?xml version="1.0" encoding="iso-8859-1"?>
<!-- Generator: Adobe Illustrator 29.1.0, SVG Export Plug-In . SVG Version: 9.03 Build 55587)  -->
<svg version="1.1" id="Layer_1" xmlns="http://www.w3.org/2000/svg" xmlns:xlink="http://www.w3.org/1999/xlink" x="0px" y="0px"
	 viewBox="0 0 32 32" style="enable-background:new 0 0 32 32;" xml:space="preserve">
<path id="guadalajara--seal_00000088132568364152143410000000681490947336085950_" d="M28,31.36h-2
	c-0.137,0-0.261-0.077-0.322-0.199l-0.9-1.801H24c-0.056,0-0.111-0.014-0.161-0.038c-0.051-0.025-1.071-0.546-1.704-1.589
	L22.07,27.93c-0.186,0.556-0.703,0.93-1.29,0.93h-1.951c0.459,0.896,1.369,1.779,3.172,1.779h1v0.721h-1
	c-4.311,0-4.36-4.316-4.36-4.36v-5.851l-0.894-0.895c-0.202-0.202-0.313-0.47-0.313-0.755s0.111-0.553,0.313-0.755
	c0.244-0.244,0.58-0.346,0.894-0.303V17c0-3.186,2.109-4.277,2.199-4.322l0.322,0.644L20,13l0.163,0.321
	c-0.038,0.019-0.499,0.264-0.945,0.854C19.76,14.48,20.37,14.64,21,14.64c1.76,0,3.264-1.261,3.574-2.997
	c0.013-0.068,0.044-0.13,0.09-0.181c0.63-0.68,0.976-1.555,0.976-2.462c0-1.299-0.714-2.509-1.864-3.158
	c-0.1-0.056-0.167-0.157-0.181-0.271C23.378,3.741,21.832,2.36,20,2.36c-0.658,0-1.314,0.189-1.896,0.547
	C17.951,3,17.755,2.969,17.641,2.833C16.845,1.897,15.7,1.36,14.5,1.36c-1.769,0-3.338,1.137-3.907,2.83
	c-0.042,0.123-0.146,0.215-0.274,0.239C8.604,4.754,7.36,6.256,7.36,8c0,0.344,0.062,0.706,0.191,1.105
	c0.023,0.07,0.023,0.145,0.002,0.214C7.421,9.76,7.36,10.135,7.36,10.5c0,2.283,1.857,4.14,4.14,4.14
	c0.496,0,0.976-0.085,1.432-0.254c-0.487-0.744-1.053-1.044-1.094-1.065l0.324-0.643c0.09,0.044,2.199,1.136,2.199,4.322v5.477
	l0.441,0.248c0.534,0.308,0.716,0.988,0.41,1.518c-0.148,0.257-0.387,0.44-0.674,0.518c-0.059,0.016-0.118,0.026-0.177,0.032V27
	c0,0.044-0.05,4.36-4.36,4.36H9v-0.72h1c1.803,0,2.713-0.883,3.172-1.779h-2.495c-0.532,0-1.006-0.304-1.23-0.779
	c-0.648,0.974-1.274,1.237-1.313,1.253C8.092,29.352,8.046,29.36,8,29.36H7.223l-0.901,1.801C6.261,31.283,6.136,31.36,6,31.36H4
	c-0.128,0-0.247-0.068-0.312-0.18s-0.065-0.248-0.001-0.359l2-3.5C5.751,27.209,5.871,27.14,6,27.14h0.756l0.587-1.469
	c-0.742-0.332-1.713-1.154-1.704-2.673c0.005-0.818,0.295-1.257,0.55-1.645C6.432,20.988,6.64,20.672,6.64,20
	c0-0.353-0.287-0.64-0.64-0.64S5.36,19.647,5.36,20H4.64c0-0.75,0.61-1.36,1.36-1.36c0.276,0,0.533,0.083,0.748,0.225
	C7.208,16.669,8.979,16.64,9,16.64l2.571,0.507c0.101,0.02,0.189,0.083,0.241,0.172s0.062,0.196,0.03,0.295l-0.5,1.5
	c-0.05,0.147-0.187,0.246-0.342,0.246c-0.353,0-0.64,0.287-0.64,0.64s0.287,0.64,0.64,0.64h0.5c0.353,0,0.64-0.287,0.64-0.64h0.72
	c0,0.529-0.304,0.988-0.746,1.213l1.526,0.858V17c0-0.809-0.153-1.458-0.369-1.973c-0.563,0.221-1.157,0.333-1.771,0.333
	c-2.68,0-4.86-2.18-4.86-4.86c0-0.406,0.061-0.815,0.192-1.281C6.703,8.788,6.64,8.388,6.64,8c0-2.02,1.393-3.769,3.341-4.235
	C10.7,1.887,12.491,0.64,14.5,0.64c1.313,0,2.568,0.545,3.488,1.504C18.616,1.814,19.307,1.64,20,1.64
	c2.137,0,3.947,1.564,4.285,3.667C25.569,6.102,26.36,7.501,26.36,9c0,1.055-0.389,2.071-1.097,2.873
	C24.851,13.9,23.074,15.36,21,15.36c-0.765,0-1.505-0.197-2.161-0.572C18.566,15.335,18.36,16.06,18.36,17v1.851l1.711,1.711
	L21.194,20c0.14-0.069,0.287-0.113,0.437-0.133c-0.069-0.459-0.495-0.505-0.634-0.507c-0.152-0.003-0.29-0.102-0.339-0.246l-0.5-1.5
	c-0.032-0.099-0.021-0.206,0.03-0.295s0.14-0.152,0.241-0.172l2.5-0.5c0.071-0.003,1.86,0.018,2.322,2.218
	c0.215-0.143,0.472-0.226,0.748-0.226c0.75,0,1.36,0.61,1.36,1.36H26.64c0-0.353-0.287-0.64-0.64-0.64s-0.64,0.287-0.64,0.64
	c0,0.672,0.208,0.987,0.449,1.354c0.256,0.387,0.546,0.826,0.551,1.645c0.009,1.519-0.962,2.342-1.704,2.673l0.588,1.469H26
	c0.129,0,0.248,0.069,0.312,0.182l2,3.5c0.063,0.111,0.063,0.248-0.001,0.359S28.128,31.36,28,31.36z M26.223,30.64h1.157
	l-1.589-2.779H25c-0.147,0-0.279-0.09-0.334-0.227l-0.337-0.841c-0.284,0.362-0.76,0.567-1.329,0.567h-0.249
	c0.439,0.721,1.123,1.153,1.341,1.279H25c0.137,0,0.261,0.077,0.322,0.199L26.223,30.64z M4.62,30.64h1.157l0.901-1.801
	C6.739,28.717,6.864,28.64,7,28.64h0.915c0.221-0.126,1.138-0.755,1.741-2.744c0.018-0.057,0.048-0.108,0.09-0.15
	c0.847-0.847,0.892-1.69,0.895-2.996c0-0.127,0.067-0.245,0.177-0.31c0.109-0.064,0.245-0.065,0.356-0.005l2.875,1.587
	c0.096,0.056,0.201,0.071,0.302,0.043c0.101-0.027,0.185-0.092,0.237-0.182c0.107-0.187,0.043-0.426-0.143-0.533l-3.546-1.993
	C10.196,21.305,9.64,20.716,9.64,20c0-0.658,0.47-1.209,1.091-1.333l0.298-0.894l-2.1-0.421C8.936,17.361,7.36,17.42,7.36,20
	c0,0.836,0.886,1.736,0.895,1.746c1.17,1.169,0.113,3.324,0.067,3.415l-0.987,2.473C7.28,27.771,7.147,27.86,7,27.86H6.209
	L4.62,30.64z M18.544,28.14h2.235c0.276,0,0.52-0.176,0.606-0.437l0.272-0.817c0.05-0.146,0.187-0.246,0.342-0.246h1
	c0.373,0,0.664-0.125,0.799-0.343c0.111-0.181,0.124-0.433,0.04-0.73l-0.168-0.419c-1.092-2.198,0.026-3.354,0.074-3.402
	c0.009-0.009,0.895-0.909,0.895-1.745c0-2.58-1.576-2.639-1.643-2.64l-2.027,0.411l0.299,0.896c0.505,0.099,1.08,0.481,1.091,1.309
	c0.148,0.066,0.285,0.16,0.405,0.279l0.49,0.49l-0.51,0.51l-0.49-0.49c-0.195-0.195-0.492-0.244-0.738-0.12l-1.355,0.678
	c-0.142,0.068-0.307,0.04-0.416-0.067l-2-2c-0.135-0.137-0.355-0.137-0.49,0c-0.136,0.135-0.136,0.355,0,0.49l2.816,2.816
	l1.768-0.884l0.322,0.645l-0.794,0.396c0.053,0.823,0.409,1.333,0.928,2.075c0.077,0.109,0.086,0.253,0.024,0.372
	C22.257,25.285,22.134,25.36,22,25.36h-1c-0.353,0-0.64,0.287-0.64,0.64v1c0,0.199-0.161,0.36-0.36,0.36h-1.615
	C18.409,27.563,18.455,27.837,18.544,28.14z M9.898,27.276l0.185,0.461c0.098,0.245,0.331,0.402,0.594,0.402h2.779
	c0.088-0.302,0.134-0.576,0.158-0.779H12c-0.199,0-0.36-0.161-0.36-0.36v-1c0-0.353-0.287-0.64-0.64-0.64h-0.076
	c-0.147,0.282-0.344,0.557-0.606,0.829C10.189,26.602,10.047,26.962,9.898,27.276z M18.36,26.64h1.279V26
	c0-0.75,0.61-1.36,1.36-1.36h0.319c-0.312-0.483-0.55-0.959-0.641-1.577l-0.518,0.26c-0.142,0.067-0.307,0.04-0.416-0.067
	l-1.385-1.386v4.77H18.36z M12.36,26.64h1.28v-2.021l-2.289-1.263c-0.015,0.472-0.055,0.898-0.159,1.298
	c0.659,0.094,1.167,0.662,1.167,1.347v0.639H12.36z M7.049,21.33c-0.082,0.153-0.171,0.29-0.258,0.42
	c-0.229,0.348-0.427,0.647-0.431,1.252c-0.008,1.239,0.8,1.787,1.253,1.997l0.053-0.133c0.257-0.52,0.747-1.945,0.08-2.611
	C7.719,22.229,7.353,21.857,7.049,21.33z M24.951,21.329c-0.304,0.528-0.671,0.899-0.696,0.926c-0.03,0.031-0.792,0.865,0.067,2.584
	c0.026,0.054,0.051,0.105,0.073,0.156c0.454-0.213,1.252-0.762,1.244-1.993c-0.003-0.604-0.201-0.904-0.431-1.252
	C25.123,21.62,25.033,21.483,24.951,21.329z M16.36,15h-0.72c0.001-0.918,0.338-1.602,0.823-2.159
	c-1.304,0.115-2.623-0.257-3.68-1.053l0.433-0.575c1.614,1.213,3.95,1.214,5.568,0l0.432,0.575
	c-0.405,0.305-0.845,0.547-1.309,0.724C17.151,13.073,16.361,13.779,16.36,15z"/>
<rect id="_Transparent_Rectangle" style="fill:none;" width="32" height="32"/>
</svg>
