<?xml version="1.0" encoding="iso-8859-1"?>
<!-- Generator: Adobe Illustrator 24.1.2, SVG Export Plug-In . SVG Version: 6.00 Build 0)  -->
<svg version="1.1" id="Layer_1" xmlns="http://www.w3.org/2000/svg" xmlns:xlink="http://www.w3.org/1999/xlink" x="0px" y="0px"
	 viewBox="0 0 32 32" style="enable-background:new 0 0 32 32;" xml:space="preserve">
<path id="hail--heavy_1_" d="M7,26.43c0,0.552-0.448,1-1,1s-1-0.448-1-1s0.448-1,1-1S7,25.878,7,26.43z M9.5,27.93
	c-0.552,0-1,0.448-1,1s0.448,1,1,1s1-0.448,1-1S10.052,27.93,9.5,27.93z M19.5,27.93c-0.552,0-1,0.448-1,1s0.448,1,1,1s1-0.448,1-1
	S20.052,27.93,19.5,27.93z M16,25.43c-0.552,0-1,0.448-1,1s0.448,1,1,1s1-0.448,1-1S16.552,25.43,16,25.43z M20.75,26.986
	c-0.062,0-0.123-0.016-0.18-0.049c-0.173-0.1-0.231-0.319-0.132-0.491l3-5.196c0.1-0.174,0.321-0.23,0.491-0.132
	c0.173,0.1,0.231,0.319,0.132,0.491l-3,5.196C20.995,26.922,20.874,26.986,20.75,26.986z M10.75,26.986
	c-0.061,0-0.123-0.016-0.18-0.049c-0.172-0.1-0.231-0.319-0.132-0.491l3-5.196c0.099-0.173,0.32-0.233,0.492-0.132
	c0.172,0.1,0.231,0.319,0.132,0.491l-3,5.196C10.995,26.922,10.874,26.986,10.75,26.986z M17.25,24.389
	c-0.062,0-0.123-0.016-0.18-0.049c-0.172-0.1-0.231-0.319-0.132-0.491l1.5-2.599c0.1-0.174,0.32-0.23,0.491-0.132
	c0.173,0.1,0.231,0.319,0.132,0.491l-1.5,2.599C17.495,24.324,17.374,24.389,17.25,24.389z M7.25,24.389
	c-0.061,0-0.123-0.016-0.18-0.049c-0.172-0.1-0.231-0.319-0.132-0.491l1.5-2.599c0.1-0.173,0.318-0.233,0.492-0.132
	c0.172,0.1,0.231,0.319,0.132,0.491l-1.5,2.599C7.495,24.324,7.374,24.389,7.25,24.389z M5.631,18.79
	c-2.894-0.036-4.991-2.014-4.991-4.702c0-2.767,2.239-5.018,4.991-5.018c0.691,0,1.377,0.145,2.01,0.422
	c0.647-4.138,4.262-7.422,8.286-7.422c3.281,0,6.332,2.085,7.689,5.223c0.599-0.153,1.309-0.223,1.811-0.223
	c3.271,0,5.934,2.662,5.934,5.933c0,3.21-2.604,5.751-5.93,5.787C25.431,18.79,5.631,18.79,5.631,18.79z M5.631,9.79
	c-2.355,0-4.271,1.928-4.271,4.298c0,2.276,1.798,3.951,4.275,3.981h19.792c2.922-0.03,5.213-2.256,5.213-5.066
	c0-2.875-2.338-5.213-5.213-5.213c-0.636,0-1.419,0.115-1.905,0.28c-0.183,0.064-0.38-0.031-0.451-0.21
	c-1.18-3.032-4.051-5.07-7.144-5.07c-3.829,0-7.253,3.269-7.634,7.286c-0.012,0.122-0.084,0.229-0.192,0.286
	c-0.107,0.057-0.238,0.055-0.344-0.006C7.108,9.985,6.373,9.79,5.631,9.79z"/>
<rect id="_Transparent_Rectangle" style="fill:none;" width="32" height="32"/>
</svg>
