<?xml version="1.0" encoding="iso-8859-1"?>
<!-- Generator: Adobe Illustrator 22.0.0, SVG Export Plug-In . SVG Version: 6.00 Build 0)  -->
<svg version="1.1" xmlns="http://www.w3.org/2000/svg" xmlns:xlink="http://www.w3.org/1999/xlink" x="0px" y="0px"
	 viewBox="0 0 48 48" style="enable-background:new 0 0 48 48;" xml:space="preserve">
<g id="handicap_active">
	
		<path id="handicap_active_1_" style="fill:none;stroke:#000000;stroke-width:0.72;stroke-linejoin:round;stroke-miterlimit:10;" d="
		M27,11c-1.381,0-2.5,1.119-2.5,2.5S25.619,16,27,16s2.5-1.119,2.5-2.5S28.381,11,27,11z M35,34l-3,2l-3.712-6.478
		c-0.178-0.31-0.508-0.502-0.866-0.503l-6.069-0.012c-1.498-0.003-2.461-1.591-1.771-2.921l3.421-6.595
		C23.495,18.651,24.051,18,25,18c0.98,0,1.353,0.417,1.643,1.109L28.071,24h5 M17,22l2-4h6 M26,31c0,3.866-3.134,7-7,7s-7-3.134-7-7
		s3.134-7,7-7"/>
</g>
<g id="Layer_1">
</g>
</svg>
