<svg xmlns="http://www.w3.org/2000/svg" viewBox="0 0 48 48"><path d="M27.999,14c-0.552,0-1-0.448-1-1c0-0.552,0.448-1,1-1s1,0.448,1,1C28.999,13.552,28.551,14,27.999,14z M29,24.001 c0-0.552-0.448-1-1-1s-1,0.448-1,1c0,0.552,0.448,1,1,1S29,24.553,29,24.001z M29.001,35.002c0-0.552-0.448-1-1-1 c-0.552,0-1,0.448-1,1s0.448,1,1,1C28.553,36.002,29.001,35.554,29.001,35.002z"/><path fill="none" stroke-linejoin="round" stroke-miterlimit="10" stroke-width=".72" d="M32,17H9V9h23V17z M32,20H9v8h23V20z M32,31H9v8h23V31z M34,24h5 M34,35l5,0V13h-5"/></svg>