<?xml version="1.0" encoding="iso-8859-1"?>
<!-- Generator: Adobe Illustrator 22.0.0, SVG Export Plug-In . SVG Version: 6.00 Build 0)  -->
<svg version="1.1" xmlns="http://www.w3.org/2000/svg" xmlns:xlink="http://www.w3.org/1999/xlink" x="0px" y="0px"
	 viewBox="0 0 48 48" style="enable-background:new 0 0 48 48;" xml:space="preserve">
<g id="hard_drive">
	<g id="hard_drive_1_">
		<path d="M34,14c-0.552,0-1-0.448-1-1s0.448-1,1-1s1,0.448,1,1S34.552,14,34,14z M35,24c0-0.552-0.448-1-1-1c-0.552,0-1,0.448-1,1
			s0.448,1,1,1C34.552,25,35,24.552,35,24z M35,35c0-0.552-0.448-1-1-1s-1,0.448-1,1s0.448,1,1,1S35,35.552,35,35z"/>
		<path style="fill:none;stroke:#000000;stroke-width:0.72;stroke-linecap:round;stroke-linejoin:round;stroke-miterlimit:10;" d="
			M39,17H9V9h30V17z M39,20H9v8h30V20z M39,31H9v8h30V31z"/>
	</g>
</g>
<g id="Layer_1">
</g>
</svg>
