<?xml version="1.0" encoding="iso-8859-1"?>
<!-- Generator: Adobe Illustrator 22.0.0, SVG Export Plug-In . SVG Version: 6.00 Build 0)  -->
<svg version="1.1" xmlns="http://www.w3.org/2000/svg" xmlns:xlink="http://www.w3.org/1999/xlink" x="0px" y="0px"
	 viewBox="0 0 48 48" style="enable-background:new 0 0 48 48;" xml:space="preserve">
<g id="hard_drive_network">
	<g id="hard_drive_network_1_">
		<path d="M27.999,14c-0.552,0-1-0.448-1-1c0-0.552,0.448-1,1-1s1,0.448,1,1C28.999,13.552,28.551,14,27.999,14z M29,24.001
			c0-0.552-0.448-1-1-1s-1,0.448-1,1c0,0.552,0.448,1,1,1S29,24.553,29,24.001z M29.001,35.002c0-0.552-0.448-1-1-1
			c-0.552,0-1,0.448-1,1s0.448,1,1,1C28.553,36.002,29.001,35.554,29.001,35.002z"/>
		<path style="fill:none;stroke:#000000;stroke-width:0.72;stroke-linejoin:round;stroke-miterlimit:10;" d="M32,17H9V9h23V17z
			 M32,20H9v8h23V20z M32,31H9v8h23V31z M34,24h5 M34,35l5,0V13h-5"/>
	</g>
</g>
<g id="Layer_1">
</g>
</svg>
