<?xml version="1.0" encoding="iso-8859-1"?>
<!-- Generator: Adobe Illustrator 24.1.2, SVG Export Plug-In . SVG Version: 6.00 Build 0)  -->
<svg version="1.1" id="Layer_1" xmlns="http://www.w3.org/2000/svg" xmlns:xlink="http://www.w3.org/1999/xlink" x="0px" y="0px"
	 viewBox="0 0 32 32" style="enable-background:new 0 0 32 32;" xml:space="preserve">
<path id="heat--map--02_1_" d="M18,31.4c-1.3,0-2.4-1.1-2.4-2.4s1.1-2.4,2.4-2.4s2.4,1.1,2.4,2.4S19.3,31.4,18,31.4z M18,27.4
	c-0.9,0-1.6,0.7-1.6,1.6s0.7,1.6,1.6,1.6s1.6-0.7,1.6-1.6S18.9,27.4,18,27.4z M7,31.4c-3,0-5.4-2.4-5.4-5.4c0-1,0.3-2,0.8-2.8
	c-1.1-0.4-1.8-1.5-1.8-2.7c0-1.6,1.3-2.9,2.9-2.9s2.9,1.3,2.9,2.9c0,0.1,0,0.1,0,0.2c3.2-0.4,6,2.1,6,5.3C12.4,29,10,31.4,7,31.4z
	 M3.5,18.4c-1.2,0-2.1,1-2.1,2.1c0,1,0.7,1.9,1.8,2.1c0.1,0,0.2,0.1,0.3,0.2c0,0.1,0,0.2-0.1,0.4c-0.6,0.8-1,1.8-1,2.8
	c0,2.6,2.1,4.6,4.6,4.6s4.6-2.1,4.6-4.6s-2-4.6-4.6-4.6c-0.3,0-0.7,0-1,0.1c-0.1,0-0.3,0-0.3-0.1c-0.1-0.1-0.1-0.2-0.1-0.3
	c0.1-0.2,0.1-0.4,0.1-0.5C5.6,19.3,4.7,18.4,3.5,18.4z M28,28.4c-1.9,0-3.4-1.5-3.4-3.4s1.5-3.4,3.4-3.4s3.4,1.5,3.4,3.4
	S29.9,28.4,28,28.4z M28,22.4c-1.5,0-2.6,1.2-2.6,2.6s1.2,2.6,2.6,2.6s2.6-1.2,2.6-2.6S29.5,22.4,28,22.4z M17,23.4
	c-1.9,0-3.4-1.5-3.4-3.4c0-2.1,1.9-3.7,4-3.3c0.1-1.2,1.1-2.1,2.3-2.1c1.3,0,2.4,1.1,2.4,2.4c0,1.2-0.9,2.2-2.1,2.3
	c0,0.2,0.1,0.4,0.1,0.7C20.4,21.9,18.9,23.4,17,23.4z M17,17.4c-1.5,0-2.6,1.2-2.6,2.6s1.2,2.6,2.6,2.6c1.5,0,2.6-1.2,2.6-2.6
	c0-0.3-0.1-0.6-0.2-0.9c0-0.1,0-0.2,0.1-0.3s0.2-0.1,0.3-0.1H20c0.9,0,1.6-0.7,1.6-1.6s-0.7-1.6-1.6-1.6s-1.6,0.7-1.6,1.6
	c0,0,0,0.1,0,0.2s0,0.2-0.1,0.3c-0.1,0.1-0.2,0.1-0.3,0.1C17.6,17.4,17.3,17.4,17,17.4z M28,17.4c-0.8,0-1.4-0.6-1.4-1.4
	s0.6-1.4,1.4-1.4s1.4,0.6,1.4,1.4S28.8,17.4,28,17.4z M28,15.4c-0.4,0-0.6,0.3-0.6,0.6c0,0.3,0.3,0.6,0.6,0.6s0.6-0.3,0.6-0.6
	S28.4,15.4,28,15.4z M5,15.4c-1.3,0-2.4-1.1-2.4-2.4s1.1-2.4,2.4-2.4s2.4,1.1,2.4,2.4S6.3,15.4,5,15.4z M5,11.4
	c-0.9,0-1.6,0.7-1.6,1.6s0.7,1.6,1.6,1.6s1.6-0.7,1.6-1.6S5.9,11.4,5,11.4z M12.5,13.4c-1.6,0-2.9-1.3-2.9-2.9c0-1.4,1-2.5,2.3-2.8
	c-0.2-0.6-0.3-1.1-0.3-1.7c0-3,2.4-5.4,5.4-5.4S22.4,3,22.4,6S20,11.4,17,11.4c-0.6,0-1.2-0.1-1.7-0.3C15,12.4,13.9,13.4,12.5,13.4z
	 M17,1.4c-2.6,0-4.6,2.1-4.6,4.6c0,0.6,0.1,1.3,0.4,1.9c0,0.1,0,0.2,0,0.3c-0.1,0.1-0.2,0.2-0.3,0.2c-1.2,0-2.1,1-2.1,2.1
	c0,1.2,1,2.1,2.1,2.1c1.2,0,2.1-0.9,2.1-2.1c0-0.1,0.1-0.2,0.2-0.3s0.2-0.1,0.3,0c0.6,0.3,1.2,0.4,1.9,0.4c2.6,0,4.6-2.1,4.6-4.6
	S19.6,1.4,17,1.4z M27,10.4c-1.3,0-2.4-1.1-2.4-2.4s1.1-2.4,2.4-2.4s2.4,1.1,2.4,2.4S28.3,10.4,27,10.4z M27,6.4
	c-0.9,0-1.6,0.7-1.6,1.6s0.7,1.6,1.6,1.6s1.6-0.7,1.6-1.6S27.9,6.4,27,6.4z M2,9.4C1.2,9.4,0.6,8.8,0.6,8S1.2,6.6,2,6.6
	S3.4,7.2,3.4,8S2.8,9.4,2,9.4z M2,7.4C1.6,7.4,1.4,7.6,1.4,8c0,0.4,0.3,0.6,0.6,0.6S2.6,8.4,2.6,8S2.4,7.4,2,7.4z M7,6.4
	C5.7,6.4,4.6,5.3,4.6,4S5.7,1.6,7,1.6S9.4,2.7,9.4,4S8.3,6.4,7,6.4z M7,2.4C6.1,2.4,5.4,3.1,5.4,4S6.1,5.6,7,5.6S8.6,4.9,8.6,4
	S7.9,2.4,7,2.4z M30,4.4c-0.8,0-1.4-0.6-1.4-1.4s0.6-1.4,1.4-1.4s1.4,0.6,1.4,1.4S30.8,4.4,30,4.4z M30,2.4c-0.4,0-0.6,0.3-0.6,0.6
	s0.3,0.6,0.6,0.6s0.6-0.3,0.6-0.6S30.4,2.4,30,2.4z"/>
<rect id="_Transparent_Rectangle" style="fill:none;" width="32" height="32"/>
</svg>
