<?xml version="1.0" encoding="iso-8859-1"?>
<!-- Generator: Adobe Illustrator 22.0.0, SVG Export Plug-In . SVG Version: 6.00 Build 0)  -->
<svg version="1.1" xmlns="http://www.w3.org/2000/svg" xmlns:xlink="http://www.w3.org/1999/xlink" x="0px" y="0px"
	 viewBox="0 0 48 48" style="enable-background:new 0 0 48 48;" xml:space="preserve">
<g id="heat_map">
	
		<path id="analytics-big-data-data-07_1_" style="fill:none;stroke:#000000;stroke-width:0.72;stroke-linejoin:round;stroke-miterlimit:10;" d="
		M38,38h-4v-4h4V38z M12,26h-2v2h2V26z M38,13h-2v2h2V13z M34,22h-2v2h2V22z M29,9h-2v2h2V9z M24,27h-2v2h2V27z M14,16h-2v2h2V16z
		 M22,20h-2v2h2V20z M20,11h-4v4h4V11z M32,29h-4v4h4V29z M27,24h-3v3h3V24z M23,36h-3v3h3V36z M39,26h-3v3h3V26z M12,18H9v3h3V18z
		 M36,15h-3v3h3V15z M15,21h-3v3h3V21z M28,14h-6v6h6V14z M18,28h-6v6h6V28z"/>
</g>
<g id="Layer_1">
</g>
</svg>
