<?xml version="1.0" encoding="iso-8859-1"?>
<!-- Generator: Adobe Illustrator 29.1.0, SVG Export Plug-In . SVG Version: 9.03 Build 55587)  -->
<svg version="1.1" id="Layer_1" xmlns="http://www.w3.org/2000/svg" xmlns:xlink="http://www.w3.org/1999/xlink" x="0px" y="0px"
	 viewBox="0 0 32 32" style="enable-background:new 0 0 32 32;" xml:space="preserve">
<path id="helmet_00000139286636188423540550000001280494889108997274_" d="M25,26.36H4c-0.163,0-0.306-0.11-0.348-0.268
	c-0.05-0.187-1.214-4.586-0.98-6.146c0.09-0.598,0.892-1.887,1.051-2.139L7.678,9.84c1.887-3.311,5.281-5.2,9.322-5.2
	c3.33,0,6.222,1.078,8.085,2H27c0.199,0,0.36,0.161,0.36,0.36v1.853c1.909,1.979,3.001,4.576,3,7.147
	c0,2.217-0.71,4.364-2.054,6.212l-3.02,4.005C25.22,26.307,25.113,26.36,25,26.36z M4.278,25.64H24.82l2.908-3.856
	c1.249-1.719,1.911-3.72,1.911-5.783c0.001-2.145-0.821-4.312-2.279-6.068V12c0,0.096-0.038,0.187-0.105,0.254l-2,2l-0.51-0.509
	l1.895-1.895V7.36H25c-0.056,0-0.111-0.013-0.161-0.038C23.049,6.427,20.235,5.36,17,5.36c-3.775,0-6.942,1.756-8.687,4.818
	l-0.792,1.596l6.375,1.821l0.851-0.85c0.067-0.068,0.159-0.105,0.254-0.105h2c0.107,0,0.21,0.048,0.278,0.132
	c0.068,0.083,0.096,0.193,0.074,0.299l-1,5c-0.034,0.169-0.182,0.29-0.353,0.29H4.227c-0.349,0.574-0.796,1.384-0.842,1.693
	C3.22,21.149,3.918,24.237,4.278,25.64z M4.608,17.64h11.097l0.856-4.28h-1.412l-0.895,0.895c-0.092,0.094-0.228,0.128-0.354,0.092
	L7.195,12.43L4.608,17.64z"/>
<rect id="_Transparent_Rectangle" style="fill:none;" width="32" height="32"/>
</svg>
