<?xml version="1.0" encoding="iso-8859-1"?>
<!-- Generator: Adobe Illustrator 26.3.1, SVG Export Plug-In . SVG Version: 6.00 Build 0)  -->
<svg version="1.1" id="Layer_1" xmlns="http://www.w3.org/2000/svg" xmlns:xlink="http://www.w3.org/1999/xlink" x="0px" y="0px"
	 viewBox="0 0 32 32" style="enable-background:new 0 0 32 32;" xml:space="preserve">
<path id="high-volume-data_00000088094935534281783370000001457773253052732567_" d="M16,31.36c-0.647,0-1.19-0.454-1.327-1.061
	c-4.193-0.384-7.953-2.555-10.395-6.002c-0.128,0.04-0.265,0.062-0.406,0.062c-0.75,0-1.36-0.61-1.36-1.36
	c0-0.395,0.168-0.75,0.437-0.998C2.081,20.116,1.64,18.099,1.64,16c0-2.098,0.44-4.116,1.31-6.002C2.682,9.75,2.513,9.394,2.513,9
	c0-0.75,0.61-1.36,1.36-1.36c0.141,0,0.278,0.021,0.406,0.062c2.443-3.448,6.202-5.618,10.395-6.001
	C14.81,1.094,15.353,0.64,16,0.64c0.647,0,1.19,0.454,1.327,1.061c4.192,0.383,7.952,2.553,10.394,6.001
	c0.129-0.04,0.265-0.062,0.406-0.062c0.75,0,1.36,0.61,1.36,1.36c0,0.394-0.169,0.75-0.438,0.998
	c0.869,1.885,1.311,3.903,1.311,6.002c0,2.097-0.441,4.114-1.311,6.002c0.269,0.248,0.438,0.604,0.438,0.998
	c0,0.75-0.61,1.36-1.36,1.36c-0.142,0-0.277-0.022-0.406-0.062c-2.441,3.447-6.2,5.618-10.394,6.002
	C17.19,30.906,16.647,31.36,16,31.36z M16,29.36c-0.353,0-0.64,0.287-0.64,0.64s0.287,0.64,0.64,0.64s0.64-0.287,0.64-0.64
	S16.353,29.36,16,29.36z M4.885,23.908c2.314,3.251,5.863,5.3,9.822,5.671c0.177-0.544,0.69-0.939,1.293-0.939
	s1.116,0.396,1.294,0.939c3.959-0.371,7.508-2.42,9.821-5.672c-0.217-0.24-0.349-0.559-0.349-0.907c0-0.75,0.61-1.36,1.36-1.36
	c0.097,0,0.191,0.011,0.283,0.03c0.816-1.784,1.229-3.689,1.229-5.67c0-1.982-0.413-3.888-1.229-5.669
	c-0.092,0.019-0.187,0.029-0.283,0.029c-0.75,0-1.36-0.61-1.36-1.36c0-0.349,0.132-0.667,0.349-0.908
	c-2.314-3.251-5.863-5.301-9.821-5.672C17.116,2.965,16.603,3.36,16,3.36s-1.116-0.395-1.293-0.939
	C10.749,2.792,7.2,4.841,4.885,8.093C5.101,8.333,5.233,8.651,5.233,9c0,0.75-0.61,1.36-1.36,1.36c-0.097,0-0.192-0.01-0.283-0.029
	C2.773,12.113,2.36,14.018,2.36,16s0.414,3.888,1.23,5.67c0.091-0.02,0.186-0.03,0.283-0.03c0.75,0,1.36,0.61,1.36,1.36
	C5.233,23.349,5.101,23.667,4.885,23.908z M28.127,22.36c-0.353,0-0.64,0.287-0.64,0.64s0.287,0.64,0.64,0.64s0.64-0.287,0.64-0.64
	S28.479,22.36,28.127,22.36z M3.873,22.36c-0.353,0-0.64,0.287-0.64,0.64s0.287,0.64,0.64,0.64s0.64-0.287,0.64-0.64
	S4.226,22.36,3.873,22.36z M28.127,8.36c-0.353,0-0.64,0.287-0.64,0.64s0.287,0.64,0.64,0.64s0.64-0.287,0.64-0.64
	S28.479,8.36,28.127,8.36z M3.873,8.36c-0.353,0-0.64,0.287-0.64,0.64s0.287,0.64,0.64,0.64S4.513,9.353,4.513,9
	S4.226,8.36,3.873,8.36z M16,1.36c-0.353,0-0.64,0.287-0.64,0.64S15.647,2.64,16,2.64c0.353,0,0.64-0.287,0.64-0.64
	S16.353,1.36,16,1.36z M16,23.36c-1.933,0-3.802-0.771-5.174-2.126c-0.174,0.08-0.367,0.126-0.571,0.126
	c-0.75,0-1.36-0.61-1.36-1.36c0-0.375,0.153-0.716,0.399-0.962C8.86,18.083,8.64,17.062,8.64,16c0-3.542,2.568-6.603,6.021-7.239
	C14.774,8.125,15.332,7.64,16,7.64c0.668,0,1.226,0.485,1.339,1.121C20.792,9.398,23.36,12.458,23.36,16
	c0,1.062-0.22,2.082-0.654,3.038c0.246,0.247,0.399,0.587,0.399,0.962c0,0.75-0.61,1.36-1.36,1.36c-0.204,0-0.397-0.046-0.571-0.126
	C19.802,22.589,17.933,23.36,16,23.36z M11.378,20.767c1.233,1.194,2.899,1.873,4.622,1.873s3.389-0.679,4.622-1.873
	c-0.149-0.219-0.237-0.482-0.237-0.767c0-0.75,0.61-1.36,1.36-1.36c0.114,0,0.226,0.015,0.332,0.041
	c0.374-0.845,0.562-1.745,0.562-2.681c0-3.173-2.285-5.919-5.367-6.519C17.077,9.995,16.581,10.36,16,10.36
	s-1.077-0.365-1.272-0.878C11.646,10.081,9.36,12.827,9.36,16c0,0.936,0.189,1.836,0.563,2.681c0.106-0.026,0.217-0.041,0.332-0.041
	c0.75,0,1.36,0.61,1.36,1.36C11.615,20.284,11.527,20.548,11.378,20.767z M21.745,19.36c-0.353,0-0.64,0.287-0.64,0.64
	s0.287,0.64,0.64,0.64s0.64-0.287,0.64-0.64S22.098,19.36,21.745,19.36z M10.255,19.36c-0.353,0-0.64,0.287-0.64,0.64
	s0.287,0.64,0.64,0.64s0.64-0.287,0.64-0.64S10.608,19.36,10.255,19.36z M16,8.36c-0.353,0-0.64,0.287-0.64,0.64
	S15.647,9.64,16,9.64c0.353,0,0.64-0.287,0.64-0.64S16.353,8.36,16,8.36z"/>
<rect id="_Transparent_Rectangle" style="fill:none;" width="32" height="32"/>
</svg>
