<?xml version="1.0" encoding="iso-8859-1"?>
<!-- Generator: Adobe Illustrator 29.1.0, SVG Export Plug-In . SVG Version: 9.03 Build 55587)  -->
<svg version="1.1" id="Layer_1" xmlns="http://www.w3.org/2000/svg" xmlns:xlink="http://www.w3.org/1999/xlink" x="0px" y="0px"
	 viewBox="0 0 32 32" style="enable-background:new 0 0 32 32;" xml:space="preserve">
<path id="hiking_00000046301110758025995350000014116415988570674585_" d="M23.5,31.36c-1.025,0-1.86-0.835-1.86-1.86v-5.355
	l-1.457-1.523l-0.579,1.737c-0.192,0.575-0.537,1.032-0.815,1.366l-3.996,4.994c-0.486,0.584-1.171,0.781-1.887,0.542
	c-0.548-0.188-0.985-0.672-1.172-1.296c-0.186-0.619-0.095-1.249,0.243-1.686l3.706-4.461l1.561-4.332
	c-0.564-0.792-0.837-1.771-0.78-2.765l-3.815-1.126c-0.092-0.027-0.169-0.09-0.215-0.175c-0.045-0.085-0.055-0.185-0.027-0.276
	l2-6.5c0.028-0.091,0.091-0.167,0.176-0.212c0.084-0.045,0.183-0.055,0.274-0.025l3.76,1.16c0.15-0.179,0.325-0.34,0.516-0.474
	C18.812,8.621,18.64,8.069,18.64,7.5c0-1.577,1.283-2.86,2.86-2.86s2.86,1.283,2.86,2.86c0,0.883-0.415,1.708-1.105,2.245
	l2.895,2.895h3.35c1.025,0,1.86,0.834,1.86,1.86s-0.835,1.86-1.86,1.86h-0.14v12.28H30v0.721h-0.64V31h-0.72v-1.64H28v-0.72h0.64
	V16.36h-2.89c-0.605,0-1.125-0.226-1.591-0.691L22.62,14.13l-1.21,3.77l3.095,3.095c0.591,0.592,0.855,1.287,0.855,2.255v6.25
	C25.36,30.525,24.525,31.36,23.5,31.36z M17.782,20.112l-1.443,4.01c-0.014,0.039-0.035,0.076-0.062,0.108l-3.739,4.5
	c-0.185,0.239-0.232,0.637-0.115,1.027c0.121,0.402,0.387,0.709,0.712,0.82c0.434,0.146,0.804,0.039,1.099-0.314l3.996-4.994
	c0.363-0.436,0.567-0.774,0.689-1.14l0.699-2.098L17.782,20.112z M21.5,5.36c-1.18,0-2.14,0.96-2.14,2.14
	c0,0.534,0.204,1.049,0.576,1.451c0.077,0.084,0.11,0.2,0.089,0.312s-0.096,0.208-0.199,0.257c-0.463,0.215-0.849,0.646-0.981,1.084
	l-1.499,5.244c-0.394,1.295-0.09,2.67,0.793,3.593l4.121,4.309c0.064,0.067,0.101,0.156,0.101,0.249v5.5
	c0,0.629,0.511,1.14,1.14,1.14s1.14-0.511,1.14-1.14v-6.25c0-0.771-0.192-1.294-0.645-1.745l-3.25-3.25
	c-0.095-0.096-0.129-0.236-0.088-0.365l1.391-4.333l-1.303-1.303l0.51-0.509l3.414,3.414c0.327,0.328,0.671,0.48,1.081,0.48h3.75
	c0.629,0,1.14-0.512,1.14-1.14s-0.511-1.14-1.14-1.14H26c-0.096,0-0.188-0.038-0.255-0.105l-3.312-3.312
	c-0.08-0.08-0.117-0.193-0.102-0.306c0.017-0.112,0.085-0.21,0.185-0.265c0.693-0.376,1.124-1.094,1.124-1.87
	C23.64,6.32,22.68,5.36,21.5,5.36z M13.201,15.008L16.562,16c0.026-0.119,0.057-0.237,0.093-0.355l1.071-3.748l-3.265-0.986
	L13.201,15.008z M14.673,10.224l3.25,0.981l0.23-0.804c0.021-0.067,0.045-0.135,0.072-0.201l-3.238-1L14.673,10.224z M1.254,17.255
	l-0.509-0.509l3-3l0.509,0.509L1.254,17.255z M7.254,11.254l-0.509-0.509L8.491,9L7,7.509L6.254,8.254
	c-0.141,0.141-0.368,0.141-0.509,0L5,7.509L4.254,8.254c-0.141,0.141-0.368,0.141-0.509,0L3,7.509L1.254,9.254L0.746,8.746l4-4
	c0.141-0.141,0.368-0.141,0.509,0L9,8.491l7.746-7.745l0.509,0.509L7.254,11.254z M5,6.64c0.092,0,0.184,0.035,0.254,0.105L6,7.491
	L6.491,7L5,5.509L3.509,7L4,7.491l0.746-0.745C4.816,6.675,4.908,6.64,5,6.64z"/>
<rect id="_Transparent_Rectangle" style="fill:none;" width="32" height="32"/>
</svg>
