<svg width="55px" height="55px" viewBox="0 0 55 55" xmlns="http://www.w3.org/2000/svg"><path d="M37.7571126,23.0093449 C39.2256698,21.991089 40.1311113,20.3170243 40.1311113,18.503788 C40.1311113,15.4690452 37.6335512,13 34.5637602,13 C31.6590553,13 29.2708775,15.2097253 29.0207163,18.0181891 C28.5365988,17.8820212 28.0281742,17.8039248 27.5005064,17.8039248 C26.9728386,17.8039248 26.4634012,17.8820212 25.9792837,18.0181891 C25.7291225,15.2097253 23.3409447,13 20.4362398,13 C17.3664488,13 14.8688887,15.4690452 14.8688887,18.503788 C14.8688887,20.3170243 15.7743302,21.991089 17.2428874,23.0093449 C13.5188288,24.322965 11,27.7972499 11,31.7891733 L11,37.7635417 C11,38.0038381 11.1964828,38.1970764 11.4385416,38.1970764 C11.6806003,38.1970764 11.8770831,38.0038381 11.8770831,37.7635417 L11.8770831,31.7891733 C11.8770831,27.8493142 14.5822668,24.4641391 18.4552067,23.5570203 C18.639536,23.5149685 18.7742381,23.3617795 18.7914557,23.1755498 C18.8086732,22.9903214 18.704355,22.8151053 18.5331922,22.7390114 C16.8397938,21.9940927 15.7459718,20.3320429 15.7459718,18.503788 C15.7459718,15.9466342 17.8505662,13.8660682 20.4362398,13.8660682 C22.9672222,13.8660682 25.0232023,15.8625305 25.1103029,18.3435904 C23.2346009,19.2306845 21.9321425,21.1180122 21.9321425,23.3077128 C21.9321425,25.1189467 22.837584,26.7940126 24.3061412,27.8122685 C20.5830955,29.1248874 18.0632538,32.6001735 18.0632538,36.5910957 L18.0632538,42.5664653 C18.0632538,42.8057604 18.2597367,43 18.5017954,43 C18.744867,43 18.940337,42.8057604 18.940337,42.5664653 L18.940337,36.5910957 C18.940337,32.6522378 21.6455207,29.2670627 25.5194733,28.3599439 C25.7027898,28.3178921 25.8374919,28.1637019 25.8547095,27.9784735 C25.8719271,27.793245 25.7686217,27.6180289 25.596446,27.5419351 C23.9030476,26.7980176 22.8092257,25.1359677 22.8092257,23.3077128 C22.8092257,20.750559 24.9138201,18.669993 27.5005064,18.669993 C30.0861799,18.669993 32.1897615,20.750559 32.1897615,23.3077128 C32.1897615,25.1359677 31.0959396,26.7980176 29.403554,27.5419351 C29.2313783,27.6180289 29.1270601,27.793245 29.1452905,27.9784735 C29.1625081,28.1637019 29.2972102,28.3178921 29.4805267,28.3599439 C33.3534665,29.2670627 36.0586502,32.6522378 36.0586502,36.5910957 L36.0586502,42.5664653 C36.0586502,42.8057604 36.255133,43 36.4971918,43 C36.7402633,43 36.9357334,42.8057604 36.9357334,42.5664653 L36.9357334,36.5910957 C36.9357334,32.6001735 34.4169045,29.1248874 30.6938588,27.8122685 C32.162416,26.7940126 33.0678575,25.1189467 33.0678575,23.3077128 C33.0678575,21.1180122 31.7653991,19.2306845 29.8886843,18.3435904 C29.9767977,15.8625305 32.0327778,13.8660682 34.5637602,13.8660682 C37.1494338,13.8660682 39.2540282,15.9466342 39.2540282,18.503788 C39.2540282,20.3320429 38.1591934,21.9950939 36.4668078,22.7390114 C36.2946322,22.8151053 36.1913268,22.9903214 36.2085443,23.1755498 C36.2257619,23.3617795 36.360464,23.5149685 36.5437805,23.5570203 C40.4167204,24.4641391 43.1219041,27.8493142 43.1219041,31.7891733 L43.1219041,37.7635417 C43.1219041,38.0038381 43.3183869,38.1970764 43.5604456,38.1970764 C43.8035172,38.1970764 44,38.0038381 44,37.7635417 L44,31.7891733 C44,27.7972499 41.4801584,24.322965 37.7571126,23.0093449"></path></svg>
