<?xml version="1.0" encoding="iso-8859-1"?>
<!-- Generator: Adobe Illustrator 24.1.2, SVG Export Plug-In . SVG Version: 6.00 Build 0)  -->
<svg version="1.1" id="Layer_1" xmlns="http://www.w3.org/2000/svg" xmlns:xlink="http://www.w3.org/1999/xlink" x="0px" y="0px"
	 viewBox="0 0 32 32" style="enable-background:new 0 0 32 32;" xml:space="preserve">
<path id="humid_1_" d="M31,26.36c-0.898,0-1.645-0.656-2.138-1.09c-0.539-0.474-1.036-0.91-1.612-0.91
	c-0.602,0-1.149,0.481-1.633,0.906C25.054,25.76,24.37,26.36,23.5,26.36c-0.873,0-1.558-0.603-2.107-1.086
	c-0.496-0.435-1.043-0.914-1.643-0.914c-0.602,0-1.149,0.481-1.633,0.906C17.554,25.761,16.871,26.36,16,26.36
	c-0.872,0-1.556-0.601-2.105-1.084c-0.497-0.436-1.044-0.916-1.645-0.916s-1.147,0.48-1.63,0.904
	C10.056,25.76,9.372,26.36,8.5,26.36s-1.556-0.601-2.105-1.084C5.897,24.841,5.351,24.36,4.75,24.36s-1.147,0.48-1.63,0.904
	C2.556,25.76,1.872,26.36,1,26.36v-0.72c0.601,0,1.147-0.48,1.63-0.904c0.564-0.495,1.248-1.096,2.12-1.096s1.556,0.601,2.105,1.084
	C7.353,25.159,7.899,25.64,8.5,25.64s1.147-0.48,1.63-0.904c0.564-0.495,1.248-1.096,2.12-1.096s1.556,0.601,2.105,1.084
	C14.852,25.16,15.399,25.64,16,25.64c0.6,0,1.146-0.479,1.628-0.902c0.564-0.495,1.249-1.098,2.122-1.098
	c0.87,0,1.554,0.6,2.104,1.082c0.497,0.437,1.045,0.918,1.646,0.918c0.6,0,1.146-0.479,1.628-0.902
	c0.564-0.495,1.249-1.098,2.122-1.098c0.848,0,1.502,0.576,2.028,1.038c0.496,0.437,1.095,0.962,1.722,0.962V26.36z M31,20.36
	c-0.898,0-1.645-0.656-2.138-1.09c-0.539-0.474-1.036-0.91-1.612-0.91c-0.602,0-1.149,0.481-1.633,0.906
	C25.054,19.76,24.37,20.36,23.5,20.36c-0.873,0-1.558-0.603-2.107-1.086c-0.496-0.435-1.043-0.914-1.643-0.914
	c-0.602,0-1.149,0.481-1.633,0.906C17.554,19.761,16.871,20.36,16,20.36c-0.872,0-1.556-0.601-2.105-1.084
	c-0.497-0.436-1.044-0.916-1.645-0.916s-1.147,0.48-1.63,0.904C10.056,19.76,9.372,20.36,8.5,20.36s-1.556-0.601-2.105-1.084
	C5.897,18.841,5.351,18.36,4.75,18.36s-1.147,0.48-1.63,0.904C2.556,19.76,1.872,20.36,1,20.36v-0.72c0.601,0,1.147-0.48,1.63-0.904
	c0.564-0.495,1.248-1.096,2.12-1.096s1.556,0.601,2.105,1.084C7.353,19.159,7.899,19.64,8.5,19.64s1.147-0.48,1.63-0.904
	c0.564-0.495,1.248-1.096,2.12-1.096s1.556,0.601,2.105,1.084C14.852,19.16,15.399,19.64,16,19.64c0.6,0,1.146-0.479,1.628-0.902
	c0.564-0.495,1.249-1.098,2.122-1.098c0.87,0,1.554,0.6,2.104,1.082c0.497,0.437,1.045,0.918,1.646,0.918
	c0.6,0,1.146-0.479,1.628-0.902c0.564-0.495,1.249-1.098,2.122-1.098c0.848,0,1.502,0.576,2.028,1.038
	c0.496,0.437,1.095,0.962,1.722,0.962V20.36z M31,14.36c-0.898,0-1.645-0.656-2.138-1.089c-0.539-0.474-1.036-0.911-1.612-0.911
	c-0.602,0-1.149,0.481-1.633,0.906C25.054,13.76,24.37,14.36,23.5,14.36c-0.873,0-1.558-0.602-2.107-1.085
	c-0.496-0.435-1.043-0.915-1.643-0.915c-0.602,0-1.149,0.481-1.633,0.906C17.554,13.76,16.871,14.36,16,14.36
	c-0.872,0-1.556-0.601-2.105-1.083c-0.497-0.437-1.044-0.917-1.645-0.917s-1.147,0.48-1.63,0.904
	c-0.564,0.495-1.248,1.096-2.12,1.096s-1.556-0.601-2.105-1.083C5.897,12.84,5.351,12.36,4.75,12.36s-1.147,0.48-1.63,0.904
	C2.556,13.759,1.872,14.36,1,14.36v-0.72c0.601,0,1.147-0.48,1.63-0.904c0.564-0.495,1.248-1.096,2.12-1.096
	s1.556,0.601,2.105,1.083C7.353,13.16,7.899,13.64,8.5,13.64s1.147-0.48,1.63-0.904c0.564-0.495,1.248-1.096,2.12-1.096
	s1.556,0.601,2.105,1.083C14.853,13.16,15.399,13.64,16,13.64c0.6,0,1.146-0.479,1.628-0.903c0.564-0.496,1.249-1.097,2.122-1.097
	c0.87,0,1.554,0.6,2.104,1.081c0.497,0.438,1.045,0.919,1.646,0.919c0.6,0,1.146-0.479,1.628-0.903
	c0.564-0.496,1.249-1.097,2.122-1.097c0.848,0,1.502,0.576,2.028,1.038c0.496,0.436,1.095,0.962,1.722,0.962V14.36z M31,8.36
	c-0.898,0-1.645-0.656-2.138-1.089C28.323,6.797,27.826,6.36,27.25,6.36c-0.602,0-1.149,0.481-1.633,0.906
	C25.054,7.76,24.37,8.36,23.5,8.36c-0.873,0-1.558-0.602-2.107-1.085C20.896,6.839,20.35,6.36,19.75,6.36
	c-0.602,0-1.149,0.481-1.633,0.906C17.554,7.76,16.871,8.36,16,8.36c-0.872,0-1.556-0.601-2.105-1.083
	C13.397,6.84,12.851,6.36,12.25,6.36s-1.147,0.48-1.63,0.904C10.056,7.759,9.372,8.36,8.5,8.36S6.944,7.759,6.395,7.277
	C5.897,6.84,5.351,6.36,4.75,6.36S3.603,6.84,3.12,7.264C2.556,7.759,1.872,8.36,1,8.36V7.64c0.601,0,1.147-0.48,1.63-0.904
	C3.194,6.241,3.878,5.64,4.75,5.64s1.556,0.601,2.105,1.083C7.353,7.16,7.899,7.64,8.5,7.64s1.147-0.48,1.63-0.904
	c0.564-0.495,1.248-1.096,2.12-1.096s1.556,0.601,2.105,1.083C14.853,7.16,15.399,7.64,16,7.64c0.6,0,1.146-0.479,1.628-0.903
	c0.564-0.496,1.249-1.097,2.122-1.097c0.87,0,1.554,0.6,2.104,1.081C22.351,7.159,22.898,7.64,23.5,7.64
	c0.6,0,1.146-0.479,1.628-0.903c0.564-0.496,1.249-1.097,2.122-1.097c0.848,0,1.502,0.576,2.028,1.038
	C29.774,7.114,30.373,7.64,31,7.64V8.36z"/>
<rect id="_Transparent_Rectangle" style="fill:none;" width="32" height="32"/>
</svg>
