<?xml version="1.0" encoding="iso-8859-1"?>
<!-- Generator: Adobe Illustrator 27.5.0, SVG Export Plug-In . SVG Version: 6.00 Build 0)  -->
<svg version="1.1" id="Layer_1" xmlns="http://www.w3.org/2000/svg" xmlns:xlink="http://www.w3.org/1999/xlink" x="0px" y="0px"
	 viewBox="0 0 32 32" style="enable-background:new 0 0 32 32;" xml:space="preserve">
<path id="hybrid--it-management_00000073682990765193175250000016491168424440533950_" d="M20,30.36
	c-0.656,0-1.205-0.468-1.332-1.087C13.499,28.614,9.64,24.251,9.64,19c0-4.9,3.479-9.168,8.272-10.149l0.145,0.705
	C13.597,10.469,10.36,14.44,10.36,19c0,4.87,3.569,8.921,8.355,9.554C18.9,28.022,19.406,27.64,20,27.64s1.1,0.383,1.285,0.914
	c2.506-0.335,4.786-1.655,6.342-3.673c-0.202-0.237-0.325-0.545-0.325-0.881c0-0.75,0.61-1.36,1.36-1.36
	c0.085,0,0.168,0.008,0.248,0.023c0.484-1.171,0.729-2.401,0.729-3.663c0-1.267-0.243-2.498-0.725-3.664
	c-0.082,0.016-0.167,0.023-0.253,0.023c-0.75,0-1.36-0.61-1.36-1.36c0-0.337,0.124-0.646,0.328-0.884
	c-1.421-1.842-3.433-3.102-5.701-3.562l0.143-0.706c2.454,0.499,4.628,1.866,6.156,3.864c0.136-0.046,0.282-0.071,0.435-0.071
	c0.75,0,1.36,0.61,1.36,1.36c0,0.405-0.179,0.769-0.46,1.019c0.529,1.266,0.798,2.604,0.798,3.981c0,1.371-0.27,2.708-0.802,3.979
	c0.284,0.249,0.464,0.615,0.464,1.021c0,0.75-0.61,1.36-1.36,1.36c-0.153,0-0.302-0.026-0.439-0.073
	c-1.682,2.199-4.163,3.635-6.891,3.986C21.205,29.893,20.656,30.36,20,30.36z M20,28.36c-0.353,0-0.64,0.287-0.64,0.64
	s0.287,0.64,0.64,0.64s0.64-0.287,0.64-0.64S20.353,28.36,20,28.36z M28.662,23.36c-0.353,0-0.64,0.287-0.64,0.64
	s0.287,0.64,0.64,0.64s0.64-0.287,0.64-0.64S29.015,23.36,28.662,23.36z M28.662,13.36c-0.353,0-0.64,0.287-0.64,0.64
	s0.287,0.64,0.64,0.64s0.64-0.287,0.64-0.64S29.015,13.36,28.662,13.36z M12.68,21.886l-0.36-0.623l7.32-4.226V7.099L12,2.648
	l-0.818,0.473c-0.111,0.064-0.248,0.064-0.36,0l-0.82-0.474L3.36,6.522V7.47c0,0.128-0.068,0.247-0.18,0.312L2.361,8.255v7.585
	l0.819,0.474c0.111,0.064,0.18,0.183,0.18,0.312v0.949l4.822,2.823l-0.364,0.621l-4.819-2.822L2.182,18.67
	c-0.111,0.064-0.249,0.064-0.36,0L0.82,18.092c-0.112-0.063-0.18-0.183-0.18-0.312v-1.155c0-0.128,0.068-0.248,0.18-0.312
	l0.821-0.474V8.255L0.82,7.782C0.708,7.717,0.64,7.598,0.64,7.47V6.315c0-0.128,0.068-0.248,0.18-0.312l1.001-0.578
	c0.112-0.063,0.249-0.064,0.36,0l0.818,0.473L9.64,2.025V1.078c0-0.128,0.068-0.248,0.18-0.312l1.001-0.578
	c0.112-0.063,0.249-0.064,0.36,0l0.999,0.578c0.111,0.064,0.18,0.183,0.18,0.312v0.948l7.822,4.556
	c0.11,0.064,0.179,0.183,0.179,0.311v10.353c0,0.129-0.069,0.247-0.181,0.312L12.68,21.886z M1.36,17.572l0.641,0.369l0.639-0.369
	v-0.74l-0.639-0.37l-0.641,0.37C1.36,16.832,1.36,17.572,1.36,17.572z M1.36,7.262l0.641,0.37l0.639-0.37v-0.74l-0.639-0.37
	L1.36,6.523V7.262z M10.36,2.024l0.641,0.37l0.639-0.37v-0.74l-0.639-0.37l-0.641,0.37V2.024z"/>
<rect id="_Transparent_Rectangle" style="fill:none;" width="32" height="32"/>
</svg>
