<?xml version="1.0" encoding="iso-8859-1"?>
<!-- Generator: Adobe Illustrator 22.0.0, SVG Export Plug-In . SVG Version: 6.00 Build 0)  -->
<svg version="1.1" xmlns="http://www.w3.org/2000/svg" xmlns:xlink="http://www.w3.org/1999/xlink" x="0px" y="0px"
	 viewBox="0 0 48 48" style="enable-background:new 0 0 48 48;" xml:space="preserve">
<g id="hybrid_cloud_services">
	
		<path id="hybrid_cloud_services_1_" style="fill:none;stroke:#000000;stroke-width:0.72;stroke-linejoin:round;stroke-miterlimit:10;" d="
		M34.001,27c3,0,4.999-1.604,4.999-4.153S36.932,18,34.383,18c0-5.098-4.13-9-9.228-9c-3.458,0-6.573,2.287-8.154,5.102
		C16.617,14.036,16.224,14,15.821,14C11.998,14,9,16.715,9,20.539S12.177,27,16.001,27 M32,25H18v-5h14V25z M20,22.5h2 M32,39H18v-5
		h14V39z M20,36.5h2 M29,34v-2.5c0-1.105-0.895-2-2-2h-4c-1.105,0-2-0.895-2-2V25"/>
</g>
<g id="Layer_1">
</g>
</svg>
