<?xml version="1.0" encoding="iso-8859-1"?>
<!-- Generator: Adobe Illustrator 24.1.2, SVG Export Plug-In . SVG Version: 6.00 Build 0)  -->
<svg version="1.1" id="Layer_1" xmlns="http://www.w3.org/2000/svg" xmlns:xlink="http://www.w3.org/1999/xlink" x="0px" y="0px"
	 viewBox="0 0 32 32" style="enable-background:new 0 0 32 32;" xml:space="preserve">
<path id="hybrid--cloud_1_" d="M16,31.36C7.53,31.36,0.64,24.47,0.64,16S7.53,0.64,16,0.64S31.36,7.53,31.36,16
	S24.47,31.36,16,31.36z M16.36,30.063v0.572c4.594-0.111,8.67-2.35,11.28-5.766V12h0.721v11.839
	c1.442-2.268,2.279-4.957,2.279-7.839c0-1.998-0.402-3.904-1.13-5.641L18.356,3.92l0.359-0.624l10.256,5.922
	C26.574,4.65,21.835,1.497,16.36,1.364v8.428l5.016,2.896c0.111,0.064,0.181,0.184,0.181,0.312s-0.069,0.248-0.181,0.312L11.524,19
	l4.656,2.688c0.111,0.064,0.18,0.183,0.18,0.312v7.232l8.924-5.151l0.359,0.623L16.36,30.063z M3.028,22.783
	c2.398,4.567,7.137,7.72,12.612,7.853v-8.428l-5.016-2.896c-0.111-0.064-0.18-0.183-0.18-0.312s0.068-0.247,0.18-0.312L20.477,13
	l-4.657-2.688c-0.111-0.064-0.18-0.184-0.18-0.312V2.767L6.716,7.919l-0.36-0.623l9.284-5.361V1.364
	C11.046,1.476,6.969,3.714,4.36,7.13V20H3.64V8.161C2.197,10.429,1.36,13.119,1.36,16c0,1.998,0.402,3.904,1.131,5.642l11.153,6.439
	l-0.36,0.623L3.028,22.783z"/>
<rect id="_Transparent_Rectangle" style="fill:none;" width="32" height="32"/>
</svg>
