<?xml version="1.0" encoding="iso-8859-1"?>
<!-- Generator: Adobe Illustrator 27.5.0, SVG Export Plug-In . SVG Version: 6.00 Build 0)  -->
<svg version="1.1" id="Layer_1" xmlns="http://www.w3.org/2000/svg" xmlns:xlink="http://www.w3.org/1999/xlink" x="0px" y="0px"
	 viewBox="0 0 32 32" style="enable-background:new 0 0 32 32;" xml:space="preserve">
<path id="hyper-protect--database-as-a-service_00000054983498722407240060000009777322928189000832_" d="M16,31.36
	C8.082,31.36,1.64,24.918,1.64,17V1c0-0.199,0.161-0.36,0.36-0.36h28c0.199,0,0.36,0.161,0.36,0.36v16
	C30.36,24.918,23.918,31.36,16,31.36z M11.25,17.36c-2.614,0-4.759,2.043-4.884,4.651c-0.004,0.089-0.042,0.174-0.105,0.237
	l-1.884,1.883c0.998,1.62,2.325,3.017,3.886,4.096l4.483-4.482c0.057-0.057,0.13-0.093,0.21-0.103l7.32-0.915
	c0.359-0.044,0.698-0.21,0.954-0.467l6.102-6.101c0.411-0.411,0.411-1.08,0-1.491c-0.398-0.397-1.094-0.397-1.49,0l-6.344,5.157
	v-0.001c-0.407,0.335-0.929,0.536-1.495,0.536H13v-0.72h5.002c0.903,0,1.638-0.734,1.638-1.638c0-0.354-0.287-0.642-0.64-0.642
	C19,17.36,11.25,17.36,11.25,17.36z M11.25,16.64H19c0.75,0,1.36,0.61,1.36,1.36c0,0.068-0.003,0.137-0.009,0.204l5.008-4.069
	c0.613-0.621,1.81-0.646,2.481,0.024c0.69,0.692,0.69,1.817,0,2.509l-6.102,6.102c-0.369,0.369-0.857,0.607-1.375,0.672
	l-7.197,0.899L8.879,28.63c2.074,1.274,4.513,2.01,7.121,2.01c7.521,0,13.64-6.118,13.64-13.64V1.36H2.36V17
	c0,2.347,0.596,4.557,1.644,6.487l1.651-1.651C5.868,18.911,8.299,16.64,11.25,16.64z M25,12.36H7c-0.199,0-0.36-0.161-0.36-0.36V6
	c0-0.199,0.161-0.36,0.36-0.36h18c0.199,0,0.36,0.161,0.36,0.36v6C25.36,12.199,25.199,12.36,25,12.36z M7.36,11.64h17.28V6.36H7.36
	V11.64z M22,10.36c-0.75,0-1.36-0.61-1.36-1.36S21.25,7.64,22,7.64S23.36,8.25,23.36,9S22.75,10.36,22,10.36z M22,8.36
	c-0.353,0-0.64,0.287-0.64,0.64S21.647,9.64,22,9.64S22.64,9.353,22.64,9S22.353,8.36,22,8.36z"/>
<rect id="_Transparent_Rectangle" style="fill:none;" width="32" height="32"/>
</svg>
