<?xml version="1.0" encoding="iso-8859-1"?>
<!-- Generator: Adobe Illustrator 27.5.0, SVG Export Plug-In . SVG Version: 6.00 Build 0)  -->
<svg version="1.1" id="Layer_1" xmlns="http://www.w3.org/2000/svg" xmlns:xlink="http://www.w3.org/1999/xlink" x="0px" y="0px"
	 viewBox="0 0 32 32" style="enable-background:new 0 0 32 32;" xml:space="preserve">
<path id="hyper-protect--virtual-servers_00000052081459137849577440000003754241225231050404_" d="M16,31.36
	C8.082,31.36,1.64,24.918,1.64,17V1c0-0.199,0.161-0.36,0.36-0.36h28c0.199,0,0.36,0.161,0.36,0.36v16
	C30.36,24.918,23.918,31.36,16,31.36z M2.36,1.36V17c0,7.521,6.119,13.64,13.64,13.64S29.64,24.522,29.64,17V1.36H2.36z M25,20.36H7
	c-0.199,0-0.36-0.161-0.36-0.36v-6c0-0.199,0.161-0.36,0.36-0.36h13.64v-1.28H7c-0.199,0-0.36-0.161-0.36-0.36V6
	c0-0.199,0.161-0.36,0.36-0.36h18c0.199,0,0.36,0.161,0.36,0.36v6c0,0.199-0.161,0.36-0.36,0.36h-3.64v1.28H25
	c0.199,0,0.36,0.161,0.36,0.36v6C25.36,20.199,25.199,20.36,25,20.36z M7.36,19.64h17.28v-5.28h-3.28v1.329
	c0.575,0.158,1,0.686,1,1.312c0,0.75-0.61,1.36-1.36,1.36s-1.36-0.61-1.36-1.36c0-0.625,0.425-1.153,1-1.312V14.36H7.36V19.64z
	 M21,16.36c-0.353,0-0.64,0.287-0.64,0.64c0,0.353,0.287,0.64,0.64,0.64s0.64-0.287,0.64-0.64C21.64,16.647,21.353,16.36,21,16.36z
	 M21.36,11.64h3.279V6.36H7.36v5.28h13.28v-1.329c-0.575-0.158-1-0.686-1-1.312c0-0.75,0.61-1.36,1.36-1.36S22.36,8.25,22.36,9
	c0,0.625-0.425,1.153-1,1.312V11.64z M21,8.36c-0.353,0-0.64,0.287-0.64,0.64S20.647,9.64,21,9.64S21.64,9.353,21.64,9
	S21.353,8.36,21,8.36z"/>
<rect id="_Transparent_Rectangle" style="fill:none;" width="32" height="32"/>
</svg>
