<?xml version="1.0" encoding="iso-8859-1"?>
<!-- Generator: Adobe Illustrator 29.1.0, SVG Export Plug-In . SVG Version: 9.03 Build 55587)  -->
<svg version="1.1" id="Layer_1" xmlns="http://www.w3.org/2000/svg" xmlns:xlink="http://www.w3.org/1999/xlink" x="0px" y="0px"
	 viewBox="0 0 32 32" style="enable-background:new 0 0 32 32;" xml:space="preserve">
<path id="ibm--z17--multi-frame_00000132048711559171417650000016742043547530669462_" d="M23,28.36c-0.001,0-0.002,0-0.003,0
	h-7.994c-0.002,0-0.004,0-0.006,0H7.003c-0.002,0-0.004,0-0.006,0H4.75c-0.591,0-1.11-0.519-1.11-1.11v-4.5
	c0-0.283,0.119-0.549,0.307-0.75c-0.188-0.201-0.307-0.467-0.307-0.75v-2.249c0-0.001,0-0.001,0-0.002V16.75
	c0-0.283,0.119-0.549,0.307-0.75c-0.188-0.201-0.307-0.467-0.307-0.75v-4.5c0-0.283,0.119-0.549,0.307-0.75
	C3.759,9.799,3.64,9.533,3.64,9.25V7.001c0-0.001,0-0.002,0-0.003V4.75c0-0.591,0.519-1.11,1.11-1.11h2.247c0.002,0,0.004,0,0.006,0
	h7.994c0.002,0,0.004,0,0.006,0h7.994c0.002,0,0.004,0,0.006,0H28c0.199,0,0.36,0.161,0.36,0.36v24c0,0.199-0.161,0.36-0.36,0.36
	h-4.997C23.002,28.36,23.001,28.36,23,28.36z M26.283,27.64h1.356V4.36h-1.356c0.05,0.123,0.077,0.254,0.077,0.39v4.5
	c0,0.283-0.119,0.549-0.308,0.75c0.188,0.201,0.308,0.467,0.308,0.75v2.249c0,0.001,0,0.002,0,0.003v2.249
	c0,0.283-0.119,0.549-0.308,0.75c0.188,0.201,0.308,0.467,0.308,0.75v4.5c0,0.283-0.119,0.549-0.308,0.75
	c0.188,0.201,0.308,0.467,0.308,0.75V25c0,0.001,0,0.001,0,0.002v2.249C26.36,27.386,26.333,27.518,26.283,27.64z M23.869,27.64
	h1.381c0.197,0,0.39-0.192,0.39-0.39v-1.381L23.869,27.64z M20.75,27.64h1.89v-5.28h-1.89c-0.197,0-0.39,0.192-0.39,0.39v4.5
	C20.36,27.447,20.553,27.64,20.75,27.64z M18.283,27.64h1.434c-0.05-0.122-0.077-0.254-0.077-0.39v-4.5
	c0-0.283,0.119-0.549,0.308-0.75c-0.188-0.201-0.308-0.467-0.308-0.75v-2.249c0-0.001,0-0.001,0-0.002V16.75
	c0-0.283,0.119-0.549,0.308-0.75c-0.188-0.201-0.308-0.467-0.308-0.75v-4.5c0-0.283,0.119-0.549,0.308-0.75
	C19.76,9.799,19.64,9.533,19.64,9.25V7.001c0-0.001,0-0.002,0-0.003V4.75c0-0.136,0.027-0.268,0.077-0.39h-1.434
	c0.05,0.123,0.077,0.254,0.077,0.39v4.5c0,0.283-0.119,0.549-0.308,0.75c0.188,0.201,0.308,0.467,0.308,0.75v2.249
	c0,0.001,0,0.002,0,0.003v2.249c0,0.283-0.119,0.549-0.308,0.75c0.188,0.201,0.308,0.467,0.308,0.75v4.5
	c0,0.283-0.119,0.549-0.308,0.75c0.188,0.201,0.308,0.467,0.308,0.75V25c0,0.001,0,0.001,0,0.002v2.249
	C18.36,27.386,18.333,27.518,18.283,27.64z M15.869,27.64h1.381c0.197,0,0.39-0.192,0.39-0.39v-1.381L15.869,27.64z M12.75,27.64
	h1.89v-5.28h-1.89c-0.197,0-0.39,0.192-0.39,0.39v4.5C12.36,27.447,12.553,27.64,12.75,27.64z M10.284,27.64h1.433
	c-0.049-0.122-0.076-0.254-0.076-0.39v-4.5c0-0.283,0.119-0.549,0.307-0.75c-0.188-0.201-0.307-0.467-0.307-0.75v-2.249
	c0-0.001,0-0.001,0-0.002V16.75c0-0.283,0.119-0.549,0.307-0.75c-0.188-0.201-0.307-0.467-0.307-0.75v-4.5
	c0-0.283,0.119-0.549,0.307-0.75c-0.188-0.201-0.307-0.467-0.307-0.75V7.001c0-0.001,0-0.002,0-0.003V4.75
	c0-0.136,0.027-0.268,0.076-0.39h-1.433c0.049,0.123,0.076,0.254,0.076,0.39v4.5c0,0.283-0.119,0.549-0.307,0.75
	c0.188,0.201,0.307,0.467,0.307,0.75v2.249c0,0.001,0,0.002,0,0.003v2.249c0,0.283-0.119,0.549-0.307,0.75
	c0.188,0.201,0.307,0.467,0.307,0.75v4.5c0,0.283-0.119,0.549-0.307,0.75c0.188,0.201,0.307,0.467,0.307,0.75V25
	c0,0.001,0,0.001,0,0.002v2.249C10.36,27.386,10.333,27.518,10.284,27.64z M7.869,27.64H9.25c0.197,0,0.39-0.192,0.39-0.39v-1.381
	L7.869,27.64z M4.75,22.36c-0.197,0-0.39,0.192-0.39,0.39v4.5c0,0.197,0.193,0.39,0.39,0.39h1.89v-5.28H4.75z M23.36,22.869v4.262
	L25.491,25L23.36,22.869z M15.36,22.869v4.262L17.491,25L15.36,22.869z M7.36,22.869v4.262L9.491,25L7.36,22.869z M23.869,22.36
	l1.771,1.771V22.75c0-0.197-0.192-0.39-0.39-0.39H23.869z M15.869,22.36l1.771,1.771V22.75c0-0.197-0.192-0.39-0.39-0.39H15.869z
	 M7.869,22.36l1.771,1.771V22.75c0-0.197-0.193-0.39-0.39-0.39H7.869z M23.36,21.64h1.89c0.197,0,0.39-0.192,0.39-0.39v-4.5
	c0-0.197-0.192-0.39-0.39-0.39h-1.89V21.64z M20.75,21.64h1.381l-1.771-1.771v1.381C20.36,21.447,20.553,21.64,20.75,21.64z
	 M15.36,21.64h1.89c0.197,0,0.39-0.192,0.39-0.39v-4.5c0-0.197-0.192-0.39-0.39-0.39h-1.89V21.64z M12.75,21.64h1.381l-1.771-1.771
	v1.381C12.36,21.447,12.553,21.64,12.75,21.64z M7.36,21.64h1.89c0.197,0,0.39-0.192,0.39-0.39v-4.5c0-0.197-0.193-0.39-0.39-0.39
	H7.36V21.64z M4.75,21.64h1.381L4.36,19.869v1.381C4.36,21.447,4.553,21.64,4.75,21.64z M20.509,19l2.131,2.131v-4.262L20.509,19z
	 M12.509,19l2.131,2.131v-4.262L12.509,19z M4.509,19l2.131,2.131v-4.262L4.509,19z M20.75,16.36c-0.197,0-0.39,0.193-0.39,0.39
	v1.381l1.771-1.771H20.75z M12.75,16.36c-0.197,0-0.39,0.193-0.39,0.39v1.381l1.771-1.771H12.75z M4.75,16.36
	c-0.197,0-0.39,0.193-0.39,0.39v1.381l1.771-1.771H4.75z M23.869,15.64h1.381c0.197,0,0.39-0.193,0.39-0.39v-1.381L23.869,15.64z
	 M20.75,15.64h1.89v-5.28h-1.89c-0.197,0-0.39,0.193-0.39,0.39v4.5C20.36,15.447,20.553,15.64,20.75,15.64z M15.869,15.64h1.381
	c0.197,0,0.39-0.193,0.39-0.39v-1.381L15.869,15.64z M12.75,15.64h1.89v-5.28h-1.89c-0.197,0-0.39,0.193-0.39,0.39v4.5
	C12.36,15.447,12.553,15.64,12.75,15.64z M7.869,15.64H9.25c0.197,0,0.39-0.193,0.39-0.39v-1.381L7.869,15.64z M4.75,15.64h1.89
	v-5.28H4.75c-0.197,0-0.39,0.193-0.39,0.39v4.5C4.36,15.447,4.553,15.64,4.75,15.64z M23.36,10.869v4.262L25.491,13L23.36,10.869z
	 M15.36,10.869v4.262L17.491,13L15.36,10.869z M7.36,10.869v4.262L9.491,13L7.36,10.869z M23.869,10.36l1.771,1.771V10.75
	c0-0.197-0.192-0.39-0.39-0.39H23.869z M15.869,10.36l1.771,1.771V10.75c0-0.197-0.192-0.39-0.39-0.39H15.869z M7.869,10.36
	l1.771,1.771V10.75c0-0.197-0.193-0.39-0.39-0.39H7.869z M23.36,9.64h1.89c0.197,0,0.39-0.193,0.39-0.39v-4.5
	c0-0.197-0.192-0.39-0.39-0.39h-1.89V9.64z M20.75,9.64h1.381L20.36,7.869V9.25C20.36,9.447,20.553,9.64,20.75,9.64z M15.36,9.64
	h1.89c0.197,0,0.39-0.193,0.39-0.39v-4.5c0-0.197-0.192-0.39-0.39-0.39h-1.89V9.64z M12.75,9.64h1.381L12.36,7.869V9.25
	C12.36,9.447,12.553,9.64,12.75,9.64z M7.36,9.64h1.89c0.197,0,0.39-0.193,0.39-0.39v-4.5c0-0.197-0.193-0.39-0.39-0.39H7.36V9.64z
	 M4.36,7.869V9.25c0,0.197,0.193,0.39,0.39,0.39h1.381L4.36,7.869z M20.509,7l2.131,2.131V4.869L20.509,7z M12.509,7l2.131,2.131
	V4.869L12.509,7z M4.509,7L6.64,9.131V4.869L4.509,7z M20.75,4.36c-0.197,0-0.39,0.193-0.39,0.39v1.381l1.771-1.771H20.75z
	 M12.75,4.36c-0.197,0-0.39,0.193-0.39,0.39v1.381l1.771-1.771H12.75z M4.75,4.36c-0.197,0-0.39,0.193-0.39,0.39v1.381L6.131,4.36
	H4.75z"/>
<rect id="_Transparent_Rectangle" style="fill:none;" width="32" height="32"/>
</svg>
