<?xml version="1.0" encoding="iso-8859-1"?>
<!-- Generator: Adobe Illustrator 24.3.0, SVG Export Plug-In . SVG Version: 6.00 Build 0)  -->
<svg version="1.1" id="Layer_1" xmlns="http://www.w3.org/2000/svg" xmlns:xlink="http://www.w3.org/1999/xlink" x="0px" y="0px"
	 viewBox="0 0 32 32" style="enable-background:new 0 0 32 32;" xml:space="preserve">
<path id="ibm--z--partition_1_" d="M29,31.36c-1.302,0-2.36-1.059-2.36-2.36c0-1.179,0.869-2.159,2-2.333V23.36H16.36v3.307
	c1.131,0.174,2,1.154,2,2.333c0,1.302-1.059,2.36-2.36,2.36s-2.36-1.059-2.36-2.36c0-1.179,0.869-2.159,2-2.333V23.36H3.36v3.307
	c1.131,0.174,2,1.154,2,2.333c0,1.302-1.059,2.36-2.36,2.36S0.64,30.302,0.64,29c0-1.179,0.869-2.159,2-2.333V23
	c0-0.199,0.161-0.36,0.36-0.36h12.64V19h0.72v3.64H29c0.199,0,0.36,0.161,0.36,0.36v3.667c1.131,0.174,2,1.154,2,2.333
	C31.36,30.302,30.302,31.36,29,31.36z M29,27.36c-0.904,0-1.64,0.735-1.64,1.64s0.735,1.64,1.64,1.64s1.64-0.735,1.64-1.64
	S29.904,27.36,29,27.36z M16,27.36c-0.904,0-1.64,0.735-1.64,1.64s0.736,1.64,1.64,1.64c0.904,0,1.64-0.735,1.64-1.64
	S16.904,27.36,16,27.36z M3,27.36c-0.904,0-1.64,0.735-1.64,1.64S2.096,30.64,3,30.64S4.64,29.904,4.64,29S3.904,27.36,3,27.36z
	 M22.5,17.36h-13c-0.199,0-0.36-0.161-0.36-0.36v-3c0-0.089,0.033-0.175,0.092-0.241l8.459-9.399H9.5C9.301,4.36,9.14,4.199,9.14,4
	V1c0-0.199,0.161-0.36,0.36-0.36h13c0.199,0,0.36,0.161,0.36,0.36v3c0,0.089-0.033,0.175-0.093,0.241l-8.459,9.399H22.5
	c0.199,0,0.36,0.161,0.36,0.36v3C22.86,17.199,22.699,17.36,22.5,17.36z M20.079,16.64h2.061v-2.28h-6.998L20.079,16.64z
	 M12.583,16.64h5.779l-4.695-2.168L12.583,16.64z M9.86,16.64h1.917l1.235-2.47l-2.247-1.038L9.86,14.138V16.64z M11.27,12.572
	l2.065,0.954l3.654-7.308L11.27,12.572z M18.667,4.47l-3.656,7.312l5.723-6.359L18.667,4.47z M18.989,3.826l2.25,1.037l0.9-1.001
	V1.36h-1.917L18.989,3.826z M9.86,3.64h7.007l-4.946-2.28H9.86V3.64z M13.641,1.36l4.694,2.165l1.083-2.165
	C19.418,1.36,13.641,1.36,13.641,1.36z"/>
<rect id="_Transparent_Rectangle" style="fill:none;" width="32" height="32"/>
</svg>
