<?xml version="1.0" encoding="iso-8859-1"?>
<!-- Generator: Adobe Illustrator 24.3.0, SVG Export Plug-In . SVG Version: 6.00 Build 0)  -->
<svg version="1.1" id="Layer_1" xmlns="http://www.w3.org/2000/svg" xmlns:xlink="http://www.w3.org/1999/xlink" x="0px" y="0px"
	 viewBox="0 0 32 32" style="enable-background:new 0 0 32 32;" xml:space="preserve">
<path id="ibm--z" d="M28,31.36H4c-0.199,0-0.36-0.161-0.36-0.36v-6c0-0.09,0.034-0.177,0.095-0.243L19.682,7.36H4
	C3.801,7.36,3.64,7.199,3.64,7V1c0-0.199,0.161-0.36,0.36-0.36h24c0.199,0,0.36,0.161,0.36,0.36v6c0,0.09-0.034,0.177-0.095,0.243
	L12.318,24.64H28c0.199,0,0.36,0.161,0.36,0.36v6C28.36,31.199,28.199,31.36,28,31.36z M23.585,30.64h4.055v-5.28H13.025
	L23.585,30.64z M9.083,30.64h12.892l-10.313-5.156L9.083,30.64z M4.36,30.64h3.917l2.74-5.479l-4.578-2.289L4.36,25.14V30.64z
	 M6.945,22.32l4.394,2.197l7.689-15.379L6.945,22.32z M20.661,7.483l-7.689,15.379L25.055,9.68L20.661,7.483z M20.983,6.839
	l4.577,2.289l2.08-2.268v-5.5h-3.917L20.983,6.839z M4.36,6.64h14.615L8.415,1.36H4.36V6.64z M10.025,1.36l10.314,5.157l2.579-5.157
	C22.918,1.36,10.025,1.36,10.025,1.36z"/>
<rect id="_Transparent_Rectangle" style="fill:none;" width="32" height="32"/>
</svg>
