<?xml version="1.0" encoding="iso-8859-1"?>
<!-- Generator: Adobe Illustrator 24.1.2, SVG Export Plug-In . SVG Version: 6.00 Build 0)  -->
<svg version="1.1" xmlns="http://www.w3.org/2000/svg" xmlns:xlink="http://www.w3.org/1999/xlink" x="0px" y="0px"
	 viewBox="0 0 48 48" style="enable-background:new 0 0 48 48;" xml:space="preserve">
<g id="ibm--cloud">
	<path id="ibm--cloud_1_" style="fill:none;stroke:#000000;stroke-width:0.72;stroke-linecap:round;stroke-miterlimit:10;" d="
		M24.861,24.87C26.328,23.116,28.534,22,31,22c4.418,0,8,3.582,8,8s-3.582,8-8,8H15.5C11.91,38,9,35.09,9,31.5
		c0-3.134,2.218-5.751,5.171-6.364 M32.749,22.154C31.043,19.08,27.765,17,24,17c-5.523,0-10,4.477-10,10
		c0,1.818,0.485,3.524,1.334,4.993 M9,18.66l2.973,1.716 M17.057,15.293L15.34,12.32 M24,13.432V10 M32.66,12.32l-1.716,2.973
		 M36.027,20.376L39,18.66"/>
</g>
<g id="Layer_1">
</g>
</svg>
