<?xml version="1.0" encoding="iso-8859-1"?>
<!-- Generator: Adobe Illustrator 29.1.0, SVG Export Plug-In . SVG Version: 9.03 Build 55587)  -->
<svg version="1.1" id="Layer_1" xmlns="http://www.w3.org/2000/svg" xmlns:xlink="http://www.w3.org/1999/xlink" x="0px" y="0px"
	 viewBox="0 0 32 32" style="enable-background:new 0 0 32 32;" xml:space="preserve">
<path id="ibm--elm_00000161615037166915100420000006184436997259834507_" d="M14,30.36c-2.404,0-4.36-1.956-4.36-4.36
	c0-0.189,0.012-0.377,0.036-0.56C8.937,26.017,8.008,26.36,7,26.36c-2.404,0-4.36-1.956-4.36-4.36c0-1.727,1.008-3.222,2.467-3.928
	C2.522,17.265,0.64,14.848,0.64,12c0-3.507,2.853-6.36,6.36-6.36c1.389,0,2.675,0.447,3.722,1.206C10.668,6.572,10.64,6.29,10.64,6
	c0-2.404,1.956-4.36,4.36-4.36S19.36,3.596,19.36,6s-1.956,4.36-4.36,4.36c-0.723,0-1.406-0.177-2.007-0.49
	c0.237,0.666,0.367,1.383,0.367,2.13c0,2.848-1.882,5.265-4.467,6.072c1.459,0.706,2.467,2.201,2.467,3.928
	c0,0.189-0.012,0.377-0.036,0.56c0.739-0.576,1.668-0.92,2.676-0.92v0.721c-2.007,0-3.64,1.633-3.64,3.64s1.633,3.64,3.64,3.64
	c0.958,0,1.863-0.369,2.548-1.039l0.504,0.514C16.232,29.918,15.148,30.36,14,30.36z M7,18.36c-2.007,0-3.64,1.633-3.64,3.64
	S4.993,25.64,7,25.64s3.64-1.633,3.64-3.64S9.007,18.36,7,18.36z M7,6.36c-3.11,0-5.64,2.53-5.64,5.64S3.89,17.64,7,17.64
	s5.64-2.53,5.64-5.64S10.11,6.36,7,6.36z M15,2.36c-2.007,0-3.64,1.633-3.64,3.64S12.993,9.64,15,9.64S18.64,8.007,18.64,6
	S17.007,2.36,15,2.36z M26,29.36h-2c-0.199,0-0.36-0.161-0.36-0.36v-1.25l-1.072-0.402l-0.896,0.897
	c-0.141,0.141-0.369,0.141-0.51,0l-1.414-1.414c-0.141-0.141-0.141-0.369,0-0.51l0.897-0.896L20.25,24.36H19
	c-0.199,0-0.36-0.161-0.36-0.36v-2c0-0.199,0.161-0.36,0.36-0.36h1.255l0.408-1.03l-0.894-0.893c-0.141-0.141-0.141-0.369,0-0.51
	l1.414-1.414c0.141-0.141,0.369-0.141,0.51,0l0.892,0.893l1.055-0.428V17c0-0.199,0.161-0.36,0.36-0.36h2
	c0.199,0,0.36,0.161,0.36,0.36v1.262l1.049,0.443l0.889-0.89c0.141-0.141,0.369-0.141,0.51,0l1.414,1.414
	c0.141,0.141,0.141,0.369,0,0.51L29.33,20.63l0.412,1.01H31c0.199,0,0.36,0.161,0.36,0.36v2c0,0.199-0.161,0.36-0.36,0.36h-1.257
	l-0.437,1.091l0.893,0.893c0.141,0.141,0.141,0.369,0,0.51l-1.414,1.414c-0.141,0.141-0.369,0.141-0.51,0l-0.896-0.897l-1.019,0.38
	V29C26.36,29.199,26.199,29.36,26,29.36z M24.36,28.64h1.279V27.5c0-0.15,0.094-0.285,0.234-0.337l1.47-0.548
	c0.132-0.05,0.281-0.018,0.381,0.082l0.806,0.807l0.905-0.905l-0.807-0.806c-0.102-0.103-0.133-0.255-0.079-0.389l0.616-1.538
	c0.055-0.137,0.187-0.227,0.334-0.227h1.14V22.36H29.5c-0.146,0-0.278-0.089-0.333-0.225l-0.594-1.455
	c-0.055-0.134-0.024-0.288,0.078-0.391l0.807-0.806l-0.905-0.905l-0.806,0.807c-0.104,0.103-0.258,0.132-0.396,0.077l-1.492-0.631
	c-0.133-0.057-0.22-0.188-0.22-0.332v-1.14H24.36v1.14c0,0.146-0.089,0.278-0.226,0.334l-1.501,0.608
	c-0.131,0.054-0.286,0.022-0.39-0.079l-0.806-0.807l-0.905,0.905l0.807,0.806c0.102,0.102,0.133,0.254,0.08,0.388l-0.585,1.478
	C20.78,22.27,20.647,22.36,20.5,22.36h-1.14v1.279h1.14c0.15,0,0.285,0.094,0.338,0.235L21.4,25.39
	c0.049,0.132,0.017,0.28-0.083,0.38l-0.807,0.806l0.905,0.905l0.806-0.807c0.101-0.1,0.249-0.132,0.381-0.082l1.523,0.57
	c0.141,0.053,0.234,0.187,0.234,0.337L24.36,28.64L24.36,28.64z"/>
<rect id="_Transparent_Rectangle" style="fill:none;" width="32" height="32"/>
</svg>
