<?xml version="1.0" encoding="iso-8859-1"?>
<!-- Generator: Adobe Illustrator 28.0.0, SVG Export Plug-In . SVG Version: 6.00 Build 0)  -->
<svg version="1.1" id="Layer_1" xmlns="http://www.w3.org/2000/svg" xmlns:xlink="http://www.w3.org/1999/xlink" x="0px" y="0px"
	 viewBox="0 0 32 32" style="enable-background:new 0 0 32 32;" xml:space="preserve">
<path id="ibm--z-and-cloud-modernization-stack_00000038377555532162710930000016270621956773975196_" d="M16,30.36
	c-0.062,0-0.125-0.017-0.181-0.05l-12-7C3.708,23.246,3.64,23.128,3.64,23v-7c0-0.128,0.068-0.247,0.179-0.311l9.985-5.824
	C13.698,9.597,13.64,9.305,13.64,9c0-1.301,1.059-2.36,2.36-2.36c1.302,0,2.36,1.059,2.36,2.36s-1.059,2.36-2.36,2.36
	c-0.739,0-1.399-0.341-1.832-0.874L4.36,16.207v6.586L16,29.583l2.818-1.644l0.363,0.621l-3,1.75
	C16.125,30.344,16.062,30.36,16,30.36z M16,7.36c-0.904,0-1.64,0.736-1.64,1.64s0.736,1.64,1.64,1.64c0.904,0,1.64-0.736,1.64-1.64
	S16.904,7.36,16,7.36z M22.5,26.61c-0.062,0-0.125-0.017-0.181-0.049L11.836,20.48c-0.433,0.536-1.096,0.88-1.836,0.88
	c-1.301,0-2.36-1.059-2.36-2.36s1.059-2.36,2.36-2.36s2.36,1.058,2.36,2.36c0,0.303-0.057,0.593-0.162,0.858l10.3,5.975l5.142-3.038
	V9.207l-2.821-1.646l0.363-0.622l3,1.75C28.292,8.753,28.36,8.872,28.36,9v14c0,0.127-0.067,0.245-0.177,0.31l-5.5,3.25
	C22.627,26.594,22.563,26.61,22.5,26.61z M10,17.36c-0.904,0-1.64,0.735-1.64,1.64s0.736,1.64,1.64,1.64s1.64-0.735,1.64-1.64
	S10.904,17.36,10,17.36z M22,21.36c-1.302,0-2.36-1.059-2.36-2.36c0-1.179,0.869-2.159,2-2.333V5.707L16,2.417L4.36,9.207V12H3.64V9
	c0-0.128,0.068-0.247,0.179-0.311l12-7c0.111-0.065,0.251-0.065,0.362,0l6,3.5c0.11,0.064,0.179,0.183,0.179,0.311v11.167
	c1.131,0.174,2,1.154,2,2.333C24.36,20.302,23.302,21.36,22,21.36z M22,17.36c-0.904,0-1.64,0.735-1.64,1.64s0.735,1.64,1.64,1.64
	s1.64-0.735,1.64-1.64S22.904,17.36,22,17.36z"/>
<rect id="_Transparent_Rectangle" style="fill:none;" width="32" height="32"/>
</svg>
