<?xml version="1.0" encoding="iso-8859-1"?>
<!-- Generator: Adobe Illustrator 29.1.0, SVG Export Plug-In . SVG Version: 9.03 Build 55587)  -->
<svg version="1.1" id="Layer_1" xmlns="http://www.w3.org/2000/svg" xmlns:xlink="http://www.w3.org/1999/xlink" x="0px" y="0px"
	 viewBox="0 0 32 32" style="enable-background:new 0 0 32 32;" xml:space="preserve">
<path id="ibm--z17_00000147180856867137186570000012364145091226162619_" d="M16,31.36c-0.001,0-0.001,0-0.002,0H3.5
	c-1.577,0-2.86-1.283-2.86-2.86v-25c0-1.577,1.283-2.86,2.86-2.86h25c1.577,0,2.86,1.283,2.86,2.86v25c0,1.577-1.283,2.86-2.86,2.86
	H16.002C16.002,31.36,16.001,31.36,16,31.36z M16.36,30.64H28.5c1.18,0,2.14-0.96,2.14-2.14V16.36H16.36V30.64z M1.36,16.879V28.5
	c0,1.18,0.96,2.14,2.14,2.14h11.63L1.36,16.879z M1.859,16.36L15.64,30.131V16.36H1.859z M16.36,15.64h14.28V3.5
	c0-1.18-0.96-2.14-2.14-2.14H16.36V15.64z M1.88,15.64h13.76V1.889L1.88,15.64z M3.5,1.36c-1.18,0-2.14,0.96-2.14,2.14v11.642
	L15.15,1.36H3.5z"/>
<rect id="_Transparent_Rectangle" style="fill:none;" width="32" height="32"/>
</svg>
