<?xml version="1.0" encoding="iso-8859-1"?>
<!-- Generator: Adobe Illustrator 24.3.0, SVG Export Plug-In . SVG Version: 6.00 Build 0)  -->
<svg version="1.1" id="Layer_1" xmlns="http://www.w3.org/2000/svg" xmlns:xlink="http://www.w3.org/1999/xlink" x="0px" y="0px"
	 viewBox="0 0 32 32" style="enable-background:new 0 0 32 32;" xml:space="preserve">
<path id="ibm--z-and-linuxone-multi-frame_1_" d="M31,30.36H1c-0.199,0-0.36-0.161-0.36-0.36V2c0-0.199,0.161-0.36,0.36-0.36h30
	c0.199,0,0.36,0.161,0.36,0.36v28C31.36,30.199,31.199,30.36,31,30.36z M29.36,29.64h1.279V2.36H29.36V29.64z M22.869,29.64h5.771
	V24.3l-2.331,3.886c-0.04,0.067-0.102,0.119-0.175,0.148L22.869,29.64z M19.36,29.64h1.279V2.36H19.36V29.64z M12.869,29.64h5.771
	V24.3l-2.331,3.886c-0.041,0.067-0.102,0.119-0.175,0.148L12.869,29.64z M9.36,29.64h1.28V2.36H9.36V29.64z M2.869,29.64H8.64V24.3
	l-2.332,3.886c-0.041,0.067-0.102,0.119-0.175,0.148L2.869,29.64z M21.36,23.36v6.108l4.394-1.758l2.61-4.351L21.36,23.36
	L21.36,23.36z M11.36,23.36v6.108l4.394-1.758l2.61-4.351L11.36,23.36L11.36,23.36z M1.36,23.36v6.108l4.394-1.758l2.61-4.351
	L1.36,23.36L1.36,23.36z M22.3,22.64h6.34v-5.56l-2.352,3.136c-0.028,0.037-0.062,0.069-0.103,0.093L22.3,22.64z M12.3,22.64h6.34
	v-5.56l-2.352,3.136c-0.028,0.037-0.063,0.069-0.103,0.093L12.3,22.64z M2.3,22.64h6.34v-5.56l-2.352,3.136
	c-0.028,0.037-0.063,0.069-0.103,0.093L2.3,22.64z M21.36,16.36v6.004l4.394-2.637l2.526-3.368L21.36,16.36L21.36,16.36z
	 M11.36,16.36v6.004l4.395-2.637l2.526-3.368L11.36,16.36L11.36,16.36z M1.36,16.36v6.004l4.395-2.637L8.28,16.36H1.36z
	 M21.72,15.64h6.92V9.636l-4.394,2.637L21.72,15.64z M11.72,15.64h6.919V9.636l-4.394,2.637L11.72,15.64z M1.72,15.64h6.92V9.636
	l-4.395,2.637L1.72,15.64z M21.36,9.36v5.56l2.352-3.136c0.028-0.038,0.062-0.069,0.103-0.093L27.7,9.36H21.36z M11.36,9.36v5.56
	l2.352-3.136c0.028-0.038,0.063-0.069,0.103-0.093L17.7,9.36H11.36z M1.36,9.36v5.56l2.352-3.136
	c0.028-0.038,0.063-0.069,0.103-0.093L7.7,9.36H1.36z M21.636,8.64h7.004V2.532l-4.394,1.757L21.636,8.64z M11.636,8.64h7.004V2.532
	l-4.394,1.757L11.636,8.64z M1.636,8.64H8.64V2.532L4.246,4.289L1.636,8.64z M21.36,2.36V7.7l2.331-3.885
	c0.04-0.067,0.102-0.12,0.175-0.149l3.265-1.306H21.36z M11.36,2.36V7.7l2.332-3.885c0.041-0.067,0.102-0.12,0.175-0.149
	l3.265-1.306H11.36z M1.36,2.36V7.7l2.332-3.885c0.041-0.067,0.102-0.12,0.175-0.149L7.131,2.36H1.36z"/>
<rect id="_Transparent_Rectangle" style="fill:none;" width="32" height="32"/>
</svg>
