<?xml version="1.0" encoding="iso-8859-1"?>
<!-- Generator: Adobe Illustrator 24.1.2, SVG Export Plug-In . SVG Version: 6.00 Build 0)  -->
<svg version="1.1" xmlns="http://www.w3.org/2000/svg" xmlns:xlink="http://www.w3.org/1999/xlink" x="0px" y="0px"
	 viewBox="0 0 48 48" style="enable-background:new 0 0 48 48;" xml:space="preserve">
<g id="ibm--watson">
	
		<path id="ibm--watson_1_" style="fill:none;stroke:#000000;stroke-width:0.72;stroke-linecap:round;stroke-linejoin:round;stroke-miterlimit:10;" d="
		M18.568,36.585c5.045,2.913,11.495,1.184,14.408-3.861c2.913-5.045,1.184-11.495-3.861-14.408 M29.115,18.317
		c-2.509-1.448-5.365-1.749-7.961-1.065 M13.584,29.908c0.651,2.716,2.373,5.171,4.984,6.678 M29.114,18.318
		c-2.249-1.299-6.433,1.737-9.345,6.781s-3.449,10.185-1.2,11.484 M20.813,19.739c-2.753-0.182-5.081,0.668-6.149,2.518
		c-1.839,3.185,0.759,8.128,5.802,11.04s10.623,2.69,12.462-0.495 M9,18.66l2.973,1.716 M15.34,12.32l1.716,2.973 M24,10v3.432
		 M32.66,12.32l-1.716,2.973 M36.027,20.376L39,18.66"/>
</g>
<g id="Layer_1">
</g>
</svg>
