<?xml version="1.0" encoding="iso-8859-1"?>
<!-- Generator: Adobe Illustrator 29.1.0, SVG Export Plug-In . SVG Version: 9.03 Build 55587)  -->
<svg version="1.1" id="Layer_1" xmlns="http://www.w3.org/2000/svg" xmlns:xlink="http://www.w3.org/1999/xlink" x="0px" y="0px"
	 viewBox="0 0 32 32" style="enable-background:new 0 0 32 32;" xml:space="preserve">
<path id="ibm--z17--plus-cloud_00000098924744960168390550000007358302717121483444_" d="M4,30.36c-0.75,0-1.36-0.61-1.36-1.36
	S3.25,27.64,4,27.64c0.452,0,0.854,0.222,1.101,0.562l3.409-1.278C7.96,26.083,7.64,25.078,7.64,24c0-2.955,2.404-5.36,5.36-5.36
	h0.959c0.251-0.488,0.554-0.941,0.9-1.354l-3.308-4.043C11.383,13.318,11.196,13.36,11,13.36c-0.75,0-1.36-0.61-1.36-1.36
	s0.61-1.36,1.36-1.36s1.36,0.61,1.36,1.36c0,0.293-0.093,0.564-0.251,0.787l3.245,3.966c1.356-1.327,3.201-2.113,5.146-2.113
	c1.885,0,3.607,0.712,4.91,1.882l3.445-3.789c-0.073-0.114-0.13-0.24-0.167-0.374h-3.686c-0.002,0-0.004,0-0.006,0h-4.164
	c-0.658,0-1.193-0.535-1.193-1.193V10.36h-1.822c-0.139,0-0.266-0.08-0.325-0.205C16.395,7.85,14.043,6.36,11.5,6.36
	c-3.661,0-6.64,2.979-6.64,6.64c0,0.199-0.161,0.36-0.36,0.36c-1.731,0-3.14,1.409-3.14,3.14s1.409,3.14,3.14,3.14H7v0.721H4.5
	c-2.128,0-3.86-1.732-3.86-3.86c0-2.01,1.543-3.666,3.508-3.844C4.329,8.757,7.557,5.64,11.5,5.64c2.743,0,5.286,1.562,6.541,4
	h1.599V2.833c0-0.658,0.535-1.193,1.193-1.193h8.334c0.658,0,1.193,0.535,1.193,1.193v7.855c0.575,0.158,1,0.686,1,1.312
	c0,0.75-0.61,1.36-1.36,1.36c-0.22,0-0.427-0.052-0.61-0.145l-3.467,3.814c1.13,1.231,1.847,2.848,1.93,4.627
	c1.964,0.178,3.508,1.834,3.508,3.844c0,2.128-1.732,3.86-3.86,3.86H13c-1.608,0-3.053-0.712-4.037-1.838l-3.609,1.354
	C5.358,28.917,5.36,28.958,5.36,29C5.36,29.75,4.75,30.36,4,30.36z M4,28.36c-0.353,0-0.64,0.287-0.64,0.64S3.647,29.64,4,29.64
	S4.64,29.353,4.64,29S4.353,28.36,4,28.36z M9.691,27.25c0.842,0.857,2.014,1.39,3.309,1.39h14.5c1.731,0,3.14-1.408,3.14-3.14
	s-1.408-3.14-3.14-3.14c-0.199,0-0.36-0.161-0.36-0.36c0-1.703-0.645-3.26-1.703-4.437l-3.598,3.958
	c0.326,0.405,0.521,0.92,0.521,1.479c0,1.302-1.059,2.36-2.36,2.36c-0.882,0-1.652-0.486-2.058-1.205L9.691,27.25z M13,19.36
	c-2.559,0-4.64,2.081-4.64,4.64c0,0.99,0.312,1.91,0.843,2.664l8.486-3.183c-0.032-0.155-0.05-0.316-0.05-0.481
	c0-1.302,1.059-2.36,2.36-2.36c0.483,0,0.933,0.146,1.308,0.396l3.619-3.981c-1.176-1.053-2.728-1.695-4.427-1.695
	c-2.543,0-4.895,1.49-5.992,3.794c-0.06,0.126-0.187,0.206-0.325,0.206C14.182,19.36,13,19.36,13,19.36z M20,21.36
	c-0.904,0-1.64,0.735-1.64,1.64s0.735,1.64,1.64,1.64s1.64-0.735,1.64-1.64S20.904,21.36,20,21.36z M30,11.36
	c-0.353,0-0.64,0.287-0.64,0.64s0.287,0.64,0.64,0.64s0.64-0.287,0.64-0.64S30.353,11.36,30,11.36z M11,11.36
	c-0.353,0-0.64,0.287-0.64,0.64s0.287,0.64,0.64,0.64s0.64-0.287,0.64-0.64S11.353,11.36,11,11.36z M25.36,11.64h3.328
	c0.127-0.461,0.49-0.825,0.951-0.952V7.36H25.36V11.64z M20.36,7.872v3.294c0,0.261,0.212,0.474,0.473,0.474h3.298L20.36,7.872z
	 M20.866,7.36l3.773,3.771V7.36H20.866z M25.36,6.64h4.279V2.833c0-0.261-0.212-0.474-0.473-0.474H25.36V6.64z M20.873,6.64h3.767
	V2.875L20.873,6.64z M20.833,2.36c-0.261,0-0.473,0.212-0.473,0.474v3.301l3.777-3.775C24.137,2.36,20.833,2.36,20.833,2.36z"/>
<rect id="_Transparent_Rectangle" style="fill:none;" width="32" height="32"/>
</svg>
