<?xml version="1.0" encoding="iso-8859-1"?>
<!-- Generator: Adobe Illustrator 22.0.0, SVG Export Plug-In . SVG Version: 6.00 Build 0)  -->
<svg version="1.1" xmlns="http://www.w3.org/2000/svg" xmlns:xlink="http://www.w3.org/1999/xlink" x="0px" y="0px"
	 viewBox="0 0 48 48" style="enable-background:new 0 0 48 48;" xml:space="preserve">
<g id="ideate">
	<g id="ideate_1_">
		<path style="fill:none;stroke:#000000;stroke-width:0.72;stroke-miterlimit:10;" d="M36.652,27C35.298,32.733,30.147,37,24,37
			c-7.18,0-13-5.82-13-13 M9,26l2-2l2,2 M11.351,21c1.354-5.733,6.505-10,12.652-10C31.183,11,37,16.82,37,24 M39,22l-2,2l-2-2"/>
		<path style="fill:none;stroke:#000000;stroke-width:0.72;stroke-linejoin:round;stroke-miterlimit:10;" d="M24,15
			c2.973,0,5.5,2.45,5.5,5.4c0,1.467-0.863,2.873-1.906,3.942c-1.235,1.266-1.529,2.392-1.529,3.389V28h-4.13v-0.268
			c0-0.997-0.294-2.123-1.529-3.389c-1.044-1.07-1.906-2.476-1.906-3.942C18.5,17.449,21.027,15,24,15 M22,30h4 M23,32h2"/>
	</g>
</g>
<g id="Layer_1">
</g>
</svg>
