<?xml version="1.0" encoding="iso-8859-1"?>
<!-- Generator: Adobe Illustrator 24.1.2, SVG Export Plug-In . SVG Version: 6.00 Build 0)  -->
<svg version="1.1" id="Layer_1" xmlns="http://www.w3.org/2000/svg" xmlns:xlink="http://www.w3.org/1999/xlink" x="0px" y="0px"
	 viewBox="0 0 32 32" style="enable-background:new 0 0 32 32;" xml:space="preserve">
<path id="innovate_1_" d="M19,31.36h-6v-0.72h6V31.36z M20,29.36h-8v-0.72h8V29.36z M20,27.36h-8v-0.72h8V27.36z M20,25.36h-8
	c-0.199,0-0.36-0.161-0.36-0.36v-1.453c0-1.622,0-4.073-2.041-6.195c-1.908-1.986-2.959-4.503-2.959-7.087
	c0-5.397,4.111-9.624,9.36-9.624s9.36,4.227,9.36,9.624c0,2.584-1.051,5.102-2.959,7.086c-2.041,2.123-2.041,4.574-2.041,6.196V25
	C20.36,25.199,20.199,25.36,20,25.36z M12.36,24.64h7.28v-1.093c0-1.632,0-4.363,2.242-6.695c1.778-1.851,2.758-4.19,2.758-6.588
	c0-4.993-3.795-8.904-8.64-8.904s-8.64,3.911-8.64,8.904c0,2.398,0.979,4.737,2.758,6.588c2.242,2.332,2.242,5.063,2.242,6.695
	C12.36,23.547,12.36,24.64,12.36,24.64z M17.183,16.86h-2.365c-0.199,0-0.36-0.161-0.36-0.36v-1.309l-0.681-0.285l-0.928,0.928
	c-0.067,0.068-0.159,0.105-0.254,0.105l0,0c-0.096,0-0.187-0.038-0.254-0.105l-1.672-1.673c-0.141-0.141-0.141-0.368,0-0.509
	l0.925-0.926l-0.28-0.683H10c-0.199,0-0.36-0.161-0.36-0.36V9.317c0-0.199,0.161-0.36,0.36-0.36h1.309l0.285-0.681l-0.927-0.928
	c-0.141-0.141-0.141-0.368,0-0.509l1.672-1.673c0.135-0.136,0.374-0.136,0.509,0l0.926,0.926l0.684-0.28V4.5
	c0-0.199,0.161-0.36,0.36-0.36h2.365c0.199,0,0.36,0.161,0.36,0.36v1.309l0.681,0.285l0.928-0.928c0.141-0.141,0.369-0.141,0.51,0
	l1.673,1.673c0.141,0.141,0.141,0.368,0,0.509l-0.926,0.926l0.28,0.683H22c0.199,0,0.36,0.161,0.36,0.36v2.366
	c0,0.199-0.161,0.36-0.36,0.36h-1.31l-0.284,0.681l0.928,0.928c0.141,0.141,0.141,0.368,0,0.509l-1.673,1.673
	c-0.067,0.068-0.159,0.105-0.255,0.105l0,0c-0.096,0-0.188-0.038-0.255-0.105l-0.925-0.926l-0.684,0.28V16.5
	C17.543,16.699,17.382,16.86,17.183,16.86z M15.177,16.14h1.646v-1.194c0-0.146,0.088-0.278,0.223-0.333l1.129-0.462
	c0.134-0.055,0.289-0.024,0.392,0.079l0.84,0.84l1.164-1.164l-0.845-0.844c-0.103-0.103-0.134-0.259-0.077-0.394l0.471-1.125
	c0.056-0.134,0.187-0.221,0.332-0.221h1.188V9.677h-1.192c-0.146,0-0.277-0.088-0.333-0.223l-0.463-1.128
	c-0.055-0.134-0.024-0.289,0.078-0.391l0.841-0.841L19.406,5.93l-0.844,0.844c-0.104,0.104-0.26,0.134-0.394,0.078l-1.125-0.471
	c-0.134-0.056-0.221-0.187-0.221-0.332V4.86h-1.646v1.193c0,0.146-0.088,0.278-0.223,0.333l-1.128,0.463
	c-0.136,0.055-0.289,0.023-0.391-0.079l-0.841-0.84L11.43,7.094l0.844,0.844c0.104,0.103,0.134,0.259,0.078,0.394l-0.471,1.125
	c-0.056,0.134-0.187,0.221-0.332,0.221H10.36v1.646h1.194c0.146,0,0.278,0.088,0.333,0.223l0.462,1.128
	c0.055,0.134,0.024,0.289-0.079,0.391l-0.84,0.841l1.164,1.164l0.844-0.844c0.103-0.104,0.258-0.136,0.394-0.078l1.125,0.471
	c0.134,0.056,0.221,0.187,0.221,0.332L15.177,16.14L15.177,16.14z M16,13.36c-1.577,0-2.86-1.283-2.86-2.86S14.423,7.64,16,7.64
	s2.86,1.283,2.86,2.86S17.577,13.36,16,13.36z M16,8.36c-1.18,0-2.14,0.96-2.14,2.14s0.96,2.14,2.14,2.14s2.14-0.96,2.14-2.14
	S17.18,8.36,16,8.36z"/>
<rect id="_Transparent_Rectangle" style="fill:none;" width="32" height="32"/>
</svg>
