<?xml version="1.0" encoding="iso-8859-1"?>
<!-- Generator: Adobe Illustrator 22.0.0, SVG Export Plug-In . SVG Version: 6.00 Build 0)  -->
<svg version="1.1" xmlns="http://www.w3.org/2000/svg" xmlns:xlink="http://www.w3.org/1999/xlink" x="0px" y="0px"
	 viewBox="0 0 48 48" style="enable-background:new 0 0 48 48;" xml:space="preserve">
<g id="innovate">
	<g id="innovate_1_">
		
			<path id="patterns-ideas-creativity-04" style="fill:none;stroke:#000000;stroke-width:0.72;stroke-linejoin:round;stroke-miterlimit:10;" d="
			M24,9c5.081,0,9,4.148,9,9.264c0,2.543-1.075,4.982-2.858,6.837C28.031,27.297,28,29.818,28,31.547V33h-8v-1.453
			c0-1.729-0.031-4.25-2.142-6.446C16.075,23.246,15,20.807,15,18.264C15,13.148,18.919,9,24,9 M20,35h8 M20,37h8 M21,39h6"/>
		<path id="gear" style="fill:none;stroke:#000000;stroke-width:0.72;stroke-linejoin:round;stroke-miterlimit:10;" d="M26.5,18.5
			c0,1.381-1.119,2.5-2.5,2.5c-1.381,0-2.5-1.119-2.5-2.5S22.619,16,24,16C25.381,16,26.5,17.119,26.5,18.5z M30,19.683v-2.366
			h-1.553l-0.463-1.128l1.095-1.095l-1.673-1.673l-1.098,1.098l-1.125-0.47V12.5h-2.366v1.553l-1.128,0.463l-1.095-1.095
			l-1.673,1.673l1.098,1.099l-0.471,1.125H18v2.366h1.553l0.463,1.128l-1.095,1.095l1.673,1.673l1.098-1.098l1.125,0.47V24.5h2.366
			v-1.553l1.128-0.463l1.095,1.095l1.673-1.673l-1.099-1.098l0.471-1.125H30z"/>
	</g>
</g>
<g id="Layer_1">
</g>
</svg>
