<?xml version="1.0" encoding="iso-8859-1"?>
<!-- Generator: Adobe Illustrator 24.1.2, SVG Export Plug-In . SVG Version: 6.00 Build 0)  -->
<svg version="1.1" id="Layer_1" xmlns="http://www.w3.org/2000/svg" xmlns:xlink="http://www.w3.org/1999/xlink" x="0px" y="0px"
	 viewBox="0 0 32 32" style="enable-background:new 0 0 32 32;" xml:space="preserve">
<path id="insights_1_" d="M16,22.735l-0.036-0.722l0.066,0.003c0.592-0.002,1.206-0.096,1.793-0.282l0.217,0.686
	C17.383,22.629,16.696,22.735,16,22.735z M13.885,22.396c-0.669-0.221-1.298-0.545-1.87-0.965l0.427-0.58
	c0.51,0.375,1.071,0.664,1.668,0.861L13.885,22.396z M19.922,21.477l-0.42-0.586c0.511-0.366,0.961-0.81,1.339-1.319l0.578,0.43
	C20.997,20.569,20.493,21.066,19.922,21.477z M10.535,19.938c-0.415-0.575-0.734-1.207-0.949-1.878l0.686-0.221
	c0.192,0.6,0.478,1.164,0.848,1.677L10.535,19.938z M22.391,18.133l-0.684-0.229c0.199-0.596,0.303-1.22,0.308-1.853l0.721,0.006
	C22.729,16.766,22.613,17.465,22.391,18.133z M9.985,15.983l-0.72-0.002c0.002-0.709,0.114-1.408,0.333-2.077l0.685,0.224
	C10.087,14.725,9.987,15.349,9.985,15.983z M21.738,14.193c-0.188-0.602-0.471-1.167-0.838-1.681l0.586-0.419
	c0.411,0.576,0.728,1.209,0.939,1.884L21.738,14.193z M11.139,12.457l-0.581-0.425c0.417-0.571,0.918-1.071,1.489-1.485l0.423,0.583
	C11.96,11.5,11.512,11.946,11.139,12.457z M19.586,11.17c-0.507-0.377-1.067-0.671-1.664-0.872l0.23-0.683
	c0.668,0.225,1.295,0.554,1.863,0.976L19.586,11.17z M14.144,10.276l-0.222-0.685C14.591,9.375,15.29,9.265,16,9.265l0.074,0.361
	l-0.041,0.359c-0.001,0-0.003,0-0.005,0C15.363,9.985,14.74,10.083,14.144,10.276z M16.066,9.986l0.007-0.36L16.066,9.986z
	 M16,25.36c-10.296,0-14.292-9.127-14.332-9.22c-0.038-0.09-0.038-0.191,0-0.281C1.708,15.767,5.704,6.64,16,6.64
	s14.292,9.127,14.331,9.219c0.038,0.09,0.038,0.191,0,0.281C30.292,16.233,26.296,25.36,16,25.36z M2.396,16
	C2.937,17.129,6.881,24.64,16,24.64c9.132,0,13.064-7.509,13.604-8.639C29.062,14.871,25.119,7.36,16,7.36
	C6.868,7.36,2.936,14.87,2.396,16z M20.36,16c0-0.342-0.04-0.685-0.119-1.017L19.54,15.15c0.066,0.277,0.1,0.563,0.1,0.85
	c0,2.007-1.633,3.64-3.64,3.64s-3.64-1.633-3.64-3.64s1.633-3.64,3.64-3.64c0.258,0,0.515,0.027,0.764,0.081l0.151-0.704
	C16.617,11.672,16.309,11.64,16,11.64c-2.404,0-4.36,1.956-4.36,4.36s1.956,4.36,4.36,4.36S20.36,18.404,20.36,16z"/>
<rect id="_Transparent_Rectangle" style="fill:none;" width="32" height="32"/>
</svg>
