<?xml version="1.0" encoding="iso-8859-1"?>
<!-- Generator: Adobe Illustrator 24.1.2, SVG Export Plug-In . SVG Version: 6.00 Build 0)  -->
<svg version="1.1" id="inspect--data" xmlns="http://www.w3.org/2000/svg" xmlns:xlink="http://www.w3.org/1999/xlink" x="0px"
	 y="0px" viewBox="0 0 48 48" style="enable-background:new 0 0 48 48;" xml:space="preserve">
<g id="inspect--data_1_">
	<g>
		<path d="M23.707,31.121c-0.469,0-0.873-0.09-1.21-0.27s-0.616-0.438-0.836-0.775c-0.22-0.337-0.381-0.752-0.484-1.242
			c-0.103-0.492-0.154-1.053-0.154-1.684c0-0.623,0.051-1.183,0.154-1.678c0.103-0.495,0.264-0.911,0.484-1.249
			c0.22-0.337,0.499-0.596,0.836-0.775s0.741-0.27,1.21-0.27s0.873,0.09,1.21,0.27s0.617,0.438,0.836,0.775
			c0.22,0.337,0.381,0.753,0.483,1.249c0.104,0.495,0.154,1.055,0.154,1.678c0,0.631-0.051,1.191-0.154,1.684
			c-0.103,0.49-0.264,0.905-0.483,1.242c-0.22,0.338-0.499,0.596-0.836,0.775C24.58,31.031,24.176,31.121,23.707,31.121z
			 M23.707,30.318c0.308,0,0.572-0.061,0.792-0.182c0.22-0.121,0.398-0.291,0.534-0.512c0.136-0.22,0.236-0.485,0.303-0.797
			c0.065-0.312,0.099-0.662,0.099-1.051v-1.254c0-0.381-0.033-0.73-0.099-1.045s-0.167-0.583-0.303-0.803s-0.313-0.391-0.534-0.512
			c-0.22-0.121-0.484-0.181-0.792-0.181s-0.572,0.061-0.792,0.181c-0.22,0.121-0.397,0.292-0.533,0.512
			c-0.136,0.22-0.237,0.488-0.303,0.803c-0.066,0.314-0.099,0.664-0.099,1.045v1.254c0,0.389,0.033,0.738,0.099,1.051
			c0.066,0.312,0.167,0.577,0.303,0.797c0.136,0.221,0.313,0.391,0.533,0.512C23.135,30.258,23.399,30.318,23.707,30.318z
			 M23.707,27.799c-0.256,0-0.434-0.051-0.533-0.154c-0.099-0.102-0.148-0.227-0.148-0.373V27.03c0-0.146,0.049-0.271,0.148-0.374
			s0.277-0.153,0.533-0.153c0.257,0,0.435,0.051,0.534,0.153s0.148,0.228,0.148,0.374v0.242c0,0.146-0.049,0.271-0.148,0.373
			C24.141,27.748,23.963,27.799,23.707,27.799z"/>
		<path d="M27.931,30.989v-0.804h2.2v-6.192h-0.077l-1.937,1.804l-0.539-0.582l2.035-1.904h1.441v6.875h2.023v0.804h-5.146V30.989z"
			/>
	</g>
	<g>
		<line style="fill:none;stroke:#000000;stroke-width:0.72;stroke-miterlimit:10;" x1="9" y1="9" x2="9" y2="20"/>
		<line style="fill:none;stroke:#000000;stroke-width:0.72;stroke-miterlimit:10;" x1="21" y1="9" x2="21" y2="14"/>
		<line style="fill:none;stroke:#000000;stroke-width:0.72;stroke-miterlimit:10;" x1="13" y1="13" x2="13" y2="24"/>
		<line style="fill:none;stroke:#000000;stroke-width:0.72;stroke-miterlimit:10;" x1="9" y1="28" x2="9" y2="36"/>
		<line style="fill:none;stroke:#000000;stroke-width:0.72;stroke-miterlimit:10;" x1="9" y1="21" x2="9" y2="24"/>
		<line style="fill:none;stroke:#000000;stroke-width:0.72;stroke-miterlimit:10;" x1="13" y1="25" x2="13" y2="31"/>
		<line style="fill:none;stroke:#000000;stroke-width:0.72;stroke-miterlimit:10;" x1="13" y1="34" x2="13" y2="39"/>
		<line style="fill:none;stroke:#000000;stroke-width:0.72;stroke-miterlimit:10;" x1="13" y1="9" x2="13" y2="12"/>
		<line style="fill:none;stroke:#000000;stroke-width:0.72;stroke-miterlimit:10;" x1="17" y1="12" x2="17" y2="20"/>
		<line style="fill:none;stroke:#000000;stroke-width:0.72;stroke-miterlimit:10;" x1="29" y1="9" x2="29" y2="15"/>
		<line style="fill:none;stroke:#000000;stroke-width:0.72;stroke-miterlimit:10;" x1="17" y1="34" x2="17" y2="38"/>
		<line style="fill:none;stroke:#000000;stroke-width:0.72;stroke-miterlimit:10;" x1="9" y1="25" x2="9" y2="27"/>
		<line style="fill:none;stroke:#000000;stroke-width:0.72;stroke-miterlimit:10;" x1="17" y1="9" x2="17" y2="11"/>
		<line style="fill:none;stroke:#000000;stroke-width:0.72;stroke-miterlimit:10;" x1="25" y1="9" x2="25" y2="12"/>
		<line style="fill:none;stroke:#000000;stroke-width:0.72;stroke-miterlimit:10;" x1="25" y1="13" x2="25" y2="15"/>
		<line style="fill:none;stroke:#000000;stroke-width:0.72;stroke-miterlimit:10;" x1="13" y1="32" x2="13" y2="33"/>
		<line style="fill:none;stroke:#000000;stroke-width:0.72;stroke-miterlimit:10;" x1="21" y1="15" x2="21" y2="16"/>
		<path style="fill:none;stroke:#000000;stroke-width:0.72;stroke-linejoin:round;stroke-miterlimit:10;" d="M27,17
			c-5.52,0-10,4.48-10,10s4.48,10,10,10c2.76,0,5.26-1.12,7.07-2.93S37,29.76,37,27C37,21.48,32.52,17,27,17z"/>
		<line style="fill:none;stroke:#000000;stroke-width:0.72;stroke-miterlimit:10;" x1="38" y1="39" x2="34" y2="34.07"/>
	</g>
</g>
</svg>
