<?xml version="1.0" encoding="iso-8859-1"?>
<!-- Generator: Adobe Illustrator 25.4.1, SVG Export Plug-In . SVG Version: 6.00 Build 0)  -->
<svg version="1.1" id="Layer_1" xmlns="http://www.w3.org/2000/svg" xmlns:xlink="http://www.w3.org/1999/xlink" x="0px" y="0px"
	 viewBox="0 0 32 32" style="enable-background:new 0 0 32 32;" xml:space="preserve">
<path id="insurance_00000045612375573508585330000011809353029128935303_" d="M13.5,30.36c-1.791,0-2.86-1.257-2.86-3.36h0.72
	c0,1.702,0.76,2.64,2.14,2.64s2.14-0.938,2.14-2.64v-9.811l-0.136-0.093c-1.787-1.226-4.222-1.226-6.009,0l-0.292,0.2
	c-0.123,0.084-0.284,0.084-0.407,0l-0.292-0.2c-1.787-1.226-4.222-1.226-6.009,0l-0.292,0.2c-0.121,0.082-0.277,0.084-0.398,0.006
	c-0.122-0.079-0.185-0.223-0.16-0.365C2.885,9.933,8.738,4.817,15.64,4.645V3h0.72v1.645c6.902,0.172,12.756,5.289,13.995,12.293
	c0.025,0.143-0.038,0.286-0.159,0.365c-0.123,0.078-0.281,0.076-0.398-0.006l-0.292-0.2c-1.789-1.226-4.221-1.226-6.01,0l-0.292,0.2
	c-0.121,0.084-0.285,0.084-0.406,0l-0.292-0.2c-1.789-1.226-4.222-1.226-6.009,0l-0.136,0.093V27
	C16.36,29.104,15.291,30.36,13.5,30.36z M19.282,5.762c2.396,1.801,3.941,5.642,4.069,10.57c1.849-1.133,4.244-1.172,6.121-0.104
	C28.232,10.995,24.247,7.001,19.282,5.762z M5.5,15.44c1.114,0,2.196,0.308,3.148,0.892c0.128-4.928,1.673-8.769,4.069-10.57
	c-4.964,1.239-8.948,5.232-10.19,10.467C3.436,15.711,4.454,15.44,5.5,15.44z M16.36,5.374v10.954
	c1.899-1.161,4.372-1.163,6.271-0.006C22.462,10.041,19.948,5.649,16.36,5.374z M12.5,15.44c1.11,0,2.189,0.306,3.14,0.887V5.374
	c-3.588,0.275-6.103,4.667-6.271,10.948C10.317,15.744,11.393,15.44,12.5,15.44z"/>
<rect id="_Transparent_Rectangle" style="fill:none;" width="32" height="32"/>
</svg>
