<?xml version="1.0" encoding="iso-8859-1"?>
<!-- Generator: Adobe Illustrator 27.5.0, SVG Export Plug-In . SVG Version: 6.00 Build 0)  -->
<svg version="1.1" id="Layer_1" xmlns="http://www.w3.org/2000/svg" xmlns:xlink="http://www.w3.org/1999/xlink" x="0px" y="0px"
	 viewBox="0 0 32 32" style="enable-background:new 0 0 32 32;" xml:space="preserve">
<path id="internet-of-things_00000152948999423903843040000015467158357383848095_" d="M16,31.36c-0.647,0-1.19-0.454-1.327-1.061
	C7.34,29.626,1.64,23.403,1.64,16c0-7.404,5.7-13.627,13.033-14.299C14.81,1.094,15.353,0.64,16,0.64
	c0.708,0,1.292,0.544,1.354,1.237c2.158,0.765,3.94,3.29,4.988,6.763h5.146c-0.322-0.5-0.679-0.98-1.068-1.441
	c-0.19,0.103-0.408,0.161-0.64,0.161c-0.75,0-1.36-0.61-1.36-1.36s0.61-1.36,1.36-1.36S27.14,5.25,27.14,6
	c0,0.257-0.072,0.498-0.196,0.703c1.93,2.267,3.085,5.011,3.355,7.97c0.606,0.137,1.061,0.68,1.061,1.327s-0.455,1.19-1.061,1.327
	C29.67,24.169,24.168,29.671,17.326,30.3C17.19,30.905,16.647,31.36,16,31.36z M16,29.36c-0.353,0-0.64,0.287-0.64,0.64
	s0.287,0.64,0.64,0.64s0.64-0.287,0.64-0.64S16.353,29.36,16,29.36z M10.421,23.36c0.97,3.081,2.53,5.331,4.357,6.044
	c0.17-0.348,0.483-0.611,0.862-0.716V23.36H10.421z M16.36,28.688c0.379,0.104,0.692,0.368,0.862,0.715
	c1.619-0.635,3.089-2.522,4.094-5.269c-0.271-0.18-0.475-0.454-0.562-0.774H16.36V28.688z M22,24.358
	c-0.828,2.271-1.979,4.005-3.292,5.012c3.657-0.743,6.799-2.967,8.764-6.01h-4.096C23.212,23.955,22.643,24.392,22,24.358z
	 M4.53,23.36c1.954,3.032,5.078,5.259,8.745,6.007c-1.535-1.169-2.799-3.294-3.617-6.007H4.53z M22.064,22.36
	c-0.353,0-0.64,0.287-0.64,0.64s0.287,0.64,0.64,0.64s0.64-0.287,0.64-0.64S22.417,22.36,22.064,22.36z M23.376,22.64h4.529
	c0.905-1.611,1.492-3.423,1.674-5.346c-0.432-0.142-0.77-0.493-0.891-0.934h-5.331c-0.022,1.904-0.231,3.737-0.62,5.458
	C23.047,21.995,23.28,22.29,23.376,22.64z M16.36,22.64h4.393c0.156-0.567,0.672-0.988,1.287-0.999
	c0.374-1.665,0.574-3.438,0.598-5.281H16.36V22.64z M10.209,22.64h5.431v-6.28h-5.329c-0.124,0.451-0.475,0.809-0.921,0.943
	C9.48,19.219,9.767,21.027,10.209,22.64z M4.097,22.64h5.358c-0.424-1.613-0.697-3.41-0.784-5.32
	c-0.476-0.118-0.853-0.488-0.982-0.959H2.365C2.424,18.625,3.046,20.767,4.097,22.64z M30,15.36c-0.353,0-0.64,0.287-0.64,0.64
	s0.287,0.64,0.64,0.64s0.64-0.287,0.64-0.64S30.353,15.36,30,15.36z M9,15.36c-0.353,0-0.64,0.287-0.64,0.64S8.647,16.64,9,16.64
	S9.64,16.353,9.64,16S9.353,15.36,9,15.36z M23.357,15.64h5.331c0.121-0.441,0.459-0.793,0.891-0.934
	c-0.178-1.902-0.741-3.71-1.657-5.347h-5.376C23.042,11.247,23.33,13.379,23.357,15.64z M16.36,15.64h6.278
	c-0.029-2.259-0.333-4.401-0.848-6.28h-5.43V15.64z M10.312,15.64h5.329V9.36h-5.432c-0.442,1.613-0.729,3.421-0.818,5.337
	C9.837,14.831,10.188,15.189,10.312,15.64z M2.365,15.64h5.324c0.129-0.471,0.506-0.841,0.982-0.96
	c0.087-1.91,0.36-3.706,0.784-5.32H4.096C3.045,11.234,2.424,13.375,2.365,15.64z M16.36,8.64h5.219
	c-0.968-3.074-2.522-5.329-4.357-6.044c-0.17,0.347-0.483,0.611-0.862,0.715V8.64z M10.42,8.64h5.22V3.312
	c-0.379-0.104-0.692-0.368-0.862-0.715C12.952,3.309,11.391,5.559,10.42,8.64z M4.53,8.64h5.127
	c0.818-2.713,2.083-4.839,3.617-6.007C9.608,3.38,6.484,5.607,4.53,8.64z M25.78,5.36c-0.353,0-0.64,0.287-0.64,0.64
	s0.287,0.64,0.64,0.64S26.42,6.353,26.42,6S26.133,5.36,25.78,5.36z M16,1.36c-0.353,0-0.64,0.287-0.64,0.64S15.647,2.64,16,2.64
	c0.353,0,0.64-0.287,0.64-0.64S16.353,1.36,16,1.36z"/>
<rect id="_Transparent_Rectangle" style="fill:none;" width="32" height="32"/>
</svg>
