<?xml version="1.0" encoding="iso-8859-1"?>
<!-- Generator: Adobe Illustrator 29.1.0, SVG Export Plug-In . SVG Version: 9.03 Build 55587)  -->
<svg version="1.1" id="Layer_1" xmlns="http://www.w3.org/2000/svg" xmlns:xlink="http://www.w3.org/1999/xlink" x="0px" y="0px"
	 viewBox="0 0 32 32" style="enable-background:new 0 0 32 32;" xml:space="preserve">
<path id="internet-of-things--02_00000051346385206831317980000015187325490650486427_" d="M23.5,31.375
	c-1.034,0-1.875-0.841-1.875-1.875c0-0.554,0.241-1.052,0.623-1.395l-3.452-5.98h-4.604l-3.448,5.973
	c0.387,0.344,0.631,0.845,0.631,1.402c0,1.034-0.841,1.875-1.875,1.875S7.625,30.534,7.625,29.5s0.841-1.875,1.875-1.875
	c0.208,0,0.408,0.034,0.595,0.097l3.231-5.597h-2.227c-2.392,0-4.352-1.887-4.469-4.25H4.337c-0.174,0.854-0.932,1.5-1.837,1.5
	c-1.034,0-1.875-0.841-1.875-1.875s0.841-1.875,1.875-1.875c0.905,0,1.663,0.645,1.837,1.5h2.317
	c0.275-2.435,2.439-4.294,4.945-4.011c0.324-0.544,0.675-1.01,1.056-1.402l-2.561-4.434C9.908,7.341,9.708,7.375,9.5,7.375
	c-1.034,0-1.875-0.841-1.875-1.875S8.466,3.625,9.5,3.625s1.875,0.841,1.875,1.875c0,0.557-0.244,1.058-0.631,1.402l2.481,4.298
	c0.932-0.727,2.029-1.075,3.34-1.075c3.357,0,5.656,3.006,5.83,5.939c0.851,0.086,1.577,0.476,2.068,1.061h3.2
	c0.174-0.855,0.932-1.5,1.837-1.5c1.034,0,1.875,0.841,1.875,1.875s-0.841,1.875-1.875,1.875c-0.905,0-1.663-0.646-1.837-1.5h-2.746
	c0.143,0.349,0.221,0.733,0.221,1.143c0,1.742-1.365,3.107-3.107,3.107h-2.368l3.233,5.601c0.189-0.065,0.393-0.101,0.604-0.101
	c1.034,0,1.875,0.841,1.875,1.875S24.534,31.375,23.5,31.375z M23.5,28.375c-0.62,0-1.125,0.505-1.125,1.125
	s0.505,1.125,1.125,1.125s1.125-0.505,1.125-1.125S24.12,28.375,23.5,28.375z M9.5,28.375c-0.62,0-1.125,0.505-1.125,1.125
	S8.88,30.625,9.5,30.625s1.125-0.505,1.125-1.125S10.12,28.375,9.5,28.375z M11.099,13.835c-2.019,0-3.724,1.748-3.724,3.816
	c0,2.054,1.67,3.724,3.724,3.724H22.03c1.322,0,2.357-1.035,2.357-2.357c0-1.287-0.991-2.222-2.357-2.222
	c-0.207,0-0.375-0.168-0.375-0.375c0-2.678-2.046-5.546-5.09-5.546c-1.945,0-3.356,0.899-4.44,2.83
	c-0.078,0.139-0.234,0.212-0.391,0.186C11.527,13.855,11.316,13.835,11.099,13.835z M29.5,16.375c-0.62,0-1.125,0.505-1.125,1.125
	s0.505,1.125,1.125,1.125s1.125-0.505,1.125-1.125S30.12,16.375,29.5,16.375z M2.5,16.375c-0.62,0-1.125,0.505-1.125,1.125
	S1.88,18.625,2.5,18.625S3.625,18.12,3.625,17.5S3.12,16.375,2.5,16.375z M9.5,4.375c-0.62,0-1.125,0.505-1.125,1.125
	S8.88,6.625,9.5,6.625S10.625,6.12,10.625,5.5S10.12,4.375,9.5,4.375z M23.467,11.261C22.8,8.582,20.134,6.817,17.26,7.533
	l-0.182-0.728c3.27-0.815,6.352,1.202,7.117,4.275L23.467,11.261z M26.375,10.536c-1.056-4.248-5.281-7.045-9.84-5.911l-0.181-0.728
	c4.947-1.236,9.595,1.816,10.75,6.458L26.375,10.536z M29.283,9.811C28.048,4.844,23.614,1.375,18.5,1.375
	c-0.873,0-1.778,0.115-2.69,0.341l-0.181-0.728c0.971-0.24,1.936-0.363,2.871-0.363c5.459,0,10.192,3.703,11.512,9.005L29.283,9.811
	z"/>
<rect id="_Transparent_Rectangle" style="fill:none;" width="32" height="32"/>
</svg>
