<?xml version="1.0" encoding="iso-8859-1"?>
<!-- Generator: Adobe Illustrator 29.1.0, SVG Export Plug-In . SVG Version: 9.03 Build 55587)  -->
<svg version="1.1" id="Layer_1" xmlns="http://www.w3.org/2000/svg" xmlns:xlink="http://www.w3.org/1999/xlink" x="0px" y="0px"
	 viewBox="0 0 32 32" style="enable-background:new 0 0 32 32;" xml:space="preserve">
<path id="internet-of-things--03_00000044142840622786677060000011570417171988370070_" d="M16.36,30h-0.72v-7.652
	c-1.703-0.113-3.191-1.025-4.091-2.365l-4.368,2.521C7.297,22.814,7.36,23.15,7.36,23.5c0,1.577-1.283,2.86-2.86,2.86
	s-2.86-1.283-2.86-2.86s1.283-2.86,2.86-2.86c0.97,0,1.829,0.486,2.346,1.227l4.342-2.507c-0.351-0.713-0.548-1.513-0.548-2.36
	c0-0.749,0.154-1.462,0.433-2.11l-6.251-3.577l0.357-0.625l6.223,3.561c0.879-1.465,2.439-2.477,4.238-2.597V5.325
	c-0.854-0.168-1.5-0.923-1.5-1.825c0-1.025,0.834-1.86,1.86-1.86s1.86,0.834,1.86,1.86c0,0.902-0.646,1.657-1.5,1.825v6.327
	c1.782,0.119,3.329,1.113,4.213,2.555l5.227-3.505l0.4,0.598l-5.291,3.549c0.29,0.659,0.451,1.387,0.451,2.152
	c0,0.847-0.197,1.647-0.548,2.359l6.213,3.509c0.34-0.442,0.875-0.729,1.475-0.729c1.025,0,1.86,0.835,1.86,1.86
	s-0.835,1.86-1.86,1.86s-1.86-0.835-1.86-1.86c0-0.168,0.022-0.331,0.064-0.486l-6.253-3.53c-0.9,1.339-2.389,2.251-4.091,2.364
	C16.36,22.348,16.36,30,16.36,30z M4.5,21.36c-1.18,0-2.14,0.96-2.14,2.14s0.96,2.14,2.14,2.14s2.14-0.96,2.14-2.14
	S5.68,21.36,4.5,21.36z M28.5,22.86c-0.629,0-1.14,0.511-1.14,1.14s0.511,1.14,1.14,1.14s1.14-0.511,1.14-1.14
	S29.129,22.86,28.5,22.86z M16,12.36c-2.559,0-4.64,2.082-4.64,4.64s2.082,4.64,4.64,4.64s4.64-2.081,4.64-4.64
	S18.559,12.36,16,12.36z M16,2.36c-0.628,0-1.14,0.512-1.14,1.14S15.372,4.64,16,4.64s1.14-0.512,1.14-1.14S16.628,2.36,16,2.36z"/>
<rect id="_Transparent_Rectangle" style="fill:none;" width="32" height="32"/>
</svg>
