<?xml version="1.0" encoding="iso-8859-1"?>
<!-- Generator: Adobe Illustrator 29.1.0, SVG Export Plug-In . SVG Version: 9.03 Build 55587)  -->
<svg version="1.1" id="Layer_1" xmlns="http://www.w3.org/2000/svg" xmlns:xlink="http://www.w3.org/1999/xlink" x="0px" y="0px"
	 viewBox="0 0 32 32" style="enable-background:new 0 0 32 32;" xml:space="preserve">
<path id="intelligent-infrastructure_00000052795970126287341840000014842893249200030340_" d="M12.36,31h-0.72
	c0-1.302,1.059-2.36,2.36-2.36h17v0.721H14C13.096,29.36,12.36,30.096,12.36,31z M10.36,31H9.64c0-2.404,1.956-4.36,4.36-4.36h17
	v0.721H14C11.993,27.36,10.36,28.993,10.36,31z M8.36,31H7.64c0-1.353,0.424-2.608,1.147-3.64H1v-0.72h8.374
	c0.486-0.515,1.056-0.949,1.689-1.279H1c-0.199,0-0.36-0.161-0.36-0.36V10c0-0.199,0.161-0.36,0.36-0.36h3
	c0.199,0,0.36,0.161,0.36,0.36v4.851l3.449-2.156c0.111-0.071,0.25-0.074,0.365-0.01S8.36,12.869,8.36,13v2.364l4.455-2.673
	c0.111-0.067,0.249-0.067,0.362-0.005C13.29,12.75,13.36,12.87,13.36,13v2.28l3.424-2.568c0.108-0.082,0.254-0.096,0.377-0.034
	c0.122,0.061,0.199,0.186,0.199,0.322v11.64h6.279v-3.771l-0.385,0.386l-0.51-0.51l0.895-0.895V7.36h-9.28V11h-0.72V7
	c0-0.199,0.161-0.36,0.36-0.36h4.64V5.36H16c-0.199,0-0.36-0.161-0.36-0.36V1c0-0.199,0.161-0.36,0.36-0.36h6
	c0.199,0,0.36,0.161,0.36,0.36v4c0,0.199-0.161,0.36-0.36,0.36h-2.64v1.28H24c0.199,0,0.36,0.161,0.36,0.36v12.131l2.385-2.385
	c0.141-0.141,0.369-0.141,0.51,0l4,4l-0.51,0.51L30.36,20.87v3.771H31v0.721H14C10.89,25.36,8.36,27.89,8.36,31z M28.36,24.64h1.279
	v-4.49L27,17.509l-2.64,2.641v4.49h1.279V22c0-0.199,0.161-0.36,0.36-0.36h2c0.199,0,0.36,0.161,0.36,0.36L28.36,24.64L28.36,24.64z
	 M26.36,24.64h1.279v-2.28H26.36V24.64z M14,24.64h2.64V13.72l-3.424,2.568c-0.108,0.08-0.254,0.096-0.377,0.034
	C12.717,16.261,12.64,16.136,12.64,16v-2.364l-4.455,2.673c-0.111,0.067-0.249,0.067-0.362,0.005C7.71,16.25,7.64,16.13,7.64,16
	v-2.351L4.36,15.7v8.94h4.28V21c0-0.199,0.161-0.36,0.36-0.36h3c0.199,0,0.36,0.161,0.36,0.36v3.64H14z M9.36,24.64h2.28v-3.28H9.36
	V24.64z M1.36,24.64h2.28V13.36H1.36V24.64z M1.36,12.64h2.28v-2.28H1.36V12.64z M19.36,4.64h2.279V3.36H19.36V4.64z M16.36,4.64
	h2.28V3.36h-2.28V4.64z M19.36,2.64h2.279V1.36H19.36V2.64z M16.36,2.64h2.28V1.36h-2.28V2.64z M27.36,20h-0.72v-1h0.721L27.36,20
	L27.36,20z M21.36,19h-0.72v-2h0.721L21.36,19L21.36,19z M15.36,19h-0.72v-1h0.72V19z M12.36,19h-0.72v-1h0.72V19z M9.36,19H8.64v-1
	h0.72C9.36,18,9.36,19,9.36,19z M6.36,19H5.64v-1h0.72C6.36,18,6.36,19,6.36,19z M21.36,15h-0.72v-2h0.721L21.36,15L21.36,15z
	 M21.36,11h-0.72V9h0.721L21.36,11L21.36,11z M17.36,11h-0.72V9h0.72V11z M3,8.36C2.801,8.36,2.64,8.199,2.64,8
	c0-0.904-0.736-1.64-1.64-1.64C0.801,6.36,0.64,6.199,0.64,6S0.801,5.64,1,5.64c1.301,0,2.36,1.059,2.36,2.36
	C3.36,8.199,3.199,8.36,3,8.36z M4,6.36C3.801,6.36,3.64,6.199,3.64,6c0-0.628-0.512-1.14-1.14-1.14C1.475,4.86,0.64,4.025,0.64,3
	c0-0.199,0.161-0.36,0.36-0.36S1.36,2.801,1.36,3c0,0.628,0.512,1.14,1.14,1.14c1.025,0,1.86,0.834,1.86,1.86
	C4.36,6.199,4.199,6.36,4,6.36z"/>
<rect id="_Transparent_Rectangle" style="fill:none;" width="32" height="32"/>
</svg>
