<svg xmlns="http://www.w3.org/2000/svg" viewBox="0 0 48 48"><path d="M24.5,33.5c0,0.276-0.224,0.5-0.5,0.5s-0.5-0.224-0.5-0.5S23.724,33,24,33S24.5,33.224,24.5,33.5z M24,31 c-0.276,0-0.5,0.224-0.5,0.5S23.724,32,24,32s0.5-0.224,0.5-0.5S24.276,31,24,31z M24,35c-0.276,0-0.5,0.224-0.5,0.5 S23.724,36,24,36s0.5-0.224,0.5-0.5S24.276,35,24,35z M26,33c-0.276,0-0.5,0.224-0.5,0.5S25.724,34,26,34s0.5-0.224,0.5-0.5 S26.276,33,26,33z M22,33c-0.276,0-0.5,0.224-0.5,0.5S21.724,34,22,34s0.5-0.224,0.5-0.5S22.276,33,22,33z"/><path fill="none" stroke-linejoin="round" stroke-miterlimit="10" stroke-width=".72" d="M34,26.5 c0,0.828-0.672,1.5-1.5,1.5S31,27.328,31,26.5s0.672-1.5,1.5-1.5S34,25.672,34,26.5z M37,9H11v30h26V9z M34,12H14v10h20V12z M20,25h-6v3h6V25z"/></svg>