<?xml version="1.0" encoding="iso-8859-1"?>
<!-- Generator: Adobe Illustrator 24.1.2, SVG Export Plug-In . SVG Version: 6.00 Build 0)  -->
<svg version="1.1" id="Layer_1" xmlns="http://www.w3.org/2000/svg" xmlns:xlink="http://www.w3.org/1999/xlink" x="0px" y="0px"
	 viewBox="0 0 32 32" style="enable-background:new 0 0 32 32;" xml:space="preserve">
<path id="intelligence_1_" d="M29.36,16.5c0-1.433-0.797-2.74-2.052-3.406c0.034-0.205,0.052-0.401,0.052-0.594
	c0-1.433-0.797-2.74-2.052-3.406C25.343,8.889,25.36,8.692,25.36,8.5c0-1.506-0.864-3.067-2.038-3.73
	C23.08,2.999,21.441,1.64,19.5,1.64c-1.554,0-2.889,0.928-3.5,2.256c-0.611-1.327-1.946-2.256-3.5-2.256
	c-1.989,0-3.632,1.508-3.828,3.472C7.431,5.783,6.64,7.09,6.64,8.5c0,0.192,0.017,0.388,0.051,0.594
	C5.436,9.76,4.64,11.067,4.64,12.5c0,0.192,0.017,0.388,0.051,0.594C3.436,13.76,2.64,15.067,2.64,16.5
	c0,0.875,0.303,1.722,0.858,2.41C3.261,19.424,3.14,19.957,3.14,20.5c0,1.61,1.022,3.05,2.523,3.605
	C5.647,24.242,5.64,24.373,5.64,24.5c0,1.832,1.312,3.406,3.093,3.767c0.36,1.781,1.935,3.094,3.767,3.094
	c1.555,0,2.889-0.929,3.5-2.256c0.176,0.382,0.412,0.73,0.697,1.033c0.018,0.04,0.016,0.085,0.049,0.118
	c0.033,0.033,0.078,0.031,0.118,0.049c0.691,0.65,1.615,1.056,2.636,1.056c1.832,0,3.406-1.312,3.767-3.094
	c1.781-0.36,3.094-1.935,3.094-3.767c0-0.128-0.008-0.257-0.023-0.395c1.5-0.556,2.523-1.995,2.523-3.605
	c0-0.542-0.121-1.075-0.359-1.59C29.057,18.223,29.36,17.376,29.36,16.5z M13.36,30.505v-1.801c0-1.184-0.919-2.05-2.029-2.98
	c-0.153-0.126-0.38-0.107-0.507,0.045c-0.128,0.152-0.108,0.38,0.045,0.508c1.149,0.963,1.772,1.635,1.772,2.428v1.921
	c-0.047,0.002-0.092,0.014-0.14,0.014c-1.562,0-2.894-1.175-3.097-2.732l-0.036-0.274l-0.274-0.036
	C7.535,27.394,6.36,26.062,6.36,24.5c0-0.136,0.022-0.266,0.041-0.398l1.745-0.773c0.182-0.08,0.264-0.293,0.183-0.475
	c-0.081-0.183-0.294-0.268-0.475-0.184l-1.803,0.8C4.757,23.056,3.86,21.856,3.86,20.5c0-0.387,0.101-0.766,0.253-1.14H7
	c0.199,0,0.36-0.161,0.36-0.36S7.199,18.64,7,18.64H4.217l-0.024-0.026C3.656,18.027,3.36,17.277,3.36,16.5
	c0-1.245,0.74-2.373,1.884-2.875l0.274-0.12L5.45,13.214c-0.061-0.257-0.09-0.491-0.09-0.714c0-1.153,0.639-2.199,1.642-2.746
	l1.721,2.186c0.313,0.38,0.596,0.688,0.901,0.929l-1.878,1.878c-0.141,0.141-0.141,0.368,0,0.509C7.816,15.325,7.908,15.36,8,15.36
	s0.184-0.035,0.254-0.105l2-2c0.005-0.005,0.003-0.014,0.008-0.019c0.22,0.077,0.459,0.125,0.738,0.125h2
	c0.199,0,0.36-0.161,0.36-0.36s-0.161-0.36-0.36-0.36h-2c-0.656,0-1.005-0.29-1.717-1.152l-1.841-2.34
	C7.392,8.919,7.36,8.702,7.36,8.5c0-1.129,0.63-2.171,1.615-2.724L9.769,6.44C9.836,6.497,9.918,6.524,10,6.524
	c0.103,0,0.205-0.044,0.276-0.129c0.127-0.152,0.107-0.379-0.045-0.507L9.4,5.193c0.158-1.599,1.482-2.833,3.1-2.833
	c1.731,0,3.14,1.409,3.14,3.14v4.169C15.078,8.998,14.199,8.64,13,8.64c-0.199,0-0.36,0.161-0.36,0.36S12.801,9.36,13,9.36
	c1.826,0,2.64,0.814,2.64,2.64v4.659c-0.749,0.076-1.166,0.358-1.52,0.623c-0.455,0.343-0.814,0.612-2.049,0.365
	c-0.196-0.042-0.385,0.087-0.424,0.282c-0.039,0.194,0.087,0.385,0.282,0.423c0.375,0.075,0.691,0.107,0.964,0.107
	c0.857,0,1.277-0.315,1.659-0.602c0.3-0.225,0.58-0.417,1.088-0.482v5.253l-2.14,0.01c-1.044,0-1.771-0.59-2.159-1.754
	c-0.062-0.188-0.268-0.291-0.455-0.228c-0.188,0.063-0.291,0.267-0.228,0.456c0.651,1.954,2.06,2.246,2.843,2.246l2.139-0.01v4.15
	C15.64,28.931,14.672,30.128,13.36,30.505z M26.121,23.406c-0.619-1.282-1.559-1.786-3.181-1.778l-1.006,0.012
	c-1.207,0-1.574-0.383-1.574-1.64c0-0.199-0.161-0.36-0.36-0.36s-0.36,0.161-0.36,0.36c0,1.654,0.687,2.36,2.299,2.36l1.01-0.012
	c0.024-0.001,0.049-0.001,0.073-0.001c1.415,0,2.072,0.416,2.563,1.607c0.031,0.178,0.055,0.358,0.055,0.545
	c0,1.416-0.971,2.634-2.313,3.002c-0.078-1.062-0.414-1.876-1.079-2.501c-0.146-0.136-0.373-0.13-0.509,0.015
	c-0.137,0.146-0.13,0.373,0.015,0.509c0.564,0.531,0.828,1.22,0.869,2.184l-0.026,0.199c-0.203,1.558-1.535,2.732-3.097,2.732
	c-0.736,0-1.404-0.265-1.94-0.69l1.695-1.695c0.141-0.141,0.141-0.369,0-0.51s-0.369-0.141-0.51,0L17.05,29.44
	c-0.426-0.536-0.691-1.204-0.691-1.94V27c0-1.58,0.504-1.64,2.64-1.64c0.199,0,0.36-0.161,0.36-0.36s-0.161-0.36-0.36-0.36
	c-1.115,0-2.041,0.015-2.64,0.456v-7.758c1.462-0.044,1.926-0.348,2.329-0.621c0.292-0.2,0.524-0.357,1.312-0.357
	c0.199,0,0.36-0.161,0.36-0.36s-0.161-0.36-0.36-0.36c-1.01,0-1.369,0.245-1.717,0.481c-0.334,0.227-0.689,0.459-1.923,0.497V8.331
	C16.922,9.002,17.801,9.36,19,9.36c0.199,0,0.36-0.161,0.36-0.36S19.199,8.64,19,8.64c-1.826,0-2.64-0.814-2.64-2.64V5.5
	c0-1.731,1.409-3.14,3.14-3.14c1.495,0,2.756,0.976,3.055,2.28H20c-0.199,0-0.36,0.161-0.36,0.36S19.801,5.36,20,5.36h2.888
	c0.986,0.503,1.751,1.864,1.751,3.14c0,0.191-0.033,0.397-0.077,0.611c-0.946,0.799-1.729,1.563-1.888,2.529H20
	c-0.199,0-0.36,0.161-0.36,0.36s0.161,0.36,0.36,0.36h2.64V15c0,0.199,0.161,0.36,0.36,0.36s0.36-0.161,0.36-0.36v-3
	c0-0.749,0.56-1.393,1.589-2.272c1.031,0.54,1.69,1.601,1.69,2.772c0,0.224-0.029,0.457-0.09,0.713l-0.068,0.292l0.274,0.12
	c1.145,0.501,1.884,1.63,1.884,2.875c0,0.777-0.296,1.528-0.833,2.113l-0.024,0.026H25c-0.199,0-0.36,0.161-0.36,0.36
	s0.161,0.36,0.36,0.36h2.887c0.152,0.373,0.252,0.754,0.252,1.14C28.14,21.795,27.32,22.944,26.121,23.406z"/>
<rect id="_Transparent_Rectangle" style="fill:none;" width="32" height="32"/>
</svg>
