<?xml version="1.0" encoding="iso-8859-1"?>
<!-- Generator: Adobe Illustrator 24.3.0, SVG Export Plug-In . SVG Version: 6.00 Build 0)  -->
<svg version="1.1" id="Layer_1" xmlns="http://www.w3.org/2000/svg" xmlns:xlink="http://www.w3.org/1999/xlink" x="0px" y="0px"
	 viewBox="0 0 32 32" style="enable-background:new 0 0 32 32;" xml:space="preserve">
<path id="it--infrastructure-software_1_" d="M22.5,4.5C22.5,4.776,22.276,5,22,5s-0.5-0.224-0.5-0.5S21.724,4,22,4
	S22.5,4.224,22.5,4.5z M20,4c-0.276,0-0.5,0.224-0.5,0.5S19.724,5,20,5s0.5-0.224,0.5-0.5S20.276,4,20,4z M18,4
	c-0.276,0-0.5,0.224-0.5,0.5S17.724,5,18,5s0.5-0.224,0.5-0.5S18.276,4,18,4z M30,29.36h-8c-0.199,0-0.36-0.161-0.36-0.36v-4
	c0-0.199,0.161-0.36,0.36-0.36h3.64v-3.28h-9.28v3.279H20c0.199,0,0.36,0.161,0.36,0.36v4c0,0.199-0.161,0.36-0.36,0.36h-8
	c-0.199,0-0.36-0.161-0.36-0.36v-4c0-0.199,0.161-0.36,0.36-0.36h3.64V21.36H6.36v3.279H10c0.199,0,0.36,0.161,0.36,0.36v4
	c0,0.199-0.161,0.36-0.36,0.36H2c-0.199,0-0.36-0.161-0.36-0.36v-4c0-0.199,0.161-0.36,0.36-0.36h3.64V21
	c0-0.199,0.161-0.36,0.36-0.36h9.64v-4.28H8c-0.199,0-0.36-0.161-0.36-0.36V3c0-0.199,0.161-0.36,0.36-0.36h16
	c0.199,0,0.36,0.161,0.36,0.36v13c0,0.199-0.161,0.36-0.36,0.36h-7.64v4.28H26c0.199,0,0.36,0.161,0.36,0.36v3.64H30
	c0.199,0,0.36,0.161,0.36,0.36v4C30.36,29.199,30.199,29.36,30,29.36z M22.36,28.64h7.279v-3.28H22.36V28.64z M12.36,28.64h7.28
	v-3.28h-7.28C12.36,25.36,12.36,28.64,12.36,28.64z M2.36,28.64h7.28v-3.28H2.36V28.64z M8.36,15.64h15.28V6.36H8.36V15.64z
	 M8.36,5.64h15.28V3.36H8.36V5.64z M25,27.36h-2v-0.72h2V27.36z M15,27.36h-2v-0.72h2V27.36z M5,27.36H3v-0.72h2V27.36z"/>
<rect id="_Transparent_Rectangle" style="fill:none;" width="32" height="32"/>
</svg>
