<svg width="55px" height="55px" viewBox="0 0 55 55" xmlns="http://www.w3.org/2000/svg"><path d="M30.0371835,35.6249156 L33.1369153,30.1073261 C33.2554955,29.8976705 33.5185643,29.8247468 33.7258306,29.9442606 C33.9321004,30.0647873 34.0048429,30.3321742 33.8862626,30.5428427 L30.6830009,36.2430074 L32.5663352,39.5952059 C32.6420671,39.7299122 32.6420671,39.8950034 32.5663352,40.0297097 L30.4597923,43.7792032 C30.383064,43.9159352 30.2395719,44 30.0851187,44 L25.8730295,44 C25.7175798,44 25.5750842,43.9159352 25.4983558,43.7792032 L23.3908165,40.0297097 C23.3150846,39.8950034 23.3150846,39.7299122 23.3908165,39.5952059 L25.4983558,35.8457124 C25.5750842,35.7099932 25.7175798,35.6249156 25.8730295,35.6249156 L30.0371835,35.6249156 Z M19.2747709,25.5316678 L15.5390119,25.5316678 C15.3835622,25.5316678 15.2410666,25.447603 15.1643382,25.310871 L13.0567989,21.5623903 C12.981067,21.4266712 12.981067,21.26158 13.0567989,21.1268737 L15.1643382,17.3773801 C15.2410666,17.2406482 15.3835622,17.1565834 15.5390119,17.1565834 L19.7511011,17.1565834 C19.9055543,17.1565834 20.0490464,17.2406482 20.1257748,17.3773801 L22.2323176,21.1268737 C22.3080495,21.26158 22.3080495,21.4266712 22.2323176,21.5623903 L20.1347635,25.294876 L23.224306,30.7943282 C23.3428862,31.0049966 23.2711402,31.2723835 23.0638739,31.3929102 C22.9961138,31.4313977 22.9233713,31.4506415 22.8506288,31.4506415 C22.7011579,31.4506415 22.5556729,31.370628 22.4759551,31.2298447 L19.2747709,25.5316678 Z M35.8500867,29.7343527 L32.7555653,24.2267387 C32.6379815,24.0160702 32.7097276,23.7476705 32.9159974,23.6281567 C33.1242601,23.5086428 33.3873289,23.5815665 33.5049126,23.7912221 L36.6939929,29.4688386 L40.4619846,29.4688386 C40.6164378,29.4688386 40.7599298,29.5539163 40.8366582,29.6896354 L42.9432011,33.439129 C43.018933,33.5738352 43.018933,33.7389264 42.9432011,33.8746455 L40.8366582,37.6231263 C40.7599298,37.7598582 40.6164378,37.843923 40.4619846,37.843923 L36.2498954,37.843923 C36.0944457,37.843923 35.9519501,37.7598582 35.8752217,37.6231263 L33.7676824,33.8746455 C33.6919505,33.7389264 33.6919505,33.5738352 33.7676824,33.439129 L35.8500867,29.7343527 Z M22.2118756,33.4013504 L28.3783606,33.4013504 C28.6165175,33.4013504 28.8098332,33.5978393 28.8098332,33.8399055 C28.8098332,34.0819716 28.6165175,34.2784605 28.3783606,34.2784605 L22.0056597,34.2784605 L20.126273,37.6236327 C20.0495446,37.7603646 19.9060526,37.8444294 19.7515993,37.8444294 L15.5395101,37.8444294 C15.3840604,37.8444294 15.2415649,37.7603646 15.1648365,37.6236327 L13.0582936,33.8741391 C12.9825617,33.73842 12.9825617,33.5733288 13.0582936,33.4386226 L15.1648365,29.689129 C15.2415649,29.5534099 15.3840604,29.4683322 15.5395101,29.4683322 L19.7515993,29.4683322 C19.9060526,29.4683322 20.0495446,29.5534099 20.126273,29.689129 L22.2118756,33.4013504 Z M25.955322,19.3750844 L22.8433545,24.9130317 C22.7636367,25.053815 22.6181517,25.1338285 22.4686809,25.1338285 C22.3959384,25.1338285 22.3231959,25.1145847 22.2554358,25.0760972 C22.0481695,24.9555706 21.9764235,24.6881837 22.0950037,24.4775152 L25.2918264,18.7868541 L23.3908165,15.4047941 C23.3150846,15.2700878 23.3150846,15.1049966 23.3908165,14.9702903 L25.4983558,11.2207968 C25.5750842,11.0850777 25.7175798,11 25.8730295,11 L30.0851187,11 C30.2395719,11 30.383064,11.0850777 30.4597923,11.2207968 L32.5663352,14.9702903 C32.6420671,15.1049966 32.6420671,15.2700878 32.5663352,15.4047941 L30.4597923,19.1542876 C30.383064,19.2910196 30.2395719,19.3750844 30.0851187,19.3750844 L25.955322,19.3750844 Z M33.7575118,21.6195138 L27.6021085,21.6195138 C27.3639516,21.6195138 27.1706359,21.423025 27.1706359,21.1809588 C27.1706359,20.9388926 27.3639516,20.7424038 27.6021085,20.7424038 L33.9409394,20.7424038 L35.8323734,17.3773801 C35.9091018,17.2406482 36.0515973,17.1565834 36.2070471,17.1565834 L40.4191363,17.1565834 C40.5735895,17.1565834 40.7170815,17.2406482 40.7938099,17.3773801 L42.8993563,21.1268737 C42.9760847,21.26158 42.9760847,21.4266712 42.8993563,21.5613774 L40.7938099,25.310871 C40.7170815,25.447603 40.5735895,25.5316678 40.4191363,25.5316678 L36.2070471,25.5316678 C36.0515973,25.5316678 35.9091018,25.447603 35.8323734,25.310871 L33.7575118,21.6195138 Z M26.1231441,18.4979743 L29.8350041,18.4979743 L31.6954182,15.1870358 L29.8350041,11.8771101 L26.1231441,11.8771101 L24.2627299,15.1870358 L26.1231441,18.4979743 Z M26.1231441,43.1228899 L29.8350041,43.1228899 L31.6954182,39.8119514 L29.8350041,36.5020257 L26.1231441,36.5020257 L24.2627299,39.8119514 L26.1231441,43.1228899 Z M36.4571616,24.6545577 L40.1690217,24.6545577 L42.0284393,21.3436192 L40.1690217,18.0336935 L36.4571616,18.0336935 L34.5967475,21.3436192 L36.4571616,24.6545577 Z M15.7896247,36.9673194 L19.5014847,36.9673194 L21.3609024,33.6563808 L19.5014847,30.3454423 L15.7896247,30.3454423 L13.9292106,33.6563808 L15.7896247,36.9673194 Z M36.50001,36.966813 L40.21187,36.966813 L42.0712876,33.6568872 L40.21187,30.3459487 L36.50001,30.3459487 L34.6395958,33.6568872 L36.50001,36.966813 Z M15.7891265,24.6545577 L19.5009865,24.6545577 L21.3614006,21.344632 L19.5009865,18.0336935 L15.7891265,18.0336935 L13.9287124,21.344632 L15.7891265,24.6545577 Z"></path></svg>
