<?xml version="1.0" encoding="iso-8859-1"?>
<!-- Generator: Adobe Illustrator 24.1.2, SVG Export Plug-In . SVG Version: 6.00 Build 0)  -->
<svg version="1.1" id="Layer_1" xmlns="http://www.w3.org/2000/svg" xmlns:xlink="http://www.w3.org/1999/xlink" x="0px" y="0px"
	 viewBox="0 0 32 32" style="enable-background:new 0 0 32 32;" xml:space="preserve">
<path id="javascript_1_" d="M31,31.36H1v-0.72h30V31.36z M31,24.36H1.001c-0.199,0-0.36-0.161-0.36-0.36L0.64,1
	c0-0.096,0.038-0.187,0.105-0.254C0.813,0.678,0.904,0.64,1,0.64h29.999c0.199,0,0.36,0.161,0.36,0.36l0.001,23
	c0,0.096-0.038,0.188-0.105,0.255S31.096,24.36,31,24.36z M1.361,23.64H30.64L30.639,1.36H1.36L1.361,23.64z M10.904,16.166
	c-0.299,0-0.516-0.075-0.651-0.224c-0.135-0.149-0.203-0.345-0.203-0.588v-0.182c0-0.242,0.068-0.438,0.203-0.588
	c0.135-0.149,0.352-0.224,0.651-0.224s0.516,0.075,0.651,0.224s0.203,0.346,0.203,0.588v0.182c0,0.243-0.067,0.439-0.203,0.588
	C11.419,16.091,11.203,16.166,10.904,16.166z M13.998,8.774h1.12v8.344c0,0.504-0.126,0.909-0.378,1.218s-0.649,0.462-1.19,0.462
	h-0.728v-0.993h1.176C13.998,17.805,13.998,8.774,13.998,8.774z M14.558,7.08c-0.243,0-0.418-0.058-0.525-0.175
	c-0.107-0.117-0.161-0.269-0.161-0.455V6.268c0-0.187,0.054-0.338,0.161-0.455s0.282-0.175,0.525-0.175s0.417,0.058,0.525,0.175
	s0.161,0.269,0.161,0.455V6.45c0,0.187-0.054,0.338-0.161,0.455S14.8,7.08,14.558,7.08z M19.668,16.166
	c-0.672,0-1.234-0.128-1.688-0.385c-0.452-0.257-0.842-0.6-1.169-1.029l0.798-0.644c0.28,0.355,0.593,0.628,0.938,0.819
	s0.747,0.287,1.204,0.287c0.476,0,0.847-0.103,1.113-0.308c0.266-0.206,0.398-0.495,0.398-0.868c0-0.28-0.091-0.52-0.272-0.721
	c-0.183-0.201-0.512-0.338-0.987-0.413L19.43,12.82c-0.336-0.046-0.644-0.119-0.924-0.217s-0.525-0.229-0.735-0.392
	c-0.21-0.163-0.373-0.366-0.489-0.609c-0.117-0.243-0.176-0.532-0.176-0.868c0-0.354,0.065-0.665,0.196-0.931
	c0.131-0.266,0.311-0.488,0.539-0.665s0.502-0.311,0.819-0.399c0.316-0.089,0.657-0.133,1.021-0.133c0.588,0,1.08,0.103,1.478,0.308
	c0.396,0.206,0.744,0.49,1.043,0.854L21.46,10.44c-0.159-0.224-0.393-0.427-0.7-0.609s-0.695-0.273-1.162-0.273
	s-0.818,0.101-1.057,0.301c-0.238,0.201-0.357,0.474-0.357,0.819c0,0.354,0.119,0.611,0.357,0.77s0.581,0.275,1.029,0.35l0.56,0.084
	c0.803,0.122,1.372,0.353,1.708,0.693s0.504,0.786,0.504,1.337c0,0.7-0.238,1.251-0.714,1.652
	C21.152,15.965,20.498,16.166,19.668,16.166z"/>
<rect id="_Transparent_Rectangle" style="fill:none;" width="32" height="32"/>
</svg>
