<?xml version="1.0" encoding="iso-8859-1"?>
<!-- Generator: Adobe Illustrator 24.1.2, SVG Export Plug-In . SVG Version: 6.00 Build 0)  -->
<svg version="1.1" id="Layer_1" xmlns="http://www.w3.org/2000/svg" xmlns:xlink="http://www.w3.org/1999/xlink" x="0px" y="0px"
	 viewBox="0 0 32 32" style="enable-background:new 0 0 32 32;" xml:space="preserve">
<path id="justice_1_" d="M26,31.36H6v-0.72h6.659c0.167-1.565,1.415-2.813,2.981-2.98V13.333c-1.131-0.174-2-1.154-2-2.333
	s0.869-2.159,2-2.333V5.279L6.03,7.851l4.283,7.495c0.031,0.055,0.047,0.116,0.047,0.179c0,2.68-2.18,4.86-4.86,4.86
	s-4.86-2.181-4.86-4.86c0-0.062,0.016-0.124,0.047-0.179l4.5-7.875C5.237,7.384,5.319,7.323,5.414,7.3L5.406,7.272l21.001-5.62l0,0
	c0.146-0.042,0.325,0.029,0.405,0.169l4.5,7.875c0.031,0.055,0.048,0.116,0.048,0.179c0,2.68-2.181,4.86-4.86,4.86
	s-4.86-2.18-4.86-4.86c0-0.062,0.017-0.124,0.048-0.179L25.76,2.57l-9.4,2.516v3.581c1.131,0.174,2,1.154,2,2.333
	s-0.869,2.159-2,2.333V27.66c1.566,0.167,2.814,1.415,2.981,2.98H26V31.36z M13.384,30.64h5.231c-0.176-1.286-1.281-2.28-2.615-2.28
	C14.667,28.36,13.561,29.354,13.384,30.64z M1.388,16.009c0.241,2.055,1.993,3.655,4.112,3.655s3.871-1.6,4.112-3.655H1.388z
	 M1.549,15.29h7.902L5.5,8.375L1.549,15.29z M22.389,10.36c0.24,2.055,1.992,3.655,4.111,3.655s3.871-1.6,4.111-3.655H22.389z
	 M16,9.36c-0.904,0-1.64,0.736-1.64,1.64s0.736,1.64,1.64,1.64c0.904,0,1.64-0.736,1.64-1.64S16.904,9.36,16,9.36z M22.549,9.641
	h7.902L26.5,2.726L22.549,9.641z"/>
<rect id="_Transparent_Rectangle" style="fill:none;" width="32" height="32"/>
</svg>
