<?xml version="1.0" encoding="iso-8859-1"?>
<!-- Generator: Adobe Illustrator 24.3.0, SVG Export Plug-In . SVG Version: 6.00 Build 0)  -->
<svg version="1.1" id="Layer_1" xmlns="http://www.w3.org/2000/svg" xmlns:xlink="http://www.w3.org/1999/xlink" x="0px" y="0px"
	 viewBox="0 0 32 32" style="enable-background:new 0 0 32 32;" xml:space="preserve">
<path id="keep-dry_1_" d="M14,31.36c-1.301,0-2.36-1.059-2.36-2.36h0.72c0,0.904,0.736,1.64,1.64,1.64s1.64-0.735,1.64-1.64v-8.808
	l-0.09-0.06c-1.517-1.012-3.583-1.012-5.1,0L10.2,20.3c-0.121,0.08-0.278,0.08-0.399,0l-0.25-0.167c-1.517-1.012-3.583-1.012-5.1,0
	L4.2,20.3c-0.121,0.081-0.276,0.08-0.397,0.001s-0.182-0.223-0.156-0.365C4.71,14.088,9.723,9.812,15.64,9.645V8h0.72v1.645
	c5.917,0.167,10.93,4.443,11.995,10.291c0.025,0.143-0.036,0.286-0.157,0.365c-0.12,0.078-0.277,0.077-0.397-0.001l-0.25-0.167
	c-1.518-1.012-3.581-1.012-5.101,0L22.2,20.3c-0.121,0.08-0.279,0.08-0.4,0l-0.25-0.167c-1.518-1.012-3.582-1.012-5.1,0l-0.09,0.06
	V29C16.36,30.302,15.301,31.36,14,31.36z M7,18.64c0.936,0,1.846,0.245,2.652,0.71c0.146-3.806,1.559-7.062,3.558-8.659
	c-4.202,1.014-7.583,4.274-8.677,8.556C5.292,18.849,6.135,18.64,7,18.64z M18.79,10.691c1.999,1.596,3.412,4.853,3.558,8.659
	c1.554-0.896,3.535-0.933,5.12-0.103C26.373,14.965,22.992,11.705,18.79,10.691z M16.36,10.379v8.962
	c1.605-0.917,3.663-0.92,5.267-0.008C21.434,14.532,19.174,10.684,16.36,10.379z M13,18.64c0.931,0,1.836,0.242,2.64,0.702V10.38
	c-2.814,0.304-5.074,4.152-5.267,8.956C11.174,18.879,12.074,18.64,13,18.64z M22.5,7.36c-0.062,0-0.124-0.016-0.182-0.049
	c-0.172-0.1-0.229-0.321-0.129-0.492l3.5-6c0.099-0.172,0.318-0.23,0.492-0.13c0.172,0.1,0.229,0.321,0.129,0.492l-3.5,6
	C22.744,7.296,22.623,7.36,22.5,7.36z M12.5,7.36c-0.062,0-0.124-0.016-0.181-0.049c-0.172-0.1-0.23-0.321-0.13-0.492l3.5-6
	c0.101-0.172,0.322-0.229,0.492-0.13c0.172,0.1,0.23,0.321,0.13,0.492l-3.5,6C12.744,7.296,12.624,7.36,12.5,7.36z M2.5,7.36
	c-0.062,0-0.124-0.016-0.181-0.049c-0.172-0.1-0.23-0.321-0.13-0.492l3.5-6C5.79,0.647,6.011,0.59,6.181,0.689
	c0.172,0.1,0.23,0.321,0.13,0.492l-3.5,6C2.744,7.296,2.624,7.36,2.5,7.36z M29,4.86c-0.061,0-0.122-0.015-0.179-0.047
	c-0.173-0.099-0.232-0.318-0.134-0.491l2-3.5c0.098-0.172,0.317-0.234,0.491-0.134c0.173,0.099,0.232,0.318,0.134,0.491l-2,3.5
	C29.246,4.795,29.125,4.86,29,4.86z M19,4.86c-0.061,0-0.122-0.015-0.179-0.047c-0.122-0.07-0.188-0.2-0.181-0.331
	c-0.004-0.067,0.012-0.135,0.048-0.198l1.999-3.462c0.021-0.036,0.046-0.066,0.075-0.092l0,0c0.001,0,0.001,0,0.001-0.001l0,0
	c0.001,0,0.001,0,0.001-0.001c0,0,0.001,0.003,0.001-0.001c0.001,0,0.001,0,0.001,0s0.004,0,0.001-0.001c0,0,0.003,0,0.001-0.001
	h0.001l0,0h0.001l0,0c0.001,0,0.001,0,0.001,0s0,0,0.001,0l0,0h0.001l0,0h0.001l0,0c0.001,0,0.001,0,0.001-0.001l0,0
	c0.001,0,0.001,0,0.001-0.001h0.001c0,0,0,0,0.001-0.001l0,0c0,0,0.002,0,0.001-0.001h0.001l0,0l0.001-0.001l0,0
	c0.026-0.02,0.055-0.036,0.084-0.048l0,0h0.001l0,0c0.001,0,0.001,0,0.002,0l0,0h0.001l0,0c0.001,0,0.001,0,0.001,0
	c0.001,0,0.001,0,0.001,0s0,0,0.001,0l0,0h0.001c0,0-0.005,0.002,0.002,0l0,0h0.001l0,0c0.001,0,0.001,0,0.001,0h0.001
	c0,0,0,0,0.001,0l0,0h0.001c0,0,0.002,0,0.001,0c0.001,0,0.001,0,0.001,0s0,0,0.001,0c0,0,0.003,0.001,0.001,0h0.001l0,0
	c0.001,0,0.001,0,0.001,0c0.001,0,0.001,0,0.001,0s0,0,0.001,0l0,0c0.001,0,0.001,0,0.001,0s-0.007-0.001,0.002,0l0,0h0.001l0,0
	c0.001,0,0.001,0,0.002,0l0,0c0.092-0.028,0.195-0.02,0.285,0.031c0.173,0.099,0.232,0.318,0.134,0.491l-2,3.5
	C19.246,4.795,19.125,4.86,19,4.86z M9,4.86c-0.061,0-0.122-0.015-0.178-0.047C8.649,4.714,8.589,4.494,8.688,4.321l2-3.5
	c0.098-0.172,0.317-0.234,0.491-0.134c0.172,0.099,0.232,0.318,0.134,0.491l-2,3.5C9.246,4.795,9.125,4.86,9,4.86z"/>
<rect id="_Transparent_Rectangle" style="fill:none;" width="32" height="32"/>
</svg>
