<?xml version="1.0" encoding="iso-8859-1"?>
<!-- Generator: Adobe Illustrator 24.3.0, SVG Export Plug-In . SVG Version: 6.00 Build 0)  -->
<svg version="1.1" id="Layer_1" xmlns="http://www.w3.org/2000/svg" xmlns:xlink="http://www.w3.org/1999/xlink" x="0px" y="0px"
	 viewBox="0 0 32 32" style="enable-background:new 0 0 32 32;" xml:space="preserve">
<path id="keyboard_1_" d="M31,23.36H1c-0.199,0-0.36-0.161-0.36-0.36V9c0-0.199,0.161-0.36,0.36-0.36h30
	c0.199,0,0.36,0.161,0.36,0.36v14C31.36,23.199,31.199,23.36,31,23.36z M1.36,22.64h29.28V9.36H1.36V22.64z M29,21.36h-5
	c-0.199,0-0.36-0.161-0.36-0.36v-2c0-0.199,0.161-0.36,0.36-0.36h5c0.199,0,0.36,0.161,0.36,0.36v2
	C29.36,21.199,29.199,21.36,29,21.36z M24.36,20.64h4.279v-1.28H24.36V20.64z M22,21.36H10c-0.199,0-0.36-0.161-0.36-0.36v-2
	c0-0.199,0.161-0.36,0.36-0.36h12c0.199,0,0.36,0.161,0.36,0.36v2C22.36,21.199,22.199,21.36,22,21.36z M10.36,20.64h11.28v-1.28
	H10.36V20.64z M8,21.36H3c-0.199,0-0.36-0.161-0.36-0.36v-2c0-0.199,0.161-0.36,0.36-0.36h5c0.199,0,0.36,0.161,0.36,0.36v2
	C8.36,21.199,8.199,21.36,8,21.36z M3.36,20.64h4.28v-1.28H3.36V20.64z M29,17.36h-4c-0.199,0-0.36-0.161-0.36-0.36v-2
	c0-0.199,0.161-0.36,0.36-0.36h4c0.199,0,0.36,0.161,0.36,0.36v2C29.36,17.199,29.199,17.36,29,17.36z M25.36,16.64h3.279v-1.28
	H25.36V16.64z M23,17.36h-2c-0.199,0-0.36-0.161-0.36-0.36v-2c0-0.199,0.161-0.36,0.36-0.36h2c0.199,0,0.36,0.161,0.36,0.36v2
	C23.36,17.199,23.199,17.36,23,17.36z M21.36,16.64h1.279v-1.28H21.36V16.64z M19,17.36h-2c-0.199,0-0.36-0.161-0.36-0.36v-2
	c0-0.199,0.161-0.36,0.36-0.36h2c0.199,0,0.36,0.161,0.36,0.36v2C19.36,17.199,19.199,17.36,19,17.36z M17.36,16.64h1.279v-1.28
	H17.36V16.64z M15,17.36h-2c-0.199,0-0.36-0.161-0.36-0.36v-2c0-0.199,0.161-0.36,0.36-0.36h2c0.199,0,0.36,0.161,0.36,0.36v2
	C15.36,17.199,15.199,17.36,15,17.36z M13.36,16.64h1.28v-1.28h-1.28V16.64z M11,17.36H9c-0.199,0-0.36-0.161-0.36-0.36v-2
	c0-0.199,0.161-0.36,0.36-0.36h2c0.199,0,0.36,0.161,0.36,0.36v2C11.36,17.199,11.199,17.36,11,17.36z M9.36,16.64h1.28v-1.28H9.36
	V16.64z M7,17.36H3c-0.199,0-0.36-0.161-0.36-0.36v-2c0-0.199,0.161-0.36,0.36-0.36h4c0.199,0,0.36,0.161,0.36,0.36v2
	C7.36,17.199,7.199,17.36,7,17.36z M3.36,16.64h3.28v-1.28H3.36V16.64z M29,13.36h-2c-0.199,0-0.36-0.161-0.36-0.36v-2
	c0-0.199,0.161-0.36,0.36-0.36h2c0.199,0,0.36,0.161,0.36,0.36v2C29.36,13.199,29.199,13.36,29,13.36z M27.36,12.64h1.279v-1.28
	H27.36V12.64z M25,13.36h-2c-0.199,0-0.36-0.161-0.36-0.36v-2c0-0.199,0.161-0.36,0.36-0.36h2c0.199,0,0.36,0.161,0.36,0.36v2
	C25.36,13.199,25.199,13.36,25,13.36z M23.36,12.64h1.279v-1.28H23.36V12.64z M21,13.36h-2c-0.199,0-0.36-0.161-0.36-0.36v-2
	c0-0.199,0.161-0.36,0.36-0.36h2c0.199,0,0.36,0.161,0.36,0.36v2C21.36,13.199,21.199,13.36,21,13.36z M19.36,12.64h1.279v-1.28
	H19.36V12.64z M17,13.36h-2c-0.199,0-0.36-0.161-0.36-0.36v-2c0-0.199,0.161-0.36,0.36-0.36h2c0.199,0,0.36,0.161,0.36,0.36v2
	C17.36,13.199,17.199,13.36,17,13.36z M15.36,12.64h1.28v-1.28h-1.28V12.64z M13,13.36h-2c-0.199,0-0.36-0.161-0.36-0.36v-2
	c0-0.199,0.161-0.36,0.36-0.36h2c0.199,0,0.36,0.161,0.36,0.36v2C13.36,13.199,13.199,13.36,13,13.36z M11.36,12.64h1.28v-1.28
	h-1.28V12.64z M9,13.36H7c-0.199,0-0.36-0.161-0.36-0.36v-2c0-0.199,0.161-0.36,0.36-0.36h2c0.199,0,0.36,0.161,0.36,0.36v2
	C9.36,13.199,9.199,13.36,9,13.36z M7.36,12.64h1.28v-1.28H7.36V12.64z M5,13.36H3c-0.199,0-0.36-0.161-0.36-0.36v-2
	c0-0.199,0.161-0.36,0.36-0.36h2c0.199,0,0.36,0.161,0.36,0.36v2C5.36,13.199,5.199,13.36,5,13.36z M3.36,12.64h1.28v-1.28H3.36
	V12.64z"/>
<rect id="_Transparent_Rectangle" style="fill:none;" width="32" height="32"/>
</svg>
