<?xml version="1.0" encoding="iso-8859-1"?>
<!-- Generator: Adobe Illustrator 28.0.0, SVG Export Plug-In . SVG Version: 6.00 Build 0)  -->
<svg version="1.1" id="Layer_1" xmlns="http://www.w3.org/2000/svg" xmlns:xlink="http://www.w3.org/1999/xlink" x="0px" y="0px"
	 viewBox="0 0 32 32" style="enable-background:new 0 0 32 32;" xml:space="preserve">
<path id="kochi-houseboat_00000000913937445969915890000000015249866250605981_" d="M29,30.36h-5c-0.738,0-1.436-0.293-2-0.833
	c-1.129,1.08-2.871,1.08-4,0c-1.129,1.08-2.872,1.08-4,0c-1.128,1.08-2.872,1.079-4,0.001c-0.564,0.539-1.261,0.832-2,0.832H3v-0.72
	h5c0.646,0,1.258-0.309,1.723-0.869c0.136-0.166,0.418-0.166,0.555,0c0.929,1.121,2.517,1.121,3.445,0
	c0.137-0.166,0.418-0.166,0.555,0c0.929,1.121,2.516,1.121,3.445,0c0.137-0.166,0.418-0.166,0.555,0c0.93,1.121,2.516,1.121,3.445,0
	c0.137-0.166,0.418-0.166,0.555,0c0.465,0.561,1.076,0.869,1.723,0.869h5L29,30.36L29,30.36z M31,27.36h-7
	c-0.738,0-1.436-0.293-2-0.833c-1.129,1.08-2.871,1.08-4,0c-1.129,1.08-2.872,1.08-4,0c-1.128,1.08-2.872,1.079-4,0.001
	c-0.564,0.539-1.261,0.832-2,0.832H1v-0.72h2.073c-0.61-0.542-1.084-1.391-1.418-2.539c-0.287-0.986-0.976-3.895-1.004-4.018
	c-0.025-0.107,0-0.22,0.068-0.307C0.786,19.69,0.89,19.64,1,19.64h4c0.199,0,0.36,0.161,0.36,0.36v0.64h2.28v-2.555L6.777,16.36H6
	c-0.125,0-0.241-0.064-0.306-0.17c-0.066-0.106-0.072-0.239-0.016-0.351l1-2C6.739,13.717,6.864,13.64,7,13.64h0.777l0.901-1.801
	C8.739,11.717,8.864,11.64,9,11.64h14c0.137,0,0.261,0.077,0.322,0.199l0.9,1.801H25c0.137,0,0.261,0.077,0.322,0.199l1,2
	c0.056,0.112,0.05,0.244-0.016,0.351c-0.066,0.106-0.182,0.17-0.307,0.17h-0.777l-0.862,1.725v2.555h2.279V20
	c0-0.199,0.161-0.36,0.36-0.36h4c0.11,0,0.214,0.051,0.282,0.137c0.068,0.087,0.094,0.199,0.068,0.307
	c-0.029,0.123-0.718,3.031-1.005,4.018c-0.335,1.148-0.81,1.997-1.419,2.539H31V27.36z M22,25.64c0.107,0,0.209,0.048,0.277,0.131
	c0.465,0.561,1.076,0.869,1.723,0.869h3c1.663,0,2.312-1.563,2.654-2.74c0.216-0.742,0.681-2.666,0.89-3.539H27.36V21
	c0,0.199-0.161,0.36-0.36,0.36H5c-0.199,0-0.36-0.161-0.36-0.36v-0.64H1.456c0.208,0.873,0.673,2.797,0.89,3.539
	c0.342,1.177,0.99,2.74,2.654,2.74h3c0.646,0,1.258-0.309,1.723-0.869c0.136-0.165,0.418-0.166,0.555,0
	c0.929,1.121,2.517,1.121,3.445,0c0.137-0.166,0.418-0.166,0.555,0c0.929,1.121,2.516,1.121,3.445,0
	c0.137-0.166,0.418-0.166,0.555,0c0.93,1.121,2.516,1.121,3.445,0C21.791,25.688,21.893,25.64,22,25.64z M22.36,20.64h1.279V18
	c0-0.056,0.014-0.111,0.038-0.161l0.74-1.479H7.583l0.739,1.479C8.347,17.889,8.36,17.944,8.36,18v2.64h1.28V19
	c0-0.75,0.61-1.36,1.36-1.36s1.36,0.61,1.36,1.36v1.64h1.28V19.5c0-1.252,0.996-2.278,2.243-2.339
	C15.92,17.147,15.959,17.14,16,17.14c1.302,0,2.36,1.059,2.36,2.36v1.14h1.279V19c0-0.75,0.61-1.36,1.36-1.36s1.36,0.61,1.36,1.36
	L22.36,20.64L22.36,20.64z M20.36,20.64h1.279V19c0-0.353-0.287-0.64-0.64-0.64s-0.64,0.287-0.64,0.64L20.36,20.64L20.36,20.64z
	 M14.36,20.64h3.28V19.5c0-0.871-0.682-1.585-1.54-1.637c-0.032,0.01-0.065,0.016-0.1,0.016c-0.904,0-1.64,0.727-1.64,1.621
	C14.36,19.5,14.36,20.64,14.36,20.64z M10.36,20.64h1.28V19c0-0.353-0.287-0.64-0.64-0.64s-0.64,0.287-0.64,0.64
	C10.36,19,10.36,20.64,10.36,20.64z M6.583,15.64h18.835l-0.641-1.28H7.223L6.583,15.64z M8.583,13.64h14.835l-0.641-1.28H9.223
	L8.583,13.64z M24,25.36c-0.75,0-1.36-0.61-1.36-1.36s0.61-1.36,1.36-1.36s1.36,0.61,1.36,1.36S24.75,25.36,24,25.36z M24,23.36
	c-0.353,0-0.64,0.287-0.64,0.64s0.287,0.64,0.64,0.64s0.64-0.287,0.64-0.64S24.353,23.36,24,23.36z M16,25.36
	c-0.75,0-1.36-0.61-1.36-1.36s0.61-1.36,1.36-1.36s1.36,0.61,1.36,1.36S16.75,25.36,16,25.36z M16,23.36
	c-0.353,0-0.64,0.287-0.64,0.64s0.287,0.64,0.64,0.64s0.64-0.287,0.64-0.64S16.353,23.36,16,23.36z M8,25.36
	c-0.75,0-1.36-0.61-1.36-1.36S7.25,22.64,8,22.64S9.36,23.25,9.36,24S8.75,25.36,8,25.36z M8,23.36c-0.353,0-0.64,0.287-0.64,0.64
	S7.647,24.64,8,24.64c0.353,0,0.64-0.287,0.64-0.64S8.353,23.36,8,23.36z M28.64,18.009c-0.002-0.09-0.245-8.826-2.759-11.617
	c-0.449,0.134-1.608,0.668-1.521,2.592l-0.719,0.032c-0.082-1.8,0.758-2.655,1.447-3.052c-0.335-0.097-0.76-0.16-1.191-0.071
	c-0.64,0.13-1.172,0.562-1.584,1.285l-0.625-0.356c0.941-1.654,2.38-1.9,3.564-1.564c-0.353-0.401-1.019-0.822-2.273-0.898
	l0.043-0.719c1.288,0.078,2.081,0.479,2.567,0.927c0.039-0.142,0.093-0.287,0.166-0.432c0.362-0.713,1.088-1.212,2.156-1.484
	l0.178,0.698c-0.854,0.217-1.423,0.589-1.688,1.105C26.286,4.68,26.24,4.91,26.23,5.118c0.342-0.352,0.843-0.739,1.494-0.906
	c0.791-0.203,1.622-0.041,2.466,0.483l-0.379,0.612c-0.67-0.416-1.312-0.549-1.903-0.399c-0.393,0.1-0.721,0.312-0.975,0.535
	c0.729,0.01,1.618,0.324,2.359,1.346l-0.584,0.423c-0.738-1.02-1.564-1.107-2.069-1.033c2.482,3.219,2.712,11.448,2.722,11.813
	L28.64,18.009z M6,8.36C4.699,8.36,3.64,7.301,3.64,6S4.699,3.64,6,3.64S8.36,4.699,8.36,6S7.301,8.36,6,8.36z M6,4.36
	C5.096,4.36,4.36,5.096,4.36,6S5.096,7.64,6,7.64S7.64,6.904,7.64,6S6.904,4.36,6,4.36z M6.36,11v-1c0-0.199-0.161-0.36-0.36-0.36
	S5.64,9.801,5.64,10v1c0,0.199,0.161,0.36,0.36,0.36S6.36,11.199,6.36,11z M6.36,2V1c0-0.199-0.161-0.36-0.36-0.36
	S5.64,0.801,5.64,1v1c0,0.199,0.161,0.36,0.36,0.36S6.36,2.199,6.36,2z M9.79,9.79c0.141-0.141,0.141-0.368,0-0.509L9.083,8.574
	c-0.141-0.141-0.368-0.141-0.509,0s-0.141,0.368,0,0.509L9.281,9.79c0.07,0.07,0.162,0.105,0.254,0.105S9.72,9.86,9.79,9.79z
	 M3.426,3.426c0.141-0.141,0.141-0.368,0-0.509L2.719,2.21c-0.141-0.141-0.368-0.141-0.509,0s-0.141,0.368,0,0.509l0.707,0.707
	c0.07,0.07,0.162,0.105,0.254,0.105S3.355,3.496,3.426,3.426z M11.36,6c0-0.199-0.161-0.36-0.36-0.36h-1
	C9.801,5.64,9.64,5.801,9.64,6S9.801,6.36,10,6.36h1C11.199,6.36,11.36,6.199,11.36,6z M2.36,6c0-0.199-0.161-0.36-0.36-0.36H1
	C0.801,5.64,0.64,5.801,0.64,6S0.801,6.36,1,6.36h1C2.199,6.36,2.36,6.199,2.36,6z M9.083,3.426L9.79,2.719
	c0.141-0.141,0.141-0.368,0-0.509s-0.368-0.141-0.509,0L8.574,2.917c-0.141,0.141-0.141,0.368,0,0.509
	c0.07,0.07,0.162,0.105,0.254,0.105S9.013,3.496,9.083,3.426z M2.719,9.79l0.707-0.707c0.141-0.141,0.141-0.368,0-0.509
	s-0.368-0.141-0.509,0L2.21,9.281c-0.141,0.141-0.141,0.368,0,0.509c0.07,0.07,0.162,0.105,0.254,0.105S2.648,9.86,2.719,9.79z"/>
<rect id="_Transparent_Rectangle" style="fill:none;" width="32" height="32"/>
</svg>
