<?xml version="1.0" encoding="iso-8859-1"?>
<!-- Generator: Adobe Illustrator 22.0.0, SVG Export Plug-In . SVG Version: 6.00 Build 0)  -->
<svg version="1.1" xmlns="http://www.w3.org/2000/svg" xmlns:xlink="http://www.w3.org/1999/xlink" x="0px" y="0px"
	 viewBox="0 0 48 48" style="enable-background:new 0 0 48 48;" xml:space="preserve">
<g id="language_03">
	<g id="language_03_1_">
		
			<polyline style="fill:none;stroke:#000000;stroke-width:0.72;stroke-linecap:square;stroke-linejoin:round;stroke-miterlimit:10;" points="
			36,20 36,23 33.5,23 		"/>
		<path style="fill:none;stroke:#000000;stroke-width:0.72;stroke-linecap:square;stroke-linejoin:round;stroke-miterlimit:10;" d="
			M33,20v3.25c0,1.795,1.343,2.75,3,2.75s3-0.955,3-2.75V20"/>
		<path style="fill:none;stroke:#000000;stroke-width:0.72;stroke-linejoin:bevel;stroke-miterlimit:10;" d="M34.5,12.5
			c0,0-2.533,0-3.033,0c-1,0-2-0.155-2-1.5c0-1,0.622-2,1.622-2s1.878,0.5,1.878,3c0,2.698-1.467,3-2.967,3l0,0c-1.5,0-3-0.5-3-2.5
			V11"/>
		<path style="fill:none;stroke:#000000;stroke-width:0.72;stroke-linejoin:round;stroke-miterlimit:10;" d="M34,39
			c0-4.625-3.145-8.505-7.409-9.648c1.731-0.926,2.91-2.751,2.91-4.852C29.501,21.463,27.038,19,24,19s-5.501,2.463-5.501,5.501
			c0,2.101,1.179,3.925,2.91,4.852C17.156,30.425,14,34.375,14,39"/>
		
			<line style="fill:none;stroke:#000000;stroke-width:0.72;stroke-linecap:square;stroke-linejoin:round;stroke-miterlimit:10;" x1="9" y1="21" x2="15" y2="21"/>
		
			<line style="fill:none;stroke:#000000;stroke-width:0.72;stroke-linejoin:round;stroke-miterlimit:10;" x1="12" y1="19.5" x2="12" y2="21"/>
		<g>
			<path style="fill:none;stroke:#000000;stroke-width:0.72;stroke-linejoin:round;stroke-miterlimit:10;" d="M9,26
				c4.709,0,4.498-4,4.498-5"/>
			<path style="fill:none;stroke:#000000;stroke-width:0.72;stroke-linejoin:round;stroke-miterlimit:10;" d="M10.534,23
				c0.348,1.219,1.826,3,4.466,3"/>
		</g>
		
			<line style="fill:none;stroke:#000000;stroke-width:0.72;stroke-linejoin:round;stroke-miterlimit:10;" x1="15" y1="9" x2="22.5" y2="9"/>
		
			<line style="fill:none;stroke:#000000;stroke-width:0.72;stroke-linecap:square;stroke-linejoin:round;stroke-miterlimit:10;" x1="20" y1="9" x2="20" y2="15"/>
		<path style="fill:none;stroke:#000000;stroke-width:0.72;stroke-linejoin:round;stroke-miterlimit:10;" d="M17.5,11.5"/>
		<path style="fill:none;stroke:#000000;stroke-width:0.72;stroke-linejoin:round;stroke-miterlimit:10;" d="M20,11.5h-2
			c-1.139,0-2,0.5-2,1.5c0,0.94,0.731,1.683,1.5,2"/>
	</g>
</g>
<g id="Layer_1">
</g>
</svg>
