<?xml version="1.0" encoding="iso-8859-1"?>
<!-- Generator: Adobe Illustrator 24.1.2, SVG Export Plug-In . SVG Version: 6.00 Build 0)  -->
<svg version="1.1" id="Layer_1" xmlns="http://www.w3.org/2000/svg" xmlns:xlink="http://www.w3.org/1999/xlink" x="0px" y="0px"
	 viewBox="0 0 32 32" style="enable-background:new 0 0 32 32;" xml:space="preserve">
<path id="language--03_1_" d="M21,7.36c-2.167,0-3.36-1.016-3.36-2.86V3h0.721v1.5c0,1.44,0.863,2.14,2.64,2.14
	c1.19,0,2.275-0.152,2.544-1.78h-1.077c-0.646,0-2.36,0-2.36-1.86c0-1.16,0.742-2.36,1.982-2.36c1.526,0,2.238,1.067,2.238,3.36
	c0,0.047-0.001,0.094-0.002,0.14H25.5v0.72h-1.229C23.97,7.041,22.47,7.36,21,7.36z M22.089,1.36c-0.79,0-1.262,0.834-1.262,1.64
	c0,0.853,0.413,1.14,1.64,1.14h1.139c0.001-0.046,0.001-0.093,0.001-0.14C23.606,1.36,22.582,1.36,22.089,1.36z M19.446,21.24
	c1.507-1.094,2.415-2.847,2.415-4.739c0-3.232-2.63-5.861-5.861-5.861s-5.86,2.629-5.86,5.861c0,1.889,0.904,3.637,2.404,4.732
	C8.441,22.626,5.64,26.532,5.64,31h0.72c0-4.414,2.935-8.238,7.137-9.299c0.145-0.036,0.251-0.157,0.27-0.305
	s-0.057-0.291-0.188-0.361c-1.678-0.898-2.72-2.636-2.72-4.534c0-2.835,2.306-5.141,5.141-5.141s5.141,2.306,5.141,5.141
	c0,1.898-1.042,3.636-2.72,4.534c-0.13,0.069-0.205,0.212-0.188,0.358c0.017,0.147,0.121,0.269,0.265,0.307
	c4.205,1.127,7.142,4.951,7.142,9.3h0.721C26.36,26.593,23.555,22.688,19.446,21.24z M13.004,2.36V1.64h-2.64V0.5h-0.72v1.14h-2.64
	v0.72h4.139c-0.003,0.798-0.084,2.257-1.059,3.238c-0.005,0.005-0.012,0.008-0.017,0.013c-0.635-0.535-1.031-1.183-1.182-1.71
	L8.192,4.099c0.172,0.603,0.614,1.335,1.304,1.957C8.853,6.444,8.018,6.64,7.004,6.64v0.72c1.27,0,2.295-0.296,3.083-0.853
	c0.756,0.498,1.718,0.853,2.917,0.853V6.64c-0.945,0-1.724-0.247-2.347-0.61c1.11-1.181,1.203-2.795,1.205-3.67
	C11.862,2.36,13.004,2.36,13.004,2.36z M30.64,11.64v3.61c0,1.764-1.422,2.39-2.64,2.39c-1.19,0-2.566-0.606-2.628-2.28H28
	c0.199,0,0.36-0.161,0.36-0.36v-3.36h-0.72v3h-2.28v-3h-0.72v3.61c0,1.86,1.351,3.11,3.36,3.11s3.36-1.25,3.36-3.11v-3.61
	C31.36,11.64,30.64,11.64,30.64,11.64z M6.494,17.64H2.236l1.883-2.42c0.101-0.13,0.101-0.312,0-0.442L2.237,12.36h4.257v-0.72H1.5
	c-0.138,0-0.263,0.078-0.323,0.202c-0.061,0.124-0.045,0.271,0.039,0.379l2.164,2.777l-2.164,2.781
	c-0.084,0.108-0.1,0.255-0.039,0.379c0.06,0.123,0.186,0.202,0.323,0.202h4.994V17.64z"/>
<rect id="_Transparent_Rectangle" style="fill:none;" width="32" height="32"/>
</svg>
