<svg xmlns="http://www.w3.org/2000/svg" viewBox="0 0 48 48"><path fill="none" stroke-linejoin="bevel" stroke-miterlimit="10" stroke-width=".72" d="M33.5,12.5 c0,0-2.533,0-3.033,0c-1,0-2-0.155-2-1.5c0-1,0.622-2,1.622-2s1.878,0.5,1.878,3c0,2.698-1.467,3-2.967,3l0,0c-1.5,0-3-0.5-3-2.5 V11"/><path fill="none" stroke-linejoin="round" stroke-miterlimit="10" stroke-width=".72" d="M34,39c0-4.625-3.145-8.505-7.409-9.648c1.731-0.926,2.91-2.751,2.91-4.852C29.501,21.463,27.038,19,24,19 s-5.501,2.463-5.501,5.501c0,2.101,1.179,3.925,2.91,4.852C17.156,30.426,14,34.375,14,39 M15.004,10h6 M18.004,8.5V10 M15.004,15 c4.709,0,4.498-4,4.498-5 M16.539,12c0.348,1.219,1.826,3,4.466,3"/><polyline fill="none" stroke-linecap="square" stroke-linejoin="round" stroke-miterlimit="10" stroke-width=".72" points="36,20 36,23 33.5,23"/><path fill="none" stroke-linecap="square" stroke-linejoin="round" stroke-miterlimit="10" stroke-width=".72" d="M33,20v3.25c0,1.795,1.343,2.75,3,2.75s3-0.955,3-2.75V20"/><polyline fill="none" stroke-linejoin="round" stroke-miterlimit="10" stroke-width=".72" points="14.494,20 9.5,20 11.835,22.998 9.5,26 14.494,26"/></svg>