<?xml version="1.0" encoding="iso-8859-1"?>
<!-- Generator: Adobe Illustrator 24.1.2, SVG Export Plug-In . SVG Version: 6.00 Build 0)  -->
<svg version="1.1" id="Layer_1" xmlns="http://www.w3.org/2000/svg" xmlns:xlink="http://www.w3.org/1999/xlink" x="0px" y="0px"
	 viewBox="0 0 32 32" style="enable-background:new 0 0 32 32;" xml:space="preserve">
<path id="language--01_1_" d="M30.735,12.265c-0.403-0.403-0.939-0.625-1.51-0.625c-0.002,0-0.004,0-0.005,0
	c-0.568,0.001-1.102,0.224-1.502,0.625l-0.211,0.21l-0.209-0.209c-0.412-0.412-0.95-0.654-1.541-0.625
	c-0.559,0.008-1.082,0.23-1.476,0.625c-0.397,0.397-0.626,0.954-0.626,1.528c0,0.558,0.223,1.087,0.625,1.489l2.972,2.973
	c0.067,0.067,0.159,0.105,0.255,0.105s0.188-0.038,0.255-0.105l2.972-2.973c0.403-0.403,0.626-0.933,0.626-1.494
	C31.36,13.217,31.132,12.662,30.735,12.265z M30.226,14.773l-2.718,2.718l-2.717-2.718c0,0,0,0-0.001,0
	c-0.267-0.267-0.413-0.614-0.413-0.98c0-0.384,0.15-0.755,0.414-1.019c0.261-0.262,0.607-0.409,0.977-0.414c0.008,0,0.015,0,0.022,0
	c0.377,0,0.731,0.146,0.999,0.414l0.464,0.464c0.141,0.141,0.368,0.14,0.509,0l0.466-0.464c0.266-0.266,0.619-0.413,0.995-0.415
	c0.001,0,0.002,0,0.003,0c0.378,0,0.733,0.147,1.001,0.415c0.263,0.263,0.413,0.632,0.413,1.014
	C30.64,14.157,30.493,14.506,30.226,14.773z M5.994,18.36H1c-0.138,0-0.263-0.079-0.323-0.202c-0.061-0.124-0.045-0.271,0.039-0.379
	l2.164-2.781l-2.164-2.777c-0.084-0.108-0.1-0.256-0.039-0.379C0.737,11.718,0.862,11.64,1,11.64h4.994
	c0.199,0,0.36,0.161,0.36,0.36v1.5h-0.72v-1.14H1.737l1.883,2.417c0.101,0.13,0.101,0.312,0,0.442l-1.883,2.42h3.898V16.5h0.72V18
	C6.354,18.199,6.193,18.36,5.994,18.36z M21.085,4.36h-1.581V3.64h1.079c-0.061-0.159-0.108-0.339-0.108-0.571
	c0-1.43,1.04-2.429,2.528-2.429c1.073,0,1.997,0.84,2.255,1.098l-0.51,0.509c-0.408-0.409-1.11-0.887-1.744-0.887
	c-0.834,0-1.808,0.448-1.808,1.709c0,0.272,0.079,0.42,0.206,0.571h3.102v0.72h-2.561c0.078,0.173,0.136,0.374,0.136,0.64
	c0,0.716-0.356,1.221-0.87,1.64h3.795v0.72h-5c-0.163,0-0.306-0.11-0.348-0.268s0.027-0.324,0.169-0.405
	C20.82,6.12,21.358,5.683,21.358,5C21.358,4.688,21.25,4.538,21.085,4.36z M26.36,31h-0.72c0-4.349-2.937-8.173-7.142-9.3
	c-0.144-0.038-0.248-0.159-0.265-0.307c-0.018-0.146,0.058-0.289,0.188-0.358c1.678-0.898,2.72-2.636,2.72-4.535
	c0-2.834-2.306-5.141-5.141-5.141c-2.834,0-5.141,2.306-5.141,5.141c0,1.899,1.042,3.637,2.72,4.535
	c0.131,0.07,0.206,0.214,0.188,0.361s-0.125,0.269-0.27,0.305C9.295,22.762,6.36,26.586,6.36,31H5.64
	c0-4.468,2.801-8.373,6.904-9.767c-1.5-1.096-2.404-2.844-2.404-4.733c0-3.231,2.629-5.86,5.86-5.86s5.861,2.629,5.861,5.86
	c0,1.893-0.908,3.646-2.415,4.74C23.555,22.688,26.36,26.593,26.36,31z M10.087,6.507C9.299,7.064,8.274,7.36,7.004,7.36V6.64
	c1.014,0,1.849-0.197,2.493-0.584c-0.69-0.621-1.132-1.354-1.304-1.957l0.692-0.198c0.151,0.528,0.547,1.175,1.182,1.71
	c0.005-0.005,0.012-0.008,0.017-0.013c0.975-0.982,1.056-2.44,1.059-3.238H7.004V1.64h2.64V0.5h0.72v1.14h2.64v0.72h-1.141
	c-0.003,0.875-0.095,2.489-1.205,3.67c0.623,0.363,1.401,0.61,2.347,0.61v0.72C11.805,7.36,10.843,7.005,10.087,6.507z"/>
<rect id="_Transparent_Rectangle" style="fill:none;" width="32" height="32"/>
</svg>
