<?xml version="1.0" encoding="iso-8859-1"?>
<!-- Generator: Adobe Illustrator 30.4.0, SVG Export Plug-In . SVG Version: 9.03 Build 0)  -->
<svg version="1.1" id="Layer_1" xmlns="http://www.w3.org/2000/svg" xmlns:xlink="http://www.w3.org/1999/xlink" x="0px" y="0px"
	 viewBox="0 0 32 32" style="enable-background:new 0 0 32 32;" xml:space="preserve">
<path id="laptop" d="M31,26.36H1V25.64h30V26.36z M26,24.36H6c-1.301,0-2.36-1.059-2.36-2.36V8c0-1.301,1.059-2.36,2.36-2.36h20
	c1.302,0,2.36,1.059,2.36,2.36v14C28.36,23.302,27.302,24.36,26,24.36z M6,6.36C5.096,6.36,4.36,7.096,4.36,8v14
	c0,0.904,0.736,1.64,1.64,1.64h20c0.904,0,1.64-0.735,1.64-1.64V8c0-0.904-0.735-1.64-1.64-1.64H6z"/>
<rect id="Transparent_Rectangle" style="fill:none;" width="32" height="32"/>
</svg>
