<?xml version="1.0" encoding="iso-8859-1"?>
<!-- Generator: Adobe Illustrator 29.1.0, SVG Export Plug-In . SVG Version: 9.03 Build 55587)  -->
<svg version="1.1" id="Layer_1" xmlns="http://www.w3.org/2000/svg" xmlns:xlink="http://www.w3.org/1999/xlink" x="0px" y="0px"
	 viewBox="0 0 32 32" style="enable-background:new 0 0 32 32;" xml:space="preserve">
<path id="linuxone-5_00000081609295863584269430000015632208434935122849_" d="M31.521,26.508l-0.947-1.773
	c-0.145-0.269-0.438-0.431-0.734-0.399l-0.047,0.004c-0.278-1.485-1.014-3.075-1.493-3.789c-0.535-0.799-0.938-2.098-0.938-2.55v-2
	V5.167c0-1.393-1.134-2.526-2.527-2.526H3.167c-1.393,0-2.526,1.133-2.526,2.526v21.667c0,1.394,1.133,2.527,2.526,2.527H17.98
	l0.393,0.557c0.2,0.285,0.524,0.442,0.855,0.442c0.164,0,0.331-0.039,0.484-0.12l1.651-0.867c0.084-0.044,0.151-0.106,0.217-0.168
	c0.748,0.423,1.576,0.656,2.421,0.656c0.951,0,1.762-0.225,2.432-0.646c0.063,0.057,0.125,0.116,0.204,0.158l1.65,0.867
	c0.154,0.081,0.321,0.12,0.485,0.12c0.331,0,0.654-0.156,0.854-0.441l1.845-2.612C31.638,27.068,31.656,26.763,31.521,26.508z
	 M27.701,20.95c0.424,0.632,1.102,2.096,1.37,3.446l-1.351,0.108c-0.002,0-0.004,0.001-0.006,0.001
	c-0.204-0.985-0.623-2.15-1.231-3.358c-0.25-0.497-0.419-0.921-0.522-1.21c0.372-0.265,0.692-0.549,0.902-0.818
	C27.056,19.738,27.354,20.433,27.701,20.95z M20.285,24.506c-0.002,0-0.004-0.001-0.007-0.002l-1.35-0.108
	c0.268-1.35,0.947-2.814,1.37-3.446c0.347-0.517,0.645-1.212,0.837-1.83c0.209,0.269,0.529,0.554,0.902,0.818
	c-0.103,0.289-0.272,0.713-0.522,1.21C20.908,22.357,20.489,23.522,20.285,24.506z M21.715,18.76c0.729-0.4,1.802-0.9,2.285-0.9
	c0.467,0,1.531,0.493,2.267,0.891c-0.44,0.488-1.799,1.389-2.267,1.389C23.529,20.14,22.123,19.209,21.715,18.76z M26.651,18.142
	c-0.298-0.163-0.78-0.413-1.29-0.628V16H24.64v1.257c-0.235-0.068-0.458-0.117-0.64-0.117c-0.184,0-0.406,0.048-0.64,0.115V16h-0.72
	v1.509c-0.511,0.214-0.992,0.466-1.29,0.631c0.004-0.047,0.011-0.099,0.011-0.14v-2c0-1.406,1.233-2.64,2.64-2.64
	s2.64,1.234,2.64,2.64v2C26.64,18.041,26.647,18.094,26.651,18.142z M26.64,5.167v8.828c-0.626-0.807-1.59-1.355-2.64-1.355
	c-1.668,0-3.127,1.366-3.322,3H14.36V3.36h10.473C25.829,3.36,26.64,4.17,26.64,5.167z M1.878,15.64L13.64,3.886V15.64H1.878z
	 M13.64,16.36v11.771L1.861,16.36H13.64z M3.167,3.36h9.982L1.36,15.14V5.167C1.36,4.17,2.17,3.36,3.167,3.36z M1.36,26.833v-9.956
	L13.13,28.64H3.167C2.17,28.64,1.36,27.829,1.36,26.833z M14.36,28.64V16.36h6.28V18c0,0.452-0.403,1.751-0.938,2.55
	c-0.479,0.714-1.215,2.304-1.493,3.789l-0.047-0.004c-0.305-0.033-0.591,0.131-0.734,0.399l-0.947,1.773
	c-0.137,0.256-0.118,0.562,0.05,0.799l0.941,1.333L14.36,28.64L14.36,28.64z M21.029,28.735l-1.652,0.867
	c-0.145,0.077-0.322,0.032-0.416-0.101l-1.846-2.654l0.946-1.773l0.041-0.022l2.155,0.2l0.931,3.104
	C21.233,28.503,21.166,28.663,21.029,28.735z M24,29.14c-0.729,0-1.445-0.204-2.093-0.574c0.016-0.138,0.013-0.278-0.029-0.418
	l-0.931-3.102c-0.006-0.02-0.019-0.036-0.026-0.056c0.151-0.968,0.595-2.239,1.237-3.518c0.226-0.448,0.385-0.834,0.498-1.134
	c0.535,0.307,1.056,0.522,1.344,0.522s0.809-0.214,1.344-0.522c0.113,0.3,0.272,0.686,0.498,1.134
	c0.642,1.278,1.086,2.549,1.237,3.517c-0.007,0.019-0.02,0.035-0.026,0.055l-0.931,3.102c-0.044,0.145-0.045,0.29-0.026,0.433
	C25.533,28.945,24.834,29.14,24,29.14z M29.038,29.503c-0.093,0.133-0.271,0.176-0.416,0.1l-1.651-0.867
	c-0.137-0.072-0.204-0.232-0.159-0.381l0.967-3.133l2.119-0.17c0.001,0,0.04,0.022,0.041,0.022l0.944,1.816L29.038,29.503z"/>
<rect id="_Transparent_Rectangle" style="fill:none;" width="32" height="32"/>
</svg>
