<?xml version="1.0" encoding="iso-8859-1"?>
<!-- Generator: Adobe Illustrator 29.1.0, SVG Export Plug-In . SVG Version: 9.03 Build 55587)  -->
<svg version="1.1" id="Layer_1" xmlns="http://www.w3.org/2000/svg" xmlns:xlink="http://www.w3.org/1999/xlink" x="0px" y="0px"
	 viewBox="0 0 32 32" style="enable-background:new 0 0 32 32;" xml:space="preserve">
<path id="linux_00000182493290131216355120000006183693801286070463_" d="M8.119,30.352c-0.472,0-0.934-0.224-1.221-0.631
	L3.834,25.38c-0.224-0.316-0.249-0.726-0.066-1.068l1.573-2.948l0,0c0.192-0.359,0.583-0.571,0.982-0.537l0.312,0.025
	c0.448-2.436,1.682-5.072,2.452-6.22c0.905-1.351,1.561-3.555,1.561-4.381V7c0-2.852,2.501-5.353,5.353-5.353S21.353,4.148,21.353,7
	v3.25c0,0.827,0.655,3.03,1.562,4.381c0.771,1.148,2.003,3.786,2.451,6.22l0.312-0.025c0.394-0.021,0.79,0.177,0.982,0.537
	l1.573,2.948c0.183,0.342,0.157,0.752-0.066,1.068l-3.063,4.341c-0.431,0.609-1.252,0.806-1.912,0.461l-2.745-1.442
	c-0.199-0.104-0.366-0.249-0.495-0.42c-1.077,0.686-2.403,1.033-3.949,1.033c-1.369,0-2.72-0.364-3.935-1.057
	c-0.131,0.181-0.304,0.334-0.512,0.443L8.81,30.182C8.59,30.296,8.354,30.352,8.119,30.352z M5.963,21.695L4.39,24.644
	c-0.056,0.105-0.048,0.232,0.021,0.33l3.064,4.341c0.226,0.32,0.661,0.424,1.007,0.242l2.746-1.442
	c0.332-0.174,0.495-0.562,0.387-0.921l-1.547-5.156c-0.037-0.124-0.148-0.214-0.277-0.225L6.268,21.53
	C6.148,21.52,6.022,21.585,5.963,21.695z M25.759,21.528c-0.008,0-0.017,0-0.025,0.001l0,0l-3.523,0.283
	c-0.13,0.011-0.239,0.099-0.276,0.225l-1.548,5.156c-0.107,0.359,0.056,0.747,0.388,0.921l2.745,1.442
	c0.35,0.185,0.782,0.078,1.008-0.242l3.063-4.341c0.069-0.098,0.076-0.224,0.021-0.33l-1.574-2.948
	C25.981,21.592,25.874,21.528,25.759,21.528z M12.336,27.637c1.128,0.662,2.389,1.011,3.664,1.011c1.456,0,2.688-0.332,3.668-0.986
	c-0.036-0.219-0.024-0.447,0.042-0.67l1.548-5.157c0.018-0.057,0.038-0.11,0.064-0.162c-0.276-1.626-1.005-3.664-2.059-5.758
	c-0.499-0.994-0.812-1.817-0.979-2.312c-0.896,0.576-1.798,1.001-2.284,1.001c-0.505,0-1.403-0.416-2.29-0.982
	c-0.172,0.5-0.484,1.318-0.975,2.293c-1.052,2.093-1.78,4.131-2.058,5.757c0.026,0.052,0.048,0.106,0.065,0.163l1.547,5.156
	C12.354,27.205,12.368,27.426,12.336,27.637z M18.89,13.188c0.142,0.439,0.454,1.314,1.005,2.409
	c0.999,1.986,1.715,3.933,2.047,5.552c0.067-0.021,0.139-0.034,0.212-0.04l2.505-0.201c-0.438-2.312-1.602-4.797-2.33-5.884
	c-0.69-1.029-1.28-2.591-1.54-3.749C20.563,11.809,19.78,12.544,18.89,13.188z M7.341,20.908l2.505,0.201
	c0.073,0.006,0.144,0.02,0.212,0.04c0.332-1.619,1.048-3.566,2.047-5.552c0.54-1.074,0.854-1.945,0.999-2.388
	c-0.891-0.644-1.671-1.384-1.894-1.928c-0.26,1.157-0.849,2.716-1.538,3.743C8.944,16.11,7.78,18.595,7.341,20.908z M11.919,11.171
	c0.461,0.778,3.161,2.727,4.081,2.727c0.991,0,3.58-1.977,4.069-2.731c-1.004-0.54-3.106-1.563-4.069-1.563
	C15.008,9.603,12.909,10.633,11.919,11.171z M17.853,9.355c1.349,0.516,2.733,1.289,2.82,1.337c0.003,0.002,0.006,0.004,0.009,0.005
	c-0.022-0.167-0.034-0.318-0.034-0.448V7c0-2.432-2.215-4.647-4.647-4.647S11.354,4.568,11.354,7v3.25
	c0,0.13-0.012,0.28-0.035,0.448c0.003-0.001,0.005-0.003,0.008-0.004c0.086-0.049,1.467-0.828,2.821-1.344V7h0.705v2.107
	c0.846-0.254,1.432-0.258,2.295,0.004V7h0.705C17.853,7,17.853,9.355,17.853,9.355z"/>
<rect id="_Transparent_Rectangle" style="fill:none;" width="32" height="32"/>
</svg>
