<?xml version="1.0" encoding="iso-8859-1"?>
<!-- Generator: Adobe Illustrator 22.0.0, SVG Export Plug-In . SVG Version: 6.00 Build 0)  -->
<svg version="1.1" xmlns="http://www.w3.org/2000/svg" xmlns:xlink="http://www.w3.org/1999/xlink" x="0px" y="0px"
	 viewBox="0 0 48 48" style="enable-background:new 0 0 48 48;" xml:space="preserve">
<g id="list_bullet">
	<path id="list_bullet_1_" style="fill:none;stroke:#000000;stroke-width:0.72;stroke-linejoin:round;stroke-miterlimit:10;" d="
		M15,12c0,1.657-1.343,3-3,3s-3-1.343-3-3s1.343-3,3-3S15,10.343,15,12z M12,33c-1.657,0-3,1.343-3,3s1.343,3,3,3s3-1.343,3-3
		S13.657,33,12,33z M12,21c-1.657,0-3,1.343-3,3s1.343,3,3,3s3-1.343,3-3S13.657,21,12,21z M19,12h20 M19,24h20 M19,36h20"/>
</g>
<g id="Layer_1">
</g>
</svg>
