<svg xmlns="http://www.w3.org/2000/svg" viewBox="0 0 48 48"><path fill="none" stroke-linejoin="round" stroke-miterlimit="10" stroke-width=".72" d="M29,20 c0,2.761-2.239,5-5,5s-5-2.239-5-5s2.239-5,5-5S29,17.239,29,20z M27,12c0-1.657-1.343-3-3-3s-3,1.343-3,3 M21,12v4 M27,12v4 M37,35v-4H11v4 M37,35c-1.105,0-2,0.895-2,2s0.895,2,2,2s2-0.895,2-2S38.105,35,37,35z M24,27v8"/><circle cx="24" cy="37" r="2" fill="none" stroke-linejoin="round" stroke-miterlimit="10" stroke-width=".72"/><circle cx="11" cy="37" r="2" fill="none" stroke-linejoin="round" stroke-miterlimit="10" stroke-width=".72"/><line x1="24" x2="24" y1="19" y2="21" fill="none" stroke-linecap="round" stroke-linejoin="round" stroke-miterlimit="10" stroke-width=".72"/><circle cx="24" cy="19" r="1"/></svg>