<?xml version="1.0" encoding="iso-8859-1"?>
<!-- Generator: Adobe Illustrator 24.3.0, SVG Export Plug-In . SVG Version: 6.00 Build 0)  -->
<svg version="1.1" id="Layer_1" xmlns="http://www.w3.org/2000/svg" xmlns:xlink="http://www.w3.org/1999/xlink" x="0px" y="0px"
	 viewBox="0 0 32 32" style="enable-background:new 0 0 32 32;" xml:space="preserve">
<path id="london--big-ben" d="M19.86,31h-0.72v-3.64h-6.28V31h-0.72v-7.64H12c-0.199,0-0.36-0.161-0.36-0.36v-8
	c0-0.199,0.161-0.36,0.36-0.36h0.14V12c0-0.096,0.038-0.187,0.105-0.254l1.895-1.895V7c0-0.043,0.008-0.086,0.023-0.126l1.477-3.939
	V1h0.72v1.935l1.477,3.939C17.853,6.914,17.86,6.957,17.86,7v2.851l1.895,1.895c0.067,0.067,0.105,0.159,0.105,0.254v2.64H20
	c0.199,0,0.36,0.161,0.36,0.36v8c0,0.199-0.161,0.36-0.36,0.36h-0.14V31z M18.36,26.64h0.779v-3.28h-6.28v3.279h0.78V24h0.72v2.64
	h1.28V24h0.72v2.64h1.28V24h0.721V26.64z M12.36,22.64h7.28v-7.28h-7.28C12.36,15.36,12.36,22.64,12.36,22.64z M18.36,14.64h0.779
	v-2.28h-6.28v2.28h0.78V13h0.72v1.64h1.28V13h0.72v1.64h1.28V13h0.721V14.64z M13.369,11.64h5.262l-1.28-1.28h-2.702L13.369,11.64z
	 M16.36,9.64h0.78V7.36h-2.28v2.28h0.78V8h0.72V9.64z M15.02,6.64h1.961L16,4.025L15.02,6.64z M18.36,31h-0.72v-3h0.721L18.36,31
	L18.36,31z M16.36,31h-0.72v-3h0.72V31z M14.36,31h-0.72v-3h0.72V31z M16,21.11c-1.439,0-2.61-1.171-2.61-2.61s1.171-2.61,2.61-2.61
	s2.61,1.17,2.61,2.61S17.439,21.11,16,21.11z M16,16.61c-1.042,0-1.89,0.848-1.89,1.89s0.848,1.89,1.89,1.89s1.89-0.848,1.89-1.89
	S17.042,16.61,16,16.61z M17.5,18.86H16c-0.096,0-0.187-0.038-0.255-0.106c-0.067-0.067-0.105-0.159-0.105-0.255l0.002-1.5
	L16.362,17l-0.002,1.14h1.14C17.5,18.14,17.5,18.86,17.5,18.86z M29.689,12.36h-4.601c-0.799,0-1.449-0.653-1.449-1.455
	c0-0.941,0.876-1.711,1.72-1.555c0.281-0.929,1.14-1.584,2.15-1.584c0.827,0,1.566,0.44,1.96,1.144
	c0.964-0.128,1.891,0.746,1.891,1.781C31.36,11.611,30.61,12.36,29.689,12.36z M25.089,10.044c-0.41,0-0.729,0.463-0.729,0.861
	c0,0.405,0.326,0.735,0.729,0.735h4.601c0.524,0,0.95-0.427,0.95-0.951c0-0.679-0.673-1.224-1.255-1.024
	c-0.181,0.064-0.382-0.031-0.451-0.21c-0.23-0.589-0.789-0.97-1.424-0.97c-0.792,0-1.446,0.592-1.521,1.377
	c-0.012,0.121-0.084,0.229-0.192,0.285s-0.239,0.053-0.344-0.006C25.34,10.077,25.217,10.044,25.089,10.044z M8.315,8.36H2.4
	c-0.97,0-1.76-0.793-1.76-1.768c0-0.92,0.723-1.946,1.76-1.946c0.142,0,0.283,0.017,0.42,0.051c0.32-1.199,1.406-2.056,2.693-2.056
	c1.05,0,1.986,0.571,2.464,1.48c1.184-0.207,2.383,0.886,2.383,2.193C10.36,7.442,9.442,8.36,8.315,8.36z M2.4,5.366
	c-0.585,0-1.04,0.659-1.04,1.226C1.36,7.17,1.827,7.64,2.4,7.64h5.915c0.73,0,1.325-0.595,1.325-1.325
	c0-0.709-0.567-1.502-1.325-1.502c-0.143,0-0.286,0.024-0.426,0.071c-0.182,0.064-0.38-0.031-0.451-0.21
	C7.127,3.876,6.372,3.361,5.513,3.361c-1.073,0-1.958,0.801-2.058,1.864C3.444,5.346,3.371,5.454,3.263,5.51
	C3.155,5.567,3.025,5.565,2.918,5.504C2.758,5.412,2.583,5.366,2.4,5.366z"/>
<rect id="_Transparent_Rectangle" style="fill:none;" width="32" height="32"/>
</svg>
