<svg xmlns="http://www.w3.org/2000/svg" viewBox="0 0 48 48"><circle cx="24" cy="24" r="11" fill="none" stroke-linecap="round" stroke-linejoin="round" stroke-miterlimit="10" stroke-width=".72"/><circle cx="24" cy="24" r="13" fill="none" stroke-linecap="round" stroke-linejoin="round" stroke-miterlimit="10" stroke-width=".72"/><circle cx="24" cy="9" r=".5"/><circle cx="24" cy="39" r=".5"/><circle cx="20.118" cy="9.511" r=".5"/><circle cx="16.5" cy="11.01" r=".5"/><circle cx="31.5" cy="36.99" r=".5"/><circle cx="13.393" cy="13.393" r=".5"/><circle cx="34.607" cy="34.607" r=".5"/><circle cx="11.01" cy="16.5" r=".5"/><circle cx="36.99" cy="31.5" r=".5"/><circle cx="9.511" cy="20.118" r=".5"/><circle cx="38.489" cy="27.882" r=".5"/><circle cx="9" cy="24" r=".5"/><circle cx="39" cy="24" r=".5"/><circle cx="9.511" cy="27.882" r=".5"/><circle cx="38.489" cy="20.118" r=".5"/><circle cx="11.01" cy="31.5" r=".5"/><circle cx="36.99" cy="16.5" r=".5"/><circle cx="13.393" cy="34.607" r=".5"/><circle cx="34.607" cy="13.393" r=".5"/><circle cx="16.5" cy="36.99" r=".5"/><circle cx="31.5" cy="11.01" r=".5"/><circle cx="27.882" cy="9.511" r=".5"/><path d="M28.348,38.907l-4-15c-0.084-0.314-0.611-0.314-0.695,0l-4,15c-0.008,0.031-0.006,0.062-0.006,0.093h0.726L24,25.397 L27.628,39h0.726C28.353,38.969,28.356,38.938,28.348,38.907z"/></svg>