<?xml version="1.0" encoding="iso-8859-1"?>
<!-- Generator: Adobe Illustrator 22.0.0, SVG Export Plug-In . SVG Version: 6.00 Build 0)  -->
<svg version="1.1" xmlns="http://www.w3.org/2000/svg" xmlns:xlink="http://www.w3.org/1999/xlink" x="0px" y="0px"
	 viewBox="0 0 48 48" style="enable-background:new 0 0 48 48;" xml:space="preserve">
<g id="london_big_ben">
	<rect style="fill:#FFFFFF;" width="48" height="48"/>
	<path id="london_big_ben_1_" style="fill:none;stroke:#000000;stroke-width:0.72;stroke-linejoin:round;stroke-miterlimit:10;" d="
		M20.5,23v-3l2-2v-3l1.5-4l1.5,4v3l2,2v3 M24,9v2 M22.5,15h3 M22.5,18h3 M20.5,20h7 M28,23h-8v8h8V23z M27.5,31v8 M20.5,31v8 M24,32
		v3 M22,32v3 M26,32v3 M24,36v3 M22,36v3 M26,36v3 M20.5,35h7 M24,23v-2 M24,18v-2 M26,23v-2 M22,23v-2 M16.315,12.453
		c-0.19,0-0.371,0.033-0.541,0.091c-0.353-0.906-1.231-1.542-2.261-1.542c-1.263,0-2.299,0.958-2.416,2.19
		c-0.206-0.117-0.443-0.185-0.696-0.185c-0.778,0-1.4,0.808-1.4,1.586C9,15.37,9.622,16,10.4,16h5.915
		C17.246,16,18,15.246,18,14.315S17.246,12.453,16.315,12.453z M37.689,17.254c-0.148,0-0.289,0.025-0.421,0.07
		c-0.274-0.704-0.957-1.199-1.759-1.199c-0.982,0-1.788,0.745-1.879,1.703c-0.16-0.091-0.344-0.144-0.542-0.144
		c-0.605,0-1.089,0.615-1.089,1.22C32,19.51,32.484,20,33.089,20h4.601C38.413,20,39,19.413,39,18.689
		C39,17.966,38.413,17.254,37.689,17.254z M24,24.25c-1.243,0-2.25,1.007-2.25,2.25s1.007,2.25,2.25,2.25s2.25-1.007,2.25-2.25
		S25.243,24.25,24,24.25z M24.002,25L24,26.5h1.5"/>
</g>
<g id="Layer_1">
</g>
</svg>
