<?xml version="1.0" encoding="iso-8859-1"?>
<!-- Generator: Adobe Illustrator 24.1.2, SVG Export Plug-In . SVG Version: 6.00 Build 0)  -->
<svg version="1.1" id="Layer_1" xmlns="http://www.w3.org/2000/svg" xmlns:xlink="http://www.w3.org/1999/xlink" x="0px" y="0px"
	 viewBox="0 0 32 32" style="enable-background:new 0 0 32 32;" xml:space="preserve">
<path id="london_1_" d="M16,2.64C8.633,2.64,2.64,8.633,2.64,16c0,6.051,4.046,11.168,9.573,12.805l-0.56,2.102
	c-0.008,0.031-0.006,0.062-0.006,0.093h0.726l0.537-2.015c0.994,0.237,2.025,0.375,3.09,0.375s2.096-0.139,3.09-0.375L19.628,31
	h0.726c0-0.031,0.003-0.062-0.006-0.093l-0.56-2.102C25.314,27.168,29.36,22.051,29.36,16C29.36,8.633,23.367,2.64,16,2.64z
	 M16,28.64c-1.001,0-1.97-0.129-2.905-0.35l0.329-1.235c0.829,0.193,1.688,0.306,2.575,0.306s1.746-0.112,2.575-0.306l0.329,1.235
	C17.97,28.51,17.001,28.64,16,28.64z M16,17.397l2.39,8.962c-0.77,0.178-1.567,0.281-2.39,0.281c-0.823,0-1.62-0.103-2.39-0.281
	L16,17.397z M12.913,26.18C8.548,24.853,5.36,20.794,5.36,16c0-5.867,4.773-10.64,10.64-10.64S26.64,10.133,26.64,16
	c0,4.794-3.187,8.853-7.553,10.18l-2.739-10.272c-0.084-0.314-0.611-0.314-0.695,0L12.913,26.18z M19.602,28.11l-0.329-1.235
	C23.945,25.466,27.36,21.126,27.36,16c0-6.264-5.097-11.36-11.36-11.36C9.736,4.64,4.64,9.736,4.64,16
	c0,5.126,3.415,9.466,8.087,10.875l-0.329,1.235C7.179,26.555,3.36,21.718,3.36,16C3.36,9.03,9.03,3.36,16,3.36S28.64,9.03,28.64,16
	C28.64,21.718,24.821,26.555,19.602,28.11z M15.5,1c0-0.276,0.224-0.5,0.5-0.5c0.276,0,0.5,0.224,0.5,0.5S16.276,1.5,16,1.5
	S15.5,1.276,15.5,1z M16.5,31c0,0.276-0.224,0.5-0.5,0.5s-0.5-0.224-0.5-0.5s0.224-0.5,0.5-0.5C16.276,30.5,16.5,30.724,16.5,31z
	 M11.635,1.641c-0.071-0.267,0.087-0.541,0.354-0.612s0.541,0.087,0.612,0.354c0.071,0.267-0.087,0.541-0.354,0.612
	S11.706,1.907,11.635,1.641z M8.067,3.26C7.929,3.02,8.011,2.715,8.25,2.577S8.795,2.52,8.933,2.76
	C9.071,2.999,8.989,3.305,8.75,3.443S8.205,3.499,8.067,3.26z M23.933,28.74c0.138,0.239,0.056,0.545-0.183,0.683
	s-0.545,0.056-0.683-0.183s-0.056-0.545,0.183-0.683S23.795,28.501,23.933,28.74z M5.04,5.747c-0.195-0.195-0.195-0.512,0-0.707
	s0.512-0.195,0.707,0c0.195,0.195,0.195,0.512,0,0.707S5.235,5.942,5.04,5.747z M26.96,26.253c0.195,0.195,0.195,0.512,0,0.707
	s-0.512,0.195-0.707,0s-0.195-0.512,0-0.707S26.765,26.058,26.96,26.253z M2.577,8.25C2.715,8.011,3.02,7.929,3.26,8.067
	C3.499,8.205,3.581,8.511,3.443,8.75S2.999,9.071,2.76,8.933C2.52,8.795,2.439,8.489,2.577,8.25z M29.423,23.75
	c-0.138,0.239-0.444,0.321-0.683,0.183c-0.239-0.138-0.321-0.444-0.183-0.683s0.444-0.321,0.683-0.183
	C29.48,23.205,29.561,23.511,29.423,23.75z M1.994,12.247c-0.071,0.267-0.346,0.425-0.612,0.354s-0.425-0.346-0.354-0.612
	s0.346-0.425,0.612-0.354C1.907,11.706,2.066,11.98,1.994,12.247z M30.972,20.012c-0.071,0.267-0.346,0.425-0.612,0.354
	s-0.425-0.346-0.354-0.612s0.346-0.425,0.612-0.354S31.043,19.745,30.972,20.012z M1,16.5c-0.276,0-0.5-0.224-0.5-0.5
	c0-0.276,0.224-0.5,0.5-0.5s0.5,0.224,0.5,0.5C1.5,16.276,1.276,16.5,1,16.5z M31.5,16c0,0.276-0.224,0.5-0.5,0.5
	s-0.5-0.224-0.5-0.5c0-0.276,0.224-0.5,0.5-0.5S31.5,15.724,31.5,16z M1.994,19.753c0.071,0.267-0.087,0.541-0.354,0.612
	s-0.54-0.087-0.612-0.353c-0.071-0.267,0.087-0.541,0.354-0.612S1.923,19.486,1.994,19.753z M30.006,12.247
	c-0.071-0.267,0.087-0.541,0.354-0.612c0.267-0.071,0.541,0.087,0.612,0.354s-0.087,0.541-0.354,0.612S30.077,12.514,30.006,12.247z
	 M3.443,23.25c0.138,0.239,0.056,0.545-0.183,0.683s-0.545,0.056-0.683-0.183S2.52,23.205,2.76,23.067
	C2.999,22.929,3.305,23.011,3.443,23.25z M29.423,8.25c0.138,0.239,0.056,0.545-0.183,0.683s-0.545,0.056-0.683-0.183
	s-0.056-0.545,0.183-0.683C28.98,7.929,29.285,8.011,29.423,8.25z M5.747,26.253c0.195,0.195,0.195,0.512,0,0.707
	s-0.512,0.195-0.707,0s-0.195-0.512,0-0.707S5.552,26.058,5.747,26.253z M26.253,5.747c-0.195-0.195-0.195-0.512,0-0.707
	s0.512-0.195,0.707,0c0.195,0.195,0.195,0.512,0,0.707S26.448,5.942,26.253,5.747z M8.933,29.24
	c-0.138,0.239-0.444,0.321-0.683,0.183c-0.239-0.138-0.321-0.444-0.183-0.683c0.138-0.239,0.444-0.321,0.683-0.183
	S9.071,29.001,8.933,29.24z M23.067,2.76c0.138-0.239,0.444-0.321,0.683-0.183s0.321,0.444,0.183,0.683
	c-0.138,0.239-0.444,0.321-0.683,0.183S22.929,2.999,23.067,2.76z M19.399,1.382c0.071-0.267,0.346-0.425,0.612-0.354
	c0.267,0.071,0.425,0.346,0.354,0.612s-0.346,0.425-0.612,0.354S19.328,1.648,19.399,1.382z"/>
<rect id="_Transparent_Rectangle" style="fill:none;" width="32" height="32"/>
</svg>
