<?xml version="1.0" encoding="iso-8859-1"?>
<!-- Generator: Adobe Illustrator 22.0.0, SVG Export Plug-In . SVG Version: 6.00 Build 0)  -->
<svg version="1.1" id="Layer_1" xmlns="http://www.w3.org/2000/svg" xmlns:xlink="http://www.w3.org/1999/xlink" x="0px" y="0px"
	 viewBox="0 0 48 48" style="enable-background:new 0 0 48 48;" xml:space="preserve">
<g id="machine_learning_02">
	<g id="machine_learning_2_1_">
		<circle style="fill:none;stroke:#231F20;stroke-width:0.72;stroke-miterlimit:10;" cx="19.192" cy="16.5" r="1.5"/>
		<circle style="fill:none;stroke:#231F20;stroke-width:0.72;stroke-miterlimit:10;" cx="19.692" cy="26.5" r="1.5"/>
		<circle style="fill:none;stroke:#231F20;stroke-width:0.72;stroke-miterlimit:10;" cx="26.192" cy="13.5" r="1.5"/>
		<circle style="fill:none;stroke:#231F20;stroke-width:0.72;stroke-miterlimit:10;" cx="31.192" cy="31.5" r="1.5"/>
		<circle style="fill:none;stroke:#231F20;stroke-width:0.72;stroke-miterlimit:10;" cx="31.692" cy="21.5" r="1.5"/>
		<path style="fill:none;stroke:#231F20;stroke-width:0.72;stroke-linejoin:round;stroke-miterlimit:10;" d="M34.192,39
			l0.002-10.756c1.862-2.044,2.998-4.761,2.998-7.744c0-6.351-5.149-11.5-11.5-11.5s-11.5,5.149-11.5,11.5l-3.276,6.053
			C10.583,27.218,11.066,28,11.81,28h2.382v3"/>
		<path style="fill:none;stroke:#231F20;stroke-width:0.72;stroke-miterlimit:10;" d="M14.192,31c0,3.314,3.686,6,7,6l0,0v2"/>
		<polyline style="fill:none;stroke:#231F20;stroke-width:0.72;stroke-miterlimit:10;" points="24.192,39 24.192,30.183 
			20.851,27.449 		"/>
		<polyline style="fill:none;stroke:#231F20;stroke-width:0.72;stroke-miterlimit:10;" points="24.192,27 24.192,21 20.295,17.512 
					"/>
		<line style="fill:none;stroke:#231F20;stroke-width:0.72;stroke-miterlimit:10;" x1="26.192" y1="39" x2="26.192" y2="15"/>
		<polyline style="fill:none;stroke:#231F20;stroke-width:0.72;stroke-miterlimit:10;" points="28.192,31 28.192,24 30.39,22.241 		
			"/>
		<polyline style="fill:none;stroke:#231F20;stroke-width:0.72;stroke-miterlimit:10;" points="28.192,39 28.192,34 30.017,32.431 
					"/>
	</g>
</g>
<g id="Layer_1_1_">
</g>
</svg>
