<?xml version="1.0" encoding="iso-8859-1"?>
<!-- Generator: Adobe Illustrator 24.1.2, SVG Export Plug-In . SVG Version: 6.00 Build 0)  -->
<svg version="1.1" id="Layer_1" xmlns="http://www.w3.org/2000/svg" xmlns:xlink="http://www.w3.org/1999/xlink" x="0px" y="0px"
	 viewBox="0 0 32 32" style="enable-background:new 0 0 32 32;" xml:space="preserve">
<path id="machine--learning--05_1_" d="M16,23.36c4.059,0,7.36-3.302,7.36-7.36S20.058,8.64,16,8.64S8.64,11.942,8.64,16
	C8.64,20.059,11.942,23.36,16,23.36z M12.36,21.547V20.5c0-1.595,1.034-2.985,2.573-3.461c0.139-0.042,0.238-0.165,0.252-0.309
	c0.014-0.145-0.061-0.283-0.188-0.352c-0.701-0.376-1.137-1.096-1.137-1.878c0-1.18,0.96-2.14,2.14-2.14s2.14,0.96,2.14,2.14
	c0,0.782-0.436,1.502-1.137,1.878c-0.128,0.069-0.202,0.208-0.188,0.352c0.014,0.145,0.113,0.267,0.252,0.309
	c1.539,0.476,2.573,1.866,2.573,3.461v1.047c-1.046,0.689-2.296,1.093-3.64,1.093C14.656,22.64,13.406,22.236,12.36,21.547z
	 M16,9.36c3.661,0,6.64,2.979,6.64,6.64c0,1.992-0.886,3.777-2.279,4.995V20.5c0-1.681-0.956-3.172-2.438-3.895
	c0.591-0.535,0.938-1.294,0.938-2.105c0-1.577-1.283-2.86-2.86-2.86s-2.86,1.283-2.86,2.86c0,0.811,0.348,1.57,0.938,2.105
	c-1.482,0.723-2.438,2.214-2.438,3.895v0.496C10.246,19.777,9.36,17.992,9.36,16C9.36,12.339,12.339,9.36,16,9.36z M29.5,18.14
	c-0.902,0-1.655,0.647-1.824,1.5H25.36v-7.28h2.316c0.168,0.854,0.922,1.5,1.824,1.5c1.025,0,1.86-0.834,1.86-1.86
	s-0.835-1.86-1.86-1.86c-0.902,0-1.656,0.646-1.824,1.5H25.36V7c0-0.199-0.161-0.36-0.36-0.36h-4.64V4.323
	c0.853-0.168,1.5-0.921,1.5-1.823c0-1.025-0.835-1.86-1.86-1.86s-1.86,0.834-1.86,1.86c0,0.902,0.647,1.655,1.5,1.823V6.64h-7.28
	V4.323c0.854-0.168,1.5-0.921,1.5-1.823c0-1.025-0.834-1.86-1.86-1.86s-1.86,0.834-1.86,1.86c0,0.902,0.646,1.655,1.5,1.823V6.64H7
	C6.801,6.64,6.64,6.801,6.64,7v4.64H4.323c-0.168-0.854-0.921-1.5-1.823-1.5c-1.025,0-1.86,0.834-1.86,1.86s0.834,1.86,1.86,1.86
	c0.902,0,1.655-0.646,1.823-1.5H6.64v7.28H4.323c-0.168-0.853-0.921-1.5-1.823-1.5c-1.025,0-1.86,0.835-1.86,1.86
	s0.834,1.86,1.86,1.86c0.902,0,1.655-0.647,1.823-1.5H6.64V25c0,0.199,0.161,0.36,0.36,0.36h4.64v2.316
	c-0.854,0.168-1.5,0.922-1.5,1.824c0,1.025,0.834,1.86,1.86,1.86s1.86-0.835,1.86-1.86c0-0.902-0.646-1.656-1.5-1.824V25.36h7.28
	v2.316c-0.853,0.169-1.5,0.922-1.5,1.824c0,1.025,0.835,1.86,1.86,1.86s1.86-0.835,1.86-1.86c0-0.902-0.647-1.655-1.5-1.824V25.36
	H25c0.199,0,0.36-0.161,0.36-0.36v-4.64h2.316c0.169,0.853,0.922,1.5,1.824,1.5c1.025,0,1.86-0.835,1.86-1.86
	S30.525,18.14,29.5,18.14z M29.5,10.86c0.629,0,1.14,0.512,1.14,1.14s-0.511,1.14-1.14,1.14s-1.14-0.512-1.14-1.14
	S28.871,10.86,29.5,10.86z M18.86,2.5c0-0.628,0.511-1.14,1.14-1.14s1.14,0.512,1.14,1.14S20.629,3.64,20,3.64
	S18.86,3.128,18.86,2.5z M10.86,2.5c0-0.628,0.512-1.14,1.14-1.14s1.14,0.512,1.14,1.14S12.628,3.64,12,3.64S10.86,3.128,10.86,2.5z
	 M2.5,13.14c-0.628,0-1.14-0.512-1.14-1.14s0.512-1.14,1.14-1.14S3.64,11.372,3.64,12S3.128,13.14,2.5,13.14z M2.5,21.14
	c-0.628,0-1.14-0.511-1.14-1.14s0.512-1.14,1.14-1.14S3.64,19.371,3.64,20S3.128,21.14,2.5,21.14z M13.14,29.5
	c0,0.629-0.512,1.14-1.14,1.14s-1.14-0.511-1.14-1.14s0.512-1.14,1.14-1.14S13.14,28.871,13.14,29.5z M21.14,29.5
	c0,0.629-0.511,1.14-1.14,1.14s-1.14-0.511-1.14-1.14s0.511-1.14,1.14-1.14S21.14,28.871,21.14,29.5z M24.64,24.64H7.36V7.36h17.28
	C24.64,7.36,24.64,24.64,24.64,24.64z M29.5,21.14c-0.629,0-1.14-0.511-1.14-1.14s0.511-1.14,1.14-1.14s1.14,0.511,1.14,1.14
	S30.129,21.14,29.5,21.14z"/>
<rect id="_Transparent_Rectangle" style="fill:none;" width="32" height="32"/>
</svg>
