<svg xmlns="http://www.w3.org/2000/svg" viewBox="0 0 48 48"><path fill="none" stroke-linejoin="round" stroke-miterlimit="10" stroke-width=".72" d="M35,23v11c0,2.209-1.791,4-4,4H17c-2.209,0-4-1.791-4-4V23c0-2.209,1.791-4,4-4h14C33.209,19,35,20.791,35,23z M30,26 c0-1.105-0.895-2-2-2s-2,0.895-2,2s0.895,2,2,2S30,27.105,30,26z M26,11c0-1.105-0.895-2-2-2s-2,0.895-2,2s0.895,2,2,2 S26,12.105,26,11z M27,19c0-1.657-1.343-3-3-3s-3,1.343-3,3 M22,26c0-1.105-0.895-2-2-2s-2,0.895-2,2s0.895,2,2,2S22,27.105,22,26z M28,35c1.105,0,2-0.895,2-2s-0.895-2-2-2h-8c-1.105,0-2,0.895-2,2s0.895,2,2,2H28z M24,13v3 M39,23h-2v8.5h2V23z M11,23H9v8.5h2 V23z"/></svg>