<?xml version="1.0" encoding="iso-8859-1"?>
<!-- Generator: Adobe Illustrator 24.1.2, SVG Export Plug-In . SVG Version: 6.00 Build 0)  -->
<svg version="1.1" id="Layer_1" xmlns="http://www.w3.org/2000/svg" xmlns:xlink="http://www.w3.org/1999/xlink" x="0px" y="0px"
	 viewBox="0 0 32 32" style="enable-background:new 0 0 32 32;" xml:space="preserve">
<path id="machine--learning--01_1_" d="M12,1.64c-0.002,0-0.004,0-0.006,0c-1.473,0-2.691,0.759-3.239,2h-0.48
	c-0.003,0-0.006,0-0.009,0c-1.271,0-2.478,0.425-3.398,1.199C3.892,5.659,3.354,6.79,3.352,8.021
	c-0.001,0.995,0.526,2.097,1.025,2.791c-2.223,0.77-3.734,2.633-3.737,4.688c-0.003,2.046,1.507,3.91,3.734,4.687
	c-0.506,0.692-1.044,1.788-1.045,2.766c-0.003,2.426,2.215,4.403,4.947,4.408h0.48c0.543,1.238,1.764,1.998,3.244,2
	c0.002,0,0.004,0,0.007,0c1.972,0,3.351-1.381,3.354-3.36V5C15.363,3.025,13.982,1.643,12,1.64z M12,18.64
	c-0.353,0-0.64-0.287-0.64-0.64s0.287-0.64,0.64-0.64s0.64,0.287,0.64,0.64S12.353,18.64,12,18.64z M14.64,13.64h-2.28V7.305
	c0.575-0.159,1-0.681,1-1.305c0-0.75-0.61-1.36-1.36-1.36S10.64,5.25,10.64,6c0,0.625,0.425,1.146,1,1.305v6.335H10
	c-0.001,0-0.001,0-0.002,0C9.2,13.64,8.641,14.199,8.64,15v0.64H6.305c-0.159-0.575-0.681-1-1.305-1c-0.75,0-1.36,0.61-1.36,1.36
	S4.25,17.36,5,17.36c0.625,0,1.147-0.426,1.305-1H8.64v5.834c-0.575,0.159-1,0.681-1,1.306c0,0.75,0.61,1.36,1.36,1.36
	s1.36-0.61,1.36-1.36c0-0.625-0.425-1.147-1-1.306V15c0.001-0.401,0.239-0.641,0.639-0.641H10h4.64v11.639
	c-0.003,1.456-0.908,2.46-2.28,2.61v-9.303c0.575-0.159,1-0.681,1-1.306c0-0.75-0.61-1.36-1.36-1.36s-1.36,0.61-1.36,1.36
	c0,0.625,0.425,1.147,1,1.306v9.31c-1.103-0.114-1.951-0.742-2.3-1.735C9.289,26.736,9.153,26.64,9,26.64H8.276
	c-2.036-0.003-4.23-1.413-4.228-3.686c0.002-0.966,0.714-2.209,1.206-2.699c0.092-0.091,0.127-0.225,0.093-0.35
	s-0.132-0.222-0.257-0.254c-2.199-0.566-3.733-2.273-3.73-4.151c0.003-1.876,1.522-3.573,3.695-4.141h2.64
	c0.159,0.575,0.681,1,1.305,1c0.75,0,1.36-0.61,1.36-1.36S9.75,9.64,9,9.64c-0.625,0-1.146,0.425-1.305,1H5.162
	C4.685,10.099,4.07,8.949,4.071,8.022C4.073,7.006,4.52,6.072,5.332,5.39c0.779-0.655,1.849-1.03,2.936-1.03
	c0.002,0,0.005,0,0.008,0H9c0.152,0,0.288-0.096,0.339-0.239c0.392-1.103,1.384-1.761,2.655-1.761c0.002,0,0.003,0,0.005,0
	C13.582,2.363,14.643,3.423,14.64,5V13.64z M12,6.64c-0.353,0-0.64-0.287-0.64-0.64S11.647,5.36,12,5.36S12.64,5.647,12.64,6
	S12.353,6.64,12,6.64z M9,22.86c0.353,0,0.64,0.287,0.64,0.64S9.353,24.14,9,24.14s-0.64-0.287-0.64-0.64S8.647,22.86,9,22.86z
	 M5.64,16c0,0.353-0.287,0.64-0.64,0.64S4.36,16.353,4.36,16S4.647,15.36,5,15.36S5.64,15.647,5.64,16z M8.36,11
	c0-0.353,0.287-0.64,0.64-0.64S9.64,10.647,9.64,11S9.353,11.64,9,11.64S8.36,11.353,8.36,11z M31.36,15.5
	c0.002-2.046-1.508-3.909-3.734-4.687c0.507-0.692,1.044-1.788,1.046-2.767c0.002-1.231-0.54-2.365-1.526-3.193
	c-0.917-0.77-2.163-1.212-3.421-1.214h-0.48c-0.544-1.238-1.764-1.998-3.243-2c-0.003,0-0.005,0-0.008,0
	c-0.972,0-1.808,0.323-2.418,0.933C16.965,3.185,16.642,4.023,16.64,5v20.999c-0.003,1.976,1.378,3.357,3.359,3.361
	c0.003,0,0.005,0,0.007,0c1.473,0,2.69-0.76,3.238-2h0.479c0.004,0,0.007,0,0.01,0c1.271,0,2.478-0.426,3.398-1.199
	c0.977-0.82,1.515-1.95,1.517-3.182c0.001-0.995-0.526-2.098-1.025-2.791C29.847,19.418,31.357,17.555,31.36,15.5z M20,12.36
	c0.353,0,0.64,0.287,0.64,0.64s-0.287,0.64-0.64,0.64s-0.64-0.287-0.64-0.64S19.647,12.36,20,12.36z M26.946,19.64h-2.641
	c-0.159-0.575-0.681-1-1.306-1c-0.75,0-1.36,0.61-1.36,1.36s0.61,1.36,1.36,1.36c0.624,0,1.147-0.425,1.306-1h2.533
	c0.476,0.541,1.091,1.691,1.089,2.618c-0.001,1.016-0.448,1.95-1.26,2.631c-0.781,0.657-1.865,1.01-2.943,1.03H23
	c-0.152,0-0.288,0.097-0.339,0.239c-0.393,1.104-1.385,1.761-2.655,1.761c-0.002,0-0.004,0-0.005,0
	c-0.781-0.001-1.445-0.252-1.919-0.725C17.608,27.441,17.358,26.78,17.36,26v-8.64h2.279v6.334c-0.575,0.159-1,0.681-1,1.306
	c0,0.75,0.61,1.36,1.36,1.36s1.36-0.61,1.36-1.36c0-0.624-0.425-1.147-1-1.306V17.36h1.639c0.001,0,0.002,0,0.003,0
	c0.799,0,1.356-0.559,1.358-1.36v-0.64h2.334c0.159,0.575,0.681,1,1.306,1c0.75,0,1.36-0.61,1.36-1.36s-0.61-1.36-1.36-1.36
	c-0.625,0-1.147,0.425-1.306,1H23.36V8.805c0.575-0.159,1-0.681,1-1.305c0-0.75-0.61-1.36-1.36-1.36s-1.36,0.61-1.36,1.36
	c0,0.624,0.425,1.146,1,1.305V16c0,0.401-0.238,0.641-0.638,0.641c-0.001,0-0.001,0-0.002,0h-4.64V5
	c0.001-0.781,0.252-1.445,0.725-1.918c0.397-0.398,0.933-0.627,1.555-0.693v9.305c-0.575,0.159-1,0.681-1,1.305
	c0,0.75,0.61,1.36,1.36,1.36s1.36-0.61,1.36-1.36c0-0.624-0.425-1.146-1-1.305v-9.31c1.103,0.115,1.951,0.742,2.3,1.736
	c0.051,0.144,0.188,0.24,0.34,0.24h0.724c1.092,0.001,2.17,0.383,2.959,1.045c0.82,0.689,1.271,1.626,1.269,2.641
	c-0.001,0.966-0.714,2.209-1.205,2.699c-0.092,0.091-0.127,0.225-0.094,0.35c0.034,0.125,0.133,0.222,0.258,0.254
	c2.198,0.567,3.732,2.274,3.729,4.151C30.638,17.374,29.12,19.07,26.946,19.64z M23.64,20c0,0.353-0.287,0.64-0.64,0.64
	s-0.64-0.287-0.64-0.64s0.287-0.64,0.64-0.64S23.64,19.647,23.64,20z M20,24.36c0.353,0,0.64,0.287,0.64,0.64s-0.287,0.64-0.64,0.64
	s-0.64-0.287-0.64-0.64S19.647,24.36,20,24.36z M23,8.14c-0.353,0-0.64-0.287-0.64-0.64S22.647,6.86,23,6.86s0.64,0.287,0.64,0.64
	S23.353,8.14,23,8.14z M26.36,15c0-0.353,0.287-0.64,0.64-0.64s0.64,0.287,0.64,0.64s-0.287,0.64-0.64,0.64S26.36,15.353,26.36,15z"
	/>
<rect id="_Transparent_Rectangle" style="fill:none;" width="32" height="32"/>
</svg>
