<?xml version="1.0" encoding="iso-8859-1"?>
<!-- Generator: Adobe Illustrator 29.1.0, SVG Export Plug-In . SVG Version: 9.03 Build 55587)  -->
<svg version="1.1" id="Layer_1" xmlns="http://www.w3.org/2000/svg" xmlns:xlink="http://www.w3.org/1999/xlink" x="0px" y="0px"
	 viewBox="0 0 32 32" style="enable-background:new 0 0 32 32;" xml:space="preserve">
<path id="machine-learning--model_00000068671475602892645790000015060079171922326917_" d="M30,31.36c-0.75,0-1.36-0.61-1.36-1.36
	c0-0.244,0.065-0.475,0.179-0.673L16.36,16.869V26c0,2.007,1.633,3.64,3.64,3.64h2v0.721h-2c-1.788,0-3.328-1.082-4-2.626
	c-0.672,1.544-2.212,2.626-4,2.626c-1.47,0-2.852-0.766-3.653-2.011C5.703,28.24,3.64,26.106,3.64,23.5
	c0-0.899,0.252-1.771,0.733-2.544C2.678,19.887,1.64,18.021,1.64,16s1.038-3.886,2.733-4.957C3.893,10.271,3.64,9.4,3.64,8.5
	c0-2.63,2.101-4.779,4.712-4.858C9.155,2.402,10.534,1.64,12,1.64c1.788,0,3.328,1.082,4,2.625c0.672-1.543,2.212-2.625,4-2.625h2
	v0.72h-2c-2.007,0-3.64,1.633-3.64,3.64v9.131L28.818,2.673C28.705,2.474,28.64,2.245,28.64,2c0-0.75,0.61-1.36,1.36-1.36
	S31.36,1.25,31.36,2S30.75,3.36,30,3.36c-0.244,0-0.475-0.065-0.673-0.178L16.869,15.64h11.819c0.158-0.576,0.687-1,1.312-1
	c0.75,0,1.36,0.61,1.36,1.36s-0.61,1.36-1.36,1.36c-0.625,0-1.153-0.425-1.312-1H16.869l12.458,12.458
	c0.198-0.113,0.429-0.179,0.673-0.179c0.75,0,1.36,0.61,1.36,1.36S30.75,31.36,30,31.36z M30,29.36c-0.353,0-0.64,0.287-0.64,0.64
	s0.287,0.64,0.64,0.64s0.64-0.287,0.64-0.64S30.353,29.36,30,29.36z M8.521,27.64c0.13,0,0.277,0.062,0.342,0.174
	C9.526,28.957,10.699,29.64,12,29.64c2.007,0,3.64-1.633,3.64-3.64v-9.999c0-0.001,0-0.002,0-0.003V6c0-2.007-1.633-3.64-3.64-3.64
	c-1.301,0-2.474,0.683-3.137,1.826c-0.018,0.031-0.04,0.059-0.065,0.082C8.511,4.796,8.36,5.394,8.36,6
	c0,0.64,0.168,1.269,0.487,1.82L8.224,8.18C7.842,7.521,7.64,6.766,7.64,6c0-0.547,0.103-1.088,0.3-1.593
	C5.901,4.694,4.36,6.42,4.36,8.5c0,0.876,0.283,1.722,0.817,2.446c0.062,0.084,0.084,0.19,0.062,0.292
	c-0.023,0.102-0.088,0.188-0.18,0.238C3.394,12.377,2.36,14.11,2.36,16c0,1.785,0.922,3.43,2.427,4.365
	C5.713,19.268,7.061,18.64,8.5,18.64v0.721c-1.256,0-2.429,0.561-3.22,1.538l-0.034-0.027C5.24,20.937,5.217,21,5.177,21.054
	C4.643,21.778,4.36,22.624,4.36,23.5c0,2.283,1.857,4.14,4.14,4.14C8.507,27.64,8.515,27.64,8.521,27.64z M30,15.36
	c-0.353,0-0.64,0.287-0.64,0.64s0.287,0.64,0.64,0.64s0.64-0.287,0.64-0.64S30.353,15.36,30,15.36z M30,1.36
	c-0.353,0-0.64,0.287-0.64,0.64S29.647,2.64,30,2.64S30.64,2.353,30.64,2S30.353,1.36,30,1.36z M12,28.36v-0.72
	c0.904,0,1.64-0.735,1.64-1.64h0.72C14.36,27.302,13.301,28.36,12,28.36z M9,26.36c-1.577,0-2.86-1.283-2.86-2.86h0.72
	c0,1.18,0.96,2.14,2.14,2.14C9,25.64,9,26.36,9,26.36z M12,24.36c-1.301,0-2.36-1.059-2.36-2.36s1.059-2.36,2.36-2.36v0.721
	c-0.904,0-1.64,0.735-1.64,1.64s0.736,1.64,1.64,1.64V24.36z M6.332,16.667C5.886,16.221,5.64,15.629,5.64,15
	c0-1.39,0.97-2.36,2.36-2.36c0.641,0,1.218,0.238,1.669,0.689l-0.51,0.509C8.847,13.525,8.446,13.36,8,13.36
	c-0.996,0-1.64,0.644-1.64,1.64c0,0.437,0.171,0.848,0.48,1.158L6.332,16.667z M12,12.86v-0.72c0.904,0,1.64-0.736,1.64-1.64
	S12.904,8.86,12,8.86V8.14c1.301,0,2.36,1.059,2.36,2.36S13.301,12.86,12,12.86z M14.36,6h-0.72c0-0.904-0.736-1.64-1.64-1.64
	S10.36,5.096,10.36,6H9.64c0-1.301,1.059-2.36,2.36-2.36S14.36,4.699,14.36,6z"/>
<rect id="_Transparent_Rectangle" style="fill:none;" width="32" height="32"/>
</svg>
