<svg xmlns="http://www.w3.org/2000/svg" viewBox="0 0 48 48"><circle cx="19.192" cy="16.5" r="1.5" fill="none" stroke-miterlimit="10" stroke-width=".72"/><circle cx="19.692" cy="26.5" r="1.5" fill="none" stroke-miterlimit="10" stroke-width=".72"/><circle cx="26.192" cy="13.5" r="1.5" fill="none" stroke-miterlimit="10" stroke-width=".72"/><circle cx="31.192" cy="31.5" r="1.5" fill="none" stroke-miterlimit="10" stroke-width=".72"/><circle cx="31.692" cy="21.5" r="1.5" fill="none" stroke-miterlimit="10" stroke-width=".72"/><path fill="none" stroke-linejoin="round" stroke-miterlimit="10" stroke-width=".72" d="M34.192,39 l0.002-10.756c1.862-2.044,2.998-4.761,2.998-7.744c0-6.351-5.149-11.5-11.5-11.5s-11.5,5.149-11.5,11.5l-3.276,6.053 C10.583,27.218,11.066,28,11.81,28h2.382v3"/><path fill="none" stroke-miterlimit="10" stroke-width=".72" d="M14.192,31c0,3.314,3.686,6,7,6l0,0v2"/><polyline fill="none" stroke-miterlimit="10" stroke-width=".72" points="24.192,39 24.192,30.183 20.851,27.449"/><polyline fill="none" stroke-miterlimit="10" stroke-width=".72" points="24.192,27 24.192,21 20.295,17.512"/><line x1="26.192" x2="26.192" y1="39" y2="15" fill="none" stroke-miterlimit="10" stroke-width=".72"/><polyline fill="none" stroke-miterlimit="10" stroke-width=".72" points="28.192,31 28.192,24 30.39,22.241"/><polyline fill="none" stroke-miterlimit="10" stroke-width=".72" points="28.192,39 28.192,34 30.017,32.431"/></svg>