<svg xmlns="http://www.w3.org/2000/svg" viewBox="0 0 48 48"><polyline fill="none" stroke-linejoin="round" stroke-miterlimit="10" stroke-width=".72" points="39,39 39,30 9,30 9,39"/><line x1="32" x2="32" y1="22" y2="24" fill="none" stroke-linecap="round" stroke-linejoin="round" stroke-miterlimit="10" stroke-width=".72"/><line x1="34" x2="34" y1="22" y2="24" fill="none" stroke-linecap="round" stroke-linejoin="round" stroke-miterlimit="10" stroke-width=".72"/><line x1="36" x2="36" y1="20" y2="30" fill="none" stroke-linejoin="round" stroke-miterlimit="10" stroke-width=".72"/><line x1="30" x2="37" y1="22" y2="22" fill="none" stroke-linejoin="round" stroke-miterlimit="10" stroke-width=".72"/><line x1="37" x2="30" y1="24" y2="24" fill="none" stroke-linejoin="round" stroke-miterlimit="10" stroke-width=".72"/><line x1="36" x2="32" y1="26" y2="26" fill="none" stroke-linejoin="round" stroke-miterlimit="10" stroke-width=".72"/><line x1="30" x2="30" y1="20" y2="30" fill="none" stroke-linecap="round" stroke-linejoin="round" stroke-miterlimit="10" stroke-width=".72"/><line x1="26" x2="26" y1="20" y2="30" fill="none" stroke-linecap="round" stroke-linejoin="round" stroke-miterlimit="10" stroke-width=".72"/><line x1="28" x2="28" y1="12" y2="14" fill="none" stroke-linecap="round" stroke-linejoin="round" stroke-miterlimit="10" stroke-width=".72"/><line x1="28" x2="28" y1="26" y2="30" fill="none" stroke-linecap="round" stroke-linejoin="round" stroke-miterlimit="10" stroke-width=".72"/><line x1="23" x2="23" y1="26" y2="30" fill="none" stroke-linecap="round" stroke-linejoin="round" stroke-miterlimit="10" stroke-width=".72"/><line x1="26" x2="30" y1="24" y2="24" fill="none" stroke-linecap="round" stroke-linejoin="round" stroke-miterlimit="10" stroke-width=".72"/><polygon fill="none" stroke-linejoin="round" stroke-miterlimit="10" stroke-width=".72" points="28,14 26,20 30,20"/><line x1="20" x2="20" y1="20" y2="30" fill="none" stroke-linecap="round" stroke-linejoin="round" stroke-miterlimit="10" stroke-width=".72"/><line x1="16" x2="16" y1="20" y2="30" fill="none" stroke-linecap="round" stroke-linejoin="round" stroke-miterlimit="10" stroke-width=".72"/><line x1="18" x2="18" y1="22" y2="24" fill="none" stroke-linecap="round" stroke-linejoin="round" stroke-miterlimit="10" stroke-width=".72"/><line x1="28" x2="28" y1="22" y2="24" fill="none" stroke-linecap="round" stroke-linejoin="round" stroke-miterlimit="10" stroke-width=".72"/><line x1="18" x2="18" y1="12" y2="14" fill="none" stroke-linecap="round" stroke-linejoin="round" stroke-miterlimit="10" stroke-width=".72"/><line x1="18" x2="18" y1="26" y2="30" fill="none" stroke-linecap="round" stroke-linejoin="round" stroke-miterlimit="10" stroke-width=".72"/><line x1="16" x2="20" y1="24" y2="24" fill="none" stroke-linecap="round" stroke-linejoin="round" stroke-miterlimit="10" stroke-width=".72"/><polygon fill="none" stroke-linejoin="round" stroke-miterlimit="10" stroke-width=".72" points="18,14 16,20 20,20"/><path fill="none" stroke-linecap="round" stroke-miterlimit="10" stroke-width=".72" d="M26,24h-2v-1 c0-0.552-0.448-1-1-1s-1,0.448-1,1v1h-2"/><line x1="12" x2="12" y1="37" y2="39" fill="none" stroke-linejoin="round" stroke-miterlimit="10" stroke-width=".72"/><line x1="14" x2="14" y1="37" y2="39" fill="none" stroke-linejoin="round" stroke-miterlimit="10" stroke-width=".72"/><line x1="18" x2="18" y1="37" y2="39" fill="none" stroke-linejoin="round" stroke-miterlimit="10" stroke-width=".72"/><line x1="20" x2="20" y1="37" y2="39" fill="none" stroke-linejoin="round" stroke-miterlimit="10" stroke-width=".72"/><line x1="22" x2="22" y1="37" y2="39" fill="none" stroke-linejoin="round" stroke-miterlimit="10" stroke-width=".72"/><line x1="24" x2="24" y1="37" y2="39" fill="none" stroke-linejoin="round" stroke-miterlimit="10" stroke-width=".72"/><line x1="26" x2="26" y1="37" y2="39" fill="none" stroke-linejoin="round" stroke-miterlimit="10" stroke-width=".72"/><line x1="28" x2="28" y1="37" y2="39" fill="none" stroke-linejoin="round" stroke-miterlimit="10" stroke-width=".72"/><line x1="30" x2="30" y1="37" y2="39" fill="none" stroke-linejoin="round" stroke-miterlimit="10" stroke-width=".72"/><line x1="32" x2="32" y1="37" y2="39" fill="none" stroke-linejoin="round" stroke-miterlimit="10" stroke-width=".72"/><line x1="34" x2="34" y1="37" y2="39" fill="none" stroke-linejoin="round" stroke-miterlimit="10" stroke-width=".72"/><line x1="36" x2="36" y1="37" y2="39" fill="none" stroke-linejoin="round" stroke-miterlimit="10" stroke-width=".72"/><line x1="16" x2="16" y1="37" y2="39" fill="none" stroke-linejoin="round" stroke-miterlimit="10" stroke-width=".72"/><path fill="none" stroke-linecap="round" stroke-miterlimit="10" stroke-width=".72" d="M13,33 c0-0.552-0.448-1-1-1s-1,0.448-1,1v2h2V33z"/><path fill="none" stroke-linecap="round" stroke-miterlimit="10" stroke-width=".72" d="M17,33 c0-0.552-0.448-1-1-1c-0.552,0-1,0.448-1,1v2h2V33z"/><path fill="none" stroke-linecap="round" stroke-miterlimit="10" stroke-width=".72" d="M21,33 c0-0.552-0.448-1-1-1s-1,0.448-1,1v2h2V33z"/><path fill="none" stroke-linecap="round" stroke-miterlimit="10" stroke-width=".72" d="M25,33 c0-0.552-0.448-1-1-1s-1,0.448-1,1v2h2V33z"/><path fill="none" stroke-linecap="round" stroke-miterlimit="10" stroke-width=".72" d="M29,33 c0-0.552-0.448-1-1-1s-1,0.448-1,1v2h2V33z"/><path fill="none" stroke-linecap="round" stroke-miterlimit="10" stroke-width=".72" d="M33,33 c0-0.552-0.448-1-1-1s-1,0.448-1,1v2h2V33z"/><path fill="none" stroke-linecap="round" stroke-miterlimit="10" stroke-width=".72" d="M37,33 c0-0.552-0.448-1-1-1s-1,0.448-1,1v2h2V33z"/><path fill="none" stroke-linecap="round" stroke-linejoin="round" stroke-miterlimit="10" stroke-width=".72" d="M10,27c0-1.105,0.895-2,2-2s2,0.895,2,2"/><path fill="none" stroke-linecap="round" stroke-linejoin="round" stroke-miterlimit="10" stroke-width=".72" d="M11,24c0-0.552,0.448-1,1-1s1,0.448,1,1"/><line x1="10" x2="14" y1="27" y2="27" fill="none" stroke-linecap="round" stroke-linejoin="round" stroke-miterlimit="10" stroke-width=".72"/><line x1="11" x2="11" y1="24" y2="25" fill="none" stroke-linecap="round" stroke-linejoin="round" stroke-miterlimit="10" stroke-width=".72"/><line x1="13" x2="13" y1="24" y2="25" fill="none" stroke-linecap="round" stroke-linejoin="round" stroke-miterlimit="10" stroke-width=".72"/><line x1="12" x2="12" y1="21" y2="23" fill="none" stroke-linecap="round" stroke-linejoin="round" stroke-miterlimit="10" stroke-width=".72"/><line x1="10" x2="10" y1="27" y2="30" fill="none" stroke-linecap="round" stroke-linejoin="round" stroke-miterlimit="10" stroke-width=".72"/><line x1="14" x2="14" y1="27" y2="30" fill="none" stroke-linecap="round" stroke-linejoin="round" stroke-miterlimit="10" stroke-width=".72"/><path fill="none" stroke-linecap="round" stroke-linejoin="round" stroke-miterlimit="10" stroke-width=".72" d="M31,12c0-0.552,0.448-1,1-1s1,0.448,1,1"/><line x1="31" x2="31" y1="12" y2="16" fill="none" stroke-linecap="round" stroke-linejoin="round" stroke-miterlimit="10" stroke-width=".72"/><line x1="33" x2="33" y1="12" y2="16" fill="none" stroke-linecap="round" stroke-linejoin="round" stroke-miterlimit="10" stroke-width=".72"/><line x1="32" x2="32" y1="9" y2="11" fill="none" stroke-linecap="round" stroke-linejoin="round" stroke-miterlimit="10" stroke-width=".72"/><line x1="31" x2="33" y1="13" y2="13" fill="none" stroke-linecap="round" stroke-linejoin="round" stroke-miterlimit="10" stroke-width=".72"/><path fill="none" stroke-linejoin="round" stroke-miterlimit="10" stroke-width=".72" d="M29,17.354 C29.733,16.524,30.805,16,32,16c2.209,0,4,1.791,4,4"/><circle cx="34.5" cy="28.5" r=".5"/><circle cx="32.5" cy="28.5" r=".5"/></svg>