<svg xmlns="http://www.w3.org/2000/svg" viewBox="0 0 48 48"><line x1="12" x2="12" y1="38" y2="12" fill="none" stroke-miterlimit="10" stroke-width=".72"/><polyline fill="none" stroke-miterlimit="10" stroke-width=".72" points="25.979,38 26,30 25.938,17.956 30,15 31,17 31,37.979"/><line x1="23" x2="23" y1="15" y2="37.979" fill="none" stroke-miterlimit="10" stroke-width=".72"/><line x1="18" x2="18" y1="38" y2="15" fill="none" stroke-miterlimit="10" stroke-width=".72"/><path fill="none" stroke-miterlimit="10" stroke-width=".72" d="M39,16c0,9-4.995,11-4.995,21.634"/><line x1="26" x2="30" y1="36.979" y2="15" fill="none" stroke-miterlimit="10" stroke-width=".72"/><polyline fill="none" stroke-miterlimit="10" stroke-width=".72" points="23,18 20,18 20,38"/><line x1="9" x2="10" y1="32" y2="32" fill="none" stroke-linecap="square" stroke-miterlimit="10" stroke-width=".72"/><line x1="9" x2="10" y1="17" y2="17" fill="none" stroke-linecap="square" stroke-miterlimit="10" stroke-width=".72"/><line x1="14" x2="15" y1="24" y2="24" fill="none" stroke-linecap="square" stroke-miterlimit="10" stroke-width=".72"/><line x1="27" x2="29" y1="21.956" y2="21.956" fill="none" stroke-miterlimit="10" stroke-width=".72"/><line x1="34" x2="36" y1="19" y2="19" fill="none" stroke-miterlimit="10" stroke-width=".72"/><line x1="34" x2="36" y1="21" y2="21" fill="none" stroke-miterlimit="10" stroke-width=".72"/><line x1="37" x2="39" y1="33" y2="33" fill="none" stroke-miterlimit="10" stroke-width=".72"/><line x1="29" x2="31" y1="33" y2="33" fill="none" stroke-miterlimit="10" stroke-width=".72"/><polyline fill="none" stroke-linecap="square" stroke-miterlimit="10" stroke-width=".72" points="9,38 39,38 39,37.979 39,16 33.995,16 34,37.979 34,37.979"/><line x1="21" x2="23.063" y1="26.999" y2="27" fill="none" stroke-miterlimit="10" stroke-width=".72"/><line x1="21" x2="23.063" y1="30" y2="30.001" fill="none" stroke-miterlimit="10" stroke-width=".72"/><polyline fill="none" stroke-miterlimit="10" stroke-width=".72" points="10,37.979 10,34 9,34 9,29 10,29 10,26.979 9,26.979 9,21.979 10,21.979 10,19.979 9,19.979 9,15 10,15 10,12 14,12 14,15 15,15 15,19.979 14,19.979 14,21.979 15,21.979 15,26.979 14,26.979 14,29 15,29 15,34 14,34 14,37.979"/><path fill="none" stroke-miterlimit="10" stroke-width=".72" d="M23,15c0-0.552-1.119-1-2.5-1S18,14.448,18,15"/></svg>