<?xml version="1.0" encoding="iso-8859-1"?>
<!-- Generator: Adobe Illustrator 24.1.2, SVG Export Plug-In . SVG Version: 6.00 Build 0)  -->
<svg version="1.1" id="Layer_1" xmlns="http://www.w3.org/2000/svg" xmlns:xlink="http://www.w3.org/1999/xlink" x="0px" y="0px"
	 viewBox="0 0 32 32" style="enable-background:new 0 0 32 32;" xml:space="preserve">
<path id="madrid--cathedral_1_" d="M31,21.64h-2.64v-5.28H29v-0.72h-0.64v-1.28H29v-0.72h-0.64V12c0-1.926-1.264-3.546-3-4.121V4
	c0-0.624-0.425-1.146-1-1.305V1c0-0.199-0.161-0.36-0.36-0.36S23.64,0.801,23.64,1v1.695c-0.575,0.159-1,0.681-1,1.305v3.883
	c-0.502,0.166-0.969,0.414-1.382,0.75L20.36,5.942V4c0-0.199-0.161-0.36-0.36-0.36S19.64,3.801,19.64,4v1.942l-1.981,5.944
	c-0.004,0.012,0,0.025-0.003,0.037c-0.007,0.026-0.016,0.05-0.016,0.077v3.64h-1.28V15c0-0.75-0.61-1.36-1.36-1.36
	s-1.36,0.61-1.36,1.36v0.64h-1.28V12c0-0.027-0.01-0.05-0.015-0.076c-0.003-0.013,0.001-0.026-0.003-0.038L10.36,5.942V4
	c0-0.199-0.161-0.36-0.36-0.36S9.64,3.801,9.64,4v1.942l-1.981,5.944c-0.004,0.012-0.001,0.025-0.003,0.038
	C7.65,11.95,7.64,11.973,7.64,12v9.64H6.36V19c0-0.801-0.402-1.507-1.013-1.933C5.351,17.044,5.36,17.024,5.36,17v-1
	c0-0.625-0.425-1.146-1-1.305V13c0-0.199-0.161-0.36-0.36-0.36S3.64,12.801,3.64,13v1.695c-0.575,0.159-1,0.681-1,1.305v1
	c0,0.024,0.009,0.044,0.013,0.067C2.043,17.493,1.64,18.199,1.64,19v2.64H1c-0.199,0-0.36,0.161-0.36,0.36v9h0.72v-8.64h29.28V31
	h0.721v-9C31.36,21.801,31.199,21.64,31,21.64z M27.64,17.64H24v0.721h3.64v3.279h-5.28v-5.28h5.279L27.64,17.64L27.64,17.64z
	 M20,17.64c-0.199,0-0.36,0.161-0.36,0.36v3.64h-1.28v-5.28h3.279v5.28H20.36V18C20.36,17.801,20.199,17.64,20,17.64z M18.36,12.36
	h3.279v3.28H20.36V14c0-0.199-0.161-0.36-0.36-0.36s-0.36,0.161-0.36,0.36v1.64h-1.28V12.36z M25.64,14.36v1.28h-1.28v-1.28H25.64z
	 M23.64,15.64h-1.28v-1.28h1.279L23.64,15.64L23.64,15.64z M27.64,15.64h-1.28v-1.28h1.279L27.64,15.64L27.64,15.64z M24,3.36
	c0.353,0,0.64,0.287,0.64,0.64v0.64h-1.28V4C23.36,3.647,23.647,3.36,24,3.36z M23.36,5.36h1.279v2.345
	C24.429,7.674,24.219,7.64,24,7.64c-0.217,0-0.428,0.037-0.64,0.068V5.36z M24,8.36c2.007,0,3.64,1.633,3.64,3.64v1.64h-5.28V12
	c0-0.027-0.01-0.051-0.016-0.077c-0.003-0.012,0.001-0.025-0.003-0.037l-0.836-2.509C22.179,8.737,23.064,8.36,24,8.36z M20,7.139
	l1.501,4.501h-3.002L20,7.139z M14.36,16.36V15c0-0.353,0.287-0.64,0.64-0.64s0.64,0.287,0.64,0.64v1.36h2v5.28h-2.28V18
	c0-0.199-0.161-0.36-0.36-0.36s-0.36,0.161-0.36,0.36v3.64h-2.28v-5.28C12.36,16.36,14.36,16.36,14.36,16.36z M10,13.64
	c-0.199,0-0.36,0.161-0.36,0.36v1.64H8.36v-3.28h3.28v3.28h-1.28V14C10.36,13.801,10.199,13.64,10,13.64z M10,7.139l1.5,4.501h-3
	L10,7.139z M8.36,16.36h3.28v5.28h-1.28V18c0-0.199-0.161-0.36-0.36-0.36S9.64,17.801,9.64,18v3.64H8.36V16.36z M4,17.36
	c0.78,0,1.432,0.548,1.597,1.279H2.403C2.568,17.909,3.22,17.36,4,17.36z M3.36,16c0-0.353,0.287-0.64,0.64-0.64
	S4.64,15.647,4.64,16v0.74c-0.205-0.059-0.417-0.1-0.64-0.1s-0.435,0.041-0.64,0.099C3.36,16.739,3.36,16,3.36,16z M2.36,19.36h3.28
	v2.279H2.36V19.36z M3.64,29h0.72v2H3.64V29z M5.64,29h0.72v2H5.64V29z M9.64,29h0.72v2H9.64V29z M11.64,29h0.72v2h-0.72V29z
	 M13.64,29h0.72v2h-0.72V29z M15.64,29h0.72v2h-0.72V29z M17.64,29h0.721v2H17.64V29z M19.64,29h0.721v2H19.64V29z M21.64,29h0.721
	v2H21.64V29z M23.64,29h0.721v2H23.64V29z M25.64,29h0.721v2H25.64V29z M27.64,29h0.721v2H27.64V29z M7.64,29h0.72v2H7.64V29z
	 M4,23.64c-0.75,0-1.36,0.61-1.36,1.36v2.36h2.72V25C5.36,24.25,4.75,23.64,4,23.64z M4.64,26.64H3.36V25
	c0-0.353,0.287-0.64,0.64-0.64S4.64,24.647,4.64,25V26.64z M8,23.64c-0.75,0-1.36,0.61-1.36,1.36v2.36h2.72V25
	C9.36,24.25,8.75,23.64,8,23.64z M8.64,26.64H7.36V25c0-0.353,0.287-0.64,0.64-0.64S8.64,24.647,8.64,25V26.64z M12,23.64
	c-0.75,0-1.36,0.61-1.36,1.36v2.36h2.72V25C13.36,24.25,12.75,23.64,12,23.64z M12.64,26.64h-1.28V25c0-0.353,0.287-0.64,0.64-0.64
	s0.64,0.287,0.64,0.64C12.64,25,12.64,26.64,12.64,26.64z M16,23.64c-0.75,0-1.36,0.61-1.36,1.36v2.36h2.72V25
	C17.36,24.25,16.75,23.64,16,23.64z M16.64,26.64h-1.28V25c0-0.353,0.287-0.64,0.64-0.64s0.64,0.287,0.64,0.64V26.64z M20,23.64
	c-0.75,0-1.36,0.61-1.36,1.36v2.36h2.721V25C21.36,24.25,20.75,23.64,20,23.64z M20.64,26.64h-1.28V25c0-0.353,0.287-0.64,0.64-0.64
	s0.64,0.287,0.64,0.64V26.64z M24,23.64c-0.75,0-1.36,0.61-1.36,1.36v2.36h2.721V25C25.36,24.25,24.75,23.64,24,23.64z M24.64,26.64
	h-1.28V25c0-0.353,0.287-0.64,0.64-0.64s0.64,0.287,0.64,0.64V26.64z M28,23.64c-0.75,0-1.36,0.61-1.36,1.36v2.36h2.721V25
	C29.36,24.25,28.75,23.64,28,23.64z M28.64,26.64h-1.28V25c0-0.353,0.287-0.64,0.64-0.64s0.64,0.287,0.64,0.64V26.64z M26,20.5
	c0-0.276,0.224-0.5,0.5-0.5s0.5,0.224,0.5,0.5S26.776,21,26.5,21S26,20.776,26,20.5z M24,20.5c0-0.276,0.224-0.5,0.5-0.5
	s0.5,0.224,0.5,0.5S24.776,21,24.5,21S24,20.776,24,20.5z"/>
<rect id="_Transparent_Rectangle" style="fill:none;" width="32" height="32"/>
</svg>
