<?xml version="1.0" encoding="iso-8859-1"?>
<!-- Generator: Adobe Illustrator 22.0.0, SVG Export Plug-In . SVG Version: 6.00 Build 0)  -->
<svg version="1.1" xmlns="http://www.w3.org/2000/svg" xmlns:xlink="http://www.w3.org/1999/xlink" x="0px" y="0px"
	 viewBox="0 0 48 48" style="enable-background:new 0 0 48 48;" xml:space="preserve">
<g id="madrid_skyscrapers">
	<rect style="fill:#FFFFFF;" width="48" height="48"/>
	<g id="madrid_skyscrapers_1_">
		<line style="fill:none;stroke:#000000;stroke-width:0.72;stroke-miterlimit:10;" x1="12" y1="38" x2="12" y2="12"/>
		<polyline style="fill:none;stroke:#000000;stroke-width:0.72;stroke-miterlimit:10;" points="25.979,38 26,30 25.938,17.956 
			30,15 31,17 31,37.979 		"/>
		<line style="fill:none;stroke:#000000;stroke-width:0.72;stroke-miterlimit:10;" x1="23" y1="15" x2="23" y2="37.979"/>
		<line style="fill:none;stroke:#000000;stroke-width:0.72;stroke-miterlimit:10;" x1="18" y1="38" x2="18" y2="15"/>
		<path style="fill:none;stroke:#000000;stroke-width:0.72;stroke-miterlimit:10;" d="M39,16c0,9-4.995,11-4.995,21.634"/>
		<line style="fill:none;stroke:#000000;stroke-width:0.72;stroke-miterlimit:10;" x1="26" y1="36.979" x2="30" y2="15"/>
		<polyline style="fill:none;stroke:#000000;stroke-width:0.72;stroke-miterlimit:10;" points="23,18 20,18 20,38 		"/>
		
			<line style="fill:none;stroke:#000000;stroke-width:0.72;stroke-linecap:square;stroke-miterlimit:10;" x1="9" y1="32" x2="10" y2="32"/>
		
			<line style="fill:none;stroke:#000000;stroke-width:0.72;stroke-linecap:square;stroke-miterlimit:10;" x1="9" y1="17" x2="10" y2="17"/>
		
			<line style="fill:none;stroke:#000000;stroke-width:0.72;stroke-linecap:square;stroke-miterlimit:10;" x1="14" y1="24" x2="15" y2="24"/>
		<line style="fill:none;stroke:#000000;stroke-width:0.72;stroke-miterlimit:10;" x1="27" y1="21.956" x2="29" y2="21.956"/>
		<line style="fill:none;stroke:#000000;stroke-width:0.72;stroke-miterlimit:10;" x1="34" y1="19" x2="36" y2="19"/>
		<line style="fill:none;stroke:#000000;stroke-width:0.72;stroke-miterlimit:10;" x1="34" y1="21" x2="36" y2="21"/>
		<line style="fill:none;stroke:#000000;stroke-width:0.72;stroke-miterlimit:10;" x1="37" y1="33" x2="39" y2="33"/>
		<line style="fill:none;stroke:#000000;stroke-width:0.72;stroke-miterlimit:10;" x1="29" y1="33" x2="31" y2="33"/>
		<polyline style="fill:none;stroke:#000000;stroke-width:0.72;stroke-linecap:square;stroke-miterlimit:10;" points="9,38 39,38 
			39,37.979 39,16 33.995,16 34,37.979 34,37.979 		"/>
		<line style="fill:none;stroke:#000000;stroke-width:0.72;stroke-miterlimit:10;" x1="21" y1="26.999" x2="23.063" y2="27"/>
		<line style="fill:none;stroke:#000000;stroke-width:0.72;stroke-miterlimit:10;" x1="21" y1="30" x2="23.063" y2="30.001"/>
		<polyline style="fill:none;stroke:#000000;stroke-width:0.72;stroke-miterlimit:10;" points="10,37.979 10,34 9,34 9,29 10,29 
			10,26.979 9,26.979 9,21.979 10,21.979 10,19.979 9,19.979 9,15 10,15 10,12 14,12 14,15 15,15 15,19.979 14,19.979 14,21.979 
			15,21.979 15,26.979 14,26.979 14,29 15,29 15,34 14,34 14,37.979 		"/>
		<path style="fill:none;stroke:#000000;stroke-width:0.72;stroke-miterlimit:10;" d="M23,15c0-0.552-1.119-1-2.5-1S18,14.448,18,15
			"/>
	</g>
</g>
<g id="Layer_1">
</g>
</svg>
