<?xml version="1.0" encoding="iso-8859-1"?>
<!-- Generator: Adobe Illustrator 29.0.1, SVG Export Plug-In . SVG Version: 9.03 Build 54978)  -->
<svg version="1.1" id="Layer_1" xmlns="http://www.w3.org/2000/svg" xmlns:xlink="http://www.w3.org/1999/xlink" x="0px" y="0px"
	 viewBox="0 0 32 32" style="enable-background:new 0 0 32 32;" xml:space="preserve">
<path id="magic-wand_00000000186380110704980310000015983719565240574595_" d="M3.754,10.246c-0.141-0.141-0.368-0.141-0.509,0
	l-1.5,1.5c-0.141,0.141-0.141,0.368,0,0.509l1.5,1.5c0.07,0.07,0.162,0.105,0.254,0.105s0.184-0.035,0.254-0.105l1.5-1.5
	c0.141-0.141,0.141-0.368,0-0.509L3.754,10.246z M3.5,12.991L2.509,12L3.5,11.009L4.491,12L3.5,12.991z M4.746,5.254
	C4.816,5.325,4.908,5.36,5,5.36s0.184-0.035,0.254-0.105l1.5-1.5c0.141-0.141,0.141-0.368,0-0.509l-1.5-1.5
	c-0.141-0.141-0.368-0.141-0.509,0l-1.5,1.5c-0.141,0.141-0.141,0.368,0,0.509L4.746,5.254z M5,2.509L5.991,3.5L5,4.491L4.009,3.5
	L5,2.509z M10.972,4.864C11.954,5.109,12.64,5.988,12.64,7c0,0.199,0.161,0.36,0.36,0.36S13.36,7.199,13.36,7
	c0-1.012,0.686-1.891,1.729-2.151c0.159-0.04,0.271-0.184,0.271-0.349s-0.112-0.309-0.271-0.349l-0.06-0.015h-0.001
	C14.046,3.891,13.36,3.012,13.36,2c0-0.199-0.161-0.36-0.36-0.36S12.64,1.801,12.64,2c0,1.012-0.686,1.891-1.729,2.151
	c-0.16,0.041-0.242,0.192-0.241,0.357C10.67,4.673,10.812,4.825,10.972,4.864z M13,3.407c0.246,0.447,0.606,0.826,1.048,1.093
	c-0.443,0.268-0.804,0.647-1.05,1.095c-0.245-0.443-0.606-0.82-1.055-1.09C12.39,4.237,12.753,3.857,13,3.407z M10.089,16.151
	l-0.06-0.015h-0.001C9.046,15.891,8.36,15.012,8.36,14c0-0.199-0.161-0.36-0.36-0.36S7.64,13.801,7.64,14
	c0,1.012-0.686,1.891-1.729,2.151c-0.16,0.041-0.242,0.192-0.241,0.357c0,0.165,0.143,0.316,0.302,0.356
	C6.954,17.109,7.64,17.987,7.64,19c0,0.199,0.161,0.36,0.36,0.36S8.36,19.199,8.36,19c0-1.013,0.686-1.891,1.729-2.151
	c0.159-0.041,0.271-0.185,0.271-0.349S10.248,16.191,10.089,16.151z M7.999,17.595c-0.245-0.442-0.606-0.819-1.055-1.09
	C7.39,16.237,7.753,15.857,8,15.407c0.246,0.447,0.606,0.826,1.048,1.093C8.605,16.768,8.244,17.146,7.999,17.595z M30.255,28.245
	l-22-22c-0.141-0.141-0.368-0.141-0.509,0l-1.5,1.5c-0.141,0.141-0.141,0.368,0,0.509l22,22c0.07,0.07,0.163,0.105,0.255,0.105
	s0.185-0.035,0.255-0.105l1.5-1.5C30.396,28.614,30.396,28.386,30.255,28.245z M8,7.009l5.741,5.741l-0.991,0.991L7.009,8L8,7.009z
	 M28.5,29.491L13.259,14.25l0.991-0.991L29.491,28.5L28.5,29.491z"/>
<rect id="_Transparent_Rectangle" style="fill:none;" width="32" height="32"/>
</svg>
