<?xml version="1.0" encoding="iso-8859-1"?>
<!-- Generator: Adobe Illustrator 27.5.0, SVG Export Plug-In . SVG Version: 6.00 Build 0)  -->
<svg version="1.1" id="Layer_1" xmlns="http://www.w3.org/2000/svg" xmlns:xlink="http://www.w3.org/1999/xlink" x="0px" y="0px"
	 viewBox="0 0 32 32" style="enable-background:new 0 0 32 32;" xml:space="preserve">
<path id="management_00000181797897667548061590000001996870805741394830_" d="M30,31.36c-0.75,0-1.36-0.61-1.36-1.36
	c0-0.625,0.425-1.153,1-1.312v-6.377c-0.461-0.127-0.824-0.49-0.951-0.951H17.312c-0.127,0.461-0.491,0.824-0.952,0.951v6.377
	c0.576,0.158,1,0.687,1,1.312c0,0.75-0.61,1.36-1.36,1.36s-1.36-0.61-1.36-1.36c0-0.625,0.424-1.153,1-1.312v-6.377
	c-0.461-0.127-0.825-0.49-0.952-0.951H3.312c-0.126,0.461-0.491,0.824-0.952,0.951v6.377c0.576,0.158,1,0.687,1,1.312
	c0,0.75-0.61,1.36-1.36,1.36S0.64,30.75,0.64,30c0-0.625,0.424-1.153,1-1.312v-6.377c-0.576-0.158-1-0.687-1-1.312
	c0-0.75,0.61-1.36,1.36-1.36c0.625,0,1.153,0.425,1.312,1H8.64v-8.328c-0.576-0.158-1-0.686-1-1.312c0-0.75,0.61-1.36,1.36-1.36
	c0.625,0,1.153,0.424,1.312,1h5.329V3.312c-0.576-0.158-1-0.686-1-1.312c0-0.75,0.61-1.36,1.36-1.36c0.75,0,1.359,0.61,1.359,1.36
	c0,0.625-0.425,1.153-1,1.312v7.329h5.329c0.158-0.576,0.687-1,1.312-1c0.75,0,1.36,0.61,1.36,1.36c0,0.625-0.425,1.153-1,1.312
	v8.328h5.328c0.158-0.575,0.687-1,1.312-1c0.75,0,1.36,0.61,1.36,1.36c0,0.625-0.425,1.153-1,1.312v6.377
	c0.575,0.158,1,0.687,1,1.312C31.36,30.75,30.75,31.36,30,31.36z M30,29.36c-0.353,0-0.64,0.287-0.64,0.64s0.287,0.64,0.64,0.64
	s0.64-0.287,0.64-0.64S30.353,29.36,30,29.36z M16,29.36c-0.353,0-0.64,0.287-0.64,0.64s0.287,0.64,0.64,0.64s0.64-0.287,0.64-0.64
	S16.353,29.36,16,29.36z M2,29.36c-0.353,0-0.64,0.287-0.64,0.64S1.647,30.64,2,30.64S2.64,30.353,2.64,30S2.353,29.36,2,29.36z
	 M30,20.36c-0.353,0-0.64,0.287-0.64,0.64s0.287,0.64,0.64,0.64s0.64-0.287,0.64-0.64S30.353,20.36,30,20.36z M16,20.36
	c-0.353,0-0.64,0.287-0.64,0.64s0.287,0.64,0.64,0.64s0.64-0.287,0.64-0.64S16.353,20.36,16,20.36z M2,20.36
	c-0.353,0-0.64,0.287-0.64,0.64S1.647,21.64,2,21.64S2.64,21.353,2.64,21S2.353,20.36,2,20.36z M17.312,20.64h5.328v-8.328
	c-0.461-0.126-0.824-0.491-0.951-0.952H10.312c-0.126,0.461-0.491,0.825-0.952,0.952v8.328h5.329c0.158-0.575,0.686-1,1.312-1
	C16.627,19.64,17.153,20.064,17.312,20.64z M23,10.36c-0.353,0-0.64,0.287-0.64,0.64s0.287,0.64,0.64,0.64s0.64-0.287,0.64-0.64
	S23.353,10.36,23,10.36z M9,10.36c-0.353,0-0.64,0.287-0.64,0.64S8.647,11.64,9,11.64S9.64,11.353,9.64,11S9.353,10.36,9,10.36z
	 M16,1.36c-0.353,0-0.64,0.287-0.64,0.64S15.647,2.64,16,2.64c0.353,0,0.64-0.287,0.64-0.64S16.353,1.36,16,1.36z"/>
<rect id="_Transparent_Rectangle" style="fill:none;" width="32" height="32"/>
</svg>
