<?xml version="1.0" encoding="iso-8859-1"?>
<!-- Generator: Adobe Illustrator 27.5.0, SVG Export Plug-In . SVG Version: 6.00 Build 0)  -->
<svg version="1.1" id="Layer_1" xmlns="http://www.w3.org/2000/svg" xmlns:xlink="http://www.w3.org/1999/xlink" x="0px" y="0px"
	 viewBox="0 0 32 32" style="enable-background:new 0 0 32 32;" xml:space="preserve">
<path id="managed-hosting--02_00000150103850304388914190000012282948830418743977_" d="M16,31.36c-0.75,0-1.36-0.61-1.36-1.36
	c0-0.625,0.424-1.153,1-1.312v-7.341c-1.208-0.08-2.307-0.562-3.166-1.313l-5.292,5.293C7.298,25.529,7.36,25.76,7.36,26
	c0,0.363-0.141,0.705-0.398,0.962c-0.53,0.529-1.393,0.529-1.923,0c-0.53-0.53-0.53-1.394,0-1.924
	c0.426-0.427,1.124-0.511,1.635-0.221l5.292-5.292c-0.751-0.858-1.233-1.958-1.313-3.166h-7.34c-0.158,0.576-0.686,1-1.312,1
	c-0.75,0-1.36-0.61-1.36-1.36S1.25,14.64,2,14.64c0.625,0,1.153,0.424,1.312,1h7.34c0.081-1.208,0.563-2.307,1.314-3.166
	L6.673,7.182c-0.51,0.293-1.208,0.207-1.634-0.221c-0.53-0.53-0.53-1.393,0-1.923s1.393-0.53,1.923,0C7.219,5.295,7.36,5.637,7.36,6
	c0,0.24-0.062,0.47-0.178,0.673l5.292,5.292c0.858-0.751,1.958-1.233,3.166-1.314v-7.34c-0.576-0.158-1-0.686-1-1.312
	c0-0.75,0.61-1.36,1.36-1.36c0.75,0,1.36,0.611,1.36,1.361c0,0.625-0.425,1.153-1,1.312v7.34c1.208,0.081,2.307,0.562,3.166,1.313
	l5.292-5.292C24.702,6.47,24.64,6.24,24.64,6c0-0.363,0.142-0.705,0.398-0.961c0.531-0.53,1.393-0.53,1.924,0
	c0.53,0.53,0.53,1.393,0,1.923c-0.427,0.427-1.128,0.512-1.635,0.221l-5.293,5.292c0.751,0.858,1.233,1.958,1.313,3.166h7.341
	c0.158-0.576,0.687-1,1.312-1c0.75,0,1.36,0.61,1.36,1.36c0,0.75-0.61,1.36-1.36,1.36c-0.625,0-1.153-0.425-1.312-1h-7.341
	c-0.08,1.208-0.562,2.307-1.313,3.166l5.293,5.292c0.507-0.289,1.208-0.206,1.635,0.221c0.53,0.53,0.53,1.394,0,1.924
	c-0.531,0.529-1.393,0.529-1.924,0C24.781,26.705,24.64,26.363,24.64,26c0-0.24,0.062-0.471,0.178-0.673l-5.292-5.293
	c-0.858,0.751-1.958,1.233-3.166,1.313v7.341c0.576,0.158,1,0.687,1,1.312C17.36,30.75,16.75,31.36,16,31.36z M16,29.36
	c-0.353,0-0.64,0.287-0.64,0.64s0.287,0.64,0.64,0.64s0.64-0.287,0.64-0.64S16.353,29.36,16,29.36z M26,25.36
	c-0.171,0-0.331,0.066-0.452,0.188S25.36,25.829,25.36,26s0.066,0.331,0.188,0.452c0.248,0.25,0.656,0.25,0.904,0
	c0.25-0.249,0.25-0.655,0-0.904C26.331,25.427,26.171,25.36,26,25.36z M6,25.36c-0.171,0-0.332,0.066-0.453,0.188
	c-0.25,0.249-0.25,0.655,0,0.904c0.25,0.25,0.655,0.25,0.905,0C6.573,26.331,6.64,26.171,6.64,26s-0.067-0.331-0.188-0.452
	C6.332,25.427,6.171,25.36,6,25.36z M16,11.36c-2.559,0-4.64,2.082-4.64,4.64s2.082,4.64,4.64,4.64s4.64-2.081,4.64-4.64
	S18.559,11.36,16,11.36z M30,15.36c-0.353,0-0.64,0.287-0.64,0.64s0.287,0.64,0.64,0.64s0.64-0.287,0.64-0.64S30.353,15.36,30,15.36
	z M2,15.36c-0.353,0-0.64,0.287-0.64,0.64S1.647,16.64,2,16.64S2.64,16.353,2.64,16S2.353,15.36,2,15.36z M26,5.36
	c-0.164,0-0.328,0.062-0.452,0.187C25.427,5.668,25.36,5.829,25.36,6s0.066,0.332,0.188,0.453c0.242,0.241,0.662,0.241,0.904,0
	c0.25-0.25,0.25-0.656,0-0.905C26.328,5.423,26.164,5.36,26,5.36z M6,5.36c-0.164,0-0.328,0.062-0.453,0.187
	c-0.25,0.25-0.25,0.656,0,0.905c0.242,0.241,0.663,0.241,0.905,0C6.573,6.332,6.64,6.171,6.64,6S6.573,5.668,6.453,5.547
	C6.328,5.423,6.164,5.36,6,5.36z M16,1.36c-0.353,0-0.64,0.287-0.64,0.64S15.647,2.64,16,2.64c0.353,0,0.64-0.287,0.64-0.64
	S16.353,1.36,16,1.36z"/>
<rect id="_Transparent_Rectangle" style="fill:none;" width="32" height="32"/>
</svg>
