<svg xmlns="http://www.w3.org/2000/svg" viewBox="0 0 48 48"><path fill="none" stroke-linejoin="round" stroke-miterlimit="10" stroke-width=".72" d="M27,12 c0,1.657-1.343,3-3,3s-3-1.343-3-3s1.343-3,3-3S27,10.343,27,12z M13.393,13.393c-1.172,1.172-1.172,3.071,0,4.243 c1.172,1.172,3.071,1.172,4.243,0c1.172-1.172,1.172-3.071,0-4.243C16.464,12.222,14.565,12.222,13.393,13.393z M9,24 c0,1.657,1.343,3,3,3s3-1.343,3-3s-1.343-3-3-3S9,22.343,9,24z M13.393,34.607c1.172,1.172,3.071,1.172,4.243,0 c1.172-1.172,1.172-3.071,0-4.243c-1.172-1.172-3.071-1.172-4.243,0C12.222,31.536,12.222,33.435,13.393,34.607z M24,39 c1.657,0,3-1.343,3-3s-1.343-3-3-3s-3,1.343-3,3S22.343,39,24,39z M34.607,34.607c1.172-1.172,1.172-3.071,0-4.243 c-1.172-1.172-3.071-1.172-4.243,0c-1.172,1.172-1.172,3.071,0,4.243C31.536,35.778,33.435,35.778,34.607,34.607z M39,24 c0-1.657-1.343-3-3-3s-3,1.343-3,3s1.343,3,3,3S39,25.657,39,24z M34.607,13.393c-1.172-1.172-3.071-1.172-4.243,0 c-1.172,1.172-1.172,3.071,0,4.243c1.172,1.172,3.071,1.172,4.243,0C35.778,16.464,35.778,14.565,34.607,13.393z"/><line x1="24" x2="24" y1="18" y2="30" fill="none" stroke-linejoin="round" stroke-miterlimit="10" stroke-width=".752"/><line x1="18" x2="30" y1="24" y2="24" fill="none" stroke-linejoin="round" stroke-miterlimit="10" stroke-width=".752"/><line x1="19.757" x2="28.243" y1="19.757" y2="28.243" fill="none" stroke-linejoin="round" stroke-miterlimit="10" stroke-width=".752"/><line x1="19.757" x2="28.243" y1="28.243" y2="19.757" fill="none" stroke-linejoin="round" stroke-miterlimit="10" stroke-width=".752"/></svg>