<?xml version="1.0" encoding="iso-8859-1"?>
<!-- Generator: Adobe Illustrator 24.1.2, SVG Export Plug-In . SVG Version: 6.00 Build 0)  -->
<svg version="1.1" id="Layer_1" xmlns="http://www.w3.org/2000/svg" xmlns:xlink="http://www.w3.org/1999/xlink" x="0px" y="0px"
	 viewBox="0 0 32 32" style="enable-background:new 0 0 32 32;" xml:space="preserve">
<path id="marketplace_1_" d="M7.515,10.873c0.86,0,1.721-0.327,2.376-0.982c1.31-1.31,1.31-3.442,0-4.751
	c-1.27-1.27-3.483-1.27-4.751,0C4.504,5.773,4.155,6.617,4.155,7.515s0.35,1.741,0.984,2.376
	C5.794,10.546,6.654,10.873,7.515,10.873z M5.648,5.648C6.146,5.149,6.81,4.875,7.515,4.875S8.883,5.15,9.382,5.648
	c1.029,1.029,1.029,2.704,0,3.734c-1.031,1.028-2.705,1.028-3.734,0C5.149,8.883,4.875,8.22,4.875,7.515S5.149,6.146,5.648,5.648z
	 M16,7.36c1.853,0,3.36-1.507,3.36-3.36S17.853,0.64,16,0.64S12.64,2.147,12.64,4S14.147,7.36,16,7.36z M16,1.36
	c1.456,0,2.64,1.185,2.64,2.64S17.456,6.64,16,6.64S13.36,5.455,13.36,4S14.544,1.36,16,1.36z M24.485,10.875
	c0.897,0,1.741-0.35,2.376-0.984s0.984-1.479,0.984-2.376s-0.35-1.741-0.984-2.375c-1.27-1.27-3.482-1.27-4.752,0
	c-0.635,0.634-0.984,1.478-0.984,2.375s0.35,1.741,0.984,2.376S23.588,10.875,24.485,10.875z M22.619,5.648
	c0.498-0.499,1.161-0.773,1.866-0.773s1.368,0.275,1.866,0.773c0.499,0.499,0.773,1.162,0.773,1.867s-0.274,1.368-0.773,1.867
	c-0.996,0.997-2.736,0.997-3.732,0c-0.499-0.499-0.773-1.162-0.773-1.867S22.12,6.146,22.619,5.648z M28,12.64
	c-1.853,0-3.36,1.507-3.36,3.36s1.508,3.36,3.36,3.36s3.36-1.508,3.36-3.36S29.853,12.64,28,12.64z M28,18.64
	c-1.456,0-2.64-1.184-2.64-2.64s1.184-2.64,2.64-2.64s2.64,1.185,2.64,2.64C30.64,17.456,29.456,18.64,28,18.64z M7.36,16
	c0-1.853-1.507-3.36-3.36-3.36S0.64,14.147,0.64,16S2.147,19.36,4,19.36S7.36,17.853,7.36,16z M4,18.64
	c-1.456,0-2.64-1.184-2.64-2.64S2.545,13.36,4,13.36S6.64,14.544,6.64,16S5.456,18.64,4,18.64z M22.109,22.109
	c-0.635,0.635-0.984,1.479-0.984,2.376s0.35,1.741,0.984,2.376s1.479,0.984,2.376,0.984s1.741-0.35,2.376-0.984
	s0.984-1.479,0.984-2.376s-0.35-1.741-0.984-2.376C25.592,20.84,23.379,20.84,22.109,22.109z M26.352,26.352
	c-0.996,0.998-2.736,0.998-3.732,0c-0.499-0.498-0.773-1.161-0.773-1.866s0.274-1.368,0.773-1.866
	c0.498-0.499,1.161-0.773,1.866-0.773s1.368,0.274,1.866,0.773c0.499,0.498,0.773,1.161,0.773,1.866S26.851,25.854,26.352,26.352z
	 M5.139,22.109c-0.635,0.635-0.984,1.479-0.984,2.376s0.35,1.741,0.984,2.376s1.478,0.984,2.375,0.984s1.741-0.35,2.376-0.984
	s0.984-1.479,0.984-2.376s-0.35-1.741-0.984-2.376C8.621,20.84,6.408,20.84,5.139,22.109z M9.382,26.352
	c-0.998,0.998-2.737,0.998-3.734,0c-0.499-0.498-0.773-1.161-0.773-1.866s0.275-1.368,0.773-1.866
	c0.499-0.499,1.162-0.773,1.867-0.773s1.368,0.274,1.867,0.773c0.499,0.498,0.773,1.161,0.773,1.866S9.88,25.854,9.382,26.352z
	 M16,24.64c-1.853,0-3.36,1.508-3.36,3.36s1.507,3.36,3.36,3.36s3.36-1.508,3.36-3.36S17.853,24.64,16,24.64z M16,30.64
	c-1.456,0-2.64-1.184-2.64-2.64s1.185-2.64,2.64-2.64c1.456,0,2.64,1.184,2.64,2.64S17.456,30.64,16,30.64z M16.869,16.36
	l3.628,3.627l-0.51,0.51l-3.627-3.628V22h-0.72v-5.131l-3.628,3.628l-0.509-0.51l3.627-3.627H10v-0.72h5.131l-3.628-3.628
	l0.509-0.509l3.628,3.628V10h0.72v5.13l3.627-3.627l0.51,0.509l-3.628,3.628H22v0.72H16.869z"/>
<rect id="_Transparent_Rectangle" style="fill:none;" width="32" height="32"/>
</svg>
