<svg width="55px" height="55px" viewBox="0 0 55 55" xmlns="http://www.w3.org/2000/svg"><path d="M27.5007997,30.3306406 C30.4305873,30.3306406 32.8136013,32.7706209 32.8136013,35.770713 C32.8136013,38.7697922 30.4305873,41.2097726 27.5007997,41.2097726 C24.5720116,41.2097726 22.1889977,38.7697922 22.1889977,35.770713 C22.1889977,32.7706209 24.5720116,30.3306406 27.5007997,30.3306406 Z M27.5007997,40.3336484 C29.9527851,40.3336484 31.9479595,38.2866579 31.9479595,35.770713 C31.9479595,34.9381419 31.7130567,34.1673552 31.3322143,33.494816 L27.8296636,36.0715325 L25.682552,39.9244529 C26.2383221,40.1827323 26.8520681,40.3336484 27.5007997,40.3336484 Z M23.0546395,35.770713 C23.0546395,37.3041834 23.8003309,38.655339 24.9338619,39.4828458 L26.9110437,35.9368221 L23.4304839,33.9455388 C23.1915828,34.5056505 23.0546395,35.1214696 23.0546395,35.770713 Z M27.5007997,31.2067647 C25.9874259,31.2067647 24.6529781,31.9907185 23.8493106,33.1788036 L27.4718117,35.2501028 L30.8314215,32.7787238 C30.015759,31.8235966 28.8332483,31.2067647 27.5007997,31.2067647 Z M38.9872467,37.9765201 C40.1717565,37.9765201 41.1343582,36.9859427 41.1343582,35.7705104 C41.1343582,34.5540653 40.1717565,33.5645008 38.9872467,33.5645008 C37.8027368,33.5645008 36.8401351,34.5540653 36.8401351,35.7705104 C36.8401351,36.9859427 37.8027368,37.9765201 38.9872467,37.9765201 Z M37.4168965,43.1238759 C38.0436371,43.1238759 38.5524266,42.5982014 38.5524266,41.9540223 L38.5524266,38.8080783 C37.0980284,38.5893005 35.9734937,37.3181609 35.9734937,35.7705104 C35.9734937,34.2228599 37.0980284,32.9496946 38.5534262,32.7319297 L38.5534262,29.5880114 C38.5534262,28.9428194 38.0436371,28.417145 37.4168965,28.417145 L17.5831035,28.417145 C16.9563629,28.417145 16.4475734,28.9428194 16.4475734,29.5880114 L16.4475734,32.7319297 C17.9019716,32.9496946 19.0265063,34.2228599 19.0265063,35.7705104 C19.0265063,37.3181609 17.9019716,38.5903134 16.4475734,38.8080783 L16.4475734,41.9540223 C16.4475734,42.5982014 16.9563629,43.1238759 17.5831035,43.1238759 L37.4168965,43.1238759 Z M13.8656418,35.7705104 C13.8656418,36.9859427 14.8292431,37.9765201 16.0137529,37.9765201 C17.1972632,37.9765201 18.1608645,36.9859427 18.1608645,35.7705104 C18.1608645,34.5540653 17.1972632,33.5645008 16.0137529,33.5645008 C14.8292431,33.5645008 13.8656418,34.5540653 13.8656418,35.7705104 Z M25.1349786,23.7792578 C22.85992,24.3332924 20.8677444,25.6601393 19.4383359,27.5410208 L35.5616641,27.5410208 C34.1322556,25.6601393 32.1390804,24.3332924 29.8650214,23.7792578 C29.6840962,23.7357049 29.5521508,23.5807372 29.5341583,23.394371 C29.5171653,23.2069918 29.6191231,23.0297413 29.7880532,22.9537767 C31.8262098,22.0249839 33.1436647,19.9496332 33.1436647,17.6656333 C33.1436647,14.4741107 30.6117124,11.8761241 27.5,11.8761241 C24.3882876,11.8761241 21.8563353,14.4741107 21.8563353,17.6656333 C21.8563353,19.9496332 23.1737902,22.0249839 25.2109472,22.9537767 C25.3798773,23.0297413 25.4818351,23.2080047 25.4648421,23.394371 C25.4478492,23.5807372 25.3149042,23.7357049 25.1349786,23.7792578 Z M42,35.7705104 C42,37.3191738 40.8744657,38.5913262 39.419068,38.8080783 L39.419068,41.9540223 C39.419068,43.0823486 38.5204398,44 37.4168965,44 L17.5831035,44 C16.4795602,44 15.580932,43.0823486 15.580932,41.9540223 L15.580932,38.8080783 C14.1255343,38.5913262 13,37.3191738 13,35.7705104 C13,34.2218471 14.1255343,32.9486817 15.580932,32.7319297 L15.580932,29.5880114 C15.580932,28.4596851 16.4795602,27.5410208 17.5831035,27.5410208 L18.3707776,27.5410208 C19.7342134,25.5153003 21.6684131,24.01019 23.9164828,23.2262361 C22.1112298,22.0067524 20.9906935,19.9243117 20.9906935,17.6656333 C20.9906935,13.9899635 23.9104853,11 27.5,11 C31.0895147,11 34.0093065,13.9899635 34.0093065,17.6656333 C34.0093065,19.9253246 32.8887702,22.0067524 31.0825176,23.2262361 C33.3315869,24.01019 35.264787,25.5142875 36.630222,27.5410208 L37.4168965,27.5410208 C38.5204398,27.5410208 39.419068,28.4596851 39.419068,29.5880114 L39.419068,32.7319297 C40.8754653,32.9486817 42,34.2218471 42,35.7705104 Z"></path></svg>
