<?xml version="1.0" encoding="iso-8859-1"?>
<!-- Generator: Adobe Illustrator 24.1.2, SVG Export Plug-In . SVG Version: 6.00 Build 0)  -->
<svg version="1.1" id="Layer_1" xmlns="http://www.w3.org/2000/svg" xmlns:xlink="http://www.w3.org/1999/xlink" x="0px" y="0px"
	 viewBox="0 0 32 32" style="enable-background:new 0 0 32 32;" xml:space="preserve">
<path id="mas_2_" d="M3.69,15.996V8.771h1.12v1.163h0.056C4.95,9.75,5.045,9.576,5.153,9.415s0.238-0.303,0.392-0.423
	c0.154-0.12,0.333-0.215,0.539-0.284c0.205-0.069,0.448-0.104,0.728-0.104c0.476,0,0.915,0.113,1.316,0.34s0.7,0.599,0.896,1.117
	h0.028c0.131-0.388,0.376-0.729,0.735-1.02c0.359-0.292,0.847-0.438,1.463-0.438c0.737,0,1.313,0.241,1.729,0.721
	c0.415,0.48,0.623,1.16,0.623,2.037v4.634h-1.12v-4.448c0-0.645-0.126-1.132-0.378-1.459C11.852,9.76,11.451,9.597,10.9,9.597
	c-0.224,0-0.437,0.028-0.637,0.084c-0.201,0.057-0.38,0.141-0.539,0.253s-0.285,0.255-0.378,0.428
	c-0.094,0.173-0.14,0.376-0.14,0.61v5.023h-1.12v-4.448c0-0.645-0.126-1.132-0.378-1.459c-0.252-0.327-0.644-0.49-1.176-0.49
	c-0.224,0-0.439,0.028-0.644,0.084C5.683,9.738,5.5,9.822,5.342,9.935s-0.287,0.255-0.385,0.428s-0.147,0.376-0.147,0.61v5.023H3.69
	z M21.161,15.996c-0.42,0-0.721-0.112-0.902-0.336c-0.183-0.224-0.297-0.504-0.344-0.84h-0.069c-0.159,0.448-0.42,0.784-0.784,1.008
	s-0.798,0.336-1.302,0.336c-0.766,0-1.36-0.196-1.785-0.588s-0.637-0.924-0.637-1.596c0-0.681,0.25-1.204,0.749-1.568
	c0.499-0.364,1.275-0.546,2.33-0.546h1.429v-0.714c0-0.513-0.141-0.905-0.42-1.176c-0.28-0.271-0.71-0.406-1.288-0.406
	c-0.439,0-0.806,0.098-1.1,0.294c-0.293,0.196-0.539,0.457-0.734,0.784l-0.672-0.63c0.196-0.392,0.508-0.726,0.938-1.001
	c0.429-0.275,0.97-0.413,1.624-0.413c0.877,0,1.559,0.214,2.044,0.643s0.729,1.024,0.729,1.788v3.967h0.825v0.994
	C21.792,15.996,21.161,15.996,21.161,15.996z M17.941,15.211c0.28,0,0.537-0.032,0.771-0.098c0.232-0.065,0.434-0.159,0.602-0.28
	c0.168-0.121,0.299-0.261,0.392-0.42c0.094-0.159,0.141-0.331,0.141-0.518v-1.19h-1.484c-0.644,0-1.113,0.093-1.407,0.28
	c-0.294,0.187-0.441,0.457-0.441,0.812v0.294c0,0.354,0.128,0.63,0.385,0.826C17.155,15.114,17.503,15.211,17.941,15.211z
	 M25.558,16.164c-0.672,0-1.234-0.128-1.688-0.385c-0.452-0.257-0.842-0.6-1.169-1.029l0.798-0.644
	c0.28,0.355,0.593,0.628,0.938,0.819s0.747,0.287,1.204,0.287c0.476,0,0.847-0.103,1.113-0.308c0.266-0.206,0.398-0.495,0.398-0.868
	c0-0.28-0.091-0.52-0.272-0.721c-0.183-0.201-0.512-0.338-0.987-0.413l-0.574-0.084c-0.336-0.046-0.644-0.119-0.924-0.217
	s-0.525-0.229-0.735-0.392c-0.21-0.163-0.373-0.366-0.489-0.609c-0.117-0.243-0.176-0.532-0.176-0.868
	c0-0.354,0.065-0.665,0.196-0.931c0.131-0.266,0.311-0.488,0.539-0.665s0.502-0.311,0.819-0.399
	c0.316-0.089,0.657-0.133,1.021-0.133c0.588,0,1.08,0.103,1.478,0.308c0.396,0.206,0.744,0.49,1.043,0.854l-0.742,0.672
	c-0.159-0.224-0.393-0.427-0.7-0.609s-0.695-0.273-1.162-0.273s-0.818,0.101-1.057,0.301c-0.238,0.201-0.357,0.474-0.357,0.819
	c0,0.354,0.119,0.611,0.357,0.77s0.581,0.275,1.029,0.35l0.56,0.084c0.803,0.122,1.372,0.353,1.708,0.693s0.504,0.786,0.504,1.337
	c0,0.7-0.238,1.251-0.714,1.652C27.042,15.963,26.388,16.164,25.558,16.164z M31,31.36H1v-0.72h30V31.36z M31,24.36H1
	c-0.199,0-0.36-0.161-0.36-0.36V1c0-0.199,0.161-0.36,0.36-0.36h30c0.199,0,0.36,0.161,0.36,0.36v23
	C31.36,24.199,31.199,24.36,31,24.36z M1.36,23.64h29.28V1.36H1.36V23.64z"/>
<rect id="_Transparent_Rectangle" style="fill:none;" width="32" height="32"/>
</svg>
