<?xml version="1.0" encoding="iso-8859-1"?>
<!-- Generator: Adobe Illustrator 24.1.2, SVG Export Plug-In . SVG Version: 6.00 Build 0)  -->
<svg version="1.1" id="Layer_1" xmlns="http://www.w3.org/2000/svg" xmlns:xlink="http://www.w3.org/1999/xlink" x="0px" y="0px"
	 viewBox="0 0 32 32" style="enable-background:new 0 0 32 32;" xml:space="preserve">
<path id="math--curve_1_" d="M31,31.4H1c-0.2,0-0.4-0.2-0.4-0.4V1h0.7v29.6H31V31.4z M4.3,28.3l-0.5-0.5l5.7-5.7
	c-4.3-2.4-6,0-6.1,0.1l-0.6-0.4c0,0,2.2-3.1,7.2-0.3l6.1-6.1c-2-4.2-3.9-8.1-2.3-9.7c2.1-2.1,7.8,1.8,9.2,2.8l5.8-5.8l0.5,0.5
	l-5.7,5.7c1.4,0.8,2.7,1,3.9,0.7c1.5-0.4,2.2-1.8,2.2-1.8l0.6,0.3c0,0.1-0.8,1.6-2.6,2.1c-1.4,0.4-2.9,0.1-4.6-0.9L17,15.4
	c2,4.2,3.9,8.1,2.3,9.7c-2.1,2.1-7.8-1.8-9.2-2.8L4.3,28.3z M10.6,22c2.1,1.5,6.7,4.3,8.2,2.8c1.2-1.2-0.6-5.1-2.3-8.6L10.6,22z
	 M15.5,5.8c-0.5,0-0.9,0.1-1.2,0.4c-1.2,1.2,0.6,5.1,2.3,8.6L22.4,9C20.8,7.8,17.5,5.8,15.5,5.8z"/>
<rect id="_Transparent_Rectangle" style="fill:none;" width="32" height="32"/>
</svg>
