<?xml version="1.0" encoding="iso-8859-1"?>
<!-- Generator: Adobe Illustrator 29.1.0, SVG Export Plug-In . SVG Version: 9.03 Build 55587)  -->
<svg version="1.1" id="Layer_1" xmlns="http://www.w3.org/2000/svg" xmlns:xlink="http://www.w3.org/1999/xlink" x="0px" y="0px"
	 viewBox="0 0 32 32" style="enable-background:new 0 0 32 32;" xml:space="preserve">
<g id="mcgill-university--morrice-hall_00000118381895128826778220000004995083072154839478_">
	<path d="M29,24.64h-0.645l-0.003-3.71l-1-5c-0.033-0.169-0.18-0.29-0.352-0.29H12.36v-2.28H13c0.199,0,0.36-0.161,0.36-0.36v-2
		c0-0.039-0.006-0.077-0.019-0.114L12.36,7.941V6h-0.72v1.941l-0.66,1.98L8.36,2.935V1H7.64v1.935L5.02,9.921l-0.66-1.98V6H3.64
		v1.941l-0.981,2.945C2.646,10.923,2.64,10.961,2.64,11v2c0,0.199,0.161,0.36,0.36,0.36h0.64v7.28H3v0.721h0.64v1.581l-0.981,2.944
		C2.646,25.923,2.64,25.961,2.64,26v5c0,0.199,0.161,0.36,0.36,0.36h26v-0.72h-0.641l-0.001-1.279H29V28.64h-0.642l-0.002-3.279H29
		V24.64z M26.705,16.36l0.862,4.28H24.36V19c0-0.071-0.021-0.141-0.061-0.199l-1.627-2.441H26.705z M23.64,19.109v1.53h-1.28V19
		c0-0.199-0.161-0.36-0.36-0.36s-0.36,0.161-0.36,0.36v1.64h-1.28v-1.53L22,16.65L23.64,19.109z M21.327,16.36L19.7,18.801
		c-0.039,0.058-0.06,0.128-0.06,0.199v1.64h-1.28V19c0-0.071-0.021-0.141-0.061-0.199l-1.627-2.441H21.327z M17.64,19.109v1.53
		h-1.28V19c0-0.199-0.161-0.36-0.36-0.36s-0.36,0.161-0.36,0.36v1.64h-1.28v-1.53L16,16.65L17.64,19.109z M15.327,16.36
		l-1.626,2.441C13.661,18.86,13.64,18.929,13.64,19v1.64h-1.28v-4.28C12.36,16.36,15.327,16.36,15.327,16.36z M12,9.139l0.5,1.501
		h-1L12,9.139z M11.36,11.36h1.28v1.28h-1.28V11.36z M23.64,26v2.64h-1.28v-3.28h1.25C23.626,25.562,23.64,25.769,23.64,26z
		 M20.487,24.64c0.255-1.219,0.863-1.789,1.514-2.215c0.65,0.421,1.257,0.989,1.511,2.215H20.487z M21.64,25.36v3.279h-1.28V26
		c0-0.231,0.013-0.438,0.029-0.64H21.64z M19.64,26v2.64h-1.28V26c0-0.232-0.019-0.433-0.034-0.64h1.347
		C19.658,25.567,19.639,25.768,19.64,26z M17.64,26v2.64h-1.28v-3.28h1.25C17.626,25.562,17.64,25.769,17.64,26z M14.487,24.64
		c0.255-1.219,0.863-1.789,1.514-2.215c0.65,0.421,1.257,0.989,1.511,2.215H14.487z M15.64,25.36v3.279h-1.28V26
		c0-0.231,0.013-0.438,0.029-0.64H15.64z M13.64,26v2.64h-1.28v-3.28h1.314C13.658,25.567,13.64,25.768,13.64,26z M8,4.025
		l2.48,6.615H5.52L8,4.025z M5.36,11.36h5.28v1.28H9.36V12c0-0.199-0.161-0.36-0.36-0.36S8.64,11.801,8.64,12v0.64H7.36V12
		c0-0.199-0.161-0.36-0.36-0.36S6.64,11.801,6.64,12v0.64H5.36V11.36z M4,9.139l0.5,1.501h-1L4,9.139z M3.36,12.64v-1.28h1.28v1.28
		H3.36z M4,24.139l0.5,1.501h-1L4,24.139z M4.64,30.64H3.36v-1.28h1.28V30.64z M4.64,28.64H3.36v-2.28h1.28V28.64z M11.64,30.64
		H5.36v-1.28h6.28V30.64z M11.64,28.64H5.36V26c0-0.039-0.006-0.077-0.019-0.114L4.36,22.941V21.36h7.28V28.64z M9.64,20.64H8.36
		v-1.621c0-0.931,0-1.259,0.64-1.628c0.64,0.368,0.64,0.696,0.64,1.627V20.64z M7.64,20.64H6.36v-1.621c0-0.931,0-1.259,0.64-1.628
		c0.64,0.368,0.64,0.696,0.64,1.627V20.64z M11.64,20.64h-1.28v-1.622c0-1.053,0-1.748-1.197-2.356L9,16.578l-0.164,0.083
		C8.442,16.862,8.178,17.072,8,17.302c-0.178-0.229-0.442-0.44-0.837-0.641L7,16.578l-0.164,0.083
		c-1.196,0.61-1.196,1.305-1.196,2.358v1.621H4.36v-7.28h7.28V20.64z M27.64,30.64H12.36v-1.28h15.28V30.64z M27.64,28.64h-3.28V26
		c0-0.232-0.019-0.433-0.034-0.64h3.314V28.64z M27.64,24.64h-3.403c-0.311-1.716-1.198-2.431-2.05-2.947l-0.188-0.114l-0.188,0.115
		c-0.852,0.523-1.739,1.242-2.049,2.946h-1.527c-0.311-1.716-1.198-2.431-2.05-2.947l-0.188-0.114l-0.188,0.115
		c-0.852,0.523-1.739,1.242-2.048,2.946H12.36v-3.28h15.28V24.64z"/>
	<rect x="8.64" y="22" width="0.72" height="1"/>
	<rect x="6.64" y="22" width="0.72" height="1"/>
	<rect x="8.64" y="25" width="0.72" height="3"/>
	<rect x="6.64" y="25" width="0.72" height="3"/>
	<path d="M8,13.64c-0.199,0-0.36,0.161-0.36,0.36v1v1h0.72v-1v-1C8.36,13.801,8.199,13.64,8,13.64z"/>
</g>
<rect id="_Transparent_Rectangle" style="fill:none;" width="32" height="32"/>
</svg>
