<?xml version="1.0" encoding="iso-8859-1"?>
<!-- Generator: Adobe Illustrator 29.1.0, SVG Export Plug-In . SVG Version: 9.03 Build 55587)  -->
<svg version="1.1" id="Layer_1" xmlns="http://www.w3.org/2000/svg" xmlns:xlink="http://www.w3.org/1999/xlink" x="0px" y="0px"
	 viewBox="0 0 32 32" style="enable-background:new 0 0 32 32;" xml:space="preserve">
<path id="medal--03_00000034803085999814311240000002871348786588164507_" d="M18,31.36c-0.017,0-0.034-0.002-0.052-0.004
	c-0.144-0.021-0.261-0.126-0.297-0.267l-1.64-6.365l-1.664,6.366c-0.037,0.141-0.154,0.245-0.297,0.266
	c-0.142,0.017-0.285-0.047-0.36-0.171l-2.815-4.691l-4.691,2.814c-0.126,0.075-0.285,0.068-0.402-0.021
	c-0.117-0.088-0.169-0.238-0.131-0.381l3.393-12.648C7.551,14.599,6.64,12.404,6.64,10c0-5.161,4.199-9.36,9.36-9.36
	s9.36,4.199,9.36,9.36c0,2.403-0.911,4.599-2.405,6.258l3.393,12.648c0.038,0.143-0.014,0.293-0.131,0.381
	c-0.116,0.09-0.276,0.097-0.402,0.021l-4.691-2.814l-2.814,4.691C18.243,31.295,18.125,31.36,18,31.36z M11,25.64
	c0.123,0,0.242,0.062,0.309,0.175l2.56,4.266l2.807-10.744C16.452,19.352,16.227,19.36,16,19.36c-2.458,0-4.697-0.952-6.369-2.507
	l-3.053,11.38l4.236-2.542C10.873,25.656,10.937,25.64,11,25.64z M16.386,23.291l1.748,6.786l2.558-4.263
	c0.103-0.171,0.323-0.227,0.494-0.123l4.236,2.542l-3.053-11.38c-1.339,1.245-3.04,2.103-4.927,2.396L16.386,23.291z M16,1.36
	c-4.764,0-8.64,3.876-8.64,8.64s3.876,8.64,8.64,8.64s8.64-3.875,8.64-8.64S20.764,1.36,16,1.36z M12.75,15.36
	c-0.074,0-0.149-0.023-0.212-0.069c-0.126-0.092-0.179-0.254-0.13-0.402l1.161-3.567l-3.03-2.208
	c-0.126-0.092-0.179-0.254-0.13-0.402c0.048-0.148,0.187-0.249,0.342-0.249h3.748l1.16-3.573c0.095-0.296,0.588-0.298,0.685,0
	l1.163,3.573h3.745c0.156,0,0.294,0.1,0.342,0.249c0.049,0.148-0.004,0.311-0.13,0.402l-3.028,2.208l1.159,3.567
	c0.048,0.148-0.005,0.311-0.131,0.402c-0.127,0.092-0.298,0.091-0.423,0l-3.038-2.203l-3.04,2.203
	C12.898,15.337,12.824,15.36,12.75,15.36z M16.001,12.284c0.074,0,0.148,0.023,0.211,0.068l2.354,1.707l-0.898-2.764
	c-0.048-0.148,0.005-0.311,0.131-0.402l2.347-1.711h-2.902c-0.156,0-0.294-0.1-0.342-0.249L16,6.165l-0.899,2.768
	c-0.048,0.148-0.187,0.249-0.342,0.249h-2.904l2.348,1.711c0.126,0.092,0.179,0.254,0.13,0.402l-0.899,2.764l2.355-1.707
	C15.853,12.307,15.927,12.284,16.001,12.284z"/>
<rect id="_Transparent_Rectangle" style="fill:none;" width="32" height="32"/>
</svg>
