<?xml version="1.0" encoding="iso-8859-1"?>
<!-- Generator: Adobe Illustrator 22.0.0, SVG Export Plug-In . SVG Version: 6.00 Build 0)  -->
<svg version="1.1" xmlns="http://www.w3.org/2000/svg" xmlns:xlink="http://www.w3.org/1999/xlink" x="0px" y="0px"
	 viewBox="0 0 48 48" style="enable-background:new 0 0 48 48;" xml:space="preserve">
<g id="medical">
	
		<path id="medical_1_" style="fill:none;stroke:#000000;stroke-width:0.72;stroke-linecap:round;stroke-linejoin:round;stroke-miterlimit:10;" d="
		M24,31v8 M24,12.999v13.002 M25.617,20.001c0.937-0.658,1.478-1.446,1.478-2.637c0-1.035-0.617-1.993-1.478-2.361 M22.382,29.827
		c-0.937,0.658-1.478,1.446-1.478,2.637c0,1.035,0.617,1.993,1.478,2.361 M25.617,27.485c0.976-0.74,1.478-1.33,1.478-2.622
		c0-3.246-6.179-4.1-6.179-7.618c0-0.999,0.608-1.865,1.442-2.242 M25.617,34.825c0.976-0.74,1.478-1.33,1.478-2.622
		c0-3.246-6.179-4.1-6.179-7.618c0-0.999,0.608-1.865,1.442-2.242 M36,17h-6.848 M33.979,19.001h-5.164 M38,15h-6.286
		c-1.241,0-2.619,0.453-2.619,2.576c0,1.275-0.855,2.84-2.095,3.424 M12,17h6.869 M14,19.001h5.187 M21,21
		c-1.239-0.584-2.093-2.149-2.093-3.424c0-2.123-1.378-2.576-2.619-2.576H10 M24,9c-1.105,0-2,0.895-2,2s0.895,2,2,2s2-0.895,2-2
		S25.105,9,24,9z"/>
</g>
<g id="Layer_1">
</g>
</svg>
