<?xml version="1.0" encoding="iso-8859-1"?>
<!-- Generator: Adobe Illustrator 24.1.2, SVG Export Plug-In . SVG Version: 6.00 Build 0)  -->
<svg version="1.1" id="Layer_1" xmlns="http://www.w3.org/2000/svg" xmlns:xlink="http://www.w3.org/1999/xlink" x="0px" y="0px"
	 viewBox="0 0 32 32" style="enable-background:new 0 0 32 32;" xml:space="preserve">
<path id="melbourne_1_" d="M13.64,8c0-0.199,0.161-0.36,0.36-0.36h4c0.199,0,0.36,0.161,0.36,0.36S18.199,8.36,18,8.36h-4
	C13.801,8.36,13.64,8.199,13.64,8z M22.36,12v4c0,0.199-0.161,0.36-0.36,0.36H10c-0.199,0-0.36-0.161-0.36-0.36v-4
	c0-1.301,1.059-2.36,2.36-2.36h8C21.302,9.64,22.36,10.699,22.36,12z M20,10.36h-1.64v5.28h3.279V12
	C21.64,11.096,20.904,10.36,20,10.36z M17.64,10.36h-3.28v5.28h3.28V10.36z M10.36,12v3.64h3.28v-5.28H12
	C11.096,10.36,10.36,11.096,10.36,12z M25.36,12v8c0,1.302-1.059,2.36-2.36,2.36H9c-1.301,0-2.36-1.059-2.36-2.36v-8
	c0-3.507,2.853-6.36,6.36-6.36h2.28l-2.46-3.28H11V1.64h10v0.72h-1.82l-2.46,3.28H19C22.507,5.64,25.36,8.493,25.36,12z M13.72,2.36
	L16,5.4l2.28-3.04C18.28,2.36,13.72,2.36,13.72,2.36z M24.64,12c0-3.11-2.529-5.64-5.64-5.64h-6c-3.11,0-5.64,2.53-5.64,5.64v8
	c0,0.904,0.736,1.64,1.64,1.64h14c0.904,0,1.64-0.735,1.64-1.64V12z M17.36,19c0,0.75-0.61,1.36-1.36,1.36s-1.36-0.61-1.36-1.36
	s0.61-1.36,1.36-1.36S17.36,18.25,17.36,19z M16.64,19c0-0.353-0.287-0.64-0.64-0.64s-0.64,0.287-0.64,0.64s0.287,0.64,0.64,0.64
	C16.353,19.64,16.64,19.353,16.64,19z M11.201,23.801l-4,6c-0.11,0.165-0.066,0.389,0.1,0.499c0.061,0.041,0.13,0.06,0.199,0.06
	c0.117,0,0.23-0.057,0.3-0.161l4-6c0.11-0.165,0.066-0.389-0.1-0.499C11.532,23.589,11.311,23.634,11.201,23.801z M20.8,23.801
	c-0.11-0.166-0.337-0.209-0.499-0.101c-0.166,0.11-0.211,0.334-0.101,0.499l4,6c0.069,0.104,0.184,0.161,0.3,0.161
	c0.069,0,0.139-0.02,0.199-0.061c0.166-0.11,0.211-0.334,0.101-0.499L20.8,23.801z M12,17.5c-0.276,0-0.5,0.224-0.5,0.5
	s0.224,0.5,0.5,0.5s0.5-0.224,0.5-0.5S12.276,17.5,12,17.5z M20,17.5c-0.276,0-0.5,0.224-0.5,0.5s0.224,0.5,0.5,0.5
	s0.5-0.224,0.5-0.5S20.276,17.5,20,17.5z M12,19.5c-0.276,0-0.5,0.224-0.5,0.5s0.224,0.5,0.5,0.5s0.5-0.224,0.5-0.5
	S12.276,19.5,12,19.5z M20,19.5c-0.276,0-0.5,0.224-0.5,0.5s0.224,0.5,0.5,0.5s0.5-0.224,0.5-0.5S20.276,19.5,20,19.5z"/>
<rect id="_Transparent_Rectangle" style="fill:none;" width="32" height="32"/>
</svg>
