<svg xmlns="http://www.w3.org/2000/svg" viewBox="0 0 48 48"><line x1="19.5" x2="29.5" y1="10" y2="10" fill="none" stroke-linejoin="round" stroke-miterlimit="10" stroke-width=".72"/><line x1="18.5" x2="30.5" y1="24" y2="24" fill="none" stroke-linecap="round" stroke-linejoin="round" stroke-miterlimit="10" stroke-width=".72"/><polyline fill="none" stroke-linecap="round" stroke-linejoin="round" stroke-miterlimit="10" stroke-width=".72" points="21.5,10 24.5,14 27.5,10"/><line x1="22.5" x2="26.5" y1="16" y2="16" fill="none" stroke-linecap="round" stroke-linejoin="round" stroke-miterlimit="10" stroke-width=".72"/><path fill="none" stroke-linecap="round" stroke-linejoin="round" stroke-miterlimit="10" stroke-width=".72" d="M18.5,20c0-1.105,0.895-2,2-2h8c1.105,0,2,0.895,2,2"/><line x1="22.5" x2="22.5" y1="18" y2="24" fill="none" stroke-linecap="round" stroke-linejoin="round" stroke-miterlimit="10" stroke-width=".72"/><line x1="18.5" x2="18.5" y1="20" y2="24" fill="none" stroke-linecap="round" stroke-linejoin="round" stroke-miterlimit="10" stroke-width=".72"/><line x1="26.5" x2="26.5" y1="18" y2="24" fill="none" stroke-linecap="round" stroke-linejoin="round" stroke-miterlimit="10" stroke-width=".72"/><line x1="30.5" x2="30.5" y1="20" y2="24" fill="none" stroke-linecap="round" stroke-linejoin="round" stroke-miterlimit="10" stroke-width=".72"/><path fill="none" stroke-linecap="round" stroke-linejoin="round" stroke-miterlimit="10" stroke-width=".72" d="M16,20c0-3.314,2.686-6,6-6h5c3.314,0,6,2.686,6,6v8c0,1.105-0.895,2-2,2H18c-1.105,0-2-0.895-2-2V20z"/><circle cx="24.5" cy="27" r="1" fill="none" stroke-linecap="round" stroke-linejoin="round" stroke-miterlimit="10" stroke-width=".72"/><line x1="20" x2="16" y1="32" y2="38" fill="none" stroke-linecap="round" stroke-linejoin="round" stroke-miterlimit="10" stroke-width=".72"/><line x1="29" x2="33" y1="32" y2="38" fill="none" stroke-linecap="round" stroke-linejoin="round" stroke-miterlimit="10" stroke-width=".72"/><circle cx="20.5" cy="26" r=".5"/><circle cx="28.5" cy="26" r=".5"/><circle cx="20.5" cy="28" r=".5"/><circle cx="28.5" cy="28" r=".5"/></svg>