<?xml version="1.0" encoding="iso-8859-1"?>
<!-- Generator: Adobe Illustrator 29.1.0, SVG Export Plug-In . SVG Version: 9.03 Build 55587)  -->
<svg version="1.1" id="Layer_1" xmlns="http://www.w3.org/2000/svg" xmlns:xlink="http://www.w3.org/1999/xlink" x="0px" y="0px"
	 viewBox="0 0 32 32" style="enable-background:new 0 0 32 32;" xml:space="preserve">
<path id="melting--ice--cream_00000074400682386220548000000017658607674763169931_" d="M11,30.36c-0.75,0-1.36-0.61-1.36-1.36
	v-1.64H9v-0.72h1c0.199,0,0.36,0.161,0.36,0.36v2c0,0.353,0.287,0.64,0.64,0.64s0.64-0.287,0.64-0.64v-2
	c0-0.199,0.161-0.36,0.36-0.36h3v0.721h-2.64V29C12.36,29.75,11.75,30.36,11,30.36z M22,26.36h-4.75
	c-0.143,0-0.272-0.085-0.33-0.215c-0.058-0.131-0.032-0.283,0.064-0.389c0.606-0.662,1.04-1.301,1.293-1.9
	c-0.269-0.152-0.531-0.352-0.782-0.602l0.51-0.51c1.178,1.18,2.698,0.892,3.591,0c0.575-0.575,0.831-1.214,0.759-1.9
	c-0.068-0.654-0.438-1.332-1.065-1.96l-6.382-6.383c-0.88-0.881-2.558-1.09-3.652,0.003c-0.462,0.463-0.728,1.06-0.747,1.68
	c-0.021,0.686,0.262,1.343,0.817,1.899l2.679,2.661l-0.508,0.512l-2.68-2.663c-0.231-0.231-0.424-0.477-0.579-0.735
	c-0.776,0.31-1.471,0.769-2.069,1.367c-2.331,2.331-2.398,6.079-0.153,8.531c0.096,0.105,0.122,0.258,0.064,0.389
	c-0.058,0.13-0.187,0.215-0.33,0.215H4v-0.72h2.99c-1.988-2.72-1.75-6.503,0.669-8.923c0.659-0.659,1.424-1.167,2.277-1.514
	c-0.11-0.335-0.16-0.684-0.149-1.041c0.025-0.805,0.365-1.575,0.958-2.167c0.646-0.646,1.501-0.987,2.434-0.949
	c0.644,0.024,1.268,0.227,1.78,0.571l13.879-6.939c0.141-0.071,0.306-0.042,0.416,0.067c0.109,0.109,0.137,0.277,0.067,0.416
	l-6.946,13.892c0.396,0.555,0.634,1.138,0.694,1.718c0.095,0.899-0.239,1.758-0.965,2.484c-0.803,0.802-2,1.225-3.165,0.883
	c-0.206,0.487-0.511,0.989-0.913,1.502H22V26.36z M15.55,12.127l6.249,6.248c0.024,0.025,0.049,0.05,0.073,0.075l6.323-12.645
	L15.55,12.127z M14,24.36c-0.75,0-1.36-0.61-1.36-1.36v-0.64H12v-0.72h1c0.199,0,0.36,0.161,0.36,0.36v1
	c0,0.353,0.287,0.64,0.64,0.64s0.64-0.287,0.64-0.64v-1h0.72v1C15.36,23.75,14.75,24.36,14,24.36z"/>
<rect id="_Transparent_Rectangle" style="fill:none;" width="32" height="32"/>
</svg>
