<?xml version="1.0" encoding="iso-8859-1"?>
<!-- Generator: Adobe Illustrator 29.1.0, SVG Export Plug-In . SVG Version: 9.03 Build 55587)  -->
<svg version="1.1" id="Layer_1" xmlns="http://www.w3.org/2000/svg" xmlns:xlink="http://www.w3.org/1999/xlink" x="0px" y="0px"
	 viewBox="0 0 32 32" style="enable-background:new 0 0 32 32;" xml:space="preserve">
<path id="messaging--03_00000085967043806576960790000008383146607481372045_" d="M25,22.64c-1.302,0-2.36,1.059-2.36,2.36
	s1.059,2.36,2.36,2.36s2.36-1.059,2.36-2.36S26.302,22.64,25,22.64z M25,26.64c-0.904,0-1.64-0.735-1.64-1.64s0.735-1.64,1.64-1.64
	s1.64,0.735,1.64,1.64S25.904,26.64,25,26.64z M31,23.457h-1.312l-0.28-0.684l0.926-0.925c0.141-0.141,0.141-0.369,0-0.51
	l-1.673-1.673c-0.141-0.141-0.369-0.141-0.51,0l-0.928,0.928l-0.681-0.284V19c0-0.199-0.161-0.36-0.36-0.36h-2.365
	c-0.199,0-0.36,0.161-0.36,0.36v1.312l-0.683,0.28l-0.926-0.927c-0.141-0.141-0.369-0.141-0.51,0l-1.673,1.673
	c-0.141,0.141-0.141,0.369,0,0.51l0.928,0.928l-0.284,0.681H19c-0.199,0-0.36,0.161-0.36,0.36v2.365c0,0.199,0.161,0.36,0.36,0.36
	h1.312l0.28,0.683l-0.927,0.926c-0.141,0.141-0.141,0.369,0,0.51l1.673,1.673c0.141,0.141,0.369,0.141,0.51,0l0.928-0.928
	l0.681,0.284V31c0,0.199,0.161,0.36,0.36,0.36h2.365c0.199,0,0.36-0.161,0.36-0.36v-1.312l0.684-0.28l0.925,0.927
	c0.067,0.067,0.159,0.105,0.255,0.105s0.188-0.038,0.255-0.105l1.673-1.673c0.141-0.141,0.141-0.369,0-0.51l-0.928-0.928
	l0.284-0.681H31c0.199,0,0.36-0.161,0.36-0.36v-2.365C31.36,23.618,31.199,23.457,31,23.457z M30.64,25.822h-1.188
	c-0.146,0-0.276,0.088-0.332,0.222l-0.471,1.125c-0.057,0.135-0.025,0.29,0.077,0.394l0.845,0.844l-1.164,1.164l-0.84-0.842
	c-0.103-0.102-0.258-0.135-0.392-0.078l-1.129,0.463c-0.135,0.056-0.224,0.187-0.224,0.333v1.193h-1.645v-1.188
	c0-0.146-0.088-0.276-0.222-0.332l-1.125-0.471c-0.135-0.057-0.29-0.025-0.394,0.077l-0.844,0.845l-1.164-1.164l0.842-0.841
	c0.103-0.103,0.133-0.257,0.078-0.392l-0.463-1.128c-0.056-0.135-0.187-0.224-0.333-0.224H19.36v-1.645h1.188
	c0.146,0,0.276-0.088,0.332-0.222l0.471-1.125c0.057-0.135,0.025-0.29-0.077-0.394l-0.845-0.844l1.164-1.164l0.841,0.842
	c0.104,0.102,0.259,0.135,0.392,0.078l1.128-0.463c0.135-0.056,0.224-0.187,0.224-0.333V19.36h1.645v1.188
	c0,0.146,0.088,0.276,0.222,0.332l1.125,0.471c0.134,0.056,0.289,0.024,0.394-0.077l0.844-0.845l1.164,1.164l-0.841,0.84
	c-0.103,0.103-0.133,0.257-0.078,0.392l0.463,1.129c0.056,0.135,0.187,0.224,0.333,0.224h1.192v1.644H30.64z M13.36,10V1
	c0-0.199-0.161-0.36-0.36-0.36H1C0.801,0.64,0.64,0.801,0.64,1v9c0,0.199,0.161,0.36,0.36,0.36h12
	C13.199,10.36,13.36,10.199,13.36,10z M7,6.491L1.869,1.36h10.263L7,6.491z M4.991,5.5L1.36,9.131V1.869L4.991,5.5z M5.5,6.009
	l1.246,1.246C6.816,7.325,6.908,7.36,7,7.36s0.184-0.035,0.254-0.105L8.5,6.009l3.632,3.631H1.869L5.5,6.009z M9.009,5.5
	l3.632-3.632v7.263L9.009,5.5z M18.753,8.244l-0.506,0.512l-2.756-2.724l2.753-2.785l0.512,0.506L16.891,5.64H23
	c1.302,0,2.36,1.059,2.36,2.36v8h-0.72V8c0-0.904-0.735-1.64-1.64-1.64h-6.153L18.753,8.244z M13.753,22.244l2.756,2.724
	l-2.753,2.785l-0.512-0.506l1.864-1.887H9c-1.301,0-2.36-1.059-2.36-2.36V13h0.72v10c0,0.904,0.736,1.64,1.64,1.64h6.153
	l-1.906-1.884L13.753,22.244z"/>
<rect id="_Transparent_Rectangle" style="fill:none;" width="32" height="32"/>
</svg>
