<?xml version="1.0" encoding="iso-8859-1"?>
<!-- Generator: Adobe Illustrator 29.1.0, SVG Export Plug-In . SVG Version: 9.03 Build 55587)  -->
<svg version="1.1" id="Layer_1" xmlns="http://www.w3.org/2000/svg" xmlns:xlink="http://www.w3.org/1999/xlink" x="0px" y="0px"
	 viewBox="0 0 32 32" style="enable-background:new 0 0 32 32;" xml:space="preserve">
<path id="messaging--01_00000018195405548503340450000009195979124991303351_" d="M24,28.36h-6c-0.75,0-1.36-0.61-1.36-1.36v-1.64
	h-2.308c-0.174,1.131-1.154,2-2.333,2s-2.159-0.869-2.333-2H5.333c-0.174,1.131-1.154,2-2.333,2c-1.301,0-2.36-1.059-2.36-2.36
	S1.699,22.64,3,22.64c1.179,0,2.159,0.869,2.333,2h4.335c0.059-0.38,0.208-0.731,0.426-1.029L4.39,17.906
	C4,18.191,3.519,18.36,3,18.36c-1.301,0-2.36-1.059-2.36-2.36S1.699,13.64,3,13.64c1.179,0,2.159,0.869,2.333,2h4.335
	c0.059-0.381,0.208-0.731,0.426-1.03L4.39,8.906C4,9.191,3.519,9.36,3,9.36C1.699,9.36,0.64,8.301,0.64,7S1.699,4.64,3,4.64
	c1.179,0,2.159,0.869,2.333,2h4.335c0.174-1.131,1.154-2,2.333-2s2.159,0.869,2.333,2H16c0.75,0,1.36,0.61,1.36,1.36v19
	c0,0.353,0.287,0.64,0.64,0.64h6c0.353,0,0.64-0.287,0.64-0.64v-5.64h-0.625c-0.199,0-0.36-0.161-0.36-0.36v-1.051l-0.493-0.207
	l-0.744,0.745c-0.141,0.141-0.369,0.141-0.51,0l-1.395-1.394c-0.141-0.141-0.141-0.369,0-0.51l0.743-0.743l-0.202-0.495H20
	c-0.199,0-0.36-0.161-0.36-0.36v-1.972c0-0.199,0.161-0.36,0.36-0.36h1.051l0.207-0.494l-0.745-0.745
	c-0.067-0.067-0.105-0.159-0.105-0.254c0-0.096,0.038-0.187,0.105-0.254l1.395-1.394c0.068-0.068,0.159-0.105,0.255-0.105l0,0
	c0.096,0,0.188,0.038,0.255,0.105l0.742,0.743l0.495-0.203V11c0-0.199,0.161-0.36,0.36-0.36h1.972c0.199,0,0.36,0.161,0.36,0.36
	v1.051l0.492,0.207l0.745-0.745c0.141-0.14,0.369-0.14,0.51,0l1.394,1.394c0.141,0.141,0.141,0.368,0,0.509l-0.743,0.743
	l0.203,0.495H30c0.199,0,0.36,0.161,0.36,0.36v1.972c0,0.199-0.161,0.36-0.36,0.36h-1.052l-0.206,0.493l0.745,0.745
	c0.141,0.141,0.141,0.369,0,0.51l-1.394,1.394c-0.141,0.141-0.369,0.141-0.51,0l-0.743-0.743l-0.494,0.202V21
	c0,0.199-0.161,0.36-0.36,0.36H25.36V27C25.36,27.75,24.75,28.36,24,28.36z M12,23.36c-0.904,0-1.64,0.735-1.64,1.64
	s0.736,1.64,1.64,1.64s1.64-0.735,1.64-1.64S12.904,23.36,12,23.36z M3,23.36c-0.904,0-1.64,0.735-1.64,1.64S2.096,26.64,3,26.64
	S4.64,25.904,4.64,25S3.904,23.36,3,23.36z M14.333,24.64h2.308v-8.28h-2.308c-0.174,1.131-1.154,2-2.333,2s-2.159-0.869-2.333-2
	H5.333c-0.059,0.384-0.211,0.739-0.433,1.039l5.702,5.702c0.392-0.289,0.875-0.461,1.398-0.461
	C13.179,22.64,14.159,23.509,14.333,24.64z M24.375,20.64h1.251v-0.935c0-0.146,0.089-0.277,0.224-0.333l0.939-0.385
	c0.134-0.056,0.288-0.023,0.392,0.078l0.658,0.658l0.885-0.885l-0.661-0.661c-0.103-0.104-0.134-0.259-0.077-0.394l0.392-0.937
	c0.056-0.134,0.187-0.221,0.332-0.221h0.931v-1.252h-0.934c-0.146,0-0.277-0.088-0.333-0.223l-0.386-0.94
	c-0.055-0.134-0.024-0.289,0.078-0.391l0.658-0.658l-0.885-0.885l-0.661,0.661c-0.104,0.103-0.26,0.133-0.394,0.077l-0.937-0.392
	c-0.134-0.056-0.222-0.187-0.222-0.332v-0.93h-1.251v0.935c0,0.146-0.089,0.278-0.224,0.333l-0.94,0.386
	c-0.133,0.054-0.288,0.024-0.392-0.079l-0.657-0.658l-0.886,0.885l0.661,0.661c0.103,0.103,0.134,0.258,0.077,0.393l-0.392,0.938
	c-0.056,0.134-0.187,0.221-0.332,0.221H20.36v1.252h0.935c0.146,0,0.277,0.088,0.333,0.224l0.385,0.939
	c0.055,0.135,0.024,0.288-0.078,0.392l-0.658,0.658l0.886,0.885l0.66-0.661c0.104-0.104,0.258-0.134,0.394-0.077l0.938,0.392
	c0.134,0.056,0.222,0.187,0.222,0.332v0.929H24.375z M12,14.36c-0.904,0-1.64,0.736-1.64,1.64c0,0.904,0.736,1.64,1.64,1.64
	s1.64-0.735,1.64-1.64S12.904,14.36,12,14.36z M3,14.36c-0.904,0-1.64,0.736-1.64,1.64c0,0.904,0.736,1.64,1.64,1.64
	S4.64,16.904,4.64,16S3.904,14.36,3,14.36z M14.333,15.64h2.308V8c0-0.353-0.287-0.64-0.64-0.64h-1.667
	c-0.174,1.131-1.154,2-2.333,2s-2.159-0.869-2.333-2H5.333C5.273,7.744,5.121,8.099,4.9,8.398l5.702,5.702
	c0.392-0.289,0.875-0.46,1.398-0.46C13.179,13.64,14.159,14.509,14.333,15.64z M12,5.36c-0.904,0-1.64,0.736-1.64,1.64
	S11.096,8.64,12,8.64S13.64,7.904,13.64,7S12.904,5.36,12,5.36z M3,5.36C2.096,5.36,1.36,6.096,1.36,7S2.096,8.64,3,8.64
	S4.64,7.904,4.64,7S3.904,5.36,3,5.36z M25,18.36c-1.302,0-2.36-1.059-2.36-2.36s1.059-2.36,2.36-2.36s2.36,1.059,2.36,2.36
	C27.36,17.302,26.302,18.36,25,18.36z M25,14.36c-0.904,0-1.64,0.736-1.64,1.64c0,0.904,0.735,1.64,1.64,1.64s1.64-0.735,1.64-1.64
	S25.904,14.36,25,14.36z"/>
<rect id="_Transparent_Rectangle" style="fill:none;" width="32" height="32"/>
</svg>
