<?xml version="1.0" encoding="iso-8859-1"?>
<!-- Generator: Adobe Illustrator 24.1.2, SVG Export Plug-In . SVG Version: 6.00 Build 0)  -->
<svg version="1.1" id="Layer_1" xmlns="http://www.w3.org/2000/svg" xmlns:xlink="http://www.w3.org/1999/xlink" x="0px" y="0px"
	 viewBox="0 0 32 32" style="enable-background:new 0 0 32 32;" xml:space="preserve">
<path id="mexico-city--museo-soumaya_1_" d="M23,30.36H1c-0.125,0-0.241-0.065-0.306-0.171c-0.066-0.106-0.072-0.239-0.016-0.351
	c1.304-2.607,2.539-3.959,3.847-5.391c0.719-0.786,1.462-1.6,2.249-2.662c0.917-1.238,1.497-2.607,1.726-4.069
	c0.773-4.939-2.616-9.587-7.555-10.361C0.783,7.331,0.659,7.2,0.642,7.038c-0.017-0.163,0.077-0.316,0.23-0.374l9.763-3.736
	c0.87-0.332,1.843-0.376,2.738-0.125l13.725,3.851c0.133,0.038,0.233,0.148,0.257,0.285s-0.033,0.275-0.146,0.355
	c-2.021,1.436-3.343,3.562-3.723,5.99c-0.374,2.392,0.208,4.787,1.64,6.745c1.431,1.957,3.537,3.241,5.931,3.616
	C31.23,23.672,31.36,23.822,31.36,24v4c0,0.109-0.05,0.213-0.135,0.281s-0.196,0.094-0.304,0.07L12.96,24.36H5.579
	c-0.176,0.194-0.35,0.385-0.522,0.574c-0.215,0.235-0.428,0.468-0.64,0.705H13v0.721H3.793c-0.329,0.394-0.656,0.812-0.983,1.279H18
	v0.721H2.332c-0.246,0.39-0.493,0.812-0.741,1.279H23V30.36z M16.279,24.36l14.36,3.19v-3.19H16.279z M13.36,23.64h15.141
	c-3.963-1.748-6.427-5.998-5.727-10.468c0.372-2.379,1.583-4.492,3.436-6.02L13.178,3.496c-0.749-0.211-1.56-0.174-2.287,0.105
	L2.249,6.908c4.672,1.341,7.733,5.997,6.962,10.92c-0.247,1.577-0.872,3.053-1.858,4.386c-0.391,0.528-0.77,0.995-1.14,1.426h2.594
	l1.894-2.839C10.767,20.7,10.879,20.64,11,20.64h2c0.199,0,0.36,0.161,0.36,0.36V23.64z M9.673,23.64h2.967v-2.28h-1.447
	L9.673,23.64z M18.36,17h-0.72v-1h0.721L18.36,17L18.36,17z M21.36,15h-0.72v-1h0.721L21.36,15L21.36,15z M19.36,15h-0.72v-1h0.721
	L19.36,15L19.36,15z M17.359,15h-0.72v-1h0.72V15z M20.36,13h-0.72v-1h0.721L20.36,13L20.36,13z M18.36,13h-0.72v-1h0.721L18.36,13
	L18.36,13z M21.36,11h-0.72v-1h0.721L21.36,11L21.36,11z M19.36,11h-0.72v-1h0.721L19.36,11L19.36,11z M17.36,11h-0.72v-1h0.72V11z
	 M22.36,9h-0.72V8h0.721L22.36,9L22.36,9z M20.36,9h-0.72V8h0.721L20.36,9L20.36,9z M18.36,9h-0.72V8h0.721L18.36,9L18.36,9z
	 M16.36,9h-0.72V8h0.72V9z M17.36,7h-0.72V6h0.72V7z M15.36,7h-0.72V6h0.72V7z"/>
<rect id="_Transparent_Rectangle" style="fill:none;" width="32" height="32"/>
</svg>
