<?xml version="1.0" encoding="iso-8859-1"?>
<!-- Generator: Adobe Illustrator 24.1.2, SVG Export Plug-In . SVG Version: 6.00 Build 0)  -->
<svg version="1.1" id="Layer_1" xmlns="http://www.w3.org/2000/svg" xmlns:xlink="http://www.w3.org/1999/xlink" x="0px" y="0px"
	 viewBox="0 0 32 32" style="enable-background:new 0 0 32 32;" xml:space="preserve">
<path id="microscope_1_" d="M27,31.36H5c-0.146,0-0.277-0.088-0.333-0.223s-0.025-0.289,0.078-0.393l3.667-3.666
	c0.067-0.067,0.159-0.105,0.254-0.105H21.14V25.5c0-0.199,0.161-0.36,0.36-0.36h2.229c0.704-1.289,1.075-2.744,1.075-4.222
	c0-3.116-1.64-5.983-4.304-7.57c-0.544,0.906-1.536,1.514-2.668,1.514c-0.525,0-1.02-0.131-1.454-0.361l-3.062,5.301
	c-0.099,0.174-0.318,0.232-0.492,0.132l-1.275-0.736l-0.557,0.964l1.276,0.737c0.083,0.048,0.143,0.126,0.167,0.219
	c0.025,0.092,0.012,0.19-0.036,0.272l-0.917,1.587c-0.099,0.173-0.318,0.232-0.492,0.132l-4.76-2.75
	c-0.172-0.1-0.231-0.319-0.132-0.491l0.917-1.588c0.048-0.083,0.126-0.144,0.219-0.168s0.19-0.013,0.273,0.036l1.276,0.736
	l0.556-0.964l-1.276-0.736c-0.083-0.048-0.143-0.126-0.167-0.218c-0.025-0.092-0.012-0.19,0.036-0.273L17.098,0.82
	c0.1-0.172,0.321-0.229,0.491-0.132l4.763,2.747c0.083,0.048,0.144,0.126,0.168,0.219s0.012,0.19-0.036,0.273l-2.998,5.191
	c0.875,0.551,1.458,1.525,1.458,2.633c0,0.326-0.051,0.64-0.145,0.936c2.923,1.708,4.727,4.832,4.727,8.23
	c0,1.468-0.339,2.915-0.984,4.222H27c0.199,0,0.36,0.161,0.36,0.36V31C27.36,31.199,27.199,31.36,27,31.36z M5.869,30.64H26.64
	v-4.78h-2.673c-0.021-0.001-0.038-0.001-0.055,0H21.86v1.474c0,0.199-0.161,0.36-0.36,0.36H8.816L5.869,30.64z M6.902,19.916
	l4.139,2.389l0.557-0.963l-2.863-1.653c-0.005-0.002-0.01-0.005-0.014-0.008l-1.262-0.729L6.902,19.916z M9.892,19.525l0.478,0.276
	l0.557-0.964L9.963,18.28l-0.556,0.964L9.892,19.525z M11.103,18.108l1.771,1.021l2.91-5.04c-0.65-0.57-1.061-1.407-1.061-2.338
	c0-1.714,1.395-3.109,3.11-3.109c0.35,0,0.687,0.058,1.001,0.165l2.846-4.929l-4.139-2.387l-8.806,15.25l1.26,0.728
	c0.005,0.003,0.011,0.006,0.016,0.009L11.103,18.108z M16.512,13.743c0.378,0.252,0.833,0.399,1.321,0.399
	c0.972,0,1.81-0.583,2.183-1.417c0.005-0.012,0.011-0.024,0.017-0.037c0.123-0.288,0.19-0.604,0.19-0.936
	c0-1.317-1.072-2.39-2.39-2.39c-1.318,0-2.39,1.072-2.39,2.39c0,0.784,0.379,1.481,0.964,1.917c0.009,0.004,0.019,0.009,0.028,0.015
	C16.464,13.7,16.489,13.72,16.512,13.743z"/>
<rect id="_Transparent_Rectangle" style="fill:none;" width="32" height="32"/>
</svg>
