<?xml version="1.0" encoding="iso-8859-1"?>
<!-- Generator: Adobe Illustrator 22.0.0, SVG Export Plug-In . SVG Version: 6.00 Build 0)  -->
<svg version="1.1" xmlns="http://www.w3.org/2000/svg" xmlns:xlink="http://www.w3.org/1999/xlink" x="0px" y="0px"
	 viewBox="0 0 48 48" style="enable-background:new 0 0 48 48;" xml:space="preserve">
<g id="microorganisms">
	<path id="microorganisms_1_" style="fill:none;stroke:#000000;stroke-width:0.72;stroke-linecap:round;stroke-miterlimit:10;" d="
		M27.734,11.999l-3,5.196c-0.55,0.953-1.779,1.282-2.732,0.732l0,0c-0.953-0.55-1.282-1.779-0.732-2.732l3-5.196
		c0.55-0.953,1.779-1.282,2.732-0.732l0,0C27.955,9.817,28.284,11.046,27.734,11.999z M29.688,36.379l5.796,1.553
		c1.063,0.285,2.165-0.352,2.449-1.414v0c0.285-1.063-0.352-2.165-1.414-2.449l-5.796-1.553c-1.063-0.285-2.165,0.352-2.449,1.414
		l0,0C27.989,34.992,28.625,36.095,29.688,36.379z M14.998,25.073L14.998,25.073c-0.953-0.55-2.182-0.221-2.732,0.732l-3,5.196
		c-0.55,0.953-0.221,2.182,0.732,2.732h0c0.953,0.55,2.182,0.221,2.732-0.732l3-5.196C16.281,26.853,15.951,25.623,14.998,25.073z
		 M36.999,28.927L36.999,28.927c0.953-0.55,1.282-1.779,0.732-2.732l-3-5.196c-0.55-0.953-1.779-1.282-2.732-0.732l0,0
		c-0.953,0.55-1.282,1.779-0.732,2.732l3,5.196C34.817,29.147,36.047,29.477,36.999,28.927z M18.928,12.999L18.928,12.999
		c-0.55-0.953-1.779-1.282-2.732-0.732l-5.196,3c-0.953,0.55-1.282,1.779-0.732,2.732l0,0c0.55,0.953,1.779,1.282,2.732,0.732
		l5.196-3C19.148,15.181,19.478,13.951,18.928,12.999z M22.926,33.001L22.926,33.001c-0.55-0.953-1.779-1.282-2.732-0.732l-5.196,3
		c-0.953,0.55-1.282,1.779-0.732,2.732l0,0c0.55,0.953,1.779,1.282,2.732,0.732l5.196-3C23.147,35.183,23.476,33.954,22.926,33.001z
		 M30.073,11.999L30.073,11.999c-0.55,0.953-0.221,2.182,0.732,2.732l5.196,3c0.953,0.55,2.182,0.221,2.732-0.732v0
		c0.55-0.953,0.221-2.182-0.732-2.732l-5.196-3C31.853,10.717,30.623,11.046,30.073,11.999z M19.074,23.002L19.074,23.002
		c-0.55,0.953-0.221,2.182,0.732,2.732l5.196,3c0.953,0.55,2.182,0.221,2.732-0.732l0,0c0.55-0.953,0.221-2.182-0.732-2.732
		l-5.196-3C20.854,21.72,19.624,22.049,19.074,23.002z"/>
</g>
<g id="Layer_1">
</g>
</svg>
