<svg xmlns="http://www.w3.org/2000/svg" viewBox="0 0 48 48"><path fill="none" stroke-linecap="round" stroke-linejoin="round" stroke-miterlimit="10" stroke-width=".72" d="M29.5,33.5H35V39H13l3.667-3.666H29.5V33.5z M25.833,17.002c-1.519,0-2.75,1.231-2.75,2.75s1.231,2.75,2.75,2.75 c1.519,0,2.75-1.231,2.75-2.75S27.352,17.002,25.833,17.002z M14.41,28.048l4.763,2.75l0.917-1.588l-4.763-2.75L14.41,28.048z M26.993,17.253l3.179-5.506l-4.763-2.75l-9.166,15.875l4.763,2.75l3.249-5.627 M17.831,25.789l-0.917,1.588l1.588,0.917 l0.917-1.588L17.831,25.789z M31.939,33.501c0.78-1.348,1.226-2.913,1.226-4.583c0-3.486-1.946-6.518-4.812-8.068"/></svg>