<?xml version="1.0" encoding="iso-8859-1"?>
<!-- Generator: Adobe Illustrator 24.1.2, SVG Export Plug-In . SVG Version: 6.00 Build 0)  -->
<svg version="1.1" id="Layer_1" xmlns="http://www.w3.org/2000/svg" xmlns:xlink="http://www.w3.org/1999/xlink" x="0px" y="0px"
	 viewBox="0 0 32 32" style="enable-background:new 0 0 32 32;" xml:space="preserve">
<path id="microorganisms_1_" d="M8.002,31.36c-0.816,0-1.611-0.423-2.047-1.179c-0.651-1.127-0.263-2.573,0.863-3.224l5.196-3
	c0.544-0.314,1.18-0.396,1.791-0.233c0.61,0.163,1.119,0.553,1.433,1.098l0,0c0.314,0.543,0.397,1.179,0.234,1.789
	s-0.553,1.12-1.097,1.434l-5.196,3C8.808,31.259,8.402,31.36,8.002,31.36z M13.188,24.362c-0.284,0-0.562,0.074-0.813,0.219
	l-5.196,3c-0.783,0.452-1.052,1.457-0.6,2.241c0.453,0.781,1.458,1.053,2.24,0.6l5.196-3c0.377-0.218,0.648-0.572,0.762-0.996
	c0.114-0.425,0.056-0.866-0.162-1.244l0,0c-0.218-0.377-0.571-0.648-0.996-0.762C13.476,24.382,13.331,24.362,13.188,24.362z
	 M28.001,30.36c-0.204,0-0.409-0.026-0.611-0.081l-5.794-1.553c-0.607-0.162-1.115-0.553-1.432-1.101
	c-0.316-0.547-0.4-1.183-0.238-1.789c0.163-0.607,0.554-1.115,1.102-1.432c0.547-0.316,1.182-0.401,1.79-0.237l5.794,1.553
	c1.258,0.337,2.006,1.634,1.669,2.891c-0.162,0.606-0.553,1.114-1.101,1.431C28.814,30.253,28.41,30.36,28.001,30.36z
	 M22.207,24.808c-0.284,0-0.565,0.074-0.82,0.222c-0.381,0.22-0.652,0.572-0.766,0.994c-0.233,0.873,0.287,1.774,1.16,2.008
	l5.795,1.553c0.422,0.111,0.862,0.055,1.244-0.166c0.38-0.22,0.652-0.572,0.765-0.993c0.113-0.421,0.054-0.862-0.166-1.243
	s-0.572-0.652-0.994-0.766l-5.794-1.553C22.49,24.826,22.349,24.808,22.207,24.808z M2.995,26.361c-0.4,0-0.805-0.103-1.176-0.316
	c-0.544-0.313-0.934-0.823-1.097-1.434s-0.081-1.246,0.234-1.789l3-5.196c0.314-0.545,0.823-0.934,1.434-1.098
	c0.61-0.165,1.247-0.081,1.791,0.233c1.126,0.651,1.514,2.097,0.864,3.224l-3,5.196C4.606,25.938,3.811,26.361,2.995,26.361z
	 M6.005,17.166c-0.144,0-0.288,0.02-0.431,0.058c-0.425,0.113-0.778,0.385-0.996,0.762l-3,5.196
	c-0.218,0.378-0.276,0.819-0.162,1.244c0.114,0.424,0.385,0.778,0.762,0.996c0.783,0.45,1.788,0.183,2.24-0.6l3-5.196
	c0.452-0.784,0.183-1.789-0.6-2.241C6.568,17.24,6.289,17.166,6.005,17.166z M28.008,21.554c-0.206,0-0.414-0.027-0.618-0.082
	c-0.611-0.163-1.12-0.554-1.434-1.098l-3-5.195c-0.65-1.127-0.264-2.573,0.863-3.224c0.544-0.314,1.182-0.397,1.79-0.234
	c0.61,0.164,1.12,0.553,1.434,1.097l3,5.196c0.65,1.128,0.263,2.574-0.864,3.224C28.817,21.447,28.415,21.554,28.008,21.554z
	 M24.993,12.359c-0.284,0-0.563,0.074-0.814,0.219c-0.782,0.452-1.052,1.457-0.6,2.24l3,5.196c0.218,0.377,0.572,0.648,0.996,0.762
	c0.425,0.113,0.865,0.057,1.244-0.161l0,0c0.783-0.452,1.053-1.457,0.601-2.241l-3-5.195c-0.218-0.378-0.572-0.648-0.997-0.762
	C25.28,12.378,25.136,12.359,24.993,12.359z M17.995,21.36c-0.408,0-0.811-0.106-1.172-0.315l-5.197-3
	c-1.126-0.65-1.514-2.097-0.864-3.224l0,0c0.65-1.126,2.097-1.515,3.224-0.863l5.196,3c1.127,0.651,1.514,2.097,0.863,3.224
	c-0.313,0.544-0.823,0.934-1.434,1.097C18.408,21.333,18.2,21.36,17.995,21.36z M11.386,15.182c-0.452,0.783-0.183,1.788,0.6,2.24
	l5.196,3c0.786,0.453,1.789,0.182,2.24-0.6c0.452-0.784,0.183-1.789-0.6-2.241l-5.197-3C12.842,14.128,11.838,14.399,11.386,15.182
	L11.386,15.182z M4.007,11.357c-0.206,0-0.414-0.027-0.618-0.082c-0.61-0.164-1.12-0.553-1.434-1.097s-0.397-1.18-0.233-1.791
	c0.164-0.61,0.553-1.119,1.097-1.434l5.196-3c0.543-0.314,1.178-0.397,1.79-0.233c0.61,0.164,1.12,0.553,1.434,1.097l0,0
	c0.65,1.127,0.263,2.574-0.864,3.224l-5.196,3C4.818,11.251,4.416,11.357,4.007,11.357z M9.189,4.359
	c-0.283,0-0.562,0.074-0.813,0.219l-5.196,3C2.802,7.796,2.531,8.15,2.417,8.575S2.361,9.441,2.579,9.818
	c0.453,0.783,1.459,1.053,2.24,0.6l5.196-3c0.783-0.452,1.052-1.457,0.6-2.24C10.398,4.801,10.044,4.53,9.62,4.417
	C9.477,4.378,9.333,4.359,9.189,4.359z M14.998,10.554c-0.4,0-0.805-0.102-1.176-0.315c-1.126-0.651-1.514-2.097-0.864-3.224
	l3-5.196c0.314-0.544,0.824-0.934,1.435-1.097c0.61-0.165,1.246-0.081,1.789,0.234c0.545,0.313,0.935,0.823,1.098,1.433
	c0.164,0.61,0.081,1.246-0.233,1.791l-3,5.196C16.609,10.131,15.814,10.554,14.998,10.554z M18.009,1.359
	c-0.144,0-0.288,0.019-0.431,0.057C17.153,1.53,16.8,1.801,16.582,2.179l-3,5.196c-0.452,0.783-0.183,1.788,0.601,2.24
	c0.783,0.453,1.788,0.182,2.24-0.601l3-5.196c0.218-0.377,0.275-0.819,0.161-1.244c-0.113-0.425-0.385-0.778-0.762-0.996
	C18.571,1.434,18.292,1.359,18.009,1.359z M19.734,3.999h0.009H19.734z M28.994,10.357c-0.408,0-0.811-0.106-1.172-0.315l-5.196-3
	c-0.545-0.314-0.935-0.823-1.098-1.434c-0.164-0.61-0.081-1.246,0.233-1.791c0.313-0.544,0.823-0.934,1.434-1.097
	c0.608-0.164,1.246-0.081,1.79,0.233l5.196,3c1.127,0.651,1.514,2.097,0.863,3.224c-0.313,0.544-0.823,0.934-1.434,1.097
	C29.407,10.331,29.199,10.357,28.994,10.357z M23.812,3.359c-0.143,0-0.287,0.019-0.43,0.057C22.957,3.53,22.603,3.8,22.385,4.178
	c-0.218,0.377-0.275,0.819-0.161,1.244c0.113,0.425,0.385,0.778,0.762,0.996l5.196,3c0.378,0.218,0.819,0.273,1.244,0.162
	c0.424-0.114,0.778-0.384,0.996-0.762c0.452-0.783,0.183-1.788-0.6-2.24l-5.196-3C24.375,3.434,24.096,3.359,23.812,3.359z"/>
<rect id="_Transparent_Rectangle" style="fill:none;" width="32" height="32"/>
</svg>
