<?xml version="1.0" encoding="iso-8859-1"?>
<!-- Generator: Adobe Illustrator 27.5.0, SVG Export Plug-In . SVG Version: 6.00 Build 0)  -->
<svg version="1.1" id="Layer_1" xmlns="http://www.w3.org/2000/svg" xmlns:xlink="http://www.w3.org/1999/xlink" x="0px" y="0px"
	 viewBox="0 0 32 32" style="enable-background:new 0 0 32 32;" xml:space="preserve">
<path id="migration_00000093155987635032892710000016359834541906288040_" d="M2,3.36c0.625,0,1.146-0.425,1.305-1h25.389
	c0.159,0.575,0.681,1,1.306,1c0.75,0,1.36-0.61,1.36-1.36S30.75,0.64,30,0.64c-0.625,0-1.147,0.425-1.306,1H3.305
	c-0.159-0.575-0.681-1-1.305-1C1.25,0.64,0.64,1.25,0.64,2S1.25,3.36,2,3.36z M30,1.36c0.353,0,0.64,0.287,0.64,0.64
	S30.353,2.64,30,2.64S29.36,2.353,29.36,2S29.647,1.36,30,1.36z M2,1.36c0.353,0,0.64,0.287,0.64,0.64S2.353,2.64,2,2.64
	S1.36,2.353,1.36,2S1.647,1.36,2,1.36z M30,7.64c-0.625,0-1.147,0.425-1.306,1H3.305c-0.159-0.575-0.681-1-1.305-1
	C1.25,7.64,0.64,8.25,0.64,9S1.25,10.36,2,10.36c0.625,0,1.146-0.425,1.305-1h25.389c0.159,0.575,0.681,1,1.306,1
	c0.75,0,1.36-0.61,1.36-1.36S30.75,7.64,30,7.64z M2,9.64C1.647,9.64,1.36,9.353,1.36,9S1.647,8.36,2,8.36S2.64,8.647,2.64,9
	S2.353,9.64,2,9.64z M30,9.64c-0.353,0-0.64-0.287-0.64-0.64S29.647,8.36,30,8.36S30.64,8.647,30.64,9S30.353,9.64,30,9.64z
	 M30,21.64c-0.624,0-1.147,0.425-1.306,1H3.305c-0.159-0.575-0.681-1-1.305-1c-0.75,0-1.36,0.61-1.36,1.36S1.25,24.36,2,24.36
	c0.624,0,1.146-0.425,1.305-1h25.389c0.159,0.575,0.681,1,1.306,1c0.75,0,1.36-0.61,1.36-1.36S30.75,21.64,30,21.64z M2,23.64
	c-0.353,0-0.64-0.287-0.64-0.64S1.647,22.36,2,22.36S2.64,22.647,2.64,23S2.353,23.64,2,23.64z M30,23.64
	c-0.353,0-0.64-0.287-0.64-0.64s0.287-0.64,0.64-0.64s0.64,0.287,0.64,0.64S30.353,23.64,30,23.64z M30,28.64
	c-0.624,0-1.147,0.425-1.306,1H3.305c-0.159-0.575-0.681-1-1.305-1c-0.75,0-1.36,0.61-1.36,1.36S1.25,31.36,2,31.36
	c0.624,0,1.146-0.425,1.305-1h25.389c0.159,0.575,0.681,1,1.306,1c0.75,0,1.36-0.61,1.36-1.36S30.75,28.64,30,28.64z M2,30.64
	c-0.353,0-0.64-0.287-0.64-0.64S1.647,29.36,2,29.36S2.64,29.647,2.64,30S2.353,30.64,2,30.64z M30,30.64
	c-0.353,0-0.64-0.287-0.64-0.64s0.287-0.64,0.64-0.64s0.64,0.287,0.64,0.64S30.353,30.64,30,30.64z M30,14.64
	c-0.625,0-1.147,0.425-1.306,1H3.305c-0.159-0.575-0.681-1-1.305-1c-0.75,0-1.36,0.61-1.36,1.36S1.25,17.36,2,17.36
	c0.625,0,1.147-0.426,1.305-1h25.389c0.159,0.575,0.681,1,1.306,1c0.75,0,1.36-0.61,1.36-1.36S30.75,14.64,30,14.64z M2,16.64
	c-0.353,0-0.64-0.287-0.64-0.64S1.647,15.36,2,15.36S2.64,15.647,2.64,16C2.64,16.353,2.353,16.64,2,16.64z M30,16.64
	c-0.353,0-0.64-0.287-0.64-0.64s0.287-0.64,0.64-0.64s0.64,0.287,0.64,0.64C30.64,16.353,30.353,16.64,30,16.64z"/>
<rect id="_Transparent_Rectangle" style="fill:none;" width="32" height="32"/>
</svg>
