<?xml version="1.0" encoding="iso-8859-1"?>
<!-- Generator: Adobe Illustrator 22.0.0, SVG Export Plug-In . SVG Version: 6.00 Build 0)  -->
<svg version="1.1" xmlns="http://www.w3.org/2000/svg" xmlns:xlink="http://www.w3.org/1999/xlink" x="0px" y="0px"
	 viewBox="0 0 48 48" style="enable-background:new 0 0 48 48;" xml:space="preserve">
<g id="milan_skyscrapers">
	<rect style="fill:#FFFFFF;" width="48" height="48"/>
	<g id="milan_skyscrapers_2_">
		<line style="fill:none;stroke:#000000;stroke-width:0.72;stroke-miterlimit:10;" x1="15" y1="25" x2="13" y2="25"/>
		<line style="fill:none;stroke:#000000;stroke-width:0.72;stroke-miterlimit:10;" x1="11" y1="30" x2="9" y2="30"/>
		<line style="fill:none;stroke:#000000;stroke-width:0.72;stroke-miterlimit:10;" x1="11" y1="33" x2="9.165" y2="33"/>
		
			<line style="fill:none;stroke:#000000;stroke-width:0.72;stroke-linecap:square;stroke-miterlimit:10;" x1="39" y1="38" x2="9" y2="38"/>
		<path style="fill:none;stroke:#000000;stroke-width:0.72;stroke-miterlimit:10;" d="M39,38V16h-6c0,11-0.181,15.363-1.67,22"/>
		<line style="fill:none;stroke:#000000;stroke-width:0.72;stroke-miterlimit:10;" x1="39" y1="21" x2="37" y2="21"/>
		<line style="fill:none;stroke:#000000;stroke-width:0.72;stroke-miterlimit:10;" x1="39" y1="19" x2="37" y2="19"/>
		<line style="fill:none;stroke:#000000;stroke-width:0.72;stroke-miterlimit:10;" x1="34" y1="33" x2="32" y2="33"/>
		<path style="fill:none;stroke:#000000;stroke-width:0.72;stroke-miterlimit:10;" d="M34.001,16c0,8-0.001,13,3.999,21.979"/>
		<path style="fill:none;stroke:#000000;stroke-width:0.72;stroke-miterlimit:10;" d="M15.8,38c-0.525-2.585-0.8-5.26-0.8-8
			c0-3.664,0.493-7.213,1.415-10.585l-3.938-3.938C10.254,19.836,9,24.772,9,30c0,2.761,0.35,5.44,1.007,7.995"/>
		
			<line style="fill:none;stroke:#000000;stroke-width:0.72;stroke-linecap:round;stroke-miterlimit:10;" x1="11.392" y1="18" x2="15.733" y2="22.341"/>
		<polyline style="fill:none;stroke:#000000;stroke-width:0.72;stroke-miterlimit:10;" points="29,38 29,12 19,12 19,38 		"/>
		<line style="fill:none;stroke:#000000;stroke-width:0.72;stroke-miterlimit:10;" x1="20" y1="15" x2="28" y2="15"/>
		<line style="fill:none;stroke:#000000;stroke-width:0.72;stroke-miterlimit:10;" x1="20" y1="18" x2="28" y2="18"/>
		<line style="fill:none;stroke:#000000;stroke-width:0.72;stroke-miterlimit:10;" x1="20" y1="21" x2="28" y2="21"/>
		<line style="fill:none;stroke:#000000;stroke-width:0.72;stroke-miterlimit:10;" x1="20" y1="24" x2="28" y2="24"/>
		<line style="fill:none;stroke:#000000;stroke-width:0.72;stroke-miterlimit:10;" x1="20" y1="27" x2="28" y2="27"/>
		<line style="fill:none;stroke:#000000;stroke-width:0.72;stroke-miterlimit:10;" x1="20" y1="30" x2="28" y2="30"/>
		<line style="fill:none;stroke:#000000;stroke-width:0.72;stroke-miterlimit:10;" x1="20" y1="33" x2="28" y2="33"/>
		
			<line style="fill:none;stroke:#000000;stroke-width:0.7197;stroke-linecap:round;stroke-miterlimit:10;" x1="24" y1="12" x2="24" y2="9"/>
	</g>
</g>
<g id="Layer_1">
</g>
</svg>
