<?xml version="1.0" encoding="iso-8859-1"?>
<!-- Generator: Adobe Illustrator 24.1.2, SVG Export Plug-In . SVG Version: 6.00 Build 0)  -->
<svg version="1.1" id="Layer_1" xmlns="http://www.w3.org/2000/svg" xmlns:xlink="http://www.w3.org/1999/xlink" x="0px" y="0px"
	 viewBox="0 0 32 32" style="enable-background:new 0 0 32 32;" xml:space="preserve">
<path id="milan--skyscrapers_1_" d="M24.64,7.64V8c0,11.08-0.214,15.366-1.6,21.64h-1.68v-26h-5V1c0-0.199-0.161-0.36-0.36-0.36
	S15.64,0.801,15.64,1v2.64h-5v26H8.102C7.614,27.138,7.36,24.57,7.36,22c0-3.561,0.472-7.089,1.403-10.489l0.055-0.202L4.382,6.873
	L4.157,7.314C1.823,11.888,0.64,16.829,0.64,22c0,2.584,0.316,5.15,0.919,7.64H0.64v0.721h30.72V30v-0.36v-22
	C31.36,7.64,24.64,7.64,24.64,7.64z M24.575,25.36H26v-0.72h-1.323c0.563-4.151,0.68-8.55,0.683-16.28h0.281
	c0.001,7.53,0.069,12.673,3.822,21.28h-5.686C24.104,28.144,24.367,26.754,24.575,25.36z M11.36,4.36h9.28v25.28h-9.28V4.36z
	 M4.576,8.085l3.438,3.438c-0.186,0.694-0.341,1.397-0.49,2.101L3.771,9.87C4.021,9.269,4.287,8.674,4.576,8.085z M1.55,25.36H3
	v-0.72H1.482c-0.062-0.758-0.102-1.517-0.111-2.28H3v-0.72H1.37c0.042-3.831,0.755-7.528,2.116-11.037l3.867,3.867
	c-0.136,0.72-0.261,1.443-0.357,2.17H5v0.72h1.921C6.745,18.897,6.64,20.444,6.64,22c0,2.57,0.251,5.136,0.731,7.64H2.296
	C1.948,28.236,1.703,26.805,1.55,25.36z M30.246,29.64c-3.822-8.649-3.884-13.496-3.885-21.28h4.278v2.28H29v0.72h1.64v1.28H29v0.72
	h1.64v16.28H30.246z M20,6.64v0.72h-8V6.64H20z M12,9.64h8v0.72h-8V9.64z M12,12.64h8v0.72h-8V12.64z M12,15.64h8v0.72h-8V15.64z
	 M12,18.64h8v0.721h-8V18.64z M12,21.64h8v0.721h-8V21.64z M12,24.64h8v0.721h-8V24.64z"/>
<rect id="_Transparent_Rectangle" style="fill:none;" width="32" height="32"/>
</svg>
