<?xml version="1.0" encoding="iso-8859-1"?>
<!-- Generator: Adobe Illustrator 24.1.2, SVG Export Plug-In . SVG Version: 6.00 Build 0)  -->
<svg version="1.1" id="Layer_1" xmlns="http://www.w3.org/2000/svg" xmlns:xlink="http://www.w3.org/1999/xlink" x="0px" y="0px"
	 viewBox="0 0 32 32" style="enable-background:new 0 0 32 32;" xml:space="preserve">
<path id="mobile--phone_1_" d="M25,31.36H7c-0.199,0-0.36-0.161-0.36-0.36V1c0-0.199,0.161-0.36,0.36-0.36h18
	c0.199,0,0.36,0.161,0.36,0.36v30C25.36,31.199,25.199,31.36,25,31.36z M7.36,30.64h17.28v-6.28H7.36V30.64z M7.36,23.64h17.28V1.36
	H7.36V23.64z M17,27.5c0-0.552-0.448-1-1-1s-1,0.448-1,1s0.448,1,1,1S17,28.052,17,27.5z"/>
<rect id="_Transparent_Rectangle" style="fill:none;" width="32" height="32"/>
</svg>
