<?xml version="1.0" encoding="iso-8859-1"?>
<!-- Generator: Adobe Illustrator 27.5.0, SVG Export Plug-In . SVG Version: 6.00 Build 0)  -->
<svg version="1.1" id="Layer_1" xmlns="http://www.w3.org/2000/svg" xmlns:xlink="http://www.w3.org/1999/xlink" x="0px" y="0px"
	 viewBox="0 0 32 32" style="enable-background:new 0 0 32 32;" xml:space="preserve">
<path id="moon-cake_00000150088239396216482220000003295839695499862690_" d="M16,31.36c-1.441,0-2.79-0.731-3.599-1.93
	c-1.299,0.634-2.833,0.592-4.082-0.129c-1.248-0.721-2.051-2.028-2.151-3.47c-1.442-0.102-2.75-0.903-3.471-2.152
	c-0.72-1.248-0.762-2.782-0.128-4.081C1.371,18.79,0.64,17.44,0.64,16c0-1.441,0.731-2.79,1.93-3.599
	C1.936,11.102,1.977,9.568,2.698,8.32s2.028-2.05,3.47-2.152c0.101-1.441,0.904-2.749,2.152-3.47
	c1.249-0.721,2.782-0.763,4.082-0.128C13.21,1.371,14.559,0.64,16,0.64c1.44,0,2.79,0.731,3.599,1.93
	c1.298-0.634,2.833-0.592,4.081,0.128c1.248,0.721,2.051,2.028,2.152,3.47c1.441,0.101,2.749,0.904,3.47,2.152
	c0.721,1.249,0.763,2.782,0.129,4.082c1.198,0.809,1.93,2.157,1.93,3.599c0,1.44-0.731,2.79-1.93,3.599
	c0.633,1.299,0.592,2.833-0.129,4.081s-2.028,2.051-3.47,2.152c-0.102,1.441-0.904,2.749-2.152,3.47
	c-1.247,0.721-2.783,0.763-4.081,0.129C18.79,30.629,17.44,31.36,16,31.36z M12.529,28.593c0.031,0,0.062,0.005,0.093,0.013
	c0.093,0.025,0.173,0.087,0.22,0.171c0.649,1.149,1.858,1.863,3.157,1.863c1.298,0,2.508-0.714,3.157-1.863
	c0.048-0.084,0.127-0.146,0.221-0.171c0.093-0.022,0.192-0.011,0.275,0.038c1.137,0.671,2.54,0.684,3.667,0.035
	c1.124-0.649,1.815-1.873,1.802-3.192c-0.001-0.097,0.037-0.19,0.105-0.259c0.067-0.067,0.159-0.105,0.255-0.105
	c0.008-0.001,0.026,0.001,0.04,0.001c1.306,0,2.513-0.688,3.156-1.803c0.649-1.125,0.636-2.53-0.035-3.667
	c-0.05-0.083-0.063-0.183-0.038-0.275c0.025-0.094,0.087-0.173,0.171-0.221c1.149-0.649,1.863-1.859,1.863-3.157
	c0-1.299-0.714-2.508-1.863-3.157c-0.084-0.047-0.146-0.127-0.171-0.22s-0.012-0.193,0.038-0.276
	c0.671-1.137,0.685-2.542,0.035-3.666c-0.644-1.115-1.851-1.803-3.156-1.803c-0.015,0-0.032-0.001-0.04,0
	c-0.096,0-0.188-0.038-0.255-0.105c-0.068-0.068-0.106-0.161-0.105-0.258c0.014-1.32-0.678-2.543-1.802-3.192
	c-1.127-0.65-2.53-0.636-3.667,0.035c-0.083,0.049-0.183,0.063-0.275,0.038c-0.094-0.025-0.173-0.086-0.221-0.17
	C18.508,2.074,17.298,1.36,16,1.36c-1.299,0-2.508,0.714-3.157,1.864c-0.047,0.084-0.127,0.146-0.22,0.171
	c-0.094,0.025-0.193,0.012-0.276-0.038C11.209,2.686,9.805,2.672,8.68,3.321c-1.125,0.65-1.815,1.873-1.803,3.193
	c0.001,0.097-0.037,0.19-0.105,0.258C6.704,6.841,6.606,6.895,6.514,6.877C5.185,6.871,3.971,7.555,3.321,8.68
	c-0.649,1.125-0.636,2.529,0.036,3.666c0.049,0.083,0.062,0.183,0.038,0.276s-0.086,0.173-0.171,0.22
	C2.074,13.492,1.36,14.701,1.36,16c0,1.298,0.714,2.508,1.864,3.157c0.084,0.048,0.146,0.127,0.17,0.221
	c0.025,0.093,0.012,0.192-0.038,0.275c-0.671,1.137-0.685,2.542-0.035,3.667c0.643,1.114,1.85,1.803,3.156,1.803
	c0.013,0,0.027-0.003,0.04-0.001c0.095,0,0.187,0.038,0.254,0.105c0.068,0.068,0.106,0.162,0.105,0.259
	c-0.013,1.319,0.678,2.543,1.803,3.192c1.125,0.648,2.529,0.636,3.666-0.035C12.402,28.61,12.465,28.593,12.529,28.593z M26.36,15
	c0-5.712-4.647-10.36-10.36-10.36C10.288,4.64,5.64,9.288,5.64,15c0,0.199,0.161,0.36,0.36,0.36h9c0.199,0,0.36-0.161,0.36-0.36V8
	c0-0.199-0.161-0.36-0.36-0.36c-3.059,0-6.36,2.049-6.36,5.36c0,0.199,0.161,0.36,0.36,0.36h4c0.199,0,0.36-0.161,0.36-0.36v-2
	h-0.72v1.64H9.375c0.223-2.532,2.775-4.128,5.265-4.27v6.27H6.367C6.556,9.49,10.805,5.36,16,5.36s9.443,4.13,9.634,9.28H17.36V8.37
	c2.488,0.142,5.042,1.738,5.264,4.27H19.36V11h-0.72v2c0,0.199,0.161,0.36,0.36,0.36h4c0.199,0,0.36-0.161,0.36-0.36
	c0-3.311-3.302-5.36-6.36-5.36c-0.199,0-0.36,0.161-0.36,0.36v7c0,0.199,0.161,0.36,0.36,0.36h9C26.199,15.36,26.36,15.199,26.36,15
	z M26.36,17c0-0.199-0.161-0.36-0.36-0.36h-9c-0.199,0-0.36,0.161-0.36,0.36v7c0,0.199,0.161,0.36,0.36,0.36
	c3.059,0,6.36-2.05,6.36-5.36c0-0.199-0.161-0.36-0.36-0.36h-4c-0.199,0-0.36,0.161-0.36,0.36v2h0.721v-1.64h3.264
	c-0.222,2.531-2.775,4.128-5.264,4.27v-6.27h8.273c-0.191,5.15-4.439,9.28-9.634,9.28s-9.444-4.13-9.633-9.279h8.273v6.27
	c-2.489-0.142-5.042-1.738-5.265-4.27h3.265V21h0.72v-2c0-0.199-0.161-0.36-0.36-0.36H9c-0.199,0-0.36,0.161-0.36,0.36
	c0,3.311,3.301,5.36,6.36,5.36c0.199,0,0.36-0.161,0.36-0.36v-7c0-0.199-0.161-0.36-0.36-0.36H6c-0.199,0-0.36,0.161-0.36,0.36
	c0,5.713,4.647,10.36,10.36,10.36S26.36,22.713,26.36,17z"/>
<rect id="_Transparent_Rectangle" style="fill:none;" width="32" height="32"/>
</svg>
