<?xml version="1.0" encoding="iso-8859-1"?>
<!-- Generator: Adobe Illustrator 27.5.0, SVG Export Plug-In . SVG Version: 6.00 Build 0)  -->
<svg version="1.1" id="Layer_1" xmlns="http://www.w3.org/2000/svg" xmlns:xlink="http://www.w3.org/1999/xlink" x="0px" y="0px"
	 viewBox="0 0 32 32" style="enable-background:new 0 0 32 32;" xml:space="preserve">
<path id="moon--full_00000048459445246186592000000008338746310608293045_" d="M31.36,9c0,0.199-0.161,0.36-0.36,0.36h-0.64V10
	c0,0.199-0.161,0.36-0.36,0.36s-0.36-0.161-0.36-0.36V9.36H29c-0.199,0-0.36-0.161-0.36-0.36S28.801,8.64,29,8.64h0.64V8
	c0-0.199,0.161-0.36,0.36-0.36S30.36,7.801,30.36,8v0.64H31C31.199,8.64,31.36,8.801,31.36,9z M4,5.64H3.36V5
	c0-0.199-0.161-0.36-0.36-0.36S2.64,4.801,2.64,5v0.64H2C1.801,5.64,1.64,5.801,1.64,6S1.801,6.36,2,6.36h0.64V7
	c0,0.199,0.161,0.36,0.36,0.36S3.36,7.199,3.36,7V6.36H4c0.199,0,0.36-0.161,0.36-0.36S4.199,5.64,4,5.64z M27,2.64h-1.64V1
	c0-0.199-0.161-0.36-0.36-0.36S24.64,0.801,24.64,1v1.64H23c-0.199,0-0.36,0.161-0.36,0.36S22.801,3.36,23,3.36h1.64V5
	c0,0.199,0.161,0.36,0.36,0.36S25.36,5.199,25.36,5V3.36H27c0.199,0,0.36-0.161,0.36-0.36S27.199,2.64,27,2.64z M27.36,18
	c0-6.815-5.545-12.36-12.36-12.36S2.64,11.185,2.64,18h0.72C3.36,11.582,8.582,6.36,15,6.36S26.64,11.582,26.64,18
	S21.418,29.64,15,29.64c-2.27,0-4.469-0.653-6.36-1.89l-0.394,0.604C10.254,29.666,12.59,30.36,15,30.36
	C21.815,30.36,27.36,24.815,27.36,18z M14.36,22.5c0-1.577-1.283-2.86-2.86-2.86c-0.189,0-0.381,0.022-0.581,0.068
	C10.256,18.441,8.947,17.64,7.5,17.64c-1.856,0-3.426,1.335-3.773,3.119C3.491,20.681,3.246,20.64,3,20.64
	c-1.301,0-2.36,1.059-2.36,2.36S1.699,25.36,3,25.36h8.5C13.077,25.36,14.36,24.077,14.36,22.5z M3.836,21.598
	c0.108,0.066,0.242,0.07,0.353,0.01c0.111-0.059,0.184-0.171,0.191-0.297c0.1-1.654,1.47-2.95,3.119-2.95
	c1.264,0,2.399,0.752,2.892,1.916c0.073,0.172,0.265,0.261,0.444,0.201c0.24-0.079,0.458-0.117,0.664-0.117
	c1.18,0,2.14,0.96,2.14,2.14s-0.96,2.14-2.14,2.14H3c-0.904,0-1.64-0.735-1.64-1.64S2.096,21.36,3,21.36
	C3.292,21.36,3.573,21.44,3.836,21.598z"/>
<rect id="_Transparent_Rectangle" style="fill:none;" width="32" height="32"/>
</svg>
