<?xml version="1.0" encoding="iso-8859-1"?>
<!-- Generator: Adobe Illustrator 22.0.0, SVG Export Plug-In . SVG Version: 6.00 Build 0)  -->
<svg version="1.1" xmlns="http://www.w3.org/2000/svg" xmlns:xlink="http://www.w3.org/1999/xlink" x="0px" y="0px"
	 viewBox="0 0 48 48" style="enable-background:new 0 0 48 48;" xml:space="preserve">
<g id="moscow">
	<rect style="fill:#FFFFFF;" width="48" height="48"/>
	<g id="moscow_1_">
		<g>
			<polyline style="fill:none;stroke:#000000;stroke-width:0.72;stroke-linejoin:round;stroke-miterlimit:10;" points="17.723,26 
				28,26 28,28 16,28 			"/>
		</g>
		<path style="fill:none;stroke:#000000;stroke-width:0.72;stroke-linecap:round;stroke-miterlimit:10;" d="M34,34
			c0-0.552,0.448-1,1-1s1,0.448,1,1"/>
		<path style="fill:none;stroke:#000000;stroke-width:0.72;stroke-linecap:round;stroke-miterlimit:10;" d="M32,34
			c0-0.552,0.448-1,1-1s1,0.448,1,1"/>
		<line style="fill:none;stroke:#000000;stroke-width:0.72;stroke-miterlimit:10;" x1="34" y1="33" x2="34" y2="39"/>
		<line style="fill:none;stroke:#000000;stroke-width:0.72;stroke-miterlimit:10;" x1="32" y1="29" x2="32" y2="39"/>
		
			<line style="fill:none;stroke:#000000;stroke-width:0.72;stroke-linecap:round;stroke-miterlimit:10;" x1="36" y1="30" x2="36" y2="34"/>
		
			<line style="fill:none;stroke:#000000;stroke-width:0.72;stroke-linejoin:round;stroke-miterlimit:10;" x1="28" y1="27" x2="28" y2="39"/>
		<line style="fill:none;stroke:#000000;stroke-width:0.72;stroke-miterlimit:10;" x1="24" y1="35" x2="24" y2="39"/>
		<line style="fill:none;stroke:#000000;stroke-width:0.72;stroke-miterlimit:10;" x1="20" y1="35" x2="20" y2="39"/>
		<line style="fill:none;stroke:#000000;stroke-width:0.72;stroke-miterlimit:10;" x1="24" y1="28" x2="24" y2="33"/>
		<line style="fill:none;stroke:#000000;stroke-width:0.72;stroke-miterlimit:10;" x1="20" y1="28" x2="20" y2="33"/>
		<line style="fill:none;stroke:#000000;stroke-width:0.72;stroke-miterlimit:10;" x1="16" y1="28" x2="16" y2="33"/>
		<line style="fill:none;stroke:#000000;stroke-width:0.72;stroke-miterlimit:10;" x1="22" y1="39" x2="22" y2="39"/>
		<line style="fill:none;stroke:#000000;stroke-width:0.72;stroke-miterlimit:10;" x1="26" y1="39" x2="26" y2="39"/>
		<line style="fill:none;stroke:#000000;stroke-width:0.72;stroke-miterlimit:10;" x1="22" y1="37" x2="22" y2="39"/>
		<line style="fill:none;stroke:#000000;stroke-width:0.72;stroke-miterlimit:10;" x1="18" y1="39" x2="18" y2="39"/>
		<line style="fill:none;stroke:#000000;stroke-width:0.72;stroke-miterlimit:10;" x1="18" y1="37" x2="18" y2="39"/>
		<line style="fill:none;stroke:#000000;stroke-width:0.72;stroke-miterlimit:10;" x1="26" y1="37" x2="26" y2="39"/>
		
			<line style="fill:none;stroke:#000000;stroke-width:0.72;stroke-linecap:round;stroke-miterlimit:10;" x1="22" y1="37" x2="22" y2="38"/>
		
			<line style="fill:none;stroke:#000000;stroke-width:0.72;stroke-linecap:round;stroke-miterlimit:10;" x1="18" y1="37" x2="18" y2="38"/>
		
			<line style="fill:none;stroke:#000000;stroke-width:0.72;stroke-linecap:round;stroke-miterlimit:10;" x1="26" y1="37" x2="26" y2="38"/>
		<line style="fill:none;stroke:#000000;stroke-width:0.72;stroke-miterlimit:10;" x1="36" y1="33" x2="36" y2="39"/>
		
			<line style="fill:none;stroke:#000000;stroke-width:0.72;stroke-linecap:round;stroke-miterlimit:10;" x1="32" y1="35" x2="36" y2="35"/>
		
			<rect x="32" y="28" style="fill:none;stroke:#000000;stroke-width:0.72;stroke-linecap:round;stroke-miterlimit:10;" width="4" height="1.906"/>
		
			<line style="fill:none;stroke:#000000;stroke-width:0.72;stroke-linecap:round;stroke-miterlimit:10;" x1="34" y1="28" x2="34" y2="14"/>
		
			<line style="fill:none;stroke:#000000;stroke-width:0.72;stroke-linecap:round;stroke-miterlimit:10;" x1="14" y1="18" x2="14" y2="14"/>
		<path style="fill:none;stroke:#000000;stroke-width:0.72;stroke-linecap:round;stroke-miterlimit:10;" d="M14,34
			c0-0.552,0.448-1,1-1s1,0.448,1,1"/>
		<path style="fill:none;stroke:#000000;stroke-width:0.72;stroke-linecap:round;stroke-miterlimit:10;" d="M12,34
			c0-0.552,0.448-1,1-1s1,0.448,1,1"/>
		<line style="fill:none;stroke:#000000;stroke-width:0.72;stroke-miterlimit:10;" x1="12" y1="34" x2="12" y2="39"/>
		<line style="fill:none;stroke:#000000;stroke-width:0.72;stroke-miterlimit:10;" x1="14" y1="34" x2="14" y2="39"/>
		<line style="fill:none;stroke:#000000;stroke-width:0.72;stroke-miterlimit:10;" x1="16" y1="34" x2="16" y2="39"/>
		
			<line style="fill:none;stroke:#000000;stroke-width:0.72;stroke-linecap:round;stroke-miterlimit:10;" x1="14" y1="30" x2="14" y2="31"/>
		
			<line style="fill:none;stroke:#000000;stroke-width:0.72;stroke-linecap:round;stroke-miterlimit:10;" x1="12" y1="30" x2="12" y2="34"/>
		
			<line style="fill:none;stroke:#000000;stroke-width:0.72;stroke-linecap:round;stroke-miterlimit:10;" x1="12" y1="35" x2="16" y2="35"/>
		
			<rect x="16" y="33" style="fill:none;stroke:#000000;stroke-width:0.72;stroke-linecap:round;stroke-miterlimit:10;" width="12" height="2"/>
		<polyline style="fill:none;stroke:#000000;stroke-width:0.72;stroke-linecap:round;stroke-miterlimit:10;" points="15,33 14,31 
			13,33 		"/>
		<polyline style="fill:none;stroke:#000000;stroke-width:0.72;stroke-linecap:round;stroke-miterlimit:10;" points="24,26 22,22 
			20,26 		"/>
		
			<line style="fill:none;stroke:#000000;stroke-width:0.72;stroke-linecap:round;stroke-linejoin:round;stroke-miterlimit:10;" x1="20" y1="19" x2="17.634" y2="23.14"/>
		
			<line style="fill:none;stroke:#000000;stroke-width:0.72;stroke-linecap:round;stroke-miterlimit:10;" x1="22" y1="19" x2="18" y2="26"/>
		
			<line style="fill:none;stroke:#000000;stroke-width:0.72;stroke-linejoin:round;stroke-miterlimit:10;" x1="28" y1="26" x2="24" y2="19"/>
		
			<line style="fill:none;stroke:#000000;stroke-width:0.72;stroke-linecap:round;stroke-miterlimit:10;" x1="26" y1="26" x2="22" y2="19"/>
		<path style="fill:none;stroke:#000000;stroke-width:0.72;stroke-miterlimit:10;" d="M24,31c1.105-1.333,2.895-1.333,4,0"/>
		<path style="fill:none;stroke:#000000;stroke-width:0.72;stroke-miterlimit:10;" d="M20,31c1.105-1.333,2.895-1.333,4,0"/>
		<path style="fill:none;stroke:#000000;stroke-width:0.72;stroke-miterlimit:10;" d="M16,31c1.105-1.333,2.895-1.333,4,0"/>
		
			<rect x="20" y="17" style="fill:none;stroke:#000000;stroke-width:0.72;stroke-linejoin:round;stroke-miterlimit:10;" width="4" height="2"/>
		<rect x="21" y="15" style="fill:none;stroke:#000000;stroke-width:0.72;stroke-miterlimit:10;" width="2" height="2"/>
		<g>
			
				<line style="fill:none;stroke:#000000;stroke-width:0.72;stroke-linecap:round;stroke-miterlimit:10;" x1="22" y1="9" x2="22" y2="11"/>
			<path style="fill:none;stroke:#000000;stroke-width:0.72;stroke-linecap:round;stroke-linejoin:round;stroke-miterlimit:10;" d="
				M22,11c0,0.724,0.333,1.448,1,2c0.667,0.552,0.667,1.448,0,2"/>
			<path style="fill:none;stroke:#000000;stroke-width:0.72;stroke-linecap:round;stroke-linejoin:round;stroke-miterlimit:10;" d="
				M22,11c0,0.724-0.333,1.448-1,2c-0.667,0.552-0.667,1.448,0,2"/>
		</g>
		<path style="fill:none;stroke:#000000;stroke-width:0.72;stroke-linecap:round;stroke-linejoin:round;stroke-miterlimit:10;" d="
			M34,18c0,1.302,0.764,2.48,2,3.333c1.236,0.853,2,2.032,2,3.333c0,1.302-0.764,2.48-2,3.333"/>
		<path style="fill:none;stroke:#000000;stroke-width:0.72;stroke-linecap:round;stroke-linejoin:round;stroke-miterlimit:10;" d="
			M34,18c0,1.302,0.382,2.48,1,3.333c0.618,0.853,1,2.032,1,3.333c0,1.302-0.382,2.48-1,3.333"/>
		<path style="fill:none;stroke:#000000;stroke-width:0.72;stroke-linecap:round;stroke-linejoin:round;stroke-miterlimit:10;" d="
			M34,18c0,1.302-0.382,2.48-1,3.333c-0.618,0.853-1,2.032-1,3.333c0,1.302,0.382,2.48,1,3.333"/>
		<path style="fill:none;stroke:#000000;stroke-width:0.72;stroke-linecap:round;stroke-linejoin:round;stroke-miterlimit:10;" d="
			M34,18c0,1.302-0.764,2.48-2,3.333c-1.236,0.853-2,2.032-2,3.333c0,1.302,0.764,2.48,2,3.333"/>
		<g>
			<path style="fill:none;stroke:#000000;stroke-width:0.72;stroke-linecap:round;stroke-linejoin:round;stroke-miterlimit:10;" d="
				M12,28c-1.236-0.853-2-2.032-2-3.333c0-1.302,0.764-2.48,2-3.333c1.236-0.853,2-2.032,2-3.333c0,1.302,0.764,2.48,2,3.333
				c1.236,0.853,2,2.032,2,3.333c0,1.302-0.764,2.48-2,3.333"/>
		</g>
		<polyline style="fill:none;stroke:#000000;stroke-width:0.72;stroke-linecap:round;stroke-miterlimit:10;" points="16,30 12,30 
			12,28 16,28 		"/>
		<polyline style="fill:none;stroke:#000000;stroke-width:0.72;stroke-miterlimit:10;" points="10.019,25 11,26 12,25 13,26 14,25 
			15,26 16,25 17.478,26.478 		"/>
		<polyline style="fill:none;stroke:#000000;stroke-width:0.72;stroke-miterlimit:10;" points="10.299,23.285 11,24 12,23 13,24 
			14,23 15,24 16,23 17,24 17.701,23.285 		"/>
		
			<line style="fill:none;stroke:#000000;stroke-width:0.72;stroke-linecap:round;stroke-miterlimit:10;" x1="34" y1="30" x2="34" y2="31"/>
		<polyline style="fill:none;stroke:#000000;stroke-width:0.72;stroke-linecap:round;stroke-miterlimit:10;" points="35,33 34,31 
			33,33 		"/>
	</g>
</g>
<g id="Layer_1">
</g>
</svg>
