<svg xmlns="http://www.w3.org/2000/svg" viewBox="0 0 48 48"><polyline fill="none" stroke-linejoin="round" stroke-miterlimit="10" stroke-width=".72" points="17.723,26 28,26 28,28 16,28"/><path fill="none" stroke-linecap="round" stroke-miterlimit="10" stroke-width=".72" d="M34,34 c0-0.552,0.448-1,1-1s1,0.448,1,1"/><path fill="none" stroke-linecap="round" stroke-miterlimit="10" stroke-width=".72" d="M32,34 c0-0.552,0.448-1,1-1s1,0.448,1,1"/><line x1="34" x2="34" y1="33" y2="39" fill="none" stroke-miterlimit="10" stroke-width=".72"/><line x1="32" x2="32" y1="29" y2="39" fill="none" stroke-miterlimit="10" stroke-width=".72"/><line x1="36" x2="36" y1="30" y2="34" fill="none" stroke-linecap="round" stroke-miterlimit="10" stroke-width=".72"/><line x1="28" x2="28" y1="27" y2="39" fill="none" stroke-linejoin="round" stroke-miterlimit="10" stroke-width=".72"/><line x1="24" x2="24" y1="35" y2="39" fill="none" stroke-miterlimit="10" stroke-width=".72"/><line x1="20" x2="20" y1="35" y2="39" fill="none" stroke-miterlimit="10" stroke-width=".72"/><line x1="24" x2="24" y1="28" y2="33" fill="none" stroke-miterlimit="10" stroke-width=".72"/><line x1="20" x2="20" y1="28" y2="33" fill="none" stroke-miterlimit="10" stroke-width=".72"/><line x1="16" x2="16" y1="28" y2="33" fill="none" stroke-miterlimit="10" stroke-width=".72"/><line x1="22" x2="22" y1="39" y2="39" fill="none" stroke-miterlimit="10" stroke-width=".72"/><line x1="26" x2="26" y1="39" y2="39" fill="none" stroke-miterlimit="10" stroke-width=".72"/><line x1="22" x2="22" y1="37" y2="39" fill="none" stroke-miterlimit="10" stroke-width=".72"/><line x1="18" x2="18" y1="39" y2="39" fill="none" stroke-miterlimit="10" stroke-width=".72"/><line x1="18" x2="18" y1="37" y2="39" fill="none" stroke-miterlimit="10" stroke-width=".72"/><line x1="26" x2="26" y1="37" y2="39" fill="none" stroke-miterlimit="10" stroke-width=".72"/><line x1="22" x2="22" y1="37" y2="38" fill="none" stroke-linecap="round" stroke-miterlimit="10" stroke-width=".72"/><line x1="18" x2="18" y1="37" y2="38" fill="none" stroke-linecap="round" stroke-miterlimit="10" stroke-width=".72"/><line x1="26" x2="26" y1="37" y2="38" fill="none" stroke-linecap="round" stroke-miterlimit="10" stroke-width=".72"/><line x1="36" x2="36" y1="33" y2="39" fill="none" stroke-miterlimit="10" stroke-width=".72"/><line x1="32" x2="36" y1="35" y2="35" fill="none" stroke-linecap="round" stroke-miterlimit="10" stroke-width=".72"/><rect width="4" height="1.906" x="32" y="28" fill="none" stroke-linecap="round" stroke-miterlimit="10" stroke-width=".72"/><line x1="34" x2="34" y1="28" y2="14" fill="none" stroke-linecap="round" stroke-miterlimit="10" stroke-width=".72"/><line x1="14" x2="14" y1="18" y2="14" fill="none" stroke-linecap="round" stroke-miterlimit="10" stroke-width=".72"/><path fill="none" stroke-linecap="round" stroke-miterlimit="10" stroke-width=".72" d="M14,34 c0-0.552,0.448-1,1-1s1,0.448,1,1"/><path fill="none" stroke-linecap="round" stroke-miterlimit="10" stroke-width=".72" d="M12,34 c0-0.552,0.448-1,1-1s1,0.448,1,1"/><line x1="12" x2="12" y1="34" y2="39" fill="none" stroke-miterlimit="10" stroke-width=".72"/><line x1="14" x2="14" y1="34" y2="39" fill="none" stroke-miterlimit="10" stroke-width=".72"/><line x1="16" x2="16" y1="34" y2="39" fill="none" stroke-miterlimit="10" stroke-width=".72"/><line x1="14" x2="14" y1="30" y2="31" fill="none" stroke-linecap="round" stroke-miterlimit="10" stroke-width=".72"/><line x1="12" x2="12" y1="30" y2="34" fill="none" stroke-linecap="round" stroke-miterlimit="10" stroke-width=".72"/><line x1="12" x2="16" y1="35" y2="35" fill="none" stroke-linecap="round" stroke-miterlimit="10" stroke-width=".72"/><rect width="12" height="2" x="16" y="33" fill="none" stroke-linecap="round" stroke-miterlimit="10" stroke-width=".72"/><polyline fill="none" stroke-linecap="round" stroke-miterlimit="10" stroke-width=".72" points="15,33 14,31 13,33"/><polyline fill="none" stroke-linecap="round" stroke-miterlimit="10" stroke-width=".72" points="24,26 22,22 20,26"/><line x1="20" x2="17.634" y1="19" y2="23.14" fill="none" stroke-linecap="round" stroke-linejoin="round" stroke-miterlimit="10" stroke-width=".72"/><line x1="22" x2="18" y1="19" y2="26" fill="none" stroke-linecap="round" stroke-miterlimit="10" stroke-width=".72"/><line x1="28" x2="24" y1="26" y2="19" fill="none" stroke-linejoin="round" stroke-miterlimit="10" stroke-width=".72"/><line x1="26" x2="22" y1="26" y2="19" fill="none" stroke-linecap="round" stroke-miterlimit="10" stroke-width=".72"/><path fill="none" stroke-miterlimit="10" stroke-width=".72" d="M24,31c1.105-1.333,2.895-1.333,4,0"/><path fill="none" stroke-miterlimit="10" stroke-width=".72" d="M20,31c1.105-1.333,2.895-1.333,4,0"/><path fill="none" stroke-miterlimit="10" stroke-width=".72" d="M16,31c1.105-1.333,2.895-1.333,4,0"/><rect width="4" height="2" x="20" y="17" fill="none" stroke-linejoin="round" stroke-miterlimit="10" stroke-width=".72"/><rect width="2" height="2" x="21" y="15" fill="none" stroke-miterlimit="10" stroke-width=".72"/><line x1="22" x2="22" y1="9" y2="11" fill="none" stroke-linecap="round" stroke-miterlimit="10" stroke-width=".72"/><path fill="none" stroke-linecap="round" stroke-linejoin="round" stroke-miterlimit="10" stroke-width=".72" d="M22,11c0,0.724,0.333,1.448,1,2c0.667,0.552,0.667,1.448,0,2"/><path fill="none" stroke-linecap="round" stroke-linejoin="round" stroke-miterlimit="10" stroke-width=".72" d="M22,11c0,0.724-0.333,1.448-1,2c-0.667,0.552-0.667,1.448,0,2"/><path fill="none" stroke-linecap="round" stroke-linejoin="round" stroke-miterlimit="10" stroke-width=".72" d="M34,18c0,1.302,0.764,2.48,2,3.333c1.236,0.853,2,2.032,2,3.333c0,1.302-0.764,2.48-2,3.333"/><path fill="none" stroke-linecap="round" stroke-linejoin="round" stroke-miterlimit="10" stroke-width=".72" d="M34,18c0,1.302,0.382,2.48,1,3.333c0.618,0.853,1,2.032,1,3.333c0,1.302-0.382,2.48-1,3.333"/><path fill="none" stroke-linecap="round" stroke-linejoin="round" stroke-miterlimit="10" stroke-width=".72" d="M34,18c0,1.302-0.382,2.48-1,3.333c-0.618,0.853-1,2.032-1,3.333c0,1.302,0.382,2.48,1,3.333"/><path fill="none" stroke-linecap="round" stroke-linejoin="round" stroke-miterlimit="10" stroke-width=".72" d="M34,18c0,1.302-0.764,2.48-2,3.333c-1.236,0.853-2,2.032-2,3.333c0,1.302,0.764,2.48,2,3.333"/><path fill="none" stroke-linecap="round" stroke-linejoin="round" stroke-miterlimit="10" stroke-width=".72" d="M12,28c-1.236-0.853-2-2.032-2-3.333c0-1.302,0.764-2.48,2-3.333c1.236-0.853,2-2.032,2-3.333c0,1.302,0.764,2.48,2,3.333 c1.236,0.853,2,2.032,2,3.333c0,1.302-0.764,2.48-2,3.333"/><polyline fill="none" stroke-linecap="round" stroke-miterlimit="10" stroke-width=".72" points="16,30 12,30 12,28 16,28"/><polyline fill="none" stroke-miterlimit="10" stroke-width=".72" points="10.019,25 11,26 12,25 13,26 14,25 15,26 16,25 17.478,26.478"/><polyline fill="none" stroke-miterlimit="10" stroke-width=".72" points="10.299,23.285 11,24 12,23 13,24 14,23 15,24 16,23 17,24 17.701,23.285"/><line x1="34" x2="34" y1="30" y2="31" fill="none" stroke-linecap="round" stroke-miterlimit="10" stroke-width=".72"/><polyline fill="none" stroke-linecap="round" stroke-miterlimit="10" stroke-width=".72" points="35,33 34,31 33,33"/></svg>