<?xml version="1.0" encoding="iso-8859-1"?>
<!-- Generator: Adobe Illustrator 29.1.0, SVG Export Plug-In . SVG Version: 9.03 Build 55587)  -->
<svg version="1.1" id="Layer_1" xmlns="http://www.w3.org/2000/svg" xmlns:xlink="http://www.w3.org/1999/xlink" x="0px" y="0px"
	 viewBox="0 0 32 32" style="enable-background:new 0 0 32 32;" xml:space="preserve">
<path id="mountain--biking_00000011023430565117043710000017879298140517306009_" d="M26.173,3.7l-0.6-0.399l1-1.5
	c0.061-0.09,0.157-0.148,0.265-0.159c0.105-0.01,0.214,0.027,0.29,0.104l3,3l-0.51,0.509l-2.689-2.689L26.173,3.7z M21.936,8.434
	l1.776,0.888c0.176,0.088,0.394,0.017,0.483-0.161l1-2L24.55,6.839l-0.839,1.678L22.22,7.771l1.774-4.141l4.624,4.624l0.51-0.509
	l-5-5c-0.085-0.085-0.206-0.122-0.323-0.099s-0.216,0.102-0.263,0.212l-3,7l0.662,0.283L21.936,8.434z M27.873,20.64h2v0.721h-1.864
	l-7.898,6.91c-0.065,0.058-0.15,0.09-0.237,0.09h-5.852l-1.895,1.895c-0.067,0.067-0.159,0.105-0.254,0.105h-10V29.64h2.603
	C3.294,28.86,2.514,27.519,2.514,26c0-2.404,1.956-4.36,4.36-4.36c0.482,0,0.947,0.079,1.381,0.225l1.172-2.734L7.189,17.81
	c-1.264-0.861-1.816-2.21-1.461-3.534l1.035-3.861c0.302-1.126,1.148-1.991,2.232-2.331C8.681,7.618,8.513,7.073,8.513,6.5
	c0-1.577,1.283-2.86,2.86-2.86s2.86,1.283,2.86,2.86c0,1.132-0.686,2.174-1.671,2.645c0.206,0.222,0.361,0.449,0.48,0.7
	l-0.649,0.311c-0.148-0.31-0.377-0.58-0.745-0.875c-0.108-0.087-0.157-0.229-0.125-0.365c0.033-0.136,0.141-0.24,0.277-0.269
	c0.977-0.203,1.713-1.126,1.713-2.147c0-1.18-0.96-2.14-2.14-2.14s-2.14,0.96-2.14,2.14c0,0.588,0.238,1.138,0.671,1.548
	c0.101,0.096,0.138,0.242,0.094,0.375c-0.044,0.133-0.161,0.227-0.3,0.244c-1.081,0.128-1.96,0.888-2.24,1.934l-1.035,3.861
	c-0.273,1.019,0.168,2.069,1.152,2.741l5.48,3.237c0.11,0.064,0.177,0.183,0.177,0.31v3.75c0,0.629,0.512,1.14,1.14,1.14
	s1.14-0.511,1.14-1.14V20c0.004-0.413-0.212-0.982-0.57-1.188l-5.246-2.934c-0.158,0.008-0.3,0.002-0.417-0.03
	C8.8,15.72,8.393,15.424,8.133,15.015c-0.271-0.426-0.349-0.924-0.22-1.402l0.661-2.466l0.695,0.187L8.608,13.8
	c-0.076,0.282-0.028,0.577,0.133,0.83c0.16,0.253,0.424,0.444,0.724,0.524c0.071,0.018,0.262,0.033,0.708-0.08l5.884-1.577
	c0.607-0.163,0.969-0.79,0.807-1.397c-0.164-0.607-0.792-0.97-1.396-0.806l-3.932,1.055l-0.187-0.695l3.932-1.055
	c0.991-0.266,2.013,0.324,2.278,1.315c0.086,0.32,0.082,0.644,0.004,0.945l2.859,3.538c0.698-0.477,1.543-0.755,2.45-0.755
	c2.404,0,4.36,1.956,4.36,4.36c0,0.43-0.062,0.846-0.18,1.238l0.582-0.509C27.701,20.672,27.786,20.64,27.873,20.64z M10.776,15.656
	l1.633,0.914l5.017-2.736l-0.219-0.271c-0.238,0.296-0.569,0.522-0.964,0.628L10.776,15.656z M16.051,19.136l1.926-4.621
	l-0.09-0.112l-4.735,2.582l2.146,1.2C15.654,18.39,15.898,18.75,16.051,19.136z M8.915,22.148c0.874,0.466,1.572,1.221,1.966,2.136
	l1.632-0.544v-2.785L10.05,19.5L8.915,22.148z M7.519,25.405l2.676-0.893c-0.324-0.721-0.876-1.318-1.565-1.699L7.519,25.405z
	 M6.873,29.64c2.007,0,3.64-1.633,3.64-3.64c0-0.276-0.031-0.545-0.09-0.804l-3.437,1.146c-0.133,0.044-0.282,0.007-0.379-0.098
	c-0.096-0.104-0.122-0.256-0.066-0.386l1.427-3.33c-0.346-0.109-0.714-0.168-1.096-0.168c-2.007,0-3.64,1.633-3.64,3.64
	S4.865,29.64,6.873,29.64z M23.546,24.309c-0.22,0.034-0.444,0.052-0.673,0.052c-2.404,0-4.36-1.956-4.36-4.36
	c0-1.238,0.52-2.357,1.351-3.152l-1.372-1.697l-2.259,5.422V24.5c0,1.025-0.834,1.86-1.86,1.86s-1.86-0.835-1.86-1.86l0,0
	l-1.404,0.468c0.081,0.331,0.124,0.677,0.124,1.032c0,1.519-0.781,2.859-1.962,3.64h2.454l1.895-1.895
	c0.067-0.067,0.159-0.105,0.254-0.105h5.865L23.546,24.309z M26.513,20c0-2.007-1.633-3.64-3.64-3.64
	c-0.736,0-1.423,0.22-1.996,0.598l2.276,2.816l-0.561,0.453l-2.275-2.816c-0.669,0.661-1.084,1.578-1.084,2.59
	c0,2.007,1.633,3.64,3.64,3.64S26.513,22.007,26.513,20z"/>
<rect id="_Transparent_Rectangle" style="fill:none;" width="32" height="32"/>
</svg>
