<?xml version="1.0" encoding="iso-8859-1"?>
<!-- Generator: Adobe Illustrator 24.1.2, SVG Export Plug-In . SVG Version: 6.00 Build 0)  -->
<svg version="1.1" xmlns="http://www.w3.org/2000/svg" xmlns:xlink="http://www.w3.org/1999/xlink" x="0px" y="0px"
	 viewBox="0 0 48 48" style="enable-background:new 0 0 48 48;" xml:space="preserve">
<g id="movement--of--goods--03">
	<g id="movement--of--goods--03_1_">
		<line style="fill:none;stroke:#000000;stroke-width:0.72;stroke-miterlimit:10;" x1="22" y1="24" x2="9" y2="24"/>
		<line style="fill:none;stroke:#000000;stroke-width:0.72;stroke-miterlimit:10;" x1="35" y1="24" x2="26.005" y2="24"/>
		<line style="fill:none;stroke:#000000;stroke-width:0.72;stroke-miterlimit:10;" x1="28" y1="19" x2="9" y2="19"/>
		<line style="fill:none;stroke:#000000;stroke-width:0.72;stroke-miterlimit:10;" x1="19" y1="15" x2="14" y2="15"/>
		<path style="fill:none;stroke:#000000;stroke-width:0.72;stroke-miterlimit:10;" d="M25,11c6.545,0,12,3.987,12,11"/>
		
			<rect x="35" y="22" style="fill:none;stroke:#000000;stroke-width:0.72;stroke-linejoin:round;stroke-miterlimit:10;" width="4" height="4"/>
		<path style="fill:none;stroke:#000000;stroke-width:0.72;stroke-miterlimit:10;" d="M21,15h2.309c2.265,0,4.433,1.117,5.691,3"/>
		<line style="fill:none;stroke:#000000;stroke-width:0.72;stroke-miterlimit:10;" x1="28" y1="29" x2="9" y2="29"/>
		<line style="fill:none;stroke:#000000;stroke-width:0.72;stroke-miterlimit:10;" x1="19" y1="33" x2="14" y2="33"/>
		<path style="fill:none;stroke:#000000;stroke-width:0.72;stroke-miterlimit:10;" d="M25,37c6.545,0,12-3.987,12-11"/>
		<path style="fill:none;stroke:#000000;stroke-width:0.72;stroke-miterlimit:10;" d="M21,33h2.309c2.265,0,4.433-1.117,5.691-3"/>
		<circle style="fill:none;stroke:#000000;stroke-width:0.72;stroke-miterlimit:10;" cx="24" cy="11" r="1"/>
		<circle style="fill:none;stroke:#000000;stroke-width:0.72;stroke-miterlimit:10;" cx="20" cy="15" r="1"/>
		<circle style="fill:none;stroke:#000000;stroke-width:0.72;stroke-miterlimit:10;" cx="29" cy="19" r="1"/>
		<circle style="fill:none;stroke:#000000;stroke-width:0.72;stroke-miterlimit:10;" cx="29" cy="29" r="1"/>
		<circle style="fill:none;stroke:#000000;stroke-width:0.72;stroke-miterlimit:10;" cx="20" cy="33" r="1"/>
		<circle style="fill:none;stroke:#000000;stroke-width:0.72;stroke-miterlimit:10;" cx="24" cy="37" r="1"/>
		<circle style="fill:none;stroke:#000000;stroke-width:0.72;stroke-miterlimit:10;" cx="24" cy="24" r="2"/>
	</g>
</g>
<g id="Layer_1">
</g>
</svg>
