<?xml version="1.0" encoding="iso-8859-1"?>
<!-- Generator: Adobe Illustrator 24.1.2, SVG Export Plug-In . SVG Version: 6.00 Build 0)  -->
<svg version="1.1" xmlns="http://www.w3.org/2000/svg" xmlns:xlink="http://www.w3.org/1999/xlink" x="0px" y="0px"
	 viewBox="0 0 48 48" style="enable-background:new 0 0 48 48;" xml:space="preserve">
<g id="movement--in--overlapping--networks">
	<g id="movement--in--overlapping--networks_1_">
		<path style="fill:none;stroke:#000000;stroke-width:0.72;stroke-miterlimit:10;" d="M19,34c-5.522,0-10-4.477-10-10
			c0-5.523,4.478-10,10-10c5.522,0,10,4.477,10,10c0,3.701-2.011,6.933-5,8.662"/>
		<path style="fill:none;stroke:#000000;stroke-width:0.72;stroke-miterlimit:10;" d="M15,21c-1.061,1.368-2,3.351-2,5.417
			C13,30.605,15.687,34,19,34"/>
		<polyline style="fill:none;stroke:#000000;stroke-width:0.72;stroke-miterlimit:10;" points="12.084,21.662 15.001,20.999 
			15.663,23.925 		"/>
		<path style="fill:none;stroke:#000000;stroke-width:0.72;stroke-miterlimit:10;" d="M29,14c5.522,0,10,4.477,10,10
			c0,5.523-4.478,10-10,10c-5.522,0-10-4.477-10-10c0-3.701,2.011-6.933,5-8.662"/>
		<path style="fill:none;stroke:#000000;stroke-width:0.72;stroke-miterlimit:10;" d="M33,27c1.061-1.368,2-3.351,2-5.417
			C35,17.395,32.313,14,29,14"/>
		<polyline style="fill:none;stroke:#000000;stroke-width:0.72;stroke-miterlimit:10;" points="35.916,26.338 32.999,27.001 
			32.337,24.075 		"/>
	</g>
</g>
<g id="Layer_1">
</g>
</svg>
