<?xml version="1.0" encoding="iso-8859-1"?>
<!-- Generator: Adobe Illustrator 24.1.2, SVG Export Plug-In . SVG Version: 6.00 Build 0)  -->
<svg version="1.1" id="Layer_1" xmlns="http://www.w3.org/2000/svg" xmlns:xlink="http://www.w3.org/1999/xlink" x="0px" y="0px"
	 viewBox="0 0 32 32" style="enable-background:new 0 0 32 32;" xml:space="preserve">
<path id="movement--in--overlapping--networks_1_" d="M21,5.64v0.72c3.11,0,5.64,3.24,5.64,7.223c0,1.929-0.831,3.569-1.468,4.548
	l-0.483-2.136l-0.703,0.159l0.742,3.277l3.269-0.743l-0.16-0.701l-2.009,0.457c0.68-1.067,1.534-2.81,1.534-4.861
	c0-2.69-1.079-5.067-2.721-6.505c3.515,1.44,6,4.894,6,8.922c0,5.315-4.324,9.64-9.64,9.64c-1.543,0-2.997-0.373-4.292-1.021
	c2.875-1.911,4.652-5.146,4.652-8.619c0-5.712-4.648-10.36-10.36-10.36S0.64,10.288,0.64,16c0,5.713,4.647,10.36,10.36,10.36v-0.72
	c-3.11,0-5.64-3.24-5.64-7.223c0-1.93,0.832-3.569,1.469-4.548l0.483,2.136l0.702-0.159l-0.742-3.278l-3.268,0.743l0.159,0.702
	l2.009-0.456c-0.68,1.066-1.532,2.809-1.532,4.86c0,2.689,1.078,5.066,2.72,6.504c-3.515-1.44-6-4.893-6-8.921
	c0-5.315,4.325-9.64,9.64-9.64c1.543,0,2.997,0.373,4.292,1.021C12.416,9.291,10.64,12.526,10.64,16
	c0,5.713,4.647,10.36,10.36,10.36S31.36,21.713,31.36,16C31.36,10.288,26.713,5.64,21,5.64z M11.36,16
	c0-3.357,1.776-6.483,4.637-8.228C18.775,9.466,20.64,12.515,20.64,16c0,3.357-1.776,6.482-4.637,8.228
	C13.225,22.534,11.36,19.485,11.36,16z"/>
<rect id="_Transparent_Rectangle" style="fill:none;" width="32" height="32"/>
</svg>
