<?xml version="1.0" encoding="iso-8859-1"?>
<!-- Generator: Adobe Illustrator 24.1.2, SVG Export Plug-In . SVG Version: 6.00 Build 0)  -->
<svg version="1.1" id="Layer_1" xmlns="http://www.w3.org/2000/svg" xmlns:xlink="http://www.w3.org/1999/xlink" x="0px" y="0px"
	 viewBox="0 0 32 32" style="enable-background:new 0 0 32 32;" xml:space="preserve">
<path id="mqa_2_" d="M3.194,15.994V8.77h1.12v1.163H4.37c0.084-0.185,0.179-0.358,0.287-0.52S4.896,9.11,5.049,8.99
	c0.154-0.12,0.333-0.215,0.539-0.284c0.205-0.069,0.448-0.104,0.728-0.104c0.476,0,0.915,0.113,1.316,0.34s0.7,0.599,0.896,1.117
	h0.028C8.687,9.67,8.932,9.33,9.292,9.039c0.359-0.292,0.847-0.438,1.463-0.438c0.737,0,1.313,0.241,1.729,0.721
	c0.415,0.48,0.623,1.16,0.623,2.037v4.634h-1.12v-4.448c0-0.645-0.126-1.132-0.378-1.459c-0.252-0.328-0.653-0.491-1.204-0.491
	c-0.224,0-0.437,0.028-0.637,0.084C9.566,9.736,9.387,9.82,9.229,9.933s-0.285,0.255-0.378,0.428c-0.094,0.173-0.14,0.376-0.14,0.61
	v5.023H7.59v-4.448c0-0.645-0.126-1.132-0.378-1.459C6.96,9.759,6.568,9.596,6.037,9.596c-0.224,0-0.439,0.028-0.644,0.084
	C5.187,9.736,5.005,9.82,4.846,9.933S4.56,10.188,4.461,10.36s-0.147,0.376-0.147,0.61v5.023h-1.12V15.994z M20.036,14.831H19.98
	c-0.438,0.887-1.144,1.331-2.114,1.331c-0.448,0-0.854-0.089-1.218-0.266c-0.364-0.177-0.674-0.429-0.931-0.756
	s-0.453-0.723-0.588-1.19s-0.203-0.989-0.203-1.568s0.067-1.102,0.203-1.568c0.135-0.466,0.332-0.863,0.588-1.19
	c0.256-0.327,0.567-0.579,0.931-0.756c0.365-0.177,0.77-0.266,1.218-0.266c0.504,0,0.936,0.109,1.295,0.326s0.633,0.552,0.819,1.005
	h0.056V8.77h1.12v10.023h-1.12V14.831z M18.175,15.167c0.252,0,0.492-0.033,0.721-0.098c0.229-0.066,0.427-0.162,0.595-0.289
	s0.301-0.281,0.399-0.464s0.146-0.392,0.146-0.626v-2.702c0-0.197-0.049-0.382-0.146-0.556c-0.099-0.173-0.231-0.321-0.399-0.443
	S19.125,9.771,18.896,9.7c-0.229-0.07-0.469-0.105-0.721-0.105c-0.636,0-1.135,0.199-1.499,0.598
	c-0.364,0.398-0.546,0.921-0.546,1.569V13c0,0.648,0.182,1.171,0.546,1.569C17.04,14.968,17.539,15.167,18.175,15.167z
	 M28.786,15.994c-0.42,0-0.721-0.112-0.903-0.336s-0.296-0.504-0.343-0.84h-0.07c-0.158,0.448-0.42,0.784-0.784,1.008
	c-0.363,0.224-0.798,0.336-1.302,0.336c-0.766,0-1.36-0.196-1.785-0.588s-0.637-0.924-0.637-1.596c0-0.681,0.25-1.204,0.749-1.568
	c0.499-0.364,1.276-0.546,2.331-0.546h1.428V11.15c0-0.513-0.14-0.905-0.42-1.176s-0.709-0.406-1.288-0.406
	c-0.438,0-0.805,0.098-1.099,0.294s-0.539,0.457-0.735,0.784l-0.672-0.63c0.196-0.392,0.509-0.726,0.938-1.001
	c0.429-0.275,0.97-0.413,1.624-0.413c0.877,0,1.559,0.214,2.044,0.643c0.484,0.429,0.728,1.024,0.728,1.788V15h0.826v0.994H28.786z
	 M25.566,15.209c0.279,0,0.536-0.032,0.77-0.098s0.434-0.159,0.602-0.28c0.168-0.121,0.299-0.261,0.393-0.42
	c0.093-0.159,0.14-0.331,0.14-0.518v-1.19h-1.483c-0.645,0-1.113,0.093-1.407,0.28c-0.294,0.187-0.441,0.457-0.441,0.812v0.294
	c0,0.354,0.129,0.63,0.385,0.826C24.779,15.112,25.127,15.209,25.566,15.209z M31,31.36H1v-0.72h30V31.36z M31,24.36H1
	c-0.199,0-0.36-0.161-0.36-0.36V1c0-0.199,0.161-0.36,0.36-0.36h30c0.199,0,0.36,0.161,0.36,0.36v23
	C31.36,24.199,31.199,24.36,31,24.36z M1.36,23.64h29.28V1.36H1.36V23.64z"/>
<rect id="_Transparent_Rectangle" style="fill:none;" width="32" height="32"/>
</svg>
