<?xml version="1.0" encoding="iso-8859-1"?>
<!-- Generator: Adobe Illustrator 24.1.2, SVG Export Plug-In . SVG Version: 6.00 Build 0)  -->
<svg version="1.1" xmlns="http://www.w3.org/2000/svg" xmlns:xlink="http://www.w3.org/1999/xlink" x="0px" y="0px"
	 viewBox="0 0 48 48" style="enable-background:new 0 0 48 48;" xml:space="preserve">
<g id="mri--patient">
	<path id="mri--patient_1_" style="fill:none;stroke:#000000;stroke-width:0.72;stroke-linejoin:round;stroke-miterlimit:10;" d="
		M29.5,23c1.381,0,2.5,1.119,2.5,2.5S30.881,28,29.5,28S27,26.881,27,25.5S28.119,23,29.5,23z M15.202,34
		c2.525,2.474,5.983,4,9.798,4c7.732,0,14-6.268,14-14s-6.268-14-14-14c-6.342,0-11.699,4.217-13.42,10 M33,30H9v4h16
		c5.523,0,10-4.477,10-10s-4.477-10-10-10c-4.101,0-7.625,2.468-9.168,6 M11,38v-4 M9,38h4 M23,12h4 M9,28h8h7.5
		c1.381,0,2.5-1.119,2.5-2.5v0c0-1.381-1.119-2.5-2.5-2.5H19c-1.105,0-2,0.895-2,2v0H9"/>
</g>
<g id="Layer_1">
</g>
</svg>
