<?xml version="1.0" encoding="iso-8859-1"?>
<!-- Generator: Adobe Illustrator 24.1.2, SVG Export Plug-In . SVG Version: 6.00 Build 0)  -->
<svg version="1.1" xmlns="http://www.w3.org/2000/svg" xmlns:xlink="http://www.w3.org/1999/xlink" x="0px" y="0px"
	 viewBox="0 0 48 48" style="enable-background:new 0 0 48 48;" xml:space="preserve">
<g id="mri">
	<path id="mri_2_" style="fill:none;stroke:#000000;stroke-width:0.72;stroke-miterlimit:10;" d="M12.347,30
		C11.483,28.182,11,26.147,11,24c0-7.732,6.268-14,14-14s14,6.268,14,14s-6.268,14-14,14c-3.815,0-7.273-1.526-9.798-4 M25,34
		c5.523,0,10-4.477,10-10s-4.477-10-10-10s-10,4.477-10,10c0,2.252,0.744,4.329,2,6.001 M33,30H9v4h16 M11,38v-4 M9,38h4 M23,12h4"
		/>
</g>
<g id="Layer_1">
</g>
</svg>
