<svg xmlns="http://www.w3.org/2000/svg" viewBox="0 0 48 48"><path fill="none" stroke-linejoin="round" stroke-miterlimit="10" stroke-width=".72" d="M28,13c0,2.209-1.791,4-4,4s-4-1.791-4-4s1.791-4,4-4S28,10.791,28,13z M13,17c-2.209,0-4,1.791-4,4s1.791,4,4,4s4-1.791,4-4 S15.209,17,13,17z M35,17c-2.209,0-4,1.791-4,4s1.791,4,4,4s4-1.791,4-4S37.209,17,35,17z M31.25,39 c0-3.357-2.285-6.173-5.382-6.998c1.392-0.691,2.357-2.113,2.357-3.772c0-2.333-1.892-4.225-4.225-4.225s-4.225,1.892-4.225,4.225 c0,1.659,0.966,3.081,2.357,3.772C19.035,32.827,16.75,35.643,16.75,39"/></svg>