<?xml version="1.0" encoding="iso-8859-1"?>
<!-- Generator: Adobe Illustrator 24.1.2, SVG Export Plug-In . SVG Version: 6.00 Build 0)  -->
<svg version="1.1" id="Layer_1" xmlns="http://www.w3.org/2000/svg" xmlns:xlink="http://www.w3.org/1999/xlink" x="0px" y="0px"
	 viewBox="0 0 32 32" style="enable-background:new 0 0 32 32;" xml:space="preserve">
<path id="multitask_1_" d="M23.61,31h-0.72c0-3.114-2.104-5.849-5.115-6.65c-0.145-0.038-0.25-0.162-0.266-0.312
	c-0.015-0.149,0.064-0.292,0.198-0.358c1.331-0.661,2.157-1.982,2.157-3.449c0-2.132-1.733-3.866-3.864-3.866
	s-3.865,1.734-3.865,3.866c0,1.466,0.827,2.788,2.158,3.449c0.134,0.066,0.213,0.209,0.198,0.358s-0.121,0.273-0.266,0.312
	C11.213,25.151,9.11,27.886,9.11,31H8.39c0-3.17,1.973-5.984,4.886-7.1c-1.165-0.855-1.861-2.201-1.861-3.67
	c0-2.528,2.057-4.585,4.585-4.585s4.585,2.057,4.585,4.585c0,1.469-0.697,2.815-1.861,3.67C21.637,25.016,23.61,27.83,23.61,31z
	 M27,17.36c-2.404,0-4.36-1.956-4.36-4.36S24.596,8.64,27,8.64s4.36,1.956,4.36,4.36S29.404,17.36,27,17.36z M27,9.36
	c-2.007,0-3.64,1.633-3.64,3.64s1.633,3.64,3.64,3.64s3.64-1.633,3.64-3.64S29.007,9.36,27,9.36z M5,17.36
	c-2.404,0-4.36-1.956-4.36-4.36S2.596,8.64,5,8.64S9.36,10.596,9.36,13S7.404,17.36,5,17.36z M5,9.36c-2.007,0-3.64,1.633-3.64,3.64
	S2.993,16.64,5,16.64S8.64,15.007,8.64,13S7.007,9.36,5,9.36z M16,9.36c-2.404,0-4.36-1.956-4.36-4.36S13.596,0.64,16,0.64
	S20.36,2.596,20.36,5S18.404,9.36,16,9.36z M16,1.36c-2.007,0-3.64,1.633-3.64,3.64S13.993,8.64,16,8.64S19.64,7.007,19.64,5
	S18.007,1.36,16,1.36z"/>
<rect id="_Transparent_Rectangle" style="fill:none;" width="32" height="32"/>
</svg>
