<?xml version="1.0" encoding="iso-8859-1"?>
<!-- Generator: Adobe Illustrator 29.1.0, SVG Export Plug-In . SVG Version: 9.03 Build 55587)  -->
<svg version="1.1" id="Layer_1" xmlns="http://www.w3.org/2000/svg" xmlns:xlink="http://www.w3.org/1999/xlink" x="0px" y="0px"
	 viewBox="0 0 32 32" style="enable-background:new 0 0 32 32;" xml:space="preserve">
<path id="multi-model_00000165946439189503469910000013872007473101826478_" d="M13,31.36c-0.75,0-1.36-0.61-1.36-1.36
	s0.61-1.36,1.36-1.36c0.597,0,1.105,0.387,1.288,0.923c3.502-0.426,6.604-2.617,8.201-5.744c-0.694,0.222-1.416,0.378-2.158,0.465
	C20.2,24.897,19.653,25.36,19,25.36c-0.75,0-1.36-0.61-1.36-1.36s0.61-1.36,1.36-1.36c0.597,0,1.105,0.387,1.288,0.923
	c0.907-0.108,1.783-0.33,2.611-0.654c0.005-0.013,0.01-0.026,0.016-0.039l0.042,0.017c2.358-0.938,4.325-2.707,5.523-5.05
	c0.16-0.313,0.305-0.637,0.435-0.967l0.67,0.262c-0.138,0.354-0.292,0.698-0.464,1.033c-1.24,2.426-3.253,4.274-5.671,5.298
	c-1.59,3.713-5.112,6.35-9.12,6.82C14.2,30.897,13.653,31.36,13,31.36z M13,29.36c-0.353,0-0.64,0.287-0.64,0.64
	s0.287,0.64,0.64,0.64s0.64-0.287,0.64-0.64S13.353,29.36,13,29.36z M19,23.36c-0.353,0-0.64,0.287-0.64,0.64s0.287,0.64,0.64,0.64
	s0.64-0.287,0.64-0.64S19.353,23.36,19,23.36z M8.869,29.585c-3.297-1.287-5.839-4.086-6.801-7.487
	c-0.164-0.576-0.281-1.169-0.351-1.768C1.103,20.2,0.64,19.653,0.64,19c0-0.75,0.61-1.36,1.36-1.36S3.36,18.25,3.36,19
	c0,0.597-0.387,1.105-0.923,1.288c0.066,0.546,0.174,1.088,0.323,1.614c0.901,3.185,3.283,5.807,6.371,7.013L8.869,29.585z M2,18.36
	c-0.353,0-0.64,0.287-0.64,0.64S1.647,19.64,2,19.64S2.64,19.353,2.64,19S2.353,18.36,2,18.36z M14.869,23.585
	c-0.354-0.138-0.698-0.293-1.032-0.463c-3.411-1.744-5.681-5.015-6.12-8.792C7.103,14.2,6.64,13.653,6.64,13
	c0-0.75,0.61-1.36,1.36-1.36S9.36,12.25,9.36,13c0,0.597-0.387,1.105-0.923,1.288c0.423,3.52,2.545,6.565,5.727,8.192
	c0.313,0.159,0.636,0.305,0.967,0.435L14.869,23.585z M8,12.36c-0.353,0-0.64,0.287-0.64,0.64S7.647,13.64,8,13.64
	c0.353,0,0.64-0.287,0.64-0.64S8.353,12.36,8,12.36z M24,20.36c-0.75,0-1.36-0.61-1.36-1.36c0-0.597,0.387-1.105,0.923-1.288
	c-0.468-3.846-3.065-7.209-6.693-8.626l0.262-0.671c3.888,1.518,6.667,5.13,7.151,9.255c0.615,0.13,1.078,0.677,1.078,1.33
	C25.36,19.75,24.75,20.36,24,20.36z M24,18.36c-0.353,0-0.64,0.287-0.64,0.64s0.287,0.64,0.64,0.64s0.64-0.287,0.64-0.64
	S24.353,18.36,24,18.36z M19,19.36h-2c-0.199,0-0.36-0.161-0.36-0.36v-2c0-0.199,0.161-0.36,0.36-0.36h2
	c0.199,0,0.36,0.161,0.36,0.36v2C19.36,19.199,19.199,19.36,19,19.36z M17.36,18.64h1.279v-1.28H17.36V18.64z M15,19.36h-2
	c-0.199,0-0.36-0.161-0.36-0.36v-2c0-0.199,0.161-0.36,0.36-0.36h2c0.199,0,0.36,0.161,0.36,0.36v2
	C15.36,19.199,15.199,19.36,15,19.36z M13.36,18.64h1.28v-1.28h-1.28V18.64z M19,15.36h-2c-0.199,0-0.36-0.161-0.36-0.36v-2
	c0-0.199,0.161-0.36,0.36-0.36h2c0.199,0,0.36,0.161,0.36,0.36v2C19.36,15.199,19.199,15.36,19,15.36z M17.36,14.64h1.279v-1.28
	H17.36V14.64z M15,15.36h-2c-0.199,0-0.36-0.161-0.36-0.36v-2c0-0.199,0.161-0.36,0.36-0.36h2c0.199,0,0.36,0.161,0.36,0.36v2
	C15.36,15.199,15.199,15.36,15,15.36z M13.36,14.64h1.28v-1.28h-1.28V14.64z M3.085,15.131l-0.671-0.262
	c1.118-2.862,3.37-5.124,6.127-6.311c0.26-0.61,0.574-1.199,0.936-1.755c1.861-2.854,4.834-4.695,8.192-5.085
	C17.8,1.103,18.347,0.64,19,0.64c0.75,0,1.36,0.61,1.36,1.36S19.75,3.36,19,3.36c-0.597,0-1.105-0.387-1.288-0.923
	c-3.128,0.376-5.896,2.098-7.631,4.759c-0.21,0.321-0.402,0.655-0.576,0.998c0.699-0.228,1.423-0.389,2.165-0.477
	C11.8,7.103,12.347,6.64,13,6.64c0.75,0,1.36,0.61,1.36,1.36S13.75,9.36,13,9.36c-0.597,0-1.105-0.387-1.288-0.922
	c-0.906,0.11-1.784,0.338-2.617,0.67c-0.004,0.007-0.007,0.015-0.01,0.023L9.06,9.121C6.371,10.204,4.164,12.369,3.085,15.131z
	 M13,7.36c-0.353,0-0.64,0.287-0.64,0.64S12.647,8.64,13,8.64S13.64,8.353,13.64,8S13.353,7.36,13,7.36z M19,1.36
	c-0.353,0-0.64,0.287-0.64,0.64S18.647,2.64,19,2.64S19.64,2.353,19.64,2S19.353,1.36,19,1.36z M30,14.36
	c-0.75,0-1.36-0.61-1.36-1.36c0-0.597,0.387-1.105,0.923-1.288c-0.376-3.127-2.098-5.896-4.759-7.631
	c-0.609-0.397-1.261-0.732-1.935-0.995l0.262-0.671c0.72,0.281,1.415,0.639,2.065,1.062c2.854,1.861,4.696,4.834,5.087,8.192
	C30.897,11.8,31.36,12.347,31.36,13C31.36,13.75,30.75,14.36,30,14.36z M30,12.36c-0.353,0-0.64,0.287-0.64,0.64
	s0.287,0.64,0.64,0.64s0.64-0.287,0.64-0.64S30.353,12.36,30,12.36z"/>
<rect id="_Transparent_Rectangle" style="fill:none;" width="32" height="32"/>
</svg>
