<?xml version="1.0" encoding="iso-8859-1"?>
<!-- Generator: Adobe Illustrator 29.1.0, SVG Export Plug-In . SVG Version: 9.03 Build 55587)  -->
<svg version="1.1" id="Layer_1" xmlns="http://www.w3.org/2000/svg" xmlns:xlink="http://www.w3.org/1999/xlink" x="0px" y="0px"
	 viewBox="0 0 32 32" style="enable-background:new 0 0 32 32;" xml:space="preserve">
<path id="mumbai_00000158711193175955697040000004477627920386042801_" d="M21,15.5c0,0.276-0.224,0.5-0.5,0.5S20,15.776,20,15.5
	s0.224-0.5,0.5-0.5S21,15.224,21,15.5z M24.5,16c-0.276,0-0.5,0.224-0.5,0.5s0.224,0.5,0.5,0.5s0.5-0.224,0.5-0.5S24.776,16,24.5,16
	z M28.5,16c-0.276,0-0.5,0.224-0.5,0.5s0.224,0.5,0.5,0.5s0.5-0.224,0.5-0.5S28.776,16,28.5,16z M12.5,15
	c-0.276,0-0.5,0.224-0.5,0.5s0.224,0.5,0.5,0.5s0.5-0.224,0.5-0.5S12.776,15,12.5,15z M4.5,16C4.224,16,4,16.224,4,16.5
	S4.224,17,4.5,17S5,16.776,5,16.5S4.776,16,4.5,16z M8.5,16C8.224,16,8,16.224,8,16.5S8.224,17,8.5,17S9,16.776,9,16.5
	S8.776,16,8.5,16z M25,28.36H7v-0.72h18V28.36z M29,26.36H3v-0.72h26V26.36z M31,24.36H1v-0.72h0.64V13.36H1v-0.72h0.64v-1.28H1
	v-0.72h8.64V8.36H9V7.64h0.64V6c0-0.625,0.424-1.153,1-1.312V3h0.72v1.688C11.935,4.847,12.358,5.375,12.358,6l0.001,1.64h7.28V6
	c0-0.015,0.001-0.029,0.003-0.044c0.02-0.606,0.437-1.113,0.997-1.268V3h0.721v1.688c0.575,0.158,1,0.686,1,1.312v1.64H23v0.72
	h-0.64v2.28H31v0.72h-0.64v1.28H31v0.72h-0.64v10.28H31V24.36z M28.36,23.64h1.279V13.36H28.36V15h-0.72v-1.64h-1.28V15h-0.72v-1.64
	h-1.28V15h-0.72v-1.64h-1.28v10.28h2.279V19c0-0.746,0.371-1.439,0.992-1.854l0.669-0.445c0.119-0.081,0.279-0.081,0.398,0
	l0.668,0.445c0.622,0.415,0.993,1.108,0.993,1.854L28.36,23.64L28.36,23.64z M25.36,23.64h2.279V19c0-0.505-0.251-0.975-0.672-1.255
	L26.5,17.433l-0.469,0.312c-0.42,0.28-0.671,0.75-0.671,1.255V23.64z M19.36,23.64h2.279V13.36H10.36v10.28h2.28V18
	c0-2.234,3.113-3.297,3.246-3.341c0.074-0.025,0.153-0.025,0.228,0c0.133,0.044,3.247,1.107,3.247,3.341L19.36,23.64L19.36,23.64z
	 M13.36,23.64h5.28V18c0-1.512-2.119-2.417-2.64-2.617c-0.521,0.199-2.64,1.104-2.64,2.617C13.36,18,13.36,23.64,13.36,23.64z
	 M8.36,23.64h1.28V13.36H8.36V15H7.64v-1.64H6.36V15H5.64v-1.64H4.36V15H3.64v-1.64H2.36v10.28h2.28V19
	c0-0.747,0.371-1.44,0.992-1.854L6.3,16.701c0.121-0.081,0.278-0.081,0.399,0l0.668,0.445C7.989,17.56,8.36,18.253,8.36,19V23.64z
	 M5.36,23.64h2.28V19c0-0.506-0.251-0.975-0.672-1.255L6.5,17.433l-0.468,0.312C5.611,18.025,5.36,18.494,5.36,19V23.64z
	 M22.36,12.64h7.279v-1.28H22.36V12.64z M20.36,12.64h1.279v-1.28H20.36V12.64z M18.36,12.64h1.279v-1.28H18.36V12.64z M16.36,12.64
	h1.28v-1.28h-1.28V12.64z M14.36,12.64h1.28v-1.28h-1.28V12.64z M12.36,12.64h1.28v-1.28h-1.28V12.64z M10.36,12.64h1.28v-1.28
	h-1.28V12.64z M2.36,12.64h7.28v-1.28H2.36V12.64z M10.36,10.64h11.28V8.36H10.36V10.64z M20.36,7.64h1.279V6
	c0-0.353-0.287-0.64-0.64-0.64c-0.352,0-0.638,0.287-0.638,0.64c0,0.013-0.001,0.025-0.002,0.038V7.64H20.36z M10.36,7.64h1.28V6
	C11.639,5.647,11.352,5.36,11,5.36c-0.353,0-0.64,0.287-0.64,0.64V7.64z"/>
<rect id="_Transparent_Rectangle" style="fill:none;" width="32" height="32"/>
</svg>
