<?xml version="1.0" encoding="iso-8859-1"?>
<!-- Generator: Adobe Illustrator 24.1.2, SVG Export Plug-In . SVG Version: 6.00 Build 0)  -->
<svg version="1.1" id="Layer_1" xmlns="http://www.w3.org/2000/svg" xmlns:xlink="http://www.w3.org/1999/xlink" x="0px" y="0px"
	 viewBox="0 0 32 32" style="enable-background:new 0 0 32 32;" xml:space="preserve">
<path id="munich_1_" d="M1,25.64h30v0.721H1V25.64z M0.643,13.976c-0.024-0.197,0.116-0.377,0.313-0.402
	C4.766,13.098,7.64,9.841,7.64,6c0-0.199,0.161-0.36,0.36-0.36S8.36,5.801,8.36,6c0,2.102,0.871,4.087,2.389,5.529
	c0.574-1.093,0.892-2.3,0.892-3.529c0-0.199,0.161-0.36,0.36-0.36S12.36,7.801,12.36,8c0,1.225,0.31,2.435,0.879,3.524
	c3.666-0.6,6.401-3.786,6.401-7.524c0-0.199,0.161-0.36,0.36-0.36S20.36,3.801,20.36,4c0,2.102,0.87,4.087,2.388,5.528
	C23.322,8.435,23.64,7.229,23.64,6c0-0.199,0.161-0.36,0.36-0.36S24.36,5.801,24.36,6c0,2.146,0.872,4.135,2.457,5.602
	c1.177,1.089,2.639,1.771,4.228,1.971c0.197,0.025,0.337,0.205,0.312,0.402C31.334,14.157,31.18,14.29,31,14.29
	c-0.015,0-0.029-0.001-0.045-0.002c-1.739-0.219-3.339-0.965-4.626-2.157c-1.108-1.025-1.903-2.327-2.33-3.745
	c-0.201,0.667-0.476,1.314-0.841,1.918l-0.001,0.001c-1.53,2.54-4.206,4.056-7.157,4.056c-0.074,0-0.15-0.008-0.224-0.011
	c1.248,0.835,2.709,1.291,4.224,1.291c0.199,0,0.36,0.161,0.36,0.36c0,0.199-0.161,0.36-0.36,0.36c-2.104,0-4.118-0.792-5.672-2.23
	c-0.644-0.596-1.185-1.278-1.608-2.027v-0.001c-0.302-0.535-0.544-1.101-0.721-1.686c-0.2,0.657-0.481,1.29-0.84,1.885v0.001
	C9.627,14.843,6.952,16.36,4,16.36c-0.199,0-0.36-0.161-0.36-0.36S3.801,15.64,4,15.64c2.601,0,4.958-1.299,6.378-3.473
	c-1.131-1.031-1.944-2.333-2.375-3.768c-0.932,3.093-3.613,5.471-6.958,5.89C1.029,14.29,1.015,14.291,1,14.291
	C0.821,14.291,0.666,14.158,0.643,13.976z M13.64,12.184c0.319,0.482,0.681,0.937,1.108,1.343C15.185,13.6,15.598,13.64,16,13.64
	c2.601,0,4.958-1.299,6.378-3.473c-1.131-1.032-1.945-2.333-2.376-3.769C19.126,9.302,16.703,11.573,13.64,12.184z M31.342,18.61
	c-0.062,0.188-0.261,0.292-0.455,0.229c-3.737-1.238-7.76,0.028-10.526,3.297v1.504H31v0.721H1V23.64h2.64v-1.502
	c-0.822-0.971-1.77-1.785-2.824-2.412c-0.171-0.102-0.227-0.322-0.125-0.493s0.322-0.228,0.494-0.126
	c1.046,0.622,1.989,1.421,2.821,2.361c0.538-0.606,1.126-1.172,1.778-1.665c0.654-0.495,1.35-0.912,2.068-1.239
	c0.002-0.001,0.005-0.002,0.007-0.003c0.001-0.001,0.003-0.001,0.004-0.002c0.677-0.308,1.37-0.54,2.062-0.689
	c0.702-0.151,1.382-0.227,2.062-0.228c0.005,0,0.009-0.003,0.013-0.003s0.009,0.003,0.013,0.003c0.68,0.001,1.36,0.076,2.062,0.228
	c0.69,0.148,1.382,0.38,2.058,0.688c0.004,0.001,0.007,0.003,0.011,0.004c0.002,0.001,0.003,0.001,0.005,0.002
	c0.718,0.326,1.413,0.743,2.068,1.238c0.65,0.492,1.237,1.057,1.775,1.663c2.952-3.344,7.174-4.616,11.12-3.31
	C31.302,18.218,31.404,18.421,31.342,18.61z M6.36,23.64h1.28v-4.153c-0.439,0.232-0.869,0.493-1.28,0.794
	C6.36,20.281,6.36,23.64,6.36,23.64z M8.36,23.64h1.28v-4.946c-0.429,0.116-0.857,0.261-1.28,0.442V23.64z M10.36,23.64h1.28v-5.259
	c-0.422,0.018-0.848,0.065-1.28,0.146V23.64z M12.36,23.64h1.28v-5.113c-0.433-0.08-0.858-0.128-1.28-0.146V23.64z M14.36,23.64
	h1.28v-4.503c-0.424-0.182-0.851-0.327-1.28-0.443V23.64z M16.36,23.64h1.28v-3.36c-0.412-0.302-0.841-0.562-1.28-0.793V23.64z
	 M4.36,23.64h1.28v-2.772c-0.458,0.396-0.893,0.815-1.28,1.273C4.36,22.141,4.36,23.64,4.36,23.64z M19.64,23.64v-1.499
	c-0.388-0.458-0.822-0.878-1.279-1.273v2.772C18.361,23.64,19.64,23.64,19.64,23.64z"/>
<rect id="_Transparent_Rectangle" style="fill:none;" width="32" height="32"/>
</svg>
