<svg xmlns="http://www.w3.org/2000/svg" viewBox="0 0 48 48"><line x1="9" x2="39" y1="32" y2="32" fill="none" stroke-linejoin="round" stroke-miterlimit="10" stroke-width=".72"/><line x1="9" x2="39" y1="34" y2="34" fill="none" stroke-linejoin="round" stroke-miterlimit="10" stroke-width=".72"/><path fill="none" stroke-linecap="round" stroke-linejoin="round" stroke-miterlimit="10" stroke-width=".72" d="M32,14c0,1.508-0.425,2.913-1.15,4.117"/><path fill="none" stroke-linecap="round" stroke-linejoin="round" stroke-miterlimit="10" stroke-width=".72" d="M16,14c0,2.455,1.109,4.65,2.85,6.117"/><path fill="none" stroke-linecap="round" stroke-linejoin="round" stroke-miterlimit="10" stroke-width=".72" d="M22.573,21.866C23.037,21.949,23.512,22,24,22c2.91,0,5.45-1.559,6.85-3.883"/><path fill="none" stroke-linecap="round" stroke-linejoin="round" stroke-miterlimit="10" stroke-width=".72" d="M34.573,19.866C32.994,18.404,32,16.321,32,14"/><path fill="none" stroke-linecap="round" stroke-linejoin="round" stroke-miterlimit="10" stroke-width=".72" d="M28,12c0,2.455,1.109,4.65,2.85,6.117"/><path fill="none" stroke-linecap="round" stroke-linejoin="round" stroke-miterlimit="10" stroke-width=".72" d="M21.034,19.926C24.963,19.418,28,16.067,28,12"/><path fill="none" stroke-linecap="round" stroke-linejoin="round" stroke-width=".72" d="M22.573,21.866 c-0.607-0.562-1.129-1.214-1.539-1.94"/><path fill="none" stroke-linecap="round" stroke-linejoin="round" stroke-width=".72" d="M18.85,20.117 C19.575,18.913,20,17.508,20,16c0,1.428,0.378,2.765,1.034,3.926"/><path fill="none" stroke-linecap="round" stroke-linejoin="round" stroke-width=".72" d="M28,24 c-2.097,0-4-0.814-5.427-2.134"/><path fill="none" stroke-linecap="round" stroke-linejoin="round" stroke-width=".72" d="M18.85,20.117 C17.45,22.441,14.91,24,12,24"/><line x1="12" x2="12" y1="30" y2="32" fill="none" stroke-linecap="round" stroke-linejoin="round" stroke-miterlimit="10" stroke-width=".72"/><line x1="28" x2="28" y1="30" y2="32" fill="none" stroke-linecap="round" stroke-linejoin="round" stroke-miterlimit="10" stroke-width=".72"/><line x1="14" x2="14" y1="28.089" y2="32" fill="none" stroke-linecap="round" stroke-linejoin="round" stroke-miterlimit="10" stroke-width=".72"/><line x1="16" x2="16" y1="26.891" y2="32" fill="none" stroke-linecap="round" stroke-linejoin="round" stroke-miterlimit="10" stroke-width=".72"/><line x1="18" x2="18" y1="26.222" y2="32" fill="none" stroke-linecap="round" stroke-linejoin="round" stroke-miterlimit="10" stroke-width=".72"/><line x1="20" x2="20" y1="26" y2="32" fill="none" stroke-linecap="round" stroke-linejoin="round" stroke-miterlimit="10" stroke-width=".72"/><line x1="22" x2="22" y1="26.222" y2="32" fill="none" stroke-linecap="round" stroke-linejoin="round" stroke-miterlimit="10" stroke-width=".72"/><line x1="24" x2="24" y1="26.891" y2="32" fill="none" stroke-linecap="round" stroke-linejoin="round" stroke-miterlimit="10" stroke-width=".72"/><line x1="26" x2="26" y1="28.089" y2="32" fill="none" stroke-linecap="round" stroke-linejoin="round" stroke-miterlimit="10" stroke-width=".72"/><path fill="none" stroke-linecap="round" stroke-linejoin="round" stroke-miterlimit="10" stroke-width=".72" d="M26,28.089c-0.639-0.484-1.309-0.883-2-1.198"/><path fill="none" stroke-linecap="round" stroke-linejoin="round" stroke-miterlimit="10" stroke-width=".72" d="M28,30c-0.617-0.745-1.291-1.374-2-1.911"/><path fill="none" stroke-linecap="round" stroke-linejoin="round" stroke-miterlimit="10" stroke-width=".72" d="M16,26.891c-0.691,0.315-1.361,0.714-2,1.198"/><path fill="none" stroke-linecap="round" stroke-linejoin="round" stroke-miterlimit="10" stroke-width=".72" d="M18,26.222c-0.679,0.147-1.348,0.372-2,0.669"/><path fill="none" stroke-linecap="round" stroke-linejoin="round" stroke-miterlimit="10" stroke-width=".72" d="M24,26.891c-0.652-0.297-1.321-0.523-2-0.669"/><path fill="none" stroke-linecap="round" stroke-linejoin="round" stroke-miterlimit="10" stroke-width=".72" d="M14,28.089c-0.709,0.537-1.383,1.166-2,1.911"/><path fill="none" stroke-linecap="round" stroke-linejoin="round" stroke-miterlimit="10" stroke-width=".72" d="M20,26c-0.67,0-1.339,0.079-2,0.222"/><path fill="none" stroke-linecap="round" stroke-linejoin="round" stroke-miterlimit="10" stroke-width=".72" d="M22,26.222C21.339,26.079,20.67,26,20,26"/><path fill="none" stroke-linecap="round" stroke-linejoin="round" stroke-miterlimit="10" stroke-width=".72" d="M9,21.931c3.945-0.493,7-3.852,7-7.931"/><path fill="none" stroke-linecap="round" stroke-linejoin="round" stroke-miterlimit="10" stroke-width=".72" d="M12,30c-0.9-1.087-1.918-1.94-3-2.584"/><path fill="none" stroke-linecap="round" stroke-linejoin="round" stroke-miterlimit="10" stroke-width=".72" d="M34.573,19.866c1.196,1.107,2.728,1.85,4.427,2.064"/><path fill="none" stroke-linecap="round" stroke-linejoin="round" stroke-miterlimit="10" stroke-width=".72" d="M39,26.497c-3.793-1.255-8.02-0.094-11,3.503"/></svg>