<?xml version="1.0" encoding="iso-8859-1"?>
<!-- Generator: Adobe Illustrator 29.1.0, SVG Export Plug-In . SVG Version: 9.03 Build 55587)  -->
<svg version="1.1" id="Layer_1" xmlns="http://www.w3.org/2000/svg" xmlns:xlink="http://www.w3.org/1999/xlink" x="0px" y="0px"
	 viewBox="0 0 32 32" style="enable-background:new 0 0 32 32;" xml:space="preserve">
<path id="nachos_00000062180713463805682250000006952406460941773221_" d="M23,29.36H5c-0.13,0-0.25-0.07-0.313-0.183
	s-0.062-0.252,0.005-0.363l6.957-11.595L1.102,20.345c-0.126,0.04-0.263,0.004-0.356-0.09c-0.093-0.093-0.128-0.229-0.091-0.356
	l5-17C5.69,2.776,5.788,2.683,5.911,2.651c0.122-0.032,0.253,0.004,0.343,0.094l12,12c0.09,0.09,0.126,0.221,0.094,0.344
	s-0.126,0.221-0.249,0.256l-2.448,0.708l1.794,2.991l9.299-9.298c0.093-0.094,0.23-0.127,0.354-0.092
	c0.125,0.036,0.222,0.137,0.252,0.264l4,17c0.028,0.121-0.008,0.248-0.096,0.337c-0.089,0.088-0.215,0.12-0.337,0.096l-9.883-2.325
	l2.273,3.789c0.066,0.111,0.068,0.25,0.005,0.363C23.249,29.29,23.13,29.36,23,29.36z M5.636,28.64h16.729l-2.308-3.845
	l-6.139-1.444c-0.127-0.03-0.228-0.127-0.264-0.252c-0.036-0.126,0-0.261,0.092-0.354l3.176-3.176L14,14.7L5.636,28.64z
	 M14.711,22.798l15.805,3.719l-3.719-15.805L14.711,22.798z M6.174,3.684L1.532,19.467l10.664-3.16l1.496-2.492
	c0.13-0.217,0.487-0.217,0.617,0l0.96,1.6l2.046-0.591L6.174,3.684z M11.5,27.5c0,0.276-0.224,0.5-0.5,0.5s-0.5-0.224-0.5-0.5
	S10.724,27,11,27S11.5,27.224,11.5,27.5z M15,27c-0.276,0-0.5,0.224-0.5,0.5S14.724,28,15,28s0.5-0.224,0.5-0.5S15.276,27,15,27z
	 M11,25c-0.276,0-0.5,0.224-0.5,0.5S10.724,26,11,26s0.5-0.224,0.5-0.5S11.276,25,11,25z M11,23c-0.276,0-0.5,0.224-0.5,0.5
	S10.724,24,11,24s0.5-0.224,0.5-0.5S11.276,23,11,23z M9,26c-0.276,0-0.5,0.224-0.5,0.5S8.724,27,9,27s0.5-0.224,0.5-0.5
	S9.276,26,9,26z M13,26c-0.276,0-0.5,0.224-0.5,0.5S12.724,27,13,27s0.5-0.224,0.5-0.5S13.276,26,13,26z M19.057,22.003
	c-0.274-0.031-0.522,0.166-0.553,0.44s0.166,0.522,0.44,0.553s0.522-0.166,0.553-0.44S19.331,22.035,19.057,22.003z M21.057,21.003
	c-0.274-0.031-0.522,0.166-0.553,0.44s0.166,0.522,0.44,0.553s0.522-0.166,0.553-0.44S21.331,21.035,21.057,21.003z M25.057,23.003
	c-0.274-0.031-0.522,0.166-0.553,0.44s0.166,0.522,0.44,0.553s0.522-0.166,0.553-0.44S25.331,23.035,25.057,23.003z M21.057,19.003
	c-0.274-0.031-0.522,0.166-0.553,0.44s0.166,0.522,0.44,0.553s0.522-0.166,0.553-0.44S21.331,19.035,21.057,19.003z M23.057,22.003
	c-0.274-0.031-0.522,0.166-0.553,0.44s0.166,0.522,0.44,0.553s0.522-0.166,0.553-0.44S23.331,22.035,23.057,22.003z M23.057,20.003
	c-0.274-0.031-0.522,0.166-0.553,0.44s0.166,0.522,0.44,0.553s0.522-0.166,0.553-0.44S23.331,20.035,23.057,20.003z M23.057,18.003
	c-0.274-0.031-0.522,0.166-0.553,0.44s0.166,0.522,0.44,0.553s0.522-0.166,0.553-0.44S23.331,18.035,23.057,18.003z M8.859,16.02
	c-0.265,0.078-0.416,0.356-0.338,0.621s0.356,0.416,0.621,0.338c0.265-0.078,0.416-0.356,0.338-0.621
	C9.402,16.094,9.124,15.942,8.859,16.02z M6.859,15.02c-0.265,0.078-0.416,0.356-0.338,0.621s0.356,0.416,0.621,0.338
	s0.416-0.356,0.338-0.621C7.402,15.094,7.124,14.942,6.859,15.02z M6.859,13.02c-0.265,0.078-0.416,0.356-0.338,0.621
	s0.356,0.416,0.621,0.338s0.416-0.356,0.338-0.621C7.402,13.094,7.124,12.942,6.859,13.02z M6.859,11.02
	c-0.265,0.078-0.416,0.356-0.338,0.621s0.356,0.416,0.621,0.338s0.416-0.356,0.338-0.621C7.402,11.094,7.124,10.942,6.859,11.02z
	 M4.859,16.02c-0.265,0.078-0.416,0.356-0.338,0.621s0.356,0.416,0.621,0.338s0.416-0.356,0.338-0.621S5.124,15.942,4.859,16.02z
	 M8.859,14.02c-0.265,0.078-0.416,0.356-0.338,0.621s0.356,0.416,0.621,0.338s0.416-0.356,0.338-0.621
	C9.402,14.094,9.124,13.942,8.859,14.02z M4.859,14.02c-0.265,0.078-0.416,0.356-0.338,0.621s0.356,0.416,0.621,0.338
	s0.416-0.356,0.338-0.621C5.402,14.094,5.124,13.942,4.859,14.02z M4.859,12.02c-0.265,0.078-0.416,0.356-0.338,0.621
	s0.356,0.416,0.621,0.338s0.416-0.356,0.338-0.621C5.402,12.094,5.124,11.942,4.859,12.02z"/>
<rect id="_Transparent_Rectangle" style="fill:none;" width="32" height="32"/>
</svg>
