<svg xmlns="http://www.w3.org/2000/svg" viewBox="0 0 48 48"><rect width="12" height="12" x="9" y="27" fill="none" stroke-linecap="round" stroke-linejoin="round" stroke-miterlimit="10" stroke-width=".72"/><path fill="none" stroke-miterlimit="10" stroke-width=".72" d="M39,15c0,3.314-2.686,6-6,6s-6-2.686-6-6 s2.686-6,6-6S39,11.686,39,15z M24.5,15H17c-1.105,0-2,0.895-2,2v8 M21.672,17.828L24.5,15l-2.828-2.828 M23.5,33H31 c1.105,0,2-0.895,2-2v-8 M26.328,30.172L23.5,33l2.828,2.828 M13,33h2.5c0.825,0,1.5-0.675,1.5-1.5v0c0-0.825-0.675-1.5-1.5-1.5 H13V33z M13,33v3h2.5c0.825,0,1.5-0.675,1.5-1.5l0,0c0-0.825-0.675-1.5-1.5-1.5"/><polyline fill="none" stroke-linejoin="bevel" stroke-miterlimit="10" stroke-width=".72" points="30.62,17.995 33.006,11.995 35.39,17.995"/><line x1="31.359" x2="34.631" y1="15.995" y2="15.995" fill="none" stroke-miterlimit="10" stroke-width=".72"/></svg>