<?xml version="1.0" encoding="iso-8859-1"?>
<!-- Generator: Adobe Illustrator 24.1.2, SVG Export Plug-In . SVG Version: 6.00 Build 0)  -->
<svg version="1.1" id="Layer_1" xmlns="http://www.w3.org/2000/svg" xmlns:xlink="http://www.w3.org/1999/xlink" x="0px" y="0px"
	 viewBox="0 0 32 32" style="enable-background:new 0 0 32 32;" xml:space="preserve">
<path id="network--protection_1_" d="M27.36,16.778v-4.454c1.406-0.179,2.5-1.37,2.5-2.823c0-1.577-1.283-2.86-2.86-2.86
	c-0.961,0-1.809,0.48-2.328,1.21l-6.006-3.336C18.787,4.198,18.86,3.858,18.86,3.5c0-1.577-1.283-2.86-2.86-2.86
	s-2.86,1.283-2.86,2.86c0,0.358,0.074,0.697,0.194,1.013L7.328,7.85C6.809,7.12,5.961,6.64,5,6.64c-1.577,0-2.86,1.283-2.86,2.86
	c0,1.454,1.094,2.644,2.5,2.823v7.353c-1.406,0.179-2.5,1.37-2.5,2.824c0,1.577,1.283,2.86,2.86,2.86
	c0.962,0,1.81-0.481,2.328-1.211l6.006,3.337c-0.121,0.316-0.194,0.656-0.194,1.013c0,1.577,1.283,2.86,2.86,2.86
	s2.86-1.283,2.86-2.86c0-0.36-0.074-0.702-0.196-1.02l4.147-2.339c0.505,1.849,2.183,3.219,4.19,3.219c2.404,0,4.36-1.956,4.36-4.36
	v-5.223L27.36,16.778z M27,7.36c1.18,0,2.14,0.96,2.14,2.14s-0.96,2.14-2.14,2.14s-2.14-0.96-2.14-2.14S25.82,7.36,27,7.36z
	 M16,1.36c1.18,0,2.14,0.96,2.14,2.14S17.18,5.64,16,5.64s-2.14-0.96-2.14-2.14S14.82,1.36,16,1.36z M2.86,9.5
	c0-1.18,0.96-2.14,2.14-2.14S7.14,8.32,7.14,9.5S6.18,11.64,5,11.64S2.86,10.68,2.86,9.5z M5,24.64c-1.18,0-2.14-0.96-2.14-2.14
	S3.82,20.36,5,20.36s2.14,0.96,2.14,2.14S6.18,24.64,5,24.64z M16,30.64c-1.18,0-2.14-0.96-2.14-2.14s0.96-2.14,2.14-2.14
	s2.14,0.96,2.14,2.14S17.18,30.64,16,30.64z M18.324,26.845C17.805,26.118,16.959,25.64,16,25.64c-0.962,0-1.81,0.481-2.328,1.211
	l-6.006-3.337c0.12-0.317,0.194-0.656,0.194-1.014c0-1.454-1.094-2.645-2.5-2.824v-7.353c1.406-0.179,2.5-1.37,2.5-2.823
	c0-0.358-0.074-0.697-0.194-1.013l6.006-3.337C14.191,5.88,15.038,6.36,16,6.36c0.961,0,1.809-0.48,2.328-1.21l6.006,3.336
	C24.213,8.802,24.14,9.142,24.14,9.5c0,1.454,1.094,2.644,2.5,2.823v4.454l-4,2V24c0,0.133,0.028,0.259,0.039,0.389L18.324,26.845z
	 M30.64,24c0,2.007-1.633,3.64-3.64,3.64s-3.64-1.633-3.64-3.64v-4.777l3.64-1.82l3.64,1.82V24z"/>
<rect id="_Transparent_Rectangle" style="fill:none;" width="32" height="32"/>
</svg>
