<?xml version="1.0" encoding="iso-8859-1"?>
<!-- Generator: Adobe Illustrator 22.0.0, SVG Export Plug-In . SVG Version: 6.00 Build 0)  -->
<svg version="1.1" xmlns="http://www.w3.org/2000/svg" xmlns:xlink="http://www.w3.org/1999/xlink" x="0px" y="0px"
	 viewBox="0 0 48 48" style="enable-background:new 0 0 48 48;" xml:space="preserve">
<g id="networking_02">
	<path id="networking_02_1_" style="fill:none;stroke:#000000;stroke-width:0.72;stroke-linejoin:round;stroke-miterlimit:10;" d="
		M14.995,24H33 M12,21c-1.657,0-3,1.343-3,3s1.343,3,3,3s3-1.343,3-3S13.657,21,12,21z M36,21c-1.657,0-3,1.343-3,3s1.343,3,3,3
		s3-1.343,3-3S37.657,21,36,21z M36,9c-1.657,0-3,1.343-3,3s1.343,3,3,3s3-1.343,3-3S37.657,9,36,9z M36,33c-1.657,0-3,1.343-3,3
		s1.343,3,3,3s3-1.343,3-3S37.657,33,36,33z M33,12h-9v24h9"/>
</g>
<g id="Layer_1">
</g>
</svg>
