<?xml version="1.0" encoding="iso-8859-1"?>
<!-- Generator: Adobe Illustrator 24.1.2, SVG Export Plug-In . SVG Version: 6.00 Build 0)  -->
<svg version="1.1" id="networking--06" xmlns="http://www.w3.org/2000/svg" xmlns:xlink="http://www.w3.org/1999/xlink" x="0px"
	 y="0px" viewBox="0 0 48 48" style="enable-background:new 0 0 48 48;" xml:space="preserve">
<path style="fill:none;stroke:#000000;stroke-width:0.72;stroke-miterlimit:10;" d="M26,24c0,1.104-0.896,2-2,2s-2-0.896-2-2
	s0.896-2,2-2S26,22.896,26,24z M18,18c-1.104,0-2,0.896-2,2s0.896,2,2,2s2-0.896,2-2S19.104,18,18,18z M30,18c-1.104,0-2,0.896-2,2
	s0.896,2,2,2s2-0.896,2-2S31.104,18,30,18z M18,12c-1.104,0-2,0.896-2,2s0.896,2,2,2s2-0.896,2-2S19.104,12,18,12z M37,18
	c-1.104,0-2,0.896-2,2s0.896,2,2,2s2-0.896,2-2S38.104,18,37,18z M11,26c-1.104,0-2,0.896-2,2s0.896,2,2,2s2-0.896,2-2
	S12.104,26,11,26z M18,35c-1.104,0-2,0.896-2,2s0.896,2,2,2s2-0.896,2-2S19.104,35,18,35z M30,26c-1.104,0-2,0.896-2,2s0.896,2,2,2
	s2-0.896,2-2S31.104,26,30,26z M30,32c-1.104,0-2,0.896-2,2s0.896,2,2,2s2-0.896,2-2S31.104,32,30,32z M30,9c-1.104,0-2,0.896-2,2
	s0.896,2,2,2s2-0.896,2-2S31.104,9,30,9z M24,29c-1.104,0-2,0.896-2,2s0.896,2,2,2s2-0.896,2-2S25.104,29,24,29z M24,15
	c-1.104,0-2,0.896-2,2s0.896,2,2,2s2-0.896,2-2S25.104,15,24,15z M18,26v-4 M22.114,30.057l-2.364-1.182 M28.211,28.894l-2.439,1.22
	 M30,22.051V26 M25.74,17.87l2.51,1.255 M19.749,19.125l2.467-1.233 M24,19v3 M22.354,25.097l-2.745,1.83 M28.348,26.898
	l-2.68-1.787 M30,13v5 M18,30v5 M13,28h3 M32,20h3 M22.261,16.13l-2.532-1.266 M25.805,31.902l2.472,1.236"/>
<circle style="fill:none;stroke:#000000;stroke-width:0.72;stroke-miterlimit:10;" cx="18" cy="28" r="2"/>
</svg>
