<svg xmlns="http://www.w3.org/2000/svg" viewBox="0 0 48 48"><polygon fill="none" stroke-linejoin="round" stroke-miterlimit="10" stroke-width=".72" points="28,24 26,27.464 22,27.464 20,24 22,20.536 26,20.536"/><line x1="20" x2="14.5" y1="24" y2="24" fill="none" stroke-linejoin="round" stroke-miterlimit="10" stroke-width=".72"/><line x1="22" x2="19.25" y1="27.464" y2="32.227" fill="none" stroke-linejoin="round" stroke-miterlimit="10" stroke-width=".72"/><line x1="26" x2="28.75" y1="27.464" y2="32.227" fill="none" stroke-linejoin="round" stroke-miterlimit="10" stroke-width=".72"/><line x1="33.5" x2="28" y1="24" y2="24" fill="none" stroke-linejoin="round" stroke-miterlimit="10" stroke-width=".72"/><line x1="26" x2="28.75" y1="20.536" y2="15.773" fill="none" stroke-linejoin="round" stroke-miterlimit="10" stroke-width=".72"/><circle cx="12" cy="24" r="2.5" fill="none" stroke-linejoin="round" stroke-miterlimit="10" stroke-width=".72"/><circle cx="18" cy="34.392" r="2.5" fill="none" stroke-linejoin="round" stroke-miterlimit="10" stroke-width=".72"/><circle cx="30" cy="34.392" r="2.5" fill="none" stroke-linejoin="round" stroke-miterlimit="10" stroke-width=".72"/><circle cx="36" cy="24" r="2.5" fill="none" stroke-linejoin="round" stroke-miterlimit="10" stroke-width=".72"/><circle cx="30" cy="13.608" r="2.5" fill="none" stroke-linejoin="round" stroke-miterlimit="10" stroke-width=".72"/><circle cx="18" cy="13.608" r="2.5" fill="none" stroke-linejoin="round" stroke-miterlimit="10" stroke-width=".72"/><line x1="27.51" x2="20.49" y1="13.607" y2="13.607" fill="none" stroke-linejoin="round" stroke-miterlimit="10" stroke-width=".72"/><line x1="34.755" x2="31.245" y1="21.844" y2="15.764" fill="none" stroke-linejoin="round" stroke-miterlimit="10" stroke-width=".72"/><line x1="31.245" x2="34.755" y1="32.236" y2="26.156" fill="none" stroke-linejoin="round" stroke-miterlimit="10" stroke-width=".72"/><line x1="20.49" x2="27.51" y1="34.392" y2="34.392" fill="none" stroke-linejoin="round" stroke-miterlimit="10" stroke-width=".72"/><line x1="13.245" x2="16.755" y1="26.156" y2="32.236" fill="none" stroke-linejoin="round" stroke-miterlimit="10" stroke-width=".72"/><line x1="16.755" x2="13.245" y1="15.764" y2="21.844" fill="none" stroke-linejoin="round" stroke-miterlimit="10" stroke-width=".72"/><line x1="22" x2="19.25" y1="20.536" y2="15.773" fill="none" stroke-linejoin="round" stroke-miterlimit="10" stroke-width=".72"/></svg>