<?xml version="1.0" encoding="iso-8859-1"?>
<!-- Generator: Adobe Illustrator 27.5.0, SVG Export Plug-In . SVG Version: 6.00 Build 0)  -->
<svg version="1.1" id="Layer_1" xmlns="http://www.w3.org/2000/svg" xmlns:xlink="http://www.w3.org/1999/xlink" x="0px" y="0px"
	 viewBox="0 0 32 32" style="enable-background:new 0 0 32 32;" xml:space="preserve">
<path id="network--02_00000138541375703624482220000007649643371998700955_" d="M16,31.36c-0.75,0-1.36-0.61-1.36-1.36
	s0.61-1.36,1.36-1.36s1.36,0.61,1.36,1.36S16.75,31.36,16,31.36z M16,29.36c-0.353,0-0.64,0.287-0.64,0.64s0.287,0.64,0.64,0.64
	s0.64-0.287,0.64-0.64S16.353,29.36,16,29.36z M23.002,29.36c-0.47,0-0.928-0.244-1.18-0.681c-0.312-0.541-0.21-1.21,0.209-1.635
	l-5.681-9.73c-0.224,0.059-0.477,0.059-0.7,0l-5.682,9.73c0.418,0.425,0.521,1.094,0.209,1.635c-0.375,0.65-1.207,0.875-1.858,0.498
	c-0.649-0.375-0.873-1.208-0.498-1.857l0,0c0.313-0.543,0.946-0.789,1.523-0.636l5.683-9.733C14.789,16.706,14.64,16.37,14.64,16
	s0.148-0.705,0.388-0.95l-2.661-4.559l-9.049,5.171C3.345,15.77,3.36,15.883,3.36,16c0,0.75-0.61,1.36-1.36,1.36S0.64,16.75,0.64,16
	S1.25,14.64,2,14.64c0.374,0,0.713,0.152,0.959,0.397l9.044-5.168L9.345,5.315C8.768,5.467,8.135,5.222,7.822,4.68l0,0
	C7.447,4.03,7.671,3.197,8.32,2.822c0.651-0.376,1.483-0.151,1.858,0.498c0.312,0.542,0.209,1.21-0.209,1.635l2.66,4.557
	l9.055-5.174c-0.086-0.333-0.047-0.698,0.139-1.018c0.375-0.648,1.207-0.872,1.857-0.498c0.65,0.375,0.873,1.209,0.498,1.858
	c-0.186,0.322-0.484,0.539-0.817,0.63v10.33h5.328c0.158-0.576,0.687-1,1.312-1c0.75,0,1.36,0.61,1.36,1.36s-0.61,1.36-1.36,1.36
	c-0.625,0-1.153-0.425-1.312-1H23.36v10.33c0.333,0.091,0.632,0.309,0.817,0.631c0.375,0.649,0.152,1.482-0.498,1.857
	C23.467,29.302,23.233,29.36,23.002,29.36z M22.999,27.359c-0.111,0-0.221,0.029-0.319,0.086c-0.147,0.086-0.254,0.224-0.298,0.389
	c-0.045,0.165-0.021,0.338,0.063,0.486c0.178,0.306,0.569,0.41,0.875,0.234c0.306-0.177,0.41-0.569,0.234-0.875
	c-0.086-0.147-0.224-0.254-0.389-0.298C23.11,27.367,23.055,27.359,22.999,27.359z M8.446,27.68L8.446,27.68
	c-0.176,0.306-0.071,0.698,0.234,0.875c0.303,0.174,0.697,0.071,0.875-0.234c0.176-0.306,0.071-0.698-0.235-0.875
	c-0.148-0.085-0.321-0.107-0.485-0.063C8.669,27.426,8.531,27.531,8.446,27.68z M16.972,16.951l5.668,9.708V16.36h-5.328
	C17.25,16.585,17.131,16.788,16.972,16.951z M30,15.36c-0.353,0-0.64,0.287-0.64,0.64s0.287,0.64,0.64,0.64s0.64-0.287,0.64-0.64
	S30.353,15.36,30,15.36z M16,15.36c-0.353,0-0.64,0.287-0.64,0.64s0.287,0.64,0.64,0.64s0.64-0.287,0.64-0.64S16.353,15.36,16,15.36
	z M2,15.36c-0.353,0-0.64,0.287-0.64,0.64S1.647,16.64,2,16.64S2.64,16.353,2.64,16S2.353,15.36,2,15.36z M17.312,15.64h5.328V5.312
	c-0.109-0.03-0.217-0.074-0.319-0.133c-0.104-0.061-0.198-0.133-0.28-0.215l-9.048,5.17l2.658,4.552
	c0.112-0.03,0.229-0.046,0.351-0.046C16.625,14.64,17.153,15.064,17.312,15.64z M23.001,3.36c-0.222,0-0.437,0.115-0.556,0.32
	C22.36,3.828,22.337,4,22.382,4.166c0.044,0.165,0.15,0.303,0.298,0.389c0.306,0.175,0.697,0.07,0.875-0.235
	c0.176-0.306,0.071-0.698-0.234-0.875C23.22,3.388,23.109,3.36,23.001,3.36z M8.446,4.32C8.622,4.625,9.015,4.731,9.32,4.554
	C9.625,4.378,9.73,3.986,9.554,3.68S8.985,3.27,8.68,3.446C8.375,3.622,8.27,4.014,8.446,4.32L8.446,4.32z M27.998,24.36
	c-0.231,0-0.465-0.059-0.678-0.183c-0.65-0.375-0.873-1.208-0.498-1.857c0.375-0.652,1.212-0.874,1.857-0.498
	c0.65,0.375,0.873,1.208,0.498,1.857C28.926,24.116,28.468,24.36,27.998,24.36z M28.001,22.359c-0.056,0-0.111,0.008-0.167,0.022
	c-0.165,0.044-0.303,0.15-0.389,0.298c-0.085,0.148-0.108,0.321-0.063,0.486c0.044,0.165,0.15,0.303,0.298,0.389
	c0.306,0.174,0.697,0.071,0.875-0.234c0.176-0.306,0.071-0.698-0.234-0.875C28.222,22.389,28.112,22.359,28.001,22.359z
	 M4.002,24.36c-0.471,0-0.929-0.244-1.18-0.681c-0.375-0.649-0.151-1.482,0.498-1.857c0.65-0.378,1.483-0.152,1.858,0.498
	c0.375,0.649,0.151,1.482-0.498,1.857C4.466,24.302,4.233,24.36,4.002,24.36z M3.999,22.359c-0.111,0-0.22,0.029-0.319,0.086
	c-0.306,0.177-0.411,0.569-0.234,0.875c0.176,0.306,0.568,0.409,0.874,0.234c0.306-0.177,0.411-0.569,0.234-0.875
	c-0.085-0.147-0.224-0.254-0.389-0.298C4.11,22.367,4.055,22.359,3.999,22.359z M3.998,10.36c-0.23,0-0.464-0.059-0.677-0.182l0,0
	C2.671,9.803,2.447,8.97,2.822,8.32s1.21-0.873,1.858-0.499C5.329,8.197,5.553,9.03,5.178,9.68
	C4.926,10.116,4.468,10.36,3.998,10.36z M3.68,9.554C3.985,9.73,4.378,9.625,4.555,9.32C4.73,9.014,4.625,8.622,4.32,8.445
	C4.015,8.269,3.622,8.375,3.445,8.68C3.27,8.985,3.375,9.378,3.68,9.554L3.68,9.554z M28.003,10.36c-0.471,0-0.93-0.244-1.181-0.68
	c-0.375-0.649-0.152-1.483,0.498-1.858l0,0c0.649-0.375,1.485-0.149,1.857,0.498c0.375,0.649,0.152,1.483-0.498,1.858
	C28.467,10.301,28.233,10.36,28.003,10.36z M27.68,8.446c-0.148,0.085-0.254,0.224-0.298,0.389C27.337,9,27.36,9.172,27.445,9.32
	c0.179,0.306,0.57,0.412,0.875,0.234c0.306-0.176,0.41-0.568,0.234-0.874C28.378,8.375,27.987,8.27,27.68,8.446L27.68,8.446z
	 M16,3.36c-0.75,0-1.36-0.61-1.36-1.36S15.25,0.64,16,0.64S17.36,1.25,17.36,2S16.75,3.36,16,3.36z M16,1.36
	c-0.353,0-0.64,0.287-0.64,0.64S15.647,2.64,16,2.64c0.353,0,0.64-0.287,0.64-0.64S16.353,1.36,16,1.36z"/>
<rect id="_Transparent_Rectangle" style="fill:none;" width="32" height="32"/>
</svg>
