<?xml version="1.0" encoding="iso-8859-1"?>
<!-- Generator: Adobe Illustrator 29.1.0, SVG Export Plug-In . SVG Version: 9.03 Build 55587)  -->
<svg version="1.1" id="Layer_1" xmlns="http://www.w3.org/2000/svg" xmlns:xlink="http://www.w3.org/1999/xlink" x="0px" y="0px"
	 viewBox="0 0 32 32" style="enable-background:new 0 0 32 32;" xml:space="preserve">
<path id="neurodiversity_00000006668003754893939940000015966879913947818379_" d="M19.5,30.36c-1.004,0-1.92-0.386-2.607-1.017
	c-0.054-0.017-0.104-0.047-0.147-0.089c-0.043-0.043-0.072-0.094-0.089-0.147c-0.266-0.289-0.488-0.62-0.656-0.98
	c-0.615,1.317-1.953,2.233-3.5,2.233c-1.832,0-3.406-1.312-3.767-3.094C6.952,26.906,5.64,25.332,5.64,23.5
	c0-0.127,0.007-0.258,0.023-0.395C4.163,22.55,3.14,21.11,3.14,19.5c0-0.543,0.121-1.076,0.358-1.59
	C2.943,17.222,2.64,16.375,2.64,15.5c0-1.433,0.796-2.74,2.051-3.406C4.657,11.888,4.64,11.692,4.64,11.5
	c0-1.433,0.796-2.74,2.051-3.406C6.657,7.888,6.64,7.692,6.64,7.5c0-1.41,0.791-2.717,2.032-3.388
	C8.868,2.148,10.511,0.64,12.5,0.64c1.547,0,2.885,0.915,3.5,2.232c0.615-1.317,1.953-2.232,3.5-2.232
	c1.941,0,3.58,1.359,3.822,3.129c1.174,0.663,2.038,2.224,2.038,3.73c0,0.192-0.018,0.389-0.052,0.594
	c1.255,0.667,2.052,1.973,2.052,3.406c0,0.192-0.018,0.389-0.052,0.594c1.255,0.667,2.052,1.973,2.052,3.406
	c0,0.876-0.304,1.723-0.859,2.41c0.238,0.515,0.359,1.048,0.359,1.59c0,1.61-1.023,3.05-2.523,3.605
	c0.016,0.138,0.023,0.267,0.023,0.395c0,1.832-1.312,3.406-3.094,3.767C22.906,29.048,21.332,30.36,19.5,30.36z M17.55,28.959
	c0.536,0.426,1.214,0.681,1.95,0.681c1.562,0,2.894-1.175,3.097-2.732c0.006-0.045,0.021-0.087,0.041-0.125
	c-0.027-1.011-0.303-1.711-0.884-2.258c-0.145-0.136-0.151-0.363-0.015-0.509s0.362-0.151,0.509-0.015
	c0.669,0.629,1.022,1.434,1.097,2.507c1.335-0.373,2.295-1.596,2.295-3.008c0-0.185-0.021-0.365-0.052-0.542
	c-0.492-1.196-1.149-1.61-2.566-1.61c-0.026,0-0.07-0.001-0.077,0.001c-0.197,0-0.358-0.159-0.36-0.356
	c-0.002-0.199,0.158-0.362,0.356-0.364c1.627,0.018,2.577,0.49,3.193,1.785c1.195-0.465,2.006-1.621,2.006-2.913
	c0-0.385-0.076-0.768-0.228-1.14H26c-0.199,0-0.36-0.161-0.36-0.36s0.161-0.36,0.36-0.36h1.784c0.008-0.009,0.015-0.018,0.022-0.026
	c0.537-0.585,0.833-1.335,0.833-2.113c0-1.245-0.739-2.373-1.884-2.875c-0.159-0.069-0.246-0.243-0.206-0.412
	c0.061-0.256,0.09-0.49,0.09-0.713c0-1.168-0.651-2.234-1.678-2.775l-1.722,1.543c-0.147,0.132-0.376,0.121-0.508-0.028
	c-0.133-0.148-0.121-0.375,0.027-0.508l1.814-1.627C24.618,7.891,24.64,7.692,24.64,7.5c0-1.272-0.758-2.632-1.739-3.14H20
	c-0.199,0-0.36-0.161-0.36-0.36S19.801,3.64,20,3.64h2.567C22.27,2.334,20.996,1.36,19.5,1.36c-1.731,0-3.14,1.409-3.14,3.14V5
	c0,1.826,0.814,2.64,2.64,2.64c0.199,0,0.36,0.161,0.36,0.36c0,0.199-0.161,0.36-0.36,0.36c-1.19,0-2.078-0.341-2.64-1.003V10
	c0,0.199-0.161,0.36-0.36,0.36s-0.36-0.161-0.36-0.36V4.5c0-1.731-1.409-3.14-3.14-3.14c-1.617,0-2.951,1.227-3.111,2.823
	l1.125,0.941C11.036,5.56,11.36,6.279,11.36,7v1c0,0.199-0.161,0.36-0.36,0.36S10.64,8.199,10.64,8V7
	c0-0.505-0.231-1.025-0.588-1.323L8.968,4.771C7.984,5.324,7.36,6.372,7.36,7.5c0,0.201,0.024,0.41,0.073,0.637l1.291,1.64
	c0.123,0.156,0.096,0.382-0.06,0.505c-0.156,0.124-0.382,0.097-0.505-0.06L6.996,8.747C5.994,9.295,5.36,10.348,5.36,11.5
	c0,0.223,0.029,0.457,0.09,0.714c0.04,0.169-0.047,0.342-0.206,0.412C4.1,13.127,3.36,14.255,3.36,15.5
	c0,0.777,0.296,1.527,0.833,2.113c0.008,0.009,0.016,0.018,0.022,0.026H6c0.199,0,0.36,0.161,0.36,0.36S6.199,18.36,6,18.36H4.088
	C3.937,18.732,3.86,19.114,3.86,19.5c0,1.354,0.891,2.559,2.181,2.975l1.813-0.804c0.181-0.083,0.394,0.001,0.475,0.184
	c0.081,0.182-0.001,0.395-0.183,0.475l-1.757,0.778C6.371,23.236,6.36,23.367,6.36,23.5c0,1.562,1.175,2.894,2.733,3.097
	c0.162,0.021,0.289,0.149,0.31,0.311c0.209,1.604,1.645,2.793,3.237,2.729v-1.933c0-0.793-0.623-1.465-1.772-2.428
	c-0.153-0.128-0.173-0.355-0.045-0.508c0.127-0.152,0.354-0.171,0.507-0.045c1.111,0.931,2.03,1.797,2.03,2.98v1.816
	c1.315-0.375,2.28-1.587,2.28-3.021V25c0-1.58-0.504-1.64-2.64-1.64c-0.199,0-0.36-0.161-0.36-0.36s0.161-0.36,0.36-0.36
	c1.107,0,2.041,0,2.64,0.433V21c0-0.199,0.161-0.36,0.36-0.36s0.36,0.161,0.36,0.36v5.5c0,0.736,0.255,1.414,0.681,1.95l1.704-1.705
	c0.141-0.141,0.369-0.141,0.51,0s0.141,0.369,0,0.51L17.55,28.959z M20.687,19.137c-0.94,0-1.88-0.354-2.596-1.062L16,16.006
	l-2.09,2.068l0,0c-1.432,1.416-3.761,1.416-5.192,0C8.022,17.387,7.64,16.473,7.64,15.5s0.383-1.887,1.078-2.575
	c1.433-1.416,3.761-1.416,5.193,0L16,14.994l2.09-2.068c1.432-1.416,3.76-1.416,5.191,0c0.695,0.688,1.077,1.602,1.077,2.575
	s-0.382,1.886-1.077,2.574C22.566,18.782,21.627,19.137,20.687,19.137z M16.512,15.5l2.084,2.062c1.152,1.141,3.027,1.141,4.18,0
	c0.557-0.551,0.863-1.283,0.863-2.062s-0.307-1.512-0.863-2.063c-1.152-1.14-3.027-1.14-4.18,0L16.512,15.5z M11.314,12.583
	c-0.757,0-1.514,0.285-2.09,0.855C8.667,13.989,8.36,14.722,8.36,15.5s0.307,1.511,0.864,2.062c1.153,1.141,3.027,1.141,4.181,0
	l2.084-2.062l-2.085-2.062C12.828,12.868,12.071,12.583,11.314,12.583z M13.657,17.818h0.009H13.657z"/>
<rect id="_Transparent_Rectangle" style="fill:none;" width="32" height="32"/>
</svg>
