<?xml version="1.0" encoding="iso-8859-1"?>
<!-- Generator: Adobe Illustrator 26.3.1, SVG Export Plug-In . SVG Version: 6.00 Build 0)  -->
<svg version="1.1" id="Layer_1" xmlns="http://www.w3.org/2000/svg" xmlns:xlink="http://www.w3.org/1999/xlink" x="0px" y="0px"
	 viewBox="0 0 32 32" style="enable-background:new 0 0 32 32;" xml:space="preserve">
<path id="new-financial-customer-experiences_00000028302724215578813900000002463464847943441289_" d="M4.5,25.509l-1.254-1.254
	l0.509-0.51L4.5,24.491l1.746-1.746l0.509,0.51L4.5,25.509z M23.192,29.305l-0.385-0.609C20.822,29.949,18.404,30.64,16,30.64
	c-2.467,0-4.821-0.672-6.806-1.942l-0.389,0.605c2.102,1.346,4.589,2.058,7.194,2.058C18.539,31.36,21.093,30.63,23.192,29.305z
	 M31.36,23c0-2.404-1.956-4.36-4.36-4.36s-4.36,1.956-4.36,4.36s1.956,4.36,4.36,4.36S31.36,25.404,31.36,23z M30.64,23
	c0,2.007-1.633,3.64-3.64,3.64s-3.64-1.633-3.64-3.64s1.633-3.64,3.64-3.64S30.64,20.993,30.64,23z M8.36,27v-8
	c0-0.199-0.161-0.36-0.36-0.36H5c-0.096,0-0.187,0.038-0.254,0.105l-3,3C1.678,21.812,1.64,21.904,1.64,22v5
	c0,0.199,0.161,0.36,0.36,0.36h6C8.199,27.36,8.36,27.199,8.36,27z M2.36,22.36H5c0.199,0,0.36-0.161,0.36-0.36v-2.64h2.28v7.279
	H2.36V22.36z M4.64,19.869v1.771H2.869L4.64,19.869z M27.36,24.86h0.39c0.612,0,1.11-0.498,1.11-1.11s-0.498-1.11-1.11-1.11h-1.5
	c-0.215,0-0.39-0.175-0.39-0.39s0.175-0.39,0.39-0.39h2.25v-0.72h-1.14V20.5h-0.72v0.64h-0.39c-0.612,0-1.11,0.498-1.11,1.11
	s0.498,1.11,1.11,1.11h1.5c0.215,0,0.39,0.175,0.39,0.39s-0.175,0.39-0.39,0.39H25.5v0.721h1.14v0.64h0.721L27.36,24.86L27.36,24.86
	z M21.36,21.5c0-2.146-1.301-4.066-3.241-4.902c0.779-0.628,1.241-1.57,1.241-2.598c0-1.853-1.508-3.36-3.36-3.36
	s-3.36,1.507-3.36,3.36c0,1.028,0.461,1.969,1.241,2.598c-1.941,0.836-3.241,2.756-3.241,4.902V23h0.72v-1.5
	c0-2.079,1.412-3.913,3.434-4.46c0.145-0.039,0.25-0.165,0.264-0.314c0.014-0.15-0.066-0.292-0.202-0.358
	C13.934,15.921,13.36,15.014,13.36,14c0-1.456,1.185-2.64,2.64-2.64c1.456,0,2.64,1.185,2.64,2.64c0,1.014-0.573,1.921-1.497,2.368
	c-0.135,0.065-0.215,0.208-0.201,0.358c0.014,0.149,0.119,0.275,0.265,0.314c2.021,0.547,3.434,2.381,3.434,4.46V23h0.721v-1.5
	H21.36z M29.329,16.958c-0.319-4.184-2.649-8.02-6.231-10.263l-0.383,0.61c3.39,2.122,5.594,5.751,5.896,9.707
	c0.024,0.321,0.029,0.66,0.029,0.988h0.721C29.36,17.654,29.354,17.298,29.329,16.958z M3.404,17.013
	c0.301-3.956,2.505-7.584,5.895-9.708l-0.382-0.61c-3.583,2.244-5.913,6.081-6.231,10.263C2.66,17.297,2.64,17.654,2.64,18h0.72
	C3.36,17.672,3.38,17.334,3.404,17.013z M21.36,7V3c0-0.75-0.61-1.36-1.36-1.36h-8c-0.75,0-1.36,0.61-1.36,1.36v4
	c0,0.75,0.61,1.36,1.36,1.36h8C20.75,8.36,21.36,7.75,21.36,7z M20.64,6.36V7c0,0.353-0.287,0.64-0.64,0.64h-8
	c-0.353,0-0.64-0.287-0.64-0.64V6.36H20.64z M11.36,3c0-0.353,0.287-0.64,0.64-0.64h8c0.353,0,0.64,0.287,0.64,0.64v2.64h-9.28V3z"
	/>
<rect id="_Transparent_Rectangle" style="fill:none;" width="32" height="32"/>
</svg>
