<?xml version="1.0" encoding="iso-8859-1"?>
<!-- Generator: Adobe Illustrator 22.0.0, SVG Export Plug-In . SVG Version: 6.00 Build 0)  -->
<svg version="1.1" xmlns="http://www.w3.org/2000/svg" xmlns:xlink="http://www.w3.org/1999/xlink" x="0px" y="0px"
	 viewBox="0 0 48 48" style="enable-background:new 0 0 48 48;" xml:space="preserve">
<g id="nice">
	<rect style="fill:#FFFFFF;" width="48" height="48"/>
	<g id="nice_1_">
		<path style="fill:none;stroke:#000000;stroke-width:0.866;stroke-linecap:round;stroke-linejoin:round;stroke-miterlimit:10;" d="
			M22.612,12.109"/>
		<path style="fill:none;stroke:#000000;stroke-width:0.72;stroke-linejoin:round;stroke-miterlimit:10;" d="M26,17"/>
		
			<line style="fill:none;stroke:#000000;stroke-width:0.72;stroke-linejoin:round;stroke-miterlimit:10;" x1="19.394" y1="27.801" x2="17" y2="31"/>
		
			<line style="fill:none;stroke:#000000;stroke-width:0.72;stroke-linejoin:round;stroke-miterlimit:10;" x1="28.606" y1="27.801" x2="31" y2="31"/>
		<polyline style="fill:none;stroke:#000000;stroke-width:0.72;stroke-linejoin:round;stroke-miterlimit:10;" points="21,35 19,31 
			17,31 16.145,32.185 15,33 15,35 		"/>
		<polyline style="fill:none;stroke:#000000;stroke-width:0.72;stroke-linejoin:round;stroke-miterlimit:10;" points="27,35 26,32 
			22,32 21,35 		"/>
		<path style="fill:none;stroke:#000000;stroke-width:0.72;stroke-linecap:round;stroke-linejoin:round;stroke-miterlimit:10;" d="
			M23,25c0,2.954-2,5-2,5h6c0,0-2-1.892-2-5"/>
		
			<line style="fill:none;stroke:#000000;stroke-width:0.72;stroke-linejoin:round;stroke-miterlimit:10;" x1="27" y1="13" x2="25" y2="13"/>
		<path style="fill:none;stroke:#000000;stroke-width:0.72;stroke-linejoin:round;stroke-miterlimit:10;" d="M23,25l-3,3l-1-1l3-4
			c-0.363-0.621-1-2-1-3c0-2,2-3,2-5c0-1,0-1-1-1h-1"/>
		<path style="fill:none;stroke:#000000;stroke-width:0.72;stroke-linejoin:round;stroke-miterlimit:10;" d="M22,12"/>
		
			<line style="fill:none;stroke:#000000;stroke-width:0.72;stroke-linejoin:round;stroke-miterlimit:10;" x1="27" y1="11.016" x2="24" y2="11.016"/>
		
			<line style="fill:none;stroke:#000000;stroke-width:0.72;stroke-linejoin:round;stroke-miterlimit:10;" x1="27" y1="15" x2="25" y2="15"/>
		<path style="fill:none;stroke:#000000;stroke-width:0.72;stroke-linejoin:round;stroke-miterlimit:10;" d="M16,22v4
			c0,0.552-0.448,1-1,1s-1-0.448-1-1V16c0-1.105,0.895-2,2-2h1.034C17,16,18,17,20,17h2.325"/>
		<path style="fill:none;stroke:#000000;stroke-width:0.72;stroke-linejoin:round;stroke-miterlimit:10;" d="M16,23
			c0,0.552,0.448,1,1,1s1-0.448,1-1v-3"/>
		<path style="fill:none;stroke:#000000;stroke-width:0.72;stroke-linejoin:round;stroke-miterlimit:10;" d="M18,21
			c0,0.552,0.448,1,1,1s1-0.448,1-1v-1"/>
		<g>
			<path style="fill:none;stroke:#000000;stroke-width:0.72;stroke-linejoin:round;stroke-miterlimit:10;" d="M31,22v4
				c0,0.552,0.448,1,1,1s1-0.448,1-1V16c0-1.105-0.895-2-2-2h-1.034C30,16,29,17,27,17"/>
			<path style="fill:none;stroke:#000000;stroke-width:0.72;stroke-linejoin:round;stroke-miterlimit:10;" d="M31,23
				c0,0.552-0.448,1-1,1s-1-0.448-1-1v-3"/>
		</g>
		<polyline style="fill:none;stroke:#000000;stroke-width:0.72;stroke-linejoin:round;stroke-miterlimit:10;" points="27,17 25,17 
			25,12.016 		"/>
		<ellipse cx="21.5" cy="9.508" rx="0.5" ry="0.508"/>
		<ellipse cx="23.5" cy="9.508" rx="0.5" ry="0.508"/>
		<ellipse cx="25.5" cy="9.508" rx="0.5" ry="0.508"/>
		<path style="fill:none;stroke:#000000;stroke-width:0.72;stroke-linejoin:round;stroke-miterlimit:10;" d="M29,21
			c0,0.552-0.448,1-1,1s-1-0.448-1-1v-1"/>
		<g>
			<path style="fill:none;stroke:#000000;stroke-width:0.72;stroke-linejoin:round;stroke-miterlimit:10;" d="M15,39
				c-0.605,0-1.053-0.191-1.482-0.525S12.605,38,12,38s-1.089,0.14-1.518,0.475S9.605,39,9,39"/>
			<path style="fill:none;stroke:#000000;stroke-width:0.72;stroke-linejoin:round;stroke-miterlimit:10;" d="M21,39
				c-0.605,0-1.053-0.191-1.482-0.525C19.089,38.14,18.605,38,18,38s-1.089,0.14-1.518,0.475C16.053,38.809,15.605,39,15,39"/>
			<path style="fill:none;stroke:#000000;stroke-width:0.72;stroke-linejoin:round;stroke-miterlimit:10;" d="M27,39
				c-0.605,0-1.053-0.191-1.482-0.525C25.089,38.14,24.605,38,24,38s-1.089,0.14-1.518,0.475C22.053,38.809,21.605,39,21,39"/>
			<path style="fill:none;stroke:#000000;stroke-width:0.72;stroke-linejoin:round;stroke-miterlimit:10;" d="M33,39
				c-0.605,0-1.053-0.191-1.482-0.525C31.089,38.14,30.605,38,30,38s-1.089,0.14-1.518,0.475C28.053,38.809,27.605,39,27,39"/>
			<path style="fill:none;stroke:#000000;stroke-width:0.72;stroke-linejoin:round;stroke-miterlimit:10;" d="M39,39
				c-0.605,0-1.053-0.191-1.482-0.525C37.089,38.14,36.605,38,36,38s-1.089,0.14-1.518,0.475C34.053,38.809,33.605,39,33,39"/>
		</g>
		<g>
			<path style="fill:none;stroke:#000000;stroke-width:0.72;stroke-linejoin:round;stroke-miterlimit:10;" d="M15,37
				c-0.605,0-1.053-0.191-1.482-0.525S12.605,36,12,36s-1.089,0.14-1.518,0.475S9.605,37,9,37"/>
			<path style="fill:none;stroke:#000000;stroke-width:0.72;stroke-linejoin:round;stroke-miterlimit:10;" d="M21,37
				c-0.605,0-1.053-0.191-1.482-0.525C19.089,36.14,18.605,36,18,36s-1.089,0.14-1.518,0.475C16.053,36.809,15.605,37,15,37"/>
			<path style="fill:none;stroke:#000000;stroke-width:0.72;stroke-linejoin:round;stroke-miterlimit:10;" d="M27,37
				c-0.605,0-1.053-0.191-1.482-0.525C25.089,36.14,24.605,36,24,36s-1.089,0.14-1.518,0.475C22.053,36.809,21.605,37,21,37"/>
			<path style="fill:none;stroke:#000000;stroke-width:0.72;stroke-linejoin:round;stroke-miterlimit:10;" d="M33,37
				c-0.605,0-1.053-0.191-1.482-0.525C31.089,36.14,30.605,36,30,36s-1.089,0.14-1.518,0.475C28.053,36.809,27.605,37,27,37"/>
			<path style="fill:none;stroke:#000000;stroke-width:0.72;stroke-linejoin:round;stroke-miterlimit:10;" d="M39,37
				c-0.605,0-1.053-0.191-1.482-0.525C37.089,36.14,36.605,36,36,36s-1.089,0.14-1.518,0.475C34.053,36.809,33.605,37,33,37"/>
		</g>
		<g>
			<path style="fill:none;stroke:#000000;stroke-width:0.72;stroke-linejoin:round;stroke-miterlimit:10;" d="M15,35
				c-0.605,0-1.053-0.191-1.482-0.525S12.605,34,12,34s-1.089,0.14-1.518,0.475S9.605,35,9,35"/>
			<path style="fill:none;stroke:#000000;stroke-width:0.72;stroke-linejoin:round;stroke-miterlimit:10;" d="M21,35
				c-0.605,0-1.053-0.191-1.482-0.525C19.089,34.14,18.605,34,18,34s-1.089,0.14-1.518,0.475C16.053,34.809,15.605,35,15,35"/>
			<path style="fill:none;stroke:#000000;stroke-width:0.72;stroke-linejoin:round;stroke-miterlimit:10;" d="M27,35
				c-0.605,0-1.053-0.191-1.482-0.525C25.089,34.14,24.605,34,24,34s-1.089,0.14-1.518,0.475C22.053,34.809,21.605,35,21,35"/>
			<path style="fill:none;stroke:#000000;stroke-width:0.72;stroke-linejoin:round;stroke-miterlimit:10;" d="M33,35
				c-0.605,0-1.053-0.191-1.482-0.525C31.089,34.14,30.605,34,30,34s-1.089,0.14-1.518,0.475C28.053,34.809,27.605,35,27,35"/>
			<path style="fill:none;stroke:#000000;stroke-width:0.72;stroke-linejoin:round;stroke-miterlimit:10;" d="M39,35
				c-0.605,0-1.053-0.191-1.482-0.525C37.089,34.14,36.605,34,36,34s-1.089,0.14-1.518,0.475C34.053,34.809,33.605,35,33,35"/>
		</g>
		<polyline style="fill:none;stroke:#000000;stroke-width:0.72;stroke-linejoin:round;stroke-miterlimit:10;" points="27,35 29,31 
			31,31 31.855,32.185 33,33 33,35 		"/>
		<path style="fill:none;stroke:#000000;stroke-width:0.72;stroke-linejoin:round;stroke-miterlimit:10;" d="M21,12h1c0,0,0-1,1-1
			s1,0,1,0c0.465,0,1,0.393,1,0.857v1.091l-0.001-0.003"/>
		<path style="fill:none;stroke:#000000;stroke-width:0.72;stroke-linejoin:round;stroke-miterlimit:10;" d="M20,13"/>
		<path style="fill:none;stroke:#000000;stroke-width:0.72;stroke-linejoin:round;stroke-miterlimit:10;" d="M21,12
			c-0.552,0-1,0.448-1,1"/>
		<polyline style="fill:none;stroke:#000000;stroke-width:0.72;stroke-linejoin:round;stroke-miterlimit:10;" points="25,25 28,28 
			29,27 26,23 26,20 		"/>
	</g>
</g>
<g id="Layer_1">
</g>
</svg>
