<?xml version="1.0" encoding="iso-8859-1"?>
<!-- Generator: Adobe Illustrator 24.1.2, SVG Export Plug-In . SVG Version: 6.00 Build 0)  -->
<svg version="1.1" id="Layer_1" xmlns="http://www.w3.org/2000/svg" xmlns:xlink="http://www.w3.org/1999/xlink" x="0px" y="0px"
	 viewBox="0 0 32 32" style="enable-background:new 0 0 32 32;" xml:space="preserve">
<path id="nice_1_" d="M13,1.508C13,1.227,13.224,1,13.5,1S14,1.227,14,1.508s-0.224,0.508-0.5,0.508S13,1.788,13,1.508z M15.5,2.016
	c0.276,0,0.5-0.227,0.5-0.508S15.776,1,15.5,1S15,1.227,15,1.508S15.224,2.016,15.5,2.016z M17.5,2.016c0.276,0,0.5-0.227,0.5-0.508
	S17.776,1,17.5,1S17,1.227,17,1.508S17.224,2.016,17.5,2.016z M28,29.64c-0.704,0-1.257,0.176-1.739,0.551
	C25.856,30.506,25.479,30.64,25,30.64s-0.856-0.134-1.261-0.449C23.257,29.815,22.704,29.64,22,29.64s-1.257,0.176-1.739,0.551
	C19.856,30.506,19.479,30.64,19,30.64s-0.856-0.134-1.261-0.449C17.257,29.815,16.704,29.64,16,29.64
	c-0.705,0-1.257,0.176-1.739,0.551C13.856,30.506,13.479,30.64,13,30.64s-0.856-0.134-1.261-0.449
	C11.257,29.815,10.705,29.64,10,29.64s-1.257,0.176-1.739,0.551C7.856,30.506,7.479,30.64,7,30.64s-0.856-0.134-1.261-0.449
	C5.257,29.815,4.705,29.64,4,29.64s-1.257,0.176-1.739,0.551C1.856,30.506,1.479,30.64,1,30.64v0.721
	c0.644,0,1.169-0.186,1.703-0.602C3.057,30.483,3.457,30.36,4,30.36s0.943,0.123,1.297,0.398C5.831,31.175,6.356,31.36,7,31.36
	s1.169-0.186,1.703-0.602C9.057,30.483,9.457,30.36,10,30.36s0.943,0.123,1.297,0.398c0.534,0.416,1.059,0.602,1.703,0.602
	s1.169-0.186,1.703-0.602c0.354-0.275,0.754-0.398,1.297-0.398c0.542,0,0.942,0.123,1.296,0.398c0.534,0.416,1.06,0.602,1.704,0.602
	s1.17-0.186,1.704-0.602c0.354-0.275,0.753-0.398,1.296-0.398s0.942,0.123,1.296,0.398c0.534,0.416,1.06,0.602,1.704,0.602
	s1.17-0.186,1.704-0.602c0.354-0.275,0.753-0.398,1.296-0.398s0.942,0.123,1.296,0.398c0.534,0.416,1.06,0.602,1.704,0.602v-0.72
	c-0.479,0-0.856-0.134-1.261-0.449C29.257,29.815,28.704,29.64,28,29.64z M28,27.64c-0.704,0-1.257,0.176-1.739,0.551
	C25.856,28.506,25.479,28.64,25,28.64s-0.856-0.134-1.261-0.449C23.257,27.815,22.704,27.64,22,27.64s-1.257,0.176-1.739,0.551
	C19.856,28.506,19.479,28.64,19,28.64s-0.856-0.134-1.261-0.449C17.257,27.815,16.704,27.64,16,27.64
	c-0.705,0-1.257,0.176-1.739,0.551C13.856,28.506,13.479,28.64,13,28.64s-0.856-0.134-1.261-0.449
	C11.257,27.815,10.705,27.64,10,27.64s-1.257,0.176-1.739,0.551C7.856,28.506,7.479,28.64,7,28.64s-0.856-0.134-1.261-0.449
	C5.257,27.815,4.705,27.64,4,27.64s-1.257,0.176-1.739,0.551C1.856,28.506,1.479,28.64,1,28.64v0.721
	c0.644,0,1.169-0.186,1.703-0.602C3.057,28.483,3.457,28.36,4,28.36s0.943,0.123,1.297,0.398C5.831,29.175,6.356,29.36,7,29.36
	s1.169-0.186,1.703-0.602C9.057,28.483,9.457,28.36,10,28.36s0.943,0.123,1.297,0.398c0.534,0.416,1.059,0.602,1.703,0.602
	s1.169-0.186,1.703-0.602c0.354-0.275,0.754-0.398,1.297-0.398c0.542,0,0.942,0.123,1.296,0.398c0.534,0.416,1.06,0.602,1.704,0.602
	s1.17-0.186,1.704-0.602c0.354-0.275,0.753-0.398,1.296-0.398s0.942,0.123,1.296,0.398c0.534,0.416,1.06,0.602,1.704,0.602
	s1.17-0.186,1.704-0.602c0.354-0.275,0.753-0.398,1.296-0.398s0.942,0.123,1.296,0.398c0.534,0.416,1.06,0.602,1.704,0.602v-0.72
	c-0.479,0-0.856-0.134-1.261-0.449C29.257,27.815,28.704,27.64,28,27.64z M31,26.64v0.721c-0.645,0-1.17-0.186-1.704-0.602
	C28.942,26.483,28.543,26.36,28,26.36s-0.942,0.123-1.296,0.398C26.17,27.175,25.645,27.36,25,27.36s-1.17-0.186-1.704-0.602
	C22.942,26.483,22.543,26.36,22,26.36s-0.942,0.123-1.296,0.398C20.17,27.175,19.645,27.36,19,27.36s-1.17-0.186-1.704-0.602
	C16.942,26.483,16.542,26.36,16,26.36c-0.543,0-0.943,0.123-1.297,0.398C14.169,27.175,13.644,27.36,13,27.36
	s-1.169-0.186-1.703-0.602C10.943,26.483,10.543,26.36,10,26.36s-0.943,0.123-1.297,0.398C8.169,27.175,7.644,27.36,7,27.36
	s-1.169-0.186-1.703-0.602C4.943,26.483,4.543,26.36,4,26.36s-0.943,0.123-1.297,0.398C2.169,27.175,1.644,27.36,1,27.36v-0.72
	c0.479,0,0.856-0.134,1.261-0.449C2.743,25.815,3.295,25.64,4,25.64s1.257,0.176,1.739,0.551c0.298,0.232,0.581,0.365,0.901,0.419
	V25c0-0.116,0.056-0.226,0.151-0.293l1.097-0.781l0.82-1.137c0.001-0.002,0.004-0.002,0.005-0.004l-0.001-0.001l2.381-3.182
	l-0.347-0.347c-0.127-0.127-0.141-0.327-0.034-0.471l2.86-3.813c-0.376-0.7-0.932-1.985-0.932-2.971c0-1.081,0.513-1.876,1.022-2.64
	H12c-1.101,0-1.945-0.291-2.509-0.864C8.995,7.991,8.723,7.274,8.679,6.36H8C7.096,6.36,6.36,7.096,6.36,8v10
	c0,0.353,0.287,0.64,0.64,0.64S7.64,18.353,7.64,18v-4h0.72v1c0,0.353,0.287,0.64,0.64,0.64S9.64,15.353,9.64,15v-3h0.72v1
	c0,0.353,0.287,0.64,0.64,0.64s0.64-0.287,0.64-0.64v-1h0.72v1c0,0.75-0.61,1.36-1.36,1.36c-0.233,0-0.448-0.064-0.64-0.167V15
	c0,0.75-0.61,1.36-1.36,1.36c-0.233,0-0.448-0.064-0.64-0.167V18c0,0.75-0.61,1.36-1.36,1.36S5.64,18.75,5.64,18V8
	c0-1.301,1.059-2.36,2.36-2.36h1.034c0.097,0,0.189,0.039,0.257,0.107C9.358,5.816,9.396,5.91,9.394,6.006
	c-0.015,0.89,0.191,1.558,0.611,1.985C10.428,8.422,11.099,8.64,12,8.64h2.117C14.414,8.138,14.64,7.619,14.64,7
	c0-0.28,0-0.569-0.033-0.638C14.569,6.36,14.28,6.36,14,6.36h-1V5.64h1c1.195,0,1.36,0.165,1.36,1.36c0,1.109-0.539,1.917-1.061,2.7
	c-0.483,0.725-0.939,1.409-0.939,2.3c0,0.874,0.569,2.164,0.951,2.818c0.073,0.125,0.064,0.282-0.023,0.397l-2.813,3.75L12,19.491
	l2.745-2.745C14.81,16.681,14.9,16.64,15,16.64c0.199,0,0.36,0.161,0.36,0.36c0,2.131-0.974,3.794-1.597,4.64h4.45
	c-0.627-0.824-1.573-2.435-1.573-4.64c0-0.199,0.161-0.36,0.36-0.36c0.1,0,0.19,0.04,0.255,0.106L20,19.491l0.524-0.525l-2.812-3.75
	C17.665,15.154,17.64,15.078,17.64,15v-3h0.721v2.88l2.928,3.904c0.107,0.144,0.093,0.344-0.033,0.471l-0.347,0.347l2.381,3.182
	l-0.001,0.001c0.001,0.002,0.004,0.002,0.005,0.004l0.819,1.137l1.098,0.781c0.095,0.067,0.151,0.177,0.151,0.293v1.609
	c0.32-0.055,0.603-0.187,0.9-0.419c0.482-0.375,1.035-0.551,1.739-0.551s1.257,0.176,1.739,0.551
	C30.144,26.506,30.521,26.64,31,26.64z M11.607,20.117L9.719,22.64H11c0.136,0,0.261,0.077,0.322,0.199l1.612,3.223l0.725-2.176
	C13.708,23.74,13.846,23.64,14,23.64h4c0.155,0,0.293,0.1,0.342,0.246l0.725,2.175l1.611-3.222C20.74,22.717,20.864,22.64,21,22.64
	h1.281l-1.888-2.523l-0.138,0.138c-0.07,0.07-0.163,0.105-0.255,0.105s-0.185-0.035-0.255-0.105l-2.312-2.312
	c0.334,2.348,1.797,3.78,1.815,3.797c0.106,0.102,0.141,0.258,0.086,0.395S19.147,22.36,19,22.36h-6
	c-0.145,0-0.275-0.087-0.332-0.221c-0.056-0.133-0.027-0.287,0.074-0.391c0.017-0.017,1.475-1.548,1.821-3.803l-2.309,2.309
	c-0.07,0.07-0.162,0.105-0.254,0.105s-0.184-0.035-0.254-0.105L11.607,20.117z M11.739,26.19c0.211,0.164,0.414,0.277,0.628,0.35
	l-1.59-3.18H9.184l-0.747,1.035c-0.023,0.031-0.051,0.06-0.083,0.082L7.36,25.186v1.424c0.32-0.054,0.603-0.187,0.901-0.419
	C8.743,25.815,9.295,25.64,10,25.64S11.257,25.815,11.739,26.19z M17.739,26.19c0.245,0.191,0.483,0.309,0.737,0.377L17.74,24.36
	h-3.481l-0.736,2.207c0.254-0.068,0.492-0.186,0.737-0.377c0.482-0.375,1.035-0.551,1.739-0.551
	C16.704,25.64,17.257,25.815,17.739,26.19z M23.739,26.19c0.297,0.232,0.581,0.364,0.9,0.419v-1.424l-0.994-0.708
	c-0.032-0.022-0.06-0.051-0.083-0.082l-0.747-1.035h-1.593l-1.59,3.18c0.214-0.073,0.418-0.185,0.628-0.349
	c0.482-0.375,1.035-0.551,1.739-0.551S23.257,25.815,23.739,26.19z M13,4.36h1c0.196,0,0.356-0.161,0.36-0.357
	C14.363,3.852,14.417,3.36,15,3.36h1v0.016h0.078c0.277,0.04,0.562,0.27,0.562,0.482v0.158v0.933V9c0,0.199,0.161,0.36,0.36,0.36h2
	c1.101,0,1.945-0.291,2.509-0.864c0.496-0.504,0.769-1.222,0.812-2.136H23c0.904,0,1.64,0.736,1.64,1.64v10
	c0,0.353-0.287,0.64-0.64,0.64s-0.64-0.287-0.64-0.64v-4h-0.72v1c0,0.353-0.287,0.64-0.64,0.64s-0.64-0.287-0.64-0.64v-3h-0.72v1
	c0,0.353-0.287,0.64-0.64,0.64s-0.64-0.287-0.64-0.64v-1h-0.72v1c0,0.75,0.61,1.36,1.36,1.36c0.232,0,0.448-0.064,0.64-0.167V15
	c0,0.75,0.61,1.36,1.36,1.36c0.232,0,0.448-0.064,0.64-0.167V18c0,0.75,0.61,1.36,1.36,1.36s1.36-0.61,1.36-1.36V8
	c0-1.301-1.059-2.36-2.36-2.36h-1.033c-0.097,0-0.189,0.039-0.257,0.107s-0.104,0.162-0.104,0.258
	c0.016,0.89-0.19,1.558-0.611,1.985C20.572,8.422,19.9,8.64,19,8.64h-1.64V7.36H19V6.64h-1.64V5.36H19V4.64h-1.64V4.016V3.857
	c0-0.173-0.045-0.336-0.121-0.482H19v-0.72h-2.84C16.106,2.649,16.053,2.64,16,2.64h-1c-0.793,0-1.185,0.514-1.312,1H13
	c-0.75,0-1.36,0.61-1.36,1.36h0.72C12.36,4.647,12.647,4.36,13,4.36z"/>
<rect id="_Transparent_Rectangle" style="fill:none;" width="32" height="32"/>
</svg>
