<?xml version="1.0" encoding="iso-8859-1"?>
<!-- Generator: Adobe Illustrator 29.1.0, SVG Export Plug-In . SVG Version: 9.03 Build 55587)  -->
<svg version="1.1" id="Layer_1" xmlns="http://www.w3.org/2000/svg" xmlns:xlink="http://www.w3.org/1999/xlink" x="0px" y="0px"
	 viewBox="0 0 32 32" style="enable-background:new 0 0 32 32;" xml:space="preserve">
<path id="no--parking_00000156584430735521690530000003842332619145205899_" d="M16,31.36C7.53,31.36,0.64,24.47,0.64,16
	S7.53,0.64,16,0.64S31.36,7.53,31.36,16S24.47,31.36,16,31.36z M5.401,5.911C2.898,8.539,1.36,12.093,1.36,16
	c0,8.072,6.567,14.64,14.64,14.64c3.907,0,7.462-1.538,10.09-4.041l-7.367-7.367c-0.395,0.084-0.804,0.129-1.223,0.129h-6.14V26
	h-0.72V11.149L5.401,5.911z M19.513,19.004l7.086,7.086c2.503-2.628,4.041-6.183,4.041-10.09c0-8.073-6.567-14.64-14.64-14.64
	c-3.907,0-7.461,1.539-10.089,4.042l4.729,4.729V8c0-0.199,0.161-0.36,0.36-0.36h6.5c3.231,0,5.86,2.628,5.86,5.86
	C23.36,16.024,21.756,18.181,19.513,19.004z M11.36,18.64h6.14c0.202,0,0.4-0.012,0.597-0.034L11.36,11.87
	C11.36,11.87,11.36,18.64,11.36,18.64z M11.36,10.851l7.583,7.583c2.134-0.625,3.696-2.6,3.696-4.934c0-2.834-2.306-5.14-5.14-5.14
	h-6.14L11.36,10.851L11.36,10.851z"/>
<rect id="_Transparent_Rectangle" style="fill:none;" width="32" height="32"/>
</svg>
