<?xml version="1.0" encoding="iso-8859-1"?>
<!-- Generator: Adobe Illustrator 29.1.0, SVG Export Plug-In . SVG Version: 9.03 Build 55587)  -->
<svg version="1.1" id="Layer_1" xmlns="http://www.w3.org/2000/svg" xmlns:xlink="http://www.w3.org/1999/xlink" x="0px" y="0px"
	 viewBox="0 0 32 32" style="enable-background:new 0 0 32 32;" xml:space="preserve">
<path id="no--food_00000145030879438498646470000012366742339162174126_" d="M23,31.36h-3c-0.199,0-0.36-0.161-0.36-0.36V20.149
	l-6.28-6.28V31c0,0.199-0.161,0.36-0.36,0.36h-3c-0.199,0-0.36-0.161-0.36-0.36V13.36H9c-1.301,0-2.36-1.059-2.36-2.36V7.149
	L0.746,1.254l0.509-0.509l30,30l-0.51,0.51l-7.385-7.386V31C23.36,31.199,23.199,31.36,23,31.36z M20.36,30.64h2.279v-7.49
	l-2.279-2.28V30.64z M10.36,30.64h2.28V13.149l-5.28-5.28V11c0,0.904,0.736,1.64,1.64,1.64h1c0.199,0,0.36,0.161,0.36,0.36
	C10.36,13,10.36,30.64,10.36,30.64z M23.36,20h-0.72v-4c0-0.199,0.161-0.36,0.36-0.36h1.64V4c0-1.456-1.184-2.64-2.64-2.64h-1.64V17
	h-0.72V1c0-0.199,0.161-0.36,0.36-0.36h2c1.853,0,3.36,1.507,3.36,3.36v12c0,0.199-0.161,0.36-0.36,0.36h-1.64V20z M15.18,13.062
	l-0.36-0.623c0.506-0.293,0.82-0.844,0.82-1.438V1h0.72v10C16.36,11.851,15.908,12.641,15.18,13.062z M13.36,9h-0.72V1h0.72V9z
	 M10.36,7H9.64V1h0.72C10.36,1,10.36,7,10.36,7z M7.36,4H6.64V1h0.72C7.36,1,7.36,4,7.36,4z"/>
<rect id="_Transparent_Rectangle" style="fill:none;" width="32" height="32"/>
</svg>
