<?xml version="1.0" encoding="iso-8859-1"?>
<!-- Generator: Adobe Illustrator 24.3.0, SVG Export Plug-In . SVG Version: 6.00 Build 0)  -->
<svg version="1.1" id="Layer_1" xmlns="http://www.w3.org/2000/svg" xmlns:xlink="http://www.w3.org/1999/xlink" x="0px" y="0px"
	 viewBox="0 0 32 32" style="enable-background:new 0 0 32 32;" xml:space="preserve">
<path id="no--smoking_1_" d="M27.36,20.36h-0.72v-4.72h0.721L27.36,20.36L27.36,20.36z M31.36,16c0-8.47-6.89-15.36-15.36-15.36
	S0.64,7.53,0.64,16S7.53,31.36,16,31.36S31.36,24.47,31.36,16z M15.131,15.64H5c-0.199,0-0.36,0.161-0.36,0.36v4
	c0,0.199,0.161,0.36,0.36,0.36h14.851l6.239,6.238C23.462,29.102,19.907,30.64,16,30.64C7.927,30.64,1.36,24.072,1.36,16
	c0-3.907,1.539-7.461,4.042-10.089L15.131,15.64z M25,20.36c0.199,0,0.36-0.161,0.36-0.36v-4c0-0.199-0.161-0.36-0.36-0.36h-8.851
	L5.911,5.401C8.539,2.898,12.093,1.36,16,1.36c8.072,0,14.64,6.567,14.64,14.64c0,3.907-1.538,7.462-4.041,10.09l-5.729-5.729
	L25,20.36L25,20.36z M16.869,16.36h7.771v3.28h-4.49L16.869,16.36z M5.36,16.36h10.491l3.28,3.28H5.36V16.36z M27.36,13
	c0-2.404-1.956-4.36-4.36-4.36h-5c-0.904,0-1.64-0.736-1.64-1.64V6h-0.72v1c0,1.301,1.059,2.36,2.36,2.36h5
	c2.007,0,3.64,1.633,3.64,3.64v1h0.721L27.36,13L27.36,13z M25.36,13c0-1.301-1.059-2.36-2.36-2.36h-5
	c-2.007,0-3.64-1.633-3.64-3.64V6h-0.72v1c0,2.404,1.956,4.36,4.36,4.36h5c0.904,0,1.64,0.736,1.64,1.64v1h0.721L25.36,13L25.36,13z
	"/>
<rect id="_Transparent_Rectangle" style="fill:none;" width="32" height="32"/>
</svg>
