<?xml version="1.0" encoding="iso-8859-1"?>
<!-- Generator: Adobe Illustrator 24.3.0, SVG Export Plug-In . SVG Version: 6.00 Build 0)  -->
<svg version="1.1" id="Layer_1" xmlns="http://www.w3.org/2000/svg" xmlns:xlink="http://www.w3.org/1999/xlink" x="0px" y="0px"
	 viewBox="0 0 32 32" style="enable-background:new 0 0 32 32;" xml:space="preserve">
<path id="nyc--chrysler-building_1_" d="M9.36,14c0-0.75-0.61-1.36-1.36-1.36H7.312c-0.18-0.657-0.877-1.126-1.575-0.971
	C5.502,11.066,4.919,10.64,4.25,10.64c-0.664,0-1.243,0.418-1.478,1.022C1.657,11.481,0.641,12.384,0.64,13.5
	c0,1.025,0.834,1.86,1.86,1.86H8C8.75,15.36,9.36,14.75,9.36,14z M1.36,13.5c0-0.628,0.512-1.14,1.14-1.14
	c0.126,0,0.256,0.027,0.397,0.083c0.104,0.04,0.221,0.031,0.316-0.026s0.159-0.156,0.172-0.266c0.055-0.458,0.418-0.79,0.864-0.79
	c0.464,0,0.84,0.357,0.874,0.831c0.009,0.126,0.083,0.238,0.196,0.295c0.113,0.058,0.248,0.052,0.354-0.016
	c0.12-0.075,0.224-0.11,0.326-0.11c0.353,0,0.64,0.287,0.64,0.64c0,0.199,0.161,0.36,0.36,0.36h1c0.353,0,0.64,0.287,0.64,0.64
	S8.353,14.64,8,14.64H2.5C1.872,14.64,1.36,14.128,1.36,13.5z M30,5.64h-0.35c-0.34-0.649-1.049-1.059-1.793-0.994
	C27.803,3.531,26.879,2.64,25.75,2.64c-0.912,0-1.684,0.569-1.978,1.38c-0.378-0.246-0.818-0.38-1.272-0.38
	c-1.302,0-2.36,1.059-2.36,2.36s1.059,2.36,2.36,2.36H30c0.75,0,1.36-0.61,1.36-1.36S30.75,5.64,30,5.64z M30,7.64h-7.5
	c-0.904,0-1.64-0.736-1.64-1.64s0.735-1.64,1.64-1.64c0.469,0,0.918,0.209,1.234,0.572c0.097,0.112,0.25,0.154,0.393,0.103
	c0.14-0.049,0.234-0.18,0.238-0.328c0.023-0.755,0.631-1.347,1.385-1.347c0.767,0,1.39,0.624,1.39,1.39
	c0,0.097-0.01,0.192-0.028,0.284c-0.025,0.128,0.021,0.261,0.122,0.345c0.101,0.085,0.24,0.106,0.361,0.06
	c0.628-0.243,1.276,0.101,1.48,0.681c0.052,0.144,0.188,0.24,0.34,0.24H30c0.353,0,0.64,0.287,0.64,0.64S30.353,7.64,30,7.64z
	 M24.07,26.147l-2.133-0.427c-0.346-0.898-0.89-1.698-1.577-2.347V22c0-1.054-0.376-2.021-1-2.775V18c0-0.934-0.383-1.78-1-2.39V14
	c0-0.795-0.396-1.5-1-1.928V10c0-0.625-0.426-1.147-1-1.305V1c0-0.199-0.161-0.36-0.36-0.36S15.64,0.801,15.64,1v7.695
	c-0.575,0.159-1,0.681-1,1.305v2.072c-0.604,0.428-1,1.132-1,1.928v1.61c-0.617,0.61-1,1.456-1,2.39v1.225
	c-0.625,0.754-1,1.722-1,2.775v1.374c-0.688,0.648-1.232,1.448-1.578,2.347l-2.133,0.427C7.761,26.181,7.64,26.328,7.64,26.5V31
	h0.72v-4.205l1.458-0.291C9.702,26.983,9.64,27.484,9.64,28v3h0.72v-3c0-3.11,2.53-5.64,5.64-5.64s5.64,2.529,5.64,5.64v3h0.721v-3
	c0-0.516-0.062-1.017-0.178-1.496l1.457,0.291V31h0.721v-4.5C24.36,26.328,24.239,26.181,24.07,26.147z M15.36,10
	c0-0.353,0.287-0.64,0.64-0.64s0.64,0.287,0.64,0.64v1.728c-0.204-0.057-0.418-0.088-0.64-0.088s-0.437,0.031-0.64,0.088
	C15.36,11.728,15.36,10,15.36,10z M14.36,14c0-0.904,0.736-1.64,1.64-1.64c0.904,0,1.64,0.736,1.64,1.64v1.068
	c-0.386-0.217-0.819-0.359-1.28-0.409V13.5h-0.72v1.159c-0.461,0.049-0.894,0.192-1.28,0.409C14.36,15.068,14.36,14,14.36,14z
	 M13.36,18c0-1.456,1.185-2.64,2.64-2.64c1.456,0,2.64,1.185,2.64,2.64v0.532c-0.307-0.234-0.645-0.429-1.008-0.575l0.218-0.87
	l-0.699-0.174l-0.207,0.831c-0.19-0.043-0.385-0.072-0.583-0.089V16.5h-0.72v1.154c-0.199,0.017-0.394,0.046-0.583,0.089
	l-0.208-0.831l-0.698,0.174l0.217,0.87c-0.363,0.146-0.702,0.341-1.008,0.575L13.36,18L13.36,18z M19.64,22.787
	c-0.548-0.384-1.159-0.684-1.814-0.88l0.509-1.273l-0.668-0.268l-0.549,1.372c-0.248-0.044-0.5-0.074-0.757-0.088V20h-0.72v1.65
	c-0.257,0.014-0.509,0.044-0.757,0.088l-0.548-1.372l-0.669,0.268l0.509,1.273c-0.655,0.196-1.267,0.496-1.815,0.88V22
	c0-2.007,1.633-3.64,3.64-3.64s3.64,1.633,3.64,3.64v0.787H19.64z M15.64,30h0.72v1h-0.72V30z M15.64,28h0.72v1h-0.72V28z
	 M18.36,28.64h2.14v0.721h-2.14V31h-0.72v-3c0-0.904-0.735-1.64-1.64-1.64s-1.64,0.735-1.64,1.64v3h-0.72v-1.64H11.5v-0.72h2.14V28
	c0-0.152,0.014-0.302,0.042-0.446L11.8,26.3l0.399-0.6l1.736,1.157c0.174-0.313,0.418-0.584,0.71-0.789l-0.495-1.981l0.698-0.174
	l0.458,1.831c0.438-0.135,0.948-0.135,1.387,0l0.457-1.831l0.699,0.174l-0.495,1.981c0.292,0.205,0.536,0.476,0.71,0.789L19.8,25.7
	l0.4,0.6l-1.883,1.255c0.028,0.144,0.043,0.293,0.043,0.445C18.36,28,18.36,28.64,18.36,28.64z"/>
<rect id="_Transparent_Rectangle" style="fill:none;" width="32" height="32"/>
</svg>
