<?xml version="1.0" encoding="iso-8859-1"?>
<!-- Generator: Adobe Illustrator 24.1.2, SVG Export Plug-In . SVG Version: 6.00 Build 0)  -->
<svg version="1.1" id="Layer_1" xmlns="http://www.w3.org/2000/svg" xmlns:xlink="http://www.w3.org/1999/xlink" x="0px" y="0px"
	 viewBox="0 0 32 32" style="enable-background:new 0 0 32 32;" xml:space="preserve">
<path id="nyc--brookklyn_1_" d="M7.64,16h0.72v4H7.64V16z M7.64,14h0.72v-4H7.64V14z M8.36,4H7.64v4h0.72V4z M9.64,20h0.72v-4H9.64
	V20z M9.64,14h0.72v-4H9.64V14z M10.36,4H9.64v4h0.72C10.36,8,10.36,4,10.36,4z M5.64,20h0.72v-4H5.64V20z M5.64,14h0.72v-4H5.64V14
	z M6.36,4H5.64v4h0.72C6.36,8,6.36,4,6.36,4z M3.64,20h0.72v-4H3.64V20z M3.64,14h0.72v-4H3.64V14z M4.36,4H3.64v4h0.72V4z M1.64,20
	h0.72v-4H1.64V20z M1.64,14h0.72v-4H1.64V14z M1.64,8h0.72V4H1.64V8z M31,13.64v0.72H20.36V31h-0.72v-6.64H4.36V31H3.64v-7.36h8
	V1.36H1V0.64h11.36v7h4v16h3.28v-10h4v-3.28H23c-0.199,0-0.36-0.161-0.36-0.36V4c0-0.121,0.061-0.233,0.161-0.299l3-2
	c0.119-0.081,0.279-0.081,0.398,0l3,2C29.3,3.767,29.36,3.879,29.36,4v6c0,0.199-0.161,0.36-0.36,0.36h-0.64v3.28
	C28.36,13.64,31,13.64,31,13.64z M12.36,23.64h3.28V8.36h-3.28V23.64z M23.36,9.64h5.279V4.193L26,2.433l-2.64,1.76V9.64z
	 M24.36,13.64h3.279v-3.28H24.36V13.64z M27.64,24h0.721v-3H27.64V24z M23.64,24h0.721v-3H23.64V24z M27.64,29h0.721v-3H27.64V29z
	 M23.64,29h0.721v-3H23.64V29z M23.64,19h0.721v-3H23.64V19z M27.64,19h0.721v-3H27.64V19z M7.64,31h0.72v-2.64h3.28V31h0.72v-2.64
	h3.28V31h0.72v-3.36H7.64V31z"/>
<rect id="_Transparent_Rectangle" style="fill:none;" width="32" height="32"/>
</svg>
