<svg xmlns="http://www.w3.org/2000/svg" viewBox="0 0 48 48"><line x1="36" x2="36" y1="18" y2="22" fill="none" stroke-linejoin="round" stroke-miterlimit="10" stroke-width=".72"/><line x1="32" x2="32" y1="18" y2="22" fill="none" stroke-linejoin="round" stroke-miterlimit="10" stroke-width=".72"/><polygon fill="none" stroke-linejoin="round" stroke-miterlimit="10" stroke-width=".72" points="37,12 37,18 31,18 31,12 34,10"/><polyline fill="none" stroke-miterlimit="10" stroke-width=".72" points="20,32 20,9 9,9"/><line x1="16" x2="16" y1="24" y2="28" fill="none" stroke-linejoin="round" stroke-miterlimit="10" stroke-width=".72"/><line x1="16" x2="16" y1="18" y2="22" fill="none" stroke-linejoin="round" stroke-miterlimit="10" stroke-width=".72"/><line x1="16" x2="16" y1="12" y2="16" fill="none" stroke-linejoin="round" stroke-miterlimit="10" stroke-width=".72"/><line x1="18" x2="18" y1="24" y2="28" fill="none" stroke-linejoin="round" stroke-miterlimit="10" stroke-width=".72"/><line x1="18" x2="18" y1="18" y2="22" fill="none" stroke-linejoin="round" stroke-miterlimit="10" stroke-width=".72"/><line x1="18" x2="18" y1="12" y2="16" fill="none" stroke-linejoin="round" stroke-miterlimit="10" stroke-width=".72"/><line x1="14" x2="14" y1="24" y2="28" fill="none" stroke-linejoin="round" stroke-miterlimit="10" stroke-width=".72"/><line x1="14" x2="14" y1="18" y2="22" fill="none" stroke-linejoin="round" stroke-miterlimit="10" stroke-width=".72"/><line x1="14" x2="14" y1="12" y2="16" fill="none" stroke-linejoin="round" stroke-miterlimit="10" stroke-width=".72"/><line x1="12" x2="12" y1="24" y2="28" fill="none" stroke-linejoin="round" stroke-miterlimit="10" stroke-width=".72"/><line x1="12" x2="12" y1="18" y2="22" fill="none" stroke-linejoin="round" stroke-miterlimit="10" stroke-width=".72"/><line x1="12" x2="12" y1="12" y2="16" fill="none" stroke-linejoin="round" stroke-miterlimit="10" stroke-width=".72"/><line x1="10" x2="10" y1="24" y2="28" fill="none" stroke-linejoin="round" stroke-miterlimit="10" stroke-width=".72"/><line x1="10" x2="10" y1="18" y2="22" fill="none" stroke-linejoin="round" stroke-miterlimit="10" stroke-width=".72"/><line x1="10" x2="10" y1="12" y2="16" fill="none" stroke-linejoin="round" stroke-miterlimit="10" stroke-width=".72"/><polyline fill="none" stroke-miterlimit="10" stroke-width=".72" points="12,39 12,32 28,32"/><polyline fill="none" stroke-miterlimit="10" stroke-width=".72" points="28,39 28,22 39,22"/><line x1="20" x2="20" y1="36" y2="39" fill="none" stroke-miterlimit="10" stroke-width=".72"/><line x1="36" x2="36" y1="29" y2="32" fill="none" stroke-linejoin="round" stroke-miterlimit="10" stroke-width=".72"/><line x1="32" x2="32" y1="29" y2="32" fill="none" stroke-linejoin="round" stroke-miterlimit="10" stroke-width=".72"/><line x1="36" x2="36" y1="34" y2="37" fill="none" stroke-linejoin="round" stroke-miterlimit="10" stroke-width=".72"/><line x1="32" x2="32" y1="34" y2="37" fill="none" stroke-linejoin="round" stroke-miterlimit="10" stroke-width=".72"/><line x1="32" x2="32" y1="24" y2="27" fill="none" stroke-linejoin="round" stroke-miterlimit="10" stroke-width=".72"/><line x1="36" x2="36" y1="24" y2="27" fill="none" stroke-linejoin="round" stroke-miterlimit="10" stroke-width=".72"/><polyline fill="none" stroke-miterlimit="10" stroke-width=".72" points="16,39 16,36 24,36 24,39"/><polyline fill="none" stroke-miterlimit="10" stroke-width=".72" points="24,32 24,16 20,16"/></svg>