<?xml version="1.0" encoding="iso-8859-1"?>
<!-- Generator: Adobe Illustrator 24.1.2, SVG Export Plug-In . SVG Version: 6.00 Build 0)  -->
<svg version="1.1" id="Layer_1" xmlns="http://www.w3.org/2000/svg" xmlns:xlink="http://www.w3.org/1999/xlink" x="0px" y="0px"
	 viewBox="0 0 32 32" style="enable-background:new 0 0 32 32;" xml:space="preserve">
<path id="nyc--statue-of-liberty_1_" d="M24,31.36H8v-0.72h3.64V29c0-0.199,0.161-0.36,0.36-0.36h0.64v-4.28H12v-0.72h0.64V22
	c0-0.199,0.161-0.36,0.36-0.36h0.64v-7.566l-0.961-2.243l-0.424,0.424l-0.509-0.509l0.627-0.628l-1.704-3.976l0.662-0.283
	l1.59,3.711l0.649-0.649L11.766,5.86H11c-0.199,0-0.36-0.161-0.36-0.36V4.36H10V3.64h2v0.72h-0.64v0.78H12
	c0.142,0,0.271,0.083,0.329,0.214l1.905,4.286h0.455c0.03-0.111,0.074-0.215,0.129-0.313l-0.822-0.823l0.509-0.509l0.822,0.822
	c0.098-0.056,0.203-0.1,0.313-0.13V7.45h0.72v1.237c0.111,0.031,0.216,0.075,0.313,0.13l0.822-0.822l0.51,0.509l-0.822,0.823
	c0.055,0.097,0.099,0.202,0.129,0.313H18.5v0.72h-1.14V11c0,0.096-0.038,0.187-0.105,0.254l-0.386,0.386h0.717
	c0.358,0,0.708,0.145,0.962,0.398l1.202,1.202l0.495-0.495l0.51,0.509l-2.395,2.395v0.491h0.49l1.895-1.895l0.51,0.509l-2,2
	C19.188,16.822,19.096,16.86,19,16.86h-0.64v4.78H19c0.199,0,0.36,0.161,0.36,0.36v1.64H20v0.721h-0.64v4.279H20
	c0.199,0,0.36,0.161,0.36,0.36v1.64H24V31.36z M16.36,30.64h3.28v-1.28h-7.28v1.279h3.28V30h0.72V30.64z M13.36,28.64h5.28v-4.28
	h-5.28C13.36,24.36,13.36,28.64,13.36,28.64z M16.36,23.64h2.28v-1.28h-5.28v1.279h2.28V23h0.72V23.64z M14.36,21.64h3.28V15.5
	c0-0.096,0.038-0.187,0.105-0.254l1.496-1.496l-1.203-1.203c-0.013-0.013-0.026-0.025-0.04-0.037l-3.638,3.638v2.982l1.886-1.886
	l0.509,0.51l-2.395,2.395C14.36,20.149,14.36,21.64,14.36,21.64z M13.227,11.282l1.104,2.576C14.35,13.903,14.36,13.951,14.36,14
	v1.131l2.771-2.771H16.5c-0.199,0-0.36-0.161-0.36-0.36v-0.5c0-0.096,0.038-0.187,0.105-0.254l0.395-0.395V10
	c0-0.354-0.285-0.641-0.635-0.641c-0.358,0-0.645,0.288-0.645,0.641v1h-0.72v-0.64h-0.491L13.227,11.282z M17.86,26.812h-0.72
	v-1.625h0.721L17.86,26.812L17.86,26.812z M16.36,26.812h-0.72v-1.625h0.72V26.812z M14.86,26.812h-0.72v-1.625h0.72V26.812z
	 M11.36,3.003L10.64,3c0-0.547,0.362-1.36,1.36-1.36c0.583,0,0.637-0.492,0.64-0.643L13.36,1c0,0.547-0.362,1.36-1.36,1.36
	C11.417,2.36,11.363,2.852,11.36,3.003z"/>
<rect id="_Transparent_Rectangle" style="fill:none;" width="32" height="32"/>
</svg>
