<?xml version="1.0" encoding="iso-8859-1"?>
<!-- Generator: Adobe Illustrator 29.1.0, SVG Export Plug-In . SVG Version: 9.03 Build 55587)  -->
<svg version="1.1" id="Layer_1" xmlns="http://www.w3.org/2000/svg" xmlns:xlink="http://www.w3.org/1999/xlink" x="0px" y="0px"
	 viewBox="0 0 32 32" style="enable-background:new 0 0 32 32;" xml:space="preserve">
<path id="observability--01_00000083772111787393443570000016708020871182269354_" d="M29.745,30.255l-7.44-7.441
	C20.431,23.728,18.302,24.36,16,24.36c-8.087,0-14.039-7.812-14.288-8.145L1.55,16l0.162-0.216C1.961,15.452,7.913,7.64,16,7.64
	s14.039,7.812,14.288,8.144L30.45,16l-0.162,0.216c-0.17,0.227-2.981,3.918-7.311,6.253l7.277,7.276L29.745,30.255z M2.459,16
	C3.486,17.266,9.008,23.64,16,23.64c2.072,0,4.015-0.56,5.75-1.38l-1.517-1.518C19.108,21.748,17.624,22.36,16,22.36
	c-3.507,0-6.36-2.854-6.36-6.36S12.493,9.64,16,9.64s6.36,2.853,6.36,6.36c0,1.624-0.612,3.108-1.618,4.233l1.687,1.687
	c3.764-1.983,6.43-5.079,7.112-5.92C28.515,14.735,22.992,8.36,16,8.36S3.486,14.735,2.459,16z M16,10.36
	c-3.11,0-5.64,2.53-5.64,5.64s2.53,5.64,5.64,5.64s5.64-2.529,5.64-5.64C21.64,12.89,19.11,10.36,16,10.36z M16.36,20.36H16
	c-2.404,0-4.36-1.956-4.36-4.36s1.956-4.36,4.36-4.36s4.36,1.956,4.36,4.36v0.36h-3.049c-0.127,0.461-0.491,0.825-0.952,0.952
	L16.36,20.36L16.36,20.36z M16,12.36c-2.007,0-3.64,1.633-3.64,3.64c0,1.886,1.441,3.44,3.28,3.622v-2.311
	c-0.576-0.158-1-0.686-1-1.312c0-0.75,0.61-1.36,1.36-1.36c0.625,0,1.153,0.424,1.312,1h2.311C19.44,13.801,17.886,12.36,16,12.36z
	 M16,15.36c-0.353,0-0.64,0.287-0.64,0.64s0.287,0.64,0.64,0.64s0.64-0.287,0.64-0.64S16.353,15.36,16,15.36z"/>
<rect id="_Transparent_Rectangle" style="fill:none;" width="32" height="32"/>
</svg>
