<?xml version="1.0" encoding="UTF-8"?>
<svg id="Layer_1" data-name="Layer 1" xmlns="http://www.w3.org/2000/svg" width="32" height="32" viewBox="0 0 32 32">
  <defs>
    <style>
      .cls-1 {
        fill: none;
      }
    </style>
  </defs>
  <path id="octopus" d="M18,13.5c0,.2761-.2239.5-.5.5s-.5-.2239-.5-.5.2239-.5.5-.5.5.2239.5.5ZM14.5,13c-.2761,0-.5.2239-.5.5s.2239.5.5.5.5-.2239.5-.5-.2239-.5-.5-.5ZM26.7178,26.4883c.4385-1.0586.0986-2.1807-.4629-2.7432l-.5098.5098c.3887.3887.6104,1.2275.3076,1.958-.3281.791-1.1748,1.2764-2.415,1.3975.3428-.6689.7861-1.7861.5381-2.7227-.1436-.5371-.4844-.9443-1.0146-1.21-.3076-.1533-.7285-.2324-1.2627-.332-1.9082-.3564-4.792-.8955-5.5435-5.4053-.0576-.3457-.6523-.3457-.71,0-.7515,4.5098-3.6353,5.0488-5.543,5.4053-.5342.0996-.9561.1787-1.2632.332-.5303.2656-.8716.6729-1.0142,1.21-.249.9365.1948,2.0537.5371,2.7227-1.2397-.1211-2.0869-.6064-2.4146-1.3975-.3027-.7305-.0815-1.5693.3071-1.958l-.5088-.5098c-.562.5625-.9019,1.6846-.4634,2.7432.2896.6992,1.1572,1.8721,3.7178,1.8721.1328,0,.2549-.0732.3174-.1904s.0557-.2588-.0181-.3691c-.2988-.4492-1.022-1.8135-.7788-2.7285.0884-.334.2983-.5791.6406-.75.2168-.1084.6138-.1826,1.0732-.2686,1.6484-.3086,4.564-.8535,5.7656-4.5234,1.2021,3.6699,4.1172,4.2148,5.7656,4.5234.46.0859.8564.1602,1.0732.2686.3418.1709.5518.416.6406.749.2422.9111-.4805,2.2793-.7793,2.7295-.0732.1104-.0801.252-.0176.3691s.1846.1904.3174.1904c2.5605,0,3.4287-1.1729,3.7178-1.8721ZM30.0918,23.5557c.1221-.0762.2686-.2334.2686-.5557,0-1.2041-2.1982-3.3604-4.3604-3.3604-4.0977,0-4.8027-.0498-5.6777-1.8008l-.6445.3223c1.0996,2.1992,2.3105,2.1992,6.3223,2.1992,1.7539,0,3.4199,1.6895,3.6182,2.5205-.1846-.0664-.4668-.208-.707-.3281-.7705-.3848-1.8262-.9131-2.9111-.9131h-4c-2.6807,0-3.6416-3.6904-3.6504-3.7275l-.6992.1748c.0439.1748,1.1055,4.2734,4.3496,4.2734h4c.915,0,1.8828.4834,2.5889.8369.5059.2529.8867.4434,1.1924.4434.1123,0,.2148-.0264.3105-.085ZM3.4111,23.1973c.7065-.3535,1.6738-.8369,2.5889-.8369h4c3.2437,0,4.3057-4.0986,4.3491-4.2734l-.6982-.1748c-.0093.0371-.9702,3.7275-3.6509,3.7275h-4c-1.085,0-2.1401.5283-2.9111.9131-.2437.1221-.5322.2666-.7158.332.1631-.79,1.8501-2.5244,3.627-2.5244,4.0117,0,5.2227,0,6.3218-2.1992l-.6436-.3223c-.876,1.751-1.5806,1.8008-5.6782,1.8008-2.1626,0-4.3599,2.1562-4.3599,3.3604,0,.3223.146.4795.2686.5557.0947.0586.1973.085.3105.085.3052,0,.6855-.1904,1.1919-.4434ZM26.3604,15c0-1.1089-.5391-1.9175-1.0605-2.6997-.4834-.7246-.9395-1.4092-.9395-2.3003,0-1.4922,1.3311-2.3921,2.3223-2.5923-.3994.5234-1.043,1.3857-1.043,2.5923,0,1.0698.7148,1.6533,1.4062,2.2178.7832.6396,1.5938,1.3018,1.5938,2.7822,0,1.8101-.8594,2.709-.8955,2.7471l.2559.2529-.2549-.2549.5098.5098c.0449-.0459,1.1055-1.1299,1.1055-3.2549,0-1.8223-1.0312-2.6641-1.8594-3.3403-.6377-.5205-1.1406-.9316-1.1406-1.6597,0-.9839.5498-1.7046.915-2.1816.2686-.3521.4629-.6064.3184-.8994-.1377-.2788-.4688-.2788-.5938-.2788-1.1729,0-3.3604,1.1538-3.3604,3.3599,0,1.1089.5391,1.9175,1.0605,2.6997.4834.7246.9395,1.4092.9395,2.3003,0,1.8013-.8389,2.6396-2.6396,2.6396-1.9824,0-2.4922-1.9741-2.6221-3,1.2617-1.2114,1.9824-2.8916,1.9824-4.6396,0-3.5068-2.8535-6.3599-6.3604-6.3599s-6.3599,2.853-6.3599,6.3599c0,1.7476.7202,3.4282,1.9819,4.6396-.1299,1.0259-.6382,3-2.6221,3-1.8013,0-2.6401-.8384-2.6401-2.6396,0-.8911.4565-1.5757.9395-2.3003.5215-.7822,1.0605-1.5908,1.0605-2.6997,0-2.2061-2.1875-3.3599-3.3599-3.3599-.1245,0-.4556,0-.5938.2788-.1445.293.0498.5474.3188.8994.3643.4771.915,1.1978.915,2.1816,0,.728-.5039,1.1392-1.1411,1.6597-.8281.6763-1.8589,1.5181-1.8589,3.3403,0,2.125,1.0601,3.209,1.1055,3.2549l.5103-.5078c-.0366-.0381-.896-.937-.896-2.7471,0-1.4805.8105-2.1426,1.5942-2.7822.6914-.5645,1.4058-1.1479,1.4058-2.2178,0-1.2207-.6577-2.0889-1.0562-2.6099.9355.1719,2.3364,1.0791,2.3364,2.6099,0,.8911-.4565,1.5757-.9395,2.3003-.5215.7822-1.0605,1.5908-1.0605,2.6997,0,2.1982,1.1616,3.3604,3.3599,3.3604,2.769,0,3.2705-2.9282,3.3584-3.8252.0107-.1133-.0322-.2256-.1167-.3018-1.1958-1.0835-1.8818-2.6265-1.8818-4.2334,0-3.1099,2.5303-5.6401,5.6401-5.6401s5.6396,2.5303,5.6396,5.6401c0,1.6069-.6855,3.1499-1.8809,4.2334-.085.0762-.1279.1885-.1172.3018.0879.8975.5908,3.8252,3.3584,3.8252,2.1982,0,3.3604-1.1621,3.3604-3.3604Z"/>
  <rect id="Transparent_Rectangle" data-name="Transparent Rectangle" class="cls-1" width="32" height="32"/>
</svg>