<?xml version="1.0" encoding="iso-8859-1"?>
<!-- Generator: Adobe Illustrator 24.1.2, SVG Export Plug-In . SVG Version: 6.00 Build 0)  -->
<svg version="1.1" id="Layer_1" xmlns="http://www.w3.org/2000/svg" xmlns:xlink="http://www.w3.org/1999/xlink" x="0px" y="0px"
	 viewBox="0 0 32 32" style="enable-background:new 0 0 32 32;" xml:space="preserve">
<path id="oil--rig_1_" d="M31,23.36c0.199,0,0.36-0.161,0.36-0.36v-4c0-0.199-0.161-0.36-0.36-0.36h-3.64V7
	c0-0.061-0.016-0.118-0.042-0.167L25.36,2.915V1c0-0.199-0.161-0.36-0.36-0.36h-1.993c-0.032-0.004-0.059,0.002-0.088,0.009
	c-0.03,0.007-0.06,0.018-0.087,0.032L11.36,6.417V5c0-0.199-0.161-0.36-0.36-0.36H7C6.801,4.64,6.64,4.801,6.64,5v6.64H1
	c-0.199,0-0.36,0.161-0.36,0.36v11c0,0.199,0.161,0.36,0.36,0.36h5.64v6.637c0,0.001,0,0.002,0,0.002c0,0.353-0.287,0.64-0.64,0.64
	s-0.64-0.287-0.64-0.64c0-0.199-0.161-0.36-0.36-0.36S4.64,29.801,4.64,30c0,0.353-0.287,0.64-0.64,0.64
	c-0.346,0-0.628-0.275-0.64-0.619c0-0.007,0-0.014,0-0.021c0-0.199-0.161-0.36-0.36-0.36l0,0c-0.199,0-0.36,0.161-0.36,0.36
	c0,0.007,0,0.014,0,0.021C2.628,30.364,2.346,30.64,2,30.64c-0.353,0-0.64-0.287-0.64-0.64c0-0.199-0.161-0.36-0.36-0.36
	S0.64,29.801,0.64,30c0,0.75,0.61,1.36,1.36,1.36c0.395,0,0.751-0.17,1-0.439c0.497,0.539,1.502,0.539,2,0
	c0.497,0.539,1.503,0.539,2,0c0.249,0.27,0.605,0.439,1,0.439c0.397,0,0.752-0.174,1-0.447c0.249,0.272,0.603,0.447,1,0.447
	c0.395,0,0.751-0.17,1-0.439c0.498,0.539,1.503,0.539,2,0c0.497,0.539,1.502,0.539,2,0c0.249,0.27,0.604,0.439,1,0.439
	c0.397,0,0.751-0.174,1-0.446c0.249,0.272,0.603,0.446,1,0.446c0.396,0,0.751-0.17,1-0.439c0.498,0.539,1.502,0.539,2,0
	c0.498,0.539,1.502,0.539,2,0c0.249,0.27,0.604,0.439,1,0.439c0.397,0,0.751-0.174,1-0.446c0.249,0.272,0.603,0.446,1,0.446
	c0.396,0,0.751-0.17,1-0.439c0.498,0.539,1.502,0.539,2,0c0.249,0.27,0.604,0.439,1,0.439c0.75,0,1.36-0.61,1.36-1.36
	c0-0.199-0.161-0.36-0.36-0.36s-0.36,0.161-0.36,0.36c0,0.353-0.287,0.64-0.64,0.64s-0.64-0.287-0.64-0.64
	c0-0.199-0.161-0.36-0.36-0.36s-0.36,0.161-0.36,0.36c0,0.353-0.287,0.64-0.64,0.64s-0.64-0.287-0.64-0.64v-6.64H31z M23,11.64
	h-1.64V7.36h5.279v11.28H23.36V12C23.36,11.801,23.199,11.64,23,11.64z M22.64,12.36v6.28H21h-3.64v-6.28
	C17.36,12.36,22.64,12.36,22.64,12.36z M23.36,1.36h1.279v1.28H23.36V1.36z M23.223,3.36h1.555l1.641,3.28h-4.836L23.223,3.36z
	 M11.36,7.223l11.28-5.64v1.333l-1.958,3.917C20.655,6.882,20.64,6.939,20.64,7v4.64H17c-0.199,0-0.36,0.161-0.36,0.36v6.64h-1.28
	V12c0-0.199-0.161-0.36-0.36-0.36h-3.64V7.223z M7.36,5.36h3.28v1.633c0,0.005,0,0.01,0,0.015v4.632H7.36V5.36z M1.36,12.36h13.28
	v6.28H1.36V12.36z M12,30.64c-0.346,0-0.628-0.275-0.64-0.619c0-0.007,0-0.014,0-0.021c0-0.199-0.161-0.36-0.36-0.36l0,0
	c-0.199,0-0.36,0.161-0.36,0.36c0,0.007,0,0.014,0,0.021c-0.011,0.344-0.294,0.619-0.64,0.619c-0.353,0-0.64-0.287-0.64-0.64
	c0-0.199-0.161-0.36-0.36-0.36l0,0l0,0c-0.199,0-0.36,0.161-0.36,0.36c0,0.353-0.287,0.64-0.64,0.64
	c-0.352,0-0.638-0.286-0.64-0.637V23.36h5.28V30C12.64,30.353,12.353,30.64,12,30.64z M24,30.64c-0.353,0-0.64-0.287-0.64-0.64
	c0-0.199-0.161-0.36-0.36-0.36s-0.36,0.161-0.36,0.36c0,0.353-0.287,0.64-0.64,0.64s-0.64-0.287-0.64-0.64
	c0-0.199-0.161-0.36-0.36-0.36s-0.36,0.161-0.36,0.36c0,0.353-0.287,0.64-0.64,0.64s-0.64-0.287-0.64-0.64
	c0-0.199-0.161-0.36-0.36-0.36s-0.36,0.161-0.36,0.36c0,0.353-0.287,0.64-0.64,0.64s-0.64-0.287-0.64-0.64
	c0-0.199-0.161-0.36-0.36-0.36l0,0l0,0c-0.199,0-0.36,0.161-0.36,0.36c0,0.353-0.287,0.64-0.64,0.64
	c-0.346,0-0.628-0.275-0.64-0.619c0-0.007,0-0.014,0-0.021c0-0.199-0.161-0.36-0.36-0.36l0,0c-0.199,0-0.36,0.161-0.36,0.36
	c0,0.007,0,0.014,0,0.021c-0.011,0.344-0.294,0.619-0.64,0.619c-0.353,0-0.64-0.287-0.64-0.64v-6.64h11.28V30
	C24.64,30.353,24.353,30.64,24,30.64z M26,30.64c-0.353,0-0.64-0.287-0.64-0.64v-6.64h1.279V30C26.64,30.353,26.353,30.64,26,30.64z
	 M27,22.64H1.36v-3.28h29.28v3.279L27,22.64L27,22.64z"/>
<rect id="_Transparent_Rectangle" style="fill:none;" width="32" height="32"/>
</svg>
