<svg xmlns="http://www.w3.org/2000/svg" viewBox="0 0 48 48"><path fill="none" stroke-linecap="round" stroke-linejoin="round" stroke-miterlimit="10" stroke-width=".72" d="M39,31H9v-4h30V31z M23,20H9v7h14V20z M31,20h-6v7h6V20z M29,27h6V15h-6v5 M19,13h-4v7h4V13z M33,11h-2l-2,4h6L33,11z M33,9h-2v2 h2V9z M21,31v7.5 M15,31v7.5 M35,31v7.5 M33,31v7.5 M31,9l-12,6"/><path fill="none" stroke-linecap="round" stroke-linejoin="round" stroke-miterlimit="10" stroke-width=".72" d="M9,38c0,0.552,0.448,1,1,1c0.552,0,1-0.448,1-1 M11,38c0,0.552,0.448,1,1,1s1-0.448,1-1 M13,38c0,0.552,0.448,1,1,1s1-0.448,1-1 M15,38c0,0.552,0.448,1,1,1c0.552,0,1-0.448,1-1"/><path fill="none" stroke-linecap="round" stroke-linejoin="round" stroke-miterlimit="10" stroke-width=".72" d="M17.001,38c0,0.552,0.448,1,1,1c0.552,0,1-0.448,1-1 M19,38c0,0.552,0.448,1,1,1c0.552,0,1-0.448,1-1 M21,38c0,0.552,0.448,1,1,1 c0.552,0,1-0.448,1-1 M23,38c0,0.552,0.448,1,1,1s1-0.448,1-1"/><path fill="none" stroke-linecap="round" stroke-linejoin="round" stroke-miterlimit="10" stroke-width=".72" d="M25.001,38c0,0.552,0.448,1,1,1c0.552,0,1-0.448,1-1 M27,38c0,0.552,0.448,1,1,1c0.552,0,1-0.448,1-1 M29,38c0,0.552,0.448,1,1,1 c0.552,0,1-0.448,1-1 M31,38c0,0.552,0.448,1,1,1s1-0.448,1-1"/><path fill="none" stroke-linecap="round" stroke-linejoin="round" stroke-miterlimit="10" stroke-width=".72" d="M33.001,38c0,0.552,0.448,1,1,1s1-0.448,1-1 M35,38c0,0.552,0.448,1,1,1c0.552,0,1-0.448,1-1 M37,38c0,0.552,0.448,1,1,1 c0.552,0,1-0.448,1-1"/></svg>