<?xml version="1.0" encoding="iso-8859-1"?>
<!-- Generator: Adobe Illustrator 24.3.0, SVG Export Plug-In . SVG Version: 6.00 Build 0)  -->
<svg version="1.1" id="Layer_1" xmlns="http://www.w3.org/2000/svg" xmlns:xlink="http://www.w3.org/1999/xlink" x="0px" y="0px"
	 viewBox="0 0 32 32" style="enable-background:new 0 0 32 32;" xml:space="preserve">
<path id="okinawa_1_" d="M7,21.64h7v0.721H7V21.64z M5,24.36h8v-0.72H5V24.36z M3,26.36h9v-0.72H3V26.36z M1,28.36h10v-0.72H1V28.36
	z M21,28.36h10v-0.72H21V28.36z M25,21.64h-7v0.721h7V21.64z M27,23.64h-8v0.721h8V23.64z M29,25.64h-9v0.721h9V25.64z M28.36,15.36
	v2.28H31v0.721H20.36h-0.72h-0.77l1.279,1.279H31v0.721H20c-0.096,0-0.188-0.038-0.255-0.105l-1.895-1.895h-3.702l-1.895,1.895
	C12.187,20.322,12.096,20.36,12,20.36H1v-0.72h10.851l1.279-1.279h-0.77h-0.72H1V17.64h2.641v-2.28H1v-0.72h2.64v-1.28H2
	c-0.199,0-0.36-0.161-0.36-0.36v-1c0-0.199,0.161-0.36,0.36-0.36c1.593,0,3.891-0.67,4.64-0.903V9.36H4
	C3.801,9.36,3.64,9.199,3.64,9V8c0-0.199,0.161-0.36,0.36-0.36c2.471,0,3.507-0.706,3.71-0.866l0.93-1.859V4h0.72v0.64h13.28V4
	h0.721v0.915l0.93,1.86C24.486,6.93,25.521,7.64,28,7.64c0.199,0,0.36,0.161,0.36,0.36v1c0,0.199-0.161,0.36-0.36,0.36h-2.64v1.377
	c0.749,0.233,3.047,0.903,4.64,0.903c0.199,0,0.36,0.161,0.36,0.36v1c0,0.199-0.161,0.36-0.36,0.36h-1.64v1.28H31v0.72
	C31,15.36,28.36,15.36,28.36,15.36z M24.64,9.36h-8.28v0.796c0.962,0.039,1.645,0.223,2.152,0.484h6.128
	C24.64,10.64,24.64,9.36,24.64,9.36z M16.36,17.64h1.28v-2.28h-1.28V17.64z M15.64,15.36h-1.28v2.28h1.28V15.36z M17.64,14.64v-1.28
	h-3.28v1.28H17.64z M12.36,14.64h1.28v-1.28h-1.28V14.64z M18.36,14.64h1.279v-1.28H18.36V14.64z M19.788,12.64
	c-0.193-0.16-0.367-0.331-0.536-0.503C18.604,11.48,17.993,10.86,16,10.86s-2.604,0.621-3.252,1.277
	c-0.169,0.172-0.342,0.343-0.536,0.503h0.148h7.28C19.64,12.64,19.788,12.64,19.788,12.64z M4.36,8.64h23.28V8.355
	c-2.838-0.077-3.851-1.057-3.895-1.101c-0.027-0.027-0.05-0.059-0.067-0.093l-0.9-1.801H9.223L8.322,7.161
	c-0.017,0.035-0.04,0.066-0.067,0.093C8.211,7.298,7.198,8.278,4.36,8.355V8.64z M7.36,9.36v1.28h6.128
	c0.507-0.261,1.191-0.445,2.152-0.484V9.36H7.36z M11.64,17.64v-2.28H11v-0.72h0.64v-1.624c-0.407,0.206-0.92,0.344-1.64,0.344
	v-0.72c1.242,0,1.68-0.445,2.235-1.008c0.089-0.09,0.179-0.181,0.273-0.272H7.057c-0.406,0.133-2.824,0.897-4.698,0.991v0.29H8v0.72
	H4.36v4.28h1.28V16h0.72v1.64h1.28V16h0.72v1.64h1.28V16h0.72v1.64H11.64z M12.36,17.64h1.28v-2.28h-1.28V17.64z M19.64,17.64v-2.28
	h-1.28v2.28H19.64z M27.64,17.64v-4.28H24v-0.72h5.64v-0.29c-1.874-0.094-4.291-0.858-4.697-0.991h-5.451
	c0.095,0.091,0.185,0.182,0.273,0.272c0.555,0.563,0.994,1.008,2.235,1.008v0.72c-0.72,0-1.232-0.138-1.64-0.344v1.624H21v0.72
	h-0.64v2.28h1.279V16h0.721v1.64h1.279V16h0.721v1.64h1.279V16h0.721v1.64H27.64z"/>
<rect id="_Transparent_Rectangle" style="fill:none;" width="32" height="32"/>
</svg>
