<?xml version="1.0" encoding="iso-8859-1"?>
<!-- Generator: Adobe Illustrator 26.3.1, SVG Export Plug-In . SVG Version: 6.00 Build 0)  -->
<svg version="1.1" id="Layer_1" xmlns="http://www.w3.org/2000/svg" xmlns:xlink="http://www.w3.org/1999/xlink" x="0px" y="0px"
	 viewBox="0 0 32 32" style="enable-background:new 0 0 32 32;" xml:space="preserve">
<path id="on-premise_00000176027494765702429270000005286886666156593541_" d="M16,30.36L16,30.36c-0.002,0-0.004,0-0.007,0l0,0
	c-0.001,0-0.002,0-0.003,0l0,0c-0.004-0.009-0.01-0.001-0.015-0.001c-0.076-0.006-0.151-0.035-0.212-0.089
	c-0.008-0.007-0.017-0.015-0.025-0.021c-0.716-0.628-1.545-1.392-2.394-2.251C9.958,24.614,4.64,18.435,4.64,13
	c0-5.847,4.291-10.647,10.03-11.287C14.802,1.101,15.349,0.64,16,0.64c0.651,0,1.197,0.46,1.329,1.073
	c5.332,0.589,9.369,4.625,9.958,9.958c0.612,0.132,1.073,0.678,1.073,1.33c0,0.664-0.478,1.217-1.107,1.336
	c-0.669,4.333-4.348,8.95-7.608,12.448c-1.009,1.115-2.009,2.104-2.803,2.888l-0.587,0.583c0,0-0.001,0.001-0.002,0.002
	c0,0.001-0.001,0.002-0.002,0.003c-0.068,0.065-0.156,0.099-0.244,0.101C16.003,30.36,16.002,30.36,16,30.36z M16,17.36
	c-2.688,0-4.64,1.951-4.64,4.64c0,2.606,2.894,5.919,4.626,7.504c1.395-1.403,4.654-4.822,4.654-7.504
	C20.64,19.312,18.688,17.36,16,17.36z M10.06,13.195c-1.099,1.356-1.7,3.05-1.7,4.805c0,2.123,1.303,4.466,2.914,6.55
	c-0.392-0.862-0.634-1.73-0.634-2.55c0-3.056,2.304-5.36,5.36-5.36s5.36,2.304,5.36,5.36c0,0.739-0.212,1.518-0.553,2.291
	c1.571-2.03,2.832-4.261,2.832-6.291c0-4.213-3.427-7.64-7.64-7.64c-1.433,0-2.817,0.395-4.025,1.145
	c0.061,0.153,0.093,0.32,0.093,0.495c0,0.75-0.61,1.36-1.36,1.36C10.474,13.36,10.253,13.3,10.06,13.195z M14.711,2.434
	C9.357,3.05,5.36,7.537,5.36,13c0,2.483,1.187,5.152,2.788,7.622C7.826,19.739,7.64,18.858,7.64,18c0-1.94,0.672-3.813,1.899-5.306
	c-0.121-0.203-0.19-0.441-0.19-0.694c0-0.75,0.61-1.36,1.36-1.36c0.314,0,0.604,0.107,0.834,0.286
	C12.876,10.084,14.411,9.64,16,9.64c4.609,0,8.36,3.75,8.36,8.36c0,0.732-0.146,1.482-0.4,2.235
	c1.279-1.973,2.261-4.017,2.573-5.958c-0.521-0.19-0.894-0.691-0.894-1.277c0-0.599,0.389-1.108,0.928-1.29
	c-0.566-4.958-4.32-8.712-9.278-9.277C17.108,2.971,16.599,3.36,16,3.36S14.892,2.971,14.711,2.434z M27,12.36
	c-0.353,0-0.64,0.287-0.64,0.64s0.287,0.64,0.64,0.64s0.64-0.287,0.64-0.64S27.353,12.36,27,12.36z M10.708,11.36
	c-0.353,0-0.64,0.287-0.64,0.64s0.287,0.64,0.64,0.64s0.64-0.287,0.64-0.64S11.062,11.36,10.708,11.36z M16,1.36
	c-0.353,0-0.64,0.287-0.64,0.64S15.647,2.64,16,2.64c0.353,0,0.64-0.287,0.64-0.64S16.353,1.36,16,1.36z"/>
<rect id="_Transparent_Rectangle" style="fill:none;" width="32" height="32"/>
</svg>
