<?xml version="1.0" encoding="iso-8859-1"?>
<!-- Generator: Adobe Illustrator 24.1.2, SVG Export Plug-In . SVG Version: 6.00 Build 0)  -->
<svg version="1.1" xmlns="http://www.w3.org/2000/svg" xmlns:xlink="http://www.w3.org/1999/xlink" x="0px" y="0px"
	 viewBox="0 0 48 48" style="enable-background:new 0 0 48 48;" xml:space="preserve">
<g id="optimize--cash-flow--02">
	<g id="optimize--cash-flow--02_1_">
		
			<line style="fill:none;stroke:#000000;stroke-width:0.72;stroke-linejoin:round;stroke-miterlimit:10;" x1="24" y1="20.5" x2="24" y2="22"/>
		
			<line style="fill:none;stroke:#000000;stroke-width:0.72;stroke-linejoin:round;stroke-miterlimit:10;" x1="24" y1="26" x2="24" y2="27.5"/>
		<path style="fill:none;stroke:#000000;stroke-width:0.72;stroke-linejoin:round;stroke-miterlimit:10;" d="M26,22h-3
			c-0.552,0-1,0.447-1,1c0,0.552,0.447,1,1,1h2c0.552,0,1,0.448,1,1c0,0.553-0.448,1-1,1h-3"/>
		<polygon style="fill:none;stroke:#000000;stroke-width:0.72;stroke-miterlimit:10;" points="33,26 33,22 30.998,22 30.363,20.466 
			31.778,19.05 28.95,16.222 27.534,17.637 26,17.002 26,15 22,15 22,17.002 20.466,17.637 19.05,16.222 16.222,19.05 
			17.637,20.466 17.002,22 15,22 15,26 17.002,26 17.637,27.534 16.222,28.95 19.05,31.778 20.466,30.363 22,30.998 22,33 26,33 
			26,30.998 27.534,30.363 28.95,31.778 31.778,28.95 30.363,27.534 30.998,26 		"/>
		<path id="renew_1_" style="fill:none;stroke:#000000;stroke-width:0.72;stroke-miterlimit:10;" d="M36,11v4h-4 M16,33h-4v4 M36,15
			c-2.737-3.643-7.093-6-12-6C15.716,9,9,15.716,9,24 M12,33c2.737,3.643,7.093,6,12,6c8.284,0,15-6.716,15-15"/>
	</g>
</g>
<g id="Layer_1">
</g>
</svg>
