<?xml version="1.0" encoding="iso-8859-1"?>
<!-- Generator: Adobe Illustrator 24.1.2, SVG Export Plug-In . SVG Version: 6.00 Build 0)  -->
<svg version="1.1" id="Layer_1" xmlns="http://www.w3.org/2000/svg" xmlns:xlink="http://www.w3.org/1999/xlink" x="0px" y="0px"
	 viewBox="0 0 32 32" style="enable-background:new 0 0 32 32;" xml:space="preserve">
<path id="optimize--cash-flow--01_1_" d="M1,13.36h20c0.199,0,0.36-0.161,0.36-0.36V3c0-0.199-0.161-0.36-0.36-0.36H1
	C0.801,2.64,0.64,2.801,0.64,3v10C0.64,13.199,0.801,13.36,1,13.36z M1.36,10.396c1.166,0.161,2.083,1.078,2.244,2.244H1.36V10.396z
	 M1.36,9.677V6.323C2.922,6.154,4.154,4.922,4.323,3.36h13.353c0.169,1.562,1.402,2.794,2.964,2.964v3.353
	c-1.562,0.17-2.794,1.402-2.964,2.964H4.323C4.154,11.078,2.922,9.846,1.36,9.677z M18.397,12.64
	c0.161-1.165,1.077-2.082,2.243-2.244v2.244C20.64,12.64,18.397,12.64,18.397,12.64z M20.64,5.604
	c-1.166-0.161-2.082-1.078-2.243-2.244h2.243V5.604z M3.604,3.36C3.443,4.525,2.525,5.443,1.36,5.604V3.36H3.604z M11,11.36
	c1.853,0,3.36-1.507,3.36-3.36S12.853,4.64,11,4.64S7.64,6.147,7.64,8S9.147,11.36,11,11.36z M11,5.36c1.456,0,2.64,1.185,2.64,2.64
	s-1.185,2.64-2.64,2.64S8.36,9.456,8.36,8S9.544,5.36,11,5.36z M31,18.64H11c-0.199,0-0.36,0.161-0.36,0.36v10
	c0,0.199,0.161,0.36,0.36,0.36h20c0.199,0,0.36-0.161,0.36-0.36V19C31.36,18.801,31.199,18.64,31,18.64z M30.64,21.603
	c-1.165-0.161-2.082-1.077-2.243-2.243h2.243V21.603z M30.64,22.324v3.352c-1.561,0.17-2.794,1.402-2.964,2.964H14.323
	c-0.17-1.562-1.402-2.794-2.964-2.964v-3.352c1.562-0.169,2.794-1.402,2.964-2.964h13.353C27.846,20.922,29.078,22.154,30.64,22.324
	z M13.604,19.36c-0.161,1.166-1.078,2.082-2.244,2.243V19.36H13.604z M11.36,26.397c1.165,0.161,2.082,1.077,2.244,2.243H11.36
	V26.397z M28.397,28.64c0.161-1.165,1.077-2.082,2.243-2.243v2.243H28.397z M21,20.64c-1.853,0-3.36,1.508-3.36,3.36
	s1.508,3.36,3.36,3.36s3.36-1.508,3.36-3.36S22.853,20.64,21,20.64z M21,26.64c-1.456,0-2.64-1.184-2.64-2.64s1.184-2.64,2.64-2.64
	s2.64,1.184,2.64,2.64S22.456,26.64,21,26.64z M1.87,23.64H8v0.721H1.87l2.385,2.385l-0.509,0.51L0.491,24l3.255-3.255l0.509,0.51
	L1.87,23.64z M30.131,8.36H24V7.64h6.131l-2.386-2.386l0.51-0.509L31.509,8l-3.254,3.254l-0.51-0.509L30.131,8.36z"/>
<rect id="_Transparent_Rectangle" style="fill:none;" width="32" height="32"/>
</svg>
