<?xml version="1.0" encoding="iso-8859-1"?>
<!-- Generator: Adobe Illustrator 24.1.2, SVG Export Plug-In . SVG Version: 6.00 Build 0)  -->
<svg version="1.1" id="Layer_1" xmlns="http://www.w3.org/2000/svg" xmlns:xlink="http://www.w3.org/1999/xlink" x="0px" y="0px"
	 viewBox="0 0 32 32" style="enable-background:new 0 0 32 32;" xml:space="preserve">
<path id="optimize--cash-flow--02_1_" d="M18.36,17c0,0.75-0.61,1.36-1.36,1.36h-0.64v1.14h-0.72v-1.14H14v-0.72h3
	c0.353,0,0.64-0.287,0.64-0.64c0-0.353-0.287-0.64-0.64-0.64h-2c-0.75,0-1.359-0.61-1.359-1.36s0.61-1.36,1.359-1.36h0.641V12.5
	h0.72v1.14H18v0.72h-3c-0.353,0-0.64,0.287-0.64,0.64s0.287,0.64,0.64,0.64h2C17.75,15.64,18.36,16.25,18.36,17z M23.238,18.36
	l-0.451,1.089l1.5,1.5l-3.338,3.338l-1.5-1.5l-1.089,0.451v2.122h-4.72v-2.122l-1.09-0.451l-1.5,1.5l-3.338-3.338l1.5-1.5
	L8.761,18.36H6.64v-4.72h2.121l0.451-1.09l-1.5-1.5l3.338-3.338l1.5,1.5l1.09-0.451V6.64h4.72v2.121l1.089,0.451l1.5-1.5
	l3.338,3.338l-1.5,1.5l0.451,1.09h2.122v4.72H23.238z M21.938,19.619l0.82-1.979h1.882v-3.28h-1.882l-0.82-1.979l1.332-1.331
	l-2.32-2.319l-1.33,1.331l-1.98-0.819V7.36h-3.28v1.883l-1.979,0.819L11.05,8.731L8.731,11.05l1.331,1.331L9.243,14.36H7.36v3.28
	h1.883l0.819,1.979l-1.331,1.33l2.319,2.32l1.331-1.332l1.979,0.82v1.882h3.28v-1.882l1.979-0.82l1.33,1.332l2.32-2.32
	L21.938,19.619z M16,1.36c4.402,0,8.465,1.915,11.257,5.28H24v0.72h4.36V3h-0.72v2.978C24.717,2.572,20.53,0.64,16,0.64
	C7.53,0.64,0.64,7.53,0.64,16h0.72C1.36,7.927,7.927,1.36,16,1.36z M30.64,16c0,8.072-6.567,14.64-14.64,14.64
	c-4.402,0-8.465-1.915-11.257-5.279H8V24.64H3.64V29h0.72v-2.978C7.283,29.428,11.47,31.36,16,31.36c8.47,0,15.36-6.891,15.36-15.36
	H30.64z"/>
<rect id="_Transparent_Rectangle" style="fill:none;" width="32" height="32"/>
</svg>
