<?xml version="1.0" encoding="iso-8859-1"?>
<!-- Generator: Adobe Illustrator 24.3.0, SVG Export Plug-In . SVG Version: 6.00 Build 0)  -->
<svg version="1.1" id="Layer_1" xmlns="http://www.w3.org/2000/svg" xmlns:xlink="http://www.w3.org/1999/xlink" x="0px" y="0px"
	 viewBox="0 0 32 32" style="enable-background:new 0 0 32 32;" xml:space="preserve">
<path id="organization_1_" d="M31.36,30h-0.72v-1.572c0-1.951-1.253-3.703-3.119-4.359c-0.136-0.048-0.229-0.171-0.24-0.314
	c-0.01-0.143,0.065-0.278,0.193-0.345c1.073-0.559,1.74-1.646,1.74-2.838c0-1.771-1.441-3.211-3.214-3.211s-3.214,1.44-3.214,3.211
	c0,1.191,0.667,2.279,1.74,2.838c0.128,0.066,0.203,0.202,0.193,0.345c-0.011,0.144-0.104,0.267-0.24,0.314
	c-1.866,0.656-3.119,2.408-3.119,4.359V30h-0.72v-1.572c0-1.951-1.253-3.703-3.119-4.359c-0.136-0.048-0.229-0.171-0.24-0.314
	c-0.01-0.143,0.065-0.278,0.193-0.345c1.073-0.559,1.74-1.646,1.74-2.838c0-1.771-1.441-3.211-3.214-3.211
	c-1.772,0-3.214,1.44-3.214,3.211c0,1.191,0.667,2.279,1.74,2.838c0.127,0.066,0.203,0.202,0.193,0.345
	c-0.01,0.144-0.104,0.267-0.239,0.314c-1.866,0.656-3.12,2.408-3.12,4.359V30h-0.72v-1.572c0-1.951-1.254-3.703-3.12-4.359
	c-0.135-0.048-0.229-0.171-0.239-0.314c-0.01-0.143,0.065-0.278,0.193-0.345c1.073-0.559,1.74-1.646,1.74-2.838
	c0-1.771-1.442-3.211-3.214-3.211s-3.214,1.44-3.214,3.211c0,1.191,0.667,2.279,1.74,2.838c0.127,0.066,0.203,0.202,0.193,0.345
	c-0.01,0.144-0.104,0.267-0.239,0.314c-1.866,0.656-3.12,2.408-3.12,4.359V30H0.64v-1.572c0-2.022,1.162-3.858,2.954-4.763
	c-0.956-0.737-1.527-1.87-1.527-3.094c0-2.168,1.765-3.931,3.934-3.931s3.934,1.763,3.934,3.931c0,1.224-0.571,2.356-1.527,3.094
	c1.201,0.605,2.119,1.631,2.594,2.85c0.475-1.219,1.393-2.244,2.594-2.85c-0.956-0.737-1.527-1.87-1.527-3.094
	c0-2.168,1.765-3.931,3.934-3.931s3.935,1.763,3.935,3.931c0,1.224-0.572,2.356-1.528,3.094c1.201,0.606,2.119,1.631,2.594,2.85
	c0.475-1.219,1.393-2.243,2.594-2.85c-0.956-0.737-1.528-1.87-1.528-3.094c0-2.168,1.766-3.931,3.935-3.931s3.935,1.763,3.935,3.931
	c0,1.224-0.572,2.356-1.528,3.094c1.792,0.904,2.954,2.74,2.954,4.763V30H31.36z M31.36,15h-0.72v-1.572
	c0-1.951-1.253-3.703-3.119-4.359c-0.136-0.048-0.229-0.171-0.24-0.314c-0.01-0.143,0.066-0.279,0.193-0.345
	c1.073-0.559,1.74-1.646,1.74-2.837c0-1.771-1.441-3.212-3.214-3.212s-3.214,1.441-3.214,3.212c0,1.192,0.667,2.279,1.74,2.837
	c0.127,0.066,0.203,0.202,0.193,0.345c-0.011,0.143-0.104,0.267-0.24,0.314c-1.866,0.656-3.119,2.408-3.119,4.359V15h-0.72v-1.572
	c0-1.951-1.253-3.703-3.119-4.359c-0.136-0.048-0.229-0.171-0.24-0.314c-0.01-0.143,0.066-0.279,0.193-0.345
	c1.073-0.559,1.74-1.646,1.74-2.837c0-1.771-1.441-3.212-3.214-3.212c-1.772,0-3.214,1.441-3.214,3.212
	c0,1.192,0.667,2.279,1.74,2.837c0.127,0.066,0.203,0.202,0.193,0.345c-0.01,0.143-0.104,0.267-0.239,0.314
	c-1.866,0.656-3.12,2.408-3.12,4.359V15h-0.72v-1.572c0-1.952-1.254-3.704-3.12-4.359C7.385,9.021,7.291,8.897,7.281,8.754
	c-0.01-0.143,0.065-0.279,0.193-0.345c1.073-0.558,1.74-1.646,1.74-2.837C9.214,3.801,7.772,2.36,6,2.36S2.786,3.801,2.786,5.572
	c0,1.192,0.667,2.279,1.74,2.837c0.127,0.066,0.203,0.202,0.193,0.345C4.709,8.897,4.615,9.021,4.48,9.068
	c-1.866,0.656-3.12,2.408-3.12,4.359V15H0.64v-1.572c0-2.022,1.162-3.858,2.954-4.763c-0.956-0.737-1.527-1.87-1.527-3.093
	C2.066,3.404,3.831,1.64,6,1.64s3.934,1.764,3.934,3.932c0,1.223-0.571,2.356-1.527,3.093c1.201,0.606,2.119,1.631,2.594,2.85
	c0.475-1.219,1.393-2.244,2.594-2.85c-0.956-0.737-1.527-1.87-1.527-3.093c0-2.168,1.765-3.932,3.934-3.932s3.935,1.764,3.935,3.932
	c0,1.223-0.572,2.356-1.528,3.093c1.201,0.606,2.119,1.631,2.594,2.85c0.475-1.219,1.393-2.244,2.594-2.85
	c-0.956-0.737-1.528-1.87-1.528-3.093c0-2.168,1.766-3.932,3.935-3.932s3.935,1.764,3.935,3.932c0,1.223-0.572,2.356-1.528,3.093
	c1.792,0.905,2.954,2.741,2.954,4.763V15H31.36z"/>
<rect id="_Transparent_Rectangle" style="fill:none;" width="32" height="32"/>
</svg>
