<?xml version="1.0" encoding="iso-8859-1"?>
<!-- Generator: Adobe Illustrator 28.0.0, SVG Export Plug-In . SVG Version: 6.00 Build 0)  -->
<svg version="1.1" id="Layer_1" xmlns="http://www.w3.org/2000/svg" xmlns:xlink="http://www.w3.org/1999/xlink" x="0px" y="0px"
	 viewBox="0 0 32 32" style="enable-background:new 0 0 32 32;" xml:space="preserve">
<path id="osaka--tsutenkaku-tower_00000062914693106555482010000017984244614324002953_" d="M29.36,31h-0.72v-3.64h-1.28V29
	c0,0.199-0.161,0.36-0.36,0.36h-1.64V31h-0.72v-1.64H24c-0.199,0-0.36-0.161-0.36-0.36v-2.64H8.36V29c0,0.199-0.161,0.36-0.36,0.36
	H7.36V31H6.64v-1.64H5c-0.199,0-0.36-0.161-0.36-0.36v-1.64H3.36V31H2.64V14.36H1v-0.72h2c0.199,0,0.36,0.161,0.36,0.36v2.64h1.28
	V15c0-0.199,0.161-0.36,0.36-0.36h3c0.199,0,0.36,0.161,0.36,0.36v10.64h4.17l0.884-9.28H12v-0.72h1.482l0.151-1.587l-0.489-1.223
	l-0.317,0.158l-0.322-0.644l0.371-0.186l-0.398-0.996l-0.316,0.158l-0.322-0.644l0.371-0.186l-0.544-1.359
	c-0.069-0.174,0.006-0.372,0.173-0.456l1.801-0.901V6c0-0.199,0.161-0.36,0.36-0.36h0.64V4c0-0.199,0.161-0.36,0.36-0.36h0.64V1
	h0.72v2.64H17c0.199,0,0.36,0.161,0.36,0.36v1.64H18c0.199,0,0.36,0.161,0.36,0.36v1.777l1.801,0.901
	c0.167,0.083,0.242,0.282,0.173,0.456l-0.543,1.359l0.37,0.186l-0.322,0.644l-0.316-0.158l-0.398,0.996l0.37,0.185l-0.322,0.644
	l-0.316-0.158l-0.489,1.223l0.151,1.587H20v0.72h-1.414l0.884,9.28h4.17V17c0-0.199,0.161-0.36,0.36-0.36h3
	c0.199,0,0.36,0.161,0.36,0.36v1.64h1.279V12c0-0.199,0.161-0.36,0.36-0.36h2v0.72h-1.64L29.36,31L29.36,31z M24.36,28.64h2.279
	V17.36H24.36V28.64z M5.36,28.64h2.28V15.36H5.36V28.64z M27.36,26.64h1.279v-3.28H27.36V26.64z M3.36,26.64h1.28v-4.28H3.36V26.64z
	 M17.36,25.64h1.387l-0.122-1.279H17.36V25.64z M15.36,25.64h1.28V14.36h-1.28V25.64z M13.253,25.64h1.387v-1.28h-1.265
	L13.253,25.64z M17.36,23.64h1.196l-0.122-1.279H17.36V23.64z M13.443,23.64h1.197v-1.28h-1.075L13.443,23.64z M27.36,22.64h1.279
	v-3.28H27.36V22.64z M17.36,21.64h1.006l-0.122-1.279H17.36V21.64z M13.634,21.64h1.006v-1.28h-0.884L13.634,21.64z M3.36,21.64
	h1.28v-4.28H3.36V21.64z M17.36,19.64h0.815l-0.503-5.28H17.36V19.64z M13.824,19.64h0.816v-5.28h-0.313L13.824,19.64z
	 M14.244,13.64h3.512l0.453-1.133l-0.294-0.147h-3.83l-0.294,0.147L14.244,13.64z M14,11.64h4c0.056,0,0.111,0.013,0.161,0.038
	l0.316,0.158l0.398-0.996l-0.961-0.48h-3.83l-0.961,0.48l0.398,0.996l0.316-0.158C13.889,11.653,13.944,11.64,14,11.64z M14,9.64h4
	c0.056,0,0.111,0.013,0.161,0.038l0.983,0.492l0.398-0.996L17.915,8.36h-3.83l-1.628,0.814l0.398,0.996l0.983-0.492
	C13.889,9.653,13.944,9.64,14,9.64z M14.36,7.64h3.28V6.36h-3.28V7.64z M15.36,5.64h1.28V4.36h-1.28V5.64z M22,30.36h-2v-0.72h2
	V30.36z M17,30.36h-2v-0.72h2V30.36z M12,30.36h-2v-0.72h2V30.36z M22,28.36h-2v-0.72h2V28.36z M17,28.36h-2v-0.72h2V28.36z
	 M12,28.36h-2v-0.72h2V28.36z"/>
<rect id="_Transparent_Rectangle" style="fill:none;" width="32" height="32"/>
</svg>
