<?xml version="1.0" encoding="iso-8859-1"?>
<!-- Generator: Adobe Illustrator 30.4.0, SVG Export Plug-In . SVG Version: 9.03 Build 0)  -->
<svg version="1.1" id="Layer_1" xmlns="http://www.w3.org/2000/svg" xmlns:xlink="http://www.w3.org/1999/xlink" x="0px" y="0px"
	 viewBox="0 0 32 32" style="enable-background:new 0 0 32 32;" xml:space="preserve">
<path id="oslo" d="M16,29.797c-0.61,0-1.22-0.178-1.753-0.532L13,28.433l-1.247,0.832c-1.064,0.709-2.441,0.709-3.506,0L7,28.433
	l-1.247,0.832c-1.064,0.709-2.441,0.709-3.506,0L0.8,28.3L1.2,27.7l1.447,0.965c0.822,0.549,1.885,0.549,2.707,0L7,27.567
	l1.647,1.098c0.822,0.549,1.885,0.549,2.707,0L13,27.567l1.646,1.098c0.822,0.549,1.885,0.549,2.706,0L19,27.567l1.646,1.098
	c0.822,0.549,1.885,0.549,2.707,0L25,27.567l1.646,1.098c0.822,0.549,1.885,0.549,2.707,0l1.447-0.965l0.398,0.6l-1.447,0.965
	c-1.065,0.709-2.44,0.709-3.504,0L25,28.433l-1.248,0.832c-1.065,0.709-2.44,0.709-3.504,0L19,28.433l-1.248,0.832
	C17.221,29.619,16.61,29.797,16,29.797z M16,25.797c-0.61,0-1.22-0.178-1.753-0.532L13,24.433l-1.247,0.832
	c-1.064,0.709-2.441,0.709-3.506,0L7,24.433l-1.247,0.832c-1.064,0.709-2.441,0.709-3.506,0L0.8,24.3L1.2,23.7l1.447,0.965
	c0.822,0.549,1.885,0.549,2.707,0L7,23.567l1.647,1.098c0.822,0.549,1.885,0.549,2.707,0L13,23.567l1.646,1.098
	c0.822,0.549,1.885,0.549,2.706,0L19,23.567l1.646,1.098c0.822,0.549,1.885,0.549,2.707,0L25,23.567l1.646,1.098
	c0.822,0.549,1.885,0.549,2.707,0l1.447-0.965l0.398,0.6l-1.447,0.965c-1.065,0.709-2.44,0.709-3.504,0L25,24.433l-1.248,0.832
	c-1.065,0.709-2.44,0.709-3.504,0L19,24.433l-1.248,0.832C17.221,25.619,16.61,25.797,16,25.797z M30.36,21.36H1.64V18.64h0.935
	l-0.836-5.014L0.64,13.259V11.64H7l0.64,0.142v-2.11l4.006-0.364V7.64h4.714v1.238l2.608-0.237l6.393-0.002v7.202l3.03,2.797h1.97
	L30.36,21.36L30.36,21.36z M2.36,20.64h27.28V19.36H2.36V20.64z M19.059,18.64h6.444l-23.55-6.28H1.36v0.381L19.059,18.64
	L19.059,18.64z M3.305,18.64h13.477l-14.27-4.756C2.512,13.883,3.305,18.64,3.305,18.64z M4.729,12.356l22.206,5.922l-2.108-1.947
	L6.922,12.352L4.729,12.356z M19.36,14.381l5.279,1.17V11.36H19.36C19.36,11.36,19.36,14.381,19.36,14.381z M9.599,12.216
	l9.041,2.005v-2.827L9.599,12.216L9.599,12.216z M8.36,10.329v1.277l10.28-0.935V9.392L8.36,10.329L8.36,10.329z M19.36,10.64h5.279
	V9.36H19.36V10.64z M12.366,8.36v0.882l3.274-0.298V8.36L12.366,8.36L12.366,8.36z"/>
<rect id="Transparent_Rectangle" style="fill:none;" width="32" height="32"/>
</svg>
