<?xml version="1.0" encoding="iso-8859-1"?>
<!-- Generator: Adobe Illustrator 29.1.0, SVG Export Plug-In . SVG Version: 9.03 Build 55587)  -->
<svg version="1.1" id="Layer_1" xmlns="http://www.w3.org/2000/svg" xmlns:xlink="http://www.w3.org/1999/xlink" x="0px" y="0px"
	 viewBox="0 0 32 32" style="enable-background:new 0 0 32 32;" xml:space="preserve">
<path id="osprey_00000047041209994494809090000006603094367751961520_" d="M30.746,29.255l-5.834-5.814
	c-0.448,0.211-0.909,0.403-1.385,0.578l4.728,4.727l-0.51,0.51L22.77,24.28c-0.503,0.161-1.021,0.304-1.554,0.429l4.038,4.037
	l-0.51,0.51l-4.367-4.368c-0.556,0.107-1.127,0.196-1.716,0.267l3.593,3.592l-0.51,0.51l-4.006-4.007
	c-0.875,0.073-1.786,0.11-2.738,0.11c-5.161,0-9.36-4.199-9.36-9.36v-0.447c0-0.806,0.108-1.657,0.332-2.6
	C6.083,12.481,6.14,11.992,6.14,11.5c0-1.731-1.409-3.14-3.14-3.14c-0.836,0-1.737,0.886-1.746,0.895
	C1.152,9.358,0.999,9.389,0.862,9.332C0.728,9.276,0.64,9.146,0.64,9V8c0-1.025,0.834-1.86,1.86-1.86h0.14V6
	c0-1.853,1.507-3.36,3.36-3.36h5v0.72H6C4.544,3.36,3.36,4.544,3.36,6v0.5c0,0.199-0.161,0.36-0.36,0.36H2.5
	C1.872,6.86,1.36,7.372,1.36,8v0.245C1.785,7.952,2.383,7.64,3,7.64c2.128,0,3.86,1.731,3.86,3.86c0,0.548-0.063,1.093-0.187,1.619
	c-0.21,0.888-0.313,1.684-0.313,2.434V16c0,4.764,3.876,8.64,8.64,8.64c2.643,0,4.968-0.292,7.032-0.889
	c-7.007,0.281-11.014-4.232-11.272-4.532c-0.721-0.726-1.12-1.692-1.12-2.719c0-1.031,0.402-2,1.131-2.729
	c1.505-1.505,3.955-1.505,5.459,0l15.024,14.975L30.746,29.255z M13.752,20.784c2.171,1.4,5.737,2.864,10.5,1.999l-1.409-1.404
	C18.57,21.831,15.65,21.385,13.752,20.784z M13.5,13.361c-0.804,0-1.608,0.306-2.221,0.918c-0.593,0.593-0.919,1.382-0.919,2.221
	c0,0.839,0.327,1.627,0.919,2.22c0.03,0.029,2.836,2.715,10.903,2l-6.461-6.44C15.108,13.667,14.304,13.361,13.5,13.361z M11,6.36H8
	V5.64h3V6.36z M11,4.86H8V4.14h3V4.86z"/>
<rect id="_Transparent_Rectangle" style="fill:none;" width="32" height="32"/>
</svg>
