<?xml version="1.0" encoding="iso-8859-1"?>
<!-- Generator: Adobe Illustrator 24.3.0, SVG Export Plug-In . SVG Version: 6.00 Build 0)  -->
<svg version="1.1" id="Layer_1" xmlns="http://www.w3.org/2000/svg" xmlns:xlink="http://www.w3.org/1999/xlink" x="0px" y="0px"
	 viewBox="0 0 32 32" style="enable-background:new 0 0 32 32;" xml:space="preserve">
<path id="overview_1_" d="M28,30.36c-1.731,0-3.161-1.316-3.341-3h-5.318c-0.18,1.684-1.609,3-3.341,3c-1.731,0-3.161-1.316-3.341-3
	H7.341c-0.18,1.684-1.61,3-3.341,3c-1.853,0-3.36-1.508-3.36-3.36S2.147,23.64,4,23.64c1.731,0,3.161,1.316,3.341,3h5.318
	c0.18-1.684,1.61-3,3.341-3s3.161,1.316,3.341,3h5.318c0.18-1.684,1.609-3,3.341-3c1.853,0,3.36,1.508,3.36,3.36
	S29.853,30.36,28,30.36z M28,24.36c-1.456,0-2.64,1.184-2.64,2.64s1.184,2.64,2.64,2.64s2.64-1.184,2.64-2.64S29.456,24.36,28,24.36
	z M16,24.36c-1.456,0-2.64,1.184-2.64,2.64s1.185,2.64,2.64,2.64c1.456,0,2.64-1.184,2.64-2.64S17.456,24.36,16,24.36z M4,24.36
	c-1.456,0-2.64,1.184-2.64,2.64S2.544,29.64,4,29.64S6.64,28.456,6.64,27S5.456,24.36,4,24.36z M16,19.36
	c-8.96,0-12.302-8.145-12.334-8.228c-0.034-0.085-0.034-0.18,0-0.266C3.698,10.785,7.04,2.64,16,2.64
	c8.961,0,12.302,8.145,12.335,8.227c0.033,0.085,0.033,0.18,0,0.266C28.302,11.215,24.961,19.36,16,19.36z M4.393,11
	C4.857,12.029,8.156,18.64,16,18.64c7.845,0,11.143-6.611,11.607-7.64C27.143,9.971,23.845,3.36,16,3.36
	C8.156,3.36,4.857,9.971,4.393,11z M16,17.36c-3.507,0-6.36-2.854-6.36-6.36S12.493,4.64,16,4.64s6.36,2.853,6.36,6.36
	S19.507,17.36,16,17.36z M16,5.36c-3.11,0-5.64,2.53-5.64,5.64s2.53,5.64,5.64,5.64s5.64-2.53,5.64-5.64S19.11,5.36,16,5.36z
	 M16,14.36c-1.853,0-3.36-1.507-3.36-3.36S14.147,7.64,16,7.64s3.36,1.507,3.36,3.36S17.853,14.36,16,14.36z M16,8.36
	c-1.456,0-2.64,1.185-2.64,2.64s1.185,2.64,2.64,2.64c1.456,0,2.64-1.185,2.64-2.64S17.456,8.36,16,8.36z"/>
<rect id="_Transparent_Rectangle" style="fill:none;" width="32" height="32"/>
</svg>
