<?xml version="1.0" encoding="iso-8859-1"?>
<!-- Generator: Adobe Illustrator 29.1.0, SVG Export Plug-In . SVG Version: 9.03 Build 55587)  -->
<svg version="1.1" id="Layer_1" xmlns="http://www.w3.org/2000/svg" xmlns:xlink="http://www.w3.org/1999/xlink" x="0px" y="0px"
	 viewBox="0 0 32 32" style="enable-background:new 0 0 32 32;" xml:space="preserve">
<path id="paddleboarding_00000067938109728652545380000002041055502641974948_" d="M31,31.36h-6v-0.72h6V31.36z M23,31.36H9v-0.72
	h14V31.36z M7,31.36H1v-0.72h6V31.36z M31,29.36H21v-0.72h5.338l-0.45-3.34c-0.076-0.624,0.244-1.22,0.772-1.512l-3.062-11.431
	c-0.032,0.002-0.064,0.002-0.098,0.002h-4.75c-0.639,0-1.074-0.175-1.505-0.605l-0.838-0.838l-0.995,2.986l2.964,2.964
	c0.625,0.625,0.984,1.495,0.984,2.383v6.25c0,0.429-0.146,0.825-0.392,1.14H25v0.721H7.55c-0.048,0.003-0.097,0.003-0.147,0H1v-0.72
	h5.017c-0.137-0.18-0.242-0.386-0.306-0.61c-0.166-0.583-0.034-1.209,0.354-1.675l3.616-4.532l1.556-4.345
	c-0.763-1.077-0.988-2.495-0.581-3.832l1.498-5.244c0.152-0.5,0.509-0.973,0.958-1.294c-0.325-0.473-0.5-1.03-0.5-1.606
	c0-0.892,0.405-1.717,1.111-2.264s1.622-0.729,2.508-0.498c0.947,0.246,1.717,1.005,1.987,1.949l3.67-0.983
	c0.987-0.264,2.012,0.325,2.277,1.315C24.294,3.499,24.228,4,23.979,4.43c-0.249,0.431-0.649,0.738-1.13,0.867l-0.371,0.1
	l0.868,3.244H23.5c1.025,0,1.86,0.834,1.86,1.86c0,0.741-0.436,1.382-1.064,1.681l3.061,11.42c0.009,0,0.018,0,0.027,0
	c0.594,0,1.155,0.353,1.396,0.918l1.71,4.12H31V29.36z M27.064,28.64h2.646l-1.594-3.841c-0.104-0.24-0.318-0.407-0.563-0.46
	l0.42,1.568l-0.695,0.186l-0.42-1.567c-0.187,0.168-0.289,0.422-0.257,0.684L27.064,28.64z M17.5,26.64
	c0.629,0,1.14-0.511,1.14-1.14v-6.25c0-0.699-0.281-1.383-0.773-1.874l-3.121-3.122c-0.097-0.096-0.13-0.239-0.087-0.368
	l1.179-3.539l-1.092-1.093l0.509-0.509l2.5,2.5c0.295,0.295,0.546,0.395,0.995,0.395h4.75c0.629,0,1.14-0.512,1.14-1.14
	s-0.511-1.14-1.14-1.14H20c-0.096,0-0.188-0.038-0.255-0.105l-3.322-3.323c-0.08-0.08-0.118-0.192-0.102-0.304
	s0.083-0.21,0.182-0.265c0.86-0.478,1.279-1.446,1.042-2.409c-0.182-0.734-0.768-1.33-1.494-1.519
	c-0.671-0.174-1.358-0.039-1.887,0.371c-0.529,0.409-0.832,1.026-0.832,1.694c0,0.54,0.207,1.058,0.583,1.459
	c0.079,0.084,0.113,0.201,0.091,0.314c-0.022,0.114-0.097,0.209-0.202,0.258c-0.44,0.205-0.826,0.636-0.959,1.073l-1.498,5.244
	c-0.395,1.296-0.09,2.67,0.792,3.593l4.122,4.309c0.064,0.067,0.1,0.156,0.1,0.249v5.5C16.36,26.129,16.872,26.64,17.5,26.64z
	 M8.929,26.64h7.102c-0.245-0.314-0.391-0.711-0.391-1.14v-5.355l-1.465-1.531l-0.595,1.785c-0.172,0.517-0.437,0.991-0.787,1.412
	L8.929,26.64z M7.427,26.64h0.097c0.306-0.013,0.598-0.153,0.804-0.4l3.907-4.884c0.297-0.356,0.518-0.754,0.662-1.186l0.715-2.146
	l-1.835-1.919l-1.438,4.016c-0.013,0.037-0.033,0.072-0.058,0.104L6.623,24.81c-0.244,0.293-0.322,0.663-0.22,1.022
	c0.102,0.359,0.364,0.633,0.718,0.751C7.222,26.617,7.325,26.636,7.427,26.64z M20.149,8.64h2.452l-0.818-3.057l-3.7,0.991
	L20.149,8.64z M17.242,5.733l0.253,0.253l5.169-1.385c0.294-0.079,0.539-0.268,0.691-0.531s0.194-0.57,0.115-0.864
	c-0.163-0.607-0.79-0.967-1.396-0.807L18.33,3.403C18.357,4.312,17.96,5.169,17.242,5.733z M19,29.36h-6v-0.72h6V29.36z M11,29.36H1
	v-0.72h10V29.36z"/>
<rect id="_Transparent_Rectangle" style="fill:none;" width="32" height="32"/>
</svg>
