<?xml version="1.0" encoding="iso-8859-1"?>
<!-- Generator: Adobe Illustrator 24.1.2, SVG Export Plug-In . SVG Version: 6.00 Build 0)  -->
<svg version="1.1" id="Layer_1" xmlns="http://www.w3.org/2000/svg" xmlns:xlink="http://www.w3.org/1999/xlink" x="0px" y="0px"
	 viewBox="0 0 32 32" style="enable-background:new 0 0 32 32;" xml:space="preserve">
<g id="paper--clip">
	<path id="paper--clip_1_" d="M4.8,26.137c-0.019,0-0.037,0-0.055,0c-1.459-0.021-2.818-0.818-3.547-2.081
		c-0.357-0.619-0.55-1.322-0.558-2.033c-0.016-1.501,0.782-2.899,2.081-3.649L23.109,6.602c0.887-0.512,1.894-0.769,2.909-0.735
		c1.922,0.057,3.644,1.084,4.604,2.748c0.511,0.884,0.765,1.889,0.735,2.906c-0.057,1.924-1.084,3.646-2.749,4.607l-16.646,9.611
		l-0.36-0.623l16.647-9.611c1.446-0.835,2.34-2.333,2.39-4.005c0.024-0.883-0.196-1.756-0.64-2.524
		c-0.835-1.446-2.331-2.339-4.002-2.389c-0.905-0.031-1.758,0.194-2.528,0.639L3.081,18.996c-1.075,0.62-1.734,1.777-1.721,3.019
		c0.006,0.587,0.166,1.169,0.462,1.682c0.603,1.044,1.727,1.703,2.934,1.72c0.619,0.053,1.229-0.15,1.766-0.461l15.676-9.051
		c0.643-0.371,1.045-1.063,1.05-1.806c0.004-0.372-0.094-0.739-0.281-1.063c-0.37-0.641-1.032-1.033-1.772-1.05
		c-0.392-0.011-0.762,0.087-1.097,0.281L8.163,19.156l-0.36-0.623l11.935-6.891c0.448-0.259,0.96-0.388,1.473-0.377
		c0.993,0.023,1.883,0.55,2.379,1.41c0.252,0.435,0.383,0.929,0.379,1.429c-0.007,0.997-0.548,1.925-1.411,2.423L6.881,25.578
		C6.248,25.944,5.53,26.137,4.8,26.137z"/>
</g>
<rect id="_Transparent_Rectangle" style="fill:none;" width="32" height="32"/>
</svg>
