<?xml version="1.0" encoding="iso-8859-1"?>
<!-- Generator: Adobe Illustrator 24.1.2, SVG Export Plug-In . SVG Version: 6.00 Build 0)  -->
<svg version="1.1" id="Layer_1" xmlns="http://www.w3.org/2000/svg" xmlns:xlink="http://www.w3.org/1999/xlink" x="0px" y="0px"
	 viewBox="0 0 32 32" style="enable-background:new 0 0 32 32;" xml:space="preserve">
<path id="paris--louvre_1_" d="M31.255,28.745l-0.895-0.894V25h-0.72v2.13l-1.279-1.279V25H27.64v0.13l-1.77-1.77H31v-0.72h-0.64V21
	h-0.72v1.64h-1.28V21h-0.72v1.64h-1.28V21h-0.72v1.64h-0.491l-0.789-0.789V21h-0.72v0.13l-1.77-1.77H31v-0.72h-9.851l-2.28-2.28H31
	v-0.72H18.149l-1.28-1.28H31v-0.72h-6.64V12h-0.72v1.64h-2.28V8h-0.72v3.363l-0.279-0.168V10c0-2.281-1.767-4.137-4-4.324V3h-0.72
	v2.677c-2.234,0.186-4,2.042-4,4.323v1.196l-0.28,0.168V8h-0.72v5.64H8.36V12H7.64v1.64H1v0.72h14.131l-1.28,1.28H1v0.72h12.131
	l-2.28,2.28H1v0.721h9.131l-1.771,1.77V21H7.64v0.851L6.851,22.64H6.36V21H5.64v1.64H4.36V21H3.64v1.64H2.36V21H1.64v1.64H1v0.721
	h4.867l0.142,0.122L4.36,25.131V25H3.64v0.851l-1.28,1.28V25H1.64v2.851l-0.895,0.895c-0.103,0.104-0.134,0.258-0.078,0.393
	S0.854,29.36,1,29.36h30c0.146,0,0.277-0.088,0.333-0.223S31.357,28.849,31.255,28.745z M12.36,10c0-2.007,1.633-3.64,3.64-3.64
	s3.64,1.633,3.64,3.641v0.763l-3.455-2.073c-0.113-0.068-0.257-0.068-0.37,0l-3.455,2.073V10z M11.36,12.204L16,9.419l4.64,2.784
	v1.437h-2.28V12h-0.72v1.64h-1.28V12h-0.72v1.64h-1.28V12h-0.72v1.64h-2.28C11.36,13.64,11.36,12.204,11.36,12.204z M19,23.51
	L21.491,26L19,28.491L16.509,26L19,23.51z M16,25.491L13.509,23L16,20.51L18.49,23L16,25.491z M19.509,23L22,20.509l2.49,2.49
	L22,25.491L19.509,23z M19,22.491L16.509,20L19,17.509l2.49,2.49L19,22.491z M16,19.491L13.509,17L16,14.509L18.491,17L16,19.491z
	 M15.491,20L13,22.491L10.509,20L13,17.509L15.491,20z M12.491,23l-2.74,2.74l-2.683-2.3L10,20.509L12.491,23z M13,23.509L15.49,26
	l-2.51,2.51l-2.682-2.299L13,23.509z M12.026,28.64H7.87l1.918-1.918L12.026,28.64z M16,26.51l2.13,2.13h-4.26L16,26.51z M22,26.51
	l2.13,2.13h-4.26L22,26.51z M22.509,26L25,23.509l2.49,2.49L25,28.491L22.509,26z M9.24,26.251L7,28.491L4.509,26l2.048-2.048
	L9.24,26.251z M4,26.509l2.13,2.131H1.869L4,26.509z M25.87,28.64L28,26.51l2.13,2.13H25.87z M2.36,17v1H1.64v-1H2.36z M4.36,17v1
	H3.64v-1H4.36z M6.36,17v1H5.64v-1H6.36z M8.36,17v1H7.64v-1H8.36z M10.36,17v1H9.64v-1H10.36z M21.64,18v-1h0.721v1H21.64z
	 M23.64,18v-1h0.721v1H23.64z M25.64,18v-1h0.721v1H25.64z M27.64,18v-1h0.721v1H27.64z M29.64,18v-1h0.721v1H29.64z"/>
<rect id="_Transparent_Rectangle" style="fill:none;" width="32" height="32"/>
</svg>
