<?xml version="1.0" encoding="iso-8859-1"?>
<!-- Generator: Adobe Illustrator 29.1.0, SVG Export Plug-In . SVG Version: 9.03 Build 55587)  -->
<svg version="1.1" id="Layer_1" xmlns="http://www.w3.org/2000/svg" xmlns:xlink="http://www.w3.org/1999/xlink" x="0px" y="0px"
	 viewBox="0 0 32 32" style="enable-background:new 0 0 32 32;" xml:space="preserve">
<path id="parking_00000072964276701619903110000000239432481330400168_" d="M16,31.36C7.53,31.36,0.64,24.47,0.64,16
	S7.53,0.64,16,0.64S31.36,7.53,31.36,16S24.47,31.36,16,31.36z M16,1.36C7.927,1.36,1.36,7.927,1.36,16
	c0,8.072,6.567,14.64,14.64,14.64c8.072,0,14.64-6.567,14.64-14.64S24.072,1.36,16,1.36z M11.36,26h-0.72V8
	c0-0.199,0.161-0.36,0.36-0.36h6.5c3.231,0,5.86,2.628,5.86,5.86s-2.629,5.86-5.86,5.86h-6.14C11.36,19.36,11.36,26,11.36,26z
	 M11.36,18.64h6.14c2.834,0,5.14-2.306,5.14-5.14s-2.306-5.14-5.14-5.14h-6.14C11.36,8.36,11.36,18.64,11.36,18.64z"/>
<rect id="_Transparent_Rectangle" style="fill:none;" width="32" height="32"/>
</svg>
