<svg xmlns="http://www.w3.org/2000/svg" viewBox="0 0 48 48"><path fill="none" stroke-linejoin="round" stroke-miterlimit="10" stroke-width=".72" d="M19,34 v-2 M22,38v-4 M16,34v-2 M29,34v-2 M26,38v-4 M32,34v-2 M19,38v-2 M16,38v-2 M29,38v-2 M32,38v-2 M36,38v-2 M36,34v-2 M36,30v-2 M12,38v-2 M12,34v-2 M12,30v-2 M24,14v-4 M24,28v-2 M21,28v-2 M19,24h10 M27,28v-2 M11,39h25.5 M14,26h-4v13h4V26z M38,26h-4v13 h4V26z M34,30H14v9h20V30z"/><polygon fill="none" stroke-linejoin="round" stroke-miterlimit="10" stroke-width=".72" points="12,21 10,26 14,26"/><polygon fill="none" stroke-linejoin="round" stroke-miterlimit="10" stroke-width=".72" points="36,21 34,26 38,26"/><rect width="3" height="2" x="24" y="10" fill="none" stroke-linejoin="round" stroke-miterlimit="10" stroke-width=".72"/><polyline fill="none" stroke-linejoin="round" stroke-miterlimit="10" stroke-width=".72" points="19,28 19,24 24,14 29,24 29,28"/><path fill="none" stroke-linejoin="round" stroke-miterlimit="10" stroke-width=".72" d="M26,34 c0-1.105-0.895-2-2-2s-2,0.895-2,2"/></svg>