<?xml version="1.0" encoding="iso-8859-1"?>
<!-- Generator: Adobe Illustrator 24.1.2, SVG Export Plug-In . SVG Version: 6.00 Build 0)  -->
<svg version="1.1" id="Layer_1" xmlns="http://www.w3.org/2000/svg" xmlns:xlink="http://www.w3.org/1999/xlink" x="0px" y="0px"
	 viewBox="0 0 32 32" style="enable-background:new 0 0 32 32;" xml:space="preserve">
<path id="parliament_1_" d="M4.36,30H3.64v-2h0.72V30z M4.36,20H3.64v2h0.72V20z M24.36,24h-0.72v2h0.721L24.36,24L24.36,24z
	 M4.36,24H3.64v2h0.72V24z M16.36,20v-2h-0.72v2H16.36z M13.36,20v-2h-0.72v2H13.36z M19.36,20v-2h-0.72v2H19.36z M28.36,28h-0.72v2
	h0.721L28.36,28L28.36,28z M28.36,20h-0.72v2h0.721L28.36,20L28.36,20z M8.36,24H7.64v2h0.72V24z M24.36,28h-0.72v2h0.721L24.36,28
	L24.36,28z M30.36,18v13c0,0.199-0.161,0.36-0.36,0.36H2c-0.199,0-0.36-0.161-0.36-0.36V18c0-0.039,0.011-0.075,0.022-0.11
	c0.003-0.008,0-0.016,0.003-0.024l2-5c0.109-0.273,0.56-0.273,0.669,0l2,5c0.003,0.008,0.001,0.016,0.003,0.024
	C6.349,17.925,6.36,17.961,6.36,18v3.64h19.28V18c0-0.044,0.011-0.085,0.025-0.124c0.001-0.003,0-0.007,0.001-0.01l0.001-0.003
	c0.001-0.002,0.002-0.004,0.002-0.006l1.996-4.991c0.109-0.273,0.559-0.273,0.668,0l1.996,4.991
	c0.001,0.002,0.002,0.004,0.003,0.006l0.001,0.003c0.001,0.003,0,0.006,0.001,0.009C30.35,17.914,30.36,17.956,30.36,18z
	 M2.532,17.64h2.937L4,13.969L2.532,17.64z M5.64,18.36H2.36v12.28h3.28V18.36z M25.64,22.36H6.36v8.279h19.28
	C25.64,30.639,25.64,22.36,25.64,22.36z M26.531,17.64h2.938L28,13.969L26.531,17.64z M29.64,18.36h-3.28v12.28h3.279L29.64,18.36
	L29.64,18.36z M28.36,24h-0.72v2h0.721L28.36,24L28.36,24z M8.36,28H7.64v2h0.72V28z M21.36,28h-0.72v2h0.721L21.36,28L21.36,28z
	 M21.36,24h-0.72v2h0.721L21.36,24L21.36,24z M11.36,24h-0.72v2h0.72V24z M11.36,28h-0.72v2h0.72V28z M14.36,26
	c0-0.904,0.736-1.64,1.64-1.64c0.904,0,1.64,0.735,1.64,1.64v4h0.721v-4c0-1.302-1.059-2.36-2.36-2.36s-2.36,1.059-2.36,2.36v4h0.72
	v-4H14.36z M11.36,20h-0.72v-4c0-0.056,0.013-0.111,0.038-0.161l4.962-9.924V4V2c0-0.199,0.161-0.36,0.36-0.36h3
	c0.199,0,0.36,0.161,0.36,0.36v2c0,0.199-0.161,0.36-0.36,0.36h-2.64v1.555l4.962,9.924c0.024,0.05,0.038,0.105,0.038,0.161v4h-0.72
	v-3.64h-9.28V20z M20.417,15.64L16,6.805l-4.418,8.835C11.582,15.64,20.417,15.64,20.417,15.64z M18.64,2.36h-2.28v1.28h2.28V2.36z"
	/>
<rect id="_Transparent_Rectangle" style="fill:none;" width="32" height="32"/>
</svg>
