<?xml version="1.0" encoding="iso-8859-1"?>
<!-- Generator: Adobe Illustrator 22.0.0, SVG Export Plug-In . SVG Version: 6.00 Build 0)  -->
<svg version="1.1" xmlns="http://www.w3.org/2000/svg" xmlns:xlink="http://www.w3.org/1999/xlink" x="0px" y="0px"
	 viewBox="0 0 48 48" style="enable-background:new 0 0 48 48;" xml:space="preserve">
<g id="partner_relationship">
	<g id="partner_relationship_1_">
		<path id="user-hr-groups-08_1_" style="fill:none;stroke:#000000;stroke-width:0.72;stroke-miterlimit:10;" d="M27.001,22l2,2
			l-2,2 M21,22l-2,2l2,2 M19.001,24h10"/>
		<path style="fill:none;stroke:#000000;stroke-width:0.72;stroke-linejoin:round;stroke-miterlimit:10;" d="M35.001,10
			c-1.381,0-2.5,1.119-2.5,2.5s1.119,2.5,2.5,2.5s2.5-1.119,2.5-2.5S36.381,10,35.001,10z M33.001,38v-9
			c-1.295-0.467-2-1.469-2-2.79L31,21c0-2.209,1.791-4,4-4s4,1.791,4,4l0.001,5.199c0,1.321-0.705,2.333-2,2.801v9 M13.001,10
			c-1.381,0-2.5,1.119-2.5,2.5s1.119,2.5,2.5,2.5s2.5-1.119,2.5-2.5S14.381,10,13.001,10z M11.001,38v-9
			c-1.295-0.467-2-1.469-2-2.79L9,21c0-2.209,1.791-4,4-4s4,1.791,4,4l0.001,5.199c0,1.321-0.705,2.333-2,2.801v9"/>
	</g>
</g>
<g id="Layer_1">
</g>
</svg>
