<svg xmlns="http://www.w3.org/2000/svg" viewBox="0 0 48 48"><path fill="none" stroke-miterlimit="10" stroke-width=".72" d="M27.001,22l2,2 l-2,2 M21,22l-2,2l2,2 M19.001,24h10"/><path fill="none" stroke-linejoin="round" stroke-miterlimit="10" stroke-width=".72" d="M35.001,10 c-1.381,0-2.5,1.119-2.5,2.5s1.119,2.5,2.5,2.5s2.5-1.119,2.5-2.5S36.381,10,35.001,10z M33.001,38v-9 c-1.295-0.467-2-1.469-2-2.79L31,21c0-2.209,1.791-4,4-4s4,1.791,4,4l0.001,5.199c0,1.321-0.705,2.333-2,2.801v9 M13.001,10 c-1.381,0-2.5,1.119-2.5,2.5s1.119,2.5,2.5,2.5s2.5-1.119,2.5-2.5S14.381,10,13.001,10z M11.001,38v-9 c-1.295-0.467-2-1.469-2-2.79L9,21c0-2.209,1.791-4,4-4s4,1.791,4,4l0.001,5.199c0,1.321-0.705,2.333-2,2.801v9"/></svg>