<?xml version="1.0" encoding="iso-8859-1"?>
<!-- Generator: Adobe Illustrator 24.1.2, SVG Export Plug-In . SVG Version: 6.00 Build 0)  -->
<svg version="1.1" id="Layer_1" xmlns="http://www.w3.org/2000/svg" xmlns:xlink="http://www.w3.org/1999/xlink" x="0px" y="0px"
	 viewBox="0 0 32 32" style="enable-background:new 0 0 32 32;" xml:space="preserve">
<path id="path_1_" d="M27,30.36c-1.731,0-3.161-1.316-3.341-3h-4.318c-0.18,1.684-1.609,3-3.341,3c-1.853,0-3.36-1.508-3.36-3.36
	c0-1.731,1.316-3.161,3-3.341v-4.318c-1.684-0.18-3-1.609-3-3.341c0-1.731,1.316-3.161,3-3.341V8.341
	c-1.566-0.167-2.813-1.415-2.981-2.981H8.341c-0.18,1.684-1.61,3-3.341,3C3.147,8.36,1.64,6.853,1.64,5S3.147,1.64,5,1.64
	c1.731,0,3.161,1.316,3.341,3h4.318c0.18-1.684,1.61-3,3.341-3c1.853,0,3.36,1.507,3.36,3.36c0,1.731-1.316,3.161-3,3.341v4.318
	c1.684,0.18,3,1.61,3,3.341c0,1.731-1.316,3.161-3,3.341v4.318c1.566,0.167,2.814,1.415,2.981,2.98h4.318
	c0.18-1.684,1.609-3,3.341-3c1.853,0,3.36,1.508,3.36,3.36S28.853,30.36,27,30.36z M27,24.36c-1.456,0-2.64,1.184-2.64,2.64
	s1.184,2.64,2.64,2.64s2.64-1.184,2.64-2.64S28.456,24.36,27,24.36z M16,24.36c-1.456,0-2.64,1.184-2.64,2.64s1.185,2.64,2.64,2.64
	c1.456,0,2.64-1.184,2.64-2.64S17.456,24.36,16,24.36z M16,13.36c-1.456,0-2.64,1.185-2.64,2.64c0,1.456,1.185,2.64,2.64,2.64
	c1.456,0,2.64-1.184,2.64-2.64S17.456,13.36,16,13.36z M16,2.36c-1.456,0-2.64,1.185-2.64,2.64S14.544,7.64,16,7.64
	S18.64,6.455,18.64,5S17.456,2.36,16,2.36z M5,2.36C3.544,2.36,2.36,3.544,2.36,5S3.544,7.64,5,7.64S7.64,6.456,7.64,5
	S6.456,2.36,5,2.36z M5,30.36c-1.853,0-3.36-1.508-3.36-3.36S3.147,23.64,5,23.64S8.36,25.147,8.36,27S6.853,30.36,5,30.36z
	 M5,24.36c-1.456,0-2.64,1.184-2.64,2.64S3.544,29.64,5,29.64S7.64,28.456,7.64,27S6.456,24.36,5,24.36z M27,19.36
	c-1.853,0-3.36-1.508-3.36-3.36s1.508-3.36,3.36-3.36s3.36,1.507,3.36,3.36S28.853,19.36,27,19.36z M27,13.36
	c-1.456,0-2.64,1.185-2.64,2.64c0,1.456,1.184,2.64,2.64,2.64s2.64-1.184,2.64-2.64S28.456,13.36,27,13.36z M5,19.36
	c-1.853,0-3.36-1.508-3.36-3.36S3.147,12.64,5,12.64S8.36,14.147,8.36,16S6.853,19.36,5,19.36z M5,13.36
	c-1.456,0-2.64,1.185-2.64,2.64c0,1.456,1.185,2.64,2.64,2.64S7.64,17.456,7.64,16S6.456,13.36,5,13.36z M27,8.36
	c-1.853,0-3.36-1.507-3.36-3.36S25.147,1.64,27,1.64S30.36,3.147,30.36,5S28.853,8.36,27,8.36z M27,2.36
	c-1.456,0-2.64,1.185-2.64,2.64S25.544,7.64,27,7.64S29.64,6.456,29.64,5S28.456,2.36,27,2.36z"/>
<rect id="_Transparent_Rectangle" style="fill:none;" width="32" height="32"/>
</svg>
