<?xml version="1.0" encoding="iso-8859-1"?>
<!-- Generator: Adobe Illustrator 22.0.0, SVG Export Plug-In . SVG Version: 6.00 Build 0)  -->
<svg version="1.1" xmlns="http://www.w3.org/2000/svg" xmlns:xlink="http://www.w3.org/1999/xlink" x="0px" y="0px"
	 viewBox="0 0 48 48" style="enable-background:new 0 0 48 48;" xml:space="preserve">
<g id="path">
	
		<path id="path_1_" style="fill:none;stroke:#000000;stroke-width:0.72;stroke-linecap:round;stroke-linejoin:round;stroke-miterlimit:10;" d="
		M27,24c0,1.657-1.343,3-3,3s-3-1.343-3-3s1.343-3,3-3S27,22.343,27,24z M13,21c-1.657,0-3,1.343-3,3s1.343,3,3,3s3-1.343,3-3
		S14.657,21,13,21z M35,21c-1.657,0-3,1.343-3,3s1.343,3,3,3s3-1.343,3-3S36.657,21,35,21z M24,10c-1.657,0-3,1.343-3,3s1.343,3,3,3
		s3-1.343,3-3S25.657,10,24,10z M13,10c-1.657,0-3,1.343-3,3s1.343,3,3,3s3-1.343,3-3S14.657,10,13,10z M35,10c-1.657,0-3,1.343-3,3
		s1.343,3,3,3s3-1.343,3-3S36.657,10,35,10z M24,32c-1.657,0-3,1.343-3,3s1.343,3,3,3s3-1.343,3-3S25.657,32,24,32z M13,32
		c-1.657,0-3,1.343-3,3s1.343,3,3,3s3-1.343,3-3S14.657,32,13,32z M35,32c-1.657,0-3,1.343-3,3s1.343,3,3,3s3-1.343,3-3
		S36.657,32,35,32z M16,13h5 M24,16v5 M24,27v5 M27,35h5"/>
</g>
<g id="Layer_1">
</g>
</svg>
