<?xml version="1.0" encoding="iso-8859-1"?>
<!-- Generator: Adobe Illustrator 24.1.2, SVG Export Plug-In . SVG Version: 6.00 Build 0)  -->
<svg version="1.1" id="Layer_1" xmlns="http://www.w3.org/2000/svg" xmlns:xlink="http://www.w3.org/1999/xlink" x="0px" y="0px"
	 viewBox="0 0 32 32" style="enable-background:new 0 0 32 32;" xml:space="preserve">
<path id="pattern_1_" d="M29,31.36H13c-1.301,0-2.36-1.059-2.36-2.36v-7.64H3c-1.301,0-2.36-1.059-2.36-2.36V3
	c0-1.301,1.059-2.36,2.36-2.36h16c1.302,0,2.36,1.059,2.36,2.36v7.64H29c1.302,0,2.36,1.059,2.36,2.36v16
	C31.36,30.302,30.302,31.36,29,31.36z M11.36,21.36V29c0,0.904,0.736,1.64,1.64,1.64h16c0.904,0,1.64-0.735,1.64-1.64V13
	c0-0.904-0.735-1.64-1.64-1.64h-7.64V19c0,1.302-1.059,2.36-2.36,2.36H11.36z M19,18.36c-0.353,0-0.64,0.287-0.64,0.64v1
	c0,0.353,0.287,0.64,0.64,0.64c0.904,0,1.64-0.735,1.64-1.64c0-0.353-0.287-0.64-0.64-0.64H19z M11,20.64h6.8
	c-0.102-0.19-0.16-0.408-0.16-0.64v-1c0-0.75,0.61-1.36,1.36-1.36h1c0.231,0,0.449,0.059,0.64,0.16v-7.6
	c-0.19,0.103-0.408,0.16-0.64,0.16h-1c-0.75,0-1.36-0.61-1.36-1.36V8c0-0.75,0.61-1.36,1.36-1.36h1c0.231,0,0.449,0.058,0.64,0.16V3
	c0-0.904-0.735-1.64-1.64-1.64h-3.8c0.103,0.191,0.16,0.409,0.16,0.64v1c0,0.75-0.61,1.36-1.36,1.36h-1c-0.75,0-1.36-0.61-1.36-1.36
	V2c0-0.231,0.058-0.449,0.16-0.64H4.2C4.302,1.551,4.36,1.769,4.36,2v1c0,0.75-0.61,1.36-1.36,1.36H2
	c-0.231,0-0.449-0.058-0.64-0.16v7.6c0.191-0.103,0.409-0.16,0.64-0.16h1c0.75,0,1.36,0.61,1.36,1.36v1c0,0.75-0.61,1.36-1.36,1.36
	H2c-0.231,0-0.449-0.058-0.64-0.16V19c0,0.904,0.736,1.64,1.64,1.64h3.8C6.697,20.45,6.64,20.232,6.64,20v-1
	c0-0.75,0.61-1.36,1.36-1.36h1c0.75,0,1.36,0.61,1.36,1.36v1c0,0.231-0.058,0.449-0.16,0.64H11z M8,18.36
	c-0.353,0-0.64,0.287-0.64,0.64v1c0,0.353,0.287,0.64,0.64,0.64h1c0.353,0,0.64-0.287,0.64-0.64v-1c0-0.353-0.287-0.64-0.64-0.64H8z
	 M1.36,14c0,0.353,0.287,0.64,0.64,0.64h1c0.353,0,0.64-0.287,0.64-0.64v-1c0-0.353-0.287-0.64-0.64-0.64H2
	c-0.353,0-0.64,0.287-0.64,0.64V14z M19,7.36c-0.353,0-0.64,0.287-0.64,0.64v1c0,0.353,0.287,0.64,0.64,0.64h1
	c0.353,0,0.64-0.287,0.64-0.64V8c0-0.353-0.287-0.64-0.64-0.64H19z M13,1.36c-0.353,0-0.64,0.287-0.64,0.64v1
	c0,0.353,0.287,0.64,0.64,0.64h1c0.353,0,0.64-0.287,0.64-0.64V2c0-0.353-0.287-0.64-0.64-0.64H13z M1.36,3
	c0,0.353,0.287,0.64,0.64,0.64h1c0.353,0,0.64-0.287,0.64-0.64V2c0-0.353-0.287-0.64-0.64-0.64C2.096,1.36,1.36,2.096,1.36,3z
	 M14,15.36h-1c-0.75,0-1.36-0.61-1.36-1.36v-1c0-0.75,0.61-1.36,1.36-1.36h1c0.75,0,1.36,0.61,1.36,1.36v1
	C15.36,14.75,14.75,15.36,14,15.36z M13,12.36c-0.353,0-0.64,0.287-0.64,0.64v1c0,0.353,0.287,0.64,0.64,0.64h1
	c0.353,0,0.64-0.287,0.64-0.64v-1c0-0.353-0.287-0.64-0.64-0.64H13z M9,10.36H8c-0.75,0-1.36-0.61-1.36-1.36V8
	c0-0.75,0.61-1.36,1.36-1.36h1c0.75,0,1.36,0.61,1.36,1.36v1C10.36,9.75,9.75,10.36,9,10.36z M8,7.36C7.647,7.36,7.36,7.647,7.36,8
	v1c0,0.353,0.287,0.64,0.64,0.64h1c0.353,0,0.64-0.287,0.64-0.64V8c0-0.353-0.287-0.64-0.64-0.64H8z"/>
<rect id="_Transparent_Rectangle" style="fill:none;" width="32" height="32"/>
</svg>
