<?xml version="1.0" encoding="iso-8859-1"?>
<!-- Generator: Adobe Illustrator 22.0.0, SVG Export Plug-In . SVG Version: 6.00 Build 0)  -->
<svg version="1.1" xmlns="http://www.w3.org/2000/svg" xmlns:xlink="http://www.w3.org/1999/xlink" x="0px" y="0px"
	 viewBox="0 0 48 48" style="enable-background:new 0 0 48 48;" xml:space="preserve">
<g id="perfume">
	
		<path id="perfume_1_" style="fill:none;stroke:#000000;stroke-width:0.72;stroke-linecap:round;stroke-linejoin:round;stroke-miterlimit:10;" d="
		M32,39H16c-0.55,0-1-0.45-1-1V20c0-0.55,0.45-1,1-1h16c0.55,0,1,0.45,1,1v18C33,38.55,32.55,39,32,39z M27,19v-4.5
		c0-0.275-0.225-0.5-0.5-0.5h-5c-0.275,0-0.5,0.225-0.5,0.5v4.275 M25.5,13.975V10.5c0-0.275-0.225-0.5-0.5-0.5h-2
		c-0.275,0-0.5,0.225-0.5,0.5V14 M28.5,10.5L31,9 M28.5,12H32 M31,15l-2.5-1.5 M30.083,25.062h-12.25V34h12.25V25.062z"/>
</g>
<g id="Layer_1">
</g>
</svg>
