<svg xmlns="http://www.w3.org/2000/svg" viewBox="0 0 48 48"><path fill="none" stroke-linejoin="round" stroke-miterlimit="10" stroke-width=".72" d="M24,24v-9 M30,39v-2.98c0-2.78-1.871-5.112-4.433-5.799c1.04-0.557,1.749-1.653,1.749-2.916c0-1.826-1.48-3.306-3.306-3.306 s-3.306,1.48-3.306,3.306c0,1.263,0.708,2.359,1.749,2.916C19.89,30.908,18,33.24,18,36.02V39 M12,15.002v5h23.501V15 M26.998,9h-6 v6h6V9z M12,9c-1.657,0-3,1.343-3,3s1.343,3,3,3s3-1.343,3-3S13.657,9,12,9z M35.536,9l-3.464,6L39,15L35.536,9z"/></svg>