<?xml version="1.0" encoding="iso-8859-1"?>
<!-- Generator: Adobe Illustrator 22.0.0, SVG Export Plug-In . SVG Version: 6.00 Build 0)  -->
<svg version="1.1" xmlns="http://www.w3.org/2000/svg" xmlns:xlink="http://www.w3.org/1999/xlink" x="0px" y="0px"
	 viewBox="0 0 48 48" style="enable-background:new 0 0 48 48;" xml:space="preserve">
<g id="person_08">
	<path id="person_08_1_" style="fill:none;stroke:#000000;stroke-width:0.72;stroke-linejoin:round;stroke-miterlimit:10;" d="
		M24,10c-1.381,0-2.5,1.119-2.5,2.5S22.619,15,24,15s2.5-1.119,2.5-2.5S25.381,10,24,10z M18,27v-9c0-0.552,0.448-1,1-1h2
		c0.552,0,1,0.448,1,1v9c0,0.552-0.448,1-1,1h-2C18.448,28,18,27.553,18,27z M26,27v-9c0-0.552,0.448-1,1-1h2c0.552,0,1,0.448,1,1v9
		c0,0.552-0.448,1-1,1h-2C26.448,28,26,27.553,26,27z M22,30v8 M26,38v-8"/>
</g>
<g id="Layer_1">
</g>
</svg>
