<?xml version="1.0" encoding="iso-8859-1"?>
<!-- Generator: Adobe Illustrator 24.1.2, SVG Export Plug-In . SVG Version: 6.00 Build 0)  -->
<svg version="1.1" id="Layer_1" xmlns="http://www.w3.org/2000/svg" xmlns:xlink="http://www.w3.org/1999/xlink" x="0px" y="0px"
	 viewBox="0 0 32 32" style="enable-background:new 0 0 32 32;" xml:space="preserve">
<path id="person--07_1_" d="M18.36,30h-0.72V20c0-0.199,0.161-0.36,0.36-0.36h3c0.353,0,0.64-0.287,0.64-0.64v-2
	c0-0.353-0.287-0.64-0.64-0.64H11c-0.353,0-0.64,0.287-0.64,0.64v2c0,0.353,0.287,0.64,0.64,0.64h3c0.199,0,0.36,0.161,0.36,0.36v10
	h-0.72v-9.64H11c-0.75,0-1.36-0.61-1.36-1.36v-2c0-0.75,0.61-1.36,1.36-1.36h10c0.75,0,1.36,0.61,1.36,1.36v2
	c0,0.75-0.61,1.36-1.36,1.36h-2.64V30z M21,13.36H11c-0.75,0-1.36-0.61-1.36-1.36v-2c0-0.75,0.61-1.36,1.36-1.36h10
	c0.75,0,1.36,0.61,1.36,1.36v2C22.36,12.75,21.75,13.36,21,13.36z M11,9.36c-0.353,0-0.64,0.287-0.64,0.64v2
	c0,0.353,0.287,0.64,0.64,0.64h10c0.353,0,0.64-0.287,0.64-0.64v-2c0-0.353-0.287-0.64-0.64-0.64H11z M16,7.36
	c-1.577,0-2.86-1.283-2.86-2.86S14.423,1.64,16,1.64s2.86,1.283,2.86,2.86S17.577,7.36,16,7.36z M16,2.36
	c-1.18,0-2.14,0.96-2.14,2.14S14.82,6.64,16,6.64s2.14-0.96,2.14-2.14S17.18,2.36,16,2.36z"/>
<rect id="_Transparent_Rectangle" style="fill:none;" width="32" height="32"/>
</svg>
