<?xml version="1.0" encoding="iso-8859-1"?>
<!-- Generator: Adobe Illustrator 24.1.2, SVG Export Plug-In . SVG Version: 6.00 Build 0)  -->
<svg version="1.1" id="Layer_1" xmlns="http://www.w3.org/2000/svg" xmlns:xlink="http://www.w3.org/1999/xlink" x="0px" y="0px"
	 viewBox="0 0 32 32" style="enable-background:new 0 0 32 32;" xml:space="preserve">
<path id="person--03_1_" d="M18.36,30h-0.72v-9c0-0.151,0.096-0.287,0.238-0.339c1.136-0.41,1.762-1.285,1.762-2.462V13
	c0-2.007-1.633-3.64-3.64-3.64s-3.64,1.633-3.64,3.64v5.21c0,1.17,0.626,2.041,1.762,2.451c0.143,0.052,0.237,0.188,0.237,0.339v9
	h-0.72v-8.756c-1.275-0.551-2-1.644-2-3.034V13c0-2.404,1.956-4.36,4.36-4.36s4.36,1.956,4.36,4.36v5.199
	c0,1.396-0.726,2.494-2,3.045V30H18.36z M16,7.36c-1.577,0-2.86-1.283-2.86-2.86S14.423,1.64,16,1.64s2.86,1.283,2.86,2.86
	S17.577,7.36,16,7.36z M16,2.36c-1.18,0-2.14,0.96-2.14,2.14S14.82,6.64,16,6.64s2.14-0.96,2.14-2.14S17.18,2.36,16,2.36z"/>
<rect id="_Transparent_Rectangle" style="fill:none;" width="32" height="32"/>
</svg>
