<?xml version="1.0" encoding="iso-8859-1"?>
<!-- Generator: Adobe Illustrator 24.1.2, SVG Export Plug-In . SVG Version: 6.00 Build 0)  -->
<svg version="1.1" id="Layer_1" xmlns="http://www.w3.org/2000/svg" xmlns:xlink="http://www.w3.org/1999/xlink" x="0px" y="0px"
	 viewBox="0 0 32 32" style="enable-background:new 0 0 32 32;" xml:space="preserve">
<path id="pills_1_" d="M4,31.36c-1.853,0-3.36-1.508-3.36-3.36S2.147,24.64,4,24.64S7.36,26.147,7.36,28S5.853,31.36,4,31.36z
	 M4,25.36c-1.456,0-2.64,1.184-2.64,2.64S2.544,30.64,4,30.64S6.64,29.456,6.64,28S5.456,25.36,4,25.36z M28,30.239h-6
	c-1.302,0-2.36-1.059-2.36-2.36s1.059-2.36,2.36-2.36h6c1.302,0,2.36,1.059,2.36,2.36S29.302,30.239,28,30.239z M25.36,29.519H28
	c0.904,0,1.64-0.735,1.64-1.64s-0.735-1.64-1.64-1.64h-2.64V29.519z M22,26.239c-0.904,0-1.64,0.735-1.64,1.64s0.735,1.64,1.64,1.64
	h2.64V26.24L22,26.239L22,26.239z M12.757,28.36c-0.63,0-1.223-0.246-1.669-0.691c-0.92-0.92-0.92-2.418,0-3.338l4.243-4.243
	c0.92-0.918,2.416-0.918,3.337,0c0.92,0.921,0.92,2.418,0,3.339l-4.243,4.242C13.98,28.114,13.388,28.36,12.757,28.36z M17,20.118
	c-0.42,0-0.84,0.16-1.16,0.479l-4.243,4.243c-0.31,0.31-0.48,0.722-0.48,1.159s0.171,0.85,0.48,1.159
	c0.62,0.621,1.699,0.621,2.319,0l4.242-4.242c0.64-0.64,0.64-1.68,0-2.319C17.84,20.278,17.42,20.118,17,20.118z M11.343,24.586
	h0.009H11.343z M6,21.36c-1.432,0-2.778-0.558-3.79-1.57l0,0C1.197,18.777,0.64,17.432,0.64,16s0.558-2.778,1.57-3.79
	c2.09-2.09,5.49-2.09,7.58,0c1.013,1.012,1.57,2.358,1.57,3.79s-0.558,2.777-1.57,3.79C8.778,20.803,7.432,21.36,6,21.36z
	 M1.374,16.36c0.084,1.104,0.554,2.13,1.345,2.92l0,0C3.595,20.157,4.761,20.64,6,20.64s2.405-0.482,3.281-1.359
	c0.791-0.79,1.261-1.816,1.345-2.92L1.374,16.36L1.374,16.36z M1.374,15.64h9.253c-0.084-1.104-0.554-2.13-1.345-2.921
	C8.405,11.843,7.239,11.36,6,11.36s-2.405,0.483-3.281,1.359C1.928,13.51,1.458,14.536,1.374,15.64z M26,21.26
	c-1.432,0-2.777-0.558-3.79-1.57l-4.938-4.938c-0.004-0.003-0.008-0.007-0.012-0.011c-0.004-0.003-0.007-0.007-0.011-0.011
	l-4.938-4.94c-2.09-2.09-2.09-5.49,0-7.58c1.012-1.013,2.358-1.57,3.79-1.57s2.777,0.558,3.79,1.57l4.938,4.938
	c0.004,0.003,0.008,0.007,0.012,0.011c0.004,0.003,0.007,0.007,0.011,0.011l4.938,4.938c1.013,1.012,1.57,2.358,1.57,3.79
	s-0.558,2.777-1.57,3.79S27.432,21.26,26,21.26z M18.024,14.485l4.695,4.695c0.876,0.877,2.041,1.359,3.28,1.359
	s2.404-0.482,3.28-1.359c0.877-0.876,1.359-2.041,1.359-3.28s-0.482-2.405-1.359-3.281l-4.694-4.695L18.024,14.485z M16.101,1.36
	c-1.239,0-2.405,0.483-3.281,1.359C11.943,3.595,11.46,4.761,11.46,6s0.482,2.405,1.359,3.281l4.695,4.695l6.562-6.562l-4.695-4.695
	C18.505,1.842,17.34,1.36,16.101,1.36z M4,7.36C2.147,7.36,0.64,5.853,0.64,4S2.147,0.64,4,0.64S7.36,2.147,7.36,4
	S5.853,7.36,4,7.36z M4,1.36C2.544,1.36,1.36,2.544,1.36,4S2.544,6.64,4,6.64S6.64,5.456,6.64,4S5.456,1.36,4,1.36z M28.5,6.36
	c-1.577,0-2.86-1.283-2.86-2.86s1.283-2.86,2.86-2.86s2.86,1.283,2.86,2.86S30.077,6.36,28.5,6.36z M28.5,1.36
	c-1.18,0-2.14,0.96-2.14,2.14s0.96,2.14,2.14,2.14s2.14-0.96,2.14-2.14S29.68,1.36,28.5,1.36z"/>
<rect id="_Transparent_Rectangle" style="fill:none;" width="32" height="32"/>
</svg>
