<?xml version="1.0" encoding="iso-8859-1"?>
<!-- Generator: Adobe Illustrator 29.1.0, SVG Export Plug-In . SVG Version: 9.03 Build 55587)  -->
<svg version="1.1" id="Layer_1" xmlns="http://www.w3.org/2000/svg" xmlns:xlink="http://www.w3.org/1999/xlink" x="0px" y="0px"
	 viewBox="0 0 32 32" style="enable-background:new 0 0 32 32;" xml:space="preserve">
<path id="pipeline_00000179644881065312351170000009431781413926055862_" d="M14,31.36H8c-0.199,0-0.36-0.161-0.36-0.36v-3
	c0-0.199,0.161-0.36,0.36-0.36h0.64V20c0-1.302,1.059-2.36,2.36-2.36h5.64V17c0-0.199,0.161-0.36,0.36-0.36h3
	c0.199,0,0.36,0.161,0.36,0.36v0.64h4.279v-3.28h-9.28V15c0,0.199-0.161,0.36-0.36,0.36h-3c-0.199,0-0.36-0.161-0.36-0.36v-0.64H6
	c-1.301,0-2.36-1.059-2.36-2.36V4.36H3C2.801,4.36,2.64,4.199,2.64,4V1c0-0.199,0.161-0.36,0.36-0.36h6
	c0.096,0,0.187,0.038,0.254,0.105C9.322,0.813,9.36,0.905,9.36,1v3c0,0.199-0.161,0.36-0.36,0.36H8.36v5.28h3.28V9
	c0-0.199,0.161-0.36,0.36-0.36h3c0.199,0,0.36,0.161,0.36,0.36v0.64h11.69c1.296,0,2.311,1.037,2.311,2.36v8
	c0,1.302-1.059,2.36-2.36,2.36h-6.64V23c0,0.199-0.161,0.36-0.36,0.36h-3c-0.199,0-0.36-0.161-0.36-0.36v-0.64h-3.28v5.279H14
	c0.096,0,0.187,0.038,0.254,0.105c0.068,0.068,0.105,0.159,0.105,0.255v3C14.359,31.199,14.198,31.36,14,31.36z M8.36,30.64h5.28
	v-2.279H8.36V30.64z M9.36,27.64h3.28V22c0-0.199,0.161-0.36,0.36-0.36h3.64v-3.28H11c-0.904,0-1.64,0.735-1.64,1.64V27.64z
	 M17.36,22.64h2.279v-5.28H17.36V22.64z M20.36,21.64H27c0.904,0,1.64-0.735,1.64-1.64v-8c0-0.919-0.698-1.64-1.59-1.64H15.36v3.28
	H25c0.199,0,0.36,0.161,0.36,0.36v4c0,0.199-0.161,0.36-0.36,0.36h-4.64V21.64z M12.36,14.64h2.28V9.36h-2.28V14.64z M4.36,4.36V12
	c0,0.904,0.736,1.64,1.64,1.64h5.64v-3.28H8c-0.199,0-0.36-0.161-0.36-0.36V4.36H4.36z M3.36,3.64h5.28V1.36H3.36V3.64z"/>
<rect id="_Transparent_Rectangle" style="fill:none;" width="32" height="32"/>
</svg>
