<?xml version="1.0" encoding="iso-8859-1"?>
<!-- Generator: Adobe Illustrator 29.1.0, SVG Export Plug-In . SVG Version: 9.03 Build 55587)  -->
<svg version="1.1" id="Layer_1" xmlns="http://www.w3.org/2000/svg" xmlns:xlink="http://www.w3.org/1999/xlink" x="0px" y="0px"
	 viewBox="0 0 32 32" style="enable-background:new 0 0 32 32;" xml:space="preserve">
<path id="platform-as-a-service--02_00000177465197186181623530000010843191101169613698_" d="M17.38,30.36h-2.76
	c-0.199,0-0.36-0.161-0.36-0.36v-1.567l-0.869-0.363l-1.111,1.111c-0.067,0.067-0.159,0.105-0.254,0.105l0,0
	c-0.096,0-0.187-0.038-0.254-0.105L9.82,27.229c-0.141-0.141-0.141-0.369,0-0.51l1.108-1.107l-0.357-0.871H9
	c-0.199,0-0.36-0.161-0.36-0.36v-2.76c0-0.199,0.161-0.36,0.36-0.36h1.567l0.363-0.868l-1.11-1.11c-0.141-0.141-0.141-0.369,0-0.51
	l1.952-1.952c0.135-0.136,0.374-0.136,0.509,0l1.108,1.109l0.871-0.357V16c0-0.199,0.161-0.36,0.36-0.36h2.76
	c0.199,0,0.36,0.161,0.36,0.36v1.567l0.868,0.363l1.11-1.111c0.141-0.141,0.369-0.141,0.51,0l1.952,1.952
	c0.141,0.141,0.141,0.369,0,0.51l-1.108,1.107l0.356,0.871H23c0.199,0,0.36,0.161,0.36,0.36v2.76c0,0.199-0.161,0.36-0.36,0.36
	h-1.567l-0.363,0.868l1.111,1.11c0.141,0.141,0.141,0.369,0,0.51l-1.952,1.952c-0.067,0.067-0.159,0.105-0.255,0.105l0,0
	c-0.096,0-0.188-0.038-0.255-0.105l-1.107-1.109l-0.871,0.357V30C17.74,30.199,17.579,30.36,17.38,30.36z M14.98,29.64h2.04v-1.452
	c0-0.146,0.089-0.277,0.224-0.333l1.316-0.54c0.134-0.057,0.288-0.024,0.392,0.078l1.022,1.024l1.443-1.443l-1.027-1.026
	c-0.103-0.104-0.134-0.259-0.077-0.394l0.549-1.312c0.056-0.134,0.187-0.222,0.332-0.222h1.446v-2.04h-1.452
	c-0.146,0-0.277-0.089-0.333-0.224l-0.539-1.316c-0.055-0.135-0.024-0.289,0.078-0.392l1.023-1.022l-1.443-1.443l-1.026,1.027
	c-0.104,0.102-0.259,0.132-0.394,0.077l-1.312-0.549c-0.134-0.056-0.222-0.187-0.222-0.332V16.36h-2.04v1.453
	c0,0.146-0.088,0.277-0.223,0.333l-1.316,0.54c-0.136,0.057-0.289,0.023-0.391-0.078l-1.023-1.024l-1.442,1.443l1.026,1.026
	c0.104,0.104,0.134,0.259,0.078,0.394l-0.549,1.312c-0.056,0.134-0.187,0.222-0.332,0.222H9.36v2.039h1.453
	c0.146,0,0.278,0.089,0.333,0.224l0.54,1.316c0.055,0.135,0.024,0.289-0.079,0.392l-1.022,1.022l1.442,1.443l1.027-1.027
	c0.103-0.103,0.259-0.134,0.393-0.077l1.312,0.549c0.134,0.056,0.221,0.187,0.221,0.332C14.98,28.194,14.98,29.64,14.98,29.64z
	 M16,25.36c-1.301,0-2.36-1.059-2.36-2.36s1.059-2.36,2.36-2.36c1.302,0,2.36,1.059,2.36,2.36S17.302,25.36,16,25.36z M16,21.36
	c-0.904,0-1.64,0.735-1.64,1.64s0.736,1.64,1.64,1.64c0.904,0,1.64-0.735,1.64-1.64S16.904,21.36,16,21.36z M26.001,20.36H24v-0.72
	h2.001c2.818,0,4.639-1.488,4.639-3.793c0-2.432-1.949-4.487-4.257-4.487c-0.199,0-0.36-0.161-0.36-0.36
	c0-4.845-3.896-8.64-8.868-8.64c-3.084,0-6.161,1.931-7.84,4.918C9.239,7.411,9.091,7.48,8.939,7.457
	C8.566,7.393,8.189,7.36,7.821,7.36c-3.744,0-6.461,2.583-6.461,6.14c0,3.5,2.854,6.14,6.64,6.14v0.721
	c-4.196,0-7.36-2.949-7.36-6.86s3.087-6.86,7.181-6.86c0.327,0,0.659,0.023,0.991,0.068c1.83-3.087,5.078-5.068,8.342-5.068
	c5.258,0,9.401,3.932,9.582,9.014c2.541,0.197,4.624,2.495,4.624,5.193C31.36,18.589,29.257,20.36,26.001,20.36z"/>
<rect id="_Transparent_Rectangle" style="fill:none;" width="32" height="32"/>
</svg>
