<?xml version="1.0" encoding="iso-8859-1"?>
<!-- Generator: Adobe Illustrator 24.1.2, SVG Export Plug-In . SVG Version: 6.00 Build 0)  -->
<svg version="1.1" xmlns="http://www.w3.org/2000/svg" xmlns:xlink="http://www.w3.org/1999/xlink" x="0px" y="0px"
	 viewBox="0 0 32 32" style="enable-background:new 0 0 32 32;" xml:space="preserve">
<g id="player--flow">
	
		<path id="player--flow_1_" style="fill:none;stroke:#000000;stroke-width:0.72;stroke-linecap:round;stroke-linejoin:round;stroke-miterlimit:10;" d="
		M31,26c0,2.761-2.239,5-5,5c-2.761,0-5-2.239-5-5c0-2.762,2.239-5,5-5C28.761,21,31,23.238,31,26z M1,1v6l5-3L1,1z M13,15l5,3v-6
		L13,15z M24.75,24v4l3.5-2L24.75,24z M18,15h7.5c3.038,0,5.5-2.462,5.5-5.5C31,6.462,28.538,4,25.5,4H23 M6,4h12 M13,26h8 M13,15
		H6.5C3.462,15,1,17.462,1,20.5C1,23.538,3.462,26,6.5,26H8 M18,1v6l5-3L18,1z M8,23v6l5-3L8,23z"/>
</g>
<g id="Layer_1">
</g>
</svg>
