<?xml version="1.0" encoding="iso-8859-1"?>
<!-- Generator: Adobe Illustrator 24.1.2, SVG Export Plug-In . SVG Version: 6.00 Build 0)  -->
<svg version="1.1" id="Layer_1" xmlns="http://www.w3.org/2000/svg" xmlns:xlink="http://www.w3.org/1999/xlink" x="0px" y="0px"
	 viewBox="0 0 32 32" style="enable-background:new 0 0 32 32;" xml:space="preserve">
<path id="population--diagram_1_" d="M16.4,31h-0.7v-2.6H1c-0.2,0-0.4-0.2-0.4-0.4v-4c0-0.2,0.2-0.4,0.4-0.4h14.6v-2.3H4
	c-0.2,0-0.4-0.2-0.4-0.4v-4c0-0.2,0.2-0.4,0.4-0.4h11.6v-2.3H7c-0.2,0-0.4-0.2-0.4-0.4v-4c0-0.2,0.2-0.4,0.4-0.4h8.6v-2H10
	C9.8,7.4,9.6,7.2,9.6,7V3c0-0.2,0.2-0.4,0.4-0.4h5.6V1h0.7v1.6H22c0.2,0,0.4,0.2,0.4,0.4v4c0,0.2-0.2,0.4-0.4,0.4h-5.6v2.3H25
	c0.2,0,0.4,0.2,0.4,0.4v4c0,0.2-0.2,0.4-0.4,0.4h-8.6v2.3H28c0.2,0,0.4,0.2,0.4,0.4v4c0,0.2-0.2,0.4-0.4,0.4H16.4v2.3H31
	c0.2,0,0.4,0.2,0.4,0.4v4c0,0.2-0.2,0.4-0.4,0.4H16.4V31z M16.4,27.6h14.3v-3.3H16.4V27.6z M1.4,27.6h14.3v-3.3H1.4V27.6z
	 M16.4,20.6h11.3v-3.3H16.4V20.6z M4.4,20.6h11.3v-3.3H4.4V20.6z M16.4,13.6h8.3v-3.3h-8.3C16.4,10.3,16.4,13.6,16.4,13.6z
	 M7.4,13.6h8.3v-3.3H7.4V13.6z M16.4,6.6h5.3V3.4h-5.3C16.4,3.4,16.4,6.6,16.4,6.6z M10.4,6.6h5.3V3.4h-5.3V6.6z"/>
<rect id="_Transparent_Rectangle" style="fill:none;" width="32" height="32"/>
</svg>
