<?xml version="1.0" encoding="iso-8859-1"?>
<!-- Generator: Adobe Illustrator 25.4.1, SVG Export Plug-In . SVG Version: 6.00 Build 0)  -->
<svg version="1.1" id="Layer_1" xmlns="http://www.w3.org/2000/svg" xmlns:xlink="http://www.w3.org/1999/xlink" x="0px" y="0px"
	 viewBox="0 0 32 32" style="enable-background:new 0 0 32 32;" xml:space="preserve">
<path id="portland--building_00000086656297272660208850000015645049266472037792_" d="M30.36,29.64V4c0-0.199-0.161-0.36-0.36-0.36
	H2C1.801,3.64,1.64,3.801,1.64,4v25.64H1v0.721h30V29.64H30.36z M29.64,29.64h-5.28V12c0-0.199-0.161-0.36-0.36-0.36h-3.385
	l4.095-7.28h4.929L29.64,29.64L29.64,29.64z M21.64,16v13.64h-1.28V16h-0.72v13.64h-1.28V16h-0.72v13.64h-3.28V16h-0.72v13.64h-1.28
	V16h-0.72v13.64h-1.28V16H9.64v13.64H8.36V12.36h2.28V16h0.72v-3.64h1.28V16h0.72v-3.64h5.28V16h0.721v-3.64h1.279V16h0.721v-3.64
	h2.279v17.28h-1.28V16H21.64z M23.165,5.64H8.834l-0.72-1.28h15.771L23.165,5.64z M22.76,6.36l-0.72,1.28H9.96L9.24,6.36H22.76z
	 M21.635,8.36l-0.72,1.28h-9.829l-0.72-1.28H21.635z M20.51,10.36l-0.72,1.28h-7.579l-0.72-1.28H20.51z M2.36,4.36h4.927l4.097,7.28
	H8c-0.199,0-0.36,0.161-0.36,0.36v17.64H2.36V4.36z M3.64,6h0.72v1H3.64V6z M3.64,9h0.72v1H3.64V9z M3.64,12h0.72v1H3.64V12z
	 M3.64,15h0.72v1H3.64V15z M3.64,18h0.72v1H3.64V18z M3.64,21h0.72v1H3.64V21z M3.64,24h0.72v1H3.64V24z M3.64,27h0.72v1H3.64V27z
	 M6.36,6v1H5.64V6H6.36z M5.64,9h0.72v1H5.64V9z M8.36,10H7.64V9h0.72V10z M23.64,9h0.721v1H23.64V9z M5.64,12h0.72v1H5.64V12z
	 M5.64,15h0.72v1H5.64V15z M5.64,18h0.72v1H5.64V18z M5.64,21h0.72v1H5.64V21z M5.64,24h0.72v1H5.64V24z M5.64,27h0.72v1H5.64V27z
	 M26.36,7h-0.72V6h0.721L26.36,7L26.36,7z M26.36,10h-0.72V9h0.721L26.36,10L26.36,10z M26.36,13h-0.72v-1h0.721L26.36,13L26.36,13z
	 M26.36,16h-0.72v-1h0.721L26.36,16L26.36,16z M26.36,19h-0.72v-1h0.721L26.36,19L26.36,19z M26.36,22h-0.72v-1h0.721L26.36,22
	L26.36,22z M26.36,25h-0.72v-1h0.721L26.36,25L26.36,25z M25.64,28v-1h0.721v1H25.64z M28.36,7h-0.72V6h0.721L28.36,7L28.36,7z
	 M28.36,10h-0.72V9h0.721L28.36,10L28.36,10z M28.36,13h-0.72v-1h0.721L28.36,13L28.36,13z M28.36,16h-0.72v-1h0.721L28.36,16
	L28.36,16z M28.36,19h-0.72v-1h0.721L28.36,19L28.36,19z M28.36,22h-0.72v-1h0.721L28.36,22L28.36,22z M28.36,25h-0.72v-1h0.721
	L28.36,25L28.36,25z M28.36,28h-0.72v-1h0.721L28.36,28L28.36,28z"/>
<rect id="_Transparent_Rectangle" style="fill:none;" width="32" height="32"/>
</svg>
