<?xml version="1.0" encoding="iso-8859-1"?>
<!-- Generator: Adobe Illustrator 29.1.0, SVG Export Plug-In . SVG Version: 9.03 Build 55587)  -->
<svg version="1.1" id="Layer_1" xmlns="http://www.w3.org/2000/svg" xmlns:xlink="http://www.w3.org/1999/xlink" x="0px" y="0px"
	 viewBox="0 0 32 32" style="enable-background:new 0 0 32 32;" xml:space="preserve">
<path id="poughkeepsie--mid-hudson-bridge_00000026122536507966990650000003661987049660700836_" d="M25.752,22.886
	c2.574,2.446,5.14,2.475,5.248,2.475l0.001-0.721c-0.024,0-2.427-0.039-4.795-2.315C23.995,20.199,21.36,15.643,21.36,6V1
	c0-0.199-0.161-0.36-0.36-0.36h-2c-0.199,0-0.36,0.161-0.36,0.36v0.64h-5.28V1c0-0.199-0.161-0.36-0.36-0.36h-2
	c-0.199,0-0.36,0.161-0.36,0.36v5c0,18.374-9.545,18.64-9.641,18.64L1,25.36c0.108,0,2.673-0.028,5.248-2.475
	c1.921-1.825,3.304-4.439,4.144-7.812c-0.301,5.489-0.817,9.825-1.21,12.566H1v0.721h3.13l-2.279,2.28H1v0.721h30V30.64h-0.851
	l-2.279-2.28H31v-0.72h-8.182c-0.393-2.741-0.908-7.076-1.209-12.562C22.449,18.448,23.832,21.062,25.752,22.886z M18.64,30.64
	h-5.28V21c0-4.353,1.902-7.395,2.641-8.412c0.722,0.993,2.639,4.04,2.639,8.412V30.64z M16.001,11.401L13.72,8.36h4.56
	L16.001,11.401z M13.36,6.86h5.28v0.78h-5.28C13.36,7.64,13.36,6.86,13.36,6.86z M18.64,5.31l-0.967-1.45h0.967V5.31z M16.807,3.86
	l1.52,2.28h-1.134l-1.521-2.28H16.807z M14.807,3.86l1.52,2.28h-1.135l-1.52-2.28H14.807z M14.328,6.14H13.36V4.688L14.328,6.14z
	 M13.36,9.079l2.185,2.911c-0.423,0.545-1.47,2.044-2.185,4.311C13.36,16.301,13.36,9.079,13.36,9.079z M16.457,11.991L18.64,9.08
	v7.218C17.92,14.018,16.866,12.517,16.457,11.991z M18.64,2.36v0.78h-5.28V2.36H18.64z M11.36,1.36h1.28v29.28h-1.212
	c0.141-0.86,0.432-2.961,0.432-5.64h-0.72c0,2.714-0.316,4.883-0.442,5.64H9.433C9.805,28.573,11.36,19.151,11.36,6V1.36z
	 M8.702,30.64H8.149L5.87,28.36h3.207C8.909,29.473,8.773,30.251,8.702,30.64z M5.36,28.869l1.77,1.771H5.36V28.869z M4.64,28.869
	v1.771H2.87L4.64,28.869z M26.64,30.64h-1.77l1.77-1.77V30.64z M27.36,30.64v-1.77l1.77,1.77H27.36z M26.13,28.36l-2.279,2.279
	h-0.553c-0.071-0.389-0.207-1.166-0.374-2.279H26.13z M22.567,30.64h-1.265c-0.126-0.757-0.442-2.926-0.442-5.64h-0.72
	c0,2.678,0.292,4.78,0.432,5.64H19.36V1.36h1.279V6C20.64,19.151,22.195,28.573,22.567,30.64z"/>
<rect id="_Transparent_Rectangle" style="fill:none;" width="32" height="32"/>
</svg>
