<?xml version="1.0" encoding="iso-8859-1"?>
<!-- Generator: Adobe Illustrator 29.1.0, SVG Export Plug-In . SVG Version: 9.03 Build 55587)  -->
<svg version="1.1" id="Layer_1" xmlns="http://www.w3.org/2000/svg" xmlns:xlink="http://www.w3.org/1999/xlink" x="0px" y="0px"
	 viewBox="0 0 32 32" style="enable-background:new 0 0 32 32;" xml:space="preserve">
<path id="poughkeepsie--ibm-clocktower_00000041296543853336085300000004486411202866723000_" d="M7,21.36H1v-0.72h6V21.36z
	 M25,21.36h6v-0.72h-6V21.36z M7,25.64H1v0.721h6V25.64z M25,26.36h6v-0.72h-6V26.36z M7,15.64H1v0.72h6V15.64z M25,16.36h6v-0.72
	h-6V16.36z M31,6.64v0.72h-6.64v22.28H31v0.721H1V29.64h6.64V7.36H1V6.64h6.64V2c0-0.199,0.161-0.36,0.36-0.36h16
	c0.199,0,0.36,0.161,0.36,0.36v4.64H31z M23.64,21.36h-4.28v4.279h4.279L23.64,21.36L23.64,21.36z M16.36,29.64h2.28v-3.28h-2.28
	V29.64z M15.64,26.36h-2.28v3.279h2.28V26.36z M18.64,25.64V12.36h-5.28v13.28H18.64z M8.36,20.64h4.28v-4.28H8.36V20.64z
	 M8.36,25.64h4.28v-4.28H8.36V25.64z M23.64,16.36h-4.28v4.28h4.279L23.64,16.36L23.64,16.36z M8.36,2.36v13.28h4.28V12
	c0-0.199,0.161-0.36,0.36-0.36h6c0.199,0,0.36,0.161,0.36,0.36v3.64h4.279V2.36H8.36z M8.36,29.64h4.28v-3.28H8.36V29.64z
	 M23.64,29.64v-3.28h-4.28v3.279L23.64,29.64L23.64,29.64z M16.36,9.5h-0.72v1h0.72V9.5z M16,7.36h3.5V6.64h-3.14V3.5h-0.72V7
	C15.64,7.199,15.801,7.36,16,7.36z M13.5,6.64h-1v0.72h1V6.64z M16.938,9.345l0.5,0.866l0.623-0.36l-0.5-0.866L16.938,9.345z
	 M15.062,4.655l-0.5-0.866l-0.624,0.36l0.5,0.866L15.062,4.655z M18.345,6.062l0.866-0.5l-0.359-0.624l-0.866,0.5L18.345,6.062z
	 M13.655,7.938l-0.866,0.5l0.36,0.624l0.866-0.5L13.655,7.938z M17.985,8.562l0.866,0.5l0.359-0.624l-0.866-0.5L17.985,8.562z
	 M14.015,5.438l-0.866-0.5l-0.36,0.624l0.866,0.5L14.015,5.438z M18.062,4.149l-0.623-0.36l-0.5,0.866l0.624,0.36L18.062,4.149z
	 M13.938,9.851l0.624,0.36l0.5-0.866l-0.624-0.36L13.938,9.851z"/>
<rect id="_Transparent_Rectangle" style="fill:none;" width="32" height="32"/>
</svg>
