<?xml version="1.0" encoding="iso-8859-1"?>
<!-- Generator: Adobe Illustrator 29.1.0, SVG Export Plug-In . SVG Version: 9.03 Build 55587)  -->
<svg version="1.1" id="Layer_1" xmlns="http://www.w3.org/2000/svg" xmlns:xlink="http://www.w3.org/1999/xlink" x="0px" y="0px"
	 viewBox="0 0 32 32" style="enable-background:new 0 0 32 32;" xml:space="preserve">
<path id="poughkeepsie--bridge_00000023269607042554382330000010113027897806429351_" d="M22,25.36h-4
	c-0.199,0-0.36-0.161-0.36-0.36s0.161-0.36,0.36-0.36h4c0.199,0,0.36,0.161,0.36,0.36S22.199,25.36,22,25.36z M14,25.36h-4
	c-0.199,0-0.36-0.161-0.36-0.36s0.161-0.36,0.36-0.36h4c0.199,0,0.36,0.161,0.36,0.36S14.199,25.36,14,25.36z M26,23.36H6
	c-0.199,0-0.36-0.161-0.36-0.36S5.801,22.64,6,22.64h20c0.199,0,0.36,0.161,0.36,0.36S26.199,23.36,26,23.36z M30,21.36h-9
	c-0.199,0-0.36-0.161-0.36-0.36s0.161-0.36,0.36-0.36h9c0.199,0,0.36,0.161,0.36,0.36S30.199,21.36,30,21.36z M18,21.36h-4
	c-0.199,0-0.36-0.161-0.36-0.36s0.161-0.36,0.36-0.36h4c0.199,0,0.36,0.161,0.36,0.36S18.199,21.36,18,21.36z M11,21.36H2
	c-0.199,0-0.36-0.161-0.36-0.36S1.801,20.64,2,20.64h9c0.199,0,0.36,0.161,0.36,0.36S11.199,21.36,11,21.36z M25.36,21h-0.72v-1.64
	h-1.28V21h-0.72v-8.64h-2.639H20h-0.001h-3.998c-0.001,0-0.002,0-0.003,0h-3.997c-0.001,0-0.002,0-0.003,0H9.36V21H8.64v-1.64H7.36
	V21H6.64v-8.77l-2.697-0.87H1v-0.72h2.131L0.746,8.254L1,8V7.64h2.997c0.002,0,0.004,0,0.006,0h3.994c0.002,0,0.004,0,0.006,0h3.996
	c0.001,0,0.002,0,0.003,0h3.997c0.001,0,0.002,0,0.003,0H20h0h0.001h3.996c0.002,0,0.004,0,0.006,0h3.994c0.002,0,0.004,0,0.006,0
	H31V8l0.255,0.254l-2.386,2.386H31v0.72h-2.943l-2.696,0.87L25.36,21L25.36,21z M23.36,18.64h1.279v-6.28H24l0,0h-0.001H23.36V18.64
	z M7.36,18.64h1.28v-6.28H8.001c-0.001,0-0.002,0-0.003,0H7.36V18.64z M20.869,11.64h2.262L22,10.509L20.869,11.64z M16.869,11.64
	h2.262L18,10.509L16.869,11.64z M12.869,11.64h2.262L14,10.509L12.869,11.64z M8.869,11.64h2.262L10,10.509L8.869,11.64z
	 M27.64,8.869l-2.759,2.759l2.759-0.89V8.869z M4.36,10.738l2.759,0.89L4.36,8.869V10.738z M18.509,10L20,11.491L21.491,10L20,8.509
	L18.509,10z M14.509,10L16,11.491L17.491,10L16,8.509L14.509,10z M10.509,10L12,11.491L13.491,10L12,8.509L10.509,10z M24.36,8.36
	v2.771l2.771-2.771H24.36z M22.509,10l1.131,1.131V8.869L22.509,10z M8.36,8.869v2.262L9.491,10L8.36,8.869z M4.869,8.36
	l2.771,2.771V8.36H4.869z M28.36,8.36v1.771l1.771-1.771H28.36z M1.869,8.36l1.771,1.771V8.36H1.869z M20.869,8.36L22,9.491
	l1.131-1.131C23.131,8.36,20.869,8.36,20.869,8.36z M16.869,8.36L18,9.491l1.131-1.131C19.131,8.36,16.869,8.36,16.869,8.36z
	 M12.869,8.36L14,9.491l1.131-1.131C15.131,8.36,12.869,8.36,12.869,8.36z M8.869,8.36L10,9.491l1.131-1.131
	C11.131,8.36,8.869,8.36,8.869,8.36z"/>
<rect id="_Transparent_Rectangle" style="fill:none;" width="32" height="32"/>
</svg>
