<?xml version="1.0" encoding="iso-8859-1"?>
<!-- Generator: Adobe Illustrator 24.1.2, SVG Export Plug-In . SVG Version: 6.00 Build 0)  -->
<svg version="1.1" id="Layer_1" xmlns="http://www.w3.org/2000/svg" xmlns:xlink="http://www.w3.org/1999/xlink" x="0px" y="0px"
	 viewBox="0 0 32 32" style="enable-background:new 0 0 32 32;" xml:space="preserve">
<path id="power_1_" d="M22.642,31.038l-0.599-5.678H9.952l-0.594,5.677l-0.716-0.074l0.586-5.603H2
	c-0.145,0-0.276-0.087-0.332-0.221s-0.026-0.288,0.075-0.392l7.243-7.388H2c-0.141,0-0.27-0.083-0.328-0.212
	c-0.059-0.128-0.036-0.279,0.057-0.385l9.317-10.661L6.31,1.251C6.208,1.148,6.179,0.994,6.236,0.86
	c0.056-0.134,0.187-0.22,0.332-0.22h9.417l0,0l0,0h9.544c0.145,0,0.275,0.087,0.332,0.22c0.056,0.134,0.026,0.288-0.075,0.392
	l-4.807,4.903l9.292,10.607c0.094,0.106,0.115,0.257,0.058,0.386C30.27,17.277,30.142,17.36,30,17.36h-6.956l7.214,7.388
	c0.101,0.104,0.13,0.258,0.074,0.392c-0.057,0.133-0.187,0.22-0.332,0.22h-7.232l0.591,5.602L22.642,31.038z M22.691,24.64h6.454
	l-7.108-7.279h-0.113L22.691,24.64z M10.373,24.64h11.243l-5.632-7.062L10.373,24.64z M2.857,24.64h6.446l0.761-7.279h-0.07
	L2.857,24.64z M16.731,17.36l5.149,6.457L21.2,17.36H16.731z M10.788,17.36l-0.674,6.448l5.125-6.448H10.788z M22.341,16.64h6.865
	l-8.365-9.549l0.947,8.983L22.341,16.64z M15.984,16.64h5.14l-0.025-0.242l-5.071-5.193l-5.145,5.248l-0.02,0.187H15.984
	L15.984,16.64L15.984,16.64z M2.793,16.64h6.898l0.502-0.512l0.945-9.037L2.793,16.64z M11.876,6.953l-0.873,8.349l4.521-4.612
	L11.876,6.953z M16.532,10.691l4.444,4.552L20.112,7.04L16.532,10.691z M12.304,6.36l3.726,3.815l3.74-3.815H12.304z M12.407,5.64
	h7.163l-3.585-4.093L12.407,5.64z M16.778,1.36l3.725,4.252l4.168-4.252C24.671,1.36,16.778,1.36,16.778,1.36z M7.422,1.36
	l4.1,4.199l3.67-4.199C15.192,1.36,7.422,1.36,7.422,1.36z"/>
<rect id="_Transparent_Rectangle" style="fill:none;" width="32" height="32"/>
</svg>
