<?xml version="1.0" encoding="iso-8859-1"?>
<!-- Generator: Adobe Illustrator 24.3.0, SVG Export Plug-In . SVG Version: 6.00 Build 0)  -->
<svg version="1.1" id="Layer_1" xmlns="http://www.w3.org/2000/svg" xmlns:xlink="http://www.w3.org/1999/xlink" x="0px" y="0px"
	 viewBox="0 0 32 32" style="enable-background:new 0 0 32 32;" xml:space="preserve">
<path id="prague--dancing-house--01_1_" d="M31,31.36H1v-0.72h2.293l3.08-5.279H3c-0.199,0-0.36-0.161-0.36-0.36V8
	c0-0.104,0.044-0.202,0.122-0.271C2.84,7.661,2.943,7.631,3.046,7.643L6.64,8.107V4c0-0.199,0.161-0.36,0.36-0.36h2.852
	c-0.12-0.966-0.205-1.569-0.208-1.589C9.629,1.948,9.66,1.843,9.728,1.764C9.796,1.685,9.896,1.64,10,1.64h9
	c0.199,0,0.36,0.161,0.36,0.36v1.64H29c0.102,0,0.198,0.042,0.267,0.118s0.102,0.175,0.092,0.276l-2,21
	C27.341,25.219,27.186,25.36,27,25.36h-1.64v5.279H31V31.36z M22.36,30.64h2.279v-5.28H22.36V30.64z M16.425,30.64h5.215v-5.28
	h-4.335L16.425,30.64z M14.425,30.64h1.27l0.88-5.279h-1.27L14.425,30.64z M11.583,30.64h2.112l0.88-5.279h-0.353L11.583,30.64z
	 M9.425,30.64h1.27l0.88-5.279h-1.27L9.425,30.64z M6.127,30.64h2.568l0.88-5.279H9.207L6.127,30.64z M4.127,30.64h1.167l3.08-5.279
	H7.207L4.127,30.64z M12.305,25.36l-0.557,3.337l1.669-3.337H12.305z M19.36,24.64h7.312l1.455-15.28H27
	c-0.199,0-0.36-0.161-0.36-0.36V6c0-0.199,0.161-0.36,0.36-0.36h1.482l0.122-1.28H19.36v1.28H21c0.199,0,0.36,0.161,0.36,0.36v3
	c0,0.199-0.161,0.36-0.36,0.36h-1.64v2.28H21c0.199,0,0.36,0.161,0.36,0.36v3c0,0.199-0.161,0.36-0.36,0.36h-1.64v2.28H21
	c0.199,0,0.36,0.161,0.36,0.36v3c0,0.199-0.161,0.36-0.36,0.36h-1.64V24.64z M13.713,24.64h4.927v-2.28H15.1
	C14.569,23.363,14.058,24.146,13.713,24.64z M9.82,24.64h3.001c0.229-0.306,0.807-1.116,1.445-2.279h-2.72
	C10.89,23.358,10.255,24.141,9.82,24.64z M5.837,24.64h3.009c0.262-0.278,0.997-1.092,1.815-2.279H7.734
	C6.996,23.337,6.303,24.131,5.837,24.64z M3.36,24.64h1.488C5.633,23.823,10.64,18.438,10.64,14c0-1.458-0.087-3.094-0.209-4.678
	L3.36,8.41v3.23H5c0.199,0,0.36,0.161,0.36,0.36v3c0,0.199-0.161,0.36-0.36,0.36H3.36v2.28H5c0.199,0,0.36,0.161,0.36,0.36v3
	c0,0.199-0.161,0.36-0.36,0.36H3.36V24.64z M15.464,21.64h3.176v-3.28h-1.916C16.377,19.577,15.925,20.686,15.464,21.64z M12,21.64
	h2.646c0.473-0.94,0.949-2.054,1.317-3.279h-2.395C13.137,19.577,12.576,20.685,12,21.64z M8.262,21.64h2.874
	c0.593-0.94,1.191-2.053,1.654-3.279h-2.571C9.661,19.535,8.96,20.656,8.262,21.64z M19.36,20.64h1.279v-2.28H19.36V20.64z
	 M3.36,20.64h1.28v-2.28H3.36V20.64z M16.913,17.64h1.727v-3.28h-1.284C17.326,15.504,17.161,16.606,16.913,17.64z M13.804,17.64
	h2.359c0.263-1.035,0.441-2.138,0.472-3.28h-2.281C14.318,15.504,14.113,16.606,13.804,17.64z M10.539,17.64h2.502
	c0.331-1.035,0.554-2.138,0.593-3.28h-2.283C11.293,15.444,10.987,16.558,10.539,17.64z M19.36,14.64h1.279v-2.28H19.36V14.64z
	 M3.36,14.64h1.28v-2.28H3.36V14.64z M17.358,13.64h1.281v-3.28H17.25C17.312,11.426,17.352,12.532,17.358,13.64z M14.359,13.64
	h2.28c-0.007-1.108-0.048-2.215-0.109-3.28h-2.28C14.311,11.426,14.352,12.532,14.359,13.64z M11.358,13.64h2.28
	c-0.007-1.108-0.048-2.215-0.109-3.28h-2.303C11.299,11.479,11.349,12.598,11.358,13.64z M17.206,9.64h1.434V6.36h-1.714
	C17.029,7.354,17.129,8.466,17.206,9.64z M14.207,9.64h2.278c-0.078-1.176-0.179-2.288-0.283-3.28h-2.276
	C14.029,7.354,14.129,8.466,14.207,9.64z M11.177,9.64h2.308c-0.078-1.176-0.179-2.288-0.283-3.28h-2.317
	C10.99,7.379,11.093,8.5,11.177,9.64z M27.36,8.64h0.836l0.218-2.28H27.36V8.64z M19.36,8.64h1.279V6.36H19.36V8.64z M7.36,8.2
	l3.012,0.389c-0.134-1.582-0.296-3.071-0.433-4.229H7.36V8.2z M16.848,5.64h1.792V2.36h-2.219C16.51,2.949,16.679,4.122,16.848,5.64
	z M13.848,5.64h2.276c-0.177-1.569-0.351-2.753-0.432-3.28h-2.271C13.51,2.949,13.679,4.122,13.848,5.64z M10.809,5.64h2.315
	c-0.177-1.569-0.351-2.753-0.432-3.28h-2.28C10.493,2.956,10.647,4.152,10.809,5.64z M25,22.36h-2c-0.199,0-0.36-0.161-0.36-0.36v-3
	c0-0.199,0.161-0.36,0.36-0.36h2c0.199,0,0.36,0.161,0.36,0.36v3C25.36,22.199,25.199,22.36,25,22.36z M23.36,21.64h1.279v-2.28
	H23.36V21.64z M25,16.36h-2c-0.199,0-0.36-0.161-0.36-0.36v-3c0-0.199,0.161-0.36,0.36-0.36h2c0.199,0,0.36,0.161,0.36,0.36v3
	C25.36,16.199,25.199,16.36,25,16.36z M23.36,15.64h1.279v-2.28H23.36V15.64z M9,16.36H7c-0.199,0-0.36-0.161-0.36-0.36v-3
	c0-0.199,0.161-0.36,0.36-0.36h2c0.199,0,0.36,0.161,0.36,0.36v3C9.36,16.199,9.199,16.36,9,16.36z M7.36,15.64h1.28v-2.28H7.36
	V15.64z M25,10.36h-2c-0.199,0-0.36-0.161-0.36-0.36V7c0-0.199,0.161-0.36,0.36-0.36h2c0.199,0,0.36,0.161,0.36,0.36v3
	C25.36,10.199,25.199,10.36,25,10.36z M23.36,9.64h1.279V7.36H23.36V9.64z"/>
<rect id="_Transparent_Rectangle" style="fill:none;" width="32" height="32"/>
</svg>
