<?xml version="1.0" encoding="iso-8859-1"?>
<!-- Generator: Adobe Illustrator 24.3.0, SVG Export Plug-In . SVG Version: 6.00 Build 0)  -->
<svg version="1.1" id="Layer_1" xmlns="http://www.w3.org/2000/svg" xmlns:xlink="http://www.w3.org/1999/xlink" x="0px" y="0px"
	 viewBox="0 0 32 32" style="enable-background:new 0 0 32 32;" xml:space="preserve">
<path id="prague--dancing-house--02_1_" d="M31,28.36H1v-0.72h1.729l0.751-2.63l-2.429,0.347c-0.136,0.017-0.27-0.04-0.348-0.153
	c-0.078-0.112-0.084-0.26-0.017-0.379c0.039-0.07,3.904-7.039,2.961-11.753C2.664,8.154,1.668,5.144,1.659,5.114
	C1.622,5.004,1.64,4.883,1.708,4.79S1.884,4.64,2,4.64c0.141,0,14.157,0.035,22.126,3.023C24.267,7.716,24.36,7.85,24.36,8v2.938
	c2.959,0.6,5.622,0.702,5.652,0.703c0.193,0.007,0.348,0.166,0.348,0.36v14c0,0.199-0.161,0.36-0.36,0.36h-2.64v1.279H31V28.36z
	 M25.36,27.64h1.279v-1.28H25.36V27.64z M20.36,27.64h4.279v-1.28H20.36V27.64z M18.36,27.64h1.279v-1.28H18.36V27.64z M12.36,27.64
	h5.28v-1.28H15c-0.199,0-0.36-0.161-0.36-0.36v-1.64h-2.28C12.36,24.36,12.36,27.64,12.36,27.64z M10.36,27.64h1.28v-3.28h-1.28
	V27.64z M5.477,27.64H9.64v-3.28H8.025L6.346,24.6L5.477,27.64z M3.477,27.64h1.251l0.836-2.928L4.26,24.898L3.477,27.64z
	 M15.36,25.64h14.28V12.342c-0.978-0.058-3.867-0.278-6.727-0.993c-3.277-0.819-6.597-0.256-7.553-0.06
	C15.36,11.289,15.36,25.64,15.36,25.64z M3.745,19.36c-0.667,2.249-1.6,4.214-2.095,5.184l5.97-0.854l-0.271-4.33H3.745z
	 M8.338,23.64h6.302V8.36H7.383L8.338,23.64z M3.946,18.64h3.358l-0.268-4.28H4.511C4.555,15.757,4.313,17.237,3.946,18.64z
	 M4.461,13.64h2.53L6.724,9.36H3.568c0.25,1.037,0.518,2.234,0.785,3.569C4.399,13.162,4.436,13.399,4.461,13.64z M19.135,10.192
	c1.211,0,2.577,0.115,3.952,0.458c0.185,0.046,0.369,0.09,0.553,0.132V8.251C16.606,5.703,5.013,5.4,2.492,5.365
	c0.181,0.591,0.509,1.714,0.9,3.275H6.68L6.641,8.022C6.634,7.923,6.669,7.826,6.738,7.753C6.806,7.681,6.9,7.64,7,7.64h8
	c0.199,0,0.36,0.161,0.36,0.36v2.553C16.042,10.418,17.436,10.192,19.135,10.192z M27.36,24h-0.72v-2h0.721L27.36,24L27.36,24z
	 M21.36,24h-0.72v-2h0.721L21.36,24L21.36,24z M24.36,23h-0.72v-2h0.721L24.36,23L24.36,23z M18.36,23h-0.72v-2h0.721L18.36,23
	L18.36,23z M12.86,21h-0.72v-2h0.72V21z M27.36,20h-0.72v-2h0.721L27.36,20L27.36,20z M21.36,20h-0.72v-2h0.721L21.36,20L21.36,20z
	 M10.36,20H9.64v-2h0.72C10.36,18,10.36,20,10.36,20z M24.36,19h-0.72v-2h0.721L24.36,19L24.36,19z M18.36,19h-0.72v-2h0.721
	L18.36,19L18.36,19z M12.86,17h-0.72v-2h0.72V17z M27.36,16h-0.72v-2h0.721L27.36,16L27.36,16z M21.36,16h-0.72v-2h0.721L21.36,16
	L21.36,16z M10.36,16H9.64v-2h0.72C10.36,14,10.36,16,10.36,16z M24.36,15h-0.72v-2h0.721L24.36,15L24.36,15z M18.36,15h-0.72v-2
	h0.721L18.36,15L18.36,15z M12.86,13h-0.72v-2h0.72V13z M10.36,12H9.64v-2h0.72C10.36,10,10.36,12,10.36,12z"/>
<rect id="_Transparent_Rectangle" style="fill:none;" width="32" height="32"/>
</svg>
