<?xml version="1.0" encoding="iso-8859-1"?>
<!-- Generator: Adobe Illustrator 24.1.2, SVG Export Plug-In . SVG Version: 6.00 Build 0)  -->
<svg version="1.1" id="Layer_1" xmlns="http://www.w3.org/2000/svg" xmlns:xlink="http://www.w3.org/1999/xlink" x="0px" y="0px"
	 viewBox="0 0 32 32" style="enable-background:new 0 0 32 32;" xml:space="preserve">
<path id="prague_1_" d="M17,1c0,0.276-0.224,0.5-0.5,0.5S16,1.276,16,1s0.224-0.5,0.5-0.5S17,0.724,17,1 M13.5,6
	c0-0.276-0.224-0.5-0.5-0.5S12.5,5.724,12.5,6s0.224,0.5,0.5,0.5S13.5,6.276,13.5,6 M20,1c0-0.276-0.224-0.5-0.5-0.5S19,0.724,19,1
	s0.224,0.5,0.5,0.5S20,1.276,20,1 M11,4.5C11,4.224,10.776,4,10.5,4S10,4.224,10,4.5S10.224,5,10.5,5S11,4.776,11,4.5 M23.5,6
	c0-0.276-0.224-0.5-0.5-0.5S22.5,5.724,22.5,6s0.224,0.5,0.5,0.5S23.5,6.276,23.5,6 M3.86,20H3.14v1h0.72C3.86,21,3.86,20,3.86,20z
	 M28.86,20h-0.72v1h0.721L28.86,20L28.86,20z M15.36,15h-0.72v2h0.72V15z M17.36,15h-0.72v2h0.72V15z M19.36,15h-0.72v2h0.721
	L19.36,15L19.36,15z M21.36,15h-0.72v2h0.721L21.36,15L21.36,15z M11.36,20h-0.72v2h0.72V20z M18,20.64
	c-0.199,0-0.36,0.161-0.36,0.36v2h0.721v-2C18.36,20.801,18.199,20.64,18,20.64z M30.36,28.64v2.721h-0.72v-2h-2.28v2H4.64v-2H2.36
	v2H1.64V28.64h1.5v-4.28H3c-0.165,0-0.309-0.112-0.349-0.273l-0.5-2c-0.027-0.107-0.003-0.221,0.065-0.309
	C2.285,21.691,2.389,21.64,2.5,21.64h2c0.111,0,0.215,0.052,0.284,0.139c0.068,0.088,0.092,0.201,0.065,0.309l-0.5,2
	C4.309,24.248,4.165,24.36,4,24.36H3.86v4.279h1.5v2h3.281l0.02-17.28H8v-0.72h0.661l0.001-1.28H8v-0.72h0.751l1.39-3.706V5.5h0.72
	v1.435l1.39,3.706h0.391V7h0.72v3.64h1.349l1.431-6.679V2h0.72v1.64h2.28V2h0.721v1.964l1.43,6.676h1.349V7h0.721v3.64H24v0.72
	h-0.64v1.28H24v0.72h-0.64v4.28H24v0.721h-0.64v5.279H24v0.721h-0.64v6.279h3.279v-2h1.5v-4.28H28c-0.165,0-0.31-0.112-0.35-0.273
	l-0.5-2c-0.026-0.107-0.002-0.221,0.065-0.309c0.068-0.087,0.173-0.139,0.284-0.139h2c0.111,0,0.216,0.052,0.284,0.139
	c0.067,0.088,0.092,0.201,0.065,0.309l-0.5,2c-0.04,0.161-0.185,0.273-0.35,0.273h-0.14v4.279L30.36,28.64L30.36,28.64z
	 M3.281,23.64h0.438l0.32-1.279H2.961L3.281,23.64z M9.519,10.64h1.961L10.5,8.025L9.519,10.64z M12.64,13.36H9.36v17.28h3.28v-6.28
	H12v-0.72h0.64v-5.28H12v-0.72h0.64V13.36z M12.64,11.36H9.36v1.28h3.28C12.64,12.64,12.64,11.36,12.64,11.36z M19.36,10.64h1.195
	L19.36,5.066V10.64z M17.36,10.64h1.279V4.36H17.36V10.64z M15.445,10.64h1.195V5.064L15.445,10.64z M13.36,22.131l3.77-3.77h-3.77
	C13.36,18.361,13.36,22.131,13.36,22.131z M19.64,28.667c0-1.471-1.246-2.114-1.64-2.281c-0.394,0.167-1.64,0.811-1.64,2.281v1.973
	h3.28C19.64,30.64,19.64,28.667,19.64,28.667z M22.64,24.36h-9.28v6.279h2.28v-1.973c0-1.787,1.469-2.749,2.246-3.009L18,25.62
	l0.114,0.038c0.776,0.26,2.246,1.222,2.246,3.009v1.973h2.279L22.64,24.36L22.64,24.36z M22.64,23.149L18,18.509l-4.64,4.641v0.49
	h2.28V22c0-0.199,0.161-0.36,0.36-0.36s0.36,0.161,0.36,0.36v1.64h3.28V22c0-0.199,0.161-0.36,0.36-0.36s0.36,0.161,0.36,0.36v1.64
	h2.279L22.64,23.149L22.64,23.149z M22.64,18.36h-3.77l3.77,3.77V18.36z M22.64,13.36h-9.28v4.28h9.28V13.36z M22.64,11.36h-9.28
	v1.28h9.28V11.36z M28.719,23.64l0.32-1.279h-1.078l0.32,1.279H28.719z"/>
<rect id="_Transparent_Rectangle" style="fill:none;" width="32" height="32"/>
</svg>
