<?xml version="1.0" encoding="iso-8859-1"?>
<!-- Generator: Adobe Illustrator 24.1.2, SVG Export Plug-In . SVG Version: 6.00 Build 0)  -->
<svg version="1.1" xmlns="http://www.w3.org/2000/svg" xmlns:xlink="http://www.w3.org/1999/xlink" x="0px" y="0px"
	 viewBox="0 0 48 48" style="enable-background:new 0 0 48 48;" xml:space="preserve">
<g id="pregnant">
	<path id="pregnant_1_" style="fill:none;stroke:#000000;stroke-width:0.72;stroke-linejoin:round;stroke-miterlimit:10;" d="
		M25.5,12.5c0,1.381-1.119,2.5-2.5,2.5s-2.5-1.119-2.5-2.5S21.619,10,23,10S25.5,11.119,25.5,12.5z M24,38l1-9c2.209,0,4-1.791,4-4
		c0-1.566-0.9-2.922-2.211-3.579c0,0-1.789-3.137-1.789-3.137C24.553,17.521,24,17,23,17h-0.558c-0.861,0-1.625,0.551-1.897,1.368
		L19,23l6,2 M21,26v12"/>
</g>
<g id="Layer_1">
</g>
</svg>
