<?xml version="1.0" encoding="iso-8859-1"?>
<!-- Generator: Adobe Illustrator 24.3.0, SVG Export Plug-In . SVG Version: 6.00 Build 0)  -->
<svg version="1.1" id="Layer_1" xmlns="http://www.w3.org/2000/svg" xmlns:xlink="http://www.w3.org/1999/xlink" x="0px" y="0px"
	 viewBox="0 0 32 32" style="enable-background:new 0 0 32 32;" xml:space="preserve">
<path id="prescription_1_" d="M28,31.36H4c-0.199,0-0.36-0.161-0.36-0.36V1c0-0.199,0.161-0.36,0.36-0.36h18
	c0.096,0,0.188,0.038,0.255,0.105l6,6C28.322,6.813,28.36,6.904,28.36,7v24C28.36,31.199,28.199,31.36,28,31.36z M4.36,30.64h23.28
	V7.36H22c-0.199,0-0.36-0.161-0.36-0.36V1.36H4.36V30.64z M22.36,6.64h4.771L22.36,1.869V6.64z M20,27.36H8v-0.72h12V27.36z
	 M24,23.36H8v-0.72h16V23.36z M24,19.36H8v-0.72h16V19.36z M16.254,9.254l-0.509-0.509L13,11.491l-2.252-2.252
	C11.684,8.925,12.36,8.04,12.36,7c0-1.301-1.059-2.36-2.36-2.36H7.64V13h0.72V9.36h1.491l2.64,2.64l-2.746,2.746l0.509,0.509
	L13,12.509l2.746,2.746l0.509-0.509L13.509,12L16.254,9.254z M8.36,8.64V5.36H10c0.904,0,1.64,0.736,1.64,1.64S10.904,8.64,10,8.64
	H8.36z"/>
<rect id="_Transparent_Rectangle" style="fill:none;" width="32" height="32"/>
</svg>
