<?xml version="1.0" encoding="iso-8859-1"?>
<!-- Generator: Adobe Illustrator 22.0.0, SVG Export Plug-In . SVG Version: 6.00 Build 0)  -->
<svg version="1.1" xmlns="http://www.w3.org/2000/svg" xmlns:xlink="http://www.w3.org/1999/xlink" x="0px" y="0px"
	 viewBox="0 0 48 48" style="enable-background:new 0 0 48 48;" xml:space="preserve">
<g id="presentation">
	<path id="presentation_1_" style="fill:none;stroke:#000000;stroke-width:0.72;stroke-linejoin:round;stroke-miterlimit:10;" d="
		M22,15.981V9h17v14H24 M24,11h5 M24,13h4 M18.999,39v-1.573c0-2.174-1.415-4.016-3.362-4.7c1.144-0.595,1.933-1.778,1.933-3.156
		c0-1.973-1.599-3.572-3.572-3.572s-3.572,1.599-3.572,3.572c0,1.379,0.79,2.562,1.934,3.157C10.413,33.413,9,35.255,9,37.427V39
		 M29,39l-0.001-1.573c0-2.174-1.415-4.016-3.362-4.7c1.144-0.595,1.933-1.778,1.933-3.156c0-1.973-1.599-3.572-3.572-3.572
		s-3.572,1.599-3.572,3.572c0,1.379,0.79,2.562,1.934,3.157C20.414,33.413,19,35.255,19,37.427V39 M39,39v-1.573
		c0-2.174-1.415-4.016-3.362-4.7c1.144-0.595,1.933-1.778,1.933-3.156c0-1.973-1.599-3.572-3.572-3.572s-3.572,1.599-3.572,3.572
		c0,1.379,0.79,2.562,1.934,3.157c-1.947,0.685-3.36,2.526-3.36,4.699L29,39 M36.121,18.121c1.172-1.172,1.172-3.071,0-4.243
		c-1.172-1.172-3.071-1.172-4.243,0s-1.172,3.071,0,4.243C33.05,19.293,34.95,19.293,36.121,18.121z M34,16l-0.745,2.885 M34,16
		l2.152-2.134 M34,16l-2.567-1.508 M18,23v-5.272h7.04c0.55,0,1-0.45,1-1v0c0-0.55-0.45-1-1-1H22v0h-6.384
		c1.14-0.595,1.927-1.778,1.927-3.156C17.543,10.599,15.967,9,14,9s-3.578,1.599-3.578,3.572c0,1.379,0.787,2.562,1.928,3.157
		C10.409,16.413,9,18.255,9,20.427V23"/>
</g>
<g id="Layer_1">
</g>
</svg>
