<?xml version="1.0" encoding="iso-8859-1"?>
<!-- Generator: Adobe Illustrator 24.1.2, SVG Export Plug-In . SVG Version: 6.00 Build 0)  -->
<svg version="1.1" id="Layer_1" xmlns="http://www.w3.org/2000/svg" xmlns:xlink="http://www.w3.org/1999/xlink" x="0px" y="0px"
	 viewBox="0 0 32 32" style="enable-background:new 0 0 32 32;" xml:space="preserve">
<path id="price_1_" d="M14.209,31.36c-0.096,0-0.187-0.038-0.254-0.105L0.746,18.042c-0.141-0.141-0.141-0.369,0-0.51l16.79-16.786
	c0.141-0.141,0.369-0.141,0.51,0l6.352,6.35l3.348-3.35c0.141-0.141,0.369-0.14,0.51,0c0.141,0.141,0.141,0.369,0,0.509
	l-3.348,3.351l6.348,6.346c0.067,0.067,0.105,0.159,0.105,0.254c0,0.095-0.038,0.187-0.105,0.254L14.463,31.255
	C14.396,31.322,14.305,31.36,14.209,31.36z M1.509,17.787l12.7,12.704l16.282-16.286l-6.093-6.091l-0.99,0.991
	c0.661,0.908,0.582,2.191-0.236,3.009l0,0l0,0l0,0c-0.878,0.877-2.407,0.879-3.287,0c-0.905-0.906-0.905-2.38,0-3.286
	c0.794-0.793,2.13-0.885,3.016-0.233l0.988-0.99l-6.098-6.096L1.509,17.787z M21.528,8.868c-0.428,0-0.831,0.167-1.134,0.47
	c-0.303,0.302-0.47,0.705-0.47,1.134c0,0.428,0.167,0.831,0.47,1.134c0.606,0.606,1.663,0.604,2.268,0l0,0
	c0.303-0.303,0.47-0.706,0.47-1.134c0-0.305-0.084-0.596-0.241-0.848l-1.104,1.105c-0.141,0.141-0.369,0.14-0.51,0
	c-0.141-0.141-0.141-0.369,0-0.509l1.105-1.106C22.129,8.953,21.835,8.868,21.528,8.868z M18.25,14.265l-0.51-0.509l-0.929,0.929
	c-1.025-0.792-2.446-0.778-3.319,0.095c-0.467,0.466-0.707,1.101-0.677,1.787c0.024,0.556,0.233,1.086,0.581,1.534l-2.443,2.443
	c-0.519-0.734-0.5-1.706,0.096-2.302l-0.509-0.51c-0.467,0.467-0.707,1.102-0.677,1.787c0.025,0.556,0.234,1.086,0.581,1.534
	l-0.965,0.965l0.509,0.51l0.968-0.968c0.493,0.38,1.072,0.584,1.644,0.584c0.618,0,1.22-0.225,1.674-0.678
	c0.874-0.874,0.887-2.294,0.095-3.32l2.445-2.445c0.224,0.315,0.354,0.68,0.371,1.057c0.021,0.481-0.145,0.924-0.467,1.246
	l0.509,0.51c0.467-0.467,0.707-1.102,0.677-1.787c-0.024-0.556-0.234-1.086-0.581-1.534L18.25,14.265z M13.535,16.535
	c-0.021-0.481,0.145-0.924,0.466-1.246c0.322-0.322,0.769-0.494,1.246-0.466c0.377,0.016,0.741,0.147,1.056,0.37l-2.398,2.398
	C13.682,17.277,13.551,16.912,13.535,16.535z M13.764,20.957c-0.596,0.596-1.567,0.615-2.302,0.096l2.397-2.397
	C14.379,19.39,14.359,20.362,13.764,20.957z"/>
<rect id="_Transparent_Rectangle" style="fill:none;" width="32" height="32"/>
</svg>
