<?xml version="1.0" encoding="iso-8859-1"?>
<!-- Generator: Adobe Illustrator 22.0.0, SVG Export Plug-In . SVG Version: 6.00 Build 0)  -->
<svg version="1.1" xmlns="http://www.w3.org/2000/svg" xmlns:xlink="http://www.w3.org/1999/xlink" x="0px" y="0px"
	 viewBox="0 0 48 48" style="enable-background:new 0 0 48 48;" xml:space="preserve">
<g id="price">
	<g id="price_1_">
		<path style="fill:none;stroke:#000000;stroke-width:0.72;stroke-linecap:round;stroke-linejoin:round;stroke-miterlimit:10;" d="
			M39,22.205L22.209,39L9,25.787L25.791,9L39,22.205z M36,12l-6.469,6.474 M30.917,19.86c0.767-0.767,0.767-2.01,0-2.777
			c-0.767-0.767-2.01-0.767-2.777,0c-0.767,0.767-0.767,2.01,0,2.777S30.15,20.627,30.917,19.86z"/>
		<path id="XMLID_92_" style="fill:none;stroke:#000000;stroke-width:0.72;stroke-linejoin:round;stroke-miterlimit:10;" d="
			M25.995,22.011l-8.263,8.263 M24.971,26.259c0.815-0.815,0.755-2.198-0.136-3.089c-0.89-0.89-2.273-0.951-3.089-0.136
			c-0.815,0.815-0.755,2.198,0.136,3.089 M18.794,25.988c-0.815,0.815-0.755,2.198,0.136,3.089c0.89,0.89,2.273,0.951,3.089,0.136
			s0.755-2.198-0.136-3.089"/>
	</g>
</g>
<g id="Layer_1">
</g>
</svg>
