<?xml version="1.0" encoding="iso-8859-1"?>
<!-- Generator: Adobe Illustrator 24.1.2, SVG Export Plug-In . SVG Version: 6.00 Build 0)  -->
<svg version="1.1" xmlns="http://www.w3.org/2000/svg" xmlns:xlink="http://www.w3.org/1999/xlink" x="0px" y="0px"
	 viewBox="0 0 48 48" style="enable-background:new 0 0 48 48;" xml:space="preserve">
<g id="process">
	<g id="process_1_">
		<g>
			<path style="fill:none;stroke:#000000;stroke-width:0.72;stroke-linejoin:round;stroke-miterlimit:10;" d="M24,27
				c-1.657,0-3-1.343-3-3c0-1.657,1.343-3,3-3c1.657,0,3,1.343,3,3C27,25.657,25.657,27,24,27 M31,25.38v-2.76h-1.812l-0.54-1.316
				l1.278-1.278l-1.952-1.952l-1.282,1.282l-1.312-0.549V17h-2.76v1.812l-1.316,0.54l-1.278-1.278l-1.951,1.952l1.281,1.282
				l-0.549,1.312H17v2.76h1.812l0.54,1.316l-1.277,1.278l1.951,1.952l1.282-1.282l1.312,0.549V31h2.76v-1.812l1.316-0.54
				l1.278,1.278l1.952-1.952l-1.282-1.282l0.549-1.312H31z"/>
		</g>
		<path style="fill:none;stroke:#000000;stroke-width:0.72;stroke-miterlimit:10;" d="M36,10v5h-5 M17,33h-5v5 M36,15
			c-2.737-3.643-7.093-6-12-6C15.716,9,9,15.716,9,24 M12,33c2.737,3.643,7.093,6,12,6c8.284,0,15-6.716,15-15"/>
	</g>
</g>
<g id="Layer_1">
</g>
</svg>
