<?xml version="1.0" encoding="iso-8859-1"?>
<!-- Generator: Adobe Illustrator 24.3.0, SVG Export Plug-In . SVG Version: 6.00 Build 0)  -->
<svg version="1.1" id="Layer_1" xmlns="http://www.w3.org/2000/svg" xmlns:xlink="http://www.w3.org/1999/xlink" x="0px" y="0px"
	 viewBox="0 0 32 32" style="enable-background:new 0 0 32 32;" xml:space="preserve">
<path id="professional--marketplace_1_" d="M30,31.36H16c-0.199,0-0.36-0.161-0.36-0.36V21c0-0.199,0.161-0.36,0.36-0.36h3.64V18
	c0-0.199,0.161-0.36,0.36-0.36h6c0.199,0,0.36,0.161,0.36,0.36v2.64H30c0.199,0,0.36,0.161,0.36,0.36v10
	C30.36,31.199,30.199,31.36,30,31.36z M16.36,30.64h13.28v-5.28h-4.28V26c0,0.199-0.161,0.36-0.36,0.36h-4
	c-0.199,0-0.36-0.161-0.36-0.36v-0.64h-4.28C16.36,25.36,16.36,30.64,16.36,30.64z M21.36,25.64h3.279v-1.28H21.36V25.64z
	 M25.36,24.64h4.279v-3.28H16.36v3.279h4.28V24c0-0.199,0.161-0.36,0.36-0.36h4c0.199,0,0.36,0.161,0.36,0.36
	C25.36,24,25.36,24.64,25.36,24.64z M20.36,20.64h5.279v-2.28H20.36V20.64z M8.36,31H7.64v-7.5c0-3.592,2.257-6.718,5.586-7.879
	c-1.326-0.907-2.146-2.421-2.146-4.06c0-1.964,1.157-3.664,2.826-4.452c0.196-0.492,0.295-1.012,0.295-1.548
	c0-2.316-1.884-4.201-4.201-4.201S5.799,3.244,5.799,5.561c0,1.655,0.98,3.162,2.496,3.836C8.437,9.46,8.522,9.606,8.507,9.76
	c-0.014,0.153-0.125,0.281-0.275,0.316C4.774,10.896,2.36,13.949,2.36,17.5V25H1.64v-7.5c0-3.592,2.257-6.718,5.585-7.879
	C5.899,8.714,5.08,7.2,5.08,5.561c0-2.713,2.207-4.92,4.92-4.92s4.92,2.207,4.92,4.92c0,0.422-0.052,0.835-0.157,1.237
	c0.79-0.205,1.683-0.205,2.473,0c-0.104-0.401-0.157-0.815-0.157-1.237c0-2.713,2.208-4.92,4.921-4.92s4.921,2.207,4.921,4.92
	c0,1.639-0.82,3.154-2.146,4.061c3.329,1.162,5.586,4.291,5.586,7.887V18H29.64v-0.492c0-3.556-2.414-6.612-5.871-7.432
	c-0.15-0.036-0.261-0.163-0.275-0.316c-0.015-0.154,0.071-0.3,0.212-0.362C25.221,8.722,26.2,7.216,26.2,5.561
	c0-2.316-1.884-4.201-4.2-4.201s-4.2,1.884-4.2,4.201c0,0.536,0.099,1.056,0.295,1.548c1.669,0.789,2.826,2.488,2.826,4.452
	c0,0.937-0.265,1.848-0.766,2.633c-0.522,0.821-1.269,1.465-2.157,1.861l-0.293-0.657c0.76-0.338,1.396-0.888,1.843-1.59
	c0.427-0.671,0.652-1.447,0.652-2.247c0-2.316-1.884-4.201-4.2-4.201s-4.2,1.884-4.2,4.201c0,1.656,0.98,3.162,2.496,3.836
	c0.141,0.063,0.226,0.209,0.212,0.363c-0.014,0.153-0.125,0.281-0.275,0.316c-3.458,0.82-5.873,3.872-5.873,7.424
	C8.36,23.5,8.36,31,8.36,31z"/>
<rect id="_Transparent_Rectangle" style="fill:none;" width="32" height="32"/>
</svg>
