<?xml version="1.0" encoding="iso-8859-1"?>
<!-- Generator: Adobe Illustrator 24.1.2, SVG Export Plug-In . SVG Version: 6.00 Build 0)  -->
<svg version="1.1" id="Layer_1" xmlns="http://www.w3.org/2000/svg" xmlns:xlink="http://www.w3.org/1999/xlink" x="0px" y="0px"
	 viewBox="0 0 32 32" style="enable-background:new 0 0 32 32;" xml:space="preserve">
<path id="protect--critical--assets_1_" d="M17,28.36H1c-0.199,0-0.36-0.161-0.36-0.36V7c0-0.096,0.038-0.187,0.105-0.254l6-6
	C6.813,0.678,6.904,0.64,7,0.64h15c0.199,0,0.36,0.161,0.36,0.36v12h-0.72V1.36H7.36V7c0,0.199-0.161,0.36-0.36,0.36H1.36v20.28H17
	V28.36z M1.869,6.64H6.64V1.869L1.869,6.64z M16.5,22.36H4c-0.199,0-0.36-0.161-0.36-0.36S3.801,21.64,4,21.64h12.5
	c0.199,0,0.36,0.161,0.36,0.36S16.699,22.36,16.5,22.36z M16.5,19.36H4c-0.199,0-0.36-0.161-0.36-0.36S3.801,18.64,4,18.64h12.5
	c0.199,0,0.36,0.161,0.36,0.36S16.699,19.36,16.5,19.36z M16.5,16.36H4c-0.199,0-0.36-0.161-0.36-0.36S3.801,15.64,4,15.64h12.5
	c0.199,0,0.36,0.161,0.36,0.36S16.699,16.36,16.5,16.36z M19,13.36H4c-0.199,0-0.36-0.161-0.36-0.36S3.801,12.64,4,12.64h15
	c0.199,0,0.36,0.161,0.36,0.36S19.199,13.36,19,13.36z M25,31.36c-3.507,0-6.36-2.854-6.36-6.36v-7.223l6.36-3.18l6.36,3.18V25
	C31.36,28.507,28.507,31.36,25,31.36z M19.36,18.223V25c0,3.11,2.529,5.64,5.64,5.64s5.64-2.529,5.64-5.64v-6.777L25,15.402
	L19.36,18.223z"/>
<rect id="_Transparent_Rectangle" style="fill:none;" width="32" height="32"/>
</svg>
