<?xml version="1.0" encoding="iso-8859-1"?>
<!-- Generator: Adobe Illustrator 26.3.1, SVG Export Plug-In . SVG Version: 6.00 Build 0)  -->
<svg version="1.1" id="Layer_1" xmlns="http://www.w3.org/2000/svg" xmlns:xlink="http://www.w3.org/1999/xlink" x="0px" y="0px"
	 viewBox="0 0 32 32" style="enable-background:new 0 0 32 32;" xml:space="preserve">
<path id="public-cloud-to-private-cloud_00000075862187505725877530000007551318724047180945_" d="M22,29.36H6
	c-0.113,0-0.22-0.054-0.288-0.145c-0.068-0.091-0.089-0.209-0.057-0.317l3.609-12.272C7.593,15.221,6.64,13.185,6.64,11
	c0-4.058,3.302-7.36,7.36-7.36c3.233,0,5.986,2.096,6.972,5h3.717c0.158-0.576,0.687-1,1.312-1c0.75,0,1.36,0.61,1.36,1.36
	s-0.61,1.36-1.36,1.36c-0.625,0-1.153-0.424-1.312-1h-3.513c0.12,0.528,0.185,1.077,0.185,1.64c0,0.918-0.169,1.81-0.488,2.64h1.816
	c0.158-0.576,0.687-1,1.312-1c0.75,0,1.36,0.61,1.36,1.36s-0.61,1.36-1.36,1.36c-0.625,0-1.153-0.424-1.312-1H20.55
	c-0.441,0.856-1.053,1.627-1.813,2.267l2.062,7.013h2.89c0.158-0.575,0.687-1,1.312-1c0.75,0,1.36,0.61,1.36,1.36
	s-0.61,1.36-1.36,1.36c-0.625,0-1.153-0.425-1.312-1h-2.678l1.335,4.538c0.031,0.108,0.011,0.227-0.058,0.317
	C22.221,29.307,22.113,29.36,22,29.36z M6.481,28.64h15.038l-1.259-4.28H7.74L6.481,28.64z M25,23.36c-0.353,0-0.64,0.287-0.64,0.64
	s0.287,0.64,0.64,0.64s0.64-0.287,0.64-0.64S25.353,23.36,25,23.36z M7.952,23.64h12.097l-2.071-7.04
	c-0.041-0.141,0.008-0.293,0.123-0.384c0.664-0.523,1.212-1.153,1.627-1.856H8.273c0.415,0.703,0.962,1.333,1.626,1.856
	c0.116,0.091,0.164,0.243,0.123,0.384l-0.6,2.04h3.266c0.158-0.575,0.686-1,1.312-1c0.75,0,1.36,0.61,1.36,1.36
	s-0.61,1.36-1.36,1.36c-0.625,0-1.153-0.425-1.312-1H9.21L7.952,23.64z M14,18.36c-0.353,0-0.64,0.287-0.64,0.64
	s0.287,0.64,0.64,0.64s0.64-0.287,0.64-0.64S14.353,18.36,14,18.36z M24,13.36c-0.353,0-0.64,0.287-0.64,0.64s0.287,0.64,0.64,0.64
	s0.64-0.287,0.64-0.64S24.353,13.36,24,13.36z M7.906,13.64h12.188c0.357-0.821,0.546-1.716,0.546-2.64
	c0-0.566-0.07-1.115-0.204-1.64H7.565C7.431,9.885,7.36,10.434,7.36,11C7.36,11.924,7.549,12.819,7.906,13.64z M26,8.36
	c-0.353,0-0.64,0.287-0.64,0.64S25.647,9.64,26,9.64S26.64,9.353,26.64,9S26.353,8.36,26,8.36z M7.793,8.64h12.414
	C19.253,6.14,16.831,4.36,14,4.36S8.747,6.141,7.793,8.64z"/>
<rect id="_Transparent_Rectangle" style="fill:none;" width="32" height="32"/>
</svg>
