<?xml version="1.0" encoding="iso-8859-1"?>
<!-- Generator: Adobe Illustrator 27.5.0, SVG Export Plug-In . SVG Version: 6.00 Build 0)  -->
<svg version="1.1" id="Layer_1" xmlns="http://www.w3.org/2000/svg" xmlns:xlink="http://www.w3.org/1999/xlink" x="0px" y="0px"
	 viewBox="0 0 32 32" style="enable-background:new 0 0 32 32;" xml:space="preserve">
<path id="public_00000057852171191129543310000017380236199487461008_" d="M16,31.36C7.53,31.36,0.64,24.47,0.64,16
	S7.53,0.64,16,0.64S31.36,7.53,31.36,16S24.47,31.36,16,31.36z M16,1.36C7.927,1.36,1.36,7.927,1.36,16
	c0,8.072,6.567,14.64,14.64,14.64c8.072,0,14.64-6.567,14.64-14.64S24.072,1.36,16,1.36z M22.36,24h-0.72v-4
	c0-2.333-1.471-4.453-3.66-5.275c-0.128-0.048-0.218-0.165-0.231-0.301s0.052-0.269,0.168-0.341
	c1.079-0.673,1.724-1.825,1.724-3.082c0-2.007-1.633-3.64-3.64-3.64s-3.64,1.633-3.64,3.64c0,1.257,0.645,2.409,1.724,3.082
	c0.116,0.073,0.181,0.205,0.168,0.341c-0.014,0.136-0.104,0.253-0.232,0.301c-2.189,0.822-3.66,2.942-3.66,5.275v4H9.64v-4
	c0-2.415,1.397-4.627,3.535-5.692C12.204,13.485,11.64,12.289,11.64,11c0-2.404,1.956-4.36,4.36-4.36s4.36,1.956,4.36,4.36
	c0,1.289-0.564,2.485-1.535,3.308c2.138,1.064,3.535,3.277,3.535,5.692V24z"/>
<rect id="_Transparent_Rectangle" style="fill:none;" width="32" height="32"/>
</svg>
