<?xml version="1.0" encoding="iso-8859-1"?>
<!-- Generator: Adobe Illustrator 24.1.2, SVG Export Plug-In . SVG Version: 6.00 Build 0)  -->
<svg version="1.1" id="Layer_1" xmlns="http://www.w3.org/2000/svg" xmlns:xlink="http://www.w3.org/1999/xlink" x="0px" y="0px"
	 viewBox="0 0 32 32" style="enable-background:new 0 0 32 32;" xml:space="preserve">
<path id="q-q-plot_1_" d="M11,12c0,0.6-0.4,1-1,1s-1-0.4-1-1s0.4-1,1-1S11,11.4,11,12 M15,8c0-0.6-0.4-1-1-1s-1,0.4-1,1s0.4,1,1,1
	S15,8.6,15,8 M21,7c0-0.6-0.4-1-1-1s-1,0.4-1,1s0.4,1,1,1S21,7.6,21,7 M10,18c0-0.6-0.4-1-1-1s-1,0.4-1,1s0.4,1,1,1S10,18.6,10,18
	 M13,25c0-0.6-0.4-1-1-1s-1,0.4-1,1s0.4,1,1,1S13,25.6,13,25 M28,10c0-0.6-0.4-1-1-1s-1,0.4-1,1s0.4,1,1,1S28,10.6,28,10 M31,31.4H1
	c-0.2,0-0.4-0.2-0.4-0.4V1h0.7v29.6H31V31.4z M4.3,28.3l-0.5-0.5l25-25l0.5,0.5L4.3,28.3z"/>
<rect id="_Transparent_Rectangle" style="fill:none;" width="32" height="32"/>
</svg>
