<svg xmlns="http://www.w3.org/2000/svg" viewBox="0 0 48 48"><path d="M19,20c0,0.552-0.447,1-1,1c-0.553,0-1-0.448-1-1c0-0.552,0.447-1,1-1C18.553,19,19,19.448,19,20 M23,16 c0-0.552-0.447-1-1-1c-0.553,0-1,0.448-1,1c0,0.552,0.447,1,1,1C22.553,17,23,16.552,23,16 M29,15c0-0.552-0.447-1-1-1 c-0.553,0-1,0.448-1,1c0,0.552,0.447,1,1,1C28.553,16,29,15.552,29,15 M18,26c0-0.552-0.447-1-1-1c-0.553,0-1,0.448-1,1 c0,0.552,0.447,1,1,1C17.553,27,18,26.552,18,26 M21,33c0-0.552-0.447-1-1-1c-0.553,0-1,0.448-1,1c0,0.552,0.447,1,1,1 C20.553,34,21,33.552,21,33 M36,18c0-0.552-0.447-1-1-1c-0.553,0-1,0.448-1,1c0,0.552,0.447,1,1,1C35.553,19,36,18.552,36,18"/><path fill="none" stroke-linejoin="round" stroke-miterlimit="10" stroke-width=".72" d="M39,39H9V9 M12,36 l25-25"/></svg>