<?xml version="1.0" encoding="iso-8859-1"?>
<!-- Generator: Adobe Illustrator 24.1.2, SVG Export Plug-In . SVG Version: 6.00 Build 0)  -->
<svg version="1.1" id="Layer_1" xmlns="http://www.w3.org/2000/svg" xmlns:xlink="http://www.w3.org/1999/xlink" x="0px" y="0px"
	 viewBox="0 0 32 32" style="enable-background:new 0 0 32 32;" xml:space="preserve">
<path id="question--and--answer_1_" d="M10.7,31.199l-3.893-5.844H3c-1.301,0-2.36-1.059-2.36-2.36v-10
	c0-1.301,1.059-2.36,2.36-2.36h11.64V3c0-1.301,1.059-2.36,2.36-2.36h12c1.302,0,2.36,1.059,2.36,2.36v8
	c0,1.301-1.059,2.36-2.36,2.36h-2.777l-1.9,3.801l-0.645-0.322l2-4C25.74,12.717,25.864,12.64,26,12.64h3
	c0.904,0,1.64-0.736,1.64-1.64V3c0-0.904-0.735-1.64-1.64-1.64H17c-0.904,0-1.64,0.736-1.64,1.64v7.635H18
	c1.181,0,2.161,0.871,2.333,2.005H23v0.72h-2.64v9.635c0,1.302-1.059,2.36-2.36,2.36h-7v-0.721h7c0.904,0,1.64-0.735,1.64-1.64v-10
	c0-0.904-0.735-1.64-1.64-1.64H3c-0.904,0-1.64,0.736-1.64,1.64v10c0,0.904,0.736,1.64,1.64,1.64h4c0.121,0,0.233,0.061,0.3,0.161
	l4,6.005L10.7,31.199z M23.378,8.495h-0.721c0-1.219,0.217-1.677,1.008-2.129c0.555-0.317,0.78-0.666,0.78-1.205
	c0-0.962-0.776-1.303-1.441-1.303c-0.812,0-1.449,0.573-1.449,1.303h-0.721c0-1.134,0.953-2.023,2.17-2.023
	c1.272,0,2.162,0.832,2.162,2.023c0,1.055-0.653,1.549-1.144,1.83C23.5,7.29,23.378,7.464,23.378,8.495z M11.5,18
	c0,0.552-0.448,1-1,1s-1-0.448-1-1s0.448-1,1-1S11.5,17.448,11.5,18z M15.5,17c-0.552,0-1,0.448-1,1s0.448,1,1,1s1-0.448,1-1
	S16.052,17,15.5,17z M5.5,17c-0.552,0-1,0.448-1,1s0.448,1,1,1s1-0.448,1-1S6.052,17,5.5,17z M23,10.625
	c0.345,0,0.625-0.28,0.625-0.625S23.345,9.375,23,9.375S22.375,9.655,22.375,10S22.655,10.625,23,10.625z"/>
<rect id="_Transparent_Rectangle" style="fill:none;" width="32" height="32"/>
</svg>
