<?xml version="1.0" encoding="iso-8859-1"?>
<!-- Generator: Adobe Illustrator 22.0.0, SVG Export Plug-In . SVG Version: 6.00 Build 0)  -->
<svg version="1.1" xmlns="http://www.w3.org/2000/svg" xmlns:xlink="http://www.w3.org/1999/xlink" x="0px" y="0px"
	 viewBox="0 0 48 48" style="enable-background:new 0 0 48 48;" xml:space="preserve">
<g id="question_and_answer">
	<g id="question_and_answer_1_">
		<path style="fill:none;stroke:#000000;stroke-width:0.72;stroke-linejoin:round;stroke-miterlimit:10;" d="M19,39l-4-6.005h-4
			c-1.1,0-2-0.9-2-2v-10c0-1.1,0.9-2,2-2h15c1.1,0,2,0.9,2,2v10c0,1.1-0.9,2-2,2h-7 M32,25l2-4h3c1.1,0,2-0.9,2-2v-8
			c0-1.1-0.9-2-2-2H25c-1.1,0-2,0.9-2,2v7.995 M31,21h-3 M31.018,16.495c0-1.111,0.157-1.434,0.827-1.816
			c0.486-0.278,0.961-0.691,0.961-1.517c0-1.064-0.812-1.663-1.802-1.663c-0.997,0-1.81,0.711-1.81,1.663"/>
		<path d="M19.5,26c0,0.552-0.448,1-1,1s-1-0.448-1-1s0.448-1,1-1S19.5,25.448,19.5,26z M23.5,25c-0.552,0-1,0.448-1,1s0.448,1,1,1
			s1-0.448,1-1S24.052,25,23.5,25z M13.5,25c-0.552,0-1,0.448-1,1s0.448,1,1,1s1-0.448,1-1S14.052,25,13.5,25z M31,18.625
			c0.345,0,0.625-0.28,0.625-0.625c0-0.345-0.28-0.625-0.625-0.625c-0.345,0-0.625,0.28-0.625,0.625
			C30.375,18.345,30.655,18.625,31,18.625z"/>
	</g>
</g>
<g id="Layer_1">
</g>
</svg>
