<?xml version="1.0" encoding="iso-8859-1"?>
<!-- Generator: Adobe Illustrator 24.1.2, SVG Export Plug-In . SVG Version: 6.00 Build 0)  -->
<svg version="1.1" xmlns="http://www.w3.org/2000/svg" xmlns:xlink="http://www.w3.org/1999/xlink" x="0px" y="0px"
	 viewBox="0 0 48 48" style="enable-background:new 0 0 48 48;" xml:space="preserve">
<g id="racetrack">
	<path id="racetrack_1_" style="fill:none;stroke:#000000;stroke-width:0.72;stroke-linejoin:round;stroke-miterlimit:10;" d="
		M29,34H19c-5.523,0-10-4.477-10-10v0c0-5.523,4.477-10,10-10h10c5.523,0,10,4.477,10,10v0C39,29.523,34.523,34,29,34z M36,24L36,24
		c0-3.866-3.134-7-7-7H19c-3.866,0-7,3.134-7,7v0c0,3.866,3.134,7,7,7h10C32.866,31,36,27.866,36,24z M33,24L33,24
		c0-2.209-1.791-4-4-4H19c-2.209,0-4,1.791-4,4v0c0,2.209,1.791,4,4,4h10C31.209,28,33,26.209,33,24z M20,20v-6 M22,14v6"/>
</g>
<g id="Layer_1">
</g>
</svg>
