<?xml version="1.0" encoding="iso-8859-1"?>
<!-- Generator: Adobe Illustrator 24.1.2, SVG Export Plug-In . SVG Version: 6.00 Build 0)  -->
<svg version="1.1" id="Layer_1" xmlns="http://www.w3.org/2000/svg" xmlns:xlink="http://www.w3.org/1999/xlink" x="0px" y="0px"
	 viewBox="0 0 32 32" style="enable-background:new 0 0 32 32;" xml:space="preserve">
<path id="rainy--heavy_1_" d="M18.361,30.227c-0.062,0-0.123-0.016-0.18-0.049c-0.173-0.1-0.231-0.319-0.132-0.491l1-1.732
	c0.1-0.174,0.322-0.231,0.491-0.132c0.173,0.1,0.231,0.319,0.132,0.491l-1,1.732C18.606,30.162,18.485,30.227,18.361,30.227z
	 M13.861,30.227c-0.061,0-0.123-0.016-0.18-0.049c-0.172-0.1-0.231-0.319-0.132-0.491l1-1.732c0.1-0.173,0.319-0.232,0.492-0.132
	c0.172,0.1,0.231,0.319,0.132,0.491l-1,1.732C14.106,30.162,13.985,30.227,13.861,30.227z M9.861,30.227
	c-0.061,0-0.123-0.016-0.18-0.049c-0.172-0.1-0.231-0.319-0.132-0.491l1-1.732c0.099-0.173,0.319-0.232,0.492-0.132
	c0.172,0.1,0.231,0.319,0.132,0.491l-1,1.732C10.106,30.162,9.985,30.227,9.861,30.227z M5.361,30.227
	c-0.061,0-0.123-0.016-0.18-0.049c-0.172-0.1-0.231-0.319-0.132-0.491l1-1.732c0.1-0.173,0.318-0.232,0.492-0.132
	c0.172,0.1,0.231,0.319,0.132,0.491l-1,1.732C5.606,30.162,5.485,30.227,5.361,30.227z M20.361,26.727
	c-0.062,0-0.123-0.016-0.18-0.049c-0.173-0.1-0.231-0.319-0.132-0.491l1-1.732c0.1-0.174,0.321-0.231,0.491-0.132
	c0.173,0.1,0.231,0.319,0.132,0.491l-1,1.732C20.606,26.662,20.485,26.727,20.361,26.727z M15.861,26.727
	c-0.061,0-0.123-0.016-0.18-0.049c-0.172-0.1-0.231-0.319-0.132-0.491l1-1.732c0.099-0.173,0.32-0.232,0.492-0.132
	c0.173,0.1,0.231,0.319,0.132,0.491l-1,1.732C16.106,26.662,15.985,26.727,15.861,26.727z M11.861,26.727
	c-0.061,0-0.123-0.016-0.18-0.049c-0.172-0.1-0.231-0.319-0.132-0.491l1-1.732c0.1-0.173,0.318-0.232,0.492-0.132
	c0.172,0.1,0.231,0.319,0.132,0.491l-1,1.732C12.106,26.662,11.985,26.727,11.861,26.727z M7.361,26.727
	c-0.061,0-0.123-0.016-0.18-0.049c-0.172-0.1-0.231-0.319-0.132-0.491l1-1.732c0.1-0.173,0.319-0.232,0.492-0.132
	c0.172,0.1,0.231,0.319,0.132,0.491l-1,1.732C7.606,26.662,7.485,26.727,7.361,26.727z M22.361,23.227
	c-0.062,0-0.123-0.016-0.18-0.049c-0.173-0.1-0.231-0.319-0.132-0.491l1-1.732c0.1-0.173,0.321-0.23,0.491-0.132
	c0.173,0.1,0.231,0.319,0.132,0.491l-1,1.732C22.606,23.162,22.485,23.227,22.361,23.227z M17.861,23.227
	c-0.062,0-0.123-0.016-0.18-0.049c-0.173-0.1-0.231-0.319-0.132-0.491l1-1.732c0.1-0.173,0.321-0.23,0.491-0.132
	c0.173,0.1,0.231,0.319,0.132,0.491l-1,1.732C18.106,23.162,17.985,23.227,17.861,23.227z M13.861,23.227
	c-0.061,0-0.123-0.016-0.18-0.049c-0.172-0.1-0.231-0.319-0.132-0.491l1-1.732c0.1-0.173,0.319-0.232,0.492-0.132
	c0.172,0.1,0.231,0.319,0.132,0.491l-1,1.732C14.106,23.162,13.985,23.227,13.861,23.227z M9.361,23.227
	c-0.061,0-0.123-0.016-0.18-0.049c-0.172-0.1-0.231-0.319-0.132-0.491l1-1.732c0.1-0.173,0.318-0.232,0.492-0.132
	c0.172,0.1,0.231,0.319,0.132,0.491l-1,1.732C9.606,23.162,9.485,23.227,9.361,23.227z M5.631,18.36
	c-2.894-0.038-4.991-2.015-4.991-4.702c0-2.767,2.239-5.018,4.991-5.018c0.691,0,1.377,0.145,2.01,0.422
	c0.647-4.138,4.261-7.422,8.286-7.422c3.281,0,6.332,2.085,7.689,5.223c0.599-0.153,1.309-0.223,1.811-0.223
	c3.271,0,5.934,2.662,5.934,5.934c0,3.209-2.604,5.75-5.93,5.787h-19.8V18.36z M5.631,9.36c-2.355,0-4.271,1.928-4.271,4.298
	c0,2.275,1.798,3.95,4.276,3.981h19.791c2.922-0.031,5.213-2.256,5.213-5.066c0-2.875-2.338-5.214-5.213-5.214
	c-0.636,0-1.419,0.115-1.905,0.28c-0.183,0.064-0.38-0.031-0.451-0.21c-1.18-3.032-4.051-5.07-7.144-5.07
	c-3.829,0-7.253,3.269-7.634,7.287c-0.012,0.123-0.084,0.23-0.192,0.286C7.993,9.99,7.863,9.987,7.756,9.925
	C7.108,9.556,6.373,9.36,5.631,9.36z"/>
<rect id="_Transparent_Rectangle" style="fill:none;" width="32" height="32"/>
</svg>
