<?xml version="1.0" encoding="iso-8859-1"?>
<!-- Generator: Adobe Illustrator 24.1.2, SVG Export Plug-In . SVG Version: 6.00 Build 0)  -->
<svg version="1.1" id="Layer_1" xmlns="http://www.w3.org/2000/svg" xmlns:xlink="http://www.w3.org/1999/xlink" x="0px" y="0px"
	 viewBox="0 0 32 32" style="enable-background:new 0 0 32 32;" xml:space="preserve">
<path id="raleigh-nc_1_" d="M22.618,22.819l0.623,0.361c-0.931,1.608-2.389,2.877-4.106,3.571l-0.27-0.668
	C20.435,25.449,21.768,24.29,22.618,22.819z M27.36,11v2c0,0.624-0.425,1.146-1,1.305V19c0,4.683-3.156,8.798-7.675,10.008
	c-0.404,0.107-0.738,0.242-1.021,0.413l-1.48,0.888c-0.056,0.034-0.12,0.051-0.184,0.051s-0.128-0.018-0.185-0.052l-1.479-0.888
	c-0.284-0.171-0.618-0.306-1.021-0.413C8.796,27.798,5.64,23.683,5.64,19v-4.695c-0.575-0.159-1-0.681-1-1.305v-2
	c0-4.71,4.018-5.36,8.36-5.36c1.581,0,1.639-1.474,1.64-1.642V2c0-0.199,0.161-0.36,0.36-0.36h2c0.199,0,0.36,0.161,0.36,0.36v2
	c0,0.167,0.054,1.64,1.64,1.64C23.342,5.64,27.36,6.29,27.36,11z M25.64,19v-4.695c-0.25-0.069-0.47-0.205-0.64-0.391
	c-0.249,0.272-0.603,0.445-1,0.445s-0.751-0.174-1-0.445c-0.249,0.272-0.603,0.445-1,0.445s-0.751-0.174-1-0.445
	c-0.249,0.272-0.603,0.445-1,0.445s-0.751-0.174-1-0.445c-0.249,0.272-0.603,0.445-1,0.445s-0.751-0.174-1-0.446
	c-0.249,0.272-0.603,0.446-1,0.446c-0.397,0-0.751-0.174-1-0.446c-0.249,0.272-0.603,0.446-1,0.446s-0.751-0.174-1-0.446
	c-0.249,0.272-0.603,0.446-1,0.446s-0.751-0.174-1-0.446c-0.249,0.272-0.603,0.446-1,0.446s-0.751-0.174-1-0.446
	c-0.249,0.272-0.603,0.446-1,0.446s-0.751-0.174-1-0.446c-0.17,0.186-0.39,0.322-0.64,0.391V19c0,4.356,2.937,8.187,7.141,9.312
	c0.469,0.125,0.864,0.285,1.206,0.491L16,29.58l1.294-0.776c0.341-0.205,0.735-0.366,1.206-0.491
	C22.704,27.187,25.64,23.356,25.64,19z M26.64,11c0-3.339-2.142-4.64-7.64-4.64c-0.692,0-1.253-0.21-1.667-0.626
	c-0.688-0.69-0.693-1.693-0.693-1.735V2.36h-1.28V4c0,0.816-0.493,2.36-2.36,2.36c-5.498,0-7.64,1.301-7.64,4.64v2
	c0,0.353,0.287,0.64,0.64,0.64S6.64,13.353,6.64,13c0-0.199,0.161-0.36,0.36-0.36S7.36,12.801,7.36,13c0,0.353,0.287,0.64,0.64,0.64
	S8.64,13.353,8.64,13c0-0.199,0.161-0.36,0.36-0.36S9.36,12.801,9.36,13c0,0.353,0.287,0.64,0.64,0.64s0.64-0.287,0.64-0.64
	c0-0.199,0.161-0.36,0.36-0.36s0.36,0.161,0.36,0.36c0,0.353,0.287,0.64,0.64,0.64s0.64-0.287,0.64-0.64
	c0-0.199,0.161-0.36,0.36-0.36s0.36,0.161,0.36,0.36c0,0.353,0.287,0.64,0.64,0.64s0.64-0.287,0.64-0.64
	c0-0.199,0.161-0.36,0.36-0.36s0.36,0.161,0.36,0.36c0,0.353,0.287,0.64,0.64,0.64s0.64-0.287,0.64-0.64
	c0-0.199,0.161-0.36,0.36-0.36c0.199,0,0.36,0.161,0.36,0.36c0,0.353,0.287,0.64,0.64,0.64s0.64-0.287,0.64-0.64
	c0-0.199,0.161-0.36,0.36-0.36s0.36,0.161,0.36,0.36c0,0.353,0.287,0.64,0.64,0.64s0.64-0.287,0.64-0.64
	c0-0.199,0.161-0.36,0.36-0.36s0.36,0.161,0.36,0.36c0,0.353,0.287,0.64,0.64,0.64s0.64-0.287,0.64-0.64
	c0-0.199,0.161-0.36,0.36-0.36s0.36,0.161,0.36,0.36c0,0.353,0.287,0.64,0.64,0.64s0.64-0.287,0.64-0.64
	c0-0.199,0.161-0.36,0.36-0.36s0.36,0.161,0.36,0.36c0,0.353,0.287,0.64,0.64,0.64s0.64-0.287,0.64-0.64V11z M12,9.64
	c-0.199,0-0.36,0.161-0.36,0.36c0,0.353-0.287,0.64-0.64,0.64s-0.64-0.287-0.64-0.64c0-0.199-0.161-0.36-0.36-0.36
	S9.64,9.801,9.64,10c0,0.75,0.61,1.36,1.36,1.36s1.36-0.61,1.36-1.36C12.36,9.801,12.199,9.64,12,9.64z M18,7.64
	c-0.199,0-0.36,0.161-0.36,0.36c0,0.353-0.287,0.64-0.64,0.64c-0.353,0-0.64-0.287-0.64-0.64c0-0.199-0.161-0.36-0.36-0.36
	S15.64,7.801,15.64,8c0,0.75,0.61,1.36,1.36,1.36S18.36,8.75,18.36,8C18.36,7.801,18.199,7.64,18,7.64z M22,9.64
	c-0.199,0-0.36,0.161-0.36,0.36c0,0.353-0.287,0.64-0.64,0.64s-0.64-0.287-0.64-0.64c0-0.199-0.161-0.36-0.36-0.36
	S19.64,9.801,19.64,10c0,0.75,0.61,1.36,1.36,1.36s1.36-0.61,1.36-1.36C22.36,9.801,22.199,9.64,22,9.64z"/>
<rect id="_Transparent_Rectangle" style="fill:none;" width="32" height="32"/>
</svg>
