<?xml version="1.0" encoding="iso-8859-1"?>
<!-- Generator: Adobe Illustrator 22.0.0, SVG Export Plug-In . SVG Version: 6.00 Build 0)  -->
<svg version="1.1" xmlns="http://www.w3.org/2000/svg" xmlns:xlink="http://www.w3.org/1999/xlink" x="0px" y="0px"
	 viewBox="0 0 48 48" style="enable-background:new 0 0 48 48;" xml:space="preserve">
<g id="rank">
	<path id="rank_1_" style="fill:none;stroke:#000000;stroke-width:0.72;stroke-miterlimit:10;" d="M12,15c-1.657,0-3-1.343-3-3
		s1.343-3,3-3s3,1.343,3,3S13.657,15,12,15z M12.045,21.75H12c-1.242,0-2.25,1.008-2.25,2.25c0,1.242,1.008,2.25,2.25,2.25
		c1.242,0,2.25-1.008,2.25-2.25C14.25,22.776,13.269,21.777,12.045,21.75z M12.03,34.5H12c-0.828,0-1.5,0.672-1.5,1.5
		c0,0.828,0.672,1.5,1.5,1.5c0.828,0,1.5-0.672,1.5-1.5C13.5,35.185,12.846,34.519,12.03,34.5z M12,22v-7 M12,34.5V26 M21,9h18
		 M21,12h18 M21,15h18 M21,21h18 M21,24h18 M21,27h18 M21,33h18 M21,36h18 M21,39h18"/>
</g>
<g id="Layer_1">
</g>
</svg>
