<?xml version="1.0" encoding="iso-8859-1"?>
<!-- Generator: Adobe Illustrator 24.1.2, SVG Export Plug-In . SVG Version: 6.00 Build 0)  -->
<svg version="1.1" id="Layer_1" xmlns="http://www.w3.org/2000/svg" xmlns:xlink="http://www.w3.org/1999/xlink" x="0px" y="0px"
	 viewBox="0 0 32 32" style="enable-background:new 0 0 32 32;" xml:space="preserve">
<path id="receipt_1_" d="M26,31.36H7c-0.199,0-0.36-0.161-0.36-0.36V1c0-0.199,0.161-0.36,0.36-0.36h19
	c0.199,0,0.36,0.161,0.36,0.36v30C26.36,31.199,26.199,31.36,26,31.36z M7.36,30.64h18.28V1.36H7.36V30.64z M23,26.36h-2v-0.72h2
	V26.36z M23,22.36H10v-0.72h13V22.36z M23,18.36h-2v-0.72h2V18.36z M17,18.36h-7v-0.72h7V18.36z M23,14.36h-2v-0.72h2V14.36z
	 M17,14.36h-7v-0.72h7V14.36z M23,10.36h-2V9.64h2V10.36z M17,10.36h-7V9.64h7V10.36z M23,6.36h-2V5.64h2V6.36z M17,6.36h-7V5.64h7
	V6.36z"/>
<rect id="_Transparent_Rectangle" style="fill:none;" width="32" height="32"/>
</svg>
