<svg xmlns="http://www.w3.org/2000/svg" viewBox="0 0 48 48"><path fill="none" stroke-linejoin="round" stroke-miterlimit="10" stroke-width=".72" d="M27,18c0,4.971-4.029,9-9,9c-4.971,0-9-4.029-9-9c0-4.971,4.029-9,9-9C22.971,9,27,13.029,27,18z M36,15c-1.657,0-3,1.343-3,3 c0,1.657,1.343,3,3,3c1.657,0,3-1.343,3-3C39,16.343,37.657,15,36,15z M18,33c-1.657,0-3,1.343-3,3c0,1.657,1.343,3,3,3 c1.657,0,3-1.343,3-3C21,34.343,19.657,33,18,33z M31,28c-1.657,0-3,1.343-3,3c0,1.657,1.343,3,3,3c1.657,0,3-1.343,3-3 C34,29.343,32.657,28,31,28z M18,33v-6 M27,18h6 M24.305,24.305l4.586,4.586"/></svg>