<?xml version="1.0" encoding="iso-8859-1"?>
<!-- Generator: Adobe Illustrator 26.1.0, SVG Export Plug-In . SVG Version: 6.00 Build 0)  -->
<svg version="1.1" id="Layer_1" xmlns="http://www.w3.org/2000/svg" xmlns:xlink="http://www.w3.org/1999/xlink" x="0px" y="0px"
	 viewBox="0 0 32 32" style="enable-background:new 0 0 32 32;" xml:space="preserve">
<path id="reliability_00000086669555793996923860000007658018717082518717_" d="M16,30.36C8.082,30.36,1.64,23.918,1.64,16
	S8.082,1.64,16,1.64S30.36,8.082,30.36,16S23.918,30.36,16,30.36z M16,2.36C8.479,2.36,2.36,8.479,2.36,16S8.479,29.64,16,29.64
	S29.64,23.522,29.64,16C29.64,8.479,23.521,2.36,16,2.36z M14.014,22.522l-4.268-4.268l0.509-0.51l3.732,3.732l8.746-9.718
	l0.535,0.481L14.014,22.522z"/>
<rect id="_Transparent_Rectangle" style="fill:none;" width="32" height="32"/>
</svg>
