<?xml version="1.0" encoding="iso-8859-1"?>
<!-- Generator: Adobe Illustrator 26.3.1, SVG Export Plug-In . SVG Version: 6.00 Build 0)  -->
<svg version="1.1" id="Layer_1" xmlns="http://www.w3.org/2000/svg" xmlns:xlink="http://www.w3.org/1999/xlink" x="0px" y="0px"
	 viewBox="0 0 32 32" style="enable-background:new 0 0 32 32;" xml:space="preserve">
<path id="reliability--02_00000023992728803707137690000013137345866418463618_" d="M16,31.36c-0.75,0-1.36-0.61-1.36-1.36
	c0-0.625,0.424-1.153,1-1.312v-4.336c-0.982-0.041-1.936-0.252-2.841-0.628l0.276-0.664c0.817,0.339,1.678,0.53,2.564,0.571v-6.32
	c-0.108-0.03-0.213-0.073-0.313-0.13l-8.145,8.146C7.298,25.529,7.36,25.76,7.36,26c0,0.363-0.141,0.705-0.398,0.962
	c-0.53,0.529-1.393,0.529-1.923,0c-0.53-0.53-0.53-1.394,0-1.924c0.426-0.427,1.124-0.511,1.635-0.221l3.166-3.166
	C9.176,20.93,8.65,20.106,8.274,19.2l0.665-0.275c0.34,0.818,0.813,1.562,1.41,2.217l4.469-4.469c-0.057-0.1-0.1-0.205-0.129-0.313
	H3.312c-0.158,0.576-0.686,1-1.312,1c-0.75,0-1.36-0.61-1.36-1.36S1.25,14.64,2,14.64c0.625,0,1.153,0.424,1.312,1h4.336
	C7.69,14.659,7.9,13.704,8.275,12.8l0.665,0.275c-0.339,0.817-0.53,1.679-0.571,2.565h6.321c0.029-0.108,0.072-0.213,0.129-0.313
	L6.673,7.182c-0.51,0.293-1.208,0.207-1.634-0.221c-0.53-0.53-0.53-1.393,0-1.923s1.393-0.53,1.923,0C7.219,5.295,7.36,5.637,7.36,6
	c0,0.24-0.062,0.47-0.178,0.673l3.167,3.166c0.722-0.663,1.544-1.189,2.451-1.565l0.276,0.665c-0.819,0.34-1.563,0.813-2.217,1.41
	l4.469,4.469c0.1-0.057,0.205-0.1,0.313-0.129V3.312c-0.576-0.158-1-0.686-1-1.312c0-0.75,0.61-1.36,1.36-1.36S17.36,1.25,17.36,2
	c0,0.625-0.425,1.153-1,1.312v4.336C17.342,7.69,18.295,7.9,19.2,8.275L18.925,8.94c-0.817-0.339-1.679-0.53-2.565-0.571v6.321
	c0.108,0.029,0.213,0.072,0.313,0.129l8.145-8.145C24.702,6.47,24.64,6.24,24.64,6c0-0.363,0.142-0.705,0.398-0.961
	c0.531-0.53,1.393-0.53,1.924,0c0.53,0.53,0.53,1.393,0,1.923c-0.427,0.427-1.128,0.512-1.635,0.221l-3.166,3.167
	c0.663,0.722,1.188,1.545,1.564,2.451l-0.666,0.275c-0.339-0.818-0.812-1.562-1.408-2.217l-4.47,4.469
	c0.057,0.1,0.1,0.205,0.13,0.313h11.377c0.158-0.576,0.687-1,1.312-1c0.75,0,1.36,0.61,1.36,1.36s-0.61,1.36-1.36,1.36
	c-0.625,0-1.153-0.425-1.312-1h-4.336c-0.041,0.982-0.252,1.936-0.628,2.84l-0.664-0.275c0.339-0.817,0.53-1.679,0.571-2.565h-6.32
	c-0.03,0.108-0.073,0.213-0.13,0.313l8.146,8.145c0.507-0.289,1.208-0.206,1.635,0.221c0.53,0.53,0.53,1.394,0,1.924
	c-0.531,0.529-1.393,0.529-1.924,0C24.781,26.705,24.64,26.363,24.64,26c0-0.24,0.062-0.471,0.178-0.673l-3.166-3.166
	c-0.723,0.663-1.545,1.188-2.451,1.564l-0.275-0.666c0.817-0.339,1.562-0.812,2.218-1.408l-4.47-4.47
	c-0.1,0.057-0.205,0.1-0.313,0.13v11.377c0.576,0.158,1,0.687,1,1.312C17.36,30.75,16.75,31.36,16,31.36z M16,29.36
	c-0.353,0-0.64,0.287-0.64,0.64s0.287,0.64,0.64,0.64s0.64-0.287,0.64-0.64S16.353,29.36,16,29.36z M26,25.36
	c-0.171,0-0.331,0.066-0.452,0.188S25.36,25.829,25.36,26s0.066,0.331,0.188,0.452c0.248,0.25,0.656,0.25,0.904,0
	c0.25-0.249,0.25-0.655,0-0.904C26.331,25.427,26.171,25.36,26,25.36z M6,25.36c-0.171,0-0.332,0.066-0.453,0.188
	c-0.25,0.249-0.25,0.655,0,0.904c0.25,0.25,0.655,0.25,0.905,0C6.573,26.331,6.64,26.171,6.64,26s-0.067-0.331-0.188-0.452
	C6.332,25.427,6.171,25.36,6,25.36z M30,15.36c-0.353,0-0.64,0.287-0.64,0.64s0.287,0.64,0.64,0.64s0.64-0.287,0.64-0.64
	S30.353,15.36,30,15.36z M2,15.36c-0.353,0-0.64,0.287-0.64,0.64S1.647,16.64,2,16.64S2.64,16.353,2.64,16S2.353,15.36,2,15.36z
	 M16,15.36c-0.164,0-0.328,0.062-0.453,0.187c-0.25,0.25-0.25,0.656,0,0.905s0.655,0.249,0.905,0c0.25-0.25,0.25-0.656,0-0.905
	C16.328,15.423,16.164,15.36,16,15.36z M26,5.36c-0.164,0-0.328,0.062-0.452,0.187C25.427,5.668,25.36,5.829,25.36,6
	s0.066,0.332,0.188,0.453c0.242,0.241,0.662,0.241,0.904,0c0.25-0.25,0.25-0.656,0-0.905C26.328,5.423,26.164,5.36,26,5.36z M6,5.36
	c-0.164,0-0.328,0.062-0.453,0.187c-0.25,0.25-0.25,0.656,0,0.905c0.242,0.241,0.663,0.241,0.905,0C6.573,6.332,6.64,6.171,6.64,6
	S6.573,5.668,6.453,5.547C6.328,5.423,6.164,5.36,6,5.36z M16,1.36c-0.353,0-0.64,0.287-0.64,0.64S15.647,2.64,16,2.64
	c0.353,0,0.64-0.287,0.64-0.64S16.353,1.36,16,1.36z"/>
<rect id="_Transparent_Rectangle" style="fill:none;" width="32" height="32"/>
</svg>
