<svg xmlns="http://www.w3.org/2000/svg" viewBox="0 0 48 48"><path fill="none" stroke-linejoin="round" stroke-miterlimit="10" stroke-width=".72" d="M20,32v-3.749 c0-1.89,1.314-3.473,3.076-3.891c-0.798-0.355-1.355-1.153-1.355-2.082C21.722,21.019,22.741,20,24,20s2.281,1.019,2.281,2.278 c0,0.929-0.557,1.727-1.355,2.082c1.762,0.418,3.073,2,3.073,3.891V32 M31,29v-3.747c0-1.89-1.312-3.473-3.074-3.891 c0.798-0.355,1.355-1.153,1.355-2.082c0-1.259-1.021-2.28-2.28-2.28c-1.259,0-2.28,1.021-2.28,2.28 c0,0.323,0.067,0.63,0.188,0.908 M23.091,20.188c0.121-0.278,0.188-0.585,0.188-0.908c0-1.259-1.021-2.28-2.28-2.28 c-1.259,0-2.28,1.021-2.28,2.28c0,0.929,0.557,1.727,1.355,2.082c-1.762,0.418-3.074,2-3.074,3.891V29 M24,11 c-7.18,0-13,5.817-13,12.997c0,6.147,4.267,11.298,10,12.652 M24,37c7.18,0,13-5.82,13-13c0-6.147-4.267-11.298-10-12.652"/><path fill="none" stroke-miterlimit="10" stroke-width=".72" d="M22,9l2,2l-2,2 M25.997,35.004L24,37l2,2"/></svg>