<?xml version="1.0" encoding="iso-8859-1"?>
<!-- Generator: Adobe Illustrator 24.1.2, SVG Export Plug-In . SVG Version: 6.00 Build 0)  -->
<svg version="1.1" id="Layer_1" xmlns="http://www.w3.org/2000/svg" xmlns:xlink="http://www.w3.org/1999/xlink" x="0px" y="0px"
	 viewBox="0 0 32 32" style="enable-background:new 0 0 32 32;" xml:space="preserve">
<g id="repeat">
	<path id="repeat_1_" d="M4.746,31.255L0.491,27l4.255-4.255l0.509,0.51L1.869,26.64H29c0.904,0,1.64-0.735,1.64-1.64v-9h0.721v9
		c0,1.302-1.059,2.36-2.36,2.36H1.869l3.385,3.385L4.746,31.255z M1.36,16H0.64V7c0-1.301,1.059-2.36,2.36-2.36h27.131l-3.386-3.386
		l0.51-0.509L31.509,5l-4.254,4.254l-0.51-0.509l3.386-3.386H3C2.096,5.36,1.36,6.096,1.36,7V16z"/>
</g>
<rect id="_Transparent_Rectangle" style="fill:none;" width="32" height="32"/>
</svg>
