<?xml version="1.0" encoding="UTF-8"?>
<svg id="Layer_1" data-name="Layer 1" xmlns="http://www.w3.org/2000/svg" width="32" height="32" viewBox="0 0 32 32">
  <defs>
    <style>
      .cls-1 {
        fill: none;
      }
    </style>
  </defs>
  <path id="report-time--technician" d="M17,9.64v.72h11v-.72h-11ZM17,11.64v.72h6v-.72h-6ZM24.64,20v3.85l-1.89,1.9.5.5,2-2c.07-.06.11-.15.11-.25v-4h-.72ZM31,3.64H1c-.2,0-.36.16-.36.36v22c0,.2.16.36.36.36h15v-.72H1.36V4.36h29.28v13.64h.72V4c0-.2-.16-.36-.36-.36ZM29.35,28.64h1.65v.72h-3.36v-3.36h.72v2.52c1.43-1.05,2.28-2.73,2.28-4.52,0-3.11-2.53-5.64-5.64-5.64s-5.64,2.53-5.64,5.64,2.53,5.64,5.64,5.64v.72c-3.51,0-6.36-2.85-6.36-6.36s2.85-6.36,6.36-6.36,6.36,2.85,6.36,6.36c0,1.78-.74,3.45-2.01,4.64ZM12.22,15.04c.1801-.12.36-.27.53-.45.65-.73.93-1.81.85-3.23h.55v-.72h-.53c.04-.51.01-1.39-.49-2.14-.38-.6-.98-1-1.77-1.2v-.3c0-.2-.16-.36-.36-.36h-2c-.2,0-.36.16-.36.36v.3c-.79.2-1.39.6-1.77,1.2-.5.75-.53,1.63-.49,2.14h-.53v.72h.55c-.08,1.42.2,2.5.85,3.23.17.18.35.33.53.45-2.46.9-4.14,3.25-4.14,5.96h.72c0-1.36.47-2.61,1.28-3.59v3.59h.72v-4.32c.38-.32.81-.59,1.28-.81v5.13h.72v-5.4c.23-.07.46-.12.7-.16.18-.03.31-.2.3-.39-.02-.18-.17-.32-.36-.33,0,0-.68-.02-1.21-.61-.52-.59-.75-1.51-.66-2.75h5.74c.08,1.23-.13,2.15-.65,2.74-.53.6-1.2.62-1.22.62-.19.01-.34.15-.36.33-.01.19.12.36.3.39.24.04.47.09.7.16v5.4h.72v-5.13c.47.22.9.49,1.28.81v4.32h.72v-3.59c.81.98,1.28,2.23,1.28,3.59h.72c0-2.71-1.68-5.06-4.14-5.96ZM7.11,10.64c-.04-.4-.04-1.14.36-1.75.25-.39.65-.67,1.17-.84v.95h.72v-1.64h1.28v1.64h.72v-.95c.52.17.92.45,1.17.84.4.61.4,1.35.36,1.75h-5.78Z"/>
  <rect id="Transparent_Rectangle" data-name="Transparent Rectangle" class="cls-1" width="32" height="32"/>
</svg>