<?xml version="1.0" encoding="iso-8859-1"?>
<!-- Generator: Adobe Illustrator 24.1.2, SVG Export Plug-In . SVG Version: 6.00 Build 0)  -->
<svg version="1.1" id="Layer_1" xmlns="http://www.w3.org/2000/svg" xmlns:xlink="http://www.w3.org/1999/xlink" x="0px" y="0px"
	 viewBox="0 0 32 32" style="enable-background:new 0 0 32 32;" xml:space="preserve">
<path id="report_1_" d="M31,31.4H1c-0.2,0-0.4-0.2-0.4-0.4V1c0-0.2,0.2-0.4,0.4-0.4h30c0.2,0,0.4,0.2,0.4,0.4v30
	C31.4,31.2,31.2,31.4,31,31.4z M1.4,30.6h29.3V9.9L17.3,23.3c-0.1,0.1-0.4,0.1-0.5,0L10,16.5l-8.6,8.6C1.4,25.1,1.4,30.6,1.4,30.6z
	 M1.4,9.4v14.8l8.4-8.4c0.1-0.1,0.4-0.1,0.5,0l6.7,6.7L30.1,9.4H1.4z M1.4,8.6h29.3V1.4H1.4V8.6z"/>
<rect id="_Transparent_Rectangle" style="fill:none;" width="32" height="32"/>
</svg>
