<?xml version="1.0" encoding="iso-8859-1"?>
<!-- Generator: Adobe Illustrator 27.5.0, SVG Export Plug-In . SVG Version: 6.00 Build 0)  -->
<svg version="1.1" id="Layer_1" xmlns="http://www.w3.org/2000/svg" xmlns:xlink="http://www.w3.org/1999/xlink" x="0px" y="0px"
	 viewBox="0 0 32 32" style="enable-background:new 0 0 32 32;" xml:space="preserve">
<path id="reseller-programs_00000075121128929168743630000001857791443336174227_" d="M16,30.36
	c-7.393,0-13.606-5.698-14.284-13.03C1.102,17.199,0.64,16.653,0.64,16s0.462-1.199,1.076-1.33C2.394,7.338,8.607,1.64,16,1.64
	c2.934,0,5.75,0.885,8.165,2.564c0.23-0.18,0.521-0.287,0.835-0.287c0.75,0,1.36,0.61,1.36,1.36c0,0.228-0.057,0.443-0.156,0.632
	c2.336,2.362,3.774,5.451,4.08,8.761c0.613,0.131,1.076,0.677,1.076,1.33s-0.463,1.199-1.076,1.33
	c-0.306,3.309-1.744,6.398-4.08,8.762c0.1,0.188,0.156,0.403,0.156,0.632c0,0.75-0.61,1.36-1.36,1.36
	c-0.314,0-0.604-0.107-0.835-0.287C21.749,29.475,18.933,30.36,16,30.36z M2.436,17.288C3.09,24.24,8.986,29.64,16,29.64
	c2.776,0,5.443-0.835,7.733-2.42c-0.061-0.153-0.094-0.321-0.094-0.496c0-0.625,0.425-1.153,1-1.312V25
	c0-4.303-3.141-7.918-7.358-8.543C17.093,16.983,16.589,17.36,16,17.36c-0.625,0-1.153-0.425-1.312-1H3.312
	C3.192,16.795,2.86,17.145,2.436,17.288z M25,26.084c-0.353,0-0.64,0.287-0.64,0.64s0.287,0.64,0.64,0.64s0.64-0.287,0.64-0.64
	S25.353,26.084,25,26.084z M25.36,25.412c0.125,0.034,0.243,0.086,0.352,0.153c2.201-2.236,3.559-5.153,3.853-8.277
	c-0.425-0.144-0.757-0.493-0.876-0.928h-9.08c3.409,1.417,5.752,4.772,5.752,8.64L25.36,25.412L25.36,25.412z M30,15.36
	c-0.353,0-0.64,0.287-0.64,0.64s0.287,0.64,0.64,0.64s0.64-0.287,0.64-0.64S30.353,15.36,30,15.36z M16,15.36
	c-0.353,0-0.64,0.287-0.64,0.64s0.287,0.64,0.64,0.64s0.64-0.287,0.64-0.64S16.353,15.36,16,15.36z M2,15.36
	c-0.353,0-0.64,0.287-0.64,0.64S1.647,16.64,2,16.64S2.64,16.353,2.64,16S2.353,15.36,2,15.36z M19.608,15.64h9.08
	c0.119-0.436,0.451-0.785,0.876-0.929c-0.294-3.125-1.651-6.042-3.853-8.276c-0.108,0.067-0.227,0.119-0.352,0.153V7
	C25.36,10.868,23.018,14.223,19.608,15.64z M3.312,15.64h11.377c0.158-0.576,0.686-1,1.312-1c0.589,0,1.093,0.377,1.281,0.903
	C21.5,14.918,24.64,11.303,24.64,7V6.589c-0.575-0.158-1-0.686-1-1.312c0-0.175,0.033-0.342,0.094-0.496
	C21.443,3.196,18.777,2.36,16,2.36c-7.014,0-12.91,5.399-13.564,12.352C2.86,14.855,3.192,15.205,3.312,15.64z M25,4.637
	c-0.353,0-0.64,0.287-0.64,0.64s0.287,0.64,0.64,0.64s0.64-0.287,0.64-0.64S25.353,4.637,25,4.637z"/>
<rect id="_Transparent_Rectangle" style="fill:none;" width="32" height="32"/>
</svg>
