<?xml version="1.0" encoding="iso-8859-1"?>
<!-- Generator: Adobe Illustrator 27.5.0, SVG Export Plug-In . SVG Version: 6.00 Build 0)  -->
<svg version="1.1" id="Layer_1" xmlns="http://www.w3.org/2000/svg" xmlns:xlink="http://www.w3.org/1999/xlink" x="0px" y="0px"
	 viewBox="0 0 32 32" style="enable-background:new 0 0 32 32;" xml:space="preserve">
<path id="retail--sustainable_00000168832005589993782340000000069965430255050642_" d="M26,31.36c-1.302,0-2.36-1.059-2.36-2.36
	s1.059-2.36,2.36-2.36s2.36,1.059,2.36,2.36S27.302,31.36,26,31.36z M26,27.36c-0.904,0-1.64,0.735-1.64,1.64s0.735,1.64,1.64,1.64
	s1.64-0.735,1.64-1.64S26.904,27.36,26,27.36z M12.5,31.36c-1.301,0-2.36-1.059-2.36-2.36s1.059-2.36,2.36-2.36
	s2.36,1.059,2.36,2.36S13.801,31.36,12.5,31.36z M12.5,27.36c-0.904,0-1.64,0.735-1.64,1.64s0.736,1.64,1.64,1.64
	s1.64-0.735,1.64-1.64S13.404,27.36,12.5,27.36z M29,25.36H12.319c-2.049,0-3.132-1.109-3.739-3.827L3.717,1.36H1V0.64h3
	c0.166,0,0.311,0.113,0.35,0.275l1.707,7.022L6.07,7.934l2.002,8.296c0.59,2.325,1.549,3.409,3.018,3.409h7.551V17.36H17
	c-2.2,0-4.36-2.16-4.36-4.36v-2c0-0.199,0.161-0.36,0.36-0.36h2c1.424,0,2.832,0.905,3.647,2.14c0.137-2.122,2.226-4.14,4.353-4.14
	h2c0.199,0,0.36,0.161,0.36,0.36v2c0,2.2-2.16,4.36-4.36,4.36h-1.64v4.28h7.228c1.361,0,2.155-0.789,2.425-2.412L30.584,6.36H9V5.64
	h22c0.104,0,0.204,0.045,0.272,0.124c0.068,0.079,0.099,0.184,0.084,0.287l-1.632,11.288c-0.416,2.498-1.936,3.021-3.137,3.021
	H11.089c-0.908,0-1.666-0.32-2.28-0.971l0.474,1.981c0.539,2.415,1.333,3.269,3.037,3.269H29V25.36z M13.36,11.36V13
	c0,1.803,1.837,3.64,3.64,3.64h1.131l-2.385-2.386l0.509-0.509l2.385,2.385V15c0-1.803-1.836-3.64-3.64-3.64H13.36z M19.869,14.64
	H21c1.803,0,3.64-1.837,3.64-3.64V9.36H23c-1.803,0-3.64,1.837-3.64,3.64v1.131l2.385-2.385l0.51,0.509L19.869,14.64z"/>
<rect id="_Transparent_Rectangle" style="fill:none;" width="32" height="32"/>
</svg>
