<?xml version="1.0" encoding="iso-8859-1"?>
<!-- Generator: Adobe Illustrator 22.0.0, SVG Export Plug-In . SVG Version: 6.00 Build 0)  -->
<svg version="1.1" xmlns="http://www.w3.org/2000/svg" xmlns:xlink="http://www.w3.org/1999/xlink" x="0px" y="0px"
	 viewBox="0 0 48 48" style="enable-background:new 0 0 48 48;" xml:space="preserve">
<g id="rich_text_format">
	
		<path id="rich_text_format_1_" style="fill:none;stroke:#000000;stroke-width:0.72;stroke-linejoin:round;stroke-miterlimit:10;" d="
		M24,31H9V16h15V31z M18.5,18c-0.828,0-1.5,0.672-1.5,1.5s0.672,1.5,1.5,1.5s1.5-0.672,1.5-1.5S19.328,18,18.5,18z M24,28l-4-4l-2,2
		l-5-5l-4,4 M15,31v8h24V15l-6-6H15v7 M33,9v6h6 M24,19h11 M24,23h11 M24,27h11 M24,31h11 M19,35h12"/>
</g>
<g id="Layer_1">
</g>
</svg>
