<?xml version="1.0" encoding="iso-8859-1"?>
<!-- Generator: Adobe Illustrator 24.1.2, SVG Export Plug-In . SVG Version: 6.00 Build 0)  -->
<svg version="1.1" id="Layer_1" xmlns="http://www.w3.org/2000/svg" xmlns:xlink="http://www.w3.org/1999/xlink" x="0px" y="0px"
	 viewBox="0 0 32 32" style="enable-background:new 0 0 32 32;" xml:space="preserve">
<path id="robot_1_" d="M21.86,4.5h-0.72v-2h0.721L21.86,4.5L21.86,4.5z M10.86,2.5h-0.72v2h0.72V2.5z M28.896,15.825l0.209,0.688
	l-0.799,0.243c-0.747,0.22-1.538-0.165-1.835-0.869l-2.413,1.394c-0.188,0.149-0.512,0.048-0.575-0.188
	c-0.005-0.018-0.008-0.035-0.01-0.053l-0.749-2.794c-0.229,0.074-0.472,0.114-0.725,0.114H21.36V22c0,0.199-0.161,0.36-0.36,0.36
	h-1.64v6.307c1.131,0.174,2,1.154,2,2.333c0,0.199-0.161,0.36-0.36,0.36h-4c-0.199,0-0.36-0.161-0.36-0.36
	c0-1.179,0.869-2.159,2-2.333V22.36h-5.28v6.307c1.131,0.174,2,1.154,2,2.333c0,0.199-0.161,0.36-0.36,0.36h-4
	c-0.199,0-0.36-0.161-0.36-0.36c0-1.179,0.869-2.159,2-2.333V22.36H11c-0.199,0-0.36-0.161-0.36-0.36v-7.641H9.999
	c-0.242,0-0.476-0.037-0.696-0.104L8.562,17.02c-0.001,0.024-0.005,0.049-0.012,0.073c-0.062,0.229-0.364,0.334-0.558,0.201
	l-2.435-1.406c-0.295,0.705-1.084,1.09-1.831,0.871l-0.828-0.244l0.203-0.69l0.828,0.243c0.421,0.124,0.871-0.12,0.995-0.544
	c0.06-0.204,0.036-0.42-0.067-0.609c-0.103-0.189-0.272-0.326-0.476-0.385l-0.478-0.14l-0.722,0.422L2.817,14.19l0.854-0.5
	c0.085-0.051,0.187-0.063,0.283-0.035l0.628,0.184c0.389,0.114,0.711,0.374,0.906,0.731c0.095,0.173,0.154,0.36,0.177,0.55
	l2.304,1.33l0.674-2.518C8.037,13.504,7.639,12.797,7.639,12c0-1.301,1.059-2.36,2.36-2.36h0.642V9c0-0.199,0.161-0.36,0.36-0.36
	h4.64V6.36H12c-0.199,0-0.36-0.161-0.36-0.36V1c0-0.199,0.161-0.36,0.36-0.36h8c0.199,0,0.36,0.161,0.36,0.36v5
	c0,0.199-0.161,0.36-0.36,0.36h-3.64v2.28H21c0.199,0,0.36,0.161,0.36,0.36v0.64h0.639c1.302,0,2.36,1.059,2.36,2.36
	c0,0.786-0.387,1.484-0.979,1.913l0.68,2.537l2.303-1.33c0.023-0.19,0.082-0.376,0.178-0.55c0.195-0.357,0.517-0.617,0.905-0.731
	l0.626-0.183c0.1-0.03,0.204-0.016,0.29,0.037l0.825,0.5l-0.373,0.615l-0.689-0.418l-0.476,0.139
	c-0.205,0.06-0.374,0.197-0.478,0.386c-0.103,0.188-0.127,0.405-0.066,0.609c0.125,0.423,0.574,0.669,0.995,0.543L28.896,15.825z
	 M10.64,10.359H9.999c-0.904,0-1.64,0.736-1.64,1.64s0.736,1.64,1.64,1.64h0.642L10.64,10.359L10.64,10.359z M13,29.36
	c-0.781,0-1.436,0.548-1.6,1.279h3.2C14.436,29.908,13.781,29.36,13,29.36z M19.64,5.64V1.36h-7.28v4.28
	C12.36,5.64,19.64,5.64,19.64,5.64z M19,29.36c-0.78,0-1.436,0.548-1.601,1.279H20.6C20.436,29.908,19.78,29.36,19,29.36z
	 M20.64,9.36h-9.28v12.28h9.28V9.36z M23.639,12c0-0.904-0.735-1.64-1.64-1.64H21.36v3.28h0.639
	C22.903,13.64,23.639,12.904,23.639,12z M18.36,3.5c0,0.75-0.61,1.36-1.36,1.36h-2c-0.75,0-1.36-0.61-1.36-1.36S14.25,2.14,15,2.14
	h2C17.75,2.14,18.36,2.75,18.36,3.5z M17.64,3.5c0-0.353-0.287-0.64-0.64-0.64h-2c-0.353,0-0.64,0.287-0.64,0.64
	S14.647,4.14,15,4.14h2C17.353,4.14,17.64,3.853,17.64,3.5z"/>
<rect id="_Transparent_Rectangle" style="fill:none;" width="32" height="32"/>
</svg>
