<?xml version="1.0" encoding="iso-8859-1"?>
<!-- Generator: Adobe Illustrator 24.3.0, SVG Export Plug-In . SVG Version: 6.00 Build 0)  -->
<svg version="1.1" id="Layer_1" xmlns="http://www.w3.org/2000/svg" xmlns:xlink="http://www.w3.org/1999/xlink" x="0px" y="0px"
	 viewBox="0 0 32 32" style="enable-background:new 0 0 32 32;" xml:space="preserve">
<path id="sales--connect_1_" d="M23,30.36H9v-0.72h6.64v-4.28H3c-1.301,0-2.36-1.059-2.36-2.36V6c0-1.301,1.059-2.36,2.36-2.36
	h20.851c0.312-0.594,0.934-1,1.649-1c1.025,0,1.86,0.834,1.86,1.86s-0.835,1.86-1.86,1.86c-0.383,0-0.739-0.116-1.035-0.315
	l-6.42,6.42c0.199,0.296,0.315,0.652,0.315,1.035c0,1.025-0.835,1.86-1.86,1.86s-1.86-0.834-1.86-1.86
	c0-0.383,0.116-0.739,0.315-1.035l-1.42-1.42c-0.592,0.398-1.479,0.398-2.07,0l-3.42,3.42C8.244,14.761,8.36,15.117,8.36,15.5
	c0,1.025-0.834,1.86-1.86,1.86s-1.86-0.835-1.86-1.86s0.834-1.86,1.86-1.86c0.383,0,0.739,0.116,1.035,0.315l3.42-3.42
	C10.756,10.239,10.64,9.883,10.64,9.5c0-1.025,0.834-1.86,1.86-1.86s1.86,0.834,1.86,1.86c0,0.383-0.116,0.739-0.315,1.035
	l1.42,1.42c0.592-0.398,1.479-0.398,2.07,0l6.42-6.42C23.756,5.239,23.64,4.883,23.64,4.5c0-0.047,0.002-0.094,0.006-0.14H3
	C2.096,4.36,1.36,5.096,1.36,6v13.64h29.28V4h0.721v19c0,1.302-1.059,2.36-2.36,2.36H16.36v4.279H23V30.36z M1.36,20.36V23
	c0,0.904,0.736,1.64,1.64,1.64h26c0.904,0,1.64-0.735,1.64-1.64v-2.64H1.36z M6.5,14.36c-0.628,0-1.14,0.512-1.14,1.14
	s0.512,1.14,1.14,1.14s1.14-0.512,1.14-1.14S7.128,14.36,6.5,14.36z M16.5,12.36c-0.628,0-1.14,0.512-1.14,1.14
	s0.512,1.14,1.14,1.14c0.629,0,1.14-0.512,1.14-1.14S17.129,12.36,16.5,12.36z M12.5,8.36c-0.628,0-1.14,0.512-1.14,1.14
	s0.512,1.14,1.14,1.14s1.14-0.512,1.14-1.14S13.128,8.36,12.5,8.36z M25.5,3.36c-0.629,0-1.14,0.512-1.14,1.14s0.511,1.14,1.14,1.14
	s1.14-0.512,1.14-1.14S26.129,3.36,25.5,3.36z"/>
<rect id="_Transparent_Rectangle" style="fill:none;" width="32" height="32"/>
</svg>
