<?xml version="1.0" encoding="iso-8859-1"?>
<!-- Generator: Adobe Illustrator 24.1.2, SVG Export Plug-In . SVG Version: 6.00 Build 0)  -->
<svg version="1.1" id="Layer_1" xmlns="http://www.w3.org/2000/svg" xmlns:xlink="http://www.w3.org/1999/xlink" x="0px" y="0px"
	 viewBox="0 0 32 32" style="enable-background:new 0 0 32 32;" xml:space="preserve">
<path id="sample--file_1_" d="M4.6,24.1c-0.4,0-0.7-0.1-1-0.2S3.2,23.5,3,23.3l0.5-0.4c0.2,0.2,0.3,0.4,0.5,0.5
	c0.2,0.1,0.4,0.2,0.7,0.2c0.3,0,0.5-0.1,0.6-0.2s0.2-0.3,0.2-0.5s0-0.3-0.1-0.4s-0.3-0.2-0.5-0.2l-0.4-0.1c-0.2,0-0.4-0.1-0.5-0.1
	C3.8,22,3.6,22,3.5,21.9s-0.2-0.2-0.3-0.4S3.1,21.2,3.1,21s0-0.4,0.1-0.5c0.1-0.2,0.2-0.3,0.3-0.4s0.3-0.2,0.5-0.2
	c0.2-0.1,0.4-0.1,0.6-0.1c0.4,0,0.6,0.1,0.9,0.2s0.4,0.3,0.6,0.5l-0.5,0.4c-0.1-0.1-0.2-0.2-0.4-0.3s-0.4-0.1-0.6-0.1
	c-0.3,0-0.4,0.1-0.6,0.2c-0.1,0.1-0.2,0.2-0.2,0.4c0,0.2,0.1,0.3,0.2,0.4c0.1,0.1,0.3,0.1,0.5,0.2l0.4,0.1c0.5,0.1,0.8,0.2,1,0.4
	c0.2,0.2,0.3,0.5,0.3,0.8c0,0.4-0.1,0.7-0.4,1C5.5,24,5.1,24.1,4.6,24.1z M10.3,24c-0.2,0-0.4-0.1-0.5-0.2s-0.2-0.3-0.2-0.5l0,0
	c-0.1,0.3-0.2,0.5-0.4,0.6s-0.5,0.2-0.8,0.2c-0.4,0-0.8-0.1-1-0.3S7,23.2,7,22.9c0-0.4,0.1-0.7,0.4-0.9c0.3-0.2,0.7-0.3,1.3-0.3h0.8
	v-0.4c0-0.3-0.1-0.5-0.2-0.6s-0.4-0.2-0.7-0.2c-0.2,0-0.4,0.1-0.6,0.2c-0.2,0.1-0.3,0.3-0.4,0.4l-0.4-0.4c0.1-0.2,0.3-0.4,0.6-0.6
	s0.6-0.2,0.9-0.2c0.5,0,0.9,0.1,1.2,0.4s0.4,0.6,0.4,1v2.2h0.5V24H10.3z M8.5,23.5c0.3,0,0.5-0.1,0.7-0.2s0.3-0.3,0.3-0.5v-0.6H8.7
	c-0.3,0-0.6,0.1-0.7,0.2c-0.2,0.1-0.2,0.2-0.2,0.4V23c0,0.2,0.1,0.3,0.2,0.4C8.1,23.4,8.3,23.5,8.5,23.5z M11.6,24v-4.1h0.7v0.7l0,0
	c0.1-0.2,0.2-0.4,0.4-0.5s0.4-0.2,0.7-0.2s0.5,0.1,0.8,0.2c0.2,0.1,0.4,0.3,0.5,0.6l0,0c0.1-0.2,0.2-0.4,0.4-0.6s0.5-0.2,0.8-0.2
	c0.4,0,0.7,0.1,1,0.4c0.2,0.3,0.4,0.7,0.4,1.2V24h-0.7v-2.5c0-0.4-0.1-0.6-0.2-0.8s-0.3-0.3-0.6-0.3c-0.1,0-0.2,0-0.3,0
	s-0.2,0.1-0.3,0.1c-0.1,0.1-0.2,0.1-0.2,0.2c-0.1,0.1-0.1,0.2-0.1,0.3v3h-0.7v-2.5c0-0.7-0.3-1.1-0.8-1.1c-0.1,0-0.2,0-0.3,0
	s-0.2,0.1-0.3,0.1s-0.2,0.1-0.2,0.2c-0.1,0.1-0.1,0.2-0.1,0.3v3H11.6z M18.6,19.9h0.7v0.7l0,0c0.1-0.3,0.2-0.4,0.5-0.6
	c0.2-0.1,0.5-0.2,0.7-0.2c0.3,0,0.5,0,0.7,0.1s0.4,0.2,0.5,0.4c0.1,0.2,0.3,0.4,0.3,0.7s0.1,0.6,0.1,0.9s0,0.6-0.1,0.9
	s-0.2,0.5-0.3,0.7s-0.3,0.3-0.5,0.4S20.8,24,20.5,24c-0.3,0-0.5-0.1-0.7-0.2s-0.4-0.3-0.5-0.6l0,0v2.3h-0.7V19.9z M20.4,23.5
	c0.3,0,0.6-0.1,0.8-0.3c0.2-0.2,0.3-0.5,0.3-0.9v-0.7c0-0.4-0.1-0.6-0.3-0.9c-0.2-0.2-0.5-0.3-0.8-0.3c-0.1,0-0.3,0-0.4,0.1
	c-0.1,0-0.2,0.1-0.3,0.2c-0.1,0.1-0.2,0.1-0.2,0.2s-0.1,0.2-0.1,0.3v1.5c0,0.1,0,0.2,0.1,0.3s0.1,0.2,0.2,0.2
	c0.1,0.1,0.2,0.1,0.3,0.2C20.1,23.4,20.2,23.5,20.4,23.5z M24.1,24c-0.3,0-0.5-0.1-0.6-0.2s-0.2-0.3-0.2-0.6V18H24v5.3h0.6V24H24.1z
	 M27.1,24.1c-0.3,0-0.5-0.1-0.8-0.2s-0.4-0.2-0.6-0.4s-0.3-0.4-0.4-0.7s-0.1-0.6-0.1-0.9s0-0.6,0.1-0.9s0.2-0.5,0.4-0.7
	c0.2-0.2,0.4-0.3,0.6-0.4s0.5-0.2,0.8-0.2s0.5,0.1,0.8,0.2s0.4,0.2,0.6,0.4s0.3,0.4,0.4,0.6s0.1,0.5,0.1,0.8V22h-3v0.2
	c0,0.3,0.1,0.6,0.3,0.9s0.5,0.3,0.9,0.3c0.3,0,0.5-0.1,0.7-0.2s0.3-0.3,0.4-0.5l0.5,0.4c-0.1,0.3-0.4,0.5-0.6,0.7
	S27.5,24.1,27.1,24.1z M27.1,20.4c-0.2,0-0.3,0-0.4,0.1s-0.3,0.1-0.4,0.2s-0.2,0.2-0.2,0.4S26,21.4,26,21.5v0.1h2.1v-0.1
	c0-0.3-0.1-0.6-0.3-0.8C27.7,20.5,27.4,20.4,27.1,20.4z M31,15.6h-2.6V7c0-0.1,0-0.2-0.1-0.3l-6-6c-0.1-0.1-0.2-0.1-0.3-0.1H4
	C3.8,0.6,3.6,0.8,3.6,1v14.6H1c-0.2,0-0.4,0.2-0.4,0.4v11c0,0.2,0.2,0.4,0.4,0.4h2.6V31c0,0.2,0.2,0.4,0.4,0.4h24
	c0.2,0,0.4-0.2,0.4-0.4v-3.6H31c0.2,0,0.4-0.2,0.4-0.4V16C31.4,15.8,31.2,15.6,31,15.6z M22.4,1.9l4.8,4.8h-4.8
	C22.4,6.7,22.4,1.9,22.4,1.9z M4.4,1.4h17.3V7c0,0.2,0.2,0.4,0.4,0.4h5.6v8.3H4.4V1.4z M27.6,30.6H4.4v-3.3h23.3
	C27.6,27.4,27.6,30.6,27.6,30.6z M30.6,26.6H1.4V16.4h29.3C30.6,16.4,30.6,26.6,30.6,26.6z"/>
<rect id="_Transparent_Rectangle" style="fill:none;" width="32" height="32"/>
</svg>
