<?xml version="1.0" encoding="iso-8859-1"?>
<!-- Generator: Adobe Illustrator 24.3.0, SVG Export Plug-In . SVG Version: 6.00 Build 0)  -->
<svg version="1.1" id="Layer_1" xmlns="http://www.w3.org/2000/svg" xmlns:xlink="http://www.w3.org/1999/xlink" x="0px" y="0px"
	 viewBox="0 0 32 32" style="enable-background:new 0 0 32 32;" xml:space="preserve">
<path id="sample--file_1_" d="M4.637,24.096c-0.384,0-0.708-0.072-0.972-0.216s-0.492-0.338-0.684-0.584l0.504-0.432
	c0.155,0.198,0.33,0.35,0.524,0.456c0.195,0.107,0.42,0.16,0.676,0.16c0.267,0,0.469-0.055,0.608-0.164S5.5,23.056,5.5,22.863
	c0-0.154-0.047-0.282-0.14-0.384c-0.093-0.101-0.268-0.17-0.524-0.208l-0.352-0.056c-0.197-0.026-0.378-0.069-0.544-0.128
	c-0.166-0.059-0.307-0.136-0.424-0.232c-0.118-0.096-0.209-0.213-0.276-0.352s-0.1-0.304-0.1-0.496c0-0.203,0.037-0.382,0.112-0.54
	c0.075-0.157,0.179-0.288,0.312-0.392s0.292-0.183,0.476-0.236c0.184-0.053,0.385-0.08,0.604-0.08c0.352,0,0.645,0.059,0.88,0.176
	s0.44,0.28,0.616,0.488l-0.472,0.448c-0.102-0.133-0.239-0.25-0.412-0.348s-0.385-0.148-0.636-0.148
	c-0.256,0-0.447,0.053-0.572,0.16c-0.125,0.106-0.188,0.248-0.188,0.424c0,0.187,0.06,0.323,0.18,0.408
	c0.12,0.085,0.3,0.146,0.54,0.184l0.352,0.056c0.458,0.069,0.788,0.203,0.988,0.4c0.2,0.198,0.3,0.456,0.3,0.776
	c0,0.405-0.142,0.725-0.424,0.96C5.514,23.978,5.127,24.096,4.637,24.096z M10.3,24c-0.229,0-0.401-0.064-0.516-0.192
	s-0.185-0.293-0.212-0.496h-0.04c-0.085,0.256-0.232,0.451-0.44,0.584s-0.461,0.2-0.76,0.2c-0.432,0-0.768-0.111-1.008-0.332
	s-0.36-0.524-0.36-0.908c0-0.4,0.146-0.705,0.436-0.916c0.291-0.21,0.735-0.316,1.332-0.316h0.784v-0.376
	c0-0.277-0.075-0.491-0.224-0.64s-0.381-0.224-0.696-0.224c-0.245,0-0.449,0.055-0.612,0.164C7.821,20.657,7.687,20.8,7.58,20.976
	l-0.448-0.408c0.123-0.224,0.308-0.415,0.556-0.572s0.564-0.236,0.948-0.236c0.518,0,0.917,0.124,1.2,0.372s0.424,0.597,0.424,1.049
	v2.179h0.464V24H10.3z M8.5,23.496c0.293,0,0.536-0.067,0.728-0.2s0.288-0.304,0.288-0.512v-0.64H8.725
	c-0.342,0-0.591,0.051-0.748,0.152c-0.158,0.102-0.236,0.248-0.236,0.44v0.16c0,0.192,0.068,0.34,0.204,0.444
	C8.081,23.443,8.266,23.496,8.5,23.496z M11.612,24v-4.144h0.744v0.672h0.04c0.091-0.211,0.228-0.392,0.412-0.542
	s0.415-0.226,0.692-0.226s0.529,0.066,0.756,0.198c0.227,0.132,0.394,0.344,0.5,0.634h0.016c0.075-0.222,0.217-0.416,0.428-0.583
	c0.21-0.167,0.489-0.25,0.836-0.25c0.416,0,0.741,0.139,0.976,0.416c0.234,0.278,0.352,0.669,0.352,1.176V24H16.62v-2.542
	c0-0.353-0.068-0.618-0.204-0.794s-0.348-0.265-0.636-0.265c-0.123,0-0.239,0.016-0.348,0.048s-0.207,0.079-0.292,0.14
	c-0.085,0.062-0.153,0.139-0.204,0.232c-0.051,0.094-0.076,0.205-0.076,0.333V24h-0.744v-2.542c0-0.706-0.277-1.059-0.832-1.059
	c-0.118,0-0.232,0.016-0.344,0.048c-0.112,0.032-0.21,0.079-0.296,0.14s-0.155,0.139-0.208,0.232
	c-0.053,0.094-0.08,0.205-0.08,0.333V24H11.612z M18.628,19.855h0.744v0.672h0.032c0.096-0.253,0.247-0.445,0.452-0.574
	c0.206-0.129,0.452-0.194,0.74-0.194c0.261,0,0.495,0.05,0.7,0.148c0.205,0.099,0.38,0.243,0.524,0.432
	c0.144,0.189,0.253,0.417,0.328,0.684s0.112,0.568,0.112,0.904c0,0.336-0.038,0.637-0.112,0.904s-0.184,0.495-0.328,0.684
	s-0.319,0.333-0.524,0.432c-0.206,0.098-0.439,0.148-0.7,0.148c-0.288,0-0.535-0.065-0.74-0.194s-0.356-0.321-0.452-0.574h-0.032
	V25.6h-0.744V19.855z M20.38,23.456c0.336,0,0.601-0.107,0.796-0.322c0.194-0.214,0.292-0.499,0.292-0.853v-0.708
	c0-0.354-0.098-0.638-0.292-0.853c-0.195-0.214-0.46-0.322-0.796-0.322c-0.139,0-0.27,0.019-0.392,0.057
	c-0.123,0.037-0.229,0.091-0.32,0.161c-0.09,0.07-0.163,0.15-0.216,0.241s-0.08,0.193-0.08,0.306v1.528
	c0,0.113,0.027,0.215,0.08,0.306s0.125,0.172,0.216,0.241c0.091,0.07,0.197,0.124,0.32,0.161
	C20.111,23.437,20.241,23.456,20.38,23.456z M24.084,24c-0.256,0-0.45-0.069-0.58-0.208c-0.131-0.139-0.196-0.323-0.196-0.552v-5.16
	h0.744v5.28h0.592V24H24.084z M27.117,24.096c-0.288,0-0.548-0.052-0.78-0.156s-0.429-0.249-0.592-0.436s-0.288-0.413-0.376-0.68
	s-0.132-0.565-0.132-0.896c0-0.326,0.044-0.623,0.132-0.892c0.088-0.27,0.213-0.498,0.376-0.684c0.163-0.187,0.36-0.332,0.592-0.436
	s0.492-0.156,0.78-0.156s0.545,0.052,0.772,0.156s0.417,0.246,0.572,0.427s0.272,0.396,0.352,0.646s0.12,0.518,0.12,0.805v0.311
	h-2.92v0.168c0,0.347,0.101,0.631,0.304,0.852s0.491,0.332,0.864,0.332c0.261,0,0.485-0.059,0.672-0.176s0.336-0.282,0.448-0.496
	l0.48,0.41c-0.144,0.274-0.36,0.493-0.648,0.656S27.506,24.096,27.117,24.096z M27.117,20.359c-0.16,0-0.308,0.029-0.444,0.087
	c-0.136,0.059-0.253,0.139-0.352,0.243s-0.175,0.227-0.228,0.37s-0.08,0.299-0.08,0.469v0.056h2.128v-0.08
	c0-0.344-0.092-0.621-0.276-0.831C27.681,20.464,27.431,20.359,27.117,20.359z M31,15.64h-2.64V7c0-0.096-0.038-0.187-0.105-0.254
	l-6-6C22.188,0.678,22.096,0.64,22,0.64H4C3.801,0.64,3.64,0.801,3.64,1v14.64H1c-0.199,0-0.36,0.161-0.36,0.36v11
	c0,0.199,0.161,0.36,0.36,0.36h2.64V31c0,0.199,0.161,0.36,0.36,0.36h24c0.199,0,0.36-0.161,0.36-0.36v-3.64H31
	c0.199,0,0.36-0.161,0.36-0.36V16C31.36,15.801,31.199,15.64,31,15.64z M22.36,1.87l4.771,4.771H22.36V1.87z M4.36,1.36h17.28V7
	c0,0.199,0.161,0.36,0.36,0.36h5.64v8.28H4.36V1.36z M27.64,30.64H4.36v-3.28h23.28C27.64,27.36,27.64,30.64,27.64,30.64z
	 M30.64,26.64H1.36V16.36h29.28C30.64,16.36,30.64,26.64,30.64,26.64z"/>
<rect id="_Transparent_Rectangle" style="fill:none;" width="32" height="32"/>
</svg>
