<?xml version="1.0" encoding="iso-8859-1"?>
<!-- Generator: Adobe Illustrator 24.1.2, SVG Export Plug-In . SVG Version: 6.00 Build 0)  -->
<svg version="1.1" id="Layer_1" xmlns="http://www.w3.org/2000/svg" xmlns:xlink="http://www.w3.org/1999/xlink" x="0px" y="0px"
	 viewBox="0 0 32 32" style="enable-background:new 0 0 32 32;" xml:space="preserve">
<path id="san-francisco--fog_1_" d="M31.136,20.562c-1.01-0.412-2.064-0.621-3.136-0.621c-0.343,0-0.706,0.041-1.079,0.09
	c-4.493-5.722-4.56-12.66-4.56-12.73V7V3.64h-1V1H20.64v2.64h-1v2H18h-2h-2h-1.64v-2h-1V1h-0.72v2.64h-1V7v0.302
	c0,0.092-0.101,9.179-6.857,15.159c-0.623-0.226-1.187-0.378-1.738-0.447c-0.196-0.023-0.377,0.115-0.402,0.312
	c-0.024,0.197,0.116,0.378,0.313,0.402c0.558,0.069,1.127,0.221,1.79,0.477c0.848,0.326,1.594,0.773,2.237,1.319
	c-0.397,0.154-0.786,0.33-1.158,0.545c-0.172,0.1-0.231,0.32-0.131,0.492c0.067,0.115,0.188,0.18,0.312,0.18
	c0.061,0,0.123-0.016,0.18-0.049c0.559-0.324,1.153-0.569,1.766-0.739c0.109-0.03,0.22-0.051,0.33-0.076
	c0.217-0.05,0.435-0.099,0.651-0.131C7.1,24.723,7.27,24.713,7.44,24.7c0.156-0.012,0.312-0.03,0.467-0.032
	c0.672-0.008,1.345,0.068,2.003,0.239c0,0,0,0,0.001,0c0.662,0.171,1.304,0.436,1.909,0.788c1.058,0.615,1.962,1.479,2.615,2.499
	c0.064,0.101,0.175,0.163,0.295,0.166c0.003,0,0.005,0,0.008,0c0.117,0,0.227-0.057,0.294-0.152c1.053-1.489,3.142-2.001,4.787-1.04
	c0.016,0.009,0.035,0,0.053,0.007c0.022,0.02,0.042,0.042,0.067,0.056c0.058,0.036,0.123,0.055,0.189,0.055
	c0.05,0,0.101-0.011,0.147-0.032c0.109-0.049,0.187-0.148,0.207-0.267c0.238-1.373,0.857-2.66,1.789-3.723
	c1.176-1.339,2.786-2.229,4.535-2.503c0.427-0.067,0.817-0.1,1.194-0.1c0.978,0,1.941,0.19,2.864,0.566
	c0.044,0.019,0.091,0.027,0.136,0.027c0.142,0,0.276-0.085,0.333-0.225C31.408,20.848,31.32,20.638,31.136,20.562z M16.36,22.36
	h1.28v1.279h-1.28V22.36z M16,21.64h-2h-1.64v-5.28H14h2h2h1.64v5.28H18H16z M14.36,22.36h1.28v1.279h-1.28V22.36z M14,8.36h2h2
	h1.64v5.28H18h-2h-2h-1.64V8.36H14z M18.36,14.36h1.279v1.28H18.36V14.36z M16.36,14.36h1.28v1.28h-1.28V14.36z M14.36,14.36h1.28
	v1.28h-1.28V14.36z M12.36,14.36h1.28v1.28h-1.28V14.36z M12.36,22.36h1.28v1.279h-1.28V22.36z M18.36,22.36h1.279v1.279H18.36
	V22.36z M19.64,7.64h-1.28V6.36h1.279L19.64,7.64L19.64,7.64z M17.64,7.64h-1.28V6.36h1.28V7.64z M15.64,7.64h-1.28V6.36h1.28V7.64z
	 M13.64,6.36v1.28h-1.28V6.36H13.64z M10.36,7V4.36h1.28V6v2v6v2v6v2v0.805c-0.416-0.203-0.842-0.375-1.28-0.505V7z M9.64,12.101
	v12.023c-0.528-0.106-1.062-0.171-1.597-0.174C8.028,23.948,8.015,23.941,8,23.941c-0.017,0-0.034,0.003-0.05,0.003
	c-0.205,0.001-0.409,0.026-0.613,0.042c-0.144,0.012-0.287,0.012-0.432,0.032c-0.385,0.051-0.767,0.124-1.142,0.228
	c-0.642-0.608-1.399-1.103-2.248-1.49C7.128,19.435,8.839,15.275,9.64,12.101z M14.76,27.396c-0.642-0.88-1.465-1.63-2.4-2.206
	v-0.83H14h2h2h1.64v1.932C17.939,25.597,15.959,26.058,14.76,27.396z M20.36,24.97V24v-2v-6v-2V8V6V4.36h1.279V7v15.907
	C21.109,23.533,20.685,24.23,20.36,24.97z M22.36,22.153V12.21c0.602,2.359,1.718,5.246,3.762,7.957
	C24.72,20.49,23.423,21.177,22.36,22.153z"/>
<rect id="_Transparent_Rectangle" style="fill:none;" width="32" height="32"/>
</svg>
