<svg xmlns="http://www.w3.org/2000/svg" viewBox="0 0 48 48"><rect width="2" height="2" x="20" y="14" fill="none" stroke-linecap="round" stroke-linejoin="round" stroke-miterlimit="10" stroke-width=".72"/><rect width="2" height="2" x="22" y="14" fill="none" stroke-linecap="round" stroke-linejoin="round" stroke-miterlimit="10" stroke-width=".72"/><rect width="2" height="2" x="24" y="14" fill="none" stroke-linecap="round" stroke-linejoin="round" stroke-miterlimit="10" stroke-width=".72"/><rect width="2" height="2" x="26" y="14" fill="none" stroke-linecap="round" stroke-linejoin="round" stroke-miterlimit="10" stroke-width=".72"/><rect width="2" height="2" x="20" y="22" fill="none" stroke-linecap="round" stroke-linejoin="round" stroke-miterlimit="10" stroke-width=".72"/><rect width="2" height="2" x="22" y="22" fill="none" stroke-linecap="round" stroke-linejoin="round" stroke-miterlimit="10" stroke-width=".72"/><rect width="2" height="2" x="24" y="22" fill="none" stroke-linecap="round" stroke-linejoin="round" stroke-miterlimit="10" stroke-width=".72"/><rect width="2" height="2" x="26" y="22" fill="none" stroke-linecap="round" stroke-linejoin="round" stroke-miterlimit="10" stroke-width=".72"/><rect width="2" height="2" x="20" y="30" fill="none" stroke-linecap="round" stroke-linejoin="round" stroke-miterlimit="10" stroke-width=".72"/><rect width="2" height="2" x="22" y="30" fill="none" stroke-linecap="round" stroke-linejoin="round" stroke-miterlimit="10" stroke-width=".72"/><rect width="2" height="2" x="24" y="30" fill="none" stroke-linecap="round" stroke-linejoin="round" stroke-miterlimit="10" stroke-width=".72"/><rect width="2" height="2" x="26" y="30" fill="none" stroke-linecap="round" stroke-linejoin="round" stroke-miterlimit="10" stroke-width=".72"/><line x1="19" x2="19" y1="9" y2="12" fill="none" stroke-linejoin="round" stroke-miterlimit="10" stroke-width=".72"/><line x1="29" x2="29" y1="9" y2="12" fill="none" stroke-linejoin="round" stroke-miterlimit="10" stroke-width=".72"/><line x1="18" x2="18" y1="15" y2="32.256" fill="none" stroke-miterlimit="10" stroke-width=".72"/><polyline fill="none" stroke-miterlimit="10" stroke-width=".72" points="18,15 18,12 20,12 20,33.082"/><polyline fill="none" stroke-miterlimit="10" stroke-width=".72" points="30,15 30,12 28,12 28,34.555"/><line x1="30" x2="30" y1="15" y2="30.725" fill="none" stroke-miterlimit="10" stroke-width=".72"/><path fill="none" stroke-miterlimit="10" stroke-width=".72" d="M18,15c0,0-0.006,9.406-7.125,15.567"/><path fill="none" stroke-miterlimit="10" stroke-width=".72" d="M30,15c0,0,0.003,7.181,4.75,13.104"/><path fill="none" stroke-linecap="round" stroke-linejoin="round" stroke-miterlimit="10" stroke-width=".72" d="M18,32.256C17.361,32.091,16.691,32,16,32c-0.814,0-1.598,0.123-2.338,0.349c-0.781-0.783-1.737-1.378-2.788-1.782"/><path fill="none" stroke-linecap="round" stroke-linejoin="round" stroke-miterlimit="10" stroke-width=".72" d="M20,33.082c-0.62-0.36-1.289-0.642-2-0.826"/><path fill="none" stroke-linecap="round" stroke-linejoin="round" stroke-miterlimit="10" stroke-width=".72" d="M39,28.594C38.073,28.215,37.063,28,36,28c-0.426,0-0.842,0.04-1.25,0.104"/><path fill="none" stroke-linecap="round" stroke-linejoin="round" stroke-miterlimit="10" stroke-width=".72" d="M30,30.725c-0.949,1.082-1.616,2.418-1.873,3.898c-0.04-0.026-0.085-0.044-0.127-0.069"/><path fill="none" stroke-linecap="round" stroke-linejoin="round" stroke-miterlimit="10" stroke-width=".72" d="M28,34.555C27.41,34.21,26.732,34,26,34c-1.35,0-2.538,0.673-3.263,1.698c-0.689-1.076-1.631-1.973-2.737-2.616"/><path fill="none" stroke-linecap="round" stroke-linejoin="round" stroke-miterlimit="10" stroke-width=".72" d="M10.875,30.567c-0.598-0.23-1.218-0.416-1.875-0.498"/><path fill="none" stroke-linecap="round" stroke-linejoin="round" stroke-miterlimit="10" stroke-width=".72" d="M34.75,28.104c-1.885,0.297-3.547,1.25-4.75,2.622"/><path fill="none" stroke-linecap="round" stroke-linejoin="round" stroke-miterlimit="10" stroke-width=".72" d="M16,32c-0.697,0-1.392,0.098-2.069,0.279c-0.668,0.178-1.315,0.446-1.927,0.8"/></svg>