<?xml version="1.0" encoding="iso-8859-1"?>
<!-- Generator: Adobe Illustrator 24.1.2, SVG Export Plug-In . SVG Version: 6.00 Build 0)  -->
<svg version="1.1" id="Layer_1" xmlns="http://www.w3.org/2000/svg" xmlns:xlink="http://www.w3.org/1999/xlink" x="0px" y="0px"
	 viewBox="0 0 32 32" style="enable-background:new 0 0 32 32;" xml:space="preserve">
<path id="sao-paulo_1_" d="M13.654,1.099c-0.055-0.191,0.056-0.391,0.247-0.445c0.194-0.053,0.391,0.057,0.445,0.247L16,6.689
	L17.654,0.9c0.054-0.19,0.248-0.304,0.444-0.247c0.191,0.055,0.302,0.254,0.247,0.445l-2,7C16.302,8.253,16.161,8.36,16,8.36
	s-0.302-0.106-0.346-0.261L13.654,1.099z M31.305,24.192C31.238,24.297,31.124,24.36,31,24.36H20.625l1.723,6.548
	c0.008,0.031,0.005,0.062,0.005,0.092h-0.726l-1.747-6.64h-1.279l1.746,6.547c0.008,0.031,0.006,0.062,0.006,0.093h-0.726
	l-1.771-6.64h-3.714L12.372,31h-0.726c0-0.031-0.003-0.062,0.006-0.093l1.746-6.547H12.12L10.372,31H9.646
	c0-0.03-0.003-0.061,0.005-0.092l1.723-6.548H1c-0.124,0-0.239-0.063-0.305-0.168s-0.073-0.236-0.02-0.348l11-23
	c0.064-0.135,0.212-0.211,0.357-0.203c0.15,0.013,0.275,0.119,0.315,0.264l3,11c0.002,0.007,0,0.014,0.001,0.021
	c0.005,0.024,0.005,0.048,0.005,0.074c0,0.024,0,0.047-0.004,0.07c-0.001,0.008,0.001,0.015-0.001,0.022L12.309,23.64h1.281
	l2.062-7.732c0.084-0.314,0.611-0.314,0.695,0l2.062,7.732h1.281l-3.039-11.548c-0.002-0.008,0-0.015-0.001-0.022
	c-0.005-0.023-0.004-0.046-0.004-0.07c0-0.025,0-0.049,0.005-0.074c0.001-0.007,0-0.014,0.001-0.021l3-11
	c0.04-0.145,0.165-0.25,0.315-0.264c0.152-0.008,0.292,0.068,0.357,0.203l11,23C31.378,23.956,31.37,24.087,31.305,24.192z
	 M6.771,23.64l6.903-14.792c0.017-0.036,0.042-0.065,0.068-0.092l-0.776-2.844L4.569,23.64H6.771z M1.571,23.64h2.201l8.902-18.794
	c0,0,0-0.001,0.001-0.001l-0.768-2.817L1.571,23.64z M11.565,23.64l3.063-11.638l-0.602-2.205L7.565,23.64H11.565z M17.665,23.64
	L16,17.397l-1.665,6.242L17.665,23.64L17.665,23.64z M27.431,23.64L19.034,5.912l-0.775,2.843c0.026,0.027,0.051,0.056,0.068,0.092
	l6.903,14.792L27.431,23.64L27.431,23.64z M20.435,23.64h3.999l-6.46-13.843l-0.602,2.206L20.435,23.64z M30.429,23.64L20.093,2.028
	l-0.768,2.817c0,0,0,0,0.001,0.001l8.902,18.794C28.228,23.64,30.429,23.64,30.429,23.64z"/>
<rect id="_Transparent_Rectangle" style="fill:none;" width="32" height="32"/>
</svg>
