<svg xmlns="http://www.w3.org/2000/svg" viewBox="0 0 48 48"><polyline fill="none" stroke-linecap="round" stroke-linejoin="round" stroke-miterlimit="10" stroke-width=".72" points="22,9 24,16 26,9"/><path d="M28.353,39c0-0.031,0.003-0.062-0.006-0.093l-4-15c-0.084-0.314-0.611-0.314-0.695,0l-4,15 c-0.008,0.031-0.006,0.062-0.006,0.093h0.726L24,25.397L27.628,39H28.353z"/><line x1="36" x2="27" y1="32" y2="13" fill="none" stroke-linecap="round" stroke-linejoin="round" stroke-miterlimit="10" stroke-width=".72"/><line x1="32" x2="26" y1="32" y2="17" fill="none" stroke-linecap="round" stroke-linejoin="round" stroke-miterlimit="10" stroke-width=".72"/><line x1="12" x2="21" y1="32" y2="13" fill="none" stroke-linecap="round" stroke-linejoin="round" stroke-miterlimit="10" stroke-width=".72"/><polyline fill="none" stroke-linecap="round" stroke-linejoin="round" stroke-miterlimit="10" stroke-width=".72" points="23,20 20,9 9,32 39,32 28,9 25,20"/><line x1="15" x2="22" y1="32" y2="17" fill="none" stroke-linecap="round" stroke-linejoin="round" stroke-miterlimit="10" stroke-width=".72"/><path d="M30.354,39c0-0.03,0.003-0.061-0.005-0.092l-5-19c-0.05-0.19-0.246-0.304-0.44-0.257c-0.192,0.051-0.307,0.248-0.256,0.44 L29.628,39H30.354z"/><path d="M23.092,19.651c-0.194-0.052-0.39,0.065-0.44,0.257l-5,19c-0.008,0.031-0.005,0.062-0.005,0.092h0.726l4.976-18.908 C23.399,19.899,23.284,19.702,23.092,19.651z"/></svg>