<?xml version="1.0" encoding="iso-8859-1"?>
<!-- Generator: Adobe Illustrator 29.1.0, SVG Export Plug-In . SVG Version: 9.03 Build 55587)  -->
<svg version="1.1" id="Layer_1" xmlns="http://www.w3.org/2000/svg" xmlns:xlink="http://www.w3.org/1999/xlink" x="0px" y="0px"
	 viewBox="0 0 32 32" style="enable-background:new 0 0 32 32;" xml:space="preserve">
<path id="sap--successfactors_00000158724154237178909050000004101013890443844513_" d="M24.36,31h-0.72v-7.5
	c0-3.552-2.414-6.604-5.872-7.424c-0.15-0.036-0.261-0.163-0.275-0.316c-0.015-0.154,0.071-0.3,0.212-0.363
	c1.479-0.659,2.436-2.188,2.436-3.897c0-2.321-1.818-4.14-4.14-4.14s-4.14,1.819-4.14,4.14c0,1.708,0.956,3.238,2.436,3.897
	c0.141,0.063,0.226,0.209,0.212,0.363c-0.014,0.153-0.125,0.281-0.275,0.316c-3.458,0.82-5.873,3.872-5.873,7.424V31H7.64v-7.5
	c0-3.594,2.26-6.722,5.592-7.881c-1.293-0.904-2.092-2.439-2.092-4.119c0-1.972,1.118-3.634,2.768-4.403
	C14.062,6.678,14.14,6.142,14.14,5.5c0-2.321-1.819-4.14-4.14-4.14S5.86,3.179,5.86,5.5c0,1.708,0.956,3.238,2.436,3.897
	C8.437,9.46,8.522,9.606,8.507,9.76c-0.014,0.153-0.125,0.281-0.275,0.316C4.774,10.896,2.36,13.948,2.36,17.5V25H1.64v-7.5
	c0-3.594,2.26-6.722,5.592-7.881C5.939,8.715,5.14,7.18,5.14,5.5c0-2.725,2.135-4.86,4.86-4.86s4.86,2.135,4.86,4.86
	c0,0.487-0.04,0.917-0.12,1.299c0.801-0.208,1.719-0.208,2.521,0C17.18,6.417,17.14,5.987,17.14,5.5c0-2.725,2.135-4.86,4.86-4.86
	s4.86,2.135,4.86,4.86c0,1.68-0.799,3.215-2.093,4.119c3.333,1.159,5.593,4.287,5.593,7.881V25h-0.72v-7.5
	c0-3.552-2.414-6.604-5.872-7.424c-0.15-0.036-0.261-0.163-0.275-0.316c-0.015-0.154,0.071-0.3,0.212-0.363
	C25.184,8.738,26.14,7.208,26.14,5.5c0-2.321-1.818-4.14-4.14-4.14s-4.14,1.819-4.14,4.14c0,0.642,0.078,1.178,0.231,1.597
	c1.65,0.769,2.769,2.432,2.769,4.403c0,1.68-0.799,3.215-2.093,4.119c3.333,1.159,5.593,4.287,5.593,7.881V31z M16,27.36
	c-0.092,0-0.184-0.035-0.254-0.105l-2.967-2.965c0,0,0,0,0-0.001c-0.397-0.397-0.635-0.972-0.638-1.537
	c-0.002-0.549,0.218-1.06,0.638-1.479c0.407-0.406,0.941-0.631,1.504-0.633c0.002,0,0.003,0,0.005,0
	c0.565,0,1.101,0.225,1.508,0.634l0.207,0.213l0.211-0.213c0.817-0.815,2.202-0.817,3.018-0.001
	c0.427,0.426,0.638,0.926,0.628,1.484c-0.011,0.577-0.245,1.15-0.628,1.533l-2.979,2.965C16.184,27.325,16.092,27.36,16,27.36z
	 M13.287,23.78L16,26.491l2.723-2.711c0.25-0.25,0.409-0.647,0.416-1.036c0.007-0.361-0.129-0.676-0.416-0.962
	c-0.545-0.545-1.456-0.544-1.999-0.001l-0.469,0.473c-0.067,0.068-0.16,0.106-0.255,0.106c0,0-0.001,0-0.002,0
	c-0.097-0.001-0.189-0.04-0.256-0.109l-0.459-0.473c-0.268-0.269-0.623-0.418-0.995-0.418c-0.001,0-0.002,0-0.003,0
	c-0.372,0-0.726,0.15-0.998,0.422c-0.285,0.284-0.429,0.609-0.427,0.966C12.862,23.123,13.025,23.519,13.287,23.78L13.287,23.78z"/>
<rect id="_Transparent_Rectangle" style="fill:none;" width="32" height="32"/>
</svg>
