<?xml version="1.0" encoding="iso-8859-1"?>
<!-- Generator: Adobe Illustrator 22.0.0, SVG Export Plug-In . SVG Version: 6.00 Build 0)  -->
<svg version="1.1" xmlns="http://www.w3.org/2000/svg" xmlns:xlink="http://www.w3.org/1999/xlink" x="0px" y="0px"
	 viewBox="0 0 48 48" style="enable-background:new 0 0 48 48;" xml:space="preserve">
<g id="satellite">
	<g id="satellite_1_">
		<path style="fill:none;stroke:#000000;stroke-width:0.72;stroke-linejoin:round;stroke-miterlimit:10;" d="M35.683,13.592
			l-5.134,2.961l-0.581,1.976l2.002,0.485l5.134-2.961L35.683,13.592z M34.47,14.342l-3.075-5.343l-2.461,1.421l3.075,5.343
			 M29.968,18.529c-0.6-1.04-1.93-1.396-2.97-0.796l2.174,3.766C30.212,20.899,30.568,19.569,29.968,18.529z M28.06,19.577
			l-1.059,0.611 M33.46,18.213l3.074,5.315L39,22.107l-3.079-5.315 M31,38c3.784-2.193,5.999-5.921,6-10"/>
		<path style="fill:none;stroke:#000000;stroke-width:0.72;stroke-linecap:round;stroke-linejoin:round;stroke-miterlimit:10;" d="
			M18.289,20.003l1.404,2.433c0.181,0.313,0.122,0.709-0.142,0.956l-2.398,2.212c-0.264,0.247-0.323,0.642-0.143,0.955l3.648,6.335
			c0.18,0.312,0.122,0.706-0.14,0.953l-4.947,4.694 M13.751,37.73l1.677-2.901c0.139-0.24,0.139-0.537,0-0.777l-0.911-1.578
			c-0.18-0.312-0.122-0.707,0.141-0.954l1.379-1.297c0.263-0.247,0.321-0.642,0.141-0.955l-1.029-1.782
			c-0.139-0.24-0.395-0.388-0.673-0.388h-2.505c-0.277,0-0.533-0.147-0.672-0.387l-1.081-1.862 M25.878,23.576l-1.953,3.402
			c-0.138,0.24-0.138,0.535,0,0.774l1.516,2.636c0.139,0.241,0.395,0.389,0.673,0.389h1.784 M18.5,20C13.253,20,9,24.253,9,29.5
			s4.253,9.5,9.5,9.5s9.5-4.253,9.5-9.5S23.747,20,18.5,20z"/>
		<g>
			
				<line style="fill:none;stroke:#000000;stroke-width:0.72;stroke-linecap:round;stroke-linejoin:round;stroke-miterlimit:10;" x1="17.293" y1="9.293" x2="18.707" y2="10.707"/>
			
				<line style="fill:none;stroke:#000000;stroke-width:0.72;stroke-linecap:round;stroke-linejoin:round;stroke-miterlimit:10;" x1="17.293" y1="10.707" x2="18.707" y2="9.293"/>
		</g>
		<g>
			
				<line style="fill:none;stroke:#000000;stroke-width:0.72;stroke-linecap:round;stroke-linejoin:round;stroke-miterlimit:10;" x1="9.293" y1="15.293" x2="10.707" y2="16.707"/>
			
				<line style="fill:none;stroke:#000000;stroke-width:0.72;stroke-linecap:round;stroke-linejoin:round;stroke-miterlimit:10;" x1="9.293" y1="16.707" x2="10.707" y2="15.293"/>
		</g>
	</g>
</g>
<g id="Layer_1">
</g>
</svg>
