<?xml version="1.0" encoding="iso-8859-1"?>
<!-- Generator: Adobe Illustrator 26.3.1, SVG Export Plug-In . SVG Version: 6.00 Build 0)  -->
<svg version="1.1" id="Layer_1" xmlns="http://www.w3.org/2000/svg" xmlns:xlink="http://www.w3.org/1999/xlink" x="0px" y="0px"
	 viewBox="0 0 32 32" style="enable-background:new 0 0 32 32;" xml:space="preserve">
<path id="save-time_00000113343986945519778870000004443442033660473999_" d="M26,31.36H6v-0.72h1.64v-7.812
	c0-0.621,0.252-1.229,0.691-1.669l4.707-4.707c0.121-0.121,0.188-0.282,0.188-0.453s-0.067-0.332-0.188-0.453L8.332,10.84
	C7.886,10.395,7.64,9.802,7.64,9.171V1.36H6V0.64h20v0.72h-1.64v7.812c0,0.63-0.246,1.223-0.691,1.669l-4.707,4.707
	c-0.121,0.121-0.188,0.282-0.188,0.453c0,0.171,0.066,0.332,0.188,0.453l4.707,4.707c0.439,0.439,0.691,1.048,0.691,1.669v7.812H26
	V31.36z M8.36,30.64h15.28v-7.812c0-0.432-0.175-0.854-0.48-1.159l-4.707-4.708c-0.257-0.257-0.398-0.598-0.398-0.961
	s0.142-0.705,0.398-0.961l4.707-4.707c0.311-0.31,0.48-0.722,0.48-1.16V1.36H8.36v7.812c0,0.438,0.171,0.85,0.48,1.16l4.707,4.707
	c0.257,0.257,0.398,0.598,0.398,0.961s-0.141,0.705-0.398,0.961L8.84,21.669c-0.305,0.305-0.48,0.728-0.48,1.159
	C8.36,22.828,8.36,30.64,8.36,30.64z M20,28.36c-0.75,0-1.36-0.61-1.36-1.36s0.61-1.36,1.36-1.36s1.36,0.61,1.36,1.36
	S20.75,28.36,20,28.36z M20,26.36c-0.353,0-0.64,0.287-0.64,0.64s0.287,0.64,0.64,0.64s0.64-0.287,0.64-0.64S20.353,26.36,20,26.36z
	 M16,28.36c-0.75,0-1.36-0.61-1.36-1.36s0.61-1.36,1.36-1.36s1.36,0.61,1.36,1.36S16.75,28.36,16,28.36z M16,26.36
	c-0.353,0-0.64,0.287-0.64,0.64s0.287,0.64,0.64,0.64s0.64-0.287,0.64-0.64S16.353,26.36,16,26.36z M12,28.36
	c-0.75,0-1.36-0.61-1.36-1.36s0.61-1.36,1.36-1.36s1.36,0.61,1.36,1.36S12.75,28.36,12,28.36z M12,26.36
	c-0.353,0-0.64,0.287-0.64,0.64s0.287,0.64,0.64,0.64s0.64-0.287,0.64-0.64S12.353,26.36,12,26.36z M18,25.36
	c-0.75,0-1.36-0.61-1.36-1.36s0.61-1.36,1.36-1.36s1.36,0.61,1.36,1.36S18.75,25.36,18,25.36z M18,23.36
	c-0.353,0-0.64,0.287-0.64,0.64s0.287,0.64,0.64,0.64s0.64-0.287,0.64-0.64S18.353,23.36,18,23.36z M14,25.36
	c-0.75,0-1.36-0.61-1.36-1.36s0.61-1.36,1.36-1.36s1.36,0.61,1.36,1.36S14.75,25.36,14,25.36z M14,23.36
	c-0.353,0-0.64,0.287-0.64,0.64s0.287,0.64,0.64,0.64s0.64-0.287,0.64-0.64S14.353,23.36,14,23.36z M16,22.36
	c-0.75,0-1.36-0.61-1.36-1.36s0.61-1.36,1.36-1.36s1.36,0.61,1.36,1.36S16.75,22.36,16,22.36z M16,20.36
	c-0.353,0-0.64,0.287-0.64,0.64s0.287,0.64,0.64,0.64s0.64-0.287,0.64-0.64S16.353,20.36,16,20.36z M16,17.36
	c-0.75,0-1.36-0.61-1.36-1.36s0.61-1.36,1.36-1.36s1.36,0.61,1.36,1.36S16.75,17.36,16,17.36z M16,15.36
	c-0.353,0-0.64,0.287-0.64,0.64s0.287,0.64,0.64,0.64s0.64-0.287,0.64-0.64S16.353,15.36,16,15.36z M16,13.36
	c-0.75,0-1.36-0.61-1.36-1.36s0.61-1.36,1.36-1.36s1.36,0.61,1.36,1.36S16.75,13.36,16,13.36z M16,11.36
	c-0.353,0-0.64,0.287-0.64,0.64s0.287,0.64,0.64,0.64s0.64-0.287,0.64-0.64S16.353,11.36,16,11.36z"/>
<rect id="_Transparent_Rectangle" style="fill:none;" width="32" height="32"/>
</svg>
