<svg xmlns="http://www.w3.org/2000/svg" viewBox="0 0 48 48"><path d="M14.5,20.5c0,0.552-0.448,1-1,1c-0.552,0-1-0.448-1-1c0-0.552,0.448-1,1-1C14.052,19.5,14.5,19.948,14.5,20.5 M14.5,27.5 c0-0.552-0.448-1-1-1c-0.552,0-1,0.448-1,1c0,0.552,0.448,1,1,1C14.052,28.5,14.5,28.052,14.5,27.5 M14.5,34.5 c0-0.552-0.448-1-1-1c-0.552,0-1,0.448-1,1c0,0.552,0.448,1,1,1C14.052,35.5,14.5,35.052,14.5,34.5 M21.5,27.5 c0-0.552-0.448-1-1-1c-0.552,0-1,0.448-1,1c0,0.552,0.448,1,1,1C21.052,28.5,21.5,28.052,21.5,27.5 M21.5,34.5 c0-0.552-0.448-1-1-1c-0.552,0-1,0.448-1,1c0,0.552,0.448,1,1,1C21.052,35.5,21.5,35.052,21.5,34.5 M28.5,34.5 c0-0.552-0.448-1-1-1c-0.552,0-1,0.448-1,1c0,0.552,0.448,1,1,1C28.052,35.5,28.5,35.052,28.5,34.5"/><path fill="none" stroke-linejoin="round" stroke-miterlimit="10" stroke-width=".72" d="M38,38H10V10h28V38z M10,24h28 M10,17h28 M10,31h28 M24,10v28 M17,10v28 M31,10v28"/></svg>