<?xml version="1.0" encoding="iso-8859-1"?>
<!-- Generator: Adobe Illustrator 24.3.0, SVG Export Plug-In . SVG Version: 6.00 Build 0)  -->
<svg version="1.1" id="Layer_1" xmlns="http://www.w3.org/2000/svg" xmlns:xlink="http://www.w3.org/1999/xlink" x="0px" y="0px"
	 viewBox="0 0 32 32" style="enable-background:new 0 0 32 32;" xml:space="preserve">
<path id="scatter--matrix_1_" d="M6.5,12.5c0,0.552-0.448,1-1,1s-1-0.448-1-1s0.448-1,1-1S6.5,11.948,6.5,12.5 M6.5,19.5
	c0-0.552-0.448-1-1-1s-1,0.448-1,1s0.448,1,1,1S6.5,20.052,6.5,19.5 M6.5,26.5c0-0.552-0.448-1-1-1s-1,0.448-1,1s0.448,1,1,1
	S6.5,27.052,6.5,26.5 M13.5,19.5c0-0.552-0.448-1-1-1s-1,0.448-1,1s0.448,1,1,1S13.5,20.052,13.5,19.5 M13.5,26.5
	c0-0.552-0.448-1-1-1s-1,0.448-1,1s0.448,1,1,1S13.5,27.052,13.5,26.5 M20.5,26.5c0-0.552-0.448-1-1-1s-1,0.448-1,1s0.448,1,1,1
	S20.5,27.052,20.5,26.5 M30,30.36H2c-0.199,0-0.36-0.161-0.36-0.36V2c0-0.199,0.161-0.36,0.36-0.36h28c0.199,0,0.36,0.161,0.36,0.36
	v28C30.36,30.199,30.199,30.36,30,30.36z M23.36,29.64h6.279v-6.28H23.36V29.64z M16.36,29.64h6.28v-6.28h-6.28V29.64z M9.36,29.64
	h6.28v-6.28H9.36V29.64z M2.36,29.64h6.28v-6.28H2.36V29.64z M23.36,22.64h6.279v-6.28H23.36V22.64z M16.36,22.64h6.28v-6.28h-6.28
	V22.64z M9.36,22.64h6.28v-6.28H9.36V22.64z M2.36,22.64h6.28v-6.28H2.36V22.64z M23.36,15.64h6.279V9.36H23.36V15.64z M16.36,15.64
	h6.28V9.36h-6.28V15.64z M9.36,15.64h6.28V9.36H9.36V15.64z M2.36,15.64h6.28V9.36H2.36V15.64z M23.36,8.64h6.279V2.36H23.36V8.64z
	 M16.36,8.64h6.28V2.36h-6.28V8.64z M9.36,8.64h6.28V2.36H9.36V8.64z M2.36,8.64h6.28V2.36H2.36V8.64z"/>
<rect id="_Transparent_Rectangle" style="fill:none;" width="32" height="32"/>
</svg>
