<?xml version="1.0" encoding="iso-8859-1"?>
<!-- Generator: Adobe Illustrator 24.1.2, SVG Export Plug-In . SVG Version: 6.00 Build 0)  -->
<svg version="1.1" id="Layer_1" xmlns="http://www.w3.org/2000/svg" xmlns:xlink="http://www.w3.org/1999/xlink" x="0px" y="0px"
	 viewBox="0 0 32 32" style="enable-background:new 0 0 32 32;" xml:space="preserve">
<path id="scatter--matrix_1_" d="M6.5,12.5c0,0.6-0.4,1-1,1s-1-0.4-1-1s0.4-1,1-1S6.5,11.9,6.5,12.5 M6.5,19.5c0-0.6-0.4-1-1-1
	s-1,0.4-1,1s0.4,1,1,1S6.5,20.1,6.5,19.5 M6.5,26.5c0-0.6-0.4-1-1-1s-1,0.4-1,1s0.4,1,1,1S6.5,27.1,6.5,26.5 M13.5,19.5
	c0-0.6-0.4-1-1-1s-1,0.4-1,1s0.4,1,1,1S13.5,20.1,13.5,19.5 M13.5,26.5c0-0.6-0.4-1-1-1s-1,0.4-1,1s0.4,1,1,1S13.5,27.1,13.5,26.5
	 M20.5,26.5c0-0.6-0.4-1-1-1s-1,0.4-1,1s0.4,1,1,1S20.5,27.1,20.5,26.5 M30,30.4H2c-0.2,0-0.4-0.2-0.4-0.4V2c0-0.2,0.2-0.4,0.4-0.4
	h28c0.2,0,0.4,0.2,0.4,0.4v28C30.4,30.2,30.2,30.4,30,30.4z M23.4,29.6h6.3v-6.3h-6.3C23.4,23.3,23.4,29.6,23.4,29.6z M16.4,29.6
	h6.3v-6.3h-6.3C16.4,23.3,16.4,29.6,16.4,29.6z M9.4,29.6h6.3v-6.3H9.4V29.6z M2.4,29.6h6.3v-6.3H2.4V29.6z M23.4,22.6h6.3v-6.3
	h-6.3C23.4,16.3,23.4,22.6,23.4,22.6z M16.4,22.6h6.3v-6.3h-6.3C16.4,16.3,16.4,22.6,16.4,22.6z M9.4,22.6h6.3v-6.3H9.4V22.6z
	 M2.4,22.6h6.3v-6.3H2.4V22.6z M23.4,15.6h6.3V9.4h-6.3C23.4,9.4,23.4,15.6,23.4,15.6z M16.4,15.6h6.3V9.4h-6.3
	C16.4,9.4,16.4,15.6,16.4,15.6z M9.4,15.6h6.3V9.4H9.4V15.6z M2.4,15.6h6.3V9.4H2.4V15.6z M23.4,8.6h6.3V2.4h-6.3
	C23.4,2.4,23.4,8.6,23.4,8.6z M16.4,8.6h6.3V2.4h-6.3C16.4,2.4,16.4,8.6,16.4,8.6z M9.4,8.6h6.3V2.4H9.4V8.6z M2.4,8.6h6.3V2.4H2.4
	V8.6z"/>
<rect id="_Transparent_Rectangle" style="fill:none;" width="32" height="32"/>
</svg>
