<?xml version="1.0" encoding="iso-8859-1"?>
<!-- Generator: Adobe Illustrator 27.5.0, SVG Export Plug-In . SVG Version: 6.00 Build 0)  -->
<svg version="1.1" id="Layer_1" xmlns="http://www.w3.org/2000/svg" xmlns:xlink="http://www.w3.org/1999/xlink" x="0px" y="0px"
	 viewBox="0 0 32 32" style="enable-background:new 0 0 32 32;" xml:space="preserve">
<path id="scientific--research_00000089543667310927235660000009092157141170577561_" d="M26,31.36H6c-1.301,0-2.36-1.059-2.36-2.36
	c0-0.37,0.083-0.725,0.248-1.053l8.752-15.044V1.36H11V0.64h10v0.72h-1.64v11.543l8.742,15.025c0.175,0.349,0.258,0.703,0.258,1.072
	C28.36,30.302,27.302,31.36,26,31.36z M9.134,20.36L4.52,28.289C4.417,28.497,4.36,28.743,4.36,29c0,0.904,0.736,1.64,1.64,1.64h20
	c0.904,0,1.64-0.735,1.64-1.64c0-0.257-0.058-0.503-0.171-0.731l-4.603-7.908L9.134,20.36L9.134,20.36z M9.553,19.64h12.894
	l-3.759-6.458C18.657,13.126,18.64,13.063,18.64,13V1.36h-5.28v2.28H16v0.72h-2.64v2.28H16v0.72h-2.64v2.28H16v0.72h-2.64V13
	c0,0.063-0.017,0.126-0.049,0.181L9.553,19.64z M21,26.36c-0.75,0-1.36-0.61-1.36-1.36s0.61-1.36,1.36-1.36s1.36,0.61,1.36,1.36
	S21.75,26.36,21,26.36z M21,24.36c-0.353,0-0.64,0.287-0.64,0.64s0.287,0.64,0.64,0.64s0.64-0.287,0.64-0.64S21.353,24.36,21,24.36z
	 M16,26.36c-0.75,0-1.36-0.61-1.36-1.36s0.61-1.36,1.36-1.36s1.36,0.61,1.36,1.36S16.75,26.36,16,26.36z M16,24.36
	c-0.353,0-0.64,0.287-0.64,0.64s0.287,0.64,0.64,0.64s0.64-0.287,0.64-0.64S16.353,24.36,16,24.36z M11,26.36
	c-0.75,0-1.36-0.61-1.36-1.36s0.61-1.36,1.36-1.36s1.36,0.61,1.36,1.36S11.75,26.36,11,26.36z M11,24.36
	c-0.353,0-0.64,0.287-0.64,0.64s0.287,0.64,0.64,0.64s0.64-0.287,0.64-0.64S11.353,24.36,11,24.36z"/>
<rect id="_Transparent_Rectangle" style="fill:none;" width="32" height="32"/>
</svg>
