<?xml version="1.0" encoding="UTF-8"?>
<svg id="Layer_1" data-name="Layer 1" xmlns="http://www.w3.org/2000/svg" width="32" height="32" viewBox="0 0 32 32">
  <defs>
    <style>
      .cls-1 {
        fill: none;
      }
    </style>
  </defs>
  <path id="sea-shell" d="M7.4365,27.3594h-.0747c-.0015-.001-.0029-.001-.0049-.001-2.8091-.082-5.1987-2.2754-5.5732-5.1094C.6694,13.8213,6.0142,5.9775,14.2158,4.0044c3.3984-.8179,6.9131-.2563,9.8965,1.5796,3.0225,1.8594,5.1377,4.7979,5.957,8.2744,1.3535,5.7422-2.1709,11.5264-7.8574,12.8936-2.2109.5342-4.4941.168-6.4321-1.0254-.8735-.5371-1.6304-1.2139-2.2485-1.998-.686,1.1104-2.6265,3.6309-6.0947,3.6309ZM7.3804,26.6387h.0005c.0195.001.0396.001.0591.001,3.4229,0,5.2295-2.832,5.6323-3.5518-.4692-.7246-.8311-1.5234-1.0698-2.377-.4385-1.0244-1.6738-1.7324-3.3945-1.9434-2.4653-.2969-5.1172.5127-6.2378,1.9023.0195.4922.0615.9873.1274,1.4854.3291,2.4912,2.4282,4.418,4.8828,4.4834ZM16.2085,25.1445c1.7632,1.0674,3.8335,1.3887,5.8354.9082,1.4414-.3467,2.7334-.998,3.8262-1.8701-2.1768-.2627-3.8516-1.4609-4.2129-3.0166-.3799.2256-.7979.3984-1.249.5068-.9609.2314-1.9531.0723-2.7949-.4453-.0947-.0586-.1855-.1201-.2734-.1855-.7471.4355-2.2295,1.6602-1.1313,4.1025ZM12.5591,17.5205c-.1685.8564-.1616,1.7607.0513,2.6641.397,1.6855,1.3052,3.1582,2.5991,4.2451-.4126-1.8281.4619-3.1611,1.5767-3.8916-.4131-.4619-.7075-1.0234-.8545-1.6455-.1157-.4922-.1069-.9863.0068-1.4463-.0879-.166-.4434-.4697-.9956-.6245-.5161-.1445-1.501-.2397-2.3838.6987ZM22.3115,20.6943c.124,1.5371,1.998,2.7695,4.3125,2.8203,2.3799-2.334,3.541-5.8193,2.7852-9.3096-.71,2.3364-2.8555,3.9434-5.627,4.0664-.2256.9414-.7422,1.793-1.4707,2.4229ZM18.7725,15.8433c-.1377,0-.2773.0166-.416.0498-1.248.3003-2.021,1.5718-1.7236,2.8335.187.7939.6689,1.4639,1.3574,1.8877.6797.418,1.4785.5449,2.25.3594,2.0586-.4961,3.334-2.5928,2.8428-4.6729-.3047-1.2915-1.0898-2.3828-2.2119-3.0732-.6084-.3745-1.2773-.606-1.9648-.688.002.0034.0039.0063.0059.0098.4238.6836.4854,1.6758.1855,2.5952.3428.0454.6758.1631.9795.3501.5742.354.9775.9131,1.1328,1.5747l-.7012.1641c-.1113-.4731-.3984-.873-.8096-1.126-.2832-.1743-.6025-.2642-.9268-.2642ZM5.1738,11.0073c-1.7251,2.4878-2.7363,5.4766-2.812,8.6411,1.5825-1.3652,4.2437-1.8525,6.3335-1.5947,1.2646.1543,2.3105.5625,3.0425,1.166-.1074-1.5439.3027-3.0435,1.1035-4.2886-.0439-1.0752-.8086-2.1689-2.1128-3.0151-1.7993-1.1675-4.0713-1.5366-5.5547-.9087ZM21.4707,12.7583c1.168.7949,1.9854,1.9849,2.3135,3.3774.1113.4731.1455.9473.1113,1.4082,2.8994-.1934,4.9873-2.2207,5.0449-4.9565-.7451-2.0562-1.9961-3.8589-3.6494-5.2622-.2764,2.6528-1.832,4.8242-3.8203,5.4331ZM14.2871,16.0127c.3579,0,.6562.0615.8501.1157.4355.1221.8184.3262,1.0938.5674.4004-.73,1.0913-1.2944,1.9575-1.5029.0449-.0107.0898-.02.1348-.0283.3799-.896.2637-1.7744-.0234-2.2358-.1533-.2476-.3467-.3765-.5752-.3828-.1748.0225-.3486.0542-.5225.0962-2.0093.4834-3.5571,1.9116-4.292,3.708.4907-.2583.9717-.3374,1.377-.3374ZM6.8179,9.9907c1.4038,0,2.9775.4609,4.3027,1.3213,1.21.7852,2.0176,1.7812,2.3149,2.8242.9102-1.0522,2.1396-1.8398,3.583-2.1904.4482-1.1875.1445-3.0317-.7671-4.5684-.8164-1.3765-1.937-2.2212-3.083-2.3291-2.9395.9604-5.4365,2.7319-7.2876,5.0166.2998-.0498.6143-.0742.937-.0742ZM18.3428,11.7856c.7227,0,1.4365.1421,2.1094.4209,2.207-.0786,4.0371-2.4736,4.1562-5.4209-.2812-.207-.5723-.4033-.873-.5884-2.791-1.7178-6.0732-2.2559-9.2563-1.5151.9097.4326,1.7432,1.2349,2.3916,2.3276.9399,1.585,1.2876,3.4268.9429,4.8013.1768-.0166.3525-.0254.5293-.0254Z"/>
  <rect id="Transparent_Rectangle" data-name="Transparent Rectangle" class="cls-1" width="32" height="32"/>
</svg>