<?xml version="1.0" encoding="iso-8859-1"?>
<!-- Generator: Adobe Illustrator 24.1.2, SVG Export Plug-In . SVG Version: 6.00 Build 0)  -->
<svg version="1.1" id="Layer_1" xmlns="http://www.w3.org/2000/svg" xmlns:xlink="http://www.w3.org/1999/xlink" x="0px" y="0px"
	 viewBox="0 0 32 32" style="enable-background:new 0 0 32 32;" xml:space="preserve">
<path id="secure--profile_1_" d="M23.14,25.415v-1.988c-0.373-0.145-0.64-0.503-0.64-0.927c0-0.552,0.448-1,1-1s1,0.448,1,1
	c0,0.424-0.266,0.782-0.64,0.927v1.988c0,0.199-0.161,0.36-0.36,0.36S23.14,25.614,23.14,25.415z M31.36,16v15
	c0,0.199-0.161,0.36-0.36,0.36H16c-0.199,0-0.36-0.161-0.36-0.36V19h0.72v11.64h14.28V16.36H1c-0.199,0-0.36-0.161-0.36-0.36V1
	c0-0.199,0.161-0.36,0.36-0.36h15c0.199,0,0.36,0.161,0.36,0.36v12h-0.72V1.36H1.36v14.28h2.28v-2.639
	c0-1.926,1.166-3.659,2.908-4.427C5.978,8.04,5.643,7.293,5.643,6.5c0-1.577,1.283-2.86,2.86-2.86s2.86,1.283,2.86,2.86
	c0,0.794-0.335,1.542-0.907,2.075c1.74,0.77,2.904,2.502,2.904,4.426v2.639h6.28V11.5c0-2.128,1.731-3.86,3.859-3.86
	c2.129,0,3.861,1.731,3.861,3.86l-0.001,4.14H31C31.199,15.64,31.36,15.801,31.36,16z M12.64,13.001c0-1.837-1.25-3.47-3.041-3.97
	c-0.141-0.04-0.244-0.16-0.261-0.306C9.321,8.58,9.395,8.439,9.523,8.369c0.69-0.379,1.12-1.095,1.12-1.869
	c0-1.18-0.96-2.14-2.14-2.14s-2.14,0.96-2.14,2.14c0,0.773,0.429,1.489,1.119,1.868c0.128,0.07,0.201,0.211,0.184,0.357
	C7.648,8.87,7.545,8.991,7.404,9.03C5.612,9.529,4.36,11.162,4.36,13.001v2.639h8.28C12.64,15.64,12.64,13.001,12.64,13.001z
	 M26.64,11.5c0-1.731-1.408-3.14-3.14-3.14s-3.14,1.409-3.14,3.14v4.14h6.278L26.64,11.5z"/>
<rect id="_Transparent_Rectangle" style="fill:none;" width="32" height="32"/>
</svg>
