<?xml version="1.0" encoding="iso-8859-1"?>
<!-- Generator: Adobe Illustrator 27.5.0, SVG Export Plug-In . SVG Version: 6.00 Build 0)  -->
<svg version="1.1" id="Layer_1" xmlns="http://www.w3.org/2000/svg" xmlns:xlink="http://www.w3.org/1999/xlink" x="0px" y="0px"
	 viewBox="0 0 32 32" style="enable-background:new 0 0 32 32;" xml:space="preserve">
<path id="security--groups_00000025414632391131908290000007760096949318355606_" d="M16,31.36C8.082,31.36,1.64,24.918,1.64,17V1
	c0-0.199,0.161-0.36,0.36-0.36h28c0.199,0,0.36,0.161,0.36,0.36v16C30.36,24.918,23.918,31.36,16,31.36z M16.36,9.312v21.324
	c1.499-0.039,2.938-0.321,4.28-0.809V14.312c-0.575-0.158-1-0.686-1-1.312c0-0.75,0.61-1.36,1.36-1.36s1.36,0.61,1.36,1.36
	c0,0.625-0.425,1.153-1,1.312v15.231c4.864-2.087,8.28-6.924,8.28-12.543V1.36H2.36V17c0,5.619,3.416,10.456,8.28,12.543V14.312
	c-0.576-0.158-1-0.686-1-1.312c0-0.75,0.61-1.36,1.36-1.36s1.36,0.61,1.36,1.36c0,0.625-0.424,1.153-1,1.312v15.516
	c1.342,0.487,2.781,0.77,4.28,0.809V9.312c-0.576-0.158-1-0.686-1-1.312c0-0.75,0.61-1.36,1.36-1.36c0.75,0,1.36,0.61,1.36,1.36
	C17.36,8.625,16.936,9.153,16.36,9.312z M21,12.36c-0.353,0-0.64,0.287-0.64,0.64s0.287,0.64,0.64,0.64s0.64-0.287,0.64-0.64
	S21.353,12.36,21,12.36z M11,12.36c-0.353,0-0.64,0.287-0.64,0.64s0.287,0.64,0.64,0.64s0.64-0.287,0.64-0.64S11.353,12.36,11,12.36
	z M16,7.36c-0.353,0-0.64,0.287-0.64,0.64S15.647,8.64,16,8.64c0.353,0,0.64-0.287,0.64-0.64S16.353,7.36,16,7.36z"/>
<rect id="_Transparent_Rectangle" style="fill:none;" width="32" height="32"/>
</svg>
