<?xml version="1.0" encoding="iso-8859-1"?>
<!-- Generator: Adobe Illustrator 27.5.0, SVG Export Plug-In . SVG Version: 6.00 Build 0)  -->
<svg version="1.1" id="Layer_1" xmlns="http://www.w3.org/2000/svg" xmlns:xlink="http://www.w3.org/1999/xlink" x="0px" y="0px"
	 viewBox="0 0 32 32" style="enable-background:new 0 0 32 32;" xml:space="preserve">
<path id="security--management_00000071548761204744707000000014349190675772178608_" d="M16,31.36C8.082,31.36,1.64,24.918,1.64,17
	V1c0-0.199,0.161-0.36,0.36-0.36h28c0.199,0,0.36,0.161,0.36,0.36v16C30.36,24.918,23.918,31.36,16,31.36z M2.36,1.36V17
	c0,7.521,6.119,13.64,13.64,13.64S29.64,24.522,29.64,17V1.36H2.36z M16,22.36c-0.625,0-1.153-0.425-1.312-1H5
	c-0.132,0-0.253-0.072-0.316-0.188c-0.063-0.115-0.058-0.257,0.014-0.367l4.395-6.792C8.815,13.763,8.64,13.402,8.64,13
	c0-0.75,0.61-1.36,1.36-1.36c0.196,0,0.383,0.042,0.552,0.117l5.146-7.953c0.133-0.204,0.472-0.205,0.604,0l5.146,7.953
	c0.169-0.075,0.355-0.117,0.552-0.117c0.75,0,1.36,0.61,1.36,1.36c0,0.401-0.175,0.763-0.453,1.012l4.396,6.792
	c0.071,0.11,0.076,0.252,0.014,0.367C27.253,21.288,27.132,21.36,27,21.36h-9.688C17.153,21.936,16.625,22.36,16,22.36z M16,20.36
	c-0.353,0-0.64,0.287-0.64,0.64s0.287,0.64,0.64,0.64s0.64-0.287,0.64-0.64S16.353,20.36,16,20.36z M17.312,20.64h9.026
	l-4.079-6.304c-0.084,0.016-0.17,0.024-0.259,0.024c-0.75,0-1.36-0.61-1.36-1.36c0-0.291,0.093-0.562,0.249-0.783L16,4.663
	l-4.888,7.555c0.156,0.221,0.248,0.491,0.248,0.782c0,0.75-0.61,1.36-1.36,1.36c-0.088,0-0.175-0.008-0.259-0.024l-4.08,6.304h9.027
	c0.158-0.575,0.686-1,1.312-1S17.153,20.064,17.312,20.64z M21.568,12.528C21.44,12.646,21.36,12.813,21.36,13
	c0,0.445,0.515,0.757,0.898,0.585c0.004-0.001,0.007-0.003,0.011-0.004c0.219-0.102,0.37-0.324,0.37-0.581
	c0-0.353-0.287-0.64-0.64-0.64c-0.157,0-0.302,0.057-0.413,0.152C21.58,12.518,21.574,12.523,21.568,12.528z M9.746,13.587
	c0.382,0.164,0.894-0.145,0.894-0.587c0-0.183-0.077-0.348-0.201-0.465c-0.012-0.009-0.023-0.019-0.033-0.029
	c-0.11-0.091-0.252-0.146-0.406-0.146c-0.353,0-0.64,0.287-0.64,0.64c0,0.255,0.15,0.476,0.366,0.578
	C9.732,13.581,9.739,13.584,9.746,13.587z"/>
<rect id="_Transparent_Rectangle" style="fill:none;" width="32" height="32"/>
</svg>
