<svg xmlns="http://www.w3.org/2000/svg" xmlns:xlink="http://www.w3.org/1999/xlink" viewBox="0 0 48 48"><defs><path id="a" d="M24,39c6,0,11-5,11-11c0-7,0-13,0-13L24,9V39z"/></defs><clipPath id="b"><use overflow="visible" xlink:href="#a"/></clipPath><line x1="23" x2="35" y1="14.457" y2="21" fill="none" stroke-miterlimit="10" stroke-width=".72" clip-path="url(#b)"/><line x1="23" x2="35" y1="20.414" y2="26.957" fill="none" stroke-miterlimit="10" stroke-width=".72" clip-path="url(#b)"/><line x1="23" x2="34" y1="26.457" y2="32.455" fill="none" stroke-miterlimit="10" stroke-width=".72" clip-path="url(#b)"/><line x1="23" x2="30.611" y1="32.5" y2="36.649" fill="none" stroke-miterlimit="10" stroke-width=".72" clip-path="url(#b)"/><path fill="none" stroke-miterlimit="10" stroke-width=".72" d="M24,9l-11,6c0,0,0,8,0,13c0,6,5,11,11,11 s11-5,11-11c0-7,0-13,0-13L24,9z"/></svg>