<?xml version="1.0" encoding="iso-8859-1"?>
<!-- Generator: Adobe Illustrator 24.3.0, SVG Export Plug-In . SVG Version: 6.00 Build 0)  -->
<svg version="1.1" id="Layer_1" xmlns="http://www.w3.org/2000/svg" xmlns:xlink="http://www.w3.org/1999/xlink" x="0px" y="0px"
	 viewBox="0 0 32 32" style="enable-background:new 0 0 32 32;" xml:space="preserve">
<path id="select--range_1_" d="M21,27.36H11v-0.72h10V27.36z M28.36,26h-0.72v-3c0-0.199,0.161-0.36,0.36-0.36h3v0.721h-2.64V26z
	 M26,23.36H4c-0.199,0-0.36-0.161-0.36-0.36V8c0-0.199,0.161-0.36,0.36-0.36h24c0.199,0,0.36,0.161,0.36,0.36v13h-0.72V8.36H4.36
	v14.28H26V23.36z M21,18.36H11v-0.72h10V18.36z M21,13.36H11v-0.72h10V13.36z M21,4.36H11V3.64h10V4.36z"/>
<rect id="_Transparent_Rectangle" style="fill:none;" width="32" height="32"/>
</svg>
