<?xml version="1.0" encoding="iso-8859-1"?>
<!-- Generator: Adobe Illustrator 25.4.1, SVG Export Plug-In . SVG Version: 6.00 Build 0)  -->
<svg version="1.1" id="Layer_1" xmlns="http://www.w3.org/2000/svg" xmlns:xlink="http://www.w3.org/1999/xlink" x="0px" y="0px"
	 viewBox="0 0 32 32" style="enable-background:new 0 0 32 32;" xml:space="preserve">
<path id="seoul--gyeongbokgung-palace_00000126284999617432661510000013342625880765521289_" d="M31,25.36H1v-0.72h30V25.36z
	 M30,23.36H18v-0.72h12V23.36z M14,23.36H2v-0.72h12V23.36z M29,21.36H3v-0.72h1.64v-4.811c-1.271-0.115-2.513-0.269-3.702-0.475
	C0.766,15.325,0.64,15.175,0.64,15v-1c0-0.199,0.161-0.36,0.36-0.36h5.64V9.792C5.408,9.67,4.178,9.525,2.951,9.356
	C2.773,9.332,2.64,9.18,2.64,9V8c0-0.199,0.161-0.36,0.36-0.36h5.777l0.901-1.801c0.07-0.141,0.226-0.218,0.379-0.194
	c1.018,0.166,2.29,0.283,3.177,0.352c1.832,0.144,3.69,0.144,5.522,0c0.896-0.07,2.176-0.188,3.186-0.352
	c0.152-0.025,0.31,0.053,0.38,0.194l0.9,1.801H29c0.199,0,0.36,0.161,0.36,0.36v1c0,0.18-0.133,0.332-0.312,0.356
	C27.82,9.525,26.591,9.67,25.36,9.791v3.849H31c0.199,0,0.36,0.161,0.36,0.36v1c0,0.175-0.126,0.325-0.299,0.354
	c-1.188,0.206-2.431,0.36-3.701,0.475v4.811H29V21.36z M25.36,20.64h1.279v-2.28H25.36V20.64z M23.36,20.64h1.279v-2.28H23.36V20.64
	z M21.36,20.64h1.279v-2.28H21.36V20.64z M19.36,20.64h1.279v-4.497c-0.428,0.007-0.854,0.011-1.279,0.015V20.64z M17.36,20.64
	h1.279v-2.28H17.36V20.64z M15.36,20.64h1.28v-2.28h-1.28V20.64z M13.36,20.64h1.28v-2.28h-1.28V20.64z M11.36,20.64h1.28v-4.482
	c-0.425-0.003-0.852-0.008-1.28-0.014V20.64z M9.36,20.64h1.28v-2.28H9.36V20.64z M7.36,20.64h1.28v-2.28H7.36V20.64z M5.36,20.64
	h1.28v-2.28H5.36V20.64z M21.36,17.64h5.279v-1.75c-1.734,0.136-3.515,0.206-5.279,0.241V17.64z M13.36,17.64h5.28v-1.478
	c-1.789,0.009-3.489,0.008-5.28,0C13.36,16.162,13.36,17.64,13.36,17.64z M5.36,17.64h5.28v-1.51
	c-1.765-0.035-3.545-0.104-5.28-0.241V17.64z M1.36,14.696c4.56,0.751,9.907,0.751,14.636,0.751c4.732,0,10.083,0,14.644-0.751
	V14.36H1.36V14.696z M7.36,13.64h17.28v-1.28H7.36V13.64z M23.36,11.64h1.279V9.859c-0.426,0.039-0.854,0.074-1.279,0.107V11.64z
	 M21.36,11.64h1.279v-1.62c-0.427,0.03-0.853,0.057-1.279,0.081V11.64z M19.36,11.64h1.279v-1.502
	c-0.426,0.021-0.853,0.039-1.279,0.053V11.64z M17.36,11.64h1.279v-1.426c-0.426,0.012-0.854,0.021-1.279,0.026V11.64z M15.36,11.64
	h1.28v-1.392c-0.427,0.003-0.854,0.003-1.28,0V11.64z M13.36,11.64h1.28v-1.399c-0.427-0.006-0.854-0.015-1.28-0.027V11.64z
	 M11.36,11.64h1.28v-1.449c-0.427-0.015-0.854-0.033-1.28-0.054V11.64z M9.36,11.64h1.28V10.1c-0.427-0.024-0.854-0.051-1.28-0.081
	V11.64z M7.36,11.64h1.28V9.967C8.214,9.934,7.786,9.898,7.36,9.859V11.64z M3.36,8.686c8.388,1.126,16.889,1.126,25.28,0V8.36H23
	c-0.137,0-0.261-0.077-0.322-0.199l-0.882-1.765c-0.985,0.147-2.148,0.253-2.982,0.318c-1.869,0.146-3.765,0.146-5.634,0
	c-0.827-0.064-1.984-0.17-2.975-0.318L9.322,8.161C9.261,8.283,9.136,8.36,9,8.36H3.36V8.686z"/>
<rect id="_Transparent_Rectangle" style="fill:none;" width="32" height="32"/>
</svg>
