<?xml version="1.0" encoding="iso-8859-1"?>
<!-- Generator: Adobe Illustrator 24.3.0, SVG Export Plug-In . SVG Version: 6.00 Build 0)  -->
<svg version="1.1" id="Layer_1" xmlns="http://www.w3.org/2000/svg" xmlns:xlink="http://www.w3.org/1999/xlink" x="0px" y="0px"
	 viewBox="0 0 32 32" style="enable-background:new 0 0 32 32;" xml:space="preserve">
<path id="server--operating-systems_1_" d="M29,3.5C29,3.776,28.776,4,28.5,4S28,3.776,28,3.5S28.224,3,28.5,3S29,3.224,29,3.5z
	 M26.5,3C26.224,3,26,3.224,26,3.5S26.224,4,26.5,4S27,3.776,27,3.5S26.776,3,26.5,3z M24.5,3C24.224,3,24,3.224,24,3.5
	S24.224,4,24.5,4S25,3.776,25,3.5S24.776,3,24.5,3z M31,30.36H1c-0.199,0-0.36-0.161-0.36-0.36V2c0-0.199,0.161-0.36,0.36-0.36h30
	c0.199,0,0.36,0.161,0.36,0.36v28C31.36,30.199,31.199,30.36,31,30.36z M1.36,29.64h29.28V5.36H1.36V29.64z M1.36,4.64h29.28V2.36
	H1.36V4.64z M17.5,25.36h-3c-0.199,0-0.36-0.161-0.36-0.36v-1.925c-0.388-0.117-0.763-0.273-1.121-0.464l-1.361,1.361
	c-0.067,0.067-0.159,0.105-0.254,0.105l0,0c-0.096,0-0.187-0.038-0.254-0.105L9.029,21.85c-0.141-0.141-0.141-0.369,0-0.51
	l1.36-1.359c-0.19-0.357-0.345-0.733-0.464-1.121H8c-0.199,0-0.36-0.161-0.36-0.36v-3c0-0.199,0.161-0.36,0.36-0.36h1.924
	c0.119-0.389,0.274-0.764,0.464-1.122l-1.36-1.36c-0.141-0.141-0.141-0.368,0-0.509l2.121-2.122c0.135-0.136,0.374-0.136,0.509,0
	l1.361,1.36c0.357-0.19,0.732-0.345,1.121-0.464V9c0-0.199,0.161-0.36,0.36-0.36h3c0.199,0,0.36,0.161,0.36,0.36v1.924
	c0.388,0.119,0.764,0.274,1.121,0.464l1.359-1.36c0.135-0.136,0.373-0.136,0.51,0l2.122,2.122c0.067,0.067,0.105,0.159,0.105,0.254
	s-0.038,0.187-0.105,0.254l-1.361,1.36c0.19,0.356,0.346,0.732,0.465,1.122H24c0.199,0,0.36,0.161,0.36,0.36v3
	c0,0.199-0.161,0.36-0.36,0.36h-1.924c-0.119,0.389-0.274,0.764-0.465,1.121l1.361,1.359c0.067,0.067,0.105,0.159,0.105,0.255
	s-0.038,0.188-0.105,0.255l-2.122,2.122c-0.067,0.067-0.159,0.105-0.255,0.105l0,0c-0.096,0-0.188-0.038-0.255-0.105l-1.359-1.361
	c-0.359,0.19-0.734,0.347-1.121,0.464V25C17.86,25.199,17.699,25.36,17.5,25.36z M14.86,24.64h2.28v-1.837
	c0-0.164,0.111-0.308,0.271-0.349c0.508-0.13,0.995-0.332,1.45-0.6c0.141-0.085,0.321-0.062,0.438,0.055l1.298,1.3l1.613-1.613
	l-1.3-1.298c-0.116-0.116-0.139-0.297-0.055-0.438c0.267-0.45,0.469-0.938,0.601-1.449c0.041-0.159,0.185-0.271,0.349-0.271h1.836
	v-2.28h-1.836c-0.164,0-0.308-0.111-0.349-0.27c-0.132-0.512-0.334-1-0.601-1.449c-0.084-0.142-0.062-0.322,0.055-0.438l1.3-1.299
	l-1.613-1.612l-1.298,1.298c-0.116,0.115-0.297,0.139-0.438,0.056c-0.452-0.267-0.939-0.468-1.45-0.6
	c-0.159-0.041-0.271-0.185-0.271-0.349V9.36h-2.28v1.837c0,0.164-0.111,0.308-0.27,0.349c-0.511,0.132-0.999,0.334-1.45,0.6
	c-0.142,0.084-0.321,0.061-0.438-0.056l-1.299-1.298l-1.612,1.612l1.298,1.299c0.116,0.116,0.139,0.296,0.056,0.438
	c-0.266,0.451-0.468,0.938-0.6,1.45c-0.041,0.159-0.185,0.27-0.349,0.27H8.36v2.28h1.837c0.164,0,0.308,0.111,0.349,0.271
	c0.132,0.511,0.333,0.998,0.6,1.45c0.083,0.141,0.061,0.321-0.056,0.438l-1.298,1.298l1.612,1.613l1.299-1.3
	c0.116-0.116,0.295-0.14,0.438-0.055c0.453,0.268,0.941,0.47,1.449,0.6c0.159,0.041,0.271,0.185,0.271,0.349L14.86,24.64
	L14.86,24.64z M16,20.86c-2.128,0-3.86-1.732-3.86-3.86s1.731-3.86,3.86-3.86c2.128,0,3.86,1.731,3.86,3.86
	C19.86,19.128,18.128,20.86,16,20.86z M16,13.86c-1.731,0-3.14,1.409-3.14,3.14s1.409,3.14,3.14,3.14s3.14-1.408,3.14-3.14
	S17.731,13.86,16,13.86z"/>
<rect id="_Transparent_Rectangle" style="fill:none;" width="32" height="32"/>
</svg>
