<?xml version="1.0" encoding="iso-8859-1"?>
<!-- Generator: Adobe Illustrator 27.5.0, SVG Export Plug-In . SVG Version: 6.00 Build 0)  -->
<svg version="1.1" id="Layer_1" xmlns="http://www.w3.org/2000/svg" xmlns:xlink="http://www.w3.org/1999/xlink" x="0px" y="0px"
	 viewBox="0 0 32 32" style="enable-background:new 0 0 32 32;" xml:space="preserve">
<path id="shanghai--cityscape_00000055706985507755272290000009835501836510606780_" d="M30,31.36h-1v-0.72h1V31.36z M28,31.36H14
	v-0.72h14V31.36z M11,29.36H4v-0.72h7V29.36z M3,29.36H2v-0.72h1V29.36z M31,27.36H1v-0.72h2.64V24c0-2.955,2.404-5.36,5.36-5.36
	c0.199,0,0.36,0.161,0.36,0.36v7.64h2.417l1.708-3.414C12.959,22.633,12.64,21.853,12.64,21c0-1.369,0.823-2.549,2-3.072v-6
	c-0.604-0.428-1-1.132-1-1.928c0-1.179,0.869-2.159,2-2.333V5.312c-0.576-0.158-1-0.686-1-1.312s0.424-1.153,1-1.312V1h0.72v1.688
	c0.576,0.158,1,0.686,1,1.312s-0.425,1.153-1,1.312v2.356c1.131,0.174,2,1.154,2,2.333c0,0.795-0.396,1.5-1,1.928v6
	c1.177,0.523,2,1.703,2,3.072c0,0.853-0.319,1.633-0.846,2.226l1.708,3.414h2.417V12c0-0.199,0.161-0.36,0.36-0.36h6
	c0.199,0,0.36,0.161,0.36,0.36v14.64H31V27.36z M23.36,26.64h5.279V12.36H23.36V26.64z M16.36,26.64h3.057l-1.456-2.912
	c-0.461,0.332-1.008,0.55-1.601,0.613V26.64z M12.583,26.64h3.058v-2.299c-0.593-0.063-1.141-0.282-1.601-0.614L12.583,26.64z
	 M4.36,26.64h4.28v-7.266c-2.272,0.175-4.091,1.994-4.266,4.266H7v0.721H4.36V26.64z M13.738,22.36
	c0.463,0.766,1.304,1.279,2.262,1.279s1.8-0.514,2.262-1.279H13.738z M13.438,21.64h5.123c0.051-0.205,0.078-0.419,0.078-0.64
	c0-1.456-1.184-2.64-2.64-2.64s-2.64,1.184-2.64,2.64C13.36,21.221,13.387,21.435,13.438,21.64z M16,17.64
	c0.219,0,0.433,0.021,0.64,0.062V16.36h-1.28v1.341C15.567,17.661,15.781,17.64,16,17.64z M15.36,15.64h1.28v-1.28h-1.28V15.64z
	 M15.36,13.64h1.28v-1.368c-0.407,0.114-0.873,0.114-1.28,0V13.64z M16,8.36c-0.904,0-1.64,0.736-1.64,1.64s0.736,1.64,1.64,1.64
	c0.904,0,1.64-0.736,1.64-1.64S16.904,8.36,16,8.36z M16,3.36c-0.353,0-0.64,0.287-0.64,0.64S15.647,4.64,16,4.64
	c0.353,0,0.64-0.287,0.64-0.64S16.353,3.36,16,3.36z M27,17.36h-2c-0.155,0-0.293-0.1-0.342-0.246l-1-3
	c-0.036-0.11-0.018-0.23,0.05-0.324s0.177-0.15,0.292-0.15h4c0.115,0,0.225,0.056,0.292,0.149s0.086,0.214,0.05,0.324l-1,3
	C27.293,17.261,27.155,17.36,27,17.36z M25.26,16.64h1.48l0.761-2.28h-3.002L25.26,16.64z"/>
<rect id="_Transparent_Rectangle" style="fill:none;" width="32" height="32"/>
</svg>
