<?xml version="1.0" encoding="iso-8859-1"?>
<!-- Generator: Adobe Illustrator 22.0.0, SVG Export Plug-In . SVG Version: 6.00 Build 0)  -->
<svg version="1.1" xmlns="http://www.w3.org/2000/svg" xmlns:xlink="http://www.w3.org/1999/xlink" x="0px" y="0px"
	 viewBox="0 0 48 48" style="enable-background:new 0 0 48 48;" xml:space="preserve">
<g id="shopping_cart">
	<path id="shopping_cart_1_" style="fill:none;stroke:#000000;stroke-width:0.72;stroke-linejoin:round;stroke-miterlimit:10;" d="
		M17,14h22l-1.632,11.287C37.083,27,36.187,28,34.588,28c-1.45,0-15.499,0-15.499,0c-1.809,0-2.795-1.424-3.368-3.685L12,9H9
		 M13.719,16.018l3.214,13.438C17.5,32,18.434,33,20.319,33H37 M20.5,35c-1.105,0-2,0.895-2,2s0.895,2,2,2s2-0.895,2-2
		S21.605,35,20.5,35z M34,35c-1.105,0-2,0.895-2,2s0.895,2,2,2s2-0.895,2-2S35.105,35,34,35z"/>
</g>
<g id="Layer_1">
</g>
</svg>
