<svg xmlns="http://www.w3.org/2000/svg" viewBox="0 0 48 48"><path fill="none" stroke-linejoin="round" stroke-miterlimit="10" stroke-width=".72" d="M39,24H23v-2h16V24z M32,16h-2.001L23,22h16L32,16z M32,16v-5c0-1.105-0.895-2-2-2H13c-1.105,0-2,0.895-2,2v21 M29.999,16L30,12c0-0.552-0.448-1-1-1 H14c-0.552,0-1,0.448-1,1v20 M17,34l-9,0 M11,36v3 M13,36v3"/><path fill="none" stroke-linecap="round" stroke-linejoin="round" stroke-miterlimit="10" stroke-width=".72" d="M25,29v-3 M25,32v-1 M31,29v-3 M31,32v-1 M28,27v-1 M28,32v-3 M28,35v-1 M37,29v-3 M37,32v-1 M34,27v-1 M34,32v-3 M34,35v-1"/></svg>