<?xml version="1.0" encoding="iso-8859-1"?>
<!-- Generator: Adobe Illustrator 29.1.0, SVG Export Plug-In . SVG Version: 9.03 Build 55587)  -->
<svg version="1.1" id="Layer_1" xmlns="http://www.w3.org/2000/svg" xmlns:xlink="http://www.w3.org/1999/xlink" x="0px" y="0px"
	 viewBox="0 0 32 32" style="enable-background:new 0 0 32 32;" xml:space="preserve">
<path id="silicon--wafer_00000020383985087778907140000005492630698682803113_" d="M16,31.36C7.53,31.36,0.64,24.47,0.64,16
	S7.53,0.64,16,0.64S31.36,7.53,31.36,16S24.47,31.36,16,31.36z M16,1.36C7.927,1.36,1.36,7.927,1.36,16
	c0,8.072,6.567,14.64,14.64,14.64c8.072,0,14.64-6.567,14.64-14.64S24.072,1.36,16,1.36z M21,27.36h-2
	c-0.199,0-0.36-0.161-0.36-0.36v-2c0-0.199,0.161-0.36,0.36-0.36h2c0.199,0,0.36,0.161,0.36,0.36v2
	C21.36,27.199,21.199,27.36,21,27.36z M19.36,26.64h1.279v-1.28H19.36V26.64z M17,27.36h-2c-0.199,0-0.36-0.161-0.36-0.36v-2
	c0-0.199,0.161-0.36,0.36-0.36h2c0.199,0,0.36,0.161,0.36,0.36v2C17.36,27.199,17.199,27.36,17,27.36z M15.36,26.64h1.28v-1.28
	h-1.28V26.64z M13,27.36h-2c-0.199,0-0.36-0.161-0.36-0.36v-2c0-0.199,0.161-0.36,0.36-0.36h2c0.199,0,0.36,0.161,0.36,0.36v2
	C13.36,27.199,13.199,27.36,13,27.36z M11.36,26.64h1.28v-1.28h-1.28V26.64z M25,23.36h-2c-0.199,0-0.36-0.161-0.36-0.36v-2
	c0-0.199,0.161-0.36,0.36-0.36h2c0.199,0,0.36,0.161,0.36,0.36v2C25.36,23.199,25.199,23.36,25,23.36z M23.36,22.64h1.279v-1.28
	H23.36V22.64z M21,23.36h-2c-0.199,0-0.36-0.161-0.36-0.36v-2c0-0.199,0.161-0.36,0.36-0.36h2c0.199,0,0.36,0.161,0.36,0.36v2
	C21.36,23.199,21.199,23.36,21,23.36z M19.36,22.64h1.279v-1.28H19.36V22.64z M17,23.36h-2c-0.199,0-0.36-0.161-0.36-0.36v-2
	c0-0.199,0.161-0.36,0.36-0.36h2c0.199,0,0.36,0.161,0.36,0.36v2C17.36,23.199,17.199,23.36,17,23.36z M15.36,22.64h1.28v-1.28
	h-1.28V22.64z M13,23.36h-2c-0.199,0-0.36-0.161-0.36-0.36v-2c0-0.199,0.161-0.36,0.36-0.36h2c0.199,0,0.36,0.161,0.36,0.36v2
	C13.36,23.199,13.199,23.36,13,23.36z M11.36,22.64h1.28v-1.28h-1.28V22.64z M9,23.36H7c-0.199,0-0.36-0.161-0.36-0.36v-2
	c0-0.199,0.161-0.36,0.36-0.36h2c0.199,0,0.36,0.161,0.36,0.36v2C9.36,23.199,9.199,23.36,9,23.36z M7.36,22.64h1.28v-1.28H7.36
	V22.64z M29,19.36h-2c-0.199,0-0.36-0.161-0.36-0.36v-2c0-0.199,0.161-0.36,0.36-0.36h2c0.199,0,0.36,0.161,0.36,0.36v2
	C29.36,19.199,29.199,19.36,29,19.36z M27.36,18.64h1.279v-1.28H27.36V18.64z M25,19.36h-2c-0.199,0-0.36-0.161-0.36-0.36v-2
	c0-0.199,0.161-0.36,0.36-0.36h2c0.199,0,0.36,0.161,0.36,0.36v2C25.36,19.199,25.199,19.36,25,19.36z M23.36,18.64h1.279v-1.28
	H23.36V18.64z M21,19.36h-2c-0.199,0-0.36-0.161-0.36-0.36v-2c0-0.199,0.161-0.36,0.36-0.36h2c0.199,0,0.36,0.161,0.36,0.36v2
	C21.36,19.199,21.199,19.36,21,19.36z M19.36,18.64h1.279v-1.28H19.36V18.64z M17,19.36h-2c-0.199,0-0.36-0.161-0.36-0.36v-2
	c0-0.199,0.161-0.36,0.36-0.36h2c0.199,0,0.36,0.161,0.36,0.36v2C17.36,19.199,17.199,19.36,17,19.36z M15.36,18.64h1.28v-1.28
	h-1.28V18.64z M13,19.36h-2c-0.199,0-0.36-0.161-0.36-0.36v-2c0-0.199,0.161-0.36,0.36-0.36h2c0.199,0,0.36,0.161,0.36,0.36v2
	C13.36,19.199,13.199,19.36,13,19.36z M11.36,18.64h1.28v-1.28h-1.28V18.64z M9,19.36H7c-0.199,0-0.36-0.161-0.36-0.36v-2
	c0-0.199,0.161-0.36,0.36-0.36h2c0.199,0,0.36,0.161,0.36,0.36v2C9.36,19.199,9.199,19.36,9,19.36z M7.36,18.64h1.28v-1.28H7.36
	V18.64z M5,19.36H3c-0.199,0-0.36-0.161-0.36-0.36v-2c0-0.199,0.161-0.36,0.36-0.36h2c0.199,0,0.36,0.161,0.36,0.36v2
	C5.36,19.199,5.199,19.36,5,19.36z M3.36,18.64h1.28v-1.28H3.36V18.64z M29,15.36h-2c-0.199,0-0.36-0.161-0.36-0.36v-2
	c0-0.199,0.161-0.36,0.36-0.36h2c0.199,0,0.36,0.161,0.36,0.36v2C29.36,15.199,29.199,15.36,29,15.36z M27.36,14.64h1.279v-1.28
	H27.36V14.64z M25,15.36h-2c-0.199,0-0.36-0.161-0.36-0.36v-2c0-0.199,0.161-0.36,0.36-0.36h2c0.199,0,0.36,0.161,0.36,0.36v2
	C25.36,15.199,25.199,15.36,25,15.36z M23.36,14.64h1.279v-1.28H23.36V14.64z M21,15.36h-2c-0.199,0-0.36-0.161-0.36-0.36v-2
	c0-0.199,0.161-0.36,0.36-0.36h2c0.199,0,0.36,0.161,0.36,0.36v2C21.36,15.199,21.199,15.36,21,15.36z M19.36,14.64h1.279v-1.28
	H19.36V14.64z M17,15.36h-2c-0.199,0-0.36-0.161-0.36-0.36v-2c0-0.199,0.161-0.36,0.36-0.36h2c0.199,0,0.36,0.161,0.36,0.36v2
	C17.36,15.199,17.199,15.36,17,15.36z M15.36,14.64h1.28v-1.28h-1.28V14.64z M13,15.36h-2c-0.199,0-0.36-0.161-0.36-0.36v-2
	c0-0.199,0.161-0.36,0.36-0.36h2c0.199,0,0.36,0.161,0.36,0.36v2C13.36,15.199,13.199,15.36,13,15.36z M11.36,14.64h1.28v-1.28
	h-1.28V14.64z M9,15.36H7c-0.199,0-0.36-0.161-0.36-0.36v-2c0-0.199,0.161-0.36,0.36-0.36h2c0.199,0,0.36,0.161,0.36,0.36v2
	C9.36,15.199,9.199,15.36,9,15.36z M7.36,14.64h1.28v-1.28H7.36V14.64z M5,15.36H3c-0.199,0-0.36-0.161-0.36-0.36v-2
	c0-0.199,0.161-0.36,0.36-0.36h2c0.199,0,0.36,0.161,0.36,0.36v2C5.36,15.199,5.199,15.36,5,15.36z M3.36,14.64h1.28v-1.28H3.36
	V14.64z M25,11.36h-2c-0.199,0-0.36-0.161-0.36-0.36V9c0-0.199,0.161-0.36,0.36-0.36h2c0.199,0,0.36,0.161,0.36,0.36v2
	C25.36,11.199,25.199,11.36,25,11.36z M23.36,10.64h1.279V9.36H23.36V10.64z M21,11.36h-2c-0.199,0-0.36-0.161-0.36-0.36V9
	c0-0.199,0.161-0.36,0.36-0.36h2c0.199,0,0.36,0.161,0.36,0.36v2C21.36,11.199,21.199,11.36,21,11.36z M19.36,10.64h1.279V9.36
	H19.36V10.64z M17,11.36h-2c-0.199,0-0.36-0.161-0.36-0.36V9c0-0.199,0.161-0.36,0.36-0.36h2c0.199,0,0.36,0.161,0.36,0.36v2
	C17.36,11.199,17.199,11.36,17,11.36z M15.36,10.64h1.28V9.36h-1.28V10.64z M13,11.36h-2c-0.199,0-0.36-0.161-0.36-0.36V9
	c0-0.199,0.161-0.36,0.36-0.36h2c0.199,0,0.36,0.161,0.36,0.36v2C13.36,11.199,13.199,11.36,13,11.36z M11.36,10.64h1.28V9.36h-1.28
	V10.64z M9,11.36H7c-0.199,0-0.36-0.161-0.36-0.36V9c0-0.199,0.161-0.36,0.36-0.36h2c0.199,0,0.36,0.161,0.36,0.36v2
	C9.36,11.199,9.199,11.36,9,11.36z M7.36,10.64h1.28V9.36H7.36V10.64z M21,7.36h-2c-0.199,0-0.36-0.161-0.36-0.36V5
	c0-0.199,0.161-0.36,0.36-0.36h2c0.199,0,0.36,0.161,0.36,0.36v2C21.36,7.199,21.199,7.36,21,7.36z M19.36,6.64h1.279V5.36H19.36
	V6.64z M17,7.36h-2c-0.199,0-0.36-0.161-0.36-0.36V5c0-0.199,0.161-0.36,0.36-0.36h2c0.199,0,0.36,0.161,0.36,0.36v2
	C17.36,7.199,17.199,7.36,17,7.36z M15.36,6.64h1.28V5.36h-1.28V6.64z M13,7.36h-2c-0.199,0-0.36-0.161-0.36-0.36V5
	c0-0.199,0.161-0.36,0.36-0.36h2c0.199,0,0.36,0.161,0.36,0.36v2C13.36,7.199,13.199,7.36,13,7.36z M11.36,6.64h1.28V5.36h-1.28
	V6.64z"/>
<rect id="_Transparent_Rectangle" style="fill:none;" width="32" height="32"/>
</svg>
