<?xml version="1.0" encoding="iso-8859-1"?>
<!-- Generator: Adobe Illustrator 24.1.2, SVG Export Plug-In . SVG Version: 6.00 Build 0)  -->
<svg version="1.1" id="Layer_1" xmlns="http://www.w3.org/2000/svg" xmlns:xlink="http://www.w3.org/1999/xlink" x="0px" y="0px"
	 viewBox="0 0 32 32" style="enable-background:new 0 0 32 32;" xml:space="preserve">
<path id="singapore_1_" d="M31,11.64H21c-0.199,0-0.36,0.161-0.36,0.36s0.161,0.36,0.36,0.36c2.007,0,3.64,1.633,3.64,3.64v10
	c0,0.904-0.735,1.64-1.64,1.64c-0.199,0-0.36,0.161-0.36,0.36s0.161,0.36,0.36,0.36c1.302,0,2.36-1.059,2.36-2.36v-1.64h1.279V26
	c0,1.302,1.059,2.36,2.36,2.36c0.199,0,0.36-0.161,0.36-0.36s-0.161-0.36-0.36-0.36c-0.904,0-1.64-0.735-1.64-1.64V16
	c0-2.007,1.633-3.64,3.64-3.64c0.199,0,0.36-0.161,0.36-0.36S31.199,11.64,31,11.64z M26.64,16.36v1.28h-1.28v-1.28H26.64z
	 M25.36,18.36h1.279v1.279H25.36V18.36z M25.36,20.36h1.279v1.279H25.36V20.36z M25.36,23.64v-1.28h1.279v1.279L25.36,23.64
	L25.36,23.64z M26.663,15.64h-1.325c-0.113-1.369-0.853-2.562-1.94-3.28h5.205C27.516,13.078,26.776,14.272,26.663,15.64z M9,27.64
	c-0.904,0-1.64-0.735-1.64-1.64V16c0-2.007,1.633-3.64,3.64-3.64c0.199,0,0.36-0.161,0.36-0.36s-0.161-0.36-0.36-0.36H1
	c-0.199,0-0.36,0.161-0.36,0.36S0.801,12.36,1,12.36c2.007,0,3.64,1.633,3.64,3.64v10c0,0.904-0.736,1.64-1.64,1.64
	c-0.199,0-0.36,0.161-0.36,0.36S2.801,28.36,3,28.36c1.301,0,2.36-1.059,2.36-2.36v-1.64h1.28V26c0,1.302,1.059,2.36,2.36,2.36
	c0.199,0,0.36-0.161,0.36-0.36S9.199,27.64,9,27.64z M6.64,16.36v1.28H5.36v-1.28H6.64z M6.64,19.64H5.36v-1.28h1.28
	C6.64,18.36,6.64,19.64,6.64,19.64z M5.36,20.36h1.28v1.279H5.36V20.36z M3.397,12.36h5.205c-1.087,0.718-1.826,1.912-1.939,3.28
	H5.337C5.224,14.272,4.484,13.078,3.397,12.36z M5.36,23.64v-1.28h1.28v1.279L5.36,23.64L5.36,23.64z M22,30.64
	c-2.007,0-3.64-1.633-3.64-3.64V7c0-3.11,2.529-5.64,5.64-5.64h2c0.199,0,0.36-0.161,0.36-0.36S26.199,0.64,26,0.64H6
	C5.801,0.64,5.64,0.801,5.64,1S5.801,1.36,6,1.36h2c3.11,0,5.64,2.53,5.64,5.64v20c0,2.007-1.633,3.64-3.64,3.64
	c-0.199,0-0.36,0.161-0.36,0.36s0.161,0.36,0.36,0.36c2.404,0,4.36-1.956,4.36-4.36v-1.309c0.343,0.333,0.787,0.556,1.28,0.633V31
	c0,0.199,0.161,0.36,0.36,0.36s0.36-0.161,0.36-0.36v-4.676c0.493-0.076,0.937-0.3,1.28-0.632V27c0,2.404,1.956,4.36,4.36,4.36
	c0.199,0,0.36-0.161,0.36-0.36S22.199,30.64,22,30.64z M14.36,17.691c0.343,0.333,0.787,0.556,1.28,0.633v3.273
	c-0.731-0.165-1.28-0.817-1.28-1.597V17.691z M14.36,13.691c0.343,0.333,0.787,0.556,1.28,0.633v3.273
	c-0.731-0.165-1.28-0.817-1.28-1.597V13.691z M14.36,9.691c0.343,0.333,0.787,0.556,1.28,0.633v3.274
	c-0.731-0.165-1.28-0.817-1.28-1.597V9.691z M16.36,14.323c0.493-0.076,0.937-0.3,1.28-0.632V16c0,0.78-0.549,1.432-1.28,1.597
	V14.323z M16.36,13.597v-3.274c0.493-0.076,0.937-0.3,1.28-0.632V12C17.64,12.78,17.091,13.433,16.36,13.597z M16.36,18.324
	c0.493-0.076,0.937-0.3,1.28-0.632V20c0,0.78-0.549,1.432-1.28,1.597V18.324z M17.64,7v1c0,0.78-0.549,1.433-1.28,1.597V5
	c0-2.007,1.633-3.64,3.64-3.64h1.072C19.036,2.421,17.64,4.549,17.64,7z M17.611,1.36C16.904,1.825,16.34,2.489,16,3.274
	c-0.34-0.785-0.904-1.448-1.611-1.914C14.389,1.36,17.611,1.36,17.611,1.36z M10.927,1.36H12c2.007,0,3.64,1.633,3.64,3.64v4.597
	C14.909,9.433,14.36,8.78,14.36,8V7C14.36,4.549,12.964,2.421,10.927,1.36z M14.36,24v-2.309c0.343,0.333,0.787,0.556,1.28,0.633
	v3.273C14.909,25.432,14.36,24.78,14.36,24z M16.36,25.597v-3.273c0.493-0.076,0.937-0.3,1.28-0.632V24
	C17.64,24.78,17.091,25.432,16.36,25.597z"/>
<rect id="_Transparent_Rectangle" style="fill:none;" width="32" height="32"/>
</svg>
