<svg xmlns="http://www.w3.org/2000/svg" viewBox="0 0 48 48"><line x1="33" x2="35" y1="24" y2="24" fill="none" stroke-linecap="round" stroke-linejoin="round" stroke-miterlimit="10" stroke-width=".72"/><line x1="33" x2="35" y1="26" y2="26" fill="none" stroke-linecap="round" stroke-linejoin="round" stroke-miterlimit="10" stroke-width=".72"/><line x1="33" x2="35" y1="28" y2="28" fill="none" stroke-linecap="round" stroke-linejoin="round" stroke-miterlimit="10" stroke-width=".72"/><line x1="33" x2="35" y1="30" y2="30" fill="none" stroke-linecap="round" stroke-linejoin="round" stroke-miterlimit="10" stroke-width=".72"/><line x1="33" x2="35" y1="32" y2="32" fill="none" stroke-linecap="round" stroke-linejoin="round" stroke-miterlimit="10" stroke-width=".72"/><path fill="none" stroke-linecap="round" stroke-linejoin="round" stroke-miterlimit="10" stroke-width=".72" d="M37,36c-1.105,0-2-0.895-2-2V24c0-2.209,1.791-4,4-4H29c2.209,0,4,1.791,4,4v10c0,1.105-0.895,2-2,2"/><line x1="13" x2="15" y1="24" y2="24" fill="none" stroke-linecap="round" stroke-linejoin="round" stroke-miterlimit="10" stroke-width=".72"/><line x1="13" x2="15" y1="26" y2="26" fill="none" stroke-linecap="round" stroke-linejoin="round" stroke-miterlimit="10" stroke-width=".72"/><line x1="13" x2="15" y1="28" y2="28" fill="none" stroke-linecap="round" stroke-linejoin="round" stroke-miterlimit="10" stroke-width=".72"/><line x1="13" x2="15" y1="30" y2="30" fill="none" stroke-linecap="round" stroke-linejoin="round" stroke-miterlimit="10" stroke-width=".72"/><line x1="13" x2="15" y1="32" y2="32" fill="none" stroke-linecap="round" stroke-linejoin="round" stroke-miterlimit="10" stroke-width=".72"/><path fill="none" stroke-linecap="round" stroke-linejoin="round" stroke-miterlimit="10" stroke-width=".72" d="M17,36c-1.105,0-2-0.895-2-2V24c0-2.209,1.791-4,4-4H9c2.209,0,4,1.791,4,4v10c0,1.105-0.895,2-2,2"/><line x1="14" x2="34" y1="9" y2="9" fill="none" stroke-linecap="round" stroke-linejoin="round" stroke-miterlimit="10" stroke-width=".72"/><line x1="26" x2="26" y1="15" y2="35" fill="none" stroke-linecap="round" stroke-linejoin="round" stroke-miterlimit="10" stroke-width=".72"/><line x1="24" x2="24" y1="12" y2="39" fill="none" stroke-linecap="round" stroke-linejoin="round" stroke-miterlimit="10" stroke-width=".72"/><line x1="22" x2="22" y1="15" y2="35" fill="none" stroke-linecap="round" stroke-linejoin="round" stroke-miterlimit="10" stroke-width=".72"/><path fill="none" stroke-linecap="round" stroke-linejoin="round" stroke-miterlimit="10" stroke-width=".72" d="M26,15c0-3.314,2.686-6,6-6"/><path fill="none" stroke-linecap="round" stroke-linejoin="round" stroke-miterlimit="10" stroke-width=".72" d="M16,9c3.314,0,6,2.686,6,6"/><path fill="none" stroke-linecap="round" stroke-linejoin="round" stroke-miterlimit="10" stroke-width=".72" d="M24,13c0-2.209,1.791-4,4-4"/><path fill="none" stroke-linecap="round" stroke-linejoin="round" stroke-miterlimit="10" stroke-width=".72" d="M24,13c0-2.209-1.791-4-4-4"/><path fill="none" stroke-linecap="round" stroke-linejoin="round" stroke-miterlimit="10" stroke-width=".72" d="M26,16c0,1.105-0.895,2-2,2s-2-0.895-2-2"/><path fill="none" stroke-linecap="round" stroke-linejoin="round" stroke-miterlimit="10" stroke-width=".72" d="M26,20c0,1.105-0.895,2-2,2s-2-0.895-2-2"/><path fill="none" stroke-linecap="round" stroke-linejoin="round" stroke-miterlimit="10" stroke-width=".72" d="M26,24c0,1.105-0.895,2-2,2s-2-0.895-2-2"/><path fill="none" stroke-linecap="round" stroke-linejoin="round" stroke-miterlimit="10" stroke-width=".72" d="M26,28c0,1.105-0.895,2-2,2s-2-0.895-2-2"/><path fill="none" stroke-linecap="round" stroke-linejoin="round" stroke-miterlimit="10" stroke-width=".72" d="M26,32c0,1.105-0.895,2-2,2s-2-0.895-2-2"/><path fill="none" stroke-linecap="round" stroke-linejoin="round" stroke-miterlimit="10" stroke-width=".72" d="M22,35c0,2.209-1.791,4-4,4"/><path fill="none" stroke-linecap="round" stroke-linejoin="round" stroke-miterlimit="10" stroke-width=".72" d="M26,35c0,2.209,1.791,4,4,4"/></svg>