<?xml version="1.0" encoding="iso-8859-1"?>
<!-- Generator: Adobe Illustrator 28.0.0, SVG Export Plug-In . SVG Version: 6.00 Build 0)  -->
<svg version="1.1" id="Layer_1" xmlns="http://www.w3.org/2000/svg" xmlns:xlink="http://www.w3.org/1999/xlink" x="0px" y="0px"
	 viewBox="0 0 32 32" style="enable-background:new 0 0 32 32;" xml:space="preserve">
<path id="slice-code_00000133520255151644552870000011617090208687083965_" d="M6.5,31.36H1c-0.146,0-0.277-0.088-0.333-0.223
	s-0.025-0.289,0.078-0.393l25.63-25.629c1.083-1.083,2.811-1.213,3.928-0.299l0,0c0.629,0.514,1.013,1.271,1.053,2.077
	c0.04,0.806-0.264,1.595-0.834,2.166L9.497,30.083C8.662,30.918,7.625,31.36,6.5,31.36z M1.869,30.64H6.5
	c0.943,0,1.78-0.358,2.488-1.066l2.32-2.319l-3.026-3.026L1.869,30.64z M8.792,23.718l3.026,3.026l1.491-1.49l-3.026-3.026
	L8.792,23.718z M10.792,21.719l3.026,3.026L30.013,8.55c0.428-0.427,0.655-1.017,0.625-1.621c-0.03-0.611-0.311-1.164-0.789-1.555
	c-0.84-0.685-2.141-0.573-2.963,0.25L10.792,21.719z M10,15.36c-0.75,0-1.36-0.61-1.36-1.36s0.61-1.36,1.36-1.36
	s1.36,0.61,1.36,1.36S10.75,15.36,10,15.36z M10,13.36c-0.353,0-0.64,0.287-0.64,0.64s0.287,0.64,0.64,0.64s0.64-0.287,0.64-0.64
	S10.353,13.36,10,13.36z M2,15.36c-0.75,0-1.36-0.61-1.36-1.36S1.25,12.64,2,12.64S3.36,13.25,3.36,14S2.75,15.36,2,15.36z M2,13.36
	c-0.353,0-0.64,0.287-0.64,0.64S1.647,14.64,2,14.64S2.64,14.353,2.64,14S2.353,13.36,2,13.36z M14.36,15h-0.72v-2h0.72V15z
	 M6.36,15H5.64v-2h0.72C6.36,13,6.36,15,6.36,15z M14,11.36c-0.75,0-1.36-0.61-1.36-1.36S13.25,8.64,14,8.64s1.36,0.61,1.36,1.36
	S14.75,11.36,14,11.36z M14,9.36c-0.353,0-0.64,0.287-0.64,0.64s0.287,0.64,0.64,0.64s0.64-0.287,0.64-0.64S14.353,9.36,14,9.36z
	 M6,11.36c-0.75,0-1.36-0.61-1.36-1.36S5.25,8.64,6,8.64S7.36,9.25,7.36,10S6.75,11.36,6,11.36z M6,9.36
	c-0.353,0-0.64,0.287-0.64,0.64S5.647,10.64,6,10.64S6.64,10.353,6.64,10S6.353,9.36,6,9.36z M10.36,11H9.64V9h0.72
	C10.36,9,10.36,11,10.36,11z M2.36,11H1.64V9h0.72C2.36,9,2.36,11,2.36,11z M10,7.36C9.25,7.36,8.64,6.75,8.64,6S9.25,4.64,10,4.64
	S11.36,5.25,11.36,6S10.75,7.36,10,7.36z M10,5.36C9.647,5.36,9.36,5.647,9.36,6S9.647,6.64,10,6.64S10.64,6.353,10.64,6
	S10.353,5.36,10,5.36z M2,7.36C1.25,7.36,0.64,6.75,0.64,6S1.25,4.64,2,4.64S3.36,5.25,3.36,6S2.75,7.36,2,7.36z M2,5.36
	C1.647,5.36,1.36,5.647,1.36,6S1.647,6.64,2,6.64S2.64,6.353,2.64,6S2.353,5.36,2,5.36z M14.36,7h-0.72V5h0.72V7z M6.36,7H5.64V5
	h0.72C6.36,5,6.36,7,6.36,7z M14,3.36c-0.75,0-1.36-0.61-1.36-1.36S13.25,0.64,14,0.64S15.36,1.25,15.36,2S14.75,3.36,14,3.36z
	 M14,1.36c-0.353,0-0.64,0.287-0.64,0.64S13.647,2.64,14,2.64S14.64,2.353,14.64,2S14.353,1.36,14,1.36z M6,3.36
	C5.25,3.36,4.64,2.75,4.64,2S5.25,0.64,6,0.64S7.36,1.25,7.36,2S6.75,3.36,6,3.36z M6,1.36C5.647,1.36,5.36,1.647,5.36,2
	S5.647,2.64,6,2.64S6.64,2.353,6.64,2S6.353,1.36,6,1.36z M10.36,3H9.64V1h0.72C10.36,1,10.36,3,10.36,3z M2.36,3H1.64V1h0.72
	C2.36,1,2.36,3,2.36,3z"/>
<rect id="_Transparent_Rectangle" style="fill:none;" width="32" height="32"/>
</svg>
