<?xml version="1.0" encoding="iso-8859-1"?>
<!-- Generator: Adobe Illustrator 22.0.0, SVG Export Plug-In . SVG Version: 6.00 Build 0)  -->
<svg version="1.1" xmlns="http://www.w3.org/2000/svg" xmlns:xlink="http://www.w3.org/1999/xlink" x="0px" y="0px"
	 viewBox="0 0 48 48" style="enable-background:new 0 0 48 48;" xml:space="preserve">
<g id="slider">
	<path id="slider_1_" style="fill:none;stroke:#000000;stroke-width:0.72;stroke-miterlimit:10;" d="M18,12c0,1.657-1.343,3-3,3
		s-3-1.343-3-3s1.343-3,3-3S18,10.343,18,12z M33,21c-1.657,0-3,1.343-3,3c0,1.657,1.343,3,3,3c1.657,0,3-1.343,3-3
		C36,22.343,34.657,21,33,21z M24,33c-1.657,0-3,1.343-3,3c0,1.657,1.343,3,3,3c1.657,0,3-1.343,3-3C27,34.343,25.657,33,24,33z
		 M9,12h3 M18,12h21 M36,24h3 M30,24H9 M27,36h12 M21,36H9"/>
</g>
<g id="Layer_1">
</g>
</svg>
