<?xml version="1.0" encoding="iso-8859-1"?>
<!-- Generator: Adobe Illustrator 24.1.2, SVG Export Plug-In . SVG Version: 6.00 Build 0)  -->
<svg version="1.1" id="Layer_1" xmlns="http://www.w3.org/2000/svg" xmlns:xlink="http://www.w3.org/1999/xlink" x="0px" y="0px"
	 viewBox="0 0 32 32" style="enable-background:new 0 0 32 32;" xml:space="preserve">
<path id="snow_1_" d="M21,29.36c-0.199,0-0.36-0.161-0.36-0.36v-0.64H20c-0.199,0-0.36-0.161-0.36-0.36s0.161-0.36,0.36-0.36h0.64
	V27c0-0.199,0.161-0.36,0.36-0.36s0.36,0.161,0.36,0.36v0.64H22c0.199,0,0.36,0.161,0.36,0.36s-0.161,0.36-0.36,0.36h-0.64V29
	C21.36,29.199,21.199,29.36,21,29.36z M17,29.36c-0.199,0-0.36-0.161-0.36-0.36v-0.64H16c-0.199,0-0.36-0.161-0.36-0.36
	s0.161-0.36,0.36-0.36h0.64V27c0-0.199,0.161-0.36,0.36-0.36c0.199,0,0.36,0.161,0.36,0.36v0.64H18c0.199,0,0.36,0.161,0.36,0.36
	s-0.161,0.36-0.36,0.36h-0.64V29C17.36,29.199,17.199,29.36,17,29.36z M13,29.36c-0.199,0-0.36-0.161-0.36-0.36v-0.64H12
	c-0.199,0-0.36-0.161-0.36-0.36s0.161-0.36,0.36-0.36h0.64V27c0-0.199,0.161-0.36,0.36-0.36s0.36,0.161,0.36,0.36v0.64H14
	c0.199,0,0.36,0.161,0.36,0.36s-0.161,0.36-0.36,0.36h-0.64V29C13.36,29.199,13.199,29.36,13,29.36z M9,29.36
	c-0.199,0-0.36-0.161-0.36-0.36v-0.64H8c-0.199,0-0.36-0.161-0.36-0.36S7.801,27.64,8,27.64h0.64V27c0-0.199,0.161-0.36,0.36-0.36
	S9.36,26.801,9.36,27v0.64H10c0.199,0,0.36,0.161,0.36,0.36s-0.161,0.36-0.36,0.36H9.36V29C9.36,29.199,9.199,29.36,9,29.36z
	 M23,25.36c-0.199,0-0.36-0.161-0.36-0.36v-0.64H22c-0.199,0-0.36-0.161-0.36-0.36s0.161-0.36,0.36-0.36h0.64V23
	c0-0.199,0.161-0.36,0.36-0.36s0.36,0.161,0.36,0.36v0.64H24c0.199,0,0.36,0.161,0.36,0.36s-0.161,0.36-0.36,0.36h-0.64V25
	C23.36,25.199,23.199,25.36,23,25.36z M19,25.36c-0.199,0-0.36-0.161-0.36-0.36v-0.64H18c-0.199,0-0.36-0.161-0.36-0.36
	s0.161-0.36,0.36-0.36h0.64V23c0-0.199,0.161-0.36,0.36-0.36s0.36,0.161,0.36,0.36v0.64H20c0.199,0,0.36,0.161,0.36,0.36
	s-0.161,0.36-0.36,0.36h-0.64V25C19.36,25.199,19.199,25.36,19,25.36z M15,25.36c-0.199,0-0.36-0.161-0.36-0.36v-0.64H14
	c-0.199,0-0.36-0.161-0.36-0.36s0.161-0.36,0.36-0.36h0.64V23c0-0.199,0.161-0.36,0.36-0.36s0.36,0.161,0.36,0.36v0.64H16
	c0.199,0,0.36,0.161,0.36,0.36s-0.161,0.36-0.36,0.36h-0.64V25C15.36,25.199,15.199,25.36,15,25.36z M11,25.36
	c-0.199,0-0.36-0.161-0.36-0.36v-0.64H10c-0.199,0-0.36-0.161-0.36-0.36s0.161-0.36,0.36-0.36h0.64V23c0-0.199,0.161-0.36,0.36-0.36
	s0.36,0.161,0.36,0.36v0.64H12c0.199,0,0.36,0.161,0.36,0.36s-0.161,0.36-0.36,0.36h-0.64V25C11.36,25.199,11.199,25.36,11,25.36z
	 M5.631,19.36c-2.894-0.038-4.991-2.015-4.991-4.702c0-2.767,2.239-5.018,4.991-5.018c0.691,0,1.377,0.145,2.01,0.422
	c0.647-4.138,4.261-7.422,8.286-7.422c3.281,0,6.332,2.085,7.689,5.223c0.599-0.153,1.309-0.223,1.811-0.223
	c3.271,0,5.934,2.662,5.934,5.934c0,3.209-2.604,5.75-5.93,5.787h-19.8V19.36z M5.631,10.36c-2.355,0-4.271,1.928-4.271,4.298
	c0,2.275,1.798,3.95,4.276,3.981h19.791c2.922-0.031,5.213-2.256,5.213-5.066c0-2.875-2.338-5.214-5.213-5.214
	c-0.636,0-1.419,0.115-1.905,0.28c-0.183,0.063-0.38-0.031-0.451-0.21c-1.18-3.032-4.051-5.07-7.144-5.07
	c-3.829,0-7.253,3.269-7.634,7.287c-0.012,0.122-0.084,0.229-0.192,0.286c-0.109,0.056-0.239,0.054-0.344-0.007
	C7.108,10.556,6.373,10.36,5.631,10.36z"/>
<rect id="_Transparent_Rectangle" style="fill:none;" width="32" height="32"/>
</svg>
