<?xml version="1.0" encoding="iso-8859-1"?>
<!-- Generator: Adobe Illustrator 24.3.0, SVG Export Plug-In . SVG Version: 6.00 Build 0)  -->
<svg version="1.1" id="Layer_1" xmlns="http://www.w3.org/2000/svg" xmlns:xlink="http://www.w3.org/1999/xlink" x="0px" y="0px"
	 viewBox="0 0 32 32" style="enable-background:new 0 0 32 32;" xml:space="preserve">
<path id="social--work--01_1_" d="M12.259,23.36c-2.614,0-4.759,2.043-4.885,4.651C7.37,28.1,7.332,28.185,7.269,28.248
	l-3.015,3.006l-0.509-0.51l2.918-2.909c0.213-2.925,2.644-5.196,5.595-5.196h7.75c0.75,0,1.36,0.61,1.36,1.36
	c0,0.066-0.003,0.132-0.009,0.196l4.999-4.062c0.663-0.666,1.79-0.667,2.48,0.024c0.692,0.692,0.691,1.818,0.001,2.51l-6.102,6.102
	c-0.369,0.369-0.857,0.607-1.375,0.672l-7.197,0.899l-0.917,0.913l-0.508-0.51l1.004-1c0.057-0.057,0.13-0.093,0.209-0.103
	l7.32-0.915c0.359-0.044,0.698-0.21,0.954-0.467l6.102-6.102c0.411-0.41,0.411-1.079,0-1.491c-0.411-0.411-1.081-0.41-1.49,0.001
	l-6.237,5.07c-0.42,0.386-0.979,0.621-1.593,0.621h-5.001V25.64h5.001c0.393,0,0.753-0.139,1.036-0.369l-0.003-0.004l0.092-0.075
	c0.315-0.299,0.513-0.722,0.513-1.189c0-0.354-0.287-0.642-0.64-0.642L12.259,23.36L12.259,23.36z M17,18.36
	c-0.092,0-0.184-0.035-0.254-0.105L8.82,10.328C7.858,9.367,7.329,8.092,7.329,6.737c0-1.365,0.529-2.646,1.491-3.606
	c0.96-0.961,2.238-1.49,3.596-1.491c0,0,0.001,0,0.002,0c1.359,0,2.637,0.529,3.599,1.491L17,4.114l0.983-0.983
	c0.962-0.961,2.24-1.491,3.6-1.491c0.001,0,0.003,0,0.004,0c1.357,0.001,2.634,0.53,3.595,1.491c0.961,0.961,1.49,2.239,1.49,3.599
	c0,1.359-0.529,2.637-1.49,3.599l-7.927,7.927C17.185,18.325,17.092,18.36,17,18.36z M12.417,2.36c0,0-0.001,0-0.002,0
	c-1.166,0-2.262,0.455-3.087,1.28s-1.28,1.925-1.28,3.098c0,1.162,0.455,2.256,1.28,3.082L17,17.491l7.672-7.672
	c0.825-0.826,1.279-1.923,1.279-3.09s-0.454-2.264-1.279-3.09c-0.824-0.824-1.92-1.279-3.085-1.28c-0.001,0-0.003,0-0.004,0
	c-1.168,0-2.265,0.455-3.09,1.28l-1.238,1.238c-0.142,0.141-0.369,0.14-0.509,0L15.507,3.64C14.682,2.814,13.584,2.36,12.417,2.36z"
	/>
<rect id="_Transparent_Rectangle" style="fill:none;" width="32" height="32"/>
</svg>
