<?xml version="1.0" encoding="iso-8859-1"?>
<!-- Generator: Adobe Illustrator 29.1.0, SVG Export Plug-In . SVG Version: 9.03 Build 55587)  -->
<svg version="1.1" id="Layer_1" xmlns="http://www.w3.org/2000/svg" xmlns:xlink="http://www.w3.org/1999/xlink" x="0px" y="0px"
	 viewBox="0 0 32 32" style="enable-background:new 0 0 32 32;" xml:space="preserve">
<path id="social--distancing_00000056386965774438428260000015308729252941035413_" d="M29.36,30h-0.72v-9
	c0-0.151,0.096-0.287,0.238-0.339c1.136-0.41,1.762-1.285,1.762-2.462V13c0-2.007-1.633-3.64-3.64-3.64s-3.64,1.633-3.64,3.64v5.21
	c0,1.17,0.626,2.041,1.762,2.451c0.143,0.052,0.238,0.188,0.238,0.339v9h-0.72v-8.756c-1.274-0.551-2-1.644-2-3.034V13
	c0-2.404,1.956-4.36,4.36-4.36s4.36,1.956,4.36,4.36v5.199c0,1.396-0.726,2.494-2,3.045V30z M7.36,30H6.64v-9
	c0-0.151,0.095-0.287,0.237-0.339c1.137-0.41,1.763-1.285,1.763-2.462V13c0-2.007-1.633-3.64-3.64-3.64S1.36,10.993,1.36,13v5.21
	c0,1.17,0.626,2.041,1.762,2.451C3.265,20.713,3.36,20.849,3.36,21v9H2.64v-8.756c-1.275-0.551-2-1.644-2-3.034V13
	c0-2.404,1.956-4.36,4.36-4.36S9.36,10.596,9.36,13v5.199c0,1.396-0.725,2.494-2,3.045C7.36,21.244,7.36,30,7.36,30z M20.36,18
	h-0.72v-1.64h-7.28V18h-0.72v-4h0.72v1.64h7.28V14h0.721L20.36,18L20.36,18z M27,7.36c-1.577,0-2.86-1.283-2.86-2.86
	S25.423,1.64,27,1.64s2.86,1.283,2.86,2.86S28.577,7.36,27,7.36z M27,2.36c-1.18,0-2.14,0.96-2.14,2.14S25.82,6.64,27,6.64
	s2.14-0.96,2.14-2.14S28.18,2.36,27,2.36z M5,7.36c-1.577,0-2.86-1.283-2.86-2.86S3.423,1.64,5,1.64S7.86,2.923,7.86,4.5
	S6.577,7.36,5,7.36z M5,2.36c-1.18,0-2.14,0.96-2.14,2.14S3.82,6.64,5,6.64S7.14,5.68,7.14,4.5S6.18,2.36,5,2.36z"/>
<rect id="_Transparent_Rectangle" style="fill:none;" width="32" height="32"/>
</svg>
