<?xml version="1.0" encoding="iso-8859-1"?>
<!-- Generator: Adobe Illustrator 24.3.0, SVG Export Plug-In . SVG Version: 6.00 Build 0)  -->
<svg version="1.1" id="Layer_1" xmlns="http://www.w3.org/2000/svg" xmlns:xlink="http://www.w3.org/1999/xlink" x="0px" y="0px"
	 viewBox="0 0 32 32" style="enable-background:new 0 0 32 32;" xml:space="preserve">
<path id="social--work--02_1_" d="M12.259,23.36c-2.614,0-4.759,2.043-4.885,4.651C7.37,28.1,7.332,28.185,7.269,28.248
	l-3.015,3.006l-0.509-0.51l2.918-2.909c0.213-2.925,2.644-5.196,5.595-5.196h7.75c0.75,0,1.36,0.61,1.36,1.36
	c0,0.066-0.003,0.132-0.009,0.196l4.999-4.062c0.663-0.666,1.79-0.667,2.48,0.024c0.692,0.692,0.691,1.818,0.001,2.51l-6.102,6.102
	c-0.369,0.369-0.857,0.607-1.375,0.672l-7.197,0.899l-0.917,0.913l-0.508-0.51l1.004-1c0.057-0.057,0.13-0.093,0.209-0.103
	l7.32-0.915c0.359-0.044,0.698-0.21,0.954-0.467l6.102-6.102c0.411-0.41,0.411-1.079,0-1.491c-0.411-0.411-1.081-0.41-1.49,0.001
	l-6.237,5.07c-0.42,0.386-0.979,0.621-1.593,0.621h-5.001V25.64h5.001c0.393,0,0.753-0.139,1.036-0.369l-0.003-0.004l0.092-0.075
	c0.315-0.299,0.513-0.722,0.513-1.189c0-0.354-0.287-0.642-0.64-0.642L12.259,23.36L12.259,23.36z M17,20.359
	c-0.096,0-0.187-0.038-0.254-0.105l-3.962-3.963c-0.512-0.511-0.795-1.191-0.798-1.914c-0.003-0.732,0.28-1.42,0.798-1.938
	c0.513-0.513,1.195-0.796,1.92-0.798c0.001,0,0.003,0,0.005,0c0.728,0,1.412,0.283,1.926,0.798L17,12.803l0.364-0.364
	c1.03-1.03,2.824-1.028,3.853,0c0.527,0.527,0.811,1.229,0.798,1.975c-0.014,0.709-0.297,1.376-0.798,1.877l-3.962,3.962
	C17.188,20.321,17.096,20.359,17,20.359z M14.709,12.361c-0.001,0-0.002,0-0.003,0c-0.534,0.001-1.036,0.21-1.413,0.587
	c-0.381,0.381-0.589,0.888-0.587,1.426c0.002,0.532,0.211,1.032,0.587,1.409l0,0L17,19.49l3.707-3.708
	c0.369-0.369,0.578-0.859,0.587-1.381c0.01-0.549-0.198-1.065-0.587-1.454c-0.756-0.757-2.076-0.758-2.833,0l-0.619,0.619
	c-0.142,0.141-0.369,0.14-0.509,0l-0.619-0.619C15.748,12.569,15.245,12.361,14.709,12.361z M4.423,12.362
	c-0.455,0-0.914-0.173-1.263-0.522c-0.692-0.691-0.692-1.817,0-2.509L9.261,3.23c0.368-0.369,0.856-0.607,1.374-0.672l7.198-0.899
	l0.918-0.914l0.508,0.511l-1.005,1c-0.057,0.056-0.13,0.092-0.209,0.102l-7.321,0.915c-0.359,0.045-0.698,0.21-0.954,0.466
	L3.668,9.84c-0.411,0.411-0.411,1.08,0,1.491s1.08,0.411,1.491,0l6.231-5.065c0.42-0.389,0.982-0.626,1.599-0.626h5.002v0.72h-5.002
	c-0.393,0-0.753,0.139-1.036,0.37l0.003,0.004l-0.098,0.08c-0.313,0.298-0.509,0.719-0.509,1.185c0,0.355,0.287,0.642,0.64,0.642
	h7.75c2.614,0,4.759-2.043,4.884-4.651c0.004-0.09,0.042-0.174,0.105-0.238l3.016-3.006l0.508,0.51l-2.918,2.91
	c-0.213,2.925-2.644,5.195-5.595,5.195h-7.75c-0.75,0-1.36-0.61-1.36-1.36c0-0.066,0.002-0.131,0.008-0.195l-4.998,4.061
	C5.312,12.196,4.87,12.362,4.423,12.362z"/>
<rect id="_Transparent_Rectangle" style="fill:none;" width="32" height="32"/>
</svg>
