<?xml version="1.0" encoding="iso-8859-1"?>
<!-- Generator: Adobe Illustrator 24.1.2, SVG Export Plug-In . SVG Version: 6.00 Build 0)  -->
<svg version="1.1" id="Layer_1" xmlns="http://www.w3.org/2000/svg" xmlns:xlink="http://www.w3.org/1999/xlink" x="0px" y="0px"
	 viewBox="0 0 32 32" style="enable-background:new 0 0 32 32;" xml:space="preserve">
<path id="socks_2_" d="M7.426,25.358c-0.969,0-1.939-0.369-2.677-1.106c-0.715-0.715-1.109-1.665-1.109-2.677
	c0-1.011,0.394-1.961,1.109-2.676l4.892-4.941V2c0-0.199,0.161-0.36,0.36-0.36h7c0.199,0,0.36,0.161,0.36,0.36v13.317
	c0,1.166-0.478,2.302-1.311,3.117l-5.952,5.821C9.362,24.99,8.394,25.358,7.426,25.358z M10.36,5.36v8.746
	c0,0.095-0.037,0.186-0.104,0.253l-4.997,5.048c-0.58,0.58-0.899,1.35-0.899,2.168c0,0.819,0.319,1.589,0.897,2.167
	c1.195,1.196,3.14,1.194,4.335,0l4.05-3.961c-0.647-0.78-1.001-1.763-1.001-2.781c0-2.283,1.763-4.162,3.999-4.345V5.36H10.36z
	 M16.64,13.377c-1.838,0.182-3.279,1.737-3.279,3.623c0,0.831,0.282,1.633,0.798,2.275l1.387-1.356
	c0.695-0.68,1.094-1.629,1.094-2.602V13.377z M10.36,4.64h6.28V2.36h-6.28C10.36,2.36,10.36,4.64,10.36,4.64z M18.426,30.358
	c-0.97,0-1.939-0.369-2.677-1.106c-0.715-0.715-1.109-1.666-1.109-2.678s0.394-1.963,1.109-2.678l4.943-4.941L20.64,6.999
	c0-0.096,0.038-0.188,0.105-0.255S20.904,6.637,21,6.637h7c0.199,0,0.36,0.161,0.36,0.36v13.317c0,1.165-0.478,2.301-1.311,3.116
	l-5.951,5.823C20.362,29.99,19.395,30.358,18.426,30.358z M21.374,10.36l0.038,8.742c0,0.097-0.038,0.188-0.105,0.257l-5.049,5.048
	c-0.579,0.578-0.897,1.349-0.897,2.168s0.319,1.59,0.897,2.168c1.196,1.195,3.139,1.195,4.334,0l4.05-3.962
	C23.995,24,23.641,23.019,23.641,22c0-2.283,1.764-4.162,3.999-4.346V10.36H21.374z M27.64,18.378
	c-1.838,0.182-3.278,1.736-3.278,3.622c0,0.83,0.281,1.632,0.797,2.274l1.388-1.357c0.695-0.682,1.094-1.63,1.094-2.603v-1.936
	H27.64z M21.371,9.64h6.269V7.357h-6.278L21.371,9.64z"/>
<rect id="_Transparent_Rectangle" style="fill:none;" width="32" height="32"/>
</svg>
