<?xml version="1.0" encoding="iso-8859-1"?>
<!-- Generator: Adobe Illustrator 24.1.2, SVG Export Plug-In . SVG Version: 6.00 Build 0)  -->
<svg version="1.1" id="Layer_1" xmlns="http://www.w3.org/2000/svg" xmlns:xlink="http://www.w3.org/1999/xlink" x="0px" y="0px"
	 viewBox="0 0 32 32" style="enable-background:new 0 0 32 32;" xml:space="preserve">
<path id="softlayer--enablement_1_" d="M31,31.36H1c-0.199,0-0.36-0.161-0.36-0.36v-6c0-0.199,0.161-0.36,0.36-0.36h30
	c0.199,0,0.36,0.161,0.36,0.36v6C31.36,31.199,31.199,31.36,31,31.36z M1.36,30.64h29.28v-5.28H1.36V30.64z M31,19.36H1
	c-0.199,0-0.36-0.161-0.36-0.36v-6c0-0.199,0.161-0.36,0.36-0.36h30c0.199,0,0.36,0.161,0.36,0.36v6
	C31.36,19.199,31.199,19.36,31,19.36z M1.36,18.64h29.28v-5.28H1.36V18.64z M31,7.36H1C0.801,7.36,0.64,7.199,0.64,7V1
	c0-0.199,0.161-0.36,0.36-0.36h30c0.199,0,0.36,0.161,0.36,0.36v6C31.36,7.199,31.199,7.36,31,7.36z M1.36,6.64h29.28V1.36H1.36
	V6.64z"/>
<rect id="_Transparent_Rectangle" style="fill:none;" width="32" height="32"/>
</svg>
