<?xml version="1.0" encoding="iso-8859-1"?>
<!-- Generator: Adobe Illustrator 29.1.0, SVG Export Plug-In . SVG Version: 9.03 Build 55587)  -->
<svg version="1.1" id="Layer_1" xmlns="http://www.w3.org/2000/svg" xmlns:xlink="http://www.w3.org/1999/xlink" x="0px" y="0px"
	 viewBox="0 0 32 32" style="enable-background:new 0 0 32 32;" xml:space="preserve">
<path id="software--02_00000109718594749115350780000002609433484956437643_" d="M21,29.36H11v-0.72h4.64v-3.28H3
	c-1.301,0-2.36-1.059-2.36-2.36V5c0-1.301,1.059-2.36,2.36-2.36h26c1.302,0,2.36,1.059,2.36,2.36v18c0,1.302-1.059,2.36-2.36,2.36
	H16.36v3.279H21V29.36z M1.36,21.36V23c0,0.904,0.736,1.64,1.64,1.64h26c0.904,0,1.64-0.735,1.64-1.64v-1.64H1.36z M1.36,20.64
	h29.28V5c0-0.904-0.735-1.64-1.64-1.64H3C2.096,3.36,1.36,4.096,1.36,5V20.64z M20.255,15.254l-0.51-0.509L22.491,12l-2.746-2.746
	l0.51-0.509L23.509,12L20.255,15.254z M11.746,15.254L8.491,12l3.255-3.254l0.509,0.509L9.509,12l2.745,2.746L11.746,15.254z
	 M19,12.36h-6v-0.72h6V12.36z"/>
<rect id="_Transparent_Rectangle" style="fill:none;" width="32" height="32"/>
</svg>
