<?xml version="1.0" encoding="iso-8859-1"?>
<!-- Generator: Adobe Illustrator 24.1.2, SVG Export Plug-In . SVG Version: 6.00 Build 0)  -->
<svg version="1.1" id="Layer_1" xmlns="http://www.w3.org/2000/svg" xmlns:xlink="http://www.w3.org/1999/xlink" x="0px" y="0px"
	 viewBox="0 0 32 32" style="enable-background:new 0 0 32 32;" xml:space="preserve">
<path id="solar--field_1_" d="M7,13.36c-0.199,0-0.36-0.161-0.36-0.36v-1.5c0-0.199,0.161-0.36,0.36-0.36s0.36,0.161,0.36,0.36V13
	C7.36,13.199,7.199,13.36,7,13.36z M11.243,11.603c-0.092,0-0.184-0.035-0.254-0.105l-1.061-1.061c-0.141-0.141-0.141-0.368,0-0.509
	s0.368-0.141,0.509,0l1.061,1.061c0.141,0.141,0.141,0.368,0,0.509C11.427,11.568,11.335,11.603,11.243,11.603z M2.757,11.603
	c-0.092,0-0.184-0.035-0.254-0.105c-0.141-0.141-0.141-0.368,0-0.509l1.061-1.061c0.141-0.141,0.368-0.141,0.509,0
	s0.141,0.368,0,0.509l-1.061,1.061C2.941,11.568,2.849,11.603,2.757,11.603z M7,10.36c-1.853,0-3.36-1.507-3.36-3.36
	S5.147,3.64,7,3.64S10.36,5.147,10.36,7S8.853,10.36,7,10.36z M7,4.36C5.544,4.36,4.36,5.544,4.36,7S5.544,9.64,7,9.64
	S9.64,8.456,9.64,7S8.456,4.36,7,4.36z M13,7.36h-1.5c-0.199,0-0.36-0.161-0.36-0.36s0.161-0.36,0.36-0.36H13
	c0.199,0,0.36,0.161,0.36,0.36S13.199,7.36,13,7.36z M2.5,7.36H1C0.801,7.36,0.64,7.199,0.64,7S0.801,6.64,1,6.64h1.5
	c0.199,0,0.36,0.161,0.36,0.36S2.699,7.36,2.5,7.36z M10.182,4.178c-0.092,0-0.184-0.035-0.254-0.105
	c-0.141-0.141-0.141-0.368,0-0.509l1.061-1.061c0.141-0.141,0.368-0.141,0.509,0s0.141,0.368,0,0.509l-1.061,1.061
	C10.366,4.143,10.274,4.178,10.182,4.178z M3.818,4.178c-0.092,0-0.184-0.035-0.254-0.105L2.502,3.011
	c-0.141-0.141-0.141-0.368,0-0.509s0.368-0.141,0.509,0l1.061,1.061c0.141,0.141,0.141,0.368,0,0.509
	C4.002,4.143,3.91,4.178,3.818,4.178z M7,2.86c-0.199,0-0.36-0.161-0.36-0.36V1c0-0.199,0.161-0.36,0.36-0.36S7.36,0.801,7.36,1v1.5
	C7.36,2.699,7.199,2.86,7,2.86z M27.86,31h-0.72v-1.64H25c-0.199,0-0.36-0.161-0.36-0.36v-4c0-0.199,0.161-0.36,0.36-0.36h5
	c0.199,0,0.36,0.161,0.36,0.36v4c0,0.199-0.161,0.36-0.36,0.36h-2.14V31z M25.36,28.64h4.279v-3.28H25.36V28.64z M19.86,31h-0.72
	v-1.64H17c-0.199,0-0.36-0.161-0.36-0.36v-4c0-0.199,0.161-0.36,0.36-0.36h5c0.199,0,0.36,0.161,0.36,0.36v4
	c0,0.199-0.161,0.36-0.36,0.36h-2.14V31z M17.36,28.64h4.279v-3.28H17.36V28.64z M11.86,31h-0.72v-1.64H9
	c-0.199,0-0.36-0.161-0.36-0.36v-4c0-0.199,0.161-0.36,0.36-0.36h5c0.199,0,0.36,0.161,0.36,0.36v4c0,0.199-0.161,0.36-0.36,0.36
	h-2.14V31z M9.36,28.64h4.28v-3.28H9.36V28.64z M3.86,31H3.14v-1.64H1c-0.199,0-0.36-0.161-0.36-0.36v-4
	c0-0.199,0.161-0.36,0.36-0.36h5c0.199,0,0.36,0.161,0.36,0.36v4c0,0.199-0.161,0.36-0.36,0.36H3.86V31z M1.36,28.64h4.28v-3.28
	H1.36V28.64z M30,22.36h-5c-0.199,0-0.36-0.161-0.36-0.36v-4c0-0.199,0.161-0.36,0.36-0.36h5c0.199,0,0.36,0.161,0.36,0.36v4
	C30.36,22.199,30.199,22.36,30,22.36z M25.36,21.64h4.279v-3.28H25.36V21.64z M22,22.36h-5c-0.199,0-0.36-0.161-0.36-0.36v-4
	c0-0.199,0.161-0.36,0.36-0.36h5c0.199,0,0.36,0.161,0.36,0.36v4C22.36,22.199,22.199,22.36,22,22.36z M17.36,21.64h4.279v-3.28
	H17.36V21.64z M14,22.36H9c-0.199,0-0.36-0.161-0.36-0.36v-4c0-0.199,0.161-0.36,0.36-0.36h5c0.199,0,0.36,0.161,0.36,0.36v4
	C14.36,22.199,14.199,22.36,14,22.36z M9.36,21.64h4.28v-3.28H9.36V21.64z M30,15.36h-5c-0.199,0-0.36-0.161-0.36-0.36v-4
	c0-0.199,0.161-0.36,0.36-0.36h5c0.199,0,0.36,0.161,0.36,0.36v4C30.36,15.199,30.199,15.36,30,15.36z M25.36,14.64h4.279v-3.28
	H25.36V14.64z M22,15.36h-5c-0.199,0-0.36-0.161-0.36-0.36v-4c0-0.199,0.161-0.36,0.36-0.36h5c0.199,0,0.36,0.161,0.36,0.36v4
	C22.36,15.199,22.199,15.36,22,15.36z M17.36,14.64h4.279v-3.28H17.36V14.64z"/>
<rect id="_Transparent_Rectangle" style="fill:none;" width="32" height="32"/>
</svg>
