<?xml version="1.0" encoding="iso-8859-1"?>
<!-- Generator: Adobe Illustrator 22.0.0, SVG Export Plug-In . SVG Version: 6.00 Build 0)  -->
<svg version="1.1" xmlns="http://www.w3.org/2000/svg" xmlns:xlink="http://www.w3.org/1999/xlink" x="0px" y="0px"
	 viewBox="0 0 48 48" style="enable-background:new 0 0 48 48;" xml:space="preserve">
<g id="spaceship">
	<g id="spaceship_1_">
		
			<path id="Download_x2F_Expand_x2F_Deployment_01_2_" style="fill:none;stroke:#000000;stroke-width:0.72;stroke-linejoin:round;stroke-miterlimit:10;" d="
			M30.208,22.044c-0.783,1.355-2.516,1.82-3.871,1.037s-1.82-2.516-1.037-3.871s2.516-1.82,3.871-1.037
			C30.527,18.955,30.991,20.689,30.208,22.044z M26.981,38.104l4.01-2.312l-2.662-4.61l3.571-4.978
			C33.915,23.396,35,20.028,35,16.572v-6.306c0-0.973-1.052-1.582-1.895-1.095c-2.18,1.258-5.463,3.154-5.463,3.154
			c-2.992,1.728-5.368,4.35-6.792,7.498l-2.525,5.582H13v4.64"/>
		
			<path id="XMLID_299_" style="fill:none;stroke:#000000;stroke-width:0.72;stroke-linecap:round;stroke-linejoin:round;stroke-miterlimit:10;" d="
			M18.799,39c1.025-0.518,2.341-1.241,2.782-2.004l0.045-0.078c0.777-1.346,0.316-3.067-1.03-3.845
			c-1.346-0.777-3.067-0.316-3.845,1.03l-0.045,0.078c-0.44,0.763-0.408,2.263-0.344,3.41"/>
	</g>
</g>
<g id="Layer_1">
</g>
</svg>
