<?xml version="1.0" encoding="iso-8859-1"?>
<!-- Generator: Adobe Illustrator 24.1.2, SVG Export Plug-In . SVG Version: 6.00 Build 0)  -->
<svg version="1.1" id="Layer_1" xmlns="http://www.w3.org/2000/svg" xmlns:xlink="http://www.w3.org/1999/xlink" x="0px" y="0px"
	 viewBox="0 0 32 32" style="enable-background:new 0 0 32 32;" xml:space="preserve">
<path id="spaceship_1_" d="M19.161,30.415l-0.359-0.623l3.696-2.133l-2.48-4.299c-0.071-0.122-0.063-0.274,0.019-0.39l3.571-4.978
	c1.984-2.764,3.032-6.021,3.032-9.421V2.266c0-0.327-0.169-0.62-0.452-0.783c-0.284-0.163-0.619-0.162-0.902,0l-5.463,3.154
	c-2.945,1.7-5.242,4.236-6.644,7.335l-2.525,5.582c-0.059,0.129-0.187,0.212-0.328,0.212H5.36v4.28H4.64v-4.641
	c0-0.199,0.161-0.36,0.36-0.36h5.093l2.429-5.37c1.464-3.237,3.865-5.887,6.941-7.662l5.463-3.154c0.506-0.293,1.113-0.293,1.621,0
	c0.51,0.293,0.813,0.819,0.813,1.407v6.306c0,3.551-1.096,6.954-3.168,9.841l-3.436,4.789l2.545,4.409
	c0.048,0.082,0.061,0.181,0.036,0.272c-0.024,0.093-0.085,0.171-0.168,0.219L19.161,30.415z M19.749,15.822
	c-0.554,0-1.1-0.145-1.592-0.43c-1.525-0.88-2.049-2.837-1.169-4.363c0.881-1.525,2.841-2.047,4.363-1.169
	c0.739,0.427,1.268,1.116,1.488,1.939c0.221,0.824,0.107,1.685-0.319,2.424l0,0c-0.426,0.739-1.115,1.267-1.938,1.488
	C20.306,15.786,20.026,15.822,19.749,15.822z M19.759,10.154c-0.855,0-1.689,0.444-2.147,1.236
	c-0.682,1.181-0.275,2.697,0.905,3.379c0.573,0.331,1.239,0.418,1.878,0.248c0.638-0.171,1.172-0.581,1.502-1.153l0,0
	c0.33-0.572,0.418-1.239,0.247-1.877s-0.58-1.172-1.152-1.502C20.603,10.261,20.178,10.154,19.759,10.154z M10.961,31.321
	c1.182-0.598,2.455-1.32,2.931-2.146l0.044-0.078c0.424-0.733,0.537-1.589,0.317-2.408c-0.219-0.819-0.745-1.504-1.479-1.927
	c-1.518-0.876-3.462-0.354-4.337,1.161l-0.044,0.078C7.916,26.825,7.927,28.288,8,29.61c0.011,0.199,0.177,0.342,0.379,0.34
	c0.198-0.011,0.351-0.181,0.339-0.379c-0.037-0.673-0.136-2.46,0.297-3.211l0.044-0.078c0.677-1.172,2.182-1.573,3.354-0.897
	c0.567,0.328,0.973,0.856,1.143,1.49c0.169,0.633,0.083,1.294-0.246,1.862l-0.045,0.078c-0.433,0.75-2.031,1.558-2.632,1.862
	c-0.177,0.09-0.249,0.307-0.159,0.483c0.063,0.126,0.19,0.198,0.322,0.198C10.854,31.36,10.909,31.348,10.961,31.321z"/>
<rect id="_Transparent_Rectangle" style="fill:none;" width="32" height="32"/>
</svg>
