<?xml version="1.0" encoding="iso-8859-1"?>
<!-- Generator: Adobe Illustrator 29.1.0, SVG Export Plug-In . SVG Version: 9.03 Build 55587)  -->
<svg version="1.1" id="Layer_1" xmlns="http://www.w3.org/2000/svg" xmlns:xlink="http://www.w3.org/1999/xlink" x="0px" y="0px"
	 viewBox="0 0 32 32" style="enable-background:new 0 0 32 32;" xml:space="preserve">
<path id="speed-bag_00000183933771271702439710000011846130742379845305_" d="M16,30.36c-4.61,0-8.36-3.751-8.36-8.36
	c0-1.926,0.632-3.732,1.829-5.225c0.001-0.002,0.002-0.003,0.004-0.005c1.932-2.323,3.706-5.916,4.659-7.846
	c0.125-0.251,0.236-0.478,0.334-0.673C13.981,8.043,13.64,7.561,13.64,7c0-0.75,0.61-1.36,1.36-1.36h0.64V4.36H10
	C9.801,4.36,9.64,4.199,9.64,4V2c0-0.199,0.161-0.36,0.36-0.36h12c0.199,0,0.36,0.161,0.36,0.36v2c0,0.199-0.161,0.36-0.36,0.36
	h-5.64v1.28H17c0.75,0,1.36,0.61,1.36,1.36c0,0.562-0.343,1.045-0.83,1.252c0.098,0.194,0.208,0.418,0.331,0.667
	c0.955,1.931,2.733,5.526,4.666,7.851c1.183,1.476,1.833,3.332,1.833,5.23C24.36,26.609,20.609,30.36,16,30.36z M15.359,8.36
	c-0.01,0.87-0.079,3.101-0.511,4.732c-0.269,1.015-0.659,2.068-1.037,3.086c-0.713,1.927-1.451,3.92-1.451,5.822
	c0,4.043,2.036,7.64,3.64,7.64c1.684,0,3.64-3.337,3.64-7.64c0-1.902-0.737-3.894-1.451-5.82c-0.377-1.019-0.768-2.073-1.036-3.088
	c-0.432-1.631-0.501-3.863-0.511-4.732C16.642,8.36,15.359,8.36,15.359,8.36z M10.029,17.228C8.937,18.591,8.36,20.24,8.36,22
	c0,3.559,2.446,6.557,5.744,7.402c-1.409-1.454-2.464-4.37-2.464-7.402c0-2.032,0.761-4.085,1.497-6.071
	c0.388-1.049,0.755-2.04,1.015-3.021c0.267-1.007,0.388-2.292,0.443-3.294C13.595,11.632,11.895,14.982,10.029,17.228z M17.405,9.62
	c0.056,1.001,0.177,2.283,0.442,3.288c0.261,0.982,0.628,1.973,1.017,3.022C19.6,17.916,20.36,19.969,20.36,22
	c0,3.105-0.991,5.944-2.378,7.379c3.255-0.875,5.657-3.852,5.657-7.379c0-1.761-0.577-3.411-1.671-4.774
	C20.109,14.987,18.408,11.642,17.405,9.62z M16.996,7.64H17c0.353,0,0.64-0.287,0.64-0.64S17.353,6.36,17,6.36h-2
	c-0.353,0-0.64,0.287-0.64,0.64S14.647,7.64,15,7.64H16.996z M10.36,3.64h11.28V2.36H10.36V3.64z"/>
<rect id="_Transparent_Rectangle" style="fill:none;" width="32" height="32"/>
</svg>
