<?xml version="1.0" encoding="iso-8859-1"?>
<!-- Generator: Adobe Illustrator 29.1.0, SVG Export Plug-In . SVG Version: 9.03 Build 55587)  -->
<svg version="1.1" xmlns="http://www.w3.org/2000/svg" xmlns:xlink="http://www.w3.org/1999/xlink" x="0px" y="0px"
	 viewBox="0 0 32 32" style="enable-background:new 0 0 32 32;" xml:space="preserve">
<g id="speech-and-empathy--01">
	<path id="speech-and-empathy--01_00000142156511319141878970000002694034476802225838_" d="M21,7c0,0.276-0.224,0.5-0.5,0.5
		S20,7.276,20,7s0.224-0.5,0.5-0.5S21,6.724,21,7z M23,6.5c-0.276,0-0.5,0.224-0.5,0.5s0.224,0.5,0.5,0.5s0.5-0.224,0.5-0.5
		S23.276,6.5,23,6.5z M25.5,6.5C25.224,6.5,25,6.724,25,7s0.224,0.5,0.5,0.5S26,7.276,26,7S25.776,6.5,25.5,6.5z M10.701,31.199
		L6.808,25.36H3c-1.301,0-2.36-1.06-2.36-2.36V13c0-1.301,1.059-2.36,2.36-2.36h11.64V3c0-1.301,1.059-2.36,2.36-2.36h12
		c1.301,0,2.36,1.059,2.36,2.36v8c0,1.301-1.06,2.36-2.36,2.36h-2.777l-1.9,3.801l-0.645-0.322l2-4
		c0.062-0.122,0.186-0.199,0.322-0.199h3c0.904,0,1.64-0.736,1.64-1.64V3c0-0.904-0.735-1.64-1.64-1.64H17
		c-0.904,0-1.64,0.736-1.64,1.64v7.64H18c1.179,0,2.159,0.869,2.332,2H23v0.72h-2.64V23c0,1.301-1.06,2.36-2.36,2.36h-7V24.64h7
		c0.904,0,1.64-0.735,1.64-1.64V13c0-0.904-0.735-1.64-1.64-1.64H3c-0.904,0-1.64,0.736-1.64,1.64v10c0,0.904,0.736,1.64,1.64,1.64
		h4c0.12,0,0.233,0.061,0.299,0.161l4,6L10.701,31.199z M11,22.36L11,22.36c-0.098-0.001-0.191-0.04-0.259-0.11L7.34,18.717
		c-0.445-0.446-0.695-1.044-0.7-1.678c-0.005-0.643,0.242-1.247,0.696-1.702c0.45-0.45,1.048-0.697,1.684-0.697
		c0.001,0,0.001,0,0.002,0c0.641,0,1.243,0.251,1.696,0.705l0.279,0.279l0.276-0.276c0.45-0.451,1.038-0.692,1.69-0.697
		c0.639,0.002,1.239,0.252,1.692,0.705c0.464,0.464,0.714,1.08,0.705,1.735c-0.01,0.624-0.257,1.209-0.696,1.648l-3.405,3.512
		C11.191,22.32,11.098,22.36,11,22.36z M9.02,15.36c-0.444,0-0.861,0.172-1.175,0.486c-0.316,0.317-0.489,0.739-0.485,1.188
		c0.003,0.444,0.179,0.863,0.494,1.18l3.147,3.27l3.149-3.248c0.31-0.311,0.482-0.719,0.489-1.154
		c0.007-0.458-0.168-0.89-0.494-1.215c-0.317-0.317-0.738-0.493-1.185-0.494c-0.001,0-0.002,0-0.003,0
		c-0.445,0-0.863,0.172-1.176,0.486l-0.53,0.531c-0.134,0.135-0.374,0.136-0.509,0l-0.534-0.534
		C9.892,15.536,9.47,15.36,9.021,15.36C9.021,15.36,9.021,15.36,9.02,15.36z"/>
</g>
<g id="Layer_1">
</g>
</svg>
