<?xml version="1.0" encoding="iso-8859-1"?>
<!-- Generator: Adobe Illustrator 24.1.2, SVG Export Plug-In . SVG Version: 6.00 Build 0)  -->
<svg version="1.1" id="Layer_1" xmlns="http://www.w3.org/2000/svg" xmlns:xlink="http://www.w3.org/1999/xlink" x="0px" y="0px"
	 viewBox="0 0 32 32" style="enable-background:new 0 0 32 32;" xml:space="preserve">
<path id="sports_1_" d="M7.977,31.359c-0.542,0-1.075-0.188-1.506-0.54c-0.88-0.719-1.089-2.048-0.485-3.093l4.696-8.134
	l0.624,0.359L6.61,28.086c-0.429,0.742-0.293,1.677,0.317,2.174c0.386,0.315,0.861,0.44,1.345,0.353
	c0.474-0.087,0.884-0.376,1.125-0.793l4.751-8.228l0.623,0.359l-4.75,8.228c-0.346,0.601-0.936,1.017-1.619,1.142
	C8.259,31.347,8.117,31.359,7.977,31.359z M18.001,31.357c-0.542,0-1.074-0.188-1.506-0.542c-0.879-0.718-1.088-2.047-0.485-3.091
	l2.766-4.792l-5.317-3.07c-1.294-0.747-2.032-2.174-1.919-3.64c-0.809-0.202-1.409-0.935-1.409-1.805v-5.5
	c0-1.301,1.059-2.36,2.36-2.36h6.171c-0.522-1.004-0.513-2.232,0.067-3.236c0.927-1.604,2.985-2.157,4.59-1.23
	c0.777,0.449,1.333,1.174,1.565,2.041s0.113,1.772-0.336,2.55c-0.506,0.876-1.358,1.463-2.325,1.633
	c0.213,0.298,0.378,0.613,0.497,0.937l3.1,1.79l2.07-3.586c0.512-0.888,1.652-1.194,2.54-0.681c0.889,0.513,1.193,1.653,0.681,2.541
	l-2.75,4.763c-0.65,1.125-2.099,1.513-3.224,0.864l-3.152-1.82l-1.82,3.152l-0.623-0.36l2.25-3.897
	c0.732-1.269,0.523-2.675-0.558-3.763c-0.105-0.105-0.135-0.265-0.074-0.4c0.062-0.135,0.184-0.225,0.348-0.213
	c0.984,0.045,1.919-0.456,2.418-1.319c0.353-0.611,0.446-1.322,0.264-2.003s-0.619-1.25-1.229-1.604
	c-1.262-0.728-2.878-0.294-3.607,0.967c-0.549,0.952-0.447,2.161,0.255,3.006c0.054,0.065,0.083,0.146,0.083,0.23
	c0,0.36,0,0.36-7.2,0.36c-0.904,0-1.64,0.736-1.64,1.64v5.5c0,0.628,0.512,1.14,1.14,1.14s1.14-0.512,1.14-1.14V9.986
	c0-0.199,0.161-0.36,0.36-0.36h3.521v0.72H13.85v4.071c0,0.935-0.692,1.71-1.591,1.841c-0.1,1.2,0.501,2.37,1.561,2.981l5.628,3.25
	c0.173,0.1,0.231,0.319,0.132,0.491l-2.946,5.104c-0.429,0.742-0.292,1.677,0.317,2.174c0.386,0.315,0.859,0.441,1.344,0.353
	c0.475-0.087,0.885-0.376,1.126-0.793l4-6.928c0.219-0.38,0.277-0.822,0.164-1.245c-0.113-0.424-0.385-0.777-0.764-0.996l-6.063-3.5
	l0.36-0.624l6.062,3.5c0.546,0.314,0.937,0.823,1.1,1.433s0.079,1.245-0.236,1.791l-4,6.928c-0.347,0.601-0.938,1.018-1.62,1.142
	C18.283,31.345,18.142,31.357,18.001,31.357z M22.345,12.498l3.151,1.82c0.783,0.452,1.788,0.183,2.241-0.601l2.75-4.763
	C30.8,8.41,30.614,7.711,30.07,7.397c-0.546-0.313-1.242-0.126-1.558,0.417l-2.25,3.897c-0.1,0.173-0.32,0.232-0.491,0.132
	l-2.843-1.641c0.058,0.729-0.11,1.475-0.515,2.174L22.345,12.498z M8,17.36H1v-0.72h7V17.36z M8,13.36H1v-0.72h7V13.36z M8,9.36H1
	V8.64h7V9.36z"/>
<rect id="_Transparent_Rectangle" style="fill:none;" width="32" height="32"/>
</svg>
