<?xml version="1.0" encoding="iso-8859-1"?>
<!-- Generator: Adobe Illustrator 28.0.0, SVG Export Plug-In . SVG Version: 6.00 Build 0)  -->
<svg version="1.1" id="Layer_1" xmlns="http://www.w3.org/2000/svg" xmlns:xlink="http://www.w3.org/1999/xlink" x="0px" y="0px"
	 viewBox="0 0 32 32" style="enable-background:new 0 0 32 32;" xml:space="preserve">
<path id="spotlight_00000102534496763009403210000009658972514931570308_" d="M21.343,18.889C21.294,18.74,21.156,18.64,21,18.64
	h-3.493l-1.163-3.747c-0.094-0.301-0.594-0.301-0.688,0l-1.163,3.747H11c-0.156,0-0.294,0.101-0.342,0.249s0.004,0.311,0.13,0.402
	l2.793,2.036l-0.93,3.582c-0.039,0.149,0.022,0.308,0.152,0.393c0.128,0.084,0.298,0.075,0.419-0.019L16,23.098l2.777,2.186
	c0.065,0.051,0.144,0.077,0.223,0.077c0.068,0,0.137-0.02,0.197-0.059c0.129-0.085,0.19-0.243,0.151-0.393l-0.931-3.582l2.794-2.036
	C21.338,19.199,21.391,19.037,21.343,18.889z M17.796,20.89c-0.119,0.087-0.174,0.238-0.137,0.382l0.724,2.785l-2.16-1.7
	c-0.131-0.102-0.314-0.102-0.445,0l-2.161,1.7l0.724-2.785c0.037-0.144-0.017-0.295-0.137-0.382l-2.099-1.529h2.654
	c0.158,0,0.297-0.103,0.344-0.254L16,16.215l0.897,2.892c0.047,0.151,0.186,0.254,0.344,0.254h2.653L17.796,20.89z M1,30.64h30
	v0.721H1V30.64z M4,28.64h24v0.721H4V28.64z M7,26.64h18v0.721H7V26.64z M31.18,5.421l-1.421-0.82l0.82-1.421
	c0.048-0.083,0.061-0.181,0.036-0.273s-0.085-0.171-0.168-0.219l-3.465-2c-0.17-0.098-0.391-0.04-0.491,0.132l-0.82,1.421
	l-1.419-0.819c-0.17-0.099-0.391-0.041-0.491,0.131l-2,3.464c-0.1,0.172-0.041,0.393,0.132,0.492l0.348,0.201L16,10.331L9.76,5.71
	l0.348-0.201c0.083-0.048,0.143-0.126,0.167-0.219c0.025-0.092,0.012-0.19-0.036-0.273l-2-3.464c-0.099-0.171-0.32-0.23-0.492-0.132
	L6.329,2.24L5.508,0.82C5.41,0.648,5.189,0.587,5.017,0.688l-3.464,2c-0.172,0.1-0.231,0.32-0.132,0.492l0.82,1.42L0.82,5.421
	c-0.172,0.1-0.231,0.32-0.132,0.492l2,3.464C2.755,9.492,2.876,9.557,3,9.557c0.061,0,0.123-0.015,0.18-0.048l0.564-0.326
	l2.902,15.881l0.708-0.129L4.151,7.405c0.392,0.264,0.846,0.42,1.317,0.42c0.4,0,0.805-0.102,1.176-0.315
	c0.546-0.315,0.937-0.824,1.1-1.433c0.081-0.306,0.101-0.617,0.061-0.92l7.59,5.621l-2.61,1.933l0.429,0.578L16,11.226l2.786,2.063
	l0.428-0.578l-2.609-1.933l7.594-5.624c-0.121,0.919,0.307,1.863,1.158,2.354c0.363,0.21,0.767,0.317,1.176,0.317
	c0.205,0,0.411-0.027,0.614-0.082c0.255-0.068,0.487-0.185,0.7-0.327l-3.201,17.518l0.709,0.129l2.902-15.881l0.564,0.326
	c0.057,0.033,0.118,0.048,0.18,0.048c0.124,0,0.245-0.064,0.312-0.18l2-3.464C31.411,5.741,31.353,5.521,31.18,5.421z M7.796,2.225
	l1.64,2.84L9.129,5.242L6.89,3.583v0.001C6.655,3.406,6.389,3.279,6.11,3.199L7.796,2.225z M2.225,3.132l2.84-1.64L5.705,2.6
	L4.284,3.421l0,0l0,0l-1.419,0.82L2.225,3.132z M3.132,8.705l-1.64-2.84L3.18,4.89C3.096,5.225,3.092,5.576,3.16,5.922L3.148,5.924
	l0.458,2.507L3.132,8.705z M7.048,5.889C6.935,6.312,6.664,6.666,6.284,6.885c-0.782,0.453-1.787,0.183-2.24-0.6
	c-0.452-0.783-0.183-1.788,0.6-2.24c0.782-0.453,1.788-0.183,2.24,0.6C7.104,5.024,7.162,5.466,7.048,5.889z M26.935,1.492
	l2.841,1.64l-0.64,1.109L27.72,3.423c-0.001-0.001-0.002-0.002-0.004-0.003c-0.001-0.001-0.003-0.001-0.004-0.002l-1.418-0.819
	L26.935,1.492z M22.563,5.065l1.641-2.84L25.893,3.2c-0.28,0.079-0.546,0.207-0.781,0.384l0,0l-2.241,1.659L22.563,5.065z
	 M26.96,7.049c-0.42,0.115-0.864,0.056-1.244-0.164c-0.783-0.452-1.052-1.457-0.601-2.24c0.452-0.783,1.458-1.051,2.241-0.6
	c0.379,0.219,0.65,0.573,0.764,0.996c0.113,0.423,0.055,0.865-0.164,1.245C27.737,6.664,27.384,6.936,26.96,7.049z M28.868,8.705
	l-0.475-0.274l0.458-2.507l-0.01-0.002c0.067-0.338,0.066-0.688-0.02-1.031l1.686,0.974L28.868,8.705z"/>
<rect id="_Transparent_Rectangle" style="fill:none;" width="32" height="32"/>
</svg>
