<?xml version="1.0" encoding="iso-8859-1"?>
<!-- Generator: Adobe Illustrator 29.1.0, SVG Export Plug-In . SVG Version: 9.03 Build 55587)  -->
<svg version="1.1" id="Layer_1" xmlns="http://www.w3.org/2000/svg" xmlns:xlink="http://www.w3.org/1999/xlink" x="0px" y="0px"
	 viewBox="0 0 32 32" style="enable-background:new 0 0 32 32;" xml:space="preserve">
<path id="spring_00000016054711773263830200000000668792936670318235_" d="M15.5,29.36c-7.643,0-13.86-6.218-13.86-13.86
	S7.857,1.64,15.5,1.64c1.405,0,2.792,0.209,4.121,0.623l-0.018,0.059c2.749-0.689,5.668-0.677,8.371-0.664l1.02,0.003
	c0.199,0,0.36,0.161,0.36,0.36l0.003,1.004c0.011,2.679,0.023,5.556-0.645,8.277c0.43,1.353,0.647,2.763,0.647,4.198
	C29.36,23.143,23.143,29.36,15.5,29.36z M7.417,25.854c2.23,1.745,5.038,2.786,8.083,2.786c7.245,0,13.14-5.895,13.14-13.14
	c0-0.972-0.104-1.933-0.313-2.87c-0.595,1.74-1.528,3.39-2.99,4.852c-3.961,3.957-8.481,3.92-13.721,3.887
	c-0.53-0.005-1.068-0.009-1.616-0.009c-0.199,0-0.36-0.161-0.36-0.36c0-6.708,0.278-11.734,3.876-15.33l0.254,0.255L13.516,5.67
	c1.467-1.465,3.125-2.399,4.873-2.992C17.445,2.467,16.478,2.36,15.5,2.36C8.254,2.36,2.36,8.254,2.36,15.5
	c0,3.045,1.042,5.852,2.787,8.083c0.085-1.086,0.997-1.943,2.104-1.943c1.164,0,2.11,0.947,2.11,2.11
	C9.36,24.857,8.503,25.768,7.417,25.854z M7.25,22.36c-0.767,0-1.39,0.623-1.39,1.39s0.624,1.39,1.39,1.39s1.39-0.623,1.39-1.39
	S8.017,22.36,7.25,22.36z M10.866,20.643c0.253,0.002,0.505,0.003,0.754,0.005c5.288,0.04,9.459,0.068,13.206-3.676
	c1.663-1.661,2.604-3.603,3.135-5.654c-0.004-0.011-0.007-0.021-0.011-0.032l0.021-0.007c0.69-2.693,0.678-5.573,0.666-8.25V2.873
	L10.866,20.643z M26.907,2.375c-4.457,0-9.318,0.244-12.882,3.805l0,0c-3.249,3.246-3.635,7.85-3.663,13.949l17.75-17.75h-0.141
	C27.62,2.376,27.265,2.375,26.907,2.375z"/>
<rect id="_Transparent_Rectangle" style="fill:none;" width="32" height="32"/>
</svg>
