<?xml version="1.0" encoding="iso-8859-1"?>
<!-- Generator: Adobe Illustrator 29.1.0, SVG Export Plug-In . SVG Version: 9.03 Build 55587)  -->
<svg version="1.1" id="Layer_1" xmlns="http://www.w3.org/2000/svg" xmlns:xlink="http://www.w3.org/1999/xlink" x="0px" y="0px"
	 viewBox="0 0 32 32" style="enable-background:new 0 0 32 32;" xml:space="preserve">
<path id="spyre-accelerator_00000037684525099980923890000003992438093505629057_" d="M29,31.36H3c-1.301,0-2.36-1.059-2.36-2.36V3
	c0-1.301,1.059-2.36,2.36-2.36h26c1.302,0,2.36,1.059,2.36,2.36v26C31.36,30.302,30.302,31.36,29,31.36z M3,1.36
	C2.096,1.36,1.36,2.096,1.36,3v26c0,0.904,0.736,1.64,1.64,1.64h26c0.904,0,1.64-0.735,1.64-1.64V3c0-0.904-0.735-1.64-1.64-1.64H3z
	 M26,26.36l-15-0.013c-0.007,0-0.013,0.001-0.02,0.001h-5c-0.199,0-0.36-0.161-0.36-0.36v-20c0-0.199,0.161-0.36,0.36-0.36h5
	c0.032,0,0.062,0.004,0.091,0.012H16c0.199,0,0.36,0.161,0.36,0.36v1.64H26c0.199,0,0.36,0.161,0.36,0.36v18
	C26.36,26.199,26.199,26.36,26,26.36z M21.36,25.64h4.279V15.348H21.36V25.64z M16.36,25.64h4.28V15.348h-4.28V25.64z M11.34,25.64
	h4.3V15.348h-4.3V25.64z M6.34,25.628h4.28v-10.28H6.34V25.628z M21.36,14.628h4.279V8.36H21.36V14.628z M16.36,14.628h4.28V8.36
	h-4.28V14.628z M11.34,14.628h4.3V6.36h-4.3V14.628z M6.34,14.628h4.28v-8.28H6.34V14.628z M25,24.36h-3v-0.72h3V24.36z M20,24.36
	h-3v-0.72h3V24.36z M15,24.36h-3v-0.72h3V24.36z M10,24.36H7v-0.72h3V24.36z M25,22.36h-3v-0.72h3V22.36z M20,22.36h-3v-0.72h3
	V22.36z M15,22.36h-3v-0.72h3V22.36z M10,22.36H7v-0.72h3V22.36z M25,20.36h-3v-0.72h3V20.36z M20,20.36h-3v-0.72h3V20.36z
	 M15,20.36h-3v-0.72h3V20.36z M10,20.36H7v-0.72h3V20.36z M25,18.36h-3v-0.72h3V18.36z M20,18.36h-3v-0.72h3V18.36z M15,18.36h-3
	v-0.72h3V18.36z M10,18.36H7v-0.72h3V18.36z M25,13.36h-3v-0.72h3V13.36z M20,13.36h-3v-0.72h3V13.36z M15,13.36h-3v-0.72h3V13.36z
	 M10,13.36H7v-0.72h3V13.36z M25,11.36h-3v-0.72h3V11.36z M20,11.36h-3v-0.72h3V11.36z M15,11.36h-3v-0.72h3V11.36z M10,11.36H7
	v-0.72h3V11.36z M15,9.36h-3V8.64h3V9.36z M10,9.36H7V8.64h3V9.36z"/>
<rect id="_Transparent_Rectangle" style="fill:none;" width="32" height="32"/>
</svg>
