<?xml version="1.0" encoding="iso-8859-1"?>
<!-- Generator: Adobe Illustrator 29.1.0, SVG Export Plug-In . SVG Version: 9.03 Build 55587)  -->
<svg version="1.1" id="Layer_1" xmlns="http://www.w3.org/2000/svg" xmlns:xlink="http://www.w3.org/1999/xlink" x="0px" y="0px"
	 viewBox="0 0 32 32" style="enable-background:new 0 0 32 32;" xml:space="preserve">
<path id="stadium--seats_00000135667603069737906180000000170237463054663074_" d="M30,30.375H2v-0.75h3.625v-2.25H2.5
	c-0.482,0-0.875-0.393-0.875-0.875v-1c0-0.482,0.393-0.875,0.875-0.875h0.125V18.75c0-0.556,0.568-1.122,1.125-1.122l4.5-0.003
	c0.557,0,1.125,0.567,1.125,1.125v5.875H9.5c0.482,0,0.875,0.393,0.875,0.875v0.125h1.25V25.5c0-0.482,0.393-0.875,0.875-0.875
	h0.125V18.75c0-0.556,0.568-1.122,1.125-1.122l4.5-0.003c0.558,0,1.125,0.567,1.125,1.125v5.875H19.5
	c0.482,0,0.875,0.393,0.875,0.875v0.125h1.25V25.5c0-0.482,0.393-0.875,0.875-0.875h0.125V18.75c0-0.556,0.567-1.122,1.125-1.122
	l4.5-0.003c0.558,0,1.125,0.567,1.125,1.125v5.875H29.5c0.482,0,0.875,0.393,0.875,0.875v1c0,0.482-0.393,0.875-0.875,0.875h-3.125
	v2.25H30V30.375z M16.375,29.625h9.25v-2.25H22.5c-0.482,0-0.875-0.393-0.875-0.875v-0.125h-1.25V26.5
	c0,0.482-0.393,0.875-0.875,0.875h-3.125V29.625z M6.375,29.625h9.25v-2.25H12.5c-0.482,0-0.875-0.393-0.875-0.875v-0.125h-1.25
	V26.5c0,0.482-0.393,0.875-0.875,0.875H6.375V29.625z M22.5,25.375c-0.067,0-0.125,0.058-0.125,0.125v1
	c0,0.067,0.058,0.125,0.125,0.125h7c0.067,0,0.125-0.058,0.125-0.125v-1c0-0.067-0.058-0.125-0.125-0.125H22.5z M12.5,25.375
	c-0.068,0-0.125,0.058-0.125,0.125v1c0,0.067,0.057,0.125,0.125,0.125h7c0.067,0,0.125-0.058,0.125-0.125v-1
	c0-0.067-0.058-0.125-0.125-0.125H12.5z M2.5,25.375c-0.068,0-0.125,0.058-0.125,0.125v1c0,0.067,0.057,0.125,0.125,0.125h7
	c0.068,0,0.125-0.058,0.125-0.125v-1c0-0.067-0.057-0.125-0.125-0.125H2.5z M23.375,24.625h5.25V18.75
	c0-0.144-0.231-0.375-0.375-0.375l-4.5,0.003c-0.144,0-0.375,0.229-0.375,0.372V24.625z M13.375,24.625h5.25V18.75
	c0-0.144-0.231-0.375-0.375-0.375l-4.5,0.003c-0.144,0-0.375,0.229-0.375,0.372V24.625z M3.375,24.625h5.25V18.75
	c0-0.144-0.231-0.375-0.375-0.375l-4.5,0.003c-0.144,0-0.375,0.229-0.375,0.372V24.625z M27,20.375h-2v-0.75h2V20.375z M17,20.375
	h-2v-0.75h2V20.375z M7,20.375H5v-0.75h2V20.375z M25,14.375H7v-0.75h3.625v-2.25H7.5c-0.482,0-0.875-0.393-0.875-0.875v-1
	c0-0.482,0.393-0.875,0.875-0.875h0.125V2.75c0-0.556,0.568-1.122,1.125-1.122l4.5-0.003c0.558,0,1.125,0.568,1.125,1.125v5.875
	H14.5c0.482,0,0.875,0.393,0.875,0.875v0.125h1.25V9.5c0-0.482,0.393-0.875,0.875-0.875h0.125V2.75c0-0.556,0.567-1.122,1.125-1.122
	l4.5-0.003c0.558,0,1.125,0.568,1.125,1.125v5.875H24.5c0.482,0,0.875,0.393,0.875,0.875v1c0,0.482-0.393,0.875-0.875,0.875h-3.125
	v2.25H25V14.375z M11.375,13.625h9.25v-2.25H17.5c-0.482,0-0.875-0.393-0.875-0.875v-0.125h-1.25V10.5
	c0,0.482-0.393,0.875-0.875,0.875h-3.125V13.625z M17.5,9.375c-0.067,0-0.125,0.057-0.125,0.125v1c0,0.068,0.058,0.125,0.125,0.125
	h7c0.067,0,0.125-0.057,0.125-0.125v-1c0-0.068-0.058-0.125-0.125-0.125H17.5z M7.5,9.375c-0.068,0-0.125,0.057-0.125,0.125v1
	c0,0.068,0.057,0.125,0.125,0.125h7c0.068,0,0.125-0.057,0.125-0.125v-1c0-0.068-0.057-0.125-0.125-0.125H7.5z M18.375,8.625h5.25
	V2.75c0-0.144-0.231-0.375-0.375-0.375l-4.5,0.003c-0.144,0-0.375,0.229-0.375,0.372V8.625z M8.375,8.625h5.25V2.75
	c0-0.144-0.231-0.375-0.375-0.375l-4.5,0.003c-0.144,0-0.375,0.229-0.375,0.372V8.625z M22,4.375h-2v-0.75h2V4.375z M12,4.375h-2
	v-0.75h2V4.375z"/>
<rect id="_Transparent_Rectangle" style="fill:none;" width="32" height="32"/>
</svg>
