<?xml version="1.0" encoding="iso-8859-1"?>
<!-- Generator: Adobe Illustrator 24.1.2, SVG Export Plug-In . SVG Version: 6.00 Build 0)  -->
<svg version="1.1" id="Layer_1" xmlns="http://www.w3.org/2000/svg" xmlns:xlink="http://www.w3.org/1999/xlink" x="0px" y="0px"
	 viewBox="0 0 32 32" style="enable-background:new 0 0 32 32;" xml:space="preserve">
<path id="stem--leaf--plot_1_" d="M9.4,31H8.6V1h0.7C9.4,1,9.4,31,9.4,31z M21,28.4c-1.3,0-2.4-1.1-2.4-2.4s1.1-2.4,2.4-2.4
	s2.4,1.1,2.4,2.4S22.3,28.4,21,28.4z M21,24.4c-0.9,0-1.6,0.7-1.6,1.6s0.7,1.6,1.6,1.6s1.6-0.7,1.6-1.6S21.9,24.4,21,24.4z M14,28.4
	c-1.3,0-2.4-1.1-2.4-2.4s1.1-2.4,2.4-2.4s2.4,1.1,2.4,2.4S15.3,28.4,14,28.4z M14,24.4c-0.9,0-1.6,0.7-1.6,1.6s0.7,1.6,1.6,1.6
	s1.6-0.7,1.6-1.6S14.9,24.4,14,24.4z M4,28.4c-1.3,0-2.4-1.1-2.4-2.4s1.1-2.4,2.4-2.4s2.4,1.1,2.4,2.4S5.3,28.4,4,28.4z M4,24.4
	c-0.9,0-1.6,0.7-1.6,1.6s0.7,1.6,1.6,1.6s1.6-0.7,1.6-1.6S4.9,24.4,4,24.4z M28,18.4c-1.3,0-2.4-1.1-2.4-2.4s1.1-2.4,2.4-2.4
	s2.4,1.1,2.4,2.4S29.3,18.4,28,18.4z M28,14.4c-0.9,0-1.6,0.7-1.6,1.6c0,0.9,0.7,1.6,1.6,1.6s1.6-0.7,1.6-1.6S28.9,14.4,28,14.4z
	 M21,18.4c-1.3,0-2.4-1.1-2.4-2.4s1.1-2.4,2.4-2.4s2.4,1.1,2.4,2.4S22.3,18.4,21,18.4z M21,14.4c-0.9,0-1.6,0.7-1.6,1.6
	c0,0.9,0.7,1.6,1.6,1.6s1.6-0.7,1.6-1.6S21.9,14.4,21,14.4z M14,18.4c-1.3,0-2.4-1.1-2.4-2.4s1.1-2.4,2.4-2.4s2.4,1.1,2.4,2.4
	S15.3,18.4,14,18.4z M14,14.4c-0.9,0-1.6,0.7-1.6,1.6c0,0.9,0.7,1.6,1.6,1.6s1.6-0.7,1.6-1.6S14.9,14.4,14,14.4z M4,18.4
	c-1.3,0-2.4-1.1-2.4-2.4s1.1-2.4,2.4-2.4s2.4,1.1,2.4,2.4S5.3,18.4,4,18.4z M4,14.4c-0.9,0-1.6,0.7-1.6,1.6c0,0.9,0.7,1.6,1.6,1.6
	s1.6-0.7,1.6-1.6S4.9,14.4,4,14.4z M21,8.4c-1.3,0-2.4-1.1-2.4-2.4s1.1-2.4,2.4-2.4s2.4,1.1,2.4,2.4S22.3,8.4,21,8.4z M21,4.4
	c-0.9,0-1.6,0.7-1.6,1.6s0.7,1.6,1.6,1.6s1.6-0.7,1.6-1.6S21.9,4.4,21,4.4z M14,8.4c-1.3,0-2.4-1.1-2.4-2.4s1.1-2.4,2.4-2.4
	s2.4,1.1,2.4,2.4S15.3,8.4,14,8.4z M14,4.4c-0.9,0-1.6,0.7-1.6,1.6s0.7,1.6,1.6,1.6s1.6-0.7,1.6-1.6S14.9,4.4,14,4.4z M4,8.4
	C2.7,8.4,1.6,7.3,1.6,6S2.7,3.6,4,3.6S6.4,4.7,6.4,6S5.3,8.4,4,8.4z M4,4.4C3.1,4.4,2.4,5.1,2.4,6S3.1,7.6,4,7.6S5.6,6.9,5.6,6
	S4.9,4.4,4,4.4z"/>
<rect id="_Transparent_Rectangle" style="fill:none;" width="32" height="32"/>
</svg>
