<?xml version="1.0" encoding="iso-8859-1"?>
<!-- Generator: Adobe Illustrator 27.5.0, SVG Export Plug-In . SVG Version: 6.00 Build 0)  -->
<svg version="1.1" id="Layer_1" xmlns="http://www.w3.org/2000/svg" xmlns:xlink="http://www.w3.org/1999/xlink" x="0px" y="0px"
	 viewBox="0 0 32 32" style="enable-background:new 0 0 32 32;" xml:space="preserve">
<path id="storage--for-data-and-ai_00000062154154255597712860000004776984795019412096_" d="M13.092,16l-0.699-2.059H9.574
	L8.874,16h-0.85l2.439-6.977h1.069L13.972,16H13.092z M11.003,9.804h-0.05l-1.18,3.397h2.409L11.003,9.804z M14.805,16v-0.699h0.979
	V9.724h-0.979v-0.7h2.799v0.7h-0.979v5.577h0.979V16H14.805z M31,31.36H16c-0.199,0-0.36-0.161-0.36-0.36V19
	c0-0.199,0.161-0.36,0.36-0.36h15c0.199,0,0.36,0.161,0.36,0.36v12C31.36,31.199,31.199,31.36,31,31.36z M16.36,30.64h14.28v-3.28
	H16.36V30.64z M16.36,26.64h14.28v-3.28H16.36V26.64z M16.36,22.64h14.28v-3.28H16.36V22.64z M20,29.36h-2v-0.72h2V29.36z M20,25.36
	h-2v-0.72h2V25.36z M13,25.36c-0.653,0-1.2-0.463-1.331-1.077c-2.089-0.243-4.051-1.057-5.706-2.364
	c-0.515,0.336-1.257,0.268-1.703-0.179c-0.462-0.462-0.521-1.177-0.179-1.703C2.773,18.383,1.96,16.42,1.717,14.33
	C1.103,14.2,0.64,13.653,0.64,13s0.462-1.2,1.077-1.331c0.244-2.09,1.056-4.052,2.364-5.706C3.938,5.745,3.862,5.489,3.862,5.222
	c0-0.363,0.141-0.705,0.398-0.961c0.446-0.446,1.188-0.515,1.703-0.179c1.654-1.308,3.616-2.12,5.706-2.364
	C11.8,1.103,12.347,0.64,13,0.64s1.2,0.462,1.331,1.077c2.089,0.244,4.052,1.057,5.707,2.364c0.527-0.343,1.24-0.283,1.703,0.179
	c0.257,0.257,0.398,0.598,0.398,0.961c0,0.268-0.077,0.523-0.22,0.742c1.308,1.655,2.121,3.617,2.364,5.706
	C24.897,11.8,25.36,12.347,25.36,13s-0.463,1.2-1.077,1.331c-0.112,0.96-0.347,1.901-0.698,2.8l-0.67-0.262
	c0.323-0.829,0.541-1.696,0.647-2.581C23.026,14.105,22.64,13.597,22.64,13s0.387-1.105,0.923-1.288
	c-0.231-1.927-0.981-3.738-2.184-5.27c-0.502,0.247-1.156,0.147-1.562-0.259c-0.257-0.256-0.398-0.598-0.398-0.961
	c0-0.212,0.049-0.417,0.14-0.601c-1.531-1.201-3.342-1.951-5.27-2.184C14.105,2.973,13.597,3.36,13,3.36s-1.105-0.387-1.288-0.923
	C9.784,2.669,7.974,3.419,6.442,4.62c0.091,0.185,0.139,0.39,0.139,0.602c0,0.364-0.142,0.705-0.398,0.962
	C5.778,6.589,5.122,6.691,4.621,6.442C3.42,7.973,2.67,9.784,2.437,11.712C2.973,11.895,3.36,12.403,3.36,13
	s-0.387,1.105-0.923,1.288c0.232,1.928,0.982,3.738,2.184,5.27c0.501-0.247,1.157-0.147,1.563,0.259
	c0.257,0.257,0.398,0.599,0.398,0.962c0,0.212-0.048,0.416-0.139,0.601c1.532,1.202,3.342,1.952,5.27,2.184
	c0.183-0.536,0.691-0.923,1.288-0.923c0.75,0,1.36,0.61,1.36,1.36S13.75,25.36,13,25.36z M13,23.36c-0.353,0-0.64,0.287-0.64,0.64
	s0.287,0.64,0.64,0.64s0.64-0.287,0.64-0.64S13.353,23.36,13,23.36z M5.222,20.139c-0.171,0-0.332,0.066-0.453,0.188
	c-0.25,0.249-0.25,0.655,0,0.904c0.242,0.242,0.664,0.242,0.905,0c0.121-0.121,0.188-0.281,0.188-0.452s-0.067-0.331-0.188-0.452
	C5.553,20.205,5.393,20.139,5.222,20.139z M24,12.36c-0.353,0-0.64,0.287-0.64,0.64s0.287,0.64,0.64,0.64s0.64-0.287,0.64-0.64
	S24.353,12.36,24,12.36z M2,12.36c-0.353,0-0.64,0.287-0.64,0.64S1.647,13.64,2,13.64S2.64,13.353,2.64,13S2.353,12.36,2,12.36z
	 M20.778,4.582c-0.164,0-0.328,0.062-0.452,0.187c-0.121,0.121-0.188,0.282-0.188,0.453s0.066,0.332,0.188,0.452
	c0.242,0.242,0.662,0.242,0.904,0c0.121-0.121,0.188-0.282,0.188-0.453S21.352,4.89,21.23,4.769
	C21.106,4.645,20.942,4.582,20.778,4.582z M5.222,4.582c-0.171,0-0.332,0.067-0.453,0.188C4.648,4.89,4.582,5.051,4.582,5.222
	S4.649,5.554,4.77,5.674c0.242,0.242,0.664,0.242,0.905,0c0.121-0.121,0.188-0.282,0.188-0.453S5.795,4.89,5.674,4.769
	C5.553,4.648,5.393,4.582,5.222,4.582z M13,1.36c-0.353,0-0.64,0.287-0.64,0.64S12.647,2.64,13,2.64S13.64,2.353,13.64,2
	S13.353,1.36,13,1.36z M20,21.36h-2v-0.72h2V21.36z"/>
<rect id="_Transparent_Rectangle" style="fill:none;" width="32" height="32"/>
</svg>
