<?xml version="1.0" encoding="iso-8859-1"?>
<!-- Generator: Adobe Illustrator 24.3.0, SVG Export Plug-In . SVG Version: 6.00 Build 0)  -->
<svg version="1.1" id="Layer_1" xmlns="http://www.w3.org/2000/svg" xmlns:xlink="http://www.w3.org/1999/xlink" x="0px" y="0px"
	 viewBox="0 0 32 32" style="enable-background:new 0 0 32 32;" xml:space="preserve">
<path id="storage--product_1_" d="M30,31.36H8c-0.199,0-0.36-0.161-0.36-0.36v-5c0-0.199,0.161-0.36,0.36-0.36h22
	c0.199,0,0.36,0.161,0.36,0.36v5C30.36,31.199,30.199,31.36,30,31.36z M8.36,30.64h21.28v-4.28H8.36V30.64z M6,31.36H2
	c-0.199,0-0.36-0.161-0.36-0.36V1c0-0.199,0.161-0.36,0.36-0.36h11c0.199,0,0.36,0.161,0.36,0.36v9h-0.72V1.36H2.36v29.28H6V31.36z
	 M28.36,30h-0.72v-2h0.721L28.36,30L28.36,30z M26.36,30h-0.72v-2h0.721L26.36,30L26.36,30z M24.36,30h-0.72v-2h0.721L24.36,30
	L24.36,30z M22.36,30h-0.72v-2h0.721L22.36,30L22.36,30z M30,24.36H8c-0.199,0-0.36-0.161-0.36-0.36v-5
	c0-0.199,0.161-0.36,0.36-0.36h22c0.199,0,0.36,0.161,0.36,0.36v5C30.36,24.199,30.199,24.36,30,24.36z M8.36,23.64h21.28v-4.28
	H8.36V23.64z M28.36,23h-0.72v-2h0.721L28.36,23L28.36,23z M26.36,23h-0.72v-2h0.721L26.36,23L26.36,23z M24.36,23h-0.72v-2h0.721
	L24.36,23L24.36,23z M22.36,23h-0.72v-2h0.721L22.36,23L22.36,23z M30,17.36H8c-0.199,0-0.36-0.161-0.36-0.36v-5
	c0-0.199,0.161-0.36,0.36-0.36h22c0.199,0,0.36,0.161,0.36,0.36v5C30.36,17.199,30.199,17.36,30,17.36z M8.36,16.64h21.28v-4.28
	H8.36V16.64z M28.36,16h-0.72v-2h0.721L28.36,16L28.36,16z M26.36,16h-0.72v-2h0.721L26.36,16L26.36,16z M24.36,16h-0.72v-2h0.721
	L24.36,16L24.36,16z M22.36,16h-0.72v-2h0.721L22.36,16L22.36,16z M6,4.36H4V3.64h2V4.36z"/>
<rect id="_Transparent_Rectangle" style="fill:none;" width="32" height="32"/>
</svg>
