<?xml version="1.0" encoding="iso-8859-1"?>
<!-- Generator: Adobe Illustrator 22.0.0, SVG Export Plug-In . SVG Version: 6.00 Build 0)  -->
<svg version="1.1" xmlns="http://www.w3.org/2000/svg" xmlns:xlink="http://www.w3.org/1999/xlink" x="0px" y="0px"
	 viewBox="0 0 48 48" style="enable-background:new 0 0 48 48;" xml:space="preserve">
<g id="strategy_play">
	<path id="strategy_play_1_" style="fill:none;stroke:#000000;stroke-width:0.72;stroke-miterlimit:10;" d="M36.998,29
		c0,1.105-0.895,2-2,2c-1.105,0-2-0.895-2-2s0.895-2,2-2C36.102,27,36.998,27.895,36.998,29z M27.998,27c-1.105,0-2,0.895-2,2
		s0.895,2,2,2c1.105,0,2-0.895,2-2S29.102,27,27.998,27z M27.998,34c-1.105,0-2,0.895-2,2s0.895,2,2,2c1.105,0,2-0.895,2-2
		S29.102,34,27.998,34z M20.998,27c-1.105,0-2,0.895-2,2s0.895,2,2,2c1.105,0,2-0.895,2-2S22.102,27,20.998,27z M25.886,20l4.112,4
		 M25.998,24l4-4 M18.886,10l4.112,4 M18.998,14l4-4 M32.886,17l4.112,4 M32.998,21l4-4 M12.998,13c0,0,0,13,0,18
		s4.997,5.005,4.997,5.005H24 M14.998,15l-2-2l-1.996,1.996 M33.998,12l-2-2l-1.996,1.996 M31.986,10c0,0,0,0,0,3s-2.988,3-2.988,3
		s0,0-4,0s-4,4-4,4v5"/>
</g>
<g id="Layer_1">
</g>
</svg>
