<?xml version="1.0" encoding="iso-8859-1"?>
<!-- Generator: Adobe Illustrator 22.0.0, SVG Export Plug-In . SVG Version: 6.00 Build 0)  -->
<svg version="1.1" xmlns="http://www.w3.org/2000/svg" xmlns:xlink="http://www.w3.org/1999/xlink" x="0px" y="0px"
	 viewBox="0 0 48 48" style="enable-background:new 0 0 48 48;" xml:space="preserve">
<g id="strategy">
	<path id="strategy_2_" style="fill:none;stroke:#000000;stroke-width:0.72;stroke-linejoin:round;stroke-miterlimit:10;" d="M8,39
		 M11,19h8 M9,31h12 M12,21v5l-3,8l1,2h4.941h-0.023H20l1-2l-3-8v-5 M10,36v3 M20,36v3 M13,11h4V9h-4V11z M13,13h4 M18,17v-2l1-2
		l-1-2h-6l-1,2l1,2v2 M25.999,23H28 M25.999,26H28 M25.999,29H28 M35,34.126l1-3.128L32,24l6,1l1-2l-6-5h-2v-3l-2.905,2.453
		c-1.3,1.3-2.095,2.754-2.095,6.002v7.548L27,34.126 M8,39h32 M38,39v-1.001c0-2.2-1.8-4-4-4h-6c-2.2,0-4,1.8-4,4V39"/>
</g>
<g id="Layer_1">
</g>
</svg>
