<?xml version="1.0" encoding="iso-8859-1"?>
<!-- Generator: Adobe Illustrator 24.1.2, SVG Export Plug-In . SVG Version: 6.00 Build 0)  -->
<svg version="1.1" id="Layer_1" xmlns="http://www.w3.org/2000/svg" xmlns:xlink="http://www.w3.org/1999/xlink" x="0px" y="0px"
	 viewBox="0 0 32 32" style="enable-background:new 0 0 32 32;" xml:space="preserve">
<path id="strategy_1_" d="M31,31.36H1v-0.72h0.64v-2.555l-0.962-1.924c-0.045-0.09-0.05-0.193-0.015-0.287l0.942-2.514H1v-0.72
	h0.875l1.765-4.705V13h0.72v5c0,0.043-0.008,0.086-0.023,0.126L2.645,22.64h8.711l-1.692-4.514C9.648,18.086,9.64,18.043,9.64,18v-5
	h0.72v4.935l1.765,4.705H13v0.721h-0.605l0.942,2.514c0.035,0.094,0.03,0.197-0.015,0.287l-0.962,1.924v2.555h3.28V30
	c0-1.895,1.214-3.51,2.906-4.11l-0.889-2.779C17.646,23.074,17.64,23.037,17.64,23v-7.545c0-3.377,0.843-4.898,2.201-6.256
	l2.927-2.474c0.108-0.091,0.26-0.109,0.384-0.052C23.278,6.732,23.36,6.86,23.36,7v2.64H25c0.084,0,0.166,0.029,0.23,0.083l6,5
	c0.128,0.107,0.166,0.288,0.092,0.438l-1,2c-0.07,0.141-0.22,0.216-0.382,0.194l-5.252-0.875l3.624,6.341
	c0.05,0.088,0.062,0.192,0.03,0.288l-0.889,2.779c1.691,0.601,2.906,2.216,2.906,4.11v0.641H31V31.36z M16.36,30.64h13.28v-0.641
	c0-2.007-1.633-3.639-3.64-3.639h-6c-2.007,0-3.64,1.632-3.64,3.639V30.64z M2.36,30.64h9.28v-2.28H2.36V30.64z M6.941,27.64h4.836
	l0.831-1.66l-0.982-2.619H2.375L1.393,25.98l0.831,1.66H6.941z M20,25.64h6c0.258,0,0.511,0.022,0.757,0.066l0.852-2.665
	l-3.921-6.862c-0.069-0.121-0.062-0.271,0.018-0.384c0.078-0.114,0.212-0.171,0.354-0.149l5.737,0.956l0.754-1.507L24.87,10.36H23
	c-0.199,0-0.36-0.161-0.36-0.36V7.775l-2.312,1.953c-1.097,1.098-1.825,2.345-1.949,4.912H20v0.72h-1.64c0,0.032,0,0.063,0,0.095
	v2.185H20v0.721h-1.64v2.279H20v0.721h-1.64v1.583l0.883,2.763C19.489,25.662,19.742,25.64,20,25.64z M11,11.36H3v-0.72h8V11.36z
	 M10.36,9H9.64V7c0-0.056,0.013-0.111,0.038-0.161L10.598,5l-0.82-1.64H4.223L3.402,5l0.919,1.839C4.347,6.889,4.36,6.944,4.36,7v2
	H3.64V7.085L2.678,5.161c-0.051-0.102-0.051-0.221,0-0.322l1-2C3.739,2.717,3.864,2.64,4,2.64h0.64V1c0-0.199,0.161-0.36,0.36-0.36
	h4c0.199,0,0.36,0.161,0.36,0.36v1.64H10c0.136,0,0.261,0.077,0.322,0.199l1,2c0.051,0.102,0.051,0.221,0,0.322L10.36,7.085V9z
	 M5.36,2.64h3.28V1.36H5.36V2.64z M9,5.36H5V4.64h4V5.36z"/>
<rect id="_Transparent_Rectangle" style="fill:none;" width="32" height="32"/>
</svg>
