<?xml version="1.0" encoding="iso-8859-1"?>
<!-- Generator: Adobe Illustrator 24.1.2, SVG Export Plug-In . SVG Version: 6.00 Build 0)  -->
<svg version="1.1" id="Layer_1" xmlns="http://www.w3.org/2000/svg" xmlns:xlink="http://www.w3.org/1999/xlink" x="0px" y="0px"
	 viewBox="0 0 32 32" style="enable-background:new 0 0 32 32;" xml:space="preserve">
<path id="summit_1_" d="M27.745,31.255l-4.779-4.779l-3.75,2.812c-0.149,0.11-0.359,0.091-0.483-0.047l-8.719-9.688L1.279,30.228
	l-0.558-0.455l9-11c0.067-0.082,0.166-0.13,0.271-0.133c0.073-0.002,0.205,0.042,0.276,0.119l4.481,4.979l6.149-7.516l-7.883-9.635
	L2.291,21.213L1.71,20.787L12.64,5.882V1c0-0.199,0.161-0.36,0.36-0.36h4c0.199,0,0.36,0.161,0.36,0.36v3
	c0,0.199-0.161,0.36-0.36,0.36h-3.64v1.512l8.003,9.782l2.358-2.882c0.066-0.082,0.166-0.13,0.272-0.132
	c0.094,0.004,0.207,0.043,0.276,0.123l7,8l-0.541,0.475l-6.721-7.68L15.235,24.28l3.812,4.235l3.736-2.803
	c0.143-0.106,0.343-0.093,0.471,0.033l5,5L27.745,31.255z M13.36,3.64h3.28V1.36h-3.28V3.64z M27.689,8.235h-4.601
	c-0.799,0-1.449-0.653-1.449-1.456c0-0.94,0.878-1.716,1.72-1.554c0.282-0.929,1.14-1.584,2.15-1.584c0.827,0,1.566,0.44,1.96,1.143
	C28.416,4.66,29.36,5.53,29.36,6.566C29.36,7.486,28.61,8.235,27.689,8.235z M23.089,5.919c-0.41,0-0.729,0.462-0.729,0.86
	c0,0.406,0.326,0.736,0.729,0.736h4.601c0.524,0,0.95-0.426,0.95-0.95c0-0.563-0.453-1.076-0.95-1.076
	c-0.104,0-0.206,0.017-0.305,0.051c-0.181,0.064-0.382-0.031-0.451-0.21c-0.23-0.589-0.789-0.97-1.424-0.97
	c-0.792,0-1.446,0.592-1.521,1.377c-0.012,0.122-0.084,0.229-0.192,0.285c-0.109,0.057-0.239,0.053-0.345-0.006
	C23.34,5.952,23.218,5.919,23.089,5.919z"/>
<rect id="_Transparent_Rectangle" style="fill:none;" width="32" height="32"/>
</svg>
