<?xml version="1.0" encoding="iso-8859-1"?>
<!-- Generator: Adobe Illustrator 24.1.2, SVG Export Plug-In . SVG Version: 6.00 Build 0)  -->
<svg version="1.1" xmlns="http://www.w3.org/2000/svg" xmlns:xlink="http://www.w3.org/1999/xlink" x="0px" y="0px"
	 viewBox="0 0 48 48" style="enable-background:new 0 0 48 48;" xml:space="preserve">
<g id="summit">
	<path id="summit_1_" style="fill:none;stroke:#000000;stroke-width:0.72;stroke-linejoin:round;stroke-miterlimit:10;" d="
		M37,14.565c0,0.723-0.587,1.31-1.311,1.31h-4.601c-0.605,0-1.088-0.491-1.088-1.096c0-0.604,0.483-1.22,1.088-1.22
		c0.198,0,0.382,0.053,0.542,0.144C31.721,12.745,32.527,12,33.509,12c0.802,0,1.485,0.495,1.759,1.199
		c0.132-0.045,0.274-0.07,0.421-0.07C36.414,13.129,37,13.841,37,14.565z M36,39l-5-5l-4,3l-9-10L9,38 M23,32l9-11l7,8 M10,29l11-15
		l8.182,10 M21,14V9h4v3h-4"/>
</g>
<g id="Layer_1">
</g>
</svg>
