<?xml version="1.0" encoding="iso-8859-1"?>
<!-- Generator: Adobe Illustrator 24.1.2, SVG Export Plug-In . SVG Version: 6.00 Build 0)  -->
<svg version="1.1" id="Layer_1" xmlns="http://www.w3.org/2000/svg" xmlns:xlink="http://www.w3.org/1999/xlink" x="0px" y="0px"
	 viewBox="0 0 32 32" style="enable-background:new 0 0 32 32;" xml:space="preserve">
<path id="sunny_1_" d="M16,29.36c-0.199,0-0.36-0.161-0.36-0.36v-3c0-0.199,0.161-0.36,0.36-0.36s0.36,0.161,0.36,0.36v3
	C16.36,29.199,16.199,29.36,16,29.36z M25.192,25.553c-0.092,0-0.185-0.035-0.255-0.105l-2.121-2.121
	c-0.141-0.141-0.141-0.369,0-0.51s0.369-0.141,0.51,0l2.121,2.121c0.141,0.141,0.141,0.369,0,0.51
	C25.377,25.518,25.284,25.553,25.192,25.553z M6.808,25.553c-0.092,0-0.184-0.035-0.254-0.105c-0.141-0.141-0.141-0.369,0-0.51
	l2.121-2.121c0.141-0.141,0.368-0.141,0.509,0s0.141,0.369,0,0.51l-2.121,2.121C6.992,25.518,6.9,25.553,6.808,25.553z M16,23.36
	c-4.058,0-7.36-3.302-7.36-7.36S11.942,8.64,16,8.64c4.059,0,7.36,3.302,7.36,7.36C23.36,20.059,20.059,23.36,16,23.36z M16,9.36
	c-3.661,0-6.64,2.979-6.64,6.64s2.979,6.64,6.64,6.64s6.64-2.979,6.64-6.64S19.661,9.36,16,9.36z M29,16.36h-3
	c-0.199,0-0.36-0.161-0.36-0.36s0.161-0.36,0.36-0.36h3c0.199,0,0.36,0.161,0.36,0.36S29.199,16.36,29,16.36z M6,16.36H3
	c-0.199,0-0.36-0.161-0.36-0.36S2.801,15.64,3,15.64h3c0.199,0,0.36,0.161,0.36,0.36S6.199,16.36,6,16.36z M23.071,9.289
	c-0.092,0-0.185-0.035-0.255-0.105c-0.141-0.141-0.141-0.368,0-0.509l2.121-2.121c0.141-0.141,0.369-0.141,0.51,0
	s0.141,0.368,0,0.509l-2.121,2.121C23.256,9.253,23.163,9.289,23.071,9.289z M8.929,9.289c-0.092,0-0.184-0.035-0.254-0.105
	L6.553,7.062c-0.141-0.141-0.141-0.368,0-0.509s0.368-0.141,0.509,0l2.121,2.121c0.141,0.141,0.141,0.368,0,0.509
	C9.113,9.253,9.021,9.289,8.929,9.289z M16,6.36c-0.199,0-0.36-0.161-0.36-0.36V3c0-0.199,0.161-0.36,0.36-0.36S16.36,2.801,16.36,3
	v3C16.36,6.199,16.199,6.36,16,6.36z"/>
<rect id="_Transparent_Rectangle" style="fill:none;" width="32" height="32"/>
</svg>
