<?xml version="1.0" encoding="iso-8859-1"?>
<!-- Generator: Adobe Illustrator 24.1.2, SVG Export Plug-In . SVG Version: 6.00 Build 0)  -->
<svg version="1.1" id="Layer_1" xmlns="http://www.w3.org/2000/svg" xmlns:xlink="http://www.w3.org/1999/xlink" x="0px" y="0px"
	 viewBox="0 0 32 32" style="enable-background:new 0 0 32 32;" xml:space="preserve">
<path id="support--services_1_" d="M13,12.64c-0.199,0-0.36,0.161-0.36,0.36v6c0,0.199,0.161,0.36,0.36,0.36h6
	c0.199,0,0.36-0.161,0.36-0.36v-6c0-0.199-0.161-0.36-0.36-0.36H13z M18.64,18.64h-5.28v-5.28h5.28V18.64z M25.5,5.36H11V4.64h14.5
	c3.231,0,5.86,2.628,5.86,5.86s-2.629,5.86-5.86,5.86H21v-0.72h4.5c2.834,0,5.14-2.306,5.14-5.14S28.334,5.36,25.5,5.36z M1.36,9
	H0.64V8.5c0-1.714,1.032-3.264,2.575-3.959C2.848,4.118,2.641,3.574,2.641,3c0-1.301,1.058-2.36,2.359-2.36S7.359,1.699,7.359,3
	c0,0.574-0.208,1.118-0.574,1.541C8.328,5.236,9.36,6.785,9.36,8.5V9H8.64V8.5c0-1.605-1.087-3.038-2.644-3.483
	C5.861,4.978,5.761,4.864,5.739,4.725C5.718,4.585,5.78,4.447,5.897,4.37C6.362,4.064,6.64,3.552,6.64,3
	c0-0.904-0.736-1.64-1.64-1.64S3.36,2.096,3.36,3c0,0.552,0.277,1.064,0.742,1.37c0.118,0.077,0.18,0.215,0.159,0.355
	C4.239,4.864,4.139,4.978,4.004,5.017C2.447,5.462,1.36,6.894,1.36,8.5V9z M31.36,30.499V31h-0.72v-0.501
	c0-1.605-1.087-3.037-2.643-3.483c-0.136-0.038-0.236-0.152-0.257-0.291c-0.021-0.14,0.04-0.278,0.157-0.355
	c0.465-0.306,0.742-0.817,0.742-1.369c0-0.904-0.735-1.64-1.64-1.64s-1.64,0.735-1.64,1.64c0,0.552,0.277,1.063,0.742,1.369
	c0.117,0.077,0.179,0.216,0.157,0.355c-0.021,0.139-0.121,0.253-0.257,0.291c-1.556,0.446-2.643,1.878-2.643,3.483V31H22.64v-0.501
	c0-1.714,1.032-3.264,2.575-3.959c-0.367-0.423-0.575-0.967-0.575-1.54c0-1.302,1.059-2.36,2.36-2.36s2.36,1.059,2.36,2.36
	c0,0.573-0.208,1.117-0.575,1.54C30.328,27.235,31.36,28.785,31.36,30.499z M18.255,23.745L21.509,27l-3.254,3.255l-0.51-0.51
	l2.386-2.385H6.5c-3.231,0-5.86-2.629-5.86-5.86s2.628-5.86,5.86-5.86H11v0.72H6.5c-2.834,0-5.14,2.306-5.14,5.14
	s2.306,5.14,5.14,5.14h13.631l-2.386-2.385L18.255,23.745z"/>
<rect id="_Transparent_Rectangle" style="fill:none;" width="32" height="32"/>
</svg>
