<?xml version="1.0" encoding="iso-8859-1"?>
<!-- Generator: Adobe Illustrator 24.1.2, SVG Export Plug-In . SVG Version: 6.00 Build 0)  -->
<svg version="1.1" id="Layer_1" xmlns="http://www.w3.org/2000/svg" xmlns:xlink="http://www.w3.org/1999/xlink" x="0px" y="0px"
	 viewBox="0 0 32 32" style="enable-background:new 0 0 32 32;" xml:space="preserve">
<g id="supply--chain--optimization--02">
	<path id="supply--chain--optimization--02_1_" d="M11,30.36H3v-0.72h8V30.36z M12.36,29h-0.72v-8h0.72V29z M2.36,29H1.64v-8h0.72
		C2.36,21,2.36,29,2.36,29z M26.5,26.86h-3c-0.199,0-0.36-0.161-0.36-0.36v-1.14H14v-0.72h9.14V23.5c0-0.199,0.161-0.36,0.36-0.36
		h1.14V14h0.721v9.14h1.14c0.199,0,0.36,0.161,0.36,0.36v3C26.86,26.699,26.699,26.86,26.5,26.86z M23.86,26.14h2.279v-2.28H23.86
		V26.14z M8.5,26.86h-3c-0.199,0-0.36-0.161-0.36-0.36v-3c0-0.199,0.161-0.36,0.36-0.36h3c0.199,0,0.36,0.161,0.36,0.36v3
		C8.86,26.699,8.699,26.86,8.5,26.86z M5.86,26.14h2.28v-2.28H5.86V26.14z M11,20.36H3v-0.72h8V20.36z M7.36,18H6.64v-4h0.72
		C7.36,14,7.36,18,7.36,18z M29,12.36h-8v-0.72h8V12.36z M11,12.36H3v-0.72h8V12.36z M30.36,11h-0.72V3h0.721L30.36,11L30.36,11z
		 M20.36,11h-0.72V3h0.721L20.36,11L20.36,11z M12.36,11h-0.72V3h0.72V11z M2.36,11H1.64V3h0.72C2.36,3,2.36,11,2.36,11z M26.5,8.86
		h-3c-0.199,0-0.36-0.161-0.36-0.36v-3c0-0.199,0.161-0.36,0.36-0.36h3c0.199,0,0.36,0.161,0.36,0.36v3
		C26.86,8.699,26.699,8.86,26.5,8.86z M23.86,8.14h2.279V5.86H23.86V8.14z M8.5,8.86h-3c-0.199,0-0.36-0.161-0.36-0.36v-3
		c0-0.199,0.161-0.36,0.36-0.36h3c0.199,0,0.36,0.161,0.36,0.36v3C8.86,8.699,8.699,8.86,8.5,8.86z M5.86,8.14h2.28V5.86H5.86V8.14z
		 M18,7.36h-4V6.64h4V7.36z M29,2.36h-8V1.64h8V2.36z M11,2.36H3V1.64h8V2.36z"/>
</g>
<rect id="_Transparent_Rectangle" style="fill:none;" width="32" height="32"/>
</svg>
