<?xml version="1.0" encoding="iso-8859-1"?>
<!-- Generator: Adobe Illustrator 29.1.0, SVG Export Plug-In . SVG Version: 9.03 Build 55587)  -->
<svg version="1.1" id="Layer_1" xmlns="http://www.w3.org/2000/svg" xmlns:xlink="http://www.w3.org/1999/xlink" x="0px" y="0px"
	 viewBox="0 0 32 32" style="enable-background:new 0 0 32 32;" xml:space="preserve">
<path id="sydney--mlc-centre_00000096763235939461257490000008964419478600354478_" d="M13,8.36h-2V7.64h2V8.36z M13,5.64h-2v0.72h2
	V5.64z M13,9.64h-2v0.72h2V9.64z M13,13.64h-2v0.72h2V13.64z M13,3.64h-2v0.72h2V3.64z M13,11.64h-2v0.72h2V11.64z M20,5.64h-5v0.72
	h5V5.64z M13,1.64h-2v0.72h2V1.64z M20,3.64h-5v0.72h5V3.64z M20,1.64h-5v0.72h5V1.64z M9,1.64H4v0.72h5V1.64z M20,11.64h-5v0.72h5
	V11.64z M20,9.64h-5v0.72h5V9.64z M20,7.64h-5v0.72h5V7.64z M9,13.64H4v0.72h5V13.64z M9,23.64H4v0.721h5V23.64z M9,25.64H4v0.721h5
	V25.64z M9,3.64H4v0.72h5V3.64z M29,30.64v0.721H2V30.64h0.64V1c0-0.199,0.161-0.36,0.36-0.36S3.36,0.801,3.36,1v29.64h6.28V23v-7V1
	c0-0.199,0.161-0.36,0.36-0.36S10.36,0.801,10.36,1v14.64h3.28V1c0-0.199,0.161-0.36,0.36-0.36S14.36,0.801,14.36,1v14.64h1.28V14
	c0-0.199,0.161-0.36,0.36-0.36h4.64V1c0-0.199,0.161-0.36,0.36-0.36S21.36,0.801,21.36,1v12.64H22c0.199,0,0.36,0.161,0.36,0.36
	v1.64H28c0.199,0,0.36,0.161,0.36,0.36v7c0,0.199-0.161,0.36-0.36,0.36c-3.557,0-6.469,3.233-6.633,7.279L29,30.64L29,30.64z
	 M27.64,21.36h-2.28v0.14c0,0.199-0.161,0.36-0.36,0.36s-0.36-0.161-0.36-0.36v-0.14h-3.28v0.14c0,0.199-0.161,0.36-0.36,0.36
	s-0.36-0.161-0.36-0.36v-0.14h-3.28v0.14c0,0.199-0.161,0.36-0.36,0.36c-0.199,0-0.36-0.161-0.36-0.36v-0.14h-3.28v0.14
	c0,0.199-0.161,0.36-0.36,0.36s-0.36-0.161-0.36-0.36v-0.14h-2.28v1.279H25h2.64V21.36z M27.64,18.36h-2.28v0.14
	c0,0.199-0.161,0.36-0.36,0.36s-0.36-0.161-0.36-0.36v-0.14h-3.28v0.14c0,0.199-0.161,0.36-0.36,0.36s-0.36-0.161-0.36-0.36v-0.14
	h-3.28v0.14c0,0.199-0.161,0.36-0.36,0.36c-0.199,0-0.36-0.161-0.36-0.36v-0.14h-3.28v0.14c0,0.199-0.161,0.36-0.36,0.36
	s-0.36-0.161-0.36-0.36v-0.14h-2.28v2.279h17.28C27.64,20.639,27.64,18.36,27.64,18.36z M16.36,15.64h5.28v-1.28h-5.28V15.64z
	 M10.36,16.36v1.28h17.28v-1.28H10.36z M12.66,24c-0.71-0.358-1.487-0.567-2.3-0.618v7.258h2.285L12.66,24z M16.633,30.64
	c-0.107-2.65-1.394-4.951-3.268-6.225v6.225H16.633z M17.635,30.64c-0.114-4.046-2.15-7.279-4.635-7.279h-0.012
	c2.482,1.257,4.244,4.031,4.366,7.279H17.635z M18.64,23.36h-3.464c1.808,1.257,3.091,4.031,3.18,7.279h0.284V23.36z M19.645,30.64
	c0.089-3.248,1.372-6.022,3.18-7.279H19.36v7.279H19.645z M20.646,30.64c0.122-3.248,1.884-6.022,4.366-7.279H25
	c-2.485,0-4.521,3.233-4.635,7.279H20.646z M9,19.64H4v0.721h5V19.64z M9,27.64H4v0.721h5V27.64z M9,21.64H4v0.721h5V21.64z M9,7.64
	H4v0.72h5V7.64z M9,9.64H4v0.72h5V9.64z M9,5.64H4v0.72h5V5.64z M9,17.64H4v0.721h5V17.64z M9,15.64H4v0.72h5V15.64z M9,11.64H4
	v0.72h5V11.64z"/>
<rect id="_Transparent_Rectangle" style="fill:none;" width="32" height="32"/>
</svg>
