<?xml version="1.0" encoding="iso-8859-1"?>
<!-- Generator: Adobe Illustrator 24.1.2, SVG Export Plug-In . SVG Version: 6.00 Build 0)  -->
<svg version="1.1" id="Layer_1" xmlns="http://www.w3.org/2000/svg" xmlns:xlink="http://www.w3.org/1999/xlink" x="0px" y="0px"
	 viewBox="0 0 32 32" style="enable-background:new 0 0 32 32;" xml:space="preserve">
<path id="systems-devops--plan_1_" d="M23.25,30.36c-3.921,0-7.11-3.189-7.11-7.11s3.189-7.11,7.11-7.11s7.11,3.189,7.11,7.11
	S27.171,30.36,23.25,30.36z M23.25,16.86c-3.523,0-6.39,2.867-6.39,6.39s2.867,6.39,6.39,6.39s6.39-2.866,6.39-6.39
	S26.773,16.86,23.25,16.86z M15.819,30.311l-12-7C3.708,23.246,3.64,23.128,3.64,23V9h0.72v13.793l11.821,6.896L15.819,30.311z
	 M25.36,25.87l-2.365-2.365c-0.067-0.067-0.105-0.159-0.105-0.255V19h0.721v4.101l2.26,2.26L25.36,25.87z M8.36,16H7.64V6h0.72V16z
	 M28.36,15h-0.72V9.207L16,2.417l-3.64,2.116V13h-0.72V4.325c0-0.128,0.068-0.247,0.179-0.311l4-2.325
	c0.112-0.065,0.251-0.065,0.362,0l12,7C28.292,8.753,28.36,8.872,28.36,9V15z"/>
<rect id="_Transparent_Rectangle" style="fill:none;" width="32" height="32"/>
</svg>
