<?xml version="1.0" encoding="iso-8859-1"?>
<!-- Generator: Adobe Illustrator 24.1.2, SVG Export Plug-In . SVG Version: 6.00 Build 0)  -->
<svg version="1.1" xmlns="http://www.w3.org/2000/svg" xmlns:xlink="http://www.w3.org/1999/xlink" x="0px" y="0px"
	 viewBox="0 0 32 32" style="enable-background:new 0 0 32 32;" xml:space="preserve">
<g id="tags">
	<path id="tags_1_" d="M14.286,28.36c-0.091,0-0.183-0.035-0.253-0.104L0.747,15.128c-0.068-0.067-0.107-0.16-0.107-0.256V7.624
		c0-0.096,0.039-0.188,0.107-0.256l3.666-3.624C4.48,3.677,4.571,3.64,4.666,3.64h12.97c0.095,0,0.185,0.037,0.252,0.103
		l13.364,13.131c0.069,0.068,0.108,0.16,0.108,0.257s-0.039,0.189-0.108,0.257L20.173,28.257c-0.141,0.137-0.364,0.137-0.505-0.001
		l-2.565-2.533l-2.564,2.533C14.469,28.325,14.377,28.36,14.286,28.36z M17.614,25.217l2.308,2.278l10.564-10.364L17.488,4.36
		h-4.612l12.662,12.515c0.068,0.067,0.107,0.16,0.107,0.256c0,0.097-0.039,0.188-0.107,0.256L17.614,25.217z M1.36,14.722
		l12.926,12.772l10.488-10.363L11.852,4.36H4.814L1.36,7.774V14.722z M7.11,12.082c-0.528,0-1.056-0.198-1.458-0.595
		c-0.391-0.387-0.606-0.9-0.606-1.447c0-0.546,0.215-1.06,0.606-1.446c0.804-0.794,2.112-0.793,2.915,0
		c0.391,0.386,0.606,0.899,0.606,1.446c0,0.547-0.215,1.061-0.606,1.447C8.166,11.883,7.638,12.082,7.11,12.082z M7.11,8.717
		c-0.345,0-0.689,0.129-0.952,0.389c-0.252,0.25-0.392,0.581-0.392,0.934c0,0.353,0.139,0.685,0.392,0.935
		c0.526,0.518,1.379,0.518,1.903,0c0.252-0.25,0.392-0.582,0.392-0.935c0-0.353-0.139-0.684-0.392-0.934
		C7.799,8.846,7.455,8.717,7.11,8.717z"/>
</g>
<g id="Layer_1">
</g>
</svg>
