<?xml version="1.0" encoding="iso-8859-1"?>
<!-- Generator: Adobe Illustrator 24.3.0, SVG Export Plug-In . SVG Version: 6.00 Build 0)  -->
<svg version="1.1" id="Layer_1" xmlns="http://www.w3.org/2000/svg" xmlns:xlink="http://www.w3.org/1999/xlink" x="0px" y="0px"
	 viewBox="0 0 32 32" style="enable-background:new 0 0 32 32;" xml:space="preserve">
<path id="tape--storage_1_" d="M16,31.36C7.53,31.36,0.64,24.47,0.64,16S7.53,0.64,16,0.64S31.36,7.53,31.36,16
	S24.47,31.36,16,31.36z M16,1.36C7.927,1.36,1.36,7.927,1.36,16c0,8.072,6.567,14.64,14.64,14.64c8.072,0,14.64-6.567,14.64-14.64
	S24.072,1.36,16,1.36z M20.666,27.416c-0.046,0-0.092-0.009-0.136-0.026c-0.088-0.036-0.159-0.106-0.196-0.194l-2.333-5.528
	c-0.077-0.183,0.009-0.394,0.191-0.472c1.352-0.571,2.45-1.676,3.016-3.03c0.036-0.088,0.106-0.158,0.195-0.194
	c0.088-0.035,0.188-0.036,0.275,0.001l5.536,2.314c0.088,0.037,0.158,0.107,0.194,0.195c0.036,0.089,0.036,0.188-0.001,0.275
	c-1.24,2.962-3.646,5.379-6.602,6.63C20.762,27.406,20.714,27.416,20.666,27.416z M18.801,21.709l2.055,4.869
	c2.523-1.165,4.59-3.239,5.744-5.769l-4.876-2.039C21.106,20.039,20.065,21.085,18.801,21.709z M16,20.36
	c-2.404,0-4.36-1.956-4.36-4.36s1.956-4.36,4.36-4.36s4.36,1.956,4.36,4.36S18.404,20.36,16,20.36z M16,12.36
	c-2.007,0-3.64,1.633-3.64,3.64s1.633,3.64,3.64,3.64s3.64-1.633,3.64-3.64S18.007,12.36,16,12.36z M16,18.36
	c-1.301,0-2.36-1.059-2.36-2.36s1.059-2.36,2.36-2.36c1.302,0,2.36,1.059,2.36,2.36C18.36,17.302,17.302,18.36,16,18.36z M16,14.36
	c-0.904,0-1.64,0.736-1.64,1.64c0,0.904,0.736,1.64,1.64,1.64c0.904,0,1.64-0.735,1.64-1.64S16.904,14.36,16,14.36z M10.46,14.056
	c-0.047,0-0.094-0.009-0.139-0.028l-5.536-2.314c-0.088-0.037-0.158-0.107-0.194-0.195s-0.036-0.188,0.001-0.276
	c1.239-2.96,3.645-5.377,6.601-6.63c0.087-0.039,0.187-0.038,0.276-0.002c0.088,0.036,0.159,0.105,0.196,0.193l2.333,5.528
	c0.077,0.183-0.008,0.394-0.191,0.472c-1.352,0.573-2.45,1.677-3.015,3.031c-0.037,0.088-0.107,0.158-0.195,0.194
	C10.553,14.047,10.506,14.056,10.46,14.056z M5.401,11.191l4.875,2.038c0.618-1.268,1.658-2.313,2.923-2.938l-2.055-4.869
	C8.62,6.587,6.554,8.662,5.401,11.191z"/>
<rect id="_Transparent_Rectangle" style="fill:none;" width="32" height="32"/>
</svg>
