<?xml version="1.0" encoding="iso-8859-1"?>
<!-- Generator: Adobe Illustrator 24.1.2, SVG Export Plug-In . SVG Version: 6.00 Build 0)  -->
<svg version="1.1" id="Layer_1" xmlns="http://www.w3.org/2000/svg" xmlns:xlink="http://www.w3.org/1999/xlink" x="0px" y="0px"
	 viewBox="0 0 32 32" style="enable-background:new 0 0 32 32;" xml:space="preserve">
<path id="target--area_1_" d="M15,16c0-0.552,0.448-1,1-1s1,0.448,1,1s-0.448,1-1,1S15,16.553,15,16z M26,30.64H1.36V1H0.64v30
	c0,0.199,0.161,0.36,0.36,0.36h25V30.64z M31.36,1c0-0.199-0.161-0.36-0.36-0.36H6v0.72h24.64V31h0.721L31.36,1L31.36,1z M26.36,16
	c0-5.712-4.647-10.36-10.36-10.36C10.288,5.64,5.64,10.288,5.64,16c0,5.713,4.647,10.36,10.36,10.36S26.36,21.713,26.36,16z
	 M25.64,16c0,5.315-4.324,9.64-9.64,9.64S6.36,21.315,6.36,16S10.685,6.36,16,6.36S25.64,10.685,25.64,16z M21.36,16
	c0-2.956-2.405-5.36-5.36-5.36c-2.956,0-5.36,2.404-5.36,5.36c0,2.955,2.404,5.36,5.36,5.36C18.955,21.36,21.36,18.955,21.36,16z
	 M20.64,16c0,2.559-2.081,4.64-4.64,4.64s-4.64-2.081-4.64-4.64s2.082-4.64,4.64-4.64S20.64,13.441,20.64,16z"/>
<rect id="_Transparent_Rectangle" style="fill:none;" width="32" height="32"/>
</svg>
