<?xml version="1.0" encoding="iso-8859-1"?>
<!-- Generator: Adobe Illustrator 25.4.1, SVG Export Plug-In . SVG Version: 6.00 Build 0)  -->
<svg version="1.1" id="Layer_1" xmlns="http://www.w3.org/2000/svg" xmlns:xlink="http://www.w3.org/1999/xlink" x="0px" y="0px"
	 viewBox="0 0 32 32" style="enable-background:new 0 0 32 32;" xml:space="preserve">
<path id="teacher_00000106866168324855778710000006040450247008185753_" d="M21.813,31.36c-0.582,0-0.888-0.196-1.091-0.326
	c-0.242-0.156-0.203-0.156-0.445,0c-0.203,0.13-0.509,0.326-1.091,0.326c-1.523,0-2.546-1.959-2.546-3.789
	c0-1.836,0.789-2.932,2.11-2.932c0.501,0,0.804,0.136,1.071,0.254c0.111,0.05,0.211,0.094,0.318,0.126V24
	c0-0.199,0.161-0.36,0.36-0.36c0.353,0,0.64-0.287,0.64-0.64h0.721c0,0.625-0.425,1.153-1,1.312v0.708
	c0.107-0.032,0.207-0.076,0.318-0.126c0.268-0.118,0.57-0.254,1.071-0.254c1.321,0,2.11,1.096,2.11,2.932
	c0,0.569-0.099,1.155-0.283,1.695C23.627,30.577,22.781,31.36,21.813,31.36z M20.5,30.211c0.273,0,0.461,0.12,0.611,0.217
	c0.17,0.109,0.331,0.212,0.702,0.212c0.76,0,1.315-0.83,1.582-1.607c0.16-0.465,0.244-0.971,0.244-1.461
	c0-0.826-0.181-2.211-1.39-2.211c-0.348,0-0.548,0.089-0.779,0.191c-0.249,0.111-0.532,0.237-0.971,0.237s-0.722-0.126-0.971-0.237
	c-0.231-0.103-0.432-0.191-0.779-0.191c-1.209,0-1.39,1.385-1.39,2.211c0,1.448,0.781,3.068,1.826,3.068
	c0.371,0,0.532-0.103,0.702-0.212C20.039,30.331,20.227,30.211,20.5,30.211z M31.36,31h-0.72c0-6.432-4.777-12.232-11.359-13.792
	c-0.15-0.036-0.261-0.163-0.275-0.317s0.071-0.3,0.212-0.363c2.861-1.274,4.71-4.116,4.71-7.241c0-0.313-0.018-0.623-0.054-0.927
	h-3.519c0.004,0.046,0.006,0.093,0.006,0.14c0,1.025-0.835,1.86-1.86,1.86s-1.86-0.834-1.86-1.86c0-0.353-0.287-0.64-0.64-0.64
	s-0.64,0.287-0.64,0.64c0,1.025-0.834,1.86-1.86,1.86s-1.86-0.834-1.86-1.86c0-0.047,0.001-0.094,0.005-0.14h-3.52
	C8.09,8.664,8.072,8.974,8.072,9.287c0,3.125,1.849,5.967,4.71,7.241c0.141,0.063,0.226,0.209,0.212,0.363s-0.125,0.281-0.275,0.317
	C6.137,18.768,1.36,24.568,1.36,31H0.64c0-6.46,4.574-12.312,11.002-14.248c-2.634-1.539-4.29-4.375-4.29-7.465
	c0-4.768,3.879-8.647,8.648-8.647c4.768,0,8.647,3.879,8.647,8.647c0,3.089-1.657,5.926-4.291,7.465
	C26.785,18.688,31.36,24.54,31.36,31z M18.5,7.36c-0.629,0-1.14,0.512-1.14,1.14s0.511,1.14,1.14,1.14s1.14-0.512,1.14-1.14
	S19.129,7.36,18.5,7.36z M13.5,7.36c-0.628,0-1.14,0.512-1.14,1.14s0.512,1.14,1.14,1.14s1.14-0.512,1.14-1.14
	S14.128,7.36,13.5,7.36z M20.149,7.64h3.605C22.995,4.057,19.807,1.36,16,1.36S9.004,4.057,8.244,7.64h3.607
	c0.311-0.594,0.934-1,1.649-1c0.661,0,1.242,0.346,1.572,0.867c0.486-0.455,1.37-0.455,1.856,0C17.258,6.986,17.84,6.64,18.5,6.64
	C19.216,6.64,19.838,7.046,20.149,7.64z"/>
<rect id="_Transparent_Rectangle" style="fill:none;" width="32" height="32"/>
</svg>
