<?xml version="1.0" encoding="iso-8859-1"?>
<!-- Generator: Adobe Illustrator 24.1.2, SVG Export Plug-In . SVG Version: 6.00 Build 0)  -->
<svg version="1.1" id="Layer_1" xmlns="http://www.w3.org/2000/svg" xmlns:xlink="http://www.w3.org/1999/xlink" x="0px" y="0px"
	 viewBox="0 0 32 32" style="enable-background:new 0 0 32 32;" xml:space="preserve">
<path id="teammates_1_" d="M22.36,28h-0.72v-3.521c0-0.199,0.161-0.36,0.36-0.36c2.022,0,4.373-1.649,4.373-3.776v-2.069
	c0-0.199,0.161-0.36,0.36-0.36h1.642c0.166,0,0.251-0.108,0.28-0.156c0.029-0.047,0.089-0.172,0.015-0.319l-2.253-4.164
	c-0.028-0.053-0.044-0.111-0.044-0.171c0-2.298-0.983-7.603-10.013-7.74V9.64h2.711c0.439-0.622,1.16-1,1.929-1
	c1.302,0,2.36,1.059,2.36,2.36s-1.059,2.36-2.36,2.36c-0.769,0-1.489-0.378-1.929-1H16.36V19c0,0.199-0.161,0.36-0.36,0.36h-3.268
	c-0.128,0-0.247-0.069-0.312-0.18c-0.293-0.507-0.837-0.82-1.421-0.82c-0.904,0-1.64,0.735-1.64,1.64s0.736,1.64,1.64,1.64
	c0.583,0,1.128-0.313,1.421-0.82c0.064-0.11,0.183-0.18,0.312-0.18H16c0.199,0,0.36,0.161,0.36,0.36v7h-0.72v-6.64h-2.711
	c-0.439,0.621-1.16,1-1.929,1c-1.301,0-2.36-1.059-2.36-2.36s1.059-2.36,2.36-2.36c0.769,0,1.489,0.379,1.929,1h2.711V12
	c0-0.199,0.161-0.36,0.36-0.36h3.268c0.129,0,0.247,0.068,0.312,0.18c0.293,0.506,0.837,0.82,1.421,0.82
	c0.904,0,1.64-0.736,1.64-1.64S21.904,9.36,21,9.36c-0.584,0-1.128,0.314-1.421,0.82c-0.064,0.111-0.183,0.18-0.312,0.18H16
	c-0.199,0-0.36-0.161-0.36-0.36V5.363C6.611,5.5,5.627,10.805,5.627,13.103c0,0.06-0.015,0.119-0.043,0.171l-2.259,4.173
	c-0.068,0.138-0.009,0.263,0.02,0.31s0.114,0.156,0.281,0.156h1.642c0.199,0,0.36,0.161,0.36,0.36v2.069
	c0,2.127,2.351,3.776,4.373,3.776c0.199,0,0.36,0.161,0.36,0.36V28H9.64v-3.175c-2.305-0.179-4.733-2.037-4.733-4.482v-1.709H3.625
	c-0.367,0-0.701-0.187-0.893-0.498c-0.193-0.312-0.21-0.693-0.046-1.021l2.222-4.104C4.955,7.767,9.094,4.64,16,4.64
	s11.045,3.127,11.093,8.371l2.216,4.095c0.169,0.338,0.151,0.719-0.041,1.03s-0.526,0.498-0.893,0.498h-1.281v1.709
	c0,2.445-2.429,4.304-4.733,4.482L22.36,28L22.36,28z"/>
<rect id="_Transparent_Rectangle" style="fill:none;" width="32" height="32"/>
</svg>
