<?xml version="1.0" encoding="iso-8859-1"?>
<!-- Generator: Adobe Illustrator 24.3.0, SVG Export Plug-In . SVG Version: 6.00 Build 0)  -->
<svg version="1.1" id="Layer_1" xmlns="http://www.w3.org/2000/svg" xmlns:xlink="http://www.w3.org/1999/xlink" x="0px" y="0px"
	 viewBox="0 0 32 32" style="enable-background:new 0 0 32 32;" xml:space="preserve">
<path id="teammates_1_" d="M23.36,31h-0.72v-5c0-0.199,0.161-0.36,0.36-0.36c2.559,0,4.64-2.081,4.64-4.64v-3
	c0-0.199,0.161-0.36,0.36-0.36h2c0.227,0,0.425-0.11,0.543-0.303c0.119-0.192,0.13-0.42,0.027-0.623l-2.874-4.521
	C27.659,12.135,27.64,12.068,27.64,12v-1c0-6.487-3.48-9.64-10.64-9.64h-0.64v7.28h2.968c0.542-0.629,1.341-1,2.172-1
	c1.577,0,2.86,1.283,2.86,2.86s-1.283,2.86-2.86,2.86c-0.831,0-1.63-0.371-2.172-1H16.36V18c0,0.199-0.161,0.36-0.36,0.36h-3.5
	c-0.113,0-0.219-0.053-0.287-0.144c-0.406-0.536-1.046-0.856-1.713-0.856c-1.18,0-2.14,0.96-2.14,2.14s0.96,2.14,2.14,2.14
	c0.667,0,1.308-0.32,1.713-0.856c0.068-0.09,0.174-0.144,0.287-0.144H16c0.199,0,0.36,0.161,0.36,0.36v10h-0.72v-9.64h-2.968
	c-0.542,0.629-1.341,1-2.172,1c-1.577,0-2.86-1.283-2.86-2.86s1.283-2.86,2.86-2.86c0.83,0,1.628,0.371,2.172,1h2.968V12
	c0-0.199,0.161-0.36,0.36-0.36h3.5c0.113,0,0.22,0.053,0.287,0.143c0.405,0.537,1.046,0.857,1.713,0.857c1.18,0,2.14-0.96,2.14-2.14
	s-0.96-2.14-2.14-2.14c-0.667,0-1.308,0.32-1.713,0.857C19.72,9.307,19.613,9.36,19.5,9.36H16c-0.199,0-0.36-0.161-0.36-0.36V1.36
	H15C7.84,1.36,4.36,4.513,4.36,11v1c0,0.068-0.02,0.135-0.056,0.193l-2.893,4.553c-0.083,0.171-0.073,0.399,0.046,0.591
	S1.774,17.64,2,17.64h2c0.199,0,0.36,0.161,0.36,0.36v3c0,2.559,2.082,4.64,4.64,4.64c0.199,0,0.36,0.161,0.36,0.36v5H8.64v-4.652
	c-2.789-0.186-5-2.514-5-5.348v-2.64H2c-0.474,0-0.906-0.241-1.156-0.645c-0.25-0.404-0.272-0.899-0.059-1.324l2.855-4.496V11
	C3.64,4.125,7.462,0.64,15,0.64h2c7.538,0,11.36,3.485,11.36,10.36v0.896l2.836,4.464c0.231,0.457,0.209,0.952-0.04,1.356
	c-0.25,0.403-0.682,0.645-1.156,0.645h-1.64V21c0,2.834-2.212,5.162-5,5.348V31z"/>
<rect id="_Transparent_Rectangle" style="fill:none;" width="32" height="32"/>
</svg>
