<?xml version="1.0" encoding="iso-8859-1"?>
<!-- Generator: Adobe Illustrator 30.4.0, SVG Export Plug-In . SVG Version: 9.03 Build 0)  -->
<svg version="1.1" id="Layer_1" xmlns="http://www.w3.org/2000/svg" xmlns:xlink="http://www.w3.org/1999/xlink" x="0px" y="0px"
	 viewBox="0 0 32 32" style="enable-background:new 0 0 32 32;" xml:space="preserve">
<path id="technology-zone--finger" d="M16,4.36V3.64C9.74,3.64,4.64,8.74,4.64,15c0,2.22,0.63,4.36,1.84,6.2
	c-0.51,0.43-0.84,1.08-0.84,1.8c0,1.3,1.06,2.36,2.36,2.36s2.36-1.06,2.36-2.36S9.3,20.64,8,20.64c-0.32,0-0.62,0.06-0.9,0.17
	C5.96,19.08,5.36,17.08,5.36,15C5.36,9.13,10.13,4.36,16,4.36z M8,21.36c0.9,0,1.64,0.74,1.64,1.64S8.9,24.64,8,24.64
	S6.36,23.9,6.36,23S7.1,21.36,8,21.36z M25.5,24.14c-0.45,0-0.85,0.16-1.17,0.42c-0.08-0.45-0.35-0.85-0.74-1.1
	c2.4-2.15,3.77-5.2,3.77-8.46c0-2.22-0.63-4.36-1.84-6.2c0.51-0.43,0.84-1.08,0.84-1.8c0-1.3-1.06-2.36-2.36-2.36S21.64,5.7,21.64,7
	S22.7,9.36,24,9.36c0.32,0,0.63-0.06,0.91-0.18c1.13,1.73,1.73,3.74,1.73,5.82c0,3.18-1.39,6.15-3.83,8.17
	c-0.1-0.02-0.2-0.03-0.31-0.03c-0.53,0-1.01,0.2-1.34,0.53c-0.3-0.61-0.93-1.03-1.66-1.03c-0.43,0-0.83,0.15-1.14,0.4v-1.08
	c3.01-1,5-3.77,5-6.96c0-4.06-3.3-7.36-7.36-7.36S8.64,10.94,8.64,15c0,3.53,2.55,6.59,6,7.22v4.82c-0.31-0.25-0.71-0.4-1.14-0.4
	c-1.03,0-1.86,0.83-1.86,1.86V31h0.72v-2.5c0-0.63,0.51-1.14,1.14-1.14s1.14,0.51,1.14,1.14V31h0.72V17.5
	c0-0.63,0.51-1.14,1.14-1.14c0.56,0,1.03,0.4,1.12,0.93c0.01,0.07,0.02,0.14,0.02,0.21V28c0,0.2,0.16,0.36,0.36,0.36
	s0.36-0.16,0.36-0.36v-3.5c0-0.63,0.51-1.14,1.14-1.14s1.14,0.51,1.14,1.14v0.3h0.01c-0.01,0.02-0.01,0.04-0.01,0.05V28
	c0,0.2,0.16,0.36,0.36,0.36s0.36-0.16,0.36-0.36v-3.12c0.01-0.02,0.01-0.05,0.01-0.07c0.02-0.62,0.68-1.14,1.46-0.9
	c0.48,0.11,0.81,0.5,0.81,0.94V28c0,0.2,0.16,0.36,0.36,0.36s0.36-0.16,0.36-0.36v-2c0-0.63,0.51-1.14,1.14-1.14
	s1.14,0.51,1.14,1.14v5h0.72v-5C27.36,24.97,26.53,24.14,25.5,24.14z M24,8.64c-0.9,0-1.64-0.74-1.64-1.64S23.1,5.36,24,5.36
	S25.64,6.1,25.64,7S24.9,8.64,24,8.64z M18.11,16.58c-0.32-0.57-0.92-0.94-1.61-0.94c-0.95,0-1.73,0.71-1.84,1.63
	c-0.79-0.46-1.3-1.32-1.3-2.27c0-1.46,1.18-2.64,2.64-2.64s2.64,1.18,2.64,2.64C18.64,15.59,18.45,16.13,18.11,16.58z M18.35,17.39
	c0.64-0.62,1.01-1.48,1.01-2.39c0-1.85-1.51-3.36-3.36-3.36s-3.36,1.51-3.36,3.36c0,1.34,0.79,2.54,2,3.06v3.42
	c-3.03-0.61-5.28-3.34-5.28-6.48c0-3.66,2.98-6.64,6.64-6.64s6.64,2.98,6.64,6.64c0,2.8-1.7,5.24-4.28,6.21V17.5
	C18.36,17.46,18.36,17.43,18.35,17.39z"/>
<rect id="Transparent_Rectangle" style="fill:none;" width="32" height="32"/>
</svg>
