<?xml version="1.0" encoding="iso-8859-1"?>
<!-- Generator: Adobe Illustrator 28.0.0, SVG Export Plug-In . SVG Version: 6.00 Build 0)  -->
<svg version="1.1" id="Layer_1" xmlns="http://www.w3.org/2000/svg" xmlns:xlink="http://www.w3.org/1999/xlink" x="0px" y="0px"
	 viewBox="0 0 32 32" style="enable-background:new 0 0 32 32;" xml:space="preserve">
<path id="tennis--racquet_00000144314629744391549810000002986853203109949320_" d="M20.255,16.746L18.509,15l2.746-2.746
	c0.141-0.141,0.141-0.368,0-0.509s-0.369-0.141-0.51,0L18,14.491L15.509,12L18,9.509l1.745,1.745c0.07,0.07,0.163,0.105,0.255,0.105
	s0.185-0.035,0.255-0.105c0.141-0.141,0.141-0.368,0-0.509L18.509,9l0.746-0.746c0.141-0.141,0.141-0.368,0-0.509
	s-0.369-0.141-0.51,0L18,8.491L15.509,6l0.746-0.746c0.141-0.141,0.141-0.368,0-0.509s-0.368-0.141-0.509,0L15,5.491l-1.746-1.746
	c-0.141-0.141-0.368-0.141-0.509,0s-0.141,0.368,0,0.509L14.491,6L12,8.491L9.509,6l2.746-2.746c0.141-0.141,0.141-0.368,0-0.509
	s-0.368-0.141-0.509,0L9,5.491L7.254,3.746c-0.141-0.141-0.368-0.141-0.509,0s-0.141,0.368,0,0.509L8.491,6L6,8.491L4.254,6.746
	c-0.141-0.141-0.368-0.141-0.509,0s-0.141,0.368,0,0.509L5.491,9l-2.746,2.746c-0.141,0.141-0.141,0.368,0,0.509
	C2.816,12.325,2.908,12.36,3,12.36s0.184-0.035,0.254-0.105L6,9.509L8.491,12L6,14.491l-1.746-1.746
	c-0.141-0.141-0.368-0.141-0.509,0s-0.141,0.368,0,0.509L5.491,15l-0.746,0.746c-0.141,0.141-0.141,0.368,0,0.509
	C4.816,16.325,4.908,16.36,5,16.36s0.184-0.035,0.254-0.105L6,15.509L8.491,18l-0.745,0.745c-0.141,0.141-0.141,0.369,0,0.51
	C7.816,19.325,7.908,19.36,8,19.36s0.184-0.035,0.254-0.105L9,18.509l1.746,1.746c0.07,0.07,0.162,0.105,0.254,0.105
	s0.184-0.035,0.254-0.105c0.141-0.141,0.141-0.369,0-0.51L9.509,18L12,15.509L14.491,18l-2.745,2.745
	c-0.141,0.141-0.141,0.369,0,0.51c0.07,0.07,0.162,0.105,0.254,0.105s0.184-0.035,0.254-0.105L15,18.509l1.746,1.746
	c0.07,0.07,0.162,0.105,0.254,0.105s0.185-0.035,0.255-0.105c0.141-0.141,0.141-0.369,0-0.51L15.509,18l2.49-2.49l1.745,1.745
	c0.07,0.07,0.163,0.105,0.255,0.105s0.185-0.035,0.255-0.105C20.396,17.114,20.396,16.886,20.255,16.746z M15,6.509L17.491,9
	L15,11.491L12.509,9L15,6.509z M14.491,12L12,14.491L9.509,12L12,9.509L14.491,12z M6.509,9L9,6.509L11.491,9L9,11.491L6.509,9z
	 M9,17.491L6.509,15L9,12.509L11.491,15L9,17.491z M15,17.491L12.509,15L15,12.509L17.491,15L15,17.491z M31.255,28.624
	l-6.123-6.123c-2.658-2.657-2.113-6.267-2.107-6.303c0-0.001,0-0.003,0-0.004c0.281-1.089,0.392-2.248,0.308-3.451
	c-0.211-3.018-1.582-5.935-3.861-8.213s-5.196-3.65-8.213-3.861C8.224,0.453,5.446,1.441,3.444,3.444
	c-4.12,4.119-3.633,11.309,1.085,16.028c2.568,2.568,5.869,3.883,9.008,3.883c0.894,0,1.773-0.116,2.621-0.331
	c0.013,0,0.026,0.004,0.04,0.002c0.038-0.006,3.646-0.55,6.303,2.106l6.123,6.123c0.07,0.07,0.163,0.105,0.255,0.105
	s0.185-0.035,0.255-0.105l2.121-2.121C31.396,28.993,31.396,28.765,31.255,28.624z M5.038,18.962
	C0.601,14.524,0.114,7.792,3.953,3.953c1.687-1.687,3.973-2.593,6.5-2.593c0.249,0,0.501,0.009,0.754,0.026
	c2.845,0.199,5.598,1.496,7.754,3.652c2.157,2.156,3.454,4.91,3.653,7.754c0.197,2.826-0.714,5.402-2.567,7.254
	C16.208,23.888,9.476,23.399,5.038,18.962z M20.557,20.557c0.72-0.721,1.304-1.544,1.752-2.441c0.141,1.228,0.578,2.83,1.772,4.293
	l-1.672,1.672c-1.466-1.196-3.072-1.633-4.301-1.772C18.999,21.867,19.827,21.286,20.557,20.557z M28.879,30.491l-5.868-5.869
	c-0.021-0.021-0.043-0.038-0.064-0.059l1.617-1.617c0.021,0.021,0.038,0.043,0.059,0.064l5.869,5.868L28.879,30.491z"/>
<rect id="_Transparent_Rectangle" style="fill:none;" width="32" height="32"/>
</svg>
