<?xml version="1.0" encoding="iso-8859-1"?>
<!-- Generator: Adobe Illustrator 24.3.0, SVG Export Plug-In . SVG Version: 6.00 Build 0)  -->
<svg version="1.1" id="Layer_1" xmlns="http://www.w3.org/2000/svg" xmlns:xlink="http://www.w3.org/1999/xlink" x="0px" y="0px"
	 viewBox="0 0 32 32" style="enable-background:new 0 0 32 32;" xml:space="preserve">
<path id="text--layout_1_" d="M29,3.5C29,3.776,28.776,4,28.5,4S28,3.776,28,3.5S28.224,3,28.5,3S29,3.224,29,3.5z M26.5,3
	C26.224,3,26,3.224,26,3.5S26.224,4,26.5,4S27,3.776,27,3.5S26.776,3,26.5,3z M24.5,3C24.224,3,24,3.224,24,3.5S24.224,4,24.5,4
	S25,3.776,25,3.5S24.776,3,24.5,3z M31,30.36H1c-0.199,0-0.36-0.161-0.36-0.36V2c0-0.199,0.161-0.36,0.36-0.36h30
	c0.199,0,0.36,0.161,0.36,0.36v28C31.36,30.199,31.199,30.36,31,30.36z M1.36,29.64h29.28V5.36H1.36V29.64z M1.36,4.64h29.28V2.36
	H1.36V4.64z M14,26.36H4v-0.72h10V26.36z M20,24.36H4v-0.72h16V24.36z M20,22.36H4v-0.72h16V22.36z M20,20.36H4v-0.72h16V20.36z
	 M10,18.36H4v-0.72h6V18.36z M14,14.36H4v-0.72h10V14.36z M20,12.36H4v-0.72h16V12.36z M20,10.36H4V9.64h16V10.36z M10,8.36H4V7.64
	h6V8.36z"/>
<rect id="_Transparent_Rectangle" style="fill:none;" width="32" height="32"/>
</svg>
