<?xml version="1.0" encoding="iso-8859-1"?>
<!-- Generator: Adobe Illustrator 24.3.0, SVG Export Plug-In . SVG Version: 6.00 Build 0)  -->
<svg version="1.1" id="Layer_1" xmlns="http://www.w3.org/2000/svg" xmlns:xlink="http://www.w3.org/1999/xlink" x="0px" y="0px"
	 viewBox="0 0 32 32" style="enable-background:new 0 0 32 32;" xml:space="preserve">
<path id="text--input_1_" d="M30,29.36H2c-0.199,0-0.36-0.161-0.36-0.36v-4c0-0.199,0.161-0.36,0.36-0.36h28
	c0.199,0,0.36,0.161,0.36,0.36v4C30.36,29.199,30.199,29.36,30,29.36z M2.36,28.64h27.28v-3.28H2.36V28.64z M14,23.36H2v-0.72h12
	V23.36z M30,19.36H2c-0.199,0-0.36-0.161-0.36-0.36v-4c0-0.199,0.161-0.36,0.36-0.36h28c0.199,0,0.36,0.161,0.36,0.36v4
	C30.36,19.199,30.199,19.36,30,19.36z M2.36,18.64h27.28v-3.28H2.36V18.64z M14,13.36H2v-0.72h12V13.36z M30,9.36H2
	C1.801,9.36,1.64,9.199,1.64,9V5c0-0.199,0.161-0.36,0.36-0.36h28c0.199,0,0.36,0.161,0.36,0.36v4C30.36,9.199,30.199,9.36,30,9.36z
	 M2.36,8.64h27.28V5.36H2.36V8.64z M14,3.36H2V2.64h12V3.36z"/>
<rect id="_Transparent_Rectangle" style="fill:none;" width="32" height="32"/>
</svg>
