<?xml version="1.0" encoding="iso-8859-1"?>
<!-- Generator: Adobe Illustrator 24.1.2, SVG Export Plug-In . SVG Version: 6.00 Build 0)  -->
<svg version="1.1" id="Layer_1" xmlns="http://www.w3.org/2000/svg" xmlns:xlink="http://www.w3.org/1999/xlink" x="0px" y="0px"
	 viewBox="0 0 32 32" style="enable-background:new 0 0 32 32;" xml:space="preserve">
<path id="time--plot_1_" d="M31,31.4H1c-0.2,0-0.4-0.2-0.4-0.4V1h0.7v14.6H11c0.1,0,0.2,0,0.3,0.1l7.9,7.9H31v0.7H19
	c-0.1,0-0.2,0-0.3-0.1l-7.9-7.9H1.4v14.3H31V31.4z M24,15.4c-4.1,0-7.4-3.3-7.4-7.4s3.3-7.4,7.4-7.4s7.4,3.3,7.4,7.4
	S28.1,15.4,24,15.4z M17.4,8.4c0.2,3.4,2.9,6.1,6.3,6.3V13h0.7v1.6c3.4-0.2,6.1-2.9,6.3-6.3H29V7.6h1.6c-0.2-3.4-2.9-6.1-6.3-6.3V3
	h-0.7V1.4c-3.4,0.2-6.1,2.9-6.3,6.3H19v0.7L17.4,8.4L17.4,8.4z M25.7,10.3l-2-2c-0.1-0.1-0.1-0.2-0.1-0.3V4h0.7v3.9l1.9,1.9
	L25.7,10.3z"/>
<rect id="_Transparent_Rectangle" style="fill:none;" width="32" height="32"/>
</svg>
