<?xml version="1.0" encoding="iso-8859-1"?>
<!-- Generator: Adobe Illustrator 22.0.0, SVG Export Plug-In . SVG Version: 6.00 Build 0)  -->
<svg version="1.1" xmlns="http://www.w3.org/2000/svg" xmlns:xlink="http://www.w3.org/1999/xlink" x="0px" y="0px"
	 viewBox="0 0 48 48" style="enable-background:new 0 0 48 48;" xml:space="preserve">
<g id="toggle">
	<path id="toggle_1_" style="fill:none;stroke:#000000;stroke-width:0.72;stroke-linecap:round;stroke-miterlimit:10;" d="M33,21H15
		c-3.3,0-6-2.7-6-6v0c0-3.3,2.7-6,6-6h18c3.3,0,6,2.7,6,6v0C39,18.3,36.3,21,33,21z M39,33L39,33c0-3.3-2.7-6-6-6H15
		c-3.3,0-6,2.7-6,6v0c0,3.3,2.7,6,6,6h18C36.3,39,39,36.3,39,33z M15,12c-1.657,0-3,1.343-3,3s1.343,3,3,3s3-1.343,3-3
		S16.657,12,15,12z M33,30c-1.657,0-3,1.343-3,3c0,1.657,1.343,3,3,3c1.657,0,3-1.343,3-3C36,31.343,34.657,30,33,30z"/>
</g>
<g id="Layer_1">
</g>
</svg>
