<?xml version="1.0" encoding="iso-8859-1"?>
<!-- Generator: Adobe Illustrator 29.1.0, SVG Export Plug-In . SVG Version: 9.03 Build 55587)  -->
<svg version="1.1" id="Layer_1" xmlns="http://www.w3.org/2000/svg" xmlns:xlink="http://www.w3.org/1999/xlink" x="0px" y="0px"
	 viewBox="0 0 32 32" style="enable-background:new 0 0 32 32;" xml:space="preserve">
<path id="toilet_00000181775229808170079170000017925781301207123882_" d="M22,30.36H10c-0.099,0-0.193-0.041-0.262-0.113
	C9.67,30.176,9.635,30.079,9.64,29.98l0.483-8.7C8,19.563,6.64,16.938,6.64,14c0-0.199,0.161-0.36,0.36-0.36h18
	c0.199,0,0.36,0.161,0.36,0.36c0,2.938-1.36,5.563-3.484,7.28l0.483,8.7c0.006,0.099-0.03,0.195-0.098,0.267
	C22.193,30.319,22.099,30.36,22,30.36z M10.38,29.64h11.239l-0.436-7.85c-1.485,0.991-3.268,1.57-5.184,1.57
	s-3.698-0.579-5.184-1.57L10.38,29.64z M7.367,14.36c0.19,4.598,3.989,8.28,8.633,8.28s8.443-3.682,8.633-8.28H7.367z M22.19,12.36
	H9.81c-1.217,0-2.227-0.914-2.349-2.125l-0.82-8.2c-0.01-0.101,0.023-0.202,0.091-0.277C6.801,1.683,6.898,1.64,7,1.64h18
	c0.102,0,0.198,0.043,0.267,0.118c0.068,0.076,0.102,0.176,0.092,0.277l-0.82,8.199C24.418,11.446,23.408,12.36,22.19,12.36z
	 M7.398,2.36l0.78,7.804c0.084,0.842,0.786,1.477,1.632,1.477h12.38c0.846,0,1.548-0.635,1.631-1.477l0.781-7.804
	C24.602,2.36,7.398,2.36,7.398,2.36z M12,4.36H9V3.64h3V4.36z"/>
<rect id="_Transparent_Rectangle" style="fill:none;" width="32" height="32"/>
</svg>
