<?xml version="1.0" encoding="iso-8859-1"?>
<!-- Generator: Adobe Illustrator 29.1.0, SVG Export Plug-In . SVG Version: 9.03 Build 55587)  -->
<svg version="1.1" id="Layer_1" xmlns="http://www.w3.org/2000/svg" xmlns:xlink="http://www.w3.org/1999/xlink" x="0px" y="0px"
	 viewBox="0 0 32 32" style="enable-background:new 0 0 32 32;" xml:space="preserve">
<path id="toilet--02_00000098187265275927893340000017863911102834549938_" d="M13,3.36h-2V2.64h2V3.36z M10.64,17
	c0-1.533,2.761-2.36,5.36-2.36s5.36,0.827,5.36,2.36s-2.762,2.36-5.36,2.36S10.64,18.533,10.64,17z M11.36,17
	c0,0.774,1.984,1.64,4.64,1.64c2.655,0,4.64-0.865,4.64-1.64c0-0.774-1.984-1.64-4.64-1.64S11.36,16.226,11.36,17z M24.36,19
	c0,2.064-0.756,3.952-2,5.412V31c0,0.199-0.161,0.36-0.36,0.36H10c-0.199,0-0.36-0.161-0.36-0.36v-6.588
	c-1.244-1.46-2-3.348-2-5.412v-2c0-1.066,0.698-2.03,1.873-2.78L8.641,3.028C8.603,2.4,8.81,1.815,9.224,1.375
	C9.664,0.908,10.312,0.64,11,0.64h10c0.688,0,1.337,0.268,1.776,0.736c0.414,0.44,0.621,1.024,0.583,1.646l-0.872,11.199
	c1.175,0.75,1.873,1.714,1.873,2.779V19z M9.359,2.978l0.13,1.662h13.022l0.13-1.668c0.026-0.421-0.108-0.805-0.389-1.103
	C21.947,1.545,21.491,1.36,21,1.36H11c-0.491,0-0.947,0.186-1.251,0.509C9.468,2.167,9.333,2.551,9.359,2.978z M10.206,13.835
	c1.492-0.742,3.522-1.195,5.794-1.195c2.273,0,4.302,0.453,5.794,1.195l0.66-8.475H9.545L10.206,13.835z M8.36,17
	c0,1.973,3.499,3.64,7.64,3.64c4.142,0,7.64-1.667,7.64-3.64s-3.498-3.64-7.64-3.64C11.859,13.36,8.36,15.027,8.36,17z M21.64,30.64
	v-5.486c-1.489,1.366-3.465,2.207-5.64,2.207s-4.152-0.842-5.64-2.208v5.487H21.64z M23.64,19v-0.206
	c-1.289,1.525-4.186,2.567-7.64,2.567c-3.455,0-6.352-1.042-7.64-2.568V19c0,4.213,3.427,7.64,7.64,7.64S23.64,23.213,23.64,19z"/>
<rect id="_Transparent_Rectangle" style="fill:none;" width="32" height="32"/>
</svg>
