<?xml version="1.0" encoding="iso-8859-1"?>
<!-- Generator: Adobe Illustrator 22.0.0, SVG Export Plug-In . SVG Version: 6.00 Build 0)  -->
<svg version="1.1" xmlns="http://www.w3.org/2000/svg" xmlns:xlink="http://www.w3.org/1999/xlink" x="0px" y="0px"
	 viewBox="0 0 48 48" style="enable-background:new 0 0 48 48;" xml:space="preserve">
<g id="tokyo_cherry_blossom">
	<rect style="fill:#FFFFFF;" width="48" height="48"/>
	<g id="tokyo_cherry_blossom_1_">
		<g>
			
				<line style="fill:none;stroke:#000000;stroke-width:0.72;stroke-linecap:round;stroke-linejoin:round;stroke-miterlimit:10;" x1="24" y1="17.406" x2="24" y2="24.811"/>
			
				<line style="fill:none;stroke:#000000;stroke-width:0.72;stroke-linecap:round;stroke-linejoin:round;stroke-miterlimit:10;" x1="24" y1="24.811" x2="16.957" y2="22.523"/>
			
				<line style="fill:none;stroke:#000000;stroke-width:0.72;stroke-linecap:round;stroke-linejoin:round;stroke-miterlimit:10;" x1="19.647" y1="30.803" x2="24" y2="24.811"/>
			
				<line style="fill:none;stroke:#000000;stroke-width:0.72;stroke-linecap:round;stroke-linejoin:round;stroke-miterlimit:10;" x1="24" y1="24.811" x2="28.353" y2="30.803"/>
			
				<line style="fill:none;stroke:#000000;stroke-width:0.72;stroke-linecap:round;stroke-linejoin:round;stroke-miterlimit:10;" x1="31.043" y1="22.523" x2="24" y2="24.811"/>
		</g>
		<g>
			
				<line style="fill:none;stroke:#000000;stroke-width:0.72;stroke-linecap:round;stroke-linejoin:round;stroke-miterlimit:10;" x1="24" y1="29.043" x2="24" y2="24.811"/>
			
				<line style="fill:none;stroke:#000000;stroke-width:0.72;stroke-linecap:round;stroke-linejoin:round;stroke-miterlimit:10;" x1="24" y1="24.811" x2="19.975" y2="26.119"/>
			
				<line style="fill:none;stroke:#000000;stroke-width:0.72;stroke-linecap:round;stroke-linejoin:round;stroke-miterlimit:10;" x1="21.513" y1="21.388" x2="24" y2="24.811"/>
			
				<line style="fill:none;stroke:#000000;stroke-width:0.72;stroke-linecap:round;stroke-linejoin:round;stroke-miterlimit:10;" x1="24" y1="24.811" x2="26.487" y2="21.388"/>
			
				<line style="fill:none;stroke:#000000;stroke-width:0.72;stroke-linecap:round;stroke-linejoin:round;stroke-miterlimit:10;" x1="28.025" y1="26.119" x2="24" y2="24.811"/>
		</g>
		
			<circle style="fill:none;stroke:#000000;stroke-width:0.72;stroke-linecap:round;stroke-linejoin:round;stroke-miterlimit:10;" cx="24" cy="30.101" r="1.058"/>
		
			<circle style="fill:none;stroke:#000000;stroke-width:0.72;stroke-linecap:round;stroke-linejoin:round;stroke-miterlimit:10;" cx="20.891" cy="20.532" r="1.058"/>
		
			<circle style="fill:none;stroke:#000000;stroke-width:0.72;stroke-linecap:round;stroke-linejoin:round;stroke-miterlimit:10;" cx="29.031" cy="26.446" r="1.058"/>
		
			<circle style="fill:none;stroke:#000000;stroke-width:0.72;stroke-linecap:round;stroke-linejoin:round;stroke-miterlimit:10;" cx="18.969" cy="26.446" r="1.058"/>
		
			<circle style="fill:none;stroke:#000000;stroke-width:0.72;stroke-linecap:round;stroke-linejoin:round;stroke-miterlimit:10;" cx="27.109" cy="20.532" r="1.058"/>
		<path style="fill:none;stroke:#000000;stroke-width:0.72;stroke-linecap:round;stroke-miterlimit:10;" d="M38.086,20.234
			c-0.433-1.331-1.267-2.416-2.321-3.177c-1.076-0.777-2.382-1.213-3.739-1.208c-0.563,0.002-1.133,0.093-1.698,0.252
			c-0.024-0.603-0.12-1.188-0.3-1.737c-0.422-1.282-1.241-2.38-2.312-3.156C26.67,10.452,25.389,10,24,10s-2.67,0.452-3.716,1.209
			c-1.071,0.776-1.89,1.874-2.312,3.156c-0.181,0.549-0.276,1.134-0.3,1.737c-0.581-0.164-1.167-0.253-1.745-0.251
			c-1.35,0.005-2.647,0.445-3.716,1.223c-1.043,0.76-1.868,1.839-2.298,3.16c-0.429,1.321-0.396,2.679,0.001,3.907
			c0.407,1.258,1.198,2.377,2.287,3.174c0.466,0.341,0.993,0.613,1.56,0.822c-0.335,0.502-0.602,1.032-0.778,1.582
			c-0.412,1.285-0.395,2.655,0.015,3.912c0.401,1.227,1.172,2.345,2.296,3.162c1.124,0.817,2.426,1.204,3.717,1.206
			c1.322,0.002,2.63-0.405,3.725-1.195c0.469-0.338,0.89-0.755,1.264-1.229c0.364,0.461,0.772,0.87,1.226,1.203
			c1.094,0.802,2.407,1.216,3.735,1.22c1.3,0.004,2.613-0.383,3.746-1.206c1.132-0.823,1.906-1.952,2.304-3.19
			c0.406-1.264,0.418-2.641-0.006-3.929c-0.176-0.534-0.438-1.048-0.765-1.537c0.551-0.204,1.065-0.465,1.522-0.794
			c1.1-0.793,1.9-1.914,2.315-3.175C38.481,22.934,38.519,21.566,38.086,20.234z"/>
		
			<circle style="fill:none;stroke:#000000;stroke-width:0.72;stroke-linecap:round;stroke-linejoin:round;stroke-miterlimit:10;" cx="24" cy="16.348" r="1.058"/>
		
			<circle style="fill:none;stroke:#000000;stroke-width:0.72;stroke-linecap:round;stroke-linejoin:round;stroke-miterlimit:10;" cx="15.951" cy="22.196" r="1.058"/>
		
			<circle style="fill:none;stroke:#000000;stroke-width:0.72;stroke-linecap:round;stroke-linejoin:round;stroke-miterlimit:10;" cx="19.025" cy="31.658" r="1.058"/>
		
			<circle style="fill:none;stroke:#000000;stroke-width:0.72;stroke-linecap:round;stroke-linejoin:round;stroke-miterlimit:10;" cx="28.975" cy="31.658" r="1.058"/>
		
			<circle style="fill:none;stroke:#000000;stroke-width:0.72;stroke-linecap:round;stroke-linejoin:round;stroke-miterlimit:10;" cx="32.049" cy="22.196" r="1.058"/>
		
			<line style="fill:none;stroke:#000000;stroke-width:0.72;stroke-linecap:round;stroke-linejoin:round;stroke-miterlimit:10;" x1="24" y1="10" x2="24" y2="12.116"/>
		
			<line style="fill:none;stroke:#000000;stroke-width:0.72;stroke-linecap:round;stroke-linejoin:round;stroke-miterlimit:10;" x1="9.914" y1="20.234" x2="11.926" y2="20.888"/>
		
			<line style="fill:none;stroke:#000000;stroke-width:0.72;stroke-linecap:round;stroke-linejoin:round;stroke-miterlimit:10;" x1="15.294" y1="36.794" x2="16.538" y2="35.082"/>
		
			<line style="fill:none;stroke:#000000;stroke-width:0.72;stroke-linecap:round;stroke-linejoin:round;stroke-miterlimit:10;" x1="32.706" y1="36.794" x2="31.462" y2="35.082"/>
		
			<line style="fill:none;stroke:#000000;stroke-width:0.72;stroke-linecap:round;stroke-linejoin:round;stroke-miterlimit:10;" x1="38.086" y1="20.234" x2="36.074" y2="20.888"/>
	</g>
</g>
<g id="Layer_1">
</g>
</svg>
