<svg xmlns="http://www.w3.org/2000/svg" viewBox="0 0 48 48"><line x1="16" x2="21.667" y1="37" y2="37" fill="none" stroke-linecap="round" stroke-linejoin="round" stroke-miterlimit="10" stroke-width=".72"/><line x1="26.333" x2="32" y1="37" y2="37" fill="none" stroke-linecap="round" stroke-linejoin="round" stroke-miterlimit="10" stroke-width=".72"/><line x1="21" x2="26.667" y1="33" y2="33" fill="none" stroke-linecap="round" stroke-linejoin="round" stroke-miterlimit="10" stroke-width=".72"/><line x1="14" x2="34" y1="35" y2="35" fill="none" stroke-linecap="round" stroke-linejoin="round" stroke-miterlimit="10" stroke-width=".72"/><polyline fill="none" stroke-linejoin="round" stroke-miterlimit="10" stroke-width=".72" points="30,24 28,25 26,24 24,25 22,24 20,25 18,24"/><path fill="none" stroke-linecap="round" stroke-linejoin="round" stroke-miterlimit="10" stroke-width=".72" d="M18,33h-8l11.317-12.58c0.222-0.266,0.55-0.42,0.896-0.42h3.574c0.346,0,0.675,0.154,0.896,0.42L38,33h-9"/><path fill="none" stroke-linecap="round" stroke-linejoin="round" stroke-miterlimit="10" stroke-width=".72" d="M16.423,25.859C15.523,24.458,15,22.79,15,21c0-4.971,4.029-9,9-9s9,4.029,9,9c0,1.79-0.523,3.458-1.423,4.859"/></svg>