<?xml version="1.0" encoding="iso-8859-1"?>
<!-- Generator: Adobe Illustrator 24.1.2, SVG Export Plug-In . SVG Version: 6.00 Build 0)  -->
<svg version="1.1" id="Layer_1" xmlns="http://www.w3.org/2000/svg" xmlns:xlink="http://www.w3.org/1999/xlink" x="0px" y="0px"
	 viewBox="0 0 32 32" style="enable-background:new 0 0 32 32;" xml:space="preserve">
<path id="tokyo--temple_1_" d="M26.36,30.64v-2h-2v-1.28H26c1.302,0,2.36-1.059,2.36-2.36v-1h-0.72v0.64h-3.28v-3.316
	c1.13-0.175,2-1.146,2-2.324v-1h-0.72v0.64h-3.28v-3.316c1.13-0.175,2-1.146,2-2.323v-1h-0.72v0.64h-3.28V9.323
	c1.13-0.175,2-1.146,2-2.323V5h-0.72v1.417l-5.28-2.64V1h-0.72v2.778l-5.28,2.64V5H9.64v2c0,1.178,0.87,2.149,2,2.323v3.317H8.36V12
	H7.64v1c0,1.178,0.87,2.149,2,2.323v3.316H6.36V18H5.64v1c0,1.178,0.87,2.149,2,2.324v3.316H4.36V24H3.64v1
	c0,1.302,1.059,2.36,2.36,2.36h1.64v1.279h-2v2H1v0.721h30v-0.72H26.36z M25.64,29.36v1.279h-1.28V29.36H25.64z M10.36,29.36h1.28
	v1.279h-1.28V29.36z M9.64,30.64H8.36v-1.28h1.28C9.64,29.36,9.64,30.64,9.64,30.64z M12.36,29.36h1.28v1.279h-1.28V29.36z
	 M14.36,29.36h1.28v1.279h-1.28V29.36z M16.36,29.36h1.28v1.279h-1.28V29.36z M18.36,29.36h1.279v1.279H18.36V29.36z M20.36,29.36
	h1.279v1.279H20.36V29.36z M22.36,29.36h1.279v1.279H22.36V29.36z M22.36,24.64v-1.28h1.279v1.279L22.36,24.64L22.36,24.64z
	 M20.36,24.64v-1.28h1.279v1.279L20.36,24.64L20.36,24.64z M18.36,24.64v-1.28h1.279v1.279L18.36,24.64L18.36,24.64z M16.36,24.64
	v-1.28h1.28v1.279L16.36,24.64L16.36,24.64z M14.36,24.64v-1.28h1.28v1.279L14.36,24.64L14.36,24.64z M12.36,24.64v-1.28h1.28v1.279
	L12.36,24.64L12.36,24.64z M10.36,24.64v-1.28h1.28v1.279L10.36,24.64L10.36,24.64z M23.64,21.36v1.279H8.36V21.36H23.64z
	 M20.36,18.64v-1.28h1.279v1.279L20.36,18.64L20.36,18.64z M18.36,18.64v-1.28h1.279v1.279L18.36,18.64L18.36,18.64z M16.36,18.64
	v-1.28h1.28v1.279L16.36,18.64L16.36,18.64z M14.36,18.64v-1.28h1.28v1.279L14.36,18.64L14.36,18.64z M12.36,18.64v-1.28h1.28v1.279
	L12.36,18.64L12.36,18.64z M21.64,15.36v1.28H10.36v-1.28H21.64z M18.36,12.64v-1.28h1.279v1.28H18.36z M16.36,12.64v-1.28h1.28
	v1.28H16.36z M14.36,12.64v-1.28h1.28v1.28H14.36z M19.64,9.36v1.28h-7.28V9.36H19.64z M16,4.402l4.475,2.238h-8.95L16,4.402z
	 M10.403,7.36h11.194C21.432,8.091,20.78,8.64,20,8.64h-8C11.22,8.64,10.567,8.091,10.403,7.36z M12.36,11.36h1.28v1.28h-1.28V11.36
	z M8.403,13.36h15.194c-0.165,0.731-0.817,1.28-1.597,1.28H10C9.22,14.64,8.567,14.091,8.403,13.36z M10.36,17.36h1.28v1.279h-1.28
	V17.36z M6.403,19.36h19.194c-0.165,0.731-0.817,1.28-1.597,1.28H8C7.22,20.64,6.568,20.091,6.403,19.36z M8.36,23.36h1.28v1.279
	H8.36V23.36z M4.403,25.36h23.194c-0.165,0.731-0.817,1.28-1.597,1.28H6C5.22,26.64,4.568,26.091,4.403,25.36z M8.36,27.36h15.28
	v1.279H8.36V27.36z M6.36,29.36h1.28v1.279H6.36V29.36z"/>
<rect id="_Transparent_Rectangle" style="fill:none;" width="32" height="32"/>
</svg>
