<?xml version="1.0" encoding="iso-8859-1"?>
<!-- Generator: Adobe Illustrator 24.3.0, SVG Export Plug-In . SVG Version: 6.00 Build 0)  -->
<svg version="1.1" id="Layer_1" xmlns="http://www.w3.org/2000/svg" xmlns:xlink="http://www.w3.org/1999/xlink" x="0px" y="0px"
	 viewBox="0 0 32 32" style="enable-background:new 0 0 32 32;" xml:space="preserve">
<path id="tokyo--cherry-blossom" d="M30.43,12.124L30.43,12.124c-0.441-1.356-1.289-2.518-2.454-3.358
	c-1.157-0.835-2.514-1.276-3.924-1.276c-0.009,0-0.018,0-0.026,0c-0.44,0.001-0.898,0.055-1.368,0.158
	c-0.048-0.492-0.145-0.96-0.288-1.395c-0.442-1.345-1.287-2.498-2.442-3.335c-1.111-0.805-2.44-1.212-3.776-1.242
	C16.104,1.654,16.054,1.64,16,1.64c-0.054,0-0.105,0.014-0.151,0.036c-1.336,0.029-2.664,0.437-3.776,1.241
	c-1.155,0.837-2,1.991-2.442,3.335C9.488,6.686,9.392,7.154,9.343,7.648C8.859,7.542,8.415,7.462,7.926,7.491
	C6.511,7.496,5.153,7.942,4,8.783c-1.151,0.839-1.99,1.994-2.428,3.34s-0.437,2.774,0.001,4.129
	c0.439,1.358,1.275,2.518,2.417,3.353c0.369,0.271,0.785,0.507,1.239,0.706c-0.251,0.428-0.448,0.863-0.588,1.298
	c-0.432,1.349-0.427,2.778,0.016,4.135c0.443,1.354,1.282,2.51,2.427,3.341c1.145,0.832,2.503,1.272,3.927,1.275
	c0.003,0,0.007,0,0.01,0c1.422,0,2.78-0.437,3.926-1.263c0.371-0.268,0.724-0.589,1.053-0.96c0.319,0.36,0.659,0.673,1.013,0.932
	c1.145,0.839,2.509,1.285,3.946,1.291c0.007,0,0.014,0,0.021,0c1.428,0,2.789-0.441,3.938-1.275c1.153-0.838,1.995-2.004,2.435-3.37
	c0.439-1.368,0.438-2.804-0.007-4.152c-0.137-0.417-0.329-0.837-0.573-1.251c0.44-0.192,0.842-0.418,1.199-0.675
	c1.151-0.831,1.998-1.991,2.446-3.355C30.865,14.918,30.869,13.48,30.43,12.124z M29.734,16.057
	c-0.401,1.219-1.156,2.255-2.184,2.996c-0.412,0.296-0.895,0.548-1.437,0.748l-0.428,0.159l0.253,0.379
	c0.321,0.48,0.564,0.968,0.723,1.448c0.396,1.203,0.397,2.485,0.005,3.707c-0.354,1.103-1.016,2.048-1.898,2.774l-1.016-1.398
	c-0.117-0.161-0.342-0.198-0.503-0.079c-0.16,0.116-0.196,0.342-0.079,0.503l1.016,1.397c-0.959,0.612-2.055,0.948-3.207,0.948
	c-0.006,0-0.012,0-0.019,0c-1.283-0.004-2.502-0.402-3.522-1.151c-0.409-0.299-0.798-0.681-1.156-1.134L16,26.996l-0.283,0.358
	c-0.366,0.463-0.767,0.853-1.191,1.159c-1.022,0.737-2.234,1.126-3.505,1.126c-0.003,0-0.006,0-0.009,0
	c-1.149-0.002-2.242-0.338-3.198-0.948l1.015-1.398c0.117-0.161,0.082-0.387-0.08-0.503c-0.162-0.119-0.386-0.082-0.503,0.079
	l-1.015,1.398c-0.875-0.72-1.533-1.655-1.89-2.748c-0.396-1.212-0.4-2.488-0.015-3.69c0.16-0.499,0.408-1.001,0.735-1.493
	l0.252-0.379L5.886,19.8c-0.553-0.204-1.048-0.465-1.472-0.774c-1.019-0.746-1.765-1.781-2.157-2.995
	c-0.354-1.094-0.371-2.237-0.086-3.334l1.643,0.534c0.037,0.012,0.075,0.018,0.111,0.018c0.152,0,0.293-0.097,0.342-0.249
	c0.062-0.189-0.042-0.392-0.231-0.454l-1.644-0.534c0.415-1.055,1.101-1.971,2.029-2.647c1.031-0.75,2.243-1.149,3.505-1.154
	c0.56-0.008,1.08,0.079,1.646,0.238l0.439,0.124l0.019-0.456c0.024-0.591,0.119-1.143,0.282-1.64
	c0.395-1.199,1.149-2.229,2.181-2.977c0.93-0.673,2.03-1.026,3.145-1.091v1.707c0,0.199,0.161,0.36,0.36,0.36
	c0.199,0,0.36-0.161,0.36-0.36V2.409c1.115,0.065,2.215,0.418,3.145,1.091c1.031,0.748,1.786,1.778,2.181,2.978
	c0.164,0.499,0.259,1.05,0.282,1.638l0.018,0.456l0.439-0.124c0.557-0.157,1.096-0.237,1.603-0.239c0.009,0,0.017,0,0.024,0
	c1.258,0,2.469,0.394,3.502,1.14c0.941,0.679,1.635,1.599,2.052,2.663l-1.643,0.534c-0.189,0.062-0.293,0.265-0.231,0.454
	c0.05,0.152,0.191,0.249,0.343,0.249c0.037,0,0.074-0.005,0.111-0.018l1.643-0.534C30.115,13.803,30.096,14.956,29.734,16.057z
	 M23.611,12.847c-0.625,0.203-1.008,0.802-0.973,1.429l-5.697,1.851l1.658-2.282c0.162,0.063,0.331,0.105,0.507,0.105
	c0.074,0,0.149-0.006,0.225-0.018c0.374-0.059,0.703-0.26,0.925-0.566c0.223-0.307,0.313-0.681,0.254-1.056
	c-0.059-0.374-0.26-0.703-0.566-0.926c-0.636-0.459-1.521-0.318-1.981,0.314c-0.384,0.53-0.327,1.224,0.065,1.71l-1.667,2.295v-5.99
	c0.607-0.16,1.058-0.709,1.058-1.366c0-0.782-0.636-1.418-1.418-1.418s-1.417,0.636-1.417,1.418c0,0.657,0.451,1.205,1.058,1.366
	v5.99l-1.667-2.294c0.156-0.191,0.278-0.406,0.318-0.656c0.059-0.374-0.031-0.749-0.253-1.055c-0.223-0.307-0.551-0.508-0.925-0.567
	c-0.375-0.06-0.749,0.03-1.056,0.253c-0.306,0.223-0.507,0.551-0.567,0.925c-0.059,0.375,0.031,0.749,0.253,1.055
	c0.277,0.381,0.71,0.584,1.149,0.584c0.172,0,0.342-0.042,0.507-0.106l1.659,2.283l-5.697-1.851
	c0.035-0.627-0.347-1.226-0.972-1.429l0,0c-0.36-0.118-0.744-0.087-1.082,0.085s-0.588,0.465-0.705,0.825
	c-0.242,0.744,0.167,1.545,0.91,1.787c0.145,0.047,0.292,0.07,0.437,0.07c0.478,0,0.921-0.252,1.183-0.656l5.703,1.853l-2.678,0.87
	c-0.34-0.527-0.999-0.786-1.626-0.585c-0.743,0.242-1.151,1.043-0.91,1.787c0.195,0.599,0.752,0.98,1.35,0.98
	c0.145,0,0.292-0.022,0.438-0.069c0.624-0.203,1.006-0.801,0.972-1.428l2.678-0.871l-3.532,4.862
	c-0.231-0.089-0.473-0.139-0.722-0.1c-0.375,0.059-0.703,0.261-0.926,0.566c-0.459,0.633-0.319,1.521,0.314,1.981
	c0.251,0.183,0.542,0.27,0.831,0.27c0.439,0,0.873-0.202,1.15-0.583c0.222-0.307,0.312-0.682,0.253-1.056
	c-0.04-0.25-0.162-0.465-0.318-0.656l3.532-4.862v2.816c-0.607,0.161-1.058,0.71-1.058,1.366c0,0.782,0.636,1.419,1.417,1.419
	c0.781,0,1.418-0.637,1.418-1.419c0-0.656-0.451-1.205-1.058-1.366v-2.816l3.532,4.862c-0.155,0.191-0.278,0.405-0.317,0.655
	c-0.06,0.375,0.03,0.749,0.254,1.056c0.276,0.382,0.709,0.585,1.148,0.585c0.289,0,0.58-0.088,0.832-0.271
	c0.632-0.46,0.772-1.349,0.313-1.981c-0.385-0.529-1.063-0.688-1.647-0.465l-3.533-4.863l2.677,0.871
	c-0.035,0.626,0.348,1.225,0.973,1.428c0.145,0.047,0.292,0.069,0.438,0.069c0.598,0,1.154-0.382,1.35-0.98
	c0.241-0.743-0.167-1.545-0.911-1.787c-0.62-0.201-1.283,0.057-1.625,0.585l-2.679-0.87l5.703-1.853
	c0.262,0.404,0.704,0.656,1.182,0.656c0.146,0,0.292-0.022,0.438-0.07c0.744-0.242,1.152-1.043,0.911-1.787
	C25.155,13.014,24.354,12.607,23.611,12.847z M18.544,12.122c0.227-0.312,0.667-0.381,0.976-0.155
	c0.151,0.11,0.25,0.271,0.279,0.456c0.029,0.184-0.016,0.368-0.125,0.52c-0.109,0.151-0.271,0.25-0.455,0.279
	c-0.183,0.028-0.369-0.015-0.52-0.125C18.388,12.871,18.318,12.433,18.544,12.122z M15.302,8.348c0-0.385,0.313-0.698,0.698-0.698
	s0.698,0.313,0.698,0.698c0,0.385-0.313,0.698-0.698,0.698S15.302,8.732,15.302,8.348z M12.326,12.942
	c-0.109-0.15-0.154-0.335-0.125-0.519s0.128-0.346,0.279-0.456c0.121-0.088,0.263-0.134,0.409-0.134
	c0.037,0,0.074,0.003,0.111,0.009c0.184,0.029,0.346,0.128,0.455,0.279l0,0c0.109,0.15,0.154,0.335,0.125,0.519
	s-0.128,0.346-0.279,0.455C12.991,13.322,12.552,13.255,12.326,12.942z M7.735,14.86c-0.366-0.119-0.567-0.514-0.448-0.88
	c0.058-0.177,0.181-0.321,0.347-0.406c0.1-0.051,0.208-0.077,0.317-0.077c0.072,0,0.145,0.011,0.216,0.034
	c0.366,0.119,0.567,0.514,0.448,0.88C8.496,14.778,8.101,14.976,7.735,14.86z M11.185,19.109c-0.365,0.118-0.76-0.082-0.88-0.448
	c-0.119-0.366,0.083-0.761,0.448-0.879c0.364-0.121,0.76,0.082,0.88,0.448C11.752,18.597,11.551,18.991,11.185,19.109z
	 M11.59,24.068c-0.226,0.313-0.664,0.38-0.975,0.155c-0.312-0.227-0.381-0.664-0.154-0.976c0.109-0.151,0.271-0.25,0.455-0.279
	c0.037-0.006,0.074-0.009,0.11-0.009c0.146,0,0.289,0.046,0.41,0.134c0.151,0.109,0.25,0.271,0.279,0.455
	C11.744,23.733,11.7,23.918,11.59,24.068z M16.698,22.101c0,0.385-0.313,0.698-0.698,0.698s-0.698-0.313-0.698-0.698
	s0.313-0.697,0.698-0.697S16.698,21.716,16.698,22.101z M21.54,23.247c0.226,0.312,0.156,0.75-0.154,0.977
	c-0.152,0.108-0.338,0.152-0.521,0.124c-0.184-0.029-0.346-0.128-0.455-0.278c0-0.001,0-0.001,0-0.001
	c-0.109-0.15-0.154-0.336-0.125-0.52c0.029-0.185,0.128-0.346,0.279-0.455c0.123-0.09,0.268-0.133,0.41-0.133
	C21.19,22.961,21.403,23.061,21.54,23.247z M21.031,17.748c0.071,0,0.144,0.011,0.215,0.034c0.366,0.119,0.567,0.513,0.448,0.879
	s-0.515,0.567-0.879,0.448c-0.366-0.119-0.567-0.513-0.448-0.879C20.463,17.936,20.737,17.748,21.031,17.748z M24.265,14.86
	c-0.366,0.115-0.76-0.083-0.879-0.448c-0.119-0.366,0.082-0.761,0.448-0.88c0.071-0.023,0.144-0.034,0.215-0.034
	c0.294,0,0.568,0.188,0.664,0.482C24.832,14.346,24.631,14.741,24.265,14.86z"/>
<rect id="_Transparent_Rectangle" style="fill:none;" width="32" height="32"/>
</svg>
