<svg xmlns="http://www.w3.org/2000/svg" viewBox="0 0 48 48"><path fill="none" stroke-linejoin="round" stroke-miterlimit="10" stroke-width=".72" d="M21,15 c0-1.186,0.821-2,2-2h-0.003C24.176,13,25,13.814,25,15v8c0,0,4.663,0,6.913,0C34.162,23,36,24.541,36,26.776c0,0,0,2.758,0,4.01 C36,35.478,34.706,39,27.769,39c-4.829,0-7.104-2.056-10.134-5.48c-0.845-0.955-3.439-3.765-3.439-3.765 C13.365,28.819,12,27.415,12,26.985c0-1.299,3.219-2.011,4.792-0.803C18.008,27.116,21,30.5,21,30.5V15z M26.994,19.46 c1.23-1.09,2-2.69,2-4.46c0-3.31-2.69-6-6-6s-6,2.69-6,6c0,1.77,0.77,3.37,2,4.46"/></svg>