<?xml version="1.0" encoding="iso-8859-1"?>
<!-- Generator: Adobe Illustrator 24.1.2, SVG Export Plug-In . SVG Version: 6.00 Build 0)  -->
<svg version="1.1" id="Layer_1" xmlns="http://www.w3.org/2000/svg" xmlns:xlink="http://www.w3.org/1999/xlink" x="0px" y="0px"
	 viewBox="0 0 32 32" style="enable-background:new 0 0 32 32;" xml:space="preserve">
<path id="touch_1_" d="M19.77,31.36c-5.067,0-7.409-2.218-10.404-5.602c-0.844-0.953-3.435-3.76-3.435-3.76L5.43,21.444
	c-1.217-1.339-1.79-2.018-1.79-2.459c0-0.541,0.374-1.022,1.052-1.357c1.188-0.586,3.129-0.646,4.319,0.269
	c0.895,0.688,2.677,2.611,3.629,3.663V7c0-1.388,0.968-2.357,2.354-2.36c0,0,0,0,0.001,0c0,0,0.001,0,0.003,0
	c0.001,0,0.002,0,0.003,0C16.391,4.643,17.36,5.612,17.36,7v7.64h6.552c2.536,0,4.448,1.778,4.448,4.136v4.01
	C28.36,27.239,27.319,31.36,19.77,31.36z M6.465,21.516c0.002,0.002,2.595,2.811,3.44,3.767c2.865,3.236,5.099,5.357,9.865,5.357
	c6.532,0,7.87-3.14,7.87-7.854v-4.01c0-1.948-1.603-3.417-3.728-3.417H17c-0.199,0-0.36-0.161-0.36-0.36V7
	c0-0.98-0.66-1.639-1.642-1.64C14.019,5.361,13.36,6.02,13.36,7v15.5c0,0.149-0.092,0.283-0.232,0.337
	c-0.139,0.054-0.298,0.015-0.397-0.099c-0.03-0.033-2.983-3.368-4.158-4.271c-0.925-0.709-2.589-0.673-3.562-0.192
	c-0.413,0.203-0.65,0.463-0.65,0.711c0.057,0.274,1.063,1.38,1.603,1.975L6.465,21.516z M10.755,11.729
	C9.407,10.535,8.634,8.811,8.634,7c0-3.507,2.853-6.36,6.36-6.36s6.36,2.853,6.36,6.36c0,1.811-0.773,3.534-2.121,4.729
	l-0.479-0.539c1.194-1.058,1.879-2.585,1.879-4.19c0-3.11-2.529-5.64-5.64-5.64c-3.11,0-5.64,2.53-5.64,5.64
	c0,1.605,0.685,3.133,1.879,4.19L10.755,11.729z"/>
<rect id="_Transparent_Rectangle" style="fill:none;" width="32" height="32"/>
</svg>
