<svg xmlns="http://www.w3.org/2000/svg" viewBox="0 0 48 48"><path fill="none" stroke-linecap="round" stroke-linejoin="round" stroke-miterlimit="10" stroke-width=".72" d="M25,36V24.5c0-0.828,0.672-1.5,1.5-1.5s1.5,0.672,1.5,1.5V35"/><path fill="none" stroke-linecap="round" stroke-linejoin="round" stroke-miterlimit="10" stroke-width=".72" d="M28,31.5c0-0.828,0.672-1.5,1.5-1.5s1.5,0.672,1.5,1.5V35"/><path fill="none" stroke-linecap="round" stroke-linejoin="round" stroke-miterlimit="10" stroke-width=".72" d="M31,32c0-0.828,0.672-1.5,1.5-1.5S34,31.172,34,32v3"/><polyline fill="none" stroke-linejoin="round" stroke-miterlimit="10" stroke-width=".72" points="20,33 9,33 9,10 39,10 39,30"/><path fill="none" stroke-linejoin="round" stroke-miterlimit="10" stroke-width=".72" d="M34,33 c0-0.828,0.672-1.5,1.5-1.5S37,32.172,37,33v5"/><path fill="none" stroke-linejoin="round" stroke-miterlimit="10" stroke-width=".72" d="M22,38v-2.5 c0-0.828,0.672-1.5,1.5-1.5s1.5,0.672,1.5,1.5V38"/></svg>