<?xml version="1.0" encoding="iso-8859-1"?>
<!-- Generator: Adobe Illustrator 24.1.2, SVG Export Plug-In . SVG Version: 6.00 Build 0)  -->
<svg version="1.1" id="Layer_1" xmlns="http://www.w3.org/2000/svg" xmlns:xlink="http://www.w3.org/1999/xlink" x="0px" y="0px"
	 viewBox="0 0 32 32" style="enable-background:new 0 0 32 32;" xml:space="preserve">
<path id="tractor_1_" d="M24,31.36c-3.233,0-5.986-2.096-6.972-5h-5.68c-0.186,2.788-2.514,5-5.348,5c-2.956,0-5.36-2.405-5.36-5.36
	S3.044,20.64,6,20.64c2.834,0,5.162,2.212,5.348,5h1.282c-0.187-3.494-3.089-6.28-6.63-6.28c-1.799,0-3.483,0.708-4.743,1.993
	L0.743,20.85c0.563-0.575,1.203-1.046,1.897-1.402V14c0-0.199,0.161-0.36,0.36-0.36h1.64v-3.28H3V9.64h2
	c0.199,0,0.36,0.161,0.36,0.36v3.64h7.359l1.82-7.28H13c-0.199,0-0.36-0.161-0.36-0.36V4c0-0.199,0.161-0.36,0.36-0.36h3.64V1h0.72
	v2.64H29c0.199,0,0.36,0.161,0.36,0.36v2c0,0.199-0.161,0.36-0.36,0.36h-0.592l0.948,7.59c0.002,0.017,0.004,0.033,0.004,0.05v4.961
	c1.239,1.318,2,3.092,2,5.039C31.36,28.059,28.059,31.36,24,31.36z M24,17.36c-3.661,0-6.64,2.979-6.64,6.64s2.979,6.64,6.64,6.64
	s6.64-2.979,6.64-6.64S27.661,17.36,24,17.36z M6,21.36c-2.559,0-4.64,2.081-4.64,4.64S3.441,30.64,6,30.64s4.64-2.081,4.64-4.64
	S8.559,21.36,6,21.36z M13.36,25.64h3.464c-0.121-0.527-0.184-1.076-0.184-1.64c0-2.849,1.626-5.324,4-6.547V14.36h-7.28
	C13.36,14.36,13.36,25.64,13.36,25.64z M6,18.64c2.923,0,5.453,1.713,6.64,4.187V14.36H3.36v4.765C4.19,18.807,5.082,18.64,6,18.64z
	 M24,16.64c1.758,0,3.373,0.619,4.64,1.651V14.36h-7.28v2.77C22.18,16.813,23.07,16.64,24,16.64z M27.317,13.64h1.274l-0.909-7.28
	h-1.274L27.317,13.64z M21.36,13.64h5.231l-0.909-7.28H21.36V13.64z M13.461,13.64h7.179V6.36h-5.358L13.461,13.64z M13.36,5.64
	h15.28V4.36H13.36V5.64z M24,29.36c-2.955,0-5.36-2.405-5.36-5.36s2.405-5.36,5.36-5.36s5.36,2.405,5.36,5.36S26.955,29.36,24,29.36
	z M24,19.36c-2.559,0-4.64,2.081-4.64,4.64s2.081,4.64,4.64,4.64s4.64-2.081,4.64-4.64S26.559,19.36,24,19.36z M6,29.36
	c-1.853,0-3.36-1.508-3.36-3.36S4.147,22.64,6,22.64S9.36,24.147,9.36,26S7.853,29.36,6,29.36z M6,23.36
	c-1.456,0-2.64,1.184-2.64,2.64S4.544,28.64,6,28.64S8.64,27.456,8.64,26S7.456,23.36,6,23.36z M17,16.36h-2
	c-0.199,0-0.36-0.161-0.36-0.36s0.161-0.36,0.36-0.36h2c0.199,0,0.36,0.161,0.36,0.36S17.199,16.36,17,16.36z M11,16.36H5
	c-0.199,0-0.36-0.161-0.36-0.36S4.801,15.64,5,15.64h6c0.199,0,0.36,0.161,0.36,0.36S11.199,16.36,11,16.36z"/>
<rect id="_Transparent_Rectangle" style="fill:none;" width="32" height="32"/>
</svg>
