<svg xmlns="http://www.w3.org/2000/svg" viewBox="0 0 48 48"><path fill="none" stroke-linejoin="round" stroke-miterlimit="10" stroke-width=".72" d="M19,34 c0,2.761-2.239,5-5,5s-5-2.239-5-5s2.239-5,5-5S19,31.239,19,34z M21,34c0-3.866-3.134-7-7-7c-1.959,0-3.73,0.805-5,2.101 M14,31 c-1.657,0-3,1.343-3,3s1.343,3,3,3s3-1.343,3-3S15.657,31,14,31z M32,27c-2.761,0-5,2.239-5,5s2.239,5,5,5c2.761,0,5-2.239,5-5 S34.762,27,32,27z M32,25c-3.866,0-7,3.134-7,7s3.134,7,7,7s7-3.134,7-7S35.866,25,32,25z M37,27.103V22H11v5.675 M19,34h6.291 M21,34V22 M37,12H21v2h16V12z M21,22l2.144-8 M37,22l-0.889-8 M34.111,14L35,22 M29,25.676V14 M25,12V9 M13,22v-4h-2"/><path fill="none" stroke-linecap="round" stroke-linejoin="round" stroke-miterlimit="10" stroke-width=".72" d="M13,24h6 M23,24h2"/></svg>