<?xml version="1.0" encoding="iso-8859-1"?>
<!-- Generator: Adobe Illustrator 24.1.2, SVG Export Plug-In . SVG Version: 6.00 Build 0)  -->
<svg version="1.1" xmlns="http://www.w3.org/2000/svg" xmlns:xlink="http://www.w3.org/1999/xlink" x="0px" y="0px"
	 viewBox="0 0 48 48" style="enable-background:new 0 0 48 48;" xml:space="preserve">
<g id="transparency--01">
	
		<path id="transparency--01_1_" style="fill:none;stroke:#000000;stroke-width:0.72;stroke-linejoin:round;stroke-miterlimit:10;" d="
		M25.148,22.933C25.052,22.639,25,22.326,25,22c0-1.657,1.343-3,3-3s3,1.343,3,3c0,0.328-0.053,0.643-0.15,0.938 M28,19c2,0,2-2,2-2
		 M19,17v-2 M22,20 M24,23h-9c0,5,3,9,8,9h2c5,0,8-4,8-9H24c-3,0-3-4-3-4c0-1.105-0.895-2-2-2s-2,0.895-2,2v4 M25.313,20.736
		C24.66,20.272,23.862,20,23,20c-0.649,0-1.262,0.154-1.803,0.429 M22,38h16V10h-9 M22,10h4 M15,38h4 M15,10h4 M10,36v2h2 M12,10h-2
		v2 M10,15v4 M10,22v4 M10,29v4"/>
</g>
<g id="Layer_1">
</g>
</svg>
