<?xml version="1.0" encoding="iso-8859-1"?>
<!-- Generator: Adobe Illustrator 24.1.2, SVG Export Plug-In . SVG Version: 6.00 Build 0)  -->
<svg version="1.1" id="Layer_1" xmlns="http://www.w3.org/2000/svg" xmlns:xlink="http://www.w3.org/1999/xlink" x="0px" y="0px"
	 viewBox="0 0 32 32" style="enable-background:new 0 0 32 32;" xml:space="preserve">
<g id="transparency--02">
	<path id="transparency--02_1_" d="M30,30.36H14v-0.72h15.64V2.36H21V1.64h9c0.199,0,0.36,0.161,0.36,0.36v28
		C30.36,30.199,30.199,30.36,30,30.36z M11,30.36H7v-0.72h4V30.36z M4,30.36H2c-0.199,0-0.36-0.161-0.36-0.36v-2h0.72v1.64H4V30.36z
		 M2.36,25H1.64v-4h0.72C2.36,21,2.36,25,2.36,25z M18.74,24.36c-0.509,0-1.041-0.139-1.557-0.273
		c-0.44-0.114-0.856-0.223-1.184-0.223c-0.327,0-0.744,0.108-1.185,0.223c-0.515,0.135-1.048,0.273-1.556,0.273
		c-2.271,0-4.619-2.927-4.619-7.825c0-2.939,1.297-4.625,3.559-4.625c0.495,0,0.978,0.19,1.444,0.374
		c0.447,0.176,0.91,0.359,1.357,0.359v0.72c-0.584,0-1.111-0.208-1.621-0.409c-0.423-0.167-0.822-0.324-1.18-0.324
		c-2.47,0-2.839,2.447-2.839,3.905c0,4.388,2.024,7.104,3.899,7.104c0.416,0,0.903-0.127,1.375-0.249
		c0.487-0.127,0.947-0.247,1.366-0.247c0.42,0,0.879,0.12,1.365,0.247c0.472,0.122,0.958,0.249,1.375,0.249
		c1.875-0.001,3.899-2.717,3.899-7.104c0-1.458-0.368-3.905-2.839-3.905c-0.527,0-0.864,0.154-1.255,0.332
		c-0.404,0.184-0.863,0.393-1.541,0.401H16.5c-0.199,0-0.36-0.161-0.36-0.36v-2c0-0.115,0.055-0.223,0.148-0.291
		c0.094-0.067,0.213-0.085,0.322-0.052c0.01,0.003,1.118,0.347,1.999-0.153c0.442-0.252,0.764-0.683,0.957-1.284
		c-0.542-0.165-1.777-0.337-2.778,0.996l-0.576-0.432c1.66-2.215,3.926-1.118,3.949-1.106c0.148,0.074,0.228,0.241,0.189,0.403
		c-0.225,0.966-0.692,1.657-1.392,2.051c-0.755,0.427-1.594,0.395-2.099,0.315v1.192H17c0.522-0.007,0.858-0.16,1.248-0.337
		c0.407-0.186,0.869-0.396,1.553-0.396c2.262,0,3.56,1.686,3.56,4.625C23.36,21.432,21.011,24.359,18.74,24.36z M20.754,20.518
		l-0.691-0.199l0.197-0.684l0.691,0.199L20.754,20.518z M21.153,18.729l-0.709-0.121c0.337-1.97,0.16-2.971-0.048-3.464l0.664-0.279
		C21.417,15.71,21.448,17.01,21.153,18.729z M2.36,18H1.64v-4h0.72C2.36,14,2.36,18,2.36,18z M14.693,11.379
		c-0.515,0-1.483-0.107-2.198-0.822c-0.991-0.991-0.86-2.523-0.854-2.588c0.016-0.172,0.152-0.309,0.325-0.325
		c0.067-0.007,1.598-0.137,2.588,0.854l0,0l0,0c0.998,0.997,0.811,2.489,0.803,2.552c-0.021,0.161-0.148,0.288-0.309,0.309
		C15.03,11.363,14.897,11.379,14.693,11.379z M12.357,8.361c0.02,0.424,0.134,1.174,0.647,1.688c0.519,0.519,1.247,0.606,1.65,0.611
		c-0.006-0.405-0.095-1.137-0.609-1.652l0,0C13.532,8.495,12.782,8.381,12.357,8.361z M2.36,11H1.64V7h0.72C2.36,7,2.36,11,2.36,11z
		 M2.36,4H1.64V2c0-0.199,0.161-0.36,0.36-0.36h2v0.72H2.36V4z M18,2.36h-4V1.64h4V2.36z M11,2.36H7V1.64h4V2.36z"/>
</g>
<rect id="_Transparent_Rectangle" style="fill:none;" width="32" height="32"/>
</svg>
