<?xml version="1.0" encoding="iso-8859-1"?>
<!-- Generator: Adobe Illustrator 24.1.2, SVG Export Plug-In . SVG Version: 6.00 Build 0)  -->
<svg version="1.1" id="Layer_1" xmlns="http://www.w3.org/2000/svg" xmlns:xlink="http://www.w3.org/1999/xlink" x="0px" y="0px"
	 viewBox="0 0 32 32" style="enable-background:new 0 0 32 32;" xml:space="preserve">
<path id="transform--01_1_" d="M13,31.36H1c-0.199,0-0.36-0.161-0.36-0.36V19c0-0.199,0.161-0.36,0.36-0.36h12
	c0.199,0,0.36,0.161,0.36,0.36v12C13.36,31.199,13.199,31.36,13,31.36z M1.36,30.64h11.28V19.36H1.36V30.64z M25,20.528
	c-0.139,0-0.271-0.081-0.33-0.216c-0.079-0.183,0.004-0.395,0.186-0.475c3.514-1.535,5.784-5.004,5.784-8.838
	c0-5.315-4.324-9.64-9.64-9.64c-3.833,0-7.303,2.271-8.838,5.784c-0.081,0.182-0.293,0.265-0.474,0.186
	c-0.182-0.08-0.266-0.292-0.186-0.474C13.152,3.08,16.88,0.64,21,0.64c5.713,0,10.36,4.647,10.36,10.36
	c0,4.12-2.44,7.849-6.216,9.498C25.098,20.519,25.048,20.528,25,20.528z M7.36,16.99c0-0.199-0.161-0.36-0.36-0.36
	s-0.36,0.161-0.36,0.36V17c0,0.199,0.161,0.355,0.36,0.355S7.36,17.189,7.36,16.99z M17.089,25.36h-0.021
	c-0.199,0-0.36-0.161-0.36-0.36s0.161-0.36,0.36-0.36c0.199,0,0.37,0.161,0.37,0.36S17.288,25.36,17.089,25.36z M19.122,25.36
	h-0.021c-0.199,0-0.36-0.161-0.36-0.36s0.161-0.36,0.36-0.36c0.199,0,0.37,0.161,0.37,0.36S19.321,25.36,19.122,25.36z
	 M21.042,24.797c-0.132,0-0.259-0.073-0.322-0.199c-0.089-0.178-0.017-0.395,0.161-0.483c0.163-0.11,0.377-0.062,0.489,0.106
	c0.109,0.165,0.055,0.395-0.111,0.505c-0.012,0.008-0.042,0.026-0.056,0.033C21.151,24.784,21.097,24.797,21.042,24.797z
	 M22.459,23.363c-0.069,0-0.139-0.02-0.199-0.061c-0.166-0.11-0.211-0.334-0.101-0.499c0.089-0.18,0.302-0.238,0.477-0.151
	c0.178,0.09,0.244,0.316,0.155,0.494c-0.007,0.014-0.024,0.044-0.032,0.056C22.689,23.307,22.575,23.363,22.459,23.363z M23,21.421
	c-0.199,0-0.36-0.161-0.36-0.36s0.161-0.37,0.36-0.37s0.36,0.15,0.36,0.35v0.021C23.36,21.26,23.199,21.421,23,21.421z M23,19.382
	c-0.199,0-0.36-0.161-0.36-0.36s0.161-0.37,0.36-0.37s0.36,0.151,0.36,0.351v0.02C23.36,19.221,23.199,19.382,23,19.382z M23,17.344
	c-0.199,0-0.36-0.161-0.36-0.36c0-0.199,0.161-0.37,0.36-0.37s0.36,0.151,0.36,0.35v0.02C23.36,17.183,23.199,17.344,23,17.344z
	 M7,15.322c-0.199,0-0.36-0.151-0.36-0.35v-0.02c0-0.199,0.161-0.36,0.36-0.36s0.36,0.161,0.36,0.36S7.199,15.322,7,15.322z
	 M23,15.305c-0.199,0-0.36-0.161-0.36-0.36s0.161-0.37,0.36-0.37s0.36,0.151,0.36,0.35v0.02C23.36,15.144,23.199,15.305,23,15.305z
	 M7,13.283c-0.004,0-0.009,0-0.013,0c-0.193-0.007-0.346-0.156-0.346-0.35c0-0.009,0-0.039,0.001-0.048
	c0.016-0.197,0.183-0.345,0.387-0.331c0.198,0.015,0.346,0.188,0.331,0.387C7.345,13.129,7.188,13.283,7,13.283z M7.542,11.342
	c-0.06,0-0.12-0.015-0.175-0.047c-0.172-0.1-0.235-0.312-0.135-0.483l0.01-0.018c0.101-0.171,0.323-0.229,0.492-0.129
	c0.172,0.1,0.23,0.321,0.13,0.492C7.797,11.273,7.67,11.342,7.542,11.342z M22.442,11.329c-0.127,0-0.251-0.068-0.316-0.188
	c-0.092-0.169-0.04-0.389,0.125-0.489c0.165-0.099,0.374-0.062,0.48,0.1c0.006,0.009,0.021,0.035,0.027,0.044
	c0.095,0.174,0.03,0.393-0.144,0.488C22.56,11.315,22.501,11.329,22.442,11.329z M21.014,9.907c-0.062,0-0.124-0.016-0.182-0.049
	c-0.172-0.1-0.238-0.326-0.138-0.498c0.1-0.171,0.311-0.235,0.483-0.135l0.018,0.01c0.172,0.1,0.229,0.321,0.129,0.493
	C21.258,9.843,21.137,9.907,21.014,9.907z M8.964,9.561h0.009H8.964z M19.074,9.361c-0.008,0-0.017,0-0.025-0.001
	c-0.193-0.014-0.352-0.178-0.345-0.372c0.007-0.202,0.217-0.366,0.396-0.346c0.198,0.014,0.348,0.186,0.334,0.385
	C19.42,9.216,19.262,9.361,19.074,9.361z M17.035,9.36c-0.199,0-0.37-0.161-0.37-0.36s0.151-0.36,0.35-0.36h0.021
	c0.199,0,0.36,0.161,0.36,0.36S17.234,9.36,17.035,9.36z M14.997,9.36c-0.199,0-0.37-0.161-0.37-0.36s0.151-0.36,0.35-0.36h0.02
	c0.199,0,0.36,0.161,0.36,0.36S15.195,9.36,14.997,9.36z M12.958,9.36c-0.199,0-0.37-0.161-0.37-0.36s0.151-0.36,0.35-0.36h0.021
	c0.199,0,0.36,0.161,0.36,0.36S13.157,9.36,12.958,9.36z M15.37,25c0-0.199-0.167-0.36-0.365-0.36s-0.36,0.161-0.36,0.36
	s0.161,0.36,0.36,0.36h0.01C15.213,25.36,15.37,25.199,15.37,25z M10.905,9.36c-0.199,0-0.37-0.161-0.37-0.36s0.151-0.36,0.35-0.36
	h0.021c0.199,0,0.36,0.161,0.36,0.36S11.104,9.36,10.905,9.36z M8.978,9.92c-0.199,0-0.37-0.161-0.37-0.36S8.759,9.2,8.958,9.2
	h0.021c0.199,0,0.36,0.161,0.36,0.36S9.177,9.92,8.978,9.92z M23,13.294c-0.199,0-0.36-0.161-0.36-0.36s0.161-0.37,0.36-0.37
	s0.36,0.151,0.36,0.35v0.02C23.36,13.133,23.199,13.294,23,13.294z"/>
<rect id="_Transparent_Rectangle" style="fill:none;" width="32" height="32"/>
</svg>
