<?xml version="1.0" encoding="iso-8859-1"?>
<!-- Generator: Adobe Illustrator 29.1.0, SVG Export Plug-In . SVG Version: 9.03 Build 55587)  -->
<svg version="1.1" id="Layer_1" xmlns="http://www.w3.org/2000/svg" xmlns:xlink="http://www.w3.org/1999/xlink" x="0px" y="0px"
	 viewBox="0 0 32 32" style="enable-background:new 0 0 32 32;" xml:space="preserve">
<path id="transparency-and-trust--01_00000129172450017754758500000013913943518996956838_" d="M2.858,9.541L2.213,9.222
	C2.507,8.625,2.844,8.04,3.216,7.483l0.599,0.399C3.46,8.414,3.139,8.972,2.858,9.541z M2.22,22.794
	c0.294,0.597,0.632,1.181,1.004,1.736l0.599-0.4c-0.354-0.529-0.676-1.086-0.957-1.654L2.22,22.794z M1.36,16
	c0-0.318,0.01-0.633,0.03-0.946l-0.719-0.046C0.65,15.335,0.64,15.667,0.64,16c0,0.34,0.011,0.678,0.033,1.014l0.719-0.047
	C1.371,16.647,1.36,16.325,1.36,16z M6.328,5.009l-0.476-0.54C5.351,4.91,4.875,5.388,4.436,5.89l0.542,0.474
	C5.396,5.886,5.851,5.43,6.328,5.009z M2.128,11.308l-0.682-0.23c-0.214,0.631-0.388,1.284-0.517,1.941l0.706,0.139
	C1.759,12.531,1.925,11.909,2.128,11.308z M0.934,19.004c0.129,0.652,0.304,1.305,0.519,1.938l0.682-0.23
	c-0.205-0.604-0.371-1.225-0.494-1.848L0.934,19.004z M11.045,30.543c0.634,0.216,1.287,0.391,1.939,0.521l0.141-0.707
	c-0.622-0.123-1.244-0.29-1.849-0.496L11.045,30.543z M13.104,1.646L12.962,0.94c-0.653,0.131-1.305,0.307-1.938,0.523l0.233,0.682
	C11.861,1.938,12.482,1.771,13.104,1.646z M9.496,2.88L9.174,2.236c-0.597,0.297-1.18,0.637-1.733,1.008l0.401,0.598
	C8.37,3.488,8.926,3.164,9.496,2.88z M4.988,25.646l-0.542,0.475c0.436,0.499,0.913,0.977,1.417,1.42L6.339,27
	C5.858,26.577,5.404,26.122,4.988,25.646z M7.454,28.765c0.557,0.374,1.141,0.713,1.737,1.007l0.319-0.645
	c-0.568-0.281-1.125-0.604-1.655-0.96L7.454,28.765z M16,0.64c-0.344,0-0.685,0.011-1.023,0.033l0.047,0.719
	C15.346,1.371,15.672,1.36,16,1.36c8.072,0,14.64,6.567,14.64,14.64c0,8.072-6.567,14.64-14.64,14.64
	c-0.328,0-0.653-0.01-0.976-0.032l-0.049,0.719c0.339,0.022,0.68,0.034,1.024,0.034c8.47,0,15.36-6.891,15.36-15.36
	S24.47,0.64,16,0.64z M23.747,13.258c0.559-0.494,0.894-1.21,0.894-1.978c0-1.456-1.185-2.64-2.641-2.64s-2.641,1.184-2.641,2.64
	c0,0.366,0.076,0.72,0.217,1.044c-1.129-0.614-1.761-1.288-2.337-1.903l-0.157-0.167l-0.017,0.016
	c-0.053-0.067-0.088-0.141-0.155-0.203c-0.437-0.401-1.156-0.668-2.109,0.34l-0.121,0.128c-0.566,0.603-1.146,1.22-2.265,1.807
	c0.146-0.329,0.225-0.69,0.225-1.064c0-1.456-1.184-2.64-2.64-2.64s-2.64,1.184-2.64,2.64c0,0.768,0.335,1.484,0.894,1.978
	c-1.571,0.681-2.613,2.23-2.613,3.996V21h0.72v-3.746c0-1.694,1.15-3.15,2.798-3.541c0.15-0.035,0.261-0.163,0.275-0.316
	c0.015-0.154-0.071-0.3-0.212-0.362C8.528,12.726,8.08,12.037,8.08,11.28c0-1.059,0.861-1.92,1.92-1.92s1.92,0.861,1.92,1.92
	c0,0.757-0.448,1.445-1.142,1.754c-0.176,0.078-0.259,0.281-0.188,0.46c0.07,0.179,0.269,0.272,0.452,0.208
	c2.434-0.834,3.353-1.811,4.163-2.673l0.12-0.127c0.666-0.703,0.936-0.453,1.098-0.304c0.144,0.132,0.215,0.268,0.22,0.416
	c0.007,0.228-0.146,0.511-0.444,0.819c-0.884,0.917-2.429,3.117-2.494,3.21c-0.042,0.061-0.065,0.133-0.065,0.207V23h0.72v-7.636
	c0.225-0.317,0.99-1.387,1.676-2.239c0.755,0.85,1.422,1.922,1.603,2.224V23h0.721v-7.75c0-0.063-0.018-0.126-0.049-0.181
	c-0.037-0.062-0.848-1.442-1.808-2.498c0.074-0.083,0.148-0.168,0.214-0.237c0.275-0.286,0.453-0.568,0.552-0.846
	c0.757,0.747,1.788,1.565,3.688,2.216c0.183,0.064,0.381-0.029,0.452-0.208c0.07-0.179-0.013-0.382-0.188-0.46
	c-0.693-0.309-1.141-0.998-1.141-1.754c0-1.059,0.861-1.92,1.92-1.92s1.92,0.861,1.92,1.92c0,0.757-0.447,1.445-1.141,1.754
	c-0.141,0.062-0.227,0.208-0.212,0.362s0.125,0.281,0.275,0.316c1.647,0.39,2.797,1.846,2.797,3.541V21h0.721v-3.746
	C26.36,15.488,25.317,13.939,23.747,13.258z"/>
<rect id="_Transparent_Rectangle" style="fill:none;" width="32" height="32"/>
</svg>
