<?xml version="1.0" encoding="iso-8859-1"?>
<!-- Generator: Adobe Illustrator 24.1.2, SVG Export Plug-In . SVG Version: 6.00 Build 0)  -->
<svg version="1.1" id="Layer_1" xmlns="http://www.w3.org/2000/svg" xmlns:xlink="http://www.w3.org/1999/xlink" x="0px" y="0px"
	 viewBox="0 0 32 32" style="enable-background:new 0 0 32 32;" xml:space="preserve">
<path id="tree--diagram_1_" d="M19,30.4c-1.9,0-3.4-1.5-3.4-3.4c0-1.1,0.6-2.2,1.4-2.8l-2.8-5.1c-0.8,0.3-1.8,0.3-2.6,0l-2.8,5.1
	c0.9,0.6,1.4,1.6,1.4,2.8c0,1.9-1.5,3.4-3.4,3.4S3.6,28.9,3.6,27s1.5-3.4,3.4-3.4c0.5,0,0.9,0.1,1.3,0.3l2.8-5.1
	c-0.9-0.6-1.4-1.6-1.4-2.8c0-1.9,1.5-3.4,3.4-3.4c0.5,0,0.9,0.1,1.3,0.3l2.8-5.1c-0.9-0.6-1.4-1.6-1.4-2.8c0-1.9,1.5-3.4,3.4-3.4
	s3.4,1.5,3.4,3.4c0,1.1-0.6,2.2-1.4,2.8l2.8,5.1c0.4-0.2,0.8-0.3,1.3-0.3c1.9,0,3.4,1.5,3.4,3.4s-1.5,3.4-3.4,3.4s-3.4-1.5-3.4-3.4
	c0-1.1,0.6-2.2,1.4-2.8l-2.8-5.1c-0.8,0.3-1.8,0.3-2.6,0l-2.8,5.1c0.9,0.6,1.4,1.6,1.4,2.8s-0.6,2.2-1.4,2.8l2.8,5.1
	c0.4-0.2,0.8-0.3,1.3-0.3c1.9,0,3.4,1.5,3.4,3.4S20.9,30.4,19,30.4z M19,24.4c-1.5,0-2.6,1.2-2.6,2.6s1.2,2.6,2.6,2.6
	s2.6-1.2,2.6-2.6S20.5,24.4,19,24.4z M7,24.4c-1.5,0-2.6,1.2-2.6,2.6s1.2,2.6,2.6,2.6s2.6-1.2,2.6-2.6S8.5,24.4,7,24.4z M25,13.4
	c-1.5,0-2.6,1.2-2.6,2.6c0,1.5,1.2,2.6,2.6,2.6s2.6-1.2,2.6-2.6S26.5,13.4,25,13.4z M13,13.4c-1.5,0-2.6,1.2-2.6,2.6
	c0,1.5,1.2,2.6,2.6,2.6s2.6-1.2,2.6-2.6S14.5,13.4,13,13.4z M19,2.4c-1.5,0-2.6,1.2-2.6,2.6s1.2,2.6,2.6,2.6s2.6-1.2,2.6-2.6
	S20.5,2.4,19,2.4z"/>
<rect id="_Transparent_Rectangle" style="fill:none;" width="32" height="32"/>
</svg>
