<?xml version="1.0" encoding="iso-8859-1"?>
<!-- Generator: Adobe Illustrator 24.3.0, SVG Export Plug-In . SVG Version: 6.00 Build 0)  -->
<svg version="1.1" id="Layer_1" xmlns="http://www.w3.org/2000/svg" xmlns:xlink="http://www.w3.org/1999/xlink" x="0px" y="0px"
	 viewBox="0 0 32 32" style="enable-background:new 0 0 32 32;" xml:space="preserve">
<path id="tree--diagram_1_" d="M19,30.36c-1.853,0-3.36-1.508-3.36-3.36c0-1.142,0.572-2.152,1.445-2.76l-2.801-5.135
	c-0.792,0.328-1.776,0.328-2.567,0L8.915,24.24c0.873,0.607,1.445,1.618,1.445,2.76c0,1.853-1.507,3.36-3.36,3.36
	S3.64,28.853,3.64,27S5.147,23.64,7,23.64c0.454,0,0.888,0.091,1.283,0.255l2.802-5.135C10.212,18.152,9.64,17.142,9.64,16
	c0-1.853,1.507-3.36,3.36-3.36c0.455,0,0.888,0.09,1.284,0.255l2.801-5.136C16.212,7.152,15.64,6.142,15.64,5
	c0-1.853,1.507-3.36,3.36-3.36S22.36,3.147,22.36,5c0,1.141-0.572,2.151-1.444,2.759l2.801,5.136
	C24.112,12.73,24.546,12.64,25,12.64c1.853,0,3.36,1.507,3.36,3.36s-1.508,3.36-3.36,3.36s-3.36-1.508-3.36-3.36
	c0-1.142,0.572-2.152,1.445-2.76l-2.801-5.135c-0.791,0.328-1.775,0.33-2.567,0l-2.801,5.136c0.872,0.607,1.444,1.618,1.444,2.759
	s-0.572,2.151-1.444,2.759l2.801,5.136C18.112,23.73,18.546,23.64,19,23.64c1.853,0,3.36,1.508,3.36,3.36S20.853,30.36,19,30.36z
	 M19,24.36c-1.456,0-2.64,1.184-2.64,2.64s1.184,2.64,2.64,2.64s2.64-1.184,2.64-2.64S20.456,24.36,19,24.36z M7,24.36
	c-1.456,0-2.64,1.184-2.64,2.64S5.544,29.64,7,29.64S9.64,28.456,9.64,27S8.456,24.36,7,24.36z M25,13.36
	c-1.456,0-2.64,1.185-2.64,2.64c0,1.456,1.184,2.64,2.64,2.64s2.64-1.184,2.64-2.64S26.456,13.36,25,13.36z M13,13.36
	c-1.456,0-2.64,1.185-2.64,2.64c0,1.456,1.185,2.64,2.64,2.64s2.64-1.184,2.64-2.64S14.456,13.36,13,13.36z M19,2.36
	c-1.456,0-2.64,1.185-2.64,2.64S17.544,7.64,19,7.64S21.64,6.456,21.64,5S20.456,2.36,19,2.36z"/>
<rect id="_Transparent_Rectangle" style="fill:none;" width="32" height="32"/>
</svg>
