<svg xmlns="http://www.w3.org/2000/svg" viewBox="0 0 48 48"><path fill="none" stroke-linejoin="round" stroke-miterlimit="10" stroke-width=".72" d="M30,13c0,1.657-1.343,3-3,3c-1.657,0-3-1.343-3-3c0-1.657,1.343-3,3-3C28.657,10,30,11.343,30,13z M15,32c-1.657,0-3,1.343-3,3 c0,1.657,1.343,3,3,3c1.657,0,3-1.343,3-3C18,33.343,16.657,32,15,32z M27,32c-1.657,0-3,1.343-3,3c0,1.657,1.343,3,3,3 c1.657,0,3-1.343,3-3C30,33.343,28.657,32,27,32z M21,21c-1.657,0-3,1.343-3,3c0,1.657,1.343,3,3,3c1.657,0,3-1.343,3-3 C24,22.343,22.657,21,21,21z M33,21c-1.657,0-3,1.343-3,3c0,1.657,1.343,3,3,3c1.657,0,3-1.343,3-3C36,22.343,34.657,21,33,21z M31.559,21.358l-3.122-5.724 M25.563,32.366l-3.126-5.732 M22.437,21.366l3.126-5.732 M16.437,32.366l3.127-5.731"/></svg>