<?xml version="1.0" encoding="iso-8859-1"?>
<!-- Generator: Adobe Illustrator 29.1.0, SVG Export Plug-In . SVG Version: 9.03 Build 55587)  -->
<svg version="1.1" id="Layer_1" xmlns="http://www.w3.org/2000/svg" xmlns:xlink="http://www.w3.org/1999/xlink" x="0px" y="0px"
	 viewBox="0 0 32 32" style="enable-background:new 0 0 32 32;" xml:space="preserve">
<path id="ufc--fighting_00000033332295306580635310000016082543399633322652_" d="M31.274,28.149l-1.771-4.817
	c-0.001-0.003-0.091-0.272-0.095-0.533c-0.005-0.324-0.207-10.613-0.207-10.613h-0.01c0.016-0.185,0.005-0.356-0.03-0.492
	l-0.73-2.734c-0.324-1.312-1.351-2.312-2.698-2.686c0.4-0.509,0.628-1.136,0.628-1.774c0-1.577-1.283-2.86-2.86-2.86
	s-2.86,1.283-2.86,2.86c0,0.476,0.12,0.947,0.346,1.364c0.096,0.175,0.314,0.239,0.488,0.145c0.175-0.095,0.239-0.313,0.145-0.488
	c-0.171-0.312-0.26-0.665-0.26-1.021c0-1.18,0.96-2.14,2.14-2.14s2.14,0.96,2.14,2.14c0,0.644-0.33,1.301-0.861,1.716
	c-0.115,0.09-0.165,0.241-0.125,0.382c0.041,0.141,0.162,0.243,0.308,0.259c1.399,0.152,2.461,1.024,2.772,2.282l0.732,2.738
	c0.078,0.298-0.125,1.006-0.471,1.205c-0.307,0.175-0.884,0.281-1.217-0.032l-2.152-2.006c-0.007-0.02-0.009-0.043-0.017-0.062
	c-0.21-0.541-0.68-0.932-1.198-1.072l-1.357-1.265c-0.174-0.162-0.273-0.382-0.282-0.62c-0.008-0.238,0.077-0.464,0.239-0.638
	c0.334-0.36,0.898-0.377,1.253-0.049l1.986,1.919l0.5-0.518l-1.991-1.924c-0.314-0.294-0.728-0.446-1.154-0.432
	c-0.43,0.015-0.827,0.197-1.121,0.511c-0.199,0.215-0.33,0.47-0.391,0.737c-0.182-0.062-0.377-0.085-0.574-0.083
	c-0.43,0.015-0.827,0.197-1.121,0.511c-0.605,0.649-0.569,1.67,0.08,2.275l0.59,0.55l-7.003,2.724l-1.546-1.25h4.232
	c0.888,0,1.61-0.722,1.61-1.61s-0.723-1.61-1.61-1.61h-7.74c-0.117-0.001-0.942-0.02-1.663,0.129C6.356,9.179,6.36,9.089,6.36,9
	c0-1.577-1.283-2.86-2.86-2.86S0.64,7.423,0.64,9c0,1.596,1.321,2.865,2.917,2.859l-0.413,0.733
	c-0.234,0.417-0.336,0.89-0.293,1.367l0.176,1.971c0,0.004,0.011,0.087,0.012,0.091c0.047,0.381,0.192,1.542,1.406,1.816
	c1.098,0.243,1.665-0.462,1.875-0.725l0.628-0.819l2.726,1.876L8.279,28.508c-0.06,0.428,0.077,0.861,0.385,1.22
	c0.286,0.333,0.69,0.558,1.109,0.616c0.913,0.121,1.822-0.504,1.942-1.354l1.613-11.731l9.585-3.752l-0.006,2.829l-1.813,4.536
	c-0.072,0.182-0.146,0.372-0.168,0.531c-0.01,0.081-0.947,7.105-0.947,7.105c-0.055,0.39,0.056,0.791,0.312,1.131
	c0.285,0.379,0.727,0.643,1.182,0.706c0.908,0.121,1.822-0.504,1.941-1.353c0.251-1.76,0.907-6.362,0.935-6.524
	c0.013-0.074,0.047-0.19,0.104-0.392c0.042-0.136,0.639-1.701,1.24-3.271l0.116,3.979c0.001,0.048,0.011,0.469,0.13,0.788
	c0.101,0.273,2.074,5.766,2.075,5.767c0.228,0.625,0.892,1.023,1.583,1.023c0.2,0,0.403-0.033,0.598-0.104
	C31.063,29.94,31.568,28.956,31.274,28.149z M19.968,9.811c-0.174-0.162-0.273-0.382-0.282-0.62
	c-0.008-0.238,0.077-0.464,0.239-0.638s0.382-0.274,0.619-0.283c0.011,0,0.021,0,0.032,0c0.198,0,0.387,0.064,0.542,0.185
	c0.079,0.267,0.228,0.516,0.445,0.718l0.857,0.799l-1.608,0.625L19.968,9.811z M12.869,16.665c-0.121,0.048-0.208,0.157-0.225,0.287
	l-1.642,11.939c-0.063,0.452-0.616,0.806-1.129,0.74c-0.248-0.035-0.489-0.171-0.663-0.372c-0.171-0.199-0.249-0.431-0.217-0.653
	l1.426-10.558c0.018-0.134-0.041-0.268-0.153-0.345l-2.877-1.981l1.557-2.03c0.54-0.705,0.407-1.718-0.297-2.257
	c-0.341-0.262-0.765-0.375-1.19-0.319c-0.426,0.056-0.805,0.275-1.06,0.607l-1.676,2.049l0.558,0.456l1.683-2.058
	c0.145-0.189,0.354-0.31,0.589-0.341c0.235-0.029,0.469,0.032,0.658,0.177s0.31,0.354,0.341,0.589
	c0.031,0.236-0.032,0.47-0.176,0.658l-2.639,3.439c-0.246,0.306-0.551,0.572-1.132,0.442c-0.634-0.143-0.786-0.688-0.859-1.269
	L3.57,13.894c-0.029-0.332,0.042-0.661,0.205-0.95l0.775-1.378c0.072-0.128,0.059-0.288-0.033-0.402
	c-0.092-0.115-0.246-0.162-0.386-0.119C3.926,11.108,3.714,11.14,3.5,11.14c-1.18,0-2.14-0.96-2.14-2.14S2.32,6.86,3.5,6.86
	S5.64,7.82,5.64,9c0,0.231-0.037,0.459-0.109,0.676C5.485,9.813,5.525,9.964,5.633,10.06c0.109,0.096,0.264,0.117,0.393,0.056
	C6.536,9.873,7.615,9.85,8,9.86h7.75c0.491,0,0.89,0.399,0.89,0.89s-0.399,0.89-0.89,0.89H10.5c-0.152,0-0.289,0.096-0.339,0.24
	c-0.051,0.144-0.006,0.304,0.113,0.4l2.5,2.021c0.101,0.081,0.238,0.103,0.357,0.056l9.61-3.737c0.208-0.081,0.45-0.058,0.684,0.063
	c0.236,0.123,0.424,0.327,0.515,0.561c0.099,0.254,0.089,0.562-0.026,0.824c-0.094,0.213-0.248,0.371-0.436,0.444L12.869,16.665z
	 M29.949,29.581c-0.488,0.177-1.102-0.059-1.258-0.488c0,0-1.976-5.496-2.077-5.771c-0.064-0.174-0.083-0.455-0.085-0.554
	l-0.17-5.778c-0.005-0.171-0.13-0.315-0.299-0.344c-0.176-0.033-0.336,0.066-0.396,0.226C25.23,18,23.81,21.697,23.741,21.946
	c-0.047,0.165-0.086,0.308-0.102,0.397c-0.029,0.166-0.846,5.896-0.938,6.549c-0.031,0.22-0.169,0.42-0.389,0.564
	c-0.223,0.146-0.494,0.207-0.74,0.176c-0.27-0.038-0.534-0.197-0.706-0.426c-0.141-0.187-0.203-0.398-0.175-0.6
	c0,0,0.942-7.059,0.948-7.108c0.012-0.081,0.092-0.283,0.124-0.363l1.837-4.596c0.018-0.042,0.026-0.087,0.026-0.133l0.007-3.182
	l0.104-0.041c0.366-0.142,0.662-0.435,0.834-0.825c0.041-0.094,0.07-0.192,0.095-0.292l1.62,1.51c0.295,0.28,0.68,0.397,1.065,0.397
	c0.357,0,0.716-0.101,1.003-0.266c0.056-0.032,0.104-0.075,0.154-0.115c0.055,2.82,0.176,8.969,0.18,9.22
	c0.007,0.369,0.121,0.714,0.137,0.76l1.773,4.825C30.755,28.826,30.439,29.402,29.949,29.581z"/>
<rect id="_Transparent_Rectangle" style="fill:none;" width="32" height="32"/>
</svg>
