<?xml version="1.0" encoding="iso-8859-1"?>
<!-- Generator: Adobe Illustrator 24.1.2, SVG Export Plug-In . SVG Version: 6.00 Build 0)  -->
<svg version="1.1" id="Layer_1" xmlns="http://www.w3.org/2000/svg" xmlns:xlink="http://www.w3.org/1999/xlink" x="0px" y="0px"
	 viewBox="0 0 32 32" style="enable-background:new 0 0 32 32;" xml:space="preserve">
<path id="under--utilized--security_1_" d="M28.811,26.812l-4.33-2.5l0.359-0.623l4.33,2.5L28.811,26.812z M31,19.36h-5v-0.72h5
	V19.36z M16,19.36L1,19.355v-0.721l15,0.005V19.36z M24.84,14.312l-0.359-0.624l4.33-2.5l0.359,0.624L24.84,14.312z M7.16,14.312
	l-4.33-2.5l0.36-0.624l4.33,2.5L7.16,14.312z M21.312,10.52l-0.623-0.36l2.5-4.33l0.623,0.36L21.312,10.52z M10.688,10.52l-2.5-4.33
	l0.624-0.36l2.5,4.33L10.688,10.52z M16.36,9h-0.72V4h0.72V9z"/>
<rect id="_Transparent_Rectangle" style="fill:none;" width="32" height="32"/>
</svg>
