<?xml version="1.0" encoding="iso-8859-1"?>
<!-- Generator: Adobe Illustrator 22.0.0, SVG Export Plug-In . SVG Version: 6.00 Build 0)  -->
<svg version="1.1" xmlns="http://www.w3.org/2000/svg" xmlns:xlink="http://www.w3.org/1999/xlink" x="0px" y="0px"
	 viewBox="0 0 48 48" style="enable-background:new 0 0 48 48;" xml:space="preserve">
<g id="university">
	<path id="university_2_" style="fill:none;stroke:#000000;stroke-width:0.72;stroke-linejoin:round;stroke-miterlimit:10;" d="
		M39,39H9v-3h30V39z M9,18h30L24,9L9,18z M37,33H11v3h26V33z M26,24h-4v6h4V24z M35,24h-4v6h4V24z M17,24h-4v6h4V24z M11,21h26
		 M24,11.5c-1.105,0-2,0.895-2,2s0.895,2,2,2c1.105,0,2-0.895,2-2S25.105,11.5,24,11.5z"/>
</g>
<g id="Layer_1">
</g>
</svg>
