<?xml version="1.0" encoding="iso-8859-1"?>
<!-- Generator: Adobe Illustrator 24.1.2, SVG Export Plug-In . SVG Version: 6.00 Build 0)  -->
<svg version="1.1" id="Layer_1" xmlns="http://www.w3.org/2000/svg" xmlns:xlink="http://www.w3.org/1999/xlink" x="0px" y="0px"
	 viewBox="0 0 32 32" style="enable-background:new 0 0 32 32;" xml:space="preserve">
<path id="unlock--01_1_" d="M17.5,20.5c0,0.704-0.486,1.29-1.14,1.452V24c0,0.199-0.161,0.36-0.36,0.36s-0.36-0.161-0.36-0.36
	v-2.048c-0.654-0.162-1.14-0.748-1.14-1.452c0-0.828,0.672-1.5,1.5-1.5C16.828,19,17.5,19.672,17.5,20.5z M26.36,21
	c0,5.713-4.647,10.36-10.36,10.36c-5.712,0-10.36-4.647-10.36-10.36c0-3.749,2.009-7.03,5-8.849V6c0-2.956,2.404-5.36,5.36-5.36
	c2.955,0,5.36,2.404,5.36,5.36h-0.72c0-2.559-2.081-4.64-4.64-4.64S11.36,3.441,11.36,6v5.751c1.398-0.704,2.971-1.11,4.64-1.11
	C21.713,10.64,26.36,15.288,26.36,21z M25.64,21c0-5.315-4.324-9.64-9.64-9.64S6.36,15.685,6.36,21s4.325,9.64,9.64,9.64
	S25.64,26.315,25.64,21z"/>
<rect id="_Transparent_Rectangle" style="fill:none;" width="32" height="32"/>
</svg>
