<?xml version="1.0" encoding="iso-8859-1"?>
<!-- Generator: Adobe Illustrator 26.3.1, SVG Export Plug-In . SVG Version: 6.00 Build 0)  -->
<svg version="1.1" id="Layer_1" xmlns="http://www.w3.org/2000/svg" xmlns:xlink="http://www.w3.org/1999/xlink" x="0px" y="0px"
	 viewBox="0 0 32 32" style="enable-background:new 0 0 32 32;" xml:space="preserve">
<path id="unstructured-data_00000029025301055196642170000011983087235012298641_" d="M30,31.36h-2c-0.199,0-0.36-0.161-0.36-0.36
	v-0.64H15.36V31c0,0.199-0.161,0.36-0.36,0.36h-2c-0.199,0-0.36-0.161-0.36-0.36v-0.64H3.36V31c0,0.199-0.161,0.36-0.36,0.36H1
	c-0.199,0-0.36-0.161-0.36-0.36v-2c0-0.199,0.161-0.36,0.36-0.36h2c0.199,0,0.36,0.161,0.36,0.36v0.64h9.28v-0.49l-9.789-9.79H1
	c-0.199,0-0.36-0.161-0.36-0.36v-2c0-0.199,0.161-0.36,0.36-0.36h2c0.199,0,0.36,0.161,0.36,0.36v1.851l9.789,9.789H15
	c0.199,0,0.36,0.161,0.36,0.36v0.64h12.28V29c0-0.199,0.161-0.36,0.36-0.36h2c0.199,0,0.36,0.161,0.36,0.36v2
	C30.36,31.199,30.199,31.36,30,31.36z M28.36,30.64h1.279v-1.28H28.36V30.64z M13.36,30.64h1.28v-1.28h-1.28V30.64z M1.36,30.64
	h1.28v-1.28H1.36V30.64z M1.36,18.64h1.28v-1.28H1.36V18.64z M27,27.36h-2c-0.199,0-0.36-0.161-0.36-0.36v-1.851l-9.789-9.79H13
	c-0.199,0-0.36-0.161-0.36-0.36v-1.851L2.851,3.36H1C0.801,3.36,0.64,3.199,0.64,3V1c0-0.199,0.161-0.36,0.36-0.36h2
	c0.199,0,0.36,0.161,0.36,0.36v0.64h12.28V1c0-0.199,0.161-0.36,0.36-0.36h2c0.199,0,0.36,0.161,0.36,0.36v0.64h9.279V1
	c0-0.199,0.161-0.36,0.36-0.36h2c0.199,0,0.36,0.161,0.36,0.36v2c0,0.199-0.161,0.36-0.36,0.36h-2c-0.199,0-0.36-0.161-0.36-0.36
	V2.36H18.36v0.491l9.789,9.789H30c0.199,0,0.36,0.161,0.36,0.36v2c0,0.199-0.161,0.36-0.36,0.36h-2c-0.199,0-0.36-0.161-0.36-0.36
	v-1.851L17.851,3.36H16c-0.199,0-0.36-0.161-0.36-0.36V2.36H3.36v0.491l9.789,9.789H15c0.199,0,0.36,0.161,0.36,0.36v1.851
	l9.79,9.789H27c0.199,0,0.36,0.161,0.36,0.36v2C27.36,27.199,27.199,27.36,27,27.36z M25.36,26.64h1.279v-1.28H25.36V26.64z
	 M28.36,14.64h1.279v-1.28H28.36V14.64z M13.36,14.64h1.28v-1.28h-1.28V14.64z M28.36,2.64h1.279V1.36H28.36V2.64z M16.36,2.64h1.28
	V1.36h-1.28V2.64z M1.36,2.64h1.28V1.36H1.36V2.64z"/>
<rect id="_Transparent_Rectangle" style="fill:none;" width="32" height="32"/>
</svg>
