<?xml version="1.0" encoding="iso-8859-1"?>
<!-- Generator: Adobe Illustrator 24.3.0, SVG Export Plug-In . SVG Version: 6.00 Build 0)  -->
<svg version="1.1" id="Layer_1" xmlns="http://www.w3.org/2000/svg" xmlns:xlink="http://www.w3.org/1999/xlink" x="0px" y="0px"
	 viewBox="0 0 32 32" style="enable-background:new 0 0 32 32;" xml:space="preserve">
<path id="uruguay--palacio-salvo_1_" d="M12.36,26h-0.72v-1h0.72V26z M7.64,9h0.72V8H7.64V9z M7.64,7h0.72V6H7.64V7z M16.36,27
	h-0.72v1h0.72V27z M16.36,25h-0.72v1h0.72V25z M12.36,27h-0.72v1h0.72V27z M8.36,25H7.64v1h0.72V25z M19.64,7
	c0-0.633,0.435-1.167,1.021-1.317C20.816,4.531,21.807,3.64,23,3.64c0.93,0,1.735,0.541,2.12,1.324
	C25.357,4.762,25.665,4.64,26,4.64c0.625,0,1.153,0.424,1.312,1H28c0.75,0,1.36,0.61,1.36,1.36S28.75,8.36,28,8.36h-7
	C20.25,8.36,19.64,7.75,19.64,7z M20.36,7c0,0.353,0.287,0.64,0.64,0.64h7c0.353,0,0.64-0.287,0.64-0.64S28.353,6.36,28,6.36h-1
	c-0.199,0-0.36-0.161-0.36-0.36c0-0.353-0.287-0.64-0.64-0.64S25.36,5.647,25.36,6c0,0.199-0.161,0.36-0.36,0.36
	S24.64,6.199,24.64,6c0-0.904-0.735-1.64-1.64-1.64S21.36,5.096,21.36,6c0,0.199-0.161,0.36-0.36,0.36
	C20.647,6.36,20.36,6.647,20.36,7z M28.36,28.64H29v0.721h-0.64V31h-0.72v-1.64h-1.28V31h-0.72v-1.64h-1.28V31h-0.72v-1.64h-1.28V31
	h-0.72v-1.64h-1.28V31h-0.72v-1.64h-1.28V31h-0.72v-1.64h-1.28V31h-0.72v-1.64h-1.28V31h-0.72v-1.64h-1.28V31h-0.72v-1.64h-1.28V31
	H9.64v-1.64H6.36V31H5.64v-1.64H4.36V31H3.64v-1.64H3v-0.72h0.64v-5.28H3v-0.72h0.64v-4.28H3v-0.72h0.64v-6.28H3v-0.72h0.64V8
	c0-0.75,0.61-1.36,1.36-1.36c0.231,0,0.449,0.058,0.64,0.16V4c0-1.179,0.869-2.159,2-2.333V1h0.72v0.667
	c1.131,0.174,2,1.154,2,2.333v2.8c0.191-0.103,0.409-0.16,0.64-0.16c0.75,0,1.36,0.61,1.36,1.36v2.64H13v0.72h-0.64v6.28H13v0.721
	h-0.64v1.279H27c0.155,0,0.293,0.1,0.342,0.246l1,3c0.012,0.037,0.019,0.075,0.019,0.114L28.36,28.64L28.36,28.64z M24.36,22.64
	h3.141l-0.761-2.28h-2.38V22.64z M20.36,22.64h3.279v-2.28H20.36V22.64z M16.36,22.64h3.28v-2.28h-3.28V22.64z M12.36,22.64h3.28
	v-2.28h-3.28V22.64z M10.36,10.64h1.28V8c0-0.353-0.287-0.64-0.64-0.64S10.36,7.647,10.36,8V10.64z M6.36,4.64h3.28V4
	c0-0.904-0.736-1.64-1.64-1.64S6.36,3.096,6.36,4V4.64z M6.36,10.64h3.28V5.36H6.36V10.64z M4.36,10.64h1.28V8
	c0-0.353-0.287-0.64-0.64-0.64S4.36,7.647,4.36,8V10.64z M4.36,17.64h7.28v-6.28H4.36V17.64z M4.36,22.64h1.28V22
	c0-1.302,1.059-2.36,2.36-2.36s2.36,1.059,2.36,2.36v0.64h1.28v-4.28H4.36V22.64z M8,20.36c-0.904,0-1.64,0.735-1.64,1.64v0.64h3.28
	V22C9.64,21.096,8.904,20.36,8,20.36z M27.64,23.36H4.36v5.279h1.28V25c0-0.199,0.161-0.36,0.36-0.36S6.36,24.801,6.36,25v3.64h3.28
	V25c0-0.199,0.161-0.36,0.36-0.36s0.36,0.161,0.36,0.36v3.64h3.281V25c0-0.199,0.161-0.36,0.36-0.36s0.36,0.161,0.36,0.36v3.64h3.28
	V25c0-0.199,0.161-0.36,0.36-0.36s0.36,0.161,0.36,0.36v3.64h3.279V25c0-0.199,0.161-0.36,0.36-0.36s0.36,0.161,0.36,0.36v3.64
	h3.279V25c0-0.199,0.161-0.36,0.36-0.36s0.36,0.161,0.36,0.36v3.64h1.278v-5.28H27.64z M8.36,27H7.64v1h0.72V27z M9.64,15h0.72v-1
	H9.64V15z M9.64,17h0.72v-1H9.64V17z M20.36,27h-0.72v1h0.721L20.36,27L20.36,27z M5.64,17h0.72v-1H5.64V17z M9.64,13h0.72v-1H9.64
	V13z M24.36,27h-0.72v1h0.721L24.36,27L24.36,27z M20.36,25h-0.72v1h0.721L20.36,25L20.36,25z M24.36,25h-0.72v1h0.721L24.36,25
	L24.36,25z M5.64,15h0.72v-1H5.64V15z M5.64,13h0.72v-1H5.64V13z M7.64,15h0.72v-1H7.64V15z M7.64,17h0.72v-1H7.64V17z M7.64,13
	h0.72v-1H7.64V13z"/>
<rect id="_Transparent_Rectangle" style="fill:none;" width="32" height="32"/>
</svg>
