<svg xmlns="http://www.w3.org/2000/svg" viewBox="0 0 48 48"><path fill="none" stroke-linejoin="round" stroke-miterlimit="10" stroke-width=".72" d="M18,32v5h21V11H18v3 M27,23c0,4.971-4.029,9-9,9s-9-4.029-9-9s4.029-9,9-9S27,18.029,27,23z M30,15h6 M30,18h6 M30,21h6 M36,37V24 h-4v13 M30,37v-6h-4v6 M24.687,29c-1.065-1.982-3.01-3.421-5.293-3.852c1.624-0.582,2.793-2.119,2.793-3.943 c0-2.322-1.882-4.204-4.204-4.204s-4.204,1.882-4.204,4.204c0,1.824,1.169,3.362,2.793,3.943c-2.283,0.431-4.193,1.87-5.258,3.852"/></svg>