<?xml version="1.0" encoding="iso-8859-1"?>
<!-- Generator: Adobe Illustrator 24.1.2, SVG Export Plug-In . SVG Version: 6.00 Build 0)  -->
<svg version="1.1" xmlns="http://www.w3.org/2000/svg" xmlns:xlink="http://www.w3.org/1999/xlink" x="0px" y="0px"
	 viewBox="0 0 48 48" style="enable-background:new 0 0 48 48;" xml:space="preserve">
<g id="user--inteface">
	<g id="user--interface_1_">
		<path d="M37,11.5c0,0.276-0.224,0.5-0.5,0.5c-0.276,0-0.5-0.224-0.5-0.5c0-0.276,0.224-0.5,0.5-0.5C36.776,11,37,11.224,37,11.5
			 M34.5,11c-0.276,0-0.5,0.224-0.5,0.5c0,0.276,0.224,0.5,0.5,0.5c0.276,0,0.5-0.224,0.5-0.5C35,11.224,34.776,11,34.5,11 M32.5,11
			c-0.276,0-0.5,0.224-0.5,0.5c0,0.276,0.224,0.5,0.5,0.5c0.276,0,0.5-0.224,0.5-0.5C33,11.224,32.776,11,32.5,11"/>
		<path style="fill:none;stroke:#000000;stroke-width:0.72;stroke-linecap:round;stroke-linejoin:round;stroke-miterlimit:10;" d="
			M39,38H9V10h30V38z M9,13h30"/>
		<path style="fill:none;stroke:#000000;stroke-width:0.72;stroke-linecap:round;stroke-linejoin:round;stroke-miterlimit:10;" d="
			M16,18h-5v-3h5V18z M37,15h-5v3h5V15z M23,15h-5v3h5V15z M30,15h-5v3h5V15z M16,20h-5v3h5V20z M23,20h-5v3h5V20z M30,20h-5v3h5V20
			z M23,25h-5v3h5V25z M23,30h-5v3h5V30z M30,25h-5v3h5V25z"/>
	</g>
</g>
<g id="Layer_1">
</g>
</svg>
