<?xml version="1.0" encoding="iso-8859-1"?>
<!-- Generator: Adobe Illustrator 24.1.2, SVG Export Plug-In . SVG Version: 6.00 Build 0)  -->
<svg version="1.1" id="Layer_1" xmlns="http://www.w3.org/2000/svg" xmlns:xlink="http://www.w3.org/1999/xlink" x="0px" y="0px"
	 viewBox="0 0 32 32" style="enable-background:new 0 0 32 32;" xml:space="preserve">
<path id="user--profile_1_" d="M16,31.36C7.53,31.36,0.64,24.47,0.64,16S7.53,0.64,16,0.64S31.36,7.53,31.36,16
	S24.47,31.36,16,31.36z M6.349,27c2.579,2.266,5.957,3.64,9.651,3.64c3.693,0,7.072-1.374,9.65-3.64h-0.01
	c0-4.341-2.941-8.161-7.153-9.29c-0.144-0.038-0.248-0.16-0.265-0.307c-0.018-0.146,0.058-0.289,0.188-0.358
	c1.678-0.897,2.72-2.635,2.72-4.534c0-2.84-2.306-5.151-5.14-5.151s-5.141,2.311-5.141,5.151c0,1.899,1.042,3.637,2.72,4.534
	c0.13,0.069,0.205,0.212,0.188,0.358s-0.122,0.269-0.264,0.307C9.292,18.835,6.36,22.655,6.36,27H6.349z M19.435,17.25
	c3.913,1.377,6.646,4.973,6.905,9.104c2.655-2.651,4.3-6.314,4.3-10.354c0-8.073-6.567-14.64-14.64-14.64
	C7.927,1.36,1.36,7.927,1.36,16c0,4.04,1.645,7.703,4.3,10.354c0.258-4.135,2.982-7.729,6.883-9.104
	c-1.506-1.094-2.415-2.846-2.415-4.739c0-3.237,2.629-5.871,5.86-5.871c3.232,0,5.861,2.633,5.861,5.871
	C21.85,14.404,20.941,16.156,19.435,17.25z"/>
<rect id="_Transparent_Rectangle" style="fill:none;" width="32" height="32"/>
</svg>
