<?xml version="1.0" encoding="iso-8859-1"?>
<!-- Generator: Adobe Illustrator 24.1.2, SVG Export Plug-In . SVG Version: 6.00 Build 0)  -->
<svg version="1.1" id="Layer_1" xmlns="http://www.w3.org/2000/svg" xmlns:xlink="http://www.w3.org/1999/xlink" x="0px" y="0px"
	 viewBox="0 0 32 32" style="enable-background:new 0 0 32 32;" xml:space="preserve">
<path id="user--analytics_1_" d="M31,29.4H10c-0.2,0-0.4-0.2-0.4-0.4v-4.6c-5-0.2-9-4.3-9-9.4s4-9.2,9-9.4V3c0-0.2,0.2-0.4,0.4-0.4
	h21c0.2,0,0.4,0.2,0.4,0.4v26C31.4,29.2,31.2,29.4,31,29.4z M28.4,28.6h2.3V3.4H10.4v2.3c5,0.2,9,4.3,9,9.4c0,5-4,9.2-9,9.4v4.3h7.3
	V23c0-0.2,0.2-0.4,0.4-0.4h4c0.2,0,0.4,0.2,0.4,0.4v5.6h1.3V16c0-0.2,0.2-0.4,0.4-0.4h4c0.2,0,0.4,0.2,0.4,0.4L28.4,28.6L28.4,28.6z
	 M24.4,28.6h3.3V16.4h-3.3V28.6z M18.4,28.6h3.3v-5.3h-3.3V28.6z M3.7,21c1.6,1.6,3.8,2.7,6.3,2.7s4.7-1,6.3-2.7
	c-1-1.8-2.9-3.1-4.9-3.5c-0.2,0-0.3-0.2-0.3-0.3s0.1-0.3,0.2-0.4c1.5-0.5,2.6-2,2.6-3.6c0-2.1-1.7-3.8-3.8-3.8s-3.8,1.7-3.8,3.8
	c0,1.6,1,3.1,2.6,3.6c0.2,0.1,0.2,0.2,0.2,0.4S9,17.5,8.8,17.5C6.6,17.9,4.8,19.1,3.7,21z M12.4,17c1.8,0.6,3.3,1.8,4.3,3.3
	c1.2-1.5,1.9-3.4,1.9-5.4c0-4.8-3.9-8.6-8.6-8.6S1.4,10.2,1.4,15c0,2,0.7,3.9,1.9,5.4c1-1.6,2.5-2.8,4.3-3.4
	c-1.3-0.8-2.1-2.3-2.1-3.8c0-2.5,2-4.6,4.6-4.6s4.6,2,4.6,4.6C14.5,14.8,13.7,16.2,12.4,17z M28,13.4h-6v-0.7h6V13.4z M28,10.4h-6
	V9.6h6V10.4z M28,7.4h-6V6.6h6V7.4z"/>
<rect id="_Transparent_Rectangle" style="fill:none;" width="32" height="32"/>
</svg>
