<svg xmlns="http://www.w3.org/2000/svg" viewBox="0 0 48 48"><path fill="none" stroke-linecap="round" stroke-miterlimit="10" stroke-width=".72" d="M20,26.006 c-1.105,0-2-0.895-2-2h20c0,1.105-0.895,2-2,2H20z"/><line x1="28" x2="32" y1="16.006" y2="24.006" fill="none" stroke-linecap="round" stroke-linejoin="round" stroke-miterlimit="10" stroke-width=".72"/><line x1="25" x2="24" y1="22.006" y2="24.006" fill="none" stroke-linecap="round" stroke-linejoin="round" stroke-miterlimit="10" stroke-width=".72"/><line x1="36" x2="36" y1="15.006" y2="21.006" fill="none" stroke-linejoin="round" stroke-miterlimit="10" stroke-width=".72"/><polyline fill="none" stroke-linecap="round" stroke-miterlimit="10" stroke-width=".72" points="24,18.006 16,18.006 14,15 11,15 13,20.006 24,22.006 34,22.006 34,20.006 36,18.006"/><line x1="32" x2="37" y1="18.006" y2="18.006" fill="none" stroke-linecap="round" stroke-linejoin="round" stroke-miterlimit="10" stroke-width=".72"/><path fill="none" stroke-linecap="round" stroke-linejoin="round" stroke-miterlimit="10" stroke-width=".72" d="M24,18.006c2.209-2.667,5.791-2.667,8,0v2h-7L24,18.006"/><path fill="none" stroke-linecap="round" stroke-linejoin="round" stroke-miterlimit="10" stroke-width=".72" d="M15,37.006c-1.105,1.333-2.895,1.333-4,0"/><path fill="none" stroke-linecap="round" stroke-linejoin="round" stroke-miterlimit="10" stroke-width=".72" d="M19,37.006c-1.105,1.333-2.895,1.333-4,0"/><path fill="none" stroke-linecap="round" stroke-linejoin="round" stroke-miterlimit="10" stroke-width=".72" d="M23,37.006c-1.105,1.333-2.895,1.333-4,0"/><path fill="none" stroke-linecap="round" stroke-linejoin="round" stroke-miterlimit="10" stroke-width=".72" d="M27,37.006c-1.105,1.333-2.895,1.333-4,0"/><path fill="none" stroke-linecap="round" stroke-linejoin="round" stroke-miterlimit="10" stroke-width=".72" d="M31,37.006c-1.105,1.333-2.895,1.333-4,0"/><path fill="none" stroke-linecap="round" stroke-linejoin="round" stroke-miterlimit="10" stroke-width=".72" d="M35,37.006c-1.105,1.333-2.895,1.333-4,0"/><path fill="none" stroke-linecap="round" stroke-linejoin="round" stroke-miterlimit="10" stroke-width=".72" d="M39,37.006c-1.105,1.333-2.895,1.333-4,0"/><path fill="none" stroke-linecap="round" stroke-linejoin="round" stroke-miterlimit="10" stroke-width=".72" d="M11,37.006c-0.552,0.667-1.276,1-2,1"/><path fill="none" stroke-linecap="round" stroke-linejoin="round" stroke-miterlimit="10" stroke-width=".72" d="M11,30.006c0-1.105,0.895-2,2-2s2,0.895,2,2"/><path fill="none" stroke-linecap="round" stroke-linejoin="round" stroke-miterlimit="10" stroke-width=".72" d="M11,32.006c-0.552,0-1-0.448-1-1c0-0.552,0.448-1,1-1"/><path fill="none" stroke-linejoin="round" stroke-miterlimit="10" stroke-width=".72" d="M15,30.006 c0-0.552,0.448-1,1-1c0.552,0,1,0.448,1,1"/><path fill="none" stroke-linecap="round" stroke-linejoin="round" stroke-miterlimit="10" stroke-width=".72" d="M18,30.006c0.552,0,1,0.448,1,1c0,0.552-0.448,1-1,1"/><line x1="18" x2="17" y1="30.006" y2="30.006" fill="none" stroke-linecap="round" stroke-linejoin="round" stroke-miterlimit="10" stroke-width=".72"/><line x1="18" x2="11" y1="32.006" y2="32.006" fill="none" stroke-linecap="round" stroke-linejoin="round" stroke-miterlimit="10" stroke-width=".72"/></svg>