<?xml version="1.0" encoding="iso-8859-1"?>
<!-- Generator: Adobe Illustrator 29.1.0, SVG Export Plug-In . SVG Version: 9.03 Build 55587)  -->
<svg version="1.1" id="Layer_1" xmlns="http://www.w3.org/2000/svg" xmlns:xlink="http://www.w3.org/1999/xlink" x="0px" y="0px"
	 viewBox="0 0 32 32" style="enable-background:new 0 0 32 32;" xml:space="preserve">
<path id="vault_00000078748308325192288120000016786184973864790664_" d="M25,31.36h-3c-0.096,0-0.188-0.038-0.255-0.105
	L19.85,29.36h-7.702l-1.895,1.895C10.187,31.322,10.096,31.36,10,31.36H7c-0.096,0-0.187-0.038-0.254-0.105L4.851,29.36H1
	c-0.199,0-0.36-0.161-0.36-0.36V1c0-0.199,0.161-0.36,0.36-0.36h30c0.199,0,0.36,0.161,0.36,0.36v28c0,0.199-0.161,0.36-0.36,0.36
	h-3.851l-1.895,1.895C25.188,31.322,25.096,31.36,25,31.36z M22.149,30.64h2.701l1.28-1.279h-5.262L22.149,30.64z M7.149,30.64
	h2.702l1.28-1.279H5.869L7.149,30.64z M1.36,28.64h29.28V1.36H1.36V28.64z M27,25.36H5c-0.199,0-0.36-0.161-0.36-0.36v-2.64H4
	c-0.199,0-0.36-0.161-0.36-0.36v-4c0-0.199,0.161-0.36,0.36-0.36h0.64v-5.28H4c-0.199,0-0.36-0.161-0.36-0.36V8
	c0-0.199,0.161-0.36,0.36-0.36h0.64V5c0-0.199,0.161-0.36,0.36-0.36h22c0.199,0,0.36,0.161,0.36,0.36v20
	C27.36,25.199,27.199,25.36,27,25.36z M5.36,24.64h21.28V5.36H5.36v2.28H6c0.199,0,0.36,0.161,0.36,0.36v4
	c0,0.199-0.161,0.36-0.36,0.36H5.36v5.28H6c0.199,0,0.36,0.161,0.36,0.36v4c0,0.199-0.161,0.36-0.36,0.36H5.36V24.64z M4.36,21.64
	h1.28v-3.28H4.36V21.64z M4.36,11.64h1.28V8.36H4.36V11.64z M16,22.36c-4.058,0-7.36-3.302-7.36-7.36S11.942,7.64,16,7.64
	c4.059,0,7.36,3.302,7.36,7.36C23.36,19.059,20.059,22.36,16,22.36z M16.36,18.341v3.289c1.56-0.083,2.979-0.708,4.072-1.689
	l-2.325-2.324C17.618,18.01,17.017,18.271,16.36,18.341z M11.568,19.94c1.093,0.981,2.511,1.606,4.072,1.689V18.34
	c-0.657-0.07-1.258-0.331-1.747-0.725L11.568,19.94z M18.616,17.106l2.324,2.325c0.981-1.093,1.606-2.511,1.689-4.072H19.34
	C19.271,16.017,19.01,16.618,18.616,17.106z M9.37,15.36c0.083,1.56,0.708,2.979,1.689,4.072l2.325-2.325
	c-0.395-0.488-0.655-1.089-0.725-1.747C12.659,15.36,9.37,15.36,9.37,15.36z M16,12.36c-1.456,0-2.64,1.185-2.64,2.64
	s1.185,2.64,2.64,2.64c1.456,0,2.64-1.184,2.64-2.64S17.456,12.36,16,12.36z M19.341,14.64h3.289
	c-0.083-1.561-0.708-2.979-1.689-4.072l-2.324,2.325C19.01,13.382,19.271,13.983,19.341,14.64z M9.37,14.64h3.29
	c0.07-0.657,0.331-1.258,0.725-1.747l-2.325-2.325C10.078,11.661,9.453,13.08,9.37,14.64z M16.36,11.659
	c0.657,0.07,1.258,0.331,1.747,0.725l2.325-2.325C19.339,9.078,17.92,8.453,16.36,8.37V11.659z M11.568,10.059l2.325,2.325
	c0.488-0.395,1.089-0.655,1.747-0.725V8.37C14.08,8.453,12.661,9.078,11.568,10.059z"/>
<rect id="_Transparent_Rectangle" style="fill:none;" width="32" height="32"/>
</svg>
