<?xml version="1.0" encoding="iso-8859-1"?>
<!-- Generator: Adobe Illustrator 24.1.2, SVG Export Plug-In . SVG Version: 6.00 Build 0)  -->
<svg version="1.1" id="Layer_1" xmlns="http://www.w3.org/2000/svg" xmlns:xlink="http://www.w3.org/1999/xlink" x="0px" y="0px"
	 viewBox="0 0 32 32" style="enable-background:new 0 0 32 32;" xml:space="preserve">
<path id="video--chat_1_" d="M29,2.5C29,2.8,28.8,3,28.5,3S28,2.8,28,2.5S28.2,2,28.5,2S29,2.2,29,2.5z M26.5,2
	C26.2,2,26,2.2,26,2.5S26.2,3,26.5,3S27,2.8,27,2.5S26.8,2,26.5,2z M24.5,2C24.2,2,24,2.2,24,2.5S24.2,3,24.5,3S25,2.8,25,2.5
	S24.8,2,24.5,2z M31,31.4H1c-0.2,0-0.4-0.2-0.4-0.4V1c0-0.2,0.2-0.4,0.4-0.4h30c0.2,0,0.4,0.2,0.4,0.4v30
	C31.4,31.2,31.2,31.4,31,31.4z M27.4,30.6h3.3V4.4H1.4v26.3h3.3V30c0-4.7,3.3-9,7.9-10.5c-1.9-1.2-3-3.2-3-5.4
	c0-3.6,2.9-6.4,6.4-6.4s6.4,2.9,6.4,6.4c0,2.2-1.2,4.3-3,5.4C24,21,27.3,25.3,27.3,30v0.6H27.4z M5.4,30.6h21.3V30
	c0-4.7-3.5-8.9-8.3-10c-0.1,0-0.3-0.2-0.3-0.3c0-0.2,0.1-0.3,0.2-0.4c2.1-0.9,3.4-3,3.4-5.2c0-3.2-2.6-5.7-5.7-5.7s-5.7,2.6-5.7,5.7
	c0,2.3,1.3,4.3,3.4,5.2c0.1,0.1,0.2,0.2,0.2,0.4c0,0.2-0.1,0.3-0.3,0.3c-4.8,1.1-8.3,5.3-8.3,10v0.6H5.4z M1.4,3.6h29.3V1.4H1.4V3.6
	z"/>
<rect id="_Transparent_Rectangle" style="fill:none;" width="32" height="32"/>
</svg>
