<?xml version="1.0" encoding="iso-8859-1"?>
<!-- Generator: Adobe Illustrator 26.1.0, SVG Export Plug-In . SVG Version: 6.00 Build 0)  -->
<svg version="1.1" id="Layer_1" xmlns="http://www.w3.org/2000/svg" xmlns:xlink="http://www.w3.org/1999/xlink" x="0px" y="0px"
	 viewBox="0 0 32 32" style="enable-background:new 0 0 32 32;" xml:space="preserve">
<path id="virtualization_00000034090467434167197710000001073834362499337657_" d="M27,28.36H5c-0.199,0-0.36-0.161-0.36-0.36v-5
	c0-0.199,0.161-0.36,0.36-0.36h22c0.199,0,0.36,0.161,0.36,0.36v5C27.36,28.199,27.199,28.36,27,28.36z M5.36,27.64h21.28v-4.28
	H5.36V27.64z M25,25.36h-6v-0.72h6V25.36z M12,25.36h-1v-0.72h1V25.36z M10,25.36H9v-0.72h1V25.36z M8,25.36H7v-0.72h1V25.36z
	 M27,21.36H5c-0.199,0-0.36-0.161-0.36-0.36v-5c0-0.199,0.161-0.36,0.36-0.36h22c0.199,0,0.36,0.161,0.36,0.36v5
	C27.36,21.199,27.199,21.36,27,21.36z M5.36,20.64h21.28v-4.28H5.36V20.64z M25,18.36h-6v-0.72h6V18.36z M12,18.36h-1v-0.72h1V18.36
	z M10,18.36H9v-0.72h1V18.36z M8,18.36H7v-0.72h1V18.36z M27,8.36h-4c-0.199,0-0.36-0.161-0.36-0.36V4c0-0.199,0.161-0.36,0.36-0.36
	h4c0.199,0,0.36,0.161,0.36,0.36v4C27.36,8.199,27.199,8.36,27,8.36z M23.36,7.64h3.279V4.36H23.36V7.64z M21,8.36h-4
	c-0.199,0-0.36-0.161-0.36-0.36V4c0-0.199,0.161-0.36,0.36-0.36h4c0.199,0,0.36,0.161,0.36,0.36v4C21.36,8.199,21.199,8.36,21,8.36z
	 M17.36,7.64h3.279V4.36H17.36V7.64z M15,8.36h-4c-0.199,0-0.36-0.161-0.36-0.36V4c0-0.199,0.161-0.36,0.36-0.36h4
	c0.199,0,0.36,0.161,0.36,0.36v4C15.36,8.199,15.199,8.36,15,8.36z M11.36,7.64h3.28V4.36h-3.28V7.64z M9,8.36H5
	C4.801,8.36,4.64,8.199,4.64,8V4c0-0.199,0.161-0.36,0.36-0.36h4c0.199,0,0.36,0.161,0.36,0.36v4C9.36,8.199,9.199,8.36,9,8.36z
	 M5.36,7.64h3.28V4.36H5.36V7.64z M5.015,11.36h-0.02c-0.196,0-0.355-0.161-0.355-0.36c0-0.199,0.159-0.36,0.355-0.36
	S5.36,10.802,5.36,11C5.36,11.199,5.211,11.36,5.015,11.36z M7.36,11c0-0.199-0.169-0.36-0.365-0.36S6.64,10.802,6.64,11
	c0,0.199,0.159,0.36,0.355,0.36h0.02C7.211,11.36,7.36,11.199,7.36,11z M9.36,11c0-0.199-0.169-0.36-0.365-0.36S8.64,10.801,8.64,11
	c0,0.199,0.159,0.36,0.355,0.36h0.02C9.211,11.36,9.36,11.199,9.36,11z M11.36,11c0-0.199-0.169-0.36-0.365-0.36
	S10.64,10.801,10.64,11c0,0.199,0.159,0.36,0.355,0.36h0.02C11.211,11.36,11.36,11.199,11.36,11z M13.36,11
	c0-0.199-0.169-0.36-0.365-0.36S12.64,10.801,12.64,11c0,0.199,0.159,0.36,0.355,0.36h0.02C13.211,11.36,13.36,11.199,13.36,11z
	 M15.36,11c0-0.199-0.169-0.36-0.365-0.36S14.64,10.801,14.64,11c0,0.199,0.159,0.36,0.355,0.36h0.02
	C15.211,11.36,15.36,11.199,15.36,11z M17.36,11c0-0.199-0.169-0.36-0.365-0.36S16.64,10.802,16.64,11
	c0,0.199,0.159,0.36,0.355,0.36h0.02C17.211,11.36,17.36,11.199,17.36,11z M19.36,11c0-0.199-0.169-0.36-0.365-0.36
	S18.64,10.802,18.64,11c0,0.199,0.159,0.36,0.355,0.36h0.02C19.211,11.36,19.36,11.199,19.36,11z M21.36,11
	c0-0.199-0.169-0.36-0.365-0.36S20.64,10.802,20.64,11c0,0.199,0.159,0.36,0.355,0.36h0.02C21.211,11.36,21.36,11.199,21.36,11z
	 M23.36,11c0-0.199-0.169-0.36-0.365-0.36S22.64,10.802,22.64,11c0,0.199,0.159,0.36,0.355,0.36h0.02
	C23.211,11.36,23.36,11.199,23.36,11z M25.36,11c0-0.199-0.169-0.36-0.365-0.36S24.64,10.802,24.64,11
	c0,0.199,0.159,0.36,0.355,0.36h0.02C25.211,11.36,25.36,11.199,25.36,11z M27.36,11c0-0.199-0.169-0.36-0.365-0.36
	S26.64,10.802,26.64,11c0,0.199,0.159,0.36,0.355,0.36h0.02C27.211,11.36,27.36,11.199,27.36,11z M4.995,12.64
	c-0.196,0-0.355,0.161-0.355,0.36c0,0.199,0.159,0.36,0.355,0.36h0.02c0.196,0,0.345-0.161,0.345-0.36
	C5.36,12.802,5.191,12.64,4.995,12.64 M6.995,12.64c-0.196,0-0.355,0.161-0.355,0.36c0,0.199,0.159,0.36,0.355,0.36h0.02
	c0.196,0,0.345-0.161,0.345-0.36C7.36,12.802,7.191,12.64,6.995,12.64 M8.995,12.64c-0.196,0-0.355,0.161-0.355,0.36
	c0,0.199,0.159,0.36,0.355,0.36h0.02c0.196,0,0.345-0.161,0.345-0.36C9.36,12.802,9.191,12.64,8.995,12.64 M10.995,12.64
	c-0.196,0-0.355,0.161-0.355,0.36c0,0.199,0.159,0.36,0.355,0.36h0.02c0.196,0,0.345-0.161,0.345-0.36
	C11.36,12.802,11.191,12.64,10.995,12.64 M12.995,12.64c-0.196,0-0.355,0.161-0.355,0.36c0,0.199,0.159,0.36,0.355,0.36h0.02
	c0.196,0,0.345-0.161,0.345-0.36C13.36,12.802,13.191,12.64,12.995,12.64 M14.995,12.64c-0.196,0-0.355,0.161-0.355,0.36
	c0,0.199,0.159,0.36,0.355,0.36h0.02c0.196,0,0.345-0.161,0.345-0.36C15.36,12.802,15.191,12.64,14.995,12.64 M16.995,12.64
	c-0.196,0-0.355,0.161-0.355,0.36c0,0.199,0.159,0.36,0.355,0.36h0.02c0.196,0,0.345-0.161,0.345-0.36
	C17.36,12.802,17.191,12.64,16.995,12.64 M18.995,12.64c-0.196,0-0.355,0.161-0.355,0.36c0,0.199,0.159,0.36,0.355,0.36h0.02
	c0.196,0,0.345-0.161,0.345-0.36C19.36,12.802,19.191,12.64,18.995,12.64 M20.995,12.64c-0.196,0-0.355,0.161-0.355,0.36
	c0,0.199,0.159,0.36,0.355,0.36h0.02c0.196,0,0.345-0.161,0.345-0.36C21.36,12.802,21.191,12.64,20.995,12.64 M22.995,12.64
	c-0.196,0-0.355,0.161-0.355,0.36c0,0.199,0.159,0.36,0.355,0.36h0.02c0.196,0,0.345-0.161,0.345-0.36
	C23.36,12.802,23.191,12.64,22.995,12.64 M24.995,12.64c-0.196,0-0.355,0.161-0.355,0.36c0,0.199,0.159,0.36,0.355,0.36h0.02
	c0.196,0,0.345-0.161,0.345-0.36C25.36,12.802,25.191,12.64,24.995,12.64 M26.995,12.64c-0.196,0-0.355,0.161-0.355,0.36
	c0,0.199,0.159,0.36,0.355,0.36h0.02c0.196,0,0.345-0.161,0.345-0.36C27.36,12.802,27.191,12.64,26.995,12.64"/>
<rect id="_Transparent_Rectangle" style="fill:none;" width="32" height="32"/>
</svg>
