<svg xmlns="http://www.w3.org/2000/svg" viewBox="0 0 48 48"><polyline fill="none" stroke-linecap="round" stroke-linejoin="round" stroke-miterlimit="10" stroke-width=".72" points="22,38 22,13 24,9 26,13 26,38"/><line x1="18" x2="18" y1="30" y2="38" fill="none" stroke-miterlimit="10" stroke-width=".72"/><line x1="32" x2="32" y1="30" y2="38" fill="none" stroke-miterlimit="10" stroke-width=".72"/><line x1="14" x2="14" y1="30" y2="38" fill="none" stroke-miterlimit="10" stroke-width=".72"/><line x1="36" x2="36" y1="30" y2="38" fill="none" stroke-miterlimit="10" stroke-width=".72"/><line x1="28" x2="28" y1="30" y2="38" fill="none" stroke-miterlimit="10" stroke-width=".72"/><line x1="9" x2="39" y1="38" y2="38" fill="none" stroke-linecap="round" stroke-miterlimit="10" stroke-width=".72"/><rect width="2" height="2" x="18" y="30" fill="none" stroke-miterlimit="10" stroke-width=".72"/><rect width="2" height="2" x="14" y="30" fill="none" stroke-miterlimit="10" stroke-width=".72"/><line x1="10" x2="10" y1="30" y2="38" fill="none" stroke-linecap="round" stroke-linejoin="round" stroke-miterlimit="10" stroke-width=".72"/><rect width="2" height="2" x="10" y="30" fill="none" stroke-miterlimit="10" stroke-width=".72"/><rect width="2" height="2" x="28" y="30" fill="none" stroke-miterlimit="10" stroke-width=".72"/><rect width="2" height="2" x="32" y="30" fill="none" stroke-miterlimit="10" stroke-width=".72"/><rect width="2" height="2" x="36" y="30" fill="none" stroke-miterlimit="10" stroke-width=".72"/></svg>