<?xml version="1.0" encoding="iso-8859-1"?>
<!-- Generator: Adobe Illustrator 24.1.2, SVG Export Plug-In . SVG Version: 6.00 Build 0)  -->
<svg version="1.1" id="Layer_1" xmlns="http://www.w3.org/2000/svg" xmlns:xlink="http://www.w3.org/1999/xlink" x="0px" y="0px"
	 viewBox="0 0 32 32" style="enable-background:new 0 0 32 32;" xml:space="preserve">
<path id="washington-dc_1_" d="M26.36,15.64V4c0-0.056-0.014-0.111-0.038-0.161l-1-2c-0.123-0.244-0.521-0.244-0.645,0l-1,2
	C23.653,3.889,23.64,3.944,23.64,4v11.64h-3.28v-1.28H21v-0.72h-0.64V12c0-2.281-1.767-4.137-4-4.323V6
	c0-0.199-0.161-0.36-0.36-0.36S15.64,5.801,15.64,6v1.677c-2.234,0.186-4,2.042-4,4.323v1.64H11v0.72h0.64v1.28H6.36v-3.28h2V9.64
	H5.64V10v2.36v3.28H1v0.72h30v-0.72C31,15.64,26.36,15.64,26.36,15.64z M7.64,11.64H6.36v-1.28h1.28
	C7.64,10.36,7.64,11.64,7.64,11.64z M24.36,4.085L25,2.805l0.64,1.28V15.64h-1.28V4.085z M19.64,15.64h-1.28v-1.28h1.279
	L19.64,15.64L19.64,15.64z M15.64,14.36v1.28h-1.28v-1.28H15.64z M16.36,14.36h1.28v1.28h-1.28V14.36z M16,8.36
	c1.884,0,3.42,1.444,3.603,3.28h-7.207C12.58,9.804,14.116,8.36,16,8.36z M12.36,12.36h7.28v1.28h-7.28
	C12.36,13.64,12.36,12.36,12.36,12.36z M12.36,14.36h1.28v1.28h-1.28V14.36z M30.36,22c0,0.199-0.161,0.36-0.36,0.36
	s-0.36-0.161-0.36-0.36c0-2.007-1.633-3.64-3.64-3.64s-3.64,1.633-3.64,3.64c0,0.199-0.161,0.36-0.36,0.36s-0.36-0.161-0.36-0.36
	c0-2.404,1.956-4.36,4.36-4.36S30.36,19.596,30.36,22z M11.64,22c0-2.404,1.956-4.36,4.36-4.36s4.36,1.956,4.36,4.36
	c0,0.199-0.161,0.36-0.36,0.36s-0.36-0.161-0.36-0.36c0-2.007-1.633-3.64-3.64-3.64s-3.64,1.633-3.64,3.64
	c0,0.199-0.161,0.36-0.36,0.36S11.64,22.199,11.64,22z M10.36,22c0,0.199-0.161,0.36-0.36,0.36S9.64,22.199,9.64,22
	c0-2.007-1.633-3.64-3.64-3.64S2.36,19.993,2.36,22c0,0.199-0.161,0.36-0.36,0.36S1.64,22.199,1.64,22c0-2.404,1.956-4.36,4.36-4.36
	S10.36,19.596,10.36,22z M30.229,26.723c0.153,0.127,0.175,0.354,0.048,0.507c-0.604,0.729-1.413,1.13-2.277,1.13
	c-0.738,0-1.436-0.292-2-0.832c-1.129,1.08-2.871,1.08-4,0c-1.129,1.08-2.871,1.08-4,0c-1.129,1.08-2.872,1.08-4,0
	c-1.128,1.08-2.872,1.08-4,0c-1.128,1.08-2.872,1.08-4,0C4.776,28.7,2.842,28.58,1.723,27.229c-0.127-0.153-0.105-0.38,0.048-0.507
	c0.152-0.127,0.38-0.105,0.507,0.048c0.929,1.121,2.517,1.121,3.445,0c0.137-0.166,0.418-0.166,0.555,0
	c0.929,1.121,2.517,1.121,3.445,0c0.137-0.166,0.418-0.166,0.555,0c0.929,1.121,2.517,1.121,3.445,0
	c0.137-0.166,0.418-0.166,0.555,0c0.929,1.121,2.516,1.121,3.445,0c0.137-0.166,0.418-0.166,0.555,0c0.93,1.121,2.516,1.121,3.445,0
	c0.137-0.166,0.418-0.166,0.555,0c0.93,1.121,2.516,1.121,3.445,0c0.137-0.166,0.418-0.166,0.555,0c0.93,1.121,2.516,1.121,3.445,0
	C29.85,26.617,30.075,26.595,30.229,26.723z M11.723,23.771c0.137-0.166,0.418-0.166,0.555,0c0.929,1.121,2.517,1.121,3.445,0
	c0.137-0.166,0.418-0.166,0.555,0c0.929,1.121,2.516,1.121,3.445,0c0.137-0.166,0.418-0.166,0.555,0c0.93,1.121,2.516,1.121,3.445,0
	c0.137-0.166,0.418-0.166,0.555,0c0.93,1.121,2.516,1.121,3.445,0c0.127-0.154,0.354-0.176,0.507-0.048
	c0.153,0.127,0.175,0.354,0.048,0.507c-0.604,0.729-1.413,1.13-2.277,1.13c-0.738,0-1.436-0.292-2-0.832c-1.129,1.08-2.871,1.08-4,0
	c-1.129,1.08-2.872,1.08-4,0c-1.128,1.08-2.872,1.08-4,0c-1.128,1.08-2.872,1.08-4,0C6.775,25.7,4.842,25.58,3.723,24.229
	c-0.127-0.153-0.105-0.38,0.048-0.507s0.379-0.106,0.507,0.048c0.929,1.121,2.517,1.121,3.445,0c0.137-0.166,0.418-0.166,0.555,0
	C9.206,24.892,10.794,24.892,11.723,23.771z"/>
<rect id="_Transparent_Rectangle" style="fill:none;" width="32" height="32"/>
</svg>
