<?xml version="1.0" encoding="iso-8859-1"?>
<!-- Generator: Adobe Illustrator 24.1.2, SVG Export Plug-In . SVG Version: 6.00 Build 0)  -->
<svg version="1.1" id="Layer_1" xmlns="http://www.w3.org/2000/svg" xmlns:xlink="http://www.w3.org/1999/xlink" x="0px" y="0px"
	 viewBox="0 0 32 32" style="enable-background:new 0 0 32 32;" xml:space="preserve">
<path id="washington-dc--capitol_2_" d="M22,25.64v0.721H10V25.64H22z M8,28.36h16v-0.72H8V28.36z M31,14.36H17.524l4.561,2.28H31
	v0.72h-8.64v6.279H31v0.721h-9H10H1v-0.72h8.64v-6.28H1v-0.72h8.915l4.561-2.28H1v-0.72h8.64V11c0-0.199,0.161-0.36,0.36-0.36h0.64
	V8c0-0.199,0.161-0.36,0.36-0.36h0.677c0.176-2.113,1.851-3.787,3.964-3.964V1c0-0.199,0.161-0.36,0.36-0.36S16.36,0.801,16.36,1
	v2.677c2.113,0.176,3.788,1.851,3.964,3.964H21c0.199,0,0.36,0.161,0.36,0.36v2.64H22c0.199,0,0.36,0.161,0.36,0.36v2.64H31V14.36z
	 M20.36,17.36v6.279h1.279V17.36H20.36z M19.64,17.36h-1.28v6.279h1.279L19.64,17.36L19.64,17.36z M17.64,17.36h-3.28v6.279h1.28V20
	h0.72v3.64h1.28V17.36z M13.64,17.36h-1.364v6.279h1.364V17.36z M11.557,17.36H10.36v6.279h1.197
	C11.557,23.639,11.557,17.36,11.557,17.36z M20.475,16.64L16,14.402l-4.475,2.238H20.475z M12.36,11.36v2.28h1.28v-2.28H12.36z
	 M14.36,13.64h1.28v-2.28h-1.28V13.64z M16.36,13.64h1.28v-2.28h-1.28V13.64z M18.36,13.64h1.279v-2.28H18.36V13.64z M20.36,13.64
	h1.279v-2.28H20.36V13.64z M12.396,7.64h7.207C19.42,5.804,17.884,4.36,16,4.36S12.58,5.804,12.396,7.64z M11.36,10.64h9.28V8.36
	h-9.28V10.64z M10.36,13.64h1.28v-2.28h-1.28V13.64z M27.64,23h0.721v-2H27.64V23z M28.36,18h-0.72v2h0.721L28.36,18L28.36,18z
	 M29.64,23h0.721v-2H29.64V23z M30.36,18h-0.72v2h0.721L30.36,18L30.36,18z M28.36,16v-1h-0.72v1H28.36z M24.36,16v-1h-0.72v1H24.36
	z M15.64,7h0.72V6h-0.72V7z M17.64,7h0.721V6H17.64V7z M13.64,7h0.72V6h-0.72V7z M17.64,10h0.721V9H17.64V10z M19.64,9v1h0.721V9
	H19.64z M15.64,10h0.72V9h-0.72V10z M13.64,10h0.72V9h-0.72V10z M11.64,10h0.72V9h-0.72V10z M7.64,15v1h0.72v-1H7.64z M3.64,15v1
	h0.72v-1H3.64z M25.64,23h0.721v-2H25.64V23z M26.36,18h-0.72v2h0.721L26.36,18L26.36,18z M23.64,23h0.721v-2H23.64V23z M24.36,18
	h-0.72v2h0.721L24.36,18L24.36,18z M5.64,23h0.72v-2H5.64V23z M6.36,18H5.64v2h0.72C6.36,20,6.36,18,6.36,18z M7.64,23h0.72v-2H7.64
	V23z M8.36,18H7.64v2h0.72V18z M3.64,23h0.72v-2H3.64V23z M4.36,18H3.64v2h0.72V18z M1.64,23h0.72v-2H1.64V23z M2.36,18H1.64v2h0.72
	C2.36,20,2.36,18,2.36,18z M6,14.999c-0.276,0-0.5,0.224-0.5,0.5s0.224,0.5,0.5,0.5s0.5-0.224,0.5-0.5S6.276,14.999,6,14.999z
	 M2,14.999c-0.276,0-0.5,0.224-0.5,0.5s0.224,0.5,0.5,0.5s0.5-0.224,0.5-0.5S2.276,14.999,2,14.999z M26,14.999
	c-0.276,0-0.5,0.224-0.5,0.5s0.224,0.5,0.5,0.5s0.5-0.224,0.5-0.5S26.276,14.999,26,14.999z M30,14.999c-0.276,0-0.5,0.224-0.5,0.5
	s0.224,0.5,0.5,0.5s0.5-0.224,0.5-0.5S30.276,14.999,30,14.999z"/>
<rect id="_Transparent_Rectangle" style="fill:none;" width="32" height="32"/>
</svg>
