<?xml version="1.0" encoding="iso-8859-1"?>
<!-- Generator: Adobe Illustrator 24.1.2, SVG Export Plug-In . SVG Version: 6.00 Build 0)  -->
<svg version="1.1" id="Layer_1" xmlns="http://www.w3.org/2000/svg" xmlns:xlink="http://www.w3.org/1999/xlink" x="0px" y="0px"
	 viewBox="0 0 32 32" style="enable-background:new 0 0 32 32;" xml:space="preserve">
<path id="watson--logo_1_" d="M15.824,30.363c-1.89,0-3.755-0.496-5.436-1.466c0-0.001,0-0.001,0-0.001
	c-2.618-1.511-4.449-3.964-5.154-6.905c-0.046-0.193,0.073-0.388,0.266-0.434c0.195-0.047,0.388,0.072,0.434,0.266
	c0.494,2.059,1.577,3.86,3.117,5.228c-0.309-1.039-0.313-2.383-0.026-3.897c-0.981-0.959-1.784-2.011-2.36-3.106
	c-1.155-2.198-1.266-4.318-0.312-5.97c1.104-1.913,3.461-2.896,6.485-2.697c0.198,0.013,0.349,0.185,0.335,0.383
	c-0.014,0.199-0.191,0.342-0.383,0.335c-2.731-0.183-4.851,0.672-5.814,2.339c-0.825,1.43-0.709,3.303,0.327,5.275
	c0.478,0.909,1.124,1.788,1.906,2.605c0.421-1.686,1.175-3.539,2.248-5.398c1.433-2.482,3.216-4.57,5.021-5.88
	c0.901-0.654,1.762-1.079,2.548-1.268c-1.855-0.614-3.849-0.68-5.78-0.171c-0.19,0.052-0.389-0.063-0.44-0.256
	c-0.051-0.192,0.064-0.389,0.256-0.44c2.8-0.737,5.725-0.347,8.232,1.101c0.001,0,0.001,0.001,0.002,0.001
	c2.522,1.457,4.326,3.809,5.08,6.623c0.755,2.814,0.367,5.754-1.09,8.276c-1.456,2.523-3.809,4.328-6.623,5.082
	C17.725,30.238,16.771,30.363,15.824,30.363z M10.772,28.287c2.352,1.351,5.086,1.708,7.707,1.004
	c1.474-0.395,2.812-1.099,3.944-2.057c-0.743,0.268-1.586,0.425-2.51,0.461c-2.412,0.104-5.129-0.645-7.627-2.087
	c-0.952-0.55-1.832-1.178-2.618-1.862c-0.338,2.187-0.002,3.9,1.081,4.526C10.756,28.277,10.764,28.282,10.772,28.287z
	 M9.822,22.919c0.829,0.765,1.78,1.464,2.824,2.066c2.381,1.374,4.957,2.074,7.239,1.991c2.226-0.089,3.906-0.925,4.731-2.354
	c0.008-0.014,0.016-0.026,0.024-0.038c0.008-0.013,0.016-0.026,0.023-0.039c1.36-2.357,1.722-5.103,1.018-7.731
	c-0.7-2.616-2.373-4.804-4.712-6.166c-0.013-0.005-0.024-0.011-0.035-0.018c-0.945-0.545-2.415-0.183-4.033,0.992
	c-1.725,1.252-3.438,3.261-4.821,5.658C10.967,19.208,10.203,21.178,9.822,22.919z M28.027,12.735c-0.124,0-0.245-0.064-0.312-0.18
	c-0.1-0.172-0.041-0.393,0.132-0.492l2.973-1.716c0.172-0.097,0.393-0.041,0.491,0.132c0.1,0.172,0.041,0.393-0.132,0.492
	l-2.973,1.716C28.15,12.72,28.089,12.735,28.027,12.735z M3.972,12.735c-0.061,0-0.123-0.015-0.18-0.048L0.82,10.972
	c-0.172-0.1-0.231-0.32-0.132-0.492c0.1-0.171,0.318-0.232,0.492-0.132l2.973,1.716c0.172,0.1,0.231,0.32,0.132,0.492
	C4.218,12.671,4.097,12.735,3.972,12.735z M22.943,7.653c-0.062,0-0.123-0.015-0.18-0.048c-0.173-0.1-0.231-0.32-0.132-0.492
	l1.716-2.973c0.1-0.172,0.321-0.229,0.491-0.132c0.173,0.1,0.231,0.32,0.132,0.492l-1.716,2.973
	C23.188,7.588,23.067,7.653,22.943,7.653z M9.057,7.653c-0.125,0-0.246-0.064-0.312-0.18L7.028,4.5
	C6.929,4.328,6.988,4.108,7.16,4.008c0.172-0.099,0.393-0.04,0.492,0.132l1.716,2.973c0.099,0.172,0.04,0.393-0.132,0.492
	C9.18,7.638,9.118,7.653,9.057,7.653z M16,5.792c-0.199,0-0.36-0.161-0.36-0.36V2c0-0.199,0.161-0.36,0.36-0.36S16.36,1.801,16.36,2
	v3.433C16.36,5.631,16.199,5.792,16,5.792z"/>
<rect id="_Transparent_Rectangle" style="fill:none;" width="32" height="32"/>
</svg>
