<?xml version="1.0" encoding="iso-8859-1"?>
<!-- Generator: Adobe Illustrator 27.5.0, SVG Export Plug-In . SVG Version: 6.00 Build 0)  -->
<svg version="1.1" id="Layer_1" xmlns="http://www.w3.org/2000/svg" xmlns:xlink="http://www.w3.org/1999/xlink" x="0px" y="0px"
	 viewBox="0 0 32 32" style="enable-background:new 0 0 32 32;" xml:space="preserve">
<path id="watsonx_00000096045775141933061270000004769346562598860708_" d="M16,31.36c-4.109,0-7.847-1.623-10.606-4.26
	c-0.171-0.157-0.336-0.321-0.493-0.493C2.263,23.848,0.64,20.109,0.64,16c0-4.134,1.642-7.892,4.308-10.656
	c0.121-0.143,0.253-0.275,0.396-0.396C8.108,2.282,11.866,0.64,16,0.64c4.109,0,7.848,1.623,10.607,4.26
	c0.172,0.157,0.336,0.322,0.493,0.493c2.637,2.759,4.26,6.497,4.26,10.606c0,4.182-1.68,7.979-4.4,10.751
	c-0.066,0.073-0.136,0.143-0.209,0.209C23.979,29.681,20.182,31.36,16,31.36z M12.203,29.019C13.162,30.018,14.51,30.64,16,30.64
	c2.903,0,5.265-2.361,5.265-5.265c0-0.125-0.004-0.249-0.013-0.372c-0.015-0.1-0.024-0.201-0.03-0.304
	c-0.218-1.696-1.247-3.143-2.684-3.937c0.012,0.179,0.019,0.359,0.019,0.541C18.557,25.123,15.819,28.314,12.203,29.019z
	 M21.878,26.503c-0.29,1.517-1.154,2.831-2.356,3.709c1.866-0.463,3.592-1.284,5.101-2.387C23.515,27.853,22.5,27.331,21.878,26.503
	z M9.372,29.052c0.978,0.499,2.019,0.891,3.107,1.16c-0.422-0.308-0.802-0.67-1.131-1.075C10.691,29.189,10.013,29.16,9.372,29.052z
	 M5.885,26.574c1.308,1.196,3.077,1.933,4.977,1.867c-0.538-0.897-0.847-1.946-0.847-3.066c0-3.3,2.685-5.985,5.985-5.985
	c0.566,0,1.115,0.079,1.635,0.228c-0.759-3.126-3.582-5.454-6.938-5.454c-3.937,0-7.14,3.203-7.14,7.141
	c0,1.853,0.709,3.542,1.87,4.812C5.576,26.272,5.729,26.425,5.885,26.574z M16,20.11c-2.903,0-5.265,2.361-5.265,5.265
	c0,1.114,0.348,2.149,0.942,3.002c3.475-0.479,6.159-3.469,6.159-7.073c0-0.299-0.019-0.594-0.054-0.884
	C17.226,20.22,16.625,20.11,16,20.11z M21.968,24.923c0.193,1.235,1.266,2.184,2.555,2.184c0.667,0,1.275-0.254,1.734-0.67
	c0.061-0.06,0.12-0.119,0.18-0.18c0.416-0.459,0.67-1.067,0.67-1.734c0-1.426-1.159-2.585-2.584-2.585
	c-1.426,0-2.585,1.159-2.585,2.585c0,0.038,0,0.076,0.002,0.113C21.951,24.73,21.961,24.826,21.968,24.923z M24.522,21.217
	c1.822,0,3.305,1.483,3.305,3.306c0,0.033-0.001,0.066-0.002,0.1c1.77-2.42,2.814-5.401,2.814-8.622
	c0-2.384-0.572-4.637-1.588-6.628c0.073,0.431,0.112,0.874,0.112,1.325c0,4.334-3.526,7.86-7.86,7.86
	c-1.314,0-2.555-0.324-3.645-0.897c0.365,0.695,0.629,1.45,0.772,2.247c1.401,0.626,2.521,1.774,3.105,3.197
	C22.069,21.989,23.207,21.217,24.522,21.217z M4.169,7.385C2.403,9.804,1.36,12.783,1.36,16c0,2.384,0.573,4.638,1.589,6.629
	c-0.074-0.431-0.112-0.874-0.112-1.325c0-4.334,3.526-7.86,7.86-7.86c1.314,0,2.553,0.324,3.643,0.896
	c-0.365-0.695-0.629-1.45-0.772-2.247c-1.403-0.627-2.523-1.779-3.108-3.204c-0.531,1.116-1.67,1.889-2.986,1.889
	c-1.822,0-3.305-1.482-3.305-3.305C4.168,7.444,4.169,7.415,4.169,7.385z M14.364,12.383c0.76,3.126,3.583,5.453,6.939,5.453
	c3.937,0,7.14-3.203,7.14-7.139c0-1.852-0.708-3.542-1.869-4.812c-0.149-0.156-0.302-0.309-0.458-0.459
	c-1.271-1.161-2.96-1.87-4.812-1.87c-0.056,0-0.11,0.001-0.165,0.002c0.537,0.897,0.847,1.946,0.847,3.066
	c0,3.3-2.686,5.985-5.985,5.985C15.433,12.61,14.884,12.531,14.364,12.383z M14.217,11.58c0.557,0.2,1.158,0.31,1.783,0.31
	c2.903,0,5.265-2.362,5.265-5.265c0-1.115-0.348-2.149-0.941-3.001c-3.475,0.479-6.16,3.469-6.16,7.073
	C14.163,10.996,14.182,11.29,14.217,11.58z M10.77,7.231c0.199,1.726,1.236,3.2,2.692,4.005c-0.012-0.179-0.018-0.358-0.018-0.54
	c0-3.819,2.738-7.011,6.354-7.715C18.839,1.983,17.49,1.36,16,1.36c-2.903,0-5.265,2.362-5.265,5.265
	c0,0.146,0.006,0.292,0.018,0.436C10.76,7.117,10.766,7.174,10.77,7.231z M5.483,5.825C5.112,6.273,4.888,6.847,4.888,7.473
	c0,1.426,1.16,2.585,2.585,2.585c1.426,0,2.585-1.16,2.585-2.585c0-0.059-0.002-0.117-0.006-0.175
	c-0.006-0.053-0.011-0.107-0.016-0.161C9.872,5.87,8.785,4.888,7.473,4.888c-0.626,0-1.2,0.224-1.648,0.595
	C5.709,5.595,5.595,5.709,5.483,5.825z M7.473,4.168c1.083,0,2.045,0.523,2.648,1.329c0.29-1.516,1.155-2.832,2.357-3.709
	C10.616,2.25,8.892,3.07,7.385,4.169C7.415,4.169,7.444,4.168,7.473,4.168z M21.304,2.837c0.451,0,0.895,0.038,1.325,0.112
	c-0.978-0.499-2.02-0.891-3.107-1.161c0.422,0.308,0.802,0.67,1.131,1.076C20.867,2.846,21.084,2.837,21.304,2.837z"/>
<rect id="_Transparent_Rectangle" style="fill:none;" width="32" height="32"/>
</svg>
