<?xml version="1.0" encoding="iso-8859-1"?>
<!-- Generator: Adobe Illustrator 27.5.0, SVG Export Plug-In . SVG Version: 6.00 Build 0)  -->
<svg version="1.1" id="Layer_1" xmlns="http://www.w3.org/2000/svg" xmlns:xlink="http://www.w3.org/1999/xlink" x="0px" y="0px"
	 viewBox="0 0 32 32" style="enable-background:new 0 0 32 32;" xml:space="preserve">
<path id="watsonx--data_00000164483812647524832150000000182026407808738745_" d="M16,31.36c-6.282,0-11.696-3.792-14.073-9.207
	c-0.032-0.069-0.063-0.14-0.093-0.21l0.002-0.001C1.066,20.113,0.64,18.105,0.64,16c0-3.432,1.161-6.788,3.273-9.479
	c-0.555-0.729-0.5-1.777,0.164-2.442c0.667-0.665,1.715-0.72,2.443-0.166C9.213,1.8,12.567,0.64,16,0.64
	c6.274,0,11.683,3.781,14.063,9.185c0.036,0.077,0.07,0.154,0.103,0.232l-0.002,0.001c0.771,1.829,1.196,3.836,1.196,5.942
	c0,3.434-1.161,6.787-3.274,9.479c0.556,0.729,0.501,1.776-0.164,2.442c-0.666,0.664-1.712,0.722-2.442,0.164
	C22.788,30.199,19.433,31.36,16,31.36z M4.801,25.42c2.688,3.19,6.71,5.22,11.199,5.22c3.258,0,6.441-1.097,9.001-3.094
	c-0.417-0.712-0.32-1.645,0.29-2.255c0.611-0.609,1.541-0.707,2.256-0.29c1.997-2.56,3.093-5.743,3.093-9.001
	c0-2.283-1.856-4.14-4.14-4.14s-4.14,1.857-4.14,4.14v2h-0.72v-2c0-2.68,2.181-4.86,4.86-4.86c1.557,0,2.944,0.735,3.835,1.877
	c-0.209-1.006-0.522-1.975-0.927-2.895C28.288,7.708,25.876,6.16,23.2,6.16c-3.771,0-6.84,3.069-6.84,6.84h-0.72
	c0-4.169,3.391-7.56,7.56-7.56c1.447,0,2.824,0.409,3.998,1.14C24.511,3.39,20.488,1.36,16,1.36c-3.258,0-6.441,1.096-9.001,3.093
	c0.417,0.712,0.321,1.645-0.29,2.255C6.1,7.318,5.167,7.415,4.454,6.999C2.457,9.559,1.36,12.743,1.36,16
	c0,2.283,1.857,4.14,4.14,4.14S9.64,18.283,9.64,16v-2h0.72v2c0,2.68-2.18,4.86-4.86,4.86c-1.557,0-2.944-0.736-3.834-1.878
	c0.208,0.999,0.517,1.962,0.918,2.875C3.699,24.284,6.116,25.84,8.8,25.84c3.771,0,6.84-3.068,6.84-6.84h0.72
	c0,4.169-3.391,7.561-7.56,7.561C7.353,26.561,5.976,26.15,4.801,25.42z M26.606,25.467c-0.292,0-0.584,0.111-0.806,0.334
	c-0.444,0.444-0.444,1.167,0,1.611c0.443,0.445,1.168,0.445,1.611,0c0.444-0.444,0.444-1.167,0-1.611
	C27.19,25.578,26.898,25.467,26.606,25.467z M5.393,4.254c-0.292,0-0.584,0.111-0.806,0.333c-0.444,0.444-0.444,1.167,0,1.612
	c0.444,0.444,1.167,0.443,1.612,0c0.444-0.445,0.444-1.168,0-1.613C5.977,4.365,5.685,4.254,5.393,4.254z M23,23.36h-2
	c-0.199,0-0.36-0.161-0.36-0.36v-2c0-0.199,0.161-0.36,0.36-0.36h2c0.199,0,0.36,0.161,0.36,0.36v2
	C23.36,23.199,23.199,23.36,23,23.36z M21.36,22.64h1.279v-1.28H21.36V22.64z M17,17.36h-2c-0.199,0-0.36-0.161-0.36-0.36v-2
	c0-0.199,0.161-0.36,0.36-0.36h2c0.199,0,0.36,0.161,0.36,0.36v2C17.36,17.199,17.199,17.36,17,17.36z M15.36,16.64h1.28v-1.28
	h-1.28V16.64z M11,11.36H9c-0.199,0-0.36-0.161-0.36-0.36V9c0-0.199,0.161-0.36,0.36-0.36h2c0.199,0,0.36,0.161,0.36,0.36v2
	C11.36,11.199,11.199,11.36,11,11.36z M9.36,10.64h1.28V9.36H9.36V10.64z"/>
<rect id="_Transparent_Rectangle" style="fill:none;" width="32" height="32"/>
</svg>
