<?xml version="1.0" encoding="iso-8859-1"?>
<!-- Generator: Adobe Illustrator 22.0.0, SVG Export Plug-In . SVG Version: 6.00 Build 0)  -->
<svg version="1.1" xmlns="http://www.w3.org/2000/svg" xmlns:xlink="http://www.w3.org/1999/xlink" x="0px" y="0px"
	 viewBox="0 0 48 48" style="enable-background:new 0 0 48 48;" xml:space="preserve">
<g id="watson_avatar">

		<path id="watson_avatar_1_" style="fill:none;stroke:#000000;stroke-width:0.72;stroke-linecap:round;stroke-linejoin:round;stroke-miterlimit:10;" d="
		M9.001,18.664l2.973,1.716 M17.057,15.297l-1.716-2.973 M24,10.004v3.432 M32.66,12.325l-1.716,2.973 M36.026,20.38l2.973-1.716
		 M18.568,36.581c5.045,2.913,11.495,1.184,14.408-3.861c2.913-5.045,1.184-11.495-3.861-14.408 M29.115,18.312
		c-2.509-1.448-5.365-1.749-7.961-1.065 M13.584,29.903c0.651,2.716,2.373,5.171,4.984,6.678 M29.114,18.314
		c-2.249-1.299-6.433,1.737-9.345,6.781s-3.449,10.185-1.2,11.484 M20.813,19.735c-2.753-0.182-5.081,0.668-6.149,2.518
		c-1.839,3.185,0.759,8.128,5.802,11.04s10.623,2.69,12.462-0.495"/>
</g>
<g id="Layer_1">
</g>
</svg>
