<?xml version="1.0" encoding="iso-8859-1"?>
<!-- Generator: Adobe Illustrator 27.5.0, SVG Export Plug-In . SVG Version: 6.00 Build 0)  -->
<svg version="1.1" id="Layer_1" xmlns="http://www.w3.org/2000/svg" xmlns:xlink="http://www.w3.org/1999/xlink" x="0px" y="0px"
	 viewBox="0 0 32 32" style="enable-background:new 0 0 32 32;" xml:space="preserve">
<path id="watsonx--governance_00000174581278557363144460000010837520034408976524_" d="M16,31.36C7.53,31.36,0.64,24.47,0.64,16
	c0-3.432,1.161-6.788,3.273-9.479c-0.555-0.729-0.5-1.777,0.164-2.442c0.667-0.665,1.715-0.72,2.443-0.166
	C9.213,1.8,12.567,0.64,16,0.64c0.003,0,0.004,0,0.01,0C24.475,0.645,31.36,7.534,31.36,16c0,3.434-1.161,6.787-3.274,9.479
	c0.556,0.729,0.501,1.776-0.164,2.442c-0.666,0.664-1.712,0.722-2.442,0.164C22.788,30.199,19.433,31.36,16,31.36z M4.454,6.999
	C2.457,9.559,1.36,12.743,1.36,16c0,8.072,6.567,14.64,14.64,14.64c3.258,0,6.441-1.097,9.001-3.094
	c-0.417-0.712-0.32-1.645,0.29-2.255c0.611-0.609,1.541-0.707,2.256-0.29c1.997-2.56,3.093-5.743,3.093-9.001
	c0-5.135-2.657-9.661-6.669-12.275c2.388,2.171,3.89,5.301,3.89,8.775c0,6.54-5.32,11.86-11.86,11.86v-0.72
	c6.143,0,11.14-4.997,11.14-11.14c0-4.01-2.13-7.533-5.318-9.495C23.386,4.525,24.36,6.651,24.36,9c0,4.61-3.751,8.36-8.36,8.36
	v-0.72c4.213,0,7.64-3.427,7.64-7.64c0-2.895-1.618-5.419-3.998-6.715C20.399,3.143,20.86,4.269,20.86,5.5
	c0,2.68-2.181,4.86-4.86,4.86V9.64c2.283,0,4.14-1.857,4.14-4.14S18.283,1.36,16,1.36c-3.258,0-6.441,1.096-9.001,3.093
	c0.417,0.712,0.321,1.645-0.29,2.255C6.099,7.319,5.166,7.415,4.454,6.999z M26.606,25.467c-0.292,0-0.584,0.111-0.806,0.334
	c-0.444,0.444-0.444,1.167,0,1.611c0.443,0.445,1.168,0.445,1.611,0c0.444-0.444,0.444-1.167,0-1.611
	C27.19,25.578,26.898,25.467,26.606,25.467z M5.393,4.254c-0.292,0-0.584,0.111-0.806,0.333c-0.444,0.444-0.444,1.167,0,1.612
	c0.444,0.444,1.167,0.443,1.612,0c0.444-0.445,0.444-1.168,0-1.613C5.977,4.365,5.685,4.254,5.393,4.254z M13,25.36h-2
	c-0.199,0-0.36-0.161-0.36-0.36v-2c0-0.199,0.161-0.36,0.36-0.36h2c0.199,0,0.36,0.161,0.36,0.36v2
	C13.36,25.199,13.199,25.36,13,25.36z M11.36,24.64h1.28v-1.28h-1.28V24.64z M13,18.36h-2c-0.199,0-0.36-0.161-0.36-0.36v-2
	c0-0.199,0.161-0.36,0.36-0.36h2c0.199,0,0.36,0.161,0.36,0.36v2C13.36,18.199,13.199,18.36,13,18.36z M11.36,17.64h1.28v-1.28
	h-1.28V17.64z M13,11.36h-2c-0.199,0-0.36-0.161-0.36-0.36V9c0-0.199,0.161-0.36,0.36-0.36h2c0.199,0,0.36,0.161,0.36,0.36v2
	C13.36,11.199,13.199,11.36,13,11.36z M11.36,10.64h1.28V9.36h-1.28V10.64z"/>
<rect id="_Transparent_Rectangle" style="fill:none;" width="32" height="32"/>
</svg>
