<?xml version="1.0" encoding="iso-8859-1"?>
<!-- Generator: Adobe Illustrator 27.5.0, SVG Export Plug-In . SVG Version: 6.00 Build 0)  -->
<svg version="1.1" id="Layer_1" xmlns="http://www.w3.org/2000/svg" xmlns:xlink="http://www.w3.org/1999/xlink" x="0px" y="0px"
	 viewBox="0 0 32 32" style="enable-background:new 0 0 32 32;" xml:space="preserve">
<path id="watsonx_00000013171437209949160050000001010149539993134464_" d="M26.951,26.752c2.723-2.773,4.41-6.568,4.41-10.752
	c0-3.931-1.497-7.51-3.935-10.23c-0.175-0.218-0.362-0.429-0.564-0.631c-0.201-0.201-0.412-0.387-0.629-0.562
	C23.512,2.138,19.932,0.64,16,0.64c-4.19,0-7.989,1.69-10.763,4.419C5.174,5.115,5.115,5.174,5.059,5.237
	C2.33,8.011,0.64,11.81,0.64,16c0,3.932,1.498,7.512,3.937,10.232c0.176,0.218,0.362,0.429,0.562,0.629
	c0.202,0.202,0.413,0.389,0.63,0.564c2.72,2.438,6.299,3.935,10.23,3.935c4.184,0,7.979-1.686,10.752-4.409
	C26.823,26.889,26.889,26.823,26.951,26.752z M26.352,15.746c-2.785,2.785-7.314,2.784-10.097,0c-1.94-1.94-2.524-4.727-1.76-7.18
	C14.962,8.75,15.467,8.86,16,8.86c2.267,0,4.11-1.844,4.11-4.11c0-0.37-0.065-0.723-0.157-1.064
	c0.441-0.084,0.892-0.129,1.351-0.129c1.648,0,3.21,0.557,4.475,1.579c0.381,0.344,0.744,0.706,1.088,1.088
	C29.122,9.025,28.951,13.146,26.352,15.746z M17.506,23.434C17.038,23.249,16.533,23.14,16,23.14c-2.266,0-4.11,1.844-4.11,4.11
	c0,0.369,0.065,0.721,0.157,1.062c-2.008,0.384-4.149-0.098-5.822-1.444c-0.382-0.344-0.745-0.707-1.089-1.089
	c-1.022-1.265-1.579-2.827-1.579-4.475c0-1.907,0.743-3.7,2.091-5.049c1.392-1.392,3.22-2.088,5.049-2.088s3.657,0.696,5.049,2.088
	C17.685,18.194,18.269,20.981,17.506,23.434z M16,30.64c-1.303,0-2.424-0.747-2.991-1.829c1.188-0.364,2.308-1.011,3.246-1.949
	c0.717-0.717,1.26-1.542,1.641-2.42c0.901,0.61,1.494,1.641,1.494,2.809C19.39,29.119,17.869,30.64,16,30.64z M15.746,26.352
	c-0.866,0.867-1.902,1.463-3.002,1.79c-0.079-0.286-0.134-0.581-0.134-0.892c0-1.869,1.521-3.39,3.39-3.39
	c0.445,0,0.868,0.091,1.257,0.248C16.91,24.923,16.409,25.688,15.746,26.352z M16,1.36c1.301,0,2.42,0.745,2.988,1.823
	c-1.211,0.372-2.321,1.035-3.242,1.956c-0.717,0.717-1.259,1.542-1.641,2.42c-0.901-0.61-1.495-1.642-1.495-2.809
	C12.61,2.881,14.131,1.36,16,1.36z M16.254,5.648c0.851-0.851,1.879-1.459,3-1.793c0.079,0.287,0.135,0.583,0.135,0.895
	c0,1.869-1.521,3.39-3.39,3.39c-0.445,0-0.868-0.091-1.257-0.248C15.09,7.077,15.59,6.312,16.254,5.648z M22.603,2.951
	c-0.426-0.071-0.859-0.115-1.299-0.115c-0.544,0-1.078,0.057-1.599,0.164c-0.258-0.543-0.631-1.013-1.088-1.393
	C20.027,1.863,21.364,2.321,22.603,2.951z M6.719,5.204c0.835,0,1.515,0.68,1.515,1.515s-0.68,1.515-1.515,1.515
	s-1.515-0.68-1.515-1.515c0-0.372,0.14-0.709,0.364-0.973c0.059-0.06,0.118-0.119,0.178-0.178C6.01,5.344,6.347,5.204,6.719,5.204z
	 M1.36,16c0-3.413,1.183-6.549,3.149-9.042C4.63,8.077,5.569,8.954,6.72,8.954c1.232,0,2.235-1.002,2.235-2.235
	c0-1.151-0.877-2.09-1.996-2.211c1.839-1.45,4.03-2.467,6.425-2.901C12.479,2.362,11.89,3.483,11.89,4.75
	c0,1.475,0.788,2.76,1.958,3.486c-0.656,2-0.498,4.21,0.49,6.102c-2.963-1.547-6.713-1.078-9.199,1.408
	c-1.485,1.484-2.303,3.458-2.303,5.558c0,0.44,0.044,0.873,0.115,1.299C1.942,20.616,1.36,18.377,1.36,16z M9.386,29.043
	c0.434,0.073,0.872,0.116,1.311,0.116c0.535,0,1.069-0.058,1.595-0.166c0.257,0.545,0.632,1.017,1.09,1.399
	C11.969,30.135,10.628,29.675,9.386,29.043z M20.11,27.25c0-1.475-0.788-2.761-1.958-3.486c0.656-1.999,0.497-4.21-0.49-6.102
	c1.136,0.593,2.388,0.89,3.641,0.89c2.013,0,4.025-0.766,5.558-2.298c1.866-1.866,2.589-4.444,2.182-6.867
	c1.013,1.989,1.596,4.232,1.596,6.613c0,3.412-1.183,6.548-3.147,9.04c-0.122-1.118-1.061-1.994-2.211-1.994
	c-1.232,0-2.235,1.003-2.235,2.235c0,1.15,0.876,2.089,1.994,2.211c-1.838,1.449-4.028,2.465-6.422,2.9
	C19.522,29.637,20.11,28.517,20.11,27.25z M26.243,26.442c-0.262,0.218-0.595,0.354-0.962,0.354c-0.835,0-1.515-0.68-1.515-1.515
	s0.68-1.515,1.515-1.515s1.515,0.68,1.515,1.515c0,0.367-0.136,0.699-0.354,0.962C26.376,26.31,26.31,26.376,26.243,26.442z"/>
<rect id="_Transparent_Rectangle" style="fill:none;" width="32" height="32"/>
</svg>
