<?xml version="1.0" encoding="iso-8859-1"?>
<!-- Generator: Adobe Illustrator 27.5.0, SVG Export Plug-In . SVG Version: 6.00 Build 0)  -->
<svg version="1.1" id="Layer_1" xmlns="http://www.w3.org/2000/svg" xmlns:xlink="http://www.w3.org/1999/xlink" x="0px" y="0px"
	 viewBox="0 0 32 32" style="enable-background:new 0 0 32 32;" xml:space="preserve">
<path id="watsonx--governance_00000139276466223022253690000007561152331497264534_" d="M31.36,16c0-8.07-6.259-14.691-14.175-15.3
	c-0.126-0.013-0.256-0.011-0.383-0.019C16.539,0.654,16.271,0.64,16,0.64s-0.539,0.014-0.803,0.041
	C15.07,0.69,14.94,0.687,14.815,0.7C6.898,1.309,0.64,7.93,0.64,16s6.258,14.691,14.174,15.3c0.126,0.013,0.256,0.011,0.383,0.019
	c0.264,0.027,0.532,0.041,0.803,0.041s0.539-0.014,0.803-0.041c0.127-0.009,0.257-0.007,0.383-0.019
	C25.102,30.691,31.36,24.07,31.36,16z M30.64,16c0,5.262-2.8,9.872-6.98,12.452c2.416-2.129,3.951-5.237,3.951-8.702
	c0-1.313-0.23-2.572-0.633-3.75c0.404-1.178,0.633-2.437,0.633-3.75c0-3.467-1.536-6.575-3.953-8.704
	C27.838,6.126,30.64,10.736,30.64,16z M5.455,17.078c0.717,1.56,1.764,2.936,3.059,4.032C8.273,21.864,8.14,22.667,8.14,23.5
	c0,2.238,0.945,4.255,2.451,5.688c-3.27-1.881-5.481-5.403-5.481-9.438C5.11,18.827,5.238,17.935,5.455,17.078z M5.11,12.25
	c0-4.036,2.212-7.559,5.483-9.44C9.086,4.243,8.14,6.261,8.14,8.5c0,0.833,0.133,1.636,0.374,2.39
	c-1.295,1.096-2.342,2.472-3.059,4.032C5.238,14.065,5.11,13.173,5.11,12.25z M26.545,14.921c-0.717-1.559-1.764-2.935-3.059-4.03
	c0.242-0.754,0.374-1.557,0.374-2.39c0-2.238-0.945-4.256-2.452-5.689c3.27,1.881,5.482,5.403,5.482,9.439
	C26.89,13.173,26.762,14.064,26.545,14.921z M23.14,23.5c0,2.826-1.655,5.267-4.043,6.423c0.623-0.721,1.014-1.648,1.014-2.673
	c0-1.54-0.862-2.869-2.119-3.573c1.804-0.314,3.463-1.044,4.88-2.09C23.042,22.197,23.14,22.837,23.14,23.5z M16,23.14
	c-2.496,0-4.792-0.853-6.631-2.271C10.42,18.232,12.993,16.36,16,16.36s5.58,1.872,6.631,4.509C20.792,22.286,18.496,23.14,16,23.14
	z M9.128,21.586c1.417,1.046,3.076,1.777,4.88,2.091c-1.257,0.704-2.118,2.033-2.118,3.573c0,1.026,0.391,1.953,1.014,2.674
	C10.515,28.768,8.86,26.327,8.86,23.5C8.86,22.836,8.958,22.196,9.128,21.586z M8.86,8.5c0-2.827,1.656-5.269,4.046-6.425
	C12.281,2.796,11.89,3.724,11.89,4.75c0,1.541,0.862,2.87,2.12,3.573c-1.805,0.314-3.464,1.044-4.882,2.091
	C8.958,9.804,8.86,9.164,8.86,8.5z M16,8.86c2.496,0,4.792,0.853,6.631,2.271c-1.05,2.637-3.624,4.509-6.631,4.509
	s-5.581-1.871-6.631-4.509C11.208,9.713,13.503,8.86,16,8.86z M22.872,10.414c-1.418-1.046-3.076-1.776-4.881-2.09
	c1.258-0.704,2.12-2.033,2.12-3.573c0-1.026-0.391-1.953-1.015-2.674C21.484,3.232,23.14,5.673,23.14,8.5
	C23.14,9.164,23.042,9.804,22.872,10.414z M18.351,16c2.186-0.687,3.961-2.305,4.863-4.386c1.332,1.183,2.369,2.684,2.997,4.386
	c-0.627,1.702-1.664,3.203-2.997,4.386C22.312,18.304,20.536,16.687,18.351,16z M19.39,4.75c0,1.869-1.521,3.39-3.39,3.39
	s-3.39-1.521-3.39-3.39S14.131,1.36,16,1.36S19.39,2.881,19.39,4.75z M8.786,11.614c0.902,2.082,2.677,3.7,4.863,4.386
	c-2.186,0.687-3.961,2.305-4.863,4.386C7.454,19.203,6.417,17.702,5.789,16C6.417,14.297,7.454,12.797,8.786,11.614z M12.61,27.25
	c0-1.869,1.521-3.39,3.39-3.39s3.39,1.521,3.39,3.39s-1.521,3.39-3.39,3.39S12.61,29.119,12.61,27.25z M23.86,23.5
	c0-0.833-0.133-1.636-0.374-2.39c1.295-1.096,2.342-2.472,3.059-4.031c0.217,0.856,0.345,1.748,0.345,2.671
	c0,4.035-2.211,7.556-5.479,9.437C22.916,27.754,23.86,25.737,23.86,23.5z M1.36,16c0-5.264,2.802-9.874,6.984-12.455
	C5.926,5.674,4.39,8.783,4.39,12.25c0,1.313,0.23,2.572,0.633,3.75C4.62,17.178,4.39,18.437,4.39,19.75
	c0,3.466,1.535,6.574,3.951,8.703C4.161,25.872,1.36,21.263,1.36,16z"/>
<rect id="_Transparent_Rectangle" style="fill:none;" width="32" height="32"/>
</svg>
