<?xml version="1.0" encoding="iso-8859-1"?>
<!-- Generator: Adobe Illustrator 29.1.0, SVG Export Plug-In . SVG Version: 9.03 Build 55587)  -->
<svg version="1.1" id="Layer_1" xmlns="http://www.w3.org/2000/svg" xmlns:xlink="http://www.w3.org/1999/xlink" x="0px" y="0px"
	 viewBox="0 0 32 32" style="enable-background:new 0 0 32 32;" xml:space="preserve">
<path id="waving-hand_00000060014902154163716380000010965318959610827395_" d="M29.984,20.22l0.004-0.001l-2.192-7.349
	c-0.346-0.966-1.412-1.468-2.379-1.124c-0.965,0.347-1.469,1.414-1.13,2.358l1.3,4.45l-9.528-9.369c-0.703-0.704-1.928-0.702-2.63,0
	c-0.297,0.297-0.473,0.679-0.523,1.09l-1.089-1.089c-0.703-0.703-1.928-0.703-2.63,0C8.833,9.536,8.64,10.003,8.64,10.5
	s0.193,0.964,0.545,1.315l1.105,1.105c-0.409,0.044-0.805,0.208-1.105,0.507c-0.352,0.352-0.545,0.818-0.545,1.315
	c0,0.497,0.193,0.964,0.545,1.315l1.443,1.443c-0.411,0.043-0.809,0.207-1.11,0.507c-0.725,0.726-0.725,1.905,0,2.631l0.594,0.594
	l0,0l6.682,6.682c1.628,1.629,3.755,2.448,5.855,2.448c1.998,0,3.973-0.743,5.467-2.236C30.161,26.083,30.871,23.057,29.984,20.22z
	 M27.606,27.617c-2.782,2.782-7.403,2.688-10.303-0.212l-3.742-3.741l0,0l-3.535-3.535c-0.215-0.215-0.334-0.501-0.334-0.806
	s0.119-0.591,0.334-0.806c0.43-0.432,1.181-0.432,1.612,0l0.003-0.003l4.967,4.968l0.509-0.51l-7.424-7.424
	c-0.215-0.215-0.334-0.502-0.334-0.806c0-0.305,0.119-0.591,0.334-0.806c0.43-0.431,1.182-0.431,1.611,0l0,0l7.424,7.425l0.51-0.51
	l-9.546-9.546c-0.213-0.214-0.332-0.5-0.332-0.805s0.119-0.591,0.334-0.806c0.43-0.431,1.181-0.431,1.612,0l2.586,2.585l6.96,6.961
	l0.51-0.51l-7.425-7.425c-0.215-0.215-0.334-0.501-0.334-0.806s0.119-0.591,0.334-0.806c0.429-0.43,1.179-0.434,1.614,0.002
	l10.517,10.34c0.115,0.115,0.295,0.137,0.437,0.052c0.141-0.084,0.207-0.252,0.161-0.409l-1.694-5.797
	c-0.212-0.591,0.098-1.245,0.688-1.458c0.59-0.212,1.246,0.097,1.452,0.67l2.174,7.288h-0.001
	C30.115,22.979,29.473,25.752,27.606,27.617z M10,26.64v0.721c-4.61,0-8.36-3.751-8.36-8.36h0.72C2.36,23.213,5.787,26.64,10,26.64z
	 M10,23.64v0.721c-2.956,0-5.36-2.405-5.36-5.36h0.72C5.36,21.559,7.441,23.64,10,23.64z M19,2.36V1.64c4.609,0,8.36,3.75,8.36,8.36
	h-0.72C26.64,5.787,23.213,2.36,19,2.36z M19,5.36V4.64c2.955,0,5.36,2.404,5.36,5.36h-0.72C23.64,7.441,21.559,5.36,19,5.36z"/>
<rect id="_Transparent_Rectangle" style="fill:none;" width="32" height="32"/>
</svg>
