<?xml version="1.0" encoding="iso-8859-1"?>
<!-- Generator: Adobe Illustrator 22.0.0, SVG Export Plug-In . SVG Version: 6.00 Build 0)  -->
<svg version="1.1" xmlns="http://www.w3.org/2000/svg" xmlns:xlink="http://www.w3.org/1999/xlink" x="0px" y="0px"
	 viewBox="0 0 48 48" style="enable-background:new 0 0 48 48;" xml:space="preserve">
<g id="weather">
	<g id="weather_1_">
		<path style="fill:none;stroke:#000000;stroke-width:0.72;stroke-linejoin:round;stroke-miterlimit:10;" d="M20.698,38l2.309-4
			h-2.309l2.309-4"/>
		<path style="fill:none;stroke:#000000;stroke-width:0.72;stroke-linecap:round;stroke-linejoin:round;stroke-miterlimit:10;" d="
			M12.698,34l2.309-4 M16.698,34l2.309-4 M19.421,12.671c-0.58-0.22-1.093-0.25-1.75-0.25c-2.899,0-5.25,2.35-5.25,5.25
			 M17.671,10.545V9 M14.108,11.5l-0.773-1.338 M10.162,13.335l1.338,0.773 M21.233,11.5l0.773-1.338 M10.545,17.671H9 M39,22.758
			C39,25.653,36.653,28,33.758,28H15.356C12.936,28,11,26.038,11,23.619c0-2.42,1.936-4.381,4.356-4.381
			c0.789,0,1.527,0.211,2.166,0.576C17.885,15.98,21.111,13,25.039,13c3.205,0,5.938,1.98,7.034,4.797
			c0.529-0.18,1.094-0.282,1.684-0.282C36.653,17.516,39,19.863,39,22.758z"/>
		<g>
			
				<line style="fill:none;stroke:#000000;stroke-width:0.72;stroke-linecap:round;stroke-linejoin:round;stroke-miterlimit:10;" x1="29.301" y1="30.293" x2="30.715" y2="31.707"/>
			
				<line style="fill:none;stroke:#000000;stroke-width:0.72;stroke-linecap:round;stroke-linejoin:round;stroke-miterlimit:10;" x1="29.301" y1="31.707" x2="30.715" y2="30.293"/>
			
				<line style="fill:none;stroke:#000000;stroke-width:0.72;stroke-linecap:round;stroke-linejoin:round;stroke-miterlimit:10;" x1="32.301" y1="34.293" x2="33.715" y2="35.707"/>
			
				<line style="fill:none;stroke:#000000;stroke-width:0.72;stroke-linecap:round;stroke-linejoin:round;stroke-miterlimit:10;" x1="32.301" y1="35.707" x2="33.715" y2="34.293"/>
			
				<line style="fill:none;stroke:#000000;stroke-width:0.72;stroke-linecap:round;stroke-linejoin:round;stroke-miterlimit:10;" x1="27.301" y1="34.293" x2="28.715" y2="35.707"/>
			
				<line style="fill:none;stroke:#000000;stroke-width:0.72;stroke-linecap:round;stroke-linejoin:round;stroke-miterlimit:10;" x1="27.301" y1="35.707" x2="28.715" y2="34.293"/>
			
				<line style="fill:none;stroke:#000000;stroke-width:0.72;stroke-linecap:round;stroke-linejoin:round;stroke-miterlimit:10;" x1="35.707" y1="31.715" x2="34.293" y2="30.301"/>
			
				<line style="fill:none;stroke:#000000;stroke-width:0.72;stroke-linecap:round;stroke-linejoin:round;stroke-miterlimit:10;" x1="35.707" y1="30.301" x2="34.293" y2="31.715"/>
		</g>
	</g>
</g>
<g id="Layer_1">
</g>
</svg>
