<?xml version="1.0" encoding="iso-8859-1"?>
<!-- Generator: Adobe Illustrator 24.1.2, SVG Export Plug-In . SVG Version: 6.00 Build 0)  -->
<svg version="1.1" id="Layer_1" xmlns="http://www.w3.org/2000/svg" xmlns:xlink="http://www.w3.org/1999/xlink" x="0px" y="0px"
	 viewBox="0 0 32 32" style="enable-background:new 0 0 32 32;" xml:space="preserve">
<path id="weather--01" d="M1.877,5.286c0.098-0.169,0.316-0.228,0.484-0.13l1.299,0.75C3.83,6.004,3.888,6.221,3.79,6.39
	C3.725,6.504,3.605,6.568,3.483,6.568c-0.06,0-0.121-0.016-0.177-0.048L2.007,5.77C1.837,5.672,1.779,5.455,1.877,5.286z
	 M4.453,10.354c0.196,0,0.354-0.159,0.354-0.354c0-2.887,2.33-5.235,5.192-5.235c0.646,0,1.275,0.117,1.873,0.348
	c0.183,0.071,0.388-0.02,0.459-0.203c0.07-0.183-0.021-0.388-0.203-0.459C11.449,4.188,10.733,4.056,10,4.056
	c-3.254,0-5.901,2.667-5.901,5.944C4.099,10.196,4.257,10.354,4.453,10.354z M2.812,10c0-0.196-0.159-0.354-0.354-0.354H1
	c-0.196,0-0.354,0.159-0.354,0.354S0.804,10.354,1,10.354h1.457C2.653,10.354,2.812,10.196,2.812,10z M7.254,21.749
	c-0.139-0.139-0.364-0.139-0.501,0l-4.003,4c-0.139,0.139-0.139,0.363,0,0.502C2.818,26.32,2.909,26.354,3,26.354
	s0.182-0.034,0.25-0.104l4.003-4C7.392,22.112,7.392,21.888,7.254,21.749z M13.567,3.833c0.056,0.032,0.117,0.048,0.177,0.048
	c0.123,0,0.242-0.064,0.308-0.178l0.75-1.299c0.098-0.169,0.04-0.387-0.13-0.484c-0.168-0.097-0.387-0.04-0.484,0.13l-0.75,1.299
	C13.339,3.519,13.397,3.736,13.567,3.833z M10,2.854c0.196,0,0.354-0.159,0.354-0.354V1c0-0.196-0.159-0.354-0.354-0.354
	S9.646,0.804,9.646,1v1.5C9.646,2.696,9.804,2.854,10,2.854z M5.937,3.661c0.065,0.114,0.185,0.178,0.308,0.178
	c0.06,0,0.121-0.016,0.177-0.048c0.17-0.098,0.228-0.315,0.13-0.484l-0.75-1.299C5.705,1.838,5.487,1.78,5.317,1.877
	c-0.17,0.098-0.228,0.315-0.13,0.484L5.937,3.661z M31.354,14.758c0,3.086-2.496,5.597-5.564,5.597H7.388
	c-2.615,0-4.742-2.124-4.742-4.736c0-2.611,2.127-4.736,4.742-4.736c0.645,0,1.285,0.134,1.877,0.39
	c0.606-3.812,3.876-6.627,7.806-6.627c3.175,0,5.981,1.841,7.238,4.718c0.487-0.134,0.983-0.202,1.48-0.202
	C28.858,9.161,31.354,11.672,31.354,14.758z M30.646,14.758c0-2.695-2.179-4.888-4.855-4.888c-0.528,0-1.057,0.089-1.57,0.263
	c-0.182,0.058-0.377-0.031-0.444-0.207c-1.081-2.777-3.713-4.572-6.704-4.572c-3.734,0-6.813,2.791-7.164,6.492
	c-0.011,0.12-0.083,0.226-0.189,0.282c-0.106,0.054-0.234,0.054-0.339-0.007c-0.607-0.346-1.296-0.53-1.991-0.53
	c-2.224,0-4.033,1.807-4.033,4.027s1.81,4.027,4.033,4.027h18.4C28.467,19.646,30.646,17.453,30.646,14.758z M15.251,21.749
	c-0.139-0.139-0.363-0.139-0.502,0l-4,4c-0.101,0.102-0.132,0.254-0.077,0.387s0.184,0.219,0.328,0.219h3.144L9.749,30.75
	c-0.138,0.139-0.138,0.363,0,0.502c0.069,0.069,0.16,0.104,0.251,0.104s0.182-0.034,0.251-0.104l5-5
	c0.101-0.102,0.132-0.254,0.077-0.387S15.144,25.646,15,25.646h-3.144l3.395-3.395C15.389,22.112,15.389,21.888,15.251,21.749z
	 M11.251,21.749c-0.139-0.139-0.363-0.139-0.502,0l-4,4c-0.138,0.139-0.138,0.363,0,0.502C6.818,26.32,6.909,26.354,7,26.354
	s0.182-0.034,0.251-0.104l4-4C11.389,22.112,11.389,21.888,11.251,21.749z M23.962,22.038c-0.141-0.141-0.369-0.141-0.51,0L23,22.49
	l-0.452-0.452c-0.141-0.141-0.369-0.141-0.51,0s-0.141,0.369,0,0.51L22.49,23l-0.452,0.452c-0.141,0.141-0.141,0.369,0,0.51
	c0.07,0.07,0.163,0.105,0.255,0.105s0.185-0.035,0.255-0.105L23,23.51l0.452,0.452c0.07,0.07,0.163,0.105,0.255,0.105
	s0.185-0.035,0.255-0.105c0.141-0.141,0.141-0.369,0-0.51L23.51,23l0.452-0.452C24.103,22.407,24.103,22.179,23.962,22.038z
	 M27.962,22.038c-0.141-0.141-0.369-0.141-0.51,0L27,22.49l-0.452-0.452c-0.141-0.141-0.369-0.141-0.51,0s-0.141,0.369,0,0.51
	L26.49,23l-0.452,0.452c-0.141,0.141-0.141,0.369,0,0.51c0.07,0.07,0.163,0.105,0.255,0.105s0.185-0.035,0.255-0.105L27,23.51
	l0.452,0.452c0.07,0.07,0.163,0.105,0.255,0.105s0.185-0.035,0.255-0.105c0.141-0.141,0.141-0.369,0-0.51L27.51,23l0.452-0.452
	C28.103,22.407,28.103,22.179,27.962,22.038z M19.962,26.038c-0.141-0.141-0.369-0.141-0.51,0L19,26.49l-0.452-0.452
	c-0.141-0.141-0.369-0.141-0.51,0s-0.141,0.369,0,0.51L18.49,27l-0.452,0.452c-0.141,0.141-0.141,0.369,0,0.51
	c0.07,0.07,0.163,0.105,0.255,0.105s0.185-0.035,0.255-0.105L19,27.51l0.452,0.452c0.07,0.07,0.163,0.105,0.255,0.105
	s0.185-0.035,0.255-0.105c0.141-0.141,0.141-0.369,0-0.51L19.51,27l0.452-0.452C20.103,26.407,20.103,26.179,19.962,26.038z
	 M23.962,26.038c-0.141-0.141-0.369-0.141-0.51,0L23,26.49l-0.452-0.452c-0.141-0.141-0.369-0.141-0.51,0s-0.141,0.369,0,0.51
	L22.49,27l-0.452,0.452c-0.141,0.141-0.141,0.369,0,0.51c0.07,0.07,0.163,0.105,0.255,0.105s0.185-0.035,0.255-0.105L23,27.51
	l0.452,0.452c0.07,0.07,0.163,0.105,0.255,0.105s0.185-0.035,0.255-0.105c0.141-0.141,0.141-0.369,0-0.51L23.51,27l0.452-0.452
	C24.103,26.407,24.103,26.179,23.962,26.038z"/>
<rect id="_Transparent_Rectangle" style="fill:none;" width="32" height="32"/>
</svg>
