<?xml version="1.0" encoding="iso-8859-1"?>
<!-- Generator: Adobe Illustrator 24.3.0, SVG Export Plug-In . SVG Version: 6.00 Build 0)  -->
<svg version="1.1" id="Layer_1" xmlns="http://www.w3.org/2000/svg" xmlns:xlink="http://www.w3.org/1999/xlink" x="0px" y="0px"
	 viewBox="0 0 32 32" style="enable-background:new 0 0 32 32;" xml:space="preserve">
<path id="weather_1_" d="M15.32,25.82c0.064,0.111,0.064,0.248,0,0.359l-2.31,4l-0.623-0.359l1.998-3.46h-1.686
	c-0.128,0-0.248-0.069-0.312-0.181c-0.064-0.111-0.064-0.248,0-0.359l2.31-4l0.623,0.359l-1.998,3.46h1.686
	C15.136,25.64,15.255,25.709,15.32,25.82z M1.981,5.647L3.319,6.42c0.057,0.033,0.119,0.048,0.18,0.048
	c0.125,0,0.246-0.064,0.312-0.18c0.099-0.172,0.04-0.393-0.132-0.492L2.342,5.023C2.169,4.925,1.949,4.983,1.85,5.155
	S1.81,5.548,1.981,5.647z M2.905,9.67c0-0.199-0.161-0.36-0.36-0.36H1c-0.199,0-0.36,0.161-0.36,0.36S0.801,10.03,1,10.03h1.545
	C2.744,10.03,2.905,9.869,2.905,9.67z M4.421,10.03c0.199,0,0.36-0.161,0.36-0.36c0-2.696,2.193-4.89,4.89-4.89
	c0.682,0,1.12,0.035,1.623,0.226c0.186,0.071,0.394-0.023,0.464-0.208c0.071-0.186-0.022-0.394-0.208-0.464
	c-0.665-0.252-1.244-0.273-1.878-0.273c-3.093,0-5.609,2.516-5.609,5.609C4.061,9.869,4.222,10.03,4.421,10.03z M9.67,2.905
	c0.199,0,0.36-0.161,0.36-0.36V1c0-0.199-0.161-0.36-0.36-0.36S9.311,0.801,9.311,1v1.545C9.311,2.744,9.472,2.905,9.67,2.905z
	 M7.188,21.688c-0.172-0.101-0.393-0.041-0.492,0.132l-2.31,4c-0.1,0.172-0.041,0.392,0.131,0.491
	c0.057,0.033,0.119,0.049,0.18,0.049c0.125,0,0.246-0.064,0.312-0.181l2.309-4C7.419,22.008,7.36,21.788,7.188,21.688z M5.796,3.68
	c0.067,0.115,0.188,0.18,0.312,0.18c0.061,0,0.123-0.015,0.18-0.048c0.172-0.1,0.231-0.32,0.132-0.492L5.647,1.981
	C5.548,1.81,5.327,1.75,5.155,1.85S4.924,2.17,5.023,2.342L5.796,3.68z M11.188,21.688c-0.171-0.101-0.393-0.041-0.492,0.132
	l-2.31,4c-0.1,0.172-0.041,0.392,0.131,0.491c0.057,0.033,0.119,0.049,0.18,0.049c0.125,0,0.246-0.064,0.312-0.181l2.309-4
	C11.419,22.008,11.36,21.788,11.188,21.688z M31.36,14.758c0,3.089-2.514,5.603-5.603,5.603H7.355c-2.601,0-4.716-2.127-4.716-4.742
	c0-2.614,2.115-4.741,4.716-4.741c0.644,0,1.283,0.133,1.874,0.388c0.609-3.812,3.88-6.625,7.81-6.625
	c3.176,0,5.982,1.84,7.241,4.717c0.486-0.134,0.981-0.201,1.478-0.201C28.847,9.156,31.36,11.669,31.36,14.758z M30.64,14.758
	c0-2.692-2.189-4.882-4.882-4.882c-0.527,0-1.056,0.088-1.568,0.263c-0.186,0.064-0.382-0.031-0.452-0.21
	c-1.08-2.775-3.709-4.568-6.698-4.568c-3.731,0-6.809,2.789-7.159,6.487c-0.012,0.122-0.084,0.229-0.192,0.286
	c-0.108,0.058-0.237,0.054-0.344-0.007c-0.606-0.346-1.294-0.529-1.988-0.529c-2.204,0-3.996,1.804-3.996,4.021
	s1.792,4.021,3.996,4.021h18.402C28.45,19.64,30.64,17.45,30.64,14.758z M13.053,3.812c0.057,0.033,0.119,0.048,0.18,0.048
	c0.125,0,0.246-0.064,0.312-0.18l0.773-1.338c0.099-0.172,0.04-0.393-0.132-0.492c-0.172-0.1-0.393-0.04-0.492,0.132L12.922,3.32
	C12.822,3.492,12.881,3.712,13.053,3.812z M22.97,22.038c-0.141-0.141-0.369-0.141-0.51,0l-0.452,0.452l-0.452-0.452
	c-0.141-0.141-0.369-0.141-0.51,0s-0.141,0.369,0,0.51L21.498,23l-0.452,0.452c-0.141,0.141-0.141,0.369,0,0.51
	c0.07,0.07,0.163,0.105,0.255,0.105s0.185-0.035,0.255-0.105l0.452-0.452l0.452,0.452c0.07,0.07,0.163,0.105,0.255,0.105
	s0.185-0.035,0.255-0.105c0.141-0.141,0.141-0.369,0-0.51L22.518,23l0.452-0.452C23.11,22.407,23.11,22.179,22.97,22.038z
	 M25.97,26.038c-0.141-0.141-0.369-0.141-0.51,0l-0.452,0.452l-0.452-0.452c-0.141-0.141-0.369-0.141-0.51,0s-0.141,0.369,0,0.51
	L24.498,27l-0.452,0.452c-0.141,0.141-0.141,0.369,0,0.51c0.07,0.07,0.163,0.105,0.255,0.105s0.185-0.035,0.255-0.105l0.452-0.452
	l0.452,0.452c0.07,0.07,0.163,0.105,0.255,0.105s0.185-0.035,0.255-0.105c0.141-0.141,0.141-0.369,0-0.51L25.518,27l0.452-0.452
	C26.11,26.407,26.11,26.179,25.97,26.038z M20.97,26.038c-0.141-0.141-0.369-0.141-0.51,0l-0.452,0.452l-0.452-0.452
	c-0.141-0.141-0.369-0.141-0.51,0s-0.141,0.369,0,0.51L19.498,27l-0.452,0.452c-0.141,0.141-0.141,0.369,0,0.51
	c0.07,0.07,0.163,0.105,0.255,0.105s0.185-0.035,0.255-0.105l0.452-0.452l0.452,0.452c0.07,0.07,0.163,0.105,0.255,0.105
	s0.185-0.035,0.255-0.105c0.141-0.141,0.141-0.369,0-0.51L20.518,27l0.452-0.452C21.11,26.407,21.11,26.179,20.97,26.038z
	 M27.962,22.046c-0.141-0.141-0.369-0.141-0.51,0L27,22.498l-0.452-0.452c-0.141-0.141-0.369-0.141-0.51,0s-0.141,0.369,0,0.51
	l0.452,0.452l-0.452,0.452c-0.141,0.141-0.141,0.369,0,0.51c0.07,0.07,0.163,0.105,0.255,0.105s0.185-0.035,0.255-0.105L27,23.518
	l0.452,0.452c0.07,0.07,0.163,0.105,0.255,0.105s0.185-0.035,0.255-0.105c0.141-0.141,0.141-0.369,0-0.51l-0.452-0.452l0.452-0.452
	C28.103,22.415,28.103,22.187,27.962,22.046z"/>
<rect id="_Transparent_Rectangle" style="fill:none;" width="32" height="32"/>
</svg>
