<?xml version="1.0" encoding="iso-8859-1"?>
<!-- Generator: Adobe Illustrator 24.1.2, SVG Export Plug-In . SVG Version: 6.00 Build 0)  -->
<svg version="1.1" id="Layer_1" xmlns="http://www.w3.org/2000/svg" xmlns:xlink="http://www.w3.org/1999/xlink" x="0px" y="0px"
	 viewBox="0 0 32 32" style="enable-background:new 0 0 32 32;" xml:space="preserve">
<path id="webcast" d="M31,31.4H1v-0.7h30V31.4z M31,24.4H1c-0.2,0-0.4-0.2-0.4-0.4V2c0-0.2,0.2-0.4,0.4-0.4h30
	c0.2,0,0.4,0.2,0.4,0.4v22C31.4,24.2,31.2,24.4,31,24.4z M25.4,23.6h5.3V2.4H1.4v21.3h5.3V23c0-3.8,2.6-7.3,6.4-8.6
	c-1.5-1-2.4-2.6-2.4-4.4c0-2.9,2.4-5.3,5.3-5.3s5.3,2.4,5.3,5.3c0,1.8-0.9,3.5-2.4,4.4c3.8,1.3,6.4,4.8,6.4,8.6v0.6H25.4z M7.4,23.6
	h17.3V23c0-3.8-2.8-7.2-6.7-8.1c-0.1,0-0.3-0.2-0.3-0.3c0-0.2,0.1-0.3,0.2-0.4c1.7-0.7,2.7-2.4,2.7-4.2c0-2.5-2.1-4.6-4.6-4.6
	s-4.6,2.1-4.6,4.6c0,1.8,1.1,3.5,2.7,4.2c0.1,0.1,0.2,0.2,0.2,0.4s-0.1,0.3-0.3,0.3c-3.9,0.9-6.7,4.3-6.7,8.1L7.4,23.6L7.4,23.6z"/>
<rect id="_Transparent_Rectangle" style="fill:none;" width="32" height="32"/>
</svg>
