<?xml version="1.0" encoding="iso-8859-1"?>
<!-- Generator: Adobe Illustrator 24.1.2, SVG Export Plug-In . SVG Version: 6.00 Build 0)  -->
<svg version="1.1" id="Layer_1" xmlns="http://www.w3.org/2000/svg" xmlns:xlink="http://www.w3.org/1999/xlink" x="0px" y="0px"
	 viewBox="0 0 32 32" style="enable-background:new 0 0 32 32;" xml:space="preserve">
<path id="wheat_1_" d="M9.36,31H8.64v-2.652c-2.789-0.186-5-2.514-5-5.348V3h0.72v2.931l1.78,1.028V2h0.72v5.375l1.78,1.028V1h0.72
	v7.402l1.78-1.028V2h0.72v4.959l1.78-1.028V3h0.72v20c0,2.834-2.211,5.162-5,5.348C9.36,28.348,9.36,31,9.36,31z M9.36,24.208v3.418
	c2.391-0.185,4.28-2.188,4.28-4.626v-1.264L9.36,24.208z M4.36,21.736V23c0,2.438,1.889,4.441,4.28,4.626v-3.418L4.36,21.736z
	 M9.36,19.287v4.089l4.28-2.471v-4.089L9.36,19.287z M4.36,20.905l4.28,2.471v-4.089l-4.28-2.471V20.905z M9.36,14.208v4.248
	l4.28-2.471v-4.248L9.36,14.208z M4.36,15.985l4.28,2.471v-4.248l-4.28-2.471V15.985z M9.36,9.234v4.143l4.28-2.471V6.763
	L9.36,9.234z M4.36,10.905l4.28,2.471V9.234L4.36,6.763V10.905z M23.36,31h-0.72v-2.652c-2.788-0.186-5-2.514-5-5.348V3h0.721v2.931
	l1.779,1.028V2h0.721v5.375l1.779,1.028V1h0.721v7.402l1.779-1.028V2h0.721v4.959l1.779-1.028V3h0.721v20
	c0,2.834-2.212,5.162-5,5.348L23.36,31L23.36,31z M23.36,24.208v3.418c2.391-0.185,4.279-2.188,4.279-4.626v-1.264L23.36,24.208z
	 M18.36,21.736V23c0,2.438,1.889,4.441,4.279,4.626v-3.418L18.36,21.736z M23.36,19.287v4.089l4.279-2.471v-4.089L23.36,19.287z
	 M18.36,20.905l4.279,2.471v-4.089l-4.279-2.471V20.905z M23.36,14.208v4.248l4.279-2.471v-4.248L23.36,14.208z M18.36,15.985
	l4.279,2.471v-4.248l-4.279-2.471V15.985z M23.36,9.234v4.143l4.279-2.471V6.763L23.36,9.234z M18.36,10.905l4.279,2.471V9.234
	L18.36,6.763V10.905z"/>
<rect id="_Transparent_Rectangle" style="fill:none;" width="32" height="32"/>
</svg>
