<svg xmlns="http://www.w3.org/2000/svg" viewBox="0 0 48 48"><path fill="none" stroke-linejoin="round" stroke-miterlimit="10" stroke-width=".72" d="M9,18.324 c3.953-3.617,9.217-5.824,14.998-5.824c5.782,0,11.049,2.209,15.002,5.828 M35.066,22.262c-2.944-2.617-6.821-4.207-11.07-4.207 c-4.246,0-8.121,1.588-11.064,4.202 M31.128,26.2c-1.93-1.616-4.416-2.589-7.13-2.589c-2.711,0-5.196,0.971-7.125,2.585 M24,29.496 c-1.658,0-3.002,1.344-3.002,3.002c0,1.658,1.344,3.002,3.002,3.002s3.002-1.344,3.002-3.002C27.002,30.84,25.658,29.496,24,29.496 z"/></svg>