<?xml version="1.0" encoding="iso-8859-1"?>
<!-- Generator: Adobe Illustrator 24.1.2, SVG Export Plug-In . SVG Version: 6.00 Build 0)  -->
<svg version="1.1" id="Layer_1" xmlns="http://www.w3.org/2000/svg" xmlns:xlink="http://www.w3.org/1999/xlink" x="0px" y="0px"
	 viewBox="0 0 32 32" style="enable-background:new 0 0 32 32;" xml:space="preserve">
<path id="wind--power_1_" d="M6.808,23.554c0.092,0,0.184-0.035,0.254-0.105l7.544-7.544c0.558,0.407,1.289,0.568,2.005,0.376
	c0.609-0.163,1.118-0.554,1.433-1.1c0.043-0.075,0.082-0.151,0.116-0.229l10.304,2.761c0.196,0.054,0.389-0.063,0.44-0.255
	s-0.062-0.389-0.255-0.44l-10.302-2.761c0.031-0.287,0.009-0.58-0.068-0.867c-0.305-1.139-1.401-1.858-2.536-1.735l-2.76-10.249
	c-0.051-0.192-0.249-0.303-0.441-0.254c-0.192,0.052-0.306,0.25-0.254,0.441l2.761,10.247c-0.458,0.2-0.838,0.539-1.092,0.979
	c-0.315,0.546-0.399,1.182-0.236,1.791c0.078,0.291,0.208,0.555,0.376,0.784l-7.543,7.543c-0.141,0.141-0.141,0.369,0,0.51
	C6.624,23.519,6.715,23.554,6.808,23.554z M15.574,12.417c0,0,0.001,0,0.002,0c0,0,0,0,0.001,0c0.875-0.231,1.772,0.287,2.007,1.16
	c0.073,0.274,0.075,0.557,0.007,0.825c-0.002,0.008-0.005,0.016-0.007,0.023s-0.004,0.016-0.006,0.023
	c-0.036,0.129-0.089,0.254-0.158,0.373c-0.219,0.379-0.572,0.65-0.996,0.764c-0.877,0.234-1.774-0.287-2.009-1.16
	C14.182,13.552,14.702,12.651,15.574,12.417z M7.172,17.12c-0.237-0.67-0.397-1.37-0.476-2.081l0.716-0.079
	c0.072,0.655,0.22,1.301,0.438,1.919c0.132,0.372,0.29,0.736,0.469,1.083l-0.64,0.33C7.486,17.918,7.315,17.523,7.172,17.12z
	 M15.029,2.4L14.97,1.682c2.098-0.17,4.245,0.191,6.18,1.079c0.353,0.162,0.696,0.339,1.03,0.533l-0.361,0.623
	c-0.314-0.182-0.637-0.349-0.97-0.501C19.028,2.581,17.003,2.236,15.029,2.4z M16,4.641c1.067,0,2.116,0.179,3.116,0.531
	l-0.24,0.679C17.954,5.525,16.986,5.36,16,5.36V4.641z M23.21,24.041l-0.42-0.586c0.141-0.1,0.278-0.204,0.413-0.311
	c1.505-1.188,2.704-2.738,3.467-4.486l0.66,0.289c-0.811,1.855-2.083,3.502-3.681,4.762C23.506,23.823,23.358,23.934,23.21,24.041z
	 M18.327,30.64c-0.157-1.013-0.954-1.817-1.967-1.973V18c0-0.199-0.161-0.36-0.36-0.36s-0.36,0.161-0.36,0.36v10.667
	c-1.013,0.156-1.81,0.96-1.967,1.973H1v0.721h30V30.64H18.327z M16,29.36c0.78,0,1.432,0.548,1.597,1.279h-3.194
	C14.568,29.909,15.22,29.36,16,29.36z M24.32,18.292c-0.361,0.701-0.813,1.356-1.344,1.949l-0.537-0.48
	c0.49-0.547,0.907-1.152,1.24-1.799L24.32,18.292z M5.293,20.18C4.212,18.311,3.64,16.174,3.64,14c0-0.347,0.014-0.69,0.042-1.03
	L4.4,13.03C4.373,13.35,4.36,13.673,4.36,14c0,2.047,0.539,4.059,1.557,5.819c0.122,0.211,0.25,0.416,0.383,0.617l-0.6,0.398
	C5.558,20.622,5.422,20.403,5.293,20.18z"/>
<rect id="_Transparent_Rectangle" style="fill:none;" width="32" height="32"/>
</svg>
