<svg xmlns="http://www.w3.org/2000/svg" viewBox="0 0 48 48"><path fill="none" stroke-linecap="round" stroke-linejoin="round" stroke-miterlimit="10" stroke-width=".72" d="M13,20V9h26v19h-4 M13,12h26 M35,20H9v19h26V20z M9,23h26"/><path d="M37,10.5c0,0.276-0.224,0.5-0.5,0.5S36,10.776,36,10.5s0.224-0.5,0.5-0.5S37,10.224,37,10.5z M34.5,10 c-0.276,0-0.5,0.224-0.5,0.5s0.224,0.5,0.5,0.5s0.5-0.224,0.5-0.5S34.776,10,34.5,10z M32.5,10c-0.276,0-0.5,0.224-0.5,0.5 s0.224,0.5,0.5,0.5s0.5-0.224,0.5-0.5S32.776,10,32.5,10z M32.5,21c-0.276,0-0.5,0.224-0.5,0.5c0,0.276,0.224,0.5,0.5,0.5 s0.5-0.224,0.5-0.5C33,21.224,32.776,21,32.5,21z M30.5,21c-0.276,0-0.5,0.224-0.5,0.5c0,0.276,0.224,0.5,0.5,0.5 s0.5-0.224,0.5-0.5C31,21.224,30.776,21,30.5,21z M28.5,21c-0.276,0-0.5,0.224-0.5,0.5c0,0.276,0.224,0.5,0.5,0.5 s0.5-0.224,0.5-0.5C29,21.224,28.776,21,28.5,21z"/></svg>