<?xml version="1.0" encoding="iso-8859-1"?>
<!-- Generator: Adobe Illustrator 22.0.0, SVG Export Plug-In . SVG Version: 6.00 Build 0)  -->
<svg version="1.1" xmlns="http://www.w3.org/2000/svg" xmlns:xlink="http://www.w3.org/1999/xlink" x="0px" y="0px"
	 viewBox="0 0 48 48" style="enable-background:new 0 0 48 48;" xml:space="preserve">
<g id="wine">
	<path id="wine_1_" style="fill:none;stroke:#000000;stroke-width:0.72;stroke-linejoin:round;stroke-miterlimit:10;" d="M13,25h6
		v10h-6 M27,21l-1,6.485c0,2.495,2.005,4.518,4.5,4.518S35,29.98,35,27.485L34,21H27z M30.5,32.002V39 M34,39l-7,0 M26.05,27h8.9
		 M19,15.528V9h-3v6.528c0,2.375-3,2.6-3,6.911v15.233C13,38.406,13.675,39,14.508,39h5.985c0.833,0,1.508-0.594,1.508-1.327V22.439
		C22.001,18.128,19,17.904,19,15.528z"/>
</g>
<g id="Layer_1">
</g>
</svg>
