<?xml version="1.0" encoding="iso-8859-1"?>
<!-- Generator: Adobe Illustrator 30.4.0, SVG Export Plug-In . SVG Version: 9.03 Build 0)  -->
<svg version="1.1" id="Layer_1" xmlns="http://www.w3.org/2000/svg" xmlns:xlink="http://www.w3.org/1999/xlink" x="0px" y="0px"
	 viewBox="0 0 32 32" style="enable-background:new 0 0 32 32;" xml:space="preserve">
<path id="women--showers" d="M9.361,31h-0.72v-9c0-0.199,0.161-0.36,0.36-0.36h2c0.558,0,1.055-0.266,1.364-0.729
	s0.363-1.026,0.149-1.541l-3.009-7.215c-0.002-0.003-0.003-0.006-0.004-0.009c-0.531-1.202-1.349-1.786-2.5-1.786
	c-1.15,0-1.946,0.569-2.502,1.79l-3.011,7.22c-0.214,0.515-0.16,1.077,0.149,1.541s0.806,0.729,1.364,0.729h2
	c0.199,0,0.36,0.161,0.36,0.36v9h-0.72v-8.64h-1.64c-0.79,0-1.524-0.393-1.963-1.051s-0.519-1.487-0.214-2.218l3.015-7.231
	C4.512,10.384,5.574,9.64,7.001,9.64c1.432,0,2.488,0.729,3.139,2.168c0.005,0.01,0.011,0.021,0.015,0.032l3.024,7.252
	c0.305,0.73,0.225,1.56-0.214,2.218c-0.439,0.657-1.172,1.051-1.963,1.051h-1.64V31L9.361,31z M7.001,8.36
	c-1.577,0-2.86-1.283-2.86-2.86s1.283-2.86,2.86-2.86s2.86,1.283,2.86,2.86S8.578,8.36,7.001,8.36z M7.001,3.36
	c-1.18,0-2.14,0.96-2.14,2.14s0.96,2.14,2.14,2.14s2.14-0.96,2.14-2.14S8.181,3.36,7.001,3.36z M30.64,1v1.64H23
	c-1.3,0-2.36,1.06-2.36,2.36v0.64H15c-0.2,0-0.36,0.16-0.36,0.36v2c0,0.2,0.16,0.36,0.36,0.36h12c0.2,0,0.36-0.16,0.36-0.36V6
	c0-0.2-0.16-0.36-0.36-0.36h-5.64V5c0-0.9,0.74-1.64,1.64-1.64h7.64V31h0.72V1H30.64z M26.64,6.36v1.28H15.36V6.36
	C15.36,6.36,26.64,6.36,26.64,6.36z M21.36,12v-2c0-0.199-0.161-0.36-0.36-0.36S20.64,9.801,20.64,10v2
	c0,0.199,0.161,0.36,0.36,0.36S21.36,12.199,21.36,12z M21.36,17v-3c0-0.199-0.161-0.36-0.36-0.36s-0.36,0.161-0.36,0.36v3
	c0,0.199,0.161,0.36,0.36,0.36S21.36,17.199,21.36,17z M18.36,15.5v-3c0-0.199-0.161-0.36-0.36-0.36s-0.36,0.161-0.36,0.36v3
	c0,0.199,0.161,0.36,0.36,0.36S18.36,15.699,18.36,15.5z M18.36,11l0.001-1c0-0.199-0.161-0.36-0.36-0.36l0,0
	c-0.198,0-0.359,0.161-0.36,0.359l-0.001,1c0,0.199,0.161,0.36,0.36,0.36l0,0C18.198,11.36,18.359,11.199,18.36,11z M24.36,15.5v-3
	c0-0.199-0.161-0.36-0.36-0.36s-0.36,0.161-0.36,0.36v3c0,0.199,0.161,0.36,0.36,0.36S24.36,15.699,24.36,15.5z M24.36,11v-1
	c0-0.199-0.161-0.36-0.36-0.36S23.64,9.801,23.64,10v1c0,0.199,0.161,0.36,0.36,0.36S24.36,11.199,24.36,11z"/>
<rect id="Transparent_Rectangle" style="fill:none;" width="32" height="32"/>
</svg>
