<?xml version="1.0" encoding="iso-8859-1"?>
<!-- Generator: Adobe Illustrator 24.1.2, SVG Export Plug-In . SVG Version: 6.00 Build 0)  -->
<svg version="1.1" id="Layer_1" xmlns="http://www.w3.org/2000/svg" xmlns:xlink="http://www.w3.org/1999/xlink" x="0px" y="0px"
	 viewBox="0 0 32 32" style="enable-background:new 0 0 32 32;" xml:space="preserve">
<path id="word--cloud_1_" d="M24,27.4H10c-5.2,0-9.4-4.2-9.4-9.4S4.8,8.6,10,8.6c0.5,0,1,0,1.5,0.1c1.6-2,4-3.1,6.5-3.1
	c4.3,0,7.8,3.2,8.3,7.4c3,1,5.1,3.8,5.1,7C31.4,24.1,28.1,27.4,24,27.4z M10,9.4c-4.8,0-8.6,3.9-8.6,8.6c0,4.8,3.9,8.6,8.6,8.6h14
	c3.7,0,6.6-3,6.6-6.6c0-2.9-2-5.5-4.8-6.4c-0.1,0-0.2-0.2-0.3-0.3c-0.4-4-3.6-7-7.6-7c-2.4,0-4.6,1.1-6.1,3
	c-0.1,0.1-0.2,0.2-0.4,0.1C11,9.4,10.5,9.4,10,9.4z M24,22.4H14v-0.7h10V22.4z M12,22.4H8v-0.7h4V22.4z M26,19.4H16v-0.7h10V19.4z
	 M14,19.4H6v-0.7h8V19.4z M24,16.4h-4v-0.7h4V16.4z M18,16.4H8v-0.7h10V16.4z"/>
<rect id="_Transparent_Rectangle" style="fill:none;" width="32" height="32"/>
</svg>
