<?xml version="1.0" encoding="iso-8859-1"?>
<!-- Generator: Adobe Illustrator 24.3.0, SVG Export Plug-In . SVG Version: 6.00 Build 0)  -->
<svg version="1.1" id="Layer_1" xmlns="http://www.w3.org/2000/svg" xmlns:xlink="http://www.w3.org/1999/xlink" x="0px" y="0px"
	 viewBox="0 0 32 32" style="enable-background:new 0 0 32 32;" xml:space="preserve">
<path id="workday_1_" d="M7,12.36c-0.013,0-0.026,0-0.04-0.002c-0.198-0.022-0.34-0.2-0.318-0.397C7.167,7.217,11.189,3.64,16,3.64
	s8.834,3.577,9.357,8.32c0.022,0.198-0.12,0.375-0.318,0.397c-0.19,0.023-0.376-0.121-0.396-0.318C24.158,7.662,20.443,4.36,16,4.36
	s-8.158,3.302-8.642,7.68C7.337,12.224,7.182,12.36,7,12.36z M24.623,16l-3.662,11.903L16.348,16h-0.695L11.04,27.903L7.377,16
	H6.624l4,13h0.763L16,17.095L20.614,29h0.763l4-13H24.623z"/>
<rect id="_Transparent_Rectangle" style="fill:none;" width="32" height="32"/>
</svg>
