<?xml version="1.0" encoding="iso-8859-1"?>
<!-- Generator: Adobe Illustrator 24.1.2, SVG Export Plug-In . SVG Version: 6.00 Build 0)  -->
<svg version="1.1" id="Layer_1" xmlns="http://www.w3.org/2000/svg" xmlns:xlink="http://www.w3.org/1999/xlink" x="0px" y="0px"
	 viewBox="0 0 32 32" style="enable-background:new 0 0 32 32;" xml:space="preserve">
<path id="x-ray--02_1_" d="M27,31.36H5c-0.199,0-0.36-0.161-0.36-0.36v-4.162C3.232,26.66,2.14,25.455,2.14,24s1.092-2.66,2.5-2.838
	V17c0-0.199,0.161-0.36,0.36-0.36h1.818c1.432-1.916,3.486-3.379,5.751-4.115c-1.855-1.171-3.014-3.222-3.014-5.445
	c0-3.551,2.889-6.44,6.44-6.44s6.44,2.889,6.44,6.44c0,2.223-1.158,4.273-3.014,5.444c2.271,0.738,4.329,2.201,5.761,4.116H27
	c0.199,0,0.36,0.161,0.36,0.36v4.162c1.407,0.178,2.5,1.383,2.5,2.838s-1.093,2.66-2.5,2.838V31C27.36,31.199,27.199,31.36,27,31.36
	z M5.36,30.64h21.28v-3.802c-1.407-0.178-2.5-1.383-2.5-2.838s1.093-2.66,2.5-2.838V17.36H5.36v3.802
	c1.408,0.178,2.5,1.383,2.5,2.838s-1.092,2.66-2.5,2.838V30.64z M27,21.86c-1.18,0-2.14,0.96-2.14,2.14s0.96,2.14,2.14,2.14
	s2.14-0.96,2.14-2.14S28.18,21.86,27,21.86z M5,21.86c-1.18,0-2.14,0.96-2.14,2.14S3.82,26.14,5,26.14S7.14,25.18,7.14,24
	S6.18,21.86,5,21.86z M7.735,16.64h16.531c-1.501-1.804-3.609-3.122-5.884-3.66c-0.15-0.035-0.261-0.163-0.275-0.316
	c-0.015-0.153,0.07-0.299,0.211-0.362c2.064-0.924,3.397-2.974,3.397-5.221c0-3.154-2.565-5.72-5.72-5.72s-5.72,2.566-5.72,5.72
	c0,2.247,1.334,4.297,3.397,5.221c0.141,0.063,0.226,0.209,0.211,0.362c-0.015,0.154-0.125,0.281-0.275,0.316
	C11.341,13.517,9.236,14.835,7.735,16.64z M16.36,29h-0.72v-1.64H13c-0.353,0-0.64,0.287-0.64,0.64v0.5h-0.72V28
	c0-0.75,0.61-1.36,1.36-1.36h2.64v-2.28H12c-0.353,0-0.64,0.287-0.64,0.64v0.5h-0.72V25c0-0.75,0.61-1.36,1.36-1.36h3.64v-2.28H12
	c-0.353,0-0.64,0.287-0.64,0.64v0.5h-0.72V22c0-0.75,0.61-1.36,1.36-1.36h3.64V19h0.72v1.64H20c0.75,0,1.36,0.61,1.36,1.36v0.5
	h-0.72V22c0-0.353-0.287-0.64-0.64-0.64h-3.64v2.279H20c0.75,0,1.36,0.61,1.36,1.36v0.5h-0.72V25c0-0.353-0.287-0.64-0.64-0.64
	h-3.64v2.279H19c0.75,0,1.36,0.61,1.36,1.36v0.5h-0.72V28c0-0.353-0.287-0.64-0.64-0.64h-2.64V29z"/>
<rect id="_Transparent_Rectangle" style="fill:none;" width="32" height="32"/>
</svg>
