<?xml version="1.0" encoding="iso-8859-1"?>
<!-- Generator: Adobe Illustrator 24.1.2, SVG Export Plug-In . SVG Version: 6.00 Build 0)  -->
<svg version="1.1" id="Layer_1" xmlns="http://www.w3.org/2000/svg" xmlns:xlink="http://www.w3.org/1999/xlink" x="0px" y="0px"
	 viewBox="0 0 32 32" style="enable-background:new 0 0 32 32;" xml:space="preserve">
<path id="yoga--04_1_" d="M25.523,31.36c-0.018,0-0.035,0-0.053,0H1v-0.72h3.853c-0.191-0.226-0.331-0.494-0.407-0.79
	c-0.133-0.517-0.059-1.052,0.211-1.508l7.483-12.48V10.36H4.5c-1.025,0-1.86-0.834-1.86-1.86S3.475,6.64,4.5,6.64h8.909
	C12.917,6.045,12.64,5.293,12.64,4.5c0-1.853,1.507-3.36,3.36-3.36s3.36,1.507,3.36,3.36c0,0.793-0.278,1.545-0.77,2.14h8.91
	c1.025,0,1.86,0.834,1.86,1.86s-0.835,1.86-1.86,1.86h-7.641l0.002,5.519l7.373,12.479c0.27,0.457,0.345,0.993,0.212,1.509
	c-0.074,0.289-0.208,0.552-0.392,0.773H31v0.721h-5.424C25.559,31.36,25.541,31.36,25.523,31.36z M25.48,30.64h0.086
	c0.205-0.007,0.411-0.063,0.6-0.175c0.291-0.171,0.498-0.447,0.583-0.777c0.085-0.331,0.037-0.673-0.134-0.964l-7.424-12.563
	c-0.033-0.055-0.051-0.119-0.051-0.183L19.139,10c0-0.095,0.038-0.187,0.105-0.254c0.067-0.068,0.159-0.105,0.255-0.105H27.5
	c0.629,0,1.14-0.512,1.14-1.14s-0.511-1.14-1.14-1.14h-9.842c-0.159,0-0.299-0.104-0.345-0.256s0.014-0.316,0.146-0.404
	c0.739-0.492,1.181-1.314,1.181-2.2c0-1.456-1.184-2.64-2.64-2.64s-2.64,1.185-2.64,2.64c0,0.886,0.442,1.708,1.181,2.2
	c0.132,0.088,0.191,0.252,0.146,0.404S14.5,7.36,14.342,7.36H4.5c-0.628,0-1.14,0.512-1.14,1.14S3.872,9.64,4.5,9.64h8
	c0.199,0,0.36,0.161,0.36,0.36v5.961c0,0.065-0.018,0.129-0.051,0.185L5.276,28.71c-0.17,0.288-0.218,0.63-0.133,0.96
	s0.292,0.606,0.583,0.778c0.291,0.17,0.632,0.218,0.963,0.134c0.33-0.085,0.606-0.292,0.778-0.583l6.263-10.052
	c0.467-0.644,1.052-1.308,2.269-1.308c1.169,0,1.771,0.618,2.246,1.286l6.177,10.085C24.653,30.402,25.06,30.626,25.48,30.64z
	 M7.893,30.64h16.093c-0.066-0.079-0.127-0.165-0.181-0.258l-6.16-10.059c-0.431-0.603-0.844-0.963-1.646-0.963
	c-0.8,0-1.205,0.348-1.672,0.989L8.083,30.372C8.027,30.467,7.963,30.557,7.893,30.64z"/>
<rect id="_Transparent_Rectangle" style="fill:none;" width="32" height="32"/>
</svg>
