<?xml version="1.0" encoding="iso-8859-1"?>
<!-- Generator: Adobe Illustrator 22.0.0, SVG Export Plug-In . SVG Version: 6.00 Build 0)  -->
<svg version="1.1" id="Layer_1" xmlns="http://www.w3.org/2000/svg" xmlns:xlink="http://www.w3.org/1999/xlink" x="0px" y="0px"
	 viewBox="0 0 48 48" style="enable-background:new 0 0 48 48;" xml:space="preserve">
<g id="yoga_02">
	<path id="yoga_2_1_" style="fill:none;stroke:#000000;stroke-width:0.72;stroke-linejoin:round;stroke-miterlimit:10;" d="M18,19
		h-6.5c-0.828,0-1.5-0.672-1.5-1.5s0.672-1.5,1.5-1.5H19 M36.5,19c0.828,0,1.5-0.672,1.5-1.5S37.328,16,36.5,16l0,0H25.245
		c1.082-0.482,1.837-1.646,1.837-2.907c0-1.708-1.384-3.093-3.092-3.093c-1.708,0-3.092,1.385-3.092,3.093
		c0,1.261,0.755,2.425,1.837,2.907l0,0C21.145,16.335,20,17.642,20,19.27V26v-0.001l-9.202,9.202
		c-0.661,0.588-0.721,1.61-0.134,2.272c0.588,0.662,1.61,0.722,2.271,0.134L22,29h8v7.5c0,0.828,0.672,1.5,1.5,1.5
		s1.5-0.672,1.5-1.5v-8.891C33,26.724,32.276,26,31.391,26H27v-7H36.5z M8,38h32"/>
</g>
<g id="Layer_1_1_">
</g>
</svg>
