<svg xmlns="http://www.w3.org/2000/svg" viewBox="0 0 48 48"><path fill="none" stroke-linejoin="round" stroke-miterlimit="10" stroke-width=".72" d="M8,39h32 M20.5,18v5.961l-7.533,12.563c-0.456,0.773-0.197,1.778,0.576,2.234s1.778,0.197,2.234-0.576l6.259-10.044 C22.5,27.5,23,27,23.999,27c1.001,0,1.501,0.5,1.953,1.135l6.163,10.064c0.456,0.773,1.461,1.032,2.234,0.576 c0.773-0.456,1.032-1.461,0.576-2.234l-7.424-12.563L27.499,18H35.5c0.828,0,1.5-0.672,1.5-1.5c0-0.828-0.672-1.5-1.5-1.5h-9.841 C26.467,14.463,27,13.544,27,12.5c0-1.657-1.343-3-3-3s-3,1.343-3,3c0,1.044,0.533,1.963,1.342,2.5H12.5 c-0.828,0-1.5,0.672-1.5,1.5c0,0.828,0.672,1.5,1.5,1.5H20.5z"/></svg>