<?xml version="1.0" encoding="iso-8859-1"?>
<!-- Generator: Adobe Illustrator 24.1.2, SVG Export Plug-In . SVG Version: 6.00 Build 0)  -->
<svg version="1.1" id="Layer_1" xmlns="http://www.w3.org/2000/svg" xmlns:xlink="http://www.w3.org/1999/xlink" x="0px" y="0px"
	 viewBox="0 0 32 32" style="enable-background:new 0 0 32 32;" xml:space="preserve">
<path id="yoga--03_1_" d="M29.095,30.64c0.051-0.065,0.098-0.136,0.141-0.21c0.249-0.431,0.314-0.932,0.187-1.411
	c-0.128-0.477-0.434-0.877-0.862-1.125c-0.002-0.001-0.002-0.003-0.004-0.004l-10.25-5.953c-0.661-0.524-0.954-1.051-0.949-1.707
	v-6.227c0-1.202-0.547-2.312-1.412-3.029c0.654-0.157,1.256-0.518,1.706-1.053c1.14-1.355,0.966-3.385-0.389-4.525
	c-0.835-0.703-1.957-0.932-3.001-0.617c-0.19,0.058-0.298,0.259-0.24,0.449c0.058,0.19,0.262,0.297,0.449,0.24
	c0.81-0.248,1.679-0.068,2.327,0.478c1.05,0.885,1.185,2.459,0.301,3.511c-0.603,0.718-1.557,1.032-2.467,0.822
	c-0.049-0.014-0.098-0.027-0.147-0.038c-0.186-0.046-0.381,0.069-0.431,0.259c-0.05,0.189,0.061,0.383,0.249,0.437
	c0.049,0.015,0.099,0.027,0.149,0.04c1.273,0.368,2.185,1.619,2.185,3.027v6.224c-0.006,0.885,0.381,1.607,1.265,2.304l10.293,5.982
	h0.001c0.263,0.152,0.452,0.398,0.531,0.692c0.078,0.294,0.038,0.601-0.114,0.865c-0.314,0.544-1.013,0.729-1.566,0.412
	l-13.141-7.087c-0.145-0.075-3.545-1.902-3.545-6.182V2.5c0-0.628,0.512-1.14,1.14-1.14s1.14,0.512,1.14,1.14V11h0.72V2.5
	c0-1.025-0.834-1.86-1.86-1.86S9.64,1.475,9.64,2.5v14.714c0,4.727,3.773,6.737,3.928,6.817l12.254,6.608H6.969
	c0.245-0.314,0.391-0.711,0.391-1.14v-7.14H10V21.64H7c-0.199,0-0.36,0.161-0.36,0.36v7.5c0,0.629-0.512,1.14-1.14,1.14
	s-1.14-0.511-1.14-1.14V21c0-0.797,0.843-1.64,1.64-1.64h3v-0.72H6c-1.191,0-2.36,1.169-2.36,2.36v8.5
	c0,0.429,0.146,0.825,0.391,1.14H1v0.721h30V30.64H29.095z"/>
<rect id="_Transparent_Rectangle" style="fill:none;" width="32" height="32"/>
</svg>
