<svg xmlns="http://www.w3.org/2000/svg" xmlns:xlink="http://www.w3.org/1999/xlink" width="80" height="80" viewBox="0 0 80 80"><defs><style>.a{fill:none;}.b{fill:url(#a);}.c{fill:url(#b);}.d{fill:url(#c);}.e{opacity:0.5;fill:url(#d);}.f{fill:url(#e);}.g{opacity:0.6;}.h{fill:url(#f);}.i{fill:url(#g);}</style><linearGradient id="a" x1="2.6" y1="-12.81" x2="43.48" y2="58" gradientUnits="userSpaceOnUse"><stop offset="0" stop-color="#f4f4f4"/><stop offset="0.69" stop-color="#e0e0e0"/><stop offset="0.94" stop-color="#c4c4c4"/><stop offset="1" stop-color="#a8a8a8"/></linearGradient><linearGradient id="b" x1="48.57" y1="57.07" x2="67.31" y2="57.07" gradientUnits="userSpaceOnUse"><stop offset="0" stop-color="#a8a8a8"/><stop offset="1" stop-color="#c6c6c6"/></linearGradient><linearGradient id="c" x1="15.1" y1="10.36" x2="41.51" y2="56.09" gradientUnits="userSpaceOnUse"><stop offset="0" stop-color="#bdbdbd"/><stop offset="1" stop-color="#a3a3a3"/></linearGradient><linearGradient id="d" x1="34.92" y1="-46.56" x2="34.92" y2="97.82" gradientTransform="translate(18.46 -13.77) rotate(30)" gradientUnits="userSpaceOnUse"><stop offset="0" stop-color="#6e6e6e"/><stop offset="0.48" stop-color="#787878" stop-opacity="0.69"/><stop offset="0.72" stop-color="#818181" stop-opacity="0.41"/><stop offset="1" stop-color="#8c8c8c" stop-opacity="0.1"/></linearGradient><linearGradient id="e" x1="26.4" y1="71.67" x2="55.54" y2="54.85" gradientUnits="userSpaceOnUse"><stop offset="0" stop-color="#565656" stop-opacity="0.05"/><stop offset="1" stop-color="#171717" stop-opacity="0.1"/></linearGradient><linearGradient id="f" x1="24.56" y1="9.61" x2="50.36" y2="54.3" gradientUnits="userSpaceOnUse"><stop offset="0" stop-color="#fff" stop-opacity="0"/><stop offset="0.12" stop-color="#fff" stop-opacity="0.01"/><stop offset="0.22" stop-color="#fff" stop-opacity="0.05"/><stop offset="0.31" stop-color="#fff" stop-opacity="0.12"/><stop offset="0.4" stop-color="#fff" stop-opacity="0.21"/><stop offset="0.48" stop-color="#fff" stop-opacity="0.34"/><stop offset="0.56" stop-color="#fff" stop-opacity="0.49"/><stop offset="0.64" stop-color="#fff" stop-opacity="0.66"/><stop offset="0.71" stop-color="#fff" stop-opacity="0.86"/><stop offset="0.73" stop-color="#fff" stop-opacity="0.92"/><stop offset="1" stop-color="#fff"/></linearGradient><linearGradient id="g" x1="15.86" y1="-20.5" x2="56.75" y2="50.32" xlink:href="#a"/></defs><rect class="a" width="80" height="80"/><path class="b" d="M12.69,18c0,12,8.75,26.84,19.56,33.08,5.64,3.26,10.73,3.52,14.3,1.32h0l4.83-2.79-1.19-1.93c-3.25,1.73-7.72,1.38-12.67-1.48C27.62,40.46,19.6,26.88,19.6,15.85c0-5.09,1.71-8.75,4.53-10.65l-1.2-1.95L18.1,6h0C14.75,8,12.69,12.12,12.69,18"/><path class="c" d="M67.31,64.92s.11.86-1.89,2.24-2.73,1.18-2.73,1.18L48.57,49.22l4.62-3.42Z"/><path class="d" d="M37.68,46.05c-9.9-5.71-17.93-19.29-17.93-30.32,0-3.79.95-6.78,2.6-8.85-4.87.76-8.09,5-8.09,12,0,11,8,24.61,17.93,30.32,6.5,3.75,12.19,3.19,15.33-.76-2.82.44-6.21-.31-9.84-2.41"/><ellipse class="e" cx="34.92" cy="27.57" rx="14.55" ry="25.2" transform="translate(-9.11 21.16) rotate(-30)"/><path class="f" d="M67.1,75,54.26,67.59c1.1-1.15,1.1-2.36-.77-3.44l-.05,0L26.17,48.4l-.09-.06c-2.59-1.49-5.82-1.05-8.42.45s-3.57,3.48-1,5L44.09,69.58a7.2,7.2,0,0,0,5.5.53l13,7.51h0C63.82,78.34,68.35,75.73,67.1,75Z"/><g class="g"><path class="h" d="M42.88,50.79a16.42,16.42,0,0,1-8.06-2.47c-9.88-5.7-17.92-19.63-17.92-31,0-5.57,1.89-9.73,5.32-11.72S30.2,4,35,6.81C44.91,12.52,53,26.45,53,37.86c0,5.57-1.89,9.73-5.32,11.71A9.31,9.31,0,0,1,42.88,50.79ZM27,4.76a9,9,0,0,0-4.54,1.17c-3.3,1.9-5.12,5.93-5.12,11.35,0,11.28,8,25,17.72,30.68,4.69,2.71,9.09,3.16,12.39,1.25s5.12-5.94,5.12-11.35c0-11.28-7.95-25-17.72-30.69A16,16,0,0,0,27,4.76Z"/></g><path class="i" d="M57,37.5c0-12-8.75-26.85-19.56-33.08C31.82,1.16,26.73.89,23.16,3.09h0L18.33,5.87l1.19,1.94c3.25-1.74,7.72-1.38,12.67,1.47C42.09,15,50.11,28.57,50.11,39.6,50.11,44.46,48.56,48,46,50c-.12.1-1.17.73-1.31.82l2.12,1.42,4.83-2.79h0C55,47.44,57,43.34,57,37.5"/></svg>
