<?xml version="1.0" encoding="UTF-8"?>
<svg width="320px" height="180px" viewBox="0 0 320 180" version="1.1" xmlns="http://www.w3.org/2000/svg" xmlns:xlink="http://www.w3.org/1999/xlink">
    <title>toolbar</title>
    <g id="toolbar" stroke="none" stroke-width="1" fill="none" fill-rule="evenodd">
        <g id="Fill" transform="translate(98.000000, 82.000000)" fill="#000000">
            <path d="M18.125,17.2411875 L13.4049375,12.521125 C15.7611113,9.69244599 15.4756484,5.510841 12.7569179,3.02860722 C10.0381874,0.546373439 5.84793173,0.641593278 3.2447625,3.2447625 C0.641593278,5.84793173 0.546373439,10.0381874 3.02860722,12.7569179 C5.510841,15.4756484 9.69244599,15.7611113 12.521125,13.4049375 L17.2411875,18.125 L18.125,17.2411875 Z M2.5,8.125 C2.5,5.01839828 5.01839828,2.5 8.125,2.5 C11.2316017,2.5 13.75,5.01839828 13.75,8.125 C13.75,11.2316017 11.2316017,13.75 8.125,13.75 C5.01982614,13.7465555 2.50344446,11.2301739 2.5,8.125 Z"></path>
        </g>
        <g id="Fill" transform="translate(202.000000, 82.000000)" fill="#000000">
            <path d="M10,6.25 C10.6903559,6.25 11.25,5.69035594 11.25,5 C11.25,4.30964406 10.6903559,3.75 10,3.75 C9.30964406,3.75 8.75,4.30964406 8.75,5 C8.75,5.69035594 9.30964406,6.25 10,6.25 Z M10,11.25 C10.6903559,11.25 11.25,10.6903559 11.25,10 C11.25,9.30964406 10.6903559,8.75 10,8.75 C9.30964406,8.75 8.75,9.30964406 8.75,10 C8.75,10.6903559 9.30964406,11.25 10,11.25 Z M10,16.25 C10.6903559,16.25 11.25,15.6903559 11.25,15 C11.25,14.3096441 10.6903559,13.75 10,13.75 C9.30964406,13.75 8.75,14.3096441 8.75,15 C8.75,15.6903559 9.30964406,16.25 10,16.25 Z"></path>
        </g>
        <g id="Fill" transform="translate(150.000000, 82.000000)" fill="#000000">
            <path d="M11.25,17.5 L8.75,17.5 C8.05964406,17.5 7.5,16.9403559 7.5,16.25 L7.5,11.50625 L2.86875,6.875 C2.63400763,6.64165607 2.50139549,6.32473553 2.5,5.99375 L2.5,3.75 C2.5,3.05964406 3.05964406,2.5 3.75,2.5 L16.25,2.5 C16.9403559,2.5 17.5,3.05964406 17.5,3.75 L17.5,5.99375 C17.4986045,6.32473553 17.3659924,6.64165607 17.13125,6.875 L12.5,11.50625 L12.5,16.25 C12.5,16.9403559 11.9403559,17.5 11.25,17.5 Z M3.75,3.75 L3.75,5.99375 L8.75,10.99375 L8.75,16.25 L11.25,16.25 L11.25,10.99375 L16.25,5.99375 L16.25,3.75 L3.75,3.75 Z"></path>
        </g>
    </g>
</svg>