<?xml version="1.0" encoding="UTF-8"?>
<svg width="320px" height="320px" viewBox="0 0 320 320" version="1.1" xmlns="http://www.w3.org/2000/svg" xmlns:xlink="http://www.w3.org/1999/xlink">
    <!-- Generator: Sketch 52.2 (67145) - http://www.bohemiancoding.com/sketch -->
    <title>Artboard</title>
    <desc>Created with Sketch.</desc>
    <defs>
        <path d="M9.86245647,3.65461585 L6.35803031,0.150189692 C6.26878951,0.0513025245 6.14074103,-0.00357539239 6.0075877,-2.16772672e-15 L1.00126462,-2.16772672e-15 C0.448281438,-2.05656889e-15 0,0.448281438 0,1.00126462 L0,13.01644 C0,13.5694232 0.448281438,14.0177046 1.00126462,14.0177046 L9.01138155,14.0177046 C9.56436473,14.0177046 10.0126462,13.5694232 10.0126462,13.01644 L10.0126462,4.00505847 C10.0162216,3.87190513 9.96134364,3.74385666 9.86245647,3.65461585 Z M6.0075877,1.20151754 L8.81112863,4.00505847 L6.0075877,4.00505847 L6.0075877,1.20151754 Z M9.01138155,13.01644 L1.00126462,13.01644 L1.00126462,1.00126462 L5.00632308,1.00126462 L5.00632308,4.00505847 C5.00632308,4.55804164 5.45460452,5.00632308 6.0075877,5.00632308 L9.01138155,5.00632308 L9.01138155,13.01644 Z M2.50316154,10.0126462 L7.50948462,10.0126462 L7.50948462,11.0139108 L2.50316154,11.0139108 L2.50316154,10.0126462 Z M2.50316154,7.00885232 L7.50948462,7.00885232 L7.50948462,8.01011693 L2.50316154,8.01011693 L2.50316154,7.00885232 Z" id="path-1"></path>
        <path d="M9.86245647,3.65461585 L6.35803031,0.150189692 C6.26878951,0.0513025245 6.14074103,-0.00357539239 6.0075877,-2.16772672e-15 L1.00126462,-2.16772672e-15 C0.448281438,-2.05656889e-15 0,0.448281438 0,1.00126462 L0,13.01644 C0,13.5694232 0.448281438,14.0177046 1.00126462,14.0177046 L9.01138155,14.0177046 C9.56436473,14.0177046 10.0126462,13.5694232 10.0126462,13.01644 L10.0126462,4.00505847 C10.0162216,3.87190513 9.96134364,3.74385666 9.86245647,3.65461585 Z M6.0075877,1.20151754 L8.81112863,4.00505847 L6.0075877,4.00505847 L6.0075877,1.20151754 Z M9.01138155,13.01644 L1.00126462,13.01644 L1.00126462,1.00126462 L5.00632308,1.00126462 L5.00632308,4.00505847 C5.00632308,4.55804164 5.45460452,5.00632308 6.0075877,5.00632308 L9.01138155,5.00632308 L9.01138155,13.01644 Z M2.50316154,10.0126462 L7.50948462,10.0126462 L7.50948462,11.0139108 L2.50316154,11.0139108 L2.50316154,10.0126462 Z M2.50316154,7.00885232 L7.50948462,7.00885232 L7.50948462,8.01011693 L2.50316154,8.01011693 L2.50316154,7.00885232 Z" id="path-3"></path>
        <path d="M9.86245647,3.65461585 L6.35803031,0.150189692 C6.26878951,0.0513025245 6.14074103,-0.00357539239 6.0075877,-2.16772672e-15 L1.00126462,-2.16772672e-15 C0.448281438,-2.05656889e-15 0,0.448281438 0,1.00126462 L0,13.01644 C0,13.5694232 0.448281438,14.0177046 1.00126462,14.0177046 L9.01138155,14.0177046 C9.56436473,14.0177046 10.0126462,13.5694232 10.0126462,13.01644 L10.0126462,4.00505847 C10.0162216,3.87190513 9.96134364,3.74385666 9.86245647,3.65461585 Z M6.0075877,1.20151754 L8.81112863,4.00505847 L6.0075877,4.00505847 L6.0075877,1.20151754 Z M9.01138155,13.01644 L1.00126462,13.01644 L1.00126462,1.00126462 L5.00632308,1.00126462 L5.00632308,4.00505847 C5.00632308,4.55804164 5.45460452,5.00632308 6.0075877,5.00632308 L9.01138155,5.00632308 L9.01138155,13.01644 Z M2.50316154,10.0126462 L7.50948462,10.0126462 L7.50948462,11.0139108 L2.50316154,11.0139108 L2.50316154,10.0126462 Z M2.50316154,7.00885232 L7.50948462,7.00885232 L7.50948462,8.01011693 L2.50316154,8.01011693 L2.50316154,7.00885232 Z" id="path-5"></path>
        <path d="M9.86245647,3.65461585 L6.35803031,0.150189692 C6.26878951,0.0513025245 6.14074103,-0.00357539239 6.0075877,-2.16772672e-15 L1.00126462,-2.16772672e-15 C0.448281438,-2.05656889e-15 0,0.448281438 0,1.00126462 L0,13.01644 C0,13.5694232 0.448281438,14.0177046 1.00126462,14.0177046 L9.01138155,14.0177046 C9.56436473,14.0177046 10.0126462,13.5694232 10.0126462,13.01644 L10.0126462,4.00505847 C10.0162216,3.87190513 9.96134364,3.74385666 9.86245647,3.65461585 Z M6.0075877,1.20151754 L8.81112863,4.00505847 L6.0075877,4.00505847 L6.0075877,1.20151754 Z M9.01138155,13.01644 L1.00126462,13.01644 L1.00126462,1.00126462 L5.00632308,1.00126462 L5.00632308,4.00505847 C5.00632308,4.55804164 5.45460452,5.00632308 6.0075877,5.00632308 L9.01138155,5.00632308 L9.01138155,13.01644 Z M2.50316154,10.0126462 L7.50948462,10.0126462 L7.50948462,11.0139108 L2.50316154,11.0139108 L2.50316154,10.0126462 Z M2.50316154,7.00885232 L7.50948462,7.00885232 L7.50948462,8.01011693 L2.50316154,8.01011693 L2.50316154,7.00885232 Z" id="path-7"></path>
        <circle id="path-9" cx="7" cy="7" r="7"></circle>
        <polygon id="path-11" points="2.5 5.25 0 2.75 0.795 2 2.5 3.675 6.205 0 7 0.79"></polygon>
    </defs>
    <g id="Artboard" stroke="none" stroke-width="1" fill="none" fill-rule="evenodd">
        <g id="Structured_list" transform="translate(52.000000, 96.000000)">
            <path d="M1,1 L1,31 L215,31 L215,1 L1,1 Z" id="Rectangle-5-Copy-19" stroke="#0062FF" stroke-width="2" fill="#DCDCDC"></path>
            <polygon id="Rectangle-5-Copy-27" fill="#F3F3F3" points="0 64 216 64 216 96 0 96"></polygon>
            <polygon id="Rectangle-5-Copy-29" fill="#F3F3F3" points="0 32 216 32 216 64 0 64"></polygon>
            <polygon id="Rectangle-5-Copy-31" fill="#F3F3F3" points="0 96 216 96 216 128 0 128"></polygon>
            <path d="M112,63.5 L208,63.5 L207.5,63 L207.5,64 L208,63.5 L112,63.5 Z M112,63.5 L16,63.5 L16.5,64 L16.5,63 L16,63.5 L112,63.5 Z" id="Rectangle-3-Copy-33" stroke="#DCDCDC"></path>
            <path d="M112,95.5 L208,95.5 L207.5,95 L207.5,96 L208,95.5 L112,95.5 Z M112,95.5 L16,95.5 L16.5,96 L16.5,95 L16,95.5 L112,95.5 Z" id="Rectangle-3-Copy-34" stroke="#DCDCDC"></path>
            <g id="icon/file/document/16" transform="translate(16.000000, 8.000000)">
                <g id="document" stroke-width="1" fill-rule="evenodd" transform="translate(3.003794, 1.001265)">
                    <mask id="mask-2" fill="white">
                        <use xlink:href="#path-1"></use>
                    </mask>
                    <use id="Mask" fill="#000000" fill-rule="nonzero" xlink:href="#path-1"></use>
                    <g id="color/cool-gray/100" mask="url(#mask-2)" fill="#13171A">
                        <g transform="translate(-3.003794, -1.001265)">
                            <rect x="0" y="0" width="40" height="40"></rect>
                        </g>
                    </g>
                </g>
                <polygon id="transparent-rectangle" points="0 0 16 0 16 16 0 16"></polygon>
            </g>
            <g id="icon/file/document/16" transform="translate(16.000000, 40.000000)">
                <g id="document" stroke-width="1" fill-rule="evenodd" transform="translate(3.003794, 1.001265)">
                    <mask id="mask-4" fill="white">
                        <use xlink:href="#path-3"></use>
                    </mask>
                    <use id="Mask" fill="#000000" fill-rule="nonzero" xlink:href="#path-3"></use>
                    <g id="color/gray/70" mask="url(#mask-4)" fill="#565656">
                        <g transform="translate(-3.003794, -1.001265)">
                            <rect x="0" y="0" width="40" height="40"></rect>
                        </g>
                    </g>
                </g>
                <polygon id="transparent-rectangle" points="0 0 16 0 16 16 0 16"></polygon>
            </g>
            <g id="icon/file/document/16" transform="translate(16.000000, 72.000000)">
                <g id="document" stroke-width="1" fill-rule="evenodd" transform="translate(3.003794, 1.001265)">
                    <mask id="mask-6" fill="white">
                        <use xlink:href="#path-5"></use>
                    </mask>
                    <use id="Mask" fill="#000000" fill-rule="nonzero" xlink:href="#path-5"></use>
                    <g id="color/gray/70" mask="url(#mask-6)" fill="#565656">
                        <g transform="translate(-3.003794, -1.001265)">
                            <rect x="0" y="0" width="40" height="40"></rect>
                        </g>
                    </g>
                </g>
                <polygon id="transparent-rectangle" points="0 0 16 0 16 16 0 16"></polygon>
            </g>
            <g id="icon/file/document/16" transform="translate(16.000000, 104.000000)">
                <g id="document" stroke-width="1" fill-rule="evenodd" transform="translate(3.003794, 1.001265)">
                    <mask id="mask-8" fill="white">
                        <use xlink:href="#path-7"></use>
                    </mask>
                    <use id="Mask" fill="#000000" fill-rule="nonzero" xlink:href="#path-7"></use>
                    <g id="color/gray/70" mask="url(#mask-8)" fill="#565656">
                        <g transform="translate(-3.003794, -1.001265)">
                            <rect x="0" y="0" width="40" height="40"></rect>
                        </g>
                    </g>
                </g>
                <polygon id="transparent-rectangle" points="0 0 16 0 16 16 0 16"></polygon>
            </g>
            <g id="icon/status/checkmark/filled/20" transform="translate(191.000000, 7.000000)">
                <g id="Group">
                    <g id="checkmark--filled" transform="translate(1.000000, 1.000000)">
                        <g id="icon-2">
                            <mask id="mask-10" fill="white">
                                <use xlink:href="#path-9"></use>
                            </mask>
                            <use id="Mask" fill="#000000" fill-rule="nonzero" xlink:href="#path-9"></use>
                            <g id="color/cool-gray/100" mask="url(#mask-10)" fill="#13171A">
                                <g transform="translate(-1.000000, -1.000000)">
                                    <rect x="0" y="0" width="16" height="16"></rect>
                                </g>
                            </g>
                        </g>
                        <g id="icon-1" transform="translate(3.500000, 4.500000)">
                            <mask id="mask-12" fill="white">
                                <use xlink:href="#path-11"></use>
                            </mask>
                            <use id="Mask" fill="#FFFFFF" fill-rule="nonzero" xlink:href="#path-11"></use>
                            <g id="color/white" mask="url(#mask-12)" fill="#FFFFFF">
                                <g transform="translate(-4.500000, -5.500000)">
                                    <rect x="0" y="0" width="16" height="16"></rect>
                                </g>
                            </g>
                        </g>
                    </g>
                    <rect id="transparent-rectangle" x="0" y="0" width="16" height="16"></rect>
                </g>
            </g>
            <rect id="Rectangle-Copy-19" fill="#D8D8D8" x="45" y="41" width="116" height="12"></rect>
            <rect id="Rectangle-Copy-23" fill="#D8D8D8" x="45" y="105" width="116" height="12"></rect>
            <rect id="Rectangle-Copy-21" fill="#BEBEBE" x="45" y="10" width="88" height="12"></rect>
            <rect id="Rectangle-Copy-20" fill="#D8D8D8" x="45" y="74" width="96" height="12"></rect>
        </g>
    </g>
</svg>