<svg id="icon" xmlns="http://www.w3.org/2000/svg" width="32" height="32" viewBox="0 0 32 32"><defs><style>.cls-1{fill:none;}</style></defs><title>accessibility--alt</title><polygon points="23 14 23 12 9 12 9 14 14 14 14 16.734 10.132 23.504 11.868 24.496 15.58 18 16.42 18 20.132 24.496 21.868 23.504 18 16.734 18 14 23 14"/><circle cx="16" cy="9" r="2"/><path d="M16,30A14,14,0,1,1,30,16,14.0158,14.0158,0,0,1,16,30ZM16,4A12,12,0,1,0,28,16,12.0137,12.0137,0,0,0,16,4Z"/><rect id="_Transparent_Rectangle_" data-name="&lt;Transparent Rectangle&gt;" class="cls-1" width="32" height="32"/></svg>