<?xml version="1.0" encoding="utf-8"?>
<!-- Generator: Adobe Illustrator 23.0.4, SVG Export Plug-In . SVG Version: 6.00 Build 0)  -->
<svg version="1.1" id="Layer_1" xmlns="http://www.w3.org/2000/svg" xmlns:xlink="http://www.w3.org/1999/xlink" x="0px" y="0px"
	 width="32px" height="32px" viewBox="0 0 32 32" style="enable-background:new 0 0 32 32;" xml:space="preserve">
<style type="text/css">
	.st0{opacity:0;fill:#FFFFFF;}
</style>
<path d="M16,2C8.4,2,2,8.4,2,16s6.4,14,14,14s14-6.4,14-14S23.6,2,16,2z M22,17h-5v5h-2v-5h-5v-2h5v-5h2v5h5V17z"/>
<polygon id="inner-path" class="st0" points="22,17 17,17 17,22 15,22 15,17 10,17 10,15 15,15 15,10 17,10 17,15 22,15 "/>
</svg>
