<?xml version="1.0" encoding="utf-8"?>
<!-- Generator: Adobe Illustrator 23.0.4, SVG Export Plug-In . SVG Version: 6.00 Build 0)  -->
<svg version="1.1" id="Layer_1" xmlns="http://www.w3.org/2000/svg" xmlns:xlink="http://www.w3.org/1999/xlink" x="0px" y="0px"
	 width="32px" height="32px" viewBox="0 0 32 32" style="enable-background:new 0 0 32 32;" xml:space="preserve">
<path d="M8,4v4H4V4H8z M10,2H2v8h8V2z M18,4v4h-4V4H18z M20,2h-8v8h8V2z M28,4v4h-4V4H28z M30,2h-8v8h8V2z M8,14v4H4v-4H8z M10,12H2
	v8h8V12z M18,14v4h-4v-4H18z M20,12h-8v8h8V12z M28,14v4h-4v-4H28z M30,12h-8v8h8V12z M8,24v4H4v-4H8z M10,22H2v8h8V22z M18,24v4h-4
	v-4H18z M20,22h-8v8h8V22z M28,24v4h-4v-4H28z M30,22h-8v8h8V22z"/>
</svg>
