<svg id="icon" xmlns="http://www.w3.org/2000/svg" width="32" height="32" viewBox="0 0 32 32"><defs><style>.cls-1{fill:none;}</style></defs><title>arrow-shift-down</title><path d="M23,6V16h5a1,1,0,0,1,.707,1.707l-12,12a.9994.9994,0,0,1-1.414,0l-12-12A1,1,0,0,1,4,16H9V6a2.0023,2.0023,0,0,1,2-2H21A2.0027,2.0027,0,0,1,23,6ZM16,27.5859,25.5859,18H22a1,1,0,0,1-1-1V6H11V17a1,1,0,0,1-1,1H6.4141Z"/><rect id="_Transparent_Rectangle_" data-name="&lt;Transparent Rectangle&gt;" class="cls-1" width="32" height="32"/></svg>