<svg id="icon" xmlns="http://www.w3.org/2000/svg" viewBox="0 0 32 32"><defs><style>.cls-1{fill:#010101;}.cls-2{fill:none;}</style></defs><title>battery--charging</title><path class="cls-1" d="M27,11H26V10a2,2,0,0,0-2-2H20v2h4v3h3v6H24v3H19v2h5a2,2,0,0,0,2-2V21h1a2,2,0,0,0,2-2V13A2,2,0,0,0,27,11Z"/><path class="cls-1" d="M11,22H6V10h6V8H6a2,2,0,0,0-2,2V22a2,2,0,0,0,2,2h5Z"/><polygon points="14.81 23.58 13.19 22.42 17.06 17 9.37 17 16.22 8.38 17.78 9.62 13.51 15 20.94 15 14.81 23.58"/><rect id="_Transparent_Rectangle_" data-name="&lt;Transparent Rectangle&gt;" class="cls-2" width="32" height="32"/></svg>