<svg id="icon" xmlns="http://www.w3.org/2000/svg" viewBox="0 0 32 32"><defs><style>.cls-1{fill:none;}</style></defs><title>blog</title><rect x="4" y="24" width="10" height="2"/><rect x="4" y="18" width="10" height="2"/><path d="M26,14H6a2,2,0,0,1-2-2V6A2,2,0,0,1,6,4H26a2,2,0,0,1,2,2v6A2,2,0,0,1,26,14ZM6,6v6H26V6Z" transform="translate(0 0)"/><path d="M26,28H20a2,2,0,0,1-2-2V20a2,2,0,0,1,2-2h6a2,2,0,0,1,2,2v6A2,2,0,0,1,26,28Zm-6-8v6h6V20Z" transform="translate(0 0)"/><rect id="_Transparent_Rectangle_" data-name="&lt;Transparent Rectangle&gt;" class="cls-1" width="32" height="32"/></svg>