<svg id="icon" xmlns="http://www.w3.org/2000/svg" viewBox="0 0 32 32"><defs><style>.cls-1{fill:none;}</style></defs><title>box</title><path d="M20,21H12a2,2,0,0,1-2-2V17a2,2,0,0,1,2-2h8a2,2,0,0,1,2,2v2A2,2,0,0,1,20,21Zm-8-4v2h8V17Z"/><path d="M28,4H4A2,2,0,0,0,2,6v4a2,2,0,0,0,2,2V28a2,2,0,0,0,2,2H26a2,2,0,0,0,2-2V12a2,2,0,0,0,2-2V6A2,2,0,0,0,28,4ZM26,28H6V12H26Zm2-18H4V6H28v4Z"/><rect id="_Transparent_Rectangle_" data-name="&lt;Transparent Rectangle&gt;" class="cls-1" width="32" height="32"/></svg>