<svg id="icon" xmlns="http://www.w3.org/2000/svg" viewBox="0 0 32 32"><defs><style>.cls-1{fill:none;}</style></defs><title>carousel--horizontal</title><path d="M22,26H10a2,2,0,0,1-2-2V8a2,2,0,0,1,2-2H22a2,2,0,0,1,2,2V24A2,2,0,0,1,22,26ZM10,8V24H22V8Z"/><path d="M4,24H0V22H4V10H0V8H4a2,2,0,0,1,2,2V22A2,2,0,0,1,4,24Z"/><path d="M32,24H28a2,2,0,0,1-2-2V10a2,2,0,0,1,2-2h4v2H28V22h4Z"/><rect id="_Transparent_Rectangle_" data-name="&lt;Transparent Rectangle&gt;" class="cls-1" width="32" height="32"/></svg>