<svg id="icon" xmlns="http://www.w3.org/2000/svg" width="32" height="32" viewBox="0 0 32 32"><defs><style>.cls-1{fill:none;}</style></defs><title>CDA</title><path d="M28,9H24a2.002,2.002,0,0,0-2,2V23h2V18h4v5h2V11A2.0023,2.0023,0,0,0,28,9Zm-4,7V11h4v5Z"/><path d="M16,23H12V9h4a4.0042,4.0042,0,0,1,4,4v6A4.0039,4.0039,0,0,1,16,23Zm-2-2h2a2.0027,2.0027,0,0,0,2-2V13a2.0023,2.0023,0,0,0-2-2H14Z"/><path d="M10,23H4a2.0023,2.0023,0,0,1-2-2V11A2.002,2.002,0,0,1,4,9h6v2H4V21h6Z"/><rect id="_Transparent_Rectangle_" data-name="&lt;Transparent Rectangle&gt;" class="cls-1" width="32" height="32"/></svg>