<svg id="icon" xmlns="http://www.w3.org/2000/svg" width="32" height="32" viewBox="0 0 32 32">
  <defs>
    <style>
      .cls-1 {
        fill: none;
      }
    </style>
  </defs>
  <title>chart--population</title>
  <path d="M30,22H17V20h9V14H17V12h5V6H17V2H15V6H10v6h5v2H6v6h9v2H2v6H15v2h2V28H30ZM20,8v2H17V8Zm-8,2V8h3v2Zm12,6v2H17V16ZM8,18V16h7v2ZM4,26V24H15v2Zm24,0H17V24H28Z"/>
  <rect id="_Transparent_Rectangle_" data-name="&lt;Transparent Rectangle&gt;" class="cls-1" width="32" height="32"/>
</svg>
