<svg id="icon" xmlns="http://www.w3.org/2000/svg" width="32" height="32" viewBox="0 0 32 32"><defs><style>.cls-1{fill:none;}</style></defs><title>data--reference</title><polygon points="25 13 25 4 23 4 23 6 20 6 20 8 23 8 23 13 20 13 20 15 28 15 28 13 25 13"/><path d="M8.5,6A3.5,3.5,0,1,1,5,9.5,3.504,3.504,0,0,1,8.5,6m0-2A5.5,5.5,0,1,0,14,9.5,5.5,5.5,0,0,0,8.5,4Z"/><path d="M23.5,20A3.5,3.5,0,1,1,20,23.5,3.504,3.504,0,0,1,23.5,20m0-2A5.5,5.5,0,1,0,29,23.5,5.5,5.5,0,0,0,23.5,18Z"/><polygon points="6 19 6 21 9.586 21 4 26.586 5.414 28 11 22.414 11 26 13 26 13 19 6 19"/><rect id="_Transparent_Rectangle_" data-name="&lt;Transparent Rectangle&gt;" class="cls-1" width="32" height="32"/></svg>