<svg id="icon" xmlns="http://www.w3.org/2000/svg" width="32" height="32" viewBox="0 0 32 32">
  <defs>
    <style>
      .cls-1 {
        fill: none;
      }
    </style>
  </defs>
  <title>direction--merge</title>
  <path d="M17.8784,15.4648A2.9821,2.9821,0,0,1,17,13.3433V7.8281l4.5859,4.586L23,11,16,4,9,11l1.4141,1.4141L15,7.8281v5.5152a2.9805,2.9805,0,0,1-.8784,2.1211l-2.6572,2.6567A4.9682,4.9682,0,0,0,10,21.6567V28h2V21.6567a2.9805,2.9805,0,0,1,.8784-2.1211l2.6572-2.6567A5.0021,5.0021,0,0,0,16,16.3135a5.0021,5.0021,0,0,0,.4644.5654l2.6572,2.6563A2.9821,2.9821,0,0,1,20,21.6567V28h2V21.6567a4.9682,4.9682,0,0,0-1.4644-3.5356Z"/>
  <rect id="_Transparent_Rectangle_" data-name="&lt;Transparent Rectangle&gt;" class="cls-1" width="32" height="32"/>
</svg>
