<?xml version="1.0" encoding="utf-8"?>
<!-- Generator: Adobe Illustrator 24.0.3, SVG Export Plug-In . SVG Version: 6.00 Build 0)  -->
<svg version="1.1" id="icon" xmlns="http://www.w3.org/2000/svg" xmlns:xlink="http://www.w3.org/1999/xlink" x="0px" y="0px"
	 width="32px" height="32px" viewBox="0 0 32 32" style="enable-background:new 0 0 32 32;" xml:space="preserve">
<style type="text/css">
	.st0{fill:none;}
</style>
<title>folder--add</title>
<polygon points="26,20 24,20 24,24 20,24 20,26 24,26 24,30 26,30 26,26 30,26 30,24 26,24 "/>
<path d="M28,8H16l-3.4-3.4C12.2,4.2,11.7,4,11.2,4H4C2.9,4,2,4.9,2,6v20c0,1.1,0.9,2,2,2h14v-2H4V6h7.2l3.4,3.4l0.6,0.6H28v8h2v-8
	C30,8.9,29.1,8,28,8z"/>
<rect id="_Transparent_Rectangle_" class="st0" width="32" height="32"/>
</svg>
