<svg id="icon" xmlns="http://www.w3.org/2000/svg" width="32" height="32" viewBox="0 0 32 32"><defs><style>.cls-1{fill:none;}</style></defs><title>forum</title><path d="M27,7H10a3.0033,3.0033,0,0,0-3,3V21a3.0033,3.0033,0,0,0,3,3h6V22H10a1.0009,1.0009,0,0,1-1-1V10a1.0013,1.0013,0,0,1,1-1H27a1.0009,1.0009,0,0,1,1,1V21a1.0006,1.0006,0,0,1-1,1H21.8L17,28.8535,18.6387,30l4.2021-6H27a3.0033,3.0033,0,0,0,3-3V10A3.0033,3.0033,0,0,0,27,7Z"/><path d="M3,17H1V4A3.0033,3.0033,0,0,1,4,1H17V3H4A1.0013,1.0013,0,0,0,3,4Z"/><rect id="_Transparent_Rectangle_" data-name="&lt;Transparent Rectangle&gt;" class="cls-1" width="32" height="32"/></svg>