<svg id="icon" xmlns="http://www.w3.org/2000/svg" width="32" height="32" viewBox="0 0 32 32">
  <defs>
    <style>
      .cls-1 {
        fill: none;
      }
    </style>
  </defs>
  <title>gradient</title>
  <rect x="14" y="10" width="4" height="4"/>
  <rect x="14" y="18" width="4" height="4"/>
  <rect x="18" y="14" width="4" height="4"/>
  <path d="M28,4H4A2.0023,2.0023,0,0,0,2,6V26a2.0023,2.0023,0,0,0,2,2H28a2.0023,2.0023,0,0,0,2-2V6A2.0023,2.0023,0,0,0,28,4ZM22,26V22H18v4H14V22H10V18h4V14H10V10h4V6h4v4h4V6h6V26Z"/>
  <rect id="_Transparent_Rectangle_" data-name="&lt;Transparent Rectangle&gt;" class="cls-1" width="32" height="32"/>
</svg>
