<svg id="icon" xmlns="http://www.w3.org/2000/svg" viewBox="0 0 32 32"><defs><style>.cls-1{fill:none;}</style></defs><title>help--filled</title><path d="M16,2A14,14,0,1,0,30,16,14,14,0,0,0,16,2Zm0,23a1.5,1.5,0,1,1,1.5-1.5A1.5,1.5,0,0,1,16,25Zm1.14-7.75v2.5H14.89V15H17a2.38,2.38,0,0,0,0-4.75h-1.5a2.38,2.38,0,0,0-2.38,2.37v.64H10.89v-.64A4.63,4.63,0,0,1,15.52,8H17a4.63,4.63,0,0,1,.12,9.25Z" transform="translate(0)"/><rect id="_Transparent_Rectangle_" data-name="&lt;Transparent Rectangle&gt;" class="cls-1" width="32" height="32"/></svg>