<svg id="icon" xmlns="http://www.w3.org/2000/svg" width="32" height="32" viewBox="0 0 32 32"><defs><style>.cls-1{fill:none;}</style></defs><title>hurricane</title><circle cx="16" cy="16" r="2"/><path d="M16,7a8.9658,8.9658,0,0,0-2.6547.4006A15.6132,15.6132,0,0,1,16.811,5.5767,25.9687,25.9687,0,0,1,25.001,4L25,2C24.82,2,7,2.16,7,16A9,9,0,0,0,18.6547,24.6a15.61,15.61,0,0,1-3.4657,1.8234A25.9749,25.9749,0,0,1,7,28l0,2c.18,0,18-.16,18-14A9.01,9.01,0,0,0,16,7Zm0,16a7,7,0,1,1,7-7A7.0081,7.0081,0,0,1,16,23Z"/><rect id="_Transparent_Rectangle_" data-name="&lt;Transparent Rectangle&gt;" class="cls-1" width="32" height="32"/></svg>