<svg id="icon" xmlns="http://www.w3.org/2000/svg" viewBox="0 0 32 32"><defs><style>.cls-1{fill:none;}</style></defs><title>logo--stumbleupon</title><path d="M16,2A14,14,0,1,0,30,16,14,14,0,0,0,16,2Zm-.09,10.45a.84.84,0,0,0-.84.84v5.14a3.55,3.55,0,0,1-7.1,0V16.09h2.71v2.24a.84.84,0,0,0,1.68,0v-5a3.55,3.55,0,0,1,7.09,0v1l-1.58.51-1.12-.51v-1A.85.85,0,0,0,15.91,12.45Zm7.93,6a3.55,3.55,0,0,1-7.09,0V16.14l1.12.51,1.58-.51v2.29a.84.84,0,0,0,1.68,0V16.19h2.71Z" transform="translate(0 0)"/><rect id="_Transparent_Rectangle_" data-name="&lt;Transparent Rectangle&gt;" class="cls-1" width="32" height="32"/></svg>