<svg id="icon" xmlns="http://www.w3.org/2000/svg" width="32" height="32" viewBox="0 0 32 32"><defs><style>.cls-1{fill:none;}</style></defs><title>mobile--download</title><polygon points="28 25 26.586 23.586 24 26.172 24 18 22 18 22 26.172 19.414 23.586 18 25 23 30 28 25"/><path d="M10,28V10H22v5h2V6a2.0023,2.0023,0,0,0-2-2H10A2.002,2.002,0,0,0,8,6V28a2.0023,2.0023,0,0,0,2,2h6V28ZM10,6H22l0,2H10Z"/><rect id="_Transparent_Rectangle_" data-name="&lt;Transparent Rectangle&gt;" class="cls-1" width="32" height="32"/></svg>