<svg id="icon" xmlns="http://www.w3.org/2000/svg" width="32" height="32" viewBox="0 0 32 32">
  <defs>
    <style>
      .cls-1 {
        fill: none;
      }
    </style>
  </defs>
  <title>model-builder</title>
  <path d="M22,4V7H10V4H2v8h8V9h7.0234A4.9468,4.9468,0,0,0,16,12v8a3.0033,3.0033,0,0,1-3,3H10V20H2v8h8V25H13a5.0057,5.0057,0,0,0,5-5V12a2.999,2.999,0,0,1,3-3h1v3h8V4ZM8,10H4V6H8ZM8,26H4V22H8ZM28,10H24V6h4Z"/>
  <rect id="_Transparent_Rectangle_" data-name="&lt;Transparent Rectangle&gt;" class="cls-1" width="32" height="32"/>
</svg>
