<svg id="icon" xmlns="http://www.w3.org/2000/svg" width="32" height="32" viewBox="0 0 32 32"><defs><style>.cls-1{fill:none;}</style></defs><title>model--reference</title><polygon points="4 21 4 23 7.586 23 2 28.586 3.414 30 9 24.414 9 28 11 28 11 21 4 21"/><path d="M23.5,4H8.5l-6,8-.7843,1.0454L6.8773,19l1.3233-1.5264L5.19,14h5.1119L16,29.5269,30.2842,13.0454ZM27,12H21.5543l-3.75-6H22.5Zm-7.8044,0H12.8043L16,6.8867ZM5,12,9.5,6h4.6957l-3.75,6ZM15.999,23.7212,12.4318,14H19.568Zm1.9437.51L21.6978,14H26.81Z" transform="translate(0)"/><rect id="_Transparent_Rectangle_" data-name="&lt;Transparent Rectangle&gt;" class="cls-1" width="32" height="32"/></svg>