<svg id="icon" xmlns="http://www.w3.org/2000/svg" width="32" height="32" viewBox="0 0 32 32"><defs><style>.cls-1{fill:#272425;}.cls-2{fill:none;}</style></defs><title>omega</title><path class="cls-1" d="M22.7373,25A14.3093,14.3093,0,0,0,27,15C27,8.42,22.58,4,16,4S5,8.42,5,15A14.3093,14.3093,0,0,0,9.2627,25H4v2h9V25.4722l-.4355-.2979A12.646,12.646,0,0,1,7,15c0-5.4673,3.5327-9,9-9s9,3.5327,9,9a12.5671,12.5671,0,0,1-5,9.7615V27h8V25Z"/><rect id="_Transparent_Rectangle_" data-name="&lt;Transparent Rectangle&gt;" class="cls-2" width="32" height="32"/></svg>