<svg id="icon" xmlns="http://www.w3.org/2000/svg" viewBox="0 0 32 32"><defs><style>.cls-1{fill:none;}</style></defs><title>cloud--rain</title><path d="M23.5,22H8.5A6.5,6.5,0,0,1,7.2,9.14a9,9,0,0,1,17.6,0A6.5,6.5,0,0,1,23.5,22ZM16,4a7,7,0,0,0-6.94,6.14L9,11,8.14,11a4.5,4.5,0,0,0,.36,9h15a4.5,4.5,0,0,0,.36-9L23,11l-.1-.82A7,7,0,0,0,16,4Z"/><path d="M14,30a.93.93,0,0,1-.45-.11,1,1,0,0,1-.44-1.34l2-4a1,1,0,1,1,1.78.9l-2,4A1,1,0,0,1,14,30Z"/><path d="M20,30a.93.93,0,0,1-.45-.11,1,1,0,0,1-.44-1.34l2-4a1,1,0,1,1,1.78.9l-2,4A1,1,0,0,1,20,30Z"/><path d="M8,30a.93.93,0,0,1-.45-.11,1,1,0,0,1-.44-1.34l2-4a1,1,0,1,1,1.78.9l-2,4A1,1,0,0,1,8,30Z"/><rect class="cls-1" width="32" height="32"/></svg>