<svg id="icon" xmlns="http://www.w3.org/2000/svg" width="32" height="32" viewBox="0 0 32 32"><defs><style>.cls-1{fill:none;}</style></defs><title>restaurant--fine</title><path d="M30,11.0005v-8a1,1,0,0,0-1-1H19a1,1,0,0,0-1,1v8A6.0039,6.0039,0,0,0,23,16.91V28H19v2H29V28H25V16.91A6.0039,6.0039,0,0,0,30,11.0005Zm-10,0V4h8v7.0005a4,4,0,1,1-8,0Z" transform="translate(0 0)"/><path d="M12,2v9.02a3.9644,3.9644,0,0,1-3.96,3.96A4.0052,4.0052,0,0,1,4,11.02V2H2v9.02a5.9888,5.9888,0,0,0,5,5.8652V30H9V16.8953A5.9646,5.9646,0,0,0,14,11.02V2Z" transform="translate(0 0)"/><rect x="7" y="2" width="2" height="9.98"/><rect id="_Transparent_Rectangle_" data-name="&lt;Transparent Rectangle&gt;" class="cls-1" width="32" height="32"/></svg>