<svg id="icon" xmlns="http://www.w3.org/2000/svg" width="32" height="32" viewBox="0 0 32 32">
  <defs>
    <style>
      .cls-1 {
        fill: none;
      }
    </style>
  </defs>
  <title>scatter-matrix</title>
  <circle cx="9.5" cy="9.5" r="2.5"/>
  <circle cx="9.5" cy="22.5" r="2.5"/>
  <circle cx="22.5" cy="22.5" r="2.5"/>
  <path d="M28,2H4A2.0023,2.0023,0,0,0,2,4V28a2.0023,2.0023,0,0,0,2,2H28a2.0023,2.0023,0,0,0,2-2V4A2.0023,2.0023,0,0,0,28,2Zm0,13H17V4H28ZM15,4V15H4V4ZM4,17H15V28H4ZM17,28V17H28V28Z"/>
  <rect id="_Transparent_Rectangle_" data-name="&lt;Transparent Rectangle&gt;" class="cls-1" width="32" height="32"/>
</svg>
