<svg id="icon" xmlns="http://www.w3.org/2000/svg" viewBox="0 0 32 32"><defs><style>.cls-1{fill:none;}</style></defs><title>settings--adjust</title><path d="M30,7H24.9a5,5,0,0,0-9.8,0H2V9H15.1a5,5,0,0,0,9.8,0H30ZM20,11a3,3,0,1,1,3-3A3,3,0,0,1,20,11Z" transform="translate(0 0)"/><path d="M2,25H7.1a5,5,0,0,0,9.8,0H30V23H16.9a5,5,0,0,0-9.8,0H2Zm7-1a3,3,0,1,1,3,3A3,3,0,0,1,9,24Z" transform="translate(0 0)"/><rect id="_Transparent_Rectangle_" data-name="&lt;Transparent Rectangle&gt;" class="cls-1" width="32" height="32"/></svg>