<svg id="icon" xmlns="http://www.w3.org/2000/svg" viewBox="0 0 32 32"><defs><style>.cls-1{fill:none;}</style></defs><title>SVG</title><path d="M30,23H24a2,2,0,0,1-2-2V11a2,2,0,0,1,2-2h6v2H24V21h4V17H26V15h4Z" transform="translate(0 0)"/><polygon points="18 9 16 22 14 9 12 9 14.52 23 17.48 23 20 9 18 9"/><path d="M8,23H2V21H8V17H4a2,2,0,0,1-2-2V11A2,2,0,0,1,4,9h6v2H4v4H8a2,2,0,0,1,2,2v4A2,2,0,0,1,8,23Z" transform="translate(0 0)"/><rect id="_Transparent_Rectangle_" data-name="&lt;Transparent Rectangle&gt;" class="cls-1" width="32" height="32" transform="translate(32 32) rotate(-180)"/></svg>