<svg id="icon" xmlns="http://www.w3.org/2000/svg" viewBox="0 0 32 32"><defs><style>.cls-1{fill:none;}</style></defs><title>cloud--lightning</title><path d="M23.5,22H23V20h.5a4.5,4.5,0,0,0,.36-9L23,11l-.1-.82a7,7,0,0,0-13.88,0L9,11,8.14,11a4.5,4.5,0,0,0,.36,9H9v2H8.5A6.5,6.5,0,0,1,7.2,9.14a9,9,0,0,1,17.6,0A6.5,6.5,0,0,1,23.5,22Z"/><polygon points="15.87 30.5 14.13 29.5 17.28 24 11.28 24 16.13 15.5 17.87 16.5 14.72 22 20.72 22 15.87 30.5"/><rect id="_Transparent_Rectangle_" data-name="&lt;Transparent Rectangle&gt;" class="cls-1" width="32" height="32"/></svg>