<svg id="icon" xmlns="http://www.w3.org/2000/svg" viewBox="0 0 32 32"><defs><style>.cls-1{fill:none;}</style></defs><title>volume--mute--filled</title><polygon points="31 12.41 29.59 11 26 14.59 22.41 11 21 12.41 24.59 16 21 19.59 22.41 21 26 17.41 29.59 21 31 19.59 27.41 16 31 12.41"/><path d="M18,30a1,1,0,0,1-.71-.3L9.67,22H3a1,1,0,0,1-1-1H2V11a1,1,0,0,1,1-1H9.67l7.62-7.7a1,1,0,0,1,1.41,0A1,1,0,0,1,19,3V29A1,1,0,0,1,18,30Z"/><rect id="_Transparent_Rectangle_" data-name="&lt;Transparent Rectangle&gt;" class="cls-1" width="32" height="32"/></svg>