<svg id="icon" xmlns="http://www.w3.org/2000/svg" width="32" height="32" viewBox="0 0 32 32"><defs><style>.cls-1{fill:none;}</style></defs><title>warning--alt-inverted</title><path d="M16,17a1.5,1.5,0,1,0,1.5,1.5A1.5,1.5,0,0,0,16,17Z"/><rect x="15" y="6" width="2" height="9"/><path d="M29.855,2.4815a.999.999,0,0,1,.0322.9794l-13,25a1.0408,1.0408,0,0,1-1.7744,0l-13-25A1,1,0,0,1,3,2H29A1,1,0,0,1,29.855,2.4815ZM16,25.832,27.353,4H4.647Z"/><rect id="_Transparent_Rectangle_" data-name="&lt;Transparent Rectangle&gt;" class="cls-1" width="32" height="32"/></svg>