<svg id="icon" xmlns="http://www.w3.org/2000/svg" viewBox="0 0 32 32"><defs><style>.cls-1{fill:none;}</style></defs><title>watson-health--spine-label</title><polygon points="3 11 3 13 8.59 13 2.29 19.29 3.71 20.71 10 14.41 10 20 12 20 12 11 3 11"/><path d="M26,13H23V12H21v1H18a2,2,0,0,0-2,2v2a2,2,0,0,0,2,2h3v1h2V19h3a2,2,0,0,0,2-2V15A2,2,0,0,0,26,13Zm-8,4V15h8v2Z"/><path d="M26,23H23V22H21v1H18a2,2,0,0,0-2,2v2a2,2,0,0,0,2,2h3v1h2V29h3a2,2,0,0,0,2-2V25A2,2,0,0,0,26,23Zm-8,4V25h8v2Z"/><path d="M26,3H23V2H21V3H18a2,2,0,0,0-2,2V7a2,2,0,0,0,2,2h3v1h2V9h3a2,2,0,0,0,2-2V5A2,2,0,0,0,26,3ZM18,7V5h8V7Z"/><rect id="_Transparent_Rectangle_" data-name="&lt;Transparent Rectangle&gt;" class="cls-1" width="32" height="32"/></svg>