<?xml version="1.0" encoding="UTF-8"?>
<svg width="352px" height="352px" viewBox="0 0 352 352" version="1.1" xmlns="http://www.w3.org/2000/svg" xmlns:xlink="http://www.w3.org/1999/xlink">
    <!-- Generator: Sketch 52.4 (67378) - http://www.bohemiancoding.com/sketch -->
    <title>Layout_overview_Paddings-do</title>
    <desc>Created with Sketch.</desc>
    <defs>
        <rect id="path-1" x="0.777777778" y="0" width="218.777778" height="158.888889"></rect>
    </defs>
    <g id="Paddings-do" stroke="none" stroke-width="1" fill="none" fill-rule="evenodd">
        <g id="Group" transform="translate(64.000000, 110.000000)">
            <g id="Rectangle-17-Copy-387">
                <use fill="#FFFFFF" fill-rule="evenodd" xlink:href="#path-1"></use>
                <rect stroke="#97C1FF" stroke-width="1.22222222" x="0.166666667" y="-0.611111111" width="220" height="160.111111"></rect>
                <rect stroke="#EDF4FF" stroke-width="12.2222222" stroke-linejoin="square" x="6.88888889" y="6.11111111" width="206.555556" height="146.666667"></rect>
            </g>
            <path d="M34.1493333,46.4444444 L31.1377778,46.4444444 L28.7422222,39.3946667 L19.0915556,39.3946667 L16.696,46.4444444 L13.7871111,46.4444444 L22.1373333,22.5573333 L25.7991111,22.5573333 L34.1493333,46.4444444 Z M28.0235556,36.8622222 L23.9853333,25.2266667 L23.8142222,25.2266667 L19.776,36.8622222 L28.0235556,36.8622222 Z M43.184,46.4444444 L40.7542222,46.4444444 C38.872,46.4444444 37.8453333,45.2466667 37.8453333,43.604 L37.8453333,21.12 L40.5831111,21.12 L40.5831111,44.0488889 L43.184,44.0488889 L43.184,46.4444444 Z M49.8573333,46.4444444 L45.1346667,28.7857778 L47.804,28.7857778 L49.6862222,36.4173333 L51.5684444,44.1515556 L51.6368889,44.1515556 L53.7928889,36.4173333 L56.0173333,28.7857778 L58.4471111,28.7857778 L60.74,36.4173333 L62.9302222,44.1515556 L62.9986667,44.1515556 L64.8124444,36.4173333 L66.7288889,28.7857778 L69.2955556,28.7857778 L64.6071111,46.4444444 L61.2191111,46.4444444 L58.7551111,37.9573333 L57.2151111,32.5844444 L57.1466667,32.5844444 L55.6408889,37.9573333 L53.1768889,46.4444444 L49.8573333,46.4444444 Z M87.3306667,46.4444444 L85.7906667,46.4444444 C83.7715556,46.4444444 82.9502222,45.2124444 82.7448889,43.5697778 L82.5737778,43.5697778 C81.8208889,45.7257778 79.9386667,46.8551111 77.4746667,46.8551111 C73.7444444,46.8551111 71.5542222,44.8017778 71.5542222,41.5164444 C71.5542222,38.1968889 73.9497778,36.3488889 79.0831111,36.3488889 L82.5737778,36.3488889 L82.5737778,34.6035556 C82.5737778,32.1053333 81.2048889,30.7364444 78.3986667,30.7364444 C76.2768889,30.7364444 74.8737778,31.7631111 73.9155556,33.3715556 L72.2728889,31.8315556 C73.2311111,29.9493333 75.3528889,28.3751111 78.5355556,28.3751111 C82.7791111,28.3751111 85.3115556,30.5995556 85.3115556,34.3297778 L85.3115556,44.0488889 L87.3306667,44.0488889 L87.3306667,46.4444444 Z M77.9195556,44.528 C80.6231111,44.528 82.5737778,43.1248889 82.5737778,41.3111111 L82.5737778,38.4022222 L78.9462222,38.4022222 C75.832,38.4022222 74.4288889,39.3604444 74.4288889,41.0715556 L74.4288889,41.7902222 C74.4288889,43.5355556 75.7977778,44.528 77.9195556,44.528 Z M97.6657778,40.7977778 L101.943556,28.7857778 L104.647111,28.7857778 L96.7417778,50.5511111 C95.9546667,52.6728889 95.236,53.2888889 92.6351111,53.2888889 L91.232,53.2888889 L91.232,50.8933333 L94.004,50.8933333 L95.3386667,47.1288889 L88.7337778,28.7857778 L91.4715556,28.7857778 L95.7151111,40.7977778 L96.5364444,43.6724444 L96.7075556,43.6724444 L97.6657778,40.7977778 Z M113.305333,46.8551111 C110.054222,46.8551111 107.898222,45.4862222 106.324,43.3986667 L108.274667,41.8244444 C109.643556,43.5355556 111.286222,44.528 113.510667,44.528 C115.837778,44.528 117.206667,43.4671111 117.206667,41.6533333 C117.206667,40.2844444 116.453778,39.2235556 114.126667,38.8813333 L112.723556,38.676 C109.472444,38.1968889 107.042667,36.8622222 107.042667,33.5768889 C107.042667,30.0862222 109.746222,28.3751111 113.339556,28.3751111 C116.18,28.3751111 118.062222,29.436 119.499556,31.2155556 L117.685778,32.8582222 C116.898667,31.7631111 115.392889,30.7022222 113.134222,30.7022222 C110.875556,30.7022222 109.677778,31.7631111 109.677778,33.44 C109.677778,35.1511111 110.875556,35.8355556 113.065778,36.1777778 L114.434667,36.3831111 C118.336,36.9648889 119.841778,38.676 119.841778,41.3453333 C119.841778,44.7675556 117.343556,46.8551111 113.305333,46.8551111 Z M133.701778,46.4444444 L133.701778,31.1813333 L130.827111,31.1813333 L130.827111,28.7857778 L133.701778,28.7857778 L133.701778,25.2266667 C133.701778,22.7968889 134.968,21.12 137.568889,21.12 L140.238222,21.12 L140.238222,23.5155556 L136.439556,23.5155556 L136.439556,28.7857778 L140.238222,28.7857778 L140.238222,31.1813333 L136.439556,31.1813333 L136.439556,46.4444444 L133.701778,46.4444444 Z M149.170222,46.4444444 L146.740444,46.4444444 C144.858222,46.4444444 143.831556,45.2466667 143.831556,43.604 L143.831556,21.12 L146.569333,21.12 L146.569333,44.0488889 L149.170222,44.0488889 L149.170222,46.4444444 Z M164.022667,46.4444444 L164.022667,43.5697778 L163.885778,43.5697778 C163.201333,45.2466667 161.866667,46.8551111 158.923556,46.8551111 C155.296,46.8551111 152.968889,44.3911111 152.968889,40.1133333 L152.968889,28.7857778 L155.706667,28.7857778 L155.706667,39.6342222 C155.706667,42.7826667 157.109778,44.3911111 159.744889,44.3911111 C161.900889,44.3911111 164.022667,43.3302222 164.022667,41.0031111 L164.022667,28.7857778 L166.760444,28.7857778 L166.760444,46.4444444 L164.022667,46.4444444 Z M177.882667,46.8551111 C174.631556,46.8551111 172.475556,45.4862222 170.901333,43.3986667 L172.852,41.8244444 C174.220889,43.5355556 175.863556,44.528 178.088,44.528 C180.415111,44.528 181.784,43.4671111 181.784,41.6533333 C181.784,40.2844444 181.031111,39.2235556 178.704,38.8813333 L177.300889,38.676 C174.049778,38.1968889 171.62,36.8622222 171.62,33.5768889 C171.62,30.0862222 174.323556,28.3751111 177.916889,28.3751111 C180.757333,28.3751111 182.639556,29.436 184.076889,31.2155556 L182.263111,32.8582222 C181.476,31.7631111 179.970222,30.7022222 177.711556,30.7022222 C175.452889,30.7022222 174.255111,31.7631111 174.255111,33.44 C174.255111,35.1511111 175.452889,35.8355556 177.643111,36.1777778 L179.012,36.3831111 C182.913333,36.9648889 184.419111,38.676 184.419111,41.3453333 C184.419111,44.7675556 181.920889,46.8551111 177.882667,46.8551111 Z M189.244444,46.4444444 L189.244444,21.12 L191.982222,21.12 L191.982222,31.6604444 L192.119111,31.6604444 C192.974667,29.6755556 194.480444,28.3751111 197.115556,28.3751111 C200.743111,28.3751111 203.036,30.8391111 203.036,35.1168889 L203.036,46.4444444 L200.298222,46.4444444 L200.298222,35.596 C200.298222,32.4475556 198.929333,30.8391111 196.294222,30.8391111 C194.104,30.8391111 191.982222,31.9342222 191.982222,34.1928889 L191.982222,46.4444444 L189.244444,46.4444444 Z M21.2475556,88 L18.8177778,88 C16.9355556,88 15.9088889,86.8022222 15.9088889,85.1595556 L15.9088889,62.6755556 L18.6466667,62.6755556 L18.6466667,85.6044444 L21.2475556,85.6044444 L21.2475556,88 Z M31.8564444,88.4106667 C27.0653333,88.4106667 23.9168889,84.7831111 23.9168889,79.1706667 C23.9168889,73.5582222 27.0653333,69.9306667 31.8564444,69.9306667 C36.5791111,69.9306667 39.488,73.5582222 39.488,78.5546667 L39.488,79.8551111 L26.7915556,79.8551111 L26.7915556,80.6764444 C26.7915556,83.7222222 28.7422222,86.0151111 32.0275556,86.0151111 C34.252,86.0151111 35.9631111,84.92 36.8871111,82.9693333 L38.8377778,84.3724444 C37.7084444,86.768 35.176,88.4106667 31.8564444,88.4106667 Z M31.8564444,72.2235556 C28.8791111,72.2235556 26.7915556,74.4822222 26.7915556,77.5622222 L26.7915556,77.8017778 L36.5448889,77.8017778 L36.5448889,77.4253333 C36.5448889,74.3111111 34.6626667,72.2235556 31.8564444,72.2235556 Z M44.9635556,88 L44.9635556,72.7368889 L42.0888889,72.7368889 L42.0888889,70.3413333 L44.9635556,70.3413333 L44.9635556,66.7822222 C44.9635556,64.3524444 46.2297778,62.6755556 48.8306667,62.6755556 L51.5,62.6755556 L51.5,65.0711111 L47.7013333,65.0711111 L47.7013333,70.3413333 L51.5,70.3413333 L51.5,72.7368889 L47.7013333,72.7368889 L47.7013333,88 L44.9635556,88 Z M62.4168889,88 L58.9946667,88 C57.1124444,88 56.0857778,86.8022222 56.0857778,85.0911111 L56.0857778,72.7368889 L53.1768889,72.7368889 L53.1768889,70.3413333 L54.8195556,70.3413333 C55.9831111,70.3413333 56.3595556,69.9306667 56.3595556,68.7328889 L56.3595556,65.4475556 L58.8235556,65.4475556 L58.8235556,70.3413333 L62.6906667,70.3413333 L62.6906667,72.7368889 L58.8235556,72.7368889 L58.8235556,85.6044444 L62.4168889,85.6044444 L62.4168889,88 Z M82.5053333,88 L79.0831111,88 C77.2008889,88 76.1742222,86.8022222 76.1742222,85.0911111 L76.1742222,72.7368889 L73.2653333,72.7368889 L73.2653333,70.3413333 L74.908,70.3413333 C76.0715556,70.3413333 76.448,69.9306667 76.448,68.7328889 L76.448,65.4475556 L78.912,65.4475556 L78.912,70.3413333 L82.7791111,70.3413333 L82.7791111,72.7368889 L78.912,72.7368889 L78.912,85.6044444 L82.5053333,85.6044444 L82.5053333,88 Z M93.7986667,82.3533333 L98.0764444,70.3413333 L100.78,70.3413333 L92.8746667,92.1066667 C92.0875556,94.2284444 91.3688889,94.8444444 88.768,94.8444444 L87.3648889,94.8444444 L87.3648889,92.4488889 L90.1368889,92.4488889 L91.4715556,88.6844444 L84.8666667,70.3413333 L87.6044444,70.3413333 L91.848,82.3533333 L92.6693333,85.228 L92.8404444,85.228 L93.7986667,82.3533333 Z M104.270667,94.8444444 L104.270667,70.3413333 L107.008444,70.3413333 L107.008444,73.216 L107.145333,73.216 C108.069333,70.9915556 109.883111,69.9306667 112.312889,69.9306667 C116.727556,69.9306667 119.499556,73.524 119.499556,79.1706667 C119.499556,84.8173333 116.727556,88.4106667 112.312889,88.4106667 C109.883111,88.4106667 108.206222,87.3155556 107.145333,85.1253333 L107.008444,85.1253333 L107.008444,94.8444444 L104.270667,94.8444444 Z M111.56,85.9466667 C114.64,85.9466667 116.556444,83.8248889 116.556444,80.6764444 L116.556444,77.6648889 C116.556444,74.5164444 114.64,72.3946667 111.56,72.3946667 C109.061778,72.3946667 107.008444,73.832 107.008444,75.7826667 L107.008444,82.3533333 C107.008444,84.6462222 109.061778,85.9466667 111.56,85.9466667 Z M130.758667,88.4106667 C125.967556,88.4106667 122.819111,84.7831111 122.819111,79.1706667 C122.819111,73.5582222 125.967556,69.9306667 130.758667,69.9306667 C135.481333,69.9306667 138.390222,73.5582222 138.390222,78.5546667 L138.390222,79.8551111 L125.693778,79.8551111 L125.693778,80.6764444 C125.693778,83.7222222 127.644444,86.0151111 130.929778,86.0151111 C133.154222,86.0151111 134.865333,84.92 135.789333,82.9693333 L137.74,84.3724444 C136.610667,86.768 134.078222,88.4106667 130.758667,88.4106667 Z M130.758667,72.2235556 C127.781333,72.2235556 125.693778,74.4822222 125.693778,77.5622222 L125.693778,77.8017778 L135.447111,77.8017778 L135.447111,77.4253333 C135.447111,74.3111111 133.564889,72.2235556 130.758667,72.2235556 Z" id="Always-flush-left-ty" fill="#3D3D3D"></path>
            <rect id="Rectangle-5" stroke="#DCDCDC" stroke-width="0.611111111" x="13.3055556" y="12.5277778" width="193.722222" height="89.8333333"></rect>
            <rect id="Rectangle-8" stroke="#DCDCDC" stroke-width="0.611111111" fill="#FFFFFF" x="10.8611111" y="10.0833333" width="4.27777778" height="4.27777778"></rect>
            <rect id="Rectangle-8-Copy-20" stroke="#DCDCDC" stroke-width="0.611111111" fill="#FFFFFF" x="10.8611111" y="100.527778" width="4.27777778" height="4.27777778"></rect>
            <rect id="Rectangle-8-Copy-16" stroke="#DCDCDC" stroke-width="0.611111111" fill="#FFFFFF" x="108.638889" y="10.0833333" width="4.27777778" height="4.27777778"></rect>
            <rect id="Rectangle-8-Copy-21" stroke="#DCDCDC" stroke-width="0.611111111" fill="#FFFFFF" x="108.638889" y="100.527778" width="4.27777778" height="4.27777778"></rect>
            <rect id="Rectangle-8-Copy-17" stroke="#DCDCDC" stroke-width="0.611111111" fill="#FFFFFF" x="205.194444" y="10.0833333" width="4.27777778" height="4.27777778"></rect>
            <rect id="Rectangle-8-Copy-18" stroke="#DCDCDC" stroke-width="0.611111111" fill="#FFFFFF" x="205.194444" y="55.3055556" width="4.27777778" height="4.27777778"></rect>
            <rect id="Rectangle-8-Copy-22" stroke="#DCDCDC" stroke-width="0.611111111" fill="#FFFFFF" x="10.8611111" y="55.3055556" width="4.27777778" height="4.27777778"></rect>
            <rect id="Rectangle-8-Copy-19" stroke="#DCDCDC" stroke-width="0.611111111" fill="#FFFFFF" x="205.194444" y="100.527778" width="4.27777778" height="4.27777778"></rect>
        </g>
    </g>
</svg>