<?xml version="1.0" encoding="UTF-8"?>
<svg width="1120px" height="630px" viewBox="0 0 1120 630" version="1.1" xmlns="http://www.w3.org/2000/svg" xmlns:xlink="http://www.w3.org/1999/xlink">
    <!-- Generator: Sketch 52.4 (67378) - http://www.bohemiancoding.com/sketch -->
    <title>Layout_overview_Paddings</title>
    <desc>Created with Sketch.</desc>
    <defs>
        <polygon id="path-1" points="0 363.037975 59.2905983 363.037975 59.2905983 452.587342 0 452.587342"></polygon>
        <polygon id="path-2" points="60.5006105 363.037975 119.791209 363.037975 119.791209 452.587342 60.5006105 452.587342"></polygon>
        <polygon id="path-3" points="121.001221 363.037975 180.291819 363.037975 180.291819 452.587342 121.001221 452.587342"></polygon>
        <polygon id="path-4" points="181.501832 363.037975 240.79243 363.037975 240.79243 452.587342 181.501832 452.587342"></polygon>
        <polygon id="path-5" points="242.002442 363.037975 301.29304 363.037975 301.29304 452.587342 242.002442 452.587342"></polygon>
        <polygon id="path-6" points="302.503053 363.037975 361.793651 363.037975 361.793651 452.587342 302.503053 452.587342"></polygon>
        <polygon id="path-7" points="363.003663 363.037975 422.294261 363.037975 422.294261 452.587342 363.003663 452.587342"></polygon>
        <polygon id="path-8" points="423.504274 363.037975 482.794872 363.037975 482.794872 452.587342 423.504274 452.587342"></polygon>
        <polygon id="path-9" points="484.004884 363.037975 543.295482 363.037975 543.295482 452.587342 484.004884 452.587342"></polygon>
        <polygon id="path-10" points="544.505495 363.037975 603.796093 363.037975 603.796093 452.587342 544.505495 452.587342"></polygon>
        <polygon id="path-11" points="605.006105 363.037975 664.296703 363.037975 664.296703 452.587342 605.006105 452.587342"></polygon>
        <polygon id="path-12" points="665.506716 363.037975 724.797314 363.037975 724.797314 452.587342 665.506716 452.587342"></polygon>
        <polygon id="path-13" points="726.007326 363.037975 785.297924 363.037975 785.297924 452.587342 726.007326 452.587342"></polygon>
        <polygon id="path-14" points="786.507937 363.037975 845.798535 363.037975 845.798535 452.587342 786.507937 452.587342"></polygon>
        <polygon id="path-15" points="847.008547 363.037975 906.299145 363.037975 906.299145 452.587342 847.008547 452.587342"></polygon>
        <polygon id="path-16" points="907.509158 363.037975 966.799756 363.037975 966.799756 452.587342 907.509158 452.587342"></polygon>
        <polygon id="path-17" points="0 272.278481 119.791209 272.278481 119.791209 361.827848 0 361.827848"></polygon>
        <polygon id="path-18" points="121.001221 272.278481 240.79243 272.278481 240.79243 361.827848 121.001221 361.827848"></polygon>
        <polygon id="path-19" points="242.002442 272.278481 361.793651 272.278481 361.793651 361.827848 242.002442 361.827848"></polygon>
        <polygon id="path-20" points="363.003663 272.278481 482.794872 272.278481 482.794872 361.827848 363.003663 361.827848"></polygon>
        <polygon id="path-21" points="484.004884 272.278481 603.796093 272.278481 603.796093 361.827848 484.004884 361.827848"></polygon>
        <polygon id="path-22" points="605.006105 272.278481 724.797314 272.278481 724.797314 361.827848 605.006105 361.827848"></polygon>
        <polygon id="path-23" points="726.007326 272.278481 845.798535 272.278481 845.798535 361.827848 726.007326 361.827848"></polygon>
        <polygon id="path-24" points="847.008547 272.278481 966.799756 272.278481 966.799756 361.827848 847.008547 361.827848"></polygon>
        <polygon id="path-25" points="726.007326 181.518987 966.799756 181.518987 966.799756 271.068354 726.007326 271.068354"></polygon>
        <polygon id="path-26" points="484.004884 181.518987 724.797314 181.518987 724.797314 271.068354 484.004884 271.068354"></polygon>
        <polygon id="path-27" points="242.002442 181.518987 482.794872 181.518987 482.794872 271.068354 242.002442 271.068354"></polygon>
        <polygon id="path-28" points="0 181.518987 240.79243 181.518987 240.79243 271.068354 0 271.068354"></polygon>
        <polygon id="path-29" points="0 90.7594937 482.794872 90.7594937 482.794872 180.308861 0 180.308861"></polygon>
        <polygon id="path-30" points="484.004884 90.7594937 966.799756 90.7594937 966.799756 180.308861 484.004884 180.308861"></polygon>
        <polygon id="path-31" points="0 0 966.799756 0 966.799756 89.5493671 0 89.5493671"></polygon>
    </defs>
    <g id="Paddings" stroke="none" stroke-width="1" fill="none" fill-rule="evenodd">
        <g transform="translate(65.000000, 76.000000)" id="animation">
            <g>
                <g id="Margins" transform="translate(0.000000, 22.992405)" fill="#FFCFE1" stroke="#FFCFE1" stroke-width="1.21">
                    <rect id="margin" x="979.504878" y="0.605" width="10.8901221" height="453.797595"></rect>
                    <rect id="margin" x="0.605" y="0.605" width="10.8901221" height="453.797595"></rect>
                </g>
                <g id="Columns" transform="translate(12.100122, 24.202532)">
                    <g id="Rectangle-17-Copy-487">
                        <path stroke="#97C1FF" stroke-width="1.21" d="M-0.605,362.432975 L59.8955983,362.432975 L59.8955983,453.192342 L-0.605,453.192342 L-0.605,362.432975 Z"></path>
                        <path stroke="#EDF4FF" stroke-width="12.1" d="M6.05,369.087975 L6.05,446.537342 L53.2405983,446.537342 L53.2405983,369.087975 L6.05,369.087975 Z" stroke-linejoin="square"></path>
                    </g>
                    <g id="Rectangle-17-Copy-488">
                        <path stroke="#97C1FF" stroke-width="1.21" d="M59.8956105,362.432975 L120.396209,362.432975 L120.396209,453.192342 L59.8956105,453.192342 L59.8956105,362.432975 Z"></path>
                        <path stroke="#EDF4FF" stroke-width="12.1" d="M66.5506105,369.087975 L66.5506105,446.537342 L113.741209,446.537342 L113.741209,369.087975 L66.5506105,369.087975 Z" stroke-linejoin="square"></path>
                    </g>
                    <g id="Rectangle-17-Copy-489">
                        <path stroke="#97C1FF" stroke-width="1.21" d="M120.396221,362.432975 L180.896819,362.432975 L180.896819,453.192342 L120.396221,453.192342 L120.396221,362.432975 Z"></path>
                        <path stroke="#EDF4FF" stroke-width="12.1" d="M127.051221,369.087975 L127.051221,446.537342 L174.241819,446.537342 L174.241819,369.087975 L127.051221,369.087975 Z" stroke-linejoin="square"></path>
                    </g>
                    <g id="Rectangle-17-Copy-490">
                        <path stroke="#97C1FF" stroke-width="1.21" d="M180.896832,362.432975 L241.39743,362.432975 L241.39743,453.192342 L180.896832,453.192342 L180.896832,362.432975 Z"></path>
                        <path stroke="#EDF4FF" stroke-width="12.1" d="M187.551832,369.087975 L187.551832,446.537342 L234.74243,446.537342 L234.74243,369.087975 L187.551832,369.087975 Z" stroke-linejoin="square"></path>
                    </g>
                    <g id="Rectangle-17-Copy-491">
                        <path stroke="#97C1FF" stroke-width="1.21" d="M241.397442,362.432975 L301.89804,362.432975 L301.89804,453.192342 L241.397442,453.192342 L241.397442,362.432975 Z"></path>
                        <path stroke="#EDF4FF" stroke-width="12.1" d="M248.052442,369.087975 L248.052442,446.537342 L295.24304,446.537342 L295.24304,369.087975 L248.052442,369.087975 Z" stroke-linejoin="square"></path>
                    </g>
                    <g id="Rectangle-17-Copy-492">
                        <path stroke="#97C1FF" stroke-width="1.21" d="M301.898053,362.432975 L362.398651,362.432975 L362.398651,453.192342 L301.898053,453.192342 L301.898053,362.432975 Z"></path>
                        <path stroke="#EDF4FF" stroke-width="12.1" d="M308.553053,369.087975 L308.553053,446.537342 L355.743651,446.537342 L355.743651,369.087975 L308.553053,369.087975 Z" stroke-linejoin="square"></path>
                    </g>
                    <g id="Rectangle-17-Copy-493">
                        <path stroke="#97C1FF" stroke-width="1.21" d="M362.398663,362.432975 L422.899261,362.432975 L422.899261,453.192342 L362.398663,453.192342 L362.398663,362.432975 Z"></path>
                        <path stroke="#EDF4FF" stroke-width="12.1" d="M369.053663,369.087975 L369.053663,446.537342 L416.244261,446.537342 L416.244261,369.087975 L369.053663,369.087975 Z" stroke-linejoin="square"></path>
                    </g>
                    <g id="Rectangle-17-Copy-494">
                        <path stroke="#97C1FF" stroke-width="1.21" d="M422.899274,362.432975 L483.399872,362.432975 L483.399872,453.192342 L422.899274,453.192342 L422.899274,362.432975 Z"></path>
                        <path stroke="#EDF4FF" stroke-width="12.1" d="M429.554274,369.087975 L429.554274,446.537342 L476.744872,446.537342 L476.744872,369.087975 L429.554274,369.087975 Z" stroke-linejoin="square"></path>
                    </g>
                    <g id="Rectangle-17-Copy-495">
                        <path stroke="#97C1FF" stroke-width="1.21" d="M483.399884,362.432975 L543.900482,362.432975 L543.900482,453.192342 L483.399884,453.192342 L483.399884,362.432975 Z"></path>
                        <path stroke="#EDF4FF" stroke-width="12.1" d="M490.054884,369.087975 L490.054884,446.537342 L537.245482,446.537342 L537.245482,369.087975 L490.054884,369.087975 Z" stroke-linejoin="square"></path>
                    </g>
                    <g id="Rectangle-17-Copy-496">
                        <path stroke="#97C1FF" stroke-width="1.21" d="M543.900495,362.432975 L604.401093,362.432975 L604.401093,453.192342 L543.900495,453.192342 L543.900495,362.432975 Z"></path>
                        <path stroke="#EDF4FF" stroke-width="12.1" d="M550.555495,369.087975 L550.555495,446.537342 L597.746093,446.537342 L597.746093,369.087975 L550.555495,369.087975 Z" stroke-linejoin="square"></path>
                    </g>
                    <g id="Rectangle-17-Copy-497">
                        <path stroke="#97C1FF" stroke-width="1.21" d="M604.401105,362.432975 L664.901703,362.432975 L664.901703,453.192342 L604.401105,453.192342 L604.401105,362.432975 Z"></path>
                        <path stroke="#EDF4FF" stroke-width="12.1" d="M611.056105,369.087975 L611.056105,446.537342 L658.246703,446.537342 L658.246703,369.087975 L611.056105,369.087975 Z" stroke-linejoin="square"></path>
                    </g>
                    <g id="Rectangle-17-Copy-498">
                        <path stroke="#97C1FF" stroke-width="1.21" d="M664.901716,362.432975 L725.402314,362.432975 L725.402314,453.192342 L664.901716,453.192342 L664.901716,362.432975 Z"></path>
                        <path stroke="#EDF4FF" stroke-width="12.1" d="M671.556716,369.087975 L671.556716,446.537342 L718.747314,446.537342 L718.747314,369.087975 L671.556716,369.087975 Z" stroke-linejoin="square"></path>
                    </g>
                    <g id="Rectangle-17-Copy-499">
                        <path stroke="#97C1FF" stroke-width="1.21" d="M725.402326,362.432975 L785.902924,362.432975 L785.902924,453.192342 L725.402326,453.192342 L725.402326,362.432975 Z"></path>
                        <path stroke="#EDF4FF" stroke-width="12.1" d="M732.057326,369.087975 L732.057326,446.537342 L779.247924,446.537342 L779.247924,369.087975 L732.057326,369.087975 Z" stroke-linejoin="square"></path>
                    </g>
                    <g id="Rectangle-17-Copy-500">
                        <path stroke="#97C1FF" stroke-width="1.21" d="M785.902937,362.432975 L846.403535,362.432975 L846.403535,453.192342 L785.902937,453.192342 L785.902937,362.432975 Z"></path>
                        <path stroke="#EDF4FF" stroke-width="12.1" d="M792.557937,369.087975 L792.557937,446.537342 L839.748535,446.537342 L839.748535,369.087975 L792.557937,369.087975 Z" stroke-linejoin="square"></path>
                    </g>
                    <g id="Rectangle-17-Copy-501">
                        <path stroke="#97C1FF" stroke-width="1.21" d="M846.403547,362.432975 L906.904145,362.432975 L906.904145,453.192342 L846.403547,453.192342 L846.403547,362.432975 Z"></path>
                        <path stroke="#EDF4FF" stroke-width="12.1" d="M853.058547,369.087975 L853.058547,446.537342 L900.249145,446.537342 L900.249145,369.087975 L853.058547,369.087975 Z" stroke-linejoin="square"></path>
                    </g>
                    <g id="Rectangle-17-Copy-502">
                        <path stroke="#97C1FF" stroke-width="1.21" d="M906.904158,362.432975 L967.404756,362.432975 L967.404756,453.192342 L906.904158,453.192342 L906.904158,362.432975 Z"></path>
                        <path stroke="#EDF4FF" stroke-width="12.1" d="M913.559158,369.087975 L913.559158,446.537342 L960.749756,446.537342 L960.749756,369.087975 L913.559158,369.087975 Z" stroke-linejoin="square"></path>
                    </g>
                    <g id="Rectangle-17-Copy-487">
                        <path stroke="#97C1FF" stroke-width="1.21" d="M-0.605,271.673481 L120.396209,271.673481 L120.396209,362.432848 L-0.605,362.432848 L-0.605,271.673481 Z"></path>
                        <path stroke="#EDF4FF" stroke-width="12.1" d="M6.05,278.328481 L6.05,355.777848 L113.741209,355.777848 L113.741209,278.328481 L6.05,278.328481 Z" stroke-linejoin="square"></path>
                    </g>
                    <g id="Rectangle-17-Copy-487">
                        <path stroke="#97C1FF" stroke-width="1.21" d="M120.396221,271.673481 L241.39743,271.673481 L241.39743,362.432848 L120.396221,362.432848 L120.396221,271.673481 Z"></path>
                        <path stroke="#EDF4FF" stroke-width="12.1" d="M127.051221,278.328481 L127.051221,355.777848 L234.74243,355.777848 L234.74243,278.328481 L127.051221,278.328481 Z" stroke-linejoin="square"></path>
                    </g>
                    <g id="Rectangle-17-Copy-487">
                        <path stroke="#97C1FF" stroke-width="1.21" d="M241.397442,271.673481 L362.398651,271.673481 L362.398651,362.432848 L241.397442,362.432848 L241.397442,271.673481 Z"></path>
                        <path stroke="#EDF4FF" stroke-width="12.1" d="M248.052442,278.328481 L248.052442,355.777848 L355.743651,355.777848 L355.743651,278.328481 L248.052442,278.328481 Z" stroke-linejoin="square"></path>
                    </g>
                    <g id="Rectangle-17-Copy-487">
                        <path stroke="#97C1FF" stroke-width="1.21" d="M362.398663,271.673481 L483.399872,271.673481 L483.399872,362.432848 L362.398663,362.432848 L362.398663,271.673481 Z"></path>
                        <path stroke="#EDF4FF" stroke-width="12.1" d="M369.053663,278.328481 L369.053663,355.777848 L476.744872,355.777848 L476.744872,278.328481 L369.053663,278.328481 Z" stroke-linejoin="square"></path>
                    </g>
                    <g id="Rectangle-17-Copy-487">
                        <path stroke="#97C1FF" stroke-width="1.21" d="M483.399884,271.673481 L604.401093,271.673481 L604.401093,362.432848 L483.399884,362.432848 L483.399884,271.673481 Z"></path>
                        <path stroke="#EDF4FF" stroke-width="12.1" d="M490.054884,278.328481 L490.054884,355.777848 L597.746093,355.777848 L597.746093,278.328481 L490.054884,278.328481 Z" stroke-linejoin="square"></path>
                    </g>
                    <g id="Rectangle-17-Copy-487">
                        <path stroke="#97C1FF" stroke-width="1.21" d="M604.401105,271.673481 L725.402314,271.673481 L725.402314,362.432848 L604.401105,362.432848 L604.401105,271.673481 Z"></path>
                        <path stroke="#EDF4FF" stroke-width="12.1" d="M611.056105,278.328481 L611.056105,355.777848 L718.747314,355.777848 L718.747314,278.328481 L611.056105,278.328481 Z" stroke-linejoin="square"></path>
                    </g>
                    <g id="Rectangle-17-Copy-487">
                        <path stroke="#97C1FF" stroke-width="1.21" d="M725.402326,271.673481 L846.403535,271.673481 L846.403535,362.432848 L725.402326,362.432848 L725.402326,271.673481 Z"></path>
                        <path stroke="#EDF4FF" stroke-width="12.1" d="M732.057326,278.328481 L732.057326,355.777848 L839.748535,355.777848 L839.748535,278.328481 L732.057326,278.328481 Z" stroke-linejoin="square"></path>
                    </g>
                    <g id="Rectangle-17-Copy-487">
                        <path stroke="#97C1FF" stroke-width="1.21" d="M846.403547,271.673481 L967.404756,271.673481 L967.404756,362.432848 L846.403547,362.432848 L846.403547,271.673481 Z"></path>
                        <path stroke="#EDF4FF" stroke-width="12.1" d="M853.058547,278.328481 L853.058547,355.777848 L960.749756,355.777848 L960.749756,278.328481 L853.058547,278.328481 Z" stroke-linejoin="square"></path>
                    </g>
                    <g id="Rectangle-17-Copy-487">
                        <path stroke="#97C1FF" stroke-width="1.21" d="M725.402326,180.913987 L967.404756,180.913987 L967.404756,271.673354 L725.402326,271.673354 L725.402326,180.913987 Z"></path>
                        <path stroke="#EDF4FF" stroke-width="12.1" d="M732.057326,187.568987 L732.057326,265.018354 L960.749756,265.018354 L960.749756,187.568987 L732.057326,187.568987 Z" stroke-linejoin="square"></path>
                    </g>
                    <g id="Rectangle-17-Copy-487">
                        <path stroke="#97C1FF" stroke-width="1.21" d="M483.399884,180.913987 L725.402314,180.913987 L725.402314,271.673354 L483.399884,271.673354 L483.399884,180.913987 Z"></path>
                        <path stroke="#EDF4FF" stroke-width="12.1" d="M490.054884,187.568987 L490.054884,265.018354 L718.747314,265.018354 L718.747314,187.568987 L490.054884,187.568987 Z" stroke-linejoin="square"></path>
                    </g>
                    <g id="Rectangle-17-Copy-487">
                        <path stroke="#97C1FF" stroke-width="1.21" d="M241.397442,180.913987 L483.399872,180.913987 L483.399872,271.673354 L241.397442,271.673354 L241.397442,180.913987 Z"></path>
                        <path stroke="#EDF4FF" stroke-width="12.1" d="M248.052442,187.568987 L248.052442,265.018354 L476.744872,265.018354 L476.744872,187.568987 L248.052442,187.568987 Z" stroke-linejoin="square"></path>
                    </g>
                    <g id="Rectangle-17-Copy-487">
                        <path stroke="#97C1FF" stroke-width="1.21" d="M-0.605,180.913987 L241.39743,180.913987 L241.39743,271.673354 L-0.605,271.673354 L-0.605,180.913987 Z"></path>
                        <path stroke="#EDF4FF" stroke-width="12.1" d="M6.05,187.568987 L6.05,265.018354 L234.74243,265.018354 L234.74243,187.568987 L6.05,187.568987 Z" stroke-linejoin="square"></path>
                    </g>
                    <g id="Rectangle-17-Copy-487">
                        <path stroke="#97C1FF" stroke-width="1.21" d="M-0.605,90.1544937 L483.399872,90.1544937 L483.399872,180.913861 L-0.605,180.913861 L-0.605,90.1544937 Z"></path>
                        <path stroke="#EDF4FF" stroke-width="12.1" d="M6.05,96.8094937 L6.05,174.258861 L476.744872,174.258861 L476.744872,96.8094937 L6.05,96.8094937 Z" stroke-linejoin="square"></path>
                    </g>
                    <g id="Rectangle-17-Copy-487">
                        <path stroke="#97C1FF" stroke-width="1.21" d="M483.399884,90.1544937 L967.404756,90.1544937 L967.404756,180.913861 L483.399884,180.913861 L483.399884,90.1544937 Z"></path>
                        <path stroke="#EDF4FF" stroke-width="12.1" d="M490.054884,96.8094937 L490.054884,174.258861 L960.749756,174.258861 L960.749756,96.8094937 L490.054884,96.8094937 Z" stroke-linejoin="square"></path>
                    </g>
                    <g id="Rectangle-17-Copy-487">
                        <path stroke="#97C1FF" stroke-width="1.21" d="M-0.605,-0.605 L967.404756,-0.605 L967.404756,90.1543671 L-0.605,90.1543671 L-0.605,-0.605 Z"></path>
                        <path stroke="#EDF4FF" stroke-width="12.1" d="M6.05,6.05 L6.05,83.4993671 L960.749756,83.4993671 L960.749756,6.05 L6.05,6.05 Z" stroke-linejoin="square"></path>
                    </g>
                </g>
                <g id="browser">
                    <rect id="Frame" stroke="#BEBEBE" stroke-width="1.21" x="0.60501221" y="23.5975316" width="989.789976" height="453.797342"></rect>
                    <path d="M3.0624,0 L987.9376,0 C989.628917,6.27813363e-14 991,1.37108318 991,3.0624 L991,24.144323 L0,24.144323 L0,3.0624 C-2.07126573e-16,1.37108318 1.37108318,-1.33399351e-16 3.0624,-4.4408921e-16 Z" id="Rectangle-2-Copy-25" fill="#565656"></path>
                    <ellipse id="Oval-5-Copy-18" fill="#FFFFFF" cx="15.7301587" cy="12.092075" rx="3.63003663" ry="3.62118891"></ellipse>
                    <ellipse id="Oval-5-Copy-19" fill="#FFFFFF" cx="30.2503053" cy="12.092075" rx="3.63003663" ry="3.62118891"></ellipse>
                </g>
            </g>
        </g>
    </g>
</svg>