<?xml version="1.0" encoding="UTF-8"?>
<svg width="1120px" height="630px" viewBox="0 0 1120 630" version="1.1" xmlns="http://www.w3.org/2000/svg" xmlns:xlink="http://www.w3.org/1999/xlink">
    <!-- Generator: Sketch 52.4 (67378) - http://www.bohemiancoding.com/sketch -->
    <title>Layout_overview_Fluid-base-unit</title>
    <desc>Created with Sketch.</desc>
    <g id="Fluid-base-unit" stroke="none" stroke-width="1" fill="none" fill-rule="evenodd">
        <g id="Group" transform="translate(14.000000, 0.000000)">
            <g id="Group-3" transform="translate(0.000000, 18.103448)" stroke="#DCDCDC" stroke-linecap="square" stroke-width="1.20689655">
                <g id="Group-6">
                    <g id="Group-16" transform="translate(0.000000, 1.206897)">
                        <path d="M70.5464206,0.749692118 L70.5464206,587.039606" id="Line-7"></path>
                        <path d="M60.8949223,0.749692118 L60.8949223,587.039606" id="Line-7"></path>
                        <path d="M51.243424,0.749692118 L51.243424,587.039606" id="Line-7"></path>
                        <path d="M688.242314,0.749692118 L688.242314,587.039606" id="Line-7"></path>
                        <path d="M678.590816,0.749692118 L678.590816,587.039606" id="Line-7"></path>
                        <path d="M668.939317,0.749692118 L668.939317,587.039606" id="Line-7"></path>
                        <path d="M659.287819,0.749692118 L659.287819,587.039606" id="Line-7"></path>
                        <path d="M649.636321,0.749692118 L649.636321,587.039606" id="Line-7"></path>
                        <path d="M639.984822,0.749692118 L639.984822,587.039606" id="Line-7"></path>
                        <path d="M765.454301,0.749692118 L765.454301,587.039606" id="Line-7"></path>
                        <path d="M755.802802,0.749692118 L755.802802,587.039606" id="Line-7"></path>
                        <path d="M746.151304,0.749692118 L746.151304,587.039606" id="Line-7"></path>
                        <path d="M736.499806,0.749692118 L736.499806,587.039606" id="Line-7"></path>
                        <path d="M726.848307,0.749692118 L726.848307,587.039606" id="Line-7"></path>
                        <path d="M717.196809,0.749692118 L717.196809,587.039606" id="Line-7"></path>
                        <path d="M707.545311,0.749692118 L707.545311,587.039606" id="Line-7"></path>
                        <path d="M697.893812,0.749692118 L697.893812,587.039606" id="Line-7"></path>
                        <path d="M842.666287,0.749692118 L842.666287,587.039606" id="Line-7"></path>
                        <path d="M833.014789,0.749692118 L833.014789,587.039606" id="Line-7"></path>
                        <path d="M823.363291,0.749692118 L823.363291,587.039606" id="Line-7"></path>
                        <path d="M813.711792,0.749692118 L813.711792,587.039606" id="Line-7"></path>
                        <path d="M804.060294,0.749692118 L804.060294,587.039606" id="Line-7"></path>
                        <path d="M794.408796,0.749692118 L794.408796,587.039606" id="Line-7"></path>
                        <path d="M919.878274,0.749692118 L919.878274,587.039606" id="Line-7"></path>
                        <path d="M910.226776,0.749692118 L910.226776,587.039606" id="Line-7"></path>
                        <path d="M900.575277,0.749692118 L900.575277,587.039606" id="Line-7"></path>
                        <path d="M890.923779,0.749692118 L890.923779,587.039606" id="Line-7"></path>
                        <path d="M881.272281,0.749692118 L881.272281,587.039606" id="Line-7"></path>
                        <path d="M871.620782,0.749692118 L871.620782,587.039606" id="Line-7"></path>
                        <path d="M861.969284,0.749692118 L861.969284,587.039606" id="Line-7"></path>
                        <path d="M852.317786,0.749692118 L852.317786,587.039606" id="Line-7"></path>
                        <path d="M784.757297,0.749692118 L784.757297,587.039606" id="Line-7"></path>
                        <path d="M775.105799,0.749692118 L775.105799,587.039606" id="Line-7"></path>
                        <path d="M997.090261,0.749692118 L997.090261,587.039606" id="Line-7"></path>
                        <path d="M987.438762,0.749692118 L987.438762,587.039606" id="Line-7"></path>
                        <path d="M977.787264,0.749692118 L977.787264,587.039606" id="Line-7"></path>
                        <path d="M968.135766,0.749692118 L968.135766,587.039606" id="Line-7"></path>
                        <path d="M958.484267,0.749692118 L958.484267,587.039606" id="Line-7"></path>
                        <path d="M948.832769,0.749692118 L948.832769,587.039606" id="Line-7"></path>
                        <path d="M1074.30225,0.749692118 L1074.30225,587.039606" id="Line-7"></path>
                        <path d="M1064.65075,0.749692118 L1064.65075,587.039606" id="Line-7"></path>
                        <path d="M1054.99925,0.749692118 L1054.99925,587.039606" id="Line-7"></path>
                        <path d="M1045.34775,0.749692118 L1045.34775,587.039606" id="Line-7"></path>
                        <path d="M1035.69625,0.749692118 L1035.69625,587.039606" id="Line-7"></path>
                        <path d="M1026.04476,0.749692118 L1026.04476,587.039606" id="Line-7"></path>
                        <path d="M1016.39326,0.749692118 L1016.39326,587.039606" id="Line-7"></path>
                        <path d="M1006.74176,0.749692118 L1006.74176,587.039606" id="Line-7"></path>
                        <path d="M1083.95375,0.749692118 L1083.95375,587.039606" id="Line-7"></path>
                        <path d="M939.181271,0.749692118 L939.181271,587.039606" id="Line-7"></path>
                        <path d="M929.529772,0.749692118 L929.529772,587.039606" id="Line-7"></path>
                        <path d="M630.333324,0.749692118 L630.333324,587.039606" id="Line-7"></path>
                        <path d="M620.681826,0.749692118 L620.681826,587.039606" id="Line-7"></path>
                        <path d="M41.5919256,0.749692118 L41.5919256,587.039606" id="Line-7"></path>
                        <path d="M31.9404273,0.749692118 L31.9404273,587.039606" id="Line-7"></path>
                        <path d="M22.288929,0.749692118 L22.288929,587.039606" id="Line-7"></path>
                        <path d="M147.758407,0.749692118 L147.758407,587.039606" id="Line-7"></path>
                        <path d="M138.106909,0.749692118 L138.106909,587.039606" id="Line-7"></path>
                        <path d="M128.455411,0.749692118 L128.455411,587.039606" id="Line-7"></path>
                        <path d="M118.803912,0.749692118 L118.803912,587.039606" id="Line-7"></path>
                        <path d="M109.152414,0.749692118 L109.152414,587.039606" id="Line-7"></path>
                        <path d="M99.5009156,0.749692118 L99.5009156,587.039606" id="Line-7"></path>
                        <path d="M89.8494173,0.749692118 L89.8494173,587.039606" id="Line-7"></path>
                        <path d="M80.197919,0.749692118 L80.197919,587.039606" id="Line-7"></path>
                        <path d="M224.970394,0.749692118 L224.970394,587.039606" id="Line-7"></path>
                        <path d="M215.318896,0.749692118 L215.318896,587.039606" id="Line-7"></path>
                        <path d="M205.667397,0.749692118 L205.667397,587.039606" id="Line-7"></path>
                        <path d="M196.015899,0.749692118 L196.015899,587.039606" id="Line-7"></path>
                        <path d="M186.364401,0.749692118 L186.364401,587.039606" id="Line-7"></path>
                        <path d="M176.712902,0.749692118 L176.712902,587.039606" id="Line-7"></path>
                        <path d="M302.182381,0.749692118 L302.182381,587.039606" id="Line-7"></path>
                        <path d="M292.530882,0.749692118 L292.530882,587.039606" id="Line-7"></path>
                        <path d="M282.879384,0.749692118 L282.879384,587.039606" id="Line-7"></path>
                        <path d="M273.227886,0.749692118 L273.227886,587.039606" id="Line-7"></path>
                        <path d="M263.576387,0.749692118 L263.576387,587.039606" id="Line-7"></path>
                        <path d="M253.924889,0.749692118 L253.924889,587.039606" id="Line-7"></path>
                        <path d="M244.273391,0.749692118 L244.273391,587.039606" id="Line-7"></path>
                        <path d="M234.621892,0.749692118 L234.621892,587.039606" id="Line-7"></path>
                        <path d="M167.061404,0.749692118 L167.061404,587.039606" id="Line-7"></path>
                        <path d="M157.409906,0.749692118 L157.409906,587.039606" id="Line-7"></path>
                        <path d="M379.394367,0.749692118 L379.394367,587.039606" id="Line-7"></path>
                        <path d="M369.742869,0.749692118 L369.742869,587.039606" id="Line-7"></path>
                        <path d="M360.091371,0.749692118 L360.091371,587.039606" id="Line-7"></path>
                        <path d="M350.439872,0.749692118 L350.439872,587.039606" id="Line-7"></path>
                        <path d="M340.788374,0.749692118 L340.788374,587.039606" id="Line-7"></path>
                        <path d="M331.136876,0.749692118 L331.136876,587.039606" id="Line-7"></path>
                        <path d="M456.606354,0.749692118 L456.606354,587.039606" id="Line-7"></path>
                        <path d="M446.954856,0.749692118 L446.954856,587.039606" id="Line-7"></path>
                        <path d="M437.303357,0.749692118 L437.303357,587.039606" id="Line-7"></path>
                        <path d="M427.651859,0.749692118 L427.651859,587.039606" id="Line-7"></path>
                        <path d="M418.000361,0.749692118 L418.000361,587.039606" id="Line-7"></path>
                        <path d="M408.348862,0.749692118 L408.348862,587.039606" id="Line-7"></path>
                        <path d="M398.697364,0.749692118 L398.697364,587.039606" id="Line-7"></path>
                        <path d="M389.045866,0.749692118 L389.045866,587.039606" id="Line-7"></path>
                        <path d="M533.818341,0.749692118 L533.818341,587.039606" id="Line-7"></path>
                        <path d="M524.166842,0.749692118 L524.166842,587.039606" id="Line-7"></path>
                        <path d="M514.515344,0.749692118 L514.515344,587.039606" id="Line-7"></path>
                        <path d="M504.863846,0.749692118 L504.863846,587.039606" id="Line-7"></path>
                        <path d="M495.212347,0.749692118 L495.212347,587.039606" id="Line-7"></path>
                        <path d="M485.560849,0.749692118 L485.560849,587.039606" id="Line-7"></path>
                        <path d="M611.030327,0.749692118 L611.030327,587.039606" id="Line-7"></path>
                        <path d="M601.378829,0.749692118 L601.378829,587.039606" id="Line-7"></path>
                        <path d="M591.727331,0.749692118 L591.727331,587.039606" id="Line-7"></path>
                        <path d="M582.075832,0.749692118 L582.075832,587.039606" id="Line-7"></path>
                        <path d="M572.424334,0.749692118 L572.424334,587.039606" id="Line-7"></path>
                        <path d="M562.772836,0.749692118 L562.772836,587.039606" id="Line-7"></path>
                        <path d="M553.121337,0.749692118 L553.121337,587.039606" id="Line-7"></path>
                        <path d="M543.469839,0.749692118 L543.469839,587.039606" id="Line-7"></path>
                        <path d="M475.909351,0.749692118 L475.909351,587.039606" id="Line-7"></path>
                        <path d="M466.257852,0.749692118 L466.257852,587.039606" id="Line-7"></path>
                        <path d="M321.485377,0.749692118 L321.485377,587.039606" id="Line-7"></path>
                        <path d="M311.833879,0.749692118 L311.833879,587.039606" id="Line-7"></path>
                        <path d="M12.6374306,0.749692118 L12.6374306,587.039606" id="Line-7"></path>
                        <path d="M2.9859323,0.749692118 L2.9859323,587.039606" id="Line-7"></path>
                    </g>
                    <g id="Group-17" transform="translate(3.412875, 0.000000)">
                        <path d="M0.0954896269,145.951733 L1079.8609,145.951733" id="Line-8"></path>
                        <path d="M0.0954896269,155.569146 L1079.8609,155.569146" id="Line-8-Copy"></path>
                        <path d="M0.0954896269,165.186558 L1079.8609,165.186558" id="Line-8-Copy-2"></path>
                        <path d="M0.0954896269,174.803971 L1079.8609,174.803971" id="Line-8-Copy-3"></path>
                        <path d="M0.0954896269,184.421384 L1079.8609,184.421384" id="Line-8-Copy-4"></path>
                        <path d="M0.0954896269,194.038796 L1079.8609,194.038796" id="Line-8-Copy-5"></path>
                        <path d="M0.0954896269,203.656209 L1079.8609,203.656209" id="Line-8-Copy-6"></path>
                        <path d="M0.0954896269,213.273622 L1079.8609,213.273622" id="Line-8-Copy-7"></path>
                        <path d="M0.0954896269,222.891034 L1079.8609,222.891034" id="Line-8-Copy-8"></path>
                        <path d="M0.0954896269,232.508447 L1079.8609,232.508447" id="Line-8-Copy-9"></path>
                        <path d="M0.0954896269,242.12586 L1079.8609,242.12586" id="Line-8-Copy-10"></path>
                        <path d="M0.0954896269,251.743272 L1079.8609,251.743272" id="Line-8-Copy-11"></path>
                        <path d="M0.0954896269,261.360685 L1079.8609,261.360685" id="Line-8-Copy-12"></path>
                        <path d="M0.0954896269,270.978098 L1079.8609,270.978098" id="Line-8-Copy-13"></path>
                        <path d="M0.0954896269,280.595511 L1079.8609,280.595511" id="Line-8-Copy-14"></path>
                        <path d="M0.0954896269,290.212923 L1079.8609,290.212923" id="Line-8-Copy-15"></path>
                        <path d="M0.0954896269,299.830336 L1079.8609,299.830336" id="Line-8-Copy-16"></path>
                        <path d="M0.0954896269,309.447749 L1079.8609,309.447749" id="Line-8-Copy-17"></path>
                        <path d="M0.0954896269,319.065161 L1079.8609,319.065161" id="Line-8-Copy-18"></path>
                        <path d="M0.0954896269,328.682574 L1079.8609,328.682574" id="Line-8-Copy-19"></path>
                        <path d="M0.0954896269,338.299987 L1079.8609,338.299987" id="Line-8-Copy-20"></path>
                        <path d="M0.0954896269,347.917399 L1079.8609,347.917399" id="Line-8-Copy-21"></path>
                        <path d="M0.0954896269,357.534812 L1079.8609,357.534812" id="Line-8-Copy-22"></path>
                        <path d="M0.0954896269,1.6905428 L1079.8609,1.6905428" id="Line-8-Copy-7"></path>
                        <path d="M0.0954896269,11.3079555 L1079.8609,11.3079555" id="Line-8-Copy-8"></path>
                        <path d="M0.0954896269,20.9253682 L1079.8609,20.9253682" id="Line-8-Copy-9"></path>
                        <path d="M0.0954896269,30.5427808 L1079.8609,30.5427808" id="Line-8-Copy-10"></path>
                        <path d="M0.0954896269,40.1601935 L1079.8609,40.1601935" id="Line-8-Copy-11"></path>
                        <path d="M0.0954896269,49.7776062 L1079.8609,49.7776062" id="Line-8-Copy-12"></path>
                        <path d="M0.0954896269,59.3950189 L1079.8609,59.3950189" id="Line-8-Copy-13"></path>
                        <path d="M0.0954896269,69.0124316 L1079.8609,69.0124316" id="Line-8-Copy-14"></path>
                        <path d="M0.0954896269,78.6298442 L1079.8609,78.6298442" id="Line-8-Copy-15"></path>
                        <path d="M0.0954896269,88.2472569 L1079.8609,88.2472569" id="Line-8-Copy-16"></path>
                        <path d="M0.0954896269,97.8646696 L1079.8609,97.8646696" id="Line-8-Copy-17"></path>
                        <path d="M0.0954896269,107.482082 L1079.8609,107.482082" id="Line-8-Copy-18"></path>
                        <path d="M0.0954896269,117.099495 L1079.8609,117.099495" id="Line-8-Copy-19"></path>
                        <path d="M0.0954896269,126.716908 L1079.8609,126.716908" id="Line-8-Copy-20"></path>
                        <path d="M0.0954896269,136.33432 L1079.8609,136.33432" id="Line-8-Copy-21"></path>
                        <path d="M0.0954896269,367.152225 L1079.8609,367.152225" id="Line-8-Copy-23"></path>
                        <path d="M0.0954896269,376.769637 L1079.8609,376.769637" id="Line-8-Copy-24"></path>
                        <path d="M0.0954896269,386.38705 L1079.8609,386.38705" id="Line-8-Copy-25"></path>
                        <path d="M0.0954896269,396.004463 L1079.8609,396.004463" id="Line-8-Copy-26"></path>
                        <path d="M0.0954896269,405.621875 L1079.8609,405.621875" id="Line-8-Copy-27"></path>
                        <path d="M0.0954896269,415.239288 L1079.8609,415.239288" id="Line-8-Copy-28"></path>
                        <path d="M0.0954896269,424.856701 L1079.8609,424.856701" id="Line-8-Copy-29"></path>
                        <path d="M0.0954896269,434.474113 L1079.8609,434.474113" id="Line-8-Copy-30"></path>
                        <path d="M0.0954896269,444.091526 L1079.8609,444.091526" id="Line-8-Copy-31"></path>
                        <path d="M0.0954896269,453.708939 L1079.8609,453.708939" id="Line-8-Copy-32"></path>
                        <path d="M0.0954896269,463.326351 L1079.8609,463.326351" id="Line-8-Copy-33"></path>
                        <path d="M0.0954896269,472.943764 L1079.8609,472.943764" id="Line-8-Copy-34"></path>
                        <path d="M0.0954896269,482.561177 L1079.8609,482.561177" id="Line-8-Copy-35"></path>
                        <path d="M0.0954896269,492.178589 L1079.8609,492.178589" id="Line-8-Copy-36"></path>
                        <path d="M0.0954896269,501.796002 L1079.8609,501.796002" id="Line-8-Copy-37"></path>
                        <path d="M0.0954896269,511.413415 L1079.8609,511.413415" id="Line-8-Copy-38"></path>
                        <path d="M0.0954896269,521.030828 L1079.8609,521.030828" id="Line-8-Copy-39"></path>
                        <path d="M0.0954896269,530.64824 L1079.8609,530.64824" id="Line-8-Copy-40"></path>
                        <path d="M0.0954896269,540.265653 L1079.8609,540.265653" id="Line-8-Copy-41"></path>
                        <path d="M0.0954896269,549.883066 L1079.8609,549.883066" id="Line-8-Copy-42"></path>
                        <path d="M0.0954896269,559.500478 L1079.8609,559.500478" id="Line-8-Copy-43"></path>
                        <path d="M0.0954896269,569.117891 L1079.8609,569.117891" id="Line-8-Copy-44"></path>
                        <path d="M0.0954896269,578.735304 L1079.8609,578.735304" id="Line-8-Copy-45"></path>
                        <path d="M0.0954896269,588.352716 L1079.8609,588.352716" id="Line-8-Copy-46"></path>
                    </g>
                </g>
            </g>
            <polygon id="Rectangle-15-Copy-12" fill="#B3E6FF" points="205.09434 249.827586 321.213929 249.827586 321.213929 365.991379 205.09434 365.991379"></polygon>
            <rect id="Rectangle-15-Copy-12" fill="#FFFFFF" x="542.896781" y="18.1034483" width="544.103219" height="591.37931"></rect>
            <path d="M208.192471,391.034483 L206.281474,391.034483 L206.281474,380.925517 L212.781758,380.925517 L212.781758,382.62 L208.192471,382.62 L208.192471,385.067586 L212.188191,385.067586 L212.188191,386.762069 L208.192471,386.762069 L208.192471,391.034483 Z M215.566215,382.373793 C214.798921,382.373793 214.480422,381.982759 214.480422,381.446897 L214.480422,381.157241 C214.480422,380.621379 214.798921,380.230345 215.566215,380.230345 C216.319032,380.230345 216.652009,380.621379 216.652009,381.157241 L216.652009,381.446897 C216.652009,381.982759 216.319032,382.373793 215.566215,382.373793 Z M214.639671,391.034483 L214.639671,383.474483 L216.492759,383.474483 L216.492759,391.034483 L214.639671,391.034483 Z M217.959787,391.034483 L220.536737,387.196552 L218.017696,383.474483 L220.131374,383.474483 L221.694917,385.98 L221.752826,385.98 L223.301891,383.474483 L225.270797,383.474483 L222.708324,387.225517 L225.285274,391.034483 L223.171596,391.034483 L221.579099,388.427586 L221.52119,388.427586 L219.928693,391.034483 L217.959787,391.034483 Z M229.589842,391.208276 C227.360346,391.208276 226.02844,389.658621 226.02844,387.24 C226.02844,384.850345 227.316915,383.30069 229.531933,383.30069 C231.891725,383.30069 232.977518,385.038621 232.977518,387.109655 L232.977518,387.717931 L227.953913,387.717931 L227.953913,387.906207 C227.953913,388.992414 228.576435,389.731034 229.792524,389.731034 C230.70459,389.731034 231.254726,389.296552 231.717998,388.702759 L232.716928,389.817931 C232.094406,390.672414 230.994135,391.208276 229.589842,391.208276 Z M229.560888,384.691034 C228.590912,384.691034 227.953913,385.415172 227.953913,386.457931 L227.953913,386.573793 L231.052044,386.573793 L231.052044,386.443448 C231.052044,385.40069 230.516386,384.691034 229.560888,384.691034 Z M239.424719,391.034483 L239.424719,389.774483 L239.352333,389.774483 C239.077265,390.628966 238.266539,391.208276 237.267609,391.208276 C235.37109,391.208276 234.314251,389.774483 234.314251,387.24 C234.314251,384.72 235.37109,383.30069 237.267609,383.30069 C238.266539,383.30069 239.091743,383.851034 239.352333,384.72 L239.424719,384.72 L239.424719,380.317241 L241.277807,380.317241 L241.277807,391.034483 L239.424719,391.034483 Z M237.861176,389.673103 C238.744289,389.673103 239.424719,389.224138 239.424719,388.442069 L239.424719,386.037931 C239.424719,385.29931 238.744289,384.821379 237.861176,384.821379 C236.905678,384.821379 236.254202,385.531034 236.254202,386.602759 L236.254202,387.906207 C236.254202,388.977931 236.905678,389.673103 237.861176,389.673103 Z" id="Fixed" fill="#3D3D3D"></path>
            <rect id="Rectangle-15-Copy-13" fill="#FFFFFF" x="524.800222" y="0" width="38.6059933" height="630"></rect>
            <g id="Group-23" transform="translate(632.173141, 19.310345)">
                <rect id="Rectangle-12-Copy-2" fill="#EDF4FF" fill-rule="nonzero" x="0" y="0" width="39.8124306" height="590.172414"></rect>
                <rect id="Rectangle-12-Copy-4" fill="#EDF4FF" fill-rule="nonzero" x="114.611543" y="0" width="39.8124306" height="590.172414"></rect>
                <rect id="Rectangle-12-Copy-2" fill="#97C1FF" fill-rule="nonzero" x="19.3029967" y="0" width="1.20643729" height="590.172414"></rect>
                <rect id="Rectangle-12-Copy-5" fill="#97C1FF" fill-rule="nonzero" x="133.914539" y="0" width="1.20643729" height="590.172414"></rect>
                <rect id="Rectangle-12-Copy-7" fill="#EDF4FF" fill-rule="nonzero" x="229.223085" y="0" width="39.8124306" height="590.172414"></rect>
                <rect id="Rectangle-12-Copy-6" fill="#97C1FF" fill-rule="nonzero" x="248.526082" y="0" width="1.20643729" height="590.172414"></rect>
                <rect id="Rectangle-12-Copy-9" fill="#EDF4FF" fill-rule="nonzero" x="343.834628" y="0" width="39.8124306" height="590.172414"></rect>
                <rect id="Rectangle-12-Copy-8" fill="#97C1FF" fill-rule="nonzero" x="363.137625" y="0" width="1.20643729" height="590.172414"></rect>
                <g id="Group-26" transform="translate(133.914539, 230.517241)">
                    <polygon id="Rectangle-15-Copy-14" fill="#B3E6FF" points="0 0 116.119589 0 116.119589 116.163793 0 116.163793"></polygon>
                    <path d="M3.09813097,141.206897 L1.1871343,141.206897 L1.1871343,131.097931 L7.68741842,131.097931 L7.68741842,132.792414 L3.09813097,132.792414 L3.09813097,135.24 L7.09385128,135.24 L7.09385128,136.934483 L3.09813097,136.934483 L3.09813097,141.206897 Z M12.3973496,141.206897 L11.3984195,141.206897 C10.138899,141.206897 9.54533186,140.54069 9.54533186,139.382069 L9.54533186,130.489655 L11.3984195,130.489655 L11.3984195,139.729655 L12.3973496,139.729655 L12.3973496,141.206897 Z M18.4391876,141.206897 L18.4391876,139.946897 L18.3668013,139.946897 C18.1062109,140.7 17.4981665,141.38069 16.2531232,141.38069 C14.7040577,141.38069 13.8354229,140.308966 13.8354229,138.426207 L13.8354229,133.646897 L15.6885105,133.646897 L15.6885105,138.237931 C15.6885105,139.28069 16.0793962,139.845517 16.9625083,139.845517 C17.700848,139.845517 18.4391876,139.454483 18.4391876,138.643448 L18.4391876,133.646897 L20.2922753,133.646897 L20.2922753,141.206897 L18.4391876,141.206897 Z M23.4820955,132.546207 C22.7148013,132.546207 22.3963019,132.155172 22.3963019,131.61931 L22.3963019,131.329655 C22.3963019,130.793793 22.7148013,130.402759 23.4820955,130.402759 C24.2349123,130.402759 24.567889,130.793793 24.567889,131.329655 L24.567889,131.61931 C24.567889,132.155172 24.2349123,132.546207 23.4820955,132.546207 Z M22.5555516,141.206897 L22.5555516,133.646897 L24.4086393,133.646897 L24.4086393,141.206897 L22.5555516,141.206897 Z M31.3625438,141.206897 L31.3625438,139.946897 L31.2901576,139.946897 C31.0150899,140.801379 30.204364,141.38069 29.205434,141.38069 C27.3089145,141.38069 26.2520755,139.946897 26.2520755,137.412414 C26.2520755,134.892414 27.3089145,133.473103 29.205434,133.473103 C30.204364,133.473103 31.0295672,134.023448 31.2901576,134.892414 L31.3625438,134.892414 L31.3625438,130.489655 L33.2156315,130.489655 L33.2156315,141.206897 L31.3625438,141.206897 Z M29.7990011,139.845517 C30.6821132,139.845517 31.3625438,139.396552 31.3625438,138.614483 L31.3625438,136.210345 C31.3625438,135.471724 30.6821132,134.993793 29.7990011,134.993793 C28.8435028,134.993793 28.1920266,135.703448 28.1920266,136.775172 L28.1920266,138.078621 C28.1920266,139.150345 28.8435028,139.845517 29.7990011,139.845517 Z" id="Fluid" fill="#3D3D3D"></path>
                </g>
            </g>
        </g>
    </g>
</svg>