<?xml version="1.0" encoding="UTF-8"?>
<svg width="1120px" height="630px" viewBox="0 0 1120 630" version="1.1" xmlns="http://www.w3.org/2000/svg" xmlns:xlink="http://www.w3.org/1999/xlink">
    <!-- Generator: Sketch 52.4 (67378) - http://www.bohemiancoding.com/sketch -->
    <title>layout-overview-Screen-regions-2</title>
    <desc>Created with Sketch.</desc>
    <defs>
        <path d="M4.5375,0.9075 C5.79049603,0.9075 6.80625,1.92325397 6.80625,3.17625 C6.80625,4.42924603 5.79049603,5.445 4.5375,5.445 C3.28450397,5.445 2.26875,4.42924603 2.26875,3.17625 C2.27017531,1.92384483 3.28509483,0.908925306 4.5375,0.9075 Z M4.5375,0 C2.78330556,0 1.36125,1.42205556 1.36125,3.17625 C1.36125,4.93044444 2.78330556,6.3525 4.5375,6.3525 C6.29169444,6.3525 7.71375,4.93044444 7.71375,3.17625 C7.71375,1.42205556 6.29169444,1.00752739e-15 4.5375,0 Z M9.075,12.705 L8.1675,12.705 L8.1675,10.43625 C8.1660248,9.18386553 7.15113447,8.1689752 5.89875,8.1675 L3.17625,8.1675 C1.92386553,8.1689752 0.908975204,9.18386553 0.9075,10.43625 L0.9075,12.705 L0,12.705 L0,10.43625 C0.00205031721,8.68290553 1.42290553,7.26205032 3.17625,7.26 L5.89875,7.26 C7.65209447,7.26205032 9.07294968,8.68290553 9.075,10.43625 L9.075,12.705 Z" id="path-1"></path>
        <path d="M4.08375,0 L5.89875,0 L5.89875,1.815 L4.08375,1.815 L4.08375,0 Z M0,0 L1.815,0 L1.815,1.815 L0,1.815 L0,0 Z M8.1675,0 L9.9825,0 L9.9825,1.815 L8.1675,1.815 L8.1675,0 Z M4.08375,4.08375 L5.89875,4.08375 L5.89875,5.89875 L4.08375,5.89875 L4.08375,4.08375 Z M0,4.08375 L1.815,4.08375 L1.815,5.89875 L0,5.89875 L0,4.08375 Z M8.1675,4.08375 L9.9825,4.08375 L9.9825,5.89875 L8.1675,5.89875 L8.1675,4.08375 Z M4.08375,8.1675 L5.89875,8.1675 L5.89875,9.9825 L4.08375,9.9825 L4.08375,8.1675 Z M0,8.1675 L1.815,8.1675 L1.815,9.9825 L0,9.9825 L0,8.1675 Z M8.1675,8.1675 L9.9825,8.1675 L9.9825,9.9825 L8.1675,9.9825 L8.1675,8.1675 Z" id="path-3"></path>
        <path d="M6.3525,0 C2.858625,0 0,2.858625 0,6.3525 C0,9.846375 2.858625,12.705 6.3525,12.705 C9.846375,12.705 12.705,9.846375 12.705,6.3525 C12.705,2.858625 9.846375,0 6.3525,0 Z M6.3525,11.7975 C3.35775,11.7975 0.9075,9.34725 0.9075,6.3525 C0.9075,3.35775 3.35775,0.9075 6.3525,0.9075 C9.34725,0.9075 11.7975,3.35775 11.7975,6.3525 C11.7975,9.34725 9.34725,11.7975 6.3525,11.7975 Z M6.3525,9.9825 C6.72839881,9.9825 7.033125,9.67777381 7.033125,9.301875 C7.033125,8.92597619 6.72839881,8.62125 6.3525,8.62125 C5.97660119,8.62125 5.671875,8.92597619 5.671875,9.301875 C5.671875,9.67777381 5.97660119,9.9825 6.3525,9.9825 Z M6.80625,2.7225 L6.125625,2.7225 C4.99125,2.7225 4.08375,3.63 4.08375,4.764375 L4.08375,4.99125 L4.99125,4.99125 L4.99125,4.764375 C4.99125,4.129125 5.490375,3.63 6.125625,3.63 L6.80625,3.63 C7.4415,3.63 7.940625,4.129125 7.940625,4.764375 C7.940625,5.399625 7.4415,5.89875 6.80625,5.89875 L5.89875,5.89875 L5.89875,7.71375 L6.80625,7.71375 L6.80625,6.80625 C7.940625,6.80625 8.848125,5.89875 8.848125,4.764375 C8.848125,3.63 7.940625,2.7225 6.80625,2.7225 Z" id="path-5"></path>
        <path d="M11.34375,9.52875 C11.0237375,9.53344288 10.7106558,9.62267114 10.43625,9.7873875 L9.0341625,8.3853 C9.70495325,7.44112486 9.70495325,6.17591264 9.0341625,5.2317375 L10.43625,3.8251125 C11.2240499,4.2865229 12.2319771,4.09092968 12.7900184,3.36835219 C13.3480596,2.64577471 13.2825056,1.62113987 12.6369328,0.975567151 C11.9913601,0.329994429 10.9667253,0.264440384 10.2441478,0.822481647 C9.52157032,1.38052291 9.3259771,2.38845007 9.7873875,3.17625 L8.3853,4.5783375 C7.44112486,3.90754675 6.17591264,3.90754675 5.2317375,4.5783375 L3.8251125,3.17625 C4.2865229,2.38845007 4.09092968,1.38052291 3.36835219,0.822481647 C2.64577471,0.264440384 1.62113987,0.329994429 0.975567151,0.975567151 C0.329994429,1.62113987 0.264440384,2.64577471 0.822481647,3.36835219 C1.38052291,4.09092968 2.38845007,4.2865229 3.17625,3.8251125 L4.5783375,5.2272 C3.90754675,6.17137514 3.90754675,7.43658736 4.5783375,8.3807625 L3.17625,9.7873875 C2.38845007,9.3259771 1.38052291,9.52157032 0.822481647,10.2441478 C0.264440384,10.9667253 0.329994429,11.9913601 0.975567151,12.6369328 C1.62113987,13.2825056 2.64577471,13.3480596 3.36835219,12.7900184 C4.09092968,12.2319771 4.2865229,11.2240499 3.8251125,10.43625 L5.2272,9.0341625 C6.17137514,9.70495325 7.43658736,9.70495325 8.3807625,9.0341625 L9.7873875,10.43625 C9.37596052,11.1489318 9.4955004,12.0492372 10.0786488,12.6298623 C10.6617973,13.2104873 11.5626126,13.3261219 12.2735036,12.9116082 C12.9843945,12.4970945 13.32745,11.6561709 13.1093651,10.8626808 C12.8912802,10.0691907 12.166634,9.52171697 11.34375,9.52875 Z M11.34375,1.36125 C11.8449484,1.36125 12.25125,1.76755159 12.25125,2.26875 C12.25125,2.76994841 11.8449484,3.17625 11.34375,3.17625 C10.8425516,3.17625 10.43625,2.76994841 10.43625,2.26875 C10.43625,1.76755159 10.8425516,1.36125 11.34375,1.36125 Z M1.36125,2.26875 C1.36125,1.76755159 1.76755159,1.36125 2.26875,1.36125 C2.76994841,1.36125 3.17625,1.76755159 3.17625,2.26875 C3.17625,2.76994841 2.76994841,3.17625 2.26875,3.17625 C2.02806604,3.17625 1.79723986,3.08063867 1.6270506,2.9104494 C1.45686133,2.74026014 1.36125,2.50943396 1.36125,2.26875 Z M2.26875,12.25125 C1.76755159,12.25125 1.36125,11.8449484 1.36125,11.34375 C1.36125,10.8425516 1.76755159,10.43625 2.26875,10.43625 C2.76994841,10.43625 3.17625,10.8425516 3.17625,11.34375 C3.17625,11.8449484 2.76994841,12.25125 2.26875,12.25125 Z M6.80625,8.62125 C5.80385318,8.62125 4.99125,7.80864682 4.99125,6.80625 C4.99125,5.80385318 5.80385318,4.99125 6.80625,4.99125 C7.80864682,4.99125 8.62125,5.80385318 8.62125,6.80625 C8.62125,7.28761793 8.43002733,7.74927028 8.08964881,8.08964881 C7.74927028,8.43002733 7.28761793,8.62125 6.80625,8.62125 Z M11.34375,12.25125 C10.8425516,12.25125 10.43625,11.8449484 10.43625,11.34375 C10.43625,10.8425516 10.8425516,10.43625 11.34375,10.43625 C11.8449484,10.43625 12.25125,10.8425516 12.25125,11.34375 C12.25125,11.8449484 11.8449484,12.25125 11.34375,12.25125 Z" id="path-7"></path>
        <path d="M7.142025,11.7975 L6.3525,11.34375 L8.1675,8.1675 L10.89,8.1675 C11.3911984,8.1675 11.7975,7.76119841 11.7975,7.26 L11.7975,1.815 C11.7975,1.31380159 11.3911984,0.9075 10.89,0.9075 L1.815,0.9075 C1.31380159,0.9075 0.9075,1.31380159 0.9075,1.815 L0.9075,7.26 C0.9075,7.76119841 1.31380159,8.1675 1.815,8.1675 L5.89875,8.1675 L5.89875,9.075 L1.815,9.075 C0.812603179,9.075 2.01505479e-16,8.26239682 0,7.26 L0,1.815 C-1.00752739e-16,0.812603179 0.812603179,0 1.815,0 L10.89,0 C11.8923968,0 12.705,0.812603179 12.705,1.815 L12.705,7.26 C12.705,8.26239682 11.8923968,9.075 10.89,9.075 L8.69385,9.075 L7.142025,11.7975 Z M2.7225,2.7225 L9.9825,2.7225 L9.9825,3.63 L2.7225,3.63 L2.7225,2.7225 Z M2.7225,5.445 L7.26,5.445 L7.26,6.3525 L2.7225,6.3525 L2.7225,5.445 Z" id="path-9"></path>
        <path d="M5.445,0.9075 C6.44325,0.9075 7.35075,1.452 7.8045,2.314125 L8.122125,2.858625 L8.712,2.767875 C8.848125,2.767875 8.98425,2.7225 9.075,2.7225 C10.572375,2.7225 11.7975,3.947625 11.7975,5.445 C11.7975,6.80625 10.753875,7.986 9.438,8.122125 L9.211125,8.1675 L2.7225,8.1675 C1.72425,8.1675 0.9075,7.35075 0.9075,6.3525 C0.9075,5.581125 1.406625,4.9005 2.132625,4.62825 L2.767875,4.401375 L2.7225,3.766125 L2.7225,3.675375 L2.7225,3.63 C2.7225,2.132625 3.947625,0.9075 5.445,0.9075 Z M5.445,0 C3.4485,0 1.815,1.6335 1.815,3.63 C1.815,3.675375 1.815,3.72075 1.815,3.766125 C0.771375,4.129125 0,5.127375 0,6.3525 C0,7.849875 1.225125,9.075 2.7225,9.075 L9.52875,9.075 L9.52875,9.029625 C11.298375,8.80275 12.705,7.26 12.705,5.445 C12.705,3.4485 11.0715,1.815 9.075,1.815 C8.8935,1.815 8.757375,1.815 8.62125,1.860375 C7.986,0.726 6.80625,0 5.445,0 Z" id="path-11"></path>
        <path d="M0,0 L10.89,0 L10.89,0.9075 L0,0.9075 L0,0 Z M0,8.1675 L10.89,8.1675 L10.89,9.075 L0,9.075 L0,8.1675 Z M0,4.08375 L10.89,4.08375 L10.89,4.99125 L0,4.99125 L0,4.08375 Z" id="path-13"></path>
    </defs>
    <g id="Screen-regions-2" stroke="none" stroke-width="1" fill="none" fill-rule="evenodd">
        <g id="Group" transform="translate(64.000000, 75.000000)">
            <rect id="Rectangle-13-Copy-5" fill="#FFCFE1" x="35.09" y="56.87" width="957.11" height="419.87"></rect>
            <path d="M46.5666203,56.265 L104.705059,56.265 L104.705059,443.465 L46.5666203,443.465 L46.5666203,56.265 Z" id="Rectangle-17-Copy-561" stroke="#97C1FF" stroke-width="1.21" fill="#FFFFFF"></path>
            <path d="M104.893302,56.265 L163.03174,56.265 L163.03174,443.465 L104.893302,443.465 L104.893302,56.265 Z" id="Rectangle-17-Copy-561" stroke="#97C1FF" stroke-width="1.21" fill="#FFFFFF"></path>
            <path d="M163.219983,56.265 L221.358422,56.265 L221.358422,443.465 L163.219983,443.465 L163.219983,56.265 Z" id="Rectangle-17-Copy-561" stroke="#97C1FF" stroke-width="1.21" fill="#FFFFFF"></path>
            <path d="M221.546664,56.265 L279.685103,56.265 L279.685103,443.465 L221.546664,443.465 L221.546664,56.265 Z" id="Rectangle-17-Copy-561" stroke="#97C1FF" stroke-width="1.21" fill="#FFFFFF"></path>
            <path d="M279.873345,56.265 L338.011784,56.265 L338.011784,443.465 L279.873345,443.465 L279.873345,56.265 Z" id="Rectangle-17-Copy-561" stroke="#97C1FF" stroke-width="1.21" fill="#FFFFFF"></path>
            <path d="M338.200027,56.265 L396.338466,56.265 L396.338466,443.465 L338.200027,443.465 L338.200027,56.265 Z" id="Rectangle-17-Copy-561" stroke="#97C1FF" stroke-width="1.21" fill="#FFFFFF"></path>
            <path d="M396.526708,56.265 L454.665147,56.265 L454.665147,443.465 L396.526708,443.465 L396.526708,56.265 Z" id="Rectangle-17-Copy-561" stroke="#97C1FF" stroke-width="1.21" fill="#FFFFFF"></path>
            <path d="M454.853389,56.265 L512.991828,56.265 L512.991828,443.465 L454.853389,443.465 L454.853389,56.265 Z" id="Rectangle-17-Copy-561" stroke="#97C1FF" stroke-width="1.21" fill="#FFFFFF"></path>
            <path d="M513.180071,56.265 L571.318509,56.265 L571.318509,443.465 L513.180071,443.465 L513.180071,56.265 Z" id="Rectangle-17-Copy-561" stroke="#97C1FF" stroke-width="1.21" fill="#FFFFFF"></path>
            <path d="M571.506752,56.265 L629.645191,56.265 L629.645191,443.465 L571.506752,443.465 L571.506752,56.265 Z" id="Rectangle-17-Copy-561" stroke="#97C1FF" stroke-width="1.21" fill="#FFFFFF"></path>
            <path d="M629.833433,56.265 L687.971872,56.265 L687.971872,443.465 L629.833433,443.465 L629.833433,56.265 Z" id="Rectangle-17-Copy-561" stroke="#97C1FF" stroke-width="1.21" fill="#FFFFFF"></path>
            <path d="M688.160114,56.265 L746.298553,56.265 L746.298553,443.465 L688.160114,443.465 L688.160114,56.265 Z" id="Rectangle-17-Copy-561" stroke="#97C1FF" stroke-width="1.21" fill="#FFFFFF"></path>
            <path d="M746.486796,56.265 L804.625235,56.265 L804.625235,443.465 L746.486796,443.465 L746.486796,56.265 Z" id="Rectangle-17-Copy-561" stroke="#97C1FF" stroke-width="1.21" fill="#FFFFFF"></path>
            <path d="M804.813477,56.265 L862.951916,56.265 L862.951916,443.465 L804.813477,443.465 L804.813477,56.265 Z" id="Rectangle-17-Copy-561" stroke="#97C1FF" stroke-width="1.21" fill="#FFFFFF"></path>
            <path d="M863.140158,56.265 L921.278597,56.265 L921.278597,443.465 L863.140158,443.465 L863.140158,56.265 Z" id="Rectangle-17-Copy-561" stroke="#97C1FF" stroke-width="1.21" fill="#FFFFFF"></path>
            <path d="M921.46684,56.265 L979.605278,56.265 L979.605278,443.465 L921.46684,443.465 L921.46684,56.265 Z" id="Rectangle-17-Copy-561" stroke="#97C1FF" stroke-width="1.21" fill="#FFFFFF"></path>
            <polygon id="Rectangle-Copy" fill="#FFFFFF" points="32.67 24.2 992.2 24.2 992.2 57.8852874 32.67 57.8852874"></polygon>
            <polygon id="Rectangle-Copy" fill="#FFFFFF" points="32.67 443.054713 992.2 443.054713 992.2 476.74 32.67 476.74"></polygon>
            <polygon id="Rectangle-Copy" fill="#FFFFFF" points="32.67 443.054713 992.2 443.054713 992.2 476.74 32.67 476.74"></polygon>
            <path d="M117.37,70.18 L560.23,70.18 L560.23,394.46 L117.37,394.46 L117.37,70.18 Z" id="Rectangle-4-Copy-4" fill="#FFFFFF" fill-rule="nonzero"></path>
            <polygon id="Rectangle-3-Copy-79" fill="#DCDCDC" points="136.73 82.28 295.24 82.28 295.24 91.96 136.73 91.96"></polygon>
            <polygon id="Rectangle-3-Copy-80" fill="#DCDCDC" points="136.73 101.64 407.77 101.64 407.77 111.32 136.73 111.32"></polygon>
            <polygon id="Rectangle-3-Copy-81" fill="#DCDCDC" points="136.73 121 378.73 121 378.73 130.68 136.73 130.68"></polygon>
            <polygon id="Rectangle-3-Copy-82" fill="#DCDCDC" points="136.73 140.36 407.77 140.36 407.77 150.04 136.73 150.04"></polygon>
            <path d="M35.3925,57.1725 L991.595,57.1725" id="Path-2-Copy-3" stroke="#DCDCDC" stroke-width="1.21" style="mix-blend-mode: multiply;"></path>
            <path d="M117.37,70.18 L560.23,70.18 L560.23,394.46 L117.37,394.46 L117.37,70.18 Z" id="Rectangle-4-Copy-5" fill-opacity="0.6" fill="#E6D6FF" fill-rule="nonzero" style="mix-blend-mode: multiply;"></path>
            <path d="M584.43,70.18 L734.47,70.18 L734.47,220.22 L584.43,220.22 L584.43,70.18 Z" id="Rectangle-4-Copy-3" fill="#FFFFFF" fill-rule="nonzero"></path>
            <path d="M584.43,244.42 L734.47,244.42 L734.47,394.46 L584.43,394.46 L584.43,244.42 Z" id="Rectangle-4-Copy-7" fill="#FFFFFF" fill-rule="nonzero"></path>
            <path d="M758.67,70.18 L908.71,70.18 L908.71,220.22 L758.67,220.22 L758.67,70.18 Z" id="Rectangle-4-Copy-6" fill="#FFFFFF" fill-rule="nonzero"></path>
            <path d="M758.67,244.42 L908.71,244.42 L908.71,394.46 L758.67,394.46 L758.67,244.42 Z" id="Rectangle-4-Copy-8" fill="#FFFFFF" fill-rule="nonzero"></path>
            <rect id="Rectangle-3-Copy-60" fill="#DCDCDC" x="212.96" y="35.09" width="53.24" height="9.68"></rect>
            <rect id="Rectangle-3-Copy-61" fill="#DCDCDC" x="287.98" y="35.09" width="53.24" height="9.68"></rect>
            <g id="icon/user/user/20" transform="translate(934.120000, 32.670000)">
                <g id="Group">
                    <g id="user" transform="translate(2.722500, 0.907500)">
                        <mask id="mask-2" fill="white">
                            <use xlink:href="#path-1"></use>
                        </mask>
                        <use id="Mask" fill="#000000" fill-rule="nonzero" xlink:href="#path-1"></use>
                        <g id="color/gray/100" mask="url(#mask-2)" fill="#171717">
                            <g transform="translate(-2.722500, -0.907500)">
                                <rect x="0" y="0" width="29" height="29"></rect>
                            </g>
                        </g>
                    </g>
                    <rect id="transparent-rectangle" x="0" y="0" width="14.52" height="14.52"></rect>
                </g>
            </g>
            <g id="icon/navigation/app-switcher/16" transform="translate(969.210000, 32.670000)">
                <g id="Group">
                    <g id="grid" transform="translate(2.268750, 2.268750)">
                        <mask id="mask-4" fill="white">
                            <use xlink:href="#path-3"></use>
                        </mask>
                        <use id="Mask" fill="#000000" fill-rule="nonzero" xlink:href="#path-3"></use>
                        <g id="color/gray/100" mask="url(#mask-4)" fill="#171717">
                            <g transform="translate(-2.268750, -2.268750)">
                                <rect x="0" y="0" width="36" height="36"></rect>
                            </g>
                        </g>
                    </g>
                    <rect id="transparent-rectangle" x="0" y="0" width="14.52" height="14.52"></rect>
                </g>
            </g>
            <polygon id="Rectangle-3-Copy-12" fill="#FFFFFF" points="0 24.2 33.88 24.2 33.88 479.16 0 479.16"></polygon>
            <g id="icon/status/help/20" transform="translate(10.890000, 452.540000)">
                <g id="help" stroke-width="1" fill-rule="evenodd" transform="translate(0.907500, 0.907500)">
                    <mask id="mask-6" fill="white">
                        <use xlink:href="#path-5"></use>
                    </mask>
                    <use id="Mask" fill="#000000" fill-rule="nonzero" xlink:href="#path-5"></use>
                    <g id="color/gray/70" mask="url(#mask-6)" fill="#565656">
                        <g transform="translate(-0.907500, -0.907500)">
                            <rect x="0" y="0" width="29" height="29"></rect>
                        </g>
                    </g>
                </g>
                <rect id="transparent-rectangle" x="0" y="0" width="14.52" height="14.52"></rect>
            </g>
            <g id="icon/file/api/20" transform="translate(10.890000, 100.430000)">
                <g id="Group">
                    <g id="api" transform="translate(0.453750, 0.453750)">
                        <mask id="mask-8" fill="white">
                            <use xlink:href="#path-7"></use>
                        </mask>
                        <use id="Mask" fill="#000000" fill-rule="nonzero" xlink:href="#path-7"></use>
                        <g id="color/gray/70" mask="url(#mask-8)" fill="#565656">
                            <g transform="translate(-0.453750, -0.453750)">
                                <rect x="0" y="0" width="29" height="29"></rect>
                            </g>
                        </g>
                    </g>
                    <rect id="transparent-rectangle" x="0" y="0" width="14.52" height="14.52"></rect>
                </g>
            </g>
            <polygon id="Rectangle-3-Copy" fill="#171717" points="1.21 56.87 3.63 56.87 3.63 90.75 1.21 90.75"></polygon>
            <g id="icon/image/chat/16" transform="translate(10.890000, 134.310000)">
                <g id="chat" stroke-width="1" fill-rule="evenodd" transform="translate(0.907500, 1.815000)">
                    <mask id="mask-10" fill="white">
                        <use xlink:href="#path-9"></use>
                    </mask>
                    <use id="Mask" fill="#000000" fill-rule="nonzero" xlink:href="#path-9"></use>
                    <g id="color/gray/70" mask="url(#mask-10)" fill="#565656">
                        <g transform="translate(-0.907500, -1.815000)">
                            <rect x="0" y="0" width="36" height="36"></rect>
                        </g>
                    </g>
                </g>
                <rect id="transparent-rectangle" x="0" y="0" width="14.52" height="14.52"></rect>
            </g>
            <g id="icon/image/cloud/20" transform="translate(10.890000, 66.550000)">
                <g id="Group">
                    <g id="cloud" transform="translate(0.907500, 2.722500)">
                        <mask id="mask-12" fill="white">
                            <use xlink:href="#path-11"></use>
                        </mask>
                        <use id="Mask" fill="#000000" fill-rule="nonzero" xlink:href="#path-11"></use>
                        <g id="color/gray/70" mask="url(#mask-12)" fill="#565656">
                            <g transform="translate(-0.907500, -2.722500)">
                                <rect x="0" y="0" width="29" height="29"></rect>
                            </g>
                        </g>
                    </g>
                    <rect id="transparent-rectangle" x="0" y="0" width="14.52" height="14.52"></rect>
                </g>
            </g>
            <g id="icon/navigation/menu/20" transform="translate(10.890000, 32.670000)">
                <g id="menu" stroke-width="1" fill-rule="evenodd" transform="translate(1.815000, 2.722500)">
                    <mask id="mask-14" fill="white">
                        <use xlink:href="#path-13"></use>
                    </mask>
                    <use id="Mask" fill="#000000" fill-rule="nonzero" xlink:href="#path-13"></use>
                    <g id="color/gray/100" mask="url(#mask-14)" fill="#171717">
                        <g transform="translate(-1.815000, -2.722500)">
                            <rect x="0" y="0" width="29" height="29"></rect>
                        </g>
                    </g>
                </g>
                <rect id="transparent-rectangle" x="0" y="0" width="14.52" height="14.52"></rect>
            </g>
            <rect id="Rectangle-3-Copy-65" fill="#8C8C8C" x="47.19" y="35.09" width="67.76" height="9.68"></rect>
            <rect id="Rectangle-3-Copy-83" fill="#DCDCDC" x="47.19" y="457.38" width="67.76" height="4.84"></rect>
            <rect id="Rectangle-3-Copy-84" fill="#DCDCDC" x="139.15" y="457.38" width="124.63" height="4.84"></rect>
            <rect id="Rectangle-3-Copy-85" fill="#DCDCDC" x="287.98" y="457.38" width="67.76" height="4.84"></rect>
            <polygon id="Rectangle-Copy-20" fill="#F3F3F3" style="mix-blend-mode: multiply;" points="2.42 56.87 35.09 56.87 35.09 90.75 2.42 90.75"></polygon>
            <path d="M35.09,23.595 L35.09,477.345" id="Path-2-Copy-2" stroke="#DCDCDC" stroke-width="1.21" style="mix-blend-mode: multiply;"></path>
            <path d="M4.2724,0 L989.1376,0 C990.828917,-6.3402716e-14 992.2,1.37108318 992.2,3.0624 L992.2,24.2 L1.21,24.2 L1.21,3.0624 C1.21,1.37108318 2.58108318,3.10689859e-16 4.2724,0 Z" id="Rectangle-2-Copy-34" fill="#565656"></path>
            <circle id="Oval-5-Copy-26" fill="#FFFFFF" cx="16.94" cy="12.1" r="3.63"></circle>
            <circle id="Oval-5-Copy-27" fill="#FFFFFF" cx="31.46" cy="12.1" r="3.63"></circle>
            <rect id="Frame-Copy" stroke="#565656" stroke-width="1.21" x="1.815" y="23.595" width="989.78" height="453.75"></rect>
            <circle id="Oval-3-Copy-6" fill="#171717" cx="513.645" cy="231.715" r="12.705"></circle>
            <polygon id="Rectangle-3-Copy-62" fill="#DCDCDC" points="596.53 82.28 649.77 82.28 649.77 91.96 596.53 91.96"></polygon>
            <polygon id="Rectangle-3-Copy-86" fill="#DCDCDC" points="770.77 82.28 824.01 82.28 824.01 91.96 770.77 91.96"></polygon>
            <polygon id="Rectangle-3-Copy-90" fill="#DCDCDC" points="770.77 256.52 824.01 256.52 824.01 266.2 770.77 266.2"></polygon>
            <polygon id="Rectangle-3-Copy-70" fill="#DCDCDC" points="596.53 256.52 649.77 256.52 649.77 266.2 596.53 266.2"></polygon>
            <polygon id="Rectangle-3-Copy-63" fill="#DCDCDC" points="596.53 101.64 687.28 101.64 687.28 111.32 596.53 111.32"></polygon>
            <polygon id="Rectangle-3-Copy-87" fill="#DCDCDC" points="770.77 101.64 861.52 101.64 861.52 111.32 770.77 111.32"></polygon>
            <polygon id="Rectangle-3-Copy-91" fill="#DCDCDC" points="770.77 275.88 861.52 275.88 861.52 285.56 770.77 285.56"></polygon>
            <polygon id="Rectangle-3-Copy-71" fill="#DCDCDC" points="596.53 275.88 687.28 275.88 687.28 285.56 596.53 285.56"></polygon>
            <polygon id="Rectangle-3-Copy-64" fill="#DCDCDC" points="596.53 121 677.6 121 677.6 130.68 596.53 130.68"></polygon>
            <polygon id="Rectangle-3-Copy-88" fill="#DCDCDC" points="770.77 121 851.84 121 851.84 130.68 770.77 130.68"></polygon>
            <polygon id="Rectangle-3-Copy-92" fill="#DCDCDC" points="770.77 295.24 851.84 295.24 851.84 304.92 770.77 304.92"></polygon>
            <polygon id="Rectangle-3-Copy-72" fill="#DCDCDC" points="596.53 295.24 677.6 295.24 677.6 304.92 596.53 304.92"></polygon>
            <rect id="Rectangle-3-Copy-66" fill="#DCDCDC" x="596.53" y="140.36" width="90.75" height="9.68"></rect>
            <rect id="Rectangle-3-Copy-89" fill="#DCDCDC" x="770.77" y="140.36" width="90.75" height="9.68"></rect>
            <rect id="Rectangle-3-Copy-93" fill="#DCDCDC" x="770.77" y="314.6" width="90.75" height="9.68"></rect>
            <rect id="Rectangle-3-Copy-73" fill="#DCDCDC" x="596.53" y="314.6" width="90.75" height="9.68"></rect>
            <path d="M584.43,70.18 L734.47,70.18 L734.47,220.22 L584.43,220.22 L584.43,70.18 Z" id="Rectangle-4-Copy-9" fill-opacity="0.6" fill="#E6D6FF" fill-rule="nonzero" style="mix-blend-mode: multiply;"></path>
            <rect id="Rectangle-11" fill="#FFFFFF" fill-rule="nonzero" x="127.05" y="24.2" width="77.44" height="33.88"></rect>
            <rect id="Rectangle-11-Copy" fill="#FFFFFF" fill-rule="nonzero" x="127.05" y="56.87" width="131.89" height="116.16"></rect>
            <rect id="Rectangle-3-Copy-59" fill="#DCDCDC" x="137.94" y="35.09" width="53.24" height="9.68"></rect>
            <rect id="Rectangle-3-Copy-75" fill="#DCDCDC" x="137.94" y="77.44" width="71.39" height="9.68"></rect>
            <rect id="Rectangle-3-Copy-78" fill="#DCDCDC" x="137.94" y="147.62" width="71.39" height="9.68"></rect>
            <rect id="Rectangle-3-Copy-76" fill="#DCDCDC" x="137.94" y="100.43" width="94.38" height="9.68"></rect>
            <rect id="Rectangle-3-Copy-77" fill="#DCDCDC" x="137.94" y="123.42" width="77.44" height="9.68"></rect>
            <polygon id="Rectangle-11-Copy" fill="#87EDED" fill-rule="nonzero" style="mix-blend-mode: multiply;" points="127.05 24.2 202.22125 24.2 202.22125 56.8764554 258.94 56.8764554 258.94 173.03 127.05 173.03"></polygon>
            <circle id="Oval-3-Copy-6" fill="#171717" cx="233.705" cy="150.705" r="12.705"></circle>
            <rect id="Rectangle-Copy-10" fill="#D0B0FF" style="mix-blend-mode: multiply;" x="35.09" y="442.86" width="957.11" height="33.88"></rect>
            <circle id="Oval-3-Copy-6" fill="#171717" cx="513.645" cy="460.405" r="12.705"></circle>
            <path d="M584.43,244.42 L734.47,244.42 L734.47,394.46 L584.43,394.46 L584.43,244.42 Z" id="Rectangle-4-Copy-10" fill-opacity="0.6" fill="#E6D6FF" fill-rule="nonzero" style="mix-blend-mode: multiply;"></path>
            <path d="M758.67,70.18 L908.71,70.18 L908.71,220.22 L758.67,220.22 L758.67,70.18 Z" id="Rectangle-4-Copy-11" fill-opacity="0.6" fill="#E6D6FF" fill-rule="nonzero" style="mix-blend-mode: multiply;"></path>
            <path d="M758.67,244.42 L908.71,244.42 L908.71,394.46 L758.67,394.46 L758.67,244.42 Z" id="Rectangle-4-Copy-12" fill-opacity="0.6" fill="#E6D6FF" fill-rule="nonzero" style="mix-blend-mode: multiply;"></path>
            <path d="M236.40332,156.13496 L234.58832,156.13496 L234.58832,154.17476 L230,154.17476 L230,152.54852 L234.03656,146 L236.40332,146 L236.40332,152.69372 L237.72464,152.69372 L237.72464,154.17476 L236.40332,154.17476 L236.40332,156.13496 Z M234.47216,147.85856 L231.56816,152.69372 L234.58832,152.69372 L234.58832,147.85856 L234.47216,147.85856 Z" id="4" fill="#FFFFFF"></path>
            <path d="M516.8878,226.90004 L516.8878,228.55532 L512.32852,228.55532 L512.0962,231.953 L512.19784,231.953 C512.63344,231.0818 513.12712,230.48648 514.3468,230.48648 C516.0892,230.48648 517.43956,231.67712 517.43956,233.6954 C517.43956,235.7282 516.0892,237.20924 513.6934,237.20924 C511.82032,237.20924 510.81844,236.309 510.2086,235.32164 L511.60252,234.24716 C512.05264,235.03124 512.6044,235.64108 513.70792,235.64108 C514.84048,235.64108 515.45032,234.95864 515.45032,233.85512 L515.45032,233.73896 C515.45032,232.69352 514.81144,232.05464 513.75148,232.05464 C512.92384,232.05464 512.41564,232.44668 512.11072,232.80968 L510.54256,232.59188 L510.92008,226.90004 L516.8878,226.90004 Z" id="5" fill="#FFFFFF"></path>
            <path d="M513.80956,465.89924 C511.48636,465.89924 510.12148,464.3456 510.12148,461.92076 C510.12148,459.01676 512.05264,456.73712 513.75148,455.59004 L516.33604,455.59004 C513.95476,457.3034 512.56084,458.66828 512.11072,460.73012 L512.22688,460.75916 C512.6044,459.97508 513.24328,459.2636 514.52104,459.2636 C516.20536,459.2636 517.48312,460.48328 517.48312,462.39992 C517.48312,464.44724 516.04564,465.89924 513.80956,465.89924 Z M513.80956,464.38916 C514.86952,464.38916 515.52292,463.77932 515.52292,462.6758 L515.52292,462.458 C515.52292,461.35448 514.86952,460.74464 513.80956,460.74464 C512.73508,460.74464 512.0962,461.35448 512.0962,462.458 L512.0962,462.6758 C512.0962,463.77932 512.73508,464.38916 513.80956,464.38916 Z" id="6" fill="#FFFFFF"></path>
        </g>
    </g>
</svg>