<?xml version="1.0" encoding="UTF-8"?>
<svg width="1120px" height="630px" viewBox="0 0 1120 630" version="1.1" xmlns="http://www.w3.org/2000/svg" xmlns:xlink="http://www.w3.org/1999/xlink">
    <!-- Generator: Sketch 52.4 (67378) - http://www.bohemiancoding.com/sketch -->
    <title>Layout_overview_Columns-rows</title>
    <desc>Created with Sketch.</desc>
    <g id="Columns-rows" stroke="none" stroke-width="1" fill="none" fill-rule="evenodd">
        <g id="Group">
            <g id="Columns-Copy-3" transform="translate(77.241379, 77.241379)">
                <g id="animation">
                    <g id="columns" transform="translate(1.206897, 24.137931)" stroke="#97C1FF" stroke-width="1.20689655">
                        <path d="M-0.603448276,361.465517 L59.7413793,361.465517 L59.7413793,451.982759 L-0.603448276,451.982759 L-0.603448276,361.465517 Z" id="Rectangle-17-Copy-487"></path>
                        <path d="M59.7413793,361.465517 L120.086207,361.465517 L120.086207,451.982759 L59.7413793,451.982759 L59.7413793,361.465517 Z" id="Rectangle-17-Copy-488"></path>
                        <path d="M120.086207,361.465517 L180.431034,361.465517 L180.431034,451.982759 L120.086207,451.982759 L120.086207,361.465517 Z" id="Rectangle-17-Copy-489"></path>
                        <path d="M180.431034,361.465517 L240.775862,361.465517 L240.775862,451.982759 L180.431034,451.982759 L180.431034,361.465517 Z" id="Rectangle-17-Copy-490"></path>
                        <path d="M240.775862,361.465517 L301.12069,361.465517 L301.12069,451.982759 L240.775862,451.982759 L240.775862,361.465517 Z" id="Rectangle-17-Copy-491"></path>
                        <path d="M301.12069,361.465517 L361.465517,361.465517 L361.465517,451.982759 L301.12069,451.982759 L301.12069,361.465517 Z" id="Rectangle-17-Copy-492"></path>
                        <path d="M361.465517,361.465517 L421.810345,361.465517 L421.810345,451.982759 L361.465517,451.982759 L361.465517,361.465517 Z" id="Rectangle-17-Copy-493"></path>
                        <path d="M421.810345,361.465517 L482.155172,361.465517 L482.155172,451.982759 L421.810345,451.982759 L421.810345,361.465517 Z" id="Rectangle-17-Copy-494"></path>
                        <path d="M482.155172,361.465517 L542.5,361.465517 L542.5,451.982759 L482.155172,451.982759 L482.155172,361.465517 Z" id="Rectangle-17-Copy-495"></path>
                        <path d="M542.5,361.465517 L602.844828,361.465517 L602.844828,451.982759 L542.5,451.982759 L542.5,361.465517 Z" id="Rectangle-17-Copy-496"></path>
                        <path d="M602.844828,361.465517 L663.189655,361.465517 L663.189655,451.982759 L602.844828,451.982759 L602.844828,361.465517 Z" id="Rectangle-17-Copy-497"></path>
                        <path d="M663.189655,361.465517 L723.534483,361.465517 L723.534483,451.982759 L663.189655,451.982759 L663.189655,361.465517 Z" id="Rectangle-17-Copy-498"></path>
                        <path d="M723.534483,361.465517 L783.87931,361.465517 L783.87931,451.982759 L723.534483,451.982759 L723.534483,361.465517 Z" id="Rectangle-17-Copy-499"></path>
                        <path d="M783.87931,361.465517 L844.224138,361.465517 L844.224138,451.982759 L783.87931,451.982759 L783.87931,361.465517 Z" id="Rectangle-17-Copy-500"></path>
                        <path d="M844.224138,361.465517 L904.568966,361.465517 L904.568966,451.982759 L844.224138,451.982759 L844.224138,361.465517 Z" id="Rectangle-17-Copy-501"></path>
                        <path d="M904.568966,361.465517 L964.913793,361.465517 L964.913793,451.982759 L904.568966,451.982759 L904.568966,361.465517 Z" id="Rectangle-17-Copy-502"></path>
                        <path d="M-0.603448276,270.948276 L120.086207,270.948276 L120.086207,361.465517 L-0.603448276,361.465517 L-0.603448276,270.948276 Z" id="Rectangle-17-Copy-487"></path>
                        <path d="M120.086207,270.948276 L240.775862,270.948276 L240.775862,361.465517 L120.086207,361.465517 L120.086207,270.948276 Z" id="Rectangle-17-Copy-487"></path>
                        <path d="M240.775862,270.948276 L361.465517,270.948276 L361.465517,361.465517 L240.775862,361.465517 L240.775862,270.948276 Z" id="Rectangle-17-Copy-487"></path>
                        <path d="M361.465517,270.948276 L482.155172,270.948276 L482.155172,361.465517 L361.465517,361.465517 L361.465517,270.948276 Z" id="Rectangle-17-Copy-487"></path>
                        <path d="M482.155172,270.948276 L602.844828,270.948276 L602.844828,361.465517 L482.155172,361.465517 L482.155172,270.948276 Z" id="Rectangle-17-Copy-487"></path>
                        <path d="M602.844828,270.948276 L723.534483,270.948276 L723.534483,361.465517 L602.844828,361.465517 L602.844828,270.948276 Z" id="Rectangle-17-Copy-487"></path>
                        <path d="M723.534483,270.948276 L844.224138,270.948276 L844.224138,361.465517 L723.534483,361.465517 L723.534483,270.948276 Z" id="Rectangle-17-Copy-487"></path>
                        <path d="M844.224138,270.948276 L964.913793,270.948276 L964.913793,361.465517 L844.224138,361.465517 L844.224138,270.948276 Z" id="Rectangle-17-Copy-487"></path>
                        <path d="M723.534483,180.431034 L964.913793,180.431034 L964.913793,270.948276 L723.534483,270.948276 L723.534483,180.431034 Z" id="Rectangle-17-Copy-487"></path>
                        <path d="M482.155172,180.431034 L723.534483,180.431034 L723.534483,270.948276 L482.155172,270.948276 L482.155172,180.431034 Z" id="Rectangle-17-Copy-487"></path>
                        <path d="M240.775862,180.431034 L482.155172,180.431034 L482.155172,270.948276 L240.775862,270.948276 L240.775862,180.431034 Z" id="Rectangle-17-Copy-487"></path>
                        <path d="M-0.603448276,180.431034 L240.775862,180.431034 L240.775862,270.948276 L-0.603448276,270.948276 L-0.603448276,180.431034 Z" id="Rectangle-17-Copy-487"></path>
                        <path d="M-0.603448276,89.9137931 L482.155172,89.9137931 L482.155172,180.431034 L-0.603448276,180.431034 L-0.603448276,89.9137931 Z" id="Rectangle-17-Copy-487"></path>
                        <path d="M482.155172,89.9137931 L964.913793,89.9137931 L964.913793,180.431034 L482.155172,180.431034 L482.155172,89.9137931 Z" id="Rectangle-17-Copy-487"></path>
                        <path d="M-0.603448276,-0.603448276 L964.913793,-0.603448276 L964.913793,89.9137931 L-0.603448276,89.9137931 L-0.603448276,-0.603448276 Z" id="Rectangle-17-Copy-487"></path>
                    </g>
                    <g id="browser">
                        <rect id="Rectangle-17-Copy-487" stroke="#BEBEBE" stroke-width="1.20689655" x="0.603448276" y="23.5344828" width="965.517241" height="452.586207"></rect>
                        <path d="M3.05454545,0 L963.669592,0 C965.356571,-3.09892991e-16 966.724138,1.36756658 966.724138,3.05454545 L966.724138,24.0798778 L0,24.0798778 L0,3.05454545 C-2.06595328e-16,1.36756658 1.36756658,3.09892991e-16 3.05454545,0 Z" id="Rectangle-2-Copy-25" fill="#565656"></path>
                        <ellipse id="Oval-5-Copy-18" fill="#FFFFFF" cx="15.6896552" cy="12.0597992" rx="3.62068966" ry="3.61152335"></ellipse>
                        <ellipse id="Oval-5-Copy-19" fill="#FFFFFF" cx="30.1724138" cy="12.0597992" rx="3.62068966" ry="3.61152335"></ellipse>
                    </g>
                </g>
            </g>
            <rect id="Rectangle" x="0" y="0" width="1120" height="630"></rect>
        </g>
    </g>
</svg>