<?xml version="1.0" encoding="UTF-8"?>
<svg width="1120px" height="630px" viewBox="0 0 1120 630" version="1.1" xmlns="http://www.w3.org/2000/svg" xmlns:xlink="http://www.w3.org/1999/xlink">
    <!-- Generator: Sketch 52.4 (67378) - http://www.bohemiancoding.com/sketch -->
    <title>Layout_overview_Fixed-base-unit</title>
    <desc>Created with Sketch.</desc>
    <g id="Fixed-base-unit" stroke="none" stroke-width="1" fill="none" fill-rule="evenodd">
        <g id="Group-7" transform="translate(15.000000, 19.000000)">
            <g id="Group-3" stroke="#DCDCDC" stroke-linecap="square" stroke-width="1.21">
                <g id="Group-6">
                    <g id="Group-16" transform="translate(0.000000, 1.210634)">
                        <path d="M70.741121,0.752013689 L70.741121,588.857491" id="Line-7"></path>
                        <path d="M61.0629856,0.752013689 L61.0629856,588.857491" id="Line-7"></path>
                        <path d="M51.3848502,0.752013689 L51.3848502,588.857491" id="Line-7"></path>
                        <path d="M690.141787,0.752013689 L690.141787,588.857491" id="Line-7"></path>
                        <path d="M680.463651,0.752013689 L680.463651,588.857491" id="Line-7"></path>
                        <path d="M670.785516,0.752013689 L670.785516,588.857491" id="Line-7"></path>
                        <path d="M661.107381,0.752013689 L661.107381,588.857491" id="Line-7"></path>
                        <path d="M651.429245,0.752013689 L651.429245,588.857491" id="Line-7"></path>
                        <path d="M641.75111,0.752013689 L641.75111,588.857491" id="Line-7"></path>
                        <path d="M767.56687,0.752013689 L767.56687,588.857491" id="Line-7"></path>
                        <path d="M757.888735,0.752013689 L757.888735,588.857491" id="Line-7"></path>
                        <path d="M748.210599,0.752013689 L748.210599,588.857491" id="Line-7"></path>
                        <path d="M738.532464,0.752013689 L738.532464,588.857491" id="Line-7"></path>
                        <path d="M728.854329,0.752013689 L728.854329,588.857491" id="Line-7"></path>
                        <path d="M719.176193,0.752013689 L719.176193,588.857491" id="Line-7"></path>
                        <path d="M709.498058,0.752013689 L709.498058,588.857491" id="Line-7"></path>
                        <path d="M699.819922,0.752013689 L699.819922,588.857491" id="Line-7"></path>
                        <path d="M844.991953,0.752013689 L844.991953,588.857491" id="Line-7"></path>
                        <path d="M835.313818,0.752013689 L835.313818,588.857491" id="Line-7"></path>
                        <path d="M825.635683,0.752013689 L825.635683,588.857491" id="Line-7"></path>
                        <path d="M815.957547,0.752013689 L815.957547,588.857491" id="Line-7"></path>
                        <path d="M806.279412,0.752013689 L806.279412,588.857491" id="Line-7"></path>
                        <path d="M796.601276,0.752013689 L796.601276,588.857491" id="Line-7"></path>
                        <path d="M922.417037,0.752013689 L922.417037,588.857491" id="Line-7"></path>
                        <path d="M912.738901,0.752013689 L912.738901,588.857491" id="Line-7"></path>
                        <path d="M903.060766,0.752013689 L903.060766,588.857491" id="Line-7"></path>
                        <path d="M893.38263,0.752013689 L893.38263,588.857491" id="Line-7"></path>
                        <path d="M883.704495,0.752013689 L883.704495,588.857491" id="Line-7"></path>
                        <path d="M874.02636,0.752013689 L874.02636,588.857491" id="Line-7"></path>
                        <path d="M864.348224,0.752013689 L864.348224,588.857491" id="Line-7"></path>
                        <path d="M854.670089,0.752013689 L854.670089,588.857491" id="Line-7"></path>
                        <path d="M786.923141,0.752013689 L786.923141,588.857491" id="Line-7"></path>
                        <path d="M777.245006,0.752013689 L777.245006,588.857491" id="Line-7"></path>
                        <path d="M999.84212,0.752013689 L999.84212,588.857491" id="Line-7"></path>
                        <path d="M990.163984,0.752013689 L990.163984,588.857491" id="Line-7"></path>
                        <path d="M980.485849,0.752013689 L980.485849,588.857491" id="Line-7"></path>
                        <path d="M970.807714,0.752013689 L970.807714,588.857491" id="Line-7"></path>
                        <path d="M961.129578,0.752013689 L961.129578,588.857491" id="Line-7"></path>
                        <path d="M951.451443,0.752013689 L951.451443,588.857491" id="Line-7"></path>
                        <path d="M1077.2672,0.752013689 L1077.2672,588.857491" id="Line-7"></path>
                        <path d="M1067.58907,0.752013689 L1067.58907,588.857491" id="Line-7"></path>
                        <path d="M1057.91093,0.752013689 L1057.91093,588.857491" id="Line-7"></path>
                        <path d="M1048.2328,0.752013689 L1048.2328,588.857491" id="Line-7"></path>
                        <path d="M1038.55466,0.752013689 L1038.55466,588.857491" id="Line-7"></path>
                        <path d="M1028.87653,0.752013689 L1028.87653,588.857491" id="Line-7"></path>
                        <path d="M1019.19839,0.752013689 L1019.19839,588.857491" id="Line-7"></path>
                        <path d="M1009.52026,0.752013689 L1009.52026,588.857491" id="Line-7"></path>
                        <path d="M1086.94534,0.752013689 L1086.94534,588.857491" id="Line-7"></path>
                        <path d="M941.773307,0.752013689 L941.773307,588.857491" id="Line-7"></path>
                        <path d="M932.095172,0.752013689 L932.095172,588.857491" id="Line-7"></path>
                        <path d="M632.072974,0.752013689 L632.072974,588.857491" id="Line-7"></path>
                        <path d="M622.394839,0.752013689 L622.394839,588.857491" id="Line-7"></path>
                        <path d="M41.7067148,0.752013689 L41.7067148,588.857491" id="Line-7"></path>
                        <path d="M32.0285794,0.752013689 L32.0285794,588.857491" id="Line-7"></path>
                        <path d="M22.350444,0.752013689 L22.350444,588.857491" id="Line-7"></path>
                        <path d="M148.166204,0.752013689 L148.166204,588.857491" id="Line-7"></path>
                        <path d="M138.488069,0.752013689 L138.488069,588.857491" id="Line-7"></path>
                        <path d="M128.809933,0.752013689 L128.809933,588.857491" id="Line-7"></path>
                        <path d="M119.131798,0.752013689 L119.131798,588.857491" id="Line-7"></path>
                        <path d="M109.453663,0.752013689 L109.453663,588.857491" id="Line-7"></path>
                        <path d="M99.7755272,0.752013689 L99.7755272,588.857491" id="Line-7"></path>
                        <path d="M90.0973918,0.752013689 L90.0973918,588.857491" id="Line-7"></path>
                        <path d="M80.4192564,0.752013689 L80.4192564,588.857491" id="Line-7"></path>
                        <path d="M225.591287,0.752013689 L225.591287,588.857491" id="Line-7"></path>
                        <path d="M215.913152,0.752013689 L215.913152,588.857491" id="Line-7"></path>
                        <path d="M206.235017,0.752013689 L206.235017,588.857491" id="Line-7"></path>
                        <path d="M196.556881,0.752013689 L196.556881,588.857491" id="Line-7"></path>
                        <path d="M186.878746,0.752013689 L186.878746,588.857491" id="Line-7"></path>
                        <path d="M177.20061,0.752013689 L177.20061,588.857491" id="Line-7"></path>
                        <path d="M303.016371,0.752013689 L303.016371,588.857491" id="Line-7"></path>
                        <path d="M293.338235,0.752013689 L293.338235,588.857491" id="Line-7"></path>
                        <path d="M283.6601,0.752013689 L283.6601,588.857491" id="Line-7"></path>
                        <path d="M273.981964,0.752013689 L273.981964,588.857491" id="Line-7"></path>
                        <path d="M264.303829,0.752013689 L264.303829,588.857491" id="Line-7"></path>
                        <path d="M254.625694,0.752013689 L254.625694,588.857491" id="Line-7"></path>
                        <path d="M244.947558,0.752013689 L244.947558,588.857491" id="Line-7"></path>
                        <path d="M235.269423,0.752013689 L235.269423,588.857491" id="Line-7"></path>
                        <path d="M167.522475,0.752013689 L167.522475,588.857491" id="Line-7"></path>
                        <path d="M157.84434,0.752013689 L157.84434,588.857491" id="Line-7"></path>
                        <path d="M380.441454,0.752013689 L380.441454,588.857491" id="Line-7"></path>
                        <path d="M370.763319,0.752013689 L370.763319,588.857491" id="Line-7"></path>
                        <path d="M361.085183,0.752013689 L361.085183,588.857491" id="Line-7"></path>
                        <path d="M351.407048,0.752013689 L351.407048,588.857491" id="Line-7"></path>
                        <path d="M341.728912,0.752013689 L341.728912,588.857491" id="Line-7"></path>
                        <path d="M332.050777,0.752013689 L332.050777,588.857491" id="Line-7"></path>
                        <path d="M457.866537,0.752013689 L457.866537,588.857491" id="Line-7"></path>
                        <path d="M448.188402,0.752013689 L448.188402,588.857491" id="Line-7"></path>
                        <path d="M438.510266,0.752013689 L438.510266,588.857491" id="Line-7"></path>
                        <path d="M428.832131,0.752013689 L428.832131,588.857491" id="Line-7"></path>
                        <path d="M419.153996,0.752013689 L419.153996,588.857491" id="Line-7"></path>
                        <path d="M409.47586,0.752013689 L409.47586,588.857491" id="Line-7"></path>
                        <path d="M399.797725,0.752013689 L399.797725,588.857491" id="Line-7"></path>
                        <path d="M390.119589,0.752013689 L390.119589,588.857491" id="Line-7"></path>
                        <path d="M535.29162,0.752013689 L535.29162,588.857491" id="Line-7"></path>
                        <path d="M525.613485,0.752013689 L525.613485,588.857491" id="Line-7"></path>
                        <path d="M515.93535,0.752013689 L515.93535,588.857491" id="Line-7"></path>
                        <path d="M506.257214,0.752013689 L506.257214,588.857491" id="Line-7"></path>
                        <path d="M496.579079,0.752013689 L496.579079,588.857491" id="Line-7"></path>
                        <path d="M486.900943,0.752013689 L486.900943,588.857491" id="Line-7"></path>
                        <path d="M612.716704,0.752013689 L612.716704,588.857491" id="Line-7"></path>
                        <path d="M603.038568,0.752013689 L603.038568,588.857491" id="Line-7"></path>
                        <path d="M593.360433,0.752013689 L593.360433,588.857491" id="Line-7"></path>
                        <path d="M583.682297,0.752013689 L583.682297,588.857491" id="Line-7"></path>
                        <path d="M574.004162,0.752013689 L574.004162,588.857491" id="Line-7"></path>
                        <path d="M564.326027,0.752013689 L564.326027,588.857491" id="Line-7"></path>
                        <path d="M554.647891,0.752013689 L554.647891,588.857491" id="Line-7"></path>
                        <path d="M544.969756,0.752013689 L544.969756,588.857491" id="Line-7"></path>
                        <path d="M477.222808,0.752013689 L477.222808,588.857491" id="Line-7"></path>
                        <path d="M467.544673,0.752013689 L467.544673,588.857491" id="Line-7"></path>
                        <path d="M322.372642,0.752013689 L322.372642,588.857491" id="Line-7"></path>
                        <path d="M312.694506,0.752013689 L312.694506,588.857491" id="Line-7"></path>
                        <path d="M12.6723085,0.752013689 L12.6723085,588.857491" id="Line-7"></path>
                        <path d="M2.99417314,0.752013689 L2.99417314,588.857491" id="Line-7"></path>
                    </g>
                    <g id="Group-17" transform="translate(2.419534, 0.000000)">
                        <path d="M1.09851306,146.403702 L1083.84396,146.403702" id="Line-8"></path>
                        <path d="M1.09851306,156.050896 L1083.84396,156.050896" id="Line-8-Copy"></path>
                        <path d="M1.09851306,165.698091 L1083.84396,165.698091" id="Line-8-Copy-2"></path>
                        <path d="M1.09851306,175.345286 L1083.84396,175.345286" id="Line-8-Copy-3"></path>
                        <path d="M1.09851306,184.992481 L1083.84396,184.992481" id="Line-8-Copy-4"></path>
                        <path d="M1.09851306,194.639676 L1083.84396,194.639676" id="Line-8-Copy-5"></path>
                        <path d="M1.09851306,204.286871 L1083.84396,204.286871" id="Line-8-Copy-6"></path>
                        <path d="M1.09851306,213.934066 L1083.84396,213.934066" id="Line-8-Copy-7"></path>
                        <path d="M1.09851306,223.581261 L1083.84396,223.581261" id="Line-8-Copy-8"></path>
                        <path d="M1.09851306,233.228456 L1083.84396,233.228456" id="Line-8-Copy-9"></path>
                        <path d="M1.09851306,242.875651 L1083.84396,242.875651" id="Line-8-Copy-10"></path>
                        <path d="M1.09851306,252.522846 L1083.84396,252.522846" id="Line-8-Copy-11"></path>
                        <path d="M1.09851306,262.17004 L1083.84396,262.17004" id="Line-8-Copy-12"></path>
                        <path d="M1.09851306,271.817235 L1083.84396,271.817235" id="Line-8-Copy-13"></path>
                        <path d="M1.09851306,281.46443 L1083.84396,281.46443" id="Line-8-Copy-14"></path>
                        <path d="M1.09851306,291.111625 L1083.84396,291.111625" id="Line-8-Copy-15"></path>
                        <path d="M1.09851306,300.75882 L1083.84396,300.75882" id="Line-8-Copy-16"></path>
                        <path d="M1.09851306,310.406015 L1083.84396,310.406015" id="Line-8-Copy-17"></path>
                        <path d="M1.09851306,320.05321 L1083.84396,320.05321" id="Line-8-Copy-18"></path>
                        <path d="M1.09851306,329.700405 L1083.84396,329.700405" id="Line-8-Copy-19"></path>
                        <path d="M1.09851306,339.3476 L1083.84396,339.3476" id="Line-8-Copy-20"></path>
                        <path d="M1.09851306,348.994795 L1083.84396,348.994795" id="Line-8-Copy-21"></path>
                        <path d="M1.09851306,358.64199 L1083.84396,358.64199" id="Line-8-Copy-22"></path>
                        <path d="M1.09851306,1.69577791 L1083.84396,1.69577791" id="Line-8-Copy-7"></path>
                        <path d="M1.09851306,11.3429728 L1083.84396,11.3429728" id="Line-8-Copy-8"></path>
                        <path d="M1.09851306,20.9901677 L1083.84396,20.9901677" id="Line-8-Copy-9"></path>
                        <path d="M1.09851306,30.6373626 L1083.84396,30.6373626" id="Line-8-Copy-10"></path>
                        <path d="M1.09851306,40.2845575 L1083.84396,40.2845575" id="Line-8-Copy-11"></path>
                        <path d="M1.09851306,49.9317525 L1083.84396,49.9317525" id="Line-8-Copy-12"></path>
                        <path d="M1.09851306,59.5789474 L1083.84396,59.5789474" id="Line-8-Copy-13"></path>
                        <path d="M1.09851306,69.2261423 L1083.84396,69.2261423" id="Line-8-Copy-14"></path>
                        <path d="M1.09851306,78.8733372 L1083.84396,78.8733372" id="Line-8-Copy-15"></path>
                        <path d="M1.09851306,88.5205321 L1083.84396,88.5205321" id="Line-8-Copy-16"></path>
                        <path d="M1.09851306,98.167727 L1083.84396,98.167727" id="Line-8-Copy-17"></path>
                        <path d="M1.09851306,107.814922 L1083.84396,107.814922" id="Line-8-Copy-18"></path>
                        <path d="M1.09851306,117.462117 L1083.84396,117.462117" id="Line-8-Copy-19"></path>
                        <path d="M1.09851306,127.109312 L1083.84396,127.109312" id="Line-8-Copy-20"></path>
                        <path d="M1.09851306,136.756507 L1083.84396,136.756507" id="Line-8-Copy-21"></path>
                        <path d="M1.09851306,368.289184 L1083.84396,368.289184" id="Line-8-Copy-23"></path>
                        <path d="M1.09851306,377.936379 L1083.84396,377.936379" id="Line-8-Copy-24"></path>
                        <path d="M1.09851306,387.583574 L1083.84396,387.583574" id="Line-8-Copy-25"></path>
                        <path d="M1.09851306,397.230769 L1083.84396,397.230769" id="Line-8-Copy-26"></path>
                        <path d="M1.09851306,406.877964 L1083.84396,406.877964" id="Line-8-Copy-27"></path>
                        <path d="M1.09851306,416.525159 L1083.84396,416.525159" id="Line-8-Copy-28"></path>
                        <path d="M1.09851306,426.172354 L1083.84396,426.172354" id="Line-8-Copy-29"></path>
                        <path d="M1.09851306,435.819549 L1083.84396,435.819549" id="Line-8-Copy-30"></path>
                        <path d="M1.09851306,445.466744 L1083.84396,445.466744" id="Line-8-Copy-31"></path>
                        <path d="M1.09851306,455.113939 L1083.84396,455.113939" id="Line-8-Copy-32"></path>
                        <path d="M1.09851306,464.761134 L1083.84396,464.761134" id="Line-8-Copy-33"></path>
                        <path d="M1.09851306,474.408329 L1083.84396,474.408329" id="Line-8-Copy-34"></path>
                        <path d="M1.09851306,484.055523 L1083.84396,484.055523" id="Line-8-Copy-35"></path>
                        <path d="M1.09851306,493.702718 L1083.84396,493.702718" id="Line-8-Copy-36"></path>
                        <path d="M1.09851306,503.349913 L1083.84396,503.349913" id="Line-8-Copy-37"></path>
                        <path d="M1.09851306,512.997108 L1083.84396,512.997108" id="Line-8-Copy-38"></path>
                        <path d="M1.09851306,522.644303 L1083.84396,522.644303" id="Line-8-Copy-39"></path>
                        <path d="M1.09851306,532.291498 L1083.84396,532.291498" id="Line-8-Copy-40"></path>
                        <path d="M1.09851306,541.938693 L1083.84396,541.938693" id="Line-8-Copy-41"></path>
                        <path d="M1.09851306,551.585888 L1083.84396,551.585888" id="Line-8-Copy-42"></path>
                        <path d="M1.09851306,561.233083 L1083.84396,561.233083" id="Line-8-Copy-43"></path>
                        <path d="M1.09851306,570.880278 L1083.84396,570.880278" id="Line-8-Copy-44"></path>
                        <path d="M1.09851306,580.527473 L1083.84396,580.527473" id="Line-8-Copy-45"></path>
                        <path d="M1.09851306,590.174667 L1083.84396,590.174667" id="Line-8-Copy-46"></path>
                    </g>
                </g>
            </g>
            <rect id="Rectangle-15-Copy-2" fill="#B3E6FF" x="293.368479" y="358.650307" width="29.0344062" height="29.0552147"></rect>
            <rect id="Rectangle-15-Copy-8" fill="#B3E6FF" x="361.115427" y="348.965235" width="38.7125416" height="38.7402863"></rect>
            <rect id="Rectangle-15-Copy-9" fill="#B3E6FF" x="438.540511" y="329.595092" width="58.0688124" height="58.1104294"></rect>
            <rect id="Rectangle-15-Copy-10" fill="#B3E6FF" x="535.321865" y="310.224949" width="77.4250832" height="77.4805726"></rect>
            <polygon id="Rectangle-15-Copy-11" fill="#B3E6FF" points="652.064373 290.552147 749.148169 290.552147 749.148169 387.705521 652.064373 387.705521"></polygon>
            <polygon id="Rectangle-15-Copy-12" fill="#B3E6FF" points="786.650943 271.182004 903.09101 271.182004 903.09101 387.705521 786.650943 387.705521"></polygon>
            <rect id="Rectangle-15-Copy-6" fill="#B3E6FF" x="235.299667" y="368.335378" width="19.3562708" height="19.3701431"></rect>
            <rect id="Rectangle-15-Copy-7" stroke="#B3E6FF" stroke-width="1.21" fill="#B3E6FF" x="187.51399" y="378.62545" width="8.46813541" height="8.47507157"></rect>
            <path d="M189.449501,411.789873 C187.083196,411.789873 185.747614,410.540499 185.747614,408.840769 C185.747614,407.533284 186.54606,406.705211 187.750988,406.371076 L187.750988,406.254855 C186.749301,405.891665 186.052475,405.107174 186.052475,403.930438 C186.052475,402.390511 187.27192,401.300941 189.449501,401.300941 C191.627081,401.300941 192.846526,402.390511 192.846526,403.930438 C192.846526,405.107174 192.1497,405.891665 191.148013,406.254855 L191.148013,406.371076 C192.352941,406.705211 193.151387,407.533284 193.151387,408.840769 C193.151387,410.540499 191.815805,411.789873 189.449501,411.789873 Z M189.449501,410.29353 C190.538291,410.29353 191.162531,409.756008 191.162531,408.855297 L191.162531,408.550217 C191.162531,407.649505 190.538291,407.111984 189.449501,407.111984 C188.36071,407.111984 187.736471,407.649505 187.736471,408.550217 L187.736471,408.855297 C187.736471,409.756008 188.36071,410.29353 189.449501,410.29353 Z M189.449501,405.688278 C190.465705,405.688278 191.031876,405.194339 191.031876,404.351738 L191.031876,404.119297 C191.031876,403.291223 190.465705,402.797284 189.449501,402.797284 C188.433296,402.797284 187.867125,403.291223 187.867125,404.119297 L187.867125,404.351738 C187.867125,405.194339 188.433296,405.688278 189.449501,405.688278 Z" id="8" fill="#3D3D3D"></path>
            <path d="M242.998624,411.615542 L236.015849,411.615542 L236.015849,410.061088 L238.803152,410.061088 L238.803152,402.855395 L238.672497,402.855395 L236.465882,405.470364 L235.275472,404.467959 L237.786948,401.475272 L240.675871,401.475272 L240.675871,410.061088 L242.998624,410.061088 L242.998624,411.615542 Z M247.803818,411.789873 C245.481065,411.789873 244.116448,410.235419 244.116448,407.809309 C244.116448,404.903787 246.047236,402.622953 247.745749,401.475272 L250.329811,401.475272 C247.94899,403.18953 246.555339,404.555125 246.105305,406.618045 L246.221443,406.6471 C246.59889,405.862609 247.237647,405.150757 248.515161,405.150757 C250.199156,405.150757 251.47667,406.371076 251.47667,408.28872 C251.47667,410.337112 250.039467,411.789873 247.803818,411.789873 Z M247.803818,410.279002 C248.863574,410.279002 249.516848,409.668843 249.516848,408.564744 L249.516848,408.34683 C249.516848,407.242732 248.863574,406.632573 247.803818,406.632573 C246.729545,406.632573 246.090788,407.242732 246.090788,408.34683 L246.090788,408.564744 C246.090788,409.668843 246.729545,410.279002 247.803818,410.279002 Z" id="16" fill="#3D3D3D"></path>
            <path d="M300.689989,410.002978 L300.689989,411.615542 L293.663663,411.615542 L293.663663,409.843174 L296.84293,407.053873 C297.917203,406.109579 298.410788,405.412254 298.410788,404.52607 L298.410788,404.337211 C298.410788,403.451027 297.742997,402.957088 296.915516,402.957088 C295.870277,402.957088 295.376693,403.639885 295.144417,404.467959 L293.489456,403.828744 C293.924972,402.477677 295.013762,401.300941 297.075205,401.300941 C299.209234,401.300941 300.428679,402.57937 300.428679,404.322683 C300.428679,406.007885 299.28182,407.082928 297.873651,408.245137 L295.739623,410.002978 L300.689989,410.002978 Z M308.340555,411.615542 L306.525905,411.615542 L306.525905,409.654315 L301.938468,409.654315 L301.938468,408.027223 L305.974251,401.475272 L308.340555,401.475272 L308.340555,408.172499 L309.66162,408.172499 L309.66162,409.654315 L308.340555,409.654315 L308.340555,411.615542 Z M306.409767,403.334806 L303.506326,408.172499 L306.525905,408.172499 L306.525905,403.334806 L306.409767,403.334806 Z" id="24" fill="#3D3D3D"></path>
            <path d="M363.312364,405.572057 L364.314051,405.572057 C365.475427,405.572057 366.012564,405.034536 366.012564,404.308155 L366.012564,404.206462 C366.012564,403.378389 365.431876,402.869922 364.517292,402.869922 C363.631743,402.869922 362.934917,403.320278 362.441332,404.090241 L361.221887,402.986143 C361.904195,402.041849 362.862331,401.300941 364.575361,401.300941 C366.622286,401.300941 368.015938,402.317873 368.015938,403.944965 C368.015938,405.25245 367.130388,406.036941 366.070633,406.254855 L366.070633,406.34202 C367.246526,406.559935 368.190144,407.373481 368.190144,408.811714 C368.190144,410.598609 366.694872,411.789873 364.459223,411.789873 C362.484883,411.789873 361.497714,410.889162 360.858957,409.901284 L362.267125,408.826241 C362.717159,409.639787 363.326881,410.220892 364.459223,410.220892 C365.577048,410.220892 366.201287,409.639787 366.201287,408.695493 L366.201287,408.5938 C366.201287,407.664033 365.518979,407.170094 364.314051,407.170094 L363.312364,407.170094 L363.312364,405.572057 Z M377.147259,410.002978 L377.147259,411.615542 L370.120932,411.615542 L370.120932,409.843174 L373.3002,407.053873 C374.374473,406.109579 374.868058,405.412254 374.868058,404.52607 L374.868058,404.337211 C374.868058,403.451027 374.200266,402.957088 373.372786,402.957088 C372.327547,402.957088 371.833962,403.639885 371.601687,404.467959 L369.946726,403.828744 C370.382242,402.477677 371.471032,401.300941 373.532475,401.300941 C375.666504,401.300941 376.885949,402.57937 376.885949,404.322683 C376.885949,406.007885 375.73909,407.082928 374.330921,408.245137 L372.196892,410.002978 L377.147259,410.002978 Z" id="32" fill="#3D3D3D"></path>
            <path d="M446.012031,411.615542 L444.197381,411.615542 L444.197381,409.654315 L439.609945,409.654315 L439.609945,408.027223 L443.645727,401.475272 L446.012031,401.475272 L446.012031,408.172499 L447.333097,408.172499 L447.333097,409.654315 L446.012031,409.654315 L446.012031,411.615542 Z M444.081243,403.334806 L441.177802,408.172499 L444.197381,408.172499 L444.197381,403.334806 L444.081243,403.334806 Z M452.210877,411.789873 C449.844573,411.789873 448.50899,410.540499 448.50899,408.840769 C448.50899,407.533284 449.307436,406.705211 450.512364,406.371076 L450.512364,406.254855 C449.510677,405.891665 448.813851,405.107174 448.813851,403.930438 C448.813851,402.390511 450.033296,401.300941 452.210877,401.300941 C454.388457,401.300941 455.607902,402.390511 455.607902,403.930438 C455.607902,405.107174 454.911077,405.891665 453.90939,406.254855 L453.90939,406.371076 C455.114317,406.705211 455.912764,407.533284 455.912764,408.840769 C455.912764,410.540499 454.577181,411.789873 452.210877,411.789873 Z M452.210877,410.29353 C453.299667,410.29353 453.923907,409.756008 453.923907,408.855297 L453.923907,408.550217 C453.923907,407.649505 453.299667,407.111984 452.210877,407.111984 C451.122087,407.111984 450.497847,407.649505 450.497847,408.550217 L450.497847,408.855297 C450.497847,409.756008 451.122087,410.29353 452.210877,410.29353 Z M452.210877,405.688278 C453.227081,405.688278 453.793252,405.194339 453.793252,404.351738 L453.793252,404.119297 C453.793252,403.291223 453.227081,402.797284 452.210877,402.797284 C451.194673,402.797284 450.628502,403.291223 450.628502,404.119297 L450.628502,404.351738 C450.628502,405.194339 451.194673,405.688278 452.210877,405.688278 Z" id="48" fill="#3D3D3D"></path>
            <path d="M539.115694,411.789873 C536.792941,411.789873 535.428324,410.235419 535.428324,407.809309 C535.428324,404.903787 537.359112,402.622953 539.057625,401.475272 L541.641687,401.475272 C539.260866,403.18953 537.867214,404.555125 537.417181,406.618045 L537.533319,406.6471 C537.910766,405.862609 538.549523,405.150757 539.827037,405.150757 C541.511032,405.150757 542.788546,406.371076 542.788546,408.28872 C542.788546,410.337112 541.351343,411.789873 539.115694,411.789873 Z M539.115694,410.279002 C540.17545,410.279002 540.828724,409.668843 540.828724,408.564744 L540.828724,408.34683 C540.828724,407.242732 540.17545,406.632573 539.115694,406.632573 C538.041421,406.632573 537.402664,407.242732 537.402664,408.34683 L537.402664,408.564744 C537.402664,409.668843 538.041421,410.279002 539.115694,410.279002 Z M550.29394,411.615542 L548.47929,411.615542 L548.47929,409.654315 L543.891853,409.654315 L543.891853,408.027223 L547.927636,401.475272 L550.29394,401.475272 L550.29394,408.172499 L551.615006,408.172499 L551.615006,409.654315 L550.29394,409.654315 L550.29394,411.615542 Z M548.363152,403.334806 L545.459711,408.172499 L548.47929,408.172499 L548.47929,403.334806 L548.363152,403.334806 Z" id="64" fill="#3D3D3D"></path>
            <path d="M655.209767,411.789873 C652.843463,411.789873 651.50788,410.540499 651.50788,408.840769 C651.50788,407.533284 652.306326,406.705211 653.511254,406.371076 L653.511254,406.254855 C652.509567,405.891665 651.812741,405.107174 651.812741,403.930438 C651.812741,402.390511 653.032186,401.300941 655.209767,401.300941 C657.387347,401.300941 658.606792,402.390511 658.606792,403.930438 C658.606792,405.107174 657.909967,405.891665 656.90828,406.254855 L656.90828,406.371076 C658.113208,406.705211 658.911654,407.533284 658.911654,408.840769 C658.911654,410.540499 657.576071,411.789873 655.209767,411.789873 Z M655.209767,410.29353 C656.298557,410.29353 656.922797,409.756008 656.922797,408.855297 L656.922797,408.550217 C656.922797,407.649505 656.298557,407.111984 655.209767,407.111984 C654.120977,407.111984 653.496737,407.649505 653.496737,408.550217 L653.496737,408.855297 C653.496737,409.756008 654.120977,410.29353 655.209767,410.29353 Z M655.209767,405.688278 C656.225971,405.688278 656.792142,405.194339 656.792142,404.351738 L656.792142,404.119297 C656.792142,403.291223 656.225971,402.797284 655.209767,402.797284 C654.193563,402.797284 653.627392,403.291223 653.627392,404.119297 L653.627392,404.351738 C653.627392,405.194339 654.193563,405.688278 655.209767,405.688278 Z M663.920089,411.789873 C661.336027,411.789873 660.145616,409.857701 660.145616,406.545407 C660.145616,403.233112 661.336027,401.300941 663.920089,401.300941 C666.504151,401.300941 667.694562,403.233112 667.694562,406.545407 C667.694562,409.857701 666.504151,411.789873 663.920089,411.789873 Z M663.920089,410.177309 C665.21212,410.177309 665.662153,409.131321 665.662153,407.460646 L665.662153,405.630168 C665.662153,403.959493 665.21212,402.913505 663.920089,402.913505 C662.628058,402.913505 662.178024,403.959493 662.178024,405.630168 L662.178024,407.460646 C662.178024,409.131321 662.628058,410.177309 663.920089,410.177309 Z" id="80" fill="#3D3D3D"></path>
            <path d="M794.347481,405.281505 C794.347481,408.187027 792.416693,410.467861 790.71818,411.615542 L788.134118,411.615542 C790.514939,409.901284 791.90859,408.535689 792.358624,406.472769 L792.242486,406.443714 C791.865039,407.228204 791.226282,407.940057 789.948768,407.940057 C788.264772,407.940057 786.987259,406.719738 786.987259,404.802094 C786.987259,402.753701 788.424462,401.300941 790.660111,401.300941 C792.982863,401.300941 794.347481,402.855395 794.347481,405.281505 Z M790.660111,406.458241 C791.734384,406.458241 792.373141,405.848082 792.373141,404.743984 L792.373141,404.52607 C792.373141,403.421971 791.734384,402.811812 790.660111,402.811812 C789.600355,402.811812 788.947081,403.421971 788.947081,404.52607 L788.947081,404.743984 C788.947081,405.848082 789.600355,406.458241 790.660111,406.458241 Z M799.457536,411.789873 C797.134784,411.789873 795.770166,410.235419 795.770166,407.809309 C795.770166,404.903787 797.700954,402.622953 799.399467,401.475272 L801.983529,401.475272 C799.602708,403.18953 798.209057,404.555125 797.759023,406.618045 L797.875161,406.6471 C798.252608,405.862609 798.891365,405.150757 800.168879,405.150757 C801.852875,405.150757 803.130388,406.371076 803.130388,408.28872 C803.130388,410.337112 801.693185,411.789873 799.457536,411.789873 Z M799.457536,410.279002 C800.517292,410.279002 801.170566,409.668843 801.170566,408.564744 L801.170566,408.34683 C801.170566,407.242732 800.517292,406.632573 799.457536,406.632573 C798.383263,406.632573 797.744506,407.242732 797.744506,408.34683 L797.744506,408.564744 C797.744506,409.668843 798.383263,410.279002 799.457536,410.279002 Z" id="96" fill="#3D3D3D"></path>
        </g>
    </g>
</svg>