<?xml version="1.0" encoding="UTF-8"?>
<svg width="1120px" height="630px" viewBox="0 0 1120 630" version="1.1" xmlns="http://www.w3.org/2000/svg" xmlns:xlink="http://www.w3.org/1999/xlink">
    <!-- Generator: Sketch 52.4 (67378) - http://www.bohemiancoding.com/sketch -->
    <title>Layout_overview_Margins</title>
    <desc>Created with Sketch.</desc>
    <g id="Margins" stroke="none" stroke-width="1" fill="none" fill-rule="evenodd">
        <g id="animation" transform="translate(65.000000, 76.000000)">
            <g id="margins" transform="translate(0.000000, 22.992405)" fill="#FFCFE1" stroke="#FFCFE1" stroke-width="1.21">
                <rect id="margin" x="979.504878" y="0.605" width="10.8901221" height="453.797595"></rect>
                <rect id="margin" x="0.605" y="0.605" width="10.8901221" height="453.797595"></rect>
            </g>
            <g id="columns" transform="translate(12.100122, 24.202532)" stroke="#97C1FF" stroke-width="1.21">
                <path d="M-0.605,362.432975 L59.8955983,362.432975 L59.8955983,453.192342 L-0.605,453.192342 L-0.605,362.432975 Z" id="Rectangle-17-Copy-487"></path>
                <path d="M59.8956105,362.432975 L120.396209,362.432975 L120.396209,453.192342 L59.8956105,453.192342 L59.8956105,362.432975 Z" id="Rectangle-17-Copy-488"></path>
                <path d="M120.396221,362.432975 L180.896819,362.432975 L180.896819,453.192342 L120.396221,453.192342 L120.396221,362.432975 Z" id="Rectangle-17-Copy-489"></path>
                <path d="M180.896832,362.432975 L241.39743,362.432975 L241.39743,453.192342 L180.896832,453.192342 L180.896832,362.432975 Z" id="Rectangle-17-Copy-490"></path>
                <path d="M241.397442,362.432975 L301.89804,362.432975 L301.89804,453.192342 L241.397442,453.192342 L241.397442,362.432975 Z" id="Rectangle-17-Copy-491"></path>
                <path d="M301.898053,362.432975 L362.398651,362.432975 L362.398651,453.192342 L301.898053,453.192342 L301.898053,362.432975 Z" id="Rectangle-17-Copy-492"></path>
                <path d="M362.398663,362.432975 L422.899261,362.432975 L422.899261,453.192342 L362.398663,453.192342 L362.398663,362.432975 Z" id="Rectangle-17-Copy-493"></path>
                <path d="M422.899274,362.432975 L483.399872,362.432975 L483.399872,453.192342 L422.899274,453.192342 L422.899274,362.432975 Z" id="Rectangle-17-Copy-494"></path>
                <path d="M483.399884,362.432975 L543.900482,362.432975 L543.900482,453.192342 L483.399884,453.192342 L483.399884,362.432975 Z" id="Rectangle-17-Copy-495"></path>
                <path d="M543.900495,362.432975 L604.401093,362.432975 L604.401093,453.192342 L543.900495,453.192342 L543.900495,362.432975 Z" id="Rectangle-17-Copy-496"></path>
                <path d="M604.401105,362.432975 L664.901703,362.432975 L664.901703,453.192342 L604.401105,453.192342 L604.401105,362.432975 Z" id="Rectangle-17-Copy-497"></path>
                <path d="M664.901716,362.432975 L725.402314,362.432975 L725.402314,453.192342 L664.901716,453.192342 L664.901716,362.432975 Z" id="Rectangle-17-Copy-498"></path>
                <path d="M725.402326,362.432975 L785.902924,362.432975 L785.902924,453.192342 L725.402326,453.192342 L725.402326,362.432975 Z" id="Rectangle-17-Copy-499"></path>
                <path d="M785.902937,362.432975 L846.403535,362.432975 L846.403535,453.192342 L785.902937,453.192342 L785.902937,362.432975 Z" id="Rectangle-17-Copy-500"></path>
                <path d="M846.403547,362.432975 L906.904145,362.432975 L906.904145,453.192342 L846.403547,453.192342 L846.403547,362.432975 Z" id="Rectangle-17-Copy-501"></path>
                <path d="M906.904158,362.432975 L967.404756,362.432975 L967.404756,453.192342 L906.904158,453.192342 L906.904158,362.432975 Z" id="Rectangle-17-Copy-502"></path>
                <path d="M-0.605,271.673481 L120.396209,271.673481 L120.396209,362.432848 L-0.605,362.432848 L-0.605,271.673481 Z" id="Rectangle-17-Copy-487"></path>
                <path d="M120.396221,271.673481 L241.39743,271.673481 L241.39743,362.432848 L120.396221,362.432848 L120.396221,271.673481 Z" id="Rectangle-17-Copy-487"></path>
                <path d="M241.397442,271.673481 L362.398651,271.673481 L362.398651,362.432848 L241.397442,362.432848 L241.397442,271.673481 Z" id="Rectangle-17-Copy-487"></path>
                <path d="M362.398663,271.673481 L483.399872,271.673481 L483.399872,362.432848 L362.398663,362.432848 L362.398663,271.673481 Z" id="Rectangle-17-Copy-487"></path>
                <path d="M483.399884,271.673481 L604.401093,271.673481 L604.401093,362.432848 L483.399884,362.432848 L483.399884,271.673481 Z" id="Rectangle-17-Copy-487"></path>
                <path d="M604.401105,271.673481 L725.402314,271.673481 L725.402314,362.432848 L604.401105,362.432848 L604.401105,271.673481 Z" id="Rectangle-17-Copy-487"></path>
                <path d="M725.402326,271.673481 L846.403535,271.673481 L846.403535,362.432848 L725.402326,362.432848 L725.402326,271.673481 Z" id="Rectangle-17-Copy-487"></path>
                <path d="M846.403547,271.673481 L967.404756,271.673481 L967.404756,362.432848 L846.403547,362.432848 L846.403547,271.673481 Z" id="Rectangle-17-Copy-487"></path>
                <path d="M725.402326,180.913987 L967.404756,180.913987 L967.404756,271.673354 L725.402326,271.673354 L725.402326,180.913987 Z" id="Rectangle-17-Copy-487"></path>
                <path d="M483.399884,180.913987 L725.402314,180.913987 L725.402314,271.673354 L483.399884,271.673354 L483.399884,180.913987 Z" id="Rectangle-17-Copy-487"></path>
                <path d="M241.397442,180.913987 L483.399872,180.913987 L483.399872,271.673354 L241.397442,271.673354 L241.397442,180.913987 Z" id="Rectangle-17-Copy-487"></path>
                <path d="M-0.605,180.913987 L241.39743,180.913987 L241.39743,271.673354 L-0.605,271.673354 L-0.605,180.913987 Z" id="Rectangle-17-Copy-487"></path>
                <path d="M-0.605,90.1544937 L483.399872,90.1544937 L483.399872,180.913861 L-0.605,180.913861 L-0.605,90.1544937 Z" id="Rectangle-17-Copy-487"></path>
                <path d="M483.399884,90.1544937 L967.404756,90.1544937 L967.404756,180.913861 L483.399884,180.913861 L483.399884,90.1544937 Z" id="Rectangle-17-Copy-487"></path>
                <path d="M-0.605,-0.605 L967.404756,-0.605 L967.404756,90.1543671 L-0.605,90.1543671 L-0.605,-0.605 Z" id="Rectangle-17-Copy-487"></path>
            </g>
            <g id="browser">
                <rect id="Frame" stroke="#BEBEBE" stroke-width="1.21" x="0.60501221" y="23.5975316" width="989.789976" height="453.797342"></rect>
                <path d="M3.0624,0 L987.9376,0 C989.628917,6.27813363e-14 991,1.37108318 991,3.0624 L991,24.144323 L0,24.144323 L0,3.0624 C-2.07126573e-16,1.37108318 1.37108318,-1.33399351e-16 3.0624,-4.4408921e-16 Z" id="Rectangle-2-Copy-25" fill="#565656"></path>
                <ellipse id="Oval-5-Copy-18" fill="#FFFFFF" cx="15.7301587" cy="12.092075" rx="3.63003663" ry="3.62118891"></ellipse>
                <ellipse id="Oval-5-Copy-19" fill="#FFFFFF" cx="30.2503053" cy="12.092075" rx="3.63003663" ry="3.62118891"></ellipse>
            </g>
        </g>
    </g>
</svg>