<?xml version="1.0" encoding="UTF-8"?>
<svg width="352px" height="352px" viewBox="0 0 352 352" version="1.1" xmlns="http://www.w3.org/2000/svg" xmlns:xlink="http://www.w3.org/1999/xlink">
    <!-- Generator: Sketch 52.4 (67378) - http://www.bohemiancoding.com/sketch -->
    <title>Layout_overview_Visual-rhythm-dont</title>
    <desc>Created with Sketch.</desc>
    <g id="Visual-rhythm-dont" stroke="none" stroke-width="1" fill="none" fill-rule="evenodd">
        <g id="Group" transform="translate(15.000000, 22.000000)">
            <g id="Group-16" transform="translate(0.000000, 43.360324)" opacity="0.5" stroke="#DCDCDC" stroke-linecap="square" stroke-width="1.24031008">
                <path d="M1.86046512,0.576768157 L1.86046512,260.738711" id="Line-7"></path>
                <path d="M8.0620155,0.576768157 L8.0620155,260.738711" id="Line-7-Copy"></path>
                <path d="M14.2635659,0.576768157 L14.2635659,260.738711" id="Line-7-Copy-2"></path>
                <path d="M20.4651163,0.576768157 L20.4651163,260.738711" id="Line-7-Copy-3"></path>
                <path d="M26.6666667,0.576768157 L26.6666667,260.738711" id="Line-7-Copy-4"></path>
                <path d="M32.8682171,0.576768157 L32.8682171,260.738711" id="Line-7-Copy-5"></path>
                <path d="M39.0697674,0.576768157 L39.0697674,260.738711" id="Line-7-Copy-6"></path>
                <path d="M45.2713178,0.576768157 L45.2713178,260.738711" id="Line-7-Copy-7"></path>
                <path d="M51.4728682,0.576768157 L51.4728682,260.738711" id="Line-7-Copy-8"></path>
                <path d="M57.6744186,0.576768157 L57.6744186,260.738711" id="Line-7-Copy-9"></path>
                <path d="M63.875969,0.576768157 L63.875969,260.738711" id="Line-7-Copy-10"></path>
                <path d="M70.0775194,0.576768157 L70.0775194,260.738711" id="Line-7-Copy-11"></path>
                <path d="M76.2790698,0.576768157 L76.2790698,260.738711" id="Line-7-Copy-12"></path>
                <path d="M82.4806202,0.576768157 L82.4806202,260.738711" id="Line-7-Copy-13"></path>
                <path d="M88.6821705,0.576768157 L88.6821705,260.738711" id="Line-7-Copy-14"></path>
                <path d="M94.8837209,0.576768157 L94.8837209,260.738711" id="Line-7-Copy-15"></path>
                <path d="M101.085271,0.576768157 L101.085271,260.738711" id="Line-7-Copy-16"></path>
                <path d="M107.286822,0.576768157 L107.286822,260.738711" id="Line-7-Copy-17"></path>
                <path d="M113.488372,0.576768157 L113.488372,260.738711" id="Line-7-Copy-18"></path>
                <path d="M119.689922,0.576768157 L119.689922,260.738711" id="Line-7-Copy-19"></path>
                <path d="M125.891473,0.576768157 L125.891473,260.738711" id="Line-7-Copy-20"></path>
                <path d="M132.093023,0.576768157 L132.093023,260.738711" id="Line-7-Copy-21"></path>
                <path d="M138.294574,0.576768157 L138.294574,260.738711" id="Line-7-Copy-22"></path>
                <path d="M144.496124,0.576768157 L144.496124,260.738711" id="Line-7-Copy-23"></path>
                <path d="M150.697674,0.576768157 L150.697674,260.738711" id="Line-7-Copy-24"></path>
                <path d="M156.899225,0.576768157 L156.899225,260.738711" id="Line-7-Copy-25"></path>
                <path d="M163.100775,0.576768157 L163.100775,260.738711" id="Line-7-Copy-26"></path>
                <path d="M169.302326,0.576768157 L169.302326,260.738711" id="Line-7-Copy-27"></path>
                <path d="M175.503876,0.576768157 L175.503876,260.738711" id="Line-7-Copy-28"></path>
                <path d="M181.705426,0.576768157 L181.705426,260.738711" id="Line-7-Copy-29"></path>
                <path d="M187.906977,0.576768157 L187.906977,260.738711" id="Line-7-Copy-30"></path>
                <path d="M194.108527,0.576768157 L194.108527,260.738711" id="Line-7-Copy-31"></path>
                <path d="M200.310078,0.576768157 L200.310078,260.738711" id="Line-7-Copy-32"></path>
                <path d="M206.511628,0.576768157 L206.511628,260.738711" id="Line-7-Copy-33"></path>
                <path d="M212.713178,0.576768157 L212.713178,260.738711" id="Line-7-Copy-34"></path>
                <path d="M218.914729,0.576768157 L218.914729,260.738711" id="Line-7-Copy-35"></path>
                <path d="M225.116279,0.576768157 L225.116279,260.738711" id="Line-7-Copy-36"></path>
                <path d="M231.317829,0.576768157 L231.317829,260.738711" id="Line-7-Copy-37"></path>
                <path d="M237.51938,0.576768157 L237.51938,260.738711" id="Line-7-Copy-38"></path>
                <path d="M243.72093,0.576768157 L243.72093,260.738711" id="Line-7-Copy-39"></path>
                <path d="M249.922481,0.576768157 L249.922481,260.738711" id="Line-7-Copy-40"></path>
                <path d="M256.124031,0.576768157 L256.124031,260.738711" id="Line-7-Copy-27"></path>
                <path d="M262.325581,0.576768157 L262.325581,260.738711" id="Line-7-Copy-28"></path>
                <path d="M268.527132,0.576768157 L268.527132,260.738711" id="Line-7-Copy-29"></path>
                <path d="M274.728682,0.576768157 L274.728682,260.738711" id="Line-7-Copy-30"></path>
                <path d="M280.930233,0.576768157 L280.930233,260.738711" id="Line-7-Copy-31"></path>
                <path d="M287.131783,0.576768157 L287.131783,260.738711" id="Line-7-Copy-32"></path>
                <path d="M293.333333,0.576768157 L293.333333,260.738711" id="Line-7-Copy-33"></path>
                <path d="M299.534884,0.576768157 L299.534884,260.738711" id="Line-7-Copy-34"></path>
                <path d="M305.736434,0.576768157 L305.736434,260.738711" id="Line-7-Copy-35"></path>
                <path d="M311.937984,0.576768157 L311.937984,260.738711" id="Line-7-Copy-36"></path>
                <path d="M318.139535,0.576768157 L318.139535,260.738711" id="Line-7-Copy-37"></path>
            </g>
            <g id="Group-17" transform="translate(2.480620, 42.121457)" opacity="0.5" stroke="#DCDCDC" stroke-linecap="square" stroke-width="1.24031008">
                <path d="M0.191862826,1.8582996 L314.85532,1.8582996" id="Line-8"></path>
                <path d="M0.191862826,8.05263158 L314.85532,8.05263158" id="Line-8-Copy"></path>
                <path d="M0.191862826,14.2469636 L314.85532,14.2469636" id="Line-8-Copy-2"></path>
                <path d="M0.191862826,20.4412955 L314.85532,20.4412955" id="Line-8-Copy-3"></path>
                <path d="M0.191862826,26.6356275 L314.85532,26.6356275" id="Line-8-Copy-4"></path>
                <path d="M0.191862826,32.8299595 L314.85532,32.8299595" id="Line-8-Copy-5"></path>
                <path d="M0.191862826,39.0242915 L314.85532,39.0242915" id="Line-8-Copy-6"></path>
                <path d="M0.191862826,45.2186235 L314.85532,45.2186235" id="Line-8-Copy-7"></path>
                <path d="M0.191862826,51.4129555 L314.85532,51.4129555" id="Line-8-Copy-8"></path>
                <path d="M0.191862826,57.6072874 L314.85532,57.6072874" id="Line-8-Copy-9"></path>
                <path d="M0.191862826,63.8016194 L314.85532,63.8016194" id="Line-8-Copy-10"></path>
                <path d="M0.191862826,69.9959514 L314.85532,69.9959514" id="Line-8-Copy-11"></path>
                <path d="M0.191862826,76.1902834 L314.85532,76.1902834" id="Line-8-Copy-12"></path>
                <path d="M0.191862826,82.3846154 L314.85532,82.3846154" id="Line-8-Copy-13"></path>
                <path d="M0.191862826,88.5789474 L314.85532,88.5789474" id="Line-8-Copy-14"></path>
                <path d="M0.191862826,94.7732794 L314.85532,94.7732794" id="Line-8-Copy-15"></path>
                <path d="M0.191862826,100.967611 L314.85532,100.967611" id="Line-8-Copy-16"></path>
                <path d="M0.191862826,107.161943 L314.85532,107.161943" id="Line-8-Copy-17"></path>
                <path d="M0.191862826,113.356275 L314.85532,113.356275" id="Line-8-Copy-18"></path>
                <path d="M0.191862826,119.550607 L314.85532,119.550607" id="Line-8-Copy-19"></path>
                <path d="M0.191862826,125.744939 L314.85532,125.744939" id="Line-8-Copy-20"></path>
                <path d="M0.191862826,131.939271 L314.85532,131.939271" id="Line-8-Copy-21"></path>
                <path d="M0.191862826,138.133603 L314.85532,138.133603" id="Line-8-Copy-22"></path>
                <path d="M0.191862826,144.327935 L314.85532,144.327935" id="Line-8-Copy-23"></path>
                <path d="M0.191862826,150.522267 L314.85532,150.522267" id="Line-8-Copy-24"></path>
                <path d="M0.191862826,156.716599 L314.85532,156.716599" id="Line-8-Copy-25"></path>
                <path d="M0.191862826,162.910931 L314.85532,162.910931" id="Line-8-Copy-26"></path>
                <path d="M0.191862826,169.105263 L314.85532,169.105263" id="Line-8-Copy-27"></path>
                <path d="M0.191862826,175.299595 L314.85532,175.299595" id="Line-8-Copy-28"></path>
                <path d="M0.191862826,181.493927 L314.85532,181.493927" id="Line-8-Copy-29"></path>
                <path d="M0.191862826,187.688259 L314.85532,187.688259" id="Line-8-Copy-30"></path>
                <path d="M0.191862826,193.882591 L314.85532,193.882591" id="Line-8-Copy-31"></path>
                <path d="M0.191862826,200.076923 L314.85532,200.076923" id="Line-8-Copy-32"></path>
                <path d="M0.191862826,206.271255 L314.85532,206.271255" id="Line-8-Copy-33"></path>
                <path d="M0.191862826,212.465587 L314.85532,212.465587" id="Line-8-Copy-34"></path>
                <path d="M0.191862826,218.659919 L314.85532,218.659919" id="Line-8-Copy-35"></path>
                <path d="M0.191862826,224.854251 L314.85532,224.854251" id="Line-8-Copy-36"></path>
                <path d="M0.191862826,231.048583 L314.85532,231.048583" id="Line-8-Copy-37"></path>
                <path d="M0.191862826,237.242915 L314.85532,237.242915" id="Line-8-Copy-38"></path>
                <path d="M0.191862826,243.437247 L314.85532,243.437247" id="Line-8-Copy-39"></path>
                <path d="M0.191862826,249.631579 L314.85532,249.631579" id="Line-8-Copy-40"></path>
                <path d="M0.191862826,255.825911 L314.85532,255.825911" id="Line-8-Copy-41"></path>
                <path d="M0.191862826,262.020243 L314.85532,262.020243" id="Line-8-Copy-42"></path>
            </g>
            <rect id="Rectangle-18-Copy-3" fill="#B3E6FF" x="75.6589147" y="162.291498" width="26.0465116" height="26.0161943"></rect>
            <path d="M99.7705426,100.417555 L89.8579845,100.417555 L89.8579845,128.247449 L86.1072868,128.247449 L86.1072868,100.417555 L76.1947287,100.417555 L76.1947287,97.1172146 L99.7705426,97.1172146 L99.7705426,100.417555 Z M110.308217,128.78264 C104.057054,128.78264 99.9491473,124.055126 99.9491473,116.740858 C99.9491473,109.426591 104.057054,104.699077 110.308217,104.699077 C116.470078,104.699077 120.265426,109.426591 120.265426,115.938073 L120.265426,117.632842 L103.699845,117.632842 L103.699845,118.703223 C103.699845,122.672551 106.244961,125.660696 110.531473,125.660696 C113.433798,125.660696 115.666357,124.233522 116.871938,121.691368 L119.417054,123.519935 C117.943566,126.641879 114.63938,128.78264 110.308217,128.78264 Z M110.308217,107.687223 C106.423566,107.687223 103.699845,110.630769 103.699845,114.644696 L103.699845,114.956891 L116.425426,114.956891 L116.425426,114.4663 C116.425426,110.407773 113.969612,107.687223 110.308217,107.687223 Z M122.765891,128.247449 L131.294264,116.65166 L123.123101,105.234267 L127.32031,105.234267 L133.169612,113.797312 L133.303566,113.797312 L139.376124,105.234267 L143.350078,105.234267 L135.223566,116.384065 L143.528682,128.247449 L139.331473,128.247449 L133.348217,119.238413 L133.214264,119.238413 L126.739845,128.247449 L122.765891,128.247449 Z M157.817054,128.247449 L153.351938,128.247449 C150.896124,128.247449 149.556589,126.686478 149.556589,124.456518 L149.556589,108.356211 L145.76124,108.356211 L145.76124,105.234267 L147.904496,105.234267 C149.422636,105.234267 149.913798,104.699077 149.913798,103.138105 L149.913798,98.856583 L153.128682,98.856583 L153.128682,105.234267 L158.174264,105.234267 L158.174264,108.356211 L153.128682,108.356211 L153.128682,125.125506 L157.817054,125.125506 L157.817054,128.247449 Z M183.178915,128.78264 C177.017054,128.78264 172.775194,124.055126 172.775194,116.740858 C172.775194,109.426591 177.017054,104.699077 183.178915,104.699077 C189.340775,104.699077 193.582636,109.426591 193.582636,116.740858 C193.582636,124.055126 189.340775,128.78264 183.178915,128.78264 Z M183.178915,125.616097 C187.018915,125.616097 189.742636,123.25234 189.742636,118.391028 L189.742636,115.090688 C189.742636,110.229377 187.018915,107.865619 183.178915,107.865619 C179.338915,107.865619 176.615194,110.229377 176.615194,115.090688 L176.615194,118.391028 C176.615194,123.25234 179.338915,125.616097 183.178915,125.616097 Z M203.048682,128.247449 L199.476589,128.247449 L199.476589,105.234267 L203.048682,105.234267 L203.048682,108.980599 L203.227287,108.980599 C204.343566,106.393846 206.308217,104.699077 209.746357,104.699077 C214.47938,104.699077 217.471008,107.910219 217.471008,113.485117 L217.471008,128.247449 L213.898915,128.247449 L213.898915,114.109506 C213.898915,110.006381 212.112868,107.910219 208.674729,107.910219 C205.817054,107.910219 203.048682,109.337393 203.048682,112.280939 L203.048682,128.247449 Z M233.500775,128.78264 C227.249612,128.78264 223.141705,124.055126 223.141705,116.740858 C223.141705,109.426591 227.249612,104.699077 233.500775,104.699077 C239.662636,104.699077 243.457984,109.426591 243.457984,115.938073 L243.457984,117.632842 L226.892403,117.632842 L226.892403,118.703223 C226.892403,122.672551 229.437519,125.660696 233.724031,125.660696 C236.626357,125.660696 238.858915,124.233522 240.064496,121.691368 L242.609612,123.519935 C241.136124,126.641879 237.831938,128.78264 233.500775,128.78264 Z M233.500775,107.687223 C229.616124,107.687223 226.892403,110.630769 226.892403,114.644696 L226.892403,114.956891 L239.617984,114.956891 L239.617984,114.4663 C239.617984,110.407773 237.162171,107.687223 233.500775,107.687223 Z" id="Text-one" fill="#3D3D3D"></path>
            <path d="M76.5767442,86.8948109 L76.5767442,162.910209 L246.499225,162.910209 L246.499225,86.8948109 L76.5767442,86.8948109 Z" id="Rectangle-5" stroke="#BEBEBE" stroke-width="1.24031008"></path>
            <rect id="Rectangle-8" stroke="#BEBEBE" stroke-width="1.24031008" fill="#FFFFFF" x="73.7984496" y="83.6242036" width="5.30852713" height="5.3009045"></rect>
            <rect id="Rectangle-8-Copy-20" stroke="#BEBEBE" stroke-width="1.24031008" fill="#FFFFFF" x="73.7984496" y="160.43392" width="5.30852713" height="5.3009045"></rect>
            <rect id="Rectangle-8-Copy-16" stroke="#BEBEBE" stroke-width="1.24031008" fill="#FFFFFF" x="158.139535" y="83.6242036" width="5.30852713" height="5.3009045"></rect>
            <rect id="Rectangle-8-Copy-21" stroke="#BEBEBE" stroke-width="1.24031008" fill="#FFFFFF" x="158.139535" y="160.43392" width="5.30852713" height="5.3009045"></rect>
            <rect id="Rectangle-8-Copy-17" stroke="#BEBEBE" stroke-width="1.24031008" fill="#FFFFFF" x="244.018605" y="83.6242036" width="5.30852713" height="5.3009045"></rect>
            <rect id="Rectangle-8-Copy-18" stroke="#BEBEBE" stroke-width="1.24031008" fill="#FFFFFF" x="243.72093" y="122.029062" width="5.30852713" height="5.3009045"></rect>
            <rect id="Rectangle-8-Copy-22" stroke="#BEBEBE" stroke-width="1.24031008" fill="#FFFFFF" x="73.7984496" y="122.029062" width="5.30852713" height="5.3009045"></rect>
            <rect id="Rectangle-8-Copy-19" stroke="#BEBEBE" stroke-width="1.24031008" fill="#FFFFFF" x="243.72093" y="160.43392" width="5.30852713" height="5.3009045"></rect>
            <path d="M99.7705426,202.004599 L89.8579845,202.004599 L89.8579845,229.834494 L86.1072868,229.834494 L86.1072868,202.004599 L76.1947287,202.004599 L76.1947287,198.704259 L99.7705426,198.704259 L99.7705426,202.004599 Z M110.308217,230.369684 C104.057054,230.369684 99.9491473,225.64217 99.9491473,218.327903 C99.9491473,211.013636 104.057054,206.286121 110.308217,206.286121 C116.470078,206.286121 120.265426,211.013636 120.265426,217.525117 L120.265426,219.219887 L103.699845,219.219887 L103.699845,220.290267 C103.699845,224.259595 106.244961,227.247741 110.531473,227.247741 C113.433798,227.247741 115.666357,225.820567 116.871938,223.278413 L119.417054,225.10698 C117.943566,228.228923 114.63938,230.369684 110.308217,230.369684 Z M110.308217,209.274267 C106.423566,209.274267 103.699845,212.217814 103.699845,216.231741 L103.699845,216.543935 L116.425426,216.543935 L116.425426,216.053344 C116.425426,211.994818 113.969612,209.274267 110.308217,209.274267 Z M122.765891,229.834494 L131.294264,218.238704 L123.123101,206.821312 L127.32031,206.821312 L133.169612,215.384356 L133.303566,215.384356 L139.376124,206.821312 L143.350078,206.821312 L135.223566,217.971109 L143.528682,229.834494 L139.331473,229.834494 L133.348217,220.825457 L133.214264,220.825457 L126.739845,229.834494 L122.765891,229.834494 Z M157.817054,229.834494 L153.351938,229.834494 C150.896124,229.834494 149.556589,228.273522 149.556589,226.043563 L149.556589,209.943255 L145.76124,209.943255 L145.76124,206.821312 L147.904496,206.821312 C149.422636,206.821312 149.913798,206.286121 149.913798,204.72515 L149.913798,200.443628 L153.128682,200.443628 L153.128682,206.821312 L158.174264,206.821312 L158.174264,209.943255 L153.128682,209.943255 L153.128682,226.712551 L157.817054,226.712551 L157.817054,229.834494 Z M184.027287,229.834494 L179.562171,229.834494 C177.106357,229.834494 175.766822,228.273522 175.766822,226.043563 L175.766822,209.943255 L171.971473,209.943255 L171.971473,206.821312 L174.114729,206.821312 C175.632868,206.821312 176.124031,206.286121 176.124031,204.72515 L176.124031,200.443628 L179.338915,200.443628 L179.338915,206.821312 L184.384496,206.821312 L184.384496,209.943255 L179.338915,209.943255 L179.338915,226.712551 L184.027287,226.712551 L184.027287,229.834494 Z M193.895194,229.834494 L187.733333,206.821312 L191.216124,206.821312 L193.671938,216.766931 L196.127752,226.846348 L196.217054,226.846348 L199.030078,216.766931 L201.932403,206.821312 L205.102636,206.821312 L208.094264,216.766931 L210.951938,226.846348 L211.04124,226.846348 L213.407752,216.766931 L215.908217,206.821312 L219.257054,206.821312 L213.139845,229.834494 L208.71938,229.834494 L205.504496,218.773895 L203.495194,211.771822 L203.405891,211.771822 L201.44124,218.773895 L198.226357,229.834494 L193.895194,229.834494 Z M232.92031,230.369684 C226.75845,230.369684 222.516589,225.64217 222.516589,218.327903 C222.516589,211.013636 226.75845,206.286121 232.92031,206.286121 C239.082171,206.286121 243.324031,211.013636 243.324031,218.327903 C243.324031,225.64217 239.082171,230.369684 232.92031,230.369684 Z M232.92031,227.203142 C236.76031,227.203142 239.484031,224.839385 239.484031,219.978073 L239.484031,216.677733 C239.484031,211.816421 236.76031,209.452664 232.92031,209.452664 C229.08031,209.452664 226.356589,211.816421 226.356589,216.677733 L226.356589,219.978073 C226.356589,224.839385 229.08031,227.203142 232.92031,227.203142 Z" id="Text-two" fill="#3D3D3D"></path>
            <path d="M76.5767442,188.481855 L76.5767442,264.497254 L246.499225,264.497254 L246.499225,188.481855 L76.5767442,188.481855 Z" id="Rectangle-5" stroke="#BEBEBE" stroke-width="1.24031008"></path>
            <rect id="Rectangle-8" stroke="#BEBEBE" stroke-width="1.24031008" fill="#FFFFFF" x="73.7984496" y="185.211248" width="5.30852713" height="5.3009045"></rect>
            <rect id="Rectangle-8-Copy-20" stroke="#BEBEBE" stroke-width="1.24031008" fill="#FFFFFF" x="73.7984496" y="262.020965" width="5.30852713" height="5.3009045"></rect>
            <rect id="Rectangle-8-Copy-16" stroke="#BEBEBE" stroke-width="1.24031008" fill="#FFFFFF" x="158.139535" y="185.211248" width="5.30852713" height="5.3009045"></rect>
            <rect id="Rectangle-8-Copy-21" stroke="#BEBEBE" stroke-width="1.24031008" fill="#FFFFFF" x="158.139535" y="262.020965" width="5.30852713" height="5.3009045"></rect>
            <rect id="Rectangle-8-Copy-17" stroke="#BEBEBE" stroke-width="1.24031008" fill="#FFFFFF" x="244.018605" y="185.211248" width="5.30852713" height="5.3009045"></rect>
            <rect id="Rectangle-8-Copy-18" stroke="#BEBEBE" stroke-width="1.24031008" fill="#FFFFFF" x="243.72093" y="223.616106" width="5.30852713" height="5.3009045"></rect>
            <rect id="Rectangle-8-Copy-22" stroke="#BEBEBE" stroke-width="1.24031008" fill="#FFFFFF" x="73.7984496" y="223.616106" width="5.30852713" height="5.3009045"></rect>
            <rect id="Rectangle-8-Copy-19" stroke="#BEBEBE" stroke-width="1.24031008" fill="#FFFFFF" x="243.72093" y="262.020965" width="5.30852713" height="5.3009045"></rect>
            <polygon id="Shape" fill="#FFFFFF" fill-rule="nonzero" points="18.1182724 6.81376518 23.5658915 1.37248699 22.1918051 0 16.744186 5.4412782 11.296567 0 9.92248062 1.37248699 15.3700997 6.81376518 9.92248062 12.2550434 11.296567 13.6275304 16.744186 8.18625217 22.1918051 13.6275304 23.5658915 12.2550434"></polygon>
        </g>
    </g>
</svg>