<?xml version="1.0" encoding="UTF-8"?>
<svg width="32px" height="32px" viewBox="0 0 32 32" version="1.1" xmlns="http://www.w3.org/2000/svg" xmlns:xlink="http://www.w3.org/1999/xlink">
    <!-- Generator: Sketch 47 (45396) - http://www.bohemiancoding.com/sketch -->
    <title>Button-Fill-Black</title>
    <desc>Created with Sketch.</desc>
    <defs></defs>
    <g id="Final" stroke="none" stroke-width="1" fill="none" fill-rule="evenodd">
        <g id="1440" transform="translate(-194.000000, -1422.000000)" fill="#000000">
            <g id="Button-Fill-Black" transform="translate(194.000000, 1422.000000)">
                <polygon id="Fill-1" points="7.82792911 14.559865 7.82792911 17.4001013 9.95113586 15.9800169"></polygon>
                <polygon id="Fill-2" points="15.1562802 12.4982549 15.1562802 8.54024641 8.50736878 12.9725165 11.4774278 14.9593519"></polygon>
                <polygon id="Fill-3" points="23.502508 12.9725097 16.8535291 8.54023966 16.8535291 12.4982481 20.5326515 14.9593451"></polygon>
                <polygon id="Fill-4" points="8.50734852 18.9874768 15.1562599 23.4197468 15.1562599 19.4616709 11.4774751 17.0011814"></polygon>
                <polygon id="Fill-5" points="16.8535089 19.4616979 16.8535089 23.4197738 23.5024878 18.9875038 20.5326312 17.0012084"></polygon>
                <polygon id="Fill-6" points="16.0048135 13.9724084 13.003497 15.9799696 16.0048135 17.9875983 19.0063325 15.9799696"></polygon>
                <g id="Group-11">
                    <path d="M25.8788928,18.98853 C25.8788928,19.0259308 25.8762599,19.0627916 25.8713316,19.0996523 C25.8695089,19.1116017 25.8666059,19.1240911 25.8645806,19.1360405 C25.8601924,19.1599392 25.8560068,19.183838 25.8497283,19.2071966 C25.8461502,19.2212388 25.8409519,19.2346734 25.8364962,19.248243 C25.8297451,19.2689688 25.8230616,19.2898295 25.8147578,19.3106228 C25.8090194,19.3245975 25.8019308,19.3380996 25.7957873,19.3516017 C25.7866734,19.3708422 25.7772895,19.3894751 25.7669603,19.408243 C25.7593316,19.4212051 25.7508253,19.4342346 25.7427241,19.4471966 C25.7313148,19.4648844 25.719703,19.4820321 25.7069435,19.4986397 C25.6975595,19.5116017 25.687973,19.5235511 25.6776439,19.5355004 C25.6643443,19.5510278 25.6503021,19.5666228 25.6355173,19.5811376 C25.6243105,19.5926143 25.6133738,19.6040236 25.601762,19.6144203 C25.5864371,19.6284624 25.5700996,19.6419646 25.553492,19.6549266 C25.540935,19.6648506 25.5285131,19.6747072 25.5152135,19.6840236 C25.5103527,19.6871966 25.5059646,19.6913148 25.5009688,19.6944203 L16.4756861,25.7115004 C16.3331038,25.8065553 16.1691882,25.8542852 16.0048,25.8542852 C15.8409519,25.8542852 15.6767662,25.8065553 15.534184,25.7115004 L6.50863122,19.6944203 C6.50390549,19.6913148 6.4995173,19.6871966 6.49485907,19.6840236 C6.48155949,19.6747072 6.46886751,19.6648506 6.45637806,19.6549266 C6.43977046,19.6419646 6.42363544,19.6284624 6.40831055,19.6144203 C6.39663122,19.6040236 6.38549198,19.5926143 6.37428523,19.5811376 C6.35950042,19.5666228 6.34579578,19.5510278 6.33195612,19.5355004 C6.32209958,19.5235511 6.31224304,19.5116017 6.30292658,19.4986397 C6.29043713,19.4820321 6.27848776,19.4648844 6.26728101,19.4471966 C6.25870717,19.4342346 6.25067342,19.4212051 6.2429097,19.408243 C6.23251308,19.3894751 6.22319662,19.3708422 6.2140827,19.3516017 C6.20760169,19.3380996 6.20105316,19.3245975 6.19511224,19.3106228 C6.18680844,19.2898295 6.17978734,19.2689688 6.17330633,19.248243 C6.1686481,19.2346734 6.16398987,19.2212388 6.16007426,19.2071966 C6.15379578,19.183838 6.14967764,19.1599392 6.14522194,19.1360405 C6.14319662,19.1240911 6.14009114,19.1116017 6.13847089,19.0996523 C6.13354262,19.0627916 6.13070717,19.0259308 6.13070717,18.98853 L6.13070717,12.9714498 C6.13070717,12.9340489 6.13354262,12.8971882 6.13847089,12.8608 C6.14009114,12.8483781 6.14319662,12.8364287 6.14522194,12.8239392 C6.14967764,12.8000405 6.15379578,12.7761418 6.16007426,12.7527831 C6.16398987,12.7387409 6.1686481,12.7252388 6.17330633,12.7117367 C6.17978734,12.6909435 6.18680844,12.6702177 6.19511224,12.649897 C6.20105316,12.6359224 6.20760169,12.6218802 6.2140827,12.6083781 C6.22319662,12.5891376 6.23251308,12.5704371 6.2429097,12.5522768 C6.25067342,12.5387747 6.25870717,12.5258127 6.26728101,12.5127831 C6.27848776,12.4951629 6.29043713,12.4780152 6.30292658,12.4613401 C6.31224304,12.4489181 6.32209958,12.4364287 6.33195612,12.4245468 C6.34579578,12.4089519 6.35950042,12.393357 6.37428523,12.3787747 C6.38549198,12.3673654 6.39663122,12.3559561 6.40831055,12.3455595 C6.42363544,12.3315173 6.43977046,12.3180152 6.45637806,12.3049857 C6.46886751,12.2951291 6.48155949,12.2852726 6.49485907,12.2759561 C6.4995173,12.2727831 6.50390549,12.268665 6.50863122,12.2655595 L15.534184,6.24847932 C15.8193485,6.05836962 16.190454,6.05836962 16.4756861,6.24847932 L25.5009688,12.2655595 C25.5059646,12.268665 25.5103527,12.2727831 25.5152135,12.2759561 C25.5285131,12.2852726 25.540935,12.2951291 25.553492,12.3049857 C25.5700996,12.3180152 25.5864371,12.3315173 25.601762,12.3455595 C25.6133738,12.3559561 25.6243105,12.3673654 25.6355173,12.3787747 C25.6503021,12.393357 25.6643443,12.4089519 25.6776439,12.4245468 C25.687973,12.4364287 25.6975595,12.4489181 25.7069435,12.4613401 C25.719703,12.4780152 25.7313148,12.4951629 25.7427241,12.5127831 C25.7508253,12.5258127 25.7593316,12.5387747 25.7669603,12.5522768 C25.7772895,12.5704371 25.7866734,12.5891376 25.7957873,12.6083781 C25.8019308,12.6218802 25.8090194,12.6359224 25.8147578,12.649897 C25.8230616,12.6702177 25.8297451,12.6909435 25.8364962,12.7117367 C25.8409519,12.7252388 25.8461502,12.7387409 25.8497283,12.7527831 C25.8560068,12.7761418 25.8601924,12.8000405 25.8645806,12.8239392 C25.8666059,12.8364287 25.8695089,12.8483781 25.8713316,12.8608 C25.8762599,12.8971882 25.8788928,12.9340489 25.8788928,12.9714498 L25.8788928,18.98853 Z M16.0048,0.0104371308 C7.18542447,0.0104371308 0.035449789,7.16014177 0.035449789,15.9799899 C0.035449789,24.7999055 7.18542447,31.9492726 16.0048,31.9492726 C24.8247156,31.9492726 31.9743527,24.7999055 31.9743527,15.9799899 C31.9743527,7.16014177 24.8247156,0.0104371308 16.0048,0.0104371308 L16.0048,0.0104371308 Z" id="Fill-7"></path>
                    <polygon id="Fill-9" points="24.1818937 17.4001215 24.1818937 14.5598852 22.0590245 15.9799696"></polygon>
                </g>
            </g>
        </g>
    </g>
</svg>