<?xml version="1.0" encoding="UTF-8"?>
<svg width="33px" height="32px" viewBox="0 0 33 32" version="1.1" xmlns="http://www.w3.org/2000/svg" xmlns:xlink="http://www.w3.org/1999/xlink">
    <!-- Generator: Sketch 47 (45396) - http://www.bohemiancoding.com/sketch -->
    <title>Fill 3</title>
    <desc>Created with Sketch.</desc>
    <defs></defs>
    <g id="Final" stroke="none" stroke-width="1" fill="none" fill-rule="evenodd">
        <g id="1440" transform="translate(-762.000000, -1236.000000)" fill="#161514">
            <path d="M762.752699,1252.00049 C762.752699,1259.06958 767.336756,1265.06609 773.694717,1267.1818 C774.495233,1267.32914 774.786954,1266.83508 774.786954,1266.41076 C774.786954,1266.03162 774.773203,1265.02483 774.765345,1263.68998 C770.314871,1264.6565 769.375861,1261.5448 769.375861,1261.5448 C768.64803,1259.69625 767.599011,1259.20415 767.599011,1259.20415 C766.146296,1258.2121 767.709021,1258.23174 767.709021,1258.23174 C769.314963,1258.3447 770.159679,1259.8809 770.159679,1259.8809 C771.586856,1262.32567 773.904914,1261.61945 774.816421,1261.20986 C774.961791,1260.17656 775.375309,1259.47132 775.832045,1259.07155 C772.279327,1258.66785 768.543914,1257.2947 768.543914,1251.16363 C768.543914,1249.41723 769.167629,1247.98809 770.19111,1246.87032 C770.026096,1246.46564 769.477031,1244.83809 770.348267,1242.63593 C770.348267,1242.63593 771.690972,1242.20572 774.747665,1244.27625 C776.023579,1243.92069 777.392805,1243.74388 778.75319,1243.73701 C780.112593,1243.74388 781.480837,1243.92069 782.758715,1244.27625 C785.813444,1242.20572 787.154185,1242.63593 787.154185,1242.63593 C788.027385,1244.83809 787.47832,1246.46564 787.314288,1246.87032 C788.339734,1247.98809 788.958537,1249.41723 788.958537,1251.16363 C788.958537,1257.31041 785.217231,1258.66294 781.653709,1259.05878 C782.22733,1259.55284 782.739071,1260.52918 782.739071,1262.02216 C782.739071,1264.16047 782.719426,1265.88625 782.719426,1266.41076 C782.719426,1266.83901 783.008201,1267.337 783.819521,1267.18082 C790.172571,1265.06019 794.752699,1259.06762 794.752699,1252.00049 C794.752699,1243.16339 787.588329,1236 778.751226,1236 C769.917069,1236 762.752699,1243.16339 762.752699,1252.00049 Z" id="Fill-3"></path>
        </g>
    </g>
</svg>