<svg id="icon" xmlns="http://www.w3.org/2000/svg" width="32" height="32" viewBox="0 0 32 32">
  <defs>
    <style>
      .cls-1 {
        fill: none;
      }
    </style>
  </defs>
  <path d="M16,8a5.9908,5.9908,0,0,0,9.4712,4.8853L28.586,16,30,14.586l-3.115-3.1148A5.997,5.997,0,1,0,16,8Zm2,0a4,4,0,1,1,4,4A4.0045,4.0045,0,0,1,18,8Z" transform="translate(0 0)"/>
  <rect x="11" y="24" width="10" height="2"/>
  <rect x="13" y="28" width="6" height="2"/>
  <path d="M10.8145,18.1406A7.1851,7.1851,0,0,1,8,12a8.0055,8.0055,0,0,1,6-7.7373L13.6138,2.3A10.0088,10.0088,0,0,0,6,12a9.1793,9.1793,0,0,0,3.46,7.6162C10.4717,20.5508,11,21.0815,11,22h2C13,20.16,11.8892,19.1338,10.8145,18.1406Z" transform="translate(0 0)"/>
  <path d="M23.0493,16a9.5991,9.5991,0,0,1-1.8716,2.1426C20.1069,19.1348,19,20.1611,19,22h2c0-.9194.5264-1.45,1.5352-2.3857a10.9664,10.9664,0,0,0,2.3686-2.8331Z" transform="translate(0 0)"/>
  <rect id="_Transparent_Rectangle_" data-name="&lt;Transparent Rectangle&gt;" class="cls-1" width="32" height="32"/>
</svg>
