<svg id="icon" xmlns="http://www.w3.org/2000/svg" width="32" height="32" viewBox="0 0 32 32">
  <defs>
    <style>
      .cls-1 {
        fill: none;
      }
    </style>
  </defs>
  <rect x="11" y="24" width="10" height="2"/>
  <rect x="13" y="28" width="6" height="2"/>
  <path d="M23.0488,16a9.6136,9.6136,0,0,1-1.8711,2.1426C20.1069,19.1348,19,20.1611,19,22h2c0-.9194.5264-1.45,1.5352-2.3857A9.9886,9.9886,0,0,0,25.2815,16Z" transform="translate(0 0)"/>
  <path d="M16,4a7.9279,7.9279,0,0,1,3.69.9106l.8958-1.791A9.99,9.99,0,0,0,6,12a9.1793,9.1793,0,0,0,3.46,7.6162C10.4717,20.5508,11,21.0815,11,22h2c0-1.84-1.1108-2.8662-2.1855-3.8594A7.1851,7.1851,0,0,1,8,12,8.0092,8.0092,0,0,1,16,4Z" transform="translate(0 0)"/>
  <path d="M29,14H19a1,1,0,0,1-.8945-1.4473l5-10a1,1,0,0,1,1.7888,0l5,10A1,1,0,0,1,29,14Zm-8.3818-2h6.7636L24,5.2361Z" transform="translate(0 0)"/>
  <rect id="_Transparent_Rectangle_" data-name="&lt;Transparent Rectangle&gt;" class="cls-1" width="32" height="32"/>
</svg>
