<svg id="icon" xmlns="http://www.w3.org/2000/svg" viewBox="0 0 32 32"><defs><style>.cls-1{fill:none;}</style></defs><title>watson-health--arrow-annotation</title><polygon points="13.71 12.29 7.42 6 14 6 14 4 4 4 4 13.99 6 14.01 6 7.41 12.29 13.7 13.71 12.29"/><path d="M28,10H18v2H28V28H12V18H10V28a2,2,0,0,0,2,2H28a2,2,0,0,0,2-2V12A2,2,0,0,0,28,10Z" transform="translate(0 0)"/><polygon points="19 25 21 25 21 18 24 18 24 16 16 16 16 18 19 18 19 25"/><rect id="_Transparent_Rectangle_" data-name="&lt;Transparent Rectangle&gt;" class="cls-1" width="32" height="32"/></svg>