<svg id="icon" xmlns="http://www.w3.org/2000/svg" viewBox="0 0 32 32"><defs><style>.cls-1{fill:none;}</style></defs><title>watson-health--cd--creat-exchange</title><circle cx="14" cy="14" r="2"/><path d="M14,2a12,12,0,0,0,0,24V24A10,10,0,1,1,24,14,8.27,8.27,0,0,1,24,15h2c0-.33.05-.66.05-1A12,12,0,0,0,14,2Z"/><polygon points="17 24 26.17 24 23.58 26.59 25 28 30 23 25 18 23.58 19.42 26.17 22 17 22 17 24"/><path d="M14,20a6,6,0,1,1,6-6A6,6,0,0,1,14,20Zm0-10a4,4,0,1,0,4,4A4,4,0,0,0,14,10Z"/><rect id="_Transparent_Rectangle_" data-name="&lt;Transparent Rectangle&gt;" class="cls-1" width="32" height="32"/></svg>