<svg id="icon" xmlns="http://www.w3.org/2000/svg" width="32" height="32" viewBox="0 0 32 32"><defs><style>.cls-1{fill:none;}</style></defs><title>denominate</title><path d="M25,23H19a3,3,0,0,0-3,3v2h2V26a1,1,0,0,1,1-1h6a1,1,0,0,1,1,1v2h2V26A3,3,0,0,0,25,23Z"/><path d="M18,18a4,4,0,1,0,4-4A4,4,0,0,0,18,18Zm6,0a2,2,0,1,1-2-2A2,2,0,0,1,24,18Z"/><polygon points="15 15.415 13.586 14 11 16.587 8.414 14 7 15.415 9.586 18 7 20.586 8.414 22 11 19.414 13.586 22 15 20.586 12.414 18 15 15.415"/><path d="M14,26H4V6h7.1716l3.4141,3.4143L15.1716,10H28v8h2V10a2,2,0,0,0-2-2H16L12.5859,4.5858A2,2,0,0,0,11.1716,4H4A2,2,0,0,0,2,6V26a2,2,0,0,0,2,2H14Z"/><g id="_Transparent_Rectangle_" data-name="&lt;Transparent Rectangle&gt;"><rect class="cls-1" width="32" height="32"/></g></svg>