<svg id="icon" xmlns="http://www.w3.org/2000/svg" width="32" height="32" viewBox="0 0 32 32">
  <defs>
    <style>
      .cls-1 {
        fill: none;
      }
    </style>
  </defs>
  <polygon points="29 9 21 9 21 13 23 13 23 11 26.847 11 22 23 24.157 23 29 11 29 9"/>
  <polygon points="14 21 14 9 12 9 12 23 20 23 20 21 14 21"/>
  <polygon points="8 9 8 15 4 15 4 9 2 9 2 23 4 23 4 17 8 17 8 23 10 23 10 9 8 9"/>
  <rect id="_Transparent_Rectangle_" data-name="&lt;Transparent Rectangle&gt;" class="cls-1" width="32" height="32"/>
</svg>
