<svg id="icon" xmlns="http://www.w3.org/2000/svg" width="32" height="32" viewBox="0 0 32 32"><defs><style>.cls-1{fill:none;}</style></defs><title>iCA-2D</title><polygon points="2.001 21 2.001 30 11 30 11 28 4 28 4 21 2.001 21"/><polygon points="21.001 30 30 30 30 21 28.001 21 28.001 28 21.001 28 21.001 30"/><path d="M22,24H10a2.0023,2.0023,0,0,1-2-2V10a2.002,2.002,0,0,1,2-2H22a2.0023,2.0023,0,0,1,2,2V22A2.0027,2.0027,0,0,1,22,24ZM10,10V22H22.002L22,10Z"/><polygon points="30 11 30 2 21.001 2 21.001 4 28.001 4 28.001 11 30 11"/><polygon points="11 2 2.001 2 2.001 11 4 11 4 4 11 4 11 2"/><rect id="_Transparent_Rectangle_" data-name="&lt;Transparent Rectangle&gt;" class="cls-1" width="32" height="32"/></svg>