<svg id="icon" xmlns="http://www.w3.org/2000/svg" width="32" height="32" viewBox="0 0 32 32"><defs><style>.cls-1{fill:none;}</style></defs><title>mammogram--stacked</title><path d="M30,16H28V4H16V2H28a2.0023,2.0023,0,0,1,2,2Z"/><path d="M25,23H23V9H9V7H23a2.0023,2.0023,0,0,1,2,2Z"/><path d="M18,30H4a2.0023,2.0023,0,0,1-2-2V14a2.002,2.002,0,0,1,2-2H18a2.0023,2.0023,0,0,1,2,2V28A2.0027,2.0027,0,0,1,18,30ZM4,14V28H18.002L18,14Z"/><path d="M13,18h1V16H13a5.0083,5.0083,0,0,0-4.8989,4H7v2H8.1011A5.0083,5.0083,0,0,0,13,26h1V24H13a3,3,0,0,1,0-6Z"/><rect id="_Transparent_Rectangle_" data-name="&lt;Transparent Rectangle&gt;" class="cls-1" width="32" height="32"/></svg>