<svg id="icon" xmlns="http://www.w3.org/2000/svg" width="32" height="32" viewBox="0 0 32 32"><defs><style>.cls-1{fill:none;}</style></defs><title>mammogram</title><path d="M17.1719,13h.21a1.9871,1.9871,0,0,0,1.7891-1.1055l1.5-3.0045L18.8818,8l-1.5,3h-.21a5.1491,5.1491,0,0,0-5.0476,4H11v2h1.13A4.9228,4.9228,0,0,0,17,21v2h2V19H17a3.0009,3.0009,0,0,1-2.9858-3.2979A3.1181,3.1181,0,0,1,17.1719,13Z"/><path d="M26,28H6a2.0023,2.0023,0,0,1-2-2V6A2.002,2.002,0,0,1,6,4H26a2.0023,2.0023,0,0,1,2,2V26A2.0027,2.0027,0,0,1,26,28ZM6,6V26H26.002L26,6Z"/><rect id="_Transparent_Rectangle_" data-name="&lt;Transparent Rectangle&gt;" class="cls-1" width="32" height="32"/></svg>