<svg xmlns="http://www.w3.org/2000/svg" viewBox="0 0 32 32"><rect width="2" height="3" x="19" y="21"/><rect width="2" height="3" x="19"/><rect width="3" height="2" x="8" y="11"/><rect width="3" height="2" x="29" y="11"/><rect width="1.98" height="3" x="11.59" y="3.07" transform="rotate(-45 12.586 4.577)"/><rect width="1.98" height="3" x="26.44" y="17.92" transform="rotate(-45 27.43 19.408)"/><rect width="3" height="1.98" x="11.09" y="18.42" transform="rotate(-45 12.592 19.414)"/><rect width="3" height="1.98" x="25.93" y="3.58" transform="rotate(-45 27.423 4.57)"/><path d="M20,5a7,7,0,1,0,7,7A7,7,0,0,0,20,5Zm0,12A5,5,0,0,1,20,7Z"/><path d="M5,18H0V32H5a3,3,0,0,0,3-3V27a3,3,0,0,0-.78-2A3,3,0,0,0,8,23V21A3,3,0,0,0,5,18ZM2,20H5a1,1,0,0,1,1,1v2a1,1,0,0,1-1,1H2Zm4,9a1,1,0,0,1-1,1H2V26H5a1,1,0,0,1,1,1Z"/><polygon points="2 2 9 2 9 0 0 0 0 9 2 9 2 2"/></svg>