<svg id="icon" xmlns="http://www.w3.org/2000/svg" width="32" height="32" viewBox="0 0 32 32"><defs><style>.cls-1{fill:none;}</style></defs><title>registration</title><path d="M28,25H20a2.0027,2.0027,0,0,1-2-2V20h2v3h8V9H20v3H18V9a2.0023,2.0023,0,0,1,2-2h8a2.0023,2.0023,0,0,1,2,2V23A2.0027,2.0027,0,0,1,28,25Z"/><rect x="8" y="15" width="4" height="2"/><rect x="20" y="15" width="4" height="2"/><rect x="14" y="15" width="4" height="2"/><path d="M12,25H4a2.0023,2.0023,0,0,1-2-2V9A2.002,2.002,0,0,1,4,7h8a2.002,2.002,0,0,1,2,2v3H12V9H4V23h8V20h2v3A2.0023,2.0023,0,0,1,12,25Z"/><rect id="_Transparent_Rectangle_" data-name="&lt;Transparent Rectangle&gt;" class="cls-1" width="32" height="32"/></svg>