<svg id="icon" xmlns="http://www.w3.org/2000/svg" width="32" height="32" viewBox="0 0 32 32"><defs><style>.cls-1{fill:none;}</style></defs><title>rotate--180</title><path d="M14.0913,26.8235l-.3467,1.968a12.8956,12.8956,0,0,1-4.24-1.5418l1-1.7307A10.9086,10.9086,0,0,0,14.0913,26.8235Z"/><path d="M7.5767,23.0682,6.0449,24.3533a12.9811,12.9811,0,0,1-2.25-3.9112l1.8775-.6834A10.9808,10.9808,0,0,0,7.5767,23.0682Z"/><path d="M22.4951,27.25a12.8956,12.8956,0,0,1-4.24,1.5418l-.3467-1.968a10.9086,10.9086,0,0,0,3.5869-1.3045Z"/><path d="M26.3271,19.7587l1.8775.6834a12.9811,12.9811,0,0,1-2.2495,3.9112l-.3115-.2614-1.22-1.0237h0a10.9822,10.9822,0,0,0,1.9038-3.3093Z"/><path d="M13.6616,5.2559c-.1592.0346-.3144.08-.4712.1215-.2131.0562-.4258.1138-.6335.1822-.1643.0547-.325.1167-.4859.1782-.1926.0742-.3835.1509-.57.2349-.1611.0727-.3193.15-.4763.23q-.2677.1363-.5262.2867c-.153.0893-.3046.18-.4531.2758-.1679.1089-.3308.2242-.4922.3413-.1406.1026-.2817.2037-.417.3125-.1616.1294-.3156.2676-.47.4063-.1225.11-.2478.2168-.3652.332-.1668.1636-.3223.3379-.4785.5117A10.9438,10.9438,0,0,0,5,16H3A12.9363,12.9363,0,0,1,6.05,7.65l-.0047-.0039c.0918-.1094.197-.2061.2925-.3125.1841-.2051.3672-.41.5635-.603.1382-.1358.2856-.2613.43-.3907.1831-.1645.3657-.3286.5581-.4824.1592-.1279.3244-.2466.4895-.3667.1921-.14.3855-.2768.5854-.4062.1743-.1128.3523-.2188.5322-.3238q.3081-.1786.6253-.3408c.1846-.0942.37-.1846.56-.27.2224-.1.449-.1914.678-.2793.1894-.0723.3777-.1455.5713-.209.2463-.0815.498-.1494.7507-.2163.1848-.0493.3674-.1025.5554-.1431.29-.0634.5865-.1074.8833-.1508.159-.023.3145-.0552.4754-.0728A12.9331,12.9331,0,0,1,26,7.7031V4h2v8H20V10h5.1885A10.961,10.961,0,0,0,16,5a11.1114,11.1114,0,0,0-1.189.0669c-.1362.0146-.268.042-.4026.0615C14.1575,5.165,13.907,5.2026,13.6616,5.2559Z"/><rect id="_Transparent_Rectangle_" data-name="&lt;Transparent Rectangle&gt;" class="cls-1" width="32" height="32"/></svg>