<svg id="icon" xmlns="http://www.w3.org/2000/svg" viewBox="0 0 32 32"><defs><style>.cls-1{fill:none;}</style></defs><title>watson-health--save--series</title><path d="M21.56,15.1l-3.48-4.35A2,2,0,0,0,16.52,10H4a2,2,0,0,0-2,2V28a2,2,0,0,0,2,2H20a2,2,0,0,0,2-2V16.35A2,2,0,0,0,21.56,15.1ZM9,12h6v3H9Zm6,16H9V22h6Zm2,0V22a2,2,0,0,0-2-2H9a2,2,0,0,0-2,2v6H4V12H7v3a2,2,0,0,0,2,2h6a2,2,0,0,0,2-2V12.6l3,3.75V28Z"/><path d="M27,21H25V7H11V5H25a2,2,0,0,1,2,2Z"/><path d="M32,14H30V2H18V0H30a2,2,0,0,1,2,2Z"/><rect id="_Transparent_Rectangle_" data-name="&lt;Transparent Rectangle&gt;" class="cls-1" width="32" height="32"/></svg>