<svg id="icon" xmlns="http://www.w3.org/2000/svg" viewBox="0 0 32 32"><defs><style>.cls-1{fill:none;}</style></defs><title>stacked-scrolling--2</title><path d="M8,30H2a2,2,0,0,1-2-2V14a2,2,0,0,1,2-2H8a2,2,0,0,1,2,2V28A2,2,0,0,1,8,30ZM2,14V28H8V14Z"/><path d="M20,30H14a2,2,0,0,1-2-2V14a2,2,0,0,1,2-2h6a2,2,0,0,1,2,2V28A2,2,0,0,1,20,30ZM14,14V28h6V14Z"/><path d="M27,21H25V9H17V7h8a2,2,0,0,1,2,2Z"/><path d="M32,16H30V4H22V2h8a2,2,0,0,1,2,2Z"/><rect id="_Transparent_Rectangle_" data-name="&lt;Transparent Rectangle&gt;" class="cls-1" width="32" height="32"/></svg>