<svg id="icon" xmlns="http://www.w3.org/2000/svg" width="32" height="32" viewBox="0 0 32 32">
  <defs>
    <style>
      .cls-1 {
        fill: none;
      }
    </style>
  </defs>
  <path d="M25.1407,23.7642l1.5315,1.2851a13.976,13.976,0,0,0,2.4408-4.1821l-1.8776-.6836A11.9729,11.9729,0,0,1,25.1407,23.7642Z"/>
  <path d="M18,27.81l.4128,1.9677A13.8888,13.8888,0,0,0,22.9543,28.14L22,26.4087A12.52,12.52,0,0,1,18,27.81Z"/>
  <path d="M10,26.4087,9,28.14a14.14,14.14,0,0,0,4.5872,1.6382l.3469-1.9677A12.1519,12.1519,0,0,1,10,26.4087Z"/>
  <path d="M4.7646,20.1836l-1.8776.6836a13.976,13.976,0,0,0,2.4408,4.1821l1.5315-1.2851A11.9729,11.9729,0,0,1,4.7646,20.1836Z"/>
  <path d="M16,22a1.5,1.5,0,1,0,1.5,1.5A1.5,1.5,0,0,0,16,22Z"/>
  <rect x="15" y="8" width="2" height="11"/>
  <path d="M30,16H28A12,12,0,0,0,4,16H2a14,14,0,0,1,28,0Z"/>
  <rect id="_Transparent_Rectangle_" data-name="&lt;Transparent Rectangle&gt;" class="cls-1" width="32" height="32"/>
</svg>
