<svg id="icon" xmlns="http://www.w3.org/2000/svg" viewBox="0 0 32 32"><defs><style>.cls-1{fill:none;}</style></defs><title>watson-health--study--skip</title><path d="M22,9h5.2A11,11,0,0,0,7,15H5A13,13,0,0,1,28,6.7V3h2v8H22Z"/><path d="M16,12a3,3,0,1,1-3,3,2.95,2.95,0,0,1,3-3m0-2a5,5,0,1,0,5,5A5,5,0,0,0,16,10Z"/><path d="M23,30H21V27a3,3,0,0,0-3-3H14a3,3,0,0,0-3,3v3H9V27a5,5,0,0,1,5-5h4a5,5,0,0,1,5,5Z"/><rect id="_Transparent_Rectangle_" data-name="&lt;Transparent Rectangle&gt;" class="cls-1" width="32" height="32"/></svg>