<svg xmlns="http://www.w3.org/2000/svg" viewBox="0 0 32 32"><rect width="2" height="3" x="15" y="6"/><rect width="3" height="2" x="25" y="17"/><rect width="2" height="3" x="15" y="27"/><rect width="3" height="2" x="4" y="17"/><rect width="2" height="3" x="7.55" y="9.03" transform="rotate(-45 8.558 10.545)"/><rect width="3" height="2" x="21.96" y="9.54" transform="rotate(-45 23.466 10.54)"/><rect width="2" height="3" x="22.46" y="23.94" transform="rotate(-45 23.459 25.443)"/><rect width="3" height="2" x="7.04" y="24.45" transform="rotate(-45 8.55 25.448)"/><rect width="24" height="2" x="4" y="2"/><path d="M16,24a6,6,0,1,0-6-6A6,6,0,0,0,16,24Zm0-10v8a4,4,0,0,1,0-8Z"/></svg>