<svg xmlns="http://www.w3.org/2000/svg" viewBox="0 0 32 32"><rect width="2" height="3" x="15" y="4"/><rect width="3" height="2" x="25" y="15"/><rect width="2" height="3" x="15" y="25"/><rect width="3" height="2" x="4" y="15"/><rect width="2" height="3" x="7.55" y="7.04" transform="rotate(-45 8.55 8.548)"/><rect width="3" height="2" x="21.96" y="7.55" transform="rotate(-45 23.454 8.555)"/><rect width="2" height="3" x="22.45" y="21.95" transform="rotate(-45 23.452 23.446)"/><rect width="3" height="2" x="7.05" y="22.45" transform="rotate(-45 8.544 23.451)"/><rect width="24" height="2" x="4" y="30"/><rect width="24" height="2" x="4"/><path d="M16,10a6,6,0,1,0,6,6A6,6,0,0,0,16,10Zm-4,6a4,4,0,0,1,4-4v8A4,4,0,0,1,12,16Z"/></svg>