<?xml version="1.0" encoding="UTF-8"?>
<svg width="320px" height="320px" viewBox="0 0 320 320" version="1.1" xmlns="http://www.w3.org/2000/svg" xmlns:xlink="http://www.w3.org/1999/xlink">
    <!-- Generator: Sketch 53 (72520) - https://sketchapp.com -->
    <title>Artboard</title>
    <desc>Created with Sketch.</desc>
    <defs>
        <polygon id="path-1" points="65.9580078 3.67529297 66.9228516 3.67529297 63.9648438 13 63 13"></polygon>
        <polygon id="path-2" points="142.958008 3.67529297 143.922852 3.67529297 140.964844 13 140 13"></polygon>
    </defs>
    <g id="Artboard" stroke="none" stroke-width="1" fill="none" fill-rule="evenodd">
        <g id="Breadcrumb" transform="translate(57.000000, 152.000000)" fill="#000000" fill-rule="nonzero">
            <g id="Group" transform="translate(154.000000, 2.000000)">
                <path d="M0.8,6.2 C0.8,2.9 2.3,1.1 4.7,1.1 C6.3,1.1 7.4,1.9 8.1,3.2 L7.1,3.8 C6.7,2.8 5.9,2.1 4.7,2.1 C3,2.1 2,3.4 2,5.4 L2,6.9 C2,8.9 3,10.1 4.7,10.1 C5.9,10.1 6.8,9.4 7.2,8.3 L8.1,8.9 C7.5,10.3 6.3,11.1 4.7,11.1 C2.3,11.2 0.8,9.4 0.8,6.2 Z" id="Path"></path>
                <path d="M9.9,11 L9.9,3.8 L11,3.8 L11,5.1 L11.1,5.1 C11.4,4.4 12,3.8 13.2,3.8 L13.6,3.8 L13.6,4.9 L12.9,4.9 C11.7,4.9 11,5.4 11,6.1 L11,11 L9.9,11 Z" id="Path"></path>
                <path d="M19.5,9.8 L19.5,9.8 C19.2,10.5 18.6,11.1 17.4,11.1 C15.9,11.1 15,10.1 15,8.3 L15,3.8 L16.1,3.8 L16.1,8.2 C16.1,9.5 16.7,10.1 17.8,10.1 C18.7,10.1 19.6,9.7 19.6,8.7 L19.6,3.7 L20.7,3.7 L20.7,11 L19.6,11 L19.6,9.8 L19.5,9.8 Z" id="Path"></path>
                <path d="M23,11 L23,3.8 L24.1,3.8 L24.1,5 L24.2,5 C24.5,4.3 25,3.7 26.1,3.7 C27.1,3.7 27.9,4.1 28.3,5.2 L28.3,5.2 C28.6,4.4 29.3,3.7 30.5,3.7 C32,3.7 32.9,4.7 32.9,6.5 L32.9,11 L31.8,11 L31.8,6.6 C31.8,5.3 31.3,4.7 30.2,4.7 C29.3,4.7 28.5,5.1 28.5,6.1 L28.5,11.1 L27.4,11.1 L27.4,6.6 C27.4,5.3 26.9,4.7 25.8,4.7 C24.9,4.7 24.1,5.1 24.1,6.1 L24.1,11.1 L23,11.1 L23,11 Z" id="Path"></path>
                <path d="M35.2,0.6 L36.3,0.6 L36.3,4.9 L36.4,4.9 C36.8,4 37.5,3.6 38.5,3.6 C40.3,3.6 41.4,5.1 41.4,7.4 C41.4,9.7 40.3,11.2 38.5,11.2 C37.5,11.2 36.8,10.8 36.4,9.9 L36.3,9.9 L36.3,11 L35.2,11 L35.2,0.6 Z M40.2,8 L40.2,6.8 C40.2,5.5 39.4,4.6 38.2,4.6 C37.2,4.6 36.3,5.2 36.3,6 L36.3,8.7 C36.3,9.6 37.1,10.2 38.2,10.2 C39.4,10.2 40.2,9.3 40.2,8 Z" id="Shape"></path>
                <path d="M49.1,5.4 C50.4,5.4 51.1,4.7 51.1,3.8 L51.1,3.6 C51.1,2.6 50.4,2.1 49.3,2.1 C48.3,2.1 47.7,2.6 47.3,3.3 L46.4,2.6 C46.9,1.8 47.7,1 49.3,1 C51,1 52.3,1.9 52.3,3.5 C52.3,4.8 51.5,5.5 50.4,5.8 L50.4,5.9 C51.5,6.1 52.5,6.9 52.5,8.4 C52.5,10.1 51.2,11.2 49.2,11.2 C47.5,11.2 46.6,10.4 46,9.5 L46.9,8.8 C47.4,9.6 48,10.1 49.2,10.1 C50.6,10.1 51.3,9.4 51.3,8.3 L51.3,8.2 C51.3,7.1 50.6,6.4 49.2,6.4 L48,6.4 L48,5.4 L49.1,5.4 Z" id="Path"></path>
            </g>
            <g id="Group" transform="translate(0.000000, 2.000000)">
                <path d="M0.8,6.2 C0.8,2.9 2.3,1.1 4.7,1.1 C6.3,1.1 7.4,1.9 8.1,3.2 L7.1,3.8 C6.8,2.8 6,2.1 4.7,2.1 C3,2.1 2,3.4 2,5.4 L2,6.9 C2,8.9 3,10.1 4.7,10.1 C5.9,10.1 6.8,9.4 7.2,8.3 L8.1,8.9 C7.5,10.3 6.3,11.1 4.7,11.1 C2.3,11.2 0.8,9.4 0.8,6.2 Z" id="Path"></path>
                <path d="M9.9,11 L9.9,3.8 L11,3.8 L11,5.1 L11.1,5.1 C11.4,4.4 12,3.8 13.2,3.8 L13.6,3.8 L13.6,4.9 L12.9,4.9 C11.7,4.9 11,5.4 11,6.1 L11,11 L9.9,11 Z" id="Path"></path>
                <path d="M19.5,9.8 L19.5,9.8 C19.2,10.5 18.6,11.1 17.4,11.1 C15.9,11.1 15,10.1 15,8.3 L15,3.8 L16.1,3.8 L16.1,8.2 C16.1,9.5 16.7,10.1 17.8,10.1 C18.7,10.1 19.6,9.7 19.6,8.7 L19.6,3.7 L20.7,3.7 L20.7,11 L19.6,11 L19.6,9.8 L19.5,9.8 Z" id="Path"></path>
                <path d="M23,11 L23,3.8 L24.1,3.8 L24.1,5 L24.2,5 C24.5,4.3 25,3.7 26.1,3.7 C27.1,3.7 27.9,4.1 28.3,5.2 L28.3,5.2 C28.6,4.4 29.3,3.7 30.5,3.7 C32,3.7 32.9,4.7 32.9,6.5 L32.9,11 L31.8,11 L31.8,6.6 C31.8,5.3 31.3,4.7 30.2,4.7 C29.3,4.7 28.5,5.1 28.5,6.1 L28.5,11.1 L27.4,11.1 L27.4,6.6 C27.4,5.3 26.9,4.7 25.8,4.7 C24.9,4.7 24.1,5.1 24.1,6.1 L24.1,11.1 L23,11.1 L23,11 Z" id="Path"></path>
                <path d="M35.2,0.6 L36.3,0.6 L36.3,4.9 L36.4,4.9 C36.8,4 37.5,3.6 38.5,3.6 C40.3,3.6 41.4,5.1 41.4,7.4 C41.4,9.7 40.3,11.2 38.5,11.2 C37.5,11.2 36.8,10.8 36.4,9.9 L36.3,9.9 L36.3,11 L35.2,11 L35.2,0.6 Z M40.2,8 L40.2,6.8 C40.2,5.5 39.4,4.6 38.2,4.6 C37.2,4.6 36.3,5.2 36.3,6 L36.3,8.7 C36.3,9.6 37.1,10.2 38.2,10.2 C39.4,10.2 40.2,9.3 40.2,8 Z" id="Shape"></path>
                <polygon id="Path" points="46.7 11 46.7 10 49.4 10 49.4 2.1 49.3 2.1 46.8 4.4 46.1 3.7 48.7 1.3 50.5 1.3 50.5 10 53 10 53 11"></polygon>
            </g>
            <g id="Group" transform="translate(77.000000, 2.000000)">
                <path d="M0.8,6.2 C0.8,2.9 2.3,1.1 4.7,1.1 C6.3,1.1 7.4,1.9 8.1,3.2 L7.1,3.8 C6.7,2.8 5.9,2.1 4.7,2.1 C3,2.1 2,3.4 2,5.4 L2,6.9 C2,8.9 3,10.1 4.7,10.1 C5.9,10.1 6.8,9.4 7.2,8.3 L8.1,8.9 C7.5,10.3 6.3,11.1 4.7,11.1 C2.3,11.2 0.8,9.4 0.8,6.2 Z" id="Path"></path>
                <path d="M9.9,11 L9.9,3.8 L11,3.8 L11,5.1 L11.1,5.1 C11.4,4.4 12,3.8 13.2,3.8 L13.6,3.8 L13.6,4.9 L12.9,4.9 C11.7,4.9 11,5.4 11,6.1 L11,11 L9.9,11 Z" id="Path"></path>
                <path d="M19.5,9.8 L19.5,9.8 C19.2,10.5 18.6,11.1 17.4,11.1 C15.9,11.1 15,10.1 15,8.3 L15,3.8 L16.1,3.8 L16.1,8.2 C16.1,9.5 16.7,10.1 17.8,10.1 C18.7,10.1 19.6,9.7 19.6,8.7 L19.6,3.7 L20.7,3.7 L20.7,11 L19.6,11 L19.6,9.8 L19.5,9.8 Z" id="Path"></path>
                <path d="M23,11 L23,3.8 L24.1,3.8 L24.1,5 L24.2,5 C24.5,4.3 25,3.7 26.1,3.7 C27.1,3.7 27.9,4.1 28.3,5.2 L28.3,5.2 C28.6,4.4 29.3,3.7 30.5,3.7 C32,3.7 32.9,4.7 32.9,6.5 L32.9,11 L31.8,11 L31.8,6.6 C31.8,5.3 31.3,4.7 30.2,4.7 C29.3,4.7 28.5,5.1 28.5,6.1 L28.5,11.1 L27.4,11.1 L27.4,6.6 C27.4,5.3 26.9,4.7 25.8,4.7 C24.9,4.7 24.1,5.1 24.1,6.1 L24.1,11.1 L23,11.1 L23,11 Z" id="Path"></path>
                <path d="M35.2,0.6 L36.3,0.6 L36.3,4.9 L36.4,4.9 C36.8,4 37.5,3.6 38.5,3.6 C40.3,3.6 41.4,5.1 41.4,7.4 C41.4,9.7 40.3,11.2 38.5,11.2 C37.5,11.2 36.8,10.8 36.4,9.9 L36.3,9.9 L36.3,11 L35.2,11 L35.2,0.6 Z M40.2,8 L40.2,6.8 C40.2,5.5 39.4,4.6 38.2,4.6 C37.2,4.6 36.3,5.2 36.3,6 L36.3,8.7 C36.3,9.6 37.1,10.2 38.2,10.2 C39.4,10.2 40.2,9.3 40.2,8 Z" id="Shape"></path>
                <path d="M52.9,11 L46.5,11 L46.5,9.8 L49.7,6.9 C50.6,6.1 51.3,5.1 51.3,4.1 L51.3,3.9 C51.3,2.8 50.7,2.1 49.5,2.1 C48.3,2.1 47.7,2.8 47.5,3.8 L46.4,3.4 C46.8,2.3 47.6,1.1 49.5,1.1 C51.4,1.1 52.5,2.3 52.5,3.9 C52.5,5.4 51.6,6.5 50.4,7.6 L47.8,10 L52.9,10 L52.9,11 Z" id="Path"></path>
            </g>
            <g id="/">
                <use xlink:href="#path-1"></use>
                <use xlink:href="#path-1"></use>
            </g>
            <g id="/">
                <use xlink:href="#path-2"></use>
                <use xlink:href="#path-2"></use>
            </g>
        </g>
    </g>
</svg>