<svg xmlns="http://www.w3.org/2000/svg" width="320" height="320" viewBox="0 0 320 320"><title>Link</title><path d="M137.8,155h-3.55v10H132.9V155h-3.55v-1.19h8.45Zm3.78,10.17c-2.24,0-3.72-1.69-3.72-4.32s1.48-4.32,3.72-4.32,3.56,1.7,3.56,4v.61h-5.93v.39a2.34,2.34,0,0,0,2.45,2.49,2.39,2.39,0,0,0,2.27-1.42l.91.65A3.46,3.46,0,0,1,141.58,165.19Zm0-7.57a2.35,2.35,0,0,0-2.37,2.5v.11h4.56v-.17A2.2,2.2,0,0,0,141.58,157.62ZM146,165l3.06-4.16-2.93-4.1h1.5l2.1,3.08h0l2.17-3.08h1.43l-2.92,4,3,4.26H152l-2.15-3.23h-.05L147.46,165Zm12.56,0H157a1.26,1.26,0,0,1-1.36-1.36v-5.78h-1.36v-1.12h.77c.54,0,.72-.19.72-.75v-1.53h1.15v2.28h1.81v1.12h-1.81v6h1.68Zm8.46,0h-1.13a1.25,1.25,0,0,1-1.36-1.33V153.16h1.28v10.72h1.21Zm2.5-10.19c-.54,0-.78-.29-.78-.72v-.21c0-.43.24-.72.78-.72s.78.29.78.72v.21C170.34,154.52,170.1,154.81,169.56,154.81ZM168.92,165v-8.26h1.28V165Zm5.28,0h-1.28v-8.26h1.28v1.35h.06a2.35,2.35,0,0,1,2.34-1.54c1.7,0,2.77,1.15,2.77,3.15V165h-1.28v-5.07c0-1.47-.64-2.23-1.87-2.23-1,0-2,.52-2,1.57Zm7.81,0V153.16h1.28v7.5h.06l1.27-1.4,2.33-2.52h1.55L185.45,160l3.36,5h-1.55l-2.74-4.21-1.23,1.27V165Z" style="fill:#0062ff"/><path d="M131,170.5h59.11" style="fill:none;stroke:#0062ff"/></svg>