<?xml version="1.0" encoding="UTF-8"?>
<svg width="320px" height="320px" viewBox="0 0 320 320" version="1.1" xmlns="http://www.w3.org/2000/svg" xmlns:xlink="http://www.w3.org/1999/xlink">
    <!-- Generator: Sketch 52.5 (67469) - http://www.bohemiancoding.com/sketch -->
    <title>Artboard</title>
    <desc>Created with Sketch.</desc>
    <defs>
        <path d="M7.5,9.5 L7.5,5 L5.5,5 L5.5,6 L6.5,6 L6.5,9.5 L5,9.5 L5,10.5 L9,10.5 L9,9.5 L7.5,9.5 Z M7,2.5 C6.58578644,2.5 6.25,2.83578644 6.25,3.25 C6.25,3.66421356 6.58578644,4 7,4 C7.41421356,4 7.75,3.66421356 7.75,3.25 C7.75,2.83578644 7.41421356,2.5 7,2.5 Z M7,14 C3.13400675,14 4.4408921e-16,10.8659932 0,7 C-4.4408921e-16,3.13400675 3.13400675,8.8817842e-16 7,0 C10.8659932,-7.77156117e-16 14,3.13400675 14,7 C13.9956738,10.8641999 10.8641999,13.9956738 7,14 Z M7,1 C3.6862915,1 1,3.6862915 1,7 C1,10.3137085 3.6862915,13 7,13 C10.3137085,13 13,10.3137085 13,7 C12.9963076,3.68782216 10.3121778,1.00369242 7,1 Z" id="path-1"></path>
    </defs>
    <g id="Artboard" stroke="none" stroke-width="1" fill="none" fill-rule="evenodd">
        <g id="tooltip" transform="translate(52.000000, 91.000000)">
            <path d="M115,112 L108,120 L101,112 L2,112 C0.8954305,112 1.3527075e-16,111.104569 0,110 L0,2 C-1.3527075e-16,0.8954305 0.8954305,2.02906125e-16 2,0 L214,0 C215.104569,-2.02906125e-16 216,0.8954305 216,2 L216,110 C216,111.104569 215.104569,112 214,112 L115,112 Z" id="Rectangle-24" fill="#3D3D3D"></path>
            <g id="icon/status/info/16" transform="translate(100.000000, 123.000000)">
                <g id="Group">
                    <g id="information" transform="translate(1.000000, 1.000000)">
                        <mask id="mask-2" fill="white">
                            <use xlink:href="#path-1"></use>
                        </mask>
                        <use id="Mask" fill="#000000" fill-rule="nonzero" xlink:href="#path-1"></use>
                        <g id="color/grey-100" mask="url(#mask-2)" fill="#161616">
                            <g transform="translate(-1.000000, -1.000000)" id="Rectangle-3-Copy">
                                <rect x="0" y="0" width="40" height="40"></rect>
                            </g>
                        </g>
                    </g>
                    <rect id="transparent-rectangle" x="0" y="0" width="16" height="16"></rect>
                </g>
            </g>
            <rect id="Rectangle" fill="#BEBEBE" x="16" y="16" width="165" height="12"></rect>
            <rect id="Rectangle-Copy-2" fill="#BEBEBE" x="16" y="54" width="165" height="12"></rect>
            <rect id="Rectangle-Copy" fill="#BEBEBE" x="16" y="35" width="125" height="12"></rect>
            <rect id="Rectangle-Copy-3" fill="#BEBEBE" x="16" y="73" width="125" height="12"></rect>
            <rect id="Rectangle-3-Copy-10" fill="#CACACA" x="16" y="125" width="76" height="12"></rect>
        </g>
    </g>
</svg>