<svg id="Layer_1" data-name="Layer 1" xmlns="http://www.w3.org/2000/svg" viewBox="0 0 20 20"><defs><style>.cls-1{fill:#fff;opacity:0;}.cls-2{fill:none;}</style></defs><title>warning--filled</title><path id="Compound_Path" data-name="Compound Path" d="M10,1a9,9,0,1,0,9,9A9.01,9.01,0,0,0,10,1ZM9.25,5h1.5v7H9.25ZM10,16a1,1,0,1,1,1-1A1,1,0,0,1,10,16Z" transform="translate(0)"/><path id="inner-path" class="cls-1" d="M11,15a1,1,0,1,1-1-1A1,1,0,0,1,11,15ZM9.25,12h1.5V5H9.25Z" transform="translate(0)"/><rect id="Transparent_Rectangle" data-name="Transparent Rectangle" class="cls-2" width="20" height="20"/></svg>