<?xml version="1.0" encoding="UTF-8"?>
<svg width="352px" height="352px" viewBox="0 0 352 352" version="1.1" xmlns="http://www.w3.org/2000/svg" xmlns:xlink="http://www.w3.org/1999/xlink">
    <!-- Generator: Sketch 52.4 (67378) - http://www.bohemiancoding.com/sketch -->
    <title>iconography-usage-sizing-3</title>
    <desc>Created with Sketch.</desc>
    <g id="sizing-3" stroke="none" stroke-width="1" fill="none" fill-rule="evenodd">
        <g id="Sizing-correct-size-do">
            <rect id="Rectangle-3" x="0" y="0" width="352" height="352"></rect>
            <g id="Page-1" transform="translate(62.333333, 145.444444)" fill="#000000">
                <path d="M0.025526579,46.7707717 L4.12206572,43.3360217 C7.35965015,47.6296883 11.1919379,49.9415217 16.5439006,49.9415217 C23.1511034,49.9415217 26.7189563,46.5065883 26.7189563,41.222005 C26.7189563,36.8623383 24.2743096,34.682505 18.1956096,33.295405 L14.4295223,32.4364883 C6.03820957,30.5210217 1.41298417,26.8217217 1.41298417,19.753855 C1.41298417,11.5628883 7.62390159,7.13703833 16.6759346,7.13703833 C23.6135893,7.13703833 28.5030662,9.77942167 31.938885,14.6676383 L27.7763288,17.706205 C25.2654817,14.2050883 21.7636459,12.025255 16.4116831,12.025255 C10.5312176,12.025255 6.89716429,14.601455 6.89716429,19.5556717 C6.89716429,23.9153383 9.73827987,25.8971717 15.5527284,27.2182717 L19.3188157,28.0768217 C28.3048317,30.124655 32.2031364,34.087955 32.2031364,40.9578217 C32.2031364,49.4129717 26.2566538,54.829555 16.3456661,54.829555 C8.94534217,54.829555 3.72559687,51.7911717 0.025526579,46.7707717" id="Fill-1"></path>
                <path d="M59.8214646,44.1285533 L59.8214646,38.5137867 L52.8177928,38.5137867 C46.8051098,38.5137867 44.0960283,40.3634367 44.0960283,43.6661867 L44.0960283,45.0532867 C44.0960283,48.42222 46.7389094,50.33787 50.8354486,50.33787 C56.0551939,50.33787 59.8214646,47.62967 59.8214646,44.1285533 Z M66.0321986,54.0369867 C62.1338939,54.0369867 60.5482019,51.65897 60.151733,48.48822 L59.8214646,48.48822 C58.3678066,52.6497033 54.7337533,54.8295367 49.9764939,54.8295367 C42.7745877,54.8295367 38.5458312,50.8662367 38.5458312,44.52492 C38.5458312,38.11742 43.1710566,34.5504867 53.0820443,34.5504867 L59.8214646,34.5504867 L59.8214646,31.1815533 C59.8214646,26.35952 57.1784,23.71732 51.7604203,23.71732 C47.6640646,23.71732 44.954983,25.69897 43.1048562,28.8035367 L39.9334721,25.83097 C41.7834156,22.1980367 45.8799547,19.15947 52.0248551,19.15947 C60.21775,19.15947 65.1072269,23.4531367 65.1072269,30.6531867 L65.1072269,49.4129533 L69.0055316,49.4129533 L69.0055316,54.0369867 L66.0321986,54.0369867 Z" id="Fill-3"></path>
                <polygon id="Fill-5" points="83.5418547 54.0369683 71.5825058 19.9520017 76.8684515 19.9520017 82.8149341 36.8623017 86.5151877 48.4882017 86.8456396 48.4882017 90.5455265 36.8623017 96.6244099 19.9520017 101.711938 19.9520017 89.6867551 54.0369683"></polygon>
                <path d="M111.028002,33.8898083 L111.028002,34.352175 L129.858805,34.352175 L129.858805,33.625625 C129.858805,27.6144917 126.224752,23.5851917 120.806772,23.5851917 C115.058524,23.5851917 111.028002,27.9448583 111.028002,33.8898083 M105.477805,36.9945583 C105.477805,26.1613917 111.556505,19.1593417 120.806772,19.1593417 C129.924822,19.1593417 135.541037,26.1613917 135.541037,35.8054583 L135.541037,38.3156583 L111.028002,38.3156583 L111.028002,39.9009417 C111.028002,45.7798917 114.794089,50.2057417 121.137041,50.2057417 C125.431814,50.2057417 128.735599,48.0919083 130.519526,44.3267917 L134.285613,47.0349917 C132.105401,51.659025 127.215741,54.8295917 120.806772,54.8295917 C111.556505,54.8295917 105.477805,47.8275417 105.477805,36.9945583" id="Fill-7"></path>
                <path d="M211.147004,56.7866017 L211.147004,36.1440017 C211.147004,33.2937183 208.835859,30.9833517 205.985024,30.9833517 L185.337102,30.9833517 C182.486084,30.9833517 180.174939,33.2937183 180.174939,36.1440017 L180.174939,56.7866017 L169.851161,56.7866017 L169.851161,5.18010167 L180.174939,5.18010167 L180.174939,15.5014017 C180.174939,18.3515017 182.486084,20.6620517 185.337102,20.6620517 L205.985024,20.6620517 C208.835859,20.6620517 211.147004,18.3515017 211.147004,15.5014017 L211.147004,6.237935 L221.470965,16.559235 L221.470965,56.7866017 L211.147004,56.7866017 Z M185.337102,56.7866017 L205.985024,56.7866017 L205.985024,36.1440017 L185.337102,36.1440017 L185.337102,56.7866017 Z M185.337102,15.5014017 L205.985024,15.5014017 L205.985024,5.18010167 L185.337102,5.18010167 L185.337102,15.5014017 Z M225.884386,13.6693517 L212.979343,0.767634999 C212.492468,0.284734999 211.833031,0.0154183322 211.147004,0.0194516655 L169.851161,0.0194516655 C167.000326,0.0194516655 164.688997,2.33000167 164.688997,5.18010167 L164.688997,56.7866017 C164.688997,59.6367017 167.000326,61.9472517 169.851161,61.9472517 L221.470965,61.9472517 C224.3218,61.9472517 226.632762,59.6367017 226.632762,56.7866017 L226.632762,15.5014017 C226.63698,14.8155517 226.367594,14.1564683 225.884386,13.6693517 Z" id="Fill-9"></path>
            </g>
        </g>
    </g>
</svg>