<?xml version="1.0" encoding="UTF-8"?>
<svg width="288px" height="288px" viewBox="0 0 288 288" version="1.1" xmlns="http://www.w3.org/2000/svg" xmlns:xlink="http://www.w3.org/1999/xlink">
    <!-- Generator: Sketch 51.2 (57519) - http://www.bohemiancoding.com/sketch -->
    <title>Group 2</title>
    <desc>Created with Sketch.</desc>
    <defs>
        <path d="M14.81875,3.30625 L11.69375,0.18125 C11.5758007,0.0642584285 11.4161269,-0.00096047425 11.25,-5.43870487e-14 L1.25,-5.43870487e-14 C0.559644063,-5.43870487e-14 0,0.559644063 0,1.25 L0,13.75 C0,14.4403559 0.559644063,15 1.25,15 L13.75,15 C14.4403559,15 15,14.4403559 15,13.75 L15,3.75 C15.0009605,3.58387313 14.9357416,3.42419927 14.81875,3.30625 Z M5,1.25 L10,1.25 L10,3.75 L5,3.75 L5,1.25 Z M10,13.75 L5,13.75 L5,8.75 L10,8.75 L10,13.75 Z M11.25,13.75 L11.25,8.75 C11.25,8.05964406 10.6903559,7.5 10,7.5 L5,7.5 C4.30964406,7.5 3.75,8.05964406 3.75,8.75 L3.75,13.75 L1.25,13.75 L1.25,1.25 L3.75,1.25 L3.75,3.75 C3.75,4.44035594 4.30964406,5 5,5 L10,5 C10.6903559,5 11.25,4.44035594 11.25,3.75 L11.25,1.50625 L13.75,4.00625 L13.75,13.75 L11.25,13.75 Z" id="path-1"></path>
        <path d="M11.855,2.645 L9.355,0.145 C9.26064058,0.0514067428 9.13290149,-0.0007683794 9,-4.36872743e-14 L1,-4.36872743e-14 C0.44771525,-4.36872743e-14 0,0.44771525 0,1 L0,11 C0,11.5522847 0.44771525,12 1,12 L11,12 C11.5522847,12 12,11.5522847 12,11 L12,3 C12.0007684,2.86709851 11.9485933,2.73935942 11.855,2.645 Z M4,1 L8,1 L8,3 L4,3 L4,1 Z M8,11 L4,11 L4,7 L8,7 L8,11 Z M9,11 L9,7 C9,6.44771525 8.55228475,6 8,6 L4,6 C3.44771525,6 3,6.44771525 3,7 L3,11 L1,11 L1,1 L3,1 L3,3 C3,3.55228475 3.44771525,4 4,4 L8,4 C8.55228475,4 9,3.55228475 9,3 L9,1.205 L11,3.205 L11,11 L9,11 Z" id="path-3"></path>
        <path d="M23.71,5.29 L18.71,0.29 C18.5212812,0.102813486 18.265803,-0.0015367588 18,-8.55981918e-14 L2,-8.55981918e-14 C0.8954305,-8.55981918e-14 0,0.8954305 0,2 L0,22 C0,23.1045695 0.8954305,24 2,24 L22,24 C23.1045695,24 24,23.1045695 24,22 L24,6 C24.0015368,5.73419702 23.8971865,5.47871883 23.71,5.29 Z M8,2 L16,2 L16,6 L8,6 L8,2 Z M16,22 L8,22 L8,14 L16,14 L16,22 Z M18,22 L18,14 C18,12.8954305 17.1045695,12 16,12 L8,12 C6.8954305,12 6,12.8954305 6,14 L6,22 L2,22 L2,2 L6,2 L6,6 C6,7.1045695 6.8954305,8 8,8 L16,8 C17.1045695,8 18,7.1045695 18,6 L18,2.41 L22,6.41 L22,22 L18,22 Z" id="path-5"></path>
        <path d="M17.7825,3.9675 L14.0325,0.2175 C13.8909609,0.0771101142 13.6993522,-0.0011525691 13.5,-6.4198643e-14 L1.5,-6.4198643e-14 C0.671572875,-6.4198643e-14 0,0.671572875 0,1.5 L0,16.5 C0,17.3284271 0.671572875,18 1.5,18 L16.5,18 C17.3284271,18 18,17.3284271 18,16.5 L18,4.5 C18.0011526,4.30064776 17.9228899,4.10903912 17.7825,3.9675 Z M6,1.5 L12,1.5 L12,4.5 L6,4.5 L6,1.5 Z M12,16.5 L6,16.5 L6,10.5 L12,10.5 L12,16.5 Z M13.5,16.5 L13.5,10.5 C13.5,9.67157288 12.8284271,9 12,9 L6,9 C5.17157288,9 4.5,9.67157288 4.5,10.5 L4.5,16.5 L1.5,16.5 L1.5,1.5 L4.5,1.5 L4.5,4.5 C4.5,5.32842712 5.17157288,6 6,6 L12,6 C12.8284271,6 13.5,5.32842712 13.5,4.5 L13.5,1.8075 L16.5,4.8075 L16.5,16.5 L13.5,16.5 Z" id="path-7"></path>
    </defs>
    <g id="Page-1" stroke="none" stroke-width="1" fill="none" fill-rule="evenodd">
        <g id="Typography_Mobile_320px-Copy-7" transform="translate(-16.000000, -28.000000)">
            <g id="Group-2" transform="translate(16.000000, 28.000000)">
                <rect id="Rectangle-3" fill="#FFFFFF" x="0" y="0" width="288" height="288"></rect>
                <g id="Group-21" transform="translate(95.000000, 115.000000)">
                    <g id="Group" transform="translate(4.000000, 0.000000)">
                        <g id="icon/formatting/save/32">
                            <g id="save" stroke-width="1" fill-rule="evenodd" transform="translate(2.500000, 2.500000)">
                                <mask id="mask-2" fill="white">
                                    <use xlink:href="#path-1"></use>
                                </mask>
                                <use id="Mask" fill="#000000" fill-rule="nonzero" xlink:href="#path-1"></use>
                                <g id="color/black" mask="url(#mask-2)">
                                    <g transform="translate(-2.500000, -2.500000)"></g>
                                </g>
                            </g>
                            <rect id="transparent-rectangle" x="0" y="0" width="20" height="20"></rect>
                        </g>
                    </g>
                    <path d="M6.746,52.112 L6.746,53 L1.25,53 L1.25,51.968 L3.986,49.448 C4.766,48.728 5.366,47.888 5.366,47.084 L5.366,46.94 C5.366,46.016 4.85,45.38 3.818,45.38 C2.786,45.38 2.306,46.004 2.078,46.796 L1.178,46.448 C1.502,45.464 2.246,44.48 3.866,44.48 C5.498,44.48 6.434,45.488 6.434,46.916 C6.434,48.212 5.666,49.124 4.598,50.084 L2.342,52.112 L6.746,52.112 Z M11.15,53.144 C9.146,53.144 8.27,51.548 8.27,48.812 C8.27,46.076 9.146,44.48 11.15,44.48 C13.154,44.48 14.03,46.076 14.03,48.812 C14.03,51.548 13.154,53.144 11.15,53.144 Z M11.15,52.268 C12.458,52.268 12.974,51.116 12.974,49.496 L12.974,48.128 C12.974,46.508 12.458,45.356 11.15,45.356 C9.842,45.356 9.326,46.508 9.326,48.128 L9.326,49.496 C9.326,51.116 9.842,52.268 11.15,52.268 Z M15.77,55.4 L15.77,46.808 L16.73,46.808 L16.73,47.816 L16.778,47.816 C17.102,47.036 17.738,46.664 18.59,46.664 C20.138,46.664 21.11,47.924 21.11,49.904 C21.11,51.884 20.138,53.144 18.59,53.144 C17.738,53.144 17.15,52.76 16.778,51.992 L16.73,51.992 L16.73,55.4 L15.77,55.4 Z M18.326,52.28 C19.406,52.28 20.078,51.536 20.078,50.432 L20.078,49.376 C20.078,48.272 19.406,47.528 18.326,47.528 C17.45,47.528 16.73,48.032 16.73,48.716 L16.73,51.02 C16.73,51.824 17.45,52.28 18.326,52.28 Z M21.818,53 L24.11,49.88 L21.914,46.808 L23.042,46.808 L24.614,49.112 L24.65,49.112 L26.282,46.808 L27.35,46.808 L25.166,49.808 L27.398,53 L26.27,53 L24.662,50.576 L24.626,50.576 L22.886,53 L21.818,53 Z" id="20px" fill="#6F6F6F"></path>
                </g>
                <g id="Group-20" transform="translate(28.000000, 117.000000)">
                    <g id="Group" transform="translate(6.000000, 0.000000)">
                        <g id="icon/formatting/save/32">
                            <g id="save" stroke-width="1" fill-rule="evenodd" transform="translate(2.000000, 2.000000)">
                                <mask id="mask-4" fill="white">
                                    <use xlink:href="#path-3"></use>
                                </mask>
                                <use id="Mask" fill="#000000" fill-rule="nonzero" xlink:href="#path-3"></use>
                                <g id="color/black" mask="url(#mask-4)">
                                    <g transform="translate(-2.000000, -2.000000)"></g>
                                </g>
                            </g>
                            <rect id="transparent-rectangle" x="0" y="0" width="16" height="16"></rect>
                        </g>
                    </g>
                    <path d="M6.914,51 L1.406,51 L1.406,50.112 L3.746,50.112 L3.746,43.368 L3.662,43.368 L1.55,45.336 L0.962,44.7 L3.182,42.624 L4.754,42.624 L4.754,50.112 L6.914,50.112 L6.914,51 Z M11.162,51.144 C9.422,51.144 8.354,49.92 8.354,47.928 C8.354,45.444 9.998,43.5 11.342,42.624 L12.638,42.624 C10.85,43.932 9.854,45.024 9.398,46.968 L9.458,46.992 C9.854,46.308 10.454,45.792 11.474,45.792 C12.914,45.792 13.946,46.788 13.946,48.372 C13.946,50.016 12.842,51.144 11.162,51.144 Z M11.15,50.268 C12.254,50.268 12.902,49.632 12.902,48.504 L12.902,48.408 C12.902,47.28 12.254,46.644 11.15,46.644 C10.046,46.644 9.398,47.28 9.398,48.408 L9.398,48.504 C9.398,49.632 10.046,50.268 11.15,50.268 Z M15.77,53.4 L15.77,44.808 L16.73,44.808 L16.73,45.816 L16.778,45.816 C17.102,45.036 17.738,44.664 18.59,44.664 C20.138,44.664 21.11,45.924 21.11,47.904 C21.11,49.884 20.138,51.144 18.59,51.144 C17.738,51.144 17.15,50.76 16.778,49.992 L16.73,49.992 L16.73,53.4 L15.77,53.4 Z M18.326,50.28 C19.406,50.28 20.078,49.536 20.078,48.432 L20.078,47.376 C20.078,46.272 19.406,45.528 18.326,45.528 C17.45,45.528 16.73,46.032 16.73,46.716 L16.73,49.02 C16.73,49.824 17.45,50.28 18.326,50.28 Z M21.818,51 L24.11,47.88 L21.914,44.808 L23.042,44.808 L24.614,47.112 L24.65,47.112 L26.282,44.808 L27.35,44.808 L25.166,47.808 L27.398,51 L26.27,51 L24.662,48.576 L24.626,48.576 L22.886,51 L21.818,51 Z" id="16px" fill="#6F6F6F"></path>
                </g>
                <g id="Group-27" transform="translate(226.000000, 109.000000)">
                    <g id="Group">
                        <g id="icon/formatting/save/32">
                            <g id="save" stroke-width="1" fill-rule="evenodd" transform="translate(4.000000, 4.000000)">
                                <mask id="mask-6" fill="white">
                                    <use xlink:href="#path-5"></use>
                                </mask>
                                <use id="Mask" fill="#000000" fill-rule="nonzero" xlink:href="#path-5"></use>
                                <g id="color/black" mask="url(#mask-6)">
                                    <g transform="translate(-4.000000, -4.000000)"></g>
                                </g>
                            </g>
                            <rect id="transparent-rectangle" x="0" y="0" width="32" height="32"></rect>
                        </g>
                    </g>
                    <path d="M4.57,54.176 L5.482,54.176 C6.61,54.176 7.186,53.588 7.186,52.784 L7.186,52.7 C7.186,51.824 6.574,51.38 5.686,51.38 C4.822,51.38 4.306,51.788 3.958,52.424 L3.214,51.848 C3.634,51.176 4.366,50.48 5.71,50.48 C7.126,50.48 8.254,51.236 8.254,52.592 C8.254,53.672 7.534,54.32 6.646,54.548 L6.646,54.596 C7.546,54.776 8.41,55.448 8.41,56.708 C8.41,58.148 7.27,59.144 5.566,59.144 C4.114,59.144 3.37,58.436 2.854,57.716 L3.61,57.14 C4.042,57.8 4.534,58.244 5.554,58.244 C6.73,58.244 7.354,57.68 7.354,56.696 L7.354,56.6 C7.354,55.616 6.73,55.052 5.554,55.052 L4.57,55.052 L4.57,54.176 Z M15.946,58.112 L15.946,59 L10.45,59 L10.45,57.968 L13.186,55.448 C13.966,54.728 14.566,53.888 14.566,53.084 L14.566,52.94 C14.566,52.016 14.05,51.38 13.018,51.38 C11.986,51.38 11.506,52.004 11.278,52.796 L10.378,52.448 C10.702,51.464 11.446,50.48 13.066,50.48 C14.698,50.48 15.634,51.488 15.634,52.916 C15.634,54.212 14.866,55.124 13.798,56.084 L11.542,58.112 L15.946,58.112 Z M17.77,61.4 L17.77,52.808 L18.73,52.808 L18.73,53.816 L18.778,53.816 C19.102,53.036 19.738,52.664 20.59,52.664 C22.138,52.664 23.11,53.924 23.11,55.904 C23.11,57.884 22.138,59.144 20.59,59.144 C19.738,59.144 19.15,58.76 18.778,57.992 L18.73,57.992 L18.73,61.4 L17.77,61.4 Z M20.326,58.28 C21.406,58.28 22.078,57.536 22.078,56.432 L22.078,55.376 C22.078,54.272 21.406,53.528 20.326,53.528 C19.45,53.528 18.73,54.032 18.73,54.716 L18.73,57.02 C18.73,57.824 19.45,58.28 20.326,58.28 Z M23.818,59 L26.11,55.88 L23.914,52.808 L25.042,52.808 L26.614,55.112 L26.65,55.112 L28.282,52.808 L29.35,52.808 L27.166,55.808 L29.398,59 L28.27,59 L26.662,56.576 L26.626,56.576 L24.886,59 L23.818,59 Z" id="32px" fill="#6F6F6F"></path>
                </g>
                <g id="Group-23" transform="translate(161.000000, 113.000000)">
                    <g id="Group" transform="translate(2.000000, 0.000000)">
                        <g id="icon/formatting/save/32">
                            <g id="save" stroke-width="1" fill-rule="evenodd" transform="translate(3.000000, 3.000000)">
                                <mask id="mask-8" fill="white">
                                    <use xlink:href="#path-7"></use>
                                </mask>
                                <use id="Mask" fill="#000000" fill-rule="nonzero" xlink:href="#path-7"></use>
                                <g id="color/black" mask="url(#mask-8)">
                                    <g transform="translate(-3.000000, -3.000000)"></g>
                                </g>
                            </g>
                            <rect id="transparent-rectangle" x="0" y="0" width="24" height="24"></rect>
                        </g>
                    </g>
                    <path d="M6.746,54.112 L6.746,55 L1.25,55 L1.25,53.968 L3.986,51.448 C4.766,50.728 5.366,49.888 5.366,49.084 L5.366,48.94 C5.366,48.016 4.85,47.38 3.818,47.38 C2.786,47.38 2.306,48.004 2.078,48.796 L1.178,48.448 C1.502,47.464 2.246,46.48 3.866,46.48 C5.498,46.48 6.434,47.488 6.434,48.916 C6.434,50.212 5.666,51.124 4.598,52.084 L2.342,54.112 L6.746,54.112 Z M13.01,55 L12.05,55 L12.05,53.356 L8.006,53.356 L8.006,52.468 L11.51,46.624 L13.01,46.624 L13.01,52.516 L14.222,52.516 L14.222,53.356 L13.01,53.356 L13.01,55 Z M11.99,47.404 L8.954,52.516 L12.05,52.516 L12.05,47.404 L11.99,47.404 Z M15.77,57.4 L15.77,48.808 L16.73,48.808 L16.73,49.816 L16.778,49.816 C17.102,49.036 17.738,48.664 18.59,48.664 C20.138,48.664 21.11,49.924 21.11,51.904 C21.11,53.884 20.138,55.144 18.59,55.144 C17.738,55.144 17.15,54.76 16.778,53.992 L16.73,53.992 L16.73,57.4 L15.77,57.4 Z M18.326,54.28 C19.406,54.28 20.078,53.536 20.078,52.432 L20.078,51.376 C20.078,50.272 19.406,49.528 18.326,49.528 C17.45,49.528 16.73,50.032 16.73,50.716 L16.73,53.02 C16.73,53.824 17.45,54.28 18.326,54.28 Z M21.818,55 L24.11,51.88 L21.914,48.808 L23.042,48.808 L24.614,51.112 L24.65,51.112 L26.282,48.808 L27.35,48.808 L25.166,51.808 L27.398,55 L26.27,55 L24.662,52.576 L24.626,52.576 L22.886,55 L21.818,55 Z" id="24px" fill="#6F6F6F"></path>
                </g>
            </g>
        </g>
    </g>
</svg>