<?xml version="1.0" encoding="UTF-8"?>
<svg width="928px" height="522px" viewBox="0 0 928 522" version="1.1" xmlns="http://www.w3.org/2000/svg" xmlns:xlink="http://www.w3.org/1999/xlink">
    <!-- Generator: Sketch 51.2 (57519) - http://www.bohemiancoding.com/sketch -->
    <title>Sizing example comp</title>
    <desc>Created with Sketch.</desc>
    <defs>
        <path d="M23.71,5.29 L18.71,0.29 C18.5212812,0.102813486 18.265803,-0.0015367588 18,-8.55981918e-14 L2,-8.55981918e-14 C0.8954305,-8.55981918e-14 0,0.8954305 0,2 L0,22 C0,23.1045695 0.8954305,24 2,24 L22,24 C23.1045695,24 24,23.1045695 24,22 L24,6 C24.0015368,5.73419702 23.8971865,5.47871883 23.71,5.29 Z M8,2 L16,2 L16,6 L8,6 L8,2 Z M16,22 L8,22 L8,14 L16,14 L16,22 Z M18,22 L18,14 C18,12.8954305 17.1045695,12 16,12 L8,12 C6.8954305,12 6,12.8954305 6,14 L6,22 L2,22 L2,2 L6,2 L6,6 C6,7.1045695 6.8954305,8 8,8 L16,8 C17.1045695,8 18,7.1045695 18,6 L18,2.41 L22,6.41 L22,22 L18,22 Z" id="path-1"></path>
        <path d="M17.7825,3.9675 L14.0325,0.2175 C13.8909609,0.0771101142 13.6993522,-0.0011525691 13.5,-6.4198643e-14 L1.5,-6.4198643e-14 C0.671572875,-6.4198643e-14 0,0.671572875 0,1.5 L0,16.5 C0,17.3284271 0.671572875,18 1.5,18 L16.5,18 C17.3284271,18 18,17.3284271 18,16.5 L18,4.5 C18.0011526,4.30064776 17.9228899,4.10903912 17.7825,3.9675 Z M6,1.5 L12,1.5 L12,4.5 L6,4.5 L6,1.5 Z M12,16.5 L6,16.5 L6,10.5 L12,10.5 L12,16.5 Z M13.5,16.5 L13.5,10.5 C13.5,9.67157288 12.8284271,9 12,9 L6,9 C5.17157288,9 4.5,9.67157288 4.5,10.5 L4.5,16.5 L1.5,16.5 L1.5,1.5 L4.5,1.5 L4.5,4.5 C4.5,5.32842712 5.17157288,6 6,6 L12,6 C12.8284271,6 13.5,5.32842712 13.5,4.5 L13.5,1.8075 L16.5,4.8075 L16.5,16.5 L13.5,16.5 Z" id="path-3"></path>
        <path d="M14.81875,3.30625 L11.69375,0.18125 C11.5758007,0.0642584285 11.4161269,-0.00096047425 11.25,-5.43870487e-14 L1.25,-5.43870487e-14 C0.559644063,-5.43870487e-14 0,0.559644063 0,1.25 L0,13.75 C0,14.4403559 0.559644063,15 1.25,15 L13.75,15 C14.4403559,15 15,14.4403559 15,13.75 L15,3.75 C15.0009605,3.58387313 14.9357416,3.42419927 14.81875,3.30625 Z M5,1.25 L10,1.25 L10,3.75 L5,3.75 L5,1.25 Z M10,13.75 L5,13.75 L5,8.75 L10,8.75 L10,13.75 Z M11.25,13.75 L11.25,8.75 C11.25,8.05964406 10.6903559,7.5 10,7.5 L5,7.5 C4.30964406,7.5 3.75,8.05964406 3.75,8.75 L3.75,13.75 L1.25,13.75 L1.25,1.25 L3.75,1.25 L3.75,3.75 C3.75,4.44035594 4.30964406,5 5,5 L10,5 C10.6903559,5 11.25,4.44035594 11.25,3.75 L11.25,1.50625 L13.75,4.00625 L13.75,13.75 L11.25,13.75 Z" id="path-5"></path>
        <path d="M11.855,2.645 L9.355,0.145 C9.26064058,0.0514067428 9.13290149,-0.0007683794 9,-4.36872743e-14 L1,-4.36872743e-14 C0.44771525,-4.36872743e-14 0,0.44771525 0,1 L0,11 C0,11.5522847 0.44771525,12 1,12 L11,12 C11.5522847,12 12,11.5522847 12,11 L12,3 C12.0007684,2.86709851 11.9485933,2.73935942 11.855,2.645 Z M4,1 L8,1 L8,3 L4,3 L4,1 Z M8,11 L4,11 L4,7 L8,7 L8,11 Z M9,11 L9,7 C9,6.44771525 8.55228475,6 8,6 L4,6 C3.44771525,6 3,6.44771525 3,7 L3,11 L1,11 L1,1 L3,1 L3,3 C3,3.55228475 3.44771525,4 4,4 L8,4 C8.55228475,4 9,3.55228475 9,3 L9,1.205 L11,3.205 L11,11 L9,11 Z" id="path-7"></path>
    </defs>
    <g id="Page-1" stroke="none" stroke-width="1" fill="none" fill-rule="evenodd">
        <g id="Icons-Copy" transform="translate(-352.000000, -16231.000000)">
            <g id="Sizing-example-comp" transform="translate(352.000000, 16231.000000)">
                <rect id="Rectangle-3" fill="#FFFFFF" x="0" y="0" width="928" height="522"></rect>
                <g id="Group-27" transform="translate(696.000000, 235.000000)">
                    <g id="Group">
                        <g id="icon/formatting/save/32">
                            <g id="save" stroke-width="1" fill-rule="evenodd" transform="translate(4.000000, 4.000000)">
                                <mask id="mask-2" fill="white">
                                    <use xlink:href="#path-1"></use>
                                </mask>
                                <use id="Mask" fill="#000000" fill-rule="nonzero" xlink:href="#path-1"></use>
                                <g id="color/black" mask="url(#mask-2)">
                                    <g transform="translate(-4.000000, -4.000000)"></g>
                                </g>
                            </g>
                            <rect id="transparent-rectangle" x="0" y="0" width="32" height="32"></rect>
                        </g>
                    </g>
                    <path d="M2.665,54.372 L3.729,54.372 C5.045,54.372 5.717,53.686 5.717,52.748 L5.717,52.65 C5.717,51.628 5.003,51.11 3.967,51.11 C2.959,51.11 2.357,51.586 1.951,52.328 L1.083,51.656 C1.573,50.872 2.427,50.06 3.995,50.06 C5.647,50.06 6.963,50.942 6.963,52.524 C6.963,53.784 6.123,54.54 5.087,54.806 L5.087,54.862 C6.137,55.072 7.145,55.856 7.145,57.326 C7.145,59.006 5.815,60.168 3.827,60.168 C2.133,60.168 1.265,59.342 0.663,58.502 L1.545,57.83 C2.049,58.6 2.623,59.118 3.813,59.118 C5.185,59.118 5.913,58.46 5.913,57.312 L5.913,57.2 C5.913,56.052 5.185,55.394 3.813,55.394 L2.665,55.394 L2.665,54.372 Z M15.937,58.964 L15.937,60 L9.525,60 L9.525,58.796 L12.717,55.856 C13.627,55.016 14.327,54.036 14.327,53.098 L14.327,52.93 C14.327,51.852 13.725,51.11 12.521,51.11 C11.317,51.11 10.757,51.838 10.491,52.762 L9.441,52.356 C9.819,51.208 10.687,50.06 12.577,50.06 C14.481,50.06 15.573,51.236 15.573,52.902 C15.573,54.414 14.677,55.478 13.431,56.598 L10.799,58.964 L15.937,58.964 Z M18.065,62.8 L18.065,52.776 L19.185,52.776 L19.185,53.952 L19.241,53.952 C19.619,53.042 20.361,52.608 21.355,52.608 C23.161,52.608 24.295,54.078 24.295,56.388 C24.295,58.698 23.161,60.168 21.355,60.168 C20.361,60.168 19.675,59.72 19.241,58.824 L19.185,58.824 L19.185,62.8 L18.065,62.8 Z M21.047,59.16 C22.307,59.16 23.091,58.292 23.091,57.004 L23.091,55.772 C23.091,54.484 22.307,53.616 21.047,53.616 C20.025,53.616 19.185,54.204 19.185,55.002 L19.185,57.69 C19.185,58.628 20.025,59.16 21.047,59.16 Z M25.121,60 L27.795,56.36 L25.233,52.776 L26.549,52.776 L28.383,55.464 L28.425,55.464 L30.329,52.776 L31.575,52.776 L29.027,56.276 L31.631,60 L30.315,60 L28.439,57.172 L28.397,57.172 L26.367,60 L25.121,60 Z" id="32px" fill="#6F6F6F"></path>
                </g>
                <g id="Group-23" transform="translate(529.000000, 239.000000)">
                    <g id="Group" transform="translate(4.000000, 0.000000)">
                        <g id="icon/formatting/save/32">
                            <g id="save" stroke-width="1" fill-rule="evenodd" transform="translate(3.000000, 3.000000)">
                                <mask id="mask-4" fill="white">
                                    <use xlink:href="#path-3"></use>
                                </mask>
                                <use id="Mask" fill="#000000" fill-rule="nonzero" xlink:href="#path-3"></use>
                                <g id="color/black" mask="url(#mask-4)">
                                    <g transform="translate(-3.000000, -3.000000)"></g>
                                </g>
                            </g>
                            <rect id="transparent-rectangle" x="0" y="0" width="24" height="24"></rect>
                        </g>
                    </g>
                    <path d="M7.537,54.964 L7.537,56 L1.125,56 L1.125,54.796 L4.317,51.856 C5.227,51.016 5.927,50.036 5.927,49.098 L5.927,48.93 C5.927,47.852 5.325,47.11 4.121,47.11 C2.917,47.11 2.357,47.838 2.091,48.762 L1.041,48.356 C1.419,47.208 2.287,46.06 4.177,46.06 C6.081,46.06 7.173,47.236 7.173,48.902 C7.173,50.414 6.277,51.478 5.031,52.598 L2.399,54.964 L7.537,54.964 Z M14.845,56 L13.725,56 L13.725,54.082 L9.007,54.082 L9.007,53.046 L13.095,46.228 L14.845,46.228 L14.845,53.102 L16.259,53.102 L16.259,54.082 L14.845,54.082 L14.845,56 Z M13.655,47.138 L10.113,53.102 L13.725,53.102 L13.725,47.138 L13.655,47.138 Z M18.065,58.8 L18.065,48.776 L19.185,48.776 L19.185,49.952 L19.241,49.952 C19.619,49.042 20.361,48.608 21.355,48.608 C23.161,48.608 24.295,50.078 24.295,52.388 C24.295,54.698 23.161,56.168 21.355,56.168 C20.361,56.168 19.675,55.72 19.241,54.824 L19.185,54.824 L19.185,58.8 L18.065,58.8 Z M21.047,55.16 C22.307,55.16 23.091,54.292 23.091,53.004 L23.091,51.772 C23.091,50.484 22.307,49.616 21.047,49.616 C20.025,49.616 19.185,50.204 19.185,51.002 L19.185,53.69 C19.185,54.628 20.025,55.16 21.047,55.16 Z M25.121,56 L27.795,52.36 L25.233,48.776 L26.549,48.776 L28.383,51.464 L28.425,51.464 L30.329,48.776 L31.575,48.776 L29.027,52.276 L31.631,56 L30.315,56 L28.439,53.172 L28.397,53.172 L26.367,56 L25.121,56 Z" id="24px" fill="#6F6F6F"></path>
                </g>
                <g id="Group-21" transform="translate(363.000000, 241.000000)">
                    <g id="Group" transform="translate(6.000000, 0.000000)">
                        <g id="icon/formatting/save/32">
                            <g id="save" stroke-width="1" fill-rule="evenodd" transform="translate(2.500000, 2.500000)">
                                <mask id="mask-6" fill="white">
                                    <use xlink:href="#path-5"></use>
                                </mask>
                                <use id="Mask" fill="#000000" fill-rule="nonzero" xlink:href="#path-5"></use>
                                <g id="color/black" mask="url(#mask-6)">
                                    <g transform="translate(-2.500000, -2.500000)"></g>
                                </g>
                            </g>
                            <rect id="transparent-rectangle" x="0" y="0" width="20" height="20"></rect>
                        </g>
                    </g>
                    <path d="M7.537,52.964 L7.537,54 L1.125,54 L1.125,52.796 L4.317,49.856 C5.227,49.016 5.927,48.036 5.927,47.098 L5.927,46.93 C5.927,45.852 5.325,45.11 4.121,45.11 C2.917,45.11 2.357,45.838 2.091,46.762 L1.041,46.356 C1.419,45.208 2.287,44.06 4.177,44.06 C6.081,44.06 7.173,45.236 7.173,46.902 C7.173,48.414 6.277,49.478 5.031,50.598 L2.399,52.964 L7.537,52.964 Z M12.675,54.168 C10.337,54.168 9.315,52.306 9.315,49.114 C9.315,45.922 10.337,44.06 12.675,44.06 C15.013,44.06 16.035,45.922 16.035,49.114 C16.035,52.306 15.013,54.168 12.675,54.168 Z M12.675,53.146 C14.201,53.146 14.803,51.802 14.803,49.912 L14.803,48.316 C14.803,46.426 14.201,45.082 12.675,45.082 C11.149,45.082 10.547,46.426 10.547,48.316 L10.547,49.912 C10.547,51.802 11.149,53.146 12.675,53.146 Z M18.065,56.8 L18.065,46.776 L19.185,46.776 L19.185,47.952 L19.241,47.952 C19.619,47.042 20.361,46.608 21.355,46.608 C23.161,46.608 24.295,48.078 24.295,50.388 C24.295,52.698 23.161,54.168 21.355,54.168 C20.361,54.168 19.675,53.72 19.241,52.824 L19.185,52.824 L19.185,56.8 L18.065,56.8 Z M21.047,53.16 C22.307,53.16 23.091,52.292 23.091,51.004 L23.091,49.772 C23.091,48.484 22.307,47.616 21.047,47.616 C20.025,47.616 19.185,48.204 19.185,49.002 L19.185,51.69 C19.185,52.628 20.025,53.16 21.047,53.16 Z M25.121,54 L27.795,50.36 L25.233,46.776 L26.549,46.776 L28.383,49.464 L28.425,49.464 L30.329,46.776 L31.575,46.776 L29.027,50.276 L31.631,54 L30.315,54 L28.439,51.172 L28.397,51.172 L26.367,54 L25.121,54 Z" id="20px" fill="#6F6F6F"></path>
                </g>
                <g id="Group-20" transform="translate(196.000000, 243.000000)">
                    <g id="Group" transform="translate(8.000000, 0.000000)">
                        <g id="icon/formatting/save/32">
                            <g id="save" stroke-width="1" fill-rule="evenodd" transform="translate(2.000000, 2.000000)">
                                <mask id="mask-8" fill="white">
                                    <use xlink:href="#path-7"></use>
                                </mask>
                                <use id="Mask" fill="#000000" fill-rule="nonzero" xlink:href="#path-7"></use>
                                <g id="color/black" mask="url(#mask-8)">
                                    <g transform="translate(-2.000000, -2.000000)"></g>
                                </g>
                            </g>
                            <rect id="transparent-rectangle" x="0" y="0" width="16" height="16"></rect>
                        </g>
                    </g>
                    <path d="M7.733,52 L1.307,52 L1.307,50.964 L4.037,50.964 L4.037,43.096 L3.939,43.096 L1.475,45.392 L0.789,44.65 L3.379,42.228 L5.213,42.228 L5.213,50.964 L7.733,50.964 L7.733,52 Z M12.689,52.168 C10.659,52.168 9.413,50.74 9.413,48.416 C9.413,45.518 11.331,43.25 12.899,42.228 L14.411,42.228 C12.325,43.754 11.163,45.028 10.631,47.296 L10.701,47.324 C11.163,46.526 11.863,45.924 13.053,45.924 C14.733,45.924 15.937,47.086 15.937,48.934 C15.937,50.852 14.649,52.168 12.689,52.168 Z M12.675,51.146 C13.963,51.146 14.719,50.404 14.719,49.088 L14.719,48.976 C14.719,47.66 13.963,46.918 12.675,46.918 C11.387,46.918 10.631,47.66 10.631,48.976 L10.631,49.088 C10.631,50.404 11.387,51.146 12.675,51.146 Z M18.065,54.8 L18.065,44.776 L19.185,44.776 L19.185,45.952 L19.241,45.952 C19.619,45.042 20.361,44.608 21.355,44.608 C23.161,44.608 24.295,46.078 24.295,48.388 C24.295,50.698 23.161,52.168 21.355,52.168 C20.361,52.168 19.675,51.72 19.241,50.824 L19.185,50.824 L19.185,54.8 L18.065,54.8 Z M21.047,51.16 C22.307,51.16 23.091,50.292 23.091,49.004 L23.091,47.772 C23.091,46.484 22.307,45.616 21.047,45.616 C20.025,45.616 19.185,46.204 19.185,47.002 L19.185,49.69 C19.185,50.628 20.025,51.16 21.047,51.16 Z M25.121,52 L27.795,48.36 L25.233,44.776 L26.549,44.776 L28.383,47.464 L28.425,47.464 L30.329,44.776 L31.575,44.776 L29.027,48.276 L31.631,52 L30.315,52 L28.439,49.172 L28.397,49.172 L26.367,52 L25.121,52 Z" id="16px" fill="#6F6F6F"></path>
                </g>
            </g>
        </g>
    </g>
</svg>